<svg xmlns="http://www.w3.org/2000/svg" viewBox="0 0 580 451"><defs><style>.cls-1{fill:#001b45;}.cls-2{fill:#0086cd;}.cls-3{fill:#00a6e8;}.cls-4{fill:#c9edfc;}.cls-5{fill:#00beff;}.cls-6{fill:#f3f3f3;}.cls-7{fill:#121212;}.cls-8{fill:none;stroke:#121212;stroke-miterlimit:10;stroke-width:0.98px;}</style></defs><title>accionistas-diversificacion-eng</title><g id="cab"><path class="cls-1" d="M399.68,44.28A198.44,198.44,0,0,0,278,3.57V17.46h0c104,0,188.29,84.3,188.29,188.29a187.45,187.45,0,0,1-37.92,113.32l11.08,8.35C506.67,238.25,488.85,111.48,399.68,44.28Z"/><path class="cls-2" d="M375,367.17l7.14,11.88c24.12-14.49,40.4-29.15,57.34-51.63l-11.08-8.35A189.27,189.27,0,0,1,375,367.17Z"/><path class="cls-3" d="M345.5,381.58l5,12.93a204.87,204.87,0,0,0,31.68-15.45L375,367.17A187.51,187.51,0,0,1,345.5,381.58Z"/><path class="cls-4" d="M329.92,386.8l3.82,13.3c6-1.72,10.89-3.36,16.73-5.6l-5-12.93Q337.86,384.51,329.92,386.8Z"/><path class="cls-5" d="M428.84,163.58C409.27,95.35,348.42,49.49,277.44,49.49v13.7a143.82,143.82,0,0,1,39.65,282.06l3.77,13.14A157.5,157.5,0,0,0,428.84,163.58Z"/><path class="cls-6" d="M277.44,350.79a143.8,143.8,0,1,1,0-287.6V49.49a157.5,157.5,0,0,0,0,315,144.63,144.63,0,0,0,43.41-6.1l-3.77-13.14A143.88,143.88,0,0,1,277.44,350.79Z"/><path d="M7.84,98.88l.86-1.42a3.85,3.85,0,0,0,2.88,1.4,2.1,2.1,0,0,0,2.35-2.18,2,2,0,0,0-2.14-2.15,2.66,2.66,0,0,0-2.21,1l-1.22-.41.43-5.8h6.11L15.19,91h-5L10,93.8a3.06,3.06,0,0,1,2.3-.81,3.31,3.31,0,0,1,3.48,3.62,3.75,3.75,0,0,1-4.09,3.88A5,5,0,0,1,7.84,98.88Z"/><path d="M22.14,100.28V98H16.88V96.59l5-7.23h2.08v7.08h1.74L25.83,98h-1.9v2.24Zm-3.33-3.84h3.33v-4.9h0Z"/><path d="M27,99.32a1.13,1.13,0,0,1,2.26,0,1.13,1.13,0,0,1-2.26,0Z"/><path d="M30.43,95c0-3.85,2.21-5.86,4.75-5.86A4.42,4.42,0,0,1,37.9,90l-.68,1.49a3,3,0,0,0-2-.74c-1.77,0-2.88,1.4-3,3.75a4.24,4.24,0,0,1,2.89-1.18,3.17,3.17,0,0,1,3.47,3.44,3.63,3.63,0,0,1-3.94,3.72C32.24,100.48,30.43,98.65,30.43,95Zm6.42,1.83a1.82,1.82,0,0,0-2.07-2,3.28,3.28,0,0,0-2.54,1.08c.15,2,1.11,3,2.49,3A2,2,0,0,0,36.85,96.84Z"/><path d="M39.52,92.65c0-2.11,1.06-3.45,2.76-3.45S45,90.54,45,92.62s-1,3.47-2.74,3.47S39.52,94.72,39.52,92.65Zm4,0c0-1.37-.4-2.24-1.21-2.24S41,91.31,41,92.62s.4,2.27,1.24,2.27S43.47,94,43.47,92.65Zm-1,7.63L49,89.36h1.58L44,100.28ZM48,97c0-2.11,1.06-3.47,2.76-3.47s2.73,1.36,2.73,3.44-1,3.47-2.74,3.47S48,99,48,97Zm4,0c0-1.37-.38-2.23-1.21-2.23s-1.21.9-1.21,2.21.38,2.26,1.22,2.26S52,98.29,52,97Z"/><path d="M8.8,118.53V107.61H9.92l6,9h0v-9h1v10.92H16l-6.21-9.28h0v9.28Z"/><path d="M19.05,114.64c0-2.6,1.61-4,3.53-4s3.51,1.45,3.51,4-1.61,4-3.51,4S19.05,117.23,19.05,114.64Zm6,0c0-1.71-.86-3.17-2.49-3.17s-2.51,1.34-2.51,3.17.84,3.17,2.51,3.17S25.07,116.47,25.07,114.64Z"/><path d="M28,118.53v-7.76h.92L29,112a4.2,4.2,0,0,1,2.94-1.39,2.08,2.08,0,0,1,2.35,2.29v5.64h-1V113.1c0-1.09-.47-1.64-1.56-1.64a3.92,3.92,0,0,0-2.7,1.36v5.71Z"/><path d="M36.4,114.33v-.89h3.32v.89Z"/><path d="M41.88,118.53v-7.76h.92l.1,1.52h0A3.4,3.4,0,0,1,46,110.6h.1l.09.94a3,3,0,0,0-.37,0,3.16,3.16,0,0,0-2.91,1.93v5.06Z"/><path d="M47,114.63c0-2.74,1.77-4,3.41-4,1.8,0,3.17,1.39,3.17,4v.19H48c0,1.9,1.11,3,2.55,3A3.25,3.25,0,0,0,53,116.68l.5.66a3.8,3.8,0,0,1-3,1.34C48.56,118.69,47,117.29,47,114.63Zm5.59-.59c-.1-1.48-.81-2.58-2.2-2.58-1.12,0-2.18.84-2.36,2.58Z"/><path d="M55,117.29l.56-.62A3.16,3.16,0,0,0,58,117.83c1.33,0,2-.52,2-1.34s-.53-1.21-2.14-1.58c-1.87-.46-2.7-.94-2.7-2.27,0-1.11,1-2,2.64-2a3.88,3.88,0,0,1,2.86,1.09l-.52.71a3.17,3.17,0,0,0-2.32-1c-1.18,0-1.68.55-1.68,1.15s.43,1,1.86,1.39c2.07.49,3,1,3,2.43s-1.27,2.24-3,2.24A3.75,3.75,0,0,1,55,117.29Z"/><path d="M62.76,108.4a.62.62,0,0,1,1.24,0,.62.62,0,1,1-1.24,0Zm.12,10.12v-7.76h1v7.76Z"/><path d="M65.81,114.66c0-2.72,1.43-4.06,3.23-4.06a3.4,3.4,0,0,1,2.57,1.22v-4.15l1-.15v11h-.91l-.1-1.12a3.42,3.42,0,0,1-2.6,1.25C67.23,118.66,65.81,117.37,65.81,114.66Zm5.8,1.86v-3.79a3.38,3.38,0,0,0-2.45-1.27c-1.28,0-2.33,1-2.33,3.19s1.06,3.14,2.36,3.14A3.3,3.3,0,0,0,71.61,116.52Z"/><path d="M74.51,114.63c0-2.74,1.77-4,3.41-4,1.8,0,3.17,1.39,3.17,4v.19H75.53c0,1.9,1.11,3,2.55,3a3.25,3.25,0,0,0,2.49-1.15l.5.66a3.8,3.8,0,0,1-3,1.34C76.1,118.69,74.51,117.29,74.51,114.63ZM80.1,114c-.1-1.48-.81-2.58-2.2-2.58-1.12,0-2.18.84-2.36,2.58Z"/><path d="M83,118.53v-7.76h.91L84,112a4.2,4.2,0,0,1,2.94-1.39,2.08,2.08,0,0,1,2.35,2.29v5.64h-1V113.1c0-1.09-.47-1.64-1.56-1.64a3.92,3.92,0,0,0-2.7,1.36v5.71Z"/><path d="M92,116.68v-5.06H90.62v-.86H92V108l1-.15v2.88h2v.86H93v4.91c0,.83.31,1.24,1.21,1.24a2.93,2.93,0,0,0,.77-.1l.12.87a6.79,6.79,0,0,1-1.06.09C92.63,118.63,92,118.1,92,116.68Z"/><path d="M499.49,188.12l1-1.25a3.57,3.57,0,0,0,2.88,1.5c1.43,0,2.24-.65,2.24-1.68,0-1.33-.93-1.89-3.05-1.89h-.4l-.19-1.5h.65c2.14,0,2.7-.66,2.7-1.59s-.52-1.37-1.89-1.37a3.51,3.51,0,0,0-2.6,1.22l-.92-1.39a5.21,5.21,0,0,1,3.7-1.49c2.35,0,3.51,1.14,3.51,2.76a2.45,2.45,0,0,1-2.1,2.55,2.6,2.6,0,0,1,2.41,2.79c0,1.93-1.59,3.22-4,3.22A4.79,4.79,0,0,1,499.49,188.12Z"/><path d="M508.59,188.38l.86-1.42a3.85,3.85,0,0,0,2.88,1.4,2.1,2.1,0,0,0,2.35-2.18,2,2,0,0,0-2.14-2.15,2.66,2.66,0,0,0-2.21,1l-1.22-.41.43-5.8h6.11l.31,1.62h-5l-.25,2.82a3.06,3.06,0,0,1,2.3-.81,3.31,3.31,0,0,1,3.48,3.62,3.75,3.75,0,0,1-4.09,3.88A5,5,0,0,1,508.59,188.38Z"/><path d="M517.81,188.83a1.13,1.13,0,0,1,2.26,0,1.13,1.13,0,0,1-2.26,0Z"/><path d="M521.23,184.33c0-3.41,1.59-5.67,4.34-5.67s4.31,2.26,4.31,5.67-1.56,5.67-4.31,5.67S521.23,187.73,521.23,184.33Zm6.8,0c0-2.73-.93-4-2.46-4s-2.49,1.28-2.49,4,.94,4,2.49,4S528,187.06,528,184.33Z"/><path d="M531.23,182.16c0-2.11,1.06-3.45,2.76-3.45s2.73,1.34,2.73,3.42-1,3.47-2.74,3.47S531.23,184.22,531.23,182.16Zm4,0c0-1.37-.4-2.24-1.21-2.24s-1.22.9-1.22,2.21.4,2.27,1.24,2.27S535.19,183.47,535.19,182.16Zm-1,7.63,6.52-10.92h1.58l-6.52,10.92Zm5.56-3.29c0-2.11,1.06-3.47,2.76-3.47s2.73,1.36,2.73,3.44-1,3.47-2.74,3.47S539.75,188.55,539.75,186.5Zm4,0c0-1.37-.38-2.23-1.21-2.23s-1.21.9-1.21,2.21.38,2.26,1.22,2.26S543.7,187.79,543.7,186.48Z"/><path d="M500.09,208V197.11h1V208Z"/><path d="M503.69,208v-7.76h.92l.1,1.22a4.2,4.2,0,0,1,2.94-1.39A2.08,2.08,0,0,1,510,202.4V208h-1V202.6c0-1.09-.47-1.64-1.56-1.64a3.92,3.92,0,0,0-2.7,1.36V208Z"/><path d="M511.84,204.17c0-2.72,1.43-4.06,3.23-4.06a3.4,3.4,0,0,1,2.57,1.22v-4.15l1-.15v11h-.91l-.1-1.12a3.42,3.42,0,0,1-2.6,1.25C513.25,208.17,511.84,206.88,511.84,204.17Zm5.8,1.86v-3.79a3.38,3.38,0,0,0-2.45-1.27c-1.28,0-2.33,1-2.33,3.19s1.06,3.14,2.36,3.14A3.3,3.3,0,0,0,517.63,206Z"/><path d="M520.87,197.91a.62.62,0,1,1,1.24,0,.62.62,0,1,1-1.24,0ZM521,208v-7.76h1V208Z"/><path d="M526.38,208.08l-2.83-7.72,1-.19,2.35,6.65h0l2.29-6.55h1l-2.86,7.81Z"/><path d="M531.69,197.91a.62.62,0,1,1,1.24,0,.62.62,0,1,1-1.24,0Zm.12,10.12v-7.76h1V208Z"/><path d="M534.74,204.17c0-2.72,1.43-4.06,3.23-4.06a3.4,3.4,0,0,1,2.57,1.22v-4.15l1-.15v11h-.91l-.1-1.12a3.42,3.42,0,0,1-2.6,1.25C536.15,208.17,534.74,206.88,534.74,204.17Zm5.8,1.86v-3.79a3.38,3.38,0,0,0-2.45-1.27c-1.28,0-2.33,1-2.33,3.19s1.06,3.14,2.36,3.14A3.3,3.3,0,0,0,540.54,206Z"/><path d="M543.8,205.91v-5.64h1v5.43c0,1.09.46,1.62,1.55,1.62a4,4,0,0,0,2.72-1.36v-5.7h1V208h-.92l-.1-1.22a4.33,4.33,0,0,1-3,1.39A2.08,2.08,0,0,1,543.8,205.91Z"/><path d="M551.91,206.2c0-1.53,1.31-2.64,5.27-3.25v-.4a1.43,1.43,0,0,0-1.59-1.59,4.09,4.09,0,0,0-2.88,1.22l-.58-.63a4.85,4.85,0,0,1,3.53-1.45,2.23,2.23,0,0,1,2.52,2.48V208h-.9l-.1-1.11a4.52,4.52,0,0,1-3.07,1.24A1.92,1.92,0,0,1,551.91,206.2Zm5.27-.1v-2.42c-3.42.59-4.26,1.4-4.26,2.41,0,.81.53,1.24,1.42,1.24A4.05,4.05,0,0,0,557.18,206.1Z"/><path d="M560.47,208V197.19l1-.15v11Z"/><path d="M563.23,206.79l.56-.62a3.16,3.16,0,0,0,2.49,1.17c1.33,0,2-.52,2-1.34s-.53-1.21-2.14-1.58c-1.87-.46-2.7-.94-2.7-2.27,0-1.11,1-2,2.64-2A3.88,3.88,0,0,1,569,201.2l-.52.71a3.17,3.17,0,0,0-2.32-1c-1.18,0-1.68.55-1.68,1.15s.43,1,1.86,1.39c2.07.49,3,1,3,2.43s-1.27,2.24-3,2.24A3.75,3.75,0,0,1,563.23,206.79Z"/><path d="M475.57,339c0-3.85,2.21-5.86,4.75-5.86A4.42,4.42,0,0,1,483,334l-.68,1.49a3,3,0,0,0-2-.74c-1.77,0-2.88,1.4-3,3.75a4.24,4.24,0,0,1,2.89-1.18,3.17,3.17,0,0,1,3.47,3.44,3.63,3.63,0,0,1-3.94,3.72C477.39,344.51,475.57,342.68,475.57,339Zm6.42,1.83a1.82,1.82,0,0,0-2.07-2,3.28,3.28,0,0,0-2.54,1.08c.15,2,1.11,3,2.49,3A2,2,0,0,0,482,340.86Z"/><path d="M485.12,343.34a1.13,1.13,0,0,1,2.26,0,1.13,1.13,0,0,1-2.26,0Z"/><path d="M488.77,342.63l1-1.25a3.57,3.57,0,0,0,2.88,1.5c1.43,0,2.24-.65,2.24-1.68,0-1.33-.93-1.89-3.05-1.89h-.4l-.19-1.5h.65c2.14,0,2.7-.66,2.7-1.59s-.52-1.37-1.89-1.37a3.51,3.51,0,0,0-2.6,1.22l-.92-1.39a5.21,5.21,0,0,1,3.7-1.49c2.35,0,3.51,1.14,3.51,2.76a2.45,2.45,0,0,1-2.1,2.55,2.6,2.6,0,0,1,2.41,2.79c0,1.93-1.59,3.22-4,3.22A4.79,4.79,0,0,1,488.77,342.63Z"/><path d="M498,336.67c0-2.11,1.06-3.45,2.76-3.45s2.73,1.34,2.73,3.42-1,3.47-2.74,3.47S498,338.74,498,336.67Zm4,0c0-1.37-.4-2.24-1.21-2.24s-1.22.9-1.22,2.21.4,2.27,1.24,2.27S502,338,502,336.67Zm-1,7.63,6.52-10.92h1.58l-6.52,10.92Zm5.56-3.29c0-2.11,1.06-3.47,2.76-3.47S512,338.9,512,341s-1,3.47-2.74,3.47S506.52,343.06,506.52,341Zm4,0c0-1.37-.38-2.23-1.21-2.23s-1.21.9-1.21,2.21.38,2.26,1.22,2.26S510.47,342.31,510.47,341Z"/><path d="M475.83,362.55V351.63h1v10.92Z"/><path d="M479.43,362.55v-7.76h.92l.1,1.22a4.2,4.2,0,0,1,2.94-1.39,2.08,2.08,0,0,1,2.35,2.29v5.64h-1v-5.43c0-1.09-.47-1.64-1.56-1.64a3.92,3.92,0,0,0-2.7,1.36v5.71Z"/><path d="M487.39,361.31l.56-.62a3.16,3.16,0,0,0,2.49,1.17c1.33,0,2-.52,2-1.34s-.53-1.21-2.14-1.58c-1.87-.46-2.7-.94-2.7-2.27,0-1.11,1-2,2.64-2a3.88,3.88,0,0,1,2.86,1.09l-.52.71a3.17,3.17,0,0,0-2.32-1c-1.18,0-1.68.55-1.68,1.15s.43,1,1.86,1.39c2.07.49,3,1,3,2.43s-1.27,2.24-3,2.24A3.75,3.75,0,0,1,487.39,361.31Z"/><path d="M495.91,360.7v-5.06h-1.34v-.86h1.34v-2.73l1-.15v2.88h2v.86h-2v4.91c0,.83.31,1.24,1.21,1.24a2.92,2.92,0,0,0,.77-.1l.12.87a6.79,6.79,0,0,1-1.06.09C496.57,362.65,495.91,362.12,495.91,360.7Z"/><path d="M500.53,352.42a.62.62,0,1,1,1.24,0,.62.62,0,1,1-1.24,0Zm.12,10.12v-7.76h1v7.76Z"/><path d="M504.52,360.7v-5.06h-1.34v-.86h1.34v-2.73l1-.15v2.88h2v.86h-2v4.91c0,.83.31,1.24,1.21,1.24a2.93,2.93,0,0,0,.77-.1l.12.87a6.79,6.79,0,0,1-1.06.09C505.18,362.65,504.52,362.12,504.52,360.7Z"/><path d="M509.14,360.42v-5.64h1v5.43c0,1.09.46,1.62,1.55,1.62a4,4,0,0,0,2.72-1.36v-5.7h1v7.76h-.92l-.1-1.22a4.33,4.33,0,0,1-3,1.39A2.08,2.08,0,0,1,509.14,360.42Z"/><path d="M518.27,360.7v-5.06h-1.34v-.86h1.34v-2.73l1-.15v2.88h2v.86h-2v4.91c0,.83.31,1.24,1.21,1.24a2.92,2.92,0,0,0,.77-.1l.12.87a6.79,6.79,0,0,1-1.06.09C518.93,362.65,518.27,362.12,518.27,360.7Z"/><path d="M522.89,352.42a.62.62,0,1,1,1.24,0,.62.62,0,1,1-1.24,0Zm.12,10.12v-7.76h1v7.76Z"/><path d="M525.9,358.67c0-2.6,1.61-4,3.53-4s3.51,1.45,3.51,4-1.61,4-3.51,4S525.9,361.25,525.9,358.67Zm6,0c0-1.71-.86-3.17-2.49-3.17s-2.51,1.34-2.51,3.17.84,3.17,2.51,3.17S531.92,360.5,531.92,358.67Z"/><path d="M534.83,362.55v-7.76h.92l.1,1.22a4.2,4.2,0,0,1,2.94-1.39,2.08,2.08,0,0,1,2.35,2.29v5.64h-1v-5.43c0-1.09-.47-1.64-1.56-1.64a3.92,3.92,0,0,0-2.7,1.36v5.71Z"/><path d="M542.78,361.31l.56-.62a3.16,3.16,0,0,0,2.49,1.17c1.33,0,2-.52,2-1.34s-.53-1.21-2.14-1.58c-1.87-.46-2.7-.94-2.7-2.27,0-1.11,1-2,2.64-2a3.88,3.88,0,0,1,2.86,1.09l-.52.71a3.17,3.17,0,0,0-2.32-1c-1.18,0-1.68.55-1.68,1.15s.43,1,1.86,1.39c2.07.49,3,1,3,2.43s-1.27,2.24-3,2.24A3.75,3.75,0,0,1,542.78,361.31Z"/><path d="M423.71,385.28V385c0-1.59.55-3.1,3.42-4.94,1.68-1.06,2.35-1.61,2.35-2.73,0-.94-.63-1.56-1.77-1.56a2.94,2.94,0,0,0-2.55,1.73l-1.27-1.08a4.27,4.27,0,0,1,3.88-2.3c2.2,0,3.5,1.24,3.5,3.1,0,1.33-.49,2.35-2.58,3.67-1.71,1.09-2.77,2-2.82,2.73h5.34l.24,1.62Z"/><path d="M433.16,384.32a1.13,1.13,0,0,1,2.26,0,1.13,1.13,0,0,1-2.26,0Z"/><path d="M436.63,380c0-3.85,2.21-5.86,4.75-5.86a4.42,4.42,0,0,1,2.72.86l-.68,1.49a3,3,0,0,0-2-.74c-1.77,0-2.88,1.4-3,3.75a4.24,4.24,0,0,1,2.89-1.18,3.17,3.17,0,0,1,3.47,3.44,3.63,3.63,0,0,1-3.94,3.72C438.44,385.49,436.63,383.66,436.63,380Zm6.42,1.83a1.82,1.82,0,0,0-2.07-2,3.28,3.28,0,0,0-2.54,1.08c.15,2,1.11,3,2.49,3A2,2,0,0,0,443,381.84Z"/><path d="M445.72,377.65c0-2.11,1.06-3.45,2.76-3.45s2.73,1.34,2.73,3.42-1,3.47-2.74,3.47S445.72,379.72,445.72,377.65Zm4,0c0-1.37-.4-2.24-1.21-2.24s-1.22.9-1.22,2.21.4,2.27,1.24,2.27S449.67,379,449.67,377.65Zm-1,7.63,6.52-10.92h1.58l-6.52,10.92Zm5.56-3.29c0-2.11,1.06-3.47,2.76-3.47s2.73,1.36,2.73,3.44-1,3.47-2.74,3.47S454.23,384,454.23,382Zm4,0c0-1.37-.38-2.23-1.21-2.23s-1.21.9-1.21,2.21.38,2.26,1.22,2.26S458.18,383.29,458.18,382Z"/><path d="M424,403.53V392.61h6.52v1H425v3.7h4.09l.16.94H425v4.34h5.78v1Z"/><path d="M432.52,403.53v-7.76h.91l.1,1.22a4,4,0,0,1,2.85-1.39,1.93,1.93,0,0,1,2.15,1.4,4.3,4.3,0,0,1,2.92-1.4,2,2,0,0,1,2.24,2.3v5.62h-1V398.1c0-1.09-.37-1.62-1.46-1.62a3.79,3.79,0,0,0-2.6,1.36v5.7h-1V398.1c0-1.09-.37-1.62-1.48-1.62a3.82,3.82,0,0,0-2.6,1.36v5.7Z"/><path d="M446,406.55V395.77h.92l.1,1.09a3.42,3.42,0,0,1,2.6-1.25c1.79,0,3.2,1.31,3.2,4s-1.43,4-3.23,4a3.5,3.5,0,0,1-2.57-1.2v3.94Zm5.8-6.91c0-2.14-1.06-3.17-2.36-3.17a3.35,3.35,0,0,0-2.42,1.27v3.81a3.36,3.36,0,0,0,2.45,1.25C450.74,402.81,451.77,401.88,451.77,399.65Z"/><path d="M454.76,403.53V392.68l1-.15v11Z"/><path d="M457.69,399.65c0-2.6,1.61-4,3.53-4s3.51,1.45,3.51,4-1.61,4-3.51,4S457.69,402.23,457.69,399.65Zm6,0c0-1.71-.86-3.17-2.49-3.17s-2.51,1.34-2.51,3.17.84,3.17,2.51,3.17S463.71,401.48,463.71,399.65Z"/><path d="M465.54,406.39l-.07-.89a4.82,4.82,0,0,0,1.12.13,1.56,1.56,0,0,0,1.61-1.21l.32-.86-3-7.72,1-.19,2.45,6.65h0l2.41-6.55h1.06l-3.35,8.66c-.53,1.39-1.11,2.07-2.6,2.07A4,4,0,0,1,465.54,406.39Z"/><path d="M473.31,399.63c0-2.74,1.77-4,3.41-4,1.8,0,3.17,1.39,3.17,4v.19h-5.56c0,1.9,1.11,3,2.55,3a3.25,3.25,0,0,0,2.49-1.15l.5.66a3.8,3.8,0,0,1-3,1.34C474.9,403.69,473.31,402.29,473.31,399.63Zm5.59-.59c-.1-1.48-.81-2.58-2.2-2.58-1.12,0-2.18.84-2.36,2.58Z"/><path d="M481.35,399.63c0-2.74,1.77-4,3.41-4,1.8,0,3.17,1.39,3.17,4v.19h-5.56c0,1.9,1.11,3,2.55,3a3.25,3.25,0,0,0,2.49-1.15l.5.66a3.8,3.8,0,0,1-3,1.34C482.94,403.69,481.35,402.29,481.35,399.63Zm5.59-.59c-.1-1.48-.81-2.58-2.2-2.58-1.12,0-2.18.84-2.36,2.58Z"/><path d="M489.33,402.29l.56-.62a3.16,3.16,0,0,0,2.49,1.17c1.33,0,2-.52,2-1.34s-.53-1.21-2.14-1.58c-1.87-.46-2.7-.94-2.7-2.27,0-1.11,1-2,2.64-2a3.88,3.88,0,0,1,2.86,1.09l-.52.71a3.17,3.17,0,0,0-2.32-1c-1.18,0-1.68.55-1.68,1.15s.43,1,1.86,1.39c2.07.49,3,1,3,2.43s-1.27,2.24-3,2.24A3.75,3.75,0,0,1,489.33,402.29Z"/><path d="M342.2,431.75V422.5l-2.1.59-.24-1.51,2.39-.75H344v10.92Z"/><path d="M346.41,430.79a1.13,1.13,0,0,1,2.26,0,1.13,1.13,0,0,1-2.26,0Z"/><path d="M355.14,431.75v-2.24h-5.27v-1.45l5-7.23h2.08v7.08h1.74l.16,1.59h-1.9v2.24Zm-3.33-3.84h3.33V423h0Z"/><path d="M359.15,424.12c0-2.11,1.06-3.45,2.76-3.45s2.73,1.34,2.73,3.42-1,3.47-2.74,3.47S359.15,426.19,359.15,424.12Zm4,0c0-1.37-.4-2.24-1.21-2.24s-1.22.9-1.22,2.21.4,2.27,1.24,2.27S363.11,425.44,363.11,424.12Zm-1,7.63,6.52-10.92h1.58l-6.52,10.92Zm5.56-3.29c0-2.11,1.06-3.47,2.76-3.47s2.73,1.36,2.73,3.44-1,3.47-2.74,3.47S367.66,430.51,367.66,428.46Zm4,0c0-1.37-.38-2.23-1.21-2.23s-1.21.9-1.21,2.21.38,2.26,1.22,2.26S371.62,429.76,371.62,428.45Z"/><path d="M340,450V439.08h3.79c2.46,0,3.7,1,3.7,2.74a2.48,2.48,0,0,1-2.07,2.52v0a2.63,2.63,0,0,1,2.42,2.66c0,1.73-1.21,3-3.73,3Zm1-6.06h2.67c1.74,0,2.76-.63,2.76-2s-.84-1.93-2.73-1.93h-2.7Zm0,5.13h3.07c1.87,0,2.71-.77,2.71-2.08s-1.17-2.14-3-2.14h-2.74Z"/><path d="M349.43,448.17c0-1.53,1.31-2.64,5.27-3.25v-.4a1.43,1.43,0,0,0-1.59-1.59,4.09,4.09,0,0,0-2.88,1.22l-.58-.63a4.85,4.85,0,0,1,3.53-1.45,2.23,2.23,0,0,1,2.52,2.48V450h-.9l-.1-1.11a4.52,4.52,0,0,1-3.07,1.24A1.92,1.92,0,0,1,349.43,448.17Zm5.27-.1v-2.42c-3.42.59-4.26,1.4-4.26,2.41,0,.81.53,1.24,1.42,1.24A4.05,4.05,0,0,0,354.7,448.07Z"/><path d="M357.94,450v-7.76h.92l.1,1.22a4.2,4.2,0,0,1,2.94-1.39,2.08,2.08,0,0,1,2.35,2.29V450h-1v-5.43c0-1.09-.47-1.64-1.56-1.64a3.92,3.92,0,0,0-2.7,1.36V450Z"/><path d="M366.48,450V439.15l1-.15v7.32l3.7-4.09h1.2L369.86,445l2.82,4.94-1,.18-2.49-4.35-1.68,1.81V450Z"/><path d="M373.69,448.76l.56-.62a3.16,3.16,0,0,0,2.49,1.17c1.33,0,2-.52,2-1.34s-.53-1.21-2.14-1.58c-1.87-.46-2.7-.94-2.7-2.27,0-1.11,1-2,2.64-2a3.88,3.88,0,0,1,2.86,1.09l-.52.71a3.17,3.17,0,0,0-2.32-1c-1.18,0-1.68.55-1.68,1.15s.43,1,1.86,1.39c2.07.49,3,1,3,2.43s-1.27,2.24-3,2.24A3.75,3.75,0,0,1,373.69,448.76Z"/><path d="M13.06,344.53v-2.24H7.79v-1.45l5-7.23h2.08v7.08h1.74l.16,1.59h-1.9v2.24ZM9.73,340.7h3.33v-4.9h0Z"/><path d="M17.57,343.13l.86-1.42a3.85,3.85,0,0,0,2.88,1.4,2.1,2.1,0,0,0,2.35-2.18,2,2,0,0,0-2.14-2.15,2.66,2.66,0,0,0-2.21,1l-1.22-.41.43-5.8h6.11l.31,1.62h-5l-.25,2.82a3.06,3.06,0,0,1,2.3-.81,3.31,3.31,0,0,1,3.48,3.62,3.75,3.75,0,0,1-4.09,3.88A5,5,0,0,1,17.57,343.13Z"/><path d="M26.79,343.57a1.13,1.13,0,0,1,2.26,0,1.13,1.13,0,0,1-2.26,0Z"/><path d="M35.51,344.53v-2.24H30.25v-1.45l5-7.23H37.3v7.08H39l.16,1.59H37.3v2.24Zm-3.33-3.84h3.33v-4.9h0Z"/><path d="M39.52,336.9c0-2.11,1.06-3.45,2.76-3.45S45,334.79,45,336.87s-1,3.47-2.74,3.47S39.52,339,39.52,336.9Zm4,0c0-1.37-.4-2.24-1.21-2.24s-1.22.9-1.22,2.21.4,2.27,1.24,2.27S43.48,338.22,43.48,336.9Zm-1,7.63L49,333.61h1.58l-6.52,10.92ZM48,341.24c0-2.11,1.06-3.47,2.76-3.47s2.73,1.36,2.73,3.44-1,3.47-2.74,3.47S48,343.29,48,341.24Zm4,0c0-1.37-.38-2.23-1.21-2.23s-1.21.9-1.21,2.21.38,2.26,1.22,2.26S52,342.54,52,341.23Z"/><path d="M8.8,362.78V351.86h3.66c2.42,0,3.78,1,3.78,3a2.78,2.78,0,0,1-2.6,2.92l2.79,4.93-1.08.18-2.8-5H9.83v4.9Zm1-5.83h2.55c1.8,0,2.82-.53,2.82-2.1s-1-2-2.83-2H9.83Z"/><path d="M17.69,358.88c0-2.74,1.77-4,3.41-4,1.8,0,3.17,1.39,3.17,4v.19H18.71c0,1.9,1.11,3,2.55,3a3.25,3.25,0,0,0,2.49-1.15l.5.66a3.8,3.8,0,0,1-3,1.34C19.28,362.94,17.69,361.54,17.69,358.88Zm5.59-.59c-.1-1.48-.81-2.58-2.2-2.58-1.12,0-2.18.84-2.36,2.58Z"/><path d="M25.68,361.54l.56-.62a3.16,3.16,0,0,0,2.49,1.17c1.33,0,2-.52,2-1.34s-.53-1.21-2.14-1.58c-1.87-.46-2.7-.94-2.7-2.27,0-1.11,1-2,2.64-2a3.88,3.88,0,0,1,2.86,1.09l-.52.71a3.17,3.17,0,0,0-2.32-1c-1.18,0-1.68.55-1.68,1.15s.43,1,1.86,1.39c2.07.49,3,1,3,2.43s-1.27,2.24-3,2.24A3.75,3.75,0,0,1,25.68,361.54Z"/><path d="M33.48,352.66a.62.62,0,0,1,1.24,0,.62.62,0,1,1-1.24,0Zm.12,10.12V355h1v7.76Z"/><path d="M36.53,358.91c0-2.72,1.43-4.06,3.23-4.06a3.4,3.4,0,0,1,2.57,1.22v-4.15l1-.15v11h-.91l-.1-1.12a3.42,3.42,0,0,1-2.6,1.25C37.94,362.91,36.53,361.63,36.53,358.91Zm5.8,1.86V357a3.38,3.38,0,0,0-2.45-1.27c-1.28,0-2.33,1-2.33,3.19S38.61,362,39.91,362A3.3,3.3,0,0,0,42.33,360.77Z"/><path d="M45.23,358.88c0-2.74,1.77-4,3.41-4,1.8,0,3.17,1.39,3.17,4v.19H46.24c0,1.9,1.11,3,2.55,3a3.25,3.25,0,0,0,2.49-1.15l.5.66a3.8,3.8,0,0,1-3,1.34C46.82,362.94,45.23,361.54,45.23,358.88Zm5.59-.59c-.1-1.48-.81-2.58-2.2-2.58-1.12,0-2.18.84-2.36,2.58Z"/><path d="M53.69,362.78V355h.91l.1,1.22a4.2,4.2,0,0,1,2.94-1.39A2.08,2.08,0,0,1,60,357.14v5.64H59v-5.43c0-1.09-.47-1.64-1.56-1.64a3.92,3.92,0,0,0-2.7,1.36v5.71Z"/><path d="M62.68,360.94v-5.06H61.34V355h1.34v-2.73l1-.15V355h2v.86h-2v4.91c0,.83.31,1.24,1.21,1.24a2.93,2.93,0,0,0,.77-.1l.12.87a6.79,6.79,0,0,1-1.06.09C63.34,362.88,62.68,362.35,62.68,360.94Z"/><path class="cls-5" d="M228.75,244.41l1-1.4a5.28,5.28,0,0,0,3.56,1.62c1.37,0,2.3-.47,2.3-1.42s-.69-1.4-2.49-1.95c-2.11-.62-3.79-1.18-3.79-3.26,0-1.84,1.53-3.07,3.72-3.07a6.36,6.36,0,0,1,4.07,1.56l-.87,1.48a5,5,0,0,0-3.17-1.37c-1.24,0-1.95.55-1.95,1.25,0,1,.78,1.37,2.57,1.9,2.07.6,3.72,1.27,3.72,3.33,0,1.77-1.45,3.17-4,3.17A6.58,6.58,0,0,1,228.75,244.41Z"/><path class="cls-5" d="M239.54,246.06V235.14h1.84v4.35h5v-4.35h1.84v10.92h-1.84V241.2h-5v4.85Z"/><path class="cls-5" d="M250,246.06l3.87-11h1.8l3.82,10.82-1.79.29-.93-2.74h-4.15l-.91,2.6Zm3.17-4.22h3.07l-1.5-4.43h0Z"/><path class="cls-5" d="M261.31,246.06V235.14h3.91c2.58,0,4.09,1,4.09,3.35a2.84,2.84,0,0,1-2.41,3l2.6,4.4-1.8.29-2.64-4.46h-1.93v4.31Zm1.81-5.92h2c1.56,0,2.38-.44,2.38-1.68s-.81-1.64-2.38-1.64h-2Z"/><path class="cls-5" d="M271.64,246.06V235.14h7.05v1.71h-5.21v2.71h4l.27,1.64h-4.25v3.19H279v1.67Z"/><path class="cls-5" d="M280.94,246.06V235.14h1.84v4.35h5v-4.35h1.84v10.92h-1.84V241.2h-5v4.85Z"/><path class="cls-5" d="M291.79,240.6c0-3.67,2.29-5.67,4.93-5.67s4.91,2,4.91,5.67-2.29,5.67-4.91,5.67S291.79,244.27,291.79,240.6Zm8,0c0-2.48-1.24-4-3.08-4s-3.08,1.49-3.08,4,1.24,4,3.08,4S299.8,243.08,299.8,240.6Z"/><path class="cls-5" d="M303.84,246.06V235.14h1.84v9.25h4.88l.28,1.67Z"/><path class="cls-5" d="M312.6,246.06V235.14h3.1c3.42,0,5.68,1.59,5.68,5.42s-2.3,5.5-5.68,5.5Zm1.83-1.67h1.43c2.52,0,3.67-1.15,3.67-3.81s-1.17-3.73-3.7-3.73h-1.4Z"/><path class="cls-5" d="M323.58,246.06V235.14h7.05v1.71h-5.21v2.71h4l.27,1.64h-4.25v3.19h5.5v1.67Z"/><path class="cls-5" d="M332.87,246.06V235.14h3.91c2.58,0,4.09,1,4.09,3.35a2.84,2.84,0,0,1-2.41,3l2.6,4.4-1.8.29-2.64-4.46h-1.93v4.31Zm1.81-5.92h2c1.56,0,2.38-.44,2.38-1.68s-.81-1.64-2.38-1.64h-2Z"/><path class="cls-5" d="M342.34,244.41l1-1.4a5.28,5.28,0,0,0,3.56,1.62c1.37,0,2.3-.47,2.3-1.42s-.69-1.4-2.49-1.95c-2.11-.62-3.79-1.18-3.79-3.26,0-1.84,1.53-3.07,3.72-3.07a6.36,6.36,0,0,1,4.07,1.56l-.87,1.48a5,5,0,0,0-3.17-1.37c-1.24,0-1.95.55-1.95,1.25,0,1,.78,1.37,2.57,1.9,2.07.6,3.72,1.27,3.72,3.33,0,1.77-1.45,3.17-4,3.17A6.58,6.58,0,0,1,342.34,244.41Z"/><path class="cls-7" d="M192.91,210.54l1.33-1.87a10.62,10.62,0,0,0,8,3c7.08,0,11.36-7.87,11.26-17.56a14,14,0,0,1-10.67,5.26c-7.92,0-11.26-5.11-11.26-11.31,0-6.74,4.48-12,11.85-12,6.69,0,12.44,5.61,12.44,18.25,0,10.57-5.36,19.52-13.67,19.52A13,13,0,0,1,192.91,210.54Zm20.41-19.38c-.84-9-5.16-12.88-10.08-12.88-5.46,0-9.25,3.49-9.25,9.84,0,5.31,2.71,9.15,9,9.15C207.17,197.26,210.86,194.75,213.32,191.16Z"/><path class="cls-7" d="M218.77,207l2-1.23c2.66,4.23,6,6,10.18,6,5.7,0,9.2-3.39,9.2-8.11,0-5.66-3.1-8.7-12.29-8.7h-1.28v-2.16h1.57c8,0,11.26-2.46,11.26-7.43,0-3.93-2.41-7-8.26-7-3.93,0-6.69,2-8.75,4.77l-2-1.28c2.46-3.15,5.9-5.66,10.77-5.66,7.62,0,10.62,4.57,10.62,9,0,4.77-2.9,7.92-7.43,8.66,5.46,1.13,8.16,4.18,8.16,9.69,0,5.75-4.43,10.38-11.66,10.38A13.76,13.76,0,0,1,218.77,207Z"/><path class="cls-7" d="M247.08,207l2-1.23c2.11,3.54,5.07,6,9.64,6,6.59,0,9.59-5.21,9.59-10.38,0-6.29-3.79-9.79-8.75-9.79-4.08,0-6.69,2-8.7,5l-2-.84,1.38-18.88h18.1l.44,2.36H252.44L251.36,193a9.91,9.91,0,0,1,8.26-3.64c6.29,0,11.11,4.52,11.11,11.8s-4.62,12.69-12,12.69A13.14,13.14,0,0,1,247.08,207Z"/><path class="cls-7" d="M275.7,218l1.23-8.71h3.25l-3,8.71Z"/><path class="cls-7" d="M286.61,213.2v-.79c0-5.26,2.9-10,12.49-16.13,5.41-3.44,7.62-6.2,7.62-10.18,0-4.62-2.75-7.82-8.07-7.82-4.28,0-7.13,2.11-9.25,6.64l-2-1c2.36-5.11,6.34-7.82,11.36-7.82,6.39,0,10.38,4.13,10.38,9.84,0,5.16-2.7,8.26-9.69,12.69s-10.18,8.75-10.28,12.29h19.92l.39,2.26Z"/><path class="cls-7" d="M313.06,204.54c0-5.21,3.64-8,10-10.72-5.16-2.26-8.31-4.67-8.31-9s4.18-8.66,10.92-8.66c6.93,0,10.92,4.23,10.92,8.66s-3,6.54-8.46,9c6.54,2.85,10.13,5.51,10.13,10.82,0,4.87-4.62,9.34-12.59,9.34S313.06,209.56,313.06,204.54Zm22.77-.15c0-4.38-3.74-6.79-10.28-9.54-7,3.1-10.08,5.36-10.08,9.54s4.33,7.33,10.18,7.33S335.83,208.82,335.83,204.39Zm-1.67-19.62c0-3.15-2.66-6.49-8.51-6.49-5.56,0-8.51,3.25-8.51,6.34,0,3.64,2.56,5.41,8.56,8.07C331.69,190.13,334.15,188.46,334.15,184.77Z"/><path class="cls-7" d="M359.72,213.2v-9.34H342.26v-1.72l16.57-25.33h3.25v24.84h6l.44,2.21h-6.39v9.34Zm-14.56-11.56h14.56v-22h-.1Z"/><line class="cls-8" x1="330.6" y1="348.62" x2="99.45" y2="348.62"/><line class="cls-8" x1="171.25" y1="96.82" x2="99.45" y2="96.82"/><line class="cls-8" x1="492.89" y1="193.21" x2="473.22" y2="193.21"/><line class="cls-8" x1="464.37" y1="345.67" x2="417.15" y2="345.67"/><line class="cls-8" x1="417.15" y1="387.96" x2="360.1" y2="387.96"/><line class="cls-8" x1="337.48" y1="398.78" x2="337.48" y2="415.5"/></g></svg>