<?xml version="1.0" encoding="utf-8"?>
<!-- Generator: Adobe Illustrator 21.0.0, SVG Export Plug-In . SVG Version: 6.00 Build 0)  -->
<!DOCTYPE svg PUBLIC "-//W3C//DTD SVG 1.1//EN" "http://www.w3.org/Graphics/SVG/1.1/DTD/svg11.dtd">
<svg version="1.1" id="Capa_1" xmlns="http://www.w3.org/2000/svg" xmlns:xlink="http://www.w3.org/1999/xlink" x="0px" y="0px"
	 viewBox="0 0 580 451" style="enable-background:new 0 0 580 451;" xml:space="preserve">
<style type="text/css">
	.st0{fill:#001B45;}
	.st1{fill:#0086CD;}
	.st2{fill:#00A6E8;}
	.st3{fill:#C9EDFC;}
	.st4{fill:#00BEFF;}
	.st5{fill:#F3F3F3;}
	.st6{fill:#121212;}
</style>
<title>Group 8</title>
<desc>Created with Sketch.</desc>
<g>
	<g>
		<path class="st0" d="M400.2,40.5C363.8,13.1,322-0.9,276.5-0.9v14.1c0,0,0,0,0,0c105.7,0,191.4,85.7,191.4,191.4
			c0,43.3-14.4,83.2-38.5,115.2l11.3,8.5C509,237.7,490.9,108.8,400.2,40.5z"/>
	</g>
	<g>
		<path class="st1" d="M375.1,368.8l7.3,12.1c24.5-14.7,41.1-29.6,58.3-52.5l-11.3-8.5C414.6,339.4,396.2,356.1,375.1,368.8z"/>
	</g>
	<g>
		<path class="st2" d="M345.1,383.4l5,13.1c11-4.2,22.1-9.6,32.2-15.7l-7.3-12.1C365.6,374.5,355.6,379.4,345.1,383.4z"/>
	</g>
	<g>
		<path class="st3" d="M329.3,388.7l3.9,13.5c6.1-1.8,11.1-3.4,17-5.7l-5-13.1C339.9,385.4,334.6,387.2,329.3,388.7z"/>
	</g>
	<g>
		<path class="st4" d="M429.8,161.8c-19.9-69.4-81.8-116-153.9-116v13.9c80.7,0,146.2,65.5,146.2,146.2
			c0,66.8-44.8,123.1-105.9,140.6l3.8,13.4C405.1,335.5,454.2,246.8,429.8,161.8z"/>
	</g>
	<g>
		<path class="st5" d="M275.9,352.1c-80.7,0-146.2-65.5-146.2-146.2S195.2,59.7,275.9,59.7V45.8c-88.4,0-160.1,71.7-160.1,160.1
			S187.5,366,275.9,366c16.3,0,28.5-1.7,44.1-6.2l-3.8-13.4C303.4,350.2,289.9,352.1,275.9,352.1z"/>
	</g>
	<g>
		<path d="M1.8,96l0.9-1.4C3.4,95.4,4.4,96,5.6,96C7.3,96,8,95,8,93.8c0-1.4-0.8-2.2-2.2-2.2c-0.9,0-1.7,0.3-2.2,1.1l-1.2-0.4
			l0.4-5.9H9L9.3,88H4.2L4,90.8C4.4,90.4,5.2,90,6.3,90c2.2,0,3.5,1.5,3.5,3.7c0,2.3-1.6,3.9-4.2,3.9C4,97.6,2.7,97,1.8,96z"/>
		<path d="M16.4,97.4v-2.3H11v-1.5l5.1-7.3h2.1v7.2h1.8l0.2,1.6h-1.9v2.3H16.4z M13,93.5h3.4v-5h0L13,93.5z"/>
		<path d="M21.2,99.1l0.4-3.6h2.1l-1.3,3.6H21.2z"/>
		<path d="M24.9,92.1c0-3.9,2.2-6,4.8-6c1.3,0,2.1,0.4,2.8,0.9l-0.7,1.5c-0.6-0.5-1.2-0.8-2.1-0.8c-1.8,0-2.9,1.4-3,3.8
			c0.8-0.7,1.7-1.2,2.9-1.2c2.1,0,3.5,1.2,3.5,3.5c0,2.2-1.6,3.8-4,3.8C26.7,97.6,24.9,95.8,24.9,92.1z M31.4,93.9
			c0-1.1-0.5-2-2.1-2c-1.1,0-2,0.4-2.6,1.1c0.2,2.1,1.1,3,2.5,3C30.6,96.1,31.4,95.2,31.4,93.9z"/>
		<path d="M34.1,89.7c0-2.1,1.1-3.5,2.8-3.5c1.7,0,2.8,1.4,2.8,3.5c0,2.1-1,3.5-2.8,3.5C35.1,93.2,34.1,91.8,34.1,89.7z M38.1,89.7
			c0-1.4-0.4-2.3-1.2-2.3c-0.9,0-1.2,0.9-1.2,2.2c0,1.4,0.4,2.3,1.3,2.3C37.7,92,38.1,91,38.1,89.7z M37.1,97.4l6.6-11.1h1.6
			l-6.6,11.1H37.1z M42.7,94.1c0-2.1,1.1-3.5,2.8-3.5c1.7,0,2.8,1.4,2.8,3.5c0,2.1-1,3.5-2.8,3.5S42.7,96.2,42.7,94.1z M46.8,94.1
			c0-1.4-0.4-2.3-1.2-2.3c-0.9,0-1.2,0.9-1.2,2.2c0,1.4,0.4,2.3,1.2,2.3C46.4,96.4,46.8,95.4,46.8,94.1z"/>
	</g>
	<g>
		<path d="M2.8,116v-11.1h1.1l6.1,9.1h0v-9.1h1V116h-0.9l-6.3-9.4h0v9.4H2.8z"/>
		<path d="M13.2,112c0-2.6,1.6-4.1,3.6-4.1c1.9,0,3.6,1.5,3.6,4.1c0,2.6-1.6,4.1-3.6,4.1C14.9,116.1,13.2,114.7,13.2,112z M19.3,112
			c0-1.7-0.9-3.2-2.5-3.2c-1.6,0-2.5,1.4-2.5,3.2c0,1.8,0.9,3.2,2.5,3.2C18.4,115.3,19.3,113.9,19.3,112z"/>
		<path d="M22.3,116v-7.9h0.9l0.1,1.2c0.8-0.8,1.8-1.4,3-1.4c1.6,0,2.4,0.9,2.4,2.3v5.7h-1v-5.5c0-1.1-0.5-1.7-1.6-1.7
			c-1,0-1.9,0.5-2.7,1.4v5.8H22.3z"/>
		<path d="M30.9,111.7v-0.9h3.4v0.9H30.9z"/>
		<path d="M36.4,116v-7.9h0.9l0.1,1.5h0c0.6-1,1.6-1.7,3.1-1.7h0.1l0.1,1c0,0-0.3,0-0.4,0c-1.3,0-2.4,0.7-3,2v5.1H36.4z"/>
		<path d="M41.6,112c0-2.8,1.8-4.1,3.5-4.1c1.8,0,3.2,1.4,3.2,4.1v0.2h-5.7c0,1.9,1.1,3,2.6,3c1,0,1.8-0.4,2.5-1.2l0.5,0.7
			c-0.9,0.9-1.7,1.4-3.1,1.4C43.2,116.1,41.6,114.7,41.6,112z M47.3,111.4c-0.1-1.5-0.8-2.6-2.2-2.6c-1.1,0-2.2,0.9-2.4,2.6H47.3z"
			/>
		<path d="M49.7,114.7l0.6-0.6c0.6,0.7,1.4,1.2,2.5,1.2c1.4,0,2.1-0.5,2.1-1.4c0-0.9-0.5-1.2-2.2-1.6c-1.9-0.5-2.7-1-2.7-2.3
			c0-1.1,1-2.1,2.7-2.1c1.3,0,2.2,0.4,2.9,1.1l-0.5,0.7c-0.6-0.6-1.4-1-2.4-1c-1.2,0-1.7,0.6-1.7,1.2c0,0.7,0.4,1.1,1.9,1.4
			c2.1,0.5,3,1,3,2.5c0,1.5-1.3,2.3-3.1,2.3C51.4,116.1,50.3,115.5,49.7,114.7z"/>
		<path d="M57.7,105.7c0-0.4,0.2-0.6,0.6-0.6c0.4,0,0.6,0.2,0.6,0.6c0,0.4-0.2,0.7-0.6,0.7C57.9,106.4,57.7,106.1,57.7,105.7z
			 M57.8,116v-7.9h1v7.9H57.8z"/>
		<path d="M60.7,112.1c0-2.8,1.5-4.1,3.3-4.1c1.1,0,2,0.5,2.6,1.2V105l1-0.1V116h-0.9l-0.1-1.1c-0.6,0.7-1.5,1.3-2.6,1.3
			C62.2,116.1,60.7,114.8,60.7,112.1z M66.6,113.9v-3.9c-0.8-0.8-1.5-1.3-2.5-1.3c-1.3,0-2.4,1-2.4,3.2c0,2.2,1.1,3.2,2.4,3.2
			C65.2,115.2,65.8,114.8,66.6,113.9z"/>
		<path d="M69.6,112c0-2.8,1.8-4.1,3.5-4.1c1.8,0,3.2,1.4,3.2,4.1v0.2h-5.7c0,1.9,1.1,3,2.6,3c1,0,1.8-0.4,2.5-1.2l0.5,0.7
			c-0.9,0.9-1.7,1.4-3.1,1.4C71.2,116.1,69.6,114.7,69.6,112z M75.3,111.4c-0.1-1.5-0.8-2.6-2.2-2.6c-1.1,0-2.2,0.9-2.4,2.6H75.3z"
			/>
		<path d="M78.2,116v-7.9h0.9l0.1,1.2c0.8-0.8,1.8-1.4,3-1.4c1.6,0,2.4,0.9,2.4,2.3v5.7h-1v-5.5c0-1.1-0.5-1.7-1.6-1.7
			c-1,0-1.9,0.5-2.7,1.4v5.8H78.2z"/>
		<path d="M87.3,114.1V109H86v-0.9h1.4v-2.8l1-0.1v2.9h2.1v0.9h-2.1v5c0,0.8,0.3,1.3,1.2,1.3c0.3,0,0.6,0,0.8-0.1l0.1,0.9
			c-0.3,0-0.7,0.1-1.1,0.1C88,116.1,87.3,115.5,87.3,114.1z"/>
	</g>
	<g>
		<path d="M501.7,186.7l1.1-1.3c0.8,1,1.9,1.5,2.9,1.5c1.5,0,2.3-0.7,2.3-1.7c0-1.4-0.9-1.9-3.1-1.9h-0.4l-0.2-1.5h0.7
			c2.2,0,2.7-0.7,2.7-1.6c0-0.8-0.5-1.4-1.9-1.4c-1,0-1.8,0.4-2.6,1.2l-0.9-1.4c0.9-0.9,2.2-1.5,3.8-1.5c2.4,0,3.6,1.2,3.6,2.8
			c0,1.4-0.8,2.3-2.1,2.6c1.7,0.3,2.4,1.3,2.4,2.8c0,2-1.6,3.3-4.1,3.3C504,188.6,502.6,188,501.7,186.7z"/>
		<path d="M510.9,187l0.9-1.4c0.7,0.8,1.7,1.4,2.9,1.4c1.7,0,2.4-1,2.4-2.2c0-1.4-0.8-2.2-2.2-2.2c-0.9,0-1.7,0.3-2.2,1.1l-1.2-0.4
			l0.4-5.9h6.2l0.3,1.6h-5.1l-0.3,2.9c0.5-0.5,1.2-0.8,2.3-0.8c2.2,0,3.5,1.5,3.5,3.7c0,2.3-1.6,3.9-4.2,3.9
			C513.1,188.6,511.8,188,510.9,187z"/>
		<path d="M520.2,190.1l0.4-3.6h2.1l-1.3,3.6H520.2z"/>
		<path d="M523.8,182.9c0-3.5,1.6-5.8,4.4-5.8c2.8,0,4.4,2.3,4.4,5.8s-1.6,5.8-4.4,5.8C525.4,188.6,523.8,186.3,523.8,182.9z
			 M530.7,182.9c0-2.8-0.9-4.1-2.5-4.1c-1.6,0-2.5,1.3-2.5,4.1s1,4.1,2.5,4.1C529.8,187,530.7,185.7,530.7,182.9z"/>
		<path d="M534,180.7c0-2.1,1.1-3.5,2.8-3.5c1.7,0,2.8,1.4,2.8,3.5c0,2.1-1,3.5-2.8,3.5C535,184.2,534,182.8,534,180.7z M538,180.7
			c0-1.4-0.4-2.3-1.2-2.3c-0.9,0-1.2,0.9-1.2,2.2c0,1.4,0.4,2.3,1.3,2.3C537.6,183,538,182,538,180.7z M537,188.4l6.6-11.1h1.6
			l-6.6,11.1H537z M542.6,185.1c0-2.1,1.1-3.5,2.8-3.5c1.7,0,2.8,1.4,2.8,3.5c0,2.1-1,3.5-2.8,3.5S542.6,187.2,542.6,185.1z
			 M546.6,185.1c0-1.4-0.4-2.3-1.2-2.3c-0.9,0-1.2,0.9-1.2,2.2c0,1.4,0.4,2.3,1.2,2.3C546.3,187.4,546.6,186.4,546.6,185.1z"/>
	</g>
	<g>
		<path d="M502.3,207v-11.1h1.1V207H502.3z"/>
		<path d="M505.9,207v-7.9h0.9l0.1,1.2c0.8-0.8,1.8-1.4,3-1.4c1.6,0,2.4,0.9,2.4,2.3v5.7h-1v-5.5c0-1.1-0.5-1.7-1.6-1.7
			c-1,0-1.9,0.5-2.7,1.4v5.8H505.9z"/>
		<path d="M514.2,203.1c0-2.8,1.5-4.1,3.3-4.1c1.1,0,2,0.5,2.6,1.2V196l1-0.1V207h-0.9l-0.1-1.1c-0.6,0.7-1.5,1.3-2.6,1.3
			C515.7,207.1,514.2,205.8,514.2,203.1z M520.1,204.9v-3.9c-0.8-0.8-1.5-1.3-2.5-1.3c-1.3,0-2.4,1-2.4,3.2c0,2.2,1.1,3.2,2.4,3.2
			C518.6,206.2,519.3,205.8,520.1,204.9z"/>
		<path d="M523.4,196.7c0-0.4,0.2-0.6,0.6-0.6c0.4,0,0.6,0.2,0.6,0.6c0,0.4-0.2,0.7-0.6,0.7C523.6,197.4,523.4,197.1,523.4,196.7z
			 M523.5,207v-7.9h1v7.9H523.5z"/>
		<path d="M529,207l-2.9-7.8l1-0.2l2.4,6.8h0l2.3-6.7h1.1L530,207H529z"/>
		<path d="M534.4,196.7c0-0.4,0.2-0.6,0.6-0.6s0.6,0.2,0.6,0.6c0,0.4-0.2,0.7-0.6,0.7S534.4,197.1,534.4,196.7z M534.5,207v-7.9h1
			v7.9H534.5z"/>
		<path d="M537.5,203.1c0-2.8,1.5-4.1,3.3-4.1c1.1,0,2,0.5,2.6,1.2V196l1-0.1V207h-0.9l-0.1-1.1c-0.6,0.7-1.5,1.3-2.6,1.3
			C538.9,207.1,537.5,205.8,537.5,203.1z M543.4,204.9v-3.9c-0.8-0.8-1.5-1.3-2.5-1.3c-1.3,0-2.4,1-2.4,3.2c0,2.2,1.1,3.2,2.4,3.2
			C541.9,206.2,542.6,205.8,543.4,204.9z"/>
		<path d="M546.7,204.8v-5.7h1v5.5c0,1.1,0.5,1.6,1.6,1.6c1,0,1.9-0.5,2.8-1.4v-5.8h1v7.9h-0.9l-0.1-1.2c-0.8,0.8-1.8,1.4-3,1.4
			C547.5,207.1,546.7,206.3,546.7,204.8z"/>
		<path d="M555,205.1c0-1.6,1.3-2.7,5.4-3.3v-0.4c0-1.1-0.6-1.6-1.6-1.6c-1.2,0-2.1,0.5-2.9,1.2l-0.6-0.6c0.9-0.9,2-1.5,3.6-1.5
			c1.8,0,2.6,0.9,2.6,2.5v5.5h-0.9l-0.1-1.1c-0.9,0.8-1.9,1.3-3.1,1.3C555.8,207.1,555,206.4,555,205.1z M560.3,205v-2.5
			c-3.5,0.6-4.3,1.4-4.3,2.4c0,0.8,0.5,1.3,1.4,1.3C558.5,206.3,559.5,205.8,560.3,205z"/>
		<path d="M563.7,207v-11l1-0.1V207H563.7z"/>
		<path d="M566.5,205.7l0.6-0.6c0.6,0.7,1.4,1.2,2.5,1.2c1.3,0,2.1-0.5,2.1-1.4c0-0.9-0.5-1.2-2.2-1.6c-1.9-0.5-2.7-1-2.7-2.3
			c0-1.1,1-2.1,2.7-2.1c1.3,0,2.2,0.4,2.9,1.1l-0.5,0.7c-0.6-0.6-1.4-1-2.4-1c-1.2,0-1.7,0.6-1.7,1.2c0,0.7,0.4,1.1,1.9,1.4
			c2.1,0.5,3,1,3,2.5c0,1.5-1.3,2.3-3.1,2.3C568.1,207.1,567.1,206.5,566.5,205.7z"/>
	</g>
	<g>
		<path d="M477.3,340.2c0-3.9,2.2-6,4.8-6c1.3,0,2.1,0.4,2.8,0.9l-0.7,1.5c-0.6-0.5-1.2-0.8-2.1-0.8c-1.8,0-2.9,1.4-3,3.8
			c0.8-0.7,1.7-1.2,2.9-1.2c2.1,0,3.5,1.2,3.5,3.5c0,2.2-1.6,3.8-4,3.8C479.2,345.7,477.3,343.9,477.3,340.2z M483.9,342
			c0-1.1-0.5-2-2.1-2c-1.1,0-2,0.4-2.6,1.1c0.2,2.1,1.1,3,2.5,3C483.1,344.1,483.9,343.3,483.9,342z"/>
		<path d="M487,347.2l0.4-3.6h2.1l-1.4,3.6H487z"/>
		<path d="M490.8,343.8l1.1-1.3c0.8,1,1.9,1.5,2.9,1.5c1.5,0,2.3-0.7,2.3-1.7c0-1.4-0.9-1.9-3.1-1.9h-0.4l-0.2-1.5h0.7
			c2.2,0,2.7-0.7,2.7-1.6c0-0.8-0.5-1.4-1.9-1.4c-1,0-1.8,0.4-2.6,1.2l-0.9-1.4c0.9-0.9,2.2-1.5,3.8-1.5c2.4,0,3.6,1.2,3.6,2.8
			c0,1.3-0.8,2.3-2.1,2.6c1.7,0.3,2.4,1.3,2.4,2.8c0,2-1.6,3.3-4.1,3.3C493.1,345.7,491.7,345,490.8,343.8z"/>
		<path d="M500.2,337.8c0-2.1,1.1-3.5,2.8-3.5c1.7,0,2.8,1.4,2.8,3.5c0,2.1-1,3.5-2.8,3.5C501.2,341.3,500.2,339.9,500.2,337.8z
			 M504.2,337.8c0-1.4-0.4-2.3-1.2-2.3c-0.9,0-1.2,0.9-1.2,2.2c0,1.4,0.4,2.3,1.3,2.3C503.8,340,504.2,339.1,504.2,337.8z
			 M503.2,345.5l6.6-11.1h1.6l-6.6,11.1H503.2z M508.8,342.2c0-2.1,1.1-3.5,2.8-3.5c1.7,0,2.8,1.4,2.8,3.5c0,2.1-1,3.5-2.8,3.5
			C509.9,345.7,508.8,344.3,508.8,342.2z M512.9,342.2c0-1.4-0.4-2.3-1.2-2.3c-0.9,0-1.2,0.9-1.2,2.2c0,1.4,0.4,2.3,1.2,2.3
			C512.5,344.4,512.9,343.5,512.9,342.2z"/>
	</g>
	<g>
		<path d="M477.6,364.1V353h1.1v11.1H477.6z"/>
		<path d="M481.3,364.1v-7.9h0.9l0.1,1.2c0.8-0.8,1.8-1.4,3-1.4c1.6,0,2.4,0.9,2.4,2.3v5.7h-1v-5.5c0-1.1-0.5-1.7-1.6-1.7
			c-1,0-1.9,0.5-2.7,1.4v5.8H481.3z"/>
		<path d="M489.4,362.8l0.6-0.6c0.6,0.7,1.4,1.2,2.5,1.2c1.4,0,2.1-0.5,2.1-1.4c0-0.9-0.5-1.2-2.2-1.6c-1.9-0.5-2.7-1-2.7-2.3
			c0-1.1,1-2.1,2.7-2.1c1.3,0,2.2,0.4,2.9,1.1l-0.5,0.7c-0.6-0.6-1.4-1-2.4-1c-1.2,0-1.7,0.6-1.7,1.2c0,0.7,0.4,1.1,1.9,1.4
			c2.1,0.5,3,1,3,2.5c0,1.5-1.3,2.3-3.1,2.3C491,364.2,490,363.6,489.4,362.8z"/>
		<path d="M498,362.2v-5.1h-1.4v-0.9h1.4v-2.8l1-0.2v2.9h2.1v0.9h-2.1v5c0,0.8,0.3,1.3,1.2,1.3c0.3,0,0.6,0,0.8-0.1l0.1,0.9
			c-0.3,0-0.7,0.1-1.1,0.1C498.7,364.2,498,363.6,498,362.2z"/>
		<path d="M502.7,353.8c0-0.4,0.2-0.6,0.6-0.6s0.6,0.2,0.6,0.6c0,0.4-0.2,0.7-0.6,0.7S502.7,354.2,502.7,353.8z M502.8,364.1v-7.9h1
			v7.9H502.8z"/>
		<path d="M506.8,362.2v-5.1h-1.4v-0.9h1.4v-2.8l1-0.2v2.9h2.1v0.9h-2.1v5c0,0.8,0.3,1.3,1.2,1.3c0.3,0,0.6,0,0.8-0.1l0.1,0.9
			c-0.3,0-0.7,0.1-1.1,0.1C507.5,364.2,506.8,363.6,506.8,362.2z"/>
		<path d="M511.5,361.9v-5.7h1v5.5c0,1.1,0.5,1.7,1.6,1.7c1,0,1.9-0.5,2.8-1.4v-5.8h1v7.9H517l-0.1-1.2c-0.8,0.8-1.8,1.4-3,1.4
			C512.3,364.2,511.5,363.4,511.5,361.9z"/>
		<path d="M520.8,362.2v-5.1h-1.4v-0.9h1.4v-2.8l1-0.2v2.9h2.1v0.9h-2.1v5c0,0.8,0.3,1.3,1.2,1.3c0.3,0,0.6,0,0.8-0.1l0.1,0.9
			c-0.3,0-0.7,0.1-1.1,0.1C521.4,364.2,520.8,363.6,520.8,362.2z"/>
		<path d="M525.5,353.8c0-0.4,0.2-0.6,0.6-0.6c0.4,0,0.6,0.2,0.6,0.6c0,0.4-0.2,0.7-0.6,0.7C525.7,354.4,525.5,354.2,525.5,353.8z
			 M525.6,364.1v-7.9h1v7.9H525.6z"/>
		<path d="M528.5,360.1c0-2.6,1.6-4.1,3.6-4.1c1.9,0,3.6,1.5,3.6,4.1c0,2.6-1.6,4.1-3.6,4.1C530.2,364.2,528.5,362.8,528.5,360.1z
			 M534.6,360.1c0-1.7-0.9-3.2-2.5-3.2c-1.6,0-2.5,1.4-2.5,3.2c0,1.8,0.9,3.2,2.5,3.2C533.7,363.4,534.6,362,534.6,360.1z"/>
		<path d="M537.6,364.1v-7.9h0.9l0.1,1.2c0.8-0.8,1.8-1.4,3-1.4c1.6,0,2.4,0.9,2.4,2.3v5.7h-1v-5.5c0-1.1-0.5-1.7-1.6-1.7
			c-1,0-1.9,0.5-2.7,1.4v5.8H537.6z"/>
		<path d="M545.7,362.8l0.6-0.6c0.6,0.7,1.4,1.2,2.5,1.2c1.4,0,2.1-0.5,2.1-1.4c0-0.9-0.5-1.2-2.2-1.6c-1.9-0.5-2.7-1-2.7-2.3
			c0-1.1,1-2.1,2.7-2.1c1.3,0,2.2,0.4,2.9,1.1l-0.5,0.7c-0.6-0.6-1.4-1-2.4-1c-1.2,0-1.7,0.6-1.7,1.2c0,0.7,0.4,1.1,1.9,1.4
			c2.1,0.5,3,1,3,2.5c0,1.5-1.3,2.3-3.1,2.3C547.3,364.2,546.3,363.6,545.7,362.8z"/>
	</g>
	<g>
		<path d="M424.6,387.2v-0.2c0-1.6,0.6-3.1,3.5-5c1.7-1.1,2.4-1.6,2.4-2.8c0-1-0.6-1.6-1.8-1.6c-1,0-1.9,0.6-2.6,1.8l-1.3-1.1
			c0.9-1.5,2.1-2.3,3.9-2.3c2.2,0,3.6,1.3,3.6,3.1c0,1.4-0.5,2.4-2.6,3.7c-1.7,1.1-2.8,2-2.9,2.8h5.4l0.2,1.7H424.6z"/>
		<path d="M434.1,388.9l0.4-3.6h2.1l-1.4,3.6H434.1z"/>
		<path d="M437.8,381.8c0-3.9,2.2-6,4.8-6c1.3,0,2.1,0.4,2.8,0.9l-0.7,1.5c-0.6-0.5-1.2-0.8-2.1-0.8c-1.8,0-2.9,1.4-3,3.8
			c0.8-0.7,1.7-1.2,2.9-1.2c2.1,0,3.5,1.2,3.5,3.5c0,2.2-1.6,3.8-4,3.8C439.6,387.4,437.8,385.5,437.8,381.8z M444.3,383.7
			c0-1.1-0.5-2-2.1-2c-1.1,0-2,0.4-2.6,1.1c0.2,2.1,1.1,3,2.5,3C443.5,385.8,444.3,384.9,444.3,383.7z"/>
		<path d="M447,379.4c0-2.1,1.1-3.5,2.8-3.5c1.7,0,2.8,1.4,2.8,3.5c0,2.1-1,3.5-2.8,3.5C448,382.9,447,381.5,447,379.4z M451,379.4
			c0-1.4-0.4-2.3-1.2-2.3c-0.9,0-1.2,0.9-1.2,2.2c0,1.4,0.4,2.3,1.3,2.3C450.6,381.7,451,380.8,451,379.4z M450,387.2l6.6-11.1h1.6
			l-6.6,11.1H450z M455.7,383.8c0-2.1,1.1-3.5,2.8-3.5c1.7,0,2.8,1.4,2.8,3.5c0,2.1-1,3.5-2.8,3.5
			C456.7,387.3,455.7,385.9,455.7,383.8z M459.7,383.8c0-1.4-0.4-2.3-1.2-2.3c-0.9,0-1.2,0.9-1.2,2.2c0,1.4,0.4,2.3,1.2,2.3
			C459.3,386.1,459.7,385.2,459.7,383.8z"/>
	</g>
	<g>
		<path d="M424.9,405.7v-11.1h6.6v1H426v3.8h4.2l0.2,1H426v4.4h5.9v1H424.9z"/>
		<path d="M433.6,405.7v-7.9h0.9l0.1,1.2c0.8-0.8,1.7-1.4,2.9-1.4c1.3,0,2,0.6,2.2,1.4c0.8-0.8,1.8-1.4,3-1.4c1.6,0,2.3,0.9,2.3,2.3
			v5.7h-1v-5.5c0-1.1-0.4-1.7-1.5-1.7c-1,0-1.8,0.5-2.6,1.4v5.8h-1v-5.5c0-1.1-0.4-1.7-1.5-1.7c-0.9,0-1.8,0.5-2.6,1.4v5.8H433.6z"
			/>
		<path d="M447.3,408.8v-11h0.9l0.1,1.1c0.6-0.7,1.5-1.3,2.6-1.3c1.8,0,3.3,1.3,3.3,4.1s-1.5,4.1-3.3,4.1c-1.1,0-1.9-0.5-2.6-1.2v4
			L447.3,408.8z M453.1,401.8c0-2.2-1.1-3.2-2.4-3.2c-1,0-1.7,0.5-2.5,1.3v3.9c0.8,0.8,1.5,1.3,2.5,1.3
			C452.1,405,453.1,404.1,453.1,401.8z"/>
		<path d="M456.2,405.7v-11l1-0.2v11.2H456.2z"/>
		<path d="M459.2,401.8c0-2.6,1.6-4.1,3.6-4.1c1.9,0,3.6,1.5,3.6,4.1c0,2.6-1.6,4.1-3.6,4.1C460.8,405.9,459.2,404.4,459.2,401.8z
			 M465.3,401.8c0-1.7-0.9-3.2-2.5-3.2c-1.6,0-2.5,1.4-2.5,3.2c0,1.8,0.9,3.2,2.5,3.2C464.3,405,465.3,403.7,465.3,401.8z"/>
		<path d="M467.1,408.6l-0.1-0.9c0.3,0.1,0.6,0.1,1.1,0.1c0.9,0,1.3-0.4,1.6-1.2l0.3-0.9l-3-7.8l1-0.2l2.5,6.8h0l2.4-6.7h1.1
			l-3.4,8.8c-0.5,1.4-1.1,2.1-2.6,2.1C467.8,408.8,467.4,408.7,467.1,408.6z"/>
		<path d="M475,401.8c0-2.8,1.8-4.1,3.5-4.1c1.8,0,3.2,1.4,3.2,4.1v0.2h-5.7c0,1.9,1.1,3,2.6,3c1.1,0,1.8-0.4,2.5-1.2l0.5,0.7
			c-0.9,0.9-1.7,1.4-3.1,1.4C476.7,405.9,475,404.5,475,401.8z M480.7,401.2c-0.1-1.5-0.8-2.6-2.2-2.6c-1.1,0-2.2,0.9-2.4,2.6H480.7
			z"/>
		<path d="M483.2,401.8c0-2.8,1.8-4.1,3.5-4.1c1.8,0,3.2,1.4,3.2,4.1v0.2h-5.7c0,1.9,1.1,3,2.6,3c1,0,1.8-0.4,2.5-1.2l0.5,0.7
			c-0.9,0.9-1.7,1.4-3.1,1.4C484.8,405.9,483.2,404.5,483.2,401.8z M488.9,401.2c-0.1-1.5-0.8-2.6-2.2-2.6c-1.1,0-2.2,0.9-2.4,2.6
			H488.9z"/>
		<path d="M491.3,404.5l0.6-0.6c0.6,0.7,1.4,1.2,2.5,1.2c1.3,0,2.1-0.5,2.1-1.4c0-0.9-0.5-1.2-2.2-1.6c-1.9-0.5-2.7-1-2.7-2.3
			c0-1.1,1-2.1,2.7-2.1c1.3,0,2.2,0.4,2.9,1.1l-0.5,0.7c-0.6-0.6-1.4-1-2.4-1c-1.2,0-1.7,0.6-1.7,1.2c0,0.7,0.4,1.1,1.9,1.4
			c2.1,0.5,3,1,3,2.5c0,1.5-1.3,2.3-3.1,2.3C493,405.9,492,405.3,491.3,404.5z"/>
	</g>
	<g>
		<path d="M341.8,431.4V422l-2.1,0.6l-0.2-1.5l2.4-0.8h1.7v11.1H341.8z"/>
		<path d="M345.9,433.1l0.4-3.6h2.1l-1.3,3.6H345.9z"/>
		<path d="M355,431.4v-2.3h-5.4v-1.5l5.1-7.3h2.1v7.2h1.8l0.2,1.6h-1.9v2.3H355z M351.6,427.5h3.4v-5h0L351.6,427.5z"/>
		<path d="M359.1,423.7c0-2.1,1.1-3.5,2.8-3.5c1.7,0,2.8,1.4,2.8,3.5c0,2.1-1,3.5-2.8,3.5C360.1,427.2,359.1,425.8,359.1,423.7z
			 M363.1,423.7c0-1.4-0.4-2.3-1.2-2.3c-0.9,0-1.2,0.9-1.2,2.2c0,1.4,0.4,2.3,1.3,2.3C362.7,426,363.1,425,363.1,423.7z
			 M362.1,431.4l6.6-11.1h1.6l-6.6,11.1H362.1z M367.8,428.1c0-2.1,1.1-3.5,2.8-3.5c1.7,0,2.8,1.4,2.8,3.5c0,2.1-1,3.5-2.8,3.5
			S367.8,430.2,367.8,428.1z M371.8,428.1c0-1.4-0.4-2.3-1.2-2.3c-0.9,0-1.2,0.9-1.2,2.2c0,1.4,0.4,2.3,1.2,2.3
			C371.4,430.4,371.8,429.4,371.8,428.1z"/>
	</g>
	<g>
		<path d="M339.6,450v-11.1h3.9c2.5,0,3.8,1,3.8,2.8c0,1.5-1,2.3-2.1,2.6v0c1.3,0.2,2.5,1.1,2.5,2.7c0,1.8-1.2,3-3.8,3H339.6z
			 M340.6,443.8h2.7c1.8,0,2.8-0.6,2.8-2c0-1.3-0.9-2-2.8-2h-2.7V443.8z M340.6,449h3.1c1.9,0,2.8-0.8,2.8-2.1
			c0-1.5-1.2-2.2-3.1-2.2h-2.8V449z"/>
		<path d="M349.1,448.1c0-1.6,1.3-2.7,5.4-3.3v-0.4c0-1.1-0.6-1.6-1.6-1.6c-1.2,0-2.1,0.5-2.9,1.2l-0.6-0.6c0.9-0.9,2-1.5,3.6-1.5
			c1.8,0,2.6,0.9,2.6,2.5v5.5h-0.9l-0.1-1.1c-0.9,0.8-1.9,1.3-3.1,1.3C349.9,450.1,349.1,449.4,349.1,448.1z M354.5,448v-2.5
			c-3.5,0.6-4.3,1.4-4.3,2.4c0,0.8,0.5,1.3,1.4,1.3C352.7,449.3,353.6,448.8,354.5,448z"/>
		<path d="M357.8,450v-7.9h0.9l0.1,1.2c0.8-0.8,1.8-1.4,3-1.4c1.6,0,2.4,0.9,2.4,2.3v5.7h-1v-5.5c0-1.1-0.5-1.7-1.6-1.7
			c-1,0-1.9,0.5-2.7,1.4v5.8H357.8z"/>
		<path d="M366.4,450v-11l1-0.1v7.4l3.8-4.2h1.2l-2.6,2.8l2.9,5l-1,0.2l-2.5-4.4l-1.7,1.8v2.5H366.4z"/>
		<path d="M373.8,448.7l0.6-0.6c0.6,0.7,1.4,1.2,2.5,1.2c1.4,0,2.1-0.5,2.1-1.4c0-0.9-0.5-1.2-2.2-1.6c-1.9-0.5-2.7-1-2.7-2.3
			c0-1.1,1-2.1,2.7-2.1c1.3,0,2.2,0.4,2.9,1.1l-0.5,0.7c-0.6-0.6-1.4-1-2.4-1c-1.2,0-1.7,0.6-1.7,1.2c0,0.7,0.4,1.1,1.9,1.4
			c2.1,0.5,3,1,3,2.5c0,1.5-1.3,2.3-3.1,2.3C375.4,450.1,374.4,449.5,373.8,448.7z"/>
	</g>
	<g>
		<path d="M7.1,345.8v-2.3H1.8V342l5.1-7.3h2.1v7.2h1.8l0.2,1.6H8.9v2.3H7.1z M3.7,341.9h3.4v-5h0L3.7,341.9z"/>
		<path d="M11.7,344.3l0.9-1.4c0.7,0.8,1.7,1.4,2.9,1.4c1.6,0,2.4-1,2.4-2.2c0-1.4-0.8-2.2-2.2-2.2c-0.9,0-1.7,0.3-2.2,1.1l-1.2-0.4
			l0.4-5.9h6.2l0.3,1.6h-5.1l-0.3,2.9c0.5-0.5,1.2-0.8,2.3-0.8c2.2,0,3.5,1.5,3.5,3.7c0,2.3-1.6,3.9-4.2,3.9
			C13.9,346,12.6,345.3,11.7,344.3z"/>
		<path d="M21,347.4l0.4-3.6h2.1l-1.4,3.6H21z"/>
		<path d="M30.1,345.8v-2.3h-5.4V342l5.1-7.3h2.1v7.2h1.8l0.2,1.6h-1.9v2.3H30.1z M26.7,341.9h3.4v-5h0L26.7,341.9z"/>
		<path d="M34.2,338c0-2.1,1.1-3.5,2.8-3.5c1.7,0,2.8,1.4,2.8,3.5c0,2.1-1,3.5-2.8,3.5C35.2,341.5,34.2,340.1,34.2,338z M38.2,338
			c0-1.4-0.4-2.3-1.2-2.3c-0.9,0-1.2,0.9-1.2,2.2c0,1.4,0.4,2.3,1.3,2.3C37.8,340.3,38.2,339.3,38.2,338z M37.2,345.8l6.6-11.1h1.6
			l-6.6,11.1H37.2z M42.8,342.4c0-2.1,1.1-3.5,2.8-3.5c1.7,0,2.8,1.4,2.8,3.5c0,2.1-1,3.5-2.8,3.5S42.8,344.5,42.8,342.4z
			 M46.8,342.4c0-1.4-0.4-2.3-1.2-2.3c-0.9,0-1.2,0.9-1.2,2.2c0,1.4,0.4,2.3,1.2,2.3C46.5,344.7,46.8,343.7,46.8,342.4z"/>
	</g>
	<g>
		<path d="M2.8,364.3v-11.1h3.7c2.5,0,3.8,1,3.8,3c0,1.8-1,2.7-2.6,3l2.8,5l-1.1,0.2l-2.8-5.1H3.8v5H2.8z M3.8,358.4h2.6
			c1.8,0,2.9-0.5,2.9-2.1c0-1.5-1-2.1-2.9-2.1H3.8V358.4z"/>
		<path d="M11.8,360.4c0-2.8,1.8-4.1,3.5-4.1c1.8,0,3.2,1.4,3.2,4.1v0.2h-5.7c0,1.9,1.1,3,2.6,3c1,0,1.8-0.4,2.5-1.2l0.5,0.7
			c-0.9,0.9-1.7,1.4-3.1,1.4C13.5,364.5,11.8,363.1,11.8,360.4z M17.5,359.8c-0.1-1.5-0.8-2.6-2.2-2.6c-1.1,0-2.2,0.9-2.4,2.6H17.5z
			"/>
		<path d="M20,363.1l0.6-0.6c0.6,0.7,1.4,1.2,2.5,1.2c1.4,0,2.1-0.5,2.1-1.4c0-0.9-0.5-1.2-2.2-1.6c-1.9-0.5-2.7-1-2.7-2.3
			c0-1.1,1-2.1,2.7-2.1c1.3,0,2.2,0.4,2.9,1.1l-0.5,0.7c-0.6-0.6-1.4-1-2.4-1c-1.2,0-1.7,0.6-1.7,1.2c0,0.7,0.4,1.1,1.9,1.4
			c2.1,0.5,3,1,3,2.5c0,1.5-1.3,2.3-3.1,2.3C21.6,364.4,20.6,363.8,20,363.1z"/>
		<path d="M27.9,354c0-0.4,0.2-0.6,0.6-0.6s0.6,0.2,0.6,0.6c0,0.4-0.2,0.7-0.6,0.7S27.9,354.4,27.9,354z M28,364.3v-7.9h1v7.9H28z"
			/>
		<path d="M31,360.4c0-2.8,1.5-4.1,3.3-4.1c1.1,0,2,0.5,2.6,1.2v-4.2l1-0.2v11.2H37l-0.1-1.1c-0.6,0.7-1.5,1.3-2.6,1.3
			C32.4,364.4,31,363.1,31,360.4z M36.9,362.3v-3.9c-0.8-0.8-1.5-1.3-2.5-1.3c-1.3,0-2.4,1-2.4,3.2c0,2.2,1.1,3.2,2.4,3.2
			C35.4,363.6,36.1,363.1,36.9,362.3z"/>
		<path d="M39.8,360.4c0-2.8,1.8-4.1,3.5-4.1c1.8,0,3.2,1.4,3.2,4.1v0.2h-5.7c0,1.9,1.1,3,2.6,3c1,0,1.8-0.4,2.5-1.2l0.5,0.7
			c-0.9,0.9-1.7,1.4-3.1,1.4C41.4,364.5,39.8,363.1,39.8,360.4z M45.5,359.8c-0.1-1.5-0.8-2.6-2.2-2.6c-1.1,0-2.2,0.9-2.4,2.6H45.5z
			"/>
		<path d="M48.4,364.3v-7.9h0.9l0.1,1.2c0.8-0.8,1.8-1.4,3-1.4c1.6,0,2.4,0.9,2.4,2.3v5.7h-1v-5.5c0-1.1-0.5-1.7-1.6-1.7
			c-1,0-1.9,0.5-2.7,1.4v5.8H48.4z"/>
		<path d="M57.6,362.4v-5.1h-1.4v-0.9h1.4v-2.8l1-0.1v2.9h2.1v0.9h-2.1v5c0,0.8,0.3,1.3,1.2,1.3c0.3,0,0.6,0,0.8-0.1l0.1,0.9
			c-0.3,0-0.7,0.1-1.1,0.1C58.2,364.4,57.6,363.9,57.6,362.4z"/>
	</g>
	<g>
		<path class="st4" d="M215.2,244l1-1.4c0.9,0.9,2.2,1.6,3.6,1.6c1.4,0,2.3-0.5,2.3-1.4c0-1-0.7-1.4-2.5-2c-2.1-0.6-3.9-1.2-3.9-3.3
			c0-1.9,1.6-3.1,3.8-3.1c1.7,0,3.1,0.7,4.1,1.6l-0.9,1.5c-0.9-0.8-2.1-1.4-3.2-1.4c-1.3,0-2,0.6-2,1.3c0,1,0.8,1.4,2.6,1.9
			c2.1,0.6,3.8,1.3,3.8,3.4c0,1.8-1.5,3.2-4.1,3.2C217.9,245.9,216.4,245,215.2,244z"/>
		<path class="st4" d="M226.2,245.6v-11.1h1.9v4.4h5v-4.4h1.9v11.1h-1.9v-4.9h-5v4.9H226.2z"/>
		<path class="st4" d="M236.8,245.6l3.9-11.1h1.8l3.9,11l-1.8,0.3l-0.9-2.8h-4.2l-0.9,2.6H236.8z M240,241.4h3.1l-1.5-4.5h0
			L240,241.4z"/>
		<path class="st4" d="M248.3,245.6v-11.1h4c2.6,0,4.2,1,4.2,3.4c0,1.8-0.9,2.7-2.4,3.1l2.6,4.5l-1.8,0.3l-2.7-4.5h-2v4.4H248.3z
			 M250.2,239.6h2c1.6,0,2.4-0.5,2.4-1.7c0-1.2-0.8-1.7-2.4-1.7h-2V239.6z"/>
		<path class="st4" d="M258.8,245.6v-11.1h7.2v1.7h-5.3v2.8h4l0.3,1.7h-4.3v3.2h5.6v1.7H258.8z"/>
		<path class="st4" d="M268.3,245.6v-11.1h1.9v4.4h5v-4.4h1.9v11.1h-1.9v-4.9h-5v4.9H268.3z"/>
		<path class="st4" d="M279.3,240.1c0-3.7,2.3-5.8,5-5.8c2.7,0,5,2,5,5.8c0,3.7-2.3,5.8-5,5.8C281.6,245.9,279.3,243.8,279.3,240.1z
			 M287.4,240.1c0-2.5-1.3-4-3.1-4c-1.9,0-3.1,1.5-3.1,4s1.3,4.1,3.1,4.1C286.2,244.2,287.4,242.6,287.4,240.1z"/>
		<path class="st4" d="M291.5,245.6v-11.1h1.9v9.4h5l0.3,1.7H291.5z"/>
		<path class="st4" d="M300.4,245.6v-11.1h3.1c3.5,0,5.8,1.6,5.8,5.5c0,4-2.3,5.6-5.8,5.6H300.4z M302.3,243.9h1.5
			c2.6,0,3.7-1.2,3.7-3.9c0-2.6-1.2-3.8-3.8-3.8h-1.4V243.9z"/>
		<path class="st4" d="M311.6,245.6v-11.1h7.2v1.7h-5.3v2.8h4l0.3,1.7h-4.3v3.2h5.6v1.7H311.6z"/>
		<path class="st4" d="M321,245.6v-11.1h4c2.6,0,4.2,1,4.2,3.4c0,1.8-0.9,2.7-2.4,3.1l2.6,4.5l-1.8,0.3l-2.7-4.5h-2v4.4H321z
			 M322.9,239.6h2c1.6,0,2.4-0.5,2.4-1.7c0-1.2-0.8-1.7-2.4-1.7h-2V239.6z"/>
		<path class="st4" d="M330.7,244l1-1.4c0.9,0.9,2.2,1.6,3.6,1.6c1.4,0,2.3-0.5,2.3-1.4c0-1-0.7-1.4-2.5-2c-2.1-0.6-3.9-1.2-3.9-3.3
			c0-1.9,1.6-3.1,3.8-3.1c1.7,0,3.1,0.7,4.1,1.6l-0.9,1.5c-0.9-0.8-2.1-1.4-3.2-1.4c-1.3,0-2,0.6-2,1.3c0,1,0.8,1.4,2.6,1.9
			c2.1,0.6,3.8,1.3,3.8,3.4c0,1.8-1.5,3.2-4.1,3.2C333.4,245.9,331.8,245,330.7,244z"/>
	</g>
	<g>
		<path class="st6" d="M190,209.5l1.4-1.9c2.3,2,4.2,3.1,8.1,3.1c7.2,0,11.6-8,11.5-17.9c-2.3,2.7-5.9,5.4-10.9,5.4
			c-8.1,0-11.5-5.2-11.5-11.5c0-6.8,4.6-12.2,12.1-12.2c6.8,0,12.7,5.7,12.7,18.6c0,10.8-5.5,19.9-13.9,19.9
			C195,212.9,192.1,211.5,190,209.5z M210.7,189.8c-0.8-9.1-5.2-13.1-10.3-13.1c-5.6,0-9.4,3.5-9.4,10c0,5.4,2.8,9.3,9.1,9.3
			C204.5,196,208.2,193.5,210.7,189.8z"/>
		<path class="st6" d="M216.3,205.9l2-1.2c2.7,4.3,6.1,6.1,10.4,6.1c5.8,0,9.4-3.5,9.4-8.3c0-5.8-3.2-8.9-12.5-8.9h-1.3v-2.2h1.6
			c8.1,0,11.5-2.5,11.5-7.6c0-4-2.4-7.2-8.4-7.2c-4,0-6.8,2-8.9,4.8l-2-1.3c2.5-3.2,6-5.8,11-5.8c7.8,0,10.8,4.7,10.8,9.2
			c0,4.9-3,8.1-7.6,8.8c5.6,1.2,8.3,4.2,8.3,9.9c0,5.9-4.5,10.6-11.9,10.6C223.4,212.9,218.9,210.3,216.3,205.9z"/>
		<path class="st6" d="M245,205.9l2.1-1.2c2.1,3.6,5.2,6.1,9.8,6.1c6.7,0,9.8-5.3,9.8-10.6c0-6.4-3.9-10-8.9-10c-4.1,0-6.8,2-8.9,5
			l-2.1-0.8l1.4-19.2h18.4l0.4,2.4h-16.6l-1.1,14.1c1.9-2.3,4.4-3.7,8.4-3.7c6.4,0,11.3,4.6,11.3,12c0,7.3-4.7,12.9-12.3,12.9
			C251.6,212.9,247.3,210,245,205.9z"/>
		<path class="st6" d="M274.1,217.1l1.2-8.9h3.3l-3.1,8.9H274.1z"/>
		<path class="st6" d="M285.2,212.2v-0.8c0-5.4,3-10.2,12.7-16.4c5.5-3.5,7.8-6.3,7.8-10.4c0-4.7-2.8-8-8.2-8
			c-4.4,0-7.3,2.2-9.4,6.8l-2.1-1c2.4-5.2,6.5-8,11.6-8c6.5,0,10.6,4.2,10.6,10c0,5.3-2.8,8.4-9.9,12.9c-7,4.5-10.4,8.9-10.5,12.5
			H308l0.4,2.3H285.2z"/>
		<path class="st6" d="M312,203.4c0-5.3,3.7-8.1,10.2-10.9c-5.2-2.3-8.5-4.8-8.5-9.2c0-4.6,4.2-8.8,11.1-8.8c7,0,11.1,4.3,11.1,8.8
			c0,4.5-3.1,6.7-8.6,9.1c6.7,2.9,10.3,5.6,10.3,11c0,5-4.7,9.5-12.8,9.5S312,208.5,312,203.4z M335.2,203.3c0-4.5-3.8-6.9-10.5-9.7
			c-7.2,3.2-10.2,5.5-10.2,9.7c0,4.3,4.4,7.5,10.4,7.5S335.2,207.8,335.2,203.3z M333.5,183.3c0-3.2-2.7-6.6-8.7-6.6
			c-5.7,0-8.7,3.3-8.7,6.5c0,3.7,2.6,5.5,8.7,8.2C331,188.8,333.5,187.1,333.5,183.3z"/>
		<path class="st6" d="M359.5,212.2v-9.5h-17.8V201l16.9-25.8h3.3v25.3h6l0.5,2.2h-6.5v9.5H359.5z M344.7,200.5h14.8v-22.4h-0.1
			L344.7,200.5z"/>
	</g>
	<g>
		<rect x="95" y="349.4" class="st6" width="235" height="1"/>
	</g>
	<g>
		<rect x="95" y="93.4" class="st6" width="73" height="1"/>
	</g>
	<g>
		<rect x="475" y="191.4" class="st6" width="20" height="1"/>
	</g>
	<g>
		<rect x="418" y="346.4" class="st6" width="48" height="1"/>
	</g>
	<g>
		<rect x="360" y="389.4" class="st6" width="58" height="1"/>
	</g>
	<g>
		<rect x="336.5" y="400.9" class="st6" width="1" height="17"/>
	</g>
</g>
</svg>
