<?xml version="1.0" encoding="UTF-8" standalone="no"?>
<svg width="744px" height="467px" viewBox="0 0 744 467" version="1.1" xmlns="http://www.w3.org/2000/svg" xmlns:xlink="http://www.w3.org/1999/xlink">
    <!-- Generator: Sketch 41.2 (35397) - http://www.bohemiancoding.com/sketch -->
    <title>Page 1</title>
    <desc>Created with Sketch.</desc>
    <defs>
        <linearGradient x1="50%" y1="0%" x2="50%" y2="100%" id="linearGradient-1">
            <stop stop-color="#000000" stop-opacity="0" offset="0%"></stop>
            <stop stop-color="#000000" offset="100%"></stop>
        </linearGradient>
    </defs>
    <g id="Page-1" stroke="none" stroke-width="1" fill="none" fill-rule="evenodd">
        <g transform="translate(0.000000, -1.000000)">
            <g id="Group-2" transform="translate(619.000000, 0.643000)" fill="#FFFFFF">
                <path d="M7.3015,11.9125635 L7.2265,10.9525635 L1.2865,10.9525635 C1.3315,9.96256352 2.3515,8.74756352 4.3465,7.47256352 C6.4765,6.12256352 7.2115,5.16256352 7.2115,3.64756352 C7.2115,1.86256352 5.9665,0.602563522 3.9415,0.602563522 C2.3365,0.602563522 1.0915,1.44256352 0.3415,2.97256352 L1.1365,3.49756352 C1.7815,2.17756352 2.6665,1.54756352 3.8965,1.54756352 C5.3965,1.54756352 6.1765,2.43256352 6.1765,3.70756352 C6.1765,4.90756352 5.5015,5.67256352 3.8365,6.72256352 C0.9115,8.59756352 0.1165,10.0675635 0.1165,11.6725635 L0.1165,11.9125635 L7.3015,11.9125635 Z M12.9485,12.1225635 C15.5585,12.1225635 16.9985,9.82756352 16.9985,6.36256352 C16.9985,2.89756352 15.5585,0.602563522 12.9485,0.602563522 C10.3385,0.602563522 8.8685,2.89756352 8.8685,6.36256352 C8.8685,9.82756352 10.3385,12.1225635 12.9485,12.1225635 Z M12.9485,11.1775635 C11.1185,11.1775635 9.9335,9.49756352 9.9335,6.36256352 C9.9335,3.22756352 11.0585,1.54756352 12.9485,1.54756352 C14.7635,1.54756352 15.9485,3.22756352 15.9485,6.36256352 C15.9485,9.49756352 14.8235,11.1775635 12.9485,11.1775635 Z M22.1505,11.9125635 L22.1505,0.812563522 L21.1755,0.812563522 L18.8505,1.63756352 L18.9855,2.52256352 L21.1155,1.80256352 L21.1155,11.9125635 L22.1505,11.9125635 Z M28.9225,12.1225635 C31.2175,12.1225635 32.6425,10.5325635 32.6425,8.43256352 C32.6425,6.42256352 31.5175,4.96756352 29.1775,4.96756352 C27.7675,4.96756352 26.7175,5.68756352 26.0125,6.45256352 C26.0125,3.67756352 27.2725,1.53256352 29.3275,1.53256352 C30.3175,1.53256352 30.8575,1.80256352 31.4575,2.28256352 L31.9525,1.44256352 C31.3675,0.962563522 30.5875,0.602563522 29.3425,0.602563522 C26.7925,0.602563522 24.9775,3.13756352 24.9775,6.55756352 C24.9775,10.3675635 26.7625,12.1225635 28.9225,12.1225635 Z M28.9675,11.2075635 C27.4975,11.2075635 26.2825,10.0675635 26.0575,7.51756352 C26.7625,6.54256352 27.8275,5.88256352 29.0575,5.88256352 C30.8575,5.88256352 31.6075,6.97756352 31.6075,8.44756352 C31.6075,10.1875635 30.5425,11.2075635 28.9675,11.2075635 Z" id="2016"></path>
                <path d="M99.7115,12.9125635 L99.6365,11.9525635 L93.6965,11.9525635 C93.7415,10.9625635 94.7615,9.74756352 96.7565,8.47256352 C98.8865,7.12256352 99.6215,6.16256352 99.6215,4.64756352 C99.6215,2.86256352 98.3765,1.60256352 96.3515,1.60256352 C94.7465,1.60256352 93.5015,2.44256352 92.7515,3.97256352 L93.5465,4.49756352 C94.1915,3.17756352 95.0765,2.54756352 96.3065,2.54756352 C97.8065,2.54756352 98.5865,3.43256352 98.5865,4.70756352 C98.5865,5.90756352 97.9115,6.67256352 96.2465,7.72256352 C93.3215,9.59756352 92.5265,11.0675635 92.5265,12.6725635 L92.5265,12.9125635 L99.7115,12.9125635 Z M105.3585,13.1225635 C107.9685,13.1225635 109.4085,10.8275635 109.4085,7.36256352 C109.4085,3.89756352 107.9685,1.60256352 105.3585,1.60256352 C102.7485,1.60256352 101.2785,3.89756352 101.2785,7.36256352 C101.2785,10.8275635 102.7485,13.1225635 105.3585,13.1225635 Z M105.3585,12.1775635 C103.5285,12.1775635 102.3435,10.4975635 102.3435,7.36256352 C102.3435,4.22756352 103.4685,2.54756352 105.3585,2.54756352 C107.1735,2.54756352 108.3585,4.22756352 108.3585,7.36256352 C108.3585,10.4975635 107.2335,12.1775635 105.3585,12.1775635 Z M114.5605,12.9125635 L114.5605,1.81256352 L113.5855,1.81256352 L111.2605,2.63756352 L111.3955,3.52256352 L113.5255,2.80256352 L113.5255,12.9125635 L114.5605,12.9125635 Z M120.9575,13.1225635 C123.3125,13.1225635 124.7675,11.4575635 124.7675,9.23756352 C124.7675,7.01756352 123.3425,5.60756352 121.3325,5.60756352 C120.1475,5.60756352 119.4125,6.01256352 118.8725,6.64256352 L119.1725,2.78756352 L124.1375,2.78756352 L124.1075,1.81256352 L118.2875,1.81256352 L117.8525,7.61756352 L118.6475,7.91756352 C119.2475,7.04756352 120.0425,6.52256352 121.1825,6.52256352 C122.6525,6.52256352 123.7175,7.51256352 123.7175,9.28256352 C123.7175,10.7525635 122.8625,12.1775635 120.9425,12.1775635 C119.6075,12.1775635 118.6775,11.4725635 118.0175,10.4675635 L117.3275,11.1425635 C118.0625,12.3125635 119.3525,13.1225635 120.9575,13.1225635 Z" id="2015"></path>
            </g>
            <polygon id="Fill-3" fill="#2ECDCD" points="610.9531 3.2739 606.3201 12.5399 588.7111 12.5399 593.3441 3.2739"></polygon>
            <polygon id="Fill-4" fill="#0086CD" points="702.4612 3.2739 697.8282 12.5399 680.2192 12.5399 684.8522 3.2739"></polygon>
            <path d="M7.5916,36.9066635 L7.5916,27.5466635 L11.1466,27.5466635 L10.8766,25.8066635 L2.2966,25.8066635 L2.2966,27.5466635 L5.7166,27.5466635 L5.7166,36.9066635 L7.5916,36.9066635 Z M16.6466,37.1166635 C19.3166,37.1166635 21.6416,35.0916635 21.6416,31.3566635 C21.6416,27.6216635 19.3166,25.5966635 16.6466,25.5966635 C13.9616,25.5966635 11.6366,27.6216635 11.6366,31.3566635 C11.6366,35.0916635 13.9616,37.1166635 16.6466,37.1166635 Z M16.6466,35.4366635 C14.7716,35.4366635 13.5116,33.8766635 13.5116,31.3566635 C13.5116,28.8366635 14.7716,27.3216635 16.6466,27.3216635 C18.5216,27.3216635 19.7816,28.8366635 19.7816,31.3566635 C19.7816,33.8766635 18.5216,35.4366635 16.6466,35.4366635 Z M27.5766,36.9066635 L27.5766,27.5466635 L31.1316,27.5466635 L30.8616,25.8066635 L22.2816,25.8066635 L22.2816,27.5466635 L25.7016,27.5466635 L25.7016,36.9066635 L27.5766,36.9066635 Z M32.1916,36.9066635 L33.1216,34.2666635 L37.3366,34.2666635 L38.2816,37.0566635 L40.0966,36.7566635 L36.2116,25.7616635 L34.3816,25.7616635 L30.4516,36.9066635 L32.1916,36.9066635 Z M35.2366,28.1166635 L35.2666,28.1166635 L36.7966,32.6166635 L33.6766,32.6166635 L35.2366,28.1166635 Z M48.9266,36.9066635 L48.6416,35.2116635 L43.6766,35.2116635 L43.6766,25.8066635 L41.8016,25.8066635 L41.8016,36.9066635 L48.9266,36.9066635 Z M54.0766,36.9066635 L55.0066,34.2666635 L59.2216,34.2666635 L60.1666,37.0566635 L61.9816,36.7566635 L58.0966,25.7616635 L56.2666,25.7616635 L52.3366,36.9066635 L54.0766,36.9066635 Z M57.1216,28.1166635 L57.1516,28.1166635 L58.6816,32.6166635 L55.5616,32.6166635 L57.1216,28.1166635 Z M67.4666,37.1166635 C69.7916,37.1166635 71.1416,35.9316635 71.8016,34.1016635 L70.1816,33.3666635 C69.7466,34.6116635 68.8466,35.4366635 67.4666,35.4366635 C65.5316,35.4366635 64.4216,33.8766635 64.4216,31.3116635 C64.4216,28.8816635 65.4716,27.3216635 67.3616,27.3216635 C68.6966,27.3216635 69.5066,28.0716635 69.9416,29.1066635 L71.5316,28.1616635 C70.7666,26.5116635 69.4616,25.5966635 67.3616,25.5966635 C64.6316,25.5966635 62.5466,27.6816635 62.5466,31.3266635 C62.5466,35.0766635 64.6016,37.1166635 67.4666,37.1166635 Z M77.7516,36.9066635 L77.7516,27.5466635 L81.3066,27.5466635 L81.0366,25.8066635 L72.4566,25.8066635 L72.4566,27.5466635 L75.8766,27.5466635 L75.8766,36.9066635 L77.7516,36.9066635 Z M84.8566,36.9066635 L84.8566,25.8066635 L82.9966,25.8066635 L82.9966,36.9066635 L84.8566,36.9066635 Z M92.2766,36.9516635 L96.1316,25.8066635 L94.3616,25.8066635 L91.4366,34.4616635 L91.4066,34.4616635 L88.5116,25.6566635 L86.6966,25.9566635 L90.5066,36.9516635 L92.2766,36.9516635 Z M101.6616,37.1166635 C104.3316,37.1166635 106.6566,35.0916635 106.6566,31.3566635 C106.6566,27.6216635 104.3316,25.5966635 101.6616,25.5966635 C98.9766,25.5966635 96.6516,27.6216635 96.6516,31.3566635 C96.6516,35.0916635 98.9766,37.1166635 101.6616,37.1166635 Z M101.6616,35.4366635 C99.7866,35.4366635 98.5266,33.8766635 98.5266,31.3566635 C98.5266,28.8366635 99.7866,27.3216635 101.6616,27.3216635 C103.5366,27.3216635 104.7966,28.8366635 104.7966,31.3566635 C104.7966,33.8766635 103.5366,35.4366635 101.6616,35.4366635 Z M116.3666,39.4716635 C114.4916,37.7616635 113.2916,35.4666635 113.2916,32.8116635 C113.2916,30.1716635 114.4916,27.8766635 116.3516,26.1666635 L115.8866,25.6416635 C113.4416,27.6966635 112.1516,29.9766635 112.1516,32.8116635 C112.1516,35.6616635 113.4416,37.9266635 115.8866,39.9816635 L116.3666,39.4716635 Z M119.6016,36.9066635 L119.6016,27.5766635 L119.6316,27.5766635 C119.8716,28.3716635 120.0516,28.8366635 120.3216,29.5416635 L123.2016,36.9066635 L124.1766,36.9066635 L127.0566,29.5416635 C127.3266,28.8366635 127.5966,28.1016635 127.7466,27.5916635 L127.7766,27.5916635 L127.7766,36.9066635 L128.8416,36.9066635 L128.8416,25.8066635 L127.4466,25.8066635 L123.7416,35.5266635 L123.7116,35.5266635 L119.9916,25.8066635 L118.6116,25.8066635 L118.6116,36.9066635 L119.6016,36.9066635 Z M132.6916,36.9066635 L132.6916,27.5766635 L132.7216,27.5766635 C132.9616,28.3716635 133.1416,28.8366635 133.4116,29.5416635 L136.2916,36.9066635 L137.2666,36.9066635 L140.1466,29.5416635 C140.4166,28.8366635 140.6866,28.1016635 140.8366,27.5916635 L140.8666,27.5916635 L140.8666,36.9066635 L141.9316,36.9066635 L141.9316,25.8066635 L140.5366,25.8066635 L136.8316,35.5266635 L136.8016,35.5266635 L133.0816,25.8066635 L131.7016,25.8066635 L131.7016,36.9066635 L132.6916,36.9066635 Z M145.4666,31.2966635 C145.4666,31.5666635 145.4816,31.8366635 145.4966,32.0766635 L143.6816,32.0766635 L143.6816,32.9316635 L145.5866,32.9316635 C146.0216,35.7816635 147.5966,37.1166635 149.6216,37.1166635 C151.6016,37.1166635 152.7566,35.8266635 153.2966,34.0116635 L152.3516,33.6366635 C151.9016,35.2866635 151.1516,36.1866635 149.6366,36.1866635 C148.0316,36.1866635 146.9516,35.0766635 146.6216,32.9316635 L150.0116,32.9316635 L150.0116,32.0766635 L146.5316,32.0766635 C146.5166,31.8216635 146.5016,31.5366635 146.5016,31.2366635 C146.5016,31.0866635 146.5016,30.8166635 146.5166,30.6516635 L150.0116,30.6516635 L150.0116,29.8266635 L146.6066,29.8266635 C146.9366,27.5616635 148.1666,26.5416635 149.6066,26.5416635 C151.1666,26.5416635 151.7366,27.4416635 152.1866,28.9566635 L153.1466,28.5966635 C152.6366,26.8566635 151.6316,25.5966635 149.6216,25.5966635 C147.7466,25.5966635 146.0066,26.9016635 145.5716,29.8266635 L143.6816,29.8266635 L143.6816,30.6516635 L145.4816,30.6516635 C145.4816,30.8166635 145.4666,31.1166635 145.4666,31.2966635 Z M155.4216,39.9816635 C157.8666,37.9266635 159.1716,35.6616635 159.1716,32.8116635 C159.1716,29.9766635 157.8666,27.6966635 155.4216,25.6416635 L154.9566,26.1666635 C156.8166,27.8766635 158.0316,30.1716635 158.0316,32.8116635 C158.0316,35.4666635 156.8166,37.7616635 154.9566,39.4716635 L155.4216,39.9816635 Z" id="TOTAL-ACTIVO-(MM€)" fill="#FFFFFF"></path>
            <path d="M5.64,129.449664 C7.965,129.449664 9.315,128.264664 9.975,126.434664 L8.355,125.699664 C7.92,126.944664 7.02,127.769664 5.64,127.769664 C3.705,127.769664 2.595,126.209664 2.595,123.644664 C2.595,121.214664 3.645,119.654664 5.535,119.654664 C6.87,119.654664 7.68,120.404664 8.115,121.439664 L9.705,120.494664 C8.94,118.844664 7.635,117.929664 5.535,117.929664 C2.805,117.929664 0.72,120.014664 0.72,123.659664 C0.72,127.409664 2.775,129.449664 5.64,129.449664 Z M13.78,129.239664 L13.78,124.859664 L15.745,124.859664 L18.43,129.389664 L20.26,129.089664 L17.62,124.619664 C19.15,124.229664 20.065,123.314664 20.065,121.544664 C20.065,119.189664 18.535,118.139664 15.91,118.139664 L11.935,118.139664 L11.935,129.239664 L13.78,129.239664 Z M13.78,119.849664 L15.82,119.849664 C17.41,119.849664 18.235,120.284664 18.235,121.514664 C18.235,122.774664 17.41,123.224664 15.82,123.224664 L13.78,123.224664 L13.78,119.849664 Z M24.83,117.479664 L26.045,117.479664 L28.22,114.989664 L26.225,114.989664 L24.83,117.479664 Z M29.795,129.239664 L29.795,127.544664 L24.2,127.544664 L24.2,124.304664 L28.52,124.304664 L28.25,122.639664 L24.2,122.639664 L24.2,119.879664 L29.495,119.879664 L29.495,118.139664 L22.325,118.139664 L22.325,129.239664 L29.795,129.239664 Z M34.815,129.239664 C38.25,129.239664 40.59,127.604664 40.59,123.644664 C40.59,119.759664 38.295,118.139664 34.815,118.139664 L31.665,118.139664 L31.665,129.239664 L34.815,129.239664 Z M33.525,119.879664 L34.95,119.879664 C37.53,119.879664 38.715,121.079664 38.715,123.674664 C38.715,126.374664 37.545,127.544664 34.98,127.544664 L33.525,127.544664 L33.525,119.879664 Z M44.59,129.239664 L44.59,118.139664 L42.73,118.139664 L42.73,129.239664 L44.59,129.239664 Z M51.71,129.239664 L51.71,119.879664 L55.265,119.879664 L54.995,118.139664 L46.415,118.139664 L46.415,119.879664 L49.835,119.879664 L49.835,129.239664 L51.71,129.239664 Z M60.765,129.449664 C63.435,129.449664 65.76,127.424664 65.76,123.689664 C65.76,119.954664 63.435,117.929664 60.765,117.929664 C58.08,117.929664 55.755,119.954664 55.755,123.689664 C55.755,127.424664 58.08,129.449664 60.765,129.449664 Z M60.765,127.769664 C58.89,127.769664 57.63,126.209664 57.63,123.689664 C57.63,121.169664 58.89,119.654664 60.765,119.654664 C62.64,119.654664 63.9,121.169664 63.9,123.689664 C63.9,126.209664 62.64,127.769664 60.765,127.769664 Z M71.59,129.449664 C74.23,129.449664 75.7,128.024664 75.7,126.224664 C75.7,124.124664 74.02,123.449664 71.92,122.834664 C70.105,122.294664 69.31,121.934664 69.31,120.899664 C69.31,120.179664 70.03,119.624664 71.29,119.624664 C72.46,119.624664 73.63,120.239664 74.515,121.019664 L75.4,119.519664 C74.35,118.649664 72.955,117.929664 71.26,117.929664 C69.04,117.929664 67.48,119.174664 67.48,121.049664 C67.48,123.164664 69.19,123.734664 71.335,124.364664 C73.165,124.919664 73.87,125.369664 73.87,126.344664 C73.87,127.304664 72.925,127.784664 71.53,127.784664 C70.165,127.784664 68.77,127.019664 67.915,126.134664 L66.91,127.559664 C68.035,128.624664 69.595,129.449664 71.59,129.449664 Z M81.96,129.239664 L82.89,126.599664 L87.105,126.599664 L88.05,129.389664 L89.865,129.089664 L85.98,118.094664 L84.15,118.094664 L80.22,129.239664 L81.96,129.239664 Z M85.005,120.449664 L85.035,120.449664 L86.565,124.949664 L83.445,124.949664 L85.005,120.449664 Z M102.035,129.239664 L101.75,127.544664 L96.785,127.544664 L96.785,118.139664 L94.91,118.139664 L94.91,129.239664 L102.035,129.239664 Z M104.445,129.239664 L105.375,126.599664 L109.59,126.599664 L110.535,129.389664 L112.35,129.089664 L108.465,118.094664 L106.635,118.094664 L102.705,129.239664 L104.445,129.239664 Z M107.49,120.449664 L107.52,120.449664 L109.05,124.949664 L105.93,124.949664 L107.49,120.449664 Z M121.775,129.449664 C124.1,129.449664 125.45,128.264664 126.11,126.434664 L124.49,125.699664 C124.055,126.944664 123.155,127.769664 121.775,127.769664 C119.84,127.769664 118.73,126.209664 118.73,123.644664 C118.73,121.214664 119.78,119.654664 121.67,119.654664 C123.005,119.654664 123.815,120.404664 124.25,121.439664 L125.84,120.494664 C125.075,118.844664 123.77,117.929664 121.67,117.929664 C118.94,117.929664 116.855,120.014664 116.855,123.659664 C116.855,127.409664 118.91,129.449664 121.775,129.449664 Z M135.195,129.239664 L134.91,127.544664 L129.945,127.544664 L129.945,118.139664 L128.07,118.139664 L128.07,129.239664 L135.195,129.239664 Z M138.745,129.239664 L138.745,118.139664 L136.885,118.139664 L136.885,129.239664 L138.745,129.239664 Z M148.895,129.239664 L148.895,127.544664 L143.3,127.544664 L143.3,124.304664 L147.62,124.304664 L147.35,122.639664 L143.3,122.639664 L143.3,119.879664 L148.595,119.879664 L148.595,118.139664 L141.425,118.139664 L141.425,129.239664 L148.895,129.239664 Z M152.49,129.239664 L152.49,121.154664 L152.52,121.154664 L157.98,129.239664 L159.69,129.239664 L159.69,118.139664 L157.95,118.139664 L157.95,126.074664 L157.92,126.074664 L152.67,118.139664 L150.765,118.139664 L150.765,129.239664 L152.49,129.239664 Z M166.675,129.239664 L166.675,119.879664 L170.23,119.879664 L169.96,118.139664 L161.38,118.139664 L161.38,119.879664 L164.8,119.879664 L164.8,129.239664 L166.675,129.239664 Z M179.255,129.239664 L179.255,127.544664 L173.66,127.544664 L173.66,124.304664 L177.98,124.304664 L177.71,122.639664 L173.66,122.639664 L173.66,119.879664 L178.955,119.879664 L178.955,118.139664 L171.785,118.139664 L171.785,129.239664 L179.255,129.239664 Z M188.25,129.239664 L187.965,127.544664 L183,127.544664 L183,118.139664 L181.125,118.139664 L181.125,129.239664 L188.25,129.239664 Z M190.66,129.239664 L191.59,126.599664 L195.805,126.599664 L196.75,129.389664 L198.565,129.089664 L194.68,118.094664 L192.85,118.094664 L188.92,129.239664 L190.66,129.239664 Z M193.705,120.449664 L193.735,120.449664 L195.265,124.949664 L192.145,124.949664 L193.705,120.449664 Z" id="CRÉDITOS-A-LA-CLIENTELA-" fill="#FFFFFF"></path>
            <path d="M208.3827,130.804664 C206.5077,129.094664 205.3077,126.799664 205.3077,124.144664 C205.3077,121.504664 206.5077,119.209664 208.3677,117.499664 L207.9027,116.974664 C205.4577,119.029664 204.1677,121.309664 204.1677,124.144664 C204.1677,126.994664 205.4577,129.259664 207.9027,131.314664 L208.3827,130.804664 Z M214.8127,128.239664 C217.3777,128.239664 218.6077,126.979664 218.6077,125.224664 C218.6077,123.619664 217.4977,122.764664 216.1477,122.524664 L216.1477,122.494664 C217.2727,122.239664 218.2477,121.414664 218.2477,119.929664 C218.2477,118.174664 216.9877,117.139664 214.4827,117.139664 L210.6277,117.139664 L210.6277,128.239664 L214.8127,128.239664 Z M211.6777,118.099664 L214.4227,118.099664 C216.3427,118.099664 217.1977,118.714664 217.1977,120.064664 C217.1977,121.429664 216.1627,122.074664 214.3927,122.074664 L211.6777,122.074664 L211.6777,118.099664 Z M211.6777,123.004664 L214.4677,123.004664 C216.3727,123.004664 217.5577,123.694664 217.5577,125.179664 C217.5577,126.514664 216.7027,127.294664 214.7977,127.294664 L211.6777,127.294664 L211.6777,123.004664 Z M221.7377,128.239664 L221.7377,123.094664 C222.3377,121.849664 223.3877,121.129664 224.6927,121.129664 C224.7227,121.129664 225.0377,121.129664 225.0677,121.144664 L224.9777,120.184664 L224.8727,120.184664 C223.3277,120.184664 222.3677,120.934664 221.7677,121.894664 L221.7377,121.894664 L221.6327,120.349664 L220.7027,120.349664 L220.7027,128.239664 L221.7377,128.239664 Z M228.9327,128.404664 C230.1327,128.404664 231.1377,127.759664 231.9327,126.994664 L232.0377,128.239664 L232.9677,128.239664 L232.9677,120.349664 L231.9327,120.349664 L231.9327,126.139664 C231.0327,126.979664 230.1777,127.519664 229.1727,127.519664 C228.0627,127.519664 227.5977,126.979664 227.5977,125.869664 L227.5977,120.349664 L226.5627,120.349664 L226.5627,126.079664 C226.5627,127.549664 227.3577,128.404664 228.9327,128.404664 Z M237.9877,128.344664 C238.3777,128.344664 238.8127,128.299664 239.0677,128.254664 L238.9477,127.369664 C238.7377,127.429664 238.4527,127.474664 238.1677,127.474664 C237.2527,127.474664 236.9377,127.054664 236.9377,126.214664 L236.9377,121.219664 L238.9927,121.219664 L238.9927,120.349664 L236.9377,120.349664 L236.9377,117.424664 L235.9027,117.574664 L235.9027,120.349664 L234.5377,120.349664 L234.5377,121.219664 L235.9027,121.219664 L235.9027,126.364664 C235.9027,127.804664 236.5777,128.344664 237.9877,128.344664 Z M243.8627,128.404664 C245.7977,128.404664 247.4327,126.919664 247.4327,124.294664 C247.4327,121.654664 245.7977,120.184664 243.8627,120.184664 C241.9127,120.184664 240.2777,121.654664 240.2777,124.294664 C240.2777,126.919664 241.9277,128.404664 243.8627,128.404664 Z M243.8627,127.519664 C242.1677,127.519664 241.3127,126.049664 241.3127,124.294664 C241.3127,122.434664 242.2577,121.069664 243.8627,121.069664 C245.5277,121.069664 246.3977,122.554664 246.3977,124.294664 C246.3977,126.154664 245.4527,127.519664 243.8627,127.519664 Z M249.0327,131.314664 C251.4777,129.259664 252.7827,126.994664 252.7827,124.144664 C252.7827,121.309664 251.4777,119.029664 249.0327,116.974664 L248.5677,117.499664 C250.4277,119.209664 251.6427,121.504664 251.6427,124.144664 C251.6427,126.799664 250.4277,129.094664 248.5677,130.804664 L249.0327,131.314664 Z M258.8977,130.804664 C257.0227,129.094664 255.8227,126.799664 255.8227,124.144664 C255.8227,121.504664 257.0227,119.209664 258.8827,117.499664 L258.4177,116.974664 C255.9727,119.029664 254.6827,121.309664 254.6827,124.144664 C254.6827,126.994664 255.9727,129.259664 258.4177,131.314664 L258.8977,130.804664 Z M262.1327,128.239664 L262.1327,118.909664 L262.1627,118.909664 C262.4027,119.704664 262.5827,120.169664 262.8527,120.874664 L265.7327,128.239664 L266.7077,128.239664 L269.5877,120.874664 C269.8577,120.169664 270.1277,119.434664 270.2777,118.924664 L270.3077,118.924664 L270.3077,128.239664 L271.3727,128.239664 L271.3727,117.139664 L269.9777,117.139664 L266.2727,126.859664 L266.2427,126.859664 L262.5227,117.139664 L261.1427,117.139664 L261.1427,128.239664 L262.1327,128.239664 Z M275.2227,128.239664 L275.2227,118.909664 L275.2527,118.909664 C275.4927,119.704664 275.6727,120.169664 275.9427,120.874664 L278.8227,128.239664 L279.7977,128.239664 L282.6777,120.874664 C282.9477,120.169664 283.2177,119.434664 283.3677,118.924664 L283.3977,118.924664 L283.3977,128.239664 L284.4627,128.239664 L284.4627,117.139664 L283.0677,117.139664 L279.3627,126.859664 L279.3327,126.859664 L275.6127,117.139664 L274.2327,117.139664 L274.2327,128.239664 L275.2227,128.239664 Z M287.9977,122.629664 C287.9977,122.899664 288.0127,123.169664 288.0277,123.409664 L286.2127,123.409664 L286.2127,124.264664 L288.1177,124.264664 C288.5527,127.114664 290.1277,128.449664 292.1527,128.449664 C294.1327,128.449664 295.2877,127.159664 295.8277,125.344664 L294.8827,124.969664 C294.4327,126.619664 293.6827,127.519664 292.1677,127.519664 C290.5627,127.519664 289.4827,126.409664 289.1527,124.264664 L292.5427,124.264664 L292.5427,123.409664 L289.0627,123.409664 C289.0477,123.154664 289.0327,122.869664 289.0327,122.569664 C289.0327,122.419664 289.0327,122.149664 289.0477,121.984664 L292.5427,121.984664 L292.5427,121.159664 L289.1377,121.159664 C289.4677,118.894664 290.6977,117.874664 292.1377,117.874664 C293.6977,117.874664 294.2677,118.774664 294.7177,120.289664 L295.6777,119.929664 C295.1677,118.189664 294.1627,116.929664 292.1527,116.929664 C290.2777,116.929664 288.5377,118.234664 288.1027,121.159664 L286.2127,121.159664 L286.2127,121.984664 L288.0127,121.984664 C288.0127,122.149664 287.9977,122.449664 287.9977,122.629664 Z M297.9527,131.314664 C300.3977,129.259664 301.7027,126.994664 301.7027,124.144664 C301.7027,121.309664 300.3977,119.029664 297.9527,116.974664 L297.4877,117.499664 C299.3477,119.209664 300.5627,121.504664 300.5627,124.144664 C300.5627,126.799664 299.3477,129.094664 297.4877,130.804664 L297.9527,131.314664 Z" id="(Bruto)(MM€)" fill="#FFFFFF"></path>
            <path d="M4.9686,223.749364 C8.4036,223.749364 10.7436,222.114364 10.7436,218.154364 C10.7436,214.269364 8.4486,212.649364 4.9686,212.649364 L1.8186,212.649364 L1.8186,223.749364 L4.9686,223.749364 Z M3.6786,214.389364 L5.1036,214.389364 C7.6836,214.389364 8.8686,215.589364 8.8686,218.184364 C8.8686,220.884364 7.6986,222.054364 5.1336,222.054364 L3.6786,222.054364 L3.6786,214.389364 Z M20.2186,223.749364 L20.2186,222.054364 L14.6236,222.054364 L14.6236,218.814364 L18.9436,218.814364 L18.6736,217.149364 L14.6236,217.149364 L14.6236,214.389364 L19.9186,214.389364 L19.9186,212.649364 L12.7486,212.649364 L12.7486,223.749364 L20.2186,223.749364 Z M23.9486,223.749364 L23.9486,219.534364 L25.9136,219.534364 C28.1936,219.534364 30.2336,218.784364 30.2336,216.054364 C30.2336,213.429364 28.3586,212.649364 25.9736,212.649364 L22.0886,212.649364 L22.0886,223.749364 L23.9486,223.749364 Z M23.9486,214.359364 L25.9886,214.359364 C27.6686,214.359364 28.4036,214.929364 28.4036,216.099364 C28.4036,217.344364 27.6536,217.899364 26.0036,217.899364 L23.9486,217.899364 L23.9486,214.359364 Z M35.5686,211.989364 L36.7836,211.989364 L38.9586,209.499364 L36.9636,209.499364 L35.5686,211.989364 Z M36.5136,223.959364 C39.1836,223.959364 41.5086,221.934364 41.5086,218.199364 C41.5086,214.464364 39.1836,212.439364 36.5136,212.439364 C33.8286,212.439364 31.5036,214.464364 31.5036,218.199364 C31.5036,221.934364 33.8286,223.959364 36.5136,223.959364 Z M36.5136,222.279364 C34.6386,222.279364 33.3786,220.719364 33.3786,218.199364 C33.3786,215.679364 34.6386,214.164364 36.5136,214.164364 C38.3886,214.164364 39.6486,215.679364 39.6486,218.199364 C39.6486,220.719364 38.3886,222.279364 36.5136,222.279364 Z M47.3386,223.959364 C49.9786,223.959364 51.4486,222.534364 51.4486,220.734364 C51.4486,218.634364 49.7686,217.959364 47.6686,217.344364 C45.8536,216.804364 45.0586,216.444364 45.0586,215.409364 C45.0586,214.689364 45.7786,214.134364 47.0386,214.134364 C48.2086,214.134364 49.3786,214.749364 50.2636,215.529364 L51.1486,214.029364 C50.0986,213.159364 48.7036,212.439364 47.0086,212.439364 C44.7886,212.439364 43.2286,213.684364 43.2286,215.559364 C43.2286,217.674364 44.9386,218.244364 47.0836,218.874364 C48.9136,219.429364 49.6186,219.879364 49.6186,220.854364 C49.6186,221.814364 48.6736,222.294364 47.2786,222.294364 C45.9136,222.294364 44.5186,221.529364 43.6636,220.644364 L42.6586,222.069364 C43.7836,223.134364 45.3436,223.959364 47.3386,223.959364 Z M55.5086,223.749364 L55.5086,212.649364 L53.6486,212.649364 L53.6486,223.749364 L55.5086,223.749364 Z M62.6286,223.749364 L62.6286,214.389364 L66.1836,214.389364 L65.9136,212.649364 L57.3336,212.649364 L57.3336,214.389364 L60.7536,214.389364 L60.7536,223.749364 L62.6286,223.749364 Z M71.6836,223.959364 C74.3536,223.959364 76.6786,221.934364 76.6786,218.199364 C76.6786,214.464364 74.3536,212.439364 71.6836,212.439364 C68.9986,212.439364 66.6736,214.464364 66.6736,218.199364 C66.6736,221.934364 68.9986,223.959364 71.6836,223.959364 Z M71.6836,222.279364 C69.8086,222.279364 68.5486,220.719364 68.5486,218.199364 C68.5486,215.679364 69.8086,214.164364 71.6836,214.164364 C73.5586,214.164364 74.8186,215.679364 74.8186,218.199364 C74.8186,220.719364 73.5586,222.279364 71.6836,222.279364 Z M82.5086,223.959364 C85.1486,223.959364 86.6186,222.534364 86.6186,220.734364 C86.6186,218.634364 84.9386,217.959364 82.8386,217.344364 C81.0236,216.804364 80.2286,216.444364 80.2286,215.409364 C80.2286,214.689364 80.9486,214.134364 82.2086,214.134364 C83.3786,214.134364 84.5486,214.749364 85.4336,215.529364 L86.3186,214.029364 C85.2686,213.159364 83.8736,212.439364 82.1786,212.439364 C79.9586,212.439364 78.3986,213.684364 78.3986,215.559364 C78.3986,217.674364 80.1086,218.244364 82.2536,218.874364 C84.0836,219.429364 84.7886,219.879364 84.7886,220.854364 C84.7886,221.814364 83.8436,222.294364 82.4486,222.294364 C81.0836,222.294364 79.6886,221.529364 78.8336,220.644364 L77.8286,222.069364 C78.9536,223.134364 80.5136,223.959364 82.5086,223.959364 Z M95.6236,223.749364 C99.0586,223.749364 101.3986,222.114364 101.3986,218.154364 C101.3986,214.269364 99.1036,212.649364 95.6236,212.649364 L92.4736,212.649364 L92.4736,223.749364 L95.6236,223.749364 Z M94.3336,214.389364 L95.7586,214.389364 C98.3386,214.389364 99.5236,215.589364 99.5236,218.184364 C99.5236,220.884364 98.3536,222.054364 95.7886,222.054364 L94.3336,222.054364 L94.3336,214.389364 Z M110.8736,223.749364 L110.8736,222.054364 L105.2786,222.054364 L105.2786,218.814364 L109.5986,218.814364 L109.3286,217.149364 L105.2786,217.149364 L105.2786,214.389364 L110.5736,214.389364 L110.5736,212.649364 L103.4036,212.649364 L103.4036,223.749364 L110.8736,223.749364 Z M123.6586,223.749364 L123.3736,222.054364 L118.4086,222.054364 L118.4086,212.649364 L116.5336,212.649364 L116.5336,223.749364 L123.6586,223.749364 Z M126.0686,223.749364 L126.9986,221.109364 L131.2136,221.109364 L132.1586,223.899364 L133.9736,223.599364 L130.0886,212.604364 L128.2586,212.604364 L124.3286,223.749364 L126.0686,223.749364 Z M129.1136,214.959364 L129.1436,214.959364 L130.6736,219.459364 L127.5536,219.459364 L129.1136,214.959364 Z M143.3986,223.959364 C145.7236,223.959364 147.0736,222.774364 147.7336,220.944364 L146.1136,220.209364 C145.6786,221.454364 144.7786,222.279364 143.3986,222.279364 C141.4636,222.279364 140.3536,220.719364 140.3536,218.154364 C140.3536,215.724364 141.4036,214.164364 143.2936,214.164364 C144.6286,214.164364 145.4386,214.914364 145.8736,215.949364 L147.4636,215.004364 C146.6986,213.354364 145.3936,212.439364 143.2936,212.439364 C140.5636,212.439364 138.4786,214.524364 138.4786,218.169364 C138.4786,221.919364 140.5336,223.959364 143.3986,223.959364 Z M156.8186,223.749364 L156.5336,222.054364 L151.5686,222.054364 L151.5686,212.649364 L149.6936,212.649364 L149.6936,223.749364 L156.8186,223.749364 Z M160.3686,223.749364 L160.3686,212.649364 L158.5086,212.649364 L158.5086,223.749364 L160.3686,223.749364 Z M170.5186,223.749364 L170.5186,222.054364 L164.9236,222.054364 L164.9236,218.814364 L169.2436,218.814364 L168.9736,217.149364 L164.9236,217.149364 L164.9236,214.389364 L170.2186,214.389364 L170.2186,212.649364 L163.0486,212.649364 L163.0486,223.749364 L170.5186,223.749364 Z M174.1136,223.749364 L174.1136,215.664364 L174.1436,215.664364 L179.6036,223.749364 L181.3136,223.749364 L181.3136,212.649364 L179.5736,212.649364 L179.5736,220.584364 L179.5436,220.584364 L174.2936,212.649364 L172.3886,212.649364 L172.3886,223.749364 L174.1136,223.749364 Z M188.2986,223.749364 L188.2986,214.389364 L191.8536,214.389364 L191.5836,212.649364 L183.0036,212.649364 L183.0036,214.389364 L186.4236,214.389364 L186.4236,223.749364 L188.2986,223.749364 Z M200.8786,223.749364 L200.8786,222.054364 L195.2836,222.054364 L195.2836,218.814364 L199.6036,218.814364 L199.3336,217.149364 L195.2836,217.149364 L195.2836,214.389364 L200.5786,214.389364 L200.5786,212.649364 L193.4086,212.649364 L193.4086,223.749364 L200.8786,223.749364 Z M209.8736,223.749364 L209.5886,222.054364 L204.6236,222.054364 L204.6236,212.649364 L202.7486,212.649364 L202.7486,223.749364 L209.8736,223.749364 Z M212.2836,223.749364 L213.2136,221.109364 L217.4286,221.109364 L218.3736,223.899364 L220.1886,223.599364 L216.3036,212.604364 L214.4736,212.604364 L210.5436,223.749364 L212.2836,223.749364 Z M215.3286,214.959364 L215.3586,214.959364 L216.8886,219.459364 L213.7686,219.459364 L215.3286,214.959364 Z" id="DEPÓSITOS-DE-LA-CLIENTELA-" fill="#FFFFFF"></path>
            <path d="M229.9559,225.314364 C228.0809,223.604364 226.8809,221.309364 226.8809,218.654364 C226.8809,216.014364 228.0809,213.719364 229.9409,212.009364 L229.4759,211.484364 C227.0309,213.539364 225.7409,215.819364 225.7409,218.654364 C225.7409,221.504364 227.0309,223.769364 229.4759,225.824364 L229.9559,225.314364 Z M233.1909,222.749364 L233.1909,213.419364 L233.2209,213.419364 C233.4609,214.214364 233.6409,214.679364 233.9109,215.384364 L236.7909,222.749364 L237.7659,222.749364 L240.6459,215.384364 C240.9159,214.679364 241.1859,213.944364 241.3359,213.434364 L241.3659,213.434364 L241.3659,222.749364 L242.4309,222.749364 L242.4309,211.649364 L241.0359,211.649364 L237.3309,221.369364 L237.3009,221.369364 L233.5809,211.649364 L232.2009,211.649364 L232.2009,222.749364 L233.1909,222.749364 Z M246.2809,222.749364 L246.2809,213.419364 L246.3109,213.419364 C246.5509,214.214364 246.7309,214.679364 247.0009,215.384364 L249.8809,222.749364 L250.8559,222.749364 L253.7359,215.384364 C254.0059,214.679364 254.2759,213.944364 254.4259,213.434364 L254.4559,213.434364 L254.4559,222.749364 L255.5209,222.749364 L255.5209,211.649364 L254.1259,211.649364 L250.4209,221.369364 L250.3909,221.369364 L246.6709,211.649364 L245.2909,211.649364 L245.2909,222.749364 L246.2809,222.749364 Z M259.0559,217.139364 C259.0559,217.409364 259.0709,217.679364 259.0859,217.919364 L257.2709,217.919364 L257.2709,218.774364 L259.1759,218.774364 C259.6109,221.624364 261.1859,222.959364 263.2109,222.959364 C265.1909,222.959364 266.3459,221.669364 266.8859,219.854364 L265.9409,219.479364 C265.4909,221.129364 264.7409,222.029364 263.2259,222.029364 C261.6209,222.029364 260.5409,220.919364 260.2109,218.774364 L263.6009,218.774364 L263.6009,217.919364 L260.1209,217.919364 C260.1059,217.664364 260.0909,217.379364 260.0909,217.079364 C260.0909,216.929364 260.0909,216.659364 260.1059,216.494364 L263.6009,216.494364 L263.6009,215.669364 L260.1959,215.669364 C260.5259,213.404364 261.7559,212.384364 263.1959,212.384364 C264.7559,212.384364 265.3259,213.284364 265.7759,214.799364 L266.7359,214.439364 C266.2259,212.699364 265.2209,211.439364 263.2109,211.439364 C261.3359,211.439364 259.5959,212.744364 259.1609,215.669364 L257.2709,215.669364 L257.2709,216.494364 L259.0709,216.494364 C259.0709,216.659364 259.0559,216.959364 259.0559,217.139364 Z M269.0109,225.824364 C271.4559,223.769364 272.7609,221.504364 272.7609,218.654364 C272.7609,215.819364 271.4559,213.539364 269.0109,211.484364 L268.5459,212.009364 C270.4059,213.719364 271.6209,216.014364 271.6209,218.654364 C271.6209,221.309364 270.4059,223.604364 268.5459,225.314364 L269.0109,225.824364 Z" id="(MM€)" fill="#FFFFFF"></path>
            <path d="M4.1259,412.584364 L4.1259,408.369364 L6.0909,408.369364 C8.3709,408.369364 10.4109,407.619364 10.4109,404.889364 C10.4109,402.264364 8.5359,401.484364 6.1509,401.484364 L2.2659,401.484364 L2.2659,412.584364 L4.1259,412.584364 Z M4.1259,403.194364 L6.1659,403.194364 C7.8459,403.194364 8.5809,403.764364 8.5809,404.934364 C8.5809,406.179364 7.8309,406.734364 6.1809,406.734364 L4.1259,406.734364 L4.1259,403.194364 Z M11.8759,412.584364 L12.8059,409.944364 L17.0209,409.944364 L17.9659,412.734364 L19.7809,412.434364 L15.8959,401.439364 L14.0659,401.439364 L10.1359,412.584364 L11.8759,412.584364 Z M14.9209,403.794364 L14.9509,403.794364 L16.4809,408.294364 L13.3609,408.294364 L14.9209,403.794364 Z M24.5759,412.584364 L24.5759,403.224364 L28.1309,403.224364 L27.8609,401.484364 L19.2809,401.484364 L19.2809,403.224364 L22.7009,403.224364 L22.7009,412.584364 L24.5759,412.584364 Z M31.5309,412.584364 L31.5309,408.204364 L33.4959,408.204364 L36.1809,412.734364 L38.0109,412.434364 L35.3709,407.964364 C36.9009,407.574364 37.8159,406.659364 37.8159,404.889364 C37.8159,402.534364 36.2859,401.484364 33.6609,401.484364 L29.6859,401.484364 L29.6859,412.584364 L31.5309,412.584364 Z M31.5309,403.194364 L33.5709,403.194364 C35.1609,403.194364 35.9859,403.629364 35.9859,404.859364 C35.9859,406.119364 35.1609,406.569364 33.5709,406.569364 L31.5309,406.569364 L31.5309,403.194364 Z M42.0709,412.584364 L42.0709,401.484364 L40.2109,401.484364 L40.2109,412.584364 L42.0709,412.584364 Z M46.4459,412.584364 L46.4459,404.214364 L46.4759,404.214364 C46.7159,405.294364 46.8809,405.759364 47.1359,406.554364 L49.2959,412.584364 L50.9609,412.584364 L53.1359,406.554364 C53.3759,405.774364 53.6159,405.069364 53.7809,404.289364 L53.8109,404.289364 L53.8109,412.584364 L55.6259,412.584364 L55.6259,401.484364 L53.1209,401.484364 L50.2259,410.289364 L50.1959,410.289364 L47.2109,401.484364 L44.7509,401.484364 L44.7509,412.584364 L46.4459,412.584364 Z M62.6409,412.794364 C65.3109,412.794364 67.6359,410.769364 67.6359,407.034364 C67.6359,403.299364 65.3109,401.274364 62.6409,401.274364 C59.9559,401.274364 57.6309,403.299364 57.6309,407.034364 C57.6309,410.769364 59.9559,412.794364 62.6409,412.794364 Z M62.6409,411.114364 C60.7659,411.114364 59.5059,409.554364 59.5059,407.034364 C59.5059,404.514364 60.7659,402.999364 62.6409,402.999364 C64.5159,402.999364 65.7759,404.514364 65.7759,407.034364 C65.7759,409.554364 64.5159,411.114364 62.6409,411.114364 Z M71.3809,412.584364 L71.3809,404.499364 L71.4109,404.499364 L76.8709,412.584364 L78.5809,412.584364 L78.5809,401.484364 L76.8409,401.484364 L76.8409,409.419364 L76.8109,409.419364 L71.5609,401.484364 L69.6559,401.484364 L69.6559,412.584364 L71.3809,412.584364 Z M83.1209,412.584364 L83.1209,401.484364 L81.2609,401.484364 L81.2609,412.584364 L83.1209,412.584364 Z M90.2709,412.794364 C92.9409,412.794364 95.2659,410.769364 95.2659,407.034364 C95.2659,403.299364 92.9409,401.274364 90.2709,401.274364 C87.5859,401.274364 85.2609,403.299364 85.2609,407.034364 C85.2609,410.769364 87.5859,412.794364 90.2709,412.794364 Z M90.2709,411.114364 C88.3959,411.114364 87.1359,409.554364 87.1359,407.034364 C87.1359,404.514364 88.3959,402.999364 90.2709,402.999364 C92.1459,402.999364 93.4059,404.514364 93.4059,407.034364 C93.4059,409.554364 92.1459,411.114364 90.2709,411.114364 Z M102.8009,412.584364 L102.8009,404.499364 L102.8309,404.499364 L108.2909,412.584364 L110.0009,412.584364 L110.0009,401.484364 L108.2609,401.484364 L108.2609,409.419364 L108.2309,409.419364 L102.9809,401.484364 L101.0759,401.484364 L101.0759,412.584364 L102.8009,412.584364 Z M120.0159,412.584364 L120.0159,410.889364 L114.4209,410.889364 L114.4209,407.649364 L118.7409,407.649364 L118.4709,405.984364 L114.4209,405.984364 L114.4209,403.224364 L119.7159,403.224364 L119.7159,401.484364 L112.5459,401.484364 L112.5459,412.584364 L120.0159,412.584364 Z M126.3259,412.584364 L126.3259,403.224364 L129.8809,403.224364 L129.6109,401.484364 L121.0309,401.484364 L121.0309,403.224364 L124.4509,403.224364 L124.4509,412.584364 L126.3259,412.584364 Z M135.3809,412.794364 C138.0509,412.794364 140.3759,410.769364 140.3759,407.034364 C140.3759,403.299364 138.0509,401.274364 135.3809,401.274364 C132.6959,401.274364 130.3709,403.299364 130.3709,407.034364 C130.3709,410.769364 132.6959,412.794364 135.3809,412.794364 Z M135.3809,411.114364 C133.5059,411.114364 132.2459,409.554364 132.2459,407.034364 C132.2459,404.514364 133.5059,402.999364 135.3809,402.999364 C137.2559,402.999364 138.5159,404.514364 138.5159,407.034364 C138.5159,409.554364 137.2559,411.114364 135.3809,411.114364 Z M150.0859,415.149364 C148.2109,413.439364 147.0109,411.144364 147.0109,408.489364 C147.0109,405.849364 148.2109,403.554364 150.0709,401.844364 L149.6059,401.319364 C147.1609,403.374364 145.8709,405.654364 145.8709,408.489364 C145.8709,411.339364 147.1609,413.604364 149.6059,415.659364 L150.0859,415.149364 Z M153.3209,412.584364 L153.3209,403.254364 L153.3509,403.254364 C153.5909,404.049364 153.7709,404.514364 154.0409,405.219364 L156.9209,412.584364 L157.8959,412.584364 L160.7759,405.219364 C161.0459,404.514364 161.3159,403.779364 161.4659,403.269364 L161.4959,403.269364 L161.4959,412.584364 L162.5609,412.584364 L162.5609,401.484364 L161.1659,401.484364 L157.4609,411.204364 L157.4309,411.204364 L153.7109,401.484364 L152.3309,401.484364 L152.3309,412.584364 L153.3209,412.584364 Z M166.4109,412.584364 L166.4109,403.254364 L166.4409,403.254364 C166.6809,404.049364 166.8609,404.514364 167.1309,405.219364 L170.0109,412.584364 L170.9859,412.584364 L173.8659,405.219364 C174.1359,404.514364 174.4059,403.779364 174.5559,403.269364 L174.5859,403.269364 L174.5859,412.584364 L175.6509,412.584364 L175.6509,401.484364 L174.2559,401.484364 L170.5509,411.204364 L170.5209,411.204364 L166.8009,401.484364 L165.4209,401.484364 L165.4209,412.584364 L166.4109,412.584364 Z M179.1859,406.974364 C179.1859,407.244364 179.2009,407.514364 179.2159,407.754364 L177.4009,407.754364 L177.4009,408.609364 L179.3059,408.609364 C179.7409,411.459364 181.3159,412.794364 183.3409,412.794364 C185.3209,412.794364 186.4759,411.504364 187.0159,409.689364 L186.0709,409.314364 C185.6209,410.964364 184.8709,411.864364 183.3559,411.864364 C181.7509,411.864364 180.6709,410.754364 180.3409,408.609364 L183.7309,408.609364 L183.7309,407.754364 L180.2509,407.754364 C180.2359,407.499364 180.2209,407.214364 180.2209,406.914364 C180.2209,406.764364 180.2209,406.494364 180.2359,406.329364 L183.7309,406.329364 L183.7309,405.504364 L180.3259,405.504364 C180.6559,403.239364 181.8859,402.219364 183.3259,402.219364 C184.8859,402.219364 185.4559,403.119364 185.9059,404.634364 L186.8659,404.274364 C186.3559,402.534364 185.3509,401.274364 183.3409,401.274364 C181.4659,401.274364 179.7259,402.579364 179.2909,405.504364 L177.4009,405.504364 L177.4009,406.329364 L179.2009,406.329364 C179.2009,406.494364 179.1859,406.794364 179.1859,406.974364 Z M189.1409,415.659364 C191.5859,413.604364 192.8909,411.339364 192.8909,408.489364 C192.8909,405.654364 191.5859,403.374364 189.1409,401.319364 L188.6759,401.844364 C190.5359,403.554364 191.7509,405.849364 191.7509,408.489364 C191.7509,411.144364 190.5359,413.439364 188.6759,415.149364 L189.1409,415.659364 Z" id="PATRIMONIO-NETO-(MM€)" fill="#FFFFFF"></path>
            <path d="M650.0659,83.7843635 L654.7759,73.5693635 L654.7759,72.6543635 L647.9209,72.6543635 L647.9959,73.6293635 L653.6659,73.6293635 L649.0009,83.7243635 L650.0659,83.7843635 Z M659.2829,83.9643635 C661.6379,83.9643635 663.0929,82.2993635 663.0929,80.0793635 C663.0929,77.8593635 661.6679,76.4493635 659.6579,76.4493635 C658.4729,76.4493635 657.7379,76.8543635 657.1979,77.4843635 L657.4979,73.6293635 L662.4629,73.6293635 L662.4329,72.6543635 L656.6129,72.6543635 L656.1779,78.4593635 L656.9729,78.7593635 C657.5729,77.8893635 658.3679,77.3643635 659.5079,77.3643635 C660.9779,77.3643635 662.0429,78.3543635 662.0429,80.1243635 C662.0429,81.5943635 661.1879,83.0193635 659.2679,83.0193635 C657.9329,83.0193635 657.0029,82.3143635 656.3429,81.3093635 L655.6529,81.9843635 C656.3879,83.1543635 657.6779,83.9643635 659.2829,83.9643635 Z M668.6649,83.9643635 C671.2749,83.9643635 672.7149,81.6693635 672.7149,78.2043635 C672.7149,74.7393635 671.2749,72.4443635 668.6649,72.4443635 C666.0549,72.4443635 664.5849,74.7393635 664.5849,78.2043635 C664.5849,81.6693635 666.0549,83.9643635 668.6649,83.9643635 Z M668.6649,83.0193635 C666.8349,83.0193635 665.6499,81.3393635 665.6499,78.2043635 C665.6499,75.0693635 666.7749,73.3893635 668.6649,73.3893635 C670.4799,73.3893635 671.6649,75.0693635 671.6649,78.2043635 C671.6649,81.3393635 670.5399,83.0193635 668.6649,83.0193635 Z" id="750" fill="#FFFFFF"></path>
            <path d="M637.2009,63.4543635 L641.9109,53.2393635 L641.9109,52.3243635 L635.0559,52.3243635 L635.1309,53.2993635 L640.8009,53.2993635 L636.1359,63.3943635 L637.2009,63.4543635 Z M646.4629,63.6343635 C648.7429,63.6343635 650.1679,62.2543635 650.1679,60.4393635 C650.1679,58.8043635 649.3579,57.8443635 647.6929,57.5143635 C649.0579,57.2893635 649.9129,56.3143635 649.9129,54.8893635 C649.9129,53.4493635 648.9229,52.1143635 646.5829,52.1143635 C645.0979,52.1143635 643.9579,52.8343635 643.1629,53.7793635 L643.8679,54.4543635 C644.5429,53.6143635 645.3829,53.0593635 646.5229,53.0593635 C648.2029,53.0593635 648.8779,53.9143635 648.8779,54.9943635 C648.8779,56.3593635 647.9929,57.0793635 645.6379,57.0793635 L645.0979,57.0793635 L645.1579,57.9943635 L645.5479,57.9943635 C648.1729,57.9943635 649.1179,58.8193635 649.1179,60.4393635 C649.1179,61.7743635 648.1279,62.6893635 646.4629,62.6893635 C645.2479,62.6893635 644.2129,62.1793635 643.4029,60.9493635 L642.6679,61.5793635 C643.4929,62.8843635 644.8429,63.6343635 646.4629,63.6343635 Z M658.9649,63.4243635 L658.8899,62.4643635 L652.9499,62.4643635 C652.9949,61.4743635 654.0149,60.2593635 656.0099,58.9843635 C658.1399,57.6343635 658.8749,56.6743635 658.8749,55.1593635 C658.8749,53.3743635 657.6299,52.1143635 655.6049,52.1143635 C653.9999,52.1143635 652.7549,52.9543635 652.0049,54.4843635 L652.7999,55.0093635 C653.4449,53.6893635 654.3299,53.0593635 655.5599,53.0593635 C657.0599,53.0593635 657.8399,53.9443635 657.8399,55.2193635 C657.8399,56.4193635 657.1649,57.1843635 655.4999,58.2343635 C652.5749,60.1093635 651.7799,61.5793635 651.7799,63.1843635 L651.7799,63.4243635 L658.9649,63.4243635 Z" id="732" fill="#FFFFFF"></path>
            <path d="M387.0159,156.934364 L387.0159,154.249364 L388.9059,154.249364 L388.8609,153.304364 L387.0159,153.304364 L387.0159,145.834364 L385.6959,145.834364 L380.6409,153.454364 L380.6409,154.249364 L385.9809,154.249364 L385.9809,156.934364 L387.0159,156.934364 Z M385.9509,147.079364 L385.9809,147.079364 L385.9809,153.304364 L381.8409,153.304364 L385.9509,147.079364 Z M393.4879,157.144364 C395.7679,157.144364 397.1929,155.764364 397.1929,153.949364 C397.1929,152.314364 396.3829,151.354364 394.7179,151.024364 C396.0829,150.799364 396.9379,149.824364 396.9379,148.399364 C396.9379,146.959364 395.9479,145.624364 393.6079,145.624364 C392.1229,145.624364 390.9829,146.344364 390.1879,147.289364 L390.8929,147.964364 C391.5679,147.124364 392.4079,146.569364 393.5479,146.569364 C395.2279,146.569364 395.9029,147.424364 395.9029,148.504364 C395.9029,149.869364 395.0179,150.589364 392.6629,150.589364 L392.1229,150.589364 L392.1829,151.504364 L392.5729,151.504364 C395.1979,151.504364 396.1429,152.329364 396.1429,153.949364 C396.1429,155.284364 395.1529,156.199364 393.4879,156.199364 C392.2729,156.199364 391.2379,155.689364 390.4279,154.459364 L389.6929,155.089364 C390.5179,156.394364 391.8679,157.144364 393.4879,157.144364 Z M402.9899,157.144364 C405.5999,157.144364 407.0399,154.849364 407.0399,151.384364 C407.0399,147.919364 405.5999,145.624364 402.9899,145.624364 C400.3799,145.624364 398.9099,147.919364 398.9099,151.384364 C398.9099,154.849364 400.3799,157.144364 402.9899,157.144364 Z M402.9899,156.199364 C401.1599,156.199364 399.9749,154.519364 399.9749,151.384364 C399.9749,148.249364 401.0999,146.569364 402.9899,146.569364 C404.8049,146.569364 405.9899,148.249364 405.9899,151.384364 C405.9899,154.519364 404.8649,156.199364 402.9899,156.199364 Z" id="430" fill="#FFFFFF"></path>
            <path d="M367.2759,255.559364 L367.2759,252.874364 L369.1659,252.874364 L369.1209,251.929364 L367.2759,251.929364 L367.2759,244.459364 L365.9559,244.459364 L360.9009,252.079364 L360.9009,252.874364 L366.2409,252.874364 L366.2409,255.559364 L367.2759,255.559364 Z M366.2109,245.704364 L366.2409,245.704364 L366.2409,251.929364 L362.1009,251.929364 L366.2109,245.704364 Z M374.3929,255.769364 C377.0029,255.769364 378.4429,253.474364 378.4429,250.009364 C378.4429,246.544364 377.0029,244.249364 374.3929,244.249364 C371.7829,244.249364 370.3129,246.544364 370.3129,250.009364 C370.3129,253.474364 371.7829,255.769364 374.3929,255.769364 Z M374.3929,254.824364 C372.5629,254.824364 371.3779,253.144364 371.3779,250.009364 C371.3779,246.874364 372.5029,245.194364 374.3929,245.194364 C376.2079,245.194364 377.3929,246.874364 377.3929,250.009364 C377.3929,253.144364 376.2679,254.824364 374.3929,254.824364 Z M383.5949,255.559364 L383.5949,244.459364 L382.6199,244.459364 L380.2949,245.284364 L380.4299,246.169364 L382.5599,245.449364 L382.5599,255.559364 L383.5949,255.559364 Z" id="401" fill="#FFFFFF"></path>
            <path d="M367.9509,276.274364 L367.9509,273.589364 L369.8409,273.589364 L369.7959,272.644364 L367.9509,272.644364 L367.9509,265.174364 L366.6309,265.174364 L361.5759,272.794364 L361.5759,273.589364 L366.9159,273.589364 L366.9159,276.274364 L367.9509,276.274364 Z M366.8859,266.419364 L366.9159,266.419364 L366.9159,272.644364 L362.7759,272.644364 L366.8859,266.419364 Z M375.0679,276.484364 C377.6779,276.484364 379.1179,274.189364 379.1179,270.724364 C379.1179,267.259364 377.6779,264.964364 375.0679,264.964364 C372.4579,264.964364 370.9879,267.259364 370.9879,270.724364 C370.9879,274.189364 372.4579,276.484364 375.0679,276.484364 Z M375.0679,275.539364 C373.2379,275.539364 372.0529,273.859364 372.0529,270.724364 C372.0529,267.589364 373.1779,265.909364 375.0679,265.909364 C376.8829,265.909364 378.0679,267.589364 378.0679,270.724364 C378.0679,273.859364 376.9429,275.539364 375.0679,275.539364 Z M384.0149,276.484364 C386.2949,276.484364 387.7199,275.104364 387.7199,273.289364 C387.7199,271.654364 386.9099,270.694364 385.2449,270.364364 C386.6099,270.139364 387.4649,269.164364 387.4649,267.739364 C387.4649,266.299364 386.4749,264.964364 384.1349,264.964364 C382.6499,264.964364 381.5099,265.684364 380.7149,266.629364 L381.4199,267.304364 C382.0949,266.464364 382.9349,265.909364 384.0749,265.909364 C385.7549,265.909364 386.4299,266.764364 386.4299,267.844364 C386.4299,269.209364 385.5449,269.929364 383.1899,269.929364 L382.6499,269.929364 L382.7099,270.844364 L383.0999,270.844364 C385.7249,270.844364 386.6699,271.669364 386.6699,273.289364 C386.6699,274.624364 385.6799,275.539364 384.0149,275.539364 C382.7999,275.539364 381.7649,275.029364 380.9549,273.799364 L380.2199,274.429364 C381.0449,275.734364 382.3949,276.484364 384.0149,276.484364 Z" id="403" fill="#FFFFFF"></path>
            <path d="M78.0409,446.889364 C80.3959,446.889364 81.8509,445.224364 81.8509,443.004364 C81.8509,440.784364 80.4259,439.374364 78.4159,439.374364 C77.2309,439.374364 76.4959,439.779364 75.9559,440.409364 L76.2559,436.554364 L81.2209,436.554364 L81.1909,435.579364 L75.3709,435.579364 L74.9359,441.384364 L75.7309,441.684364 C76.3309,440.814364 77.1259,440.289364 78.2659,440.289364 C79.7359,440.289364 80.8009,441.279364 80.8009,443.049364 C80.8009,444.519364 79.9459,445.944364 78.0259,445.944364 C76.6909,445.944364 75.7609,445.239364 75.1009,444.234364 L74.4109,444.909364 C75.1459,446.079364 76.4359,446.889364 78.0409,446.889364 Z M86.7629,446.889364 C89.1179,446.889364 90.5729,445.224364 90.5729,443.004364 C90.5729,440.784364 89.1479,439.374364 87.1379,439.374364 C85.9529,439.374364 85.2179,439.779364 84.6779,440.409364 L84.9779,436.554364 L89.9429,436.554364 L89.9129,435.579364 L84.0929,435.579364 L83.6579,441.384364 L84.4529,441.684364 C85.0529,440.814364 85.8479,440.289364 86.9879,440.289364 C88.4579,440.289364 89.5229,441.279364 89.5229,443.049364 C89.5229,444.519364 88.6679,445.944364 86.7479,445.944364 C85.4129,445.944364 84.4829,445.239364 83.8229,444.234364 L83.1329,444.909364 C83.8679,446.079364 85.1579,446.889364 86.7629,446.889364 Z" id="55" fill="#FFFFFF"></path>
            <path d="M78.0966,467.102964 C80.4516,467.102964 81.9066,465.437964 81.9066,463.217964 C81.9066,460.997964 80.4816,459.587964 78.4716,459.587964 C77.2866,459.587964 76.5516,459.992964 76.0116,460.622964 L76.3116,456.767964 L81.2766,456.767964 L81.2466,455.792964 L75.4266,455.792964 L74.9916,461.597964 L75.7866,461.897964 C76.3866,461.027964 77.1816,460.502964 78.3216,460.502964 C79.7916,460.502964 80.8566,461.492964 80.8566,463.262964 C80.8566,464.732964 80.0016,466.157964 78.0816,466.157964 C76.7466,466.157964 75.8166,465.452964 75.1566,464.447964 L74.4666,465.122964 C75.2016,466.292964 76.4916,467.102964 78.0966,467.102964 Z M86.8186,467.102964 C89.1736,467.102964 90.6286,465.437964 90.6286,463.217964 C90.6286,460.997964 89.2036,459.587964 87.1936,459.587964 C86.0086,459.587964 85.2736,459.992964 84.7336,460.622964 L85.0336,456.767964 L89.9986,456.767964 L89.9686,455.792964 L84.1486,455.792964 L83.7136,461.597964 L84.5086,461.897964 C85.1086,461.027964 85.9036,460.502964 87.0436,460.502964 C88.5136,460.502964 89.5786,461.492964 89.5786,463.262964 C89.5786,464.732964 88.7236,466.157964 86.8036,466.157964 C85.4686,466.157964 84.5386,465.452964 83.8786,464.447964 L83.1886,465.122964 C83.9236,466.292964 85.2136,467.102964 86.8186,467.102964 Z" id="55" fill="#FFFFFF"></path>
            <text id="433" font-family="BentonSansBBVA-Book, Benton Sans BBVA" font-size="15" font-weight="300" letter-spacing="-0.008" fill="#FFFFFF">
                <tspan x="383.9717" y="178.928564">433</tspan>
            </text>
            <polygon id="Fill-8" fill-opacity="0.2" fill="url(#linearGradient-1)" points="2.658 58.871 22.492 58.871 35.119 65.24 18.157 65.24"></polygon>
            <polygon id="Fill-10" fill-opacity="0.2" fill="url(#linearGradient-1)" points="2.658 78.732 22.492 78.732 35.119 85.102 18.157 85.102"></polygon>
            <polygon id="Fill-12" fill-opacity="0.2" fill="url(#linearGradient-1)" points="1.658 153.331 21.492 153.331 34.119 159.7 17.157 159.7"></polygon>
            <polygon id="Fill-14" fill-opacity="0.2" fill="url(#linearGradient-1)" points="1.658 173.192 21.492 173.192 34.119 179.562 17.157 179.562"></polygon>
            <polygon id="Fill-16" fill-opacity="0.2" fill="url(#linearGradient-1)" points="1.658 250.035 21.492 250.035 34.119 256.405 17.157 256.405"></polygon>
            <polygon id="Fill-18" fill-opacity="0.2" fill="url(#linearGradient-1)" points="1.658 270.896 21.492 270.896 34.119 277.266 17.157 277.266"></polygon>
            <polygon id="Fill-20" fill-opacity="0.2" fill="url(#linearGradient-1)" points="1.325 439.461 21.159 439.461 33.786 445.831 16.824 445.831"></polygon>
            <polygon id="Fill-22" fill-opacity="0.2" fill="url(#linearGradient-1)" points="1.325 459.323 21.159 459.323 33.786 465.692 16.824 465.692"></polygon>
            <polygon id="Fill-24" fill-opacity="0.2" fill="url(#linearGradient-1)" points="1.325 346.152 21.159 346.152 33.786 352.522 16.824 352.522"></polygon>
            <polygon id="Fill-26" fill-opacity="0.2" fill="url(#linearGradient-1)" points="1.325 366.014 21.159 366.014 33.786 372.384 16.824 372.384"></polygon>
            <polygon id="Fill-28" fill="#2ECDCD" points="623.8013 55.9804 619.1683 65.2464 18.1433 65.2464 22.7763 55.9804"></polygon>
            <polygon id="Fill-29" fill="#2A86CA" points="638.7678 75.8417 634.1348 85.1077 18.1588 85.1077 22.7918 75.8417"></polygon>
            <polygon id="Fill-30" fill="#2ECDCD" points="373.3982 150.3989 368.7652 159.6649 17.4812 159.6649 22.1142 150.3989"></polygon>
            <polygon id="Fill-31" fill="#2A86CA" points="376.2764 170.2455 371.6434 179.5115 17.4584 179.5115 22.0914 170.2455"></polygon>
            <polygon id="Fill-32" fill="#2ECDCD" points="349.2214 247.2465 344.5884 256.5125 17.4254 256.5125 22.0594 247.2465"></polygon>
            <polygon id="Fill-33" fill="#2A86CA" points="350.9482 268.0151 346.3152 277.2811 17.7142 277.2811 22.3472 268.0151"></polygon>
            <polygon id="Fill-34" fill="#2ECDCD" points="62.2764 436.7397 57.6434 446.0057 17.1124 446.0057 21.7454 436.7397"></polygon>
            <polygon id="Fill-35" fill="#2A86CA" points="62.0283 456.5781 57.3953 465.8441 17.2303 465.8441 21.8633 456.5781"></polygon>
            <path d="M6.7,319.511164 L6.7,310.151164 L10.255,310.151164 L9.985,308.411164 L1.405,308.411164 L1.405,310.151164 L4.825,310.151164 L4.825,319.511164 L6.7,319.511164 Z M15.755,319.721164 C18.425,319.721164 20.75,317.696164 20.75,313.961164 C20.75,310.226164 18.425,308.201164 15.755,308.201164 C13.07,308.201164 10.745,310.226164 10.745,313.961164 C10.745,317.696164 13.07,319.721164 15.755,319.721164 Z M15.755,318.041164 C13.88,318.041164 12.62,316.481164 12.62,313.961164 C12.62,311.441164 13.88,309.926164 15.755,309.926164 C17.63,309.926164 18.89,311.441164 18.89,313.961164 C18.89,316.481164 17.63,318.041164 15.755,318.041164 Z M26.685,319.511164 L26.685,310.151164 L30.24,310.151164 L29.97,308.411164 L21.39,308.411164 L21.39,310.151164 L24.81,310.151164 L24.81,319.511164 L26.685,319.511164 Z M31.3,319.511164 L32.23,316.871164 L36.445,316.871164 L37.39,319.661164 L39.205,319.361164 L35.32,308.366164 L33.49,308.366164 L29.56,319.511164 L31.3,319.511164 Z M34.345,310.721164 L34.375,310.721164 L35.905,315.221164 L32.785,315.221164 L34.345,310.721164 Z M48.035,319.511164 L47.75,317.816164 L42.785,317.816164 L42.785,308.411164 L40.91,308.411164 L40.91,319.511164 L48.035,319.511164 Z M54.625,319.511164 L54.625,315.131164 L56.59,315.131164 L59.275,319.661164 L61.105,319.361164 L58.465,314.891164 C59.995,314.501164 60.91,313.586164 60.91,311.816164 C60.91,309.461164 59.38,308.411164 56.755,308.411164 L52.78,308.411164 L52.78,319.511164 L54.625,319.511164 Z M54.625,310.121164 L56.665,310.121164 C58.255,310.121164 59.08,310.556164 59.08,311.786164 C59.08,313.046164 58.255,313.496164 56.665,313.496164 L54.625,313.496164 L54.625,310.121164 Z M70.64,319.511164 L70.64,317.816164 L65.045,317.816164 L65.045,314.576164 L69.365,314.576164 L69.095,312.911164 L65.045,312.911164 L65.045,310.151164 L70.34,310.151164 L70.34,308.411164 L63.17,308.411164 L63.17,319.511164 L70.64,319.511164 Z M76.44,319.721164 C78.765,319.721164 80.115,318.536164 80.775,316.706164 L79.155,315.971164 C78.72,317.216164 77.82,318.041164 76.44,318.041164 C74.505,318.041164 73.395,316.481164 73.395,313.916164 C73.395,311.486164 74.445,309.926164 76.335,309.926164 C77.67,309.926164 78.48,310.676164 78.915,311.711164 L80.505,310.766164 C79.74,309.116164 78.435,308.201164 76.335,308.201164 C73.605,308.201164 71.52,310.286164 71.52,313.931164 C71.52,317.681164 73.575,319.721164 76.44,319.721164 Z M86.74,319.706164 C89.665,319.706164 91.03,317.966164 91.03,315.446164 L91.03,308.411164 L89.185,308.411164 L89.185,315.386164 C89.185,316.991164 88.45,317.996164 86.755,317.996164 C85.045,317.996164 84.31,316.961164 84.31,315.371164 L84.31,308.411164 L82.435,308.411164 L82.435,315.476164 C82.435,317.966164 83.8,319.706164 86.74,319.706164 Z M95.27,319.511164 L95.27,315.131164 L97.235,315.131164 L99.92,319.661164 L101.75,319.361164 L99.11,314.891164 C100.64,314.501164 101.555,313.586164 101.555,311.816164 C101.555,309.461164 100.025,308.411164 97.4,308.411164 L93.425,308.411164 L93.425,319.511164 L95.27,319.511164 Z M95.27,310.121164 L97.31,310.121164 C98.9,310.121164 99.725,310.556164 99.725,311.786164 C99.725,313.046164 98.9,313.496164 97.31,313.496164 L95.27,313.496164 L95.27,310.121164 Z M107.625,319.721164 C110.265,319.721164 111.735,318.296164 111.735,316.496164 C111.735,314.396164 110.055,313.721164 107.955,313.106164 C106.14,312.566164 105.345,312.206164 105.345,311.171164 C105.345,310.451164 106.065,309.896164 107.325,309.896164 C108.495,309.896164 109.665,310.511164 110.55,311.291164 L111.435,309.791164 C110.385,308.921164 108.99,308.201164 107.295,308.201164 C105.075,308.201164 103.515,309.446164 103.515,311.321164 C103.515,313.436164 105.225,314.006164 107.37,314.636164 C109.2,315.191164 109.905,315.641164 109.905,316.616164 C109.905,317.576164 108.96,318.056164 107.565,318.056164 C106.2,318.056164 104.805,317.291164 103.95,316.406164 L102.945,317.831164 C104.07,318.896164 105.63,319.721164 107.625,319.721164 Z M118.12,319.721164 C120.79,319.721164 123.115,317.696164 123.115,313.961164 C123.115,310.226164 120.79,308.201164 118.12,308.201164 C115.435,308.201164 113.11,310.226164 113.11,313.961164 C113.11,317.696164 115.435,319.721164 118.12,319.721164 Z M118.12,318.041164 C116.245,318.041164 114.985,316.481164 114.985,313.961164 C114.985,311.441164 116.245,309.926164 118.12,309.926164 C119.995,309.926164 121.255,311.441164 121.255,313.961164 C121.255,316.481164 119.995,318.041164 118.12,318.041164 Z M128.945,319.721164 C131.585,319.721164 133.055,318.296164 133.055,316.496164 C133.055,314.396164 131.375,313.721164 129.275,313.106164 C127.46,312.566164 126.665,312.206164 126.665,311.171164 C126.665,310.451164 127.385,309.896164 128.645,309.896164 C129.815,309.896164 130.985,310.511164 131.87,311.291164 L132.755,309.791164 C131.705,308.921164 130.31,308.201164 128.615,308.201164 C126.395,308.201164 124.835,309.446164 124.835,311.321164 C124.835,313.436164 126.545,314.006164 128.69,314.636164 C130.52,315.191164 131.225,315.641164 131.225,316.616164 C131.225,317.576164 130.28,318.056164 128.885,318.056164 C127.52,318.056164 126.125,317.291164 125.27,316.406164 L124.265,317.831164 C125.39,318.896164 126.95,319.721164 128.945,319.721164 Z M142.06,319.511164 C145.495,319.511164 147.835,317.876164 147.835,313.916164 C147.835,310.031164 145.54,308.411164 142.06,308.411164 L138.91,308.411164 L138.91,319.511164 L142.06,319.511164 Z M140.77,310.151164 L142.195,310.151164 C144.775,310.151164 145.96,311.351164 145.96,313.946164 C145.96,316.646164 144.79,317.816164 142.225,317.816164 L140.77,317.816164 L140.77,310.151164 Z M157.31,319.511164 L157.31,317.816164 L151.715,317.816164 L151.715,314.576164 L156.035,314.576164 L155.765,312.911164 L151.715,312.911164 L151.715,310.151164 L157.01,310.151164 L157.01,308.411164 L149.84,308.411164 L149.84,319.511164 L157.31,319.511164 Z M167.35,319.721164 C169.675,319.721164 171.025,318.536164 171.685,316.706164 L170.065,315.971164 C169.63,317.216164 168.73,318.041164 167.35,318.041164 C165.415,318.041164 164.305,316.481164 164.305,313.916164 C164.305,311.486164 165.355,309.926164 167.245,309.926164 C168.58,309.926164 169.39,310.676164 169.825,311.711164 L171.415,310.766164 C170.65,309.116164 169.345,308.201164 167.245,308.201164 C164.515,308.201164 162.43,310.286164 162.43,313.931164 C162.43,317.681164 164.485,319.721164 167.35,319.721164 Z M180.77,319.511164 L180.485,317.816164 L175.52,317.816164 L175.52,308.411164 L173.645,308.411164 L173.645,319.511164 L180.77,319.511164 Z M184.32,319.511164 L184.32,308.411164 L182.46,308.411164 L182.46,319.511164 L184.32,319.511164 Z M194.47,319.511164 L194.47,317.816164 L188.875,317.816164 L188.875,314.576164 L193.195,314.576164 L192.925,312.911164 L188.875,312.911164 L188.875,310.151164 L194.17,310.151164 L194.17,308.411164 L187,308.411164 L187,319.511164 L194.47,319.511164 Z M198.065,319.511164 L198.065,311.426164 L198.095,311.426164 L203.555,319.511164 L205.265,319.511164 L205.265,308.411164 L203.525,308.411164 L203.525,316.346164 L203.495,316.346164 L198.245,308.411164 L196.34,308.411164 L196.34,319.511164 L198.065,319.511164 Z M212.25,319.511164 L212.25,310.151164 L215.805,310.151164 L215.535,308.411164 L206.955,308.411164 L206.955,310.151164 L210.375,310.151164 L210.375,319.511164 L212.25,319.511164 Z M224.83,319.511164 L224.83,317.816164 L219.235,317.816164 L219.235,314.576164 L223.555,314.576164 L223.285,312.911164 L219.235,312.911164 L219.235,310.151164 L224.53,310.151164 L224.53,308.411164 L217.36,308.411164 L217.36,319.511164 L224.83,319.511164 Z M230.435,319.721164 C233.075,319.721164 234.545,318.296164 234.545,316.496164 C234.545,314.396164 232.865,313.721164 230.765,313.106164 C228.95,312.566164 228.155,312.206164 228.155,311.171164 C228.155,310.451164 228.875,309.896164 230.135,309.896164 C231.305,309.896164 232.475,310.511164 233.36,311.291164 L234.245,309.791164 C233.195,308.921164 231.8,308.201164 230.105,308.201164 C227.885,308.201164 226.325,309.446164 226.325,311.321164 C226.325,313.436164 228.035,314.006164 230.18,314.636164 C232.01,315.191164 232.715,315.641164 232.715,316.616164 C232.715,317.576164 231.77,318.056164 230.375,318.056164 C229.01,318.056164 227.615,317.291164 226.76,316.406164 L225.755,317.831164 C226.88,318.896164 228.44,319.721164 230.435,319.721164 Z M244.3,322.076164 C242.425,320.366164 241.225,318.071164 241.225,315.416164 C241.225,312.776164 242.425,310.481164 244.285,308.771164 L243.82,308.246164 C241.375,310.301164 240.085,312.581164 240.085,315.416164 C240.085,318.266164 241.375,320.531164 243.82,322.586164 L244.3,322.076164 Z M247.535,319.511164 L247.535,310.181164 L247.565,310.181164 C247.805,310.976164 247.985,311.441164 248.255,312.146164 L251.135,319.511164 L252.11,319.511164 L254.99,312.146164 C255.26,311.441164 255.53,310.706164 255.68,310.196164 L255.71,310.196164 L255.71,319.511164 L256.775,319.511164 L256.775,308.411164 L255.38,308.411164 L251.675,318.131164 L251.645,318.131164 L247.925,308.411164 L246.545,308.411164 L246.545,319.511164 L247.535,319.511164 Z M260.625,319.511164 L260.625,310.181164 L260.655,310.181164 C260.895,310.976164 261.075,311.441164 261.345,312.146164 L264.225,319.511164 L265.2,319.511164 L268.08,312.146164 C268.35,311.441164 268.62,310.706164 268.77,310.196164 L268.8,310.196164 L268.8,319.511164 L269.865,319.511164 L269.865,308.411164 L268.47,308.411164 L264.765,318.131164 L264.735,318.131164 L261.015,308.411164 L259.635,308.411164 L259.635,319.511164 L260.625,319.511164 Z M273.4,313.901164 C273.4,314.171164 273.415,314.441164 273.43,314.681164 L271.615,314.681164 L271.615,315.536164 L273.52,315.536164 C273.955,318.386164 275.53,319.721164 277.555,319.721164 C279.535,319.721164 280.69,318.431164 281.23,316.616164 L280.285,316.241164 C279.835,317.891164 279.085,318.791164 277.57,318.791164 C275.965,318.791164 274.885,317.681164 274.555,315.536164 L277.945,315.536164 L277.945,314.681164 L274.465,314.681164 C274.45,314.426164 274.435,314.141164 274.435,313.841164 C274.435,313.691164 274.435,313.421164 274.45,313.256164 L277.945,313.256164 L277.945,312.431164 L274.54,312.431164 C274.87,310.166164 276.1,309.146164 277.54,309.146164 C279.1,309.146164 279.67,310.046164 280.12,311.561164 L281.08,311.201164 C280.57,309.461164 279.565,308.201164 277.555,308.201164 C275.68,308.201164 273.94,309.506164 273.505,312.431164 L271.615,312.431164 L271.615,313.256164 L273.415,313.256164 C273.415,313.421164 273.4,313.721164 273.4,313.901164 Z M283.355,322.586164 C285.8,320.531164 287.105,318.266164 287.105,315.416164 C287.105,312.581164 285.8,310.301164 283.355,308.246164 L282.89,308.771164 C284.75,310.481164 285.965,312.776164 285.965,315.416164 C285.965,318.071164 284.75,320.366164 282.89,322.076164 L283.355,322.586164 Z" id="TOTAL-RECURSOS-DE-CLIENTES-(MM€)" fill="#FFFFFF"></path>
            <path d="M473.84,351.816164 C476.195,351.816164 477.65,350.151164 477.65,347.931164 C477.65,345.711164 476.225,344.301164 474.215,344.301164 C473.03,344.301164 472.295,344.706164 471.755,345.336164 L472.055,341.481164 L477.02,341.481164 L476.99,340.506164 L471.17,340.506164 L470.735,346.311164 L471.53,346.611164 C472.13,345.741164 472.925,345.216164 474.065,345.216164 C475.535,345.216164 476.6,346.206164 476.6,347.976164 C476.6,349.446164 475.745,350.871164 473.825,350.871164 C472.49,350.871164 471.56,350.166164 470.9,349.161164 L470.21,349.836164 C470.945,351.006164 472.235,351.816164 473.84,351.816164 Z M482.577,351.816164 C484.857,351.816164 486.282,350.436164 486.282,348.621164 C486.282,346.986164 485.472,346.026164 483.807,345.696164 C485.172,345.471164 486.027,344.496164 486.027,343.071164 C486.027,341.631164 485.037,340.296164 482.697,340.296164 C481.212,340.296164 480.072,341.016164 479.277,341.961164 L479.982,342.636164 C480.657,341.796164 481.497,341.241164 482.637,341.241164 C484.317,341.241164 484.992,342.096164 484.992,343.176164 C484.992,344.541164 484.107,345.261164 481.752,345.261164 L481.212,345.261164 L481.272,346.176164 L481.662,346.176164 C484.287,346.176164 485.232,347.001164 485.232,348.621164 C485.232,349.956164 484.242,350.871164 482.577,350.871164 C481.362,350.871164 480.327,350.361164 479.517,349.131164 L478.782,349.761164 C479.607,351.066164 480.957,351.816164 482.577,351.816164 Z M491.944,351.816164 C494.239,351.816164 495.664,350.226164 495.664,348.126164 C495.664,346.116164 494.539,344.661164 492.199,344.661164 C490.789,344.661164 489.739,345.381164 489.034,346.146164 C489.034,343.371164 490.294,341.226164 492.349,341.226164 C493.339,341.226164 493.879,341.496164 494.479,341.976164 L494.974,341.136164 C494.389,340.656164 493.609,340.296164 492.364,340.296164 C489.814,340.296164 487.999,342.831164 487.999,346.251164 C487.999,350.061164 489.784,351.816164 491.944,351.816164 Z M491.989,350.901164 C490.519,350.901164 489.304,349.761164 489.079,347.211164 C489.784,346.236164 490.849,345.576164 492.079,345.576164 C493.879,345.576164 494.629,346.671164 494.629,348.141164 C494.629,349.881164 493.564,350.901164 491.989,350.901164 Z" id="536" fill="#FFFFFF"></path>
            <path d="M473.9,373.036164 C476.255,373.036164 477.71,371.371164 477.71,369.151164 C477.71,366.931164 476.285,365.521164 474.275,365.521164 C473.09,365.521164 472.355,365.926164 471.815,366.556164 L472.115,362.701164 L477.08,362.701164 L477.05,361.726164 L471.23,361.726164 L470.795,367.531164 L471.59,367.831164 C472.19,366.961164 472.985,366.436164 474.125,366.436164 C475.595,366.436164 476.66,367.426164 476.66,369.196164 C476.66,370.666164 475.805,372.091164 473.885,372.091164 C472.55,372.091164 471.62,371.386164 470.96,370.381164 L470.27,371.056164 C471.005,372.226164 472.295,373.036164 473.9,373.036164 Z M482.637,373.036164 C484.917,373.036164 486.342,371.656164 486.342,369.841164 C486.342,368.206164 485.532,367.246164 483.867,366.916164 C485.232,366.691164 486.087,365.716164 486.087,364.291164 C486.087,362.851164 485.097,361.516164 482.757,361.516164 C481.272,361.516164 480.132,362.236164 479.337,363.181164 L480.042,363.856164 C480.717,363.016164 481.557,362.461164 482.697,362.461164 C484.377,362.461164 485.052,363.316164 485.052,364.396164 C485.052,365.761164 484.167,366.481164 481.812,366.481164 L481.272,366.481164 L481.332,367.396164 L481.722,367.396164 C484.347,367.396164 485.292,368.221164 485.292,369.841164 C485.292,371.176164 484.302,372.091164 482.637,372.091164 C481.422,372.091164 480.387,371.581164 479.577,370.351164 L478.842,370.981164 C479.667,372.286164 481.017,373.036164 482.637,373.036164 Z M491.479,373.036164 C493.834,373.036164 495.289,371.371164 495.289,369.151164 C495.289,366.931164 493.864,365.521164 491.854,365.521164 C490.669,365.521164 489.934,365.926164 489.394,366.556164 L489.694,362.701164 L494.659,362.701164 L494.629,361.726164 L488.809,361.726164 L488.374,367.531164 L489.169,367.831164 C489.769,366.961164 490.564,366.436164 491.704,366.436164 C493.174,366.436164 494.239,367.426164 494.239,369.196164 C494.239,370.666164 493.384,372.091164 491.464,372.091164 C490.129,372.091164 489.199,371.386164 488.539,370.381164 L487.849,371.056164 C488.584,372.226164 489.874,373.036164 491.479,373.036164 Z" id="535" fill="#FFFFFF"></path>
            <polygon id="Fill-36" fill="#2ECDCD" points="461.0723 343.6669 456.4393 352.9329 17.1133 352.9329 21.7463 343.6669"></polygon>
            <polygon id="Fill-37" fill="#2A86CA" points="460.8242 363.5053 456.1912 372.7713 17.2302 372.7713 21.8632 363.5053"></polygon>
        </g>
    </g>
</svg>