<?xml version="1.0" encoding="utf-8"?>
<!-- Generator: Adobe Illustrator 19.2.1, SVG Export Plug-In . SVG Version: 6.00 Build 0)  -->
<svg version="1.1" id="Capa_1" xmlns="http://www.w3.org/2000/svg" xmlns:xlink="http://www.w3.org/1999/xlink" x="0px" y="0px"
	 viewBox="0 0 247 281" style="enable-background:new 0 0 247 281;" xml:space="preserve">
<style type="text/css">
	.st0{fill:none;}
	.st1{enable-background:new    ;}
	.st2{fill:#121212;}
	.st3{fill:#666666;}
	.st4{fill:#FF555F;}
	.st5{fill:#2ECDCD;}
	.st6{opacity:0.56;enable-background:new    ;}
	.st7{clip-path:url(#SVGID_2_);fill:#004481;}
	.st8{clip-path:url(#SVGID_2_);fill:#014481;}
	.st9{clip-path:url(#SVGID_2_);fill:#024481;}
	.st10{clip-path:url(#SVGID_2_);fill:#034481;}
	.st11{clip-path:url(#SVGID_2_);fill:#044480;}
	.st12{clip-path:url(#SVGID_2_);fill:#064580;}
	.st13{clip-path:url(#SVGID_2_);fill:#074580;}
	.st14{clip-path:url(#SVGID_2_);fill:#084580;}
	.st15{clip-path:url(#SVGID_2_);fill:#09457F;}
	.st16{clip-path:url(#SVGID_2_);fill:#0A457F;}
	.st17{clip-path:url(#SVGID_2_);fill:#0C457F;}
	.st18{clip-path:url(#SVGID_2_);fill:#0D457F;}
	.st19{fill:#FFFFFF;}
	.st20{fill:#F2F2F2;}
	.st21{clip-path:url(#SVGID_4_);fill:#004481;}
	.st22{clip-path:url(#SVGID_4_);fill:#014481;}
	.st23{clip-path:url(#SVGID_4_);fill:#024481;}
	.st24{clip-path:url(#SVGID_4_);fill:#034481;}
	.st25{clip-path:url(#SVGID_4_);fill:#044480;}
	.st26{clip-path:url(#SVGID_4_);fill:#064580;}
	.st27{clip-path:url(#SVGID_4_);fill:#074580;}
	.st28{clip-path:url(#SVGID_4_);fill:#084580;}
	.st29{clip-path:url(#SVGID_4_);fill:#09457F;}
	.st30{clip-path:url(#SVGID_4_);fill:#0A457F;}
	.st31{clip-path:url(#SVGID_4_);fill:#0C457F;}
	.st32{clip-path:url(#SVGID_4_);fill:#0D457F;}
	.st33{fill:#F25E61;}
	.st34{clip-path:url(#SVGID_6_);fill:#004481;}
	.st35{clip-path:url(#SVGID_6_);fill:#014481;}
	.st36{clip-path:url(#SVGID_6_);fill:#024481;}
	.st37{clip-path:url(#SVGID_6_);fill:#034481;}
	.st38{clip-path:url(#SVGID_6_);fill:#044480;}
	.st39{clip-path:url(#SVGID_6_);fill:#064580;}
	.st40{clip-path:url(#SVGID_6_);fill:#074580;}
	.st41{clip-path:url(#SVGID_6_);fill:#084580;}
	.st42{clip-path:url(#SVGID_6_);fill:#09457F;}
	.st43{clip-path:url(#SVGID_6_);fill:#0A457F;}
	.st44{clip-path:url(#SVGID_6_);fill:#0C457F;}
	.st45{clip-path:url(#SVGID_6_);fill:#0D457F;}
	.st46{clip-path:url(#SVGID_8_);fill:#004481;}
	.st47{clip-path:url(#SVGID_8_);fill:#014481;}
	.st48{clip-path:url(#SVGID_8_);fill:#024481;}
	.st49{clip-path:url(#SVGID_8_);fill:#034481;}
	.st50{clip-path:url(#SVGID_8_);fill:#044480;}
	.st51{clip-path:url(#SVGID_8_);fill:#064580;}
	.st52{clip-path:url(#SVGID_8_);fill:#074580;}
	.st53{clip-path:url(#SVGID_8_);fill:#084580;}
	.st54{clip-path:url(#SVGID_8_);fill:#09457F;}
	.st55{clip-path:url(#SVGID_8_);fill:#0A457F;}
	.st56{clip-path:url(#SVGID_8_);fill:#0C457F;}
	.st57{clip-path:url(#SVGID_8_);fill:#0D457F;}
</style>
<g>
	<line class="st0" x1="354.1" y1="285.9" x2="354.1" y2="288.9"/>
</g>
<g>
	<line class="st0" x1="354.1" y1="285.9" x2="354.1" y2="288.9"/>
</g>
<g>
	<g>
		<line class="st0" x1="354.4" y1="291.9" x2="354.4" y2="294.9"/>
	</g>
	<g>
		<line class="st0" x1="354.4" y1="291.9" x2="354.4" y2="294.9"/>
	</g>
	<g class="st1">
		<path class="st2" d="M85.8,81.7c0-3.5,1.5-5.8,4.1-5.8c2.6,0,4,2.3,4,5.8s-1.4,5.8-4,5.8C87.3,87.5,85.8,85.2,85.8,81.7z
			 M92.9,81.7c0-3.1-1.2-4.8-3-4.8c-1.9,0-3,1.7-3,4.8s1.2,4.8,3,4.8C91.8,86.5,92.9,84.9,92.9,81.7z"/>
		<path class="st2" d="M95.4,86.6c0-0.5,0.3-0.8,0.7-0.8c0.5,0,0.7,0.3,0.7,0.8c0,0.5-0.3,0.8-0.7,0.8C95.7,87.4,95.4,87,95.4,86.6z
			"/>
		<path class="st2" d="M98.4,81.7c0-3.5,1.5-5.8,4.1-5.8c2.6,0,4,2.3,4,5.8s-1.4,5.8-4,5.8C99.9,87.5,98.4,85.2,98.4,81.7z
			 M105.5,81.7c0-3.1-1.2-4.8-3-4.8c-1.9,0-3,1.7-3,4.8s1.2,4.8,3,4.8C104.4,86.5,105.5,84.9,105.5,81.7z"/>
		<path class="st2" d="M108,84.6c0-1.6,1.1-2.4,2.9-3.2c-1.5-0.7-2.4-1.4-2.4-2.7c0-1.4,1.3-2.7,3.5-2.7c2.2,0,3.4,1.3,3.4,2.7
			c0,1.3-0.9,2-2.5,2.7c1.9,0.8,3,1.6,3,3.2c0,1.6-1.5,2.9-3.9,2.9C109.4,87.5,108,86.2,108,84.6z M114.8,84.5c0-1.2-1-1.9-3-2.7
			c-2,0.9-2.9,1.5-2.9,2.7c0,1.2,1.2,2.1,2.9,2.1C113.6,86.6,114.8,85.8,114.8,84.5z M114.3,78.7c0-0.9-0.7-1.8-2.4-1.8
			c-1.6,0-2.4,0.9-2.4,1.8c0,1,0.8,1.6,2.5,2.3C113.7,80.2,114.3,79.7,114.3,78.7z"/>
	</g>
	<g>
		<g class="st1">
			<path class="st2" d="M21.8,49.1c0-3.5,1.5-5.8,4.1-5.8s4,2.3,4,5.8s-1.4,5.8-4,5.8S21.8,52.5,21.8,49.1z M28.9,49.1
				c0-3.1-1.2-4.8-3-4.8c-1.9,0-3,1.7-3,4.8s1.2,4.8,3,4.8C27.7,53.9,28.9,52.2,28.9,49.1z"/>
			<path class="st2" d="M31.4,53.9c0-0.5,0.3-0.8,0.7-0.8c0.5,0,0.7,0.3,0.7,0.8c0,0.5-0.3,0.8-0.7,0.8
				C31.7,54.7,31.4,54.4,31.4,53.9z"/>
			<path class="st2" d="M37.5,54.6V44.5l-2.1,0.7l-0.1-0.9l2.3-0.8h1v11.1H37.5z"/>
			<path class="st2" d="M41.4,54.6v-0.2c0-1.6,0.8-3.1,3.7-4.9c1.7-1.1,2.3-1.8,2.3-3c0-1.3-0.8-2.2-2.3-2.2c-1.2,0-2.1,0.6-2.8,1.9
				l-0.8-0.5c0.8-1.5,2-2.4,3.6-2.4c2,0,3.3,1.3,3.3,3c0,1.5-0.7,2.5-2.9,3.8c-2,1.3-3,2.5-3.1,3.5h5.9l0.1,1H41.4z"/>
			<path class="st2" d="M50.6,53.9l0.5-0.8c0.7,0.6,1.2,0.9,2.4,0.9c2,0,3.3-2.2,3.3-4.9c-0.7,0.8-1.7,1.5-3.1,1.5
				c-2.3,0-3.5-1.5-3.5-3.5c0-2.1,1.4-3.7,3.7-3.7c2.2,0,3.9,1.8,3.9,5.6c0,3.4-1.8,6-4.3,6C52.1,54.8,51.2,54.4,50.6,53.9z
				 M56.7,47.9c-0.2-2.5-1.5-3.7-2.9-3.7c-1.6,0-2.6,1-2.6,2.7c0,1.5,0.8,2.6,2.5,2.6C54.9,49.6,56,48.9,56.7,47.9z"/>
		</g>
	</g>
	<g>
		<g class="st1">
			<path class="st3" d="M21.9,221.7l2.6-7.4h0.8l2.6,7.4l-0.7,0.1l-0.8-2.3h-3l-0.8,2.3H21.9z M23.6,218.8h2.6l-1.3-3.7h0
				L23.6,218.8z"/>
			<path class="st3" d="M30,223.7v-7.3h0.6l0.1,0.7c0.4-0.5,1-0.8,1.8-0.8c1.2,0,2.2,0.9,2.2,2.7s-1,2.7-2.2,2.7
				c-0.7,0-1.3-0.3-1.7-0.8v2.7L30,223.7z M34,219c0-1.4-0.7-2.1-1.6-2.1c-0.6,0-1.1,0.3-1.6,0.9v2.6c0.5,0.5,1,0.8,1.7,0.8
				C33.3,221.2,34,220.5,34,219z"/>
			<path class="st3" d="M37.1,221.7v-7.4h2.5c1.6,0,2.6,0.7,2.6,2c0,1.2-0.7,1.8-1.8,2l1.9,3.3l-0.7,0.1l-1.9-3.4h-1.8v3.3H37.1z
				 M37.8,217.7h1.7c1.2,0,1.9-0.4,1.9-1.4c0-1-0.7-1.4-1.9-1.4h-1.7V217.7z"/>
			<path class="st3" d="M44.5,218.8v-0.6h2.2v0.6H44.5z"/>
			<path class="st3" d="M50.1,221.7v-6.7l-1.4,0.5l-0.1-0.6l1.5-0.5h0.6v7.4H50.1z"/>
			<path class="st3" d="M53.7,218.1c0-2.3,1.2-4,2.9-4c0.8,0,1.3,0.2,1.7,0.6l-0.3,0.6c-0.4-0.3-0.8-0.5-1.4-0.5
				c-1.4,0-2.2,1.4-2.2,3.3c0.5-0.5,1.2-1,2.1-1c1.6,0,2.3,1,2.3,2.3c0,1.4-0.9,2.5-2.5,2.5C54.9,221.8,53.7,220.6,53.7,218.1z
				 M58.1,219.4c0-1-0.5-1.7-1.7-1.7c-0.8,0-1.5,0.4-2,1.1c0.1,1.7,1,2.5,1.9,2.5C57.4,221.2,58.1,220.5,58.1,219.4z"/>
		</g>
	</g>
	<g>
		<g class="st1">
			<path class="st3" d="M84.1,221l0.4-0.5c0.3,0.4,0.7,0.7,1.3,0.7c0.7,0,1.2-0.4,1.2-1.5v-5.4h0.7v5.4c0,1.4-0.7,2.1-1.9,2.1
				C85,221.8,84.5,221.5,84.1,221z"/>
			<path class="st3" d="M90.5,219.2v-4.9h0.7v4.8c0,1.2,0.6,2.1,2,2.1c1.4,0,2-0.9,2-2.1v-4.8h0.7v4.9c0,1.5-0.9,2.7-2.7,2.7
				C91.4,221.8,90.5,220.6,90.5,219.2z"/>
			<path class="st3" d="M98.7,221.7v-7.4h0.7v6.7h3.6l0.1,0.6H98.7z"/>
			<path class="st3" d="M104.4,218.8v-0.6h2.2v0.6H104.4z"/>
			<path class="st3" d="M110,221.7v-6.7l-1.4,0.5l-0.1-0.6l1.5-0.5h0.6v7.4H110z"/>
			<path class="st3" d="M113.6,218.1c0-2.3,1.2-4,2.9-4c0.8,0,1.3,0.2,1.7,0.6l-0.3,0.6c-0.4-0.3-0.8-0.5-1.4-0.5
				c-1.4,0-2.2,1.4-2.2,3.3c0.5-0.5,1.2-1,2.1-1c1.6,0,2.3,1,2.3,2.3c0,1.4-0.9,2.5-2.5,2.5C114.8,221.8,113.6,220.6,113.6,218.1z
				 M118,219.4c0-1-0.5-1.7-1.7-1.7c-0.8,0-1.5,0.4-2,1.1c0.1,1.7,1,2.5,1.9,2.5C117.3,221.2,118,220.5,118,219.4z"/>
		</g>
	</g>
	<g>
		<g class="st1">
			<path class="st3" d="M144,218c0-2.3,1.3-3.8,3.1-3.8c1.8,0,3.1,1.5,3.1,3.8c0,2.3-1.3,3.8-3.1,3.8C145.3,221.8,144,220.3,144,218
				z M149.5,218c0-2-1-3.2-2.4-3.2s-2.4,1.2-2.4,3.2s1,3.2,2.4,3.2S149.5,220,149.5,218z"/>
			<path class="st3" d="M152.4,217.9c0-2.2,1.2-3.8,3.1-3.8c1.3,0,2.1,0.6,2.5,1.6l-0.6,0.3c-0.3-0.8-0.9-1.3-1.9-1.3
				c-1.4,0-2.3,1.3-2.3,3.1c0,2,0.9,3.2,2.4,3.2c1,0,1.7-0.5,2.1-1.5l0.6,0.3c-0.4,1.1-1.3,1.8-2.7,1.8
				C153.6,221.8,152.4,220.3,152.4,217.9z"/>
			<path class="st3" d="M162.2,221.7v-6.7h-2.4v-0.7h5.4l0.1,0.7h-2.4v6.7H162.2z"/>
			<path class="st3" d="M166.3,218.8v-0.6h2.2v0.6H166.3z"/>
			<path class="st3" d="M171.9,221.7v-6.7l-1.4,0.5l-0.1-0.6l1.5-0.5h0.6v7.4H171.9z"/>
			<path class="st3" d="M175.5,218.1c0-2.3,1.2-4,2.9-4c0.8,0,1.3,0.2,1.7,0.6l-0.3,0.6c-0.4-0.3-0.8-0.5-1.4-0.5
				c-1.4,0-2.2,1.4-2.2,3.3c0.5-0.5,1.2-1,2.1-1c1.6,0,2.3,1,2.3,2.3c0,1.4-0.9,2.5-2.5,2.5C176.7,221.8,175.5,220.6,175.5,218.1z
				 M179.9,219.4c0-1-0.5-1.7-1.7-1.7c-0.8,0-1.5,0.4-2,1.1c0.2,1.7,1,2.5,1.9,2.5C179.2,221.2,179.9,220.5,179.9,219.4z"/>
		</g>
	</g>
	<g>
		<g class="st1">
			<path class="st3" d="M205.6,223.6l-0.1-0.6c0.1,0,0.2,0,0.3,0c0.3,0,0.5-0.2,0.5-0.6v-6.1h0.7v6.1c0,0.7-0.3,1.2-1.1,1.2
				C205.8,223.7,205.6,223.7,205.6,223.6z M206.3,214.8c0-0.3,0.2-0.4,0.4-0.4s0.4,0.2,0.4,0.4c0,0.3-0.2,0.4-0.4,0.4
				S206.3,215.1,206.3,214.8z"/>
			<path class="st3" d="M209.4,220.4c0-1,0.9-1.8,3.6-2.2V218c0-0.7-0.4-1.1-1.1-1.1c-0.8,0-1.4,0.3-1.9,0.8l-0.4-0.4
				c0.6-0.6,1.3-1,2.4-1c1.2,0,1.7,0.6,1.7,1.7v3.7H213l-0.1-0.8c-0.6,0.5-1.3,0.8-2.1,0.8C209.9,221.8,209.4,221.2,209.4,220.4z
				 M213,220.4v-1.6c-2.3,0.4-2.9,0.9-2.9,1.6c0,0.5,0.4,0.8,1,0.8C211.8,221.2,212.4,220.9,213,220.4z"/>
			<path class="st3" d="M216.2,221.7v-5.3h0.6l0.1,0.8c0.5-0.5,1.2-0.9,2-0.9c1.1,0,1.6,0.6,1.6,1.5v3.8h-0.7V218
				c0-0.7-0.3-1.1-1.1-1.1c-0.7,0-1.2,0.3-1.8,0.9v3.9H216.2z"/>
			<path class="st3" d="M222.8,218.8v-0.6h2.2v0.6H222.8z"/>
			<path class="st3" d="M228.4,221.7v-6.7l-1.4,0.5l-0.1-0.6l1.5-0.5h0.6v7.4H228.4z"/>
			<path class="st3" d="M232.6,221.6l3.1-6.7h-3.8l0-0.6h4.6v0.6l-3.1,6.8L232.6,221.6z"/>
		</g>
	</g>
	<g>
		<g>
			<g>
				<g class="st1">
					<path class="st3" d="M192.7,269.5c0-2.9,1.6-5,4-5c1.6,0,2.7,0.8,3.3,2.1l-0.8,0.4c-0.5-1.1-1.2-1.7-2.5-1.7
						c-1.9,0-3.1,1.6-3.1,4.1c0,2.7,1.2,4.2,3.1,4.2c1.3,0,2.2-0.7,2.7-1.9l0.8,0.4c-0.6,1.5-1.8,2.4-3.5,2.4
						C194.2,274.5,192.7,272.5,192.7,269.5z"/>
					<path class="st3" d="M201.6,272.7c0-1.4,1.2-2.3,4.6-2.9v-0.4c0-0.9-0.5-1.4-1.4-1.4c-1.1,0-1.8,0.4-2.5,1.1l-0.5-0.6
						c0.8-0.8,1.7-1.3,3.1-1.3c1.5,0,2.2,0.8,2.2,2.2v4.8h-0.8l-0.1-1c-0.8,0.7-1.7,1.1-2.7,1.1
						C202.3,274.4,201.6,273.8,201.6,272.7z M206.2,272.6v-2.1c-3,0.5-3.8,1.2-3.8,2.1c0,0.7,0.5,1.1,1.2,1.1
						C204.7,273.7,205.5,273.3,206.2,272.6z"/>
					<path class="st3" d="M208.6,273.2l0.5-0.5c0.5,0.6,1.2,1,2.2,1c1.2,0,1.8-0.5,1.8-1.2c0-0.8-0.5-1.1-1.9-1.4
						c-1.7-0.4-2.4-0.8-2.4-2c0-1,0.8-1.8,2.3-1.8c1.1,0,1.9,0.4,2.5,1l-0.5,0.6c-0.6-0.5-1.2-0.8-2-0.8c-1,0-1.5,0.5-1.5,1
						c0,0.6,0.4,0.9,1.6,1.2c1.8,0.4,2.6,0.9,2.6,2.1c0,1.3-1.1,2-2.7,2C210.1,274.4,209.2,273.9,208.6,273.2z"/>
					<path class="st3" d="M215.7,274.3v-9.6l0.9-0.1v3.9c0.7-0.7,1.5-1.2,2.6-1.2c1.4,0,2.1,0.7,2.1,2v5h-0.9v-4.8
						c0-1-0.4-1.4-1.4-1.4c-0.9,0-1.6,0.5-2.4,1.2v5H215.7z"/>
				</g>
			</g>
			<g>
				<polygon class="st4" points="170,275 179.7,275 184.6,265.3 174.9,265.3 				"/>
			</g>
		</g>
		<g>
			<g>
				<g class="st1">
					<path class="st3" d="M27.4,274.3v-9.6h2.4c3.1,0,4.8,1.6,4.8,4.8s-1.7,4.8-4.8,4.8H27.4z M28.3,273.5H30c2.4,0,3.7-1.2,3.7-4
						c0-2.7-1.3-4-3.7-4h-1.6V273.5z"/>
					<path class="st3" d="M36.4,265.4c0-0.3,0.2-0.5,0.5-0.5s0.5,0.2,0.5,0.5c0,0.4-0.2,0.6-0.5,0.6S36.4,265.8,36.4,265.4z
						 M36.5,274.3v-6.8h0.9v6.8H36.5z"/>
					<path class="st3" d="M41.4,274.4l-2.5-6.8l0.9-0.2l2.1,5.9h0l2-5.8h0.9l-2.5,6.9H41.4z"/>
					<path class="st3" d="M46.1,265.4c0-0.3,0.2-0.5,0.5-0.5s0.5,0.2,0.5,0.5c0,0.4-0.2,0.6-0.5,0.6S46.1,265.8,46.1,265.4z
						 M46.2,274.3v-6.8h0.9v6.8H46.2z"/>
					<path class="st3" d="M48.9,270.9c0-2.4,1.3-3.6,2.8-3.6c0.9,0,1.7,0.5,2.3,1.1v-3.7l0.9-0.1v9.7h-0.8l-0.1-1
						c-0.5,0.6-1.3,1.1-2.3,1.1C50.2,274.4,48.9,273.3,48.9,270.9z M54,272.5v-3.3c-0.7-0.7-1.3-1.1-2.2-1.1c-1.1,0-2.1,0.9-2.1,2.8
						c0,1.9,0.9,2.8,2.1,2.8C52.7,273.7,53.3,273.3,54,272.5z"/>
					<path class="st3" d="M56.6,270.9c0-2.4,1.6-3.5,3-3.5c1.6,0,2.8,1.2,2.8,3.6v0.2h-4.9c0,1.7,1,2.6,2.2,2.6c0.9,0,1.6-0.4,2.2-1
						l0.4,0.6c-0.8,0.8-1.5,1.2-2.7,1.2C58,274.5,56.6,273.2,56.6,270.9z M61.5,270.4c-0.1-1.3-0.7-2.3-1.9-2.3
						c-1,0-1.9,0.7-2.1,2.3H61.5z"/>
					<path class="st3" d="M64.1,274.3v-6.8h0.8l0.1,1.1c0.7-0.7,1.5-1.2,2.6-1.2c1.4,0,2.1,0.7,2.1,2v5h-0.9v-4.8
						c0-1-0.4-1.4-1.4-1.4c-0.9,0-1.6,0.5-2.4,1.2v5H64.1z"/>
					<path class="st3" d="M71.3,270.9c0-2.4,1.3-3.6,2.8-3.6c0.9,0,1.7,0.5,2.3,1.1v-3.7l0.9-0.1v9.7h-0.8l-0.1-1
						c-0.5,0.6-1.3,1.1-2.3,1.1C72.5,274.4,71.3,273.3,71.3,270.9z M76.4,272.5v-3.3c-0.7-0.7-1.3-1.1-2.2-1.1
						c-1.1,0-2.1,0.9-2.1,2.8c0,1.9,0.9,2.8,2.1,2.8C75.1,273.7,75.7,273.3,76.4,272.5z"/>
					<path class="st3" d="M79.2,270.6v-0.8h2.9v0.8H79.2z"/>
					<path class="st3" d="M83.6,270.9c0-2.3,1.4-3.6,3.1-3.6c1.7,0,3.1,1.3,3.1,3.6c0,2.3-1.4,3.6-3.1,3.6
						C85,274.5,83.6,273.2,83.6,270.9z M88.9,270.9c0-1.5-0.8-2.8-2.2-2.8c-1.4,0-2.2,1.2-2.2,2.8c0,1.5,0.7,2.8,2.2,2.8
						C88.1,273.7,88.9,272.5,88.9,270.9z"/>
					<path class="st3" d="M91.5,277v-9.5h0.8l0.1,1c0.5-0.6,1.3-1.1,2.3-1.1c1.6,0,2.8,1.2,2.8,3.5c0,2.4-1.3,3.5-2.8,3.5
						c-0.9,0-1.7-0.4-2.3-1.1v3.5L91.5,277z M96.6,270.9c0-1.9-0.9-2.8-2.1-2.8c-0.8,0-1.4,0.4-2.1,1.1v3.4c0.7,0.7,1.3,1.1,2.2,1.1
						C95.7,273.7,96.6,272.9,96.6,270.9z"/>
					<path class="st3" d="M99.7,272.7v-4.5h-1.2v-0.8h1.2v-2.4l0.9-0.1v2.5h1.8v0.8h-1.8v4.3c0,0.7,0.3,1.1,1.1,1.1
						c0.2,0,0.5,0,0.7-0.1l0.1,0.8c-0.2,0-0.6,0.1-0.9,0.1C100.2,274.4,99.7,273.9,99.7,272.7z"/>
					<path class="st3" d="M103.9,265.4c0-0.3,0.2-0.5,0.5-0.5s0.5,0.2,0.5,0.5c0,0.4-0.2,0.6-0.5,0.6S103.9,265.8,103.9,265.4z
						 M104,274.3v-6.8h0.9v6.8H104z"/>
					<path class="st3" d="M106.7,270.9c0-2.3,1.4-3.6,3.1-3.6c1.7,0,3.1,1.3,3.1,3.6c0,2.3-1.4,3.6-3.1,3.6
						C108.1,274.5,106.7,273.2,106.7,270.9z M112,270.9c0-1.5-0.8-2.8-2.2-2.8c-1.4,0-2.2,1.2-2.2,2.8c0,1.5,0.7,2.8,2.2,2.8
						C111.2,273.7,112,272.5,112,270.9z"/>
					<path class="st3" d="M114.6,274.3v-6.8h0.8l0.1,1.1c0.7-0.7,1.5-1.2,2.6-1.2c1.4,0,2.1,0.7,2.1,2v5h-0.9v-4.8
						c0-1-0.4-1.4-1.4-1.4c-0.9,0-1.6,0.5-2.4,1.2v5H114.6z"/>
				</g>
			</g>
			<g>
				<polygon class="st5" points="4.3,275 14,275 18.8,265.3 9.1,265.3 				"/>
			</g>
		</g>
	</g>
	<g>
		<g>
			<g class="st6">
				<g>
					<defs>
						<polygon id="SVGID_1_" points="40.6,196.9 55.7,189.4 14.3,172.7 -0.7,180.2 						"/>
					</defs>
					<clipPath id="SVGID_2_">
						<use xlink:href="#SVGID_1_"  style="overflow:visible;"/>
					</clipPath>
					<polygon class="st7" points="48,196.9 52.8,186 55.7,187.2 55.7,196.9 					"/>
					<polygon class="st7" points="47,196.9 51.9,185.6 52.8,186 48,196.9 					"/>
					<polygon class="st8" points="45.9,196.9 51,185.2 51.9,185.6 47,196.9 					"/>
					<polygon class="st8" points="43.7,196.9 49.1,184.4 51,185.2 45.9,196.9 					"/>
					<polygon class="st9" points="41.4,196.9 47.2,183.5 49.1,184.4 43.7,196.9 					"/>
					<polygon class="st10" points="39.2,196.9 45.4,182.7 47.2,183.5 41.4,196.9 					"/>
					<polygon class="st11" points="36.9,196.9 43.5,181.9 45.4,182.7 39.2,196.9 					"/>
					<polygon class="st12" points="34.7,196.9 41.6,181.1 43.5,181.9 36.9,196.9 					"/>
					<polygon class="st13" points="32.7,196.9 32.5,196.8 39.7,180.3 41.6,181.1 34.7,196.9 					"/>
					
						<rect x="26.1" y="187.1" transform="matrix(0.3987 -0.9171 0.9171 0.3987 -151.3916 145.3415)" class="st14" width="18.1" height="2.1"/>
					
						<rect x="24.2" y="186.3" transform="matrix(0.3987 -0.9171 0.9171 0.3987 -151.7745 143.1138)" class="st15" width="18.1" height="2.1"/>
					
						<rect x="22.3" y="185.4" transform="matrix(0.3987 -0.9171 0.9171 0.3987 -152.1573 140.8861)" class="st16" width="18.1" height="2.1"/>
					
						<rect x="17.1" y="179.6" transform="matrix(0.3987 -0.9171 0.9171 0.3987 -153.2112 134.7542)" class="st16" width="18.1" height="9.3"/>
					<polygon class="st17" points="18.3,190.6 9.8,186.9 16,172.7 22.3,172.7 25.5,174.1 					"/>
					<polygon class="st18" points="9.8,186.9 1.3,183.2 5.9,172.7 16,172.7 					"/>
					<polygon class="st18" points="1.3,183.2 -0.7,182.4 -0.7,172.7 5.9,172.7 					"/>
				</g>
			</g>
		</g>
		<g>
			<g>
				<polygon class="st5" points="40,197.1 56,189.2 56,123.2 40,131.1 				"/>
			</g>
			<g>
				<polygon class="st19" points="40,81.3 56,73.3 40.1,67 24.1,74.9 				"/>
			</g>
			<g>
				<polygon class="st5" points="40,81.3 40,131.1 56,123.2 56,73.3 				"/>
			</g>
		</g>
		<g>
			<polygon class="st20" points="40.1,81.3 55.9,73.4 40.1,67 24.3,74.9 			"/>
		</g>
	</g>
	<g>
		<g>
			<g class="st6">
				<g>
					<defs>
						<polygon id="SVGID_3_" points="103.3,196.9 118.3,189.4 76.9,172.7 61.9,180.2 						"/>
					</defs>
					<clipPath id="SVGID_4_">
						<use xlink:href="#SVGID_3_"  style="overflow:visible;"/>
					</clipPath>
					<polygon class="st21" points="110.7,196.9 115.4,186 118.3,187.2 118.3,196.9 					"/>
					<polygon class="st21" points="109.6,196.9 114.5,185.6 115.4,186 110.7,196.9 					"/>
					<polygon class="st22" points="108.6,196.9 113.7,185.2 114.5,185.6 109.6,196.9 					"/>
					<polygon class="st22" points="106.3,196.9 111.8,184.4 113.7,185.2 108.6,196.9 					"/>
					<polygon class="st23" points="104.1,196.9 109.9,183.6 111.8,184.4 106.3,196.9 					"/>
					<polygon class="st24" points="101.8,196.9 108,182.7 109.9,183.6 104.1,196.9 					"/>
					<polygon class="st25" points="99.6,196.9 106.1,181.9 108,182.7 101.8,196.9 					"/>
					<polygon class="st26" points="97.3,196.9 104.2,181.1 106.1,181.9 99.6,196.9 					"/>
					<polygon class="st27" points="95.3,196.9 95.1,196.8 102.3,180.3 104.2,181.1 97.3,196.9 					"/>
					
						<rect x="88.7" y="187.1" transform="matrix(0.3987 -0.9171 0.9171 0.3987 -113.7466 202.7801)" class="st28" width="18.1" height="2.1"/>
					
						<rect x="86.9" y="186.3" transform="matrix(0.3987 -0.9171 0.9171 0.3987 -114.1295 200.5524)" class="st29" width="18.1" height="2.1"/>
					
						<rect x="85" y="185.5" transform="matrix(0.3987 -0.9171 0.9171 0.3987 -114.5124 198.3247)" class="st30" width="18.1" height="2.1"/>
					
						<rect x="79.8" y="179.6" transform="matrix(0.3987 -0.9171 0.9171 0.3987 -115.5663 192.1928)" class="st30" width="18.1" height="9.3"/>
					<polygon class="st31" points="80.9,190.7 72.4,187 78.6,172.7 84.9,172.7 88.1,174.1 					"/>
					<polygon class="st32" points="72.4,187 63.9,183.2 68.5,172.7 78.6,172.7 					"/>
					<polygon class="st32" points="63.9,183.2 61.9,182.4 61.9,172.7 68.5,172.7 					"/>
				</g>
			</g>
		</g>
		<g>
			<g>
				<polygon class="st33" points="102.7,197.1 118.6,189.2 118.6,112.5 102.7,120.5 				"/>
			</g>
			<g>
				<polygon class="st19" points="102.7,120.5 118.6,112.5 102.7,106.2 86.8,114.1 				"/>
			</g>
		</g>
		<g>
			<polygon class="st20" points="102.7,120.5 118.5,112.6 102.8,106.2 86.9,114.1 			"/>
		</g>
	</g>
	<g class="st1">
		<path class="st2" d="M148.5,81.7c0-3.5,1.5-5.8,4.1-5.8c2.6,0,4,2.3,4,5.8s-1.4,5.8-4,5.8C149.9,87.5,148.5,85.2,148.5,81.7z
			 M155.5,81.7c0-3.1-1.2-4.8-3-4.8c-1.9,0-3,1.7-3,4.8s1.2,4.8,3,4.8C154.4,86.5,155.5,84.9,155.5,81.7z"/>
		<path class="st2" d="M158.1,86.6c0-0.5,0.3-0.8,0.7-0.8c0.5,0,0.7,0.3,0.7,0.8c0,0.5-0.3,0.8-0.7,0.8
			C158.4,87.4,158.1,87,158.1,86.6z"/>
		<path class="st2" d="M161.1,81.7c0-3.5,1.5-5.8,4.1-5.8c2.6,0,4,2.3,4,5.8s-1.4,5.8-4,5.8C162.6,87.5,161.1,85.2,161.1,81.7z
			 M168.2,81.7c0-3.1-1.2-4.8-3-4.8c-1.9,0-3,1.7-3,4.8s1.2,4.8,3,4.8C167,86.5,168.2,84.9,168.2,81.7z"/>
		<path class="st2" d="M170.7,84.6c0-1.6,1.1-2.4,2.9-3.2c-1.5-0.7-2.4-1.4-2.4-2.7c0-1.4,1.3-2.7,3.4-2.7c2.2,0,3.4,1.3,3.4,2.7
			c0,1.3-0.9,2-2.5,2.7c1.9,0.8,3,1.6,3,3.2c0,1.6-1.5,2.9-3.9,2.9C172.1,87.5,170.7,86.2,170.7,84.6z M177.5,84.5
			c0-1.2-1-1.9-3-2.7c-2,0.9-2.8,1.5-2.8,2.7c0,1.2,1.2,2.1,2.9,2.1C176.3,86.6,177.5,85.8,177.5,84.5z M177,78.7
			c0-0.9-0.7-1.8-2.4-1.8c-1.6,0-2.4,0.9-2.4,1.8c0,1,0.8,1.6,2.5,2.3C176.3,80.2,177,79.7,177,78.7z"/>
	</g>
	<g>
		<g>
			<g class="st6">
				<g>
					<defs>
						<polygon id="SVGID_5_" points="165.9,196.9 181,189.4 139.6,172.7 124.5,180.2 						"/>
					</defs>
					<clipPath id="SVGID_6_">
						<use xlink:href="#SVGID_5_"  style="overflow:visible;"/>
					</clipPath>
					<polygon class="st34" points="173.3,196.9 178.1,186 181,187.2 181,196.9 					"/>
					<polygon class="st34" points="172.3,196.9 177.2,185.6 178.1,186 173.3,196.9 					"/>
					<polygon class="st35" points="171.2,196.9 176.3,185.2 177.2,185.6 172.3,196.9 					"/>
					<polygon class="st35" points="169,196.9 174.4,184.4 176.3,185.2 171.2,196.9 					"/>
					<polygon class="st36" points="166.7,196.9 172.5,183.5 174.4,184.4 169,196.9 					"/>
					<polygon class="st37" points="164.5,196.9 170.7,182.7 172.5,183.5 166.7,196.9 					"/>
					<polygon class="st38" points="162.2,196.9 168.8,181.9 170.7,182.7 164.5,196.9 					"/>
					<polygon class="st39" points="160,196.9 166.9,181.1 168.8,181.9 162.2,196.9 					"/>
					<polygon class="st40" points="157.9,196.9 157.8,196.8 165,180.3 166.9,181.1 160,196.9 					"/>
					
						<rect x="151.4" y="187.1" transform="matrix(0.3987 -0.9171 0.9171 0.3987 -76.0739 260.2513)" class="st41" width="18.1" height="2.1"/>
					
						<rect x="149.5" y="186.3" transform="matrix(0.3987 -0.9171 0.9171 0.3987 -76.4568 258.0236)" class="st42" width="18.1" height="2.1"/>
					
						<rect x="147.6" y="185.5" transform="matrix(0.3987 -0.9171 0.9171 0.3987 -76.8397 255.7958)" class="st43" width="18.1" height="2.1"/>
					
						<rect x="142.4" y="179.6" transform="matrix(0.3987 -0.9171 0.9171 0.3987 -77.8936 249.664)" class="st43" width="18.1" height="9.3"/>
					<polygon class="st44" points="143.6,190.7 135.1,187 141.3,172.7 147.6,172.7 150.8,174.1 					"/>
					<polygon class="st45" points="135.1,187 126.6,183.3 131.1,172.7 141.3,172.7 					"/>
					<polygon class="st45" points="126.6,183.3 124.5,182.4 124.5,172.7 131.1,172.7 					"/>
				</g>
			</g>
		</g>
		<g>
			<g>
				<polygon class="st5" points="165.3,197.1 181.3,189.2 181.3,112.5 165.3,120.5 				"/>
			</g>
			<g>
				<polygon class="st19" points="165.3,120.5 181.3,112.5 165.4,106.2 149.4,114.1 				"/>
			</g>
		</g>
		<g>
			<polygon class="st20" points="165.4,120.5 181.2,112.6 165.4,106.2 149.6,114.1 			"/>
		</g>
	</g>
	<g class="st1">
		<path class="st2" d="M207.5,81.7c0-3.5,1.5-5.8,4.1-5.8s4,2.3,4,5.8s-1.4,5.8-4,5.8S207.5,85.2,207.5,81.7z M214.5,81.7
			c0-3.1-1.2-4.8-3-4.8c-1.9,0-3,1.7-3,4.8s1.2,4.8,3,4.8C213.4,86.5,214.5,84.9,214.5,81.7z"/>
		<path class="st2" d="M217.1,86.6c0-0.5,0.3-0.8,0.7-0.8c0.4,0,0.7,0.3,0.7,0.8c0,0.5-0.3,0.8-0.7,0.8
			C217.4,87.4,217.1,87,217.1,86.6z"/>
		<path class="st2" d="M220.1,81.7c0-3.5,1.5-5.8,4.1-5.8s4,2.3,4,5.8s-1.4,5.8-4,5.8S220.1,85.2,220.1,81.7z M227.2,81.7
			c0-3.1-1.2-4.8-3-4.8c-1.9,0-3,1.7-3,4.8s1.2,4.8,3,4.8C226,86.5,227.2,84.9,227.2,81.7z"/>
		<path class="st2" d="M229.7,84.6c0-1.6,1.1-2.4,2.9-3.2c-1.5-0.7-2.4-1.4-2.4-2.7c0-1.4,1.3-2.7,3.4-2.7c2.2,0,3.4,1.3,3.4,2.7
			c0,1.3-0.9,2-2.5,2.7c1.9,0.8,3,1.6,3,3.2c0,1.6-1.5,2.9-3.9,2.9C231.1,87.5,229.7,86.2,229.7,84.6z M236.5,84.5
			c0-1.2-1-1.9-3-2.7c-2,0.9-2.9,1.5-2.9,2.7c0,1.2,1.2,2.1,2.9,2.1C235.3,86.6,236.5,85.8,236.5,84.5z M236,78.7
			c0-0.9-0.7-1.8-2.4-1.8c-1.6,0-2.4,0.9-2.4,1.8c0,1,0.8,1.6,2.5,2.3C235.3,80.2,236,79.7,236,78.7z"/>
	</g>
	<g>
		<g>
			<g class="st6">
				<g>
					<defs>
						<polygon id="SVGID_7_" points="224.9,196.9 240,189.4 198.6,172.7 183.5,180.2 						"/>
					</defs>
					<clipPath id="SVGID_8_">
						<use xlink:href="#SVGID_7_"  style="overflow:visible;"/>
					</clipPath>
					<polygon class="st46" points="232.3,196.9 237.1,186 240,187.2 240,196.9 					"/>
					<polygon class="st46" points="231.3,196.9 236.2,185.6 237.1,186 232.3,196.9 					"/>
					<polygon class="st47" points="230.2,196.9 235.3,185.2 236.2,185.6 231.3,196.9 					"/>
					<polygon class="st47" points="228,196.9 233.4,184.4 235.3,185.2 230.2,196.9 					"/>
					<polygon class="st48" points="225.7,196.9 231.5,183.5 233.4,184.4 228,196.9 					"/>
					<polygon class="st49" points="223.5,196.9 229.7,182.7 231.5,183.5 225.7,196.9 					"/>
					<polygon class="st50" points="221.2,196.9 227.8,181.9 229.7,182.7 223.5,196.9 					"/>
					<polygon class="st51" points="219,196.9 225.9,181.1 227.8,181.9 221.2,196.9 					"/>
					<polygon class="st52" points="216.9,196.9 216.8,196.8 224,180.3 225.9,181.1 219,196.9 					"/>
					
						<rect x="210.4" y="187.1" transform="matrix(0.3987 -0.9171 0.9171 0.3987 -40.5987 314.3584)" class="st53" width="18.1" height="2.1"/>
					
						<rect x="208.5" y="186.3" transform="matrix(0.3987 -0.9171 0.9171 0.3987 -40.9816 312.1307)" class="st54" width="18.1" height="2.1"/>
					
						<rect x="206.6" y="185.5" transform="matrix(0.3987 -0.9171 0.9171 0.3987 -41.3645 309.903)" class="st55" width="18.1" height="2.1"/>
					
						<rect x="201.4" y="179.6" transform="matrix(0.3987 -0.9171 0.9171 0.3987 -42.4184 303.7711)" class="st55" width="18.1" height="9.3"/>
					<polygon class="st56" points="202.6,190.7 194.1,187 200.3,172.7 206.6,172.7 209.8,174.1 					"/>
					<polygon class="st57" points="194.1,187 185.6,183.3 190.1,172.7 200.3,172.7 					"/>
					<polygon class="st57" points="185.6,183.3 183.5,182.4 183.5,172.7 190.1,172.7 					"/>
				</g>
			</g>
		</g>
		<g>
			<g>
				<polygon class="st33" points="224.3,197.1 240.3,189.2 240.3,112.5 224.3,120.5 				"/>
			</g>
			<g>
				<polygon class="st19" points="224.3,120.5 240.3,112.5 224.4,106.2 208.4,114.1 				"/>
			</g>
		</g>
		<g>
			<polygon class="st20" points="224.4,120.5 240.2,112.6 224.4,106.2 208.6,114.1 			"/>
		</g>
	</g>
	<g>
		<g class="st1">
			<path class="st3" d="M63.6,11.7V2.1h5.7v0.9h-4.8v3.3h3.6L68.2,7h-3.7v3.8h5.1v0.8H63.6z"/>
			<path class="st3" d="M71,9.8v-5h0.9v4.8c0,1,0.4,1.4,1.4,1.4c0.9,0,1.6-0.5,2.4-1.2v-5h0.9v6.8h-0.8l-0.1-1.1
				c-0.7,0.7-1.6,1.2-2.6,1.2C71.7,11.8,71,11.1,71,9.8z"/>
			<path class="st3" d="M78.6,11.7V4.8h0.8l0.1,1.3h0c0.5-0.8,1.4-1.5,2.7-1.5h0.1l0.1,0.8c0,0-0.3,0-0.3,0c-1.1,0-2,0.6-2.6,1.7
				v4.5H78.6z"/>
			<path class="st3" d="M83,8.3c0-2.3,1.4-3.6,3.1-3.6c1.7,0,3.1,1.3,3.1,3.6c0,2.3-1.4,3.6-3.1,3.6C84.4,11.8,83,10.5,83,8.3z
				 M88.3,8.3c0-1.5-0.8-2.8-2.2-2.8c-1.4,0-2.2,1.2-2.2,2.8c0,1.5,0.7,2.8,2.2,2.8C87.5,11.1,88.3,9.9,88.3,8.3z"/>
			<path class="st3" d="M90.3,10.6l0.5-0.5c0.5,0.6,1.2,1,2.2,1c1.2,0,1.8-0.5,1.8-1.2c0-0.8-0.5-1.1-1.9-1.4
				c-1.7-0.4-2.4-0.8-2.4-2c0-1,0.8-1.8,2.3-1.8c1.1,0,1.9,0.4,2.5,1l-0.5,0.6c-0.6-0.5-1.2-0.8-2-0.8c-1,0-1.5,0.5-1.5,1
				c0,0.6,0.4,0.9,1.6,1.2c1.8,0.4,2.6,0.9,2.6,2.1c0,1.3-1.1,2-2.7,2C91.7,11.8,90.8,11.3,90.3,10.6z"/>
			<path class="st3" d="M97.2,8V7.2h2.9V8H97.2z"/>
			<path class="st3" d="M101.2,12.6c0-0.7,0.5-1.2,1.3-1.6c-0.4-0.2-0.6-0.5-0.6-0.9s0.3-0.8,0.8-1c-0.6-0.4-1-1.1-1-2
				c0-1.5,1.2-2.5,2.7-2.5c0.8,0,1.5,0.3,2,0.7c0.4-0.3,1-0.6,1.5-0.6l0.1,0.8c-0.4,0-0.9,0.1-1.3,0.2c0.3,0.4,0.4,0.8,0.4,1.3
				c0,1.5-1.2,2.4-2.7,2.4c-0.4,0-0.8-0.1-1.1-0.2c-0.3,0.1-0.5,0.3-0.5,0.6c0,0.3,0.2,0.4,1,0.5l1.5,0.1c1.6,0.1,2.4,0.7,2.4,1.7
				c0,1.2-1.3,1.9-3.2,1.9C102.3,14.3,101.2,13.6,101.2,12.6z M106.8,12.4c0-0.6-0.5-1-1.9-1.1l-1.4-0.1c-0.1,0-0.2,0-0.4,0
				c-0.8,0.2-1.1,0.7-1.1,1.2c0,0.7,0.8,1.1,2.5,1.1C106,13.6,106.8,13.1,106.8,12.4z M106.2,7.2c0-1.1-0.7-1.8-1.8-1.8
				c-1.1,0-1.8,0.7-1.8,1.8c0,1.1,0.7,1.7,1.8,1.7C105.5,8.9,106.2,8.2,106.2,7.2z"/>
			<path class="st3" d="M109.4,11.7V4.8h0.8l0.1,1.3h0c0.5-0.8,1.4-1.5,2.7-1.5h0.1l0.1,0.8c0,0-0.3,0-0.3,0c-1.1,0-2,0.6-2.6,1.7
				v4.5H109.4z"/>
			<path class="st3" d="M113.7,8.3c0-2.3,1.4-3.6,3.1-3.6c1.7,0,3.1,1.3,3.1,3.6c0,2.3-1.4,3.6-3.1,3.6
				C115.2,11.8,113.7,10.5,113.7,8.3z M119,8.3c0-1.5-0.8-2.8-2.2-2.8c-1.4,0-2.2,1.2-2.2,2.8c0,1.5,0.7,2.8,2.2,2.8
				C118.2,11.1,119,9.9,119,8.3z"/>
			<path class="st3" d="M121,10.6l0.5-0.5c0.5,0.6,1.2,1,2.2,1c1.2,0,1.8-0.5,1.8-1.2c0-0.8-0.5-1.1-1.9-1.4c-1.7-0.4-2.4-0.8-2.4-2
				c0-1,0.8-1.8,2.3-1.8c1.1,0,1.9,0.4,2.5,1l-0.5,0.6c-0.6-0.5-1.2-0.8-2-0.8c-1,0-1.5,0.5-1.5,1c0,0.6,0.4,0.9,1.6,1.2
				c1.8,0.4,2.6,0.9,2.6,2.1c0,1.3-1.1,2-2.7,2C122.5,11.8,121.6,11.3,121,10.6z"/>
			<path class="st3" d="M127.5,10.6L128,10c0.5,0.6,1.2,1,2.2,1c1.2,0,1.8-0.5,1.8-1.2c0-0.8-0.5-1.1-1.9-1.4
				c-1.7-0.4-2.4-0.8-2.4-2c0-1,0.8-1.8,2.3-1.8c1.1,0,1.9,0.4,2.5,1l-0.5,0.6c-0.6-0.5-1.2-0.8-2-0.8c-1,0-1.5,0.5-1.5,1
				c0,0.6,0.4,0.9,1.6,1.2c1.8,0.4,2.6,0.9,2.6,2.1c0,1.3-1.1,2-2.7,2C128.9,11.8,128,11.3,127.5,10.6z"/>
			<path class="st3" d="M134.3,8V7.2h2.9V8H134.3z"/>
			<path class="st3" d="M138.4,11.7l5.6-9.6h0.9l-5.6,9.6H138.4z"/>
			<path class="st3" d="M144.5,10.6L145,10c0.5,0.6,1.2,1,2.2,1c1.2,0,1.8-0.5,1.8-1.2c0-0.8-0.5-1.1-1.9-1.4
				c-1.7-0.4-2.4-0.8-2.4-2c0-1,0.8-1.8,2.3-1.8c1.1,0,1.9,0.4,2.5,1l-0.5,0.6c-0.6-0.5-1.2-0.8-2-0.8c-1,0-1.5,0.5-1.5,1
				c0,0.6,0.4,0.9,1.6,1.2c1.8,0.4,2.6,0.9,2.6,2.1c0,1.3-1.1,2-2.7,2C146,11.8,145.1,11.3,144.5,10.6z"/>
			<path class="st3" d="M151.6,11.7V2.1l0.9-0.1v3.9c0.7-0.7,1.5-1.2,2.6-1.2c1.4,0,2.1,0.7,2.1,2v5h-0.9V6.9c0-1-0.4-1.4-1.4-1.4
				c-0.9,0-1.6,0.5-2.4,1.2v5H151.6z"/>
			<path class="st3" d="M158.7,10.1c0-1.4,1.2-2.3,4.6-2.9V6.9c0-0.9-0.5-1.4-1.4-1.4c-1.1,0-1.8,0.4-2.5,1.1L158.9,6
				c0.8-0.8,1.7-1.3,3.1-1.3c1.5,0,2.2,0.8,2.2,2.2v4.8h-0.8l-0.1-1c-0.8,0.7-1.7,1.1-2.7,1.1C159.4,11.8,158.7,11.1,158.7,10.1z
				 M163.4,10V7.8c-3,0.5-3.8,1.2-3.8,2.1c0,0.7,0.5,1.1,1.2,1.1C161.8,11.1,162.7,10.6,163.4,10z"/>
			<path class="st3" d="M166.2,11.7V4.8h0.8l0.1,1.3h0c0.5-0.8,1.4-1.5,2.7-1.5h0.1l0.1,0.8c0,0-0.3,0-0.3,0c-1.1,0-2,0.6-2.6,1.7
				v4.5H166.2z"/>
			<path class="st3" d="M170.6,8.2c0-2.4,1.6-3.5,3-3.5c1.6,0,2.8,1.2,2.8,3.6v0.2h-4.9c0,1.7,1,2.6,2.2,2.6c0.9,0,1.6-0.4,2.2-1
				l0.4,0.6c-0.8,0.8-1.5,1.2-2.7,1.2C172,11.8,170.6,10.6,170.6,8.2z M175.5,7.7c-0.1-1.3-0.7-2.3-1.9-2.3c-1,0-1.9,0.7-2.1,2.3
				H175.5z"/>
		</g>
	</g>
</g>
</svg>
