<?xml version="1.0" encoding="UTF-8" standalone="no"?>
<svg width="605px" height="239px" viewBox="0 0 605 239" version="1.1" xmlns="http://www.w3.org/2000/svg" xmlns:xlink="http://www.w3.org/1999/xlink">
    <!-- Generator: Sketch 41.2 (35397) - http://www.bohemiancoding.com/sketch -->
    <title>Group</title>
    <desc>Created with Sketch.</desc>
    <defs>
        <linearGradient x1="0%" y1="50%" x2="100%" y2="50%" id="linearGradient-1">
            <stop stop-color="#000000" stop-opacity="0" offset="0%"></stop>
            <stop stop-color="#000000" offset="100%"></stop>
        </linearGradient>
    </defs>
    <g id="Page-1" stroke="none" stroke-width="1" fill="none" fill-rule="evenodd">
        <g id="Group">
            <g id="Page-1">
                <path d="M557.688247,26.6916957 L564.053812,12.8861232 L564.053812,11.6495007 L554.78928,11.6495007 L554.890643,12.9672132 L562.553648,12.9672132 L556.2489,26.6106057 L557.688247,26.6916957 Z M571.039825,26.9349657 C574.56724,26.9349657 576.5134,23.8332732 576.5134,19.1503257 C576.5134,14.4673782 574.56724,11.3656857 571.039825,11.3656857 C567.51241,11.3656857 565.525705,14.4673782 565.525705,19.1503257 C565.525705,23.8332732 567.51241,26.9349657 571.039825,26.9349657 Z M571.039825,25.6577982 C568.56658,25.6577982 566.965052,23.3872782 566.965052,19.1503257 C566.965052,14.9133732 568.48549,12.6428532 571.039825,12.6428532 C573.492797,12.6428532 575.094325,14.9133732 575.094325,19.1503257 C575.094325,23.3872782 573.573887,25.6577982 571.039825,25.6577982 Z" id="70" fill="#FFFFFF"></path>
                <path d="M560.445308,197.791596 C563.972723,197.791596 565.918883,194.689903 565.918883,190.006956 C565.918883,185.324008 563.972723,182.222316 560.445308,182.222316 C556.917893,182.222316 554.931188,185.324008 554.931188,190.006956 C554.931188,194.689903 556.917893,197.791596 560.445308,197.791596 Z M560.445308,196.514428 C557.972063,196.514428 556.370535,194.243908 556.370535,190.006956 C556.370535,185.770003 557.890973,183.499483 560.445308,183.499483 C562.89828,183.499483 564.499808,185.770003 564.499808,190.006956 C564.499808,194.243908 562.97937,196.514428 560.445308,196.514428 Z M568.688215,199.555303 L570.10729,195.602166 L568.363855,195.602166 L567.83677,199.555303 L568.688215,199.555303 Z M577.47848,197.811868 C580.843715,197.811868 582.810148,196.007616 582.810148,193.879003 C582.810148,191.689573 581.350528,190.615131 578.796193,189.500143 C580.924805,188.547336 582.120883,187.614801 582.120883,185.830821 C582.120883,183.986023 580.47881,182.202043 577.47848,182.202043 C574.538968,182.202043 572.815805,183.986023 572.815805,185.830821 C572.815805,187.655346 574.052428,188.628426 576.09995,189.540688 C573.626705,190.615131 572.12654,191.770663 572.12654,193.879003 C572.12654,196.048161 574.092973,197.811868 577.47848,197.811868 Z M577.539298,188.952786 C575.248505,187.959433 574.214608,187.249896 574.214608,185.830821 C574.214608,184.634743 575.329595,183.418393 577.47848,183.418393 C579.728728,183.418393 580.72208,184.695561 580.72208,185.891638 C580.72208,187.290441 579.789545,187.979706 577.539298,188.952786 Z M577.47848,196.595518 C575.187688,196.595518 573.545615,195.439986 573.545615,193.797913 C573.545615,192.196386 574.741693,191.284123 577.39739,190.108318 C579.971998,191.182761 581.391073,192.115296 581.391073,193.797913 C581.391073,195.500803 579.749,196.595518 577.47848,196.595518 Z M592.897853,197.507781 L592.897853,193.879003 L595.452188,193.879003 L595.39137,192.601836 L592.897853,192.601836 L592.897853,182.506131 L591.113873,182.506131 L584.28204,192.804561 L584.28204,193.879003 L591.49905,193.879003 L591.49905,197.507781 L592.897853,197.507781 Z M591.458505,184.188748 L591.49905,184.188748 L591.49905,192.601836 L585.90384,192.601836 L591.458505,184.188748 Z" id="0,84" fill="#FFFFFF"></path>
                <path d="M250.2236,56.7595 L604.6066,56.7595" id="Stroke-1" stroke="#1364A5"></path>
                <path d="M563.101005,115.590151 L563.101005,111.961373 L565.65534,111.961373 L565.594523,110.684206 L563.101005,110.684206 L563.101005,100.588501 L561.317025,100.588501 L554.485193,110.886931 L554.485193,111.961373 L561.702203,111.961373 L561.702203,115.590151 L563.101005,115.590151 Z M561.661658,102.271118 L561.702203,102.271118 L561.702203,110.684206 L556.106993,110.684206 L561.661658,102.271118 Z M568.201675,117.637673 L569.62075,113.684536 L567.877315,113.684536 L567.35023,117.637673 L568.201675,117.637673 Z M576.931123,108.738046 C574.498423,108.738046 573.484798,107.258153 573.484798,105.271448 C573.484798,102.919838 574.903873,101.561581 577.052758,101.561581 C579.01919,101.561581 580.681535,103.082018 580.985623,106.528343 C580.032815,107.846056 578.593468,108.738046 576.931123,108.738046 Z M576.606763,115.873966 C579.99227,115.873966 582.42497,112.447913 582.42497,107.825783 C582.42497,102.676568 580.032815,100.304686 577.113575,100.304686 C574.011883,100.304686 572.085995,102.453571 572.085995,105.291721 C572.085995,108.008236 573.606433,109.974668 576.768943,109.974668 C578.674558,109.974668 580.07336,109.001588 581.026168,107.967691 C581.04644,111.697831 579.34355,114.617071 576.606763,114.617071 C575.066053,114.617071 574.31597,114.171076 573.383435,113.400721 L572.734715,114.535981 C573.58616,115.286063 574.782238,115.873966 576.606763,115.873966 Z" id="4,9" fill="#FFFFFF"></path>
                <g id="Group-4" transform="translate(272.000000, 0.321000)" fill="#FFFFFF">
                    <path d="M3.2693967,13.1378063 L8.5740185,1.63319662 L8.5740185,0.602680917 L0.8535976,0.602680917 L0.9380661,1.70077142 L7.3238847,1.70077142 L2.069944,13.0702315 L3.2693967,13.1378063 Z M15.6444788,13.1040189 L15.6444788,10.0800466 L17.773085,10.0800466 L17.7224039,9.01574352 L15.6444788,9.01574352 L15.6444788,0.602680917 L14.1578332,0.602680917 L8.4646563,9.18468052 L8.4646563,10.0800466 L14.4788135,10.0800466 L14.4788135,13.1040189 L15.6444788,13.1040189 Z M14.4450261,2.00485802 L14.4788135,2.00485802 L14.4788135,9.01574352 L9.8161523,9.01574352 L14.4450261,2.00485802 Z" id="74"></path>
                </g>
                <path d="M263.511586,163.670119 L263.511586,151.168781 L262.413495,151.168781 L259.794972,152.097934 L259.947015,153.094663 L262.34592,152.283765 L262.34592,163.670119 L263.511586,163.670119 Z M267.980416,165.376383 L269.162975,162.082111 L267.710117,162.082111 L267.270881,165.376383 L267.980416,165.376383 Z M275.304282,163.906631 C278.243786,163.906631 279.865581,161.321895 279.865581,157.41945 C279.865581,153.517005 278.243786,150.932269 275.304282,150.932269 C272.364778,150.932269 270.709196,153.517005 270.709196,157.41945 C270.709196,161.321895 272.364778,163.906631 275.304282,163.906631 Z M275.304282,162.842328 C273.243251,162.842328 271.908648,160.950233 271.908648,157.41945 C271.908648,153.888667 273.175676,151.996572 275.304282,151.996572 C277.34842,151.996572 278.683022,153.888667 278.683022,157.41945 C278.683022,160.950233 277.415994,162.842328 275.304282,162.842328 Z M286.175825,163.906631 C288.760561,163.906631 290.365462,162.115899 290.365462,159.750781 C290.365462,157.487025 289.098435,155.848336 286.463018,155.848336 C284.87501,155.848336 283.692451,156.659233 282.898447,157.520812 C282.898447,154.395478 284.317518,151.979679 286.631955,151.979679 C287.746939,151.979679 288.355112,152.283765 289.03086,152.824364 L289.588352,151.878316 C288.929498,151.337718 288.051025,150.932269 286.648848,150.932269 C283.776919,150.932269 281.732782,153.787304 281.732782,157.639068 C281.732782,161.930068 283.743132,163.906631 286.175825,163.906631 Z M286.226506,162.876115 C284.570923,162.876115 283.202534,161.592194 282.949128,158.720265 C283.743132,157.622174 284.942585,156.878852 286.327868,156.878852 C288.355112,156.878852 289.199797,158.112092 289.199797,159.767674 C289.199797,161.727343 288.000344,162.876115 286.226506,162.876115 Z" id="1,06" fill="#FFFFFF"></path>
                <g id="Group-6" transform="translate(284.000000, 227.321000)" fill="#F3F3F3">
                    <path d="M7.1158,10.896266 L7.0458,10.000266 L1.5018,10.000266 C1.5438,9.07626595 2.4958,7.94226595 4.3578,6.75226595 C6.3458,5.49226595 7.0318,4.59626595 7.0318,3.18226595 C7.0318,1.51626595 5.8698,0.340265954 3.9798,0.340265954 C2.4818,0.340265954 1.3198,1.12426595 0.6198,2.55226595 L1.3618,3.04226595 C1.9638,1.81026595 2.7898,1.22226595 3.9378,1.22226595 C5.3378,1.22226595 6.0658,2.04826595 6.0658,3.23826595 C6.0658,4.35826595 5.4358,5.07226595 3.8818,6.05226595 C1.1518,7.80226595 0.4098,9.17426595 0.4098,10.672266 L0.4098,10.896266 L7.1158,10.896266 Z M12.3858,11.092266 C14.8218,11.092266 16.1658,8.95026595 16.1658,5.71626595 C16.1658,2.48226595 14.8218,0.340265954 12.3858,0.340265954 C9.9498,0.340265954 8.5778,2.48226595 8.5778,5.71626595 C8.5778,8.95026595 9.9498,11.092266 12.3858,11.092266 Z M12.3858,10.210266 C10.6778,10.210266 9.5718,8.64226595 9.5718,5.71626595 C9.5718,2.79026595 10.6218,1.22226595 12.3858,1.22226595 C14.0798,1.22226595 15.1858,2.79026595 15.1858,5.71626595 C15.1858,8.64226595 14.1358,10.210266 12.3858,10.210266 Z M20.9738,10.896266 L20.9738,0.536265954 L20.0638,0.536265954 L17.8938,1.30626595 L18.0198,2.13226595 L20.0078,1.46026595 L20.0078,10.896266 L20.9738,10.896266 Z M26.9438,11.092266 C29.1418,11.092266 30.4998,9.53826595 30.4998,7.46626595 C30.4998,5.39426595 29.1698,4.07826595 27.2938,4.07826595 C26.1878,4.07826595 25.5018,4.45626595 24.9978,5.04426595 L25.2778,1.44626595 L29.9118,1.44626595 L29.8838,0.536265954 L24.4518,0.536265954 L24.0458,5.95426595 L24.7878,6.23426595 C25.3478,5.42226595 26.0898,4.93226595 27.1538,4.93226595 C28.5258,4.93226595 29.5198,5.85626595 29.5198,7.50826595 C29.5198,8.88026595 28.7218,10.210266 26.9298,10.210266 C25.6838,10.210266 24.8158,9.55226595 24.1998,8.61426595 L23.5558,9.24426595 C24.2418,10.336266 25.4458,11.092266 26.9438,11.092266 Z" id="2015"></path>
                    <path d="M246.3058,10.896266 L246.2358,10.000266 L240.6918,10.000266 C240.7338,9.07626595 241.6858,7.94226595 243.5478,6.75226595 C245.5358,5.49226595 246.2218,4.59626595 246.2218,3.18226595 C246.2218,1.51626595 245.0598,0.340265954 243.1698,0.340265954 C241.6718,0.340265954 240.5098,1.12426595 239.8098,2.55226595 L240.5518,3.04226595 C241.1538,1.81026595 241.9798,1.22226595 243.1278,1.22226595 C244.5278,1.22226595 245.2558,2.04826595 245.2558,3.23826595 C245.2558,4.35826595 244.6258,5.07226595 243.0718,6.05226595 C240.3418,7.80226595 239.5998,9.17426595 239.5998,10.672266 L239.5998,10.896266 L246.3058,10.896266 Z M251.5758,11.092266 C254.0118,11.092266 255.3558,8.95026595 255.3558,5.71626595 C255.3558,2.48226595 254.0118,0.340265954 251.5758,0.340265954 C249.1398,0.340265954 247.7678,2.48226595 247.7678,5.71626595 C247.7678,8.95026595 249.1398,11.092266 251.5758,11.092266 Z M251.5758,10.210266 C249.8678,10.210266 248.7618,8.64226595 248.7618,5.71626595 C248.7618,2.79026595 249.8118,1.22226595 251.5758,1.22226595 C253.2698,1.22226595 254.3758,2.79026595 254.3758,5.71626595 C254.3758,8.64226595 253.3258,10.210266 251.5758,10.210266 Z M260.1638,10.896266 L260.1638,0.536265954 L259.2538,0.536265954 L257.0838,1.30626595 L257.2098,2.13226595 L259.1978,1.46026595 L259.1978,10.896266 L260.1638,10.896266 Z M266.4838,11.092266 C268.6258,11.092266 269.9558,9.60826595 269.9558,7.64826595 C269.9558,5.77226595 268.9058,4.41426595 266.7218,4.41426595 C265.4058,4.41426595 264.4258,5.08626595 263.7678,5.80026595 C263.7678,3.21026595 264.9438,1.20826595 266.8618,1.20826595 C267.7858,1.20826595 268.2898,1.46026595 268.8498,1.90826595 L269.3118,1.12426595 C268.7658,0.676265954 268.0378,0.340265954 266.8758,0.340265954 C264.4958,0.340265954 262.8018,2.70626595 262.8018,5.89826595 C262.8018,9.45426595 264.4678,11.092266 266.4838,11.092266 Z M266.5258,10.238266 C265.1538,10.238266 264.0198,9.17426595 263.8098,6.79426595 C264.4678,5.88426595 265.4618,5.26826595 266.6098,5.26826595 C268.2898,5.26826595 268.9898,6.29026595 268.9898,7.66226595 C268.9898,9.28626595 267.9958,10.238266 266.5258,10.238266 Z" id="2016"></path>
                </g>
                <path d="M271.874217,96.1219307 C274.526528,96.1219307 276.165217,94.24673 276.165217,91.7464624 C276.165217,89.2461948 274.560315,87.658187 272.29656,87.658187 C270.961957,87.658187 270.134166,88.1143169 269.525993,88.8238523 L269.863867,84.4821714 L275.455681,84.4821714 L275.421894,83.3840809 L268.867138,83.3840809 L268.377221,89.9219428 L269.272587,90.2598168 C269.948335,89.2799822 270.843701,88.6887027 272.127623,88.6887027 C273.783205,88.6887027 274.982658,89.8036869 274.982658,91.7971435 C274.982658,93.4527261 274.019717,95.0576276 271.857323,95.0576276 C270.353784,95.0576276 269.306375,94.2636237 268.563052,93.1317458 L267.785942,93.8919623 C268.613733,95.2096709 270.066591,96.1219307 271.874217,96.1219307 Z M278.640591,97.5916826 L279.82315,94.2974111 L278.370292,94.2974111 L277.931055,97.5916826 L278.640591,97.5916826 Z M287.974807,95.8854189 L287.974807,92.8614466 L290.103413,92.8614466 L290.052732,91.7971435 L287.974807,91.7971435 L287.974807,83.3840809 L286.488161,83.3840809 L280.794984,91.9660805 L280.794984,92.8614466 L286.809142,92.8614466 L286.809142,95.8854189 L287.974807,95.8854189 Z M286.775354,84.786258 L286.809142,84.786258 L286.809142,91.7971435 L282.14648,91.7971435 L286.775354,84.786258 Z" id="5,4" fill="#FFFFFF"></path>
                <path d="M301.6472,216.2356 L301.6472,220.5226" id="Stroke-7" stroke="#1364A5"></path>
                <path d="M541.0234,216.2356 L541.0234,220.5416" id="Stroke-8" stroke="#1364A5"></path>
                <g id="Group-16" transform="translate(0.000000, 20.321000)">
                    <path d="M250.2236,116.8467 L604.6066,116.8467 L250.2236,116.8467 Z" id="Stroke-9" stroke="#1364A5"></path>
                    <path d="M250.2236,195.9146 L604.6066,195.9146" id="Stroke-11" stroke="#1364A5"></path>
                    <path d="M5.7,12.0751635 L5.7,2.71516352 L9.255,2.71516352 L8.985,0.975163522 L0.405,0.975163522 L0.405,2.71516352 L3.825,2.71516352 L3.825,12.0751635 L5.7,12.0751635 Z M10.315,12.0751635 L11.245,9.43516352 L15.46,9.43516352 L16.405,12.2251635 L18.22,11.9251635 L14.335,0.930163522 L12.505,0.930163522 L8.575,12.0751635 L10.315,12.0751635 Z M13.36,3.28516352 L13.39,3.28516352 L14.92,7.78516352 L11.8,7.78516352 L13.36,3.28516352 Z M23.51,12.2851635 C26.15,12.2851635 27.62,10.8601635 27.62,9.06016352 C27.62,6.96016352 25.94,6.28516352 23.84,5.67016352 C22.025,5.13016352 21.23,4.77016352 21.23,3.73516352 C21.23,3.01516352 21.95,2.46016352 23.21,2.46016352 C24.38,2.46016352 25.55,3.07516352 26.435,3.85516352 L27.32,2.35516352 C26.27,1.48516352 24.875,0.765163522 23.18,0.765163522 C20.96,0.765163522 19.4,2.01016352 19.4,3.88516352 C19.4,6.00016352 21.11,6.57016352 23.255,7.20016352 C25.085,7.75516352 25.79,8.20516352 25.79,9.18016352 C25.79,10.1401635 24.845,10.6201635 23.45,10.6201635 C22.085,10.6201635 20.69,9.85516352 19.835,8.97016352 L18.83,10.3951635 C19.955,11.4601635 21.515,12.2851635 23.51,12.2851635 Z M30.165,12.0751635 L31.095,9.43516352 L35.31,9.43516352 L36.255,12.2251635 L38.07,11.9251635 L34.185,0.930163522 L32.355,0.930163522 L28.425,12.0751635 L30.165,12.0751635 Z M33.21,3.28516352 L33.24,3.28516352 L34.77,7.78516352 L31.65,7.78516352 L33.21,3.28516352 Z M46.265,12.0751635 C49.7,12.0751635 52.04,10.4401635 52.04,6.48016352 C52.04,2.59516352 49.745,0.975163522 46.265,0.975163522 L43.115,0.975163522 L43.115,12.0751635 L46.265,12.0751635 Z M44.975,2.71516352 L46.4,2.71516352 C48.98,2.71516352 50.165,3.91516352 50.165,6.51016352 C50.165,9.21016352 48.995,10.3801635 46.43,10.3801635 L44.975,10.3801635 L44.975,2.71516352 Z M61.515,12.0751635 L61.515,10.3801635 L55.92,10.3801635 L55.92,7.14016352 L60.24,7.14016352 L59.97,5.47516352 L55.92,5.47516352 L55.92,2.71516352 L61.215,2.71516352 L61.215,0.975163522 L54.045,0.975163522 L54.045,12.0751635 L61.515,12.0751635 Z M71.555,12.2851635 C73.88,12.2851635 75.23,11.1001635 75.89,9.27016352 L74.27,8.53516352 C73.835,9.78016352 72.935,10.6051635 71.555,10.6051635 C69.62,10.6051635 68.51,9.04516352 68.51,6.48016352 C68.51,4.05016352 69.56,2.49016352 71.45,2.49016352 C72.785,2.49016352 73.595,3.24016352 74.03,4.27516352 L75.62,3.33016352 C74.855,1.68016352 73.55,0.765163522 71.45,0.765163522 C68.72,0.765163522 66.635,2.85016352 66.635,6.49516352 C66.635,10.2451635 68.69,12.2851635 71.555,12.2851635 Z M82.17,12.2851635 C84.84,12.2851635 87.165,10.2601635 87.165,6.52516352 C87.165,2.79016352 84.84,0.765163522 82.17,0.765163522 C79.485,0.765163522 77.16,2.79016352 77.16,6.52516352 C77.16,10.2601635 79.485,12.2851635 82.17,12.2851635 Z M82.17,10.6051635 C80.295,10.6051635 79.035,9.04516352 79.035,6.52516352 C79.035,4.00516352 80.295,2.49016352 82.17,2.49016352 C84.045,2.49016352 85.305,4.00516352 85.305,6.52516352 C85.305,9.04516352 84.045,10.6051635 82.17,10.6051635 Z M93.655,12.0751635 C95.92,12.0751635 97.585,11.0701635 97.585,9.03016352 C97.585,7.32016352 96.55,6.54016352 95.29,6.31516352 L95.29,6.28516352 C96.325,6.06016352 97.255,5.26516352 97.255,3.73516352 C97.255,1.69516352 95.62,0.975163522 93.385,0.975163522 L89.185,0.975163522 L89.185,12.0751635 L93.655,12.0751635 Z M91.03,2.61016352 L93.235,2.61016352 C94.795,2.61016352 95.455,3.10516352 95.455,4.08016352 C95.455,5.08516352 94.675,5.61016352 93.205,5.61016352 L91.03,5.61016352 L91.03,2.61016352 Z M91.03,7.20016352 L93.265,7.20016352 C94.84,7.20016352 95.755,7.72516352 95.755,8.85016352 C95.755,9.87016352 95.05,10.4551635 93.46,10.4551635 L91.03,10.4551635 L91.03,7.20016352 Z M107.21,12.0751635 L107.21,10.3801635 L101.615,10.3801635 L101.615,7.14016352 L105.935,7.14016352 L105.665,5.47516352 L101.615,5.47516352 L101.615,2.71516352 L106.91,2.71516352 L106.91,0.975163522 L99.74,0.975163522 L99.74,12.0751635 L107.21,12.0751635 Z M110.925,12.0751635 L110.925,7.69516352 L112.89,7.69516352 L115.575,12.2251635 L117.405,11.9251635 L114.765,7.45516352 C116.295,7.06516352 117.21,6.15016352 117.21,4.38016352 C117.21,2.02516352 115.68,0.975163522 113.055,0.975163522 L109.08,0.975163522 L109.08,12.0751635 L110.925,12.0751635 Z M110.925,2.68516352 L112.965,2.68516352 C114.555,2.68516352 115.38,3.12016352 115.38,4.35016352 C115.38,5.61016352 114.555,6.06016352 112.965,6.06016352 L110.925,6.06016352 L110.925,2.68516352 Z M123.61,12.0751635 L123.61,2.71516352 L127.165,2.71516352 L126.895,0.975163522 L118.315,0.975163522 L118.315,2.71516352 L121.735,2.71516352 L121.735,12.0751635 L123.61,12.0751635 Z M132.875,12.2701635 C135.8,12.2701635 137.165,10.5301635 137.165,8.01016352 L137.165,0.975163522 L135.32,0.975163522 L135.32,7.95016352 C135.32,9.55516352 134.585,10.5601635 132.89,10.5601635 C131.18,10.5601635 130.445,9.52516352 130.445,7.93516352 L130.445,0.975163522 L128.57,0.975163522 L128.57,8.04016352 C128.57,10.5301635 129.935,12.2701635 132.875,12.2701635 Z M141.405,12.0751635 L141.405,7.69516352 L143.37,7.69516352 L146.055,12.2251635 L147.885,11.9251635 L145.245,7.45516352 C146.775,7.06516352 147.69,6.15016352 147.69,4.38016352 C147.69,2.02516352 146.16,0.975163522 143.535,0.975163522 L139.56,0.975163522 L139.56,12.0751635 L141.405,12.0751635 Z M141.405,2.68516352 L143.445,2.68516352 C145.035,2.68516352 145.86,3.12016352 145.86,4.35016352 C145.86,5.61016352 145.035,6.06016352 143.445,6.06016352 L141.405,6.06016352 L141.405,2.68516352 Z M150.655,12.0751635 L151.585,9.43516352 L155.8,9.43516352 L156.745,12.2251635 L158.56,11.9251635 L154.675,0.930163522 L152.845,0.930163522 L148.915,12.0751635 L150.655,12.0751635 Z M153.7,3.28516352 L153.73,3.28516352 L155.26,7.78516352 L152.14,7.78516352 L153.7,3.28516352 Z M171.61,14.2951635 C169.945,12.6451635 168.865,10.4401635 168.865,7.87516352 C168.865,5.32516352 169.93,3.16516352 171.55,1.50016352 L170.71,0.600163522 C168.265,2.65516352 166.915,4.93516352 166.915,7.87516352 C166.915,10.8151635 168.265,13.0951635 170.71,15.1501635 L171.61,14.2951635 Z M175.73,7.81516352 C177.485,7.81516352 178.52,6.39016352 178.52,4.29016352 C178.52,2.17516352 177.455,0.810163522 175.745,0.810163522 C174.02,0.810163522 172.94,2.17516352 172.94,4.32016352 C172.94,6.42016352 173.96,7.81516352 175.73,7.81516352 Z M177.545,12.0751635 L184.175,0.975163522 L182.57,0.975163522 L175.94,12.0751635 L177.545,12.0751635 Z M175.745,6.60016352 C174.89,6.60016352 174.485,5.70016352 174.485,4.29016352 C174.485,2.95516352 174.875,2.04016352 175.73,2.04016352 C176.555,2.04016352 176.96,2.92516352 176.96,4.32016352 C176.96,5.65516352 176.57,6.60016352 175.745,6.60016352 Z M184.385,12.2251635 C186.14,12.2251635 187.175,10.7851635 187.175,8.70016352 C187.175,6.58516352 186.11,5.20516352 184.4,5.20516352 C182.675,5.20516352 181.595,6.58516352 181.595,8.73016352 C181.595,10.8151635 182.63,12.2251635 184.385,12.2251635 Z M184.4,10.9951635 C183.545,10.9951635 183.155,10.1101635 183.155,8.70016352 C183.155,7.36516352 183.53,6.45016352 184.385,6.45016352 C185.225,6.45016352 185.615,7.32016352 185.615,8.71516352 C185.615,10.0501635 185.24,10.9951635 184.4,10.9951635 Z M189.405,15.1501635 C191.85,13.0951635 193.2,10.8151635 193.2,7.87516352 C193.2,4.93516352 191.85,2.65516352 189.405,0.600163522 L188.55,1.50016352 C190.185,3.16516352 191.25,5.32516352 191.25,7.87516352 C191.25,10.4401635 190.17,12.6451635 188.52,14.2951635 L189.405,15.1501635 Z" id="TASA-DE-COBERTURA--(%)" fill="#FFFFFF"></path>
                    <path d="M5.7,87.6901635 L5.7,78.3301635 L9.255,78.3301635 L8.985,76.5901635 L0.405,76.5901635 L0.405,78.3301635 L3.825,78.3301635 L3.825,87.6901635 L5.7,87.6901635 Z M10.315,87.6901635 L11.245,85.0501635 L15.46,85.0501635 L16.405,87.8401635 L18.22,87.5401635 L14.335,76.5451635 L12.505,76.5451635 L8.575,87.6901635 L10.315,87.6901635 Z M13.36,78.9001635 L13.39,78.9001635 L14.92,83.4001635 L11.8,83.4001635 L13.36,78.9001635 Z M23.51,87.9001635 C26.15,87.9001635 27.62,86.4751635 27.62,84.6751635 C27.62,82.5751635 25.94,81.9001635 23.84,81.2851635 C22.025,80.7451635 21.23,80.3851635 21.23,79.3501635 C21.23,78.6301635 21.95,78.0751635 23.21,78.0751635 C24.38,78.0751635 25.55,78.6901635 26.435,79.4701635 L27.32,77.9701635 C26.27,77.1001635 24.875,76.3801635 23.18,76.3801635 C20.96,76.3801635 19.4,77.6251635 19.4,79.5001635 C19.4,81.6151635 21.11,82.1851635 23.255,82.8151635 C25.085,83.3701635 25.79,83.8201635 25.79,84.7951635 C25.79,85.7551635 24.845,86.2351635 23.45,86.2351635 C22.085,86.2351635 20.69,85.4701635 19.835,84.5851635 L18.83,86.0101635 C19.955,87.0751635 21.515,87.9001635 23.51,87.9001635 Z M30.165,87.6901635 L31.095,85.0501635 L35.31,85.0501635 L36.255,87.8401635 L38.07,87.5401635 L34.185,76.5451635 L32.355,76.5451635 L28.425,87.6901635 L30.165,87.6901635 Z M33.21,78.9001635 L33.24,78.9001635 L34.77,83.4001635 L31.65,83.4001635 L33.21,78.9001635 Z M46.265,87.6901635 C49.7,87.6901635 52.04,86.0551635 52.04,82.0951635 C52.04,78.2101635 49.745,76.5901635 46.265,76.5901635 L43.115,76.5901635 L43.115,87.6901635 L46.265,87.6901635 Z M44.975,78.3301635 L46.4,78.3301635 C48.98,78.3301635 50.165,79.5301635 50.165,82.1251635 C50.165,84.8251635 48.995,85.9951635 46.43,85.9951635 L44.975,85.9951635 L44.975,78.3301635 Z M61.515,87.6901635 L61.515,85.9951635 L55.92,85.9951635 L55.92,82.7551635 L60.24,82.7551635 L59.97,81.0901635 L55.92,81.0901635 L55.92,78.3301635 L61.215,78.3301635 L61.215,76.5901635 L54.045,76.5901635 L54.045,87.6901635 L61.515,87.6901635 Z M68.87,87.6901635 L68.87,79.3201635 L68.9,79.3201635 C69.14,80.4001635 69.305,80.8651635 69.56,81.6601635 L71.72,87.6901635 L73.385,87.6901635 L75.56,81.6601635 C75.8,80.8801635 76.04,80.1751635 76.205,79.3951635 L76.235,79.3951635 L76.235,87.6901635 L78.05,87.6901635 L78.05,76.5901635 L75.545,76.5901635 L72.65,85.3951635 L72.62,85.3951635 L69.635,76.5901635 L67.175,76.5901635 L67.175,87.6901635 L68.87,87.6901635 Z M85.065,87.9001635 C87.735,87.9001635 90.06,85.8751635 90.06,82.1401635 C90.06,78.4051635 87.735,76.3801635 85.065,76.3801635 C82.38,76.3801635 80.055,78.4051635 80.055,82.1401635 C80.055,85.8751635 82.38,87.9001635 85.065,87.9001635 Z M85.065,86.2201635 C83.19,86.2201635 81.93,84.6601635 81.93,82.1401635 C81.93,79.6201635 83.19,78.1051635 85.065,78.1051635 C86.94,78.1051635 88.2,79.6201635 88.2,82.1401635 C88.2,84.6601635 86.94,86.2201635 85.065,86.2201635 Z M93.925,87.6901635 L93.925,83.3101635 L95.89,83.3101635 L98.575,87.8401635 L100.405,87.5401635 L97.765,83.0701635 C99.295,82.6801635 100.21,81.7651635 100.21,79.9951635 C100.21,77.6401635 98.68,76.5901635 96.055,76.5901635 L92.08,76.5901635 L92.08,87.6901635 L93.925,87.6901635 Z M93.925,78.3001635 L95.965,78.3001635 C97.555,78.3001635 98.38,78.7351635 98.38,79.9651635 C98.38,81.2251635 97.555,81.6751635 95.965,81.6751635 L93.925,81.6751635 L93.925,78.3001635 Z M103.175,87.6901635 L104.105,85.0501635 L108.32,85.0501635 L109.265,87.8401635 L111.08,87.5401635 L107.195,76.5451635 L105.365,76.5451635 L101.435,87.6901635 L103.175,87.6901635 Z M106.22,78.9001635 L106.25,78.9001635 L107.78,83.4001635 L104.66,83.4001635 L106.22,78.9001635 Z M120.34,89.9101635 C118.675,88.2601635 117.595,86.0551635 117.595,83.4901635 C117.595,80.9401635 118.66,78.7801635 120.28,77.1151635 L119.44,76.2151635 C116.995,78.2701635 115.645,80.5501635 115.645,83.4901635 C115.645,86.4301635 116.995,88.7101635 119.44,90.7651635 L120.34,89.9101635 Z M124.46,83.4301635 C126.215,83.4301635 127.25,82.0051635 127.25,79.9051635 C127.25,77.7901635 126.185,76.4251635 124.475,76.4251635 C122.75,76.4251635 121.67,77.7901635 121.67,79.9351635 C121.67,82.0351635 122.69,83.4301635 124.46,83.4301635 Z M126.275,87.6901635 L132.905,76.5901635 L131.3,76.5901635 L124.67,87.6901635 L126.275,87.6901635 Z M124.475,82.2151635 C123.62,82.2151635 123.215,81.3151635 123.215,79.9051635 C123.215,78.5701635 123.605,77.6551635 124.46,77.6551635 C125.285,77.6551635 125.69,78.5401635 125.69,79.9351635 C125.69,81.2701635 125.3,82.2151635 124.475,82.2151635 Z M133.115,87.8401635 C134.87,87.8401635 135.905,86.4001635 135.905,84.3151635 C135.905,82.2001635 134.84,80.8201635 133.13,80.8201635 C131.405,80.8201635 130.325,82.2001635 130.325,84.3451635 C130.325,86.4301635 131.36,87.8401635 133.115,87.8401635 Z M133.13,86.6101635 C132.275,86.6101635 131.885,85.7251635 131.885,84.3151635 C131.885,82.9801635 132.26,82.0651635 133.115,82.0651635 C133.955,82.0651635 134.345,82.9351635 134.345,84.3301635 C134.345,85.6651635 133.97,86.6101635 133.13,86.6101635 Z M138.135,90.7651635 C140.58,88.7101635 141.93,86.4301635 141.93,83.4901635 C141.93,80.5501635 140.58,78.2701635 138.135,76.2151635 L137.28,77.1151635 C138.915,78.7801635 139.98,80.9401635 139.98,83.4901635 C139.98,86.0551635 138.9,88.2601635 137.25,89.9101635 L138.135,90.7651635 Z" id="TASA-DE-MORA-(%)" fill="#FFFFFF"></path>
                    <path d="M5.64,163.110164 C7.965,163.110164 9.315,161.925164 9.975,160.095164 L8.355,159.360164 C7.92,160.605164 7.02,161.430164 5.64,161.430164 C3.705,161.430164 2.595,159.870164 2.595,157.305164 C2.595,154.875164 3.645,153.315164 5.535,153.315164 C6.87,153.315164 7.68,154.065164 8.115,155.100164 L9.705,154.155164 C8.94,152.505164 7.635,151.590164 5.535,151.590164 C2.805,151.590164 0.72,153.675164 0.72,157.320164 C0.72,161.070164 2.775,163.110164 5.64,163.110164 Z M16.255,163.110164 C18.925,163.110164 21.25,161.085164 21.25,157.350164 C21.25,153.615164 18.925,151.590164 16.255,151.590164 C13.57,151.590164 11.245,153.615164 11.245,157.350164 C11.245,161.085164 13.57,163.110164 16.255,163.110164 Z M16.255,161.430164 C14.38,161.430164 13.12,159.870164 13.12,157.350164 C13.12,154.830164 14.38,153.315164 16.255,153.315164 C18.13,153.315164 19.39,154.830164 19.39,157.350164 C19.39,159.870164 18.13,161.430164 16.255,161.430164 Z M27.08,163.110164 C29.72,163.110164 31.19,161.685164 31.19,159.885164 C31.19,157.785164 29.51,157.110164 27.41,156.495164 C25.595,155.955164 24.8,155.595164 24.8,154.560164 C24.8,153.840164 25.52,153.285164 26.78,153.285164 C27.95,153.285164 29.12,153.900164 30.005,154.680164 L30.89,153.180164 C29.84,152.310164 28.445,151.590164 26.75,151.590164 C24.53,151.590164 22.97,152.835164 22.97,154.710164 C22.97,156.825164 24.68,157.395164 26.825,158.025164 C28.655,158.580164 29.36,159.030164 29.36,160.005164 C29.36,160.965164 28.415,161.445164 27.02,161.445164 C25.655,161.445164 24.26,160.680164 23.405,159.795164 L22.4,161.220164 C23.525,162.285164 25.085,163.110164 27.08,163.110164 Z M37.17,162.900164 L37.17,153.540164 L40.725,153.540164 L40.455,151.800164 L31.875,151.800164 L31.875,153.540164 L35.295,153.540164 L35.295,162.900164 L37.17,162.900164 Z M49.75,162.900164 L49.75,161.205164 L44.155,161.205164 L44.155,157.965164 L48.475,157.965164 L48.205,156.300164 L44.155,156.300164 L44.155,153.540164 L49.45,153.540164 L49.45,151.800164 L42.28,151.800164 L42.28,162.900164 L49.75,162.900164 Z M58.56,162.900164 C61.995,162.900164 64.335,161.265164 64.335,157.305164 C64.335,153.420164 62.04,151.800164 58.56,151.800164 L55.41,151.800164 L55.41,162.900164 L58.56,162.900164 Z M57.27,153.540164 L58.695,153.540164 C61.275,153.540164 62.46,154.740164 62.46,157.335164 C62.46,160.035164 61.29,161.205164 58.725,161.205164 L57.27,161.205164 L57.27,153.540164 Z M73.81,162.900164 L73.81,161.205164 L68.215,161.205164 L68.215,157.965164 L72.535,157.965164 L72.265,156.300164 L68.215,156.300164 L68.215,153.540164 L73.51,153.540164 L73.51,151.800164 L66.34,151.800164 L66.34,162.900164 L73.81,162.900164 Z M81.315,162.900164 L81.315,158.520164 L83.28,158.520164 L85.965,163.050164 L87.795,162.750164 L85.155,158.280164 C86.685,157.890164 87.6,156.975164 87.6,155.205164 C87.6,152.850164 86.07,151.800164 83.445,151.800164 L79.47,151.800164 L79.47,162.900164 L81.315,162.900164 Z M81.315,153.510164 L83.355,153.510164 C84.945,153.510164 85.77,153.945164 85.77,155.175164 C85.77,156.435164 84.945,156.885164 83.355,156.885164 L81.315,156.885164 L81.315,153.510164 Z M91.855,162.900164 L91.855,151.800164 L89.995,151.800164 L89.995,162.900164 L91.855,162.900164 Z M102.005,162.900164 L102.005,161.205164 L96.41,161.205164 L96.41,157.965164 L100.73,157.965164 L100.46,156.300164 L96.41,156.300164 L96.41,153.540164 L101.705,153.540164 L101.705,151.800164 L94.535,151.800164 L94.535,162.900164 L102.005,162.900164 Z M107.61,163.110164 C110.25,163.110164 111.72,161.685164 111.72,159.885164 C111.72,157.785164 110.04,157.110164 107.94,156.495164 C106.125,155.955164 105.33,155.595164 105.33,154.560164 C105.33,153.840164 106.05,153.285164 107.31,153.285164 C108.48,153.285164 109.65,153.900164 110.535,154.680164 L111.42,153.180164 C110.37,152.310164 108.975,151.590164 107.28,151.590164 C105.06,151.590164 103.5,152.835164 103.5,154.710164 C103.5,156.825164 105.21,157.395164 107.355,158.025164 C109.185,158.580164 109.89,159.030164 109.89,160.005164 C109.89,160.965164 108.945,161.445164 107.55,161.445164 C106.185,161.445164 104.79,160.680164 103.935,159.795164 L102.93,161.220164 C104.055,162.285164 105.615,163.110164 107.61,163.110164 Z M117.805,163.110164 C119.335,163.110164 120.415,162.495164 120.865,161.655164 L120.895,161.655164 L120.895,162.900164 L122.44,162.900164 L122.44,157.410164 L118.27,157.410164 L118.54,158.925164 L120.655,158.925164 C120.535,160.485164 119.515,161.430164 118.045,161.430164 C116.47,161.430164 114.985,160.260164 114.985,157.260164 C114.985,154.260164 116.65,153.315164 118.03,153.315164 C119.275,153.315164 120.07,153.975164 120.535,155.085164 L122.14,154.215164 C121.3,152.370164 119.68,151.590164 117.955,151.590164 C115.045,151.590164 113.095,153.825164 113.095,157.305164 C113.095,160.635164 114.67,163.110164 117.805,163.110164 Z M129.305,163.110164 C131.975,163.110164 134.3,161.085164 134.3,157.350164 C134.3,153.615164 131.975,151.590164 129.305,151.590164 C126.62,151.590164 124.295,153.615164 124.295,157.350164 C124.295,161.085164 126.62,163.110164 129.305,163.110164 Z M129.305,161.430164 C127.43,161.430164 126.17,159.870164 126.17,157.350164 C126.17,154.830164 127.43,153.315164 129.305,153.315164 C131.18,153.315164 132.44,154.830164 132.44,157.350164 C132.44,159.870164 131.18,161.430164 129.305,161.430164 Z M144.325,165.120164 C142.66,163.470164 141.58,161.265164 141.58,158.700164 C141.58,156.150164 142.645,153.990164 144.265,152.325164 L143.425,151.425164 C140.98,153.480164 139.63,155.760164 139.63,158.700164 C139.63,161.640164 140.98,163.920164 143.425,165.975164 L144.325,165.120164 Z M148.445,158.640164 C150.2,158.640164 151.235,157.215164 151.235,155.115164 C151.235,153.000164 150.17,151.635164 148.46,151.635164 C146.735,151.635164 145.655,153.000164 145.655,155.145164 C145.655,157.245164 146.675,158.640164 148.445,158.640164 Z M150.26,162.900164 L156.89,151.800164 L155.285,151.800164 L148.655,162.900164 L150.26,162.900164 Z M148.46,157.425164 C147.605,157.425164 147.2,156.525164 147.2,155.115164 C147.2,153.780164 147.59,152.865164 148.445,152.865164 C149.27,152.865164 149.675,153.750164 149.675,155.145164 C149.675,156.480164 149.285,157.425164 148.46,157.425164 Z M157.1,163.050164 C158.855,163.050164 159.89,161.610164 159.89,159.525164 C159.89,157.410164 158.825,156.030164 157.115,156.030164 C155.39,156.030164 154.31,157.410164 154.31,159.555164 C154.31,161.640164 155.345,163.050164 157.1,163.050164 Z M157.115,161.820164 C156.26,161.820164 155.87,160.935164 155.87,159.525164 C155.87,158.190164 156.245,157.275164 157.1,157.275164 C157.94,157.275164 158.33,158.145164 158.33,159.540164 C158.33,160.875164 157.955,161.820164 157.115,161.820164 Z M162.12,165.975164 C164.565,163.920164 165.915,161.640164 165.915,158.700164 C165.915,155.760164 164.565,153.480164 162.12,151.425164 L161.265,152.325164 C162.9,153.990164 163.965,156.150164 163.965,158.700164 C163.965,161.265164 162.885,163.470164 161.235,165.120164 L162.12,165.975164 Z" id="COSTE-DE-RIESGO-(%)" fill="#FFFFFF"></path>
                </g>
                <rect id="Rectangle-2" fill-opacity="0.1" fill="url(#linearGradient-1)" x="442" y="198" width="99" height="10"></rect>
                <rect id="Rectangle-2-Copy" fill-opacity="0.1" fill="url(#linearGradient-1)" x="442" y="108" width="99" height="10"></rect>
                <rect id="Rectangle-2-Copy-2" fill-opacity="0.1" fill="url(#linearGradient-1)" x="443" y="20" width="99" height="10"></rect>
                <polygon id="Fill-19" fill="#D8BE75" points="301.5276 151.5564 301.5276 161.6594 541.0216 208.0004 541.0216 197.8984"></polygon>
                <polygon id="Fill-21" fill="#1364A5" points="302.5276 7.4631 302.5276 16.4391 542.0216 29.7201 542.0216 20.7441"></polygon>
                <polygon id="Fill-17" fill="#45C2C4" points="301.5276 86.8967 301.5276 96.9997 541.0216 118.3307 541.0216 108.2287"></polygon>
            </g>
        </g>
    </g>
</svg>