<?xml version="1.0" encoding="UTF-8" standalone="no"?>
<svg width="775px" height="351px" viewBox="0 0 775 351" version="1.1" xmlns="http://www.w3.org/2000/svg" xmlns:xlink="http://www.w3.org/1999/xlink">
    <!-- Generator: Sketch 41.2 (35397) - http://www.bohemiancoding.com/sketch -->
    <title>Group</title>
    <desc>Created with Sketch.</desc>
    <defs>
        <linearGradient x1="11.6489743%" y1="26.0734114%" x2="78.8876087%" y2="98.5953555%" id="linearGradient-1">
            <stop stop-color="#000000" stop-opacity="0" offset="0%"></stop>
            <stop stop-color="#000000" offset="100%"></stop>
        </linearGradient>
    </defs>
    <g id="Page-1" stroke="none" stroke-width="1" fill="none" fill-rule="evenodd">
        <g id="Group" transform="translate(-2.000000, -1.000000)">
            <g id="Page-1">
                <path d="M6.9051,313.504964 C9.2301,313.504964 10.5801,312.319964 11.2401,310.489964 L9.6201,309.754964 C9.1851,310.999964 8.2851,311.824964 6.9051,311.824964 C4.9701,311.824964 3.8601,310.264964 3.8601,307.699964 C3.8601,305.269964 4.9101,303.709964 6.8001,303.709964 C8.1351,303.709964 8.9451,304.459964 9.3801,305.494964 L10.9701,304.549964 C10.2051,302.899964 8.9001,301.984964 6.8001,301.984964 C4.0701,301.984964 1.9851,304.069964 1.9851,307.714964 C1.9851,311.464964 4.0401,313.504964 6.9051,313.504964 Z M20.6701,313.294964 L20.6701,311.599964 L15.0751,311.599964 L15.0751,308.359964 L19.3951,308.359964 L19.1251,306.694964 L15.0751,306.694964 L15.0751,303.934964 L20.3701,303.934964 L20.3701,302.194964 L13.2001,302.194964 L13.2001,313.294964 L20.6701,313.294964 Z M26.9801,313.294964 L26.9801,303.934964 L30.5351,303.934964 L30.2651,302.194964 L21.6851,302.194964 L21.6851,303.934964 L25.1051,303.934964 L25.1051,313.294964 L26.9801,313.294964 Z M35.6301,313.294964 L35.6301,302.194964 L33.8901,302.194964 L31.4601,302.959964 L31.7001,304.489964 L33.8301,303.889964 L33.8301,313.294964 L35.6301,313.294964 Z" id="CET1-" fill="#FFFFFF"></path>
                <path d="M45.2601,313.294964 L46.0851,308.569964 L49.9401,308.569964 L49.9401,306.904964 L46.3851,306.904964 L46.8951,303.934964 L51.8601,303.934964 L52.1751,302.194964 L45.3351,302.194964 L43.3851,313.294964 L45.2601,313.294964 Z M53.2051,313.459964 C54.4051,313.459964 55.4251,312.799964 55.9651,312.169964 L55.9201,313.294964 L57.6151,313.294964 L59.0251,305.329964 L57.1801,305.329964 L56.1901,310.924964 C55.5601,311.509964 54.8101,311.914964 54.1201,311.914964 C53.2051,311.914964 52.9051,311.464964 53.0551,310.594964 L53.9851,305.329964 L52.1401,305.329964 L51.1501,310.954964 C50.8801,312.529964 51.6151,313.459964 53.2051,313.459964 Z M61.6301,313.294964 L63.6101,302.044964 L61.7051,302.344964 L59.7851,313.294964 L61.6301,313.294964 Z M65.7351,313.294964 L67.7151,302.044964 L65.8101,302.344964 L63.8901,313.294964 L65.7351,313.294964 Z M68.5201,316.384964 C69.7501,316.384964 70.4401,315.754964 71.1301,314.494964 L76.2001,305.329964 L74.3551,305.329964 L71.3551,311.134964 L71.3251,311.134964 L70.3501,305.179964 L68.5051,305.479964 L70.0201,313.339964 L69.6601,313.999964 C69.3751,314.539964 69.0301,314.839964 68.4451,314.839964 C68.0401,314.839964 67.4401,314.659964 67.1851,314.539964 L66.5701,316.039964 C66.9601,316.204964 67.6351,316.384964 68.5201,316.384964 Z M80.0651,309.244964 L80.3051,307.924964 L76.6001,307.924964 L76.3601,309.244964 L80.0651,309.244964 Z M83.1501,313.294964 L85.1301,302.044964 L83.2251,302.344964 L81.3051,313.294964 L83.1501,313.294964 Z M88.9201,313.459964 C90.9451,313.459964 93.2851,312.064964 93.2851,308.614964 C93.2851,306.334964 91.7401,305.179964 89.8651,305.179964 C87.8551,305.179964 85.5001,306.529964 85.5001,310.009964 C85.5001,312.274964 87.0451,313.459964 88.9201,313.459964 Z M89.0701,311.959964 C87.8401,311.959964 87.3601,311.179964 87.3601,310.039964 C87.3601,307.924964 88.3951,306.709964 89.7001,306.709964 C90.9151,306.709964 91.4251,307.504964 91.4251,308.644964 C91.4251,310.789964 90.3601,311.959964 89.0701,311.959964 Z M96.7901,312.004964 C96.0701,312.004964 95.6801,311.644964 95.6801,311.119964 C95.6801,310.159964 96.5501,309.559964 99.2951,309.334964 L98.9951,311.074964 C98.3201,311.629964 97.6001,312.004964 96.7901,312.004964 Z M95.9951,313.429964 C96.9101,313.429964 97.8851,313.099964 98.7851,312.274964 L98.7851,313.294964 L100.4201,313.294964 L101.3201,308.209964 C101.6351,306.424964 100.9901,305.179964 98.6501,305.179964 C96.9401,305.179964 95.6651,305.719964 94.9451,306.349964 L95.7551,307.489964 C96.4601,306.949964 97.4351,306.694964 98.3051,306.694964 C99.3401,306.694964 99.7301,307.069964 99.5651,307.864964 L99.5201,308.089964 C95.5301,308.329964 93.8051,309.574964 93.8051,311.494964 C93.8051,312.649964 94.6451,313.429964 95.9951,313.429964 Z M106.0401,311.959964 C105.0201,311.959964 104.4351,311.314964 104.4351,310.129964 C104.4351,307.654964 105.7251,306.754964 106.7601,306.754964 C107.5701,306.754964 108.1251,307.069964 108.5451,307.549964 L107.9301,310.999964 C107.3601,311.614964 106.7301,311.959964 106.0401,311.959964 Z M105.2901,313.429964 C106.3551,313.429964 107.1501,312.979964 107.7051,312.244964 L107.7051,313.294964 L109.3701,313.294964 L111.3501,302.044964 L109.4451,302.344964 L108.8001,306.094964 C108.3051,305.554964 107.4951,305.179964 106.3251,305.179964 C104.5551,305.179964 102.5751,306.739964 102.5751,310.279964 C102.5751,312.469964 103.8051,313.429964 105.2901,313.429964 Z M115.0501,313.459964 C116.6701,313.459964 117.6151,312.934964 118.5001,312.109964 L117.7201,310.939964 C116.8951,311.614964 116.2801,311.989964 115.2901,311.989964 C114.4351,311.989964 113.4301,311.659964 113.4301,310.099964 L113.4301,309.919964 L118.7551,309.919964 L118.8301,309.484964 C119.2951,306.814964 118.2901,305.179964 115.9051,305.179964 C114.4501,305.179964 111.6301,306.229964 111.6301,310.069964 C111.6301,312.304964 113.0551,313.459964 115.0501,313.459964 Z M113.6251,308.539964 C114.0001,307.279964 114.8401,306.679964 115.7701,306.679964 C117.0601,306.679964 117.4351,307.414964 117.3151,308.539964 L113.6251,308.539964 Z M123.4151,311.959964 C122.3951,311.959964 121.8101,311.314964 121.8101,310.129964 C121.8101,307.654964 123.1001,306.754964 124.1351,306.754964 C124.9451,306.754964 125.5001,307.069964 125.9201,307.549964 L125.3051,310.999964 C124.7351,311.614964 124.1051,311.959964 123.4151,311.959964 Z M122.6651,313.429964 C123.7301,313.429964 124.5251,312.979964 125.0801,312.244964 L125.0801,313.294964 L126.7451,313.294964 L128.7251,302.044964 L126.8201,302.344964 L126.1751,306.094964 C125.6801,305.554964 124.8701,305.179964 123.7001,305.179964 C121.9301,305.179964 119.9501,306.739964 119.9501,310.279964 C119.9501,312.469964 121.1801,313.429964 122.6651,313.429964 Z M137.3551,315.859964 C135.4801,314.149964 134.2801,311.854964 134.2801,309.199964 C134.2801,306.559964 135.4801,304.264964 137.3401,302.554964 L136.8751,302.029964 C134.4301,304.084964 133.1401,306.364964 133.1401,309.199964 C133.1401,312.049964 134.4301,314.314964 136.8751,316.369964 L137.3551,315.859964 Z M141.5951,308.704964 C143.1701,308.704964 144.0851,307.294964 144.0851,305.344964 C144.0851,303.334964 143.1401,302.044964 141.6101,302.044964 C140.0801,302.044964 139.1051,303.334964 139.1051,305.404964 C139.1051,307.354964 139.9901,308.704964 141.5951,308.704964 Z M142.6151,313.294964 L149.2451,302.194964 L148.2851,302.194964 L141.6551,313.294964 L142.6151,313.294964 Z M141.6101,307.894964 C140.6051,307.894964 140.0501,306.859964 140.0501,305.344964 C140.0501,303.949964 140.5901,302.854964 141.5951,302.854964 C142.5851,302.854964 143.1401,303.874964 143.1401,305.374964 C143.1401,306.784964 142.6001,307.894964 141.6101,307.894964 Z M149.2901,313.444964 C150.8801,313.444964 151.7951,312.034964 151.7951,310.099964 C151.7951,308.074964 150.8501,306.784964 149.3201,306.784964 C147.7901,306.784964 146.8001,308.089964 146.8001,310.144964 C146.8001,312.094964 147.7001,313.444964 149.2901,313.444964 Z M149.3051,312.634964 C148.3001,312.634964 147.7601,311.599964 147.7601,310.099964 C147.7601,308.689964 148.2851,307.594964 149.2901,307.594964 C150.2951,307.594964 150.8351,308.614964 150.8351,310.114964 C150.8351,311.524964 150.3101,312.634964 149.3051,312.634964 Z M154.0251,316.369964 C156.4701,314.314964 157.7751,312.049964 157.7751,309.199964 C157.7751,306.364964 156.4701,304.084964 154.0251,302.029964 L153.5601,302.554964 C155.4201,304.264964 156.6351,306.559964 156.6351,309.199964 C156.6351,311.854964 155.4201,314.149964 153.5601,315.859964 L154.0251,316.369964 Z" id="Fully-loaded-(%)" fill="#FFFFFF"></path>
                <g id="Group-3" transform="translate(4.000000, 331.628000)">
                    <path d="M31.383,14.3334562 L31.383,10.7334562 L34.839,10.7334562 L34.839,8.44745623 L31.383,8.44745623 L31.383,4.84745623 L29.079,4.84745623 L29.079,8.44745623 L25.623,8.44745623 L25.623,10.7334562 L29.079,10.7334562 L29.079,14.3334562 L31.383,14.3334562 Z M41.311,16.1514562 C44.587,16.1514562 46.585,14.2074562 46.585,11.3634562 C46.585,8.77145623 45.091,6.91745623 42.247,6.91745623 C40.897,6.91745623 40.015,7.31345623 39.565,7.74545623 L39.817,4.79345623 L45.685,4.79345623 L45.469,2.57945623 L37.567,2.57945623 L37.027,9.74345623 L38.917,10.3374562 C39.601,9.49145623 40.465,9.05945623 41.365,9.05945623 C42.877,9.05945623 43.669,9.95945623 43.669,11.4714562 C43.669,12.8394562 42.895,13.8294562 41.131,13.8294562 C39.835,13.8294562 38.557,13.1994562 37.639,12.3894562 L36.451,14.4774562 C37.621,15.4854562 39.169,16.1514562 41.311,16.1514562 Z M52.733,16.1514562 C56.081,16.1514562 58.079,14.7474562 58.079,12.4614562 C58.079,10.4634562 56.873,9.61745623 55.163,8.86145623 C56.603,8.21345623 57.467,7.09745623 57.467,5.69345623 C57.467,4.01945623 55.973,2.32745623 52.733,2.32745623 C49.583,2.32745623 47.981,4.00145623 47.981,5.69345623 C47.981,7.38545623 48.863,8.19545623 50.321,8.95145623 C48.701,9.61745623 47.369,10.7874562 47.369,12.4614562 C47.369,14.7654562 49.385,16.1514562 52.733,16.1514562 Z M52.931,7.90745623 C51.599,7.38545623 50.825,6.91745623 50.825,5.90945623 C50.825,5.17145623 51.365,4.39745623 52.751,4.39745623 C54.137,4.39745623 54.641,5.26145623 54.641,5.96345623 C54.641,6.80945623 54.137,7.31345623 52.931,7.90745623 Z M52.733,14.1534562 C51.203,14.1534562 50.321,13.3074562 50.321,12.2994562 C50.321,11.3454562 51.149,10.6434562 52.517,9.97745623 C54.335,10.7154562 55.145,11.2734562 55.145,12.2994562 C55.145,13.3254562 54.263,14.1534562 52.733,14.1534562 Z" id="+58-" fill="#FFFFFF"></path>
                    <path d="M68.0208,14.4914611 C67.3328,14.4914611 66.8688,14.2354611 66.3088,13.7074611 L66.3088,10.5554611 C66.7408,10.1234611 67.3328,9.72346109 67.9888,9.72346109 C69.1408,9.72346109 69.6368,10.6194611 69.6368,12.0434611 C69.6368,13.5954611 69.0928,14.4914611 68.0208,14.4914611 Z M66.3088,19.3074611 L66.3088,15.2914611 C66.9488,16.0114611 67.7488,16.4274611 68.9008,16.4274611 C70.8528,16.4274611 72.2128,14.9714611 72.2128,12.0274611 C72.2128,9.08346109 70.8688,7.59546109 68.9328,7.59546109 C67.6688,7.59546109 66.8688,8.29946109 66.3088,9.06746109 L66.1168,7.77146109 L63.7328,7.77146109 L63.7328,19.6914611 L66.3088,19.3074611 Z M76.1248,16.4754611 C77.6128,16.4754611 78.5568,15.6274611 79.0688,14.9714611 L79.2608,16.2994611 L81.6448,16.2994611 L81.6448,7.77146109 L79.0688,7.77146109 L79.0688,13.5634611 C78.4928,14.0594611 77.9008,14.4274611 77.2128,14.4274611 C76.4928,14.4274611 76.2048,14.0114611 76.2048,13.2434611 L76.2048,7.77146109 L73.6288,7.77146109 L73.6288,13.9954611 C73.6288,15.7554611 74.6688,16.4754611 76.1248,16.4754611 Z M86.1808,16.2994611 L86.1808,10.5714611 C86.7568,10.0754611 87.3488,9.72346109 88.0368,9.72346109 C88.7568,9.72346109 89.0448,10.1234611 89.0448,10.8914611 L89.0448,16.2994611 L91.6048,16.2994611 L91.6048,10.0754611 C91.6048,8.31546109 90.5648,7.59546109 89.1248,7.59546109 C87.6368,7.59546109 86.6928,8.44346109 86.1808,9.11546109 L85.9888,7.77146109 L83.6048,7.77146109 L83.6048,16.2994611 L86.1808,16.2994611 Z M97.0528,16.4114611 C97.6608,16.4114611 98.6688,16.3154611 98.8768,16.2674611 L98.7008,14.3954611 C98.4448,14.4754611 98.1408,14.5394611 97.8208,14.5394611 C97.1488,14.5394611 96.7168,14.3634611 96.7168,13.4514611 L96.7168,9.64346109 L98.9088,9.64346109 L98.9088,7.77146109 L96.7168,7.77146109 L96.7168,4.65146109 L94.1568,5.03546109 L94.1568,7.77146109 L92.7328,7.77146109 L92.7328,9.64346109 L94.1568,9.64346109 L94.1568,13.7394611 C94.1568,15.7874611 95.0528,16.4114611 97.0528,16.4114611 Z M104.1488,16.4754611 C106.2128,16.4754611 108.5008,15.3554611 108.5008,12.0434611 C108.5008,8.69946109 106.2128,7.59546109 104.1488,7.59546109 C102.0688,7.59546109 99.7808,8.69946109 99.7808,12.0434611 C99.7808,15.3554611 102.0848,16.4754611 104.1488,16.4754611 Z M104.1488,14.6674611 C102.8368,14.6674611 102.3568,13.4834611 102.3568,12.0594611 C102.3568,10.5234611 102.9168,9.48346109 104.1488,9.48346109 C105.4288,9.48346109 105.9248,10.6354611 105.9248,12.0594611 C105.9248,13.6114611 105.3648,14.6674611 104.1488,14.6674611 Z M113.1808,16.4754611 C115.1488,16.4754611 116.9408,15.6594611 116.9408,13.5954611 C116.9408,11.6594611 115.1648,11.2754611 113.4848,10.9874611 C112.4288,10.7954611 111.9648,10.5874611 111.9648,10.0754611 C111.9648,9.61146109 112.3808,9.32346109 113.1168,9.32346109 C113.9168,9.32346109 114.9088,9.61146109 115.7888,10.1394611 L116.5728,8.60346109 C115.5648,7.99546109 114.4768,7.59546109 112.8928,7.59546109 C110.9888,7.59546109 109.5808,8.58746109 109.5808,10.2994611 C109.5808,12.2994611 111.3088,12.6834611 112.9248,12.9714611 C114.0928,13.1794611 114.5408,13.4034611 114.5408,13.9954611 C114.5408,14.5554611 113.9808,14.8274611 113.1808,14.8274611 C112.1408,14.8274611 110.9408,14.3314611 110.1088,13.7554611 L109.2448,15.2594611 C110.1728,15.8994611 111.4688,16.4754611 113.1808,16.4754611 Z M127.8208,16.4274611 C129.7728,16.4274611 131.1328,14.9714611 131.1328,12.0274611 C131.1328,9.08346109 129.7888,7.59546109 127.8528,7.59546109 C126.5888,7.59546109 125.7888,8.29946109 125.2288,9.08346109 L125.2288,4.26746109 L122.6528,4.65146109 L122.6528,16.2994611 L125.0368,16.2994611 L125.2288,15.2914611 C125.8688,16.0114611 126.6688,16.4274611 127.8208,16.4274611 Z M126.9408,14.4914611 C126.2528,14.4914611 125.7888,14.2354611 125.2288,13.7074611 L125.2288,10.5554611 C125.6608,10.1234611 126.2528,9.72346109 126.9088,9.72346109 C128.0608,9.72346109 128.5568,10.6194611 128.5568,12.0434611 C128.5568,13.5954611 128.0128,14.4914611 126.9408,14.4914611 Z M134.8208,6.85946109 L136.5168,6.85946109 L138.9008,4.09146109 L136.3088,4.09146109 L134.8208,6.85946109 Z M135.3648,14.4914611 C134.8048,14.4914611 134.4208,14.2194611 134.4208,13.6754611 C134.4208,12.8914611 135.2848,12.3794611 137.3168,12.1714611 L137.3168,13.7554611 C136.8848,14.1874611 136.2608,14.4914611 135.3648,14.4914611 Z M134.3408,16.4274611 C135.6048,16.4274611 136.5328,15.9314611 137.3168,15.0514611 L137.5088,16.2994611 L139.8288,16.2994611 L139.8288,10.9394611 C139.8288,8.74746109 138.8368,7.59546109 136.4048,7.59546109 C134.2928,7.59546109 133.0128,8.36346109 132.1648,9.14746109 L133.5568,10.5394611 C134.2608,9.97946109 135.0768,9.53146109 136.0368,9.53146109 C136.9648,9.53146109 137.3168,9.93146109 137.3168,10.5554611 L137.3168,10.7634611 C133.5728,11.0674611 131.9088,12.1554611 131.9088,14.1234611 C131.9088,15.5794611 133.0288,16.4274611 134.3408,16.4274611 Z M145.0528,16.4754611 C147.0208,16.4754611 148.8128,15.6594611 148.8128,13.5954611 C148.8128,11.6594611 147.0368,11.2754611 145.3568,10.9874611 C144.3008,10.7954611 143.8368,10.5874611 143.8368,10.0754611 C143.8368,9.61146109 144.2528,9.32346109 144.9888,9.32346109 C145.7888,9.32346109 146.7808,9.61146109 147.6608,10.1394611 L148.4448,8.60346109 C147.4368,7.99546109 146.3488,7.59546109 144.7648,7.59546109 C142.8608,7.59546109 141.4528,8.58746109 141.4528,10.2994611 C141.4528,12.2994611 143.1808,12.6834611 144.7968,12.9714611 C145.9648,13.1794611 146.4128,13.4034611 146.4128,13.9954611 C146.4128,14.5554611 145.8528,14.8274611 145.0528,14.8274611 C144.0128,14.8274611 142.8128,14.3314611 141.9808,13.7554611 L141.1168,15.2594611 C142.0448,15.8994611 143.3408,16.4754611 145.0528,16.4754611 Z M151.5888,6.93946109 C152.5488,6.93946109 153.0608,6.34746109 153.0608,5.64346109 C153.0608,4.92346109 152.5488,4.34746109 151.5888,4.34746109 C150.6448,4.34746109 150.1488,4.92346109 150.1488,5.64346109 C150.1488,6.34746109 150.6448,6.93946109 151.5888,6.93946109 Z M152.8848,16.2994611 L152.8848,7.77146109 L150.3248,7.77146109 L150.3248,16.2994611 L152.8848,16.2994611 Z M158.6528,16.4754611 C160.2848,16.4754611 161.8208,15.8034611 162.6368,14.0754611 L160.7328,13.1314611 C160.3008,14.1074611 159.6768,14.6674611 158.7808,14.6674611 C157.5168,14.6674611 157.0368,13.5794611 157.0368,12.0594611 C157.0368,10.3634611 157.6928,9.48346109 158.7648,9.48346109 C159.6288,9.48346109 160.1568,9.86746109 160.5568,10.8114611 L162.4288,9.85146109 C161.7248,8.28346109 160.2848,7.59546109 158.7648,7.59546109 C156.8768,7.59546109 154.4608,8.63546109 154.4608,12.0434611 C154.4608,15.3554611 156.6528,16.4754611 158.6528,16.4754611 Z M167.6048,16.4754611 C169.6688,16.4754611 171.9568,15.3554611 171.9568,12.0434611 C171.9568,8.69946109 169.6688,7.59546109 167.6048,7.59546109 C165.5248,7.59546109 163.2368,8.69946109 163.2368,12.0434611 C163.2368,15.3554611 165.5408,16.4754611 167.6048,16.4754611 Z M167.6048,14.6674611 C166.2928,14.6674611 165.8128,13.4834611 165.8128,12.0594611 C165.8128,10.5234611 166.3728,9.48346109 167.6048,9.48346109 C168.8848,9.48346109 169.3808,10.6354611 169.3808,12.0594611 C169.3808,13.6114611 168.8208,14.6674611 167.6048,14.6674611 Z M176.6368,16.4754611 C178.6048,16.4754611 180.3968,15.6594611 180.3968,13.5954611 C180.3968,11.6594611 178.6208,11.2754611 176.9408,10.9874611 C175.8848,10.7954611 175.4208,10.5874611 175.4208,10.0754611 C175.4208,9.61146109 175.8368,9.32346109 176.5728,9.32346109 C177.3728,9.32346109 178.3648,9.61146109 179.2448,10.1394611 L180.0288,8.60346109 C179.0208,7.99546109 177.9328,7.59546109 176.3488,7.59546109 C174.4448,7.59546109 173.0368,8.58746109 173.0368,10.2994611 C173.0368,12.2994611 174.7648,12.6834611 176.3808,12.9714611 C177.5488,13.1794611 177.9968,13.4034611 177.9968,13.9954611 C177.9968,14.5554611 177.4368,14.8274611 176.6368,14.8274611 C175.5968,14.8274611 174.3968,14.3314611 173.5648,13.7554611 L172.7008,15.2594611 C173.6288,15.8994611 174.9248,16.4754611 176.6368,16.4754611 Z" id="puntos-básicos" fill="#FFFFFF"></path>
                    <path d="M14.4937,8.6914 L13.3957,9.7894 L10.5237,6.9104 L10.5547,16.2404 L9.0417,14.7044 L9.0417,6.8864 L6.0927,9.8204 L4.9867,8.7214 L9.7557,3.9534 L14.4937,8.6914 Z M0.5177,10.0964 C0.5177,15.1874 4.6417,19.3114 9.7327,19.3114 C14.8237,19.3114 18.9477,15.1874 18.9477,10.0964 C18.9477,5.0044 14.8237,0.8814 9.7327,0.8814 C4.6417,0.8814 0.5177,5.0044 0.5177,10.0964 L0.5177,10.0964 Z" id="Fill-2" fill="#2ECDCD"></path>
                </g>
                <path d="M286.5262,313.504964 C288.8512,313.504964 290.2012,312.319964 290.8612,310.489964 L289.2412,309.754964 C288.8062,310.999964 287.9062,311.824964 286.5262,311.824964 C284.5912,311.824964 283.4812,310.264964 283.4812,307.699964 C283.4812,305.269964 284.5312,303.709964 286.4212,303.709964 C287.7562,303.709964 288.5662,304.459964 289.0012,305.494964 L290.5912,304.549964 C289.8262,302.899964 288.5212,301.984964 286.4212,301.984964 C283.6912,301.984964 281.6062,304.069964 281.6062,307.714964 C281.6062,311.464964 283.6612,313.504964 286.5262,313.504964 Z M300.2912,313.294964 L300.2912,311.599964 L294.6962,311.599964 L294.6962,308.359964 L299.0162,308.359964 L298.7462,306.694964 L294.6962,306.694964 L294.6962,303.934964 L299.9912,303.934964 L299.9912,302.194964 L292.8212,302.194964 L292.8212,313.294964 L300.2912,313.294964 Z M306.6012,313.294964 L306.6012,303.934964 L310.1562,303.934964 L309.8862,302.194964 L301.3062,302.194964 L301.3062,303.934964 L304.7262,303.934964 L304.7262,313.294964 L306.6012,313.294964 Z M315.2512,313.294964 L315.2512,302.194964 L313.5112,302.194964 L311.0812,302.959964 L311.3212,304.489964 L313.4512,303.889964 L313.4512,313.294964 L315.2512,313.294964 Z" id="CET1-" fill="#FFFFFF"></path>
                <path d="M323.0062,313.294964 L324.8662,313.294964 L325.6012,309.079964 L327.9412,309.079964 C330.1762,309.079964 332.4562,308.149964 332.4562,305.104964 C332.4562,303.064964 330.8062,302.194964 328.2412,302.194964 L324.9562,302.194964 L323.0062,313.294964 Z M325.8862,307.444964 L326.5162,303.904964 L328.1362,303.904964 C329.8612,303.904964 330.5662,304.339964 330.5662,305.314964 C330.5662,306.949964 329.5612,307.444964 328.1212,307.444964 L325.8862,307.444964 Z M334.4462,313.294964 L335.4212,307.744964 C336.0512,307.159964 336.8312,306.754964 337.5062,306.754964 C338.4362,306.754964 338.7362,307.204964 338.5712,308.074964 L337.6562,313.294964 L339.5012,313.294964 L340.4912,307.669964 C340.7762,306.094964 340.0412,305.179964 338.4362,305.179964 C337.2362,305.179964 336.2012,305.824964 335.6612,306.454964 L336.4412,302.044964 L334.5362,302.344964 L332.6012,313.294964 L334.4462,313.294964 Z M344.3112,312.004964 C343.5912,312.004964 343.2012,311.644964 343.2012,311.119964 C343.2012,310.159964 344.0712,309.559964 346.8162,309.334964 L346.5162,311.074964 C345.8412,311.629964 345.1212,312.004964 344.3112,312.004964 Z M343.5162,313.429964 C344.4312,313.429964 345.4062,313.099964 346.3062,312.274964 L346.3062,313.294964 L347.9412,313.294964 L348.8412,308.209964 C349.1562,306.424964 348.5112,305.179964 346.1712,305.179964 C344.4612,305.179964 343.1862,305.719964 342.4662,306.349964 L343.2762,307.489964 C343.9812,306.949964 344.9562,306.694964 345.8262,306.694964 C346.8612,306.694964 347.2512,307.069964 347.0862,307.864964 L347.0412,308.089964 C343.0512,308.329964 341.3262,309.574964 341.3262,311.494964 C341.3262,312.649964 342.1662,313.429964 343.5162,313.429964 Z M353.1712,313.444964 C354.7162,313.444964 356.5462,312.889964 356.5462,310.759964 C356.5462,308.329964 352.5112,308.944964 352.5112,307.504964 C352.5112,306.904964 352.9462,306.619964 353.7262,306.619964 C354.8212,306.619964 355.5712,307.054964 356.1562,307.549964 L357.0412,306.259964 C356.3512,305.704964 355.3912,305.179964 353.6512,305.179964 C352.1212,305.179964 350.7112,306.004964 350.7112,307.744964 C350.7112,310.219964 354.7462,309.634964 354.7462,311.044964 C354.7462,311.839964 354.0862,312.049964 353.2312,312.034964 C352.1362,312.019964 351.1612,311.569964 350.5162,310.819964 L349.6012,312.004964 C350.1412,312.784964 351.3562,313.444964 353.1712,313.444964 Z M361.1312,313.459964 C362.7512,313.459964 363.6962,312.934964 364.5812,312.109964 L363.8012,310.939964 C362.9762,311.614964 362.3612,311.989964 361.3712,311.989964 C360.5162,311.989964 359.5112,311.659964 359.5112,310.099964 L359.5112,309.919964 L364.8362,309.919964 L364.9112,309.484964 C365.3762,306.814964 364.3712,305.179964 361.9862,305.179964 C360.5312,305.179964 357.7112,306.229964 357.7112,310.069964 C357.7112,312.304964 359.1362,313.459964 361.1312,313.459964 Z M359.7062,308.539964 C360.0812,307.279964 360.9212,306.679964 361.8512,306.679964 C363.1412,306.679964 363.5162,307.414964 363.3962,308.539964 L359.7062,308.539964 Z M369.4962,311.959964 C368.4762,311.959964 367.8912,311.314964 367.8912,310.129964 C367.8912,307.654964 369.1812,306.754964 370.2162,306.754964 C371.0262,306.754964 371.5812,307.069964 372.0012,307.549964 L371.3862,310.999964 C370.8162,311.614964 370.1862,311.959964 369.4962,311.959964 Z M368.7462,313.429964 C369.8112,313.429964 370.6062,312.979964 371.1612,312.244964 L371.1612,313.294964 L372.8262,313.294964 L374.8062,302.044964 L372.9012,302.344964 L372.2562,306.094964 C371.7612,305.554964 370.9512,305.179964 369.7812,305.179964 C368.0112,305.179964 366.0312,306.739964 366.0312,310.279964 C366.0312,312.469964 367.2612,313.429964 368.7462,313.429964 Z M379.1362,309.244964 L379.3762,307.924964 L375.6712,307.924964 L375.4312,309.244964 L379.1362,309.244964 Z M382.9412,304.159964 C383.6312,304.159964 384.0362,303.799964 384.1412,303.244964 C384.2462,302.689964 383.9162,302.209964 383.2262,302.209964 C382.5512,302.209964 382.1612,302.569964 382.0562,303.124964 C381.9512,303.679964 382.2662,304.159964 382.9412,304.159964 Z M382.2212,313.294964 L383.6312,305.329964 L381.7862,305.329964 L380.3762,313.294964 L382.2212,313.294964 Z M386.2512,313.294964 L387.2262,307.744964 C387.8562,307.159964 388.6362,306.754964 389.3112,306.754964 C390.2412,306.754964 390.5412,307.204964 390.3762,308.074964 L389.4612,313.294964 L391.3062,313.294964 L392.2962,307.669964 C392.5812,306.094964 391.8462,305.179964 390.2412,305.179964 C389.0412,305.179964 388.0062,305.824964 387.4662,306.454964 L387.5112,305.329964 L385.8162,305.329964 L384.4062,313.294964 L386.2512,313.294964 Z M401.8412,315.859964 C399.9662,314.149964 398.7662,311.854964 398.7662,309.199964 C398.7662,306.559964 399.9662,304.264964 401.8262,302.554964 L401.3612,302.029964 C398.9162,304.084964 397.6262,306.364964 397.6262,309.199964 C397.6262,312.049964 398.9162,314.314964 401.3612,316.369964 L401.8412,315.859964 Z M406.0812,308.704964 C407.6562,308.704964 408.5712,307.294964 408.5712,305.344964 C408.5712,303.334964 407.6262,302.044964 406.0962,302.044964 C404.5662,302.044964 403.5912,303.334964 403.5912,305.404964 C403.5912,307.354964 404.4762,308.704964 406.0812,308.704964 Z M407.1012,313.294964 L413.7312,302.194964 L412.7712,302.194964 L406.1412,313.294964 L407.1012,313.294964 Z M406.0962,307.894964 C405.0912,307.894964 404.5362,306.859964 404.5362,305.344964 C404.5362,303.949964 405.0762,302.854964 406.0812,302.854964 C407.0712,302.854964 407.6262,303.874964 407.6262,305.374964 C407.6262,306.784964 407.0862,307.894964 406.0962,307.894964 Z M413.7762,313.444964 C415.3662,313.444964 416.2812,312.034964 416.2812,310.099964 C416.2812,308.074964 415.3362,306.784964 413.8062,306.784964 C412.2762,306.784964 411.2862,308.089964 411.2862,310.144964 C411.2862,312.094964 412.1862,313.444964 413.7762,313.444964 Z M413.7912,312.634964 C412.7862,312.634964 412.2462,311.599964 412.2462,310.099964 C412.2462,308.689964 412.7712,307.594964 413.7762,307.594964 C414.7812,307.594964 415.3212,308.614964 415.3212,310.114964 C415.3212,311.524964 414.7962,312.634964 413.7912,312.634964 Z M418.5112,316.369964 C420.9562,314.314964 422.2612,312.049964 422.2612,309.199964 C422.2612,306.364964 420.9562,304.084964 418.5112,302.029964 L418.0462,302.554964 C419.9062,304.264964 421.1212,306.559964 421.1212,309.199964 C421.1212,311.854964 419.9062,314.149964 418.0462,315.859964 L418.5112,316.369964 Z" id="Phased-in-(%)" fill="#FFFFFF"></path>
                <g id="Group-6" transform="translate(284.000000, 331.628000)">
                    <path d="M29.7791,16.1514562 C33.1271,16.1514562 35.1251,14.7474562 35.1251,12.4614562 C35.1251,10.4634562 33.9191,9.61745623 32.2091,8.86145623 C33.6491,8.21345623 34.5131,7.09745623 34.5131,5.69345623 C34.5131,4.01945623 33.0191,2.32745623 29.7791,2.32745623 C26.6291,2.32745623 25.0271,4.00145623 25.0271,5.69345623 C25.0271,7.38545623 25.9091,8.19545623 27.3671,8.95145623 C25.7471,9.61745623 24.4151,10.7874562 24.4151,12.4614562 C24.4151,14.7654562 26.4311,16.1514562 29.7791,16.1514562 Z M29.9771,7.90745623 C28.6451,7.38545623 27.8711,6.91745623 27.8711,5.90945623 C27.8711,5.17145623 28.4111,4.39745623 29.7971,4.39745623 C31.1831,4.39745623 31.6871,5.26145623 31.6871,5.96345623 C31.6871,6.80945623 31.1831,7.31345623 29.9771,7.90745623 Z M29.7791,14.1534562 C28.2491,14.1534562 27.3671,13.3074562 27.3671,12.2994562 C27.3671,11.3454562 28.1951,10.6434562 29.5631,9.97745623 C31.3811,10.7154562 32.1911,11.2734562 32.1911,12.2994562 C32.1911,13.3254562 31.3091,14.1534562 29.7791,14.1534562 Z" id="8-" fill="#FFFFFF"></path>
                    <path d="M45.3392,14.4914611 C44.6512,14.4914611 44.1872,14.2354611 43.6272,13.7074611 L43.6272,10.5554611 C44.0592,10.1234611 44.6512,9.72346109 45.3072,9.72346109 C46.4592,9.72346109 46.9552,10.6194611 46.9552,12.0434611 C46.9552,13.5954611 46.4112,14.4914611 45.3392,14.4914611 Z M43.6272,19.3074611 L43.6272,15.2914611 C44.2672,16.0114611 45.0672,16.4274611 46.2192,16.4274611 C48.1712,16.4274611 49.5312,14.9714611 49.5312,12.0274611 C49.5312,9.08346109 48.1872,7.59546109 46.2512,7.59546109 C44.9872,7.59546109 44.1872,8.29946109 43.6272,9.06746109 L43.4352,7.77146109 L41.0512,7.77146109 L41.0512,19.6914611 L43.6272,19.3074611 Z M53.4432,16.4754611 C54.9312,16.4754611 55.8752,15.6274611 56.3872,14.9714611 L56.5792,16.2994611 L58.9632,16.2994611 L58.9632,7.77146109 L56.3872,7.77146109 L56.3872,13.5634611 C55.8112,14.0594611 55.2192,14.4274611 54.5312,14.4274611 C53.8112,14.4274611 53.5232,14.0114611 53.5232,13.2434611 L53.5232,7.77146109 L50.9472,7.77146109 L50.9472,13.9954611 C50.9472,15.7554611 51.9872,16.4754611 53.4432,16.4754611 Z M63.4992,16.2994611 L63.4992,10.5714611 C64.0752,10.0754611 64.6672,9.72346109 65.3552,9.72346109 C66.0752,9.72346109 66.3632,10.1234611 66.3632,10.8914611 L66.3632,16.2994611 L68.9232,16.2994611 L68.9232,10.0754611 C68.9232,8.31546109 67.8832,7.59546109 66.4432,7.59546109 C64.9552,7.59546109 64.0112,8.44346109 63.4992,9.11546109 L63.3072,7.77146109 L60.9232,7.77146109 L60.9232,16.2994611 L63.4992,16.2994611 Z M74.3712,16.4114611 C74.9792,16.4114611 75.9872,16.3154611 76.1952,16.2674611 L76.0192,14.3954611 C75.7632,14.4754611 75.4592,14.5394611 75.1392,14.5394611 C74.4672,14.5394611 74.0352,14.3634611 74.0352,13.4514611 L74.0352,9.64346109 L76.2272,9.64346109 L76.2272,7.77146109 L74.0352,7.77146109 L74.0352,4.65146109 L71.4752,5.03546109 L71.4752,7.77146109 L70.0512,7.77146109 L70.0512,9.64346109 L71.4752,9.64346109 L71.4752,13.7394611 C71.4752,15.7874611 72.3712,16.4114611 74.3712,16.4114611 Z M81.4672,16.4754611 C83.5312,16.4754611 85.8192,15.3554611 85.8192,12.0434611 C85.8192,8.69946109 83.5312,7.59546109 81.4672,7.59546109 C79.3872,7.59546109 77.0992,8.69946109 77.0992,12.0434611 C77.0992,15.3554611 79.4032,16.4754611 81.4672,16.4754611 Z M81.4672,14.6674611 C80.1552,14.6674611 79.6752,13.4834611 79.6752,12.0594611 C79.6752,10.5234611 80.2352,9.48346109 81.4672,9.48346109 C82.7472,9.48346109 83.2432,10.6354611 83.2432,12.0594611 C83.2432,13.6114611 82.6832,14.6674611 81.4672,14.6674611 Z M90.4992,16.4754611 C92.4672,16.4754611 94.2592,15.6594611 94.2592,13.5954611 C94.2592,11.6594611 92.4832,11.2754611 90.8032,10.9874611 C89.7472,10.7954611 89.2832,10.5874611 89.2832,10.0754611 C89.2832,9.61146109 89.6992,9.32346109 90.4352,9.32346109 C91.2352,9.32346109 92.2272,9.61146109 93.1072,10.1394611 L93.8912,8.60346109 C92.8832,7.99546109 91.7952,7.59546109 90.2112,7.59546109 C88.3072,7.59546109 86.8992,8.58746109 86.8992,10.2994611 C86.8992,12.2994611 88.6272,12.6834611 90.2432,12.9714611 C91.4112,13.1794611 91.8592,13.4034611 91.8592,13.9954611 C91.8592,14.5554611 91.2992,14.8274611 90.4992,14.8274611 C89.4592,14.8274611 88.2592,14.3314611 87.4272,13.7554611 L86.5632,15.2594611 C87.4912,15.8994611 88.7872,16.4754611 90.4992,16.4754611 Z M105.1392,16.4274611 C107.0912,16.4274611 108.4512,14.9714611 108.4512,12.0274611 C108.4512,9.08346109 107.1072,7.59546109 105.1712,7.59546109 C103.9072,7.59546109 103.1072,8.29946109 102.5472,9.08346109 L102.5472,4.26746109 L99.9712,4.65146109 L99.9712,16.2994611 L102.3552,16.2994611 L102.5472,15.2914611 C103.1872,16.0114611 103.9872,16.4274611 105.1392,16.4274611 Z M104.2592,14.4914611 C103.5712,14.4914611 103.1072,14.2354611 102.5472,13.7074611 L102.5472,10.5554611 C102.9792,10.1234611 103.5712,9.72346109 104.2272,9.72346109 C105.3792,9.72346109 105.8752,10.6194611 105.8752,12.0434611 C105.8752,13.5954611 105.3312,14.4914611 104.2592,14.4914611 Z M112.1392,6.85946109 L113.8352,6.85946109 L116.2192,4.09146109 L113.6272,4.09146109 L112.1392,6.85946109 Z M112.6832,14.4914611 C112.1232,14.4914611 111.7392,14.2194611 111.7392,13.6754611 C111.7392,12.8914611 112.6032,12.3794611 114.6352,12.1714611 L114.6352,13.7554611 C114.2032,14.1874611 113.5792,14.4914611 112.6832,14.4914611 Z M111.6592,16.4274611 C112.9232,16.4274611 113.8512,15.9314611 114.6352,15.0514611 L114.8272,16.2994611 L117.1472,16.2994611 L117.1472,10.9394611 C117.1472,8.74746109 116.1552,7.59546109 113.7232,7.59546109 C111.6112,7.59546109 110.3312,8.36346109 109.4832,9.14746109 L110.8752,10.5394611 C111.5792,9.97946109 112.3952,9.53146109 113.3552,9.53146109 C114.2832,9.53146109 114.6352,9.93146109 114.6352,10.5554611 L114.6352,10.7634611 C110.8912,11.0674611 109.2272,12.1554611 109.2272,14.1234611 C109.2272,15.5794611 110.3472,16.4274611 111.6592,16.4274611 Z M122.3712,16.4754611 C124.3392,16.4754611 126.1312,15.6594611 126.1312,13.5954611 C126.1312,11.6594611 124.3552,11.2754611 122.6752,10.9874611 C121.6192,10.7954611 121.1552,10.5874611 121.1552,10.0754611 C121.1552,9.61146109 121.5712,9.32346109 122.3072,9.32346109 C123.1072,9.32346109 124.0992,9.61146109 124.9792,10.1394611 L125.7632,8.60346109 C124.7552,7.99546109 123.6672,7.59546109 122.0832,7.59546109 C120.1792,7.59546109 118.7712,8.58746109 118.7712,10.2994611 C118.7712,12.2994611 120.4992,12.6834611 122.1152,12.9714611 C123.2832,13.1794611 123.7312,13.4034611 123.7312,13.9954611 C123.7312,14.5554611 123.1712,14.8274611 122.3712,14.8274611 C121.3312,14.8274611 120.1312,14.3314611 119.2992,13.7554611 L118.4352,15.2594611 C119.3632,15.8994611 120.6592,16.4754611 122.3712,16.4754611 Z M128.9072,6.93946109 C129.8672,6.93946109 130.3792,6.34746109 130.3792,5.64346109 C130.3792,4.92346109 129.8672,4.34746109 128.9072,4.34746109 C127.9632,4.34746109 127.4672,4.92346109 127.4672,5.64346109 C127.4672,6.34746109 127.9632,6.93946109 128.9072,6.93946109 Z M130.2032,16.2994611 L130.2032,7.77146109 L127.6432,7.77146109 L127.6432,16.2994611 L130.2032,16.2994611 Z M135.9712,16.4754611 C137.6032,16.4754611 139.1392,15.8034611 139.9552,14.0754611 L138.0512,13.1314611 C137.6192,14.1074611 136.9952,14.6674611 136.0992,14.6674611 C134.8352,14.6674611 134.3552,13.5794611 134.3552,12.0594611 C134.3552,10.3634611 135.0112,9.48346109 136.0832,9.48346109 C136.9472,9.48346109 137.4752,9.86746109 137.8752,10.8114611 L139.7472,9.85146109 C139.0432,8.28346109 137.6032,7.59546109 136.0832,7.59546109 C134.1952,7.59546109 131.7792,8.63546109 131.7792,12.0434611 C131.7792,15.3554611 133.9712,16.4754611 135.9712,16.4754611 Z M144.9232,16.4754611 C146.9872,16.4754611 149.2752,15.3554611 149.2752,12.0434611 C149.2752,8.69946109 146.9872,7.59546109 144.9232,7.59546109 C142.8432,7.59546109 140.5552,8.69946109 140.5552,12.0434611 C140.5552,15.3554611 142.8592,16.4754611 144.9232,16.4754611 Z M144.9232,14.6674611 C143.6112,14.6674611 143.1312,13.4834611 143.1312,12.0594611 C143.1312,10.5234611 143.6912,9.48346109 144.9232,9.48346109 C146.2032,9.48346109 146.6992,10.6354611 146.6992,12.0594611 C146.6992,13.6114611 146.1392,14.6674611 144.9232,14.6674611 Z M153.9552,16.4754611 C155.9232,16.4754611 157.7152,15.6594611 157.7152,13.5954611 C157.7152,11.6594611 155.9392,11.2754611 154.2592,10.9874611 C153.2032,10.7954611 152.7392,10.5874611 152.7392,10.0754611 C152.7392,9.61146109 153.1552,9.32346109 153.8912,9.32346109 C154.6912,9.32346109 155.6832,9.61146109 156.5632,10.1394611 L157.3472,8.60346109 C156.3392,7.99546109 155.2512,7.59546109 153.6672,7.59546109 C151.7632,7.59546109 150.3552,8.58746109 150.3552,10.2994611 C150.3552,12.2994611 152.0832,12.6834611 153.6992,12.9714611 C154.8672,13.1794611 155.3152,13.4034611 155.3152,13.9954611 C155.3152,14.5554611 154.7552,14.8274611 153.9552,14.8274611 C152.9152,14.8274611 151.7152,14.3314611 150.8832,13.7554611 L150.0192,15.2594611 C150.9472,15.8994611 152.2432,16.4754611 153.9552,16.4754611 Z" id="puntos-básicos" fill="#FFFFFF"></path>
                    <path d="M14.1143,8.6914 L13.0163,9.7894 L10.1443,6.9104 L10.1753,16.2404 L8.6623,14.7044 L8.6623,6.8864 L5.7133,9.8204 L4.6073,8.7214 L9.3763,3.9534 L14.1143,8.6914 Z M0.1383,10.0964 C0.1383,15.1874 4.2623,19.3114 9.3533,19.3114 C14.4443,19.3114 18.5683,15.1874 18.5683,10.0964 C18.5683,5.0044 14.4443,0.8814 9.3533,0.8814 C4.2623,0.8814 0.1383,5.0044 0.1383,10.0964 L0.1383,10.0964 Z" id="Fill-5" fill="#2ECDCD"></path>
                </g>
                <text id="RATIO-DE-CAPITAL-Phased-in" font-family="BentonSansBBVA-Medium, Benton Sans BBVA" font-size="15" font-weight="400" letter-spacing="0.025" fill="#FFFFFF">
                    <tspan x="535.5601" y="313.294964">RATIO DE CAPITAL </tspan>
                    <tspan x="674.3301" y="313.294964" font-family="BentonSansBBVA-MediumItalic, Benton Sans BBVA" font-style="italic" font-weight="500">Phased-in</tspan>
                </text>
                <g id="Group-9" transform="translate(538.000000, 300.628000)">
                    <path d="M218.5672,14.2319635 C216.6922,12.5219635 215.4922,10.2269635 215.4922,7.57196352 C215.4922,4.93196352 216.6922,2.63696352 218.5522,0.926963522 L218.0872,0.401963522 C215.6422,2.45696352 214.3522,4.73696352 214.3522,7.57196352 C214.3522,10.4219635 215.6422,12.6869635 218.0872,14.7419635 L218.5672,14.2319635 Z M222.8072,7.07696352 C224.3822,7.07696352 225.2972,5.66696352 225.2972,3.71696352 C225.2972,1.70696352 224.3522,0.416963522 222.8222,0.416963522 C221.2922,0.416963522 220.3172,1.70696352 220.3172,3.77696352 C220.3172,5.72696352 221.2022,7.07696352 222.8072,7.07696352 Z M223.8272,11.6669635 L230.4572,0.566963522 L229.4972,0.566963522 L222.8672,11.6669635 L223.8272,11.6669635 Z M222.8222,6.26696352 C221.8172,6.26696352 221.2622,5.23196352 221.2622,3.71696352 C221.2622,2.32196352 221.8022,1.22696352 222.8072,1.22696352 C223.7972,1.22696352 224.3522,2.24696352 224.3522,3.74696352 C224.3522,5.15696352 223.8122,6.26696352 222.8222,6.26696352 Z M230.5022,11.8169635 C232.0922,11.8169635 233.0072,10.4069635 233.0072,8.47196352 C233.0072,6.44696352 232.0622,5.15696352 230.5322,5.15696352 C229.0022,5.15696352 228.0122,6.46196352 228.0122,8.51696352 C228.0122,10.4669635 228.9122,11.8169635 230.5022,11.8169635 Z M230.5172,11.0069635 C229.5122,11.0069635 228.9722,9.97196352 228.9722,8.47196352 C228.9722,7.06196352 229.4972,5.96696352 230.5022,5.96696352 C231.5072,5.96696352 232.0472,6.98696352 232.0472,8.48696352 C232.0472,9.89696352 231.5222,11.0069635 230.5172,11.0069635 Z M235.2372,14.7419635 C237.6822,12.6869635 238.9872,10.4219635 238.9872,7.57196352 C238.9872,4.73696352 237.6822,2.45696352 235.2372,0.401963522 L234.7722,0.926963522 C236.6322,2.63696352 237.8472,4.93196352 237.8472,7.57196352 C237.8472,10.2269635 236.6322,12.5219635 234.7722,14.2319635 L235.2372,14.7419635 Z" id="-(%)" fill="#FFFFFF"></path>
                    <path d="M30.8849,46.8994562 L30.8849,33.5794562 L28.1309,33.5794562 L25.1429,34.4434562 L25.5029,36.8374562 L28.0589,36.2254562 L28.0589,46.8994562 L30.8849,46.8994562 Z M42.3969,46.8994562 L42.3969,44.2894562 L44.7549,44.2894562 L44.4669,41.9854562 L42.3969,41.9854562 L42.3969,33.5794562 L39.1749,33.5794562 L33.1089,42.1654562 L33.1089,44.2894562 L39.5709,44.2894562 L39.5709,46.8994562 L42.3969,46.8994562 Z M39.5349,37.0714562 L39.5709,37.0714562 L39.5709,41.9854562 L36.1329,41.9854562 L39.5349,37.0714562 Z" id="14-" fill="#FFFFFF"></path>
                    <path d="M54.7962,45.4914611 C54.1082,45.4914611 53.6442,45.2354611 53.0842,44.7074611 L53.0842,41.5554611 C53.5162,41.1234611 54.1082,40.7234611 54.7642,40.7234611 C55.9162,40.7234611 56.4122,41.6194611 56.4122,43.0434611 C56.4122,44.5954611 55.8682,45.4914611 54.7962,45.4914611 Z M53.0842,50.3074611 L53.0842,46.2914611 C53.7242,47.0114611 54.5242,47.4274611 55.6762,47.4274611 C57.6282,47.4274611 58.9882,45.9714611 58.9882,43.0274611 C58.9882,40.0834611 57.6442,38.5954611 55.7082,38.5954611 C54.4442,38.5954611 53.6442,39.2994611 53.0842,40.0674611 L52.8922,38.7714611 L50.5082,38.7714611 L50.5082,50.6914611 L53.0842,50.3074611 Z M62.9002,47.4754611 C64.3882,47.4754611 65.3322,46.6274611 65.8442,45.9714611 L66.0362,47.2994611 L68.4202,47.2994611 L68.4202,38.7714611 L65.8442,38.7714611 L65.8442,44.5634611 C65.2682,45.0594611 64.6762,45.4274611 63.9882,45.4274611 C63.2682,45.4274611 62.9802,45.0114611 62.9802,44.2434611 L62.9802,38.7714611 L60.4042,38.7714611 L60.4042,44.9954611 C60.4042,46.7554611 61.4442,47.4754611 62.9002,47.4754611 Z M72.9562,47.2994611 L72.9562,41.5714611 C73.5322,41.0754611 74.1242,40.7234611 74.8122,40.7234611 C75.5322,40.7234611 75.8202,41.1234611 75.8202,41.8914611 L75.8202,47.2994611 L78.3802,47.2994611 L78.3802,41.0754611 C78.3802,39.3154611 77.3402,38.5954611 75.9002,38.5954611 C74.4122,38.5954611 73.4682,39.4434611 72.9562,40.1154611 L72.7642,38.7714611 L70.3802,38.7714611 L70.3802,47.2994611 L72.9562,47.2994611 Z M83.8282,47.4114611 C84.4362,47.4114611 85.4442,47.3154611 85.6522,47.2674611 L85.4762,45.3954611 C85.2202,45.4754611 84.9162,45.5394611 84.5962,45.5394611 C83.9242,45.5394611 83.4922,45.3634611 83.4922,44.4514611 L83.4922,40.6434611 L85.6842,40.6434611 L85.6842,38.7714611 L83.4922,38.7714611 L83.4922,35.6514611 L80.9322,36.0354611 L80.9322,38.7714611 L79.5082,38.7714611 L79.5082,40.6434611 L80.9322,40.6434611 L80.9322,44.7394611 C80.9322,46.7874611 81.8282,47.4114611 83.8282,47.4114611 Z M90.9242,47.4754611 C92.9882,47.4754611 95.2762,46.3554611 95.2762,43.0434611 C95.2762,39.6994611 92.9882,38.5954611 90.9242,38.5954611 C88.8442,38.5954611 86.5562,39.6994611 86.5562,43.0434611 C86.5562,46.3554611 88.8602,47.4754611 90.9242,47.4754611 Z M90.9242,45.6674611 C89.6122,45.6674611 89.1322,44.4834611 89.1322,43.0594611 C89.1322,41.5234611 89.6922,40.4834611 90.9242,40.4834611 C92.2042,40.4834611 92.7002,41.6354611 92.7002,43.0594611 C92.7002,44.6114611 92.1402,45.6674611 90.9242,45.6674611 Z M99.9562,47.4754611 C101.9242,47.4754611 103.7162,46.6594611 103.7162,44.5954611 C103.7162,42.6594611 101.9402,42.2754611 100.2602,41.9874611 C99.2042,41.7954611 98.7402,41.5874611 98.7402,41.0754611 C98.7402,40.6114611 99.1562,40.3234611 99.8922,40.3234611 C100.6922,40.3234611 101.6842,40.6114611 102.5642,41.1394611 L103.3482,39.6034611 C102.3402,38.9954611 101.2522,38.5954611 99.6682,38.5954611 C97.7642,38.5954611 96.3562,39.5874611 96.3562,41.2994611 C96.3562,43.2994611 98.0842,43.6834611 99.7002,43.9714611 C100.8682,44.1794611 101.3162,44.4034611 101.3162,44.9954611 C101.3162,45.5554611 100.7562,45.8274611 99.9562,45.8274611 C98.9162,45.8274611 97.7162,45.3314611 96.8842,44.7554611 L96.0202,46.2594611 C96.9482,46.8994611 98.2442,47.4754611 99.9562,47.4754611 Z M114.5962,47.4274611 C116.5482,47.4274611 117.9082,45.9714611 117.9082,43.0274611 C117.9082,40.0834611 116.5642,38.5954611 114.6282,38.5954611 C113.3642,38.5954611 112.5642,39.2994611 112.0042,40.0834611 L112.0042,35.2674611 L109.4282,35.6514611 L109.4282,47.2994611 L111.8122,47.2994611 L112.0042,46.2914611 C112.6442,47.0114611 113.4442,47.4274611 114.5962,47.4274611 Z M113.7162,45.4914611 C113.0282,45.4914611 112.5642,45.2354611 112.0042,44.7074611 L112.0042,41.5554611 C112.4362,41.1234611 113.0282,40.7234611 113.6842,40.7234611 C114.8362,40.7234611 115.3322,41.6194611 115.3322,43.0434611 C115.3322,44.5954611 114.7882,45.4914611 113.7162,45.4914611 Z M121.5962,37.8594611 L123.2922,37.8594611 L125.6762,35.0914611 L123.0842,35.0914611 L121.5962,37.8594611 Z M122.1402,45.4914611 C121.5802,45.4914611 121.1962,45.2194611 121.1962,44.6754611 C121.1962,43.8914611 122.0602,43.3794611 124.0922,43.1714611 L124.0922,44.7554611 C123.6602,45.1874611 123.0362,45.4914611 122.1402,45.4914611 Z M121.1162,47.4274611 C122.3802,47.4274611 123.3082,46.9314611 124.0922,46.0514611 L124.2842,47.2994611 L126.6042,47.2994611 L126.6042,41.9394611 C126.6042,39.7474611 125.6122,38.5954611 123.1802,38.5954611 C121.0682,38.5954611 119.7882,39.3634611 118.9402,40.1474611 L120.3322,41.5394611 C121.0362,40.9794611 121.8522,40.5314611 122.8122,40.5314611 C123.7402,40.5314611 124.0922,40.9314611 124.0922,41.5554611 L124.0922,41.7634611 C120.3482,42.0674611 118.6842,43.1554611 118.6842,45.1234611 C118.6842,46.5794611 119.8042,47.4274611 121.1162,47.4274611 Z M131.8282,47.4754611 C133.7962,47.4754611 135.5882,46.6594611 135.5882,44.5954611 C135.5882,42.6594611 133.8122,42.2754611 132.1322,41.9874611 C131.0762,41.7954611 130.6122,41.5874611 130.6122,41.0754611 C130.6122,40.6114611 131.0282,40.3234611 131.7642,40.3234611 C132.5642,40.3234611 133.5562,40.6114611 134.4362,41.1394611 L135.2202,39.6034611 C134.2122,38.9954611 133.1242,38.5954611 131.5402,38.5954611 C129.6362,38.5954611 128.2282,39.5874611 128.2282,41.2994611 C128.2282,43.2994611 129.9562,43.6834611 131.5722,43.9714611 C132.7402,44.1794611 133.1882,44.4034611 133.1882,44.9954611 C133.1882,45.5554611 132.6282,45.8274611 131.8282,45.8274611 C130.7882,45.8274611 129.5882,45.3314611 128.7562,44.7554611 L127.8922,46.2594611 C128.8202,46.8994611 130.1162,47.4754611 131.8282,47.4754611 Z M138.3642,37.9394611 C139.3242,37.9394611 139.8362,37.3474611 139.8362,36.6434611 C139.8362,35.9234611 139.3242,35.3474611 138.3642,35.3474611 C137.4202,35.3474611 136.9242,35.9234611 136.9242,36.6434611 C136.9242,37.3474611 137.4202,37.9394611 138.3642,37.9394611 Z M139.6602,47.2994611 L139.6602,38.7714611 L137.1002,38.7714611 L137.1002,47.2994611 L139.6602,47.2994611 Z M145.4282,47.4754611 C147.0602,47.4754611 148.5962,46.8034611 149.4122,45.0754611 L147.5082,44.1314611 C147.0762,45.1074611 146.4522,45.6674611 145.5562,45.6674611 C144.2922,45.6674611 143.8122,44.5794611 143.8122,43.0594611 C143.8122,41.3634611 144.4682,40.4834611 145.5402,40.4834611 C146.4042,40.4834611 146.9322,40.8674611 147.3322,41.8114611 L149.2042,40.8514611 C148.5002,39.2834611 147.0602,38.5954611 145.5402,38.5954611 C143.6522,38.5954611 141.2362,39.6354611 141.2362,43.0434611 C141.2362,46.3554611 143.4282,47.4754611 145.4282,47.4754611 Z M154.3802,47.4754611 C156.4442,47.4754611 158.7322,46.3554611 158.7322,43.0434611 C158.7322,39.6994611 156.4442,38.5954611 154.3802,38.5954611 C152.3002,38.5954611 150.0122,39.6994611 150.0122,43.0434611 C150.0122,46.3554611 152.3162,47.4754611 154.3802,47.4754611 Z M154.3802,45.6674611 C153.0682,45.6674611 152.5882,44.4834611 152.5882,43.0594611 C152.5882,41.5234611 153.1482,40.4834611 154.3802,40.4834611 C155.6602,40.4834611 156.1562,41.6354611 156.1562,43.0594611 C156.1562,44.6114611 155.5962,45.6674611 154.3802,45.6674611 Z M163.4122,47.4754611 C165.3802,47.4754611 167.1722,46.6594611 167.1722,44.5954611 C167.1722,42.6594611 165.3962,42.2754611 163.7162,41.9874611 C162.6602,41.7954611 162.1962,41.5874611 162.1962,41.0754611 C162.1962,40.6114611 162.6122,40.3234611 163.3482,40.3234611 C164.1482,40.3234611 165.1402,40.6114611 166.0202,41.1394611 L166.8042,39.6034611 C165.7962,38.9954611 164.7082,38.5954611 163.1242,38.5954611 C161.2202,38.5954611 159.8122,39.5874611 159.8122,41.2994611 C159.8122,43.2994611 161.5402,43.6834611 163.1562,43.9714611 C164.3242,44.1794611 164.7722,44.4034611 164.7722,44.9954611 C164.7722,45.5554611 164.2122,45.8274611 163.4122,45.8274611 C162.3722,45.8274611 161.1722,45.3314611 160.3402,44.7554611 L159.4762,46.2594611 C160.4042,46.8994611 161.7002,47.4754611 163.4122,47.4754611 Z" id="puntos-básicos" fill="#FFFFFF"></path>
                    <path d="M14.7879,39.6914 L13.6899,40.7894 L10.8179,37.9104 L10.8489,47.2404 L9.3359,45.7044 L9.3359,37.8864 L6.3869,40.8204 L5.2809,39.7214 L10.0499,34.9534 L14.7879,39.6914 Z M0.8119,41.0964 C0.8119,46.1874 4.9359,50.3114 10.0269,50.3114 C15.1179,50.3114 19.2419,46.1874 19.2419,41.0964 C19.2419,36.0044 15.1179,31.8814 10.0269,31.8814 C4.9359,31.8814 0.8119,36.0044 0.8119,41.0964 L0.8119,41.0964 Z" id="Fill-8" fill="#2ECDCD"></path>
                </g>
                <path d="M36.7944,152.306256 L36.7944,138.986256 L35.6244,138.986256 L32.8344,139.976256 L32.9964,141.038256 L35.5524,140.174256 L35.5524,152.306256 L36.7944,152.306256 Z M45.0844,152.558256 C48.2164,152.558256 49.9444,149.804256 49.9444,145.646256 C49.9444,141.488256 48.2164,138.734256 45.0844,138.734256 C41.9524,138.734256 40.1884,141.488256 40.1884,145.646256 C40.1884,149.804256 41.9524,152.558256 45.0844,152.558256 Z M45.0844,151.424256 C42.8884,151.424256 41.4664,149.408256 41.4664,145.646256 C41.4664,141.884256 42.8164,139.868256 45.0844,139.868256 C47.2624,139.868256 48.6844,141.884256 48.6844,145.646256 C48.6844,149.408256 47.3344,151.424256 45.0844,151.424256 Z M52.4024,154.124256 L53.6624,150.614256 L52.1144,150.614256 L51.6464,154.124256 L52.4024,154.124256 Z M60.1524,152.558256 C62.8884,152.558256 64.5984,150.902256 64.5984,148.724256 C64.5984,146.762256 63.6264,145.610256 61.6284,145.214256 C63.2664,144.944256 64.2924,143.774256 64.2924,142.064256 C64.2924,140.336256 63.1044,138.734256 60.2964,138.734256 C58.5144,138.734256 57.1464,139.598256 56.1924,140.732256 L57.0384,141.542256 C57.8484,140.534256 58.8564,139.868256 60.2244,139.868256 C62.2404,139.868256 63.0504,140.894256 63.0504,142.190256 C63.0504,143.828256 61.9884,144.692256 59.1624,144.692256 L58.5144,144.692256 L58.5864,145.790256 L59.0544,145.790256 C62.2044,145.790256 63.3384,146.780256 63.3384,148.724256 C63.3384,150.326256 62.1504,151.424256 60.1524,151.424256 C58.6944,151.424256 57.4524,150.812256 56.4804,149.336256 L55.5984,150.092256 C56.5884,151.658256 58.2084,152.558256 60.1524,152.558256 Z" id="10,3" fill="#FFFFFF"></path>
                <path d="M68.418032,145.10821 C69.519902,145.10821 70.160036,144.121774 70.160036,142.757554 C70.160036,141.351358 69.498914,140.448874 68.428526,140.448874 C67.358138,140.448874 66.676028,141.351358 66.676028,142.79953 C66.676028,144.16375 67.295174,145.10821 68.418032,145.10821 Z M69.131624,148.319374 L73.769972,140.553814 L73.098356,140.553814 L68.460008,148.319374 L69.131624,148.319374 Z M68.428526,144.541534 C67.725428,144.541534 67.33715,143.817448 67.33715,142.757554 C67.33715,141.781612 67.714934,141.01555 68.418032,141.01555 C69.110636,141.01555 69.498914,141.729142 69.498914,142.778542 C69.498914,143.764978 69.12113,144.541534 68.428526,144.541534 Z M73.801454,148.424314 C74.913818,148.424314 75.553952,147.437878 75.553952,146.084152 C75.553952,144.667462 74.89283,143.764978 73.822442,143.764978 C72.752054,143.764978 72.05945,144.677956 72.05945,146.115634 C72.05945,147.479854 72.68909,148.424314 73.801454,148.424314 Z M73.811948,147.857638 C73.10885,147.857638 72.731066,147.133552 72.731066,146.084152 C72.731066,145.097716 73.098356,144.331654 73.801454,144.331654 C74.504552,144.331654 74.882336,145.045246 74.882336,146.094646 C74.882336,147.081082 74.515046,147.857638 73.811948,147.857638 Z" id="%" fill="#FFFFFF"></path>
                <path d="M92.1342,144.639256 L92.1342,131.319256 L90.9642,131.319256 L88.1742,132.309256 L88.3362,133.371256 L90.8922,132.507256 L90.8922,144.639256 L92.1342,144.639256 Z M100.4242,144.891256 C103.5562,144.891256 105.2842,142.137256 105.2842,137.979256 C105.2842,133.821256 103.5562,131.067256 100.4242,131.067256 C97.2922,131.067256 95.5282,133.821256 95.5282,137.979256 C95.5282,142.137256 97.2922,144.891256 100.4242,144.891256 Z M100.4242,143.757256 C98.2282,143.757256 96.8062,141.741256 96.8062,137.979256 C96.8062,134.217256 98.1562,132.201256 100.4242,132.201256 C102.6022,132.201256 104.0242,134.217256 104.0242,137.979256 C104.0242,141.741256 102.6742,143.757256 100.4242,143.757256 Z M107.7422,146.457256 L109.0022,142.947256 L107.4542,142.947256 L106.9862,146.457256 L107.7422,146.457256 Z M115.4922,138.555256 C113.3322,138.555256 112.4322,137.241256 112.4322,135.477256 C112.4322,133.389256 113.6922,132.183256 115.6002,132.183256 C117.3462,132.183256 118.8222,133.533256 119.0922,136.593256 C118.2462,137.763256 116.9682,138.555256 115.4922,138.555256 Z M115.2042,144.891256 C118.2102,144.891256 120.3702,141.849256 120.3702,137.745256 C120.3702,133.173256 118.2462,131.067256 115.6542,131.067256 C112.9002,131.067256 111.1902,132.975256 111.1902,135.495256 C111.1902,137.907256 112.5402,139.653256 115.3482,139.653256 C117.0402,139.653256 118.2822,138.789256 119.1282,137.871256 C119.1462,141.183256 117.6342,143.775256 115.2042,143.775256 C113.8362,143.775256 113.1702,143.379256 112.3422,142.695256 L111.7662,143.703256 C112.5222,144.369256 113.5842,144.891256 115.2042,144.891256 Z" id="10,9" fill="#FFFFFF"></path>
                <path d="M124.118232,137.44121 C125.220102,137.44121 125.860236,136.454774 125.860236,135.090554 C125.860236,133.684358 125.199114,132.781874 124.128726,132.781874 C123.058338,132.781874 122.376228,133.684358 122.376228,135.13253 C122.376228,136.49675 122.995374,137.44121 124.118232,137.44121 Z M124.831824,140.652374 L129.470172,132.886814 L128.798556,132.886814 L124.160208,140.652374 L124.831824,140.652374 Z M124.128726,136.874534 C123.425628,136.874534 123.03735,136.150448 123.03735,135.090554 C123.03735,134.114612 123.415134,133.34855 124.118232,133.34855 C124.810836,133.34855 125.199114,134.062142 125.199114,135.111542 C125.199114,136.097978 124.82133,136.874534 124.128726,136.874534 Z M129.501654,140.757314 C130.614018,140.757314 131.254152,139.770878 131.254152,138.417152 C131.254152,137.000462 130.59303,136.097978 129.522642,136.097978 C128.452254,136.097978 127.75965,137.010956 127.75965,138.448634 C127.75965,139.812854 128.38929,140.757314 129.501654,140.757314 Z M129.512148,140.190638 C128.80905,140.190638 128.431266,139.466552 128.431266,138.417152 C128.431266,137.430716 128.798556,136.664654 129.501654,136.664654 C130.204752,136.664654 130.582536,137.378246 130.582536,138.427646 C130.582536,139.414082 130.215246,140.190638 129.512148,140.190638 Z" id="%" fill="#FFFFFF"></path>
                <path d="M312.7836,137.139256 L312.7836,123.819256 L311.6136,123.819256 L308.8236,124.809256 L308.9856,125.871256 L311.5416,125.007256 L311.5416,137.139256 L312.7836,137.139256 Z M324.8536,137.139256 L324.7636,135.987256 L317.6356,135.987256 C317.6896,134.799256 318.9136,133.341256 321.3076,131.811256 C323.8636,130.191256 324.7456,129.039256 324.7456,127.221256 C324.7456,125.079256 323.2516,123.567256 320.8216,123.567256 C318.8956,123.567256 317.4016,124.575256 316.5016,126.411256 L317.4556,127.041256 C318.2296,125.457256 319.2916,124.701256 320.7676,124.701256 C322.5676,124.701256 323.5036,125.763256 323.5036,127.293256 C323.5036,128.733256 322.6936,129.651256 320.6956,130.911256 C317.1856,133.161256 316.2316,134.925256 316.2316,136.851256 L316.2316,137.139256 L324.8536,137.139256 Z M328.1036,138.957256 L329.3636,135.447256 L327.8156,135.447256 L327.3476,138.957256 L328.1036,138.957256 Z M335.9256,137.139256 L335.9256,123.819256 L334.7556,123.819256 L331.9656,124.809256 L332.1276,125.871256 L334.6836,125.007256 L334.6836,137.139256 L335.9256,137.139256 Z" id="12,1" fill="#FFFFFF"></path>
                <path d="M340.357432,129.94121 C341.459302,129.94121 342.099436,128.954774 342.099436,127.590554 C342.099436,126.184358 341.438314,125.281874 340.367926,125.281874 C339.297538,125.281874 338.615428,126.184358 338.615428,127.63253 C338.615428,128.99675 339.234574,129.94121 340.357432,129.94121 Z M341.071024,133.152374 L345.709372,125.386814 L345.037756,125.386814 L340.399408,133.152374 L341.071024,133.152374 Z M340.367926,129.374534 C339.664828,129.374534 339.27655,128.650448 339.27655,127.590554 C339.27655,126.614612 339.654334,125.84855 340.357432,125.84855 C341.050036,125.84855 341.438314,126.562142 341.438314,127.611542 C341.438314,128.597978 341.06053,129.374534 340.367926,129.374534 Z M345.740854,133.257314 C346.853218,133.257314 347.493352,132.270878 347.493352,130.917152 C347.493352,129.500462 346.83223,128.597978 345.761842,128.597978 C344.691454,128.597978 343.99885,129.510956 343.99885,130.948634 C343.99885,132.312854 344.62849,133.257314 345.740854,133.257314 Z M345.751348,132.690638 C345.04825,132.690638 344.670466,131.966552 344.670466,130.917152 C344.670466,129.930716 345.037756,129.164654 345.740854,129.164654 C346.443952,129.164654 346.821736,129.878246 346.821736,130.927646 C346.821736,131.914082 346.454446,132.690638 345.751348,132.690638 Z" id="%" fill="#FFFFFF"></path>
                <path d="M361.4565,134.472256 L361.4565,121.152256 L360.2865,121.152256 L357.4965,122.142256 L357.6585,123.204256 L360.2145,122.340256 L360.2145,134.472256 L361.4565,134.472256 Z M373.5265,134.472256 L373.4365,133.320256 L366.3085,133.320256 C366.3625,132.132256 367.5865,130.674256 369.9805,129.144256 C372.5365,127.524256 373.4185,126.372256 373.4185,124.554256 C373.4185,122.412256 371.9245,120.900256 369.4945,120.900256 C367.5685,120.900256 366.0745,121.908256 365.1745,123.744256 L366.1285,124.374256 C366.9025,122.790256 367.9645,122.034256 369.4405,122.034256 C371.2405,122.034256 372.1765,123.096256 372.1765,124.626256 C372.1765,126.066256 371.3665,126.984256 369.3685,128.244256 C365.8585,130.494256 364.9045,132.258256 364.9045,134.184256 L364.9045,134.472256 L373.5265,134.472256 Z M376.7765,136.290256 L378.0365,132.780256 L376.4885,132.780256 L376.0205,136.290256 L376.7765,136.290256 Z M388.9005,134.472256 L388.8105,133.320256 L381.6825,133.320256 C381.7365,132.132256 382.9605,130.674256 385.3545,129.144256 C387.9105,127.524256 388.7925,126.372256 388.7925,124.554256 C388.7925,122.412256 387.2985,120.900256 384.8685,120.900256 C382.9425,120.900256 381.4485,121.908256 380.5485,123.744256 L381.5025,124.374256 C382.2765,122.790256 383.3385,122.034256 384.8145,122.034256 C386.6145,122.034256 387.5505,123.096256 387.5505,124.626256 C387.5505,126.066256 386.7405,126.984256 384.7425,128.244256 C381.2325,130.494256 380.2785,132.258256 380.2785,134.184256 L380.2785,134.472256 L388.9005,134.472256 Z" id="12,2" fill="#FFFFFF"></path>
                <path d="M391.820332,127.27421 C392.922202,127.27421 393.562336,126.287774 393.562336,124.923554 C393.562336,123.517358 392.901214,122.614874 391.830826,122.614874 C390.760438,122.614874 390.078328,123.517358 390.078328,124.96553 C390.078328,126.32975 390.697474,127.27421 391.820332,127.27421 Z M392.533924,130.485374 L397.172272,122.719814 L396.500656,122.719814 L391.862308,130.485374 L392.533924,130.485374 Z M391.830826,126.707534 C391.127728,126.707534 390.73945,125.983448 390.73945,124.923554 C390.73945,123.947612 391.117234,123.18155 391.820332,123.18155 C392.512936,123.18155 392.901214,123.895142 392.901214,124.944542 C392.901214,125.930978 392.52343,126.707534 391.830826,126.707534 Z M397.203754,130.590314 C398.316118,130.590314 398.956252,129.603878 398.956252,128.250152 C398.956252,126.833462 398.29513,125.930978 397.224742,125.930978 C396.154354,125.930978 395.46175,126.843956 395.46175,128.281634 C395.46175,129.645854 396.09139,130.590314 397.203754,130.590314 Z M397.214248,130.023638 C396.51115,130.023638 396.133366,129.299552 396.133366,128.250152 C396.133366,127.263716 396.500656,126.497654 397.203754,126.497654 C397.906852,126.497654 398.284636,127.211246 398.284636,128.260646 C398.284636,129.247082 397.917346,130.023638 397.214248,130.023638 Z" id="%" fill="#FFFFFF"></path>
                <path d="M560.4389,113.139256 L560.4389,99.8192562 L559.2689,99.8192562 L556.4789,100.809256 L556.6409,101.871256 L559.1969,101.007256 L559.1969,113.139256 L560.4389,113.139256 Z M568.1169,113.391256 C570.9429,113.391256 572.6889,111.393256 572.6889,108.729256 C572.6889,106.065256 570.9789,104.373256 568.5669,104.373256 C567.1449,104.373256 566.2629,104.859256 565.6149,105.615256 L565.9749,100.989256 L571.9329,100.989256 L571.8969,99.8192562 L564.9129,99.8192562 L564.3909,106.785256 L565.3449,107.145256 C566.0649,106.101256 567.0189,105.471256 568.3869,105.471256 C570.1509,105.471256 571.4289,106.659256 571.4289,108.783256 C571.4289,110.547256 570.4029,112.257256 568.0989,112.257256 C566.4969,112.257256 565.3809,111.411256 564.5889,110.205256 L563.7609,111.015256 C564.6429,112.419256 566.1909,113.391256 568.1169,113.391256 Z M575.3269,114.957256 L576.5869,111.447256 L575.0389,111.447256 L574.5709,114.957256 L575.3269,114.957256 Z M583.1309,113.391256 C586.2629,113.391256 587.9909,110.637256 587.9909,106.479256 C587.9909,102.321256 586.2629,99.5672562 583.1309,99.5672562 C579.9989,99.5672562 578.2349,102.321256 578.2349,106.479256 C578.2349,110.637256 579.9989,113.391256 583.1309,113.391256 Z M583.1309,112.257256 C580.9349,112.257256 579.5129,110.241256 579.5129,106.479256 C579.5129,102.717256 580.8629,100.701256 583.1309,100.701256 C585.3089,100.701256 586.7309,102.717256 586.7309,106.479256 C586.7309,110.241256 585.3809,112.257256 583.1309,112.257256 Z" id="15,0" fill="#FFFFFF"></path>
                <path d="M591.900432,105.94121 C593.002302,105.94121 593.642436,104.954774 593.642436,103.590554 C593.642436,102.184358 592.981314,101.281874 591.910926,101.281874 C590.840538,101.281874 590.158428,102.184358 590.158428,103.63253 C590.158428,104.99675 590.777574,105.94121 591.900432,105.94121 Z M592.614024,109.152374 L597.252372,101.386814 L596.580756,101.386814 L591.942408,109.152374 L592.614024,109.152374 Z M591.910926,105.374534 C591.207828,105.374534 590.81955,104.650448 590.81955,103.590554 C590.81955,102.614612 591.197334,101.84855 591.900432,101.84855 C592.593036,101.84855 592.981314,102.562142 592.981314,103.611542 C592.981314,104.597978 592.60353,105.374534 591.910926,105.374534 Z M597.283854,109.257314 C598.396218,109.257314 599.036352,108.270878 599.036352,106.917152 C599.036352,105.500462 598.37523,104.597978 597.304842,104.597978 C596.234454,104.597978 595.54185,105.510956 595.54185,106.948634 C595.54185,108.312854 596.17149,109.257314 597.283854,109.257314 Z M597.294348,108.690638 C596.59125,108.690638 596.213466,107.966552 596.213466,106.917152 C596.213466,105.930716 596.580756,105.164654 597.283854,105.164654 C597.986952,105.164654 598.364736,105.878246 598.364736,106.927646 C598.364736,107.914082 597.997446,108.690638 597.294348,108.690638 Z" id="%" fill="#FFFFFF"></path>
                <path d="M615.7787,111.472256 L615.7787,98.1522562 L614.6087,98.1522562 L611.8187,99.1422562 L611.9807,100.204256 L614.5367,99.3402562 L614.5367,111.472256 L615.7787,111.472256 Z M623.4567,111.724256 C626.2827,111.724256 628.0287,109.726256 628.0287,107.062256 C628.0287,104.398256 626.3187,102.706256 623.9067,102.706256 C622.4847,102.706256 621.6027,103.192256 620.9547,103.948256 L621.3147,99.3222562 L627.2727,99.3222562 L627.2367,98.1522562 L620.2527,98.1522562 L619.7307,105.118256 L620.6847,105.478256 C621.4047,104.434256 622.3587,103.804256 623.7267,103.804256 C625.4907,103.804256 626.7687,104.992256 626.7687,107.116256 C626.7687,108.880256 625.7427,110.590256 623.4387,110.590256 C621.8367,110.590256 620.7207,109.744256 619.9287,108.538256 L619.1007,109.348256 C619.9827,110.752256 621.5307,111.724256 623.4567,111.724256 Z M630.6667,113.290256 L631.9267,109.780256 L630.3787,109.780256 L629.9107,113.290256 L630.6667,113.290256 Z M638.4887,111.472256 L638.4887,98.1522562 L637.3187,98.1522562 L634.5287,99.1422562 L634.6907,100.204256 L637.2467,99.3402562 L637.2467,111.472256 L638.4887,111.472256 Z" id="15,1" fill="#FFFFFF"></path>
                <path d="M643.262732,104.27421 C644.364602,104.27421 645.004736,103.287774 645.004736,101.923554 C645.004736,100.517358 644.343614,99.6148745 643.273226,99.6148745 C642.202838,99.6148745 641.520728,100.517358 641.520728,101.96553 C641.520728,103.32975 642.139874,104.27421 643.262732,104.27421 Z M643.976324,107.485374 L648.614672,99.7198145 L647.943056,99.7198145 L643.304708,107.485374 L643.976324,107.485374 Z M643.273226,103.707534 C642.570128,103.707534 642.18185,102.983448 642.18185,101.923554 C642.18185,100.947612 642.559634,100.18155 643.262732,100.18155 C643.955336,100.18155 644.343614,100.895142 644.343614,101.944542 C644.343614,102.930978 643.96583,103.707534 643.273226,103.707534 Z M648.646154,107.590314 C649.758518,107.590314 650.398652,106.603878 650.398652,105.250152 C650.398652,103.833462 649.73753,102.930978 648.667142,102.930978 C647.596754,102.930978 646.90415,103.843956 646.90415,105.281634 C646.90415,106.645854 647.53379,107.590314 648.646154,107.590314 Z M648.656648,107.023638 C647.95355,107.023638 647.575766,106.299552 647.575766,105.250152 C647.575766,104.263716 647.943056,103.497654 648.646154,103.497654 C649.349252,103.497654 649.727036,104.211246 649.727036,105.260646 C649.727036,106.247082 649.359746,107.023638 648.656648,107.023638 Z" id="%" fill="#FFFFFF"></path>
                <polygon id="Fill-10" fill-opacity="0.2" fill="url(#linearGradient-1)" points="0 257.2 47.534 277.705 62.805 270.126 18.999 251.951"></polygon>
                <g id="Group-18" transform="translate(30.000000, 170.628000)">
                    <polygon id="Fill-12" fill="#2A86CA" points="16.8622 107.4697 32.8052 99.4977 32.8052 35.8317 16.8622 23.8037"></polygon>
                    <polygon id="Fill-14" fill="#0064A8" points="16.8622 14.5938 32.8062 6.6218 16.8972 0.2468 0.9532 8.2188"></polygon>
                    <polygon id="Fill-16" fill="#2A86CA" points="16.8622 14.5938 16.8622 23.8038 32.8052 35.8318 32.8052 6.6218"></polygon>
                </g>
                <polygon id="Fill-19" fill-opacity="0.2" fill="url(#linearGradient-1)" points="59.003 257.2 106.538 277.705 121.809 270.126 78.002 251.951"></polygon>
                <g id="Group-27" transform="translate(89.000000, 166.628000)">
                    <polygon id="Fill-21" fill="#2ECDCD" points="16.8653 111.4697 32.8083 103.4977 32.8083 19.8317 16.8653 27.8037"></polygon>
                    <polygon id="Fill-23" fill="#00A6A6" points="16.8653 14.5938 32.8093 6.6218 16.9003 0.2468 0.9563 8.2188"></polygon>
                    <polygon id="Fill-25" fill="#2ECDCD" points="16.8653 14.5938 16.8653 27.8038 32.8083 19.8318 32.8083 6.6218"></polygon>
                </g>
                <polygon id="Fill-28" fill-opacity="0.2" fill="url(#linearGradient-1)" points="276.992 257.2 324.527 277.705 339.798 270.126 295.991 251.951"></polygon>
                <g id="Group-36" transform="translate(307.000000, 154.628000)">
                    <polygon id="Fill-30" fill="#2A86CA" points="16.8543 123.4697 32.7973 115.4977 32.7973 51.8317 16.8543 39.8037"></polygon>
                    <polygon id="Fill-32" fill="#0064A8" points="16.8543 14.6045 32.7983 6.6315 16.8893 0.2565 0.9453 8.2295"></polygon>
                    <polygon id="Fill-34" fill="#2A86CA" points="16.8543 14.6045 16.8543 39.8035 32.7973 51.8325 32.7973 6.6315"></polygon>
                </g>
                <polygon id="Fill-37" fill-opacity="0.2" fill="url(#linearGradient-1)" points="327.996 257.2 375.53 277.705 390.801 270.126 346.994 251.951"></polygon>
                <g id="Group-45" transform="translate(358.000000, 153.628000)">
                    <polygon id="Fill-39" fill="#2ECDCD" points="16.8578 124.4697 32.8008 116.4977 32.8008 32.8317 16.8578 40.8037"></polygon>
                    <polygon id="Fill-41" fill="#00A6A6" points="16.8578 14.9268 32.8018 6.9548 16.8928 0.5798 0.9488 8.5518"></polygon>
                    <polygon id="Fill-43" fill="#2ECDCD" points="16.8578 14.9268 16.8578 40.8038 32.8008 32.8318 32.8008 6.9548"></polygon>
                </g>
                <polygon id="Fill-46" fill-opacity="0.2" fill="url(#linearGradient-1)" points="527.477 257.2 575.012 277.705 590.282 270.126 546.475 251.951"></polygon>
                <g id="Group-54" transform="translate(558.000000, 129.628000)">
                    <polygon id="Fill-48" fill="#2A86CA" points="16.3389 148.4697 32.2819 140.4977 32.2819 76.8317 16.3389 64.8037"></polygon>
                    <polygon id="Fill-50" fill="#0064A8" points="16.3389 14.9268 32.2829 6.9548 16.3739 0.5798 0.4299 8.5518"></polygon>
                    <polygon id="Fill-52" fill="#2A86CA" points="16.3389 14.9268 16.3389 64.8038 32.2819 76.8318 32.2819 6.9548"></polygon>
                </g>
                <polygon id="Fill-55" fill-opacity="0.2" fill="url(#linearGradient-1)" points="578.48 257.2 626.015 277.705 641.285 270.126 597.478 251.951"></polygon>
                <g id="Group-66" transform="translate(280.000000, 0.628000)">
                    <polygon id="Fill-57" fill="#2ECDCD" points="345.3421 277.4697 361.2851 269.4977 361.2851 185.8317 345.3421 193.8037"></polygon>
                    <polygon id="Fill-59" fill="#00A6A6" points="345.3421 142.9375 361.2861 134.9655 345.3771 128.5905 329.4331 136.5625"></polygon>
                    <polygon id="Fill-61" fill="#2ECDCD" points="345.3421 142.9375 345.3421 193.8035 361.2851 185.8325 361.2851 134.9655"></polygon>
                    <path d="M126.2361,11.9267635 L126.1611,10.9667635 L120.2211,10.9667635 C120.2661,9.97676352 121.2861,8.76176352 123.2811,7.48676352 C125.4111,6.13676352 126.1461,5.17676352 126.1461,3.66176352 C126.1461,1.87676352 124.9011,0.616763522 122.8761,0.616763522 C121.2711,0.616763522 120.0261,1.45676352 119.2761,2.98676352 L120.0711,3.51176352 C120.7161,2.19176352 121.6011,1.56176352 122.8311,1.56176352 C124.3311,1.56176352 125.1111,2.44676352 125.1111,3.72176352 C125.1111,4.92176352 124.4361,5.68676352 122.7711,6.73676352 C119.8461,8.61176352 119.0511,10.0817635 119.0511,11.6867635 L119.0511,11.9267635 L126.2361,11.9267635 Z M131.8831,12.1367635 C134.4931,12.1367635 135.9331,9.84176352 135.9331,6.37676352 C135.9331,2.91176352 134.4931,0.616763522 131.8831,0.616763522 C129.2731,0.616763522 127.8031,2.91176352 127.8031,6.37676352 C127.8031,9.84176352 129.2731,12.1367635 131.8831,12.1367635 Z M131.8831,11.1917635 C130.0531,11.1917635 128.8681,9.51176352 128.8681,6.37676352 C128.8681,3.24176352 129.9931,1.56176352 131.8831,1.56176352 C133.6981,1.56176352 134.8831,3.24176352 134.8831,6.37676352 C134.8831,9.51176352 133.7581,11.1917635 131.8831,11.1917635 Z M141.0851,11.9267635 L141.0851,0.826763522 L140.1101,0.826763522 L137.7851,1.65176352 L137.9201,2.53676352 L140.0501,1.81676352 L140.0501,11.9267635 L141.0851,11.9267635 Z M147.8571,12.1367635 C150.1521,12.1367635 151.5771,10.5467635 151.5771,8.44676352 C151.5771,6.43676352 150.4521,4.98176352 148.1121,4.98176352 C146.7021,4.98176352 145.6521,5.70176352 144.9471,6.46676352 C144.9471,3.69176352 146.2071,1.54676352 148.2621,1.54676352 C149.2521,1.54676352 149.7921,1.81676352 150.3921,2.29676352 L150.8871,1.45676352 C150.3021,0.976763522 149.5221,0.616763522 148.2771,0.616763522 C145.7271,0.616763522 143.9121,3.15176352 143.9121,6.57176352 C143.9121,10.3817635 145.6971,12.1367635 147.8571,12.1367635 Z M147.9021,11.2217635 C146.4321,11.2217635 145.2171,10.0817635 144.9921,7.53176352 C145.6971,6.55676352 146.7621,5.89676352 147.9921,5.89676352 C149.7921,5.89676352 150.5421,6.99176352 150.5421,8.46176352 C150.5421,10.2017635 149.4771,11.2217635 147.9021,11.2217635 Z" id="2016" fill="#FFFFFF"></path>
                    <path d="M38.9061,11.9267635 L38.8311,10.9667635 L32.8911,10.9667635 C32.9361,9.97676352 33.9561,8.76176352 35.9511,7.48676352 C38.0811,6.13676352 38.8161,5.17676352 38.8161,3.66176352 C38.8161,1.87676352 37.5711,0.616763522 35.5461,0.616763522 C33.9411,0.616763522 32.6961,1.45676352 31.9461,2.98676352 L32.7411,3.51176352 C33.3861,2.19176352 34.2711,1.56176352 35.5011,1.56176352 C37.0011,1.56176352 37.7811,2.44676352 37.7811,3.72176352 C37.7811,4.92176352 37.1061,5.68676352 35.4411,6.73676352 C32.5161,8.61176352 31.7211,10.0817635 31.7211,11.6867635 L31.7211,11.9267635 L38.9061,11.9267635 Z M44.5531,12.1367635 C47.1631,12.1367635 48.6031,9.84176352 48.6031,6.37676352 C48.6031,2.91176352 47.1631,0.616763522 44.5531,0.616763522 C41.9431,0.616763522 40.4731,2.91176352 40.4731,6.37676352 C40.4731,9.84176352 41.9431,12.1367635 44.5531,12.1367635 Z M44.5531,11.1917635 C42.7231,11.1917635 41.5381,9.51176352 41.5381,6.37676352 C41.5381,3.24176352 42.6631,1.56176352 44.5531,1.56176352 C46.3681,1.56176352 47.5531,3.24176352 47.5531,6.37676352 C47.5531,9.51176352 46.4281,11.1917635 44.5531,11.1917635 Z M53.7551,11.9267635 L53.7551,0.826763522 L52.7801,0.826763522 L50.4551,1.65176352 L50.5901,2.53676352 L52.7201,1.81676352 L52.7201,11.9267635 L53.7551,11.9267635 Z M60.1521,12.1367635 C62.5071,12.1367635 63.9621,10.4717635 63.9621,8.25176352 C63.9621,6.03176352 62.5371,4.62176352 60.5271,4.62176352 C59.3421,4.62176352 58.6071,5.02676352 58.0671,5.65676352 L58.3671,1.80176352 L63.3321,1.80176352 L63.3021,0.826763522 L57.4821,0.826763522 L57.0471,6.63176352 L57.8421,6.93176352 C58.4421,6.06176352 59.2371,5.53676352 60.3771,5.53676352 C61.8471,5.53676352 62.9121,6.52676352 62.9121,8.29676352 C62.9121,9.76676352 62.0571,11.1917635 60.1371,11.1917635 C58.8021,11.1917635 57.8721,10.4867635 57.2121,9.48176352 L56.5221,10.1567635 C57.2571,11.3267635 58.5471,12.1367635 60.1521,12.1367635 Z" id="2015" fill="#FFFFFF"></path>
                    <polygon id="Fill-64" fill="#2ECDCD" points="112.888 1.6455 108.255 10.9115 90.646 10.9115 95.279 1.6455"></polygon>
                    <polygon id="Fill-65" fill="#2A86CA" points="22.6559 1.6455 18.0229 10.9115 0.4139 10.9115 5.0469 1.6455"></polygon>
                </g>
            </g>
        </g>
    </g>
</svg>