<?xml version="1.0" encoding="utf-8"?>
<!-- Generator: Adobe Illustrator 21.0.0, SVG Export Plug-In . SVG Version: 6.00 Build 0)  -->
<!DOCTYPE svg PUBLIC "-//W3C//DTD SVG 1.1//EN" "http://www.w3.org/Graphics/SVG/1.1/DTD/svg11.dtd">
<svg version="1.1" id="Capa_1" xmlns="http://www.w3.org/2000/svg" xmlns:xlink="http://www.w3.org/1999/xlink" x="0px" y="0px"
	 viewBox="0 0 741 295" style="enable-background:new 0 0 741 295;" xml:space="preserve">
<style type="text/css">
	.st0{fill:url(#SVGID_1_);}
	.st1{fill:url(#SVGID_2_);}
	.st2{fill:url(#SVGID_3_);}
	.st3{fill:url(#SVGID_4_);}
	.st4{fill:url(#SVGID_5_);}
	.st5{fill:url(#SVGID_6_);}
	.st6{fill:url(#SVGID_7_);}
	.st7{fill:url(#SVGID_8_);}
	.st8{fill:url(#SVGID_9_);}
	.st9{fill:url(#SVGID_10_);}
	.st10{fill:#2ECDCD;}
	.st11{fill:#0064A8;}
	.st12{fill:#2A86CA;}
	.st13{enable-background:new    ;}
	.st14{fill:#FFFFFF;}
</style>
<linearGradient id="SVGID_1_" gradientUnits="userSpaceOnUse" x1="28.1949" y1="226.9507" x2="72.7242" y2="246.3112">
	<stop  offset="0" style="stop-color:#000000;stop-opacity:0"/>
	<stop  offset="1" style="stop-color:#000000;stop-opacity:0.5"/>
</linearGradient>
<polygon class="st0" points="52.9,244.6 5.8,223.8 24.8,218.6 67.7,237.3 "/>
<linearGradient id="SVGID_2_" gradientUnits="userSpaceOnUse" x1="168.1949" y1="226.9507" x2="212.7242" y2="246.3112">
	<stop  offset="0" style="stop-color:#000000;stop-opacity:0"/>
	<stop  offset="1" style="stop-color:#000000;stop-opacity:0.5"/>
</linearGradient>
<polygon class="st1" points="192.9,244.6 145.8,223.8 164.8,218.6 207.7,237.3 "/>
<linearGradient id="SVGID_3_" gradientUnits="userSpaceOnUse" x1="190.6949" y1="226.9507" x2="235.2242" y2="246.3112">
	<stop  offset="0" style="stop-color:#000000;stop-opacity:0"/>
	<stop  offset="1" style="stop-color:#000000;stop-opacity:0.5"/>
</linearGradient>
<polygon class="st2" points="215.4,244.6 168.3,223.8 187.3,218.6 230.2,237.3 "/>
<linearGradient id="SVGID_4_" gradientUnits="userSpaceOnUse" x1="338.6949" y1="226.9507" x2="383.2242" y2="246.3112">
	<stop  offset="0" style="stop-color:#000000;stop-opacity:0"/>
	<stop  offset="1" style="stop-color:#000000;stop-opacity:0.5"/>
</linearGradient>
<polygon class="st3" points="363.4,244.6 316.3,223.8 335.3,218.6 378.2,237.3 "/>
<linearGradient id="SVGID_5_" gradientUnits="userSpaceOnUse" x1="318.1949" y1="226.9507" x2="362.7242" y2="246.3112">
	<stop  offset="0" style="stop-color:#000000;stop-opacity:0"/>
	<stop  offset="1" style="stop-color:#000000;stop-opacity:0.5"/>
</linearGradient>
<polygon class="st4" points="342.9,244.6 295.8,223.8 314.8,218.6 357.7,237.3 "/>
<linearGradient id="SVGID_6_" gradientUnits="userSpaceOnUse" x1="500.6949" y1="226.9507" x2="545.2242" y2="246.3112">
	<stop  offset="0" style="stop-color:#000000;stop-opacity:0"/>
	<stop  offset="1" style="stop-color:#000000;stop-opacity:0.5"/>
</linearGradient>
<polygon class="st5" points="525.4,244.6 478.3,223.8 497.3,218.6 540.2,237.3 "/>
<linearGradient id="SVGID_7_" gradientUnits="userSpaceOnUse" x1="478.6949" y1="226.9507" x2="523.2242" y2="246.3112">
	<stop  offset="0" style="stop-color:#000000;stop-opacity:0"/>
	<stop  offset="1" style="stop-color:#000000;stop-opacity:0.5"/>
</linearGradient>
<polygon class="st6" points="503.4,244.6 456.3,223.8 475.3,218.6 518.2,237.3 "/>
<linearGradient id="SVGID_8_" gradientUnits="userSpaceOnUse" x1="649.1949" y1="226.9507" x2="693.7242" y2="246.3112">
	<stop  offset="0" style="stop-color:#000000;stop-opacity:0"/>
	<stop  offset="1" style="stop-color:#000000;stop-opacity:0.5"/>
</linearGradient>
<polygon class="st7" points="673.9,244.6 626.8,223.8 645.8,218.6 688.7,237.3 "/>
<linearGradient id="SVGID_9_" gradientUnits="userSpaceOnUse" x1="627.1949" y1="226.9507" x2="671.7242" y2="246.3112">
	<stop  offset="0" style="stop-color:#000000;stop-opacity:0"/>
	<stop  offset="1" style="stop-color:#000000;stop-opacity:0.5"/>
</linearGradient>
<polygon class="st8" points="651.9,244.6 604.8,223.8 623.8,218.6 666.7,237.3 "/>
<linearGradient id="SVGID_10_" gradientUnits="userSpaceOnUse" x1="49.9449" y1="226.9507" x2="94.4742" y2="246.3112">
	<stop  offset="0" style="stop-color:#000000;stop-opacity:0"/>
	<stop  offset="1" style="stop-color:#000000;stop-opacity:0.5"/>
</linearGradient>
<polygon class="st9" points="74.7,244.6 27.6,223.8 46.6,218.6 89.5,237.3 "/>
<title>Page 1</title>
<desc>Created with Sketch.</desc>
<g>
	<g>
		<g>
			<polygon class="st10" points="524.6,245 540.6,237.1 540.6,216.5 524.6,224.5 			"/>
		</g>
		<g>
			<polygon class="st11" points="524.6,224.5 540.6,216.5 524.7,210.1 508.7,218.1 			"/>
		</g>
	</g>
	<g>
		<g>
			<polygon class="st10" points="673,245 688.9,237.1 688.9,153.4 673,161.4 			"/>
		</g>
		<g>
			<polygon class="st11" points="673,106.1 688.9,98.1 673,91.7 657.1,99.7 			"/>
		</g>
		<g>
			<polygon class="st10" points="673,106.1 673,161.4 688.9,153.4 688.9,98.1 			"/>
		</g>
	</g>
	<g>
		<g>
			<polygon class="st12" points="651,245 666.9,237.1 666.9,173.4 651,161.4 			"/>
		</g>
		<g>
			<polygon class="st11" points="651,104.7 666.9,96.7 651,90.3 635.1,98.3 			"/>
		</g>
		<g>
			<polygon class="st12" points="651,104.7 651,161.4 666.9,173.4 666.9,96.7 			"/>
		</g>
	</g>
	<g>
		<g>
			<polygon class="st11" points="363.1,231.8 379.1,223.8 363.2,217.4 347.2,225.4 			"/>
		</g>
		<g>
			<polygon class="st10" points="363.1,231.8 363.1,245 379.1,237 379.1,223.8 			"/>
		</g>
	</g>
	<g class="st13">
		<path class="st14" d="M33.7,285.8v-11.1h4c2.6,0,4.2,1,4.2,3.4c0,1.8-0.9,2.7-2.4,3.1l2.6,4.5l-1.8,0.3l-2.7-4.5h-2v4.4
			L33.7,285.8L33.7,285.8z M35.5,279.8h2c1.6,0,2.4-0.5,2.4-1.7s-0.8-1.7-2.4-1.7h-2V279.8z"/>
		<path class="st14" d="M43.4,280.2c0-3.7,2.3-5.8,5-5.8s5,2,5,5.8c0,3.7-2.3,5.8-5,5.8S43.4,284,43.4,280.2z M51.5,280.2
			c0-2.5-1.3-4-3.1-4s-3.1,1.5-3.1,4s1.3,4.1,3.1,4.1S51.5,282.8,51.5,280.2z"/>
		<path class="st14" d="M55.4,285.8v-11.1h7.2v1.7h-5.3v2.8h4l0.3,1.7h-4.3v3.2h5.6v1.7L55.4,285.8L55.4,285.8z"/>
	</g>
	<g class="st13">
		<path class="st14" d="M73.5,288.9c-2.4-2.1-3.7-4.3-3.7-7.2c0-2.8,1.3-5.1,3.7-7.2L74,275c-1.9,1.7-3.1,4-3.1,6.6
			c0,2.7,1.2,4.9,3.1,6.7L73.5,288.9z"/>
		<path class="st14" d="M75.7,277.9c0-2.1,1-3.4,2.5-3.4s2.5,1.3,2.5,3.3c0,1.9-0.9,3.4-2.5,3.4C76.6,281.2,75.7,279.9,75.7,277.9z
			 M79.8,277.9c0-1.5-0.6-2.5-1.5-2.5c-1,0-1.5,1.1-1.5,2.5c0,1.5,0.6,2.5,1.6,2.5C79.2,280.4,79.8,279.3,79.8,277.9z M78.3,285.8
			l6.6-11.1h1l-6.6,11.1H78.3z M83.4,282.7c0-2.1,1-3.4,2.5-3.4s2.5,1.3,2.5,3.3c0,1.9-0.9,3.3-2.5,3.3
			C84.3,286,83.4,284.6,83.4,282.7z M87.5,282.6c0-1.5-0.5-2.5-1.5-2.5s-1.5,1.1-1.5,2.5c0,1.5,0.5,2.5,1.5,2.5S87.5,284,87.5,282.6
			z"/>
		<path class="st14" d="M90.2,288.4c1.9-1.7,3.1-4,3.1-6.7c0-2.6-1.2-4.9-3.1-6.6l0.5-0.5c2.4,2.1,3.8,4.3,3.8,7.2
			c0,2.8-1.3,5.1-3.8,7.2L90.2,288.4z"/>
	</g>
	<g class="st13">
		<path class="st14" d="M409.2,17.2V17c0-1.6,0.8-3.1,3.7-4.9c1.7-1.1,2.3-1.8,2.3-3c0-1.3-0.8-2.2-2.3-2.2c-1.2,0-2.1,0.6-2.8,1.9
			l-0.8-0.5c0.8-1.5,2-2.4,3.6-2.4c2,0,3.3,1.3,3.3,3c0,1.5-0.7,2.5-2.9,3.8c-2,1.3-3,2.5-3.1,3.5h5.9l0.1,1H409.2z"/>
		<path class="st14" d="M417.9,11.6c0-3.5,1.5-5.8,4.1-5.8s4,2.3,4,5.8s-1.4,5.8-4,5.8S417.9,15.1,417.9,11.6z M425,11.6
			c0-3.1-1.2-4.8-3-4.8c-1.9,0-3,1.7-3,4.8s1.2,4.8,3,4.8C423.9,16.4,425,14.7,425,11.6z"/>
		<path class="st14" d="M430.2,17.2V7.1l-2.1,0.7L428,6.9l2.3-0.8h1v11.1H430.2z"/>
		<path class="st14" d="M434.1,11.8c0-3.4,1.8-6,4.4-6c1.2,0,2,0.4,2.6,0.8l-0.5,0.8c-0.6-0.5-1.1-0.8-2.1-0.8
			c-2.1,0-3.3,2.1-3.3,4.9c0.7-0.8,1.8-1.5,3.2-1.5c2.3,0,3.5,1.5,3.5,3.5c0,2.1-1.4,3.7-3.7,3.7C435.9,17.4,434.1,15.6,434.1,11.8z
			 M440.7,13.7c0-1.5-0.8-2.6-2.5-2.6c-1.2,0-2.3,0.7-3,1.6c0.2,2.5,1.4,3.7,2.9,3.7C439.6,16.5,440.7,15.4,440.7,13.7z"/>
	</g>
	<g class="st13">
		<path class="st14" d="M29.4,133l0.8-0.8c0.8,1.2,1.9,2.1,3.5,2.1c2.3,0,3.3-1.7,3.3-3.5c0-2.1-1.3-3.3-3-3.3c-1.4,0-2.3,0.6-3,1.7
			l-1-0.4l0.5-7h7v1.2h-6l-0.4,4.6c0.6-0.8,1.5-1.2,3-1.2c2.4,0,4.1,1.7,4.1,4.4s-1.7,4.7-4.6,4.7C31.8,135.4,30.3,134.4,29.4,133z"
			/>
		<path class="st14" d="M40.2,137l0.5-3.5h1.5L41,137H40.2z"/>
		<path class="st14" d="M44.5,135.2v-0.3c0-1.9,1-3.7,4.5-5.9c2-1.3,2.8-2.2,2.8-3.6c0-1.5-0.9-2.6-2.7-2.6c-1.5,0-2.5,0.8-3.3,2.3
			l-1-0.6c0.9-1.8,2.4-2.8,4.3-2.8c2.4,0,3.9,1.5,3.9,3.7c0,1.8-0.9,3-3.4,4.6c-2.4,1.5-3.6,3-3.7,4.2H53l0.1,1.2h-8.6V135.2z"/>
	</g>
	<g class="st13">
		<path class="st14" d="M311.8,17.2V17c0-1.6,0.8-3.1,3.7-4.9c1.7-1.1,2.3-1.8,2.3-3c0-1.3-0.8-2.2-2.3-2.2c-1.2,0-2.1,0.6-2.8,1.9
			l-0.8-0.5c0.8-1.5,2-2.4,3.6-2.4c2,0,3.3,1.3,3.3,3c0,1.5-0.7,2.5-2.9,3.8c-2,1.3-3,2.5-3.1,3.5h5.9l0.1,1H311.8z"/>
		<path class="st14" d="M320.6,11.6c0-3.5,1.5-5.8,4.1-5.8s4,2.3,4,5.8s-1.4,5.8-4,5.8S320.6,15.1,320.6,11.6z M327.7,11.6
			c0-3.1-1.2-4.8-3-4.8c-1.9,0-3,1.7-3,4.8s1.2,4.8,3,4.8C326.6,16.4,327.7,14.7,327.7,11.6z"/>
		<path class="st14" d="M332.9,17.2V7.1l-2.1,0.7l-0.1-0.9l2.3-0.8h1v11.1H332.9z"/>
		<path class="st14" d="M336.7,15.4l0.7-0.7c0.7,1,1.6,1.7,2.9,1.7c1.9,0,2.8-1.4,2.8-2.9c0-1.8-1.1-2.8-2.5-2.8
			c-1.1,0-1.9,0.5-2.5,1.4l-0.8-0.3l0.4-5.8h5.8v1h-5l-0.3,3.9c0.5-0.6,1.3-1,2.5-1c2,0,3.4,1.4,3.4,3.6s-1.5,3.9-3.8,3.9
			C338.7,17.4,337.4,16.6,336.7,15.4z"/>
	</g>
	<g class="st13">
		<path class="st14" d="M69.4,100.9c0-4.1,2.2-7.1,5.2-7.1c1.5,0,2.4,0.4,3.1,1l-0.6,1c-0.7-0.6-1.4-0.9-2.6-0.9c-2.5,0-4,2.6-4,5.9
			c0.8-0.9,2.1-1.8,3.8-1.8c2.8,0,4.2,1.7,4.2,4.2s-1.7,4.4-4.5,4.4C71.5,107.6,69.4,105.5,69.4,100.9z M77.3,103.2
			c0-1.8-0.9-3.1-3.1-3.1c-1.5,0-2.8,0.8-3.6,2c0.3,3.1,1.7,4.4,3.5,4.4C76,106.5,77.3,105.3,77.3,103.2z"/>
		<path class="st14" d="M80.3,109.2l0.5-3.5h1.5l-1.3,3.5H80.3z"/>
		<path class="st14" d="M85,107.3l5.6-12.1h-6.8L83.7,94h8.2v1.1l-5.7,12.3L85,107.3z"/>
	</g>
	<g class="st13">
		<path class="st14" d="M180.5,118.7c0-4.1,2.2-7.1,5.2-7.1c1.5,0,2.4,0.4,3.1,1l-0.6,1c-0.7-0.6-1.4-0.9-2.6-0.9
			c-2.5,0-4,2.6-4,5.9c0.8-0.9,2.1-1.8,3.8-1.8c2.8,0,4.2,1.7,4.2,4.2s-1.7,4.4-4.5,4.4C182.7,125.4,180.5,123.3,180.5,118.7z
			 M188.5,121c0-1.8-0.9-3.1-3.1-3.1c-1.5,0-2.8,0.8-3.6,2c0.3,3.1,1.7,4.4,3.5,4.4C187.2,124.3,188.5,123.1,188.5,121z"/>
		<path class="st14" d="M191.5,127l0.5-3.5h1.5l-1.3,3.5H191.5z"/>
		<path class="st14" d="M200.9,125.2V122h-6.4v-1l6.1-9.1h1.6v9h2.2l0.1,1.1h-2.3v3.2H200.9z M196,120.8h5v-7.5l0,0L196,120.8z"/>
	</g>
	<g class="st13">
		<path class="st14" d="M202.1,81.1c0-1.9,1.3-2.9,3.5-3.9c-1.8-0.8-2.9-1.7-2.9-3.3c0-1.6,1.5-3.2,4.1-3.2c2.7,0,4.1,1.6,4.1,3.2
			s-1.1,2.4-3,3.3c2.3,1,3.6,1.9,3.6,3.9c0,1.9-1.7,3.5-4.7,3.5C203.9,84.6,202.1,83,202.1,81.1z M210.3,81c0-1.5-1.3-2.3-3.5-3.3
			c-2.4,1-3.4,1.9-3.4,3.3c0,1.5,1.5,2.5,3.5,2.5C208.9,83.5,210.3,82.6,210.3,81z M209.7,74c0-1.1-0.9-2.2-2.9-2.2
			c-1.9,0-2.9,1.1-2.9,2.1c0,1.3,0.9,1.9,3,2.8C208.9,75.9,209.7,75.3,209.7,74z"/>
		<path class="st14" d="M213.4,86.2l0.5-3.5h1.5l-1.3,3.5H213.4z"/>
		<path class="st14" d="M217.7,84.3V84c0-1.9,1-3.7,4.5-5.9c2-1.3,2.8-2.2,2.8-3.6c0-1.5-0.9-2.6-2.7-2.6c-1.5,0-2.5,0.8-3.3,2.3
			l-1-0.6c0.9-1.8,2.4-2.8,4.3-2.8c2.4,0,3.9,1.5,3.9,3.7c0,1.8-0.9,3-3.4,4.6c-2.4,1.5-3.6,3-3.7,4.2h7.1l0.1,1.2h-8.6V84.3z"/>
	</g>
	<g class="st13">
		<path class="st14" d="M306.6,205.5c0-4.2,1.8-6.9,4.9-6.9s4.9,2.8,4.9,6.9s-1.7,6.9-4.9,6.9S306.6,209.7,306.6,205.5z
			 M315.1,205.5c0-3.8-1.4-5.8-3.6-5.8c-2.3,0-3.6,2-3.6,5.8s1.4,5.8,3.6,5.8S315.1,209.3,315.1,205.5z"/>
		<path class="st14" d="M318,214l0.5-3.5h1.5l-1.3,3.5H318z"/>
		<path class="st14" d="M327.5,212.2V209h-6.4v-1l6.1-9.1h1.6v9h2.2l0.1,1.1h-2.3v3.2H327.5z M322.5,207.8h5v-7.5l0,0L322.5,207.8z"
			/>
		<path class="st14" d="M332.4,205.7c0-4.1,2.2-7.1,5.2-7.1c1.5,0,2.4,0.4,3.1,1l-0.6,1c-0.7-0.6-1.4-0.9-2.6-0.9
			c-2.5,0-4,2.6-4,5.9c0.8-0.9,2.1-1.8,3.8-1.8c2.8,0,4.2,1.7,4.2,4.2s-1.7,4.4-4.5,4.4C334.6,212.4,332.4,210.3,332.4,205.7z
			 M340.4,208c0-1.8-0.9-3.1-3.1-3.1c-1.5,0-2.8,0.8-3.6,2c0.3,3.1,1.7,4.4,3.5,4.4C339.1,211.3,340.4,210.1,340.4,208z"/>
	</g>
	<g class="st13">
		<path class="st14" d="M359.1,198.7c0-4.2,1.8-6.9,4.9-6.9s4.9,2.8,4.9,6.9s-1.7,6.9-4.9,6.9S359.1,202.8,359.1,198.7z
			 M367.6,198.7c0-3.8-1.4-5.8-3.6-5.8c-2.3,0-3.6,2-3.6,5.8s1.4,5.8,3.6,5.8C366.3,204.5,367.6,202.4,367.6,198.7z"/>
		<path class="st14" d="M370.6,207.2l0.5-3.5h1.5l-1.3,3.5H370.6z"/>
		<path class="st14" d="M374.3,198.9c0-4.1,2.2-7.1,5.2-7.1c1.5,0,2.4,0.4,3.1,1l-0.6,1c-0.7-0.6-1.4-0.9-2.6-0.9
			c-2.5,0-4,2.6-4,5.9c0.8-0.9,2.1-1.8,3.8-1.8c2.8,0,4.2,1.7,4.2,4.2s-1.7,4.4-4.5,4.4C376.4,205.6,374.3,203.5,374.3,198.9z
			 M382.2,201.2c0-1.8-0.9-3.1-3.1-3.1c-1.5,0-2.8,0.8-3.6,2c0.3,3.1,1.7,4.4,3.5,4.4C381,204.5,382.2,203.3,382.2,201.2z"/>
		<path class="st14" d="M391.3,205.3v-3.2h-6.4v-1l6.1-9.1h1.6v9h2.2l0.1,1.1h-2.3v3.2H391.3z M386.3,201h5v-7.5l0,0L386.3,201z"/>
	</g>
	<g class="st13">
		<path class="st14" d="M471,199.5c0-4.2,1.8-6.9,4.9-6.9s4.9,2.8,4.9,6.9s-1.7,6.9-4.9,6.9S471,203.7,471,199.5z M479.5,199.5
			c0-3.8-1.4-5.8-3.6-5.8c-2.3,0-3.6,2-3.6,5.8s1.4,5.8,3.6,5.8C478.2,205.3,479.5,203.3,479.5,199.5z"/>
		<path class="st14" d="M482.5,208l0.5-3.5h1.5l-1.3,3.5H482.5z"/>
		<path class="st14" d="M486.3,202.9c0-1.9,1.3-2.9,3.5-3.9c-1.8-0.8-2.9-1.7-2.9-3.3s1.5-3.2,4.1-3.2c2.7,0,4.1,1.6,4.1,3.2
			c0,1.6-1.1,2.4-3,3.3c2.3,1,3.6,1.9,3.6,3.9c0,1.9-1.7,3.5-4.7,3.5C488.1,206.4,486.3,204.9,486.3,202.9z M494.5,202.9
			c0-1.5-1.3-2.3-3.5-3.3c-2.4,1-3.4,1.9-3.4,3.3c0,1.5,1.5,2.5,3.5,2.5S494.5,204.4,494.5,202.9z M493.9,195.8
			c0-1.1-0.9-2.2-2.9-2.2c-1.9,0-2.9,1.1-2.9,2.1c0,1.3,0.9,1.9,3,2.8C493.1,197.7,493.9,197.1,493.9,195.8z"/>
		<path class="st14" d="M498.3,206.1l5.6-12.1h-6.8l-0.1-1.2h8.2v1.1l-5.7,12.3L498.3,206.1z"/>
	</g>
	<g class="st13">
		<path class="st14" d="M522.8,195.8v-12.1l-2.6,0.9l-0.2-1.1l2.8-1h1.2v13.3L522.8,195.8L522.8,195.8z"/>
		<path class="st14" d="M528.1,197.7l0.5-3.5h1.5l-1.3,3.5H528.1z"/>
		<path class="st14" d="M535.4,195.8v-12.1l-2.6,0.9l-0.2-1.1l2.8-1h1.2v13.3L535.4,195.8L535.4,195.8z"/>
		<path class="st14" d="M540.6,194.9l0.6-1c0.8,0.7,1.5,1.1,2.9,1.1c2.4,0,3.9-2.6,3.9-5.9c-0.8,0.9-2.1,1.8-3.8,1.8
			c-2.8,0-4.2-1.7-4.2-4.2s1.7-4.4,4.5-4.4c2.6,0,4.7,2.1,4.7,6.7c0,4.1-2.2,7.1-5.2,7.1C542.4,196.1,541.4,195.6,540.6,194.9z
			 M547.9,187.8c-0.3-3.1-1.7-4.4-3.5-4.4c-1.9,0-3.2,1.2-3.2,3.3c0,1.8,0.9,3.1,3.1,3.1C545.8,189.7,547.1,189,547.9,187.8z"/>
	</g>
	<g>
		<polygon class="st10" points="400,8.9 395.4,18.1 377.8,18.1 382.4,8.9 		"/>
	</g>
	<g>
		<polygon class="st12" points="299.8,8.9 295.2,18.1 277.5,18.1 282.2,8.9 		"/>
	</g>
	<g>
		<g>
			<polygon class="st12" points="52.6,245 68.6,237.1 68.6,152.3 52.6,160.2 			"/>
		</g>
		<g>
			<polygon class="st11" points="52.6,160.2 68.6,152.2 52.7,145.9 36.7,153.8 			"/>
		</g>
	</g>
	<g>
		<g>
			<polygon class="st10" points="73.7,245 89.6,237.1 89.6,126.9 73.7,134.8 			"/>
		</g>
		<g>
			<polygon class="st11" points="73.7,134.8 89.6,126.8 73.7,120.5 57.7,128.4 			"/>
		</g>
	</g>
	<g class="st13">
		<path class="st14" d="M173.7,285.8v-11.1h4c2.6,0,4.2,1,4.2,3.4c0,1.8-0.9,2.7-2.4,3.1l2.6,4.5l-1.8,0.3l-2.7-4.5h-2v4.4
			L173.7,285.8L173.7,285.8z M175.5,279.8h2c1.6,0,2.4-0.5,2.4-1.7s-0.8-1.7-2.4-1.7h-2V279.8z"/>
		<path class="st14" d="M183.4,280.2c0-3.7,2.3-5.8,5-5.8s5,2,5,5.8c0,3.7-2.3,5.8-5,5.8S183.4,284,183.4,280.2z M191.5,280.2
			c0-2.5-1.3-4-3.1-4s-3.1,1.5-3.1,4s1.3,4.1,3.1,4.1S191.5,282.8,191.5,280.2z"/>
		<path class="st14" d="M197.4,285.8v-9.4H194v-1.7h8.6l0.3,1.7h-3.6v9.4H197.4z"/>
		<path class="st14" d="M204.4,285.8v-11.1h7.2v1.7h-5.3v2.8h4l0.3,1.7h-4.3v3.2h5.6v1.7L204.4,285.8L204.4,285.8z"/>
	</g>
	<g class="st13">
		<path class="st14" d="M223.4,288.9c-2.4-2.1-3.7-4.3-3.7-7.2c0-2.8,1.3-5.1,3.7-7.2l0.5,0.5c-1.9,1.7-3.1,4-3.1,6.6
			c0,2.7,1.2,4.9,3.1,6.7L223.4,288.9z"/>
		<path class="st14" d="M225.6,277.9c0-2.1,1-3.4,2.5-3.4s2.5,1.3,2.5,3.3c0,1.9-0.9,3.4-2.5,3.4
			C226.5,281.2,225.6,279.9,225.6,277.9z M229.7,277.9c0-1.5-0.6-2.5-1.5-2.5c-1,0-1.5,1.1-1.5,2.5c0,1.5,0.6,2.5,1.6,2.5
			C229.1,280.4,229.7,279.3,229.7,277.9z M228.2,285.8l6.6-11.1h1l-6.6,11.1H228.2z M233.3,282.7c0-2.1,1-3.4,2.5-3.4
			s2.5,1.3,2.5,3.3c0,1.9-0.9,3.3-2.5,3.3C234.2,286,233.3,284.6,233.3,282.7z M237.3,282.6c0-1.5-0.5-2.5-1.5-2.5s-1.5,1.1-1.5,2.5
			c0,1.5,0.5,2.5,1.5,2.5S237.3,284,237.3,282.6z"/>
		<path class="st14" d="M240,288.4c1.9-1.7,3.1-4,3.1-6.7c0-2.6-1.2-4.9-3.1-6.6l0.5-0.5c2.4,2.1,3.8,4.3,3.8,7.2
			c0,2.8-1.3,5.1-3.8,7.2L240,288.4z"/>
	</g>
	<g>
		<g>
			<polygon class="st12" points="192.6,245 208.6,237.1 208.6,173.4 192.6,161.4 			"/>
		</g>
		<g>
			<polygon class="st11" points="192.6,154.2 208.6,146.2 192.7,139.8 176.7,147.8 			"/>
		</g>
		<g>
			<polygon class="st12" points="192.6,154.2 192.6,161.4 208.6,173.4 208.6,146.2 			"/>
		</g>
	</g>
	<g>
		<g>
			<polygon class="st10" points="214.6,245 230.6,237.1 230.6,153.4 214.6,161.4 			"/>
		</g>
		<g>
			<polygon class="st11" points="214.6,110.1 230.6,102.2 214.7,95.8 198.7,103.8 			"/>
		</g>
		<g>
			<polygon class="st10" points="214.6,110.1 214.6,161.4 230.6,153.4 230.6,102.2 			"/>
		</g>
	</g>
	<g class="st13">
		<path class="st14" d="M684.9,81.4l0.8-0.8c0.8,1.2,1.9,2.1,3.5,2.1c2.3,0,3.3-1.7,3.3-3.5c0-2.1-1.3-3.3-3-3.3
			c-1.4,0-2.3,0.6-3,1.7l-1-0.4l0.5-7h7v1.2h-6l-0.4,4.6c0.6-0.8,1.5-1.2,3-1.2c2.4,0,4.1,1.7,4.1,4.4s-1.7,4.7-4.6,4.7
			C687.3,83.7,685.7,82.8,684.9,81.4z"/>
		<path class="st14" d="M698.5,83.5V71.4l-2.6,0.9l-0.2-1.1l2.8-1h1.2v13.3L698.5,83.5z"/>
		<path class="st14" d="M703.8,85.3l0.5-3.5h1.5l-1.3,3.5H703.8z"/>
		<path class="st14" d="M708.6,82.6l0.6-1c0.8,0.7,1.5,1.1,2.9,1.1c2.4,0,3.9-2.6,3.9-5.9c-0.8,0.9-2.1,1.8-3.8,1.8
			c-2.8,0-4.2-1.7-4.2-4.2s1.7-4.4,4.5-4.4c2.6,0,4.7,2.1,4.7,6.7c0,4.1-2.2,7.1-5.2,7.1C710.4,83.7,709.3,83.2,708.6,82.6z
			 M715.9,75.4c-0.3-3.1-1.7-4.4-3.5-4.4c-1.9,0-3.2,1.2-3.2,3.3c0,1.8,0.9,3.1,3.1,3.1C713.8,77.4,715.1,76.6,715.9,75.4z"/>
	</g>
	<g class="st13">
		<path class="st14" d="M611.9,78.1l0.8-0.8c0.8,1.2,1.9,2.1,3.5,2.1c2.3,0,3.3-1.7,3.3-3.5c0-2.1-1.3-3.3-3-3.3
			c-1.4,0-2.3,0.6-3,1.7l-1-0.4l0.5-7h7v1.2h-6l-0.4,4.6c0.6-0.8,1.5-1.2,3-1.2c2.4,0,4.1,1.7,4.1,4.4s-1.7,4.7-4.6,4.7
			C614.3,80.5,612.8,79.6,611.9,78.1z"/>
		<path class="st14" d="M622.5,80.3V80c0-1.9,1-3.7,4.5-5.9c2-1.3,2.8-2.2,2.8-3.6c0-1.5-0.9-2.6-2.7-2.6c-1.5,0-2.5,0.8-3.3,2.3
			l-1-0.6c0.9-1.8,2.4-2.8,4.3-2.8c2.4,0,3.9,1.5,3.9,3.7c0,1.8-0.9,3-3.4,4.6c-2.4,1.5-3.6,3-3.7,4.2h7.1l0.1,1.2h-8.6V80.3z"/>
		<path class="st14" d="M633.6,82.1l0.5-3.5h1.5l-1.3,3.5H633.6z"/>
		<path class="st14" d="M637.3,73.6c0-4.2,1.8-6.9,4.9-6.9s4.9,2.8,4.9,6.9s-1.7,6.9-4.9,6.9S637.3,77.8,637.3,73.6z M645.8,73.6
			c0-3.8-1.4-5.8-3.6-5.8c-2.3,0-3.6,2-3.6,5.8s1.4,5.8,3.6,5.8C644.4,79.4,645.8,77.4,645.8,73.6z"/>
	</g>
	<g class="st13">
		<path class="st14" d="M619,285.8v-11.1h7.2v1.7h-5.3v2.8h4l0.3,1.7h-4.3v3.2h5.6v1.7L619,285.8L619,285.8z"/>
		<path class="st14" d="M628.3,285.8v-11.1h7v1.7h-5.1v3h3.8l0.3,1.7h-4v4.7L628.3,285.8L628.3,285.8z"/>
		<path class="st14" d="M637.2,285.8v-11.1h1.9v11.1H637.2z"/>
		<path class="st14" d="M641.2,280.2c0-3.6,2.1-5.7,4.8-5.7c2.1,0,3.4,0.9,4.2,2.6l-1.6,0.9c-0.4-1-1.2-1.8-2.6-1.8
			c-1.9,0-2.9,1.6-2.9,4c0,2.6,1.1,4.1,3,4.1c1.4,0,2.3-0.8,2.7-2.1l1.6,0.7c-0.7,1.8-2,3-4.3,3C643.2,286,641.2,284,641.2,280.2z"
			/>
		<path class="st14" d="M652.5,285.8v-11.1h1.9v11.1H652.5z"/>
		<path class="st14" d="M657,285.8v-11.1h7.2v1.7h-5.3v2.8h4l0.3,1.7h-4.3v3.2h5.6v1.7L657,285.8L657,285.8z"/>
		<path class="st14" d="M666.3,285.8v-11.1h1.9l5.2,7.9l0,0v-7.9h1.7v11.1h-1.7l-5.5-8.1l0,0v8.1H666.3z"/>
		<path class="st14" d="M677.2,280.2c0-3.6,2.1-5.7,4.8-5.7c2.1,0,3.4,0.9,4.2,2.6l-1.6,0.9c-0.4-1-1.2-1.8-2.6-1.8
			c-1.9,0-2.9,1.6-2.9,4c0,2.6,1.1,4.1,3,4.1c1.4,0,2.3-0.8,2.7-2.1l1.6,0.7c-0.7,1.8-2,3-4.3,3C679.3,286,677.2,284,677.2,280.2z"
			/>
		<path class="st14" d="M688.6,285.8v-11.1h1.9v11.1H688.6z"/>
		<path class="st14" d="M692.2,285.8l3.9-11.1h1.8l3.9,11L700,286l-0.9-2.8h-4.2l-0.9,2.6L692.2,285.8L692.2,285.8z M695.4,281.5
			h3.1L697,277l0,0L695.4,281.5z"/>
	</g>
	<g class="st13">
		<path class="st14" d="M714.8,288.9c-2.4-2.1-3.7-4.3-3.7-7.2c0-2.8,1.3-5.1,3.7-7.2l0.5,0.5c-1.9,1.7-3.1,4-3.1,6.6
			c0,2.7,1.2,4.9,3.1,6.7L714.8,288.9z"/>
		<path class="st14" d="M717.1,277.9c0-2.1,1-3.4,2.5-3.4s2.5,1.3,2.5,3.3c0,1.9-0.9,3.4-2.5,3.4
			C717.9,281.2,717.1,279.9,717.1,277.9z M721.1,277.9c0-1.5-0.6-2.5-1.5-2.5c-1,0-1.5,1.1-1.5,2.5c0,1.5,0.6,2.5,1.6,2.5
			C720.5,280.4,721.1,279.3,721.1,277.9z M719.6,285.8l6.6-11.1h1l-6.6,11.1H719.6z M724.7,282.7c0-2.1,1-3.4,2.5-3.4
			s2.5,1.3,2.5,3.3c0,1.9-0.9,3.3-2.5,3.3C725.6,286,724.7,284.6,724.7,282.7z M728.8,282.6c0-1.5-0.5-2.5-1.5-2.5s-1.5,1.1-1.5,2.5
			c0,1.5,0.5,2.5,1.5,2.5S728.8,284,728.8,282.6z"/>
		<path class="st14" d="M731.5,288.4c1.9-1.7,3.1-4,3.1-6.7c0-2.6-1.2-4.9-3.1-6.6l0.5-0.5c2.4,2.1,3.8,4.3,3.8,7.2
			c0,2.8-1.3,5.1-3.8,7.2L731.5,288.4z"/>
	</g>
	<g class="st13">
		<path class="st14" d="M323.2,285.8v-11.1h4c2.6,0,4.2,1,4.2,3.4c0,1.8-0.9,2.7-2.4,3.1l2.6,4.5l-1.8,0.3l-2.7-4.5h-2v4.4
			L323.2,285.8L323.2,285.8z M325,279.8h2c1.6,0,2.4-0.5,2.4-1.7s-0.8-1.7-2.4-1.7h-2V279.8z"/>
		<path class="st14" d="M332.9,280.2c0-3.7,2.3-5.8,5-5.8s5,2,5,5.8c0,3.7-2.3,5.8-5,5.8C335.2,286,332.9,284,332.9,280.2z
			 M341,280.2c0-2.5-1.3-4-3.1-4c-1.9,0-3.1,1.5-3.1,4s1.3,4.1,3.1,4.1C339.7,284.3,341,282.8,341,280.2z"/>
		<path class="st14" d="M343.4,285.8l3.9-11.1h1.8l3.9,11l-1.8,0.3l-0.9-2.8H346l-0.9,2.6H343.4z M346.6,281.5h3.1l-1.5-4.5l0,0
			L346.6,281.5z"/>
	</g>
	<g class="st13">
		<path class="st14" d="M364.1,288.9c-2.4-2.1-3.7-4.3-3.7-7.2c0-2.8,1.3-5.1,3.7-7.2l0.5,0.5c-1.9,1.7-3.1,4-3.1,6.6
			c0,2.7,1.2,4.9,3.1,6.7L364.1,288.9z"/>
		<path class="st14" d="M366.3,277.9c0-2.1,1-3.4,2.5-3.4s2.5,1.3,2.5,3.3c0,1.9-0.9,3.4-2.5,3.4
			C367.2,281.2,366.3,279.9,366.3,277.9z M370.3,277.9c0-1.5-0.6-2.5-1.5-2.5c-1,0-1.5,1.1-1.5,2.5c0,1.5,0.6,2.5,1.6,2.5
			C369.8,280.4,370.3,279.3,370.3,277.9z M368.9,285.8l6.6-11.1h1l-6.6,11.1H368.9z M374,282.7c0-2.1,1-3.4,2.5-3.4s2.5,1.3,2.5,3.3
			c0,1.9-0.9,3.3-2.5,3.3S374,284.6,374,282.7z M378,282.6c0-1.5-0.5-2.5-1.5-2.5s-1.5,1.1-1.5,2.5c0,1.5,0.5,2.5,1.5,2.5
			S378,284,378,282.6z"/>
		<path class="st14" d="M380.7,288.4c1.9-1.7,3.1-4,3.1-6.7c0-2.6-1.2-4.9-3.1-6.6l0.5-0.5c2.4,2.1,3.8,4.3,3.8,7.2
			c0,2.8-1.3,5.1-3.8,7.2L380.7,288.4z"/>
	</g>
	<g>
		<g>
			<polygon class="st12" points="342.1,245 358.1,237.1 358.1,230.7 342.1,238.7 			"/>
		</g>
		<g>
			<polygon class="st11" points="342.1,238.7 358.1,230.7 342.2,224.3 326.2,232.3 			"/>
		</g>
	</g>
	<g class="st13">
		<path class="st14" d="M477.2,285.8v-11.1h4c2.6,0,4.2,1,4.2,3.4c0,1.8-0.9,2.7-2.4,3.1l2.6,4.5l-1.8,0.3l-2.7-4.5h-2v4.4
			L477.2,285.8L477.2,285.8z M479,279.8h2c1.6,0,2.4-0.5,2.4-1.7s-0.8-1.7-2.4-1.7h-2V279.8z"/>
		<path class="st14" d="M486.8,280.2c0-3.7,2.3-5.8,5-5.8s5,2,5,5.8c0,3.7-2.3,5.8-5,5.8C489.2,286,486.8,284,486.8,280.2z
			 M495,280.2c0-2.5-1.3-4-3.1-4c-1.9,0-3.1,1.5-3.1,4s1.3,4.1,3.1,4.1C493.7,284.3,495,282.8,495,280.2z"/>
		<path class="st14" d="M498.8,285.8v-11.1h4c2.6,0,4.2,1,4.2,3.4c0,1.8-0.9,2.7-2.4,3.1l2.6,4.5l-1.8,0.3l-2.7-4.5h-2v4.4
			L498.8,285.8L498.8,285.8z M500.7,279.8h2c1.6,0,2.4-0.5,2.4-1.7s-0.8-1.7-2.4-1.7h-2V279.8z"/>
		<path class="st14" d="M511,285.8l-2.9-10.9l1.8-0.3l1.4,5.9c0.2,0.9,0.5,1.7,0.6,2.6l0,0c0.1-0.8,0.3-1.7,0.6-2.6l1.3-5.8h1.8
			l1.4,5.8c0.2,0.9,0.4,1.6,0.6,2.5l0,0c0.2-0.9,0.3-1.5,0.6-2.5l1.4-5.8h1.7l-2.9,11.1h-1.6l-2-8.5l0,0l-2.1,8.5L511,285.8
			L511,285.8z"/>
		<path class="st14" d="M521.4,285.8l3.9-11.1h1.8l3.9,11l-1.8,0.3l-0.9-2.8h-4.2l-0.9,2.6H521.4z M524.6,281.5h3.1l-1.5-4.5l0,0
			L524.6,281.5z"/>
	</g>
	<g class="st13">
		<path class="st14" d="M543.4,288.9c-2.4-2.1-3.7-4.3-3.7-7.2c0-2.8,1.3-5.1,3.7-7.2l0.5,0.5c-1.9,1.7-3.1,4-3.1,6.6
			c0,2.7,1.2,4.9,3.1,6.7L543.4,288.9z"/>
		<path class="st14" d="M545.6,277.9c0-2.1,1-3.4,2.5-3.4s2.5,1.3,2.5,3.3c0,1.9-0.9,3.4-2.5,3.4
			C546.5,281.2,545.6,279.9,545.6,277.9z M549.6,277.9c0-1.5-0.6-2.5-1.5-2.5c-1,0-1.5,1.1-1.5,2.5c0,1.5,0.6,2.5,1.6,2.5
			C549.1,280.4,549.6,279.3,549.6,277.9z M548.1,285.8l6.6-11.1h1l-6.6,11.1H548.1z M553.3,282.7c0-2.1,1-3.4,2.5-3.4
			s2.5,1.3,2.5,3.3c0,1.9-0.9,3.3-2.5,3.3C554.2,286,553.3,284.6,553.3,282.7z M557.3,282.6c0-1.5-0.5-2.5-1.5-2.5s-1.5,1.1-1.5,2.5
			c0,1.5,0.5,2.5,1.5,2.5S557.3,284,557.3,282.6z"/>
		<path class="st14" d="M560,288.4c1.9-1.7,3.1-4,3.1-6.7c0-2.6-1.2-4.9-3.1-6.6l0.5-0.5c2.4,2.1,3.8,4.3,3.8,7.2
			c0,2.8-1.3,5.1-3.8,7.2L560,288.4z"/>
	</g>
	<g>
		<g>
			<polygon class="st12" points="502.4,245 518.3,237.1 518.3,224.2 502.4,232.1 			"/>
		</g>
		<g>
			<polygon class="st11" points="502.4,232.1 518.3,224.1 502.4,217.8 486.5,225.7 			"/>
		</g>
	</g>
</g>
</svg>
