<?xml version="1.0" encoding="utf-8"?>
<!-- Generator: Adobe Illustrator 19.2.1, SVG Export Plug-In . SVG Version: 6.00 Build 0)  -->
<svg version="1.1" id="Capa_1" xmlns="http://www.w3.org/2000/svg" xmlns:xlink="http://www.w3.org/1999/xlink" x="0px" y="0px"
	 viewBox="0 0 605 239" style="enable-background:new 0 0 605 239;" xml:space="preserve">
<style type="text/css">
	.st0{enable-background:new    ;}
	.st1{fill:#FFFFFF;}
	.st2{fill:#1464A5;}
	.st3{fill:#F3F3F3;}
	.st4{fill:#45C2C4;}
	.st5{fill:#D8BE75;}
</style>
<title>Group</title>
<desc>Created with Sketch.</desc>
<g>
	<g>
		<g>
			<g class="st0">
				<path class="st1" d="M556.4,27.9l6.3-13.6H555l-0.1-1.3h9.3v1.2L557.8,28L556.4,27.9z"/>
				<path class="st1" d="M565.7,20.4c0-4.7,2-7.8,5.5-7.8c3.5,0,5.5,3.1,5.5,7.8s-1.9,7.8-5.5,7.8C567.7,28.2,565.7,25.1,565.7,20.4
					z M575.3,20.4c0-4.2-1.6-6.5-4.1-6.5c-2.6,0-4.1,2.3-4.1,6.5s1.6,6.5,4.1,6.5C573.7,27,575.3,24.7,575.3,20.4z"/>
			</g>
		</g>
		<g>
			<g class="st0">
				<path class="st1" d="M555.1,191.3c0-4.7,2-7.8,5.5-7.8c3.5,0,5.5,3.1,5.5,7.8s-1.9,7.8-5.5,7.8
					C557.1,199.1,555.1,196,555.1,191.3z M564.7,191.3c0-4.2-1.6-6.5-4.1-6.5c-2.6,0-4.1,2.3-4.1,6.5s1.6,6.5,4.1,6.5
					C563.1,197.8,564.7,195.5,564.7,191.3z"/>
				<path class="st1" d="M568.1,197.8c0-0.6,0.4-1,1-1c0.6,0,1,0.4,1,1c0,0.6-0.4,1.1-1,1.1C568.5,198.9,568.1,198.5,568.1,197.8z"
					/>
				<path class="st1" d="M572.3,195.2c0-2.1,1.5-3.3,4-4.3c-2-0.9-3.3-1.9-3.3-3.7c0-1.8,1.7-3.6,4.7-3.6c3,0,4.6,1.8,4.6,3.6
					c0,1.8-1.2,2.7-3.3,3.7c2.6,1.1,4,2.2,4,4.4c0,2.1-2,3.9-5.3,3.9C574.3,199.1,572.3,197.4,572.3,195.2z M581.6,195.1
					c0-1.7-1.4-2.6-4-3.7c-2.7,1.2-3.9,2.1-3.9,3.7c0,1.6,1.6,2.8,3.9,2.8C579.9,197.9,581.6,196.8,581.6,195.1z M580.9,187.2
					c0-1.2-1-2.5-3.2-2.5c-2.1,0-3.3,1.2-3.3,2.4c0,1.4,1,2.1,3.3,3.1C580,189.3,580.9,188.6,580.9,187.2z"/>
				<path class="st1" d="M591.7,198.8v-3.6h-7.2v-1.1l6.8-10.3h1.8v10.1h2.5l0.1,1.3h-2.6v3.6H591.7z M586.1,193.9h5.6v-8.4h0
					L586.1,193.9z"/>
			</g>
		</g>
		<g>
			<rect x="250.4" y="52.2" class="st2" width="354.4" height="1"/>
		</g>
		<g>
			<g class="st0">
				<path class="st1" d="M561.9,116.9v-3.6h-7.2v-1.1l6.8-10.3h1.8V112h2.5l0.1,1.3h-2.6v3.6H561.9z M556.3,112h5.6v-8.4h0
					L556.3,112z"/>
				<path class="st1" d="M567.6,115.9c0-0.6,0.4-1,1-1c0.6,0,1,0.4,1,1c0,0.6-0.4,1.1-1,1.1C568,117,567.6,116.6,567.6,115.9z"/>
				<path class="st1" d="M572.9,115.8l0.6-1.1c0.9,0.8,1.7,1.2,3.2,1.2c2.7,0,4.4-2.9,4.4-6.7c-1,1-2.4,2-4.3,2
					c-3.2,0-4.7-2-4.7-4.7c0-2.8,1.9-5,5-5c2.9,0,5.3,2.4,5.3,7.5c0,4.6-2.4,8.1-5.8,8.1C574.9,117.2,573.8,116.6,572.9,115.8z
					 M581.2,107.8c-0.3-3.4-2-5-3.9-5c-2.1,0-3.6,1.4-3.6,3.7c0,2,1,3.5,3.4,3.5C578.8,110,580.2,109.1,581.2,107.8z"/>
			</g>
		</g>
		<g>
			<g class="st0">
				<path class="st1" d="M274.2,13.6l5.3-11.4h-6.4L273,1.2h7.7v1l-5.3,11.5L274.2,13.6z"/>
				<path class="st1" d="M286.6,13.7v-3h-6V9.7l5.7-8.6h1.5v8.4h2.1l0.1,1.1h-2.1v3H286.6z M282,9.6h4.7v-7h0L282,9.6z"/>
			</g>
		</g>
		<g>
			<g class="st0">
				<path class="st1" d="M262.5,163.9v-11.4l-2.4,0.8l-0.2-1l2.6-0.9h1.1v12.5H262.5z"/>
				<path class="st1" d="M267.5,163.1c0-0.5,0.3-0.9,0.8-0.9c0.5,0,0.8,0.3,0.8,0.9c0,0.5-0.3,0.9-0.8,0.9
					C267.8,164,267.5,163.6,267.5,163.1z"/>
				<path class="st1" d="M270.9,157.7c0-3.9,1.7-6.5,4.6-6.5s4.6,2.6,4.6,6.5c0,3.9-1.6,6.5-4.6,6.5S270.9,161.6,270.9,157.7z
					 M278.8,157.7c0-3.5-1.3-5.4-3.4-5.4c-2.1,0-3.4,1.9-3.4,5.4s1.3,5.4,3.4,5.4C277.6,163.1,278.8,161.2,278.8,157.7z"/>
				<path class="st1" d="M281.9,157.9c0-3.9,2-6.7,4.9-6.7c1.4,0,2.3,0.4,2.9,0.9l-0.6,0.9c-0.7-0.5-1.3-0.8-2.4-0.8
					c-2.3,0-3.7,2.4-3.7,5.5c0.8-0.9,2-1.7,3.6-1.7c2.6,0,3.9,1.6,3.9,3.9c0,2.4-1.6,4.2-4.2,4.2
					C283.9,164.1,281.9,162.2,281.9,157.9z M289.4,160c0-1.7-0.8-2.9-2.9-2.9c-1.4,0-2.6,0.7-3.4,1.8c0.3,2.9,1.6,4.2,3.3,4.2
					C288.2,163.1,289.4,162,289.4,160z"/>
			</g>
		</g>
		<g class="st0">
			<path class="st3" d="M278.1,232v-7.5h1.9c2.4,0,3.7,1.3,3.7,3.7c0,2.5-1.3,3.8-3.7,3.8H278.1z M278.8,231.3h1.3
				c1.9,0,2.9-1,2.9-3.1c0-2.1-1-3.1-2.9-3.1h-1.3V231.3z"/>
			<path class="st3" d="M284.7,229.3c0-1.9,1.2-2.8,2.3-2.8c1.2,0,2.2,1,2.2,2.8v0.1h-3.8c0,1.3,0.8,2.1,1.8,2.1
				c0.7,0,1.2-0.3,1.7-0.8l0.3,0.5c-0.6,0.6-1.2,0.9-2.1,0.9C285.8,232.1,284.7,231.1,284.7,229.3z M288.5,228.9
				c-0.1-1-0.6-1.8-1.5-1.8c-0.8,0-1.5,0.6-1.6,1.8H288.5z"/>
			<path class="st3" d="M290.2,229.3c0-1.9,1.2-2.8,2.4-2.8c1,0,1.6,0.5,2,1.3l-0.5,0.3c-0.3-0.6-0.7-1-1.4-1
				c-0.8,0-1.7,0.6-1.7,2.2c0,1.4,0.7,2.2,1.7,2.2c0.7,0,1.1-0.4,1.5-1l0.5,0.3c-0.4,0.9-1.1,1.3-2,1.3
				C291.3,232.1,290.2,231.1,290.2,229.3z"/>
			<path class="st3" d="M298.1,229.1v-0.6h2.3v0.6H298.1z"/>
			<path class="st3" d="M303.8,232v-0.2c0-1.1,0.5-2.1,2.5-3.3c1.1-0.7,1.6-1.2,1.6-2c0-0.9-0.5-1.5-1.5-1.5c-0.8,0-1.4,0.4-1.9,1.3
				l-0.5-0.4c0.5-1,1.3-1.6,2.4-1.6c1.4,0,2.2,0.9,2.2,2.1c0,1-0.5,1.7-1.9,2.6c-1.3,0.9-2,1.7-2.1,2.4h4l0.1,0.6H303.8z"/>
			<path class="st3" d="M309.7,228.2c0-2.3,1-3.9,2.8-3.9s2.7,1.6,2.7,3.9c0,2.3-1,3.9-2.7,3.9S309.7,230.6,309.7,228.2z
				 M314.5,228.2c0-2.1-0.8-3.3-2-3.3c-1.3,0-2,1.1-2,3.3c0,2.1,0.8,3.3,2,3.3C313.7,231.5,314.5,230.4,314.5,228.2z"/>
			<path class="st3" d="M318,232v-6.8l-1.4,0.5l-0.1-0.6l1.6-0.6h0.7v7.5H318z"/>
			<path class="st3" d="M320.6,230.8l0.5-0.5c0.4,0.7,1.1,1.2,2,1.2c1.3,0,1.9-1,1.9-2c0-1.2-0.7-1.9-1.7-1.9
				c-0.8,0-1.3,0.4-1.7,0.9l-0.5-0.2l0.3-3.9h3.9l0,0.7h-3.4l-0.2,2.6c0.4-0.4,0.9-0.7,1.7-0.7c1.4,0,2.3,1,2.3,2.5
				c0,1.5-1,2.6-2.6,2.6C321.9,232.1,321.1,231.6,320.6,230.8z"/>
		</g>
		<g class="st0">
			<path class="st3" d="M518.9,232v-7.5h1.9c2.4,0,3.7,1.3,3.7,3.7c0,2.5-1.3,3.8-3.7,3.8H518.9z M519.7,231.3h1.3
				c1.9,0,2.9-1,2.9-3.1c0-2.1-1-3.1-2.9-3.1h-1.3V231.3z"/>
			<path class="st3" d="M525.6,229.3c0-1.9,1.2-2.8,2.3-2.8c1.2,0,2.2,1,2.2,2.8v0.1h-3.8c0,1.3,0.8,2.1,1.8,2.1
				c0.7,0,1.2-0.3,1.7-0.8l0.3,0.5c-0.6,0.6-1.2,0.9-2.1,0.9C526.7,232.1,525.6,231.1,525.6,229.3z M529.4,228.9
				c-0.1-1-0.6-1.8-1.5-1.8c-0.8,0-1.5,0.6-1.6,1.8H529.4z"/>
			<path class="st3" d="M531.1,229.3c0-1.9,1.2-2.8,2.4-2.8c1,0,1.6,0.5,2,1.3l-0.5,0.3c-0.3-0.6-0.7-1-1.4-1
				c-0.8,0-1.7,0.6-1.7,2.2c0,1.4,0.7,2.2,1.7,2.2c0.7,0,1.1-0.4,1.5-1l0.5,0.3c-0.4,0.9-1.1,1.3-2,1.3
				C532.2,232.1,531.1,231.1,531.1,229.3z"/>
			<path class="st3" d="M538.9,229.1v-0.6h2.3v0.6H538.9z"/>
			<path class="st3" d="M544.7,232v-0.2c0-1.1,0.5-2.1,2.5-3.3c1.1-0.7,1.6-1.2,1.6-2c0-0.9-0.5-1.5-1.5-1.5c-0.8,0-1.4,0.4-1.9,1.3
				l-0.5-0.4c0.5-1,1.3-1.6,2.4-1.6c1.4,0,2.2,0.9,2.2,2.1c0,1-0.5,1.7-1.9,2.6c-1.3,0.9-2,1.7-2.1,2.4h4l0.1,0.6H544.7z"/>
			<path class="st3" d="M550.6,228.2c0-2.3,1-3.9,2.8-3.9s2.7,1.6,2.7,3.9c0,2.3-1,3.9-2.7,3.9S550.6,230.6,550.6,228.2z
				 M555.4,228.2c0-2.1-0.8-3.3-2-3.3c-1.3,0-2,1.1-2,3.3c0,2.1,0.8,3.3,2,3.3C554.6,231.5,555.4,230.4,555.4,228.2z"/>
			<path class="st3" d="M558.9,232v-6.8l-1.4,0.5l-0.1-0.6l1.6-0.6h0.7v7.5H558.9z"/>
			<path class="st3" d="M561.5,228.4c0-2.3,1.2-4,2.9-4c0.8,0,1.4,0.2,1.8,0.6l-0.3,0.6c-0.4-0.3-0.8-0.5-1.4-0.5
				c-1.4,0-2.2,1.4-2.2,3.3c0.5-0.5,1.2-1,2.1-1c1.6,0,2.3,1,2.3,2.3c0,1.4-1,2.5-2.5,2.5C562.7,232.1,561.5,230.9,561.5,228.4z
				 M566,229.6c0-1-0.5-1.7-1.7-1.7c-0.8,0-1.5,0.4-2,1.1c0.2,1.7,1,2.5,2,2.5C565.2,231.5,566,230.8,566,229.6z"/>
		</g>
		<g>
			<g class="st0">
				<path class="st1" d="M267.9,94.1l0.8-0.8c0.7,1.1,1.8,1.9,3.3,1.9c2.2,0,3.1-1.6,3.1-3.3c0-2-1.2-3.1-2.9-3.1
					c-1.3,0-2.2,0.6-2.9,1.6l-0.9-0.3l0.5-6.5h6.6l0,1.1H270l-0.3,4.3c0.6-0.7,1.4-1.2,2.8-1.2c2.3,0,3.9,1.6,3.9,4.1
					s-1.6,4.4-4.3,4.4C270.2,96.4,268.8,95.5,267.9,94.1z"/>
				<path class="st1" d="M278.2,95.3c0-0.5,0.3-0.9,0.8-0.9c0.5,0,0.8,0.3,0.8,0.9c0,0.5-0.3,0.9-0.8,0.9
					C278.5,96.2,278.2,95.9,278.2,95.3z"/>
				<path class="st1" d="M287,96.1v-3h-6v-0.9l5.7-8.6h1.5V92h2.1l0.1,1.1h-2.1v3H287z M282.3,92h4.7v-7h0L282.3,92z"/>
			</g>
		</g>
		<g>
			<rect x="301.3" y="212.2" class="st2" width="1" height="4.3"/>
		</g>
		<g>
			<rect x="540.7" y="212.2" class="st2" width="1" height="4.3"/>
		</g>
		<g>
			<rect x="250.4" y="132.6" class="st2" width="354.4" height="1"/>
		</g>
		<g>
			<rect x="250.4" y="211.7" class="st2" width="354.4" height="1"/>
		</g>
		<g>
			<g>
				<g>
					<g class="st0">
						<path class="st1" d="M0.9,22.8c0-3.6,2.1-5.7,4.8-5.7c2.1,0,3.4,0.9,4.2,2.6l-1.6,0.9c-0.4-1-1.2-1.8-2.6-1.8
							c-1.9,0-2.9,1.6-2.9,4c0,2.6,1.1,4.1,3,4.1c1.4,0,2.3-0.8,2.7-2.1l1.6,0.7c-0.7,1.8-2,3-4.3,3C2.9,28.6,0.9,26.5,0.9,22.8z"/>
						<path class="st1" d="M11.4,22.8c0-3.7,2.3-5.8,5-5.8c2.7,0,5,2,5,5.8c0,3.7-2.3,5.8-5,5.8C13.7,28.6,11.4,26.6,11.4,22.8z
							 M19.5,22.8c0-2.5-1.3-4-3.1-4c-1.9,0-3.1,1.5-3.1,4s1.3,4.1,3.1,4.1C18.3,26.9,19.5,25.3,19.5,22.8z"/>
						<path class="st1" d="M22.5,26.7l1-1.4c0.9,0.9,2.2,1.6,3.6,1.6c1.4,0,2.3-0.5,2.3-1.4c0-1-0.7-1.4-2.5-2
							c-2.1-0.6-3.9-1.2-3.9-3.3c0-1.9,1.6-3.1,3.8-3.1c1.7,0,3.1,0.7,4.1,1.6l-0.9,1.5c-0.9-0.8-2.1-1.4-3.2-1.4
							c-1.3,0-2,0.6-2,1.3c0,1,0.8,1.4,2.6,1.9c2.1,0.6,3.8,1.3,3.8,3.4c0,1.8-1.5,3.2-4.1,3.2C25.2,28.6,23.6,27.8,22.5,26.7z"/>
						<path class="st1" d="M35.4,28.4V19H32v-1.7h8.6l0.3,1.7h-3.6v9.4H35.4z"/>
						<path class="st1" d="M45.1,22.8c0-3.7,2.3-5.8,5-5.8c2.7,0,5,2,5,5.8c0,3.7-2.3,5.8-5,5.8C47.4,28.6,45.1,26.6,45.1,22.8z
							 M53.2,22.8c0-2.5-1.3-4-3.1-4c-1.9,0-3.1,1.5-3.1,4s1.3,4.1,3.1,4.1C52,26.9,53.2,25.3,53.2,22.8z"/>
						<path class="st1" d="M57.1,28.4V17.3h7V19H59v3h3.8l0.3,1.7h-4v4.7H57.1z"/>
						<path class="st1" d="M69.1,28.4V17.3h4c2.6,0,4.2,1,4.2,3.4c0,1.8-0.9,2.7-2.4,3.1l2.6,4.5l-1.8,0.3L73,24h-2v4.4H69.1z
							 M71,22.4h2c1.6,0,2.4-0.5,2.4-1.7c0-1.2-0.8-1.7-2.4-1.7h-2V22.4z"/>
						<path class="st1" d="M79.6,28.4V17.3h1.9v11.1H79.6z"/>
						<path class="st1" d="M83.4,26.7l1-1.4c0.9,0.9,2.2,1.6,3.6,1.6c1.4,0,2.3-0.5,2.3-1.4c0-1-0.7-1.4-2.5-2
							c-2.1-0.6-3.9-1.2-3.9-3.3c0-1.9,1.6-3.1,3.8-3.1c1.7,0,3.1,0.7,4.1,1.6L91,20.1c-0.9-0.8-2.1-1.4-3.2-1.4c-1.3,0-2,0.6-2,1.3
							c0,1,0.8,1.4,2.6,1.9c2.1,0.6,3.8,1.3,3.8,3.4c0,1.8-1.5,3.2-4.1,3.2C86.1,28.6,84.6,27.8,83.4,26.7z"/>
						<path class="st1" d="M94.3,28.4V17.3h1.9v5.2l4.4-5.2h2.2L99,21.5l4.3,6.7l-1.9,0.3L97.7,23l-1.6,1.7v3.7H94.3z"/>
						<path class="st1" d="M119.2,31.4c-2.4-2.1-3.8-4.3-3.8-7.3c0-2.9,1.4-5.2,3.8-7.3l0.8,0.9c-1.6,1.7-2.7,3.8-2.7,6.4
							c0,2.6,1.1,4.8,2.7,6.4L119.2,31.4z"/>
						<path class="st1" d="M121.4,20.6c0-2.1,1.1-3.5,2.8-3.5c1.7,0,2.8,1.4,2.8,3.5c0,2.1-1,3.5-2.8,3.5
							C122.4,24.1,121.4,22.7,121.4,20.6z M125.4,20.6c0-1.4-0.4-2.3-1.2-2.3c-0.9,0-1.2,0.9-1.2,2.2c0,1.4,0.4,2.3,1.3,2.3
							C125,22.9,125.4,21.9,125.4,20.6z M124.4,28.4l6.6-11.1h1.6L126,28.4H124.4z M130,25c0-2.1,1.1-3.5,2.8-3.5
							c1.7,0,2.8,1.4,2.8,3.5c0,2.1-1,3.5-2.8,3.5S130,27.1,130,25z M134.1,25c0-1.4-0.4-2.3-1.2-2.3c-0.9,0-1.2,0.9-1.2,2.2
							c0,1.4,0.4,2.3,1.2,2.3C133.7,27.3,134.1,26.3,134.1,25z"/>
						<path class="st1" d="M136.9,30.6c1.6-1.6,2.7-3.9,2.7-6.4c0-2.5-1.1-4.7-2.7-6.4l0.9-0.9c2.4,2.1,3.8,4.3,3.8,7.3
							c0,2.9-1.4,5.2-3.8,7.3L136.9,30.6z"/>
					</g>
				</g>
				<g>
					<g class="st0">
						<path class="st1" d="M1.4,104V92.9h1.9l5.2,7.9h0v-7.9h1.7V104H8.6l-5.5-8.1h0v8.1H1.4z"/>
						<path class="st1" d="M12.9,104V92.9h3.9c2.4,0,4.3,0.8,4.3,3.4c0,2.7-2,3.5-4.3,3.5h-2v4.2H12.9z M14.7,98.1h2.1
							c1.6,0,2.4-0.6,2.4-1.8c0-1.2-0.7-1.7-2.4-1.7h-2V98.1z"/>
						<path class="st1" d="M22.8,104V92.9h1.9v9.4h5l0.3,1.7H22.8z"/>
						<path class="st1" d="M34.6,104V92.9h4c2.6,0,4.2,1,4.2,3.4c0,1.8-0.9,2.7-2.4,3.1l2.6,4.5l-1.8,0.3l-2.7-4.5h-2v4.4H34.6z
							 M36.4,98h2c1.6,0,2.4-0.5,2.4-1.7c0-1.2-0.8-1.7-2.4-1.7h-2V98z"/>
						<path class="st1" d="M43.9,104l3.9-11.1h1.8l3.9,11l-1.8,0.3l-0.9-2.8h-4.2l-0.9,2.6H43.9z M47.2,99.7h3.1l-1.5-4.5h0
							L47.2,99.7z"/>
						<path class="st1" d="M56.5,104v-9.4h-3.4v-1.7h8.6l0.3,1.7h-3.6v9.4H56.5z"/>
						<path class="st1" d="M63.6,104V92.9h1.9V104H63.6z"/>
						<path class="st1" d="M67.5,98.4c0-3.7,2.3-5.8,5-5.8c2.7,0,5,2,5,5.8c0,3.7-2.3,5.8-5,5.8C69.9,104.2,67.5,102.2,67.5,98.4z
							 M75.7,98.4c0-2.5-1.3-4-3.1-4c-1.9,0-3.1,1.5-3.1,4s1.3,4.1,3.1,4.1C74.4,102.5,75.7,101,75.7,98.4z"/>
						<path class="st1" d="M90.4,107.1c-2.4-2.1-3.8-4.3-3.8-7.3c0-2.9,1.4-5.2,3.8-7.3l0.8,0.9c-1.6,1.7-2.7,3.8-2.7,6.4
							c0,2.6,1.1,4.8,2.7,6.4L90.4,107.1z"/>
						<path class="st1" d="M92.6,96.2c0-2.1,1.1-3.5,2.8-3.5c1.7,0,2.8,1.4,2.8,3.5c0,2.1-1,3.5-2.8,3.5
							C93.6,99.7,92.6,98.3,92.6,96.2z M96.6,96.2c0-1.4-0.4-2.3-1.2-2.3c-0.9,0-1.2,0.9-1.2,2.2c0,1.4,0.4,2.3,1.3,2.3
							C96.2,98.5,96.6,97.6,96.6,96.2z M95.6,104l6.6-11.1h1.6L97.2,104H95.6z M101.2,100.6c0-2.1,1.1-3.5,2.8-3.5
							c1.7,0,2.8,1.4,2.8,3.5c0,2.1-1,3.5-2.8,3.5S101.2,102.7,101.2,100.6z M105.3,100.6c0-1.4-0.4-2.3-1.2-2.3
							c-0.9,0-1.2,0.9-1.2,2.2c0,1.4,0.4,2.3,1.2,2.3C104.9,102.9,105.3,102,105.3,100.6z"/>
						<path class="st1" d="M108.1,106.2c1.6-1.6,2.7-3.9,2.7-6.4c0-2.5-1.1-4.7-2.7-6.4l0.9-0.9c2.4,2.1,3.8,4.3,3.8,7.3
							c0,2.9-1.4,5.2-3.8,7.3L108.1,106.2z"/>
					</g>
				</g>
				<g>
					<g class="st0">
						<path class="st1" d="M0.9,173.6c0-3.6,2.1-5.7,4.8-5.7c2.1,0,3.4,0.9,4.2,2.6l-1.6,0.9c-0.4-1-1.2-1.8-2.6-1.8
							c-1.9,0-2.9,1.6-2.9,4c0,2.6,1.1,4.1,3,4.1c1.4,0,2.3-0.8,2.7-2.1l1.6,0.7c-0.7,1.8-2,3-4.3,3C2.9,179.4,0.9,177.4,0.9,173.6z
							"/>
						<path class="st1" d="M11.4,173.6c0-3.7,2.3-5.8,5-5.8c2.7,0,5,2,5,5.8c0,3.7-2.3,5.8-5,5.8C13.7,179.4,11.4,177.4,11.4,173.6z
							 M19.5,173.6c0-2.5-1.3-4-3.1-4c-1.9,0-3.1,1.5-3.1,4s1.3,4.1,3.1,4.1C18.3,177.7,19.5,176.2,19.5,173.6z"/>
						<path class="st1" d="M22.5,177.5l1-1.4c0.9,0.9,2.2,1.7,3.6,1.7c1.4,0,2.3-0.5,2.3-1.4c0-1-0.7-1.4-2.5-2
							c-2.1-0.6-3.9-1.2-3.9-3.3c0-1.9,1.6-3.1,3.8-3.1c1.7,0,3.1,0.7,4.1,1.6l-0.9,1.5c-0.9-0.8-2.1-1.4-3.2-1.4
							c-1.3,0-2,0.6-2,1.3c0,1,0.8,1.4,2.6,1.9c2.1,0.6,3.8,1.3,3.8,3.4c0,1.8-1.5,3.2-4.1,3.2C25.2,179.4,23.6,178.6,22.5,177.5z"
							/>
						<path class="st1" d="M35.4,179.2v-9.4H32v-1.7h8.6l0.3,1.7h-3.6v9.4H35.4z"/>
						<path class="st1" d="M45.1,173.6c0-3.7,2.3-5.8,5-5.8c2.7,0,5,2,5,5.8c0,3.7-2.3,5.8-5,5.8C47.4,179.4,45.1,177.4,45.1,173.6z
							 M53.3,173.6c0-2.5-1.3-4-3.1-4c-1.9,0-3.1,1.5-3.1,4s1.3,4.1,3.1,4.1C52,177.7,53.3,176.2,53.3,173.6z"/>
						<path class="st1" d="M57.1,179.2v-11.1h7v1.7H59v3h3.8l0.3,1.7h-4v4.7H57.1z"/>
						<path class="st1" d="M69.2,179.2v-11.1h4c2.6,0,4.2,1,4.2,3.4c0,1.8-0.9,2.7-2.4,3.1l2.6,4.5l-1.8,0.3l-2.7-4.5h-2v4.4H69.2z
							 M71,173.2h2c1.6,0,2.4-0.4,2.4-1.7c0-1.2-0.8-1.7-2.4-1.7h-2V173.2z"/>
						<path class="st1" d="M79.7,179.2v-11.1h1.9v11.1H79.7z"/>
						<path class="st1" d="M83.4,177.5l1-1.4c0.9,0.9,2.2,1.7,3.6,1.7c1.4,0,2.3-0.5,2.3-1.4c0-1-0.7-1.4-2.5-2
							c-2.1-0.6-3.9-1.2-3.9-3.3c0-1.9,1.6-3.1,3.8-3.1c1.7,0,3.1,0.7,4.1,1.6l-0.9,1.5c-0.9-0.8-2.1-1.4-3.2-1.4
							c-1.3,0-2,0.6-2,1.3c0,1,0.8,1.4,2.6,1.9c2.1,0.6,3.8,1.3,3.8,3.4c0,1.8-1.5,3.2-4.1,3.2C86.1,179.4,84.6,178.6,83.4,177.5z"
							/>
						<path class="st1" d="M94.3,179.2v-11.1h1.9v5.2l4.4-5.2h2.2l-3.8,4.3l4.3,6.7l-1.9,0.3l-3.6-5.6l-1.6,1.7v3.7H94.3z"/>
						<path class="st1" d="M115.4,182.3c-2.4-2.1-3.8-4.3-3.8-7.3c0-2.9,1.4-5.2,3.8-7.3l0.8,0.9c-1.6,1.7-2.7,3.8-2.7,6.4
							c0,2.6,1.1,4.8,2.7,6.4L115.4,182.3z"/>
						<path class="st1" d="M117.6,171.4c0-2.1,1.1-3.5,2.8-3.5c1.7,0,2.8,1.4,2.8,3.5c0,2.1-1,3.5-2.8,3.5
							C118.7,174.9,117.6,173.5,117.6,171.4z M121.6,171.4c0-1.4-0.4-2.3-1.2-2.3c-0.9,0-1.2,0.9-1.2,2.2c0,1.4,0.4,2.3,1.3,2.3
							C121.3,173.7,121.6,172.8,121.6,171.4z M120.6,179.2l6.6-11.1h1.6l-6.6,11.1H120.6z M126.3,175.8c0-2.1,1.1-3.5,2.8-3.5
							c1.7,0,2.8,1.4,2.8,3.5c0,2.1-1,3.5-2.8,3.5S126.3,177.9,126.3,175.8z M130.3,175.8c0-1.4-0.4-2.3-1.2-2.3
							c-0.9,0-1.2,0.9-1.2,2.2c0,1.4,0.4,2.3,1.2,2.3C129.9,178.1,130.3,177.2,130.3,175.8z"/>
						<path class="st1" d="M133.2,181.4c1.6-1.6,2.7-3.9,2.7-6.4c0-2.5-1.1-4.7-2.7-6.4l0.9-0.9c2.4,2.1,3.8,4.3,3.8,7.3
							c0,2.9-1.4,5.2-3.8,7.3L133.2,181.4z"/>
					</g>
				</g>
			</g>
		</g>
	</g>
	<g>
		
			<image style="overflow:visible;enable-background:new    ;" width="122" height="16" xlink:href="FF6794E9E80BA7D5.jpg"  transform="matrix(-0.8043 0 0 -0.6359 399.7972 92.9685)">
		</image>
		
			<image style="overflow:visible;enable-background:new    ;" width="124" height="14" xlink:href="FF6794E9E80BA7D7.jpg"  transform="matrix(0.7931 0 0 0.627 442.9195 104.8626)">
		</image>
		<g>
			<polygon class="st4" points="301.7,82.9 301.7,93 541.2,114.3 541.2,104.2 			"/>
		</g>
	</g>
	
		<image style="overflow:visible;enable-background:new    ;" width="124" height="14" xlink:href="FF6794E9E80BA7D2.jpg"  transform="matrix(0.7931 0 0 0.6361 442.9456 194.3563)">
	</image>
	<g>
		<polygon class="st5" points="301.7,147.5 301.7,157.6 541.2,204 541.2,193.9 		"/>
	</g>
	<g>
		
			<image style="overflow:visible;enable-background:new    ;" width="124" height="11" xlink:href="FF6794E9E80BA7D3.jpg"  transform="matrix(0.795 0 0 0.516 443.6108 18.5295)">
		</image>
		<g>
			<polygon class="st2" points="302.7,3.4 302.7,12.4 542.2,25.7 542.2,16.7 			"/>
		</g>
	</g>
</g>
</svg>
