<?xml version="1.0" encoding="UTF-8" standalone="no"?>
<svg width="747px" height="467px" viewBox="0 0 747 467" version="1.1" xmlns="http://www.w3.org/2000/svg" xmlns:xlink="http://www.w3.org/1999/xlink">
    <!-- Generator: Sketch 41.2 (35397) - http://www.bohemiancoding.com/sketch -->
    <title>Page 1</title>
    <desc>Created with Sketch.</desc>
    <defs>
        <linearGradient x1="50%" y1="0%" x2="50%" y2="100%" id="linearGradient-1">
            <stop stop-color="#000000" stop-opacity="0" offset="0%"></stop>
            <stop stop-color="#000000" offset="100%"></stop>
        </linearGradient>
    </defs>
    <g id="Page-1" stroke="none" stroke-width="1" fill="none" fill-rule="evenodd">
        <g transform="translate(0.000000, -1.000000)">
            <g id="Group-2" transform="translate(620.000000, 0.927000)" fill="#FFFFFF">
                <path d="M7.3015,12.1225635 L7.2265,11.1625635 L1.2865,11.1625635 C1.3315,10.1725635 2.3515,8.95756352 4.3465,7.68256352 C6.4765,6.33256352 7.2115,5.37256352 7.2115,3.85756352 C7.2115,2.07256352 5.9665,0.812563522 3.9415,0.812563522 C2.3365,0.812563522 1.0915,1.65256352 0.3415,3.18256352 L1.1365,3.70756352 C1.7815,2.38756352 2.6665,1.75756352 3.8965,1.75756352 C5.3965,1.75756352 6.1765,2.64256352 6.1765,3.91756352 C6.1765,5.11756352 5.5015,5.88256352 3.8365,6.93256352 C0.9115,8.80756352 0.1165,10.2775635 0.1165,11.8825635 L0.1165,12.1225635 L7.3015,12.1225635 Z M12.9485,12.3325635 C15.5585,12.3325635 16.9985,10.0375635 16.9985,6.57256352 C16.9985,3.10756352 15.5585,0.812563522 12.9485,0.812563522 C10.3385,0.812563522 8.8685,3.10756352 8.8685,6.57256352 C8.8685,10.0375635 10.3385,12.3325635 12.9485,12.3325635 Z M12.9485,11.3875635 C11.1185,11.3875635 9.9335,9.70756352 9.9335,6.57256352 C9.9335,3.43756352 11.0585,1.75756352 12.9485,1.75756352 C14.7635,1.75756352 15.9485,3.43756352 15.9485,6.57256352 C15.9485,9.70756352 14.8235,11.3875635 12.9485,11.3875635 Z M22.1505,12.1225635 L22.1505,1.02256352 L21.1755,1.02256352 L18.8505,1.84756352 L18.9855,2.73256352 L21.1155,2.01256352 L21.1155,12.1225635 L22.1505,12.1225635 Z M28.9225,12.3325635 C31.2175,12.3325635 32.6425,10.7425635 32.6425,8.64256352 C32.6425,6.63256352 31.5175,5.17756352 29.1775,5.17756352 C27.7675,5.17756352 26.7175,5.89756352 26.0125,6.66256352 C26.0125,3.88756352 27.2725,1.74256352 29.3275,1.74256352 C30.3175,1.74256352 30.8575,2.01256352 31.4575,2.49256352 L31.9525,1.65256352 C31.3675,1.17256352 30.5875,0.812563522 29.3425,0.812563522 C26.7925,0.812563522 24.9775,3.34756352 24.9775,6.76756352 C24.9775,10.5775635 26.7625,12.3325635 28.9225,12.3325635 Z M28.9675,11.4175635 C27.4975,11.4175635 26.2825,10.2775635 26.0575,7.72756352 C26.7625,6.75256352 27.8275,6.09256352 29.0575,6.09256352 C30.8575,6.09256352 31.6075,7.18756352 31.6075,8.65756352 C31.6075,10.3975635 30.5425,11.4175635 28.9675,11.4175635 Z" id="2016"></path>
                <path d="M101.7115,12.1225635 L101.6365,11.1625635 L95.6965,11.1625635 C95.7415,10.1725635 96.7615,8.95756352 98.7565,7.68256352 C100.8865,6.33256352 101.6215,5.37256352 101.6215,3.85756352 C101.6215,2.07256352 100.3765,0.812563522 98.3515,0.812563522 C96.7465,0.812563522 95.5015,1.65256352 94.7515,3.18256352 L95.5465,3.70756352 C96.1915,2.38756352 97.0765,1.75756352 98.3065,1.75756352 C99.8065,1.75756352 100.5865,2.64256352 100.5865,3.91756352 C100.5865,5.11756352 99.9115,5.88256352 98.2465,6.93256352 C95.3215,8.80756352 94.5265,10.2775635 94.5265,11.8825635 L94.5265,12.1225635 L101.7115,12.1225635 Z M107.3585,12.3325635 C109.9685,12.3325635 111.4085,10.0375635 111.4085,6.57256352 C111.4085,3.10756352 109.9685,0.812563522 107.3585,0.812563522 C104.7485,0.812563522 103.2785,3.10756352 103.2785,6.57256352 C103.2785,10.0375635 104.7485,12.3325635 107.3585,12.3325635 Z M107.3585,11.3875635 C105.5285,11.3875635 104.3435,9.70756352 104.3435,6.57256352 C104.3435,3.43756352 105.4685,1.75756352 107.3585,1.75756352 C109.1735,1.75756352 110.3585,3.43756352 110.3585,6.57256352 C110.3585,9.70756352 109.2335,11.3875635 107.3585,11.3875635 Z M116.5605,12.1225635 L116.5605,1.02256352 L115.5855,1.02256352 L113.2605,1.84756352 L113.3955,2.73256352 L115.5255,2.01256352 L115.5255,12.1225635 L116.5605,12.1225635 Z M122.9575,12.3325635 C125.3125,12.3325635 126.7675,10.6675635 126.7675,8.44756352 C126.7675,6.22756352 125.3425,4.81756352 123.3325,4.81756352 C122.1475,4.81756352 121.4125,5.22256352 120.8725,5.85256352 L121.1725,1.99756352 L126.1375,1.99756352 L126.1075,1.02256352 L120.2875,1.02256352 L119.8525,6.82756352 L120.6475,7.12756352 C121.2475,6.25756352 122.0425,5.73256352 123.1825,5.73256352 C124.6525,5.73256352 125.7175,6.72256352 125.7175,8.49256352 C125.7175,9.96256352 124.8625,11.3875635 122.9425,11.3875635 C121.6075,11.3875635 120.6775,10.6825635 120.0175,9.67756352 L119.3275,10.3525635 C120.0625,11.5225635 121.3525,12.3325635 122.9575,12.3325635 Z" id="2015"></path>
            </g>
            <polygon id="Fill-3" fill="#2ECDCD" points="610.9531 4.7678 606.3201 14.0338 588.7111 14.0338 593.3441 4.7678"></polygon>
            <polygon id="Fill-4" fill="#0086CD" points="702.4612 4.7678 697.8282 14.0338 680.2192 14.0338 684.8522 4.7678"></polygon>
            <path d="M7.5916,38.4005635 L7.5916,29.0405635 L11.1466,29.0405635 L10.8766,27.3005635 L2.2966,27.3005635 L2.2966,29.0405635 L5.7166,29.0405635 L5.7166,38.4005635 L7.5916,38.4005635 Z M16.6466,38.6105635 C19.3166,38.6105635 21.6416,36.5855635 21.6416,32.8505635 C21.6416,29.1155635 19.3166,27.0905635 16.6466,27.0905635 C13.9616,27.0905635 11.6366,29.1155635 11.6366,32.8505635 C11.6366,36.5855635 13.9616,38.6105635 16.6466,38.6105635 Z M16.6466,36.9305635 C14.7716,36.9305635 13.5116,35.3705635 13.5116,32.8505635 C13.5116,30.3305635 14.7716,28.8155635 16.6466,28.8155635 C18.5216,28.8155635 19.7816,30.3305635 19.7816,32.8505635 C19.7816,35.3705635 18.5216,36.9305635 16.6466,36.9305635 Z M27.5766,38.4005635 L27.5766,29.0405635 L31.1316,29.0405635 L30.8616,27.3005635 L22.2816,27.3005635 L22.2816,29.0405635 L25.7016,29.0405635 L25.7016,38.4005635 L27.5766,38.4005635 Z M32.1916,38.4005635 L33.1216,35.7605635 L37.3366,35.7605635 L38.2816,38.5505635 L40.0966,38.2505635 L36.2116,27.2555635 L34.3816,27.2555635 L30.4516,38.4005635 L32.1916,38.4005635 Z M35.2366,29.6105635 L35.2666,29.6105635 L36.7966,34.1105635 L33.6766,34.1105635 L35.2366,29.6105635 Z M48.9266,38.4005635 L48.6416,36.7055635 L43.6766,36.7055635 L43.6766,27.3005635 L41.8016,27.3005635 L41.8016,38.4005635 L48.9266,38.4005635 Z M54.0766,38.4005635 L55.0066,35.7605635 L59.2216,35.7605635 L60.1666,38.5505635 L61.9816,38.2505635 L58.0966,27.2555635 L56.2666,27.2555635 L52.3366,38.4005635 L54.0766,38.4005635 Z M57.1216,29.6105635 L57.1516,29.6105635 L58.6816,34.1105635 L55.5616,34.1105635 L57.1216,29.6105635 Z M67.4666,38.6105635 C69.7916,38.6105635 71.1416,37.4255635 71.8016,35.5955635 L70.1816,34.8605635 C69.7466,36.1055635 68.8466,36.9305635 67.4666,36.9305635 C65.5316,36.9305635 64.4216,35.3705635 64.4216,32.8055635 C64.4216,30.3755635 65.4716,28.8155635 67.3616,28.8155635 C68.6966,28.8155635 69.5066,29.5655635 69.9416,30.6005635 L71.5316,29.6555635 C70.7666,28.0055635 69.4616,27.0905635 67.3616,27.0905635 C64.6316,27.0905635 62.5466,29.1755635 62.5466,32.8205635 C62.5466,36.5705635 64.6016,38.6105635 67.4666,38.6105635 Z M77.7516,38.4005635 L77.7516,29.0405635 L81.3066,29.0405635 L81.0366,27.3005635 L72.4566,27.3005635 L72.4566,29.0405635 L75.8766,29.0405635 L75.8766,38.4005635 L77.7516,38.4005635 Z M84.8566,38.4005635 L84.8566,27.3005635 L82.9966,27.3005635 L82.9966,38.4005635 L84.8566,38.4005635 Z M92.2766,38.4455635 L96.1316,27.3005635 L94.3616,27.3005635 L91.4366,35.9555635 L91.4066,35.9555635 L88.5116,27.1505635 L86.6966,27.4505635 L90.5066,38.4455635 L92.2766,38.4455635 Z M101.6616,38.6105635 C104.3316,38.6105635 106.6566,36.5855635 106.6566,32.8505635 C106.6566,29.1155635 104.3316,27.0905635 101.6616,27.0905635 C98.9766,27.0905635 96.6516,29.1155635 96.6516,32.8505635 C96.6516,36.5855635 98.9766,38.6105635 101.6616,38.6105635 Z M101.6616,36.9305635 C99.7866,36.9305635 98.5266,35.3705635 98.5266,32.8505635 C98.5266,30.3305635 99.7866,28.8155635 101.6616,28.8155635 C103.5366,28.8155635 104.7966,30.3305635 104.7966,32.8505635 C104.7966,35.3705635 103.5366,36.9305635 101.6616,36.9305635 Z M116.3666,40.9655635 C114.4916,39.2555635 113.2916,36.9605635 113.2916,34.3055635 C113.2916,31.6655635 114.4916,29.3705635 116.3516,27.6605635 L115.8866,27.1355635 C113.4416,29.1905635 112.1516,31.4705635 112.1516,34.3055635 C112.1516,37.1555635 113.4416,39.4205635 115.8866,41.4755635 L116.3666,40.9655635 Z M119.6016,38.4005635 L119.6016,29.0705635 L119.6316,29.0705635 C119.8716,29.8655635 120.0516,30.3305635 120.3216,31.0355635 L123.2016,38.4005635 L124.1766,38.4005635 L127.0566,31.0355635 C127.3266,30.3305635 127.5966,29.5955635 127.7466,29.0855635 L127.7766,29.0855635 L127.7766,38.4005635 L128.8416,38.4005635 L128.8416,27.3005635 L127.4466,27.3005635 L123.7416,37.0205635 L123.7116,37.0205635 L119.9916,27.3005635 L118.6116,27.3005635 L118.6116,38.4005635 L119.6016,38.4005635 Z M132.6916,38.4005635 L132.6916,29.0705635 L132.7216,29.0705635 C132.9616,29.8655635 133.1416,30.3305635 133.4116,31.0355635 L136.2916,38.4005635 L137.2666,38.4005635 L140.1466,31.0355635 C140.4166,30.3305635 140.6866,29.5955635 140.8366,29.0855635 L140.8666,29.0855635 L140.8666,38.4005635 L141.9316,38.4005635 L141.9316,27.3005635 L140.5366,27.3005635 L136.8316,37.0205635 L136.8016,37.0205635 L133.0816,27.3005635 L131.7016,27.3005635 L131.7016,38.4005635 L132.6916,38.4005635 Z M145.4666,32.7905635 C145.4666,33.0605635 145.4816,33.3305635 145.4966,33.5705635 L143.6816,33.5705635 L143.6816,34.4255635 L145.5866,34.4255635 C146.0216,37.2755635 147.5966,38.6105635 149.6216,38.6105635 C151.6016,38.6105635 152.7566,37.3205635 153.2966,35.5055635 L152.3516,35.1305635 C151.9016,36.7805635 151.1516,37.6805635 149.6366,37.6805635 C148.0316,37.6805635 146.9516,36.5705635 146.6216,34.4255635 L150.0116,34.4255635 L150.0116,33.5705635 L146.5316,33.5705635 C146.5166,33.3155635 146.5016,33.0305635 146.5016,32.7305635 C146.5016,32.5805635 146.5016,32.3105635 146.5166,32.1455635 L150.0116,32.1455635 L150.0116,31.3205635 L146.6066,31.3205635 C146.9366,29.0555635 148.1666,28.0355635 149.6066,28.0355635 C151.1666,28.0355635 151.7366,28.9355635 152.1866,30.4505635 L153.1466,30.0905635 C152.6366,28.3505635 151.6316,27.0905635 149.6216,27.0905635 C147.7466,27.0905635 146.0066,28.3955635 145.5716,31.3205635 L143.6816,31.3205635 L143.6816,32.1455635 L145.4816,32.1455635 C145.4816,32.3105635 145.4666,32.6105635 145.4666,32.7905635 Z M155.4216,41.4755635 C157.8666,39.4205635 159.1716,37.1555635 159.1716,34.3055635 C159.1716,31.4705635 157.8666,29.1905635 155.4216,27.1355635 L154.9566,27.6605635 C156.8166,29.3705635 158.0316,31.6655635 158.0316,34.3055635 C158.0316,36.9605635 156.8166,39.2555635 154.9566,40.9655635 L155.4216,41.4755635 Z" id="TOTAL-ACTIVO-(MM€)" fill="#FFFFFF"></path>
            <path d="M5.64,130.943564 C7.965,130.943564 9.315,129.758564 9.975,127.928564 L8.355,127.193564 C7.92,128.438564 7.02,129.263564 5.64,129.263564 C3.705,129.263564 2.595,127.703564 2.595,125.138564 C2.595,122.708564 3.645,121.148564 5.535,121.148564 C6.87,121.148564 7.68,121.898564 8.115,122.933564 L9.705,121.988564 C8.94,120.338564 7.635,119.423564 5.535,119.423564 C2.805,119.423564 0.72,121.508564 0.72,125.153564 C0.72,128.903564 2.775,130.943564 5.64,130.943564 Z M13.78,130.733564 L13.78,126.353564 L15.745,126.353564 L18.43,130.883564 L20.26,130.583564 L17.62,126.113564 C19.15,125.723564 20.065,124.808564 20.065,123.038564 C20.065,120.683564 18.535,119.633564 15.91,119.633564 L11.935,119.633564 L11.935,130.733564 L13.78,130.733564 Z M13.78,121.343564 L15.82,121.343564 C17.41,121.343564 18.235,121.778564 18.235,123.008564 C18.235,124.268564 17.41,124.718564 15.82,124.718564 L13.78,124.718564 L13.78,121.343564 Z M24.83,118.973564 L26.045,118.973564 L28.22,116.483564 L26.225,116.483564 L24.83,118.973564 Z M29.795,130.733564 L29.795,129.038564 L24.2,129.038564 L24.2,125.798564 L28.52,125.798564 L28.25,124.133564 L24.2,124.133564 L24.2,121.373564 L29.495,121.373564 L29.495,119.633564 L22.325,119.633564 L22.325,130.733564 L29.795,130.733564 Z M34.815,130.733564 C38.25,130.733564 40.59,129.098564 40.59,125.138564 C40.59,121.253564 38.295,119.633564 34.815,119.633564 L31.665,119.633564 L31.665,130.733564 L34.815,130.733564 Z M33.525,121.373564 L34.95,121.373564 C37.53,121.373564 38.715,122.573564 38.715,125.168564 C38.715,127.868564 37.545,129.038564 34.98,129.038564 L33.525,129.038564 L33.525,121.373564 Z M44.59,130.733564 L44.59,119.633564 L42.73,119.633564 L42.73,130.733564 L44.59,130.733564 Z M51.71,130.733564 L51.71,121.373564 L55.265,121.373564 L54.995,119.633564 L46.415,119.633564 L46.415,121.373564 L49.835,121.373564 L49.835,130.733564 L51.71,130.733564 Z M60.765,130.943564 C63.435,130.943564 65.76,128.918564 65.76,125.183564 C65.76,121.448564 63.435,119.423564 60.765,119.423564 C58.08,119.423564 55.755,121.448564 55.755,125.183564 C55.755,128.918564 58.08,130.943564 60.765,130.943564 Z M60.765,129.263564 C58.89,129.263564 57.63,127.703564 57.63,125.183564 C57.63,122.663564 58.89,121.148564 60.765,121.148564 C62.64,121.148564 63.9,122.663564 63.9,125.183564 C63.9,127.703564 62.64,129.263564 60.765,129.263564 Z M71.59,130.943564 C74.23,130.943564 75.7,129.518564 75.7,127.718564 C75.7,125.618564 74.02,124.943564 71.92,124.328564 C70.105,123.788564 69.31,123.428564 69.31,122.393564 C69.31,121.673564 70.03,121.118564 71.29,121.118564 C72.46,121.118564 73.63,121.733564 74.515,122.513564 L75.4,121.013564 C74.35,120.143564 72.955,119.423564 71.26,119.423564 C69.04,119.423564 67.48,120.668564 67.48,122.543564 C67.48,124.658564 69.19,125.228564 71.335,125.858564 C73.165,126.413564 73.87,126.863564 73.87,127.838564 C73.87,128.798564 72.925,129.278564 71.53,129.278564 C70.165,129.278564 68.77,128.513564 67.915,127.628564 L66.91,129.053564 C68.035,130.118564 69.595,130.943564 71.59,130.943564 Z M81.96,130.733564 L82.89,128.093564 L87.105,128.093564 L88.05,130.883564 L89.865,130.583564 L85.98,119.588564 L84.15,119.588564 L80.22,130.733564 L81.96,130.733564 Z M85.005,121.943564 L85.035,121.943564 L86.565,126.443564 L83.445,126.443564 L85.005,121.943564 Z M102.035,130.733564 L101.75,129.038564 L96.785,129.038564 L96.785,119.633564 L94.91,119.633564 L94.91,130.733564 L102.035,130.733564 Z M104.445,130.733564 L105.375,128.093564 L109.59,128.093564 L110.535,130.883564 L112.35,130.583564 L108.465,119.588564 L106.635,119.588564 L102.705,130.733564 L104.445,130.733564 Z M107.49,121.943564 L107.52,121.943564 L109.05,126.443564 L105.93,126.443564 L107.49,121.943564 Z M121.775,130.943564 C124.1,130.943564 125.45,129.758564 126.11,127.928564 L124.49,127.193564 C124.055,128.438564 123.155,129.263564 121.775,129.263564 C119.84,129.263564 118.73,127.703564 118.73,125.138564 C118.73,122.708564 119.78,121.148564 121.67,121.148564 C123.005,121.148564 123.815,121.898564 124.25,122.933564 L125.84,121.988564 C125.075,120.338564 123.77,119.423564 121.67,119.423564 C118.94,119.423564 116.855,121.508564 116.855,125.153564 C116.855,128.903564 118.91,130.943564 121.775,130.943564 Z M135.195,130.733564 L134.91,129.038564 L129.945,129.038564 L129.945,119.633564 L128.07,119.633564 L128.07,130.733564 L135.195,130.733564 Z M138.745,130.733564 L138.745,119.633564 L136.885,119.633564 L136.885,130.733564 L138.745,130.733564 Z M148.895,130.733564 L148.895,129.038564 L143.3,129.038564 L143.3,125.798564 L147.62,125.798564 L147.35,124.133564 L143.3,124.133564 L143.3,121.373564 L148.595,121.373564 L148.595,119.633564 L141.425,119.633564 L141.425,130.733564 L148.895,130.733564 Z M152.49,130.733564 L152.49,122.648564 L152.52,122.648564 L157.98,130.733564 L159.69,130.733564 L159.69,119.633564 L157.95,119.633564 L157.95,127.568564 L157.92,127.568564 L152.67,119.633564 L150.765,119.633564 L150.765,130.733564 L152.49,130.733564 Z M166.675,130.733564 L166.675,121.373564 L170.23,121.373564 L169.96,119.633564 L161.38,119.633564 L161.38,121.373564 L164.8,121.373564 L164.8,130.733564 L166.675,130.733564 Z M179.255,130.733564 L179.255,129.038564 L173.66,129.038564 L173.66,125.798564 L177.98,125.798564 L177.71,124.133564 L173.66,124.133564 L173.66,121.373564 L178.955,121.373564 L178.955,119.633564 L171.785,119.633564 L171.785,130.733564 L179.255,130.733564 Z M188.25,130.733564 L187.965,129.038564 L183,129.038564 L183,119.633564 L181.125,119.633564 L181.125,130.733564 L188.25,130.733564 Z M190.66,130.733564 L191.59,128.093564 L195.805,128.093564 L196.75,130.883564 L198.565,130.583564 L194.68,119.588564 L192.85,119.588564 L188.92,130.733564 L190.66,130.733564 Z M193.705,121.943564 L193.735,121.943564 L195.265,126.443564 L192.145,126.443564 L193.705,121.943564 Z" id="CRÉDITOS-A-LA-CLIENTELA-" fill="#FFFFFF"></path>
            <path d="M211.3827,132.298564 C209.5077,130.588564 208.3077,128.293564 208.3077,125.638564 C208.3077,122.998564 209.5077,120.703564 211.3677,118.993564 L210.9027,118.468564 C208.4577,120.523564 207.1677,122.803564 207.1677,125.638564 C207.1677,128.488564 208.4577,130.753564 210.9027,132.808564 L211.3827,132.298564 Z M217.8127,129.733564 C220.3777,129.733564 221.6077,128.473564 221.6077,126.718564 C221.6077,125.113564 220.4977,124.258564 219.1477,124.018564 L219.1477,123.988564 C220.2727,123.733564 221.2477,122.908564 221.2477,121.423564 C221.2477,119.668564 219.9877,118.633564 217.4827,118.633564 L213.6277,118.633564 L213.6277,129.733564 L217.8127,129.733564 Z M214.6777,119.593564 L217.4227,119.593564 C219.3427,119.593564 220.1977,120.208564 220.1977,121.558564 C220.1977,122.923564 219.1627,123.568564 217.3927,123.568564 L214.6777,123.568564 L214.6777,119.593564 Z M214.6777,124.498564 L217.4677,124.498564 C219.3727,124.498564 220.5577,125.188564 220.5577,126.673564 C220.5577,128.008564 219.7027,128.788564 217.7977,128.788564 L214.6777,128.788564 L214.6777,124.498564 Z M224.7377,129.733564 L224.7377,124.588564 C225.3377,123.343564 226.3877,122.623564 227.6927,122.623564 C227.7227,122.623564 228.0377,122.623564 228.0677,122.638564 L227.9777,121.678564 L227.8727,121.678564 C226.3277,121.678564 225.3677,122.428564 224.7677,123.388564 L224.7377,123.388564 L224.6327,121.843564 L223.7027,121.843564 L223.7027,129.733564 L224.7377,129.733564 Z M231.9327,129.898564 C233.1327,129.898564 234.1377,129.253564 234.9327,128.488564 L235.0377,129.733564 L235.9677,129.733564 L235.9677,121.843564 L234.9327,121.843564 L234.9327,127.633564 C234.0327,128.473564 233.1777,129.013564 232.1727,129.013564 C231.0627,129.013564 230.5977,128.473564 230.5977,127.363564 L230.5977,121.843564 L229.5627,121.843564 L229.5627,127.573564 C229.5627,129.043564 230.3577,129.898564 231.9327,129.898564 Z M240.9877,129.838564 C241.3777,129.838564 241.8127,129.793564 242.0677,129.748564 L241.9477,128.863564 C241.7377,128.923564 241.4527,128.968564 241.1677,128.968564 C240.2527,128.968564 239.9377,128.548564 239.9377,127.708564 L239.9377,122.713564 L241.9927,122.713564 L241.9927,121.843564 L239.9377,121.843564 L239.9377,118.918564 L238.9027,119.068564 L238.9027,121.843564 L237.5377,121.843564 L237.5377,122.713564 L238.9027,122.713564 L238.9027,127.858564 C238.9027,129.298564 239.5777,129.838564 240.9877,129.838564 Z M246.8627,129.898564 C248.7977,129.898564 250.4327,128.413564 250.4327,125.788564 C250.4327,123.148564 248.7977,121.678564 246.8627,121.678564 C244.9127,121.678564 243.2777,123.148564 243.2777,125.788564 C243.2777,128.413564 244.9277,129.898564 246.8627,129.898564 Z M246.8627,129.013564 C245.1677,129.013564 244.3127,127.543564 244.3127,125.788564 C244.3127,123.928564 245.2577,122.563564 246.8627,122.563564 C248.5277,122.563564 249.3977,124.048564 249.3977,125.788564 C249.3977,127.648564 248.4527,129.013564 246.8627,129.013564 Z M252.0327,132.808564 C254.4777,130.753564 255.7827,128.488564 255.7827,125.638564 C255.7827,122.803564 254.4777,120.523564 252.0327,118.468564 L251.5677,118.993564 C253.4277,120.703564 254.6427,122.998564 254.6427,125.638564 C254.6427,128.293564 253.4277,130.588564 251.5677,132.298564 L252.0327,132.808564 Z M261.8977,132.298564 C260.0227,130.588564 258.8227,128.293564 258.8227,125.638564 C258.8227,122.998564 260.0227,120.703564 261.8827,118.993564 L261.4177,118.468564 C258.9727,120.523564 257.6827,122.803564 257.6827,125.638564 C257.6827,128.488564 258.9727,130.753564 261.4177,132.808564 L261.8977,132.298564 Z M265.1327,129.733564 L265.1327,120.403564 L265.1627,120.403564 C265.4027,121.198564 265.5827,121.663564 265.8527,122.368564 L268.7327,129.733564 L269.7077,129.733564 L272.5877,122.368564 C272.8577,121.663564 273.1277,120.928564 273.2777,120.418564 L273.3077,120.418564 L273.3077,129.733564 L274.3727,129.733564 L274.3727,118.633564 L272.9777,118.633564 L269.2727,128.353564 L269.2427,128.353564 L265.5227,118.633564 L264.1427,118.633564 L264.1427,129.733564 L265.1327,129.733564 Z M278.2227,129.733564 L278.2227,120.403564 L278.2527,120.403564 C278.4927,121.198564 278.6727,121.663564 278.9427,122.368564 L281.8227,129.733564 L282.7977,129.733564 L285.6777,122.368564 C285.9477,121.663564 286.2177,120.928564 286.3677,120.418564 L286.3977,120.418564 L286.3977,129.733564 L287.4627,129.733564 L287.4627,118.633564 L286.0677,118.633564 L282.3627,128.353564 L282.3327,128.353564 L278.6127,118.633564 L277.2327,118.633564 L277.2327,129.733564 L278.2227,129.733564 Z M290.9977,124.123564 C290.9977,124.393564 291.0127,124.663564 291.0277,124.903564 L289.2127,124.903564 L289.2127,125.758564 L291.1177,125.758564 C291.5527,128.608564 293.1277,129.943564 295.1527,129.943564 C297.1327,129.943564 298.2877,128.653564 298.8277,126.838564 L297.8827,126.463564 C297.4327,128.113564 296.6827,129.013564 295.1677,129.013564 C293.5627,129.013564 292.4827,127.903564 292.1527,125.758564 L295.5427,125.758564 L295.5427,124.903564 L292.0627,124.903564 C292.0477,124.648564 292.0327,124.363564 292.0327,124.063564 C292.0327,123.913564 292.0327,123.643564 292.0477,123.478564 L295.5427,123.478564 L295.5427,122.653564 L292.1377,122.653564 C292.4677,120.388564 293.6977,119.368564 295.1377,119.368564 C296.6977,119.368564 297.2677,120.268564 297.7177,121.783564 L298.6777,121.423564 C298.1677,119.683564 297.1627,118.423564 295.1527,118.423564 C293.2777,118.423564 291.5377,119.728564 291.1027,122.653564 L289.2127,122.653564 L289.2127,123.478564 L291.0127,123.478564 C291.0127,123.643564 290.9977,123.943564 290.9977,124.123564 Z M300.9527,132.808564 C303.3977,130.753564 304.7027,128.488564 304.7027,125.638564 C304.7027,122.803564 303.3977,120.523564 300.9527,118.468564 L300.4877,118.993564 C302.3477,120.703564 303.5627,122.998564 303.5627,125.638564 C303.5627,128.293564 302.3477,130.588564 300.4877,132.298564 L300.9527,132.808564 Z" id="(Bruto)(MM€)" fill="#FFFFFF"></path>
            <text id="DEPÓSITOS-DE-LA-CLIENTELA-" font-family="BentonSansBBVA-Medium, Benton Sans BBVA" font-size="15" font-weight="400" letter-spacing="0.025" fill="#FFFFFF">
                <tspan x="0.5586" y="225.243364">DEPÓSITOS DE LA CLIENTELA </tspan>
            </text>
            <path d="M230.9559,226.808364 C229.0809,225.098364 227.8809,222.803364 227.8809,220.148364 C227.8809,217.508364 229.0809,215.213364 230.9409,213.503364 L230.4759,212.978364 C228.0309,215.033364 226.7409,217.313364 226.7409,220.148364 C226.7409,222.998364 228.0309,225.263364 230.4759,227.318364 L230.9559,226.808364 Z M234.1909,224.243364 L234.1909,214.913364 L234.2209,214.913364 C234.4609,215.708364 234.6409,216.173364 234.9109,216.878364 L237.7909,224.243364 L238.7659,224.243364 L241.6459,216.878364 C241.9159,216.173364 242.1859,215.438364 242.3359,214.928364 L242.3659,214.928364 L242.3659,224.243364 L243.4309,224.243364 L243.4309,213.143364 L242.0359,213.143364 L238.3309,222.863364 L238.3009,222.863364 L234.5809,213.143364 L233.2009,213.143364 L233.2009,224.243364 L234.1909,224.243364 Z M247.2809,224.243364 L247.2809,214.913364 L247.3109,214.913364 C247.5509,215.708364 247.7309,216.173364 248.0009,216.878364 L250.8809,224.243364 L251.8559,224.243364 L254.7359,216.878364 C255.0059,216.173364 255.2759,215.438364 255.4259,214.928364 L255.4559,214.928364 L255.4559,224.243364 L256.5209,224.243364 L256.5209,213.143364 L255.1259,213.143364 L251.4209,222.863364 L251.3909,222.863364 L247.6709,213.143364 L246.2909,213.143364 L246.2909,224.243364 L247.2809,224.243364 Z M260.0559,218.633364 C260.0559,218.903364 260.0709,219.173364 260.0859,219.413364 L258.2709,219.413364 L258.2709,220.268364 L260.1759,220.268364 C260.6109,223.118364 262.1859,224.453364 264.2109,224.453364 C266.1909,224.453364 267.3459,223.163364 267.8859,221.348364 L266.9409,220.973364 C266.4909,222.623364 265.7409,223.523364 264.2259,223.523364 C262.6209,223.523364 261.5409,222.413364 261.2109,220.268364 L264.6009,220.268364 L264.6009,219.413364 L261.1209,219.413364 C261.1059,219.158364 261.0909,218.873364 261.0909,218.573364 C261.0909,218.423364 261.0909,218.153364 261.1059,217.988364 L264.6009,217.988364 L264.6009,217.163364 L261.1959,217.163364 C261.5259,214.898364 262.7559,213.878364 264.1959,213.878364 C265.7559,213.878364 266.3259,214.778364 266.7759,216.293364 L267.7359,215.933364 C267.2259,214.193364 266.2209,212.933364 264.2109,212.933364 C262.3359,212.933364 260.5959,214.238364 260.1609,217.163364 L258.2709,217.163364 L258.2709,217.988364 L260.0709,217.988364 C260.0709,218.153364 260.0559,218.453364 260.0559,218.633364 Z M270.0109,227.318364 C272.4559,225.263364 273.7609,222.998364 273.7609,220.148364 C273.7609,217.313364 272.4559,215.033364 270.0109,212.978364 L269.5459,213.503364 C271.4059,215.213364 272.6209,217.508364 272.6209,220.148364 C272.6209,222.803364 271.4059,225.098364 269.5459,226.808364 L270.0109,227.318364 Z" id="(MM€)" fill="#FFFFFF"></path>
            <text id="PATRIMONIO-NETO-(MM€)" font-family="BentonSansBBVA-Medium, Benton Sans BBVA" font-size="15" font-weight="400" letter-spacing="0.025" fill="#FFFFFF">
                <tspan x="1.0059" y="414.078364">PATRIMONIO NETO </tspan>
                <tspan x="144.9259" y="414.078364" font-family="BentonSansBBVA-Book, Benton Sans BBVA" font-weight="300">(MM€)</tspan>
            </text>
            <path d="M649.0659,86.2783635 L653.7759,76.0633635 L653.7759,75.1483635 L646.9209,75.1483635 L646.9959,76.1233635 L652.6659,76.1233635 L648.0009,86.2183635 L649.0659,86.2783635 Z M658.2829,86.4583635 C660.6379,86.4583635 662.0929,84.7933635 662.0929,82.5733635 C662.0929,80.3533635 660.6679,78.9433635 658.6579,78.9433635 C657.4729,78.9433635 656.7379,79.3483635 656.1979,79.9783635 L656.4979,76.1233635 L661.4629,76.1233635 L661.4329,75.1483635 L655.6129,75.1483635 L655.1779,80.9533635 L655.9729,81.2533635 C656.5729,80.3833635 657.3679,79.8583635 658.5079,79.8583635 C659.9779,79.8583635 661.0429,80.8483635 661.0429,82.6183635 C661.0429,84.0883635 660.1879,85.5133635 658.2679,85.5133635 C656.9329,85.5133635 656.0029,84.8083635 655.3429,83.8033635 L654.6529,84.4783635 C655.3879,85.6483635 656.6779,86.4583635 658.2829,86.4583635 Z M667.6649,86.4583635 C670.2749,86.4583635 671.7149,84.1633635 671.7149,80.6983635 C671.7149,77.2333635 670.2749,74.9383635 667.6649,74.9383635 C665.0549,74.9383635 663.5849,77.2333635 663.5849,80.6983635 C663.5849,84.1633635 665.0549,86.4583635 667.6649,86.4583635 Z M667.6649,85.5133635 C665.8349,85.5133635 664.6499,83.8333635 664.6499,80.6983635 C664.6499,77.5633635 665.7749,75.8833635 667.6649,75.8833635 C669.4799,75.8833635 670.6649,77.5633635 670.6649,80.6983635 C670.6649,83.8333635 669.5399,85.5133635 667.6649,85.5133635 Z" id="750" fill="#FFFFFF"></path>
            <path d="M637.2009,64.9483635 L641.9109,54.7333635 L641.9109,53.8183635 L635.0559,53.8183635 L635.1309,54.7933635 L640.8009,54.7933635 L636.1359,64.8883635 L637.2009,64.9483635 Z M646.4629,65.1283635 C648.7429,65.1283635 650.1679,63.7483635 650.1679,61.9333635 C650.1679,60.2983635 649.3579,59.3383635 647.6929,59.0083635 C649.0579,58.7833635 649.9129,57.8083635 649.9129,56.3833635 C649.9129,54.9433635 648.9229,53.6083635 646.5829,53.6083635 C645.0979,53.6083635 643.9579,54.3283635 643.1629,55.2733635 L643.8679,55.9483635 C644.5429,55.1083635 645.3829,54.5533635 646.5229,54.5533635 C648.2029,54.5533635 648.8779,55.4083635 648.8779,56.4883635 C648.8779,57.8533635 647.9929,58.5733635 645.6379,58.5733635 L645.0979,58.5733635 L645.1579,59.4883635 L645.5479,59.4883635 C648.1729,59.4883635 649.1179,60.3133635 649.1179,61.9333635 C649.1179,63.2683635 648.1279,64.1833635 646.4629,64.1833635 C645.2479,64.1833635 644.2129,63.6733635 643.4029,62.4433635 L642.6679,63.0733635 C643.4929,64.3783635 644.8429,65.1283635 646.4629,65.1283635 Z M658.9649,64.9183635 L658.8899,63.9583635 L652.9499,63.9583635 C652.9949,62.9683635 654.0149,61.7533635 656.0099,60.4783635 C658.1399,59.1283635 658.8749,58.1683635 658.8749,56.6533635 C658.8749,54.8683635 657.6299,53.6083635 655.6049,53.6083635 C653.9999,53.6083635 652.7549,54.4483635 652.0049,55.9783635 L652.7999,56.5033635 C653.4449,55.1833635 654.3299,54.5533635 655.5599,54.5533635 C657.0599,54.5533635 657.8399,55.4383635 657.8399,56.7133635 C657.8399,57.9133635 657.1649,58.6783635 655.4999,59.7283635 C652.5749,61.6033635 651.7799,63.0733635 651.7799,64.6783635 L651.7799,64.9183635 L658.9649,64.9183635 Z" id="732" fill="#FFFFFF"></path>
            <path d="M387.0159,158.428364 L387.0159,155.743364 L388.9059,155.743364 L388.8609,154.798364 L387.0159,154.798364 L387.0159,147.328364 L385.6959,147.328364 L380.6409,154.948364 L380.6409,155.743364 L385.9809,155.743364 L385.9809,158.428364 L387.0159,158.428364 Z M385.9509,148.573364 L385.9809,148.573364 L385.9809,154.798364 L381.8409,154.798364 L385.9509,148.573364 Z M393.4879,158.638364 C395.7679,158.638364 397.1929,157.258364 397.1929,155.443364 C397.1929,153.808364 396.3829,152.848364 394.7179,152.518364 C396.0829,152.293364 396.9379,151.318364 396.9379,149.893364 C396.9379,148.453364 395.9479,147.118364 393.6079,147.118364 C392.1229,147.118364 390.9829,147.838364 390.1879,148.783364 L390.8929,149.458364 C391.5679,148.618364 392.4079,148.063364 393.5479,148.063364 C395.2279,148.063364 395.9029,148.918364 395.9029,149.998364 C395.9029,151.363364 395.0179,152.083364 392.6629,152.083364 L392.1229,152.083364 L392.1829,152.998364 L392.5729,152.998364 C395.1979,152.998364 396.1429,153.823364 396.1429,155.443364 C396.1429,156.778364 395.1529,157.693364 393.4879,157.693364 C392.2729,157.693364 391.2379,157.183364 390.4279,155.953364 L389.6929,156.583364 C390.5179,157.888364 391.8679,158.638364 393.4879,158.638364 Z M402.9899,158.638364 C405.5999,158.638364 407.0399,156.343364 407.0399,152.878364 C407.0399,149.413364 405.5999,147.118364 402.9899,147.118364 C400.3799,147.118364 398.9099,149.413364 398.9099,152.878364 C398.9099,156.343364 400.3799,158.638364 402.9899,158.638364 Z M402.9899,157.693364 C401.1599,157.693364 399.9749,156.013364 399.9749,152.878364 C399.9749,149.743364 401.0999,148.063364 402.9899,148.063364 C404.8049,148.063364 405.9899,149.743364 405.9899,152.878364 C405.9899,156.013364 404.8649,157.693364 402.9899,157.693364 Z" id="430" fill="#FFFFFF"></path>
            <path d="M368.2759,257.053364 L368.2759,254.368364 L370.1659,254.368364 L370.1209,253.423364 L368.2759,253.423364 L368.2759,245.953364 L366.9559,245.953364 L361.9009,253.573364 L361.9009,254.368364 L367.2409,254.368364 L367.2409,257.053364 L368.2759,257.053364 Z M367.2109,247.198364 L367.2409,247.198364 L367.2409,253.423364 L363.1009,253.423364 L367.2109,247.198364 Z M375.3929,257.263364 C378.0029,257.263364 379.4429,254.968364 379.4429,251.503364 C379.4429,248.038364 378.0029,245.743364 375.3929,245.743364 C372.7829,245.743364 371.3129,248.038364 371.3129,251.503364 C371.3129,254.968364 372.7829,257.263364 375.3929,257.263364 Z M375.3929,256.318364 C373.5629,256.318364 372.3779,254.638364 372.3779,251.503364 C372.3779,248.368364 373.5029,246.688364 375.3929,246.688364 C377.2079,246.688364 378.3929,248.368364 378.3929,251.503364 C378.3929,254.638364 377.2679,256.318364 375.3929,256.318364 Z M384.5949,257.053364 L384.5949,245.953364 L383.6199,245.953364 L381.2949,246.778364 L381.4299,247.663364 L383.5599,246.943364 L383.5599,257.053364 L384.5949,257.053364 Z" id="401" fill="#FFFFFF"></path>
            <path d="M368.9509,277.768364 L368.9509,275.083364 L370.8409,275.083364 L370.7959,274.138364 L368.9509,274.138364 L368.9509,266.668364 L367.6309,266.668364 L362.5759,274.288364 L362.5759,275.083364 L367.9159,275.083364 L367.9159,277.768364 L368.9509,277.768364 Z M367.8859,267.913364 L367.9159,267.913364 L367.9159,274.138364 L363.7759,274.138364 L367.8859,267.913364 Z M376.0679,277.978364 C378.6779,277.978364 380.1179,275.683364 380.1179,272.218364 C380.1179,268.753364 378.6779,266.458364 376.0679,266.458364 C373.4579,266.458364 371.9879,268.753364 371.9879,272.218364 C371.9879,275.683364 373.4579,277.978364 376.0679,277.978364 Z M376.0679,277.033364 C374.2379,277.033364 373.0529,275.353364 373.0529,272.218364 C373.0529,269.083364 374.1779,267.403364 376.0679,267.403364 C377.8829,267.403364 379.0679,269.083364 379.0679,272.218364 C379.0679,275.353364 377.9429,277.033364 376.0679,277.033364 Z M385.0149,277.978364 C387.2949,277.978364 388.7199,276.598364 388.7199,274.783364 C388.7199,273.148364 387.9099,272.188364 386.2449,271.858364 C387.6099,271.633364 388.4649,270.658364 388.4649,269.233364 C388.4649,267.793364 387.4749,266.458364 385.1349,266.458364 C383.6499,266.458364 382.5099,267.178364 381.7149,268.123364 L382.4199,268.798364 C383.0949,267.958364 383.9349,267.403364 385.0749,267.403364 C386.7549,267.403364 387.4299,268.258364 387.4299,269.338364 C387.4299,270.703364 386.5449,271.423364 384.1899,271.423364 L383.6499,271.423364 L383.7099,272.338364 L384.0999,272.338364 C386.7249,272.338364 387.6699,273.163364 387.6699,274.783364 C387.6699,276.118364 386.6799,277.033364 385.0149,277.033364 C383.7999,277.033364 382.7649,276.523364 381.9549,275.293364 L381.2199,275.923364 C382.0449,277.228364 383.3949,277.978364 385.0149,277.978364 Z" id="403" fill="#FFFFFF"></path>
            <path d="M74.0409,447.383364 C76.3959,447.383364 77.8509,445.718364 77.8509,443.498364 C77.8509,441.278364 76.4259,439.868364 74.4159,439.868364 C73.2309,439.868364 72.4959,440.273364 71.9559,440.903364 L72.2559,437.048364 L77.2209,437.048364 L77.1909,436.073364 L71.3709,436.073364 L70.9359,441.878364 L71.7309,442.178364 C72.3309,441.308364 73.1259,440.783364 74.2659,440.783364 C75.7359,440.783364 76.8009,441.773364 76.8009,443.543364 C76.8009,445.013364 75.9459,446.438364 74.0259,446.438364 C72.6909,446.438364 71.7609,445.733364 71.1009,444.728364 L70.4109,445.403364 C71.1459,446.573364 72.4359,447.383364 74.0409,447.383364 Z M82.7629,447.383364 C85.1179,447.383364 86.5729,445.718364 86.5729,443.498364 C86.5729,441.278364 85.1479,439.868364 83.1379,439.868364 C81.9529,439.868364 81.2179,440.273364 80.6779,440.903364 L80.9779,437.048364 L85.9429,437.048364 L85.9129,436.073364 L80.0929,436.073364 L79.6579,441.878364 L80.4529,442.178364 C81.0529,441.308364 81.8479,440.783364 82.9879,440.783364 C84.4579,440.783364 85.5229,441.773364 85.5229,443.543364 C85.5229,445.013364 84.6679,446.438364 82.7479,446.438364 C81.4129,446.438364 80.4829,445.733364 79.8229,444.728364 L79.1329,445.403364 C79.8679,446.573364 81.1579,447.383364 82.7629,447.383364 Z" id="55" fill="#FFFFFF"></path>
            <path d="M74.0966,467.596964 C76.4516,467.596964 77.9066,465.931964 77.9066,463.711964 C77.9066,461.491964 76.4816,460.081964 74.4716,460.081964 C73.2866,460.081964 72.5516,460.486964 72.0116,461.116964 L72.3116,457.261964 L77.2766,457.261964 L77.2466,456.286964 L71.4266,456.286964 L70.9916,462.091964 L71.7866,462.391964 C72.3866,461.521964 73.1816,460.996964 74.3216,460.996964 C75.7916,460.996964 76.8566,461.986964 76.8566,463.756964 C76.8566,465.226964 76.0016,466.651964 74.0816,466.651964 C72.7466,466.651964 71.8166,465.946964 71.1566,464.941964 L70.4666,465.616964 C71.2016,466.786964 72.4916,467.596964 74.0966,467.596964 Z M82.8186,467.596964 C85.1736,467.596964 86.6286,465.931964 86.6286,463.711964 C86.6286,461.491964 85.2036,460.081964 83.1936,460.081964 C82.0086,460.081964 81.2736,460.486964 80.7336,461.116964 L81.0336,457.261964 L85.9986,457.261964 L85.9686,456.286964 L80.1486,456.286964 L79.7136,462.091964 L80.5086,462.391964 C81.1086,461.521964 81.9036,460.996964 83.0436,460.996964 C84.5136,460.996964 85.5786,461.986964 85.5786,463.756964 C85.5786,465.226964 84.7236,466.651964 82.8036,466.651964 C81.4686,466.651964 80.5386,465.946964 79.8786,464.941964 L79.1886,465.616964 C79.9236,466.786964 81.2136,467.596964 82.8186,467.596964 Z" id="55" fill="#FFFFFF"></path>
            <path d="M390.8417,180.422564 L390.8417,177.737564 L392.7317,177.737564 L392.6867,176.792564 L390.8417,176.792564 L390.8417,169.322564 L389.5217,169.322564 L384.4667,176.942564 L384.4667,177.737564 L389.8067,177.737564 L389.8067,180.422564 L390.8417,180.422564 Z M389.7767,170.567564 L389.8067,170.567564 L389.8067,176.792564 L385.6667,176.792564 L389.7767,170.567564 Z M397.3137,180.632564 C399.5937,180.632564 401.0187,179.252564 401.0187,177.437564 C401.0187,175.802564 400.2087,174.842564 398.5437,174.512564 C399.9087,174.287564 400.7637,173.312564 400.7637,171.887564 C400.7637,170.447564 399.7737,169.112564 397.4337,169.112564 C395.9487,169.112564 394.8087,169.832564 394.0137,170.777564 L394.7187,171.452564 C395.3937,170.612564 396.2337,170.057564 397.3737,170.057564 C399.0537,170.057564 399.7287,170.912564 399.7287,171.992564 C399.7287,173.357564 398.8437,174.077564 396.4887,174.077564 L395.9487,174.077564 L396.0087,174.992564 L396.3987,174.992564 C399.0237,174.992564 399.9687,175.817564 399.9687,177.437564 C399.9687,178.772564 398.9787,179.687564 397.3137,179.687564 C396.0987,179.687564 395.0637,179.177564 394.2537,177.947564 L393.5187,178.577564 C394.3437,179.882564 395.6937,180.632564 397.3137,180.632564 Z M406.1707,180.632564 C408.4507,180.632564 409.8757,179.252564 409.8757,177.437564 C409.8757,175.802564 409.0657,174.842564 407.4007,174.512564 C408.7657,174.287564 409.6207,173.312564 409.6207,171.887564 C409.6207,170.447564 408.6307,169.112564 406.2907,169.112564 C404.8057,169.112564 403.6657,169.832564 402.8707,170.777564 L403.5757,171.452564 C404.2507,170.612564 405.0907,170.057564 406.2307,170.057564 C407.9107,170.057564 408.5857,170.912564 408.5857,171.992564 C408.5857,173.357564 407.7007,174.077564 405.3457,174.077564 L404.8057,174.077564 L404.8657,174.992564 L405.2557,174.992564 C407.8807,174.992564 408.8257,175.817564 408.8257,177.437564 C408.8257,178.772564 407.8357,179.687564 406.1707,179.687564 C404.9557,179.687564 403.9207,179.177564 403.1107,177.947564 L402.3757,178.577564 C403.2007,179.882564 404.5507,180.632564 406.1707,180.632564 Z" id="433" fill="#FFFFFF"></path>
            <polygon id="Fill-8" fill-opacity="0.1" fill="url(#linearGradient-1)" points="2.658 60.365 22.492 60.365 35.119 66.734 18.157 66.734"></polygon>
            <polygon id="Fill-10" fill-opacity="0.1" fill="url(#linearGradient-1)" points="2.658 80.226 22.492 80.226 35.119 86.596 18.157 86.596"></polygon>
            <polygon id="Fill-12" fill-opacity="0.1" fill="url(#linearGradient-1)" points="1.658 154.824 21.492 154.824 34.119 161.194 17.157 161.194"></polygon>
            <polygon id="Fill-14" fill-opacity="0.1" fill="url(#linearGradient-1)" points="1.658 174.686 21.492 174.686 34.119 181.056 17.157 181.056"></polygon>
            <polygon id="Fill-16" fill-opacity="0.1" fill="url(#linearGradient-1)" points="1.658 251.529 21.492 251.529 34.119 257.899 17.157 257.899"></polygon>
            <polygon id="Fill-18" fill-opacity="0.1" fill="url(#linearGradient-1)" points="1.658 272.39 21.492 272.39 34.119 278.76 17.157 278.76"></polygon>
            <polygon id="Fill-20" fill-opacity="0.1" fill="url(#linearGradient-1)" points="1.325 440.955 21.159 440.955 33.786 447.324 16.824 447.324"></polygon>
            <polygon id="Fill-22" fill-opacity="0.1" fill="url(#linearGradient-1)" points="1.325 460.817 21.159 460.817 33.786 467.186 16.824 467.186"></polygon>
            <polygon id="Fill-24" fill-opacity="0.1" fill="url(#linearGradient-1)" points="1.325 347.646 21.159 347.646 33.786 354.016 16.824 354.016"></polygon>
            <polygon id="Fill-26" fill-opacity="0.1" fill="url(#linearGradient-1)" points="1.325 367.508 21.159 367.508 33.786 373.878 16.824 373.878"></polygon>
            <polygon id="Fill-28" fill="#2ECDCD" points="623.8013 57.4744 619.1683 66.7404 18.1433 66.7404 22.7763 57.4744"></polygon>
            <polygon id="Fill-29" fill="#2A86CA" points="638.7678 77.3357 634.1348 86.6017 18.1588 86.6017 22.7918 77.3357"></polygon>
            <polygon id="Fill-30" fill="#2ECDCD" points="373.3982 151.8928 368.7652 161.1588 17.4812 161.1588 22.1142 151.8928"></polygon>
            <polygon id="Fill-31" fill="#2A86CA" points="376.2764 171.7395 371.6434 181.0055 17.4584 181.0055 22.0914 171.7395"></polygon>
            <polygon id="Fill-32" fill="#2ECDCD" points="349.2214 248.7405 344.5884 258.0065 17.4254 258.0065 22.0594 248.7405"></polygon>
            <polygon id="Fill-33" fill="#2A86CA" points="350.9482 269.509 346.3152 278.775 17.7142 278.775 22.3472 269.509"></polygon>
            <polygon id="Fill-34" fill="#2ECDCD" points="62.2764 438.2336 57.6434 447.4996 17.1124 447.4996 21.7454 438.2336"></polygon>
            <polygon id="Fill-35" fill="#2A86CA" points="62.0283 458.072 57.3953 467.338 17.2303 467.338 21.8633 458.072"></polygon>
            <path d="M6.7,321.005064 L6.7,311.645064 L10.255,311.645064 L9.985,309.905064 L1.405,309.905064 L1.405,311.645064 L4.825,311.645064 L4.825,321.005064 L6.7,321.005064 Z M15.755,321.215064 C18.425,321.215064 20.75,319.190064 20.75,315.455064 C20.75,311.720064 18.425,309.695064 15.755,309.695064 C13.07,309.695064 10.745,311.720064 10.745,315.455064 C10.745,319.190064 13.07,321.215064 15.755,321.215064 Z M15.755,319.535064 C13.88,319.535064 12.62,317.975064 12.62,315.455064 C12.62,312.935064 13.88,311.420064 15.755,311.420064 C17.63,311.420064 18.89,312.935064 18.89,315.455064 C18.89,317.975064 17.63,319.535064 15.755,319.535064 Z M26.685,321.005064 L26.685,311.645064 L30.24,311.645064 L29.97,309.905064 L21.39,309.905064 L21.39,311.645064 L24.81,311.645064 L24.81,321.005064 L26.685,321.005064 Z M31.3,321.005064 L32.23,318.365064 L36.445,318.365064 L37.39,321.155064 L39.205,320.855064 L35.32,309.860064 L33.49,309.860064 L29.56,321.005064 L31.3,321.005064 Z M34.345,312.215064 L34.375,312.215064 L35.905,316.715064 L32.785,316.715064 L34.345,312.215064 Z M48.035,321.005064 L47.75,319.310064 L42.785,319.310064 L42.785,309.905064 L40.91,309.905064 L40.91,321.005064 L48.035,321.005064 Z M54.625,321.005064 L54.625,316.625064 L56.59,316.625064 L59.275,321.155064 L61.105,320.855064 L58.465,316.385064 C59.995,315.995064 60.91,315.080064 60.91,313.310064 C60.91,310.955064 59.38,309.905064 56.755,309.905064 L52.78,309.905064 L52.78,321.005064 L54.625,321.005064 Z M54.625,311.615064 L56.665,311.615064 C58.255,311.615064 59.08,312.050064 59.08,313.280064 C59.08,314.540064 58.255,314.990064 56.665,314.990064 L54.625,314.990064 L54.625,311.615064 Z M70.64,321.005064 L70.64,319.310064 L65.045,319.310064 L65.045,316.070064 L69.365,316.070064 L69.095,314.405064 L65.045,314.405064 L65.045,311.645064 L70.34,311.645064 L70.34,309.905064 L63.17,309.905064 L63.17,321.005064 L70.64,321.005064 Z M76.44,321.215064 C78.765,321.215064 80.115,320.030064 80.775,318.200064 L79.155,317.465064 C78.72,318.710064 77.82,319.535064 76.44,319.535064 C74.505,319.535064 73.395,317.975064 73.395,315.410064 C73.395,312.980064 74.445,311.420064 76.335,311.420064 C77.67,311.420064 78.48,312.170064 78.915,313.205064 L80.505,312.260064 C79.74,310.610064 78.435,309.695064 76.335,309.695064 C73.605,309.695064 71.52,311.780064 71.52,315.425064 C71.52,319.175064 73.575,321.215064 76.44,321.215064 Z M86.74,321.200064 C89.665,321.200064 91.03,319.460064 91.03,316.940064 L91.03,309.905064 L89.185,309.905064 L89.185,316.880064 C89.185,318.485064 88.45,319.490064 86.755,319.490064 C85.045,319.490064 84.31,318.455064 84.31,316.865064 L84.31,309.905064 L82.435,309.905064 L82.435,316.970064 C82.435,319.460064 83.8,321.200064 86.74,321.200064 Z M95.27,321.005064 L95.27,316.625064 L97.235,316.625064 L99.92,321.155064 L101.75,320.855064 L99.11,316.385064 C100.64,315.995064 101.555,315.080064 101.555,313.310064 C101.555,310.955064 100.025,309.905064 97.4,309.905064 L93.425,309.905064 L93.425,321.005064 L95.27,321.005064 Z M95.27,311.615064 L97.31,311.615064 C98.9,311.615064 99.725,312.050064 99.725,313.280064 C99.725,314.540064 98.9,314.990064 97.31,314.990064 L95.27,314.990064 L95.27,311.615064 Z M107.625,321.215064 C110.265,321.215064 111.735,319.790064 111.735,317.990064 C111.735,315.890064 110.055,315.215064 107.955,314.600064 C106.14,314.060064 105.345,313.700064 105.345,312.665064 C105.345,311.945064 106.065,311.390064 107.325,311.390064 C108.495,311.390064 109.665,312.005064 110.55,312.785064 L111.435,311.285064 C110.385,310.415064 108.99,309.695064 107.295,309.695064 C105.075,309.695064 103.515,310.940064 103.515,312.815064 C103.515,314.930064 105.225,315.500064 107.37,316.130064 C109.2,316.685064 109.905,317.135064 109.905,318.110064 C109.905,319.070064 108.96,319.550064 107.565,319.550064 C106.2,319.550064 104.805,318.785064 103.95,317.900064 L102.945,319.325064 C104.07,320.390064 105.63,321.215064 107.625,321.215064 Z M118.12,321.215064 C120.79,321.215064 123.115,319.190064 123.115,315.455064 C123.115,311.720064 120.79,309.695064 118.12,309.695064 C115.435,309.695064 113.11,311.720064 113.11,315.455064 C113.11,319.190064 115.435,321.215064 118.12,321.215064 Z M118.12,319.535064 C116.245,319.535064 114.985,317.975064 114.985,315.455064 C114.985,312.935064 116.245,311.420064 118.12,311.420064 C119.995,311.420064 121.255,312.935064 121.255,315.455064 C121.255,317.975064 119.995,319.535064 118.12,319.535064 Z M128.945,321.215064 C131.585,321.215064 133.055,319.790064 133.055,317.990064 C133.055,315.890064 131.375,315.215064 129.275,314.600064 C127.46,314.060064 126.665,313.700064 126.665,312.665064 C126.665,311.945064 127.385,311.390064 128.645,311.390064 C129.815,311.390064 130.985,312.005064 131.87,312.785064 L132.755,311.285064 C131.705,310.415064 130.31,309.695064 128.615,309.695064 C126.395,309.695064 124.835,310.940064 124.835,312.815064 C124.835,314.930064 126.545,315.500064 128.69,316.130064 C130.52,316.685064 131.225,317.135064 131.225,318.110064 C131.225,319.070064 130.28,319.550064 128.885,319.550064 C127.52,319.550064 126.125,318.785064 125.27,317.900064 L124.265,319.325064 C125.39,320.390064 126.95,321.215064 128.945,321.215064 Z M142.06,321.005064 C145.495,321.005064 147.835,319.370064 147.835,315.410064 C147.835,311.525064 145.54,309.905064 142.06,309.905064 L138.91,309.905064 L138.91,321.005064 L142.06,321.005064 Z M140.77,311.645064 L142.195,311.645064 C144.775,311.645064 145.96,312.845064 145.96,315.440064 C145.96,318.140064 144.79,319.310064 142.225,319.310064 L140.77,319.310064 L140.77,311.645064 Z M157.31,321.005064 L157.31,319.310064 L151.715,319.310064 L151.715,316.070064 L156.035,316.070064 L155.765,314.405064 L151.715,314.405064 L151.715,311.645064 L157.01,311.645064 L157.01,309.905064 L149.84,309.905064 L149.84,321.005064 L157.31,321.005064 Z M167.35,321.215064 C169.675,321.215064 171.025,320.030064 171.685,318.200064 L170.065,317.465064 C169.63,318.710064 168.73,319.535064 167.35,319.535064 C165.415,319.535064 164.305,317.975064 164.305,315.410064 C164.305,312.980064 165.355,311.420064 167.245,311.420064 C168.58,311.420064 169.39,312.170064 169.825,313.205064 L171.415,312.260064 C170.65,310.610064 169.345,309.695064 167.245,309.695064 C164.515,309.695064 162.43,311.780064 162.43,315.425064 C162.43,319.175064 164.485,321.215064 167.35,321.215064 Z M180.77,321.005064 L180.485,319.310064 L175.52,319.310064 L175.52,309.905064 L173.645,309.905064 L173.645,321.005064 L180.77,321.005064 Z M184.32,321.005064 L184.32,309.905064 L182.46,309.905064 L182.46,321.005064 L184.32,321.005064 Z M194.47,321.005064 L194.47,319.310064 L188.875,319.310064 L188.875,316.070064 L193.195,316.070064 L192.925,314.405064 L188.875,314.405064 L188.875,311.645064 L194.17,311.645064 L194.17,309.905064 L187,309.905064 L187,321.005064 L194.47,321.005064 Z M198.065,321.005064 L198.065,312.920064 L198.095,312.920064 L203.555,321.005064 L205.265,321.005064 L205.265,309.905064 L203.525,309.905064 L203.525,317.840064 L203.495,317.840064 L198.245,309.905064 L196.34,309.905064 L196.34,321.005064 L198.065,321.005064 Z M212.25,321.005064 L212.25,311.645064 L215.805,311.645064 L215.535,309.905064 L206.955,309.905064 L206.955,311.645064 L210.375,311.645064 L210.375,321.005064 L212.25,321.005064 Z M224.83,321.005064 L224.83,319.310064 L219.235,319.310064 L219.235,316.070064 L223.555,316.070064 L223.285,314.405064 L219.235,314.405064 L219.235,311.645064 L224.53,311.645064 L224.53,309.905064 L217.36,309.905064 L217.36,321.005064 L224.83,321.005064 Z M230.435,321.215064 C233.075,321.215064 234.545,319.790064 234.545,317.990064 C234.545,315.890064 232.865,315.215064 230.765,314.600064 C228.95,314.060064 228.155,313.700064 228.155,312.665064 C228.155,311.945064 228.875,311.390064 230.135,311.390064 C231.305,311.390064 232.475,312.005064 233.36,312.785064 L234.245,311.285064 C233.195,310.415064 231.8,309.695064 230.105,309.695064 C227.885,309.695064 226.325,310.940064 226.325,312.815064 C226.325,314.930064 228.035,315.500064 230.18,316.130064 C232.01,316.685064 232.715,317.135064 232.715,318.110064 C232.715,319.070064 231.77,319.550064 230.375,319.550064 C229.01,319.550064 227.615,318.785064 226.76,317.900064 L225.755,319.325064 C226.88,320.390064 228.44,321.215064 230.435,321.215064 Z M244.3,323.570064 C242.425,321.860064 241.225,319.565064 241.225,316.910064 C241.225,314.270064 242.425,311.975064 244.285,310.265064 L243.82,309.740064 C241.375,311.795064 240.085,314.075064 240.085,316.910064 C240.085,319.760064 241.375,322.025064 243.82,324.080064 L244.3,323.570064 Z M247.535,321.005064 L247.535,311.675064 L247.565,311.675064 C247.805,312.470064 247.985,312.935064 248.255,313.640064 L251.135,321.005064 L252.11,321.005064 L254.99,313.640064 C255.26,312.935064 255.53,312.200064 255.68,311.690064 L255.71,311.690064 L255.71,321.005064 L256.775,321.005064 L256.775,309.905064 L255.38,309.905064 L251.675,319.625064 L251.645,319.625064 L247.925,309.905064 L246.545,309.905064 L246.545,321.005064 L247.535,321.005064 Z M260.625,321.005064 L260.625,311.675064 L260.655,311.675064 C260.895,312.470064 261.075,312.935064 261.345,313.640064 L264.225,321.005064 L265.2,321.005064 L268.08,313.640064 C268.35,312.935064 268.62,312.200064 268.77,311.690064 L268.8,311.690064 L268.8,321.005064 L269.865,321.005064 L269.865,309.905064 L268.47,309.905064 L264.765,319.625064 L264.735,319.625064 L261.015,309.905064 L259.635,309.905064 L259.635,321.005064 L260.625,321.005064 Z M273.4,315.395064 C273.4,315.665064 273.415,315.935064 273.43,316.175064 L271.615,316.175064 L271.615,317.030064 L273.52,317.030064 C273.955,319.880064 275.53,321.215064 277.555,321.215064 C279.535,321.215064 280.69,319.925064 281.23,318.110064 L280.285,317.735064 C279.835,319.385064 279.085,320.285064 277.57,320.285064 C275.965,320.285064 274.885,319.175064 274.555,317.030064 L277.945,317.030064 L277.945,316.175064 L274.465,316.175064 C274.45,315.920064 274.435,315.635064 274.435,315.335064 C274.435,315.185064 274.435,314.915064 274.45,314.750064 L277.945,314.750064 L277.945,313.925064 L274.54,313.925064 C274.87,311.660064 276.1,310.640064 277.54,310.640064 C279.1,310.640064 279.67,311.540064 280.12,313.055064 L281.08,312.695064 C280.57,310.955064 279.565,309.695064 277.555,309.695064 C275.68,309.695064 273.94,311.000064 273.505,313.925064 L271.615,313.925064 L271.615,314.750064 L273.415,314.750064 C273.415,314.915064 273.4,315.215064 273.4,315.395064 Z M283.355,324.080064 C285.8,322.025064 287.105,319.760064 287.105,316.910064 C287.105,314.075064 285.8,311.795064 283.355,309.740064 L282.89,310.265064 C284.75,311.975064 285.965,314.270064 285.965,316.910064 C285.965,319.565064 284.75,321.860064 282.89,323.570064 L283.355,324.080064 Z" id="TOTAL-RECURSOS-DE-CLIENTES-(MM€)" fill="#FFFFFF"></path>
            <path d="M476.84,354.310064 C479.195,354.310064 480.65,352.645064 480.65,350.425064 C480.65,348.205064 479.225,346.795064 477.215,346.795064 C476.03,346.795064 475.295,347.200064 474.755,347.830064 L475.055,343.975064 L480.02,343.975064 L479.99,343.000064 L474.17,343.000064 L473.735,348.805064 L474.53,349.105064 C475.13,348.235064 475.925,347.710064 477.065,347.710064 C478.535,347.710064 479.6,348.700064 479.6,350.470064 C479.6,351.940064 478.745,353.365064 476.825,353.365064 C475.49,353.365064 474.56,352.660064 473.9,351.655064 L473.21,352.330064 C473.945,353.500064 475.235,354.310064 476.84,354.310064 Z M485.577,354.310064 C487.857,354.310064 489.282,352.930064 489.282,351.115064 C489.282,349.480064 488.472,348.520064 486.807,348.190064 C488.172,347.965064 489.027,346.990064 489.027,345.565064 C489.027,344.125064 488.037,342.790064 485.697,342.790064 C484.212,342.790064 483.072,343.510064 482.277,344.455064 L482.982,345.130064 C483.657,344.290064 484.497,343.735064 485.637,343.735064 C487.317,343.735064 487.992,344.590064 487.992,345.670064 C487.992,347.035064 487.107,347.755064 484.752,347.755064 L484.212,347.755064 L484.272,348.670064 L484.662,348.670064 C487.287,348.670064 488.232,349.495064 488.232,351.115064 C488.232,352.450064 487.242,353.365064 485.577,353.365064 C484.362,353.365064 483.327,352.855064 482.517,351.625064 L481.782,352.255064 C482.607,353.560064 483.957,354.310064 485.577,354.310064 Z M497.044,354.100064 L497.044,351.415064 L498.934,351.415064 L498.889,350.470064 L497.044,350.470064 L497.044,343.000064 L495.724,343.000064 L490.669,350.620064 L490.669,351.415064 L496.009,351.415064 L496.009,354.100064 L497.044,354.100064 Z M495.979,344.245064 L496.009,344.245064 L496.009,350.470064 L491.869,350.470064 L495.979,344.245064 Z" id="534-" fill="#FFFFFF"></path>
            <path d="M476.9,374.530064 C479.255,374.530064 480.71,372.865064 480.71,370.645064 C480.71,368.425064 479.285,367.015064 477.275,367.015064 C476.09,367.015064 475.355,367.420064 474.815,368.050064 L475.115,364.195064 L480.08,364.195064 L480.05,363.220064 L474.23,363.220064 L473.795,369.025064 L474.59,369.325064 C475.19,368.455064 475.985,367.930064 477.125,367.930064 C478.595,367.930064 479.66,368.920064 479.66,370.690064 C479.66,372.160064 478.805,373.585064 476.885,373.585064 C475.55,373.585064 474.62,372.880064 473.96,371.875064 L473.27,372.550064 C474.005,373.720064 475.295,374.530064 476.9,374.530064 Z M485.637,374.530064 C487.917,374.530064 489.342,373.150064 489.342,371.335064 C489.342,369.700064 488.532,368.740064 486.867,368.410064 C488.232,368.185064 489.087,367.210064 489.087,365.785064 C489.087,364.345064 488.097,363.010064 485.757,363.010064 C484.272,363.010064 483.132,363.730064 482.337,364.675064 L483.042,365.350064 C483.717,364.510064 484.557,363.955064 485.697,363.955064 C487.377,363.955064 488.052,364.810064 488.052,365.890064 C488.052,367.255064 487.167,367.975064 484.812,367.975064 L484.272,367.975064 L484.332,368.890064 L484.722,368.890064 C487.347,368.890064 488.292,369.715064 488.292,371.335064 C488.292,372.670064 487.302,373.585064 485.637,373.585064 C484.422,373.585064 483.387,373.075064 482.577,371.845064 L481.842,372.475064 C482.667,373.780064 484.017,374.530064 485.637,374.530064 Z M494.479,374.530064 C496.834,374.530064 498.289,372.865064 498.289,370.645064 C498.289,368.425064 496.864,367.015064 494.854,367.015064 C493.669,367.015064 492.934,367.420064 492.394,368.050064 L492.694,364.195064 L497.659,364.195064 L497.629,363.220064 L491.809,363.220064 L491.374,369.025064 L492.169,369.325064 C492.769,368.455064 493.564,367.930064 494.704,367.930064 C496.174,367.930064 497.239,368.920064 497.239,370.690064 C497.239,372.160064 496.384,373.585064 494.464,373.585064 C493.129,373.585064 492.199,372.880064 491.539,371.875064 L490.849,372.550064 C491.584,373.720064 492.874,374.530064 494.479,374.530064 Z" id="535" fill="#FFFFFF"></path>
            <polygon id="Fill-36" fill="#2ECDCD" points="461.0723 345.1609 456.4393 354.4269 17.1133 354.4269 21.7463 345.1609"></polygon>
            <polygon id="Fill-37" fill="#2A86CA" points="460.8242 364.9993 456.1912 374.2653 17.2302 374.2653 21.8632 364.9993"></polygon>
        </g>
    </g>
</svg>