<svg id="Capa_1" data-name="Capa 1" xmlns="http://www.w3.org/2000/svg" xmlns:xlink="http://www.w3.org/1999/xlink" viewBox="0 0 776.57 346.73"><defs><style>.cls-1{fill:none;}.cls-2{fill:#fff;}.cls-3{fill:#2ecdcd;}.cls-4{clip-path:url(#clip-path);}.cls-5{fill:#1d1d1b;}.cls-6{fill:#2a86ca;}.cls-7{fill:#0064a8;}.cls-8{clip-path:url(#clip-path-2);}.cls-9{fill:#00a6a6;}.cls-10{clip-path:url(#clip-path-3);}.cls-11{clip-path:url(#clip-path-4);}.cls-12{clip-path:url(#clip-path-5);}.cls-13{clip-path:url(#clip-path-6);}</style><clipPath id="clip-path" transform="translate(1 -0.27)"><polygon class="cls-1" points="60.82 266.89 17.7 249 -1 254.17 45.79 274.35 60.82 266.89"/></clipPath><clipPath id="clip-path-2" transform="translate(1 -0.27)"><polygon class="cls-1" points="118.89 266.89 75.77 249 57.07 254.17 103.86 274.35 118.89 266.89"/></clipPath><clipPath id="clip-path-3" transform="translate(1 -0.27)"><polygon class="cls-1" points="333.44 266.89 290.33 249 271.63 254.17 318.41 274.35 333.44 266.89"/></clipPath><clipPath id="clip-path-4" transform="translate(1 -0.27)"><polygon class="cls-1" points="383.64 266.89 340.53 249 321.83 254.17 368.61 274.35 383.64 266.89"/></clipPath><clipPath id="clip-path-5" transform="translate(1 -0.27)"><polygon class="cls-1" points="579.98 266.89 536.87 249 518.17 254.17 564.95 274.35 579.98 266.89"/></clipPath><clipPath id="clip-path-6" transform="translate(1 -0.27)"><polygon class="cls-1" points="630.18 266.89 587.07 249 568.37 254.17 615.15 274.35 630.18 266.89"/></clipPath></defs><title>des_financiero_solvencia_eng</title><path class="cls-2" d="M1,303.89c0-3.59,2.05-5.64,4.74-5.64a4.12,4.12,0,0,1,4.11,2.53l-1.57.93a2.62,2.62,0,0,0-2.54-1.76c-1.86,0-2.9,1.54-2.9,3.93s1.09,4.06,3,4.06a2.74,2.74,0,0,0,2.67-2l1.6,0.72a4.18,4.18,0,0,1-4.27,3C3,309.59,1,307.58,1,303.89Z" transform="translate(1 -0.27)"/><path class="cls-2" d="M12.34,309.38V298.45H19.4v1.71H14.18v2.72h4l0.27,1.64H14.18v3.19h5.51v1.67H12.34Z" transform="translate(1 -0.27)"/><path class="cls-2" d="M24.4,309.38v-9.22H21v-1.71h8.45l0.27,1.71h-3.5v9.22H24.4Z" transform="translate(1 -0.27)"/><path class="cls-2" d="M33.33,309.38v-9.26l-2.1.59L31,299.2l2.39-.75H35.1v10.93H33.33Z" transform="translate(1 -0.27)"/><path class="cls-2" d="M42.66,309.38V298.45h6.88v1.71h-5v2.92h3.71l0.27,1.64h-4v4.65H42.66Z" transform="translate(1 -0.27)"/><path class="cls-2" d="M51.33,307.25v-5.7h1.82v5.21A1.05,1.05,0,0,0,54.33,308a3.19,3.19,0,0,0,2.13-1v-5.42h1.82v7.83H56.6l-0.15-1.09a3.81,3.81,0,0,1-2.81,1.26A2.07,2.07,0,0,1,51.33,307.25Z" transform="translate(1 -0.27)"/><path class="cls-2" d="M60.76,309.38v-10.8l1.8-.27v11.06h-1.8Z" transform="translate(1 -0.27)"/><path class="cls-2" d="M65.15,309.38v-10.8l1.8-.27v11.06h-1.8Z" transform="translate(1 -0.27)"/><path class="cls-2" d="M69,312.26l-0.13-1.52a4.88,4.88,0,0,0,1.29.16,1.19,1.19,0,0,0,1.26-.9l0.22-.58-3-7.74,1.79-.28,2.05,5.85h0l2-5.7h1.79L73,310.24c-0.53,1.37-1.2,2.14-2.75,2.14A5.45,5.45,0,0,1,69,312.26Z" transform="translate(1 -0.27)"/><path class="cls-2" d="M77.67,305.39v-1.3h3.65v1.3H77.67Z" transform="translate(1 -0.27)"/><path class="cls-2" d="M83.6,309.38v-10.8l1.8-.27v11.06H83.6Z" transform="translate(1 -0.27)"/><path class="cls-2" d="M87.45,305.47a3.83,3.83,0,1,1,3.83,4.08A3.7,3.7,0,0,1,87.45,305.47Zm5.83,0c0-1.45-.63-2.54-2-2.54s-2,1-2,2.54,0.61,2.54,2,2.54S93.29,307,93.29,305.48Z" transform="translate(1 -0.27)"/><path class="cls-2" d="M96.56,307.44c0-1.73,1.45-2.79,5.11-3.21V304a1.11,1.11,0,0,0-1.36-1.12,3.83,3.83,0,0,0-2.53,1l-1-1.11a5.18,5.18,0,0,1,3.75-1.43c2,0,2.9,1,2.9,2.84v5.15h-1.62l-0.15-1a3.84,3.84,0,0,1-2.88,1.12A2,2,0,0,1,96.56,307.44Zm5.11-.25v-1.73c-2.53.35-3.34,0.9-3.34,1.68a0.94,0.94,0,0,0,1.11.95A3,3,0,0,0,101.67,307.19Z" transform="translate(1 -0.27)"/><path class="cls-2" d="M105.35,305.51c0-2.72,1.33-4.12,3.13-4.12a3,3,0,0,1,2.47,1v-3.85l1.82-.27v11.06h-1.67l-0.15-1a3,3,0,0,1-2.5,1.15C106.66,309.5,105.35,308.23,105.35,305.51Zm5.6,1.52v-3.19a2.64,2.64,0,0,0-1.94-.95c-1.11,0-1.85.84-1.85,2.6S107.87,308,109,308A2.68,2.68,0,0,0,110.94,307Z" transform="translate(1 -0.27)"/><path class="cls-2" d="M114.72,305.47a3.75,3.75,0,0,1,3.74-4.08c1.7,0,3.44,1,3.44,4.24v0.43h-5.36a2,2,0,0,0,2.13,2,3.46,3.46,0,0,0,2.42-1l0.72,1.2a4.43,4.43,0,0,1-3.25,1.26C116.54,309.54,114.72,308.35,114.72,305.47Zm5.51-.75a1.73,1.73,0,0,0-1.79-1.85,1.91,1.91,0,0,0-1.89,1.85h3.68Z" transform="translate(1 -0.27)"/><path class="cls-2" d="M123.43,305.51c0-2.72,1.33-4.12,3.13-4.12a3,3,0,0,1,2.47,1v-3.85l1.82-.27v11.06h-1.67l-0.15-1a3,3,0,0,1-2.5,1.15C124.75,309.5,123.43,308.23,123.43,305.51ZM129,307v-3.19a2.64,2.64,0,0,0-1.94-.95c-1.11,0-1.85.84-1.85,2.6S126,308,127.12,308A2.68,2.68,0,0,0,129,307Z" transform="translate(1 -0.27)"/><path class="cls-2" d="M140.54,312.41c-2.41-2-3.68-4.25-3.68-7.06s1.27-5,3.68-7.06L141,298.8a8.61,8.61,0,0,0,0,13.1Z" transform="translate(1 -0.27)"/><path class="cls-2" d="M143.08,301.61c0-2,1-3.31,2.47-3.31s2.44,1.27,2.44,3.25-0.9,3.31-2.45,3.31S143.08,303.53,143.08,301.61Zm4,0c0-1.48-.55-2.48-1.52-2.48s-1.52,1.08-1.52,2.45,0.55,2.51,1.54,2.51S147.06,303,147.06,301.58Zm-1.46,7.8,6.53-10.93h0.95l-6.53,10.93h-0.95Zm5.07-3.1c0-2,1-3.31,2.48-3.31s2.44,1.27,2.44,3.26-0.9,3.29-2.47,3.29S150.66,308.2,150.66,306.28Zm4,0c0-1.48-.53-2.48-1.52-2.48s-1.51,1.08-1.51,2.47,0.53,2.5,1.52,2.5S154.63,307.64,154.63,306.25Z" transform="translate(1 -0.27)"/><path class="cls-2" d="M157.65,311.91a8.6,8.6,0,0,0,0-13.1l0.46-.52c2.41,2,3.69,4.27,3.69,7.06s-1.29,5-3.69,7.06Z" transform="translate(1 -0.27)"/><path class="cls-2" d="M31.56,342.12v-3.54h-3.4v-2.25h3.4v-3.54h2.27v3.54h3.4v2.25h-3.4v3.54H31.56Z" transform="translate(1 -0.27)"/><path class="cls-2" d="M38.68,342.27l1.17-2.06a5.41,5.41,0,0,0,3.44,1.42,2.19,2.19,0,0,0,2.5-2.32,2.1,2.1,0,0,0-2.27-2.37,3.09,3.09,0,0,0-2.41,1.26l-1.86-.58,0.53-7.05h7.78l0.21,2.18H42l-0.25,2.91a3.8,3.8,0,0,1,2.64-.81c2.8,0,4.27,1.82,4.27,4.38,0,2.8-2,4.71-5.19,4.71A7,7,0,0,1,38.68,342.27Z" transform="translate(1 -0.27)"/><path class="cls-2" d="M49.29,340.28c0-1.65,1.31-2.8,2.91-3.45-1.44-.74-2.3-1.54-2.3-3.21s1.58-3.31,4.68-3.31,4.66,1.67,4.66,3.31A3.42,3.42,0,0,1,57,336.74c1.68,0.74,2.87,1.58,2.87,3.54,0,2.25-2,3.63-5.26,3.63S49.29,342.55,49.29,340.28Zm7.65-.16c0-1-.8-1.56-2.59-2.29-1.35.66-2.16,1.35-2.16,2.29s0.87,1.82,2.37,1.82S56.94,341.13,56.94,340.12Zm-0.5-6.24a1.62,1.62,0,0,0-1.86-1.54c-1.36,0-1.9.76-1.9,1.49,0,1,.76,1.45,2.07,2C56,335.21,56.45,334.72,56.45,333.89Z" transform="translate(1 -0.27)"/><path class="cls-2" d="M68.2,342.67l-0.19,1H65.67V332.2l2.54-.38v4.74a3.08,3.08,0,0,1,2.58-1.46c1.91,0,3.23,1.46,3.23,4.36s-1.34,4.33-3.26,4.33A3.19,3.19,0,0,1,68.2,342.67Zm3.28-3.2c0-1.4-.49-2.28-1.62-2.28a2.46,2.46,0,0,0-1.65.82v3.1a2.28,2.28,0,0,0,1.69.77C70.94,341.89,71.48,341,71.48,339.48Z" transform="translate(1 -0.27)"/><path class="cls-2" d="M74.81,341.52c0-1.94,1.64-3,5.32-3.31V338a1,1,0,0,0-1.26-1,3.93,3.93,0,0,0-2.44,1l-1.37-1.37a5.81,5.81,0,0,1,4.17-1.53c2.39,0,3.37,1.13,3.37,3.29v5.28H80.33l-0.19-1.23a3.71,3.71,0,0,1-2.93,1.35A2.24,2.24,0,0,1,74.81,341.52Zm5.32-.36V339.6c-2,.21-2.85.71-2.85,1.48a0.8,0.8,0,0,0,.93.8A2.6,2.6,0,0,0,80.14,341.16Z" transform="translate(1 -0.27)"/><path class="cls-2" d="M83.76,342.64l0.85-1.48a5.78,5.78,0,0,0,3,1.06c0.79,0,1.34-.27,1.34-0.82s-0.44-.8-1.59-1c-1.59-.28-3.29-0.66-3.29-2.63,0-1.69,1.39-2.66,3.26-2.66a6.56,6.56,0,0,1,3.62,1L90.2,337.6a5.38,5.38,0,0,0-2.63-.8c-0.72,0-1.13.28-1.13,0.74s0.46,0.71,1.5.9c1.65,0.28,3.4.66,3.4,2.57s-1.76,2.83-3.7,2.83A6.7,6.7,0,0,1,83.76,342.64Z" transform="translate(1 -0.27)"/><path class="cls-2" d="M92.53,333.18a1.27,1.27,0,0,1,1.42-1.28A1.28,1.28,0,1,1,92.53,333.18Zm0.17,10.49v-8.39h2.52v8.39H92.7Z" transform="translate(1 -0.27)"/><path class="cls-2" d="M96.55,342.64l0.85-1.48a5.78,5.78,0,0,0,3,1.06c0.79,0,1.34-.27,1.34-0.82s-0.44-.8-1.59-1c-1.59-.28-3.29-0.66-3.29-2.63,0-1.69,1.39-2.66,3.26-2.66a6.56,6.56,0,0,1,3.62,1L103,337.6a5.38,5.38,0,0,0-2.63-.8c-0.72,0-1.13.28-1.13,0.74s0.46,0.71,1.5.9c1.65,0.28,3.4.66,3.4,2.57s-1.76,2.83-3.7,2.83A6.7,6.7,0,0,1,96.55,342.64Z" transform="translate(1 -0.27)"/><path class="cls-2" d="M109.51,347V335.27h2.35l0.19,1.28a3.11,3.11,0,0,1,2.58-1.45c1.91,0,3.23,1.46,3.23,4.36s-1.34,4.33-3.26,4.33a3.19,3.19,0,0,1-2.55-1.12v4Zm5.81-7.53c0-1.4-.49-2.28-1.62-2.28A2.46,2.46,0,0,0,112,338v3.1a2.28,2.28,0,0,0,1.69.77C114.78,341.89,115.32,341,115.32,339.48Z" transform="translate(1 -0.27)"/><path class="cls-2" d="M118.75,339.48a4.29,4.29,0,1,1,4.3,4.36A4,4,0,0,1,118.75,339.48Zm6,0c0-1.4-.49-2.54-1.75-2.54s-1.76,1-1.76,2.54,0.47,2.57,1.76,2.57S124.8,341,124.8,339.49Z" transform="translate(1 -0.27)"/><path class="cls-2" d="M128.59,333.18A1.27,1.27,0,0,1,130,331.9,1.28,1.28,0,1,1,128.59,333.18Zm0.17,10.49v-8.39h2.52v8.39h-2.52Z" transform="translate(1 -0.27)"/><path class="cls-2" d="M133.19,343.66v-8.39h2.35l0.19,1.32a3.59,3.59,0,0,1,2.9-1.5,2.2,2.2,0,0,1,2.44,2.44v6.13h-2.52v-5.32a0.94,0.94,0,0,0-1-1.15,2.83,2.83,0,0,0-1.83.83v5.64h-2.54Z" transform="translate(1 -0.27)"/><path class="cls-2" d="M143.46,341.15v-4h-1.4v-1.84h1.4v-2.69l2.52-.38v3.07h2.16v1.84H146v3.75a0.91,0.91,0,0,0,1.09,1.07,2.94,2.94,0,0,0,.87-0.14l0.17,1.84a13.47,13.47,0,0,1-1.8.14C144.34,343.77,143.46,343.16,143.46,341.15Z" transform="translate(1 -0.27)"/><path class="cls-2" d="M148.81,342.64l0.85-1.48a5.78,5.78,0,0,0,3,1.06c0.79,0,1.34-.27,1.34-0.82s-0.44-.8-1.59-1c-1.59-.28-3.29-0.66-3.29-2.63,0-1.69,1.39-2.66,3.26-2.66a6.56,6.56,0,0,1,3.62,1l-0.77,1.51a5.38,5.38,0,0,0-2.63-.8c-0.72,0-1.13.28-1.13,0.74s0.46,0.71,1.5.9c1.65,0.28,3.4.66,3.4,2.57s-1.76,2.83-3.7,2.83A6.7,6.7,0,0,1,148.81,342.64Z" transform="translate(1 -0.27)"/><g id="icons"><path class="cls-3" d="M3.45,337.36a9.07,9.07,0,1,0,9.07-9.07A9.07,9.07,0,0,0,3.45,337.36ZM17.2,336l-1.08,1.08-2.83-2.83,0,9.18-1.49-1.51V334.2l-2.9,2.89L7.85,336l4.69-4.69Z" transform="translate(1 -0.27)"/></g><path class="cls-2" d="M276.17,303.89c0-3.59,2.05-5.64,4.74-5.64a4.12,4.12,0,0,1,4.11,2.53l-1.57.93a2.62,2.62,0,0,0-2.54-1.76c-1.86,0-2.9,1.54-2.9,3.93s1.09,4.06,3,4.06a2.74,2.74,0,0,0,2.67-2l1.6,0.72a4.18,4.18,0,0,1-4.27,3C278.19,309.59,276.17,307.58,276.17,303.89Z" transform="translate(1 -0.27)"/><path class="cls-2" d="M287.55,309.38V298.45h7.06v1.71H289.4v2.72h4l0.27,1.64H289.4v3.19h5.51v1.67h-7.36Z" transform="translate(1 -0.27)"/><path class="cls-2" d="M299.62,309.38v-9.22h-3.37v-1.71h8.45l0.27,1.71h-3.5v9.22h-1.85Z" transform="translate(1 -0.27)"/><path class="cls-2" d="M308.55,309.38v-9.26l-2.1.59-0.24-1.51,2.39-.75h1.71v10.93h-1.77Z" transform="translate(1 -0.27)"/><path class="cls-2" d="M317.88,309.38V298.45h3.83c2.35,0,4.19.77,4.19,3.35s-2,3.43-4.25,3.43h-1.94v4.15h-1.83Zm1.83-5.76h2c1.63,0,2.36-.55,2.36-1.77s-0.72-1.71-2.38-1.71h-2v3.49Z" transform="translate(1 -0.27)"/><path class="cls-2" d="M327.8,309.38v-10.8l1.82-.27v4.34a3.67,3.67,0,0,1,2.81-1.27,2.07,2.07,0,0,1,2.32,2.29v5.7h-1.82v-5.17a1.07,1.07,0,0,0-1.18-1.27,3.15,3.15,0,0,0-2.13,1v5.42H327.8Z" transform="translate(1 -0.27)"/><path class="cls-2" d="M336.57,307.44c0-1.73,1.45-2.79,5.11-3.21V304a1.11,1.11,0,0,0-1.36-1.12,3.83,3.83,0,0,0-2.53,1l-1-1.11a5.18,5.18,0,0,1,3.75-1.43c2,0,2.9,1,2.9,2.84v5.15h-1.62l-0.15-1a3.84,3.84,0,0,1-2.88,1.12A2,2,0,0,1,336.57,307.44Zm5.11-.25v-1.73c-2.53.35-3.34,0.9-3.34,1.68a0.94,0.94,0,0,0,1.11.95A3,3,0,0,0,341.68,307.19Z" transform="translate(1 -0.27)"/><path class="cls-2" d="M345.25,308.3l0.69-1.23a4.28,4.28,0,0,0,2.7,1.06c1,0,1.57-.31,1.57-0.86s-0.46-.86-1.76-1.12c-1.65-.34-2.92-0.78-2.92-2.47,0-1.39,1.15-2.3,2.88-2.3a5.12,5.12,0,0,1,3.18,1L351,303.66a4.14,4.14,0,0,0-2.41-.84c-0.89,0-1.31.32-1.31,0.8s0.43,0.75,1.6,1c1.76,0.35,3.1.77,3.1,2.42s-1.49,2.48-3.29,2.48A5,5,0,0,1,345.25,308.3Z" transform="translate(1 -0.27)"/><path class="cls-2" d="M353.43,305.47a3.75,3.75,0,0,1,3.74-4.08c1.7,0,3.44,1,3.44,4.24v0.43h-5.36a2,2,0,0,0,2.13,2,3.46,3.46,0,0,0,2.42-1l0.72,1.2a4.43,4.43,0,0,1-3.25,1.26C355.24,309.54,353.43,308.35,353.43,305.47Zm5.51-.75a1.73,1.73,0,0,0-1.79-1.85,1.91,1.91,0,0,0-1.89,1.85h3.68Z" transform="translate(1 -0.27)"/><path class="cls-2" d="M362.14,305.51c0-2.72,1.33-4.12,3.13-4.12a3,3,0,0,1,2.47,1v-3.85l1.82-.27v11.06h-1.67l-0.15-1a3,3,0,0,1-2.5,1.15C363.45,309.5,362.14,308.23,362.14,305.51Zm5.6,1.52v-3.19a2.64,2.64,0,0,0-1.94-.95c-1.11,0-1.85.84-1.85,2.6s0.71,2.51,1.88,2.51A2.68,2.68,0,0,0,367.74,307Z" transform="translate(1 -0.27)"/><path class="cls-2" d="M371.75,305.39v-1.3h3.65v1.3h-3.65Z" transform="translate(1 -0.27)"/><path class="cls-2" d="M377.54,299.42a0.94,0.94,0,0,1,1-1,1,1,0,1,1,0,1.92A0.94,0.94,0,0,1,377.54,299.42Zm0.15,10v-7.83h1.8v7.83h-1.8Z" transform="translate(1 -0.27)"/><path class="cls-2" d="M382,309.38v-7.83h1.67l0.15,1.11a3.72,3.72,0,0,1,2.82-1.27,2.07,2.07,0,0,1,2.3,2.29v5.7h-1.8v-5.17a1.1,1.1,0,0,0-1.2-1.31,3.17,3.17,0,0,0-2.13,1v5.46H382Z" transform="translate(1 -0.27)"/><path class="cls-2" d="M398.55,312.41c-2.41-2-3.68-4.25-3.68-7.06s1.27-5,3.68-7.06L399,298.8a8.61,8.61,0,0,0,0,13.1Z" transform="translate(1 -0.27)"/><path class="cls-2" d="M401.08,301.61c0-2,1-3.31,2.47-3.31s2.44,1.27,2.44,3.25-0.9,3.31-2.45,3.31S401.08,303.53,401.08,301.61Zm4,0c0-1.48-.55-2.48-1.52-2.48s-1.52,1.08-1.52,2.45,0.55,2.51,1.54,2.51S405.06,303,405.06,301.58Zm-1.46,7.8,6.53-10.93h0.95l-6.53,10.93H403.6Zm5.07-3.1c0-2,1-3.31,2.48-3.31s2.44,1.27,2.44,3.26-0.9,3.29-2.47,3.29S408.66,308.2,408.66,306.28Zm4,0c0-1.48-.53-2.48-1.52-2.48s-1.51,1.08-1.51,2.47,0.53,2.5,1.52,2.5S412.63,307.64,412.63,306.25Z" transform="translate(1 -0.27)"/><path class="cls-2" d="M415.66,311.91a8.6,8.6,0,0,0,0-13.1l0.46-.52c2.41,2,3.69,4.27,3.69,7.06s-1.29,5-3.69,7.06Z" transform="translate(1 -0.27)"/><path class="cls-2" d="M302.56,340.28c0-1.65,1.31-2.8,2.91-3.45-1.44-.74-2.3-1.54-2.3-3.21s1.58-3.31,4.68-3.31,4.66,1.67,4.66,3.31a3.42,3.42,0,0,1-2.27,3.12c1.68,0.74,2.87,1.58,2.87,3.54,0,2.25-2,3.63-5.26,3.63S302.56,342.55,302.56,340.28Zm7.65-.16c0-1-.8-1.56-2.59-2.29-1.35.66-2.16,1.35-2.16,2.29s0.87,1.82,2.37,1.82S310.21,341.13,310.21,340.12Zm-0.5-6.24a1.62,1.62,0,0,0-1.86-1.54c-1.36,0-1.9.76-1.9,1.49,0,1,.76,1.45,2.07,2C309.22,335.21,309.71,334.72,309.71,333.89Z" transform="translate(1 -0.27)"/><path class="cls-2" d="M321.47,342.67l-0.19,1h-2.35V332.2l2.54-.38v4.74A3.08,3.08,0,0,1,324,335.1c1.91,0,3.23,1.46,3.23,4.36s-1.34,4.33-3.26,4.33A3.19,3.19,0,0,1,321.47,342.67Zm3.28-3.2c0-1.4-.49-2.28-1.62-2.28a2.46,2.46,0,0,0-1.65.82v3.1a2.27,2.27,0,0,0,1.68.77C324.21,341.89,324.74,341,324.74,339.48Z" transform="translate(1 -0.27)"/><path class="cls-2" d="M328.08,341.52c0-1.94,1.64-3,5.32-3.31V338a1,1,0,0,0-1.26-1,3.93,3.93,0,0,0-2.44,1l-1.37-1.37a5.81,5.81,0,0,1,4.17-1.53c2.39,0,3.37,1.13,3.37,3.29v5.28h-2.28l-0.19-1.23a3.71,3.71,0,0,1-2.93,1.35A2.24,2.24,0,0,1,328.08,341.52Zm5.32-.36V339.6c-2,.21-2.85.71-2.85,1.48a0.8,0.8,0,0,0,.93.8A2.59,2.59,0,0,0,333.4,341.16Z" transform="translate(1 -0.27)"/><path class="cls-2" d="M337,342.64l0.85-1.48a5.78,5.78,0,0,0,3,1.06c0.79,0,1.34-.27,1.34-0.82s-0.44-.8-1.59-1c-1.59-.28-3.29-0.66-3.29-2.63,0-1.69,1.39-2.66,3.26-2.66a6.56,6.56,0,0,1,3.62,1l-0.77,1.51a5.38,5.38,0,0,0-2.63-.8c-0.72,0-1.13.28-1.13,0.74s0.46,0.71,1.5.9c1.65,0.28,3.4.66,3.4,2.57s-1.76,2.83-3.7,2.83A6.7,6.7,0,0,1,337,342.64Z" transform="translate(1 -0.27)"/><path class="cls-2" d="M345.8,333.18a1.27,1.27,0,0,1,1.42-1.28A1.28,1.28,0,1,1,345.8,333.18ZM346,343.66v-8.39h2.52v8.39H346Z" transform="translate(1 -0.27)"/><path class="cls-2" d="M349.81,342.64l0.85-1.48a5.78,5.78,0,0,0,3,1.06c0.79,0,1.34-.27,1.34-0.82s-0.44-.8-1.59-1c-1.59-.28-3.29-0.66-3.29-2.63,0-1.69,1.39-2.66,3.26-2.66a6.56,6.56,0,0,1,3.62,1l-0.77,1.51a5.38,5.38,0,0,0-2.63-.8c-0.72,0-1.13.28-1.13,0.74s0.46,0.71,1.5.9c1.65,0.28,3.4.66,3.4,2.57s-1.76,2.83-3.7,2.83A6.7,6.7,0,0,1,349.81,342.64Z" transform="translate(1 -0.27)"/><path class="cls-2" d="M362.77,347V335.27h2.35l0.19,1.28a3.11,3.11,0,0,1,2.58-1.45c1.91,0,3.23,1.46,3.23,4.36s-1.34,4.33-3.26,4.33a3.19,3.19,0,0,1-2.55-1.12v4Zm5.81-7.53c0-1.4-.49-2.28-1.62-2.28a2.46,2.46,0,0,0-1.65.82v3.1a2.27,2.27,0,0,0,1.68.77C368,341.89,368.58,341,368.58,339.48Z" transform="translate(1 -0.27)"/><path class="cls-2" d="M372,339.48a4.29,4.29,0,1,1,4.3,4.36A4,4,0,0,1,372,339.48Zm6,0c0-1.4-.49-2.54-1.75-2.54s-1.76,1-1.76,2.54,0.47,2.57,1.76,2.57S378.06,341,378.06,339.49Z" transform="translate(1 -0.27)"/><path class="cls-2" d="M381.86,333.18a1.27,1.27,0,0,1,1.42-1.28A1.28,1.28,0,1,1,381.86,333.18ZM382,343.66v-8.39h2.52v8.39H382Z" transform="translate(1 -0.27)"/><path class="cls-2" d="M386.46,343.66v-8.39h2.35l0.19,1.32a3.59,3.59,0,0,1,2.9-1.5,2.2,2.2,0,0,1,2.44,2.44v6.13h-2.52v-5.32a0.94,0.94,0,0,0-1-1.15A2.83,2.83,0,0,0,389,338v5.64h-2.54Z" transform="translate(1 -0.27)"/><path class="cls-2" d="M396.72,341.15v-4h-1.4v-1.84h1.4v-2.69l2.52-.38v3.07h2.16v1.84h-2.16v3.75a0.91,0.91,0,0,0,1.09,1.07,2.94,2.94,0,0,0,.87-0.14l0.17,1.84a13.46,13.46,0,0,1-1.8.14C397.61,343.77,396.72,343.16,396.72,341.15Z" transform="translate(1 -0.27)"/><path class="cls-2" d="M402.08,342.64l0.85-1.48a5.78,5.78,0,0,0,3,1.06c0.79,0,1.34-.27,1.34-0.82s-0.44-.8-1.59-1c-1.59-.28-3.29-0.66-3.29-2.63,0-1.69,1.39-2.66,3.26-2.66a6.56,6.56,0,0,1,3.62,1l-0.77,1.51a5.38,5.38,0,0,0-2.63-.8c-0.72,0-1.13.28-1.13,0.74s0.46,0.71,1.5.9c1.65,0.28,3.4.66,3.4,2.57s-1.76,2.83-3.7,2.83A6.7,6.7,0,0,1,402.08,342.64Z" transform="translate(1 -0.27)"/><g id="icons-2" data-name="icons"><path class="cls-3" d="M278.66,337.36a9.07,9.07,0,1,0,9.07-9.07A9.07,9.07,0,0,0,278.66,337.36ZM292.42,336l-1.08,1.08-2.83-2.83,0,9.18-1.49-1.51V334.2l-2.9,2.89L283.06,336l4.69-4.69Z" transform="translate(1 -0.27)"/></g><path class="cls-2" d="M527.36,309.38V298.45h3.91c2.58,0,4.09,1,4.09,3.35a2.84,2.84,0,0,1-2.41,3l2.6,4.4-1.8.29-2.64-4.46h-1.93v4.31h-1.82Zm1.82-5.92h2c1.57,0,2.38-.44,2.38-1.68s-0.81-1.64-2.38-1.64h-2v3.32Z" transform="translate(1 -0.27)"/><path class="cls-2" d="M537.06,309.38l3.87-11h1.8l3.83,10.83-1.79.29-0.93-2.75h-4.15l-0.92,2.6h-1.71Zm3.18-4.22h3.07l-1.51-4.43h0Z" transform="translate(1 -0.27)"/><path class="cls-2" d="M551.1,309.38v-9.22h-3.37v-1.71h8.45l0.27,1.71H553v9.22H551.1Z" transform="translate(1 -0.27)"/><path class="cls-2" d="M558.46,309.38V298.45h1.83v10.93h-1.83Z" transform="translate(1 -0.27)"/><path class="cls-2" d="M562.74,303.92c0-3.68,2.29-5.67,4.93-5.67s4.92,2,4.92,5.67-2.29,5.67-4.92,5.67S562.74,307.59,562.74,303.92Zm8,0c0-2.48-1.24-4-3.09-4s-3.09,1.49-3.09,4,1.24,4,3.09,4S570.76,306.4,570.76,303.92Z" transform="translate(1 -0.27)"/><path class="cls-2" d="M579,309.38V298.45h3.1c3.43,0,5.69,1.6,5.69,5.42s-2.3,5.51-5.69,5.51H579Zm1.83-1.67h1.43c2.53,0,3.68-1.15,3.68-3.81s-1.17-3.74-3.71-3.74h-1.4v7.55Z" transform="translate(1 -0.27)"/><path class="cls-2" d="M590.09,309.38V298.45h7.06v1.71h-5.21v2.72h4l0.27,1.64h-4.25v3.19h5.51v1.67h-7.36Z" transform="translate(1 -0.27)"/><path class="cls-2" d="M603.17,303.89c0-3.59,2.05-5.64,4.74-5.64a4.12,4.12,0,0,1,4.11,2.53l-1.57.93a2.62,2.62,0,0,0-2.54-1.76c-1.86,0-2.9,1.54-2.9,3.93s1.09,4.06,3,4.06a2.74,2.74,0,0,0,2.67-2l1.6,0.72a4.18,4.18,0,0,1-4.27,3C605.2,309.59,603.17,307.58,603.17,303.89Z" transform="translate(1 -0.27)"/><path class="cls-2" d="M613.68,309.38l3.87-11h1.8l3.83,10.83-1.79.29-0.93-2.75h-4.15l-0.92,2.6h-1.71Zm3.18-4.22h3.07l-1.51-4.43h0Z" transform="translate(1 -0.27)"/><path class="cls-2" d="M625.2,309.38V298.45H629c2.35,0,4.19.77,4.19,3.35s-2,3.43-4.25,3.43H627v4.15H625.2Zm1.83-5.76h2c1.63,0,2.36-.55,2.36-1.77s-0.72-1.71-2.38-1.71h-2v3.49Z" transform="translate(1 -0.27)"/><path class="cls-2" d="M635.48,309.38V298.45h1.83v10.93h-1.83Z" transform="translate(1 -0.27)"/><path class="cls-2" d="M642.81,309.38v-9.22h-3.37v-1.71h8.45l0.27,1.71h-3.5v9.22h-1.85Z" transform="translate(1 -0.27)"/><path class="cls-2" d="M649.16,309.38l3.87-11h1.8l3.83,10.83-1.79.29-0.93-2.75h-4.15l-0.92,2.6h-1.71Zm3.18-4.22h3.07l-1.51-4.43h0Z" transform="translate(1 -0.27)"/><path class="cls-2" d="M660.68,309.38V298.45h1.85v9.26h4.89l0.28,1.67h-7Z" transform="translate(1 -0.27)"/><path class="cls-2" d="M673.64,309.38V298.45h3.83c2.35,0,4.19.77,4.19,3.35s-2,3.43-4.25,3.43h-1.94v4.15h-1.83Zm1.83-5.76h2c1.63,0,2.36-.55,2.36-1.77s-0.72-1.71-2.38-1.71h-2v3.49Z" transform="translate(1 -0.27)"/><path class="cls-2" d="M683.56,309.38v-10.8l1.82-.27v4.34a3.66,3.66,0,0,1,2.81-1.27,2.07,2.07,0,0,1,2.32,2.29v5.7h-1.82v-5.17a1.07,1.07,0,0,0-1.18-1.27,3.15,3.15,0,0,0-2.13,1v5.42h-1.82Z" transform="translate(1 -0.27)"/><path class="cls-2" d="M692.33,307.44c0-1.73,1.45-2.79,5.11-3.21V304a1.11,1.11,0,0,0-1.36-1.12,3.83,3.83,0,0,0-2.53,1l-1-1.11a5.18,5.18,0,0,1,3.75-1.43c2,0,2.9,1,2.9,2.84v5.15h-1.62l-0.15-1a3.84,3.84,0,0,1-2.88,1.12A2,2,0,0,1,692.33,307.44Zm5.11-.25v-1.73c-2.53.35-3.34,0.9-3.34,1.68a0.94,0.94,0,0,0,1.11.95A3,3,0,0,0,697.44,307.19Z" transform="translate(1 -0.27)"/><path class="cls-2" d="M701,308.3l0.69-1.23a4.28,4.28,0,0,0,2.7,1.06c1,0,1.57-.31,1.57-0.86s-0.46-.86-1.76-1.12c-1.65-.34-2.92-0.78-2.92-2.47,0-1.39,1.15-2.3,2.88-2.3a5.12,5.12,0,0,1,3.18,1l-0.64,1.28a4.14,4.14,0,0,0-2.41-.84c-0.89,0-1.31.32-1.31,0.8s0.43,0.75,1.6,1c1.76,0.35,3.1.77,3.1,2.42s-1.49,2.48-3.29,2.48A5,5,0,0,1,701,308.3Z" transform="translate(1 -0.27)"/><path class="cls-2" d="M709.19,305.47a3.75,3.75,0,0,1,3.74-4.08c1.7,0,3.44,1,3.44,4.24v0.43H711a2,2,0,0,0,2.13,2,3.46,3.46,0,0,0,2.42-1l0.72,1.2a4.43,4.43,0,0,1-3.25,1.26C711,309.54,709.19,308.35,709.19,305.47Zm5.51-.75a1.73,1.73,0,0,0-1.79-1.85,1.91,1.91,0,0,0-1.89,1.85h3.68Z" transform="translate(1 -0.27)"/><path class="cls-2" d="M717.9,305.51c0-2.72,1.33-4.12,3.13-4.12a3,3,0,0,1,2.47,1v-3.85l1.82-.27v11.06h-1.67l-0.15-1a3,3,0,0,1-2.5,1.15C719.21,309.5,717.9,308.23,717.9,305.51Zm5.6,1.52v-3.19a2.64,2.64,0,0,0-1.94-.95c-1.11,0-1.85.84-1.85,2.6s0.71,2.51,1.88,2.51A2.68,2.68,0,0,0,723.5,307Z" transform="translate(1 -0.27)"/><path class="cls-2" d="M727.51,305.39v-1.3h3.65v1.3h-3.65Z" transform="translate(1 -0.27)"/><path class="cls-2" d="M733.3,299.42a0.94,0.94,0,0,1,1-1,1,1,0,1,1,0,1.92A0.94,0.94,0,0,1,733.3,299.42Zm0.15,10v-7.83h1.8v7.83h-1.8Z" transform="translate(1 -0.27)"/><path class="cls-2" d="M737.74,309.38v-7.83h1.67l0.15,1.11a3.72,3.72,0,0,1,2.82-1.27,2.07,2.07,0,0,1,2.3,2.29v5.7h-1.8v-5.17a1.1,1.1,0,0,0-1.2-1.31,3.17,3.17,0,0,0-2.13,1v5.46h-1.82Z" transform="translate(1 -0.27)"/><path class="cls-2" d="M754.31,312.41c-2.41-2-3.68-4.25-3.68-7.06s1.27-5,3.68-7.06l0.46,0.52a8.61,8.61,0,0,0,0,13.1Z" transform="translate(1 -0.27)"/><path class="cls-2" d="M756.85,301.61c0-2,1-3.31,2.47-3.31s2.44,1.27,2.44,3.25-0.9,3.31-2.45,3.31S756.85,303.53,756.85,301.61Zm4,0c0-1.48-.55-2.48-1.52-2.48s-1.52,1.08-1.52,2.45,0.55,2.51,1.54,2.51S760.82,303,760.82,301.58Zm-1.46,7.8,6.53-10.93h0.95l-6.53,10.93h-0.95Zm5.07-3.1c0-2,1-3.31,2.48-3.31s2.44,1.27,2.44,3.26-0.9,3.29-2.47,3.29S764.42,308.2,764.42,306.28Zm4,0c0-1.48-.53-2.48-1.52-2.48s-1.51,1.08-1.51,2.47,0.53,2.5,1.52,2.5S768.4,307.64,768.4,306.25Z" transform="translate(1 -0.27)"/><path class="cls-2" d="M771.42,311.91a8.6,8.6,0,0,0,0-13.1l0.46-.52c2.41,2,3.69,4.27,3.69,7.06s-1.29,5-3.69,7.06Z" transform="translate(1 -0.27)"/><path class="cls-2" d="M556.14,343.66V333.16l-2.52.6-0.35-2.36,2.94-.85h2.71v13.11h-2.78Z" transform="translate(1 -0.27)"/><path class="cls-2" d="M567.57,343.66V341.1h-6.36V339l6-8.45h3.17v8.27h2l0.28,2.27h-2.32v2.57h-2.78Zm-3.38-4.84h3.38V334h0Z" transform="translate(1 -0.27)"/><path class="cls-2" d="M580.77,342.67l-0.19,1h-2.35V332.2l2.54-.38v4.74a3.08,3.08,0,0,1,2.58-1.46c1.91,0,3.23,1.46,3.23,4.36s-1.34,4.33-3.26,4.33A3.19,3.19,0,0,1,580.77,342.67Zm3.28-3.2c0-1.4-.49-2.28-1.62-2.28a2.46,2.46,0,0,0-1.65.82v3.1a2.27,2.27,0,0,0,1.68.77C583.51,341.89,584,341,584,339.48Z" transform="translate(1 -0.27)"/><path class="cls-2" d="M587.39,341.52c0-1.94,1.64-3,5.32-3.31V338a1,1,0,0,0-1.26-1,3.93,3.93,0,0,0-2.44,1l-1.37-1.37a5.81,5.81,0,0,1,4.17-1.53c2.39,0,3.37,1.13,3.37,3.29v5.28H592.9l-0.19-1.23a3.71,3.71,0,0,1-2.93,1.35A2.24,2.24,0,0,1,587.39,341.52Zm5.32-.36V339.6c-2,.21-2.85.71-2.85,1.48a0.8,0.8,0,0,0,.93.8A2.59,2.59,0,0,0,592.71,341.16Z" transform="translate(1 -0.27)"/><path class="cls-2" d="M596.33,342.64l0.85-1.48a5.78,5.78,0,0,0,3,1.06c0.79,0,1.34-.27,1.34-0.82s-0.44-.8-1.59-1c-1.59-.28-3.29-0.66-3.29-2.63,0-1.69,1.39-2.66,3.26-2.66a6.56,6.56,0,0,1,3.62,1l-0.77,1.51a5.38,5.38,0,0,0-2.63-.8c-0.72,0-1.13.28-1.13,0.74s0.46,0.71,1.5.9c1.65,0.28,3.4.66,3.4,2.57s-1.76,2.83-3.7,2.83A6.7,6.7,0,0,1,596.33,342.64Z" transform="translate(1 -0.27)"/><path class="cls-2" d="M605.1,333.18a1.27,1.27,0,0,1,1.42-1.28A1.28,1.28,0,1,1,605.1,333.18Zm0.17,10.49v-8.39h2.52v8.39h-2.52Z" transform="translate(1 -0.27)"/><path class="cls-2" d="M609.12,342.64l0.85-1.48a5.78,5.78,0,0,0,3,1.06c0.79,0,1.34-.27,1.34-0.82s-0.44-.8-1.59-1c-1.59-.28-3.29-0.66-3.29-2.63,0-1.69,1.39-2.66,3.26-2.66a6.56,6.56,0,0,1,3.62,1l-0.77,1.51a5.38,5.38,0,0,0-2.63-.8c-0.72,0-1.13.28-1.13,0.74s0.46,0.71,1.5.9c1.65,0.28,3.4.66,3.4,2.57s-1.76,2.83-3.7,2.83A6.7,6.7,0,0,1,609.12,342.64Z" transform="translate(1 -0.27)"/><path class="cls-2" d="M622.08,347V335.27h2.35l0.19,1.28a3.11,3.11,0,0,1,2.58-1.45c1.91,0,3.23,1.46,3.23,4.36s-1.34,4.33-3.26,4.33a3.19,3.19,0,0,1-2.55-1.12v4Zm5.81-7.53c0-1.4-.49-2.28-1.62-2.28a2.46,2.46,0,0,0-1.65.82v3.1a2.27,2.27,0,0,0,1.68.77C627.35,341.89,627.89,341,627.89,339.48Z" transform="translate(1 -0.27)"/><path class="cls-2" d="M631.32,339.48a4.29,4.29,0,1,1,4.3,4.36A4,4,0,0,1,631.32,339.48Zm6,0c0-1.4-.49-2.54-1.75-2.54s-1.76,1-1.76,2.54,0.47,2.57,1.76,2.57S637.37,341,637.37,339.49Z" transform="translate(1 -0.27)"/><path class="cls-2" d="M641.17,333.18a1.27,1.27,0,0,1,1.42-1.28A1.28,1.28,0,1,1,641.17,333.18Zm0.17,10.49v-8.39h2.52v8.39h-2.52Z" transform="translate(1 -0.27)"/><path class="cls-2" d="M645.76,343.66v-8.39h2.35l0.19,1.32a3.59,3.59,0,0,1,2.9-1.5,2.2,2.2,0,0,1,2.44,2.44v6.13h-2.52v-5.32a0.94,0.94,0,0,0-1-1.15,2.83,2.83,0,0,0-1.83.83v5.64h-2.54Z" transform="translate(1 -0.27)"/><path class="cls-2" d="M656,341.15v-4h-1.4v-1.84H656v-2.69l2.52-.38v3.07h2.16v1.84h-2.16v3.75a0.91,0.91,0,0,0,1.09,1.07,2.94,2.94,0,0,0,.87-0.14l0.17,1.84a13.46,13.46,0,0,1-1.8.14C656.91,343.77,656,343.16,656,341.15Z" transform="translate(1 -0.27)"/><path class="cls-2" d="M661.38,342.64l0.85-1.48a5.78,5.78,0,0,0,3,1.06c0.79,0,1.34-.27,1.34-0.82s-0.44-.8-1.59-1c-1.59-.28-3.29-0.66-3.29-2.63,0-1.69,1.39-2.66,3.26-2.66a6.56,6.56,0,0,1,3.62,1l-0.77,1.51a5.38,5.38,0,0,0-2.63-.8c-0.72,0-1.13.28-1.13,0.74s0.46,0.71,1.5.9c1.65,0.28,3.4.66,3.4,2.57s-1.76,2.83-3.7,2.83A6.7,6.7,0,0,1,661.38,342.64Z" transform="translate(1 -0.27)"/><g id="icons-3" data-name="icons"><path class="cls-3" d="M529.32,337.36a9.07,9.07,0,1,0,9.07-9.07A9.07,9.07,0,0,0,529.32,337.36ZM543.08,336L542,337.06l-2.83-2.83,0,9.18-1.49-1.51V334.2l-2.9,2.89L533.72,336l4.69-4.69Z" transform="translate(1 -0.27)"/></g><path class="cls-2" d="M34,155.46V143.52l-2.52.85-0.16-1,2.75-1h1.15v13.11H34Z" transform="translate(1 -0.27)"/><path class="cls-2" d="M38.6,148.9c0-4.09,1.74-6.8,4.82-6.8s4.78,2.71,4.78,6.8-1.7,6.8-4.78,6.8S38.6,153,38.6,148.9Zm8.36,0c0-3.7-1.4-5.69-3.54-5.69s-3.56,2-3.56,5.69,1.4,5.69,3.56,5.69S47,152.6,47,148.9Z" transform="translate(1 -0.27)"/><path class="cls-2" d="M50.56,154.61a0.82,0.82,0,0,1,.87-0.9,0.83,0.83,0,0,1,.87.9,0.85,0.85,0,0,1-.87.94A0.84,0.84,0,0,1,50.56,154.61Z" transform="translate(1 -0.27)"/><path class="cls-2" d="M54.21,153.28l0.87-.74a4.11,4.11,0,0,0,3.61,2.05c2,0,3.14-1.08,3.14-2.66,0-1.91-1.12-2.89-4.22-2.89H57.15L57.08,148h0.64c2.78,0,3.83-.85,3.83-2.46,0-1.28-.8-2.29-2.78-2.29a3.9,3.9,0,0,0-3.14,1.65l-0.83-.8a5.19,5.19,0,0,1,4-2c2.76,0,3.93,1.58,3.93,3.28a3,3,0,0,1-2.62,3.1,3.2,3.2,0,0,1,2.92,3.45c0,2.14-1.68,3.77-4.38,3.77A5.14,5.14,0,0,1,54.21,153.28Z" transform="translate(1 -0.27)"/><path class="cls-2" d="M88.46,147.91V136l-2.52.85-0.16-1,2.75-1h1.15v13.11H88.46Z" transform="translate(1 -0.27)"/><path class="cls-2" d="M93.07,141.35c0-4.09,1.74-6.8,4.82-6.8s4.78,2.71,4.78,6.8-1.7,6.8-4.78,6.8S93.07,145.45,93.07,141.35Zm8.36,0c0-3.7-1.4-5.69-3.54-5.69s-3.56,2-3.56,5.69,1.4,5.69,3.56,5.69S101.43,145.06,101.43,141.35Z" transform="translate(1 -0.27)"/><path class="cls-2" d="M105,147.06a0.82,0.82,0,0,1,.87-0.9,0.83,0.83,0,0,1,.87.9,0.85,0.85,0,0,1-.87.94A0.84,0.84,0,0,1,105,147.06Z" transform="translate(1 -0.27)"/><path class="cls-2" d="M109.49,147l0.57-1a3.84,3.84,0,0,0,2.82,1.06c2.39,0,3.88-2.55,3.86-5.81A5,5,0,0,1,113,143a3.75,3.75,0,0,1-4.09-4.09,4.17,4.17,0,0,1,4.39-4.36c2.55,0,4.64,2.07,4.64,6.57,0,4-2.13,7-5.08,7A4.86,4.86,0,0,1,109.49,147Zm7.21-7c-0.27-3-1.72-4.34-3.44-4.34a3,3,0,0,0-3.12,3.24,2.74,2.74,0,0,0,3,3A4.39,4.39,0,0,0,116.7,140Z" transform="translate(1 -0.27)"/><path class="cls-2" d="M305.63,140.53V128.59l-2.52.85-0.16-1,2.75-1h1.15v13.11h-1.22Z" transform="translate(1 -0.27)"/><path class="cls-2" d="M310.12,140.53v-0.28c0-1.9.94-3.63,4.39-5.85,2-1.24,2.76-2.14,2.76-3.56a2.41,2.41,0,0,0-2.69-2.55,3.48,3.48,0,0,0-3.26,2.3l-0.94-.62a4.57,4.57,0,0,1,4.25-2.8,3.52,3.52,0,0,1,3.86,3.6c0,1.79-.87,2.92-3.38,4.52-2.36,1.51-3.56,2.94-3.61,4.11h7l0.09,1.13h-8.49Z" transform="translate(1 -0.27)"/><path class="cls-2" d="M321,139.68a0.82,0.82,0,0,1,.87-0.9,0.83,0.83,0,0,1,.87.9,0.85,0.85,0,0,1-.87.94A0.84,0.84,0,0,1,321,139.68Z" transform="translate(1 -0.27)"/><path class="cls-2" d="M328,140.53V128.59l-2.52.85-0.16-1,2.75-1h1.15v13.11H328Z" transform="translate(1 -0.27)"/><path class="cls-2" d="M353.54,137.9V126l-2.52.85-0.16-1,2.75-1h1.15V137.9h-1.22Z" transform="translate(1 -0.27)"/><path class="cls-2" d="M358,137.9v-0.28c0-1.9.94-3.63,4.39-5.85,2-1.24,2.76-2.14,2.76-3.56a2.41,2.41,0,0,0-2.69-2.55,3.48,3.48,0,0,0-3.26,2.3l-0.94-.62a4.57,4.57,0,0,1,4.25-2.8,3.52,3.52,0,0,1,3.86,3.6c0,1.79-.87,2.92-3.38,4.52-2.36,1.51-3.56,2.94-3.61,4.11h7l0.09,1.13H358Z" transform="translate(1 -0.27)"/><path class="cls-2" d="M368.93,137.05a0.82,0.82,0,0,1,.87-0.9,0.83,0.83,0,0,1,.87.9,0.85,0.85,0,0,1-.87.94A0.84,0.84,0,0,1,368.93,137.05Z" transform="translate(1 -0.27)"/><path class="cls-2" d="M372.89,137.9v-0.28c0-1.9.94-3.63,4.39-5.85,2-1.24,2.76-2.14,2.76-3.56a2.41,2.41,0,0,0-2.69-2.55,3.48,3.48,0,0,0-3.26,2.3l-0.94-.62a4.57,4.57,0,0,1,4.25-2.8,3.52,3.52,0,0,1,3.86,3.6c0,1.79-.87,2.92-3.38,4.52-2.36,1.51-3.56,2.94-3.61,4.11h7l0.09,1.13h-8.49Z" transform="translate(1 -0.27)"/><path class="cls-2" d="M549.39,116.91V105l-2.52.85-0.16-1,2.75-1h1.15v13.11h-1.22Z" transform="translate(1 -0.27)"/><path class="cls-2" d="M553.75,114.82l0.81-.8a4,4,0,0,0,3.45,2,3.16,3.16,0,0,0,3.28-3.42,2.92,2.92,0,0,0-3-3.26,3.45,3.45,0,0,0-3,1.65l-0.94-.35,0.51-6.86h6.87l0,1.15h-5.86l-0.35,4.55a3.53,3.53,0,0,1,2.91-1.22,4,4,0,0,1,4.06,4.29,4.32,4.32,0,0,1-4.5,4.59A5,5,0,0,1,553.75,114.82Z" transform="translate(1 -0.27)"/><path class="cls-2" d="M564.69,116.06a0.82,0.82,0,0,1,.87-0.9,0.83,0.83,0,0,1,.87.9,0.85,0.85,0,0,1-.87.94A0.84,0.84,0,0,1,564.69,116.06Z" transform="translate(1 -0.27)"/><path class="cls-2" d="M568.77,110.35c0-4.09,1.74-6.8,4.82-6.8s4.78,2.71,4.78,6.8-1.7,6.8-4.78,6.8S568.77,114.44,568.77,110.35Zm8.36,0c0-3.7-1.4-5.69-3.54-5.69s-3.56,2-3.56,5.69,1.4,5.69,3.56,5.69S577.13,114.05,577.13,110.35Z" transform="translate(1 -0.27)"/><path class="cls-2" d="M603.86,115.26V103.32l-2.52.85-0.16-1,2.75-1h1.15v13.11h-1.22Z" transform="translate(1 -0.27)"/><path class="cls-2" d="M608.21,113.17l0.81-.8a4,4,0,0,0,3.45,2,3.16,3.16,0,0,0,3.28-3.42,2.92,2.92,0,0,0-3-3.26,3.45,3.45,0,0,0-3,1.65l-0.94-.35,0.51-6.86h6.87l0,1.15h-5.86L610,107.86a3.53,3.53,0,0,1,2.91-1.22,4,4,0,0,1,4.06,4.29,4.32,4.32,0,0,1-4.5,4.59A5,5,0,0,1,608.21,113.17Z" transform="translate(1 -0.27)"/><path class="cls-2" d="M619.16,114.41a0.82,0.82,0,0,1,.87-0.9,0.83,0.83,0,0,1,.87.9,0.85,0.85,0,0,1-.87.94A0.84,0.84,0,0,1,619.16,114.41Z" transform="translate(1 -0.27)"/><path class="cls-2" d="M626.14,115.26V103.32l-2.52.85-0.16-1,2.75-1h1.15v13.11h-1.22Z" transform="translate(1 -0.27)"/><g class="cls-4"><polygon class="cls-5" points="36.9 248.73 5.25 267 0 257.9 0 248.73 36.9 248.73"/><polygon class="cls-5" points="53.8 248.73 61.82 262.62 61.82 266.62 48.89 274.08 9.34 274.08 5.25 267 36.9 248.73 53.8 248.73"/><polygon class="cls-5" points="48.89 274.08 61.82 266.62 61.82 274.08 48.89 274.08"/></g><polygon class="cls-6" points="46.12 274.46 61.82 266.62 61.82 203.96 46.12 192.12 46.12 274.46"/><polygon class="cls-7" points="46.12 183.05 61.82 175.21 46.16 168.93 30.46 176.78 46.12 183.05"/><polygon class="cls-6" points="46.12 183.05 46.12 192.12 61.82 203.96 61.82 175.21 46.12 183.05"/><g class="cls-8"><polygon class="cls-5" points="94.97 248.73 63.33 267 58.07 257.9 58.07 248.73 94.97 248.73"/><polygon class="cls-5" points="111.87 248.73 119.89 262.62 119.89 266.62 106.97 274.08 67.42 274.08 63.33 267 94.97 248.73 111.87 248.73"/><polygon class="cls-5" points="106.97 274.08 119.89 266.62 119.89 274.08 106.97 274.08"/></g><polygon class="cls-3" points="104.2 274.46 119.89 266.62 119.89 184.27 104.2 192.12 104.2 274.46"/><polygon class="cls-9" points="104.2 179.11 119.89 171.27 104.23 164.99 88.54 172.84 104.2 179.11"/><polygon class="cls-3" points="104.2 179.11 104.2 192.12 119.89 184.27 119.89 171.27 104.2 179.11"/><g class="cls-10"><polygon class="cls-5" points="309.53 248.73 277.88 267 272.63 257.9 272.63 248.73 309.53 248.73"/><polygon class="cls-5" points="326.43 248.73 334.44 262.62 334.44 266.62 321.52 274.08 281.97 274.08 277.88 267 309.53 248.73 326.43 248.73"/><polygon class="cls-5" points="321.52 274.08 334.44 266.62 334.44 274.08 321.52 274.08"/></g><polygon class="cls-6" points="318.75 274.46 334.44 266.62 334.44 203.96 318.75 192.12 318.75 274.46"/><polygon class="cls-7" points="318.75 167.31 334.44 159.47 318.79 153.19 303.09 161.04 318.75 167.31"/><polygon class="cls-6" points="318.75 167.31 318.75 192.12 334.44 203.96 334.44 159.47 318.75 167.31"/><g class="cls-11"><polygon class="cls-5" points="359.73 248.73 328.08 267 322.83 257.9 322.83 248.73 359.73 248.73"/><polygon class="cls-5" points="376.63 248.73 384.64 262.62 384.64 266.62 371.72 274.08 332.17 274.08 328.08 267 359.73 248.73 376.63 248.73"/><polygon class="cls-5" points="371.72 274.08 384.64 266.62 384.64 274.08 371.72 274.08"/></g><polygon class="cls-3" points="368.95 274.46 384.64 266.62 384.64 184.27 368.95 192.12 368.95 274.46"/><polygon class="cls-9" points="368.95 166.65 384.64 158.8 368.99 152.53 353.29 160.37 368.95 166.65"/><polygon class="cls-3" points="368.95 166.65 368.95 192.12 384.64 184.27 384.64 158.8 368.95 166.65"/><g class="cls-12"><polygon class="cls-5" points="556.07 248.73 524.42 267 519.17 257.9 519.17 248.73 556.07 248.73"/><polygon class="cls-5" points="572.96 248.73 580.98 262.62 580.98 266.62 568.06 274.08 528.51 274.08 524.42 267 556.07 248.73 572.96 248.73"/><polygon class="cls-5" points="568.06 274.08 580.98 266.62 580.98 274.08 568.06 274.08"/></g><polygon class="cls-6" points="565.29 274.46 580.98 266.62 580.98 203.96 565.29 192.12 565.29 274.46"/><polygon class="cls-7" points="565.29 143.03 580.98 135.18 565.33 128.91 549.63 136.75 565.29 143.03"/><polygon class="cls-6" points="565.29 143.03 565.29 192.12 580.98 203.96 580.98 135.18 565.29 143.03"/><g class="cls-13"><polygon class="cls-5" points="606.26 248.73 574.62 267 569.37 257.9 569.37 248.73 606.26 248.73"/><polygon class="cls-5" points="623.16 248.73 631.18 262.62 631.18 266.62 618.26 274.08 578.71 274.08 574.62 267 606.26 248.73 623.16 248.73"/><polygon class="cls-5" points="618.26 274.08 631.18 266.62 631.18 274.08 618.26 274.08"/></g><polygon class="cls-3" points="615.49 274.46 631.18 266.62 631.18 184.27 615.49 192.12 615.49 274.46"/><polygon class="cls-9" points="615.49 142.05 631.18 134.21 615.52 127.93 599.83 135.78 615.49 142.05"/><polygon class="cls-3" points="615.49 142.05 615.49 192.12 631.18 184.27 631.18 134.21 615.49 142.05"/><path class="cls-2" d="M395.41,11.41V0.48h2.76c3.54,0,5.44,1.85,5.44,5.45s-1.93,5.48-5.44,5.48h-2.76Zm1-1h1.88c2.72,0,4.22-1.39,4.22-4.5S401,1.46,398.31,1.46h-1.85v9Z" transform="translate(1 -0.27)"/><path class="cls-2" d="M405.76,11.41V0.48h6.53v1h-5.48V5.16h4.09l0.16,0.95h-4.25v4.34h5.79v1h-6.84Z" transform="translate(1 -0.27)"/><path class="cls-2" d="M414,5.9c0-3.29,1.82-5.63,4.52-5.63a3.8,3.8,0,0,1,3.75,2.41l-0.9.47a2.84,2.84,0,0,0-2.85-1.92c-2.13,0-3.47,1.86-3.47,4.64,0,3,1.37,4.8,3.52,4.8a3.1,3.1,0,0,0,3-2.19l0.9,0.41a4,4,0,0,1-4,2.72C415.83,11.62,414,9.36,414,5.9Z" transform="translate(1 -0.27)"/><path class="cls-2" d="M427.26,11.41V11.17c0-1.58.78-3,3.66-4.87,1.64-1,2.3-1.79,2.3-3A2,2,0,0,0,431,1.2a2.9,2.9,0,0,0-2.72,1.92l-0.78-.52A3.81,3.81,0,0,1,431,.27a2.93,2.93,0,0,1,3.22,3c0,1.49-.72,2.44-2.82,3.77s-3,2.45-3,3.43h5.85l0.07,0.95h-7.08Z" transform="translate(1 -0.27)"/><path class="cls-2" d="M435.91,5.95c0-3.41,1.45-5.67,4-5.67s4,2.26,4,5.67-1.42,5.67-4,5.67S435.91,9.36,435.91,5.95Zm7,0c0-3.09-1.17-4.74-3-4.74s-3,1.65-3,4.74,1.17,4.74,3,4.74S442.88,9,442.88,5.95Z" transform="translate(1 -0.27)"/><path class="cls-2" d="M447.85,11.41v-10l-2.1.71-0.13-.87,2.29-.81h1V11.41h-1Z" transform="translate(1 -0.27)"/><path class="cls-2" d="M451.69,6.14c0-3.37,1.79-5.86,4.3-5.86a3.81,3.81,0,0,1,2.57.83l-0.49.83a3,3,0,0,0-2.1-.74c-2,0-3.26,2.11-3.26,4.84a4.21,4.21,0,0,1,3.12-1.46A3.13,3.13,0,0,1,459.24,8a3.47,3.47,0,0,1-3.66,3.63C453.45,11.62,451.69,9.89,451.69,6.14ZM458.22,8a2.28,2.28,0,0,0-2.51-2.53,3.66,3.66,0,0,0-3,1.61c0.22,2.51,1.42,3.63,2.87,3.63A2.48,2.48,0,0,0,458.22,8Z" transform="translate(1 -0.27)"/><path class="cls-2" d="M289.77,11.41V0.48h2.76c3.54,0,5.44,1.85,5.44,5.45s-1.93,5.48-5.44,5.48h-2.76Zm1-1h1.88c2.72,0,4.22-1.39,4.22-4.5s-1.52-4.49-4.25-4.49h-1.85v9Z" transform="translate(1 -0.27)"/><path class="cls-2" d="M300.12,11.41V0.48h6.53v1h-5.48V5.16h4.09l0.16,0.95h-4.25v4.34H307v1h-6.84Z" transform="translate(1 -0.27)"/><path class="cls-2" d="M308.38,5.9c0-3.29,1.82-5.63,4.52-5.63a3.8,3.8,0,0,1,3.75,2.41l-0.9.47a2.84,2.84,0,0,0-2.85-1.92c-2.13,0-3.47,1.86-3.47,4.64,0,3,1.37,4.8,3.52,4.8a3.1,3.1,0,0,0,3-2.19l0.9,0.41a4,4,0,0,1-4,2.72C310.19,11.62,308.38,9.36,308.38,5.9Z" transform="translate(1 -0.27)"/><path class="cls-2" d="M321.61,11.41V11.17c0-1.58.78-3,3.66-4.87,1.64-1,2.3-1.79,2.3-3a2,2,0,0,0-2.25-2.13,2.9,2.9,0,0,0-2.72,1.92l-0.78-.52A3.81,3.81,0,0,1,325.38.27a2.93,2.93,0,0,1,3.22,3c0,1.49-.72,2.44-2.82,3.77s-3,2.45-3,3.43h5.85l0.07,0.95h-7.08Z" transform="translate(1 -0.27)"/><path class="cls-2" d="M330.26,5.95c0-3.41,1.45-5.67,4-5.67s4,2.26,4,5.67-1.42,5.67-4,5.67S330.26,9.36,330.26,5.95Zm7,0c0-3.09-1.17-4.74-3-4.74s-3,1.65-3,4.74,1.17,4.74,3,4.74S337.23,9,337.23,5.95Z" transform="translate(1 -0.27)"/><path class="cls-2" d="M342.21,11.41v-10l-2.1.71L340,1.29l2.29-.81h1V11.41h-1Z" transform="translate(1 -0.27)"/><path class="cls-2" d="M345.84,9.67L346.52,9a3.34,3.34,0,0,0,2.88,1.68,2.64,2.64,0,0,0,2.73-2.85,2.44,2.44,0,0,0-2.5-2.72,2.88,2.88,0,0,0-2.5,1.37l-0.78-.3,0.43-5.72h5.73l0,1h-4.89l-0.3,3.8a2.94,2.94,0,0,1,2.42-1,3.29,3.29,0,0,1,3.38,3.57,3.6,3.6,0,0,1-3.75,3.83A4.15,4.15,0,0,1,345.84,9.67Z" transform="translate(1 -0.27)"/><polygon class="cls-3" points="386.7 2.98 382.14 12.11 364.81 12.11 369.37 2.98 386.7 2.98"/><polygon class="cls-6" points="278.2 2.98 273.64 12.11 256.31 12.11 260.87 2.98 278.2 2.98"/></svg>