<?xml version="1.0" encoding="utf-8"?>
<!-- Generator: Adobe Illustrator 21.0.0, SVG Export Plug-In . SVG Version: 6.00 Build 0)  -->
<!DOCTYPE svg PUBLIC "-//W3C//DTD SVG 1.1//EN" "http://www.w3.org/Graphics/SVG/1.1/DTD/svg11.dtd">
<svg version="1.1" id="Capa_1" xmlns="http://www.w3.org/2000/svg" xmlns:xlink="http://www.w3.org/1999/xlink" x="0px" y="0px"
	 viewBox="0 0 776.6 346.7" style="enable-background:new 0 0 776.6 346.7;" xml:space="preserve">
<style type="text/css">
	.st0{fill:url(#SVGID_1_);}
	.st1{fill:url(#SVGID_2_);}
	.st2{fill:url(#SVGID_3_);}
	.st3{fill:url(#SVGID_4_);}
	.st4{fill:url(#SVGID_5_);}
	.st5{fill:url(#SVGID_6_);}
	.st6{fill:#FFFFFF;}
	.st7{fill:#2ECDCD;}
	.st8{fill:#2A86CA;}
	.st9{fill:#0064A8;}
	.st10{fill:#00A6A6;}
</style>
<linearGradient id="SVGID_1_" gradientUnits="userSpaceOnUse" x1="79.635" y1="91.5587" x2="124.1642" y2="72.1981" gradientTransform="matrix(1 0 0 -1 0 348)">
	<stop  offset="0" style="stop-color:#000000;stop-opacity:0"/>
	<stop  offset="1" style="stop-color:#000000;stop-opacity:0.5"/>
</linearGradient>
<polygon class="st0" points="104.4,274.1 57.3,253.3 76.3,248.1 119.2,266.8 "/>
<linearGradient id="SVGID_2_" gradientUnits="userSpaceOnUse" x1="21.8227" y1="91.5423" x2="66.352" y2="72.1817" gradientTransform="matrix(1 0 0 -1 0 348)">
	<stop  offset="0" style="stop-color:#000000;stop-opacity:0"/>
	<stop  offset="1" style="stop-color:#000000;stop-opacity:0.5"/>
</linearGradient>
<polygon class="st1" points="46.5,274.1 -0.5,253.3 18.5,248.1 61.4,266.8 "/>
<linearGradient id="SVGID_3_" gradientUnits="userSpaceOnUse" x1="344.5879" y1="91.5357" x2="389.1172" y2="72.1751" gradientTransform="matrix(1 0 0 -1 0 348)">
	<stop  offset="0" style="stop-color:#000000;stop-opacity:0"/>
	<stop  offset="1" style="stop-color:#000000;stop-opacity:0.5"/>
</linearGradient>
<polygon class="st2" points="369.3,274.1 322.2,253.3 341.2,248.1 384.1,266.8 "/>
<linearGradient id="SVGID_4_" gradientUnits="userSpaceOnUse" x1="294.2564" y1="91.5494" x2="338.7857" y2="72.1888" gradientTransform="matrix(1 0 0 -1 0 348)">
	<stop  offset="0" style="stop-color:#000000;stop-opacity:0"/>
	<stop  offset="1" style="stop-color:#000000;stop-opacity:0.5"/>
</linearGradient>
<polygon class="st3" points="319,274.1 271.9,253.3 290.9,248.1 333.8,266.8 "/>
<linearGradient id="SVGID_5_" gradientUnits="userSpaceOnUse" x1="590.7505" y1="91.552" x2="635.2797" y2="72.1914" gradientTransform="matrix(1 0 0 -1 0 348)">
	<stop  offset="0" style="stop-color:#000000;stop-opacity:0"/>
	<stop  offset="1" style="stop-color:#000000;stop-opacity:0.5"/>
</linearGradient>
<polygon class="st4" points="615.5,274.1 568.4,253.3 587.4,248.1 630.3,266.8 "/>
<linearGradient id="SVGID_6_" gradientUnits="userSpaceOnUse" x1="540.411" y1="91.5474" x2="584.9403" y2="72.1868" gradientTransform="matrix(1 0 0 -1 0 348)">
	<stop  offset="0" style="stop-color:#000000;stop-opacity:0"/>
	<stop  offset="1" style="stop-color:#000000;stop-opacity:0.5"/>
</linearGradient>
<polygon class="st5" points="565.1,274.1 518,253.3 537.1,248.1 580,266.8 "/>
<title>des_financiero_solvencia_eng</title>
<path class="st6" d="M2,303.6c0-3.6,2.1-5.6,4.7-5.6c1.8-0.1,3.4,0.9,4.1,2.5l-1.6,0.9c-0.4-1.1-1.4-1.8-2.5-1.8
	c-1.9,0-2.9,1.5-2.9,3.9s1.1,4.1,3,4.1c1.2,0,2.3-0.8,2.7-2l1.6,0.7c-0.5,1.9-2.3,3.1-4.3,3C4,309.3,2,307.3,2,303.6z"/>
<path class="st6" d="M13.3,309.1v-10.9h7.1v1.7h-5.2v2.7h4l0.3,1.6h-4.3v3.2h5.5v1.7L13.3,309.1L13.3,309.1z"/>
<path class="st6" d="M25.4,309.1v-9.2H22v-1.7h8.5l0.3,1.7h-3.5v9.2H25.4z"/>
<path class="st6" d="M34.3,309.1v-9.3l-2.1,0.6l-0.2-1.5l2.4-0.8h1.7V309L34.3,309.1L34.3,309.1z"/>
<path class="st6" d="M43.7,309.1v-10.9h6.9v1.7h-5v2.9h3.7l0.3,1.6h-4v4.6L43.7,309.1L43.7,309.1z"/>
<path class="st6" d="M52.3,307v-5.7h1.8v5.2c-0.1,0.6,0.3,1.1,0.8,1.2c0.1,0,0.2,0,0.4,0c0.8,0,1.6-0.4,2.1-1v-5.4h1.8v7.8h-1.7
	l-0.2-1.1c-0.7,0.8-1.7,1.3-2.8,1.3c-1.1,0.1-2.2-0.7-2.3-1.8C52.3,307.3,52.3,307.2,52.3,307z"/>
<path class="st6" d="M61.8,309.1v-10.8l1.8-0.3v11.1L61.8,309.1L61.8,309.1z"/>
<path class="st6" d="M66.2,309.1v-10.8L68,298v11.1H66.2L66.2,309.1z"/>
<path class="st6" d="M70,312l-0.1-1.5c0.4,0.1,0.9,0.2,1.3,0.2c0.6,0.1,1.1-0.3,1.3-0.9l0.2-0.6l-3-7.7l1.8-0.3l2.1,5.9l0,0l2-5.7
	h1.8L74,310c-0.5,1.4-1.2,2.1-2.8,2.1C70.8,312.1,70.4,312.1,70,312z"/>
<path class="st6" d="M78.7,305.1v-1.3h3.7v1.3H78.7z"/>
<path class="st6" d="M84.6,309.1v-10.8l1.8-0.3v11.1L84.6,309.1L84.6,309.1z"/>
<path class="st6" d="M88.4,305.2c0.1-2.1,2-3.7,4.1-3.6s3.7,2,3.6,4.1c-0.1,2-1.8,3.6-3.8,3.6c-2,0.1-3.8-1.5-3.8-3.5
	C88.4,305.6,88.4,305.4,88.4,305.2z M94.3,305.2c0-1.5-0.6-2.5-2-2.5s-2,1-2,2.5s0.6,2.5,2,2.5S94.3,306.7,94.3,305.2L94.3,305.2z"
	/>
<path class="st6" d="M97.6,307.2c0-1.7,1.4-2.8,5.1-3.2v-0.2c0-0.6-0.5-1.1-1.1-1.1c-0.1,0-0.2,0-0.3,0c-0.9,0-1.8,0.4-2.5,1l-1-1.1
	c1-1,2.4-1.5,3.8-1.4c2,0,2.9,1,2.9,2.8v5.1h-1.6l-0.2-1c-0.8,0.8-1.8,1.2-2.9,1.1c-1.1,0.1-2.1-0.7-2.2-1.8
	C97.6,307.3,97.6,307.3,97.6,307.2z M102.7,306.9v-1.7c-2.5,0.4-3.3,0.9-3.3,1.7c0,0.5,0.4,1,0.9,1c0.1,0,0.1,0,0.2,0
	C101.3,307.8,102.1,307.5,102.7,306.9z"/>
<path class="st6" d="M106.3,305.2c0-2.7,1.3-4.1,3.1-4.1c0.9-0.1,1.8,0.3,2.5,1v-3.9l1.8-0.3V309H112l-0.2-1
	c-0.6,0.8-1.5,1.2-2.5,1.1C107.7,309.2,106.3,308,106.3,305.2z M111.9,306.8v-3.2c-0.5-0.6-1.2-0.9-1.9-1c-1.1,0-1.8,0.8-1.8,2.6
	s0.7,2.5,1.8,2.5C110.8,307.7,111.5,307.3,111.9,306.8L111.9,306.8z"/>
<path class="st6" d="M115.7,305.2c-0.2-2.1,1.3-3.9,3.4-4.1c0.1,0,0.2,0,0.3,0c1.7,0,3.4,1,3.4,4.2v0.4h-5.4c0,1.1,0.9,2,2,2h0.1
	c0.9,0,1.8-0.4,2.4-1l0.7,1.2c-0.9,0.8-2,1.3-3.2,1.3C117.5,309.3,115.7,308.1,115.7,305.2z M121.2,304.5c0.1-1-0.7-1.8-1.6-1.8
	c-0.1,0-0.1,0-0.2,0c-1,0-1.9,0.8-1.9,1.9h3.7V304.5z"/>
<path class="st6" d="M124.4,305.2c0-2.7,1.3-4.1,3.1-4.1c0.9-0.1,1.8,0.3,2.5,1v-3.9l1.8-0.3V309h-1.7l-0.1-1
	c-0.6,0.8-1.5,1.2-2.5,1.1C125.8,309.2,124.4,308,124.4,305.2z M130,306.7v-3.2c-0.5-0.6-1.2-0.9-1.9-1c-1.1,0-1.8,0.8-1.8,2.6
	s0.8,2.5,1.9,2.5C128.9,307.7,129.5,307.3,130,306.7z"/>
<path class="st6" d="M141.5,312.1c-2.4-2-3.7-4.2-3.7-7.1s1.3-5,3.7-7.1l0.5,0.5c-3.6,3.1-4,8.5-1,12.1c0.3,0.3,0.6,0.7,1,1
	L141.5,312.1z"/>
<path class="st6" d="M144.1,301.3c0-2,1-3.3,2.5-3.3s2.4,1.3,2.4,3.2s-0.9,3.3-2.4,3.3S144.1,303.3,144.1,301.3z M148.1,301.3
	c0-1.5-0.6-2.5-1.5-2.5s-1.5,1.1-1.5,2.5s0.6,2.5,1.5,2.5S148.1,302.7,148.1,301.3L148.1,301.3z M146.6,309.1l6.5-10.9h0.9
	l-6.5,10.9H146.6z M151.7,306c0-2,1-3.3,2.5-3.3s2.4,1.3,2.4,3.3s-0.9,3.3-2.5,3.3S151.7,307.9,151.7,306L151.7,306z M155.7,306
	c0-1.5-0.5-2.5-1.5-2.5s-1.5,1.1-1.5,2.5s0.5,2.5,1.5,2.5S155.6,307.4,155.7,306L155.7,306z"/>
<path class="st6" d="M158.6,311.6c3.6-3.1,4.1-8.5,1-12.1c-0.3-0.4-0.6-0.7-1-1l0.5-0.5c2.4,2,3.7,4.3,3.7,7.1s-1.3,5-3.7,7.1
	L158.6,311.6z"/>
<path class="st6" d="M32.6,341.9v-3.5h-3.4v-2.2h3.4v-3.5h2.3v3.5h3.4v2.2h-3.4v3.5H32.6z"/>
<path class="st6" d="M308,341.9v-3.5h-3.4v-2.2h3.4v-3.5h2.3v3.5h3.4v2.2h-3.4v3.5H308z"/>
<path class="st6" d="M557,341.9v-3.5h-3.4v-2.2h3.4v-3.5h2.3v3.5h3.4v2.2h-3.4v3.5H557z"/>
<path class="st6" d="M39.7,342l1.2-2.1c0.9,0.9,2.2,1.4,3.4,1.4c1.2,0.2,2.3-0.7,2.5-1.9c0-0.2,0-0.3,0-0.5c0.2-1.1-0.7-2.2-1.8-2.4
	c-0.2,0-0.3,0-0.5,0c-1,0-1.8,0.5-2.4,1.3l-1.9-0.6l0.5-7h7.8l0.2,2.2H43l-0.2,2.9c0.7-0.6,1.7-0.9,2.6-0.8c2.8,0,4.3,1.8,4.3,4.4
	c0,2.8-2,4.7-5.2,4.7C42.7,343.7,41,343.1,39.7,342z"/>
<path class="st6" d="M50.3,340c0-1.6,1.3-2.8,2.9-3.5c-1.4-0.7-2.3-1.5-2.3-3.2s1.6-3.3,4.7-3.3s4.7,1.7,4.7,3.3
	c0,1.4-0.9,2.6-2.2,3.1c1.7,0.7,2.9,1.6,2.9,3.5c0,2.2-2,3.6-5.3,3.6S50.3,342.3,50.3,340z M57.9,339.9c0-1-0.8-1.6-2.6-2.3
	c-1.3,0.7-2.2,1.4-2.2,2.3s0.9,1.8,2.4,1.8S57.9,340.9,57.9,339.9z M57.4,333.6c0-0.9-0.8-1.6-1.7-1.6c-0.1,0-0.1,0-0.2,0
	c-1.4,0-1.9,0.8-1.9,1.5c0,1,0.8,1.5,2.1,2C57,334.9,57.5,334.5,57.4,333.6L57.4,333.6z"/>
<path class="st6" d="M69.2,342.4l-0.2,1h-2.3v-11.5l2.5-0.4v4.7c0.6-0.9,1.5-1.4,2.6-1.5c1.9,0,3.2,1.5,3.2,4.4s-1.3,4.3-3.3,4.3
	C70.8,343.6,69.8,343.1,69.2,342.4z M72.5,339.2c0-1.4-0.5-2.3-1.6-2.3c-0.6,0-1.2,0.3-1.7,0.8v3.1c0.4,0.5,1,0.8,1.7,0.8
	C71.9,341.6,72.5,340.7,72.5,339.2L72.5,339.2z"/>
<path class="st6" d="M75.8,341.2c0-1.9,1.6-3,5.3-3.3v-0.2c0-0.6-0.4-1-1-1c-0.1,0-0.2,0-0.3,0c-0.9,0-1.8,0.4-2.4,1l-1.4-1.4
	c1.1-1,2.6-1.6,4.2-1.5c2.4,0,3.4,1.1,3.4,3.3v5.3h-2.3l-0.2-1.2c-0.7,0.9-1.8,1.4-2.9,1.4c-1.2,0.1-2.3-0.8-2.4-2.1
	C75.8,341.4,75.8,341.3,75.8,341.2z M81.1,340.9v-1.6c-2,0.2-2.8,0.7-2.8,1.5c0,0.4,0.3,0.8,0.8,0.8h0.1
	C79.9,341.6,80.6,341.4,81.1,340.9L81.1,340.9z"/>
<path class="st6" d="M84.8,342.4l0.8-1.5c0.9,0.6,1.9,1,3,1.1c0.8,0,1.3-0.3,1.3-0.8s-0.4-0.8-1.6-1c-1.6-0.3-3.3-0.7-3.3-2.6
	c0-1.7,1.4-2.7,3.3-2.7c1.3,0,2.5,0.3,3.6,1l-0.8,1.5c-0.8-0.5-1.7-0.8-2.6-0.8c-0.7,0-1.1,0.3-1.1,0.7s0.5,0.7,1.5,0.9
	c1.7,0.3,3.4,0.7,3.4,2.6s-1.8,2.8-3.7,2.8C87.3,343.6,85.9,343.2,84.8,342.4z"/>
<path class="st6" d="M93.5,332.9c0-0.7,0.5-1.3,1.3-1.3c0.1,0,0.1,0,0.2,0c0.7,0.1,1.2,0.7,1.1,1.4c-0.1,0.7-0.7,1.2-1.4,1.1
	C94,334.1,93.5,333.6,93.5,332.9z M93.7,343.4V335h2.5v8.4H93.7z"/>
<path class="st6" d="M97.6,342.4l0.8-1.5c0.9,0.6,1.9,1,3,1.1c0.8,0,1.3-0.3,1.3-0.8s-0.4-0.8-1.6-1c-1.6-0.3-3.3-0.7-3.3-2.6
	c0-1.7,1.4-2.7,3.3-2.7c1.3,0,2.5,0.3,3.6,1l-0.7,1.5c-0.8-0.5-1.7-0.8-2.6-0.8c-0.7,0-1.1,0.3-1.1,0.7s0.5,0.7,1.5,0.9
	c1.7,0.3,3.4,0.7,3.4,2.6s-1.8,2.8-3.7,2.8C100.1,343.6,98.7,343.2,97.6,342.4z"/>
<path class="st6" d="M110.5,346.7V335h2.3l0.2,1.3c0.6-0.9,1.5-1.4,2.6-1.5c1.9,0,3.2,1.5,3.2,4.4s-1.3,4.3-3.3,4.3
	c-1,0-1.9-0.4-2.6-1.1v4L110.5,346.7z M116.3,339.2c0-1.4-0.5-2.3-1.6-2.3c-0.7,0-1.3,0.3-1.7,0.8v3.1c0.4,0.5,1,0.8,1.7,0.8
	C115.8,341.6,116.3,340.7,116.3,339.2L116.3,339.2z"/>
<path class="st6" d="M119.8,339.2c0-2.4,2-4.3,4.4-4.2c2.4,0,4.3,2,4.2,4.4c0,2.3-1.9,4.2-4.3,4.2c-2.2,0.2-4.1-1.5-4.3-3.7
	C119.7,339.7,119.7,339.4,119.8,339.2z M125.8,339.2c0-1.4-0.5-2.5-1.8-2.5s-1.8,1-1.8,2.5s0.5,2.6,1.8,2.6S125.8,340.7,125.8,339.2
	L125.8,339.2z"/>
<path class="st6" d="M129.6,332.9c0-0.7,0.6-1.3,1.3-1.3c0.1,0,0.1,0,0.2,0c0.7,0.1,1.2,0.7,1.1,1.4c-0.1,0.7-0.7,1.2-1.4,1.1
	C130.1,334.1,129.6,333.6,129.6,332.9z M129.8,343.4V335h2.5v8.4H129.8z"/>
<path class="st6" d="M134.2,343.4V335h2.4l0.2,1.3c0.7-0.9,1.7-1.5,2.9-1.5c1.2-0.1,2.3,0.7,2.4,1.9c0,0.2,0,0.3,0,0.5v6.1h-2.5V338
	c0.1-0.5-0.2-1-0.7-1.1c-0.1,0-0.2,0-0.3,0c-0.7,0-1.3,0.3-1.8,0.8v5.6h-2.6L134.2,343.4L134.2,343.4z"/>
<path class="st6" d="M144.5,340.9v-4h-1.4V335h1.4v-2.7l2.5-0.4v3.1h2.2v1.8H147v3.8c-0.1,0.5,0.2,1,0.7,1.1c0.1,0,0.3,0,0.4,0
	c0.3,0,0.6,0,0.9-0.1l0.2,1.8c-0.6,0.1-1.2,0.1-1.8,0.1C145.3,343.5,144.5,342.9,144.5,340.9z"/>
<path class="st6" d="M149.8,342.4l0.9-1.5c0.9,0.6,1.9,1,3,1.1c0.8,0,1.3-0.3,1.3-0.8s-0.4-0.8-1.6-1c-1.6-0.3-3.3-0.7-3.3-2.6
	c0-1.7,1.4-2.7,3.3-2.7c1.3,0,2.5,0.3,3.6,1l-0.8,1.5c-0.8-0.5-1.7-0.8-2.6-0.8c-0.7,0-1.1,0.3-1.1,0.7s0.5,0.7,1.5,0.9
	c1.6,0.3,3.4,0.7,3.4,2.6s-1.8,2.8-3.7,2.8C152.3,343.6,150.9,343.2,149.8,342.4z"/>
<g id="icons">
	<path class="st7" d="M4.4,337.1c0,5,4.1,9.1,9.1,9.1s9.1-4.1,9.1-9.1s-4.1-9.1-9.1-9.1S4.4,332.1,4.4,337.1L4.4,337.1z M18.2,335.7
		l-1.1,1.1l-2.8-2.8v9.2l-1.5-1.5V334l-2.9,2.9l-1.1-1.1l4.7-4.7L18.2,335.7z"/>
</g>
<path class="st6" d="M277.2,303.6c0-3.6,2-5.6,4.7-5.6c1.8-0.1,3.4,0.9,4.1,2.5l-1.6,0.9c-0.4-1.1-1.4-1.8-2.5-1.8
	c-1.9,0-2.9,1.5-2.9,3.9s1.1,4.1,3,4.1c1.2,0,2.3-0.8,2.7-2l1.6,0.7c-0.5,1.9-2.3,3.1-4.3,3C279.2,309.3,277.2,307.3,277.2,303.6z"
	/>
<path class="st6" d="M288.5,309.1v-10.9h7.1v1.7h-5.2v2.7h4l0.3,1.6h-4.3v3.2h5.5v1.7L288.5,309.1L288.5,309.1z"/>
<path class="st6" d="M300.6,309.1v-9.2h-3.4v-1.7h8.5l0.3,1.7h-3.5v9.2H300.6z"/>
<path class="st6" d="M309.5,309.1v-9.3l-2.1,0.6l-0.2-1.5l2.4-0.8h1.7V309L309.5,309.1L309.5,309.1z"/>
<path class="st6" d="M318.9,309.1v-10.9h3.8c2.4,0,4.2,0.8,4.2,3.4s-2,3.4-4.2,3.4h-1.9v4.1H318.9z M320.7,303.4h2
	c1.6,0,2.4-0.5,2.4-1.8s-0.7-1.7-2.4-1.7h-2V303.4L320.7,303.4z"/>
<path class="st6" d="M328.8,309.1v-10.8l1.8-0.3v4.3c0.7-0.8,1.7-1.3,2.8-1.3c1.1-0.1,2.2,0.7,2.3,1.8c0,0.2,0,0.3,0,0.5v5.7h-1.8
	v-5.2c0.1-0.6-0.3-1.1-0.8-1.3c-0.1,0-0.2,0-0.3,0c-0.8,0-1.6,0.4-2.1,1v5.4L328.8,309.1L328.8,309.1z"/>
<path class="st6" d="M337.6,307.2c0-1.7,1.5-2.8,5.1-3.2v-0.2c0-0.6-0.5-1.1-1.1-1.1c-0.1,0-0.2,0-0.3,0c-0.9,0-1.8,0.4-2.5,1
	l-1-1.1c1-1,2.4-1.5,3.8-1.4c2,0,2.9,1,2.9,2.8v5.1h-1.6l-0.1-1c-0.8,0.8-1.8,1.2-2.9,1.1c-1.1,0.1-2.1-0.7-2.2-1.8
	C337.6,307.3,337.6,307.3,337.6,307.2z M342.7,306.9v-1.7c-2.5,0.4-3.3,0.9-3.3,1.7c0,0.5,0.4,1,0.9,1c0.1,0,0.1,0,0.2,0
	C341.3,307.8,342.1,307.5,342.7,306.9z"/>
<path class="st6" d="M346.2,308l0.7-1.2c0.7,0.7,1.7,1,2.7,1.1c1,0,1.6-0.3,1.6-0.9s-0.5-0.9-1.8-1.1c-1.6-0.3-2.9-0.8-2.9-2.5
	c0-1.4,1.1-2.3,2.9-2.3c1.1,0,2.3,0.3,3.2,1l-0.6,1.3c-0.7-0.5-1.5-0.8-2.4-0.8s-1.3,0.3-1.3,0.8s0.4,0.8,1.6,1
	c1.8,0.4,3.1,0.8,3.1,2.4s-1.5,2.5-3.3,2.5C348.4,309.3,347.2,308.9,346.2,308z"/>
<path class="st6" d="M354.4,305.2c-0.2-2.1,1.3-3.9,3.4-4.1c0.1,0,0.2,0,0.3,0c1.7,0,3.4,1,3.4,4.2v0.4h-5.4c0,1.1,0.9,2,2,2h0.1
	c0.9,0,1.8-0.4,2.4-1l0.7,1.2c-0.9,0.8-2,1.3-3.2,1.3C356.2,309.3,354.4,308.1,354.4,305.2z M359.9,304.5c0.1-1-0.7-1.8-1.6-1.8
	c-0.1,0-0.1,0-0.2,0c-1,0-1.9,0.8-1.9,1.9h3.7V304.5z"/>
<path class="st6" d="M363.1,305.2c0-2.7,1.3-4.1,3.1-4.1c0.9-0.1,1.8,0.3,2.5,1v-3.9l1.8-0.3V309h-1.7l-0.1-1
	c-0.6,0.8-1.5,1.2-2.5,1.1C364.5,309.2,363.1,308,363.1,305.2z M368.7,306.8v-3.2c-0.5-0.6-1.2-0.9-1.9-1c-1.1,0-1.9,0.8-1.9,2.6
	s0.7,2.5,1.9,2.5C367.6,307.7,368.3,307.3,368.7,306.8L368.7,306.8z"/>
<path class="st6" d="M372.8,305.1v-1.3h3.6v1.3H372.8z"/>
<path class="st6" d="M378.5,299.2c0-0.5,0.4-1,0.9-1h0.1c0.5-0.2,1.1,0.1,1.2,0.7c0.2,0.5-0.1,1.1-0.7,1.2c-0.2,0.1-0.4,0.1-0.6,0
	C379,300.1,378.6,299.7,378.5,299.2L378.5,299.2z M378.7,309.2v-7.8h1.8v7.8H378.7z"/>
<path class="st6" d="M383,309.1v-7.8h1.7l0.1,1.1c0.7-0.8,1.7-1.3,2.8-1.3c1.1-0.1,2.2,0.7,2.3,1.8c0,0.2,0,0.3,0,0.5v5.7h-1.8v-5.2
	c0.1-0.6-0.3-1.2-0.9-1.3c-0.1,0-0.2,0-0.3,0c-0.8,0-1.6,0.4-2.1,1v5.5L383,309.1L383,309.1z"/>
<path class="st6" d="M399.5,312.1c-2.4-2-3.7-4.2-3.7-7.1s1.3-5,3.7-7.1l0.5,0.5c-3.6,3.1-4,8.5-1,12.1c0.3,0.3,0.6,0.7,1,1
	L399.5,312.1z"/>
<path class="st6" d="M402.1,301.3c0-2,1-3.3,2.5-3.3s2.4,1.3,2.4,3.2s-0.9,3.3-2.5,3.3S402.1,303.3,402.1,301.3z M406.1,301.3
	c0-1.5-0.5-2.5-1.5-2.5s-1.5,1.1-1.5,2.5s0.5,2.5,1.5,2.5S406.1,302.7,406.1,301.3L406.1,301.3z M404.6,309.1l6.5-10.9h1l-6.5,10.9
	H404.6L404.6,309.1z M409.7,306c0-2,1-3.3,2.5-3.3s2.4,1.3,2.4,3.3s-0.9,3.3-2.5,3.3S409.7,307.9,409.7,306L409.7,306z M413.7,306
	c0-1.5-0.5-2.5-1.5-2.5s-1.5,1.1-1.5,2.5s0.5,2.5,1.5,2.5S413.6,307.4,413.7,306L413.7,306z"/>
<path class="st6" d="M416.7,311.6c3.6-3.1,4.1-8.5,1-12.1c-0.3-0.4-0.6-0.7-1-1l0.5-0.5c2.4,2,3.7,4.3,3.7,7.1s-1.3,5-3.7,7.1
	L416.7,311.6z"/>
<path class="st6" d="M315.6,340c0-1.6,1.3-2.8,2.9-3.5c-1.4-0.7-2.3-1.5-2.3-3.2s1.6-3.3,4.7-3.3s4.7,1.7,4.7,3.3
	c0,1.4-0.9,2.6-2.3,3.1c1.7,0.7,2.9,1.6,2.9,3.5c0,2.2-2,3.6-5.3,3.6S315.6,342.3,315.6,340z M323.2,339.9c0-1-0.8-1.6-2.6-2.3
	c-1.4,0.7-2.2,1.4-2.2,2.3s0.9,1.8,2.4,1.8S323.2,340.9,323.2,339.9z M322.7,333.6c0-0.9-0.8-1.6-1.7-1.6c-0.1,0-0.1,0-0.2,0
	c-1.4,0-1.9,0.8-1.9,1.5c0,1,0.8,1.5,2.1,2C322.2,334.9,322.7,334.5,322.7,333.6L322.7,333.6z"/>
<path class="st6" d="M334.5,342.4l-0.2,1h-2.4v-11.5l2.5-0.4v4.7c0.5-0.9,1.5-1.4,2.5-1.5c1.9,0,3.2,1.5,3.2,4.4s-1.3,4.3-3.3,4.3
	C336,343.5,335.1,343.1,334.5,342.4z M337.8,339.2c0-1.4-0.5-2.3-1.6-2.3c-0.6,0-1.2,0.3-1.6,0.8v3.1c0.4,0.5,1,0.8,1.7,0.8
	C337.2,341.6,337.7,340.7,337.8,339.2L337.8,339.2z"/>
<path class="st6" d="M341.1,341.2c0-1.9,1.6-3,5.3-3.3v-0.2c0-0.6-0.4-1-1-1c-0.1,0-0.2,0-0.3,0c-0.9,0-1.8,0.4-2.4,1l-1.4-1.4
	c1.1-1,2.6-1.6,4.2-1.5c2.4,0,3.4,1.1,3.4,3.3v5.3h-2.3l-0.2-1.2c-0.7,0.9-1.8,1.4-2.9,1.4c-1.2,0.1-2.3-0.9-2.4-2.1
	C341.1,341.4,341.1,341.3,341.1,341.2z M346.4,340.9v-1.6c-2,0.2-2.9,0.7-2.9,1.5c0,0.4,0.3,0.8,0.8,0.8h0.1
	C345.2,341.6,345.9,341.4,346.4,340.9z"/>
<path class="st6" d="M350,342.4l0.9-1.5c0.9,0.6,1.9,1,3,1.1c0.8,0,1.3-0.3,1.3-0.8s-0.4-0.8-1.6-1c-1.6-0.3-3.3-0.7-3.3-2.6
	c0-1.7,1.4-2.7,3.3-2.7c1.3,0,2.5,0.3,3.6,1l-0.8,1.5c-0.8-0.5-1.7-0.8-2.6-0.8c-0.7,0-1.1,0.3-1.1,0.7s0.5,0.7,1.5,0.9
	c1.6,0.3,3.4,0.7,3.4,2.6s-1.8,2.8-3.7,2.8C352.5,343.6,351.1,343.2,350,342.4z"/>
<path class="st6" d="M358.8,332.9c0-0.7,0.5-1.3,1.3-1.3c0.1,0,0.1,0,0.2,0c0.7,0.1,1.2,0.7,1.1,1.4c-0.1,0.7-0.7,1.2-1.4,1.1
	C359.3,334.1,358.8,333.6,358.8,332.9z M359,343.4V335h2.5v8.4H359z"/>
<path class="st6" d="M362.8,342.4l0.9-1.5c0.9,0.6,1.9,1,3,1.1c0.8,0,1.3-0.3,1.3-0.8s-0.4-0.8-1.6-1c-1.6-0.3-3.3-0.7-3.3-2.6
	c0-1.7,1.4-2.7,3.3-2.7c1.3,0,2.5,0.3,3.6,1l-0.8,1.5c-0.8-0.5-1.7-0.8-2.6-0.8c-0.7,0-1.1,0.3-1.1,0.7s0.5,0.7,1.5,0.9
	c1.6,0.3,3.4,0.7,3.4,2.6s-1.8,2.8-3.7,2.8C365.3,343.6,363.9,343.2,362.8,342.4z"/>
<path class="st6" d="M375.8,346.7V335h2.4l0.2,1.3c0.6-0.9,1.5-1.4,2.6-1.5c1.9,0,3.2,1.5,3.2,4.4s-1.3,4.3-3.3,4.3
	c-1,0-1.9-0.4-2.5-1.1v4L375.8,346.7z M381.6,339.2c0-1.4-0.5-2.3-1.6-2.3c-0.6,0-1.2,0.3-1.6,0.8v3.1c0.4,0.5,1,0.8,1.7,0.8
	C381,341.6,381.6,340.7,381.6,339.2L381.6,339.2z"/>
<path class="st6" d="M385,339.2c0-2.4,2-4.3,4.4-4.2c2.4,0,4.3,2,4.2,4.4c0,2.3-1.9,4.2-4.3,4.2c-2.2,0.2-4.1-1.5-4.3-3.7
	C385,339.7,385,339.4,385,339.2z M391,339.2c0-1.4-0.5-2.5-1.8-2.5s-1.8,1-1.8,2.5s0.5,2.6,1.8,2.6S391.1,340.7,391,339.2L391,339.2
	z"/>
<path class="st6" d="M394.9,332.9c0-0.7,0.5-1.3,1.3-1.3c0.1,0,0.1,0,0.2,0c0.7,0.1,1.2,0.7,1.1,1.4c-0.1,0.7-0.7,1.2-1.4,1.1
	C395.4,334.1,394.9,333.6,394.9,332.9z M395,343.4V335h2.5v8.4H395z"/>
<path class="st6" d="M399.5,343.4V335h2.4l0.2,1.3c0.7-0.9,1.7-1.5,2.9-1.5c1.2-0.1,2.3,0.7,2.4,1.9c0,0.2,0,0.3,0,0.5v6.1h-2.5V338
	c0.1-0.5-0.2-1-0.7-1.1c-0.1,0-0.2,0-0.3,0c-0.7,0-1.3,0.3-1.8,0.8v5.6L399.5,343.4L399.5,343.4z"/>
<path class="st6" d="M409.7,340.9v-4h-1.4V335h1.4v-2.7l2.5-0.4v3.1h2.2v1.8h-2.2v3.8c-0.1,0.5,0.2,1,0.7,1.1c0.1,0,0.3,0,0.4,0
	c0.3,0,0.6,0,0.9-0.1l0.2,1.8c-0.6,0.1-1.2,0.1-1.8,0.1C410.6,343.5,409.7,342.9,409.7,340.9z"/>
<path class="st6" d="M415.1,342.4l0.9-1.5c0.9,0.6,1.9,1,3,1.1c0.8,0,1.3-0.3,1.3-0.8s-0.4-0.8-1.6-1c-1.6-0.3-3.3-0.7-3.3-2.6
	c0-1.7,1.4-2.7,3.3-2.7c1.3,0,2.5,0.3,3.6,1l-0.8,1.5c-0.8-0.5-1.7-0.8-2.6-0.8c-0.7,0-1.1,0.3-1.1,0.7s0.5,0.7,1.5,0.9
	c1.6,0.3,3.4,0.7,3.4,2.6s-1.8,2.8-3.7,2.8C417.6,343.6,416.2,343.2,415.1,342.4z"/>
<g id="icons-2">
	<path class="st7" d="M279.7,337.1c0,5,4.1,9.1,9.1,9.1s9.1-4.1,9.1-9.1s-4.1-9.1-9.1-9.1S279.7,332.1,279.7,337.1L279.7,337.1z
		 M293.4,335.7l-1.1,1.1l-2.8-2.8v9.2l-1.5-1.5V334l-2.9,2.9l-1.1-1.1l4.7-4.7L293.4,335.7z"/>
</g>
<path class="st6" d="M567.1,343.4v-10.5l-2.5,0.6l-0.3-2.4l2.9-0.9h2.7v13.1L567.1,343.4L567.1,343.4z"/>
<path class="st6" d="M578.6,343.4v-2.6h-6.4v-2.1l6-8.5h3.2v8.3h2l0.3,2.3h-2.3v2.6L578.6,343.4L578.6,343.4z M575.2,338.6h3.4v-4.8
	l0,0L575.2,338.6z"/>
<path class="st6" d="M591.8,342.4l-0.2,1h-2.3v-11.5l2.5-0.4v4.7c0.6-0.9,1.5-1.4,2.6-1.5c1.9,0,3.2,1.5,3.2,4.4s-1.3,4.3-3.3,4.3
	C593.3,343.6,592.4,343.1,591.8,342.4z M595.1,339.2c0-1.4-0.5-2.3-1.6-2.3c-0.6,0-1.2,0.3-1.7,0.8v3.1c0.4,0.5,1,0.8,1.7,0.8
	C594.5,341.6,595,340.7,595.1,339.2L595.1,339.2z"/>
<path class="st6" d="M598.4,341.2c0-1.9,1.6-3,5.3-3.3v-0.2c0-0.6-0.4-1-1-1c-0.1,0-0.2,0-0.3,0c-0.9,0-1.8,0.4-2.4,1l-1.4-1.4
	c1.1-1,2.6-1.6,4.2-1.5c2.4,0,3.4,1.1,3.4,3.3v5.3h-2.3l-0.2-1.2c-0.7,0.9-1.8,1.4-2.9,1.4c-1.2,0.1-2.3-0.9-2.4-2.1
	C598.4,341.4,598.4,341.3,598.4,341.2z M603.7,340.9v-1.6c-2,0.2-2.8,0.7-2.8,1.5c0,0.4,0.3,0.8,0.8,0.8h0.1
	C602.5,341.6,603.2,341.4,603.7,340.9z"/>
<path class="st6" d="M607.3,342.4l0.8-1.5c0.9,0.6,1.9,1,3,1.1c0.8,0,1.3-0.3,1.3-0.8s-0.4-0.8-1.6-1c-1.6-0.3-3.3-0.7-3.3-2.6
	c0-1.7,1.4-2.7,3.3-2.7c1.3,0,2.5,0.3,3.6,1l-0.8,1.5c-0.8-0.5-1.7-0.8-2.6-0.8c-0.7,0-1.1,0.3-1.1,0.7s0.5,0.7,1.5,0.9
	c1.7,0.3,3.4,0.7,3.4,2.6s-1.8,2.8-3.7,2.8C609.8,343.6,608.5,343.2,607.3,342.4z"/>
<path class="st6" d="M616.1,332.9c0-0.7,0.5-1.3,1.3-1.3c0.1,0,0.1,0,0.2,0c0.7,0.1,1.2,0.7,1.1,1.4c-0.1,0.7-0.7,1.2-1.4,1.1
	C616.6,334.1,616.1,333.6,616.1,332.9z M616.3,343.4V335h2.5v8.4H616.3z"/>
<path class="st6" d="M620.1,342.4l0.8-1.5c0.9,0.6,1.9,1,3,1.1c0.8,0,1.3-0.3,1.3-0.8s-0.4-0.8-1.6-1c-1.6-0.3-3.3-0.7-3.3-2.6
	c0-1.7,1.4-2.7,3.3-2.7c1.3,0,2.5,0.3,3.6,1l-0.8,1.5c-0.8-0.5-1.7-0.8-2.6-0.8c-0.7,0-1.1,0.3-1.1,0.7s0.5,0.7,1.5,0.9
	c1.7,0.3,3.4,0.7,3.4,2.6s-1.8,2.8-3.7,2.8C622.6,343.6,621.3,343.2,620.1,342.4z"/>
<path class="st6" d="M633.1,346.7V335h2.3l0.2,1.3c0.6-0.9,1.5-1.4,2.6-1.5c1.9,0,3.2,1.5,3.2,4.4s-1.3,4.3-3.3,4.3
	c-1,0-1.9-0.4-2.5-1.1v4L633.1,346.7z M638.9,339.2c0-1.4-0.5-2.3-1.6-2.3c-0.6,0-1.2,0.3-1.7,0.8v3.1c0.4,0.5,1,0.8,1.7,0.8
	C638.3,341.6,638.9,340.7,638.9,339.2L638.9,339.2z"/>
<path class="st6" d="M642.3,339.2c0-2.4,2-4.3,4.4-4.2c2.4,0,4.3,2,4.2,4.4c0,2.3-1.9,4.2-4.3,4.2c-2.2,0.2-4.1-1.5-4.3-3.7
	C642.3,339.7,642.3,339.4,642.3,339.2z M648.3,339.2c0-1.4-0.5-2.5-1.8-2.5s-1.8,1-1.8,2.5s0.5,2.6,1.8,2.6S648.4,340.7,648.3,339.2
	L648.3,339.2z"/>
<path class="st6" d="M652.2,332.9c0-0.7,0.5-1.3,1.3-1.3c0.1,0,0.1,0,0.2,0c0.7,0.1,1.2,0.7,1.1,1.4c-0.1,0.7-0.7,1.2-1.4,1.1
	C652.7,334.1,652.2,333.6,652.2,332.9z M652.3,343.4V335h2.5v8.4H652.3z"/>
<path class="st6" d="M656.8,343.4V335h2.3l0.2,1.3c0.7-0.9,1.7-1.5,2.9-1.5c1.2-0.1,2.3,0.7,2.4,1.9c0,0.2,0,0.3,0,0.5v6.1h-2.5V338
	c0.1-0.5-0.2-1-0.7-1.1c-0.1,0-0.2,0-0.3,0c-0.7,0-1.3,0.3-1.8,0.8v5.6h-2.5L656.8,343.4L656.8,343.4z"/>
<path class="st6" d="M667,340.9v-4h-1.4V335h1.4v-2.7l2.5-0.4v3.1h2.2v1.8h-2.2v3.8c-0.1,0.5,0.2,1,0.7,1.1c0.1,0,0.3,0,0.4,0
	c0.3,0,0.6,0,0.9-0.1l0.2,1.8c-0.6,0.1-1.2,0.1-1.8,0.1C667.9,343.5,667,342.9,667,340.9z"/>
<path class="st6" d="M672.4,342.4l0.8-1.5c0.9,0.6,1.9,1,3,1.1c0.8,0,1.3-0.3,1.3-0.8s-0.4-0.8-1.6-1c-1.6-0.3-3.3-0.7-3.3-2.6
	c0-1.7,1.4-2.7,3.3-2.7c1.3,0,2.5,0.3,3.6,1l-0.8,1.5c-0.8-0.5-1.7-0.8-2.6-0.8c-0.7,0-1.1,0.3-1.1,0.7s0.5,0.7,1.5,0.9
	c1.7,0.3,3.4,0.7,3.4,2.6s-1.8,2.8-3.7,2.8C674.9,343.6,673.5,343.2,672.4,342.4z"/>
<g id="icons-3">
	<path class="st7" d="M530.3,337.1c0,5,4.1,9.1,9.1,9.1s9.1-4.1,9.1-9.1s-4.1-9.1-9.1-9.1S530.3,332.1,530.3,337.1L530.3,337.1z
		 M544.1,335.7l-1.1,1.1l-2.8-2.8v9.2l-1.5-1.5V334l-2.9,2.9l-1.1-1.1l4.7-4.7L544.1,335.7z"/>
</g>
<path class="st6" d="M35,155.2v-11.9l-2.5,0.9l-0.2-1l2.8-1h1.2v13.1L35,155.2L35,155.2z"/>
<path class="st6" d="M39.6,148.6c0-4.1,1.7-6.8,4.8-6.8s4.8,2.7,4.8,6.8s-1.7,6.8-4.8,6.8S39.6,152.7,39.6,148.6z M48,148.6
	c0-3.7-1.4-5.7-3.5-5.7s-3.6,2-3.6,5.7s1.4,5.7,3.6,5.7S48,152.3,48,148.6L48,148.6z"/>
<path class="st6" d="M51.6,154.3c0-0.5,0.3-0.9,0.7-0.9h0.1c0.5,0,0.8,0.3,0.9,0.8v0.1c0,0.5-0.3,0.9-0.8,0.9h-0.1
	c-0.5,0-0.9-0.3-0.9-0.8C51.6,154.4,51.6,154.4,51.6,154.3z"/>
<path class="st6" d="M55.2,153l0.9-0.7c0.7,1.3,2.1,2.1,3.6,2.1c2,0,3.1-1.1,3.1-2.7c0-1.9-1.1-2.9-4.2-2.9h-0.5l-0.1-1h0.6
	c2.8,0,3.8-0.9,3.8-2.5c0-1.3-0.8-2.3-2.8-2.3c-1.3,0-2.4,0.6-3.1,1.6l-0.8-0.8c1-1.2,2.4-2,4-2c2.8,0,3.9,1.6,3.9,3.3
	c0.1,1.6-1.1,2.9-2.6,3.1c1.8,0.1,3.1,1.7,2.9,3.4c0,2.1-1.7,3.8-4.4,3.8C57.8,155.5,56.2,154.5,55.2,153z"/>
<path class="st6" d="M89.5,147.6v-11.9l-2.5,0.9l-0.2-1l2.8-1h1.2v13.1L89.5,147.6L89.5,147.6z"/>
<path class="st6" d="M94.1,141.1c0-4.1,1.7-6.8,4.8-6.8s4.8,2.7,4.8,6.8s-1.7,6.8-4.8,6.8S94.1,145.2,94.1,141.1z M102.4,141.1
	c0-3.7-1.4-5.7-3.5-5.7s-3.6,2-3.6,5.7s1.4,5.7,3.6,5.7S102.4,144.8,102.4,141.1z"/>
<path class="st6" d="M106,146.8c0-0.5,0.3-0.9,0.7-0.9h0.1c0.5,0,0.8,0.3,0.9,0.8v0.1c0,0.5-0.3,0.9-0.8,0.9h-0.1
	c-0.5,0-0.9-0.3-0.9-0.8C106,146.9,106,146.8,106,146.8z"/>
<path class="st6" d="M110.5,146.7l0.6-1c0.8,0.7,1.8,1.1,2.8,1.1c2.4,0,3.9-2.6,3.9-5.8c-0.9,1.1-2.3,1.7-3.7,1.8
	c-2.1,0.2-3.9-1.3-4.1-3.4c0-0.2,0-0.5,0-0.7c-0.1-2.3,1.7-4.3,4-4.4c0.1,0,0.3,0,0.4,0c2.6,0,4.6,2.1,4.6,6.6c0,4-2.1,7-5.1,7
	C112.6,147.9,111.4,147.5,110.5,146.7z M117.7,139.7c-0.3-3-1.7-4.3-3.4-4.3c-1.7-0.1-3.1,1.2-3.1,2.9c0,0.1,0,0.2,0,0.4
	c-0.2,1.5,0.9,2.8,2.5,3c0.2,0,0.4,0,0.5,0C115.6,141.6,116.9,140.9,117.7,139.7z"/>
<path class="st6" d="M306.6,140.3v-11.9l-2.5,0.9l-0.2-1l2.8-1h1.1v13.1L306.6,140.3L306.6,140.3z"/>
<path class="st6" d="M311.1,140.3V140c0-1.9,0.9-3.6,4.4-5.9c2-1.2,2.8-2.1,2.8-3.6c0.1-1.3-0.9-2.5-2.2-2.6c-0.1,0-0.3,0-0.4,0
	c-1.5,0-2.8,0.9-3.3,2.3l-0.9-0.6c0.7-1.7,2.4-2.8,4.2-2.8c1.9-0.2,3.7,1.2,3.8,3.2c0,0.1,0,0.3,0,0.4c0,1.8-0.9,2.9-3.4,4.5
	c-2.4,1.5-3.6,2.9-3.6,4.1h7l0.1,1.1L311.1,140.3L311.1,140.3z"/>
<path class="st6" d="M322,139.4c0-0.5,0.3-0.9,0.7-0.9h0.1c0.5,0,0.8,0.3,0.9,0.8v0.1c0,0.5-0.3,0.9-0.8,0.9h-0.1
	c-0.5,0-0.9-0.3-0.9-0.8C322,139.5,322,139.5,322,139.4z"/>
<path class="st6" d="M329,140.3v-11.9l-2.5,0.9l-0.2-1l2.8-1h1.1v13.1L329,140.3L329,140.3z"/>
<path class="st6" d="M354.5,137.6v-11.9l-2.5,0.8l-0.2-1l2.8-1h1.1v13h-1.2L354.5,137.6L354.5,137.6z"/>
<path class="st6" d="M359,137.6v-0.3c0-1.9,0.9-3.6,4.4-5.9c2-1.2,2.8-2.1,2.8-3.6c0.1-1.3-0.9-2.5-2.2-2.6c-0.1,0-0.3,0-0.4,0
	c-1.5,0-2.8,0.9-3.3,2.3l-0.9-0.6c0.7-1.7,2.4-2.8,4.2-2.8c1.9-0.2,3.7,1.2,3.8,3.2c0,0.1,0,0.3,0,0.4c0,1.8-0.9,2.9-3.4,4.5
	c-2.4,1.5-3.6,2.9-3.6,4.1h7l0.1,1.1H359V137.6z"/>
<path class="st6" d="M369.9,136.8c0-0.5,0.3-0.9,0.7-0.9h0.1c0.5,0,0.8,0.3,0.9,0.8v0.1c0,0.5-0.3,0.9-0.8,0.9h-0.1
	c-0.5,0-0.9-0.3-0.9-0.8C369.9,136.9,369.9,136.8,369.9,136.8z"/>
<path class="st6" d="M373.9,137.6v-0.3c0-1.9,0.9-3.6,4.4-5.9c2-1.2,2.8-2.1,2.8-3.6c0.1-1.3-0.9-2.5-2.2-2.6c-0.1,0-0.3,0-0.4,0
	c-1.5,0-2.8,0.9-3.3,2.3l-0.9-0.6c0.7-1.7,2.4-2.8,4.2-2.8c1.9-0.2,3.7,1.2,3.8,3.2c0,0.1,0,0.3,0,0.4c0,1.8-0.9,2.9-3.4,4.5
	c-2.4,1.5-3.6,2.9-3.6,4.1h7l0.1,1.1h-8.5V137.6z"/>
<path class="st6" d="M550.4,116.6v-11.9l-2.5,0.8l-0.2-1l2.8-1h1.2v13.1H550.4L550.4,116.6z"/>
<path class="st6" d="M554.8,114.6l0.8-0.8c0.7,1.2,2,2,3.5,2c1.7,0.1,3.2-1.3,3.3-3c0-0.1,0-0.3,0-0.4c0.2-1.6-1-3.1-2.6-3.2
	c-0.1,0-0.3,0-0.4,0c-1.2,0-2.4,0.6-3,1.7l-0.9-0.3l0.5-6.9h6.9v1.2H557l-0.3,4.6c0.7-0.8,1.8-1.3,2.9-1.2c2.2,0,4,1.7,4.1,3.9
	c0,0.1,0,0.2,0,0.4c0.2,2.4-1.7,4.4-4,4.6c-0.2,0-0.3,0-0.5,0C557.3,116.9,555.7,116,554.8,114.6z"/>
<path class="st6" d="M565.7,115.8c0-0.5,0.3-0.9,0.7-0.9h0.1c0.5,0,0.8,0.3,0.9,0.8v0.1c0,0.5-0.3,0.9-0.8,0.9h-0.1
	C566,116.7,565.6,116.4,565.7,115.8C565.7,115.9,565.7,115.8,565.7,115.8z"/>
<path class="st6" d="M569.8,110.1c0-4.1,1.7-6.8,4.8-6.8s4.8,2.7,4.8,6.8s-1.7,6.8-4.8,6.8S569.8,114.2,569.8,110.1z M578.1,110.1
	c0-3.7-1.4-5.7-3.5-5.7s-3.6,2-3.6,5.7s1.4,5.7,3.6,5.7S578.1,113.8,578.1,110.1z"/>
<path class="st6" d="M604.9,115v-11.9l-2.5,0.8l-0.2-1l2.8-1h1.2V115H604.9L604.9,115z"/>
<path class="st6" d="M609.2,112.9l0.8-0.8c0.7,1.2,2,2,3.5,2c1.7,0.1,3.2-1.3,3.3-3c0-0.1,0-0.3,0-0.4c0.2-1.6-1-3.1-2.6-3.2
	c-0.1,0-0.3,0-0.4,0c-1.2,0-2.4,0.6-3,1.7l-0.9-0.3l0.5-6.9h6.9v1.2h-5.9l-0.3,4.6c0.7-0.8,1.8-1.3,2.9-1.2c2.2,0,4,1.7,4.1,3.9
	c0,0.1,0,0.2,0,0.4c0.2,2.4-1.7,4.4-4,4.6c-0.2,0-0.3,0-0.5,0C611.7,115.3,610.1,114.4,609.2,112.9z"/>
<path class="st6" d="M620.2,114.1c0-0.5,0.3-0.9,0.7-0.9h0.1c0.5,0,0.8,0.3,0.9,0.8v0.1c0,0.5-0.3,0.9-0.8,0.9H621
	C620.5,115,620.1,114.7,620.2,114.1C620.2,114.2,620.2,114.2,620.2,114.1z"/>
<path class="st6" d="M627.1,115v-11.9l-2.5,0.8l-0.2-1l2.8-1h1.2V115H627.1L627.1,115z"/>
<polygon class="st8" points="46.1,274.5 61.8,266.6 61.8,204 46.1,192.1 "/>
<polygon class="st9" points="46.1,183.1 61.8,175.2 46.2,168.9 30.5,176.8 "/>
<polygon class="st8" points="46.1,183.1 46.1,192.1 61.8,204 61.8,175.2 "/>
<polygon class="st7" points="104.2,274.5 119.9,266.6 119.9,184.3 104.2,192.1 "/>
<polygon class="st10" points="104.2,179.1 119.9,171.3 104.2,165 88.5,172.8 "/>
<polygon class="st7" points="104.2,179.1 104.2,192.1 119.9,184.3 119.9,171.3 "/>
<polygon class="st8" points="318.8,274.5 334.4,266.6 334.4,204 318.8,192.1 "/>
<polygon class="st9" points="318.8,167.3 334.4,159.5 318.8,153.2 303.1,161 "/>
<polygon class="st8" points="318.8,167.3 318.8,192.1 334.4,204 334.4,159.5 "/>
<polygon class="st7" points="369,274.5 384.6,266.6 384.6,184.3 369,192.1 "/>
<polygon class="st10" points="369,166.6 384.6,158.8 369,152.5 353.3,160.4 "/>
<polygon class="st7" points="369,166.6 369,192.1 384.6,184.3 384.6,158.8 "/>
<polygon class="st8" points="565.3,274.5 581,266.6 581,204 565.3,192.1 "/>
<polygon class="st9" points="565.3,143 581,135.2 565.3,128.9 549.6,136.8 "/>
<polygon class="st8" points="565.3,143 565.3,192.1 581,204 581,135.2 "/>
<polygon class="st7" points="615.5,274.5 631.2,266.6 631.2,184.3 615.5,192.1 "/>
<polygon class="st10" points="615.5,142.1 631.2,134.2 615.5,127.9 599.8,135.8 "/>
<polygon class="st7" points="615.5,142.1 615.5,192.1 631.2,184.3 631.2,134.2 "/>
<g>
	<path class="st6" d="M428.3,11.1v-0.2c0-1.6,0.8-3,3.7-4.9c1.6-1,2.3-1.8,2.3-3c0.1-1.1-0.8-2-1.9-2.1c-0.1,0-0.2,0-0.3,0
		c-1.2,0-2.3,0.8-2.7,1.9l-0.8-0.5c0.6-1.4,2-2.3,3.5-2.3c1.6-0.2,3,1,3.2,2.6c0,0.1,0,0.3,0,0.4c0,1.5-0.7,2.4-2.8,3.8
		s-3,2.4-3,3.4h5.9l0.1,0.9H428.3L428.3,11.1z"/>
</g>
<g>
	<path class="st6" d="M436.9,5.7c0-3.4,1.5-5.7,4-5.7s4,2.3,4,5.7s-1.4,5.7-4,5.7S436.9,9.1,436.9,5.7z M443.9,5.7
		c0-3.1-1.2-4.7-3-4.7s-3,1.7-3,4.7s1.2,4.7,3,4.7S443.9,8.7,443.9,5.7L443.9,5.7z"/>
</g>
<g>
	<path class="st6" d="M448.9,11.1v-10l-2.1,0.7L446.6,1l2.3-0.8h1v11L448.9,11.1L448.9,11.1z"/>
</g>
<g>
	<path class="st6" d="M452.7,5.9c0-3.4,1.8-5.9,4.3-5.9c0.9,0,1.8,0.2,2.6,0.8l-0.5,0.8c-0.6-0.5-1.3-0.8-2.1-0.7
		c-2,0-3.3,2.1-3.3,4.8c0.8-0.9,1.9-1.4,3.1-1.5c1.7-0.2,3.2,1.1,3.4,2.8c0,0.2,0,0.4,0,0.6c0.1,1.9-1.4,3.5-3.3,3.6
		c-0.1,0-0.2,0-0.4,0C454.5,11.3,452.7,9.6,452.7,5.9z M459.2,7.7c0.1-1.3-0.8-2.4-2-2.5c-0.2,0-0.3,0-0.5,0c-1.2,0-2.3,0.6-3,1.6
		c0.2,2.5,1.4,3.6,2.9,3.6c1.4,0.1,2.6-0.9,2.6-2.3C459.2,8,459.2,7.9,459.2,7.7z"/>
</g>
<g>
	<path class="st6" d="M322.6,11.1v-0.2c0-1.6,0.8-3,3.7-4.9c1.6-1,2.3-1.8,2.3-3c0.1-1.1-0.7-2.1-1.8-2.1c-0.1,0-0.3,0-0.4,0
		c-1.2,0-2.3,0.8-2.7,1.9l-0.8-0.5c0.6-1.4,2-2.3,3.6-2.3c1.6-0.2,3,1,3.2,2.6c0,0.1,0,0.3,0,0.4c0,1.5-0.7,2.4-2.8,3.8
		s-3,2.4-3,3.4h5.9l0.1,0.9H322.6L322.6,11.1z"/>
</g>
<g>
	<path class="st6" d="M331.3,5.7c0-3.4,1.5-5.7,4-5.7s4,2.3,4,5.7s-1.4,5.7-4,5.7S331.3,9.1,331.3,5.7z M338.3,5.7
		c0-3.1-1.2-4.7-3-4.7s-3,1.7-3,4.7s1.2,4.7,3,4.7S338.2,8.7,338.3,5.7L338.3,5.7z"/>
</g>
<g>
	<path class="st6" d="M343.2,11.1v-10l-2.1,0.7L341,1l2.3-0.8h1v10.9L343.2,11.1L343.2,11.1z"/>
</g>
<g>
	<path class="st6" d="M346.8,9.4l0.7-0.7c0.6,1,1.7,1.7,2.9,1.7c1.5,0.1,2.7-1.1,2.7-2.5c0-0.1,0-0.2,0-0.3c0.2-1.3-0.8-2.5-2.1-2.7
		c-0.1,0-0.2,0-0.4,0c-1,0-2,0.5-2.5,1.4L347.3,6l0.4-5.7h5.7v1h-4.9L348.3,5c0.6-0.7,1.5-1.1,2.4-1c1.8-0.1,3.3,1.4,3.4,3.2
		c0,0.1,0,0.3,0,0.4c0.1,2-1.4,3.7-3.4,3.8c-0.1,0-0.3,0-0.4,0C348.9,11.4,347.6,10.6,346.8,9.4z"/>
</g>
<g>
	<polygon class="st7" points="386.7,3 382.1,12.1 364.8,12.1 369.4,3 	"/>
</g>
<g>
	<polygon class="st8" points="278.2,3 273.6,12.1 256.3,12.1 260.9,3 	"/>
</g>
<g>
	<path class="st6" d="M397.8,11.2V0.1h2.8c3.6,0,5.5,1.9,5.5,5.5c0,3.7-2,5.6-5.5,5.6H397.8z M398.8,10.2h1.9c2.8,0,4.3-1.4,4.3-4.6
		c0-3.1-1.5-4.6-4.3-4.6h-1.9V10.2z"/>
	<path class="st6" d="M407.6,7.2c0-2.8,1.8-4.1,3.5-4.1c1.8,0,3.2,1.4,3.2,4.1v0.2h-5.7c0,1.9,1.1,3,2.6,3c1,0,1.8-0.4,2.5-1.2
		l0.5,0.7c-0.9,0.9-1.7,1.4-3.1,1.4C409.2,11.3,407.6,9.9,407.6,7.2z M413.3,6.6C413.1,5.1,412.4,4,411,4c-1.1,0-2.2,0.9-2.4,2.6
		H413.3z"/>
	<path class="st6" d="M415.8,7.2c0-2.8,1.8-4.1,3.5-4.1c1.4,0,2.4,0.8,2.9,1.9l-0.8,0.5c-0.5-1-1-1.5-2.1-1.5
		c-1.2,0-2.5,0.9-2.5,3.2c0,2,1,3.2,2.4,3.2c1.1,0,1.7-0.5,2.2-1.5l0.8,0.5c-0.7,1.3-1.6,1.9-3,1.9C417.4,11.3,415.8,9.9,415.8,7.2z
		"/>
	<path class="st6" d="M424,6.9V6h3.4v0.9H424z"/>
</g>
<g>
	<path class="st6" d="M290.8,11.2V0.1h2.8c3.6,0,5.5,1.9,5.5,5.5c0,3.7-2,5.6-5.5,5.6H290.8z M291.8,10.2h1.9c2.8,0,4.3-1.4,4.3-4.6
		c0-3.1-1.5-4.6-4.3-4.6h-1.9V10.2z"/>
	<path class="st6" d="M300.6,7.2c0-2.8,1.8-4.1,3.5-4.1c1.8,0,3.2,1.4,3.2,4.1v0.2h-5.7c0,1.9,1.1,3,2.6,3c1,0,1.8-0.4,2.5-1.2
		l0.5,0.7c-0.9,0.9-1.7,1.4-3.1,1.4C302.2,11.3,300.6,9.9,300.6,7.2z M306.3,6.6C306.1,5.1,305.4,4,304,4c-1.1,0-2.2,0.9-2.4,2.6
		H306.3z"/>
	<path class="st6" d="M308.8,7.2c0-2.8,1.8-4.1,3.5-4.1c1.4,0,2.4,0.8,2.9,1.9l-0.8,0.5c-0.5-1-1-1.5-2.1-1.5
		c-1.2,0-2.5,0.9-2.5,3.2c0,2,1,3.2,2.4,3.2c1.1,0,1.7-0.5,2.2-1.5l0.8,0.5c-0.7,1.3-1.6,1.9-3,1.9C310.4,11.3,308.8,9.9,308.8,7.2z
		"/>
	<path class="st6" d="M317,6.9V6h3.4v0.9H317z"/>
</g>
<g>
	<path class="st6" d="M472.6,309.1v-9.4h-3.4V298h8.6l0.3,1.7h-3.6v9.4H472.6z"/>
	<path class="st6" d="M479,303.6c0-3.7,2.3-5.8,5-5.8c2.7,0,5,2,5,5.8c0,3.7-2.3,5.8-5,5.8C481.4,309.3,479,307.3,479,303.6z
		 M487.2,303.6c0-2.5-1.3-4-3.1-4c-1.9,0-3.1,1.5-3.1,4s1.3,4.1,3.1,4.1C485.9,307.7,487.2,306.1,487.2,303.6z"/>
	<path class="st6" d="M493.6,309.1v-9.4h-3.4V298h8.6l0.3,1.7h-3.6v9.4H493.6z"/>
	<path class="st6" d="M499.7,309.1l3.9-11.1h1.8l3.9,11l-1.8,0.3l-0.9-2.8h-4.2l-0.9,2.6H499.7z M502.9,304.8h3.1l-1.5-4.5h0
		L502.9,304.8z"/>
	<path class="st6" d="M511,309.1V298h1.9v9.4h5l0.3,1.7H511z"/>
	<path class="st6" d="M522.9,303.5c0-3.6,2.1-5.7,4.8-5.7c2.1,0,3.4,0.9,4.2,2.6l-1.6,0.9c-0.4-1-1.2-1.8-2.6-1.8
		c-1.9,0-2.9,1.6-2.9,4c0,2.6,1.1,4.1,3,4.1c1.4,0,2.3-0.8,2.7-2.1l1.6,0.7c-0.7,1.8-2,3-4.3,3C524.9,309.3,522.9,307.3,522.9,303.5
		z"/>
	<path class="st6" d="M533.2,309.1l3.9-11.1h1.8l3.9,11l-1.8,0.3l-0.9-2.8h-4.2l-0.9,2.6H533.2z M536.4,304.8h3.1l-1.5-4.5h0
		L536.4,304.8z"/>
	<path class="st6" d="M544.5,309.1V298h3.9c2.4,0,4.3,0.8,4.3,3.4c0,2.7-2,3.5-4.3,3.5h-2v4.2H544.5z M546.4,303.3h2.1
		c1.7,0,2.4-0.6,2.4-1.8c0-1.2-0.7-1.7-2.4-1.7h-2V303.3z"/>
	<path class="st6" d="M554.6,309.1V298h1.9v11.1H554.6z"/>
	<path class="st6" d="M561.6,309.1v-9.4h-3.4V298h8.6l0.3,1.7h-3.6v9.4H561.6z"/>
	<path class="st6" d="M567.7,309.1l3.9-11.1h1.8l3.9,11l-1.8,0.3l-0.9-2.8h-4.2l-0.9,2.6H567.7z M570.9,304.8h3.1l-1.5-4.5h0
		L570.9,304.8z"/>
	<path class="st6" d="M579,309.1V298h1.9v9.4h5l0.3,1.7H579z"/>
	<path class="st6" d="M591.5,309.1V298h4c2.6,0,4.2,1,4.2,3.4c0,1.8-0.9,2.7-2.4,3.1l2.6,4.5l-1.8,0.3l-2.7-4.5h-2v4.4H591.5z
		 M593.3,303.1h2c1.6,0,2.4-0.5,2.4-1.7c0-1.2-0.8-1.7-2.4-1.7h-2V303.1z"/>
	<path class="st6" d="M600.9,309.1l3.9-11.1h1.8l3.9,11l-1.8,0.3l-0.9-2.8h-4.2l-0.9,2.6H600.9z M604.2,304.8h3.1l-1.5-4.5h0
		L604.2,304.8z"/>
	<path class="st6" d="M614.8,309.1v-9.4h-3.4V298h8.6l0.3,1.7h-3.6v9.4H614.8z"/>
	<path class="st6" d="M621.9,309.1V298h1.9v11.1H621.9z"/>
	<path class="st6" d="M625.9,303.6c0-3.7,2.3-5.8,5-5.8c2.7,0,5,2,5,5.8c0,3.7-2.3,5.8-5,5.8C628.2,309.3,625.9,307.3,625.9,303.6z
		 M634.1,303.6c0-2.5-1.3-4-3.1-4c-1.9,0-3.1,1.5-3.1,4s1.3,4.1,3.1,4.1C632.8,307.7,634.1,306.1,634.1,303.6z"/>
	<path class="st6" d="M642.6,298h3.3c2.6,0,4.2,0.9,4.2,2.9c0,3-2.3,4-4.5,4h-2.3l-0.7,4.2h-1.9L642.6,298z M645.8,303.3
		c1.4,0,2.4-0.5,2.4-2.1c0-1-0.7-1.4-2.4-1.4h-1.6l-0.6,3.5H645.8z"/>
	<path class="st6" d="M650.3,309.1l1.9-10.9l1.9-0.3l-0.8,4.4c0.5-0.6,1.6-1.3,2.8-1.3c1.6,0,2.3,0.9,2.1,2.5l-1,5.6h-1.8l0.9-5.2
		c0.2-0.9-0.1-1.3-1.1-1.3c-0.7,0-1.5,0.4-2.1,1l-1,5.5H650.3z"/>
	<path class="st6" d="M659,307.3c0-1.9,1.7-3.2,5.7-3.4l0-0.2c0.2-0.8-0.2-1.2-1.3-1.2c-0.9,0-1.8,0.3-2.5,0.8l-0.8-1.1
		c0.7-0.6,2-1.2,3.7-1.2c2.3,0,3,1.2,2.7,3l-0.9,5.1h-1.6v-1c-0.9,0.8-1.9,1.2-2.8,1.2C659.8,309.3,659,308.5,659,307.3z
		 M664.2,306.9l0.3-1.7c-2.7,0.2-3.6,0.8-3.6,1.8c0,0.5,0.4,0.9,1.1,0.9C662.8,307.8,663.5,307.5,664.2,306.9z"/>
	<path class="st6" d="M667.2,307.8l0.9-1.2c0.6,0.8,1.6,1.2,2.7,1.2c0.9,0,1.5-0.2,1.5-1c0-1.4-4-0.8-4-3.3c0-1.7,1.4-2.6,2.9-2.6
		c1.7,0,2.7,0.5,3.4,1.1l-0.9,1.3c-0.6-0.5-1.3-0.9-2.4-0.9c-0.8,0-1.2,0.3-1.2,0.9c0,1.4,4,0.8,4,3.3c0,2.1-1.8,2.7-3.4,2.7
		C669,309.3,667.8,308.6,667.2,307.8z"/>
	<path class="st6" d="M675.4,305.9c0-3.8,2.8-4.9,4.3-4.9c2.4,0,3.4,1.6,2.9,4.3l-0.1,0.4h-5.3v0.2c0,1.6,1,1.9,1.9,1.9
		c1,0,1.6-0.4,2.4-1l0.8,1.2c-0.9,0.8-1.8,1.3-3.5,1.3C676.8,309.3,675.4,308.1,675.4,305.9z M681.1,304.4c0.1-1.1-0.3-1.9-1.5-1.9
		c-0.9,0-1.8,0.6-2.1,1.9H681.1z"/>
	<path class="st6" d="M683.7,306.1c0-3.5,2-5.1,3.8-5.1c1.2,0,2,0.4,2.5,0.9l0.6-3.8l1.9-0.3l-2,11.2h-1.7v-1
		c-0.6,0.7-1.4,1.2-2.4,1.2C684.9,309.3,683.7,308.3,683.7,306.1z M689.1,306.8l0.6-3.5c-0.4-0.5-1-0.8-1.8-0.8
		c-1,0-2.3,0.9-2.3,3.4c0,1.2,0.6,1.8,1.6,1.8C687.9,307.8,688.5,307.5,689.1,306.8z"/>
	<path class="st6" d="M693.1,305.1l0.2-1.3h3.7l-0.2,1.3H693.1z"/>
	<path class="st6" d="M698,309.1l1.4-8h1.8l-1.4,8H698z M699.7,299c0.1-0.6,0.5-0.9,1.2-0.9c0.7,0,1,0.5,0.9,1
		c-0.1,0.6-0.5,0.9-1.2,0.9C699.9,300,699.6,299.5,699.7,299z"/>
	<path class="st6" d="M702,309.1l1.4-8h1.7l0,1.1c0.5-0.6,1.6-1.3,2.8-1.3c1.6,0,2.3,0.9,2.1,2.5l-1,5.6h-1.8l0.9-5.2
		c0.2-0.9-0.1-1.3-1.1-1.3c-0.7,0-1.5,0.4-2.1,1l-1,5.5H702z"/>
	<path class="st6" d="M718.9,312.2c-2.4-2.1-3.7-4.3-3.7-7.2c0-2.8,1.3-5.1,3.7-7.2l0.5,0.5c-1.9,1.7-3.1,4-3.1,6.6
		c0,2.7,1.2,4.9,3.1,6.7L718.9,312.2z"/>
	<path class="st6" d="M721.1,301.2c0-2.1,1-3.4,2.5-3.4s2.5,1.3,2.5,3.3c0,1.9-0.9,3.4-2.5,3.4C722,304.5,721.1,303.2,721.1,301.2z
		 M725.2,301.2c0-1.5-0.6-2.5-1.5-2.5c-1,0-1.5,1.1-1.5,2.5c0,1.5,0.6,2.5,1.6,2.5C724.6,303.7,725.2,302.6,725.2,301.2z
		 M723.7,309.1l6.6-11.1h1l-6.6,11.1H723.7z M728.8,306c0-2.1,1-3.4,2.5-3.4c1.5,0,2.5,1.3,2.5,3.3c0,1.9-0.9,3.3-2.5,3.3
		S728.8,307.9,728.8,306z M732.9,306c0-1.5-0.5-2.5-1.5-2.5s-1.5,1.1-1.5,2.5c0,1.5,0.5,2.5,1.5,2.5S732.9,307.4,732.9,306z"/>
	<path class="st6" d="M735.6,311.7c1.9-1.7,3.1-4,3.1-6.7c0-2.6-1.2-4.9-3.1-6.6l0.5-0.5c2.4,2.1,3.8,4.3,3.8,7.2
		c0,2.8-1.3,5.1-3.8,7.2L735.6,311.7z"/>
</g>
</svg>
