<?xml version="1.0" encoding="utf-8"?>
<!-- Generator: Adobe Illustrator 21.0.0, SVG Export Plug-In . SVG Version: 6.00 Build 0)  -->
<!DOCTYPE svg PUBLIC "-//W3C//DTD SVG 1.1//EN" "http://www.w3.org/Graphics/SVG/1.1/DTD/svg11.dtd">
<svg version="1.1" id="Capa_1" xmlns="http://www.w3.org/2000/svg" xmlns:xlink="http://www.w3.org/1999/xlink" x="0px" y="0px"
	 viewBox="0 0 605 239" style="enable-background:new 0 0 605 239;" xml:space="preserve">
<style type="text/css">
	.st0{fill:#FFFFFF;}
	.st1{fill:#1464A5;}
	.st2{fill:#F3F3F3;}
	.st3{fill:#45C2C4;}
	.st4{fill:#D8BE75;}
</style>
<title>Group</title>
<desc>Created with Sketch.</desc>
<g>
	<g>
		<g>
			<path class="st0" d="M556.4,26.9l6.3-13.6H555l-0.1-1.3h9.3v1.2L557.8,27L556.4,26.9z"/>
			<path class="st0" d="M566,19.4c0-4.7,2-7.8,5.5-7.8s5.5,3.1,5.5,7.8c0,4.7-1.9,7.8-5.5,7.8S566,24.1,566,19.4z M575.6,19.4
				c0-4.2-1.6-6.5-4.1-6.5c-2.6,0-4.1,2.3-4.1,6.5s1.6,6.5,4.1,6.5C574.1,26,575.6,23.7,575.6,19.4z"/>
		</g>
		<g>
			<path class="st0" d="M555.1,190.3c0-4.7,2-7.8,5.5-7.8c3.5,0,5.5,3.1,5.5,7.8s-1.9,7.8-5.5,7.8
				C557.1,198.1,555.1,195,555.1,190.3z M564.7,190.3c0-4.2-1.6-6.5-4.1-6.5c-2.6,0-4.1,2.3-4.1,6.5s1.6,6.5,4.1,6.5
				C563.1,196.8,564.7,194.5,564.7,190.3z"/>
			<path class="st0" d="M568.8,196.8c0-0.6,0.4-1,1-1c0.6,0,1,0.4,1,1c0,0.6-0.4,1.1-1,1.1C569.1,197.9,568.8,197.5,568.8,196.8z"/>
			<path class="st0" d="M573.1,194.2c0-2.1,1.5-3.3,4-4.3c-2-0.9-3.3-1.9-3.3-3.7c0-1.8,1.7-3.6,4.7-3.6c3,0,4.6,1.8,4.6,3.6
				c0,1.8-1.2,2.7-3.3,3.7c2.6,1.1,4,2.2,4,4.4c0,2.1-2,3.9-5.3,3.9C575.1,198.1,573.1,196.4,573.1,194.2z M582.4,194.1
				c0-1.7-1.4-2.6-4-3.7c-2.7,1.2-3.9,2.1-3.9,3.7c0,1.6,1.6,2.8,3.9,2.8C580.7,196.9,582.4,195.8,582.4,194.1z M581.7,186.2
				c0-1.2-1-2.5-3.2-2.5c-2.2,0-3.3,1.2-3.3,2.4c0,1.4,1,2.1,3.3,3.1C580.8,188.3,581.7,187.6,581.7,186.2z"/>
			<path class="st0" d="M592.3,197.8v-3.6h-7.2v-1.1l6.8-10.3h1.8v10.1h2.5l0.1,1.3h-2.6v3.6H592.3z M586.7,192.9h5.6v-8.4h0
				L586.7,192.9z"/>
		</g>
		<g>
			<rect x="250.4" y="51.2" class="st1" width="354.4" height="1"/>
		</g>
		<g>
			<path class="st0" d="M561.9,115.9v-3.6h-7.2v-1.1l6.8-10.3h1.8V111h2.5l0.1,1.3h-2.6v3.6H561.9z M556.3,111h5.6v-8.4h0L556.3,111
				z"/>
			<path class="st0" d="M567.8,114.9c0-0.6,0.4-1,1-1c0.6,0,1,0.4,1,1c0,0.6-0.4,1.1-1,1.1C568.2,116,567.8,115.6,567.8,114.9z"/>
			<path class="st0" d="M572.9,114.8l0.6-1.1c0.9,0.8,1.7,1.2,3.2,1.2c2.7,0,4.4-2.9,4.4-6.7c-1,1-2.4,2-4.3,2c-3.2,0-4.7-2-4.7-4.7
				c0-2.8,1.9-5,5-5c2.9,0,5.3,2.4,5.3,7.5c0,4.6-2.4,8.1-5.8,8.1C575,116.2,573.8,115.6,572.9,114.8z M581.2,106.8
				c-0.3-3.4-2-5-3.9-5c-2.1,0-3.6,1.4-3.6,3.7c0,2,1,3.5,3.4,3.5C578.8,109,580.2,108.1,581.2,106.8z"/>
		</g>
		<g>
			<path class="st0" d="M274.2,12.6l5.3-11.4h-6.4L273,0.2h7.7v1l-5.3,11.5L274.2,12.6z"/>
			<path class="st0" d="M287.9,12.7v-3h-6V8.7l5.7-8.6h1.5v8.4h2.1l0.1,1.1h-2.1v3H287.9z M283.2,8.6h4.7v-7h0L283.2,8.6z"/>
		</g>
		<g>
			<path class="st0" d="M262.5,162.9v-11.4l-2.4,0.8l-0.2-1l2.6-0.9h1.1v12.5H262.5z"/>
			<path class="st0" d="M267.4,162.1c0-0.5,0.3-0.9,0.8-0.9c0.5,0,0.8,0.3,0.8,0.9c0,0.5-0.3,0.9-0.8,0.9
				C267.7,163,267.4,162.6,267.4,162.1z"/>
			<path class="st0" d="M271.3,156.7c0-3.9,1.7-6.5,4.6-6.5c2.9,0,4.6,2.6,4.6,6.5c0,3.9-1.6,6.5-4.6,6.5
				C272.9,163.1,271.3,160.6,271.3,156.7z M279.3,156.7c0-3.5-1.3-5.4-3.4-5.4c-2.1,0-3.4,1.9-3.4,5.4s1.3,5.4,3.4,5.4
				C278,162.1,279.3,160.2,279.3,156.7z"/>
			<path class="st0" d="M282.2,156.9c0-3.9,2-6.7,4.9-6.7c1.4,0,2.3,0.4,2.9,0.9l-0.6,0.9c-0.7-0.5-1.3-0.8-2.4-0.8
				c-2.3,0-3.7,2.4-3.7,5.5c0.8-0.9,2-1.7,3.6-1.7c2.6,0,3.9,1.6,3.9,3.9c0,2.4-1.6,4.2-4.2,4.2
				C284.2,163.1,282.2,161.2,282.2,156.9z M289.6,159c0-1.7-0.8-2.9-2.9-2.9c-1.4,0-2.6,0.7-3.4,1.8c0.3,2.9,1.6,4.2,3.3,4.2
				C288.4,162.1,289.6,161,289.6,159z"/>
		</g>
		<g>
			<path class="st2" d="M270,236v-10.4h2.6c3.4,0,5.2,1.8,5.2,5.2s-1.8,5.2-5.2,5.2H270z M271,235.1h1.8c2.6,0,4-1.3,4-4.3
				c0-2.9-1.4-4.3-4-4.3H271V235.1z"/>
			<path class="st2" d="M279.2,232.3c0-2.6,1.7-3.8,3.2-3.8c1.7,0,3,1.3,3,3.8v0.2h-5.3c0,1.8,1.1,2.8,2.4,2.8c1,0,1.7-0.4,2.4-1.1
				l0.5,0.6c-0.8,0.9-1.6,1.3-2.9,1.3C280.7,236.1,279.2,234.8,279.2,232.3z M284.5,231.7c-0.1-1.4-0.8-2.5-2.1-2.5
				c-1.1,0-2.1,0.8-2.2,2.5H284.5z"/>
			<path class="st2" d="M286.7,232.3c0-2.6,1.6-3.8,3.3-3.8c1.3,0,2.2,0.7,2.7,1.8l-0.8,0.5c-0.4-0.9-1-1.4-2-1.4
				c-1.1,0-2.3,0.8-2.3,3c0,1.9,1,3,2.3,3c1,0,1.6-0.5,2.1-1.4l0.7,0.5c-0.6,1.2-1.5,1.8-2.8,1.8
				C288.2,236.1,286.7,234.8,286.7,232.3z"/>
			<path class="st2" d="M297.3,232v-0.8h3.2v0.8H297.3z"/>
			<path class="st2" d="M305,236v-0.2c0-1.5,0.7-2.9,3.5-4.6c1.6-1,2.2-1.7,2.2-2.8c0-1.2-0.7-2-2.1-2c-1.1,0-2,0.6-2.6,1.8
				l-0.7-0.5c0.7-1.4,1.9-2.2,3.4-2.2c1.9,0,3.1,1.2,3.1,2.8c0,1.4-0.7,2.3-2.7,3.6c-1.9,1.2-2.8,2.3-2.9,3.2h5.5l0.1,0.9H305z"/>
			<path class="st2" d="M313.2,230.8c0-3.2,1.4-5.4,3.8-5.4s3.8,2.1,3.8,5.4s-1.3,5.4-3.8,5.4S313.2,234,313.2,230.8z M319.8,230.8
				c0-2.9-1.1-4.5-2.8-4.5c-1.8,0-2.8,1.6-2.8,4.5s1.1,4.5,2.8,4.5C318.8,235.3,319.8,233.7,319.8,230.8z"/>
			<path class="st2" d="M324.5,236v-9.4l-2,0.7l-0.1-0.8l2.2-0.8h0.9V236H324.5z"/>
			<path class="st2" d="M328,234.3l0.6-0.6c0.6,0.9,1.5,1.6,2.7,1.6c1.8,0,2.6-1.3,2.6-2.7c0-1.7-1-2.6-2.4-2.6
				c-1.1,0-1.8,0.5-2.4,1.3l-0.7-0.3l0.4-5.4h5.4l0,0.9h-4.6l-0.3,3.6c0.5-0.6,1.2-1,2.3-1c1.9,0,3.2,1.3,3.2,3.4s-1.4,3.6-3.6,3.6
				C329.9,236.2,328.6,235.4,328,234.3z"/>
		</g>
		<g>
			<path class="st2" d="M510.7,236v-10.4h2.6c3.4,0,5.2,1.8,5.2,5.2s-1.8,5.2-5.2,5.2H510.7z M511.7,235.1h1.8c2.6,0,4-1.3,4-4.3
				c0-2.9-1.4-4.3-4-4.3h-1.8V235.1z"/>
			<path class="st2" d="M519.9,232.3c0-2.6,1.7-3.8,3.2-3.8c1.7,0,3,1.3,3,3.8v0.2h-5.3c0,1.8,1,2.8,2.4,2.8c1,0,1.7-0.4,2.4-1.1
				l0.5,0.6c-0.8,0.9-1.6,1.3-2.9,1.3C521.4,236.1,519.9,234.8,519.9,232.3z M525.2,231.7c-0.1-1.4-0.8-2.5-2.1-2.5
				c-1.1,0-2.1,0.8-2.2,2.5H525.2z"/>
			<path class="st2" d="M527.5,232.3c0-2.6,1.6-3.8,3.3-3.8c1.3,0,2.2,0.7,2.7,1.8l-0.8,0.5c-0.4-0.9-1-1.4-2-1.4
				c-1.1,0-2.3,0.8-2.3,3c0,1.9,1,3,2.3,3c1,0,1.6-0.5,2.1-1.4l0.7,0.5c-0.6,1.2-1.5,1.8-2.8,1.8C529,236.1,527.5,234.8,527.5,232.3
				z"/>
			<path class="st2" d="M538.1,232v-0.8h3.2v0.8H538.1z"/>
			<path class="st2" d="M545.7,236v-0.2c0-1.5,0.7-2.9,3.5-4.6c1.6-1,2.2-1.7,2.2-2.8c0-1.2-0.7-2-2.1-2c-1.1,0-2,0.6-2.6,1.8
				l-0.7-0.5c0.7-1.4,1.9-2.2,3.4-2.2c1.9,0,3.1,1.2,3.1,2.8c0,1.4-0.7,2.3-2.7,3.6c-1.9,1.2-2.8,2.3-2.9,3.2h5.5l0.1,0.9H545.7z"/>
			<path class="st2" d="M553.9,230.8c0-3.2,1.4-5.4,3.8-5.4s3.8,2.1,3.8,5.4s-1.3,5.4-3.8,5.4S553.9,234,553.9,230.8z M560.6,230.8
				c0-2.9-1.1-4.5-2.8-4.5c-1.8,0-2.8,1.6-2.8,4.5s1.1,4.5,2.8,4.5C559.5,235.3,560.6,233.7,560.6,230.8z"/>
			<path class="st2" d="M565.3,236v-9.4l-2,0.7l-0.1-0.8l2.2-0.8h0.9V236H565.3z"/>
			<path class="st2" d="M568.9,231c0-3.2,1.7-5.6,4.1-5.6c1.2,0,1.9,0.3,2.4,0.8L575,227c-0.6-0.4-1.1-0.7-2-0.7
				c-1.9,0-3.1,2-3.1,4.6c0.7-0.7,1.6-1.4,3-1.4c2.2,0,3.2,1.4,3.2,3.2c0,2-1.3,3.4-3.5,3.4C570.6,236.2,568.9,234.5,568.9,231z
				 M575.1,232.8c0-1.4-0.7-2.4-2.4-2.4c-1.1,0-2.1,0.6-2.8,1.5c0.2,2.4,1.3,3.4,2.7,3.4C574.1,235.3,575.1,234.4,575.1,232.8z"/>
		</g>
		<g>
			<path class="st0" d="M267.9,93.1l0.8-0.8c0.7,1.1,1.8,1.9,3.3,1.9c2.2,0,3.1-1.6,3.1-3.3c0-2-1.2-3.1-2.9-3.1
				c-1.3,0-2.2,0.6-2.9,1.6l-0.9-0.3l0.5-6.5h6.6l0,1.1H270l-0.3,4.3c0.6-0.7,1.4-1.2,2.8-1.2c2.3,0,3.9,1.6,3.9,4.1
				c0,2.5-1.6,4.4-4.3,4.4C270.2,95.4,268.8,94.5,267.9,93.1z"/>
			<path class="st0" d="M278.4,94.3c0-0.5,0.3-0.9,0.8-0.9c0.5,0,0.8,0.3,0.8,0.9c0,0.5-0.3,0.9-0.8,0.9
				C278.7,95.2,278.4,94.9,278.4,94.3z"/>
			<path class="st0" d="M287.9,95.1v-3h-6v-0.9l5.7-8.6h1.5V91h2.1l0.1,1.1h-2.1v3H287.9z M283.2,91h4.7v-7h0L283.2,91z"/>
		</g>
		<g>
			<rect x="301.3" y="211.2" class="st1" width="1" height="4.3"/>
		</g>
		<g>
			<rect x="540.7" y="211.2" class="st1" width="1" height="4.3"/>
		</g>
		<g>
			<rect x="250.4" y="131.6" class="st1" width="354.4" height="1"/>
		</g>
		<g>
			<rect x="250.4" y="210.7" class="st1" width="354.4" height="1"/>
		</g>
		<g>
			<g>
				<g>
					<path class="st0" d="M1.4,27.4V16.3h1.9l5.2,7.9h0v-7.9h1.7v11.1H8.6l-5.5-8.1h0v8.1H1.4z"/>
					<path class="st0" d="M13.2,27.4V16.3h3.9c2.4,0,4.3,0.8,4.3,3.4c0,2.7-2,3.5-4.3,3.5h-2v4.2H13.2z M15.1,21.5h2.1
						c1.7,0,2.4-0.6,2.4-1.8c0-1.2-0.7-1.7-2.4-1.7h-2V21.5z"/>
					<path class="st0" d="M23.5,27.4V16.3h1.9v9.4h5l0.3,1.7H23.5z"/>
					<path class="st0" d="M36.2,21.8c0-3.6,2.1-5.7,4.8-5.7c2.1,0,3.4,0.9,4.2,2.6l-1.6,0.9c-0.4-1-1.2-1.8-2.6-1.8
						c-1.9,0-2.9,1.6-2.9,4c0,2.6,1.1,4.1,3,4.1c1.4,0,2.3-0.8,2.7-2.1l1.6,0.7c-0.7,1.8-2,3-4.3,3C38.2,27.6,36.2,25.5,36.2,21.8z"
						/>
					<path class="st0" d="M47.2,21.8c0-3.7,2.3-5.8,5-5.8c2.7,0,5,2,5,5.8c0,3.7-2.3,5.8-5,5.8C49.5,27.6,47.2,25.6,47.2,21.8z
						 M55.3,21.8c0-2.5-1.3-4-3.1-4s-3.1,1.5-3.1,4s1.3,4.1,3.1,4.1S55.3,24.3,55.3,21.8z"/>
					<path class="st0" d="M62.5,27.4l-3.8-11l1.8-0.3l2.9,8.8h0l2.9-8.7h1.8l-3.9,11.1H62.5z"/>
					<path class="st0" d="M70.2,27.4V16.3h7.2V18H72v2.8h4l0.3,1.7H72v3.2h5.6v1.7H70.2z"/>
					<path class="st0" d="M79.9,27.4V16.3h4c2.6,0,4.2,1,4.2,3.4c0,1.8-0.9,2.7-2.4,3.1l2.6,4.5l-1.8,0.3L83.7,23h-2v4.4H79.9z
						 M81.7,21.4h2c1.6,0,2.4-0.5,2.4-1.7c0-1.2-0.8-1.7-2.4-1.7h-2V21.4z"/>
					<path class="st0" d="M89.7,27.4l3.9-11.1h1.8l3.9,11l-1.8,0.3l-0.9-2.8h-4.2l-0.9,2.6H89.7z M92.9,23.1h3.1l-1.5-4.5h0
						L92.9,23.1z"/>
					<path class="st0" d="M100.9,21.8c0-3.5,2-5.7,4.9-5.7c1.7,0,3.3,0.8,4.2,2.6l-1.6,0.9c-0.5-1.1-1.3-1.8-2.5-1.8
						c-1.4,0-3,0.9-3,3.9s1.5,4.2,3.1,4.2c1.5,0,2.5-0.9,2.6-2.5h-2.1l-0.3-1.5h4.2v5.5h-1.5v-1.2h0c-0.4,0.8-1.5,1.5-3.1,1.5
						C102.4,27.6,100.9,25.1,100.9,21.8z"/>
					<path class="st0" d="M113,27.4V16.3h7.2V18h-5.3v2.8h4l0.3,1.7h-4.3v3.2h5.6v1.7H113z"/>
					<path class="st0" d="M126.8,27.4V16.3h4c2.6,0,4.2,1,4.2,3.4c0,1.8-0.9,2.7-2.4,3.1l2.6,4.5l-1.8,0.3l-2.7-4.5h-2v4.4H126.8z
						 M128.6,21.4h2c1.6,0,2.4-0.5,2.4-1.7c0-1.2-0.8-1.7-2.4-1.7h-2V21.4z"/>
					<path class="st0" d="M136.6,27.4l3.9-11.1h1.8l3.9,11l-1.8,0.3l-0.9-2.8h-4.2l-0.9,2.6H136.6z M139.9,23.1h3.1l-1.5-4.5h0
						L139.9,23.1z"/>
					<path class="st0" d="M150.9,27.4V18h-3.4v-1.7h8.6l0.3,1.7h-3.6v9.4H150.9z"/>
					<path class="st0" d="M158.4,27.4V16.3h1.9v11.1H158.4z"/>
					<path class="st0" d="M162.7,21.8c0-3.7,2.3-5.8,5-5.8c2.7,0,5,2,5,5.8c0,3.7-2.3,5.8-5,5.8C165.1,27.6,162.7,25.6,162.7,21.8z
						 M170.9,21.8c0-2.5-1.3-4-3.1-4s-3.1,1.5-3.1,4s1.3,4.1,3.1,4.1S170.9,24.3,170.9,21.8z"/>
					<path class="st0" d="M182.6,30.4c-2.4-2.1-3.8-4.3-3.8-7.3c0-2.9,1.3-5.2,3.8-7.3l0.8,0.9c-1.6,1.7-2.7,3.8-2.7,6.4
						c0,2.6,1.1,4.8,2.7,6.4L182.6,30.4z"/>
					<path class="st0" d="M185.1,19.6c0-2.1,1.1-3.5,2.8-3.5c1.7,0,2.8,1.4,2.8,3.5c0,2.1-1,3.5-2.8,3.5
						C186.2,23.1,185.1,21.7,185.1,19.6z M189.2,19.6c0-1.4-0.4-2.3-1.2-2.3c-0.9,0-1.2,0.9-1.2,2.2c0,1.4,0.4,2.3,1.3,2.3
						C188.8,21.9,189.2,20.9,189.2,19.6z M188.1,27.4l6.6-11.1h1.6l-6.6,11.1H188.1z M193.8,24c0-2.1,1.1-3.5,2.8-3.5
						c1.7,0,2.8,1.4,2.8,3.5c0,2.1-1,3.5-2.8,3.5C194.8,27.5,193.8,26.1,193.8,24z M197.8,24c0-1.4-0.4-2.3-1.2-2.3
						c-0.9,0-1.2,0.9-1.2,2.2c0,1.4,0.4,2.3,1.2,2.3C197.4,26.3,197.8,25.3,197.8,24z"/>
					<path class="st0" d="M201.1,29.6c1.7-1.6,2.7-3.9,2.7-6.4c0-2.5-1.1-4.7-2.7-6.4l0.9-0.9c2.4,2.1,3.8,4.3,3.8,7.3
						c0,2.9-1.3,5.2-3.8,7.3L201.1,29.6z"/>
				</g>
			</g>
			<g>
				<g>
					<path class="st0" d="M1.4,103V91.9h1.9l5.2,7.9h0v-7.9h1.7V103H8.6l-5.5-8.1h0v8.1H1.4z"/>
					<path class="st0" d="M13.2,103V91.9h3.9c2.4,0,4.3,0.8,4.3,3.4c0,2.7-2,3.5-4.3,3.5h-2v4.2H13.2z M15.1,97.1h2.1
						c1.7,0,2.4-0.6,2.4-1.8c0-1.2-0.7-1.7-2.4-1.7h-2V97.1z"/>
					<path class="st0" d="M23.5,103V91.9h1.9v9.4h5l0.3,1.7H23.5z"/>
					<path class="st0" d="M36.7,103V91.9h4c2.6,0,4.2,1,4.2,3.4c0,1.8-0.9,2.7-2.4,3.1l2.6,4.5l-1.8,0.3l-2.7-4.5h-2v4.4H36.7z
						 M38.5,97h2c1.6,0,2.4-0.5,2.4-1.7c0-1.2-0.8-1.7-2.4-1.7h-2V97z"/>
					<path class="st0" d="M46.6,103l3.9-11.1h1.8l3.9,11l-1.8,0.3l-0.9-2.8h-4.2l-0.9,2.6H46.6z M49.8,98.7h3.1l-1.5-4.5h0
						L49.8,98.7z"/>
					<path class="st0" d="M60.8,103v-9.4h-3.4v-1.7H66l0.3,1.7h-3.6v9.4H60.8z"/>
					<path class="st0" d="M68.3,103V91.9h1.9V103H68.3z"/>
					<path class="st0" d="M72.6,97.4c0-3.7,2.3-5.8,5-5.8c2.7,0,5,2,5,5.8c0,3.7-2.3,5.8-5,5.8C75,103.2,72.6,101.2,72.6,97.4z
						 M80.8,97.4c0-2.5-1.3-4-3.1-4s-3.1,1.5-3.1,4s1.3,4.1,3.1,4.1S80.8,100,80.8,97.4z"/>
					<path class="st0" d="M92.5,106.1c-2.4-2.1-3.8-4.3-3.8-7.3c0-2.9,1.3-5.2,3.8-7.3l0.8,0.9c-1.6,1.7-2.7,3.8-2.7,6.4
						c0,2.6,1.1,4.8,2.7,6.4L92.5,106.1z"/>
					<path class="st0" d="M95.1,95.2c0-2.1,1.1-3.5,2.8-3.5c1.7,0,2.8,1.4,2.8,3.5c0,2.1-1,3.5-2.8,3.5
						C96.1,98.7,95.1,97.3,95.1,95.2z M99.1,95.2c0-1.4-0.4-2.3-1.2-2.3c-0.9,0-1.2,0.9-1.2,2.2c0,1.4,0.4,2.3,1.3,2.3
						C98.7,97.5,99.1,96.6,99.1,95.2z M98.1,103l6.6-11.1h1.6L99.7,103H98.1z M103.7,99.6c0-2.1,1.1-3.5,2.8-3.5
						c1.7,0,2.8,1.4,2.8,3.5c0,2.1-1,3.5-2.8,3.5C104.7,103.1,103.7,101.7,103.7,99.6z M107.7,99.6c0-1.4-0.4-2.3-1.2-2.3
						c-0.9,0-1.2,0.9-1.2,2.2c0,1.4,0.4,2.3,1.2,2.3C107.4,101.9,107.7,101,107.7,99.6z"/>
					<path class="st0" d="M111,105.2c1.7-1.6,2.7-3.9,2.7-6.4c0-2.5-1.1-4.7-2.7-6.4l0.9-0.9c2.4,2.1,3.8,4.3,3.8,7.3
						c0,2.9-1.3,5.2-3.8,7.3L111,105.2z"/>
				</g>
			</g>
			<g>
				<g>
					<path class="st0" d="M0.9,172.6c0-3.6,2.1-5.7,4.8-5.7c2.1,0,3.4,0.9,4.2,2.6l-1.6,0.9c-0.4-1-1.2-1.8-2.6-1.8
						c-1.9,0-2.9,1.6-2.9,4c0,2.6,1.1,4.1,3,4.1c1.4,0,2.3-0.8,2.7-2.1l1.6,0.7c-0.7,1.8-2,3-4.3,3C2.9,178.4,0.9,176.4,0.9,172.6z"
						/>
					<path class="st0" d="M11.9,172.6c0-3.7,2.3-5.8,5-5.8c2.7,0,5,2,5,5.8c0,3.7-2.3,5.8-5,5.8C14.2,178.4,11.9,176.4,11.9,172.6z
						 M20,172.6c0-2.5-1.3-4-3.1-4s-3.1,1.5-3.1,4s1.3,4.1,3.1,4.1S20,175.2,20,172.6z"/>
					<path class="st0" d="M23.6,176.5l1-1.4c0.9,0.9,2.2,1.7,3.6,1.7c1.4,0,2.3-0.5,2.3-1.4c0-1-0.7-1.4-2.5-2
						c-2.1-0.6-3.9-1.2-3.9-3.3c0-1.9,1.6-3.1,3.8-3.1c1.7,0,3.1,0.7,4.1,1.6l-0.9,1.5c-0.9-0.8-2.1-1.4-3.2-1.4c-1.3,0-2,0.6-2,1.3
						c0,1,0.8,1.4,2.6,1.9c2.1,0.6,3.8,1.3,3.8,3.4c0,1.8-1.5,3.2-4.1,3.2C26.2,178.4,24.7,177.6,23.6,176.5z"/>
					<path class="st0" d="M37.3,178.2v-9.4h-3.4v-1.7h8.6l0.3,1.7h-3.6v9.4H37.3z"/>
					<path class="st0" d="M48.3,172.6c0-3.7,2.3-5.8,5-5.8c2.7,0,5,2,5,5.8c0,3.7-2.3,5.8-5,5.8C50.6,178.4,48.3,176.4,48.3,172.6z
						 M56.4,172.6c0-2.5-1.3-4-3.1-4s-3.1,1.5-3.1,4s1.3,4.1,3.1,4.1S56.4,175.2,56.4,172.6z"/>
					<path class="st0" d="M60.6,178.2v-11.1h7v1.7h-5.1v3h3.8l0.3,1.7h-4v4.7H60.6z"/>
					<path class="st0" d="M73.9,178.2v-11.1h4c2.6,0,4.2,1,4.2,3.4c0,1.8-0.9,2.7-2.4,3.1l2.6,4.5l-1.8,0.3l-2.7-4.5h-2v4.4H73.9z
						 M75.7,172.2h2c1.6,0,2.4-0.4,2.4-1.7c0-1.2-0.8-1.7-2.4-1.7h-2V172.2z"/>
					<path class="st0" d="M84.8,178.2v-11.1h1.9v11.1H84.8z"/>
					<path class="st0" d="M88.9,176.5l1-1.4c0.9,0.9,2.2,1.7,3.6,1.7c1.4,0,2.3-0.5,2.3-1.4c0-1-0.7-1.4-2.5-2
						c-2.1-0.6-3.9-1.2-3.9-3.3c0-1.9,1.6-3.1,3.8-3.1c1.7,0,3.1,0.7,4.1,1.6l-0.9,1.5c-0.9-0.8-2.1-1.4-3.2-1.4c-1.3,0-2,0.6-2,1.3
						c0,1,0.8,1.4,2.6,1.9c2.1,0.6,3.8,1.3,3.8,3.4c0,1.8-1.5,3.2-4.1,3.2C91.6,178.4,90,177.6,88.9,176.5z"/>
					<path class="st0" d="M100.1,178.2v-11.1h1.9v5.2l4.4-5.2h2.2l-3.8,4.3l4.3,6.7l-2,0.3l-3.6-5.6l-1.6,1.7v3.7H100.1z"/>
					<path class="st0" d="M118.4,181.3c-2.4-2.1-3.8-4.3-3.8-7.3c0-2.9,1.3-5.2,3.8-7.3l0.8,0.9c-1.6,1.7-2.7,3.8-2.7,6.4
						c0,2.6,1.1,4.8,2.7,6.4L118.4,181.3z"/>
					<path class="st0" d="M121,170.4c0-2.1,1.1-3.5,2.8-3.5c1.7,0,2.8,1.4,2.8,3.5c0,2.1-1,3.5-2.8,3.5
						C122,173.9,121,172.5,121,170.4z M125,170.4c0-1.4-0.4-2.3-1.2-2.3c-0.9,0-1.2,0.9-1.2,2.2c0,1.4,0.4,2.3,1.3,2.3
						C124.6,172.7,125,171.8,125,170.4z M124,178.2l6.6-11.1h1.6l-6.6,11.1H124z M129.6,174.8c0-2.1,1.1-3.5,2.8-3.5
						c1.7,0,2.8,1.4,2.8,3.5c0,2.1-1,3.5-2.8,3.5C130.7,178.3,129.6,176.9,129.6,174.8z M133.7,174.8c0-1.4-0.4-2.3-1.2-2.3
						c-0.9,0-1.2,0.9-1.2,2.2c0,1.4,0.4,2.3,1.2,2.3C133.3,177.1,133.7,176.2,133.7,174.8z"/>
					<path class="st0" d="M136.9,180.4c1.7-1.6,2.7-3.9,2.7-6.4c0-2.5-1.1-4.7-2.7-6.4l0.9-0.9c2.4,2.1,3.8,4.3,3.8,7.3
						c0,2.9-1.3,5.2-3.8,7.3L136.9,180.4z"/>
				</g>
			</g>
		</g>
	</g>
	<g>
		<g>
			<polygon class="st3" points="301.7,81.9 301.7,92 541.2,113.3 541.2,103.2 			"/>
		</g>
	</g>
	<g>
		<polygon class="st4" points="301.7,146.5 301.7,156.6 541.2,203 541.2,192.9 		"/>
	</g>
	<g>
		<g>
			<polygon class="st1" points="302.7,2.4 302.7,11.4 542.2,24.7 542.2,15.7 			"/>
		</g>
	</g>
</g>
</svg>
