<?xml version="1.0" encoding="utf-8"?>
<!-- Generator: Adobe Illustrator 19.2.1, SVG Export Plug-In . SVG Version: 6.00 Build 0)  -->
<svg version="1.1" id="Capa_1" xmlns="http://www.w3.org/2000/svg" xmlns:xlink="http://www.w3.org/1999/xlink" x="0px" y="0px"
	 viewBox="0 0 747 472" style="enable-background:new 0 0 747 472;" xml:space="preserve">
<style type="text/css">
	.st0{enable-background:new    ;}
	.st1{fill:#FFFFFF;}
	.st2{fill:#2ECDCD;}
	.st3{fill:#0086CD;}
	.st4{clip-path:url(#SVGID_2_);}
	.st5{clip-path:url(#SVGID_4_);}
	.st6{clip-path:url(#SVGID_6_);}
	.st7{clip-path:url(#SVGID_8_);}
	.st8{clip-path:url(#SVGID_10_);}
	.st9{clip-path:url(#SVGID_12_);}
	.st10{clip-path:url(#SVGID_14_);}
	.st11{clip-path:url(#SVGID_16_);}
	.st12{clip-path:url(#SVGID_18_);}
	.st13{clip-path:url(#SVGID_20_);}
	.st14{clip-path:url(#SVGID_22_);}
	.st15{clip-path:url(#SVGID_24_);}
	.st16{clip-path:url(#SVGID_26_);}
	.st17{clip-path:url(#SVGID_28_);}
	.st18{clip-path:url(#SVGID_30_);}
	.st19{clip-path:url(#SVGID_32_);}
	.st20{clip-path:url(#SVGID_34_);}
	.st21{clip-path:url(#SVGID_36_);}
	.st22{clip-path:url(#SVGID_38_);}
	.st23{clip-path:url(#SVGID_40_);}
	.st24{clip-path:url(#SVGID_42_);}
	.st25{clip-path:url(#SVGID_44_);}
	.st26{clip-path:url(#SVGID_46_);}
	.st27{clip-path:url(#SVGID_48_);}
	.st28{clip-path:url(#SVGID_50_);}
	.st29{clip-path:url(#SVGID_52_);}
	.st30{clip-path:url(#SVGID_54_);}
	.st31{clip-path:url(#SVGID_56_);}
	.st32{clip-path:url(#SVGID_58_);}
	.st33{clip-path:url(#SVGID_60_);}
	.st34{fill:#2A86CA;}
	.st35{fill:none;}
</style>
<title>Page 1</title>
<desc>Created with Sketch.</desc>
<g class="st0">
	<g>
		<path class="st1" d="M590.4,12.3V12c0-1.6,0.8-3.1,3.7-4.9c1.7-1.1,2.3-1.8,2.3-3c0-1.3-0.8-2.2-2.3-2.2c-1.2,0-2.1,0.6-2.8,1.9
			l-0.8-0.5c0.8-1.5,2-2.4,3.6-2.4c2,0,3.3,1.3,3.3,3c0,1.5-0.7,2.5-2.9,3.8c-2,1.3-3,2.5-3.1,3.5h5.9l0.1,1h-7V12.3z"/>
	</g>
	<g>
		<path class="st1" d="M599.1,6.7c0-3.5,1.5-5.8,4.1-5.8s4,2.3,4,5.8s-1.4,5.8-4,5.8S599.1,10.2,599.1,6.7z M606.2,6.7
			c0-3.1-1.2-4.8-3-4.8c-1.9,0-3,1.7-3,4.8s1.2,4.8,3,4.8C605.1,11.5,606.2,9.9,606.2,6.7z"/>
	</g>
	<g>
		<path class="st1" d="M611.4,12.3V2.2l-2.1,0.7L609.1,2l2.3-0.8h1v11.1H611.4z"/>
	</g>
	<g>
		<path class="st1" d="M615.2,6.9c0-3.4,1.8-6,4.4-6c1.2,0,2,0.4,2.6,0.8l-0.5,0.8c-0.6-0.5-1.1-0.8-2.1-0.8c-2.1,0-3.3,2.1-3.3,4.9
			c0.7-0.8,1.8-1.5,3.2-1.5c2.3,0,3.5,1.5,3.5,3.5c0,2.1-1.4,3.7-3.7,3.7C617,12.5,615.2,10.7,615.2,6.9z M621.9,8.8
			c0-1.5-0.8-2.6-2.5-2.6c-1.2,0-2.3,0.7-3,1.6c0.2,2.5,1.4,3.7,2.9,3.7C620.8,11.6,621.9,10.6,621.9,8.8z"/>
	</g>
</g>
<g class="st0">
	<g>
		<path class="st1" d="M714.8,12.3V12c0-1.6,0.8-3.1,3.7-4.9c1.7-1.1,2.3-1.8,2.3-3c0-1.3-0.8-2.2-2.3-2.2c-1.2,0-2.1,0.6-2.8,1.9
			L715,3.3c0.8-1.5,2-2.4,3.6-2.4c2,0,3.3,1.3,3.3,3c0,1.5-0.7,2.5-2.9,3.8c-2,1.3-3,2.5-3.1,3.5h5.9l0.1,1h-7.1V12.3z"/>
	</g>
	<g>
		<path class="st1" d="M723.5,6.7c0-3.5,1.5-5.8,4.1-5.8s4,2.3,4,5.8s-1.4,5.8-4,5.8S723.5,10.2,723.5,6.7z M730.6,6.7
			c0-3.1-1.2-4.8-3-4.8c-1.9,0-3,1.7-3,4.8s1.2,4.8,3,4.8C729.5,11.5,730.6,9.9,730.6,6.7z"/>
	</g>
	<g>
		<path class="st1" d="M735.8,12.3V2.2l-2.1,0.7L733.5,2l2.3-0.8h1v11.1H735.8z"/>
	</g>
	<g>
		<path class="st1" d="M739.6,10.5l0.7-0.7c0.7,1,1.6,1.7,2.9,1.7c1.9,0,2.8-1.4,2.8-2.9c0-1.8-1.1-2.8-2.5-2.8
			c-1.1,0-1.9,0.5-2.5,1.4L740.1,7l0.4-5.8h5.8v1h-5L741.1,6c0.5-0.6,1.3-1,2.5-1c2,0,3.4,1.4,3.4,3.6s-1.5,3.9-3.8,3.9
			C741.6,12.5,740.3,11.7,739.6,10.5z"/>
	</g>
</g>
<g>
	<g>
		<polygon class="st2" points="551.2,4 546.6,13.3 529,13.3 533.6,4 		"/>
	</g>
</g>
<g>
	<g>
		<polygon class="st3" points="672.7,4 668.1,13.3 650.5,13.3 655.1,4 		"/>
	</g>
</g>
<g class="st0">
	<path class="st1" d="M6,37.6v-9.4H2.5v-1.7h8.6l0.3,1.7H7.8v9.4H6z"/>
	<path class="st1" d="M11.9,32.1c0-3.7,2.3-5.8,5-5.8s5,2,5,5.8c0,3.7-2.3,5.8-5,5.8C14.2,37.8,11.9,35.8,11.9,32.1z M20,32.1
		c0-2.5-1.3-4-3.1-4c-1.9,0-3.1,1.5-3.1,4s1.3,4.1,3.1,4.1C18.7,36.2,20,34.6,20,32.1z"/>
	<path class="st1" d="M25.9,37.6v-9.4h-3.4v-1.7h8.6l0.3,1.7h-3.6v9.4H25.9z"/>
	<path class="st1" d="M30.6,37.6l3.9-11.1h1.8l3.9,11l-1.8,0.3L37.5,35h-4.2l-0.9,2.6H30.6z M33.8,33.3H37l-1.5-4.5l0,0L33.8,33.3z"
		/>
	<path class="st1" d="M41.9,37.6V26.5h1.9v9.4h5l0.3,1.7C49.1,37.6,41.9,37.6,41.9,37.6z"/>
	<path class="st1" d="M52.4,37.6l3.9-11.1h1.8l3.9,11l-1.8,0.3L59.3,35h-4.2l-0.9,2.6H52.4z M55.7,33.3h3.1l-1.5-4.5l0,0L55.7,33.3z
		"/>
	<path class="st1" d="M62.6,32c0-3.6,2.1-5.7,4.8-5.7c2.1,0,3.4,0.9,4.2,2.6L70,29.8c-0.4-1-1.2-1.8-2.6-1.8c-1.9,0-2.9,1.6-2.9,4
		c0,2.6,1.1,4.1,3,4.1c1.4,0,2.3-0.8,2.7-2.1l1.6,0.7c-0.7,1.8-2,3-4.3,3C64.7,37.8,62.6,35.8,62.6,32z"/>
	<path class="st1" d="M75.9,37.6v-9.4h-3.4v-1.7h8.6l0.3,1.7h-3.6v9.4H75.9z"/>
	<path class="st1" d="M83,37.6V26.5h1.9v11.1H83z"/>
	<path class="st1" d="M90.5,37.7l-3.8-11l1.8-0.3l2.9,8.8l0,0l2.9-8.7h1.8l-3.9,11.1h-1.7V37.7z"/>
	<path class="st1" d="M96.6,32.1c0-3.7,2.3-5.8,5-5.8s5,2,5,5.8c0,3.7-2.3,5.8-5,5.8C98.9,37.8,96.6,35.8,96.6,32.1z M104.8,32.1
		c0-2.5-1.3-4-3.1-4c-1.9,0-3.1,1.5-3.1,4s1.3,4.1,3.1,4.1C103.5,36.2,104.8,34.6,104.8,32.1z"/>
</g>
<g class="st0">
	<path class="st1" d="M125.8,40.7c-2.4-2.1-3.7-4.3-3.7-7.2c0-2.8,1.3-5.1,3.7-7.2l0.5,0.5c-1.9,1.7-3.1,4-3.1,6.6
		c0,2.7,1.2,4.9,3.1,6.7L125.8,40.7z"/>
	<path class="st1" d="M128.5,37.6V26.5h1.4l3.7,9.7l0,0l3.7-9.7h1.4v11.1h-1.1v-9.3l0,0c-0.1,0.5-0.4,1.2-0.7,2l-2.9,7.4h-1
		l-2.9-7.4c-0.3-0.7-0.4-1.2-0.7-2l0,0v9.3C129.4,37.6,128.5,37.6,128.5,37.6z"/>
	<path class="st1" d="M141.6,37.6V26.5h1.4l3.7,9.7l0,0l3.7-9.7h1.4v11.1h-1.1v-9.3l0,0c-0.2,0.5-0.4,1.2-0.7,2l-2.9,7.4h-1
		l-2.9-7.4c-0.3-0.7-0.5-1.2-0.7-2l0,0v9.3C142.5,37.6,141.6,37.6,141.6,37.6z"/>
	<path class="st1" d="M155.3,31.4h-1.8v-0.8h1.9c0.4-2.9,2.2-4.2,4-4.2c2,0,3,1.3,3.5,3l-1,0.4c-0.5-1.5-1-2.4-2.6-2.4
		c-1.4,0-2.7,1-3,3.3h3.4v0.8h-3.5c0,0.2,0,0.4,0,0.6c0,0.3,0,0.6,0,0.8h3.5v0.9h-3.4c0.3,2.1,1.4,3.3,3,3.3c1.5,0,2.3-0.9,2.7-2.5
		l0.9,0.4c-0.5,1.8-1.7,3.1-3.7,3.1s-3.6-1.3-4-4.2h-1.9V33h1.8c0-0.2,0-0.5,0-0.8C155.3,31.8,155.3,31.5,155.3,31.4z"/>
	<path class="st1" d="M164.8,40.2c1.9-1.7,3.1-4,3.1-6.7c0-2.6-1.2-4.9-3.1-6.6l0.5-0.5c2.4,2.1,3.8,4.3,3.8,7.2
		c0,2.8-1.3,5.1-3.8,7.2L164.8,40.2z"/>
</g>
<g class="st0">
	<path class="st1" d="M1,124.4c0-3.6,2.1-5.7,4.8-5.7c2.1,0,3.4,0.9,4.2,2.6l-1.6,0.9c-0.4-1-1.2-1.8-2.6-1.8c-1.9,0-2.9,1.6-2.9,4
		c0,2.6,1.1,4.1,3,4.1c1.4,0,2.3-0.8,2.7-2.1l1.6,0.7c-0.7,1.8-2,3-4.3,3C3,130.2,1,128.1,1,124.4z"/>
	<path class="st1" d="M12.2,130v-11.1h4c2.6,0,4.2,1,4.2,3.4c0,1.8-0.9,2.7-2.4,3.1l2.6,4.5l-1.8,0.3l-2.7-4.5h-2v4.4L12.2,130
		L12.2,130z M14,123.9h2c1.6,0,2.4-0.5,2.4-1.7s-0.8-1.7-2.4-1.7h-2V123.9z"/>
	<path class="st1" d="M22.5,130v-11.1h7.2v1.7h-5.3v2.8h4l0.3,1.7h-4.3v3.2H30v1.7H22.5z M26.4,115.7h2l-2.2,2.5H25L26.4,115.7z"/>
	<path class="st1" d="M31.8,130v-11.1H35c3.5,0,5.8,1.6,5.8,5.5c0,4-2.3,5.6-5.8,5.6H31.8z M33.7,128.3h1.5c2.6,0,3.7-1.2,3.7-3.9
		c0-2.6-1.2-3.8-3.8-3.8h-1.4V128.3z"/>
	<path class="st1" d="M42.9,130v-11.1h1.9V130H42.9z"/>
	<path class="st1" d="M50,130v-9.4h-3.4v-1.7h8.6l0.3,1.7h-3.6v9.4H50z"/>
	<path class="st1" d="M55.8,124.4c0-3.7,2.3-5.8,5-5.8s5,2,5,5.8c0,3.7-2.3,5.8-5,5.8C58.2,130.2,55.8,128.1,55.8,124.4z M64,124.4
		c0-2.5-1.3-4-3.1-4c-1.9,0-3.1,1.5-3.1,4s1.3,4.1,3.1,4.1S64,126.9,64,124.4z"/>
	<path class="st1" d="M67,128.3l1-1.4c0.9,0.9,2.2,1.6,3.6,1.6s2.3-0.5,2.3-1.4c0-1-0.7-1.4-2.5-2c-2.1-0.6-3.9-1.2-3.9-3.3
		c0-1.9,1.6-3.1,3.8-3.1c1.7,0,3.1,0.7,4.1,1.6l-0.9,1.5c-0.9-0.8-2.1-1.4-3.2-1.4c-1.3,0-2,0.6-2,1.3c0,1,0.8,1.4,2.6,1.9
		c2.1,0.6,3.8,1.3,3.8,3.4c0,1.8-1.5,3.2-4.1,3.2C69.7,130.2,68.1,129.3,67,128.3z"/>
	<path class="st1" d="M80.2,130l3.9-11.1H86l3.9,11l-1.8,0.3l-0.9-2.8H83l-1,2.6H80.2z M83.5,125.7h3.1l-1.5-4.5l0,0L83.5,125.7z"/>
	<path class="st1" d="M94.9,130v-11.1h1.9v9.4h5l0.3,1.7H94.9z"/>
	<path class="st1" d="M102.6,130l3.9-11.1h1.8l3.9,11l-1.8,0.3l-0.9-2.8h-4.2l-0.9,2.6H102.6z M105.9,125.7h3.1l-1.5-4.5l0,0
		L105.9,125.7z"/>
	<path class="st1" d="M116.7,124.4c0-3.6,2.1-5.7,4.8-5.7c2.1,0,3.4,0.9,4.2,2.6l-1.6,0.9c-0.4-1-1.2-1.8-2.6-1.8
		c-1.9,0-2.9,1.6-2.9,4c0,2.6,1.1,4.1,3,4.1c1.4,0,2.3-0.8,2.7-2.1l1.6,0.7c-0.7,1.8-2,3-4.3,3C118.8,130.2,116.7,128.1,116.7,124.4
		z"/>
	<path class="st1" d="M127.9,130v-11.1h1.9v9.4h5l0.3,1.7H127.9z"/>
	<path class="st1" d="M136.7,130v-11.1h1.9V130H136.7z"/>
	<path class="st1" d="M141.2,130v-11.1h7.2v1.7h-5.3v2.8h4l0.3,1.7h-4.3v3.2h5.6v1.7H141.2z"/>
	<path class="st1" d="M150.6,130v-11.1h1.9l5.2,7.9l0,0v-7.9h1.7V130h-1.7l-5.5-8.1l0,0v8.1H150.6z"/>
	<path class="st1" d="M164.6,130v-9.4h-3.4v-1.7h8.6l0.3,1.7h-3.6v9.4H164.6z"/>
	<path class="st1" d="M171.5,130v-11.1h7.2v1.7h-5.3v2.8h4l0.3,1.7h-4.3v3.2h5.6v1.7H171.5z"/>
	<path class="st1" d="M180.8,130v-11.1h1.9v9.4h5l0.3,1.7H180.8z"/>
	<path class="st1" d="M188.6,130l3.9-11.1h1.8l3.9,11l-1.8,0.3l-0.9-2.8h-4.2l-0.9,2.6H188.6z M191.8,125.7h3.1l-1.5-4.5l0,0
		L191.8,125.7z"/>
</g>
<g class="st0">
	<path class="st1" d="M218.1,133c-2.4-2.1-3.7-4.3-3.7-7.2c0-2.8,1.3-5.1,3.7-7.2l0.5,0.5c-1.9,1.7-3.1,4-3.1,6.6
		c0,2.7,1.2,4.9,3.1,6.7L218.1,133z"/>
	<path class="st1" d="M220.8,130v-11.1h3.9c2.5,0,3.8,1,3.8,2.8c0,1.5-1,2.3-2.1,2.6l0,0c1.3,0.2,2.5,1.1,2.5,2.7c0,1.8-1.2,3-3.8,3
		H220.8z M221.9,123.8h2.7c1.8,0,2.8-0.6,2.8-2c0-1.3-0.9-2-2.8-2h-2.7V123.8z M221.9,129h3.1c1.9,0,2.8-0.8,2.8-2.1
		c0-1.5-1.2-2.2-3.1-2.2h-2.8V129z"/>
	<path class="st1" d="M230.9,130v-7.9h0.9l0.1,1.5l0,0c0.6-1,1.6-1.7,3.1-1.7h0.1l0.1,1c0,0-0.3,0-0.4,0c-1.3,0-2.4,0.7-3,2v5.1
		H230.9z"/>
	<path class="st1" d="M236.7,127.8v-5.7h1v5.5c0,1.1,0.5,1.7,1.6,1.7c1,0,1.9-0.5,2.8-1.4v-5.8h1v7.9h-0.9l-0.1-1.2
		c-0.8,0.8-1.8,1.4-3,1.4C237.5,130.1,236.7,129.3,236.7,127.8z"/>
	<path class="st1" d="M246,128.1V123h-1.4v-0.9h1.4v-2.8l1-0.1v2.9h2.1v0.9H247v5c0,0.8,0.3,1.3,1.2,1.3c0.3,0,0.6,0,0.8-0.1
		l0.1,0.9c-0.3,0-0.7,0.1-1.1,0.1C246.7,130.1,246,129.5,246,128.1z"/>
	<path class="st1" d="M250.4,126c0-2.6,1.6-4.1,3.6-4.1c1.9,0,3.6,1.5,3.6,4.1c0,2.6-1.6,4.1-3.6,4.1S250.4,128.6,250.4,126z
		 M256.5,126c0-1.7-0.9-3.2-2.5-3.2s-2.5,1.4-2.5,3.2c0,1.8,0.9,3.2,2.5,3.2C255.5,129.2,256.5,127.9,256.5,126z"/>
	<path class="st1" d="M258.6,132.5c1.9-1.7,3.1-4,3.1-6.7c0-2.6-1.2-4.9-3.1-6.6l0.5-0.5c2.4,2.1,3.8,4.3,3.8,7.2
		c0,2.8-1.3,5.1-3.8,7.2L258.6,132.5z"/>
	<path class="st1" d="M268.5,133c-2.4-2.1-3.7-4.3-3.7-7.2c0-2.8,1.3-5.1,3.7-7.2l0.5,0.5c-1.9,1.7-3.1,4-3.1,6.6
		c0,2.7,1.2,4.9,3.1,6.7L268.5,133z"/>
	<path class="st1" d="M271.2,130v-11.1h1.4l3.7,9.7l0,0l3.7-9.7h1.4V130h-1.1v-9.3l0,0c-0.1,0.5-0.4,1.2-0.7,2l-2.9,7.4h-1l-2.9-7.4
		c-0.3-0.7-0.4-1.2-0.7-2l0,0v9.3L271.2,130L271.2,130z"/>
	<path class="st1" d="M284.2,130v-11.1h1.4l3.7,9.7l0,0l3.7-9.7h1.4V130h-1.1v-9.3l0,0c-0.1,0.5-0.4,1.2-0.7,2l-2.9,7.4h-1l-2.9-7.4
		c-0.3-0.7-0.4-1.2-0.7-2l0,0v9.3L284.2,130L284.2,130z"/>
	<path class="st1" d="M298,123.7h-1.8v-0.8h1.9c0.4-2.9,2.2-4.2,4-4.2c2,0,3,1.3,3.5,3l-1,0.4c-0.5-1.5-1-2.4-2.6-2.4
		c-1.4,0-2.7,1-3,3.3h3.4v0.8H299c0,0.2,0,0.4,0,0.6c0,0.3,0,0.6,0,0.8h3.5v0.9h-3.4c0.3,2.1,1.4,3.3,3,3.3c1.5,0,2.3-0.9,2.7-2.5
		l0.9,0.4c-0.5,1.8-1.7,3.1-3.7,3.1s-3.6-1.3-4-4.2h-1.9v-0.9h1.8c0-0.2,0-0.5,0-0.8C298,124.2,298,123.9,298,123.7z"/>
	<path class="st1" d="M307.4,132.5c1.9-1.7,3.1-4,3.1-6.7c0-2.6-1.2-4.9-3.1-6.6l0.5-0.5c2.4,2.1,3.8,4.3,3.8,7.2
		c0,2.8-1.3,5.1-3.8,7.2L307.4,132.5z"/>
</g>
<g class="st0">
	<path class="st1" d="M2.1,224.5v-11.1h3.1c3.5,0,5.8,1.6,5.8,5.5c0,4-2.3,5.6-5.8,5.6H2.1z M3.9,222.8h1.5c2.6,0,3.7-1.2,3.7-3.9
		c0-2.6-1.2-3.8-3.8-3.8H3.9V222.8z"/>
	<path class="st1" d="M13,224.5v-11.1h7.2v1.7h-5.3v2.8h4l0.3,1.7h-4.3v3.2h5.6v1.7L13,224.5L13,224.5z"/>
	<path class="st1" d="M22.3,224.5v-11.1h3.9c2.4,0,4.3,0.8,4.3,3.4c0,2.7-2,3.5-4.3,3.5h-2v4.2L22.3,224.5L22.3,224.5z M24.1,218.6
		h2.1c1.6,0,2.4-0.6,2.4-1.8s-0.7-1.7-2.4-1.7h-2v3.5H24.1z"/>
	<path class="st1" d="M31.7,218.9c0-3.7,2.3-5.8,5-5.8s5,2,5,5.8c0,3.7-2.3,5.8-5,5.8S31.7,222.7,31.7,218.9z M39.8,218.9
		c0-2.5-1.3-4-3.1-4c-1.9,0-3.1,1.5-3.1,4s1.3,4.1,3.1,4.1C38.6,223,39.8,221.4,39.8,218.9z M37.1,210.2h2l-2.2,2.5h-1.2L37.1,210.2
		z"/>
	<path class="st1" d="M42.8,222.8l1-1.4c0.9,0.9,2.2,1.6,3.6,1.6c1.4,0,2.3-0.5,2.3-1.4c0-1-0.7-1.4-2.5-2c-2.1-0.6-3.9-1.2-3.9-3.3
		c0-1.9,1.6-3.1,3.8-3.1c1.7,0,3.1,0.7,4.1,1.6l-0.9,1.5c-0.9-0.8-2.1-1.4-3.2-1.4c-1.3,0-2,0.6-2,1.3c0,1,0.8,1.4,2.6,1.9
		c2.1,0.6,3.8,1.3,3.8,3.4c0,1.8-1.5,3.2-4.1,3.2C45.5,224.7,43.9,223.9,42.8,222.8z"/>
	<path class="st1" d="M53.8,224.5v-11.1h1.9v11.1H53.8z"/>
	<path class="st1" d="M60.8,224.5v-9.4h-3.4v-1.7H66l0.3,1.7h-3.6v9.4H60.8z"/>
	<path class="st1" d="M66.7,218.9c0-3.7,2.3-5.8,5-5.8s5,2,5,5.8c0,3.7-2.3,5.8-5,5.8C69.1,224.7,66.7,222.7,66.7,218.9z
		 M74.9,218.9c0-2.5-1.3-4-3.1-4c-1.9,0-3.1,1.5-3.1,4s1.3,4.1,3.1,4.1S74.9,221.4,74.9,218.9z"/>
	<path class="st1" d="M77.9,222.8l1-1.4c0.9,0.9,2.2,1.6,3.6,1.6s2.3-0.5,2.3-1.4c0-1-0.7-1.4-2.5-2c-2.1-0.6-3.9-1.2-3.9-3.3
		c0-1.9,1.6-3.1,3.8-3.1c1.7,0,3.1,0.7,4.1,1.6l-0.9,1.5c-0.9-0.8-2.1-1.4-3.2-1.4c-1.3,0-2,0.6-2,1.3c0,1,0.8,1.4,2.6,1.9
		c2.1,0.6,3.8,1.3,3.8,3.4c0,1.8-1.5,3.2-4.1,3.2C80.6,224.7,79,223.9,77.9,222.8z"/>
	<path class="st1" d="M92.5,224.5v-11.1h3.1c3.5,0,5.8,1.6,5.8,5.5c0,4-2.3,5.6-5.8,5.6H92.5z M94.3,222.8h1.5
		c2.6,0,3.7-1.2,3.7-3.9c0-2.6-1.2-3.8-3.8-3.8h-1.4C94.3,215.1,94.3,222.8,94.3,222.8z"/>
	<path class="st1" d="M103.4,224.5v-11.1h7.2v1.7h-5.3v2.8h4l0.3,1.7h-4.3v3.2h5.6v1.7L103.4,224.5L103.4,224.5z"/>
	<path class="st1" d="M116.4,224.5v-11.1h1.9v9.4h5l0.3,1.7L116.4,224.5L116.4,224.5z"/>
	<path class="st1" d="M124.2,224.5l3.9-11.1h1.8l3.9,11l-1.8,0.3l-0.9-2.8h-4.2l-0.9,2.6H124.2z M127.4,220.2h3.1l-1.5-4.5l0,0
		L127.4,220.2z"/>
	<path class="st1" d="M138.3,218.9c0-3.6,2.1-5.7,4.8-5.7c2.1,0,3.4,0.9,4.2,2.6l-1.6,0.9c-0.4-1-1.2-1.8-2.6-1.8
		c-1.9,0-2.9,1.6-2.9,4c0,2.6,1.1,4.1,3,4.1c1.4,0,2.3-0.8,2.7-2.1l1.6,0.7c-0.7,1.8-2,3-4.3,3C140.4,224.7,138.3,222.6,138.3,218.9
		z"/>
	<path class="st1" d="M149.5,224.5v-11.1h1.9v9.4h5l0.3,1.7L149.5,224.5L149.5,224.5z"/>
	<path class="st1" d="M158.3,224.5v-11.1h1.9v11.1H158.3z"/>
	<path class="st1" d="M162.8,224.5v-11.1h7.2v1.7h-5.3v2.8h4l0.3,1.7h-4.3v3.2h5.6v1.7L162.8,224.5L162.8,224.5z"/>
	<path class="st1" d="M172.1,224.5v-11.1h1.9l5.2,7.9l0,0v-7.9h1.7v11.1h-1.7l-5.5-8.1l0,0v8.1H172.1z"/>
	<path class="st1" d="M186.1,224.5v-9.4h-3.4v-1.7h8.6l0.3,1.7H188v9.4H186.1z"/>
	<path class="st1" d="M193.1,224.5v-11.1h7.2v1.7H195v2.8h4l0.3,1.7H195v3.2h5.6v1.7L193.1,224.5L193.1,224.5z"/>
	<path class="st1" d="M202.4,224.5v-11.1h1.9v9.4h5l0.3,1.7L202.4,224.5L202.4,224.5z"/>
	<path class="st1" d="M210.2,224.5l3.9-11.1h1.8l3.9,11l-1.8,0.3l-0.9-2.8h-4.2l-0.9,2.6H210.2z M213.4,220.2h3.1l-1.5-4.5l0,0
		L213.4,220.2z"/>
</g>
<g class="st0">
	<path class="st1" d="M239.7,227.5c-2.4-2.1-3.7-4.3-3.7-7.2c0-2.8,1.3-5.1,3.7-7.2l0.5,0.5c-1.9,1.7-3.1,4-3.1,6.6
		c0,2.7,1.2,4.9,3.1,6.7L239.7,227.5z"/>
	<path class="st1" d="M242.4,224.5v-11.1h1.4l3.7,9.7l0,0l3.7-9.7h1.4v11.1h-1.1v-9.3l0,0c-0.1,0.5-0.4,1.2-0.7,2l-2.9,7.4h-1
		l-2.9-7.4c-0.3-0.7-0.4-1.2-0.7-2l0,0v9.3H242.4z"/>
	<path class="st1" d="M255.4,224.5v-11.1h1.4l3.7,9.7l0,0l3.7-9.7h1.4v11.1h-1.1v-9.3l0,0c-0.1,0.5-0.4,1.2-0.7,2l-2.9,7.4h-1
		l-2.9-7.4c-0.3-0.7-0.4-1.2-0.7-2l0,0v9.3H255.4z"/>
	<path class="st1" d="M269.2,218.2h-1.8v-0.8h1.9c0.4-2.9,2.2-4.2,4-4.2c2,0,3,1.3,3.5,3l-1,0.4c-0.5-1.5-1-2.4-2.6-2.4
		c-1.4,0-2.7,1-3,3.3h3.4v0.8h-3.5c0,0.2,0,0.4,0,0.6c0,0.3,0,0.6,0,0.8h3.5v0.9h-3.4c0.3,2.1,1.4,3.3,3,3.3c1.5,0,2.3-0.9,2.7-2.5
		l0.9,0.4c-0.5,1.8-1.7,3.1-3.7,3.1s-3.6-1.3-4-4.2h-1.9v-0.9h1.8c0-0.2,0-0.5,0-0.8C269.2,218.7,269.2,218.4,269.2,218.2z"/>
	<path class="st1" d="M278.6,227c1.9-1.7,3.1-4,3.1-6.7c0-2.6-1.2-4.9-3.1-6.6l0.5-0.5c2.4,2.1,3.8,4.3,3.8,7.2
		c0,2.8-1.3,5.1-3.8,7.2L278.6,227z"/>
</g>
<g class="st0">
	<path class="st1" d="M2.5,413.3v-11.1h3.9c2.4,0,4.3,0.8,4.3,3.4c0,2.7-2,3.5-4.3,3.5h-2v4.2H2.5z M4.4,407.5h2.1
		c1.6,0,2.4-0.6,2.4-1.8c0-1.2-0.7-1.7-2.4-1.7h-2L4.4,407.5L4.4,407.5z"/>
	<path class="st1" d="M10.3,413.3l3.9-11.1H16l3.9,11l-1.8,0.3l-0.9-2.8H13l-0.9,2.6H10.3z M13.6,409h3.1l-1.5-4.5l0,0L13.6,409z"/>
	<path class="st1" d="M22.9,413.3v-9.4h-3.4v-1.7H28l0.3,1.7h-3.6v9.4H22.9z"/>
	<path class="st1" d="M29.8,413.3v-11.1h4c2.6,0,4.2,1,4.2,3.4c0,1.8-0.9,2.7-2.4,3.1l2.6,4.5l-1.8,0.3l-2.7-4.5h-2v4.4L29.8,413.3
		L29.8,413.3z M31.7,407.3h2c1.6,0,2.4-0.5,2.4-1.7s-0.8-1.7-2.4-1.7h-2V407.3z"/>
	<path class="st1" d="M40.3,413.3v-11.1h1.9v11.1H40.3z"/>
	<path class="st1" d="M44.9,413.3v-11.1h2.5l3,8.8l0,0l2.9-8.8h2.5v11.1H54V405l0,0c-0.2,0.8-0.4,1.5-0.6,2.3l-2.2,6h-1.7l-2.2-6
		c-0.3-0.8-0.4-1.3-0.7-2.3l0,0v8.4h-1.7V413.3z"/>
	<path class="st1" d="M57.7,407.8c0-3.7,2.3-5.8,5-5.8s5,2,5,5.8c0,3.7-2.3,5.8-5,5.8C60,413.5,57.7,411.5,57.7,407.8z M65.9,407.8
		c0-2.5-1.3-4-3.1-4c-1.9,0-3.1,1.5-3.1,4s1.3,4.1,3.1,4.1C64.6,411.8,65.9,410.3,65.9,407.8z"/>
	<path class="st1" d="M69.7,413.3v-11.1h1.9l5.2,7.9l0,0v-7.9h1.7v11.1h-1.7l-5.5-8.1l0,0v8.1H69.7z"/>
	<path class="st1" d="M81.3,413.3v-11.1h1.9v11.1H81.3z"/>
	<path class="st1" d="M85.3,407.8c0-3.7,2.3-5.8,5-5.8s5,2,5,5.8c0,3.7-2.3,5.8-5,5.8C87.6,413.5,85.3,411.5,85.3,407.8z
		 M93.4,407.8c0-2.5-1.3-4-3.1-4c-1.9,0-3.1,1.5-3.1,4s1.3,4.1,3.1,4.1C92.2,411.8,93.4,410.3,93.4,407.8z"/>
	<path class="st1" d="M101,413.3v-11.1h1.9l5.2,7.9l0,0v-7.9h1.7v11.1h-1.7l-5.5-8.1l0,0v8.1H101z"/>
	<path class="st1" d="M112.5,413.3v-11.1h7.2v1.7h-5.3v2.8h4l0.3,1.7h-4.3v3.2h5.6v1.7L112.5,413.3L112.5,413.3z"/>
	<path class="st1" d="M124.4,413.3v-9.4H121v-1.7h8.6l0.3,1.7h-3.6v9.4H124.4z"/>
	<path class="st1" d="M130.3,407.8c0-3.7,2.3-5.8,5-5.8s5,2,5,5.8c0,3.7-2.3,5.8-5,5.8C132.6,413.5,130.3,411.5,130.3,407.8z
		 M138.4,407.8c0-2.5-1.3-4-3.1-4c-1.9,0-3.1,1.5-3.1,4s1.3,4.1,3.1,4.1C137.1,411.8,138.4,410.3,138.4,407.8z"/>
</g>
<g class="st0">
	<path class="st1" d="M158.5,416.4c-2.4-2.1-3.7-4.3-3.7-7.2c0-2.8,1.3-5.1,3.7-7.2l0.5,0.5c-1.9,1.7-3.1,4-3.1,6.6
		c0,2.7,1.2,4.9,3.1,6.7L158.5,416.4z"/>
	<path class="st1" d="M161.2,413.3v-11.1h1.4l3.7,9.7l0,0l3.7-9.7h1.4v11.1h-1.1V404l0,0c-0.1,0.5-0.4,1.2-0.7,2l-2.9,7.4h-1
		l-2.9-7.4c-0.3-0.7-0.4-1.2-0.7-2l0,0v9.3H161.2z"/>
	<path class="st1" d="M174.3,413.3v-11.1h1.4l3.7,9.7l0,0l3.7-9.7h1.4v11.1h-1.1V404l0,0c-0.1,0.5-0.4,1.2-0.7,2l-2.9,7.4h-1
		l-2.9-7.4c-0.3-0.7-0.4-1.2-0.7-2l0,0v9.3H174.3z"/>
	<path class="st1" d="M188,407h-1.8v-0.8h1.9c0.4-2.9,2.2-4.2,4-4.2c2,0,3,1.3,3.5,3l-1,0.4c-0.5-1.5-1-2.4-2.6-2.4
		c-1.4,0-2.7,1-3,3.3h3.4v0.8h-3.5c0,0.2,0,0.4,0,0.6c0,0.3,0,0.6,0,0.8h3.5v0.9H189c0.3,2.1,1.4,3.3,3,3.3c1.5,0,2.3-0.9,2.7-2.5
		l0.9,0.4c-0.5,1.8-1.7,3.1-3.7,3.1s-3.6-1.3-4-4.2H186v-0.9h1.8c0-0.2,0-0.5,0-0.8C188,407.5,188,407.2,188,407z"/>
	<path class="st1" d="M197.5,415.9c1.9-1.7,3.1-4,3.1-6.7c0-2.6-1.2-4.9-3.1-6.6l0.5-0.5c2.4,2.1,3.8,4.3,3.8,7.2
		c0,2.8-1.3,5.1-3.8,7.2L197.5,415.9z"/>
</g>
<g class="st0">
	<path class="st1" d="M651.2,87.4l4.7-10.1h-5.7l-0.1-1h6.9v0.9l-4.7,10.2H651.2z"/>
	<path class="st1" d="M657.9,85.7l0.7-0.7c0.7,1,1.6,1.7,2.9,1.7c1.9,0,2.8-1.4,2.8-2.9c0-1.8-1.1-2.8-2.5-2.8
		c-1.1,0-1.9,0.5-2.5,1.4l-0.8-0.3l0.4-5.8h5.8v1h-5l-0.3,3.9c0.5-0.6,1.3-1,2.5-1c2,0,3.4,1.4,3.4,3.6s-1.5,3.9-3.8,3.9
		C659.9,87.7,658.6,86.9,657.9,85.7z"/>
	<path class="st1" d="M666.8,81.9c0-3.5,1.5-5.8,4.1-5.8s4,2.3,4,5.8s-1.4,5.8-4,5.8C668.3,87.7,666.8,85.4,666.8,81.9z M673.9,81.9
		c0-3.1-1.2-4.8-3-4.8c-1.9,0-3,1.7-3,4.8s1.2,4.8,3,4.8C672.8,86.7,673.9,85.1,673.9,81.9z"/>
</g>
<g>
	<g class="st0">
		<path class="st1" d="M639.4,66.1L644,56h-5.7l-0.1-1h6.9v1l-4.7,10.2L639.4,66.1z"/>
		<path class="st1" d="M645.9,64.3l0.7-0.6c0.8,1.2,1.8,1.7,3.1,1.7c1.7,0,2.7-0.9,2.7-2.2c0-1.6-0.9-2.4-3.6-2.4h-0.4l-0.1-0.9h0.5
			c2.4,0,3.2-0.7,3.2-2.1c0-1.1-0.7-1.9-2.4-1.9c-1.1,0-2,0.6-2.7,1.4l-0.7-0.7c0.8-0.9,1.9-1.7,3.4-1.7c2.3,0,3.3,1.3,3.3,2.8
			c0,1.4-0.9,2.4-2.2,2.6c1.7,0.3,2.5,1.3,2.5,2.9c0,1.8-1.4,3.2-3.7,3.2C648.1,66.4,646.7,65.6,645.9,64.3z"/>
		<path class="st1" d="M655,66.1v-0.2c0-1.6,0.8-3.1,3.7-4.9c1.7-1.1,2.3-1.8,2.3-3c0-1.3-0.8-2.2-2.3-2.2c-1.2,0-2.1,0.6-2.8,1.9
			l-0.8-0.5c0.8-1.5,2-2.4,3.6-2.4c2,0,3.3,1.3,3.3,3c0,1.5-0.7,2.5-2.9,3.8c-2,1.3-3,2.5-3.1,3.5h5.9l0.1,1H655z"/>
	</g>
</g>
<g>
	<g class="st0">
		<path class="st1" d="M386.2,159.6V157h-5.3v-0.8l5.1-7.6h1.3v7.5h1.8v0.9h-1.9v2.7L386.2,159.6L386.2,159.6z M382.1,156h4.1v-6.2
			l0,0L382.1,156z"/>
		<path class="st1" d="M389.9,157.8l0.7-0.6c0.8,1.2,1.8,1.7,3.1,1.7c1.7,0,2.7-0.9,2.7-2.2c0-1.6-0.9-2.4-3.6-2.4h-0.4l-0.1-0.9
			h0.5c2.4,0,3.2-0.7,3.2-2.1c0-1.1-0.7-1.9-2.4-1.9c-1.1,0-2,0.6-2.7,1.4l-0.7-0.7c0.8-0.9,1.9-1.7,3.4-1.7c2.3,0,3.3,1.3,3.3,2.8
			c0,1.4-0.9,2.4-2.2,2.6c1.7,0.3,2.5,1.3,2.5,2.9c0,1.8-1.4,3.2-3.7,3.2C392.1,159.9,390.8,159.1,389.9,157.8z"/>
		<path class="st1" d="M399.2,154.1c0-3.5,1.5-5.8,4.1-5.8s4,2.3,4,5.8s-1.4,5.8-4,5.8C400.6,159.9,399.2,157.6,399.2,154.1z
			 M406.2,154.1c0-3.1-1.2-4.8-3-4.8c-1.9,0-3,1.7-3,4.8s1.2,4.8,3,4.8C405.1,158.9,406.2,157.2,406.2,154.1z"/>
	</g>
</g>
<g>
	<g class="st0">
		<path class="st1" d="M372.5,258.3v-2.7h-5.3v-0.8l5.1-7.6h1.3v7.5h1.8v0.9h-1.9v2.7H372.5z M368.3,254.6h4.1v-6.2l0,0L368.3,254.6
			z"/>
		<path class="st1" d="M376.6,252.7c0-3.5,1.5-5.8,4.1-5.8s4,2.3,4,5.8c0,3.5-1.4,5.8-4,5.8C378,258.5,376.6,256.2,376.6,252.7z
			 M383.6,252.7c0-3.1-1.2-4.8-3-4.8c-1.9,0-3,1.7-3,4.8s1.2,4.8,3,4.8C382.5,257.5,383.6,255.9,383.6,252.7z"/>
		<path class="st1" d="M388.8,258.3v-10.1l-2.1,0.7l-0.1-0.9l2.3-0.8h1v11.1H388.8z"/>
	</g>
</g>
<g>
	<g class="st0">
		<path class="st1" d="M373.2,279v-2.7h-5.3v-0.8l5.1-7.6h1.3v7.5h1.8v0.9h-1.9v2.7H373.2z M369,275.4h4.1v-6.2l0,0L369,275.4z"/>
		<path class="st1" d="M377.2,273.4c0-3.5,1.5-5.8,4.1-5.8s4,2.3,4,5.8s-1.4,5.8-4,5.8C378.7,279.2,377.2,276.9,377.2,273.4z
			 M384.3,273.4c0-3.1-1.2-4.8-3-4.8c-1.9,0-3,1.7-3,4.8s1.2,4.8,3,4.8C383.2,278.3,384.3,276.6,384.3,273.4z"/>
		<path class="st1" d="M386.5,277.1l0.7-0.6c0.8,1.2,1.8,1.7,3.1,1.7c1.7,0,2.7-0.9,2.7-2.2c0-1.6-0.9-2.4-3.6-2.4H389l-0.1-0.9h0.5
			c2.4,0,3.2-0.7,3.2-2.1c0-1.1-0.7-1.9-2.4-1.9c-1.1,0-2,0.6-2.7,1.4l-0.7-0.7c0.8-0.9,1.9-1.7,3.4-1.7c2.3,0,3.3,1.3,3.3,2.8
			c0,1.4-0.9,2.4-2.2,2.6c1.7,0.3,2.5,1.3,2.5,2.9c0,1.8-1.4,3.2-3.7,3.2C388.7,279.2,387.3,278.5,386.5,277.1z"/>
	</g>
</g>
<g>
	<g class="st0">
		<path class="st1" d="M79.6,445.6l0.7-0.7c0.7,1,1.6,1.7,2.9,1.7c1.9,0,2.8-1.4,2.8-2.9c0-1.8-1.1-2.8-2.5-2.8
			c-1.1,0-1.9,0.5-2.5,1.4l-0.8-0.3l0.4-5.8h5.8v1h-5l-0.3,3.9c0.5-0.6,1.3-1,2.5-1c2,0,3.4,1.4,3.4,3.6s-1.5,3.9-3.8,3.9
			C81.7,447.6,80.4,446.8,79.6,445.6z"/>
		<path class="st1" d="M88.4,445.6l0.7-0.7c0.7,1,1.6,1.7,2.9,1.7c1.9,0,2.8-1.4,2.8-2.9c0-1.8-1.1-2.8-2.5-2.8
			c-1.1,0-1.9,0.5-2.5,1.4L89,442l0.4-5.8h5.8v1h-5l-0.3,3.9c0.5-0.6,1.3-1,2.5-1c2,0,3.4,1.4,3.4,3.6s-1.5,3.9-3.8,3.9
			C90.4,447.6,89.1,446.8,88.4,445.6z"/>
	</g>
</g>
<g>
	<g class="st0">
		<path class="st1" d="M79.7,465.8l0.7-0.7c0.7,1,1.6,1.7,2.9,1.7c1.9,0,2.8-1.4,2.8-2.9c0-1.8-1.1-2.8-2.5-2.8
			c-1.1,0-1.9,0.5-2.5,1.4l-0.8-0.3l0.4-5.8h5.8v1h-5l-0.3,3.9c0.5-0.6,1.3-1,2.5-1c2,0,3.4,1.4,3.4,3.6s-1.5,3.9-3.8,3.9
			C81.7,467.8,80.4,467,79.7,465.8z"/>
		<path class="st1" d="M88.4,465.8l0.7-0.7c0.7,1,1.6,1.7,2.9,1.7c1.9,0,2.8-1.4,2.8-2.9c0-1.8-1.1-2.8-2.5-2.8
			c-1.1,0-1.9,0.5-2.5,1.4l-0.8-0.3l0.4-5.8h5.8v1h-5l-0.3,3.9c0.5-0.6,1.3-1,2.5-1c2,0,3.4,1.4,3.4,3.6s-1.5,3.9-3.8,3.9
			C90.5,467.8,89.2,467,88.4,465.8z"/>
	</g>
</g>
<g>
	<g class="st0">
		<path class="st1" d="M390,181.6V179h-5.3v-0.8l5.1-7.6h1.3v7.5h1.8v0.9H391v2.7L390,181.6L390,181.6z M385.9,178h4.1v-6.2l0,0
			L385.9,178z"/>
		<path class="st1" d="M393.8,179.8l0.7-0.6c0.8,1.2,1.8,1.7,3.1,1.7c1.7,0,2.7-0.9,2.7-2.2c0-1.6-0.9-2.4-3.6-2.4h-0.4l-0.1-0.9
			h0.5c2.4,0,3.2-0.7,3.2-2.1c0-1.1-0.7-1.9-2.4-1.9c-1.1,0-2,0.6-2.7,1.4l-0.7-0.7c0.8-0.9,1.9-1.7,3.4-1.7c2.3,0,3.3,1.3,3.3,2.8
			c0,1.4-0.9,2.4-2.2,2.6c1.7,0.3,2.5,1.3,2.5,2.9c0,1.8-1.4,3.2-3.7,3.2C395.9,181.9,394.6,181.1,393.8,179.8z"/>
		<path class="st1" d="M402.6,179.8l0.7-0.6c0.8,1.2,1.8,1.7,3.1,1.7c1.7,0,2.7-0.9,2.7-2.2c0-1.6-0.9-2.4-3.6-2.4h-0.4l-0.1-0.9
			h0.5c2.4,0,3.2-0.7,3.2-2.1c0-1.1-0.7-1.9-2.4-1.9c-1.1,0-2,0.6-2.7,1.4l-0.7-0.7c0.8-0.9,1.9-1.7,3.4-1.7c2.3,0,3.3,1.3,3.3,2.8
			c0,1.4-0.9,2.4-2.2,2.6c1.7,0.3,2.5,1.3,2.5,2.9c0,1.8-1.4,3.2-3.7,3.2C404.8,181.9,403.5,181.1,402.6,179.8z"/>
	</g>
</g>
<g>
	<g>
		<g>
			<defs>
				<polygon id="SVGID_1_" points="2.9,59.6 22.7,59.6 35.4,66 18.4,66 				"/>
			</defs>
			<clipPath id="SVGID_2_">
				<use xlink:href="#SVGID_1_"  style="overflow:visible;"/>
			</clipPath>
			<polygon class="st4" points="21.9,59.6 2.9,60.1 2.9,59.6 			"/>
		</g>
		<g>
			<defs>
				<polygon id="SVGID_3_" points="2.9,59.6 22.7,59.6 35.4,66 18.4,66 				"/>
			</defs>
			<clipPath id="SVGID_4_">
				<use xlink:href="#SVGID_3_"  style="overflow:visible;"/>
			</clipPath>
			<polygon class="st5" points="35.4,65.6 21.1,66 2.9,66 2.9,60.1 21.9,59.6 35.4,59.6 			"/>
		</g>
		<g>
			<defs>
				<polygon id="SVGID_5_" points="2.9,59.6 22.7,59.6 35.4,66 18.4,66 				"/>
			</defs>
			<clipPath id="SVGID_6_">
				<use xlink:href="#SVGID_5_"  style="overflow:visible;"/>
			</clipPath>
			<polygon class="st6" points="21.1,66 35.4,65.6 35.4,66 			"/>
		</g>
	</g>
</g>
<g>
	<g>
		<g>
			<defs>
				<polygon id="SVGID_7_" points="2.9,79.5 22.7,79.5 35.4,85.8 18.4,85.8 				"/>
			</defs>
			<clipPath id="SVGID_8_">
				<use xlink:href="#SVGID_7_"  style="overflow:visible;"/>
			</clipPath>
			<polygon class="st7" points="20.4,79.5 2.9,80 2.9,79.5 			"/>
		</g>
		<g>
			<defs>
				<polygon id="SVGID_9_" points="2.9,79.5 22.7,79.5 35.4,85.8 18.4,85.8 				"/>
			</defs>
			<clipPath id="SVGID_10_">
				<use xlink:href="#SVGID_9_"  style="overflow:visible;"/>
			</clipPath>
			<polygon class="st8" points="35.4,85.5 23.5,85.8 2.9,85.8 2.9,80 20.4,79.5 35.4,79.5 			"/>
		</g>
		<g>
			<defs>
				<polygon id="SVGID_11_" points="2.9,79.5 22.7,79.5 35.4,85.8 18.4,85.8 				"/>
			</defs>
			<clipPath id="SVGID_12_">
				<use xlink:href="#SVGID_11_"  style="overflow:visible;"/>
			</clipPath>
			<polygon class="st9" points="23.5,85.8 35.4,85.5 35.4,85.8 			"/>
		</g>
	</g>
</g>
<g>
	<g>
		<g>
			<defs>
				<polygon id="SVGID_13_" points="1.9,154.1 21.7,154.1 34.4,160.4 17.4,160.4 				"/>
			</defs>
			<clipPath id="SVGID_14_">
				<use xlink:href="#SVGID_13_"  style="overflow:visible;"/>
			</clipPath>
			<polygon class="st10" points="19.3,154.1 1.9,154.5 1.9,154.1 			"/>
		</g>
		<g>
			<defs>
				<polygon id="SVGID_15_" points="1.9,154.1 21.7,154.1 34.4,160.4 17.4,160.4 				"/>
			</defs>
			<clipPath id="SVGID_16_">
				<use xlink:href="#SVGID_15_"  style="overflow:visible;"/>
			</clipPath>
			<polygon class="st11" points="34.4,160.1 22.4,160.4 1.9,160.4 1.9,154.5 19.3,154.1 34.4,154.1 			"/>
		</g>
		<g>
			<defs>
				<polygon id="SVGID_17_" points="1.9,154.1 21.7,154.1 34.4,160.4 17.4,160.4 				"/>
			</defs>
			<clipPath id="SVGID_18_">
				<use xlink:href="#SVGID_17_"  style="overflow:visible;"/>
			</clipPath>
			<polygon class="st12" points="22.4,160.4 34.4,160.1 34.4,160.4 			"/>
		</g>
	</g>
</g>
<g>
	<g>
		<g>
			<defs>
				<polygon id="SVGID_19_" points="1.9,173.9 21.7,173.9 34.4,180.3 17.4,180.3 				"/>
			</defs>
			<clipPath id="SVGID_20_">
				<use xlink:href="#SVGID_19_"  style="overflow:visible;"/>
			</clipPath>
			<polygon class="st13" points="21.7,173.9 1.9,174.4 1.9,173.9 			"/>
		</g>
		<g>
			<defs>
				<polygon id="SVGID_21_" points="1.9,173.9 21.7,173.9 34.4,180.3 17.4,180.3 				"/>
			</defs>
			<clipPath id="SVGID_22_">
				<use xlink:href="#SVGID_21_"  style="overflow:visible;"/>
			</clipPath>
			<polygon class="st14" points="34.4,180 20.9,180.3 1.9,180.3 1.9,174.4 21.7,173.9 34.4,173.9 			"/>
		</g>
		<g>
			<defs>
				<polygon id="SVGID_23_" points="1.9,173.9 21.7,173.9 34.4,180.3 17.4,180.3 				"/>
			</defs>
			<clipPath id="SVGID_24_">
				<use xlink:href="#SVGID_23_"  style="overflow:visible;"/>
			</clipPath>
			<polygon class="st15" points="20.9,180.3 34.4,180 34.4,180.3 			"/>
		</g>
	</g>
</g>
<g>
	<g>
		<g>
			<defs>
				<polygon id="SVGID_25_" points="1.9,250.8 21.7,250.8 34.4,257.1 17.4,257.1 				"/>
			</defs>
			<clipPath id="SVGID_26_">
				<use xlink:href="#SVGID_25_"  style="overflow:visible;"/>
			</clipPath>
			<polygon class="st16" points="19.5,250.8 1.9,251.3 1.9,250.8 			"/>
		</g>
		<g>
			<defs>
				<polygon id="SVGID_27_" points="1.9,250.8 21.7,250.8 34.4,257.1 17.4,257.1 				"/>
			</defs>
			<clipPath id="SVGID_28_">
				<use xlink:href="#SVGID_27_"  style="overflow:visible;"/>
			</clipPath>
			<polygon class="st17" points="34.4,256.8 22.6,257.1 1.9,257.1 1.9,251.3 19.5,250.8 34.4,250.8 			"/>
		</g>
		<g>
			<defs>
				<polygon id="SVGID_29_" points="1.9,250.8 21.7,250.8 34.4,257.1 17.4,257.1 				"/>
			</defs>
			<clipPath id="SVGID_30_">
				<use xlink:href="#SVGID_29_"  style="overflow:visible;"/>
			</clipPath>
			<polygon class="st18" points="22.6,257.1 34.4,256.8 34.4,257.1 			"/>
		</g>
	</g>
</g>
<g>
	<g>
		<g>
			<defs>
				<polygon id="SVGID_31_" points="1.9,271.6 21.7,271.6 34.4,278 17.4,278 				"/>
			</defs>
			<clipPath id="SVGID_32_">
				<use xlink:href="#SVGID_31_"  style="overflow:visible;"/>
			</clipPath>
			<polygon class="st19" points="21.9,271.6 1.9,272.1 1.9,271.6 			"/>
		</g>
		<g>
			<defs>
				<polygon id="SVGID_33_" points="1.9,271.6 21.7,271.6 34.4,278 17.4,278 				"/>
			</defs>
			<clipPath id="SVGID_34_">
				<use xlink:href="#SVGID_33_"  style="overflow:visible;"/>
			</clipPath>
			<polygon class="st20" points="34.4,277.7 21.1,278 1.9,278 1.9,272.1 21.9,271.6 34.4,271.6 			"/>
		</g>
		<g>
			<defs>
				<polygon id="SVGID_35_" points="1.9,271.6 21.7,271.6 34.4,278 17.4,278 				"/>
			</defs>
			<clipPath id="SVGID_36_">
				<use xlink:href="#SVGID_35_"  style="overflow:visible;"/>
			</clipPath>
			<polygon class="st21" points="21.1,278 34.4,277.7 34.4,278 			"/>
		</g>
	</g>
</g>
<g>
	<g>
		<g>
			<defs>
				<polygon id="SVGID_37_" points="1.6,440.2 21.4,440.2 34,446.6 17.1,446.6 				"/>
			</defs>
			<clipPath id="SVGID_38_">
				<use xlink:href="#SVGID_37_"  style="overflow:visible;"/>
			</clipPath>
			<polygon class="st22" points="20.2,440.2 1.6,440.7 1.6,440.2 			"/>
		</g>
		<g>
			<defs>
				<polygon id="SVGID_39_" points="1.6,440.2 21.4,440.2 34,446.6 17.1,446.6 				"/>
			</defs>
			<clipPath id="SVGID_40_">
				<use xlink:href="#SVGID_39_"  style="overflow:visible;"/>
			</clipPath>
			<polygon class="st23" points="34,446.2 19.4,446.6 1.6,446.6 1.6,440.7 20.2,440.2 34,440.2 			"/>
		</g>
		<g>
			<defs>
				<polygon id="SVGID_41_" points="1.6,440.2 21.4,440.2 34,446.6 17.1,446.6 				"/>
			</defs>
			<clipPath id="SVGID_42_">
				<use xlink:href="#SVGID_41_"  style="overflow:visible;"/>
			</clipPath>
			<polygon class="st24" points="19.4,446.6 34,446.2 34,446.6 			"/>
		</g>
	</g>
</g>
<g>
	<g>
		<g>
			<defs>
				<polygon id="SVGID_43_" points="1.6,460 21.4,460 34,466.4 17.1,466.4 				"/>
			</defs>
			<clipPath id="SVGID_44_">
				<use xlink:href="#SVGID_43_"  style="overflow:visible;"/>
			</clipPath>
			<polygon class="st25" points="22.6,460 1.6,460.5 1.6,460 			"/>
		</g>
		<g>
			<defs>
				<polygon id="SVGID_45_" points="1.6,460 21.4,460 34,466.4 17.1,466.4 				"/>
			</defs>
			<clipPath id="SVGID_46_">
				<use xlink:href="#SVGID_45_"  style="overflow:visible;"/>
			</clipPath>
			<polygon class="st26" points="34,466.1 21.8,466.4 1.6,466.4 1.6,460.5 22.6,460 34,460 			"/>
		</g>
		<g>
			<defs>
				<polygon id="SVGID_47_" points="1.6,460 21.4,460 34,466.4 17.1,466.4 				"/>
			</defs>
			<clipPath id="SVGID_48_">
				<use xlink:href="#SVGID_47_"  style="overflow:visible;"/>
			</clipPath>
			<polygon class="st27" points="21.8,466.4 34,466.1 34,466.4 			"/>
		</g>
	</g>
</g>
<g>
	<g>
		<g>
			<defs>
				<polygon id="SVGID_49_" points="1.6,346.9 21.4,346.9 34,353.2 17.1,353.2 				"/>
			</defs>
			<clipPath id="SVGID_50_">
				<use xlink:href="#SVGID_49_"  style="overflow:visible;"/>
			</clipPath>
			<polygon class="st28" points="19.8,346.9 1.6,347.4 1.6,346.9 			"/>
		</g>
		<g>
			<defs>
				<polygon id="SVGID_51_" points="1.6,346.9 21.4,346.9 34,353.2 17.1,353.2 				"/>
			</defs>
			<clipPath id="SVGID_52_">
				<use xlink:href="#SVGID_51_"  style="overflow:visible;"/>
			</clipPath>
			<polygon class="st29" points="34,352.9 22.9,353.2 1.6,353.2 1.6,347.4 19.8,346.9 34,346.9 			"/>
		</g>
		<g>
			<defs>
				<polygon id="SVGID_53_" points="1.6,346.9 21.4,346.9 34,353.2 17.1,353.2 				"/>
			</defs>
			<clipPath id="SVGID_54_">
				<use xlink:href="#SVGID_53_"  style="overflow:visible;"/>
			</clipPath>
			<polygon class="st30" points="22.9,353.2 34,352.9 34,353.2 			"/>
		</g>
	</g>
</g>
<g>
	<g>
		<g>
			<defs>
				<polygon id="SVGID_55_" points="1.6,366.7 21.4,366.7 34,373.1 17.1,373.1 				"/>
			</defs>
			<clipPath id="SVGID_56_">
				<use xlink:href="#SVGID_55_"  style="overflow:visible;"/>
			</clipPath>
			<polygon class="st31" points="22.2,366.7 1.6,367.2 1.6,366.7 			"/>
		</g>
		<g>
			<defs>
				<polygon id="SVGID_57_" points="1.6,366.7 21.4,366.7 34,373.1 17.1,373.1 				"/>
			</defs>
			<clipPath id="SVGID_58_">
				<use xlink:href="#SVGID_57_"  style="overflow:visible;"/>
			</clipPath>
			<polygon class="st32" points="34,372.8 21.4,373.1 1.6,373.1 1.6,367.2 22.2,366.7 34,366.7 			"/>
		</g>
		<g>
			<defs>
				<polygon id="SVGID_59_" points="1.6,366.7 21.4,366.7 34,373.1 17.1,373.1 				"/>
			</defs>
			<clipPath id="SVGID_60_">
				<use xlink:href="#SVGID_59_"  style="overflow:visible;"/>
			</clipPath>
			<polygon class="st33" points="21.4,373.1 34,372.8 34,373.1 			"/>
		</g>
	</g>
</g>
<g>
	<polygon class="st2" points="624,56.7 619.4,66 18.4,66 23,56.7 	"/>
</g>
<g>
	<polygon class="st34" points="639,76.6 634.4,85.8 18.4,85.8 23,76.6 	"/>
</g>
<g>
	<polygon class="st2" points="373.6,151.1 369,160.4 17.7,160.4 22.4,151.1 	"/>
</g>
<g>
	<polygon class="st34" points="376.5,171 371.9,180.2 17.7,180.2 22.3,171 	"/>
</g>
<g>
	<polygon class="st2" points="349.5,248 344.8,257.2 17.7,257.2 22.3,248 	"/>
</g>
<g>
	<polygon class="st34" points="351.2,268.7 346.6,278 18,278 22.6,268.7 	"/>
</g>
<g>
	<polygon class="st2" points="62.5,437.5 57.9,446.7 17.4,446.7 22,437.5 	"/>
</g>
<g>
	<polygon class="st34" points="62.3,457.3 57.6,466.6 17.5,466.6 22.1,457.3 	"/>
</g>
<g class="st0">
	<path class="st1" d="M5.1,320.2v-9.4H1.6v-1.7h8.6l0.3,1.7H6.9v9.4H5.1z"/>
	<path class="st1" d="M11,314.7c0-3.7,2.3-5.8,5-5.8s5,2,5,5.8c0,3.7-2.3,5.8-5,5.8C13.3,320.4,11,318.4,11,314.7z M19.1,314.7
		c0-2.5-1.3-4-3.1-4c-1.9,0-3.1,1.5-3.1,4s1.3,4.1,3.1,4.1C17.8,318.8,19.1,317.2,19.1,314.7z"/>
	<path class="st1" d="M25,320.2v-9.4h-3.4v-1.7h8.6l0.3,1.7h-3.6v9.4H25z"/>
	<path class="st1" d="M29.7,320.2l3.9-11.1h1.8l3.9,11l-1.8,0.3l-0.9-2.8h-4.2l-0.9,2.6H29.7z M33,315.9h3.1l-1.5-4.5l0,0L33,315.9z
		"/>
	<path class="st1" d="M41.1,320.2v-11.1H43v9.4h5l0.3,1.7H41.1z"/>
	<path class="st1" d="M52.9,320.2v-11.1h4c2.6,0,4.2,1,4.2,3.4c0,1.8-0.9,2.7-2.4,3.1l2.6,4.5l-1.8,0.3l-2.7-4.5h-2v4.4L52.9,320.2
		L52.9,320.2z M54.7,314.2h2c1.6,0,2.4-0.5,2.4-1.7s-0.8-1.7-2.4-1.7h-2V314.2z"/>
	<path class="st1" d="M63.2,320.2v-11.1h7.2v1.7h-5.3v2.8h4l0.3,1.7h-4.3v3.2h5.6v1.7L63.2,320.2L63.2,320.2z"/>
	<path class="st1" d="M71.6,314.7c0-3.6,2.1-5.7,4.8-5.7c2.1,0,3.4,0.9,4.2,2.6l-1.6,0.9c-0.4-1-1.2-1.8-2.6-1.8
		c-1.9,0-2.9,1.6-2.9,4c0,2.6,1.1,4.1,3,4.1c1.4,0,2.3-0.8,2.7-2.1l1.6,0.7c-0.7,1.8-2,3-4.3,3C73.6,320.4,71.6,318.4,71.6,314.7z"
		/>
	<path class="st1" d="M82.5,316.2v-7.1h1.9v7c0,1.6,0.7,2.6,2.4,2.6c1.7,0,2.4-1,2.4-2.6v-7H91v7c0,2.5-1.4,4.3-4.3,4.3
		C83.8,320.4,82.5,318.7,82.5,316.2z"/>
	<path class="st1" d="M93.4,320.2v-11.1h4c2.6,0,4.2,1,4.2,3.4c0,1.8-0.9,2.7-2.4,3.1l2.6,4.5l-1.8,0.3l-2.7-4.5h-2v4.4L93.4,320.2
		L93.4,320.2z M95.3,314.2h2c1.6,0,2.4-0.5,2.4-1.7s-0.8-1.7-2.4-1.7h-2V314.2z"/>
	<path class="st1" d="M102.9,318.6l1-1.4c0.9,0.9,2.2,1.6,3.6,1.6s2.3-0.5,2.3-1.4c0-1-0.7-1.4-2.5-2c-2.1-0.6-3.9-1.2-3.9-3.3
		c0-1.9,1.6-3.1,3.8-3.1c1.7,0,3.1,0.7,4.1,1.6l-0.9,1.5c-0.9-0.8-2.1-1.4-3.2-1.4c-1.3,0-2,0.6-2,1.3c0,1,0.8,1.4,2.6,1.9
		c2.1,0.6,3.8,1.3,3.8,3.4c0,1.8-1.5,3.2-4.1,3.2C105.6,320.4,104,319.6,102.9,318.6z"/>
	<path class="st1" d="M113.1,314.7c0-3.7,2.3-5.8,5-5.8s5,2,5,5.8c0,3.7-2.3,5.8-5,5.8C115.4,320.4,113.1,318.4,113.1,314.7z
		 M121.2,314.7c0-2.5-1.3-4-3.1-4c-1.9,0-3.1,1.5-3.1,4s1.3,4.1,3.1,4.1C119.9,318.8,121.2,317.2,121.2,314.7z"/>
	<path class="st1" d="M124.2,318.6l1-1.4c0.9,0.9,2.2,1.6,3.6,1.6c1.4,0,2.3-0.5,2.3-1.4c0-1-0.7-1.4-2.5-2
		c-2.1-0.6-3.9-1.2-3.9-3.3c0-1.9,1.6-3.1,3.8-3.1c1.7,0,3.1,0.7,4.1,1.6l-0.9,1.5c-0.9-0.8-2.1-1.4-3.2-1.4c-1.3,0-2,0.6-2,1.3
		c0,1,0.8,1.4,2.6,1.9c2.1,0.6,3.8,1.3,3.8,3.4c0,1.8-1.5,3.2-4.1,3.2C126.9,320.4,125.3,319.6,124.2,318.6z"/>
	<path class="st1" d="M138.8,320.2v-11.1h3.1c3.5,0,5.8,1.6,5.8,5.5c0,4-2.3,5.6-5.8,5.6H138.8z M140.6,318.5h1.5
		c2.6,0,3.7-1.2,3.7-3.9c0-2.6-1.2-3.8-3.8-3.8h-1.4V318.5z"/>
	<path class="st1" d="M149.7,320.2v-11.1h7.2v1.7h-5.3v2.8h4l0.3,1.7h-4.3v3.2h5.6v1.7L149.7,320.2L149.7,320.2z"/>
	<path class="st1" d="M162.2,314.7c0-3.6,2.1-5.7,4.8-5.7c2.1,0,3.4,0.9,4.2,2.6l-1.6,0.9c-0.4-1-1.2-1.8-2.6-1.8
		c-1.9,0-2.9,1.6-2.9,4c0,2.6,1.1,4.1,3,4.1c1.4,0,2.3-0.8,2.7-2.1l1.6,0.7c-0.7,1.8-2,3-4.3,3C164.3,320.4,162.2,318.4,162.2,314.7
		z"/>
	<path class="st1" d="M173.4,320.2v-11.1h1.9v9.4h5l0.3,1.7H173.4z"/>
	<path class="st1" d="M182.2,320.2v-11.1h1.9v11.1H182.2z"/>
	<path class="st1" d="M186.7,320.2v-11.1h7.2v1.7h-5.3v2.8h4l0.3,1.7h-4.3v3.2h5.6v1.7L186.7,320.2L186.7,320.2z"/>
	<path class="st1" d="M196,320.2v-11.1h1.9l5.2,7.9l0,0v-7.9h1.7v11.1h-1.7l-5.5-8.1l0,0v8.1H196z"/>
	<path class="st1" d="M210,320.2v-9.4h-3.4v-1.7h8.6l0.3,1.7h-3.6v9.4H210z"/>
	<path class="st1" d="M217,320.2v-11.1h7.2v1.7h-5.3v2.8h4l0.3,1.7h-4.3v3.2h5.6v1.7L217,320.2L217,320.2z"/>
	<path class="st1" d="M225.4,318.6l1-1.4c0.9,0.9,2.2,1.6,3.6,1.6c1.4,0,2.3-0.5,2.3-1.4c0-1-0.7-1.4-2.5-2
		c-2.1-0.6-3.9-1.2-3.9-3.3c0-1.9,1.6-3.1,3.8-3.1c1.7,0,3.1,0.7,4.1,1.6L233,312c-0.9-0.8-2.1-1.4-3.2-1.4c-1.3,0-2,0.6-2,1.3
		c0,1,0.8,1.4,2.6,1.9c2.1,0.6,3.8,1.3,3.8,3.4c0,1.8-1.5,3.2-4.1,3.2C228.1,320.4,226.5,319.6,225.4,318.6z"/>
</g>
<g class="st0">
	<path class="st1" d="M257.8,323.3c-2.4-2.1-3.7-4.3-3.7-7.2c0-2.8,1.3-5.1,3.7-7.2l0.5,0.5c-1.9,1.7-3.1,4-3.1,6.6
		c0,2.7,1.2,4.9,3.1,6.7L257.8,323.3z"/>
	<path class="st1" d="M260.5,320.2v-11.1h1.4l3.7,9.7l0,0l3.7-9.7h1.4v11.1h-1.1v-9.3l0,0c-0.1,0.5-0.4,1.2-0.7,2l-2.9,7.4h-1
		l-2.9-7.4c-0.3-0.7-0.4-1.2-0.7-2l0,0v9.3H260.5z"/>
	<path class="st1" d="M273.6,320.2v-11.1h1.4l3.7,9.7l0,0l3.7-9.7h1.4v11.1h-1.1v-9.3l0,0c-0.1,0.5-0.4,1.2-0.7,2l-2.9,7.4h-1
		l-2.9-7.4c-0.3-0.7-0.4-1.2-0.7-2l0,0v9.3H273.6z"/>
	<path class="st1" d="M287.3,314h-1.8v-0.8h1.9c0.4-2.9,2.2-4.2,4-4.2c2,0,3,1.3,3.5,3l-1,0.4c-0.5-1.5-1-2.4-2.6-2.4
		c-1.4,0-2.7,1-3,3.3h3.4v0.8h-3.5c0,0.2,0,0.4,0,0.6c0,0.3,0,0.6,0,0.8h3.5v0.9h-3.4c0.3,2.1,1.4,3.3,3,3.3c1.5,0,2.3-0.9,2.7-2.5
		l0.9,0.4c-0.5,1.8-1.7,3.1-3.7,3.1s-3.6-1.3-4-4.2h-1.9v-0.9h1.8c0-0.2,0-0.5,0-0.8C287.3,314.4,287.3,314.1,287.3,314z"/>
	<path class="st1" d="M296.8,322.8c1.9-1.7,3.1-4,3.1-6.7c0-2.6-1.2-4.9-3.1-6.6l0.5-0.5c2.4,2.1,3.8,4.3,3.8,7.2
		c0,2.8-1.3,5.1-3.8,7.2L296.8,322.8z"/>
</g>
<g>
	<g class="st0">
		<path class="st1" d="M478.4,352.6l0.7-0.7c0.7,1,1.6,1.7,2.9,1.7c1.9,0,2.8-1.4,2.8-2.9c0-1.8-1.1-2.8-2.5-2.8
			c-1.1,0-1.9,0.5-2.5,1.4L479,349l0.4-5.8h5.8v1h-5l-0.3,3.9c0.5-0.6,1.3-1,2.5-1c2,0,3.4,1.4,3.4,3.6s-1.5,3.9-3.8,3.9
			C480.5,354.5,479.2,353.7,478.4,352.6z"/>
		<path class="st1" d="M487,352.5l0.7-0.6c0.8,1.2,1.8,1.7,3.1,1.7c1.7,0,2.7-0.9,2.7-2.2c0-1.6-0.9-2.4-3.6-2.4h-0.4l-0.1-0.9h0.5
			c2.4,0,3.2-0.7,3.2-2.1c0-1.1-0.7-1.9-2.4-1.9c-1.1,0-2,0.6-2.7,1.4l-0.7-0.7c0.8-0.9,1.9-1.7,3.4-1.7c2.3,0,3.3,1.3,3.3,2.8
			c0,1.4-0.9,2.4-2.2,2.6c1.7,0.3,2.5,1.3,2.5,2.9c0,1.8-1.4,3.2-3.7,3.2C489.2,354.5,487.8,353.8,487,352.5z"/>
		<path class="st1" d="M501.3,354.3v-2.7H496v-0.8l5.1-7.6h1.3v7.5h1.8v0.9h-1.9v2.7H501.3z M497.1,350.7h4.1v-6.2l0,0L497.1,350.7z
			"/>
	</g>
</g>
<g>
	<g class="st0">
		<path class="st1" d="M478.5,372.8l0.7-0.7c0.7,1,1.6,1.7,2.9,1.7c1.9,0,2.8-1.4,2.8-2.9c0-1.8-1.1-2.8-2.5-2.8
			c-1.1,0-1.9,0.5-2.5,1.4l-0.8-0.3l0.4-5.8h5.8v1h-5l-0.3,3.9c0.5-0.6,1.3-1,2.5-1c2,0,3.4,1.4,3.4,3.6s-1.5,3.9-3.8,3.9
			C480.5,374.8,479.2,373.9,478.5,372.8z"/>
		<path class="st1" d="M487.1,372.7l0.7-0.6c0.8,1.2,1.8,1.7,3.1,1.7c1.7,0,2.7-0.9,2.7-2.2c0-1.6-0.9-2.4-3.6-2.4h-0.4l-0.1-0.9
			h0.5c2.4,0,3.2-0.7,3.2-2.1c0-1.1-0.7-1.9-2.4-1.9c-1.1,0-2,0.6-2.7,1.4l-0.7-0.7c0.8-0.9,1.9-1.7,3.4-1.7c2.3,0,3.3,1.3,3.3,2.8
			c0,1.4-0.9,2.4-2.2,2.6c1.7,0.3,2.5,1.3,2.5,2.9c0,1.8-1.4,3.2-3.7,3.2C489.3,374.8,487.9,374,487.1,372.7z"/>
		<path class="st1" d="M496.1,372.8l0.7-0.7c0.7,1,1.6,1.7,2.9,1.7c1.9,0,2.8-1.4,2.8-2.9c0-1.8-1.1-2.8-2.5-2.8
			c-1.1,0-1.9,0.5-2.5,1.4l-0.8-0.3l0.4-5.8h5.8v1h-5l-0.3,3.9c0.5-0.6,1.3-1,2.5-1c2,0,3.4,1.4,3.4,3.6s-1.5,3.9-3.8,3.9
			C498.1,374.8,496.8,373.9,496.1,372.8z"/>
	</g>
</g>
<g>
	<polygon class="st2" points="461.3,344.4 456.7,353.7 17.4,353.7 22,344.4 	"/>
</g>
<g>
	<polygon class="st34" points="461.1,364.2 456.4,373.5 17.5,373.5 22.1,364.2 	"/>
</g>
<g>
	<path class="st35" d="M559.4,12.2V1.1h2.8c3.6,0,5.5,1.9,5.5,5.5c0,3.7-2,5.6-5.5,5.6H559.4z M560.5,11.2h1.9
		c2.8,0,4.3-1.4,4.3-4.6c0-3.1-1.5-4.6-4.3-4.6h-1.9V11.2z"/>
	<path class="st35" d="M570.2,12.2V1.1h1.1v11.1H570.2z"/>
	<path class="st35" d="M573.7,6.6c0-3.3,1.8-5.7,4.6-5.7c1.9,0,3.1,0.9,3.8,2.4l-0.9,0.5c-0.5-1.2-1.4-1.9-2.9-1.9
		c-2.2,0-3.5,1.9-3.5,4.7c0,3.1,1.4,4.9,3.6,4.9c1.5,0,2.5-0.8,3.1-2.2l0.9,0.4c-0.7,1.7-2,2.8-4,2.8
		C575.6,12.4,573.7,10.1,573.7,6.6z"/>
</g>
<g>
	<path class="st35" d="M683.9,13.1V2h2.8c3.6,0,5.5,1.9,5.5,5.5c0,3.7-2,5.6-5.5,5.6H683.9z M685,12.1h1.9c2.8,0,4.3-1.4,4.3-4.6
		c0-3.1-1.5-4.6-4.3-4.6H685V12.1z"/>
	<path class="st35" d="M694.7,13.1V2h1.1v11.1H694.7z"/>
	<path class="st35" d="M698.2,7.5c0-3.3,1.8-5.7,4.6-5.7c1.9,0,3.1,0.9,3.8,2.4l-0.9,0.5c-0.5-1.2-1.4-1.9-2.9-1.9
		c-2.2,0-3.5,1.9-3.5,4.7c0,3.1,1.4,4.9,3.6,4.9c1.5,0,2.5-0.8,3.1-2.2l0.9,0.4c-0.7,1.7-2,2.8-4,2.8C700.1,13.3,698.2,11,698.2,7.5
		z"/>
</g>
</svg>
