<?xml version="1.0" encoding="UTF-8" standalone="no"?>
<svg width="744px" height="466px" viewBox="0 0 744 466" version="1.1" xmlns="http://www.w3.org/2000/svg" xmlns:xlink="http://www.w3.org/1999/xlink">
    <!-- Generator: Sketch 41.2 (35397) - http://www.bohemiancoding.com/sketch -->
    <title>des_financiero_balance</title>
    <desc>Created with Sketch.</desc>
    <defs></defs>
    <g id="Page-1" stroke="none" stroke-width="1" fill="none" fill-rule="evenodd">
        <g id="des_financiero_balance" transform="translate(0.000000, -1.000000)">
            <g id="Group-2" transform="translate(617.000000, 0.927000)" fill="#FFFFFF">
                <g id="2016">
                    <path d="M7.1665,12.1225635 L7.0465,11.4325635 L0.9715,11.4325635 C1.0015,10.3525635 2.0065,9.0175635 4.1065,7.6825635 C6.2365,6.3325635 7.0615,5.3875635 7.0615,3.8125635 C7.0615,2.0725635 5.8465,0.8125635 3.8965,0.8125635 C2.3665,0.8125635 1.1515,1.6375635 0.4315,3.1975635 L1.0465,3.4975635 C1.6915,2.1175635 2.5615,1.4725635 3.8665,1.4725635 C5.4865,1.4725635 6.3265,2.4475635 6.3265,3.8575635 C6.3265,5.0725635 5.6515,5.9125635 4.0015,6.9625635 C1.0765,8.8375635 0.1915,10.2775635 0.1915,11.8825635 L0.1915,12.1225635 L7.1665,12.1225635 Z M12.7915,12.3325635 C15.3265,12.3325635 16.7215,10.0375635 16.7215,6.5725635 C16.7215,3.1075635 15.3265,0.8125635 12.7915,0.8125635 C10.2565,0.8125635 8.8465,3.1075635 8.8465,6.5725635 C8.8465,10.0375635 10.2565,12.3325635 12.7915,12.3325635 Z M12.7915,11.6725635 C10.8565,11.6725635 9.5815,9.8425635 9.5815,6.5725635 C9.5815,3.3025635 10.7965,1.4725635 12.7915,1.4725635 C14.7115,1.4725635 15.9865,3.3025635 15.9865,6.5725635 C15.9865,9.8425635 14.7715,11.6725635 12.7915,11.6725635 Z M21.7465,12.1225635 L21.7465,1.0225635 L21.0715,1.0225635 L18.7765,1.8625635 L18.8815,2.5075635 L21.0115,1.7275635 L21.0115,12.1225635 L21.7465,12.1225635 Z M28.5265,12.3325635 C30.7765,12.3325635 32.1415,10.7275635 32.1415,8.6725635 C32.1415,6.7825635 31.1215,5.2225635 28.7065,5.2225635 C27.2215,5.2225635 26.1415,6.0175635 25.4515,6.8275635 C25.4215,3.8875635 26.7265,1.4725635 28.8865,1.4725635 C29.9365,1.4725635 30.4615,1.7425635 31.0465,2.2225635 L31.4665,1.6375635 C30.8815,1.1575635 30.1315,0.8125635 28.9015,0.8125635 C26.3665,0.8125635 24.7315,3.5425635 24.7315,6.7675635 C24.7315,10.6225635 26.4865,12.3325635 28.5265,12.3325635 Z M28.5715,11.6725635 C27.0715,11.6725635 25.7515,10.4725635 25.4965,7.7425635 C26.2465,6.6475635 27.3715,5.8825635 28.6615,5.8825635 C30.5665,5.8825635 31.3915,7.0525635 31.3915,8.6725635 C31.3915,10.6075635 30.2365,11.6725635 28.5715,11.6725635 Z"></path>
                </g>
                <g id="2015" transform="translate(94.000000, 0.000000)">
                    <path d="M7.5765,12.1225635 L7.4565,11.4325635 L1.3815,11.4325635 C1.4115,10.3525635 2.4165,9.0175635 4.5165,7.6825635 C6.6465,6.3325635 7.4715,5.3875635 7.4715,3.8125635 C7.4715,2.0725635 6.2565,0.8125635 4.3065,0.8125635 C2.7765,0.8125635 1.5615,1.6375635 0.8415,3.1975635 L1.4565,3.4975635 C2.1015,2.1175635 2.9715,1.4725635 4.2765,1.4725635 C5.8965,1.4725635 6.7365,2.4475635 6.7365,3.8575635 C6.7365,5.0725635 6.0615,5.9125635 4.4115,6.9625635 C1.4865,8.8375635 0.6015,10.2775635 0.6015,11.8825635 L0.6015,12.1225635 L7.5765,12.1225635 Z M13.2015,12.3325635 C15.7365,12.3325635 17.1315,10.0375635 17.1315,6.5725635 C17.1315,3.1075635 15.7365,0.8125635 13.2015,0.8125635 C10.6665,0.8125635 9.2565,3.1075635 9.2565,6.5725635 C9.2565,10.0375635 10.6665,12.3325635 13.2015,12.3325635 Z M13.2015,11.6725635 C11.2665,11.6725635 9.9915,9.8425635 9.9915,6.5725635 C9.9915,3.3025635 11.2065,1.4725635 13.2015,1.4725635 C15.1215,1.4725635 16.3965,3.3025635 16.3965,6.5725635 C16.3965,9.8425635 15.1815,11.6725635 13.2015,11.6725635 Z M22.1565,12.1225635 L22.1565,1.0225635 L21.4815,1.0225635 L19.1865,1.8625635 L19.2915,2.5075635 L21.4215,1.7275635 L21.4215,12.1225635 L22.1565,12.1225635 Z M28.6215,12.3325635 C30.8865,12.3325635 32.2965,10.6525635 32.2965,8.4625635 C32.2965,6.2425635 30.8265,4.8625635 28.9065,4.8625635 C27.7065,4.8625635 26.9715,5.2825635 26.3865,5.9725635 L26.7165,1.7425635 L31.6965,1.7425635 L31.5615,1.0225635 L26.0415,1.0225635 L25.6215,6.7825635 L26.2365,7.0375635 C26.8515,6.1225635 27.6465,5.5225635 28.8915,5.5225635 C30.4065,5.5225635 31.5615,6.5875635 31.5615,8.5075635 C31.5615,10.0825635 30.6465,11.6725635 28.6365,11.6725635 C27.2415,11.6725635 26.3415,10.9225635 25.6965,9.8425635 L25.0815,10.2175635 C25.7715,11.4625635 27.0465,12.3325635 28.6215,12.3325635 Z"></path>
                </g>
            </g>
            <polygon id="Fill-3" fill="#2ECDCD" points="610.9531 3.7678 606.3201 13.0338 588.7111 13.0338 593.3441 3.7678"></polygon>
            <polygon id="Fill-4" fill="#0086CD" points="702.4612 3.7678 697.8282 13.0338 680.2192 13.0338 684.8522 3.7678"></polygon>
            <g id="TOTAL-ACTIVO-(MM€)" transform="translate(2.000000, 26.000000)" fill="#FFFFFF">
                <path d="M5.5916,11.4005635 L5.5916,2.0405635 L9.1466,2.0405635 L8.8766,0.3005635 L0.2966,0.3005635 L0.2966,2.0405635 L3.7166,2.0405635 L3.7166,11.4005635 L5.5916,11.4005635 Z M14.6216,11.6105635 C17.2916,11.6105635 19.6166,9.5855635 19.6166,5.8505635 C19.6166,2.1155635 17.2916,0.0905635 14.6216,0.0905635 C11.9366,0.0905635 9.6116,2.1155635 9.6116,5.8505635 C9.6116,9.5855635 11.9366,11.6105635 14.6216,11.6105635 Z M14.6216,9.9305635 C12.7466,9.9305635 11.4866,8.3705635 11.4866,5.8505635 C11.4866,3.3305635 12.7466,1.8155635 14.6216,1.8155635 C16.4966,1.8155635 17.7566,3.3305635 17.7566,5.8505635 C17.7566,8.3705635 16.4966,9.9305635 14.6216,9.9305635 Z M25.5266,11.4005635 L25.5266,2.0405635 L29.0816,2.0405635 L28.8116,0.3005635 L20.2316,0.3005635 L20.2316,2.0405635 L23.6516,2.0405635 L23.6516,11.4005635 L25.5266,11.4005635 Z M30.1166,11.4005635 L31.0466,8.7605635 L35.2616,8.7605635 L36.2066,11.5505635 L38.0216,11.2505635 L34.1366,0.2555635 L32.3066,0.2555635 L28.3766,11.4005635 L30.1166,11.4005635 Z M33.1616,2.6105635 L33.1916,2.6105635 L34.7216,7.1105635 L31.6016,7.1105635 L33.1616,2.6105635 Z M46.8266,11.4005635 L46.5416,9.7055635 L41.5766,9.7055635 L41.5766,0.3005635 L39.7016,0.3005635 L39.7016,11.4005635 L46.8266,11.4005635 Z M51.9266,11.4005635 L52.8566,8.7605635 L57.0716,8.7605635 L58.0166,11.5505635 L59.8316,11.2505635 L55.9466,0.2555635 L54.1166,0.2555635 L50.1866,11.4005635 L51.9266,11.4005635 Z M54.9716,2.6105635 L55.0016,2.6105635 L56.5316,7.1105635 L53.4116,7.1105635 L54.9716,2.6105635 Z M65.2916,11.6105635 C67.6166,11.6105635 68.9666,10.4255635 69.6266,8.5955635 L68.0066,7.8605635 C67.5716,9.1055635 66.6716,9.9305635 65.2916,9.9305635 C63.3566,9.9305635 62.2466,8.3705635 62.2466,5.8055635 C62.2466,3.3755635 63.2966,1.8155635 65.1866,1.8155635 C66.5216,1.8155635 67.3316,2.5655635 67.7666,3.6005635 L69.3566,2.6555635 C68.5916,1.0055635 67.2866,0.0905635 65.1866,0.0905635 C62.4566,0.0905635 60.3716,2.1755635 60.3716,5.8205635 C60.3716,9.5705635 62.4266,11.6105635 65.2916,11.6105635 Z M75.5516,11.4005635 L75.5516,2.0405635 L79.1066,2.0405635 L78.8366,0.3005635 L70.2566,0.3005635 L70.2566,2.0405635 L73.6766,2.0405635 L73.6766,11.4005635 L75.5516,11.4005635 Z M82.6316,11.4005635 L82.6316,0.3005635 L80.7716,0.3005635 L80.7716,11.4005635 L82.6316,11.4005635 Z M90.0266,11.4455635 L93.8816,0.3005635 L92.1116,0.3005635 L89.1866,8.9555635 L89.1566,8.9555635 L86.2616,0.1505635 L84.4466,0.4505635 L88.2566,11.4455635 L90.0266,11.4455635 Z M99.3866,11.6105635 C102.0566,11.6105635 104.3816,9.5855635 104.3816,5.8505635 C104.3816,2.1155635 102.0566,0.0905635 99.3866,0.0905635 C96.7016,0.0905635 94.3766,2.1155635 94.3766,5.8505635 C94.3766,9.5855635 96.7016,11.6105635 99.3866,11.6105635 Z M99.3866,9.9305635 C97.5116,9.9305635 96.2516,8.3705635 96.2516,5.8505635 C96.2516,3.3305635 97.5116,1.8155635 99.3866,1.8155635 C101.2616,1.8155635 102.5216,3.3305635 102.5216,5.8505635 C102.5216,8.3705635 101.2616,9.9305635 99.3866,9.9305635 Z" id="TOTAL-ACTIVO"></path>
                <path d="M114.2466,14.1005635 C112.2966,12.3755635 111.0366,10.0355635 111.0366,7.3505635 C111.0366,4.6655635 112.2966,2.3255635 114.2466,0.6005635 L113.9316,0.2255635 C111.4866,2.2805635 110.2116,4.5455635 110.2116,7.3505635 C110.2116,10.1555635 111.4866,12.4205635 113.9316,14.4755635 L114.2466,14.1005635 Z M117.3516,11.4005635 L117.3516,1.6955635 L117.3816,1.6955635 C117.6216,2.3855635 117.8166,2.8355635 118.0866,3.5255635 L121.2516,11.4005635 L121.9416,11.4005635 L125.1066,3.5255635 C125.3766,2.8355635 125.6616,2.1005635 125.8116,1.6955635 L125.8416,1.6955635 L125.8416,11.4005635 L126.6066,11.4005635 L126.6066,0.3005635 L125.6466,0.3005635 L121.6266,10.3805635 L121.5966,10.3805635 L117.5916,0.3005635 L116.6316,0.3005635 L116.6316,11.4005635 L117.3516,11.4005635 Z M130.2966,11.4005635 L130.2966,1.6955635 L130.3266,1.6955635 C130.5666,2.3855635 130.7616,2.8355635 131.0316,3.5255635 L134.1966,11.4005635 L134.8866,11.4005635 L138.0516,3.5255635 C138.3216,2.8355635 138.6066,2.1005635 138.7566,1.6955635 L138.7866,1.6955635 L138.7866,11.4005635 L139.5516,11.4005635 L139.5516,0.3005635 L138.5916,0.3005635 L134.5716,10.3805635 L134.5416,10.3805635 L130.5366,0.3005635 L129.5766,0.3005635 L129.5766,11.4005635 L130.2966,11.4005635 Z M143.1966,5.7755635 C143.1966,6.0755635 143.2116,6.3605635 143.2266,6.6305635 L141.3516,6.6305635 L141.3516,7.3205635 L143.2866,7.3205635 C143.6916,10.2305635 145.2366,11.6105635 147.2466,11.6105635 C149.2416,11.6105635 150.3516,10.2155635 150.8466,8.2655635 L150.1416,8.1005635 C149.6766,9.8855635 148.9116,10.9355635 147.2616,10.9355635 C145.5516,10.9355635 144.3666,9.7055635 144.0216,7.3205635 L147.6516,7.3205635 L147.6516,6.6305635 L143.9466,6.6305635 C143.9316,6.3455635 143.9166,6.0305635 143.9166,5.7155635 C143.9166,5.4905635 143.9166,5.2655635 143.9316,5.0555635 L147.6516,5.0555635 L147.6516,4.3805635 L144.0066,4.3805635 C144.3516,1.8905635 145.7016,0.7655635 147.2316,0.7655635 C148.9416,0.7655635 149.4816,1.8005635 149.9466,3.4655635 L150.6666,3.3005635 C150.1866,1.4105635 149.2266,0.0905635 147.2466,0.0905635 C145.4316,0.0905635 143.6916,1.4105635 143.2866,4.3805635 L141.3516,4.3805635 L141.3516,5.0555635 L143.2116,5.0555635 C143.2116,5.2805635 143.1966,5.5205635 143.1966,5.7755635 Z M152.9316,14.4755635 C155.3766,12.4205635 156.6516,10.1555635 156.6516,7.3505635 C156.6516,4.5455635 155.3766,2.2805635 152.9316,0.2255635 L152.6166,0.6005635 C154.5666,2.3255635 155.8266,4.6655635 155.8266,7.3505635 C155.8266,10.0355635 154.5666,12.3755635 152.6166,14.1005635 L152.9316,14.4755635 Z" id="(MM€)"></path>
            </g>
            <g id="CRÉDITOS-A-LA-CLIENTELA-" transform="translate(0.000000, 115.000000)" fill="#FFFFFF">
                <path d="M5.64,14.943564 C7.965,14.943564 9.315,13.758564 9.975,11.928564 L8.355,11.193564 C7.92,12.438564 7.02,13.263564 5.64,13.263564 C3.705,13.263564 2.595,11.703564 2.595,9.138564 C2.595,6.708564 3.645,5.148564 5.535,5.148564 C6.87,5.148564 7.68,5.898564 8.115,6.933564 L9.705,5.988564 C8.94,4.338564 7.635,3.423564 5.535,3.423564 C2.805,3.423564 0.72,5.508564 0.72,9.153564 C0.72,12.903564 2.775,14.943564 5.64,14.943564 Z M13.755,14.733564 L13.755,10.353564 L15.72,10.353564 L18.405,14.883564 L20.235,14.583564 L17.595,10.113564 C19.125,9.723564 20.04,8.808564 20.04,7.038564 C20.04,4.683564 18.51,3.633564 15.885,3.633564 L11.91,3.633564 L11.91,14.733564 L13.755,14.733564 Z M13.755,5.343564 L15.795,5.343564 C17.385,5.343564 18.21,5.778564 18.21,7.008564 C18.21,8.268564 17.385,8.718564 15.795,8.718564 L13.755,8.718564 L13.755,5.343564 Z M24.78,2.973564 L25.995,2.973564 L28.17,0.483564 L26.175,0.483564 L24.78,2.973564 Z M29.745,14.733564 L29.745,13.038564 L24.15,13.038564 L24.15,9.798564 L28.47,9.798564 L28.2,8.133564 L24.15,8.133564 L24.15,5.373564 L29.445,5.373564 L29.445,3.633564 L22.275,3.633564 L22.275,14.733564 L29.745,14.733564 Z M34.74,14.733564 C38.175,14.733564 40.515,13.098564 40.515,9.138564 C40.515,5.253564 38.22,3.633564 34.74,3.633564 L31.59,3.633564 L31.59,14.733564 L34.74,14.733564 Z M33.45,5.373564 L34.875,5.373564 C37.455,5.373564 38.64,6.573564 38.64,9.168564 C38.64,11.868564 37.47,13.038564 34.905,13.038564 L33.45,13.038564 L33.45,5.373564 Z M44.49,14.733564 L44.49,3.633564 L42.63,3.633564 L42.63,14.733564 L44.49,14.733564 Z M51.585,14.733564 L51.585,5.373564 L55.14,5.373564 L54.87,3.633564 L46.29,3.633564 L46.29,5.373564 L49.71,5.373564 L49.71,14.733564 L51.585,14.733564 Z M60.615,14.943564 C63.285,14.943564 65.61,12.918564 65.61,9.183564 C65.61,5.448564 63.285,3.423564 60.615,3.423564 C57.93,3.423564 55.605,5.448564 55.605,9.183564 C55.605,12.918564 57.93,14.943564 60.615,14.943564 Z M60.615,13.263564 C58.74,13.263564 57.48,11.703564 57.48,9.183564 C57.48,6.663564 58.74,5.148564 60.615,5.148564 C62.49,5.148564 63.75,6.663564 63.75,9.183564 C63.75,11.703564 62.49,13.263564 60.615,13.263564 Z M71.415,14.943564 C74.055,14.943564 75.525,13.518564 75.525,11.718564 C75.525,9.618564 73.845,8.943564 71.745,8.328564 C69.93,7.788564 69.135,7.428564 69.135,6.393564 C69.135,5.673564 69.855,5.118564 71.115,5.118564 C72.285,5.118564 73.455,5.733564 74.34,6.513564 L75.225,5.013564 C74.175,4.143564 72.78,3.423564 71.085,3.423564 C68.865,3.423564 67.305,4.668564 67.305,6.543564 C67.305,8.658564 69.015,9.228564 71.16,9.858564 C72.99,10.413564 73.695,10.863564 73.695,11.838564 C73.695,12.798564 72.75,13.278564 71.355,13.278564 C69.99,13.278564 68.595,12.513564 67.74,11.628564 L66.735,13.053564 C67.86,14.118564 69.42,14.943564 71.415,14.943564 Z M81.735,14.733564 L82.665,12.093564 L86.88,12.093564 L87.825,14.883564 L89.64,14.583564 L85.755,3.588564 L83.925,3.588564 L79.995,14.733564 L81.735,14.733564 Z M84.78,5.943564 L84.81,5.943564 L86.34,10.443564 L83.22,10.443564 L84.78,5.943564 Z M101.76,14.733564 L101.475,13.038564 L96.51,13.038564 L96.51,3.633564 L94.635,3.633564 L94.635,14.733564 L101.76,14.733564 Z M104.145,14.733564 L105.075,12.093564 L109.29,12.093564 L110.235,14.883564 L112.05,14.583564 L108.165,3.588564 L106.335,3.588564 L102.405,14.733564 L104.145,14.733564 Z M107.19,5.943564 L107.22,5.943564 L108.75,10.443564 L105.63,10.443564 L107.19,5.943564 Z M121.425,14.943564 C123.75,14.943564 125.1,13.758564 125.76,11.928564 L124.14,11.193564 C123.705,12.438564 122.805,13.263564 121.425,13.263564 C119.49,13.263564 118.38,11.703564 118.38,9.138564 C118.38,6.708564 119.43,5.148564 121.32,5.148564 C122.655,5.148564 123.465,5.898564 123.9,6.933564 L125.49,5.988564 C124.725,4.338564 123.42,3.423564 121.32,3.423564 C118.59,3.423564 116.505,5.508564 116.505,9.153564 C116.505,12.903564 118.56,14.943564 121.425,14.943564 Z M134.82,14.733564 L134.535,13.038564 L129.57,13.038564 L129.57,3.633564 L127.695,3.633564 L127.695,14.733564 L134.82,14.733564 Z M138.345,14.733564 L138.345,3.633564 L136.485,3.633564 L136.485,14.733564 L138.345,14.733564 Z M148.47,14.733564 L148.47,13.038564 L142.875,13.038564 L142.875,9.798564 L147.195,9.798564 L146.925,8.133564 L142.875,8.133564 L142.875,5.373564 L148.17,5.373564 L148.17,3.633564 L141,3.633564 L141,14.733564 L148.47,14.733564 Z M152.04,14.733564 L152.04,6.648564 L152.07,6.648564 L157.53,14.733564 L159.24,14.733564 L159.24,3.633564 L157.5,3.633564 L157.5,11.568564 L157.47,11.568564 L152.22,3.633564 L150.315,3.633564 L150.315,14.733564 L152.04,14.733564 Z M166.2,14.733564 L166.2,5.373564 L169.755,5.373564 L169.485,3.633564 L160.905,3.633564 L160.905,5.373564 L164.325,5.373564 L164.325,14.733564 L166.2,14.733564 Z M178.755,14.733564 L178.755,13.038564 L173.16,13.038564 L173.16,9.798564 L177.48,9.798564 L177.21,8.133564 L173.16,8.133564 L173.16,5.373564 L178.455,5.373564 L178.455,3.633564 L171.285,3.633564 L171.285,14.733564 L178.755,14.733564 Z M187.725,14.733564 L187.44,13.038564 L182.475,13.038564 L182.475,3.633564 L180.6,3.633564 L180.6,14.733564 L187.725,14.733564 Z M190.11,14.733564 L191.04,12.093564 L195.255,12.093564 L196.2,14.883564 L198.015,14.583564 L194.13,3.588564 L192.3,3.588564 L188.37,14.733564 L190.11,14.733564 Z M193.155,5.943564 L193.185,5.943564 L194.715,10.443564 L191.595,10.443564 L193.155,5.943564 Z" id="CRÉDITOS-A-LA-CLIENTELA"></path>
            </g>
            <g id="(MM€)" transform="translate(204.000000, 117.000000)" fill="#FFFFFF">
                <path d="M4.2627,14.433564 C2.3127,12.708564 1.0527,10.368564 1.0527,7.683564 C1.0527,4.998564 2.3127,2.658564 4.2627,0.933564 L3.9477,0.558564 C1.5027,2.613564 0.2277,4.878564 0.2277,7.683564 C0.2277,10.488564 1.5027,12.753564 3.9477,14.808564 L4.2627,14.433564 Z M7.3677,11.733564 L7.3677,2.028564 L7.3977,2.028564 C7.6377,2.718564 7.8327,3.168564 8.1027,3.858564 L11.2677,11.733564 L11.9577,11.733564 L15.1227,3.858564 C15.3927,3.168564 15.6777,2.433564 15.8277,2.028564 L15.8577,2.028564 L15.8577,11.733564 L16.6227,11.733564 L16.6227,0.633564 L15.6627,0.633564 L11.6427,10.713564 L11.6127,10.713564 L7.6077,0.633564 L6.6477,0.633564 L6.6477,11.733564 L7.3677,11.733564 Z M20.3127,11.733564 L20.3127,2.028564 L20.3427,2.028564 C20.5827,2.718564 20.7777,3.168564 21.0477,3.858564 L24.2127,11.733564 L24.9027,11.733564 L28.0677,3.858564 C28.3377,3.168564 28.6227,2.433564 28.7727,2.028564 L28.8027,2.028564 L28.8027,11.733564 L29.5677,11.733564 L29.5677,0.633564 L28.6077,0.633564 L24.5877,10.713564 L24.5577,10.713564 L20.5527,0.633564 L19.5927,0.633564 L19.5927,11.733564 L20.3127,11.733564 Z M33.2127,6.108564 C33.2127,6.408564 33.2277,6.693564 33.2427,6.963564 L31.3677,6.963564 L31.3677,7.653564 L33.3027,7.653564 C33.7077,10.563564 35.2527,11.943564 37.2627,11.943564 C39.2577,11.943564 40.3677,10.548564 40.8627,8.598564 L40.1577,8.433564 C39.6927,10.218564 38.9277,11.268564 37.2777,11.268564 C35.5677,11.268564 34.3827,10.038564 34.0377,7.653564 L37.6677,7.653564 L37.6677,6.963564 L33.9627,6.963564 C33.9477,6.678564 33.9327,6.363564 33.9327,6.048564 C33.9327,5.823564 33.9327,5.598564 33.9477,5.388564 L37.6677,5.388564 L37.6677,4.713564 L34.0227,4.713564 C34.3677,2.223564 35.7177,1.098564 37.2477,1.098564 C38.9577,1.098564 39.4977,2.133564 39.9627,3.798564 L40.6827,3.633564 C40.2027,1.743564 39.2427,0.423564 37.2627,0.423564 C35.4477,0.423564 33.7077,1.743564 33.3027,4.713564 L31.3677,4.713564 L31.3677,5.388564 L33.2277,5.388564 C33.2277,5.613564 33.2127,5.853564 33.2127,6.108564 Z M42.9477,14.808564 C45.3927,12.753564 46.6677,10.488564 46.6677,7.683564 C46.6677,4.878564 45.3927,2.613564 42.9477,0.558564 L42.6327,0.933564 C44.5827,2.658564 45.8427,4.998564 45.8427,7.683564 C45.8427,10.368564 44.5827,12.708564 42.6327,14.433564 L42.9477,14.808564 Z"></path>
            </g>
            <g id="DEPÓSITOS-DE-LA-CLIENTELA-" transform="translate(1.000000, 209.000000)" fill="#FFFFFF">
                <path d="M3.9686,15.243364 C7.4036,15.243364 9.7436,13.608364 9.7436,9.648364 C9.7436,5.763364 7.4486,4.143364 3.9686,4.143364 L0.8186,4.143364 L0.8186,15.243364 L3.9686,15.243364 Z M2.6786,5.883364 L4.1036,5.883364 C6.6836,5.883364 7.8686,7.083364 7.8686,9.678364 C7.8686,12.378364 6.6986,13.548364 4.1336,13.548364 L2.6786,13.548364 L2.6786,5.883364 Z M19.1936,15.243364 L19.1936,13.548364 L13.5986,13.548364 L13.5986,10.308364 L17.9186,10.308364 L17.6486,8.643364 L13.5986,8.643364 L13.5986,5.883364 L18.8936,5.883364 L18.8936,4.143364 L11.7236,4.143364 L11.7236,15.243364 L19.1936,15.243364 Z M22.8986,15.243364 L22.8986,11.028364 L24.8636,11.028364 C27.1436,11.028364 29.1836,10.278364 29.1836,7.548364 C29.1836,4.923364 27.3086,4.143364 24.9236,4.143364 L21.0386,4.143364 L21.0386,15.243364 L22.8986,15.243364 Z M22.8986,5.853364 L24.9386,5.853364 C26.6186,5.853364 27.3536,6.423364 27.3536,7.593364 C27.3536,8.838364 26.6036,9.393364 24.9536,9.393364 L22.8986,9.393364 L22.8986,5.853364 Z M34.4936,3.483364 L35.7086,3.483364 L37.8836,0.993364 L35.8886,0.993364 L34.4936,3.483364 Z M35.4386,15.453364 C38.1086,15.453364 40.4336,13.428364 40.4336,9.693364 C40.4336,5.958364 38.1086,3.933364 35.4386,3.933364 C32.7536,3.933364 30.4286,5.958364 30.4286,9.693364 C30.4286,13.428364 32.7536,15.453364 35.4386,15.453364 Z M35.4386,13.773364 C33.5636,13.773364 32.3036,12.213364 32.3036,9.693364 C32.3036,7.173364 33.5636,5.658364 35.4386,5.658364 C37.3136,5.658364 38.5736,7.173364 38.5736,9.693364 C38.5736,12.213364 37.3136,13.773364 35.4386,13.773364 Z M46.2386,15.453364 C48.8786,15.453364 50.3486,14.028364 50.3486,12.228364 C50.3486,10.128364 48.6686,9.453364 46.5686,8.838364 C44.7536,8.298364 43.9586,7.938364 43.9586,6.903364 C43.9586,6.183364 44.6786,5.628364 45.9386,5.628364 C47.1086,5.628364 48.2786,6.243364 49.1636,7.023364 L50.0486,5.523364 C48.9986,4.653364 47.6036,3.933364 45.9086,3.933364 C43.6886,3.933364 42.1286,5.178364 42.1286,7.053364 C42.1286,9.168364 43.8386,9.738364 45.9836,10.368364 C47.8136,10.923364 48.5186,11.373364 48.5186,12.348364 C48.5186,13.308364 47.5736,13.788364 46.1786,13.788364 C44.8136,13.788364 43.4186,13.023364 42.5636,12.138364 L41.5586,13.563364 C42.6836,14.628364 44.2436,15.453364 46.2386,15.453364 Z M54.3836,15.243364 L54.3836,4.143364 L52.5236,4.143364 L52.5236,15.243364 L54.3836,15.243364 Z M61.4786,15.243364 L61.4786,5.883364 L65.0336,5.883364 L64.7636,4.143364 L56.1836,4.143364 L56.1836,5.883364 L59.6036,5.883364 L59.6036,15.243364 L61.4786,15.243364 Z M70.5086,15.453364 C73.1786,15.453364 75.5036,13.428364 75.5036,9.693364 C75.5036,5.958364 73.1786,3.933364 70.5086,3.933364 C67.8236,3.933364 65.4986,5.958364 65.4986,9.693364 C65.4986,13.428364 67.8236,15.453364 70.5086,15.453364 Z M70.5086,13.773364 C68.6336,13.773364 67.3736,12.213364 67.3736,9.693364 C67.3736,7.173364 68.6336,5.658364 70.5086,5.658364 C72.3836,5.658364 73.6436,7.173364 73.6436,9.693364 C73.6436,12.213364 72.3836,13.773364 70.5086,13.773364 Z M81.3086,15.453364 C83.9486,15.453364 85.4186,14.028364 85.4186,12.228364 C85.4186,10.128364 83.7386,9.453364 81.6386,8.838364 C79.8236,8.298364 79.0286,7.938364 79.0286,6.903364 C79.0286,6.183364 79.7486,5.628364 81.0086,5.628364 C82.1786,5.628364 83.3486,6.243364 84.2336,7.023364 L85.1186,5.523364 C84.0686,4.653364 82.6736,3.933364 80.9786,3.933364 C78.7586,3.933364 77.1986,5.178364 77.1986,7.053364 C77.1986,9.168364 78.9086,9.738364 81.0536,10.368364 C82.8836,10.923364 83.5886,11.373364 83.5886,12.348364 C83.5886,13.308364 82.6436,13.788364 81.2486,13.788364 C79.8836,13.788364 78.4886,13.023364 77.6336,12.138364 L76.6286,13.563364 C77.7536,14.628364 79.3136,15.453364 81.3086,15.453364 Z M94.3736,15.243364 C97.8086,15.243364 100.1486,13.608364 100.1486,9.648364 C100.1486,5.763364 97.8536,4.143364 94.3736,4.143364 L91.2236,4.143364 L91.2236,15.243364 L94.3736,15.243364 Z M93.0836,5.883364 L94.5086,5.883364 C97.0886,5.883364 98.2736,7.083364 98.2736,9.678364 C98.2736,12.378364 97.1036,13.548364 94.5386,13.548364 L93.0836,13.548364 L93.0836,5.883364 Z M109.5986,15.243364 L109.5986,13.548364 L104.0036,13.548364 L104.0036,10.308364 L108.3236,10.308364 L108.0536,8.643364 L104.0036,8.643364 L104.0036,5.883364 L109.2986,5.883364 L109.2986,4.143364 L102.1286,4.143364 L102.1286,15.243364 L109.5986,15.243364 Z M122.3336,15.243364 L122.0486,13.548364 L117.0836,13.548364 L117.0836,4.143364 L115.2086,4.143364 L115.2086,15.243364 L122.3336,15.243364 Z M124.7186,15.243364 L125.6486,12.603364 L129.8636,12.603364 L130.8086,15.393364 L132.6236,15.093364 L128.7386,4.098364 L126.9086,4.098364 L122.9786,15.243364 L124.7186,15.243364 Z M127.7636,6.453364 L127.7936,6.453364 L129.3236,10.953364 L126.2036,10.953364 L127.7636,6.453364 Z M141.9986,15.453364 C144.3236,15.453364 145.6736,14.268364 146.3336,12.438364 L144.7136,11.703364 C144.2786,12.948364 143.3786,13.773364 141.9986,13.773364 C140.0636,13.773364 138.9536,12.213364 138.9536,9.648364 C138.9536,7.218364 140.0036,5.658364 141.8936,5.658364 C143.2286,5.658364 144.0386,6.408364 144.4736,7.443364 L146.0636,6.498364 C145.2986,4.848364 143.9936,3.933364 141.8936,3.933364 C139.1636,3.933364 137.0786,6.018364 137.0786,9.663364 C137.0786,13.413364 139.1336,15.453364 141.9986,15.453364 Z M155.3936,15.243364 L155.1086,13.548364 L150.1436,13.548364 L150.1436,4.143364 L148.2686,4.143364 L148.2686,15.243364 L155.3936,15.243364 Z M158.9186,15.243364 L158.9186,4.143364 L157.0586,4.143364 L157.0586,15.243364 L158.9186,15.243364 Z M169.0436,15.243364 L169.0436,13.548364 L163.4486,13.548364 L163.4486,10.308364 L167.7686,10.308364 L167.4986,8.643364 L163.4486,8.643364 L163.4486,5.883364 L168.7436,5.883364 L168.7436,4.143364 L161.5736,4.143364 L161.5736,15.243364 L169.0436,15.243364 Z M172.6136,15.243364 L172.6136,7.158364 L172.6436,7.158364 L178.1036,15.243364 L179.8136,15.243364 L179.8136,4.143364 L178.0736,4.143364 L178.0736,12.078364 L178.0436,12.078364 L172.7936,4.143364 L170.8886,4.143364 L170.8886,15.243364 L172.6136,15.243364 Z M186.7736,15.243364 L186.7736,5.883364 L190.3286,5.883364 L190.0586,4.143364 L181.4786,4.143364 L181.4786,5.883364 L184.8986,5.883364 L184.8986,15.243364 L186.7736,15.243364 Z M199.3286,15.243364 L199.3286,13.548364 L193.7336,13.548364 L193.7336,10.308364 L198.0536,10.308364 L197.7836,8.643364 L193.7336,8.643364 L193.7336,5.883364 L199.0286,5.883364 L199.0286,4.143364 L191.8586,4.143364 L191.8586,15.243364 L199.3286,15.243364 Z M208.2986,15.243364 L208.0136,13.548364 L203.0486,13.548364 L203.0486,4.143364 L201.1736,4.143364 L201.1736,15.243364 L208.2986,15.243364 Z M210.6836,15.243364 L211.6136,12.603364 L215.8286,12.603364 L216.7736,15.393364 L218.5886,15.093364 L214.7036,4.098364 L212.8736,4.098364 L208.9436,15.243364 L210.6836,15.243364 Z M213.7286,6.453364 L213.7586,6.453364 L215.2886,10.953364 L212.1686,10.953364 L213.7286,6.453364 Z" id="DEPÓSITOS-DE-LA-CLIENTELA"></path>
            </g>
            <g id="(MM€)" transform="translate(227.000000, 212.000000)" fill="#FFFFFF">
                <path d="M4.8359,14.943364 C2.8859,13.218364 1.6259,10.878364 1.6259,8.193364 C1.6259,5.508364 2.8859,3.168364 4.8359,1.443364 L4.5209,1.068364 C2.0759,3.123364 0.8009,5.388364 0.8009,8.193364 C0.8009,10.998364 2.0759,13.263364 4.5209,15.318364 L4.8359,14.943364 Z M7.9409,12.243364 L7.9409,2.538364 L7.9709,2.538364 C8.2109,3.228364 8.4059,3.678364 8.6759,4.368364 L11.8409,12.243364 L12.5309,12.243364 L15.6959,4.368364 C15.9659,3.678364 16.2509,2.943364 16.4009,2.538364 L16.4309,2.538364 L16.4309,12.243364 L17.1959,12.243364 L17.1959,1.143364 L16.2359,1.143364 L12.2159,11.223364 L12.1859,11.223364 L8.1809,1.143364 L7.2209,1.143364 L7.2209,12.243364 L7.9409,12.243364 Z M20.8859,12.243364 L20.8859,2.538364 L20.9159,2.538364 C21.1559,3.228364 21.3509,3.678364 21.6209,4.368364 L24.7859,12.243364 L25.4759,12.243364 L28.6409,4.368364 C28.9109,3.678364 29.1959,2.943364 29.3459,2.538364 L29.3759,2.538364 L29.3759,12.243364 L30.1409,12.243364 L30.1409,1.143364 L29.1809,1.143364 L25.1609,11.223364 L25.1309,11.223364 L21.1259,1.143364 L20.1659,1.143364 L20.1659,12.243364 L20.8859,12.243364 Z M33.7859,6.618364 C33.7859,6.918364 33.8009,7.203364 33.8159,7.473364 L31.9409,7.473364 L31.9409,8.163364 L33.8759,8.163364 C34.2809,11.073364 35.8259,12.453364 37.8359,12.453364 C39.8309,12.453364 40.9409,11.058364 41.4359,9.108364 L40.7309,8.943364 C40.2659,10.728364 39.5009,11.778364 37.8509,11.778364 C36.1409,11.778364 34.9559,10.548364 34.6109,8.163364 L38.2409,8.163364 L38.2409,7.473364 L34.5359,7.473364 C34.5209,7.188364 34.5059,6.873364 34.5059,6.558364 C34.5059,6.333364 34.5059,6.108364 34.5209,5.898364 L38.2409,5.898364 L38.2409,5.223364 L34.5959,5.223364 C34.9409,2.733364 36.2909,1.608364 37.8209,1.608364 C39.5309,1.608364 40.0709,2.643364 40.5359,4.308364 L41.2559,4.143364 C40.7759,2.253364 39.8159,0.933364 37.8359,0.933364 C36.0209,0.933364 34.2809,2.253364 33.8759,5.223364 L31.9409,5.223364 L31.9409,5.898364 L33.8009,5.898364 C33.8009,6.123364 33.7859,6.363364 33.7859,6.618364 Z M43.5209,15.318364 C45.9659,13.263364 47.2409,10.998364 47.2409,8.193364 C47.2409,5.388364 45.9659,3.123364 43.5209,1.068364 L43.2059,1.443364 C45.1559,3.168364 46.4159,5.508364 46.4159,8.193364 C46.4159,10.878364 45.1559,13.218364 43.2059,14.943364 L43.5209,15.318364 Z"></path>
            </g>
            <g id="PATRIMONIO-NETO-(MM€)" transform="translate(2.000000, 401.000000)" fill="#FFFFFF">
                <path d="M2.1259,12.078364 L2.1259,7.863364 L4.0909,7.863364 C6.3709,7.863364 8.4109,7.113364 8.4109,4.383364 C8.4109,1.758364 6.5359,0.978364 4.1509,0.978364 L0.2659,0.978364 L0.2659,12.078364 L2.1259,12.078364 Z M2.1259,2.688364 L4.1659,2.688364 C5.8459,2.688364 6.5809,3.258364 6.5809,4.428364 C6.5809,5.673364 5.8309,6.228364 4.1809,6.228364 L2.1259,6.228364 L2.1259,2.688364 Z M9.8509,12.078364 L10.7809,9.438364 L14.9959,9.438364 L15.9409,12.228364 L17.7559,11.928364 L13.8709,0.933364 L12.0409,0.933364 L8.1109,12.078364 L9.8509,12.078364 Z M12.8959,3.288364 L12.9259,3.288364 L14.4559,7.788364 L11.3359,7.788364 L12.8959,3.288364 Z M22.5259,12.078364 L22.5259,2.718364 L26.0809,2.718364 L25.8109,0.978364 L17.2309,0.978364 L17.2309,2.718364 L20.6509,2.718364 L20.6509,12.078364 L22.5259,12.078364 Z M29.4559,12.078364 L29.4559,7.698364 L31.4209,7.698364 L34.1059,12.228364 L35.9359,11.928364 L33.2959,7.458364 C34.8259,7.068364 35.7409,6.153364 35.7409,4.383364 C35.7409,2.028364 34.2109,0.978364 31.5859,0.978364 L27.6109,0.978364 L27.6109,12.078364 L29.4559,12.078364 Z M29.4559,2.688364 L31.4959,2.688364 C33.0859,2.688364 33.9109,3.123364 33.9109,4.353364 C33.9109,5.613364 33.0859,6.063364 31.4959,6.063364 L29.4559,6.063364 L29.4559,2.688364 Z M39.9709,12.078364 L39.9709,0.978364 L38.1109,0.978364 L38.1109,12.078364 L39.9709,12.078364 Z M44.3209,12.078364 L44.3209,3.708364 L44.3509,3.708364 C44.5909,4.788364 44.7559,5.253364 45.0109,6.048364 L47.1709,12.078364 L48.8359,12.078364 L51.0109,6.048364 C51.2509,5.268364 51.4909,4.563364 51.6559,3.783364 L51.6859,3.783364 L51.6859,12.078364 L53.5009,12.078364 L53.5009,0.978364 L50.9959,0.978364 L48.1009,9.783364 L48.0709,9.783364 L45.0859,0.978364 L42.6259,0.978364 L42.6259,12.078364 L44.3209,12.078364 Z M60.4909,12.288364 C63.1609,12.288364 65.4859,10.263364 65.4859,6.528364 C65.4859,2.793364 63.1609,0.768364 60.4909,0.768364 C57.8059,0.768364 55.4809,2.793364 55.4809,6.528364 C55.4809,10.263364 57.8059,12.288364 60.4909,12.288364 Z M60.4909,10.608364 C58.6159,10.608364 57.3559,9.048364 57.3559,6.528364 C57.3559,4.008364 58.6159,2.493364 60.4909,2.493364 C62.3659,2.493364 63.6259,4.008364 63.6259,6.528364 C63.6259,9.048364 62.3659,10.608364 60.4909,10.608364 Z M69.2059,12.078364 L69.2059,3.993364 L69.2359,3.993364 L74.6959,12.078364 L76.4059,12.078364 L76.4059,0.978364 L74.6659,0.978364 L74.6659,8.913364 L74.6359,8.913364 L69.3859,0.978364 L67.4809,0.978364 L67.4809,12.078364 L69.2059,12.078364 Z M80.9209,12.078364 L80.9209,0.978364 L79.0609,0.978364 L79.0609,12.078364 L80.9209,12.078364 Z M88.0459,12.288364 C90.7159,12.288364 93.0409,10.263364 93.0409,6.528364 C93.0409,2.793364 90.7159,0.768364 88.0459,0.768364 C85.3609,0.768364 83.0359,2.793364 83.0359,6.528364 C83.0359,10.263364 85.3609,12.288364 88.0459,12.288364 Z M88.0459,10.608364 C86.1709,10.608364 84.9109,9.048364 84.9109,6.528364 C84.9109,4.008364 86.1709,2.493364 88.0459,2.493364 C89.9209,2.493364 91.1809,4.008364 91.1809,6.528364 C91.1809,9.048364 89.9209,10.608364 88.0459,10.608364 Z M100.5259,12.078364 L100.5259,3.993364 L100.5559,3.993364 L106.0159,12.078364 L107.7259,12.078364 L107.7259,0.978364 L105.9859,0.978364 L105.9859,8.913364 L105.9559,8.913364 L100.7059,0.978364 L98.8009,0.978364 L98.8009,12.078364 L100.5259,12.078364 Z M117.7159,12.078364 L117.7159,10.383364 L112.1209,10.383364 L112.1209,7.143364 L116.4409,7.143364 L116.1709,5.478364 L112.1209,5.478364 L112.1209,2.718364 L117.4159,2.718364 L117.4159,0.978364 L110.2459,0.978364 L110.2459,12.078364 L117.7159,12.078364 Z M124.0009,12.078364 L124.0009,2.718364 L127.5559,2.718364 L127.2859,0.978364 L118.7059,0.978364 L118.7059,2.718364 L122.1259,2.718364 L122.1259,12.078364 L124.0009,12.078364 Z M133.0309,12.288364 C135.7009,12.288364 138.0259,10.263364 138.0259,6.528364 C138.0259,2.793364 135.7009,0.768364 133.0309,0.768364 C130.3459,0.768364 128.0209,2.793364 128.0209,6.528364 C128.0209,10.263364 130.3459,12.288364 133.0309,12.288364 Z M133.0309,10.608364 C131.1559,10.608364 129.8959,9.048364 129.8959,6.528364 C129.8959,4.008364 131.1559,2.493364 133.0309,2.493364 C134.9059,2.493364 136.1659,4.008364 136.1659,6.528364 C136.1659,9.048364 134.9059,10.608364 133.0309,10.608364 Z" id="PATRIMONIO-NETO"></path>
                <path d="M147.9659,14.778364 C146.0159,13.053364 144.7559,10.713364 144.7559,8.028364 C144.7559,5.343364 146.0159,3.003364 147.9659,1.278364 L147.6509,0.903364 C145.2059,2.958364 143.9309,5.223364 143.9309,8.028364 C143.9309,10.833364 145.2059,13.098364 147.6509,15.153364 L147.9659,14.778364 Z M151.0709,12.078364 L151.0709,2.373364 L151.1009,2.373364 C151.3409,3.063364 151.5359,3.513364 151.8059,4.203364 L154.9709,12.078364 L155.6609,12.078364 L158.8259,4.203364 C159.0959,3.513364 159.3809,2.778364 159.5309,2.373364 L159.5609,2.373364 L159.5609,12.078364 L160.3259,12.078364 L160.3259,0.978364 L159.3659,0.978364 L155.3459,11.058364 L155.3159,11.058364 L151.3109,0.978364 L150.3509,0.978364 L150.3509,12.078364 L151.0709,12.078364 Z M164.0159,12.078364 L164.0159,2.373364 L164.0459,2.373364 C164.2859,3.063364 164.4809,3.513364 164.7509,4.203364 L167.9159,12.078364 L168.6059,12.078364 L171.7709,4.203364 C172.0409,3.513364 172.3259,2.778364 172.4759,2.373364 L172.5059,2.373364 L172.5059,12.078364 L173.2709,12.078364 L173.2709,0.978364 L172.3109,0.978364 L168.2909,11.058364 L168.2609,11.058364 L164.2559,0.978364 L163.2959,0.978364 L163.2959,12.078364 L164.0159,12.078364 Z M176.9159,6.453364 C176.9159,6.753364 176.9309,7.038364 176.9459,7.308364 L175.0709,7.308364 L175.0709,7.998364 L177.0059,7.998364 C177.4109,10.908364 178.9559,12.288364 180.9659,12.288364 C182.9609,12.288364 184.0709,10.893364 184.5659,8.943364 L183.8609,8.778364 C183.3959,10.563364 182.6309,11.613364 180.9809,11.613364 C179.2709,11.613364 178.0859,10.383364 177.7409,7.998364 L181.3709,7.998364 L181.3709,7.308364 L177.6659,7.308364 C177.6509,7.023364 177.6359,6.708364 177.6359,6.393364 C177.6359,6.168364 177.6359,5.943364 177.6509,5.733364 L181.3709,5.733364 L181.3709,5.058364 L177.7259,5.058364 C178.0709,2.568364 179.4209,1.443364 180.9509,1.443364 C182.6609,1.443364 183.2009,2.478364 183.6659,4.143364 L184.3859,3.978364 C183.9059,2.088364 182.9459,0.768364 180.9659,0.768364 C179.1509,0.768364 177.4109,2.088364 177.0059,5.058364 L175.0709,5.058364 L175.0709,5.733364 L176.9309,5.733364 C176.9309,5.958364 176.9159,6.198364 176.9159,6.453364 Z M186.6509,15.153364 C189.0959,13.098364 190.3709,10.833364 190.3709,8.028364 C190.3709,5.223364 189.0959,2.958364 186.6509,0.903364 L186.3359,1.278364 C188.2859,3.003364 189.5459,5.343364 189.5459,8.028364 C189.5459,10.713364 188.2859,13.053364 186.3359,14.778364 L186.6509,15.153364 Z" id="(MM€)"></path>
            </g>
            <g id="750" transform="translate(647.000000, 73.000000)" fill="#FFFFFF">
                <path d="M1.9009,12.2483635 L6.6859,1.8233635 L6.6859,1.1483635 L0.0259,1.1483635 L0.1459,1.8683635 L5.8909,1.8683635 L1.1209,12.2483635 L1.9009,12.2483635 Z M11.2309,12.4583635 C13.4959,12.4583635 14.9059,10.7783635 14.9059,8.5883635 C14.9059,6.3683635 13.4359,4.9883635 11.5159,4.9883635 C10.3159,4.9883635 9.5809,5.4083635 8.9959,6.0983635 L9.3259,1.8683635 L14.3059,1.8683635 L14.1709,1.1483635 L8.6509,1.1483635 L8.2309,6.9083635 L8.8459,7.1633635 C9.4609,6.2483635 10.2559,5.6483635 11.5009,5.6483635 C13.0159,5.6483635 14.1709,6.7133635 14.1709,8.6333635 C14.1709,10.2083635 13.2559,11.7983635 11.2459,11.7983635 C9.8509,11.7983635 8.9509,11.0483635 8.3059,9.9683635 L7.6909,10.3433635 C8.3809,11.5883635 9.6559,12.4583635 11.2309,12.4583635 Z M20.4859,12.4583635 C23.0209,12.4583635 24.4159,10.1633635 24.4159,6.6983635 C24.4159,3.2333635 23.0209,0.9383635 20.4859,0.9383635 C17.9509,0.9383635 16.5409,3.2333635 16.5409,6.6983635 C16.5409,10.1633635 17.9509,12.4583635 20.4859,12.4583635 Z M20.4859,11.7983635 C18.5509,11.7983635 17.2759,9.9683635 17.2759,6.6983635 C17.2759,3.4283635 18.4909,1.5983635 20.4859,1.5983635 C22.4059,1.5983635 23.6809,3.4283635 23.6809,6.6983635 C23.6809,9.9683635 22.4659,11.7983635 20.4859,11.7983635 Z"></path>
            </g>
            <g id="732" transform="translate(636.000000, 50.000000)" fill="#FFFFFF">
                <path d="M2.0359,11.9183635 L6.8209,1.4933635 L6.8209,0.8183635 L0.1609,0.8183635 L0.2809,1.5383635 L6.0259,1.5383635 L1.2559,11.9183635 L2.0359,11.9183635 Z M11.3659,12.1283635 C13.5709,12.1283635 14.9209,10.7183635 14.9209,8.9633635 C14.9209,7.2833635 14.0959,6.3533635 12.4309,6.0083635 C13.8109,5.7833635 14.6959,4.8233635 14.6959,3.3683635 C14.6959,2.0033635 13.7809,0.6083635 11.4559,0.6083635 C9.9709,0.6083635 8.9209,1.3733635 8.1709,2.3333635 L8.7709,2.7233635 C9.4009,1.8833635 10.2409,1.2683635 11.4409,1.2683635 C13.2259,1.2683635 13.9609,2.2133635 13.9609,3.4133635 C13.9609,4.9283635 12.9559,5.6783635 10.5259,5.6783635 L10.0459,5.6783635 L10.0459,6.3383635 L10.4359,6.3383635 C13.2409,6.3383635 14.1859,7.2683635 14.1859,8.9933635 C14.1859,10.4333635 13.1209,11.4683635 11.3809,11.4683635 C10.1059,11.4683635 9.0859,10.9283635 8.2759,9.6383635 L7.6609,10.0133635 C8.4409,11.3483635 9.7909,12.1283635 11.3659,12.1283635 Z M23.6659,11.9183635 L23.5459,11.2283635 L17.4709,11.2283635 C17.5009,10.1483635 18.5059,8.8133635 20.6059,7.4783635 C22.7359,6.1283635 23.5609,5.1833635 23.5609,3.6083635 C23.5609,1.8683635 22.3459,0.6083635 20.3959,0.6083635 C18.8659,0.6083635 17.6509,1.4333635 16.9309,2.9933635 L17.5459,3.2933635 C18.1909,1.9133635 19.0609,1.2683635 20.3659,1.2683635 C21.9859,1.2683635 22.8259,2.2433635 22.8259,3.6533635 C22.8259,4.8683635 22.1509,5.7083635 20.5009,6.7583635 C17.5759,8.6333635 16.6909,10.0733635 16.6909,11.6783635 L16.6909,11.9183635 L23.6659,11.9183635 Z"></path>
            </g>
            <g id="430" transform="translate(380.000000, 144.000000)" fill="#FFFFFF">
                <path d="M6.7309,11.428364 L6.7309,8.578364 L8.6809,8.578364 L8.5459,7.903364 L6.7309,7.903364 L6.7309,0.328364 L5.7409,0.328364 L0.6859,8.053364 L0.6859,8.578364 L6.0109,8.578364 L6.0109,11.428364 L6.7309,11.428364 Z M5.9809,1.183364 L6.0109,1.183364 L6.0109,7.903364 L1.5709,7.903364 L5.9809,1.183364 Z M13.2109,11.638364 C15.4159,11.638364 16.7659,10.228364 16.7659,8.473364 C16.7659,6.793364 15.9409,5.863364 14.2759,5.518364 C15.6559,5.293364 16.5409,4.333364 16.5409,2.878364 C16.5409,1.513364 15.6259,0.118364 13.3009,0.118364 C11.8159,0.118364 10.7659,0.883364 10.0159,1.843364 L10.6159,2.233364 C11.2459,1.393364 12.0859,0.778364 13.2859,0.778364 C15.0709,0.778364 15.8059,1.723364 15.8059,2.923364 C15.8059,4.438364 14.8009,5.188364 12.3709,5.188364 L11.8909,5.188364 L11.8909,5.848364 L12.2809,5.848364 C15.0859,5.848364 16.0309,6.778364 16.0309,8.503364 C16.0309,9.943364 14.9659,10.978364 13.2259,10.978364 C11.9509,10.978364 10.9309,10.438364 10.1209,9.148364 L9.5059,9.523364 C10.2859,10.858364 11.6359,11.638364 13.2109,11.638364 Z M22.5709,11.638364 C25.1059,11.638364 26.5009,9.343364 26.5009,5.878364 C26.5009,2.413364 25.1059,0.118364 22.5709,0.118364 C20.0359,0.118364 18.6259,2.413364 18.6259,5.878364 C18.6259,9.343364 20.0359,11.638364 22.5709,11.638364 Z M22.5709,10.978364 C20.6359,10.978364 19.3609,9.148364 19.3609,5.878364 C19.3609,2.608364 20.5759,0.778364 22.5709,0.778364 C24.4909,0.778364 25.7659,2.608364 25.7659,5.878364 C25.7659,9.148364 24.5509,10.978364 22.5709,10.978364 Z"></path>
            </g>
            <g id="401" transform="translate(358.000000, 245.000000)" fill="#FFFFFF">
                <path d="M6.9909,12.053364 L6.9909,9.203364 L8.9409,9.203364 L8.8059,8.528364 L6.9909,8.528364 L6.9909,0.953364 L6.0009,0.953364 L0.9459,8.678364 L0.9459,9.203364 L6.2709,9.203364 L6.2709,12.053364 L6.9909,12.053364 Z M6.2409,1.808364 L6.2709,1.808364 L6.2709,8.528364 L1.8309,8.528364 L6.2409,1.808364 Z M14.0859,12.263364 C16.6209,12.263364 18.0159,9.968364 18.0159,6.503364 C18.0159,3.038364 16.6209,0.743364 14.0859,0.743364 C11.5509,0.743364 10.1409,3.038364 10.1409,6.503364 C10.1409,9.968364 11.5509,12.263364 14.0859,12.263364 Z M14.0859,11.603364 C12.1509,11.603364 10.8759,9.773364 10.8759,6.503364 C10.8759,3.233364 12.0909,1.403364 14.0859,1.403364 C16.0059,1.403364 17.2809,3.233364 17.2809,6.503364 C17.2809,9.773364 16.0659,11.603364 14.0859,11.603364 Z M23.0409,12.053364 L23.0409,0.953364 L22.3659,0.953364 L20.0709,1.793364 L20.1759,2.438364 L22.3059,1.658364 L22.3059,12.053364 L23.0409,12.053364 Z"></path>
            </g>
            <g id="403" transform="translate(359.000000, 266.000000)" fill="#FFFFFF">
                <path d="M6.6659,11.768364 L6.6659,8.918364 L8.6159,8.918364 L8.4809,8.243364 L6.6659,8.243364 L6.6659,0.668364 L5.6759,0.668364 L0.6209,8.393364 L0.6209,8.918364 L5.9459,8.918364 L5.9459,11.768364 L6.6659,11.768364 Z M5.9159,1.523364 L5.9459,1.523364 L5.9459,8.243364 L1.5059,8.243364 L5.9159,1.523364 Z M13.7609,11.978364 C16.2959,11.978364 17.6909,9.683364 17.6909,6.218364 C17.6909,2.753364 16.2959,0.458364 13.7609,0.458364 C11.2259,0.458364 9.8159,2.753364 9.8159,6.218364 C9.8159,9.683364 11.2259,11.978364 13.7609,11.978364 Z M13.7609,11.318364 C11.8259,11.318364 10.5509,9.488364 10.5509,6.218364 C10.5509,2.948364 11.7659,1.118364 13.7609,1.118364 C15.6809,1.118364 16.9559,2.948364 16.9559,6.218364 C16.9559,9.488364 15.7409,11.318364 13.7609,11.318364 Z M22.6409,11.978364 C24.8459,11.978364 26.1959,10.568364 26.1959,8.813364 C26.1959,7.133364 25.3709,6.203364 23.7059,5.858364 C25.0859,5.633364 25.9709,4.673364 25.9709,3.218364 C25.9709,1.853364 25.0559,0.458364 22.7309,0.458364 C21.2459,0.458364 20.1959,1.223364 19.4459,2.183364 L20.0459,2.573364 C20.6759,1.733364 21.5159,1.118364 22.7159,1.118364 C24.5009,1.118364 25.2359,2.063364 25.2359,3.263364 C25.2359,4.778364 24.2309,5.528364 21.8009,5.528364 L21.3209,5.528364 L21.3209,6.188364 L21.7109,6.188364 C24.5159,6.188364 25.4609,7.118364 25.4609,8.843364 C25.4609,10.283364 24.3959,11.318364 22.6559,11.318364 C21.3809,11.318364 20.3609,10.778364 19.5509,9.488364 L18.9359,9.863364 C19.7159,11.198364 21.0659,11.978364 22.6409,11.978364 Z"></path>
            </g>
            <g id="55" transform="translate(73.000000, 435.000000)" fill="#FFFFFF">
                <path d="M4.0109,11.383364 C6.2759,11.383364 7.6859,9.703364 7.6859,7.513364 C7.6859,5.293364 6.2159,3.913364 4.2959,3.913364 C3.0959,3.913364 2.3609,4.333364 1.7759,5.023364 L2.1059,0.793364 L7.0859,0.793364 L6.9509,0.073364 L1.4309,0.073364 L1.0109,5.833364 L1.6259,6.088364 C2.2409,5.173364 3.0359,4.573364 4.2809,4.573364 C5.7959,4.573364 6.9509,5.638364 6.9509,7.558364 C6.9509,9.133364 6.0359,10.723364 4.0259,10.723364 C2.6309,10.723364 1.7309,9.973364 1.0859,8.893364 L0.4709,9.268364 C1.1609,10.513364 2.4359,11.383364 4.0109,11.383364 Z M12.6509,11.383364 C14.9159,11.383364 16.3259,9.703364 16.3259,7.513364 C16.3259,5.293364 14.8559,3.913364 12.9359,3.913364 C11.7359,3.913364 11.0009,4.333364 10.4159,5.023364 L10.7459,0.793364 L15.7259,0.793364 L15.5909,0.073364 L10.0709,0.073364 L9.6509,5.833364 L10.2659,6.088364 C10.8809,5.173364 11.6759,4.573364 12.9209,4.573364 C14.4359,4.573364 15.5909,5.638364 15.5909,7.558364 C15.5909,9.133364 14.6759,10.723364 12.6659,10.723364 C11.2709,10.723364 10.3709,9.973364 9.7259,8.893364 L9.1109,9.268364 C9.8009,10.513364 11.0759,11.383364 12.6509,11.383364 Z"></path>
            </g>
            <g id="55" transform="translate(73.000000, 455.000000)" fill="#FFFFFF">
                <path d="M4.0666,11.596964 C6.3316,11.596964 7.7416,9.916964 7.7416,7.726964 C7.7416,5.506964 6.2716,4.126964 4.3516,4.126964 C3.1516,4.126964 2.4166,4.546964 1.8316,5.236964 L2.1616,1.006964 L7.1416,1.006964 L7.0066,0.286964 L1.4866,0.286964 L1.0666,6.046964 L1.6816,6.301964 C2.2966,5.386964 3.0916,4.786964 4.3366,4.786964 C5.8516,4.786964 7.0066,5.851964 7.0066,7.771964 C7.0066,9.346964 6.0916,10.936964 4.0816,10.936964 C2.6866,10.936964 1.7866,10.186964 1.1416,9.106964 L0.5266,9.481964 C1.2166,10.726964 2.4916,11.596964 4.0666,11.596964 Z M12.7066,11.596964 C14.9716,11.596964 16.3816,9.916964 16.3816,7.726964 C16.3816,5.506964 14.9116,4.126964 12.9916,4.126964 C11.7916,4.126964 11.0566,4.546964 10.4716,5.236964 L10.8016,1.006964 L15.7816,1.006964 L15.6466,0.286964 L10.1266,0.286964 L9.7066,6.046964 L10.3216,6.301964 C10.9366,5.386964 11.7316,4.786964 12.9766,4.786964 C14.4916,4.786964 15.6466,5.851964 15.6466,7.771964 C15.6466,9.346964 14.7316,10.936964 12.7216,10.936964 C11.3266,10.936964 10.4266,10.186964 9.7816,9.106964 L9.1666,9.481964 C9.8566,10.726964 11.1316,11.596964 12.7066,11.596964 Z"></path>
            </g>
            <g id="433" transform="translate(384.000000, 166.000000)" fill="#FFFFFF">
                <path d="M6.5567,11.422564 L6.5567,8.572564 L8.5067,8.572564 L8.3717,7.897564 L6.5567,7.897564 L6.5567,0.322564 L5.5667,0.322564 L0.5117,8.047564 L0.5117,8.572564 L5.8367,8.572564 L5.8367,11.422564 L6.5567,11.422564 Z M5.8067,1.177564 L5.8367,1.177564 L5.8367,7.897564 L1.3967,7.897564 L5.8067,1.177564 Z M13.0367,11.632564 C15.2417,11.632564 16.5917,10.222564 16.5917,8.467564 C16.5917,6.787564 15.7667,5.857564 14.1017,5.512564 C15.4817,5.287564 16.3667,4.327564 16.3667,2.872564 C16.3667,1.507564 15.4517,0.112564 13.1267,0.112564 C11.6417,0.112564 10.5917,0.877564 9.8417,1.837564 L10.4417,2.227564 C11.0717,1.387564 11.9117,0.772564 13.1117,0.772564 C14.8967,0.772564 15.6317,1.717564 15.6317,2.917564 C15.6317,4.432564 14.6267,5.182564 12.1967,5.182564 L11.7167,5.182564 L11.7167,5.842564 L12.1067,5.842564 C14.9117,5.842564 15.8567,6.772564 15.8567,8.497564 C15.8567,9.937564 14.7917,10.972564 13.0517,10.972564 C11.7767,10.972564 10.7567,10.432564 9.9467,9.142564 L9.3317,9.517564 C10.1117,10.852564 11.4617,11.632564 13.0367,11.632564 Z M21.7817,11.632564 C23.9867,11.632564 25.3367,10.222564 25.3367,8.467564 C25.3367,6.787564 24.5117,5.857564 22.8467,5.512564 C24.2267,5.287564 25.1117,4.327564 25.1117,2.872564 C25.1117,1.507564 24.1967,0.112564 21.8717,0.112564 C20.3867,0.112564 19.3367,0.877564 18.5867,1.837564 L19.1867,2.227564 C19.8167,1.387564 20.6567,0.772564 21.8567,0.772564 C23.6417,0.772564 24.3767,1.717564 24.3767,2.917564 C24.3767,4.432564 23.3717,5.182564 20.9417,5.182564 L20.4617,5.182564 L20.4617,5.842564 L20.8517,5.842564 C23.6567,5.842564 24.6017,6.772564 24.6017,8.497564 C24.6017,9.937564 23.5367,10.972564 21.7967,10.972564 C20.5217,10.972564 19.5017,10.432564 18.6917,9.142564 L18.0767,9.517564 C18.8567,10.852564 20.2067,11.632564 21.7817,11.632564 Z"></path>
            </g>
            <polygon id="Fill-8" points="2.658 59.365 22.492 59.365 35.119 65.734 18.157 65.734"></polygon>
            <polygon id="Fill-10" points="2.658 79.226 22.492 79.226 35.119 85.596 18.157 85.596"></polygon>
            <polygon id="Fill-12" points="1.658 153.824 21.492 153.824 34.119 160.194 17.157 160.194"></polygon>
            <polygon id="Fill-14" points="1.658 173.686 21.492 173.686 34.119 180.056 17.157 180.056"></polygon>
            <polygon id="Fill-16" points="1.658 250.529 21.492 250.529 34.119 256.899 17.157 256.899"></polygon>
            <polygon id="Fill-18" points="1.658 271.39 21.492 271.39 34.119 277.76 17.157 277.76"></polygon>
            <polygon id="Fill-20" points="1.325 439.955 21.159 439.955 33.786 446.324 16.824 446.324"></polygon>
            <polygon id="Fill-22" points="1.325 459.817 21.159 459.817 33.786 466.186 16.824 466.186"></polygon>
            <polygon id="Fill-24" points="1.325 346.646 21.159 346.646 33.786 353.016 16.824 353.016"></polygon>
            <polygon id="Fill-26" points="1.325 366.508 21.159 366.508 33.786 372.878 16.824 372.878"></polygon>
            <polygon id="Fill-28" fill="#2ECDCD" points="623.8013 56.4744 619.1683 65.7404 18.1433 65.7404 22.7763 56.4744"></polygon>
            <polygon id="Fill-29" fill="#2A86CA" points="638.7678 76.3357 634.1348 85.6017 18.1588 85.6017 22.7918 76.3357"></polygon>
            <polygon id="Fill-30" fill="#2ECDCD" points="373.3982 150.8928 368.7652 160.1588 17.4812 160.1588 22.1142 150.8928"></polygon>
            <polygon id="Fill-31" fill="#2A86CA" points="376.2764 170.7395 371.6434 180.0055 17.4584 180.0055 22.0914 170.7395"></polygon>
            <polygon id="Fill-32" fill="#2ECDCD" points="349.2214 247.7405 344.5884 257.0065 17.4254 257.0065 22.0594 247.7405"></polygon>
            <polygon id="Fill-33" fill="#2A86CA" points="350.9482 268.509 346.3152 277.775 17.7142 277.775 22.3472 268.509"></polygon>
            <polygon id="Fill-34" fill="#2ECDCD" points="62.2764 437.2336 57.6434 446.4996 17.1124 446.4996 21.7454 437.2336"></polygon>
            <polygon id="Fill-35" fill="#2A86CA" points="62.0283 457.072 57.3953 466.338 17.2303 466.338 21.8633 457.072"></polygon>
            <g id="PATRIMONIO-NETO-(MM€)" transform="translate(2.000000, 308.000000)" fill="#FFFFFF">
                <path d="M2.12,12.005064 L2.12,7.790064 L4.085,7.790064 C6.365,7.790064 8.405,7.040064 8.405,4.310064 C8.405,1.685064 6.53,0.905064 4.145,0.905064 L0.26,0.905064 L0.26,12.005064 L2.12,12.005064 Z M2.12,2.615064 L4.16,2.615064 C5.84,2.615064 6.575,3.185064 6.575,4.355064 C6.575,5.600064 5.825,6.155064 4.175,6.155064 L2.12,6.155064 L2.12,2.615064 Z M9.845,12.005064 L10.775,9.365064 L14.99,9.365064 L15.935,12.155064 L17.75,11.855064 L13.865,0.860064 L12.035,0.860064 L8.105,12.005064 L9.845,12.005064 Z M12.89,3.215064 L12.92,3.215064 L14.45,7.715064 L11.33,7.715064 L12.89,3.215064 Z M22.52,12.005064 L22.52,2.645064 L26.075,2.645064 L25.805,0.905064 L17.225,0.905064 L17.225,2.645064 L20.645,2.645064 L20.645,12.005064 L22.52,12.005064 Z M29.45,12.005064 L29.45,7.625064 L31.415,7.625064 L34.1,12.155064 L35.93,11.855064 L33.29,7.385064 C34.82,6.995064 35.735,6.080064 35.735,4.310064 C35.735,1.955064 34.205,0.905064 31.58,0.905064 L27.605,0.905064 L27.605,12.005064 L29.45,12.005064 Z M29.45,2.615064 L31.49,2.615064 C33.08,2.615064 33.905,3.050064 33.905,4.280064 C33.905,5.540064 33.08,5.990064 31.49,5.990064 L29.45,5.990064 L29.45,2.615064 Z M39.965,12.005064 L39.965,0.905064 L38.105,0.905064 L38.105,12.005064 L39.965,12.005064 Z M44.315,12.005064 L44.315,3.635064 L44.345,3.635064 C44.585,4.715064 44.75,5.180064 45.005,5.975064 L47.165,12.005064 L48.83,12.005064 L51.005,5.975064 C51.245,5.195064 51.485,4.490064 51.65,3.710064 L51.68,3.710064 L51.68,12.005064 L53.495,12.005064 L53.495,0.905064 L50.99,0.905064 L48.095,9.710064 L48.065,9.710064 L45.08,0.905064 L42.62,0.905064 L42.62,12.005064 L44.315,12.005064 Z M60.485,12.215064 C63.155,12.215064 65.48,10.190064 65.48,6.455064 C65.48,2.720064 63.155,0.695064 60.485,0.695064 C57.8,0.695064 55.475,2.720064 55.475,6.455064 C55.475,10.190064 57.8,12.215064 60.485,12.215064 Z M60.485,10.535064 C58.61,10.535064 57.35,8.975064 57.35,6.455064 C57.35,3.935064 58.61,2.420064 60.485,2.420064 C62.36,2.420064 63.62,3.935064 63.62,6.455064 C63.62,8.975064 62.36,10.535064 60.485,10.535064 Z M69.2,12.005064 L69.2,3.920064 L69.23,3.920064 L74.69,12.005064 L76.4,12.005064 L76.4,0.905064 L74.66,0.905064 L74.66,8.840064 L74.63,8.840064 L69.38,0.905064 L67.475,0.905064 L67.475,12.005064 L69.2,12.005064 Z M80.915,12.005064 L80.915,0.905064 L79.055,0.905064 L79.055,12.005064 L80.915,12.005064 Z M88.04,12.215064 C90.71,12.215064 93.035,10.190064 93.035,6.455064 C93.035,2.720064 90.71,0.695064 88.04,0.695064 C85.355,0.695064 83.03,2.720064 83.03,6.455064 C83.03,10.190064 85.355,12.215064 88.04,12.215064 Z M88.04,10.535064 C86.165,10.535064 84.905,8.975064 84.905,6.455064 C84.905,3.935064 86.165,2.420064 88.04,2.420064 C89.915,2.420064 91.175,3.935064 91.175,6.455064 C91.175,8.975064 89.915,10.535064 88.04,10.535064 Z M100.52,12.005064 L100.52,3.920064 L100.55,3.920064 L106.01,12.005064 L107.72,12.005064 L107.72,0.905064 L105.98,0.905064 L105.98,8.840064 L105.95,8.840064 L100.7,0.905064 L98.795,0.905064 L98.795,12.005064 L100.52,12.005064 Z M117.71,12.005064 L117.71,10.310064 L112.115,10.310064 L112.115,7.070064 L116.435,7.070064 L116.165,5.405064 L112.115,5.405064 L112.115,2.645064 L117.41,2.645064 L117.41,0.905064 L110.24,0.905064 L110.24,12.005064 L117.71,12.005064 Z M123.995,12.005064 L123.995,2.645064 L127.55,2.645064 L127.28,0.905064 L118.7,0.905064 L118.7,2.645064 L122.12,2.645064 L122.12,12.005064 L123.995,12.005064 Z M133.025,12.215064 C135.695,12.215064 138.02,10.190064 138.02,6.455064 C138.02,2.720064 135.695,0.695064 133.025,0.695064 C130.34,0.695064 128.015,2.720064 128.015,6.455064 C128.015,10.190064 130.34,12.215064 133.025,12.215064 Z M133.025,10.535064 C131.15,10.535064 129.89,8.975064 129.89,6.455064 C129.89,3.935064 131.15,2.420064 133.025,2.420064 C134.9,2.420064 136.16,3.935064 136.16,6.455064 C136.16,8.975064 134.9,10.535064 133.025,10.535064 Z" id="PATRIMONIO-NETO"></path>
                <path d="M147.96,14.705064 C146.01,12.980064 144.75,10.640064 144.75,7.955064 C144.75,5.270064 146.01,2.930064 147.96,1.205064 L147.645,0.830064 C145.2,2.885064 143.925,5.150064 143.925,7.955064 C143.925,10.760064 145.2,13.025064 147.645,15.080064 L147.96,14.705064 Z M151.065,12.005064 L151.065,2.300064 L151.095,2.300064 C151.335,2.990064 151.53,3.440064 151.8,4.130064 L154.965,12.005064 L155.655,12.005064 L158.82,4.130064 C159.09,3.440064 159.375,2.705064 159.525,2.300064 L159.555,2.300064 L159.555,12.005064 L160.32,12.005064 L160.32,0.905064 L159.36,0.905064 L155.34,10.985064 L155.31,10.985064 L151.305,0.905064 L150.345,0.905064 L150.345,12.005064 L151.065,12.005064 Z M164.01,12.005064 L164.01,2.300064 L164.04,2.300064 C164.28,2.990064 164.475,3.440064 164.745,4.130064 L167.91,12.005064 L168.6,12.005064 L171.765,4.130064 C172.035,3.440064 172.32,2.705064 172.47,2.300064 L172.5,2.300064 L172.5,12.005064 L173.265,12.005064 L173.265,0.905064 L172.305,0.905064 L168.285,10.985064 L168.255,10.985064 L164.25,0.905064 L163.29,0.905064 L163.29,12.005064 L164.01,12.005064 Z M176.91,6.380064 C176.91,6.680064 176.925,6.965064 176.94,7.235064 L175.065,7.235064 L175.065,7.925064 L177,7.925064 C177.405,10.835064 178.95,12.215064 180.96,12.215064 C182.955,12.215064 184.065,10.820064 184.56,8.870064 L183.855,8.705064 C183.39,10.490064 182.625,11.540064 180.975,11.540064 C179.265,11.540064 178.08,10.310064 177.735,7.925064 L181.365,7.925064 L181.365,7.235064 L177.66,7.235064 C177.645,6.950064 177.63,6.635064 177.63,6.320064 C177.63,6.095064 177.63,5.870064 177.645,5.660064 L181.365,5.660064 L181.365,4.985064 L177.72,4.985064 C178.065,2.495064 179.415,1.370064 180.945,1.370064 C182.655,1.370064 183.195,2.405064 183.66,4.070064 L184.38,3.905064 C183.9,2.015064 182.94,0.695064 180.96,0.695064 C179.145,0.695064 177.405,2.015064 177,4.985064 L175.065,4.985064 L175.065,5.660064 L176.925,5.660064 C176.925,5.885064 176.91,6.125064 176.91,6.380064 Z M186.645,15.080064 C189.09,13.025064 190.365,10.760064 190.365,7.955064 C190.365,5.150064 189.09,2.885064 186.645,0.830064 L186.33,1.205064 C188.28,2.930064 189.54,5.270064 189.54,7.955064 C189.54,10.640064 188.28,12.980064 186.33,14.705064 L186.645,15.080064 Z" id="(MM€)"></path>
            </g>
            <g id="536" transform="translate(472.000000, 343.000000)" fill="#FFFFFF">
                <path d="M3.81,12.310064 C6.075,12.310064 7.485,10.630064 7.485,8.440064 C7.485,6.220064 6.015,4.840064 4.095,4.840064 C2.895,4.840064 2.16,5.260064 1.575,5.950064 L1.905,1.720064 L6.885,1.720064 L6.75,1.000064 L1.23,1.000064 L0.81,6.760064 L1.425,7.015064 C2.04,6.100064 2.835,5.500064 4.08,5.500064 C5.595,5.500064 6.75,6.565064 6.75,8.485064 C6.75,10.060064 5.835,11.650064 3.825,11.650064 C2.43,11.650064 1.53,10.900064 0.885,9.820064 L0.27,10.195064 C0.96,11.440064 2.235,12.310064 3.81,12.310064 Z M12.45,12.310064 C14.655,12.310064 16.005,10.900064 16.005,9.145064 C16.005,7.465064 15.18,6.535064 13.515,6.190064 C14.895,5.965064 15.78,5.005064 15.78,3.550064 C15.78,2.185064 14.865,0.790064 12.54,0.790064 C11.055,0.790064 10.005,1.555064 9.255,2.515064 L9.855,2.905064 C10.485,2.065064 11.325,1.450064 12.525,1.450064 C14.31,1.450064 15.045,2.395064 15.045,3.595064 C15.045,5.110064 14.04,5.860064 11.61,5.860064 L11.13,5.860064 L11.13,6.520064 L11.52,6.520064 C14.325,6.520064 15.27,7.450064 15.27,9.175064 C15.27,10.615064 14.205,11.650064 12.465,11.650064 C11.19,11.650064 10.17,11.110064 9.36,9.820064 L8.745,10.195064 C9.525,11.530064 10.875,12.310064 12.45,12.310064 Z M21.66,12.310064 C23.91,12.310064 25.275,10.705064 25.275,8.650064 C25.275,6.760064 24.255,5.200064 21.84,5.200064 C20.355,5.200064 19.275,5.995064 18.585,6.805064 C18.555,3.865064 19.86,1.450064 22.02,1.450064 C23.07,1.450064 23.595,1.720064 24.18,2.200064 L24.6,1.615064 C24.015,1.135064 23.265,0.790064 22.035,0.790064 C19.5,0.790064 17.865,3.520064 17.865,6.745064 C17.865,10.600064 19.62,12.310064 21.66,12.310064 Z M21.705,11.650064 C20.205,11.650064 18.885,10.450064 18.63,7.720064 C19.38,6.625064 20.505,5.860064 21.795,5.860064 C23.7,5.860064 24.525,7.030064 24.525,8.650064 C24.525,10.585064 23.37,11.650064 21.705,11.650064 Z"></path>
            </g>
            <g id="535" transform="translate(472.000000, 364.000000)" fill="#FFFFFF">
                <path d="M3.87,11.530064 C6.135,11.530064 7.545,9.850064 7.545,7.660064 C7.545,5.440064 6.075,4.060064 4.155,4.060064 C2.955,4.060064 2.22,4.480064 1.635,5.170064 L1.965,0.940064 L6.945,0.940064 L6.81,0.220064 L1.29,0.220064 L0.87,5.980064 L1.485,6.235064 C2.1,5.320064 2.895,4.720064 4.14,4.720064 C5.655,4.720064 6.81,5.785064 6.81,7.705064 C6.81,9.280064 5.895,10.870064 3.885,10.870064 C2.49,10.870064 1.59,10.120064 0.945,9.040064 L0.33,9.415064 C1.02,10.660064 2.295,11.530064 3.87,11.530064 Z M12.51,11.530064 C14.715,11.530064 16.065,10.120064 16.065,8.365064 C16.065,6.685064 15.24,5.755064 13.575,5.410064 C14.955,5.185064 15.84,4.225064 15.84,2.770064 C15.84,1.405064 14.925,0.010064 12.6,0.010064 C11.115,0.010064 10.065,0.775064 9.315,1.735064 L9.915,2.125064 C10.545,1.285064 11.385,0.670064 12.585,0.670064 C14.37,0.670064 15.105,1.615064 15.105,2.815064 C15.105,4.330064 14.1,5.080064 11.67,5.080064 L11.19,5.080064 L11.19,5.740064 L11.58,5.740064 C14.385,5.740064 15.33,6.670064 15.33,8.395064 C15.33,9.835064 14.265,10.870064 12.525,10.870064 C11.25,10.870064 10.23,10.330064 9.42,9.040064 L8.805,9.415064 C9.585,10.750064 10.935,11.530064 12.51,11.530064 Z M21.255,11.530064 C23.52,11.530064 24.93,9.850064 24.93,7.660064 C24.93,5.440064 23.46,4.060064 21.54,4.060064 C20.34,4.060064 19.605,4.480064 19.02,5.170064 L19.35,0.940064 L24.33,0.940064 L24.195,0.220064 L18.675,0.220064 L18.255,5.980064 L18.87,6.235064 C19.485,5.320064 20.28,4.720064 21.525,4.720064 C23.04,4.720064 24.195,5.785064 24.195,7.705064 C24.195,9.280064 23.28,10.870064 21.27,10.870064 C19.875,10.870064 18.975,10.120064 18.33,9.040064 L17.715,9.415064 C18.405,10.660064 19.68,11.530064 21.255,11.530064 Z"></path>
            </g>
            <polygon id="Fill-36" fill="#2ECDCD" points="461.0723 344.1609 456.4393 353.4269 17.1133 353.4269 21.7463 344.1609"></polygon>
            <polygon id="Fill-37" fill="#2A86CA" points="460.8242 363.9993 456.1912 373.2653 17.2302 373.2653 21.8632 363.9993"></polygon>
        </g>
    </g>
</svg>