<svg xmlns="http://www.w3.org/2000/svg" xmlns:xlink="http://www.w3.org/1999/xlink" viewBox="0 0 787 392"><defs><style>.cls-1{fill:#ddd;stroke:#fff;stroke-miterlimit:10;}.cls-2{fill:#666;}.cls-3{fill:url(#Degradado_sin_nombre_39);}.cls-4{fill:#00cccd;}</style><radialGradient id="Degradado_sin_nombre_39" cx="137.72" cy="1616.32" r="5.69" gradientTransform="matrix(0.78, 0.06, -0.01, 0.81, -68.43, -1179.34)" gradientUnits="userSpaceOnUse"><stop offset="0" stop-color="#171714" stop-opacity="0.3"/><stop offset="1" stop-color="#171714" stop-opacity="0"/></radialGradient></defs><title>map-acciones-eng</title><g id="cab"><polygon class="cls-1" points="698.45 354.89 700.45 358.34 707.62 354.2 707.62 351.44 700.45 351.44 698.45 354.89"/><path class="cls-1" d="M741.64,365.9l25.41-14.67v4.82l-21.23,12.26Zm40.54-23.66v-7.16l-2.85-1.64,0,8.81-2.41,4.18h-3.46v6.08h3.77l3.51-6.08h3.84l2.41-4.18Z"/><polygon class="cls-1" points="331.69 72.02 331.69 74.67 328.65 76.43 328.65 78.64 332.76 78.65 336.94 76.24 336.95 73.87 332.69 71.45 331.69 72.02"/><rect class="cls-1" x="173.5" y="176.28" width="4.09" height="1.27"/><rect class="cls-1" x="429.87" y="126.73" width="3.98" height="1.45"/><rect class="cls-1" x="630.26" y="172.34" width="3.62" height="3.62"/><rect class="cls-1" x="658.11" y="156.19" width="2.98" height="8.87"/><path class="cls-1" d="M692.88,128.42H680.46l-4.18,2.41,3.07,1.77v5.55H677V134l-2.43-1.4v-3.35l6.94-4h5.39v-2.41l5.3-3.06V115l-3.37-5.85,4.65,2.68,3.59,6.23v8l-4.18,2.41Zm4.74-22.58L695,101.21h-4.82L688,97.45h-3.11l4.85,8.4Zm-16.54,26.73h3.77v-2.09h-3.77Z"/><path class="cls-1" d="M734.23,250.68l5.86,10.16h-4.37l-4-6.9h-7.27v3.46h-4.35V240.51h4.82l6.8,3.93v3h3.6l1.88,3.25Zm14.13-3.25h-7.42v1.91h7.42Z"/><polygon class="cls-1" points="325.28 41.55 321.1 39.13 319.02 40.34 314.19 40.34 311.59 41.84 311.59 39.26 307.75 39.26 307.75 42.75 310.02 42.75 310.02 45.91 317.72 45.91 325.28 41.55"/><polygon class="cls-1" points="659.87 114.44 663.17 108.73 663.17 103.91 656.89 107.1 654.52 107.1 651.24 112.78 656.03 112.78 656.03 118.87 660.13 118.87 664 116.83 659.87 114.44"/><polygon class="cls-1" points="664 116.83 660.13 118.87 663.73 125.09 663.72 128.4 668.89 125.42 664 116.83"/><path class="cls-1" d="M378.07,67.38l-1.18,1.95h-1.41v-3h2.59Zm-4.33-4.51-4.18,2.41V68.4h4.18Z"/><polygon class="cls-1" points="566.16 98.04 570.51 98.04 582.09 104.72 594.03 104.72 599.22 107.72 604.28 107.72 607.79 105.69 613.92 105.69 615.9 102.27 615.88 98.19 620.55 98.19 623.94 96.23 623.92 93.84 630.78 93.84 630.78 91.48 627.32 89.47 618.6 89.47 618.58 89.47 618.58 83.84 618.56 83.84 610.15 83.84 606.45 85.98 601.29 85.98 595.96 82.9 586.25 82.9 578.24 78.27 573.09 78.27 575.09 81.74 575.09 84.11 570.14 84.11 564.84 81.05 558.56 81.05 550.49 85.73 563.35 93.16 566.16 98.04"/><polygon class="cls-1" points="452.09 128.08 446.39 131.37 446.39 135.95 463.51 145.84 466.73 145.84 466.73 142.92 469.19 142.92 469.19 134.87 463.83 131.73 463.83 124.72 458.02 121.36 452.09 121.36 452.09 128.08"/><polygon class="cls-1" points="385.63 217.01 385.63 213.53 388.71 208.19 384.49 205.75 384.49 203.79 388.23 203.79 385.87 199.69 385.87 194.93 382.28 196.99 382.28 202.11 377.2 210.92 377.13 210.88 374.43 209.32 371 215.26 371 217.93 373.93 217.92 373.93 222.75 373.89 222.81 376.52 224.33 377.85 224.33 382.43 224.33 389.91 224.33 385.63 217.01"/><polygon class="cls-1" points="556.2 141.57 552.62 141.57 552.62 146.56 559.62 150.6 565.25 150.6 568.24 152.32 573.42 152.32 573.42 148.01 567.5 148.01 556.2 141.57"/><polygon class="cls-1" points="621.82 200.32 629.31 196 629.31 187.24 625.48 180.6 617.76 176.15 619.46 173.21 619.46 170.84 611.44 166.22 607.88 168.27 606.4 169.17 609.27 174.31 609.27 174.31 611.09 174.31 611.09 178.99 617.87 178.99 623.81 182.42 623.81 188.4 617.33 188.4 617.33 193.63 618.9 194.53 618.9 198.63 621.82 200.32"/><path class="cls-1" d="M655.4,218.06h2.65l0,14.71-4.18,2.41v7.24h-4.19l-2.21-3.8h-9.12V233.8l-3.65-6.32,2.46-1.42,3.79,2.19h2.37l3-1.72h4.05Zm44.49,18.81v-3.56l-3.33-1.92-4.18,2.41,2.48,1.43v1.64Zm-27.33-3.8h-2.93l-2.86,1.65-2.86-1.65-2.41,4.18v4.82l3.1,5.36v-6.95l1.92-1.11,2.41,4.18h2.94l-3.46-6,4.16-2.42Zm28.16,14.56v2.64H702v-2.64Zm-23.6,10.95-.63-1.1L672,260l.63,1.1Zm35.07-22.64-7.48,4.32-3.51-2L698,240.08l9.05,5.23h3.72l3.1,5.37-2.41,4.18h5.94v2.53h2.75V240.51Zm-42.75,22V256.1H659.6l3.23,1.87Zm22.95-18.75h-7.53V241h7.53Zm-14.74-12.29h-9.77v1.8h9.77Zm7.21,3.43h2V224h-2ZM643,256.1H654.3l-3.38-1.93h-3.7L643,251.76h-7.52l-4.18-2.41-4.18,2.41,1.5,2.61H640Zm-22.15-21.35v-3.92l-9.87-5.7-5.44-9.42H599.5v1l4.18,2.41,6.6,11.43,2.1,1.21,9.2,15.93h4.57v-9.93Z"/><path class="cls-1" d="M659.07,218.06H655.4l-5,8.46h-4.05l-3,1.72H641l-3.79-2.19,5.19-3h3.47l1.85-3.2h2.7v-2.52h1.84l3.42-5.92,5.4,3.12Zm-46.73-3.72,1,1.79V219l2.41,4.18,6.64,3.83v-3.84l-2.09-1.21v-4.82l-2.41-4.18-2.45,1.42Z"/><polygon class="cls-1" points="377.85 224.33 376.52 224.33 373.89 222.81 371.52 226.92 377.85 226.92 377.85 224.33"/><polygon class="cls-1" points="439.22 134.24 437.21 134.24 434.71 138.54 437.47 143.35 439.22 140.29 439.22 134.24"/><polygon class="cls-1" points="592.95 144.34 587.27 144.34 583.06 151.64 575.79 151.64 575.79 148.01 573.42 148.01 573.42 152.32 568.24 152.32 565.25 150.6 559.62 150.6 552.62 146.56 552.62 141.57 547.48 138.6 547.48 134.05 545.51 130.63 544.75 129.32 543 126.28 539.22 126.28 539.22 128.65 533.5 128.65 533.5 131.02 537.01 137.09 530.26 148.78 526.75 148.78 525.56 150.83 530.59 153.73 530.59 159.22 526.38 161.73 530.2 168.34 535.58 165.24 537.99 169.42 537.99 181.89 549.38 201.62 549.38 206.44 549.39 206.45 551.8 206.45 556.95 197.53 556.95 184.24 564.7 179.77 573.08 165.25 577.75 165.25 575.6 161.52 575.6 155.12 577.65 153.94 578.83 155.99 585.59 155.99 585.59 158.36 584.41 160.41 587.34 165.5 590.98 159.1 590.98 152.7 592.16 150.65 594.53 150.65 596.87 146.6 592.95 144.34"/><polygon class="cls-1" points="469.19 142.92 466.73 142.92 466.73 145.84 470.87 145.84 469.19 142.92"/><polygon class="cls-1" points="412.69 166.15 412.69 169.77 410.05 169.77 410.05 173.71 410.05 184.42 407.71 184.42 404.62 189.78 407.86 195.4 407.86 198.32 411.18 204.07 416.3 201.12 419.2 201.12 420.39 203.17 425.34 200.31 425.34 197.94 429.78 195.38 429.78 200.61 432.15 200.61 434.2 199.42 437.47 199.42 442.67 190.52 442.67 183.48 444.4 180.48 447.47 178.7 443.99 172.67 443.99 168.57 441.07 163.5 436.48 166.15 412.69 166.15"/><polygon class="cls-1" points="455.41 191.03 458.02 195.55 460.23 194.27 457.01 188.7 451.36 185.43 447.47 178.7 444.4 180.48 442.67 183.48 442.67 188.37 450.8 188.37 455.41 191.03"/><polygon class="cls-1" points="458.02 198.47 460.2 199.73 462.57 198.32 460.23 194.27 458.02 195.55 458.02 198.47"/><polygon class="cls-1" points="603.28 181.89 603.28 186.71 606.55 192.37 606.55 183.94 604.67 180.68 601.75 179 601.75 171.97 607.88 168.27 603.07 159.94 598.67 159.94 598.67 156.5 601.42 154.92 601.44 149.25 596.87 146.6 594.53 150.65 592.16 150.65 590.98 152.7 590.98 159.1 587.34 165.5 586.24 167.41 589.68 173.37 589.68 173.38 592.1 173.38 594.51 177.55 594.51 184.24 594.51 184.24 597.71 184.24 600.12 180.07 603.28 181.89"/><polygon class="cls-1" points="454.76 222.51 456.1 220.2 447.11 220.2 442.25 217.4 437.56 217.4 437.56 219.76 440.2 224.33 437.61 228.8 437.61 230.31 437.68 230.31 437.68 234.69 447.56 240.39 447.56 242.56 450.85 244.46 456.1 235.36 454.76 233.07 454.76 222.51"/><polygon class="cls-1" points="404.84 310.4 407.03 306.61 413.64 306.61 418.35 298.45 421.88 296.42 414.59 283.8 411.18 283.8 409.79 286.19 402.11 286.19 402.11 295.92 399.11 295.92 399.11 304.52 402.47 310.4 404.84 310.4"/><path class="cls-1" d="M428.61,309.48v2H426v-4h2.62V296.42h-6.73l-3.53,2-4.71,8.16H407l-2.19,3.79h-2.37l-3.36-5.88V314.8h-6.56l-2.23,1.29,4.81,8.33v4.82l2.41,4.18,4.18-2.41H414.2l9.2-5.31,7.72-13.37v-2.84Zm-7.88,12.24-4.27-2.46,2.52-4.37h2.37l1.67,2.89Z"/><polygon class="cls-1" points="378.53 246.04 379.64 247.96 381.13 247.96 381.13 246.06 383.09 244.93 381.77 244.17 378.53 246.04"/><path class="cls-1" d="M347.95,205.29V197.8h-7.78v10.63L339,210.49v4.09h7.35l2.75-1.59v-5.73Z"/><path class="cls-1" d="M351.63,203l-1.18-2.05v-3.1h-2.5v7.49l1.14,2V213l2.55-1.47Z"/><polygon class="cls-1" points="305.36 191.1 311.54 191.1 311.54 189.62 304.53 189.62 305.36 191.1"/><polygon class="cls-1" points="324.44 211.47 324.44 209.26 319.32 206.3 316.86 210.57 328.02 217.01 328.02 213.53 324.44 211.47"/><polygon class="cls-1" points="312.32 193.58 306.79 193.58 308.9 197.23 312.32 195.22 312.32 193.58"/><polygon class="cls-1" points="317.77 201.44 314.22 201.44 312.05 202.68 313.23 204.73 313.23 208.47 316.86 210.57 319.32 206.3 319.32 204.13 317.77 201.44"/><polygon class="cls-1" points="373.27 94.66 373.27 93.09 373.27 91.32 365.96 91.32 364.01 94.7 366.08 95.89 366.53 96.67 370.02 94.66 373.27 94.66"/><path class="cls-1" d="M370.2,110.8l2.26-1.31v5l-2.26,1.31Zm8.73,8,6.06,3.5v-3.5ZM393,111.69l-10.36-6-4.45-7.87,3-1.7v-3h-7.87v1.57H370l-3.49,2,2.41,4.16h5.65l3.66,6.5,9.13,5.27v5.82l1.87-1.08v-5.64Z"/><polygon class="cls-1" points="404.62 101.93 404.62 106.16 404.62 107.95 414.2 107.95 414.2 106.16 417.44 106.16 417.44 103.51 417.46 103.48 414.77 101.93 404.62 101.93"/><path class="cls-1" d="M378.92,46.24l2.88-1.66,3.29-5.7H387l2.68-4.64h3.06l3.18-1.87h3.46l0-.07,0,.07h10.27l4.47-2.58h-21.3l-10,5.75L379,42.12l-15,8.64v4.82l2.41,4.18h2.65l8-4.61L378.92,52Z"/><path class="cls-1" d="M441.1,121.36,438.18,123l-1.05-1.83-4.18,2.41H418L414.2,117V111.5h4v-2.1h7.49l3.68-2.12h4.82l4.18,2.41h16.85V112l1.22,2.14,1.57,2.74v4.43H441.1Zm-26.9-15.2v4h.12l3.11-1.8v-2.17Z"/><path class="cls-1" d="M314.8,188.63l1.8-3.13h17.08v-2.37l-1.9-3.29V157.48h3.93l-9.93-5.73v2.36H317v7.41l-3.26,1.88v4.27h-8.62v14.45h6Z"/><path class="cls-1" d="M378.71,162.44v0L358.84,174v12.77H347.58v2.62l6,3.48V196l3.26,1.88,2-3.57v-4.35h3.61l4,2.33,6.46,0,2.05-1.18h8.38v-3.27l5.28-9.14v-9.1l-1.75-3v-2.37h-5.39Z"/><polygon class="cls-1" points="411.07 137.9 404.66 134.21 399.49 134.21 399.49 140.32 397.11 141.69 392.94 139.28 388.11 139.28 385.31 134.43 375.73 134.43 375.73 136.82 373.31 141.01 373.31 151.78 371 155.82 378.71 160.27 378.71 162.44 381.57 164.14 386.96 164.14 390.22 162.26 410.05 173.71 410.05 169.77 412.69 169.77 412.69 166.15 412.69 141.01 414.48 137.9 411.07 137.9"/><polygon class="cls-1" points="367.92 131.67 373.31 141.01 375.73 136.82 375.73 134.43 375.62 134.43 373.21 130.25 375.62 126.08 373.21 121.9 369.55 121.9 369.55 128.86 367.92 131.67"/><path class="cls-1" d="M345.47,186.72h13.38V174l-6.52-3.76v-3.12l-16.62-9.59h-3.93v22.36l1.9,3.29v2.37H316.6l-1.8,3.13,1.49,2.58v2.37l2.05,1.18h5.38l2.85,4.93H333V193.9Z"/><polygon class="cls-1" points="428.35 220.14 428.35 226.11 424.94 232.01 424.94 234.38 428.35 234.38 431.59 234.38 431.59 230.31 437.61 230.31 437.61 228.8 440.2 224.33 437.56 219.76 437.56 217.4 432.72 220.14 428.35 220.14"/><polygon class="cls-1" points="312.66 149.68 305.07 162.82 305.07 167.66 313.7 167.66 313.7 163.4 316.96 161.51 316.96 154.1 325.78 154.1 325.78 151.75 325.78 148.79 314.19 148.79 312.66 149.68"/><polygon class="cls-1" points="332.42 116.54 332.42 107.33 327.93 107.33 327.93 121.48 331.07 121.48 331.07 117.26 332.42 116.54"/><path class="cls-1" d="M310.22,144.82v-1.27h2.64v1.27Zm-3.79,2.28h2.64v-1.27h-2.64ZM356.55,114h-2.64v1.27h2.64Zm-9.71-9.66-2-1.17H327.93v4.18h4.49v9.21l-1.35.72v4.22l3.08,1.78,4.18-2.41h6.49l6.8-11.78,4.18-2.41-4-2.33Z"/><polygon class="cls-1" points="386.96 93.09 390.73 95.27 397.96 95.27 401.42 89.29 389.27 89.29 386.96 93.09"/><path class="cls-1" d="M409.61,35.12V32.38H399.34l1.14,2,0,5.23.08,0,6,3.46-9.94,5.74,3,5.13h13.39l3.73-6.47Z"/><polygon class="cls-1" points="400.44 110.37 404.62 107.95 404.62 106.16 400.44 106.16 400.44 110.37"/><polygon class="cls-1" points="359 81.82 364.01 84.71 364.95 83.09 364.95 79.97 361.28 77.85 359 81.82"/><polygon class="cls-1" points="405.1 80.25 406.29 78.2 406.29 73.37 402.53 71.2 397.97 71.2 390.21 71.2 387.38 72.83 383.82 72.83 383.82 80.24 392.7 85.63 401.42 85.63 406.51 82.69 405.1 80.25"/><rect class="cls-1" x="364.22" y="83.51" width="1.87" height="1.56" transform="translate(109.61 358.41) rotate(-60.01)"/><polygon class="cls-1" points="392.7 85.63 383.82 80.24 377.97 83.62 380.27 87.61 389.27 87.61 392.7 85.63"/><polygon class="cls-1" points="381.13 96.13 385.23 96.13 386.96 93.09 381.13 93.09 381.13 96.13"/><polygon class="cls-1" points="389.91 98.33 394.19 105.77 394.49 105.94 395.86 103.48 395.86 98.33 389.91 98.33"/><polygon class="cls-1" points="456.45 114.19 458.02 116.93 460.03 116.93 460.03 114.19 456.45 114.19"/><polygon class="cls-1" points="425.99 311.47 428.61 311.47 428.61 309.48 428.61 307.49 425.99 307.49 425.99 311.47"/><polygon class="cls-1" points="169.53 177.55 166.73 172.7 162.31 172.7 162.31 177.55 169.53 177.55"/><polygon class="cls-1" points="162.31 172.7 159.98 172.7 159.98 175.8 155.09 175.8 155.09 177.55 162.31 177.55 162.31 172.7"/><polygon class="cls-1" points="115.43 191.34 119.33 193.59 120.8 191.04 116.87 188.78 115.43 191.34"/><polygon class="cls-1" points="116.87 186.85 118.25 184.53 115.84 184.53 114.89 184.53 114.89 179.02 109.94 179.02 109.94 181.47 112 182.66 112 183.82 106.43 183.82 106.42 188.78 106.43 188.8 111.02 188.8 115.43 191.34 116.87 188.78 116.87 186.85"/><path class="cls-1" d="M202.14,322.24,204,319h0l6.49-11.25V303.9h-2.56v3.5l-2.57,4.46h-6.88v-8.52L186,296H175.35v4.77L172,302.69v21.47l2.72,4.72V349.2l3.63,6.29V367.2L186,380.59h5.39l5.73-9.93-6.9-4,3-1.73v-13h4.61v-4.82L208.34,341v-3.89L205.93,333l-3.79-2.13Z"/><polygon class="cls-1" points="175.35 296 186.02 296 186.02 288.14 197.05 288.14 198.49 285.66 195.91 281.19 195.91 278.83 189.64 278.83 189.64 270.75 185.23 270.75 175.62 265.2 175.62 259.97 173.25 259.97 167.75 263.14 167.75 282.89 175.35 296"/><polygon class="cls-1" points="127.45 197.2 122.22 197.2 122.22 200.08 130.13 204.65 130.13 201.61 127.45 200.07 127.45 197.2"/><polygon class="cls-1" points="197.67 389.76 197.68 389.77 201.53 391.99 206.32 391.98 193.85 384.78 193.85 389.76 197.67 389.76"/><polygon class="cls-1" points="154.62 203.25 156.62 206.72 156.62 210.19 160.4 210.19 164.39 212.5 169.08 212.5 169.08 225.11 171.26 228.87 173.42 228.87 179.33 225.46 176.93 221.3 176.93 218.06 179.3 218.06 182.24 219.76 185.37 217.85 185.37 207 187.25 205.82 183.93 200.07 179.11 200.07 174.94 202.48 166 197.33 165.99 197.31 160.49 197.31 160.49 204.06 158.59 204.06 158.59 199.34 156.88 199.34 154.62 203.25"/><path class="cls-1" d="M204,319l-1.87,3.23v8.58l3.79,2.13h7.82l2.19-3.79V325.9Z"/><polygon class="cls-1" points="189.52 225.08 190.71 227.13 194.5 224.94 197.84 224.94 194.58 219.3 197.92 213.59 195.12 213.59 190.63 205.82 187.25 205.82 185.37 207 185.37 215.71 189.52 215.71 189.52 225.08"/><polygon class="cls-1" points="197.84 224.94 203.35 224.94 203.35 213.59 197.92 213.59 194.58 219.3 197.84 224.94"/><polygon class="cls-1" points="153.97 237.96 160.85 237.96 160.85 243.02 163.12 243.02 163.12 225.11 169.08 225.11 169.08 212.5 164.39 212.5 160.4 210.19 156.62 210.19 156.62 206.72 154.62 203.25 156.88 199.34 158.59 199.34 158.59 197.31 153.34 197.31 149.16 199.73 149.16 202.95 144.98 205.36 142.73 204.05 142.73 207.1 142.73 224.75 140.37 226.11 150.51 231.97 153.97 237.96"/><polygon class="cls-1" points="114.89 179.02 114.89 184.53 115.84 184.53 118.25 180.35 118.25 176.97 116.08 176.97 114.89 179.02"/><rect class="cls-1" x="214.48" y="381.91" width="4.1" height="1.93"/><polygon class="cls-1" points="437.47 143.35 439.22 140.29 439.22 134.24 441.41 134.24 446.39 131.37 446.39 135.95 443.06 135.95 445.26 139.76 443.15 143.35 437.47 143.35"/><path class="cls-1" d="M493.43,158.89l-2.73,4.62v6.37l-7.81,4.51,4.08,7.06,10.24-5.91v-4.82l4.18-2.41v-4.82Z"/><polygon class="cls-1" points="480.35 155.26 478.34 156.44 478.34 158.76 480.35 158.76 480.35 155.26"/><path class="cls-1" d="M479.38,176.41H474.3l-2.89,5H459.75l.17.3v7l2.41,4.18,4.18-2.41h4.82l15.64-9-4.08-7.06Z"/><polygon class="cls-1" points="549.3 126.07 546.33 124.36 543 126.28 544.75 129.32 545.51 130.63 549.3 128.44 549.3 126.07"/><polygon class="cls-1" points="395.86 103.48 394.49 105.94 394.49 105.94 397.98 107.95 397.98 104.74 395.86 103.48"/><polygon class="cls-1" points="528.31 102.82 524.46 105.04 519.45 105.04 519.45 106.69 521.5 107.87 518.23 109.77 525.91 109.77 523.97 113.12 521.6 113.12 518.59 114.86 518.59 115.78 529.4 115.78 529.4 112.55 534.71 109.49 538.52 109.49 543 106.91 543 104.01 530.36 104.01 528.31 102.82"/><polygon class="cls-1" points="480.57 104.05 477.05 104.05 477.05 109.5 482.5 118.95 484.08 118.04 492.05 118.04 500.72 123.05 500.72 127.27 512.52 120.45 512.52 118.09 498.7 110.11 495.7 110.11 495.71 107.75 490.71 104.86 488.15 109.3 485.88 109.3 483.61 109.3 480.57 104.05"/><path class="cls-1" d="M550.49,85.73l-8.22-4.8H531.48l-2.42-4.19-8.81-5.09-2.72,1.57-4.18,0-7.27-4.14h-8.46l-5.15,3-5.45,0v2.37l2.81,4.83v2.37L475,81.77l-4.09-2.34-5,0-7.1,4.17,0,5.09,6,3.44s0,2,0,2.24l3.68-2.13h6.65l0,0v4.31l-4.58,2.65,2.77,4.81h7.23l3,5.25h2.27V99.66l5.58-3.22,6,3.45,1.74,3h7.31l3.74,6.49h4.53l4.69-2.71V105h5l3.85-2.22,2.05,1.18H543v-2.37l-.08-.15L541,98.13h2.37ZM536,94.36h-8.49l-2,1.13v2.74h-2.5V94.88L526.32,93H536Z"/><polygon class="cls-1" points="468.51 115.77 468.51 111.85 465.94 107.39 463.75 108.65 460.47 106.76 460.47 109.68 460.47 109.68 463.28 114.56 463.28 114.56 466.68 112.6 468.51 115.77"/><polygon class="cls-1" points="531.84 119.99 531.84 122.02 527.05 122.02 525 123.2 525 129.58 522.74 130.89 522.74 137.49 516.23 141.26 516.23 144.38 501.86 144.38 504.84 139.23 500.72 136.85 500.72 127.27 512.52 120.45 519.94 120.46 521.45 117.85 525 117.85 525 121.22 527.05 119.99 531.84 119.99"/><polygon class="cls-1" points="431.59 234.38 431.59 238.82 435.3 238.82 437.68 234.69 437.68 230.31 437.61 230.31 431.59 230.31 431.59 234.38"/><polygon class="cls-1" points="170.79 13.69 155.24 13.69 151.06 16.11 166.61 16.11 170.79 13.69"/><polygon class="cls-1" points="388.97 10.38 388.98 10.38 392.44 10.38 396.62 7.97 396.62 6.42 387.38 6.42 384.48 8.09 374.53 8.09 383.74 13.4 388.97 10.38"/><polygon class="cls-1" points="155.09 171.7 139.25 162.56 135.15 162.56 129.21 165.99 139.46 165.99 149.34 171.69 155.09 171.7"/><polygon class="cls-1" points="734.24 290.45 728.34 287.02 728.34 280.19 723.38 271.61 723.38 263.87 721.37 263.87 718.96 268.05 718.96 275.76 714.5 283.5 700.38 275.35 705.13 267.12 691.13 267.12 686.05 275.92 680.58 272.76 666.17 281.08 666.17 285.9 655.39 292.12 645.8 292.12 640.04 302.16 640.04 327.69 635.87 330.1 635.87 333.69 643.26 333.69 649.25 330.23 658.18 330.23 670.39 323.18 683.72 323.18 688.4 331.28 694.99 327.48 694.99 344.12 695.01 344.12 714.5 344.12 719.22 335.94 729.33 330.1 740.08 311.49 740.08 306.66 734.24 296.55 734.24 290.45"/><polygon class="cls-1" points="650.43 217.35 649.18 217.35 647.73 219.87 650.43 219.87 650.43 217.35"/><polygon class="cls-1" points="472.04 274.97 463.6 279.84 463.6 290.3 460.26 295.96 460.26 301.49 462.67 305.66 467.49 305.66 472.75 296.56 472.75 291.74 475.72 286.59 475.72 281.77 479.1 275.92 479.1 271.1 476.69 266.92 472.04 274.97"/><path class="cls-1" d="M344.34,72.56l-5.18-9,2.41-4.18L347.84,63l-2.12,3.66,3.77,6.54h2.62l2.27,3.93-2.58,3.4h-9.3L338.33,83Zm-8.47-3-3.18,1.84,4.26,2.42,1.58-2.73Z"/><polygon class="cls-1" points="214.32 90.16 224.19 90.16 227.3 84.78 217.43 84.78 214.32 90.16"/><polygon class="cls-1" points="179.9 46.27 185.44 46.27 187.18 43.25 181.65 43.25 179.9 46.27"/><polygon class="cls-1" points="208.22 33.93 204.42 33.93 203.22 36.01 207.02 36.01 208.22 33.93"/><polygon class="cls-1" points="188.97 8.49 182 8.49 180.81 10.56 187.78 10.56 188.97 8.49"/><polygon class="cls-1" points="187.32 21.4 191.49 18.98 183.47 18.98 180.65 23.81 184.82 21.4 187.32 21.4"/><polygon class="cls-1" points="209.45 10.36 207.54 13.66 185.23 13.66 189.41 16.01 214.3 16.01 232.93 5.25 248.28 5.25 255.03 1.36 227.8 1.36 223.63 3.77 212.67 3.77 208.49 6.18 198.08 6.18 200.49 10.36 209.45 10.36"/><polygon class="cls-1" points="312.9 31.02 314.52 28.2 310.15 20.62 317.58 20.62 321.1 14.51 318.69 10.34 324.25 7.13 330.45 7.13 330.45 7.13 336.01 3.92 315.77 3.92 311.6 1.51 285.33 1.51 283.36 4.93 257.49 4.93 246.2 11.49 236.1 11.49 238.51 15.67 253.88 15.67 253.9 15.68 253.9 22.79 258.31 30.43 249.77 35.36 249.77 50.93 261.31 57.48 271.42 39.98 286.81 39.98 286.83 40 290.07 34.38 298.76 34.38 300.73 31 312.88 31 312.9 31.02"/><polygon class="cls-1" points="140.16 27.86 135.98 30.28 135.98 32.37 149.91 32.37 152.52 30.86 161.84 30.85 159.43 26.67 162.2 21.86 157.38 21.86 154.97 26.04 143.88 19.64 134.13 19.64 124.02 25.45 135.98 25.45 140.16 27.86"/><polygon class="cls-1" points="227.8 42.05 233.32 38.86 223.25 33.04 223.25 28.22 210.53 20.88 210.53 24.55 203.93 20.73 194.43 20.73 188.58 24.11 188.58 28.93 209.6 28.93 213.92 36.41 205.73 41.14 205.72 41.13 198.07 41.13 196.77 43.38 205.72 43.37 208.74 48.6 213.56 48.6 215.58 52.09 215.59 52.1 218.18 52.09 215.26 47.03 220.08 47.03 222.46 45.66 219.06 39.78 223.88 39.78 227.8 42.05"/><polygon class="cls-1" points="166.01 22.46 168.42 26.64 178.73 20.68 172.27 20.68 169.25 22.46 166.01 22.46"/><rect class="cls-1" x="144.13" y="175.8" width="4.88" height="1.75"/><rect class="cls-1" x="165.72" y="31.04" width="3.37" height="1.99"/><path class="cls-1" d="M557.74,203.77v8.44h4.52v-2.78L559,203.77Z"/><path class="cls-1" d="M667,181.21l-2.41,4.18,2.41,4.18H663.9l-2.41-4.18v-8.82h2.86Zm13.71,24.68-1.83-3.16-5.48,3.16h-4v2.41h4.82v3.49l2.3,1.33,4.18-2.41Zm-16.85-11h1.27v-2.64h-1.27ZM656,205.55l4.85-2.8-.63-1.1-4.85,2.8Zm15.13-14.8v4.34h1.63v-4.34Zm0,7.05h-3.26v4h3.26Z"/><rect class="cls-1" x="361.28" y="231.26" width="2.69" height="2.69"/><polygon class="cls-1" points="356.86 200.23 356.86 197.86 353.6 195.98 350.45 197.8 350.45 200.91 351.63 202.96 351.63 211.52 354.26 211.52 354.26 204.73 356.86 200.23"/><path class="cls-1" d="M374.43,209.32l2.7,1.56.07,0,5.08-8.81V197l3.58-2.07-2.23-3.87h-8.58L373,192.24l-6.46,0-4-2.33h-3.61v4.35l-2,3.57v2.37l-2.6,4.5v6.79h4.9l3.71,6.42H371v-2.66Z"/><polygon class="cls-1" points="612.14 190.63 617.33 193.63 617.33 188.4 623.81 188.4 623.81 182.42 617.87 178.99 611.09 178.99 611.09 174.31 609.27 174.31 609.27 174.31 606.4 169.17 601.75 171.97 601.75 179 604.67 180.68 606.55 183.94 606.55 192.37 606.55 204.31 612.34 214.35 615.47 214.35 617.92 212.93 612.85 210 609.12 203.54 609.12 192.37 612.14 190.63"/><polygon class="cls-1" points="441.67 130 441.67 128.9 439.54 128.9 439.54 130.22 437.21 134.24 439.22 134.24 441.67 130"/><polygon class="cls-1" points="434.71 138.56 424.8 138.56 421.75 140.32 417.57 137.9 414.48 137.9 412.69 141.01 412.69 166.15 436.48 166.15 441.07 163.5 430.79 145.7 430.79 140.88 435.01 148.18 437.47 143.35 434.71 138.54 434.71 138.56"/><polygon class="cls-1" points="441.67 130 439.22 134.24 441.41 134.24 446.39 131.37 452.09 128.08 452.09 121.36 441.1 121.36 438.18 123.05 439.54 125.4 439.54 128.9 441.67 128.9 441.67 130"/><polygon class="cls-1" points="468.95 206.96 462.15 203.04 460.2 199.73 458.02 198.47 458.02 195.55 455.41 191.03 450.8 188.37 442.67 188.37 442.67 190.52 437.47 199.42 437.47 204.86 433.4 207.21 437.85 209.78 442.25 217.4 447.11 220.2 456.1 220.2 459.98 217.96 466.73 217.96 473.08 206.96 468.95 206.96"/><path class="cls-1" d="M338.43,137.48v1.65l-12.65,7.3v5.32l9.93,5.73h0l16.62,9.59v3.12l6.52,3.76,19.87-11.47v-2.22L371,155.82l2.32-4V141l-5.39-9.34,1.62-2.81v-7H355.18l-9.9,5.71v5.9Z"/><polygon class="cls-1" points="475.97 196.18 468.61 200.42 463.79 200.42 462.57 198.32 460.2 199.73 462.15 203.04 468.95 206.96 473.08 206.96 466.73 217.96 459.98 217.96 456.1 220.2 454.76 222.51 454.76 233.07 456.1 235.36 460.81 227.2 471.49 221.03 480.79 204.93 480.79 196.18 475.97 196.18"/><polygon class="cls-1" points="397.59 284.34 406.81 284.34 410.31 282.32 405.28 279.47 405.28 269.51 410.52 269.51 410.52 263.72 405.28 263.72 405.28 253.69 404.09 251.63 398.48 251.63 398.48 254.72 393.1 254.72 389.27 248.09 384.1 248.09 380.81 249.98 383.22 254.16 383.22 266.71 378.45 274.97 378.45 281.88 393.33 281.88 397.59 284.34"/><polygon class="cls-1" points="413.74 282.32 410.31 282.32 406.81 284.34 397.59 284.34 393.33 281.88 378.45 281.88 378.45 284.43 385.51 296.67 385.51 307.76 390.32 316.09 392.56 314.8 399.11 314.8 399.11 295.92 402.11 295.92 402.11 286.19 409.79 286.19 411.18 283.8 414.59 283.8 413.74 282.32"/><polygon class="cls-1" points="378.71 237.71 385.4 237.71 385.4 233.4 384.22 231.34 385.4 229.29 385.4 226.92 382.43 226.92 382.43 224.33 377.85 224.33 377.85 226.92 371.52 226.92 371.52 233.9 376.55 242.62 378.71 241.33 378.71 237.71"/><path class="cls-1" d="M392.32,220.15l-2.41,4.18h-7.48v2.6h3v2.37l-1.18,2.05,1.18,2.05v4.32h-6.69v3.62l-2.16,1.29,2,3.42,3.24-1.87,1.32.76h2.84l4-2.32,0-6.12,4.23-2.44v-8l1.61-2.78v-3.16Z"/><polygon class="cls-1" points="607.88 168.27 603.07 159.94 598.67 159.94 598.67 156.5 601.42 154.92 601.44 149.25 596.87 146.6 592.95 144.34 587.27 144.34 583.06 151.64 575.79 151.64 575.79 148.01 573.42 148.01 567.5 148.01 556.2 141.57 552.62 141.57 547.48 138.6 547.48 134.05 545.51 130.63 549.3 128.44 549.3 126.07 546.33 124.36 543 126.28 539.22 126.28 531.84 122.02 531.84 119.99 529.4 115.78 529.4 112.55 534.71 109.49 538.52 109.49 543 106.91 543 104.01 543 101.64 542.91 101.49 540.97 98.13 543.34 98.13 550.49 85.73 563.35 93.16 566.16 98.04 570.51 98.04 582.09 104.72 594.03 104.72 599.22 107.72 604.28 107.72 607.79 105.69 613.92 105.69 615.9 102.27 615.88 98.19 620.55 98.19 623.94 96.23 623.92 93.84 630.78 93.84 630.78 91.48 627.32 89.47 618.6 89.47 618.58 89.47 618.58 83.84 622.6 83.84 622.6 73.9 630.2 73.9 653.91 87.59 653.91 90.86 658.11 90.86 662.68 88.22 664.99 92.23 664.99 99.15 660.39 99.15 663.17 103.91 663.17 103.91 663.17 103.91 656.89 107.1 654.52 107.1 651.24 112.78 651.21 112.78 647.03 115.2 644 109.94 641.35 109.94 637.08 117.34 642.38 120.4 651.17 120.4 651.2 120.4 651.2 121.64 644.58 125.46 644.58 128.99 649.4 128.99 655.51 139.57 655.51 149.47 646.84 164.49 640.64 164.49 632.76 169.04 631.4 166.69 624.71 166.69 622.39 162.67 617.59 162.67 607.88 168.27"/><polygon class="cls-1" points="584.41 160.41 585.59 158.36 585.59 155.99 578.83 155.99 577.65 153.94 575.6 155.12 575.6 161.52 577.75 165.25 580.89 165.25 583.97 163.48 586.24 167.41 587.34 165.5 584.41 160.41"/><polygon class="cls-1" points="419.28 283.8 414.59 283.8 421.88 296.42 428.61 296.42 433.13 288.68 433.13 281.34 426.75 277.66 422.82 277.66 419.28 283.8"/><path class="cls-1" d="M314.79,188.62,311,182.11h-6v.14l-2.42,4.17,1.84,3.2h7v1.48h-6.17l1.42,2.47h9.49v-2.37Z"/><polygon class="cls-1" points="336.56 201.73 333.03 199.69 326.56 199.69 326.56 208.11 324.51 209.3 324.44 209.26 324.44 211.47 328.02 213.53 328.02 217.01 332.17 214.58 338.99 214.58 338.99 210.49 340.17 208.43 340.17 201.73 336.56 201.73"/><polygon class="cls-1" points="323.71 194.76 318.34 194.76 316.29 193.58 312.32 193.58 312.32 195.22 308.9 197.23 312.05 202.68 314.22 201.44 317.77 201.44 319.32 204.13 319.32 206.3 324.51 209.3 326.56 208.11 326.56 199.69 323.71 194.76"/><polygon class="cls-1" points="389.91 98.33 395.86 98.33 395.86 95.27 390.73 95.27 386.96 93.09 385.23 96.13 381.13 96.13 382.71 99.03 385.77 99.03 387.4 101.85 394.19 105.77 389.91 98.33"/><polygon class="cls-1" points="404.61 101.93 404.61 101.93 400.4 99.5 397.96 95.27 395.86 95.27 395.86 98.33 395.86 103.48 397.98 104.74 400.44 106.16 404.62 106.16 404.62 101.93 404.61 101.93"/><polygon class="cls-1" points="397.98 107.95 397.98 112.78 400.44 111.36 400.44 110.37 400.4 110.39 400.44 110.37 400.44 106.16 397.98 104.74 397.98 107.95"/><polygon class="cls-1" points="397.96 95.27 400.4 99.5 404.61 101.93 404.61 101.93 404.62 101.93 414.77 101.93 417.46 103.48 419.85 99.34 419.85 98.33 417.44 98.33 412.14 89.4 401.36 89.4 397.96 95.27"/><path class="cls-1" d="M413.06,126.73h-6.29v-1.45h6.29ZM404.62,108l-4.18,2.41v1L398,112.78l5.71,9.89,2.41-4.18-2.41-4.18,2.41-4.18h8.1V108Z"/><path class="cls-1" d="M403.32,202.75l-9.43,5.44h-5.17l-3.08,5.34V217l4.27,7.32,2.41-4.18h3.44v-2.57l3.45-2,4.17,2.41h3.15l3.45-2h10l-3.23-5.6-5.6-3.23v-3.09l-3.32-5.75h-2Z"/><polygon class="cls-1" points="416.78 210.4 420.01 216 421.2 218.05 427.16 218.05 428.35 220.14 432.72 220.14 437.56 217.4 442.25 217.4 437.85 209.78 433.4 207.21 437.47 204.86 437.47 199.42 434.2 199.42 432.15 200.61 429.78 200.61 429.78 195.38 425.34 197.94 425.34 200.31 420.39 203.17 419.2 201.12 416.3 201.12 411.18 204.07 411.18 207.16 416.78 210.4"/><path class="cls-1" d="M387,164.14v2.37l1.75,3v9.1l-5.28,9.14v3.27h.2l2.23,3.87v4.77l2.37,4.1h-3.74v2l4.22,2.44h5.17l9.43-5.44,2.55-4.42h2V195.4l-3.25-5.62,3.09-5.36H410V173.71l-19.83-11.45Z"/><polygon class="cls-1" points="336.35 127.61 334.79 124.92 331.71 130.25 323.29 135.12 323.29 143.54 314.19 148.79 325.78 148.79 325.78 146.43 338.43 139.12 338.43 137.48 345.29 133.52 345.29 127.61 336.35 127.61"/><path class="cls-1" d="M347.58,189.34v-2.62h-2.11L333,193.9v5.79l3.54,2h3.61V197.8h10.28L353.6,196v-3.16Z"/><path class="cls-1" d="M371.55,105.33V108h-1.27v-2.64Zm-5.48-9.45L364,94.7l2-3.38,2.38-4.11-3-1.71L364,84.71l-5-2.9-11.07,6.39H343.1l5.17,9-3.46,6h0l2,1.17h4.93l4,2.33,2.41-4.18h7.87l2.86-1.65Z"/><polygon class="cls-1" points="389.27 87.61 389.27 89.29 401.42 89.29 401.42 85.63 392.7 85.63 389.27 87.61"/><path class="cls-1" d="M392.7,61.16v2.09h-1.62V61.16Zm6.64-28.78h-3.46l-3.18,1.87h-3.06L387,38.89h-1.88l-3.29,5.7-2.88,1.66V52l-1.81,3.18v6.27L380.32,67h3.59l4.17-2.41V58.92l4.18-2.41-4.18-2.41V49.27l8.27-4.77V41.95l4.1-2.37,0-5.23Z"/><polygon class="cls-1" points="389.27 87.61 380.27 87.61 378.13 91.32 373.27 91.32 373.27 93.09 381.13 93.09 386.96 93.09 389.27 89.29 389.27 87.61"/><polygon class="cls-1" points="406.29 73.37 406.29 78.2 411.4 78.2 413.45 79.38 420.53 79.38 424.67 76.99 424.67 72.83 419.89 70.09 419.89 67.23 416.67 65.4 413.05 65.4 409.74 67.38 406.29 73.37"/><polygon class="cls-1" points="363.75 73.56 361.28 77.85 364.95 79.97 368.65 73.56 363.75 73.56"/><polygon class="cls-1" points="377.81 72.83 373.74 70.48 373.74 68.4 369.56 68.4 369.56 69.39 371.97 73.56 368.65 73.56 364.95 79.97 364.95 83.09 366.3 83.87 365.37 85.49 368.33 87.21 365.96 91.32 373.27 91.32 378.13 91.32 380.27 87.61 377.97 83.62 383.82 80.24 383.82 72.83 377.81 72.83"/><polygon class="cls-1" points="418.98 314.89 416.46 319.26 420.73 321.73 423.02 317.77 421.35 314.89 418.98 314.89"/><polygon class="cls-1" points="423.24 237.33 423.24 238.82 426.08 238.82 426.08 237.33 428.35 237.33 428.35 234.38 424.94 234.38 423.24 237.33"/><polygon class="cls-1" points="112 183.82 112 182.66 109.94 181.47 109.94 179.02 114.89 179.02 116.08 176.97 118.25 176.97 123.64 167.63 116.3 167.63 113.53 169.24 109.26 176.63 99.56 176.62 95.37 169.36 95.37 157.3 97.07 154.36 90.49 142.97 87.28 142.97 84.57 144.53 80.22 137.01 75.58 137.01 73.53 138.19 67.26 138.19 60.03 134.01 54.1 134.01 54.1 144.63 64.67 162.94 64.67 157.39 58.27 146.31 58.27 137.04 62.45 139.45 62.45 144.27 74.91 165.85 74.91 173.03 91.03 182.33 102.7 182.32 106.42 188.78 106.43 183.82 112 183.82"/><path class="cls-1" d="M186,296l12.46,7.34v8.52h6.88l2.57-4.46v-6.93h-2.37L203,296.05h-6v-7.91H186Z"/><polygon class="cls-1" points="127.45 187.2 120.8 191.04 119.33 193.59 122.22 195.26 122.22 197.2 127.45 197.2 127.45 187.2"/><polygon class="cls-1" points="178.38 367.2 178.38 355.49 174.75 349.2 174.75 328.88 172.03 324.16 172.03 302.69 175.35 300.77 175.35 296 167.75 282.89 166.06 285.82 166.06 321.02 169.32 326.36 169.32 346.1 175.39 356.61 175.39 368.53 186.15 387.18 194.5 392 201.53 391.99 197.68 389.77 197.67 389.76 193.85 389.76 193.85 384.78 193.83 384.77 191.41 380.59 186.02 380.59 178.38 367.2"/><polygon class="cls-1" points="206.74 224.94 210.07 219.28 206.79 213.6 206.78 213.59 203.35 213.59 203.35 224.94 206.74 224.94"/><path class="cls-1" d="M248.11,246.11l-3.65-6.32,0,0h-9.72l-12-6.93H217.9l-7.83-13.56-3.33,5.66H194.5l-3.8,2.19-1.18-2.05v-9.37h-4.15v2.14l-3.13,1.91-2.94-1.7h-2.37v3.24l2.4,4.17-5.91,3.41h-2.17l-2.17-3.76h-6V243h-2.26l-6.59,3.8v9.82l4.8,2.77h3.24v3.73h5.45l5.5-3.17h2.37v5.23l9.61,5.55h4.41v8.08h6.27v2.37l2.58,4.46L197,288.14v7.91h6l2.55,4.42h2.37v3.44h2.56v3.86L204,319l11.93,6.89v3.25l7.86-13.62V304l9.64-5.56h4.82l7.49-13V271.77l9.35-16.21v-9.45Z"/><polygon class="cls-1" points="116.87 188.78 120.8 191.04 127.45 187.2 127.45 184.54 127.44 184.53 118.25 184.53 116.87 186.85 116.87 188.78"/><polygon class="cls-1" points="138.29 201.5 134.12 203.91 130.13 201.61 130.13 204.65 134.37 207.1 138.55 204.69 142.73 207.1 142.73 204.05 138.29 201.5"/><polygon class="cls-1" points="162.31 263.14 162.31 263.15 162.3 263.14 162.31 263.14 162.31 259.41 159.07 259.41 154.26 256.64 154.26 246.82 160.85 243.02 160.85 237.96 153.97 237.96 150.51 231.97 148.24 230.66 148.24 235.42 140.82 239.71 140.82 244.95 140.82 245.31 140.82 244.95 136.41 244.95 134.11 240.97 134.11 246.09 148.37 270.78 148.37 275.6 166.06 285.82 167.75 282.89 167.75 263.14 162.31 263.14"/><polygon class="cls-1" points="140.82 244.95 140.82 239.71 148.24 235.42 148.24 230.66 140.37 226.11 134.11 229.72 134.11 240.97 136.41 244.95 140.82 244.95"/><path class="cls-1" d="M218.2,69.2h0V57.1l-2.27-1.31-8.48,4.9h-4.82L207,53.15l-5.55-3.21h-8.76l-6.47,11.21v4.42l-10.09,5.83v7l-4.18,2.41h-4.82V74.53l2.9-5h-4.82l-8.9-5.14h-5.57V55.66l17.31-10h6.87L179,43.25l-4.18-2.41h10.07l9.49-5.48V32.14h-2.65l-9.33,5.39V31.26l-3.36-5.83L173,28.94v4.82l-4.18,2.41H133.08l-8.69-5H96.62L59.13,52.66l7.39,4.21v8H63.7V79.52l3.85,6.66h67.19l5,2.86,3.66-2.11h6.23l3.85,6.68.93,1.62H157l5.6,3.33H156l-1.59,2.86v3.06h2.19l6.54-3.78H170L174.73,98h5.18l4.17-7.22h4.52v5.7l2.05,1.18v2.42h8.2l10.45-6V91.51l-8.14,4.7-4.35-7.53h5.55l-1.46-2.53H191.8l6.27-3.62H211.7l5.24-3h6.27l3.21-5.55ZM108.39,38.29h6.79l3.24-1.87,4.7,2.72L118.25,42h-12ZM120.95,52.1h-5.31l-2.19,2.65-1.33-.66h-5.5V51.3h5.5l4.69-2.71,3,1.71,6.11-3.53L127,48.63Zm11.42,28.64-3.16,1.91v-10h3.16Z"/><polygon class="cls-1" points="493.23 158.77 490.82 154.59 488.41 158.77 480.35 158.76 483.07 163.5 490.7 163.5 493.43 158.89 493.23 158.77"/><polygon class="cls-1" points="474.3 176.41 479.38 176.41 490.7 169.88 490.7 163.5 483.07 163.5 480.35 158.76 478.34 158.76 470.87 145.84 463.51 145.84 446.39 135.95 443.06 135.95 445.26 139.76 443.15 143.35 437.47 143.35 437.47 146.89 444.94 159.96 449.11 162.37 449.11 167.77 453.29 170.18 459.75 181.41 471.42 181.41 474.3 176.41"/><polygon class="cls-1" points="611.44 166.22 619.46 170.84 619.46 173.21 617.76 176.15 625.48 180.6 629.31 187.24 629.31 196 621.82 200.32 623.07 201.05 623.07 205.87 627.24 203.45 627.24 199.84 633.83 196.03 633.83 190.82 627.22 179.37 621.5 176.07 621.5 176.07 621.5 172.12 624.71 170.26 624.71 166.69 622.39 162.67 617.59 162.67 611.44 166.22"/><polygon class="cls-1" points="414.19 88.22 412.14 89.4 417.44 98.33 417.44 94.51 419.85 94.51 419.85 91.57 414.19 88.22"/><polygon class="cls-1" points="525.91 109.77 518.23 109.77 521.5 107.87 519.45 106.69 514.76 109.4 510.23 109.4 506.5 102.91 499.18 102.91 497.44 99.89 491.46 96.44 485.88 99.66 485.88 109.3 488.15 109.3 490.71 104.86 495.71 107.75 495.7 110.11 498.7 110.11 512.52 118.09 512.52 120.45 516.24 120.45 516.24 116.5 514.19 115.31 516.4 111.49 518.77 111.49 521.6 113.12 523.97 113.12 525.91 109.77"/><polygon class="cls-1" points="530.59 153.73 525.56 150.83 526.75 148.78 530.26 148.78 537.01 137.09 533.5 131.02 533.5 128.65 539.22 128.65 539.22 126.28 531.84 122.02 527.05 122.02 525 123.2 525 129.58 522.74 130.89 522.74 137.49 516.23 141.26 516.23 144.38 501.86 144.38 507.15 147.44 507.15 155.26 515.24 155.26 526.35 161.67 526.38 161.73 530.59 159.22 530.59 153.73"/><polygon class="cls-1" points="501.86 144.38 504.74 139.41 504.84 139.23 500.72 136.85 500.72 127.27 500.72 123.05 492.05 118.04 484.08 118.04 482.5 118.95 482.5 122.63 474.25 122.63 468.51 119.31 468.51 115.77 466.68 112.6 463.28 114.56 463.28 116.93 460.03 116.93 458.02 116.93 458.02 121.36 463.83 124.72 463.83 131.73 469.19 134.87 469.19 142.92 473.36 140.5 477.54 142.92 477.54 145.73 487.97 151.75 492.15 149.34 495.4 151.22 495.4 155.26 507.15 155.26 507.15 147.44 501.86 144.38"/><polygon class="cls-1" points="449.97 104.86 449.97 109.68 455.22 109.68 460.47 109.68 460.47 109.68 460.47 106.76 457.18 104.86 449.97 104.86"/><path class="cls-1" d="M402.53,68.4v2.8H398V68.4ZM611,17.49l-4.18-2.41h-9.3l4.18,2.41ZM507.81,5.36h6l2.44,1.4h3.23L523,8.81h-9.22ZM682.17,93,672,75.16h2.32L684.49,93ZM460.84,28.89l-8.74-5,2.41-4.18,9.69-5.6H474.3l-4.18,2.41h-4.82l-8.71,5Zm152.83-6.76H611V20.86h2.64Zm6.22-3.37h-2.64V17.49h2.64ZM450.14,34.36h-4.09V32.28h4.09Zm264.09,6.12h4.82l4.18,2.41h6.56l-2.91-5h-9.63l-4.66-2.69h-7.72l-8.44-4.87h-38l-4.18-2.41H639l-5.28-3H613v2.41H598.49l-9.78-5.65H555.45L551.27,24h-4.82l9.85-5.69-2.41-4.18H540l-4.18-2.41-8.72,5H513.37L511,20.92h-8.56l2.41,3.9H494.08l3.69,6.4h7.16l2.41,4.18h-5.67l-4.18,2.41L491.32,27.1h-2.42l-2.41-4.18h-4.82v5.55l6.24,3.6v3.32l-6.46-3.73H470.19L466,34.06h-8.59l-7.31,4.19H443.4l-3.25-1.88v3.75l-9.9,5.7h-4.82l-3.63-6.29-5.39-3.11h4.82l5.39,3.11h6.33V35.86l-6.32-3.65h-7l-4.18-2.41h-1.38l-4.47,2.58v2.75l7.05,12.28-3.73,6.47h2.53L413,58V65.4h3.63l3.22,1.84V70.1l4.78,2.74V77h3.82l3.18,5.51h8l3.4,2v7l-3.57,2v3.86h-2v1.8H440l9.95,5.74h7.21l3.29,1.9,3.28,1.9,2.19-1.26L460,97.15l4.77-2.75c0-.23,0-2.24,0-2.24l-6-3.44,0-5.09,7.1-4.17,5,0L475,81.77l14.87-.06V79.34L487,74.52V72.15l5.45,0,5.15-3h8.46l7.27,4.14,4.18,0,2.72-1.57,8.81,5.09,2.42,4.19h10.79l8.22,4.8L558.56,81h6.28l5.3,3.06h5V81.74l-2-3.47h5.15l8,4.63H596L601.29,86h5.16l3.7-2.14H622.6V73.9h7.6l23.71,13.69v3.27h4.2l4.56-2.63,2.32,4v6.91h-4.6l2.77,4.76h8.14l2.39-4.18V85.31l-5.93-10.25-6.2-3.58-4.18,2.41-7-4,4.13-7.16V57.18h20.36l3.88,2.24V50.14h4.82L688.55,53,691,48.81l4.18,2.41v3.56l-3.41,5.91v4.82l2.41,4.18,8.25,4.77,3.14,5.44h3.15l0-9.52-4.17-7.22-5.71-3.29V55l0,0h13.75V52.6l7.8-4.5-4.18-2.41h-4.82l-5-2.91h7.95ZM420.63,60.19h-2.31l-1-1.73V56.22h1.79l1.52,2.64ZM594.45,73.62l-2.87,5h-4.24V77.16h2.46l2.44-4.23V61.3l2.21,1.28Z"/><polygon class="cls-1" points="455.22 112.05 456.45 114.19 460.03 114.19 460.03 116.93 463.28 116.93 463.28 114.56 460.47 109.68 455.22 109.68 455.22 112.05"/><polygon class="cls-1" points="521.6 113.12 518.77 111.49 516.4 111.49 514.19 115.31 516.24 116.5 516.24 120.45 519.94 120.46 521.45 117.85 525 117.85 525 121.22 527.05 119.99 531.84 119.99 529.4 115.78 518.59 115.78 518.59 114.86 521.6 113.12"/><path class="cls-1" d="M389.27,248.09l3.83,6.63h5.38v-3.09h5.62l1.18,2.05v10h8.6L424.68,270h1.15v-2.39l-3.7-2.14v-8.51l2.55-1.47h3.07l-4.52-7.83v-10.3l1.7-3V232l3.41-5.9v-6l-1.18-2.1h-6L420,216H410l-3.45,2h-3.15l-4.17-2.41-3.45,2v5.73l-1.61,2.78v8l-4.23,2.44,0,6.12-4,2.32h-2.84l-2,1.13V248h-1.49l1.17,2,3.3-1.89Z"/><polygon class="cls-1" points="432.95 267.89 432.95 272.37 435.53 273.86 435.53 273.86 437.59 273.86 437.59 278.89 439.19 281.65 441.79 277.15 441.79 274.75 438.55 269.48 437.05 269.48 437.05 259.13 434.62 257.74 434.62 266.92 432.95 267.89"/><polygon class="cls-1" points="427.76 255.46 424.68 255.46 422.13 256.93 422.13 265.44 425.83 267.58 425.83 269.96 424.68 269.96 413.88 263.72 410.52 263.72 410.52 269.51 405.28 269.51 405.28 279.47 410.31 282.32 413.74 282.32 414.59 283.8 419.28 283.8 422.82 277.66 426.75 277.66 426.75 276.01 432.95 272.37 432.95 267.89 434.62 266.92 434.62 257.74 431.22 255.78 431.2 257.44 427.76 255.46"/><polygon class="cls-1" points="438.55 265.8 438.55 269.48 441.79 274.75 441.79 277.15 439.19 281.65 437.59 278.89 437.59 273.86 435.53 273.86 435.53 273.86 432.95 272.37 426.75 276.01 426.75 277.66 433.13 281.34 433.13 288.68 428.61 296.42 428.61 307.49 428.61 309.48 431.12 309.48 431.12 307.5 439.24 302.8 439.24 285.6 453.67 277.26 453.67 262.71 448.32 265.8 438.55 265.8"/><polygon class="cls-1" points="447.56 240.39 437.68 234.69 435.3 238.82 431.59 238.82 431.59 234.38 428.35 234.38 428.35 237.33 428.35 240.27 426.31 243.8 424.42 243.77 424.42 243.77 424.42 246.63 428.94 254.46 431.22 255.78 434.62 257.74 434.62 257.73 434.62 257.74 437.05 259.13 437.05 259.11 438.55 260 438.55 265.8 448.32 265.8 453.67 262.71 453.67 261.46 449.48 254.22 449.48 246.81 450.85 244.46 447.56 242.56 447.56 240.39"/><polygon class="cls-1" points="426.08 238.82 423.24 238.82 423.24 241.72 423.89 242.85 424.42 243.77 426.31 243.8 428.35 240.27 428.35 237.33 426.08 237.33 426.08 238.82"/><path class="cls-1" d="M190.64,97.64v2.42H182l0,0-3.15,5.45v2.41h-6.78v3.14l-11.55,6.67v8.6l-17.86,10.31v19.72h-2l-3.41-5.9v-7L133.08,141h-9.93L119,143.47H107.31l-5.94,3.45-4.3,7.45L90.49,143H87.28l-2.71,1.57L80.22,137H75.58l-2.05,1.18H67.26L60,134H54.1v-2.44L47.89,128V115.17L59,96V91.13l8.56-4.94h67.19l5,2.86-5,2.89L135.91,94l3.55-2.05h3.93l2.89,1.67h7.18l.94,1.62h-9.56l-3.41,2-3.8,6.58v4.92l5.37-3.1h0l0,0h0V100l3.92-2.27h5.46l-2.1,3.65h4.13v3.06h-4.08L148,108.61h6l8.67-5H165l5-2.9L174.73,98h5.18l4.17-7.22h4.52v5.7ZM92.28,33.57,85,29.37H48.45L7.89,52.79l4.44,7.7-10.46,6H6.69L28.24,54.08H56.65l7.05,4.07v6.74h2.82v-8l-7.39-4.22Z"/><polygon class="cls-1" points="406.76 65.59 397.97 65.59 397.97 68.4 402.53 68.4 402.53 71.2 406.29 73.37 409.74 67.38 406.76 65.59"/><polygon class="cls-1" points="413.04 58.05 413.04 61.65 404.36 61.65 404.36 59.42 406.74 58.05 413.04 58.05"/><polygon class="cls-1" points="404.36 61.65 404.36 62.88 399.54 62.88 397.97 65.59 406.76 65.59 409.74 67.39 413.04 65.4 413.04 61.65 404.36 61.65"/><path class="cls-1" d="M443.06,84.47v7h-4.88l-3.4,2h-1.52v4.39l2.29,1.32h-5l-2.7-4.6h-8V91.57l-5.66-3.35-2.05,1.18H401.36l.06-.11V85.63l5.09-2.94-1.41-2.44,1.18-2.05h5.11l2.05,1.18h7.08L424.67,77h3.82l3.18,5.51h8Zm-23.21,10h-2.41v3.82h2.41Z"/><path class="cls-2" d="M362.2,109.68V98.58h2.46l3,8.8h0l2.89-8.8h2.5v11.1h-1.81v-8.29h0c-.17.78-.4,1.49-.65,2.27l-2.17,6h-1.67l-2.16-6a21.37,21.37,0,0,1-.66-2.34h0v8.37Z"/><path class="cls-2" d="M374.92,109.68l3.93-11.14h1.83l3.88,11-1.81.3L381.8,107h-4.21l-.93,2.64Zm3.22-4.29h3.12l-1.53-4.5h0Z"/><path class="cls-2" d="M386.42,109.68V98.58h3.15c3.48,0,5.77,1.62,5.77,5.5s-2.34,5.59-5.77,5.59Zm1.86-1.7h1.46c2.56,0,3.73-1.17,3.73-3.87s-1.19-3.79-3.76-3.79h-1.43Z"/><path class="cls-2" d="M397.57,109.68V98.58h4c2.63,0,4.15,1,4.15,3.41a2.89,2.89,0,0,1-2.44,3.07l2.64,4.47-1.83.3-2.69-4.53h-2v4.38Zm1.85-6h2c1.59,0,2.41-.45,2.41-1.71s-.82-1.67-2.41-1.67h-2Z"/><path class="cls-2" d="M408.13,109.68V98.58H410v11.1Z"/><path class="cls-2" d="M412.78,109.68V98.58h3.15c3.48,0,5.77,1.62,5.77,5.5s-2.34,5.59-5.77,5.59Zm1.86-1.7h1.45c2.56,0,3.73-1.17,3.73-3.87s-1.19-3.79-3.76-3.79h-1.42Z"/><path class="cls-2" d="M170.66,125.15V114h1.91l5.25,7.93h0V114h1.74v11.1h-1.71l-5.46-8.08h0v8.08Z"/><path class="cls-2" d="M182.33,125.15V114h7.17v1.74H184.2v2.76h4l.27,1.67H184.2v3.24h5.59v1.7Z"/><path class="cls-2" d="M194.11,125.15l-2.92-10.95,1.81-.3,1.44,5.9c.24.9.45,1.71.6,2.58h0c.14-.84.35-1.68.57-2.57L197,114h1.78l1.4,5.8c.23.93.42,1.61.57,2.52h0c.17-.95.33-1.55.55-2.48l1.38-5.85h1.74l-2.91,11.1h-1.63l-2-8.52h0l-2.08,8.52Z"/><path class="cls-2" d="M213.28,125.15v-4.79l-3.71-6.16,1.79-.3,2.86,4.88L217,114h1.92l-3.79,6.31v4.79Z"/><path class="cls-2" d="M219.44,119.6c0-3.73,2.33-5.76,5-5.76s5,2,5,5.76-2.33,5.76-5,5.76S219.44,123.33,219.44,119.6Zm8.15,0c0-2.52-1.26-4-3.13-4s-3.14,1.52-3.14,4,1.26,4.08,3.14,4.08S227.59,122.12,227.59,119.6Z"/><path class="cls-2" d="M231.7,125.15V114h4c2.63,0,4.15,1,4.15,3.41a2.89,2.89,0,0,1-2.44,3.07L240,125l-1.83.3-2.69-4.53h-2v4.38Zm1.85-6h2c1.59,0,2.41-.45,2.41-1.71s-.82-1.67-2.41-1.67h-2Z"/><path class="cls-2" d="M242.19,125.15V114h1.88v5.16l4.38-5.16h2.21l-3.78,4.27,4.27,6.67-1.95.3-3.55-5.55-1.58,1.74v3.66Z"/><path class="cls-2" d="M110,163.71v-11.1h2.46l3,8.8h0l2.89-8.8h2.5v11.1H119.1v-8.29h0c-.17.78-.4,1.49-.65,2.27l-2.17,6h-1.67l-2.16-6a21.37,21.37,0,0,1-.66-2.34h0v8.37Z"/><path class="cls-2" d="M123.66,163.71v-11.1h7.17v1.74h-5.29v2.76h4l.27,1.67h-4.32V162h5.59v1.7Z"/><path class="cls-2" d="M132.69,163.71l3.69-5.89-3.21-5.05,1.95-.3,2.39,3.9,2.25-3.75h2l-3.24,5.21,3.62,5.74-1.89.3-2.82-4.56-2.73,4.41Z"/><path class="cls-2" d="M144.09,163.71v-11.1h1.86v11.1Z"/><path class="cls-2" d="M148.27,158.13c0-3.64,2.08-5.73,4.81-5.73a4.19,4.19,0,0,1,4.17,2.56l-1.59.95a2.66,2.66,0,0,0-2.58-1.79c-1.89,0-2.94,1.56-2.94,4s1.11,4.13,3,4.13a2.78,2.78,0,0,0,2.71-2.07l1.62.74a4.24,4.24,0,0,1-4.33,3C150.32,163.92,148.27,161.88,148.27,158.13Z"/><path class="cls-2" d="M159,158.16c0-3.73,2.32-5.76,5-5.76s5,2,5,5.76-2.32,5.76-5,5.76S159,161.9,159,158.16Zm8.14,0c0-2.52-1.26-4-3.13-4s-3.14,1.52-3.14,4,1.26,4.08,3.14,4.08S167.16,160.68,167.16,158.16Z"/><path class="cls-2" d="M91,259.71v-11.1h3.89c2.38,0,4.26.78,4.26,3.41s-2,3.48-4.32,3.48h-2v4.21Zm1.86-5.85H95c1.65,0,2.4-.55,2.4-1.8s-.73-1.74-2.42-1.74h-2Z"/><path class="cls-2" d="M101.09,259.71v-11.1h7.17v1.74H103v2.76h4l.27,1.67H103V258h5.59v1.7Z"/><path class="cls-2" d="M110.54,259.71v-11.1h4c2.63,0,4.15,1,4.15,3.41a2.89,2.89,0,0,1-2.44,3.07l2.64,4.47-1.83.3-2.69-4.53h-2v4.38Zm1.85-6h2c1.59,0,2.41-.45,2.41-1.71s-.82-1.67-2.41-1.67h-2Z"/><path class="cls-2" d="M120.82,255.68v-7.06h1.88v7c0,1.59.73,2.62,2.44,2.62s2.43-1,2.43-2.61v-7h1.84v7c0,2.52-1.36,4.26-4.29,4.26S120.82,258.17,120.82,255.68Z"/><path class="cls-2" d="M363.21,64.54V53.44h1.88v9.4h5l.29,1.7Z"/><path class="cls-2" d="M371.21,59c0-3.73,2.33-5.76,5-5.76s5,2,5,5.76-2.33,5.76-5,5.76S371.21,62.72,371.21,59Zm8.15,0c0-2.52-1.26-4-3.13-4s-3.14,1.52-3.14,4,1.26,4.08,3.14,4.08S379.36,61.51,379.36,59Z"/><path class="cls-2" d="M383.47,64.54V53.44h1.91l5.25,7.93h0V53.44h1.74v11.1h-1.71l-5.46-8.08h0v8.08Z"/><path class="cls-2" d="M395.14,64.54V53.44h3.15c3.48,0,5.77,1.62,5.77,5.5s-2.34,5.59-5.77,5.59Zm1.86-1.7h1.45c2.56,0,3.73-1.17,3.73-3.87s-1.19-3.79-3.76-3.79H397Z"/><path class="cls-2" d="M405.8,59c0-3.73,2.32-5.76,5-5.76s5,2,5,5.76-2.32,5.76-5,5.76S405.8,62.72,405.8,59Zm8.14,0c0-2.52-1.26-4-3.13-4s-3.14,1.52-3.14,4,1.26,4.08,3.14,4.08S413.94,61.51,413.94,59Z"/><path class="cls-2" d="M418,64.54V53.44H420l5.25,7.93h0V53.44H427v11.1h-1.71l-5.46-8.08h0v8.08Z"/><rect class="cls-3" x="12.97" y="135.54" width="7.1" height="6.76"/><rect class="cls-4" x="140.32" y="112.17" width="15.24" height="15.24" transform="translate(-41.38 139.7) rotate(-45)"/><rect class="cls-4" x="76.32" y="152.17" width="15.24" height="15.24" transform="translate(-88.41 106.16) rotate(-45)"/><rect class="cls-4" x="147.32" y="248.17" width="15.24" height="15.24" transform="translate(-135.49 184.48) rotate(-45)"/><rect class="cls-4" x="337.32" y="52.17" width="15.24" height="15.24" transform="translate(58.75 261.42) rotate(-45)"/><rect class="cls-4" x="330.32" y="96.17" width="15.24" height="15.24" transform="translate(25.59 269.36) rotate(-45)"/></g></svg>