<svg xmlns="http://www.w3.org/2000/svg" xmlns:xlink="http://www.w3.org/1999/xlink" viewBox="0 0 786 183"><defs><style>.cls-1{isolation:isolate;}.cls-2,.cls-3{mix-blend-mode:multiply;}.cls-2{fill:url(#Degradado_sin_nombre_7);}.cls-3{fill:url(#Degradado_sin_nombre_7-2);}.cls-4{fill:#00cccd;}.cls-5,.cls-7{fill:#fff;}.cls-6{fill:#00a6e8;}.cls-7{fill-rule:evenodd;}.cls-8{fill:#676767;}</style><linearGradient id="Degradado_sin_nombre_7" x1="558.83" y1="92.21" x2="786" y2="92.21" gradientUnits="userSpaceOnUse"><stop offset="0.07" stop-opacity="0"/><stop offset="1" stop-opacity="0.1"/></linearGradient><linearGradient id="Degradado_sin_nombre_7-2" x1="-9.14" y1="92.21" x2="218.02" y2="92.21" xlink:href="#Degradado_sin_nombre_7"/></defs><title>number-employeers-eng</title><g class="cls-1"><g id="cab"><path class="cls-2" d="M558.83,1h136A91.21,91.21,0,0,1,786,92.21v0a91.21,91.21,0,0,1-91.21,91.21h-136a0,0,0,0,1,0,0V1A0,0,0,0,1,558.83,1Z"/><path class="cls-3" d="M-9.14,1h136A91.21,91.21,0,0,1,218,92.21v0a91.21,91.21,0,0,1-91.21,91.21h-136a0,0,0,0,1,0,0V1a0,0,0,0,1,0,0Z"/><path class="cls-4" d="M694.82,173.55a81.39,81.39,0,0,0,0-162.79h0V1.94A89.23,89.23,0,0,1,718.15,5a90.2,90.2,0,1,1-46.69,174.25l2.28-8.49A81.47,81.47,0,0,0,694.82,173.55Z"/><path class="cls-5" d="M694.8,1.94v8.81a81.4,81.4,0,0,0-21.07,160l-2.28,8.49C631,168.44,604.61,134,604.61,92.14A90.2,90.2,0,0,1,694.8,1.94Z"/><path class="cls-4" d="M127.58,2.18V11a81.4,81.4,0,0,1,21.07,160l2.28,8.49c40.42-10.83,66.85-45.28,66.85-87.13A90.2,90.2,0,0,0,127.58,2.18Z"/><path class="cls-5" d="M127.57,173.78a81.39,81.39,0,1,1,0-162.79h0V2.18a89.21,89.21,0,0,0-23.35,3.07A90.2,90.2,0,1,0,150.92,179.5L148.65,171A81.47,81.47,0,0,1,127.57,173.78Z"/><path d="M106,95.43V89H93.21V87.08L105.34,68.8h3.17V86.72h4.43L113,89h-4.54v6.44Zm-9.93-8.71H106V71.78H106Z"/><path d="M116.07,82.58c0-8.21,4.36-14.29,10.47-14.29a9.27,9.27,0,0,1,6.26,2l-1.19,2a7.23,7.23,0,0,0-5.11-1.8c-4.93,0-8,5.15-8,11.81a10.26,10.26,0,0,1,7.6-3.56c5.62,0,8.31,3.49,8.31,8.31,0,5-3.42,8.85-8.93,8.85C120.36,95.94,116.07,91.73,116.07,82.58ZM132,87.12c0-3.53-1.8-6.16-6.12-6.16a8.93,8.93,0,0,0-7.2,3.92c.54,6.12,3.46,8.85,7,8.85C129.43,93.74,132,91.29,132,87.12Z"/><path d="M137,76.5c0-5,2.34-8.06,6-8.06s5.94,3.1,5.94,7.92-2.2,8.06-6,8.06S137,81.18,137,76.5Zm9.68-.07c0-3.6-1.33-6-3.71-6s-3.71,2.63-3.71,6c0,3.64,1.33,6.12,3.74,6.12S146.67,79.81,146.67,76.43Zm-3.56,19L159,68.8h2.3L145.41,95.43Zm12.35-7.56c0-4.93,2.38-8.06,6-8.06s5.94,3.1,5.94,8c0,4.64-2.2,8-6,8S155.45,92.55,155.45,87.87Zm9.68-.07c0-3.6-1.3-6-3.71-6s-3.67,2.63-3.67,6c0,3.6,1.3,6.08,3.71,6.08S165.13,91.19,165.13,87.8Z"/><circle class="cls-6" cx="411.4" cy="92.19" r="91.19"/><path class="cls-5" d="M360.54,142.32l1.47-1.26a7,7,0,0,0,6.12,3.48c3.33,0,5.31-1.83,5.31-4.5,0-3.24-1.89-4.89-7.14-4.89h-.78l-.12-1.83h1.08c4.71,0,6.48-1.44,6.48-4.17,0-2.16-1.35-3.87-4.71-3.87a6.61,6.61,0,0,0-5.31,2.79l-1.41-1.35a8.79,8.79,0,0,1,6.84-3.33c4.68,0,6.66,2.67,6.66,5.55a5,5,0,0,1-4.44,5.25c3.33.66,5,2.58,5,5.85,0,3.63-2.85,6.39-7.41,6.39A8.71,8.71,0,0,1,360.54,142.32Z"/><path class="cls-5" d="M380.22,145.95l9.33-20.19H378.21l-.15-2h13.71v1.83l-9.42,20.43Z"/><path class="cls-5" d="M400.71,151.83l-.15-1.8a9.81,9.81,0,0,0,2.28.27c1.74,0,2.61-.78,3.27-2.46l.66-1.74-6-15.69,2.07-.39,5,13.53h.06l4.89-13.32h2.16l-6.81,17.61c-1.08,2.82-2.25,4.2-5.28,4.2A8.21,8.21,0,0,1,400.71,151.83Z"/><path class="cls-5" d="M416.33,138.09c0-5.58,3.6-8.19,6.93-8.19,3.66,0,6.45,2.82,6.45,8.22v.39H418.4c0,3.87,2.25,6.09,5.19,6.09a6.59,6.59,0,0,0,5.07-2.34l1,1.35a7.72,7.72,0,0,1-6.12,2.73C419.57,146.34,416.33,143.49,416.33,138.09Zm11.37-1.2c-.21-3-1.65-5.25-4.47-5.25-2.28,0-4.44,1.71-4.8,5.25Z"/><path class="cls-5" d="M432.45,142.29c0-3.12,2.67-5.37,10.71-6.6v-.81a2.9,2.9,0,0,0-3.24-3.24,8.31,8.31,0,0,0-5.85,2.49l-1.17-1.29a9.86,9.86,0,0,1,7.17-2.94c3.51,0,5.13,1.89,5.13,5V146h-1.83l-.21-2.25a9.18,9.18,0,0,1-6.24,2.52C434.1,146.28,432.45,144.75,432.45,142.29Zm10.71-.21v-4.92c-7,1.2-8.67,2.85-8.67,4.89,0,1.65,1.08,2.52,2.88,2.52A8.24,8.24,0,0,0,443.16,142.08Z"/><path class="cls-5" d="M449.6,146V130.23h1.86l.21,3.09h.06a6.91,6.91,0,0,1,6.21-3.42h.21l.18,1.92a6.22,6.22,0,0,0-.75,0,6.42,6.42,0,0,0-5.91,3.93V146Z"/><path class="cls-5" d="M460.18,143.49l1.14-1.26a6.41,6.41,0,0,0,5.07,2.37c2.7,0,4.11-1,4.11-2.73s-1.08-2.46-4.35-3.21c-3.81-.93-5.49-1.92-5.49-4.62,0-2.25,2-4.14,5.37-4.14a7.88,7.88,0,0,1,5.82,2.22l-1,1.44a6.45,6.45,0,0,0-4.71-1.95c-2.4,0-3.42,1.11-3.42,2.34,0,1.47.87,2.13,3.78,2.82,4.2,1,6.06,2,6.06,5s-2.58,4.56-6.15,4.56A7.63,7.63,0,0,1,460.18,143.49Z"/><path class="cls-5" d="M354.43,111.39l3.93-11.14h1.83l3.88,11-1.82.3-.94-2.79H357.1l-.93,2.64Zm3.22-4.29h3.12l-1.53-4.5h0Z"/><path class="cls-5" d="M365.08,105.8c0-3.48,2-5.71,4.86-5.71a4.38,4.38,0,0,1,4.18,2.63l-1.61.87a2.56,2.56,0,0,0-2.5-1.77c-1.38,0-3,.94-3,3.94s1.48,4.17,3.06,4.17a2.5,2.5,0,0,0,2.61-2.5h-2.11l-.27-1.52h4.17v5.49h-1.54v-1.25h0a3.31,3.31,0,0,1-3.06,1.46C366.66,111.6,365.08,109.13,365.08,105.8Z"/><path class="cls-5" d="M377.09,111.39v-11.1h7.17V102H379v2.76h4l.27,1.67H379v3.24h5.59v1.69Z"/><path class="cls-5" d="M390,111.39,394,100.25h1.83l3.88,11-1.81.3-.95-2.79H392.7l-.93,2.64Zm3.22-4.29h3.12l-1.53-4.5h0Z"/><path class="cls-5" d="M403.64,111.44l-3.81-11,1.82-.3,2.89,8.8h0l2.92-8.65h1.77l-3.85,11.14Z"/><path class="cls-5" d="M411.16,111.39v-11.1h7.17V102H413v2.76h4l.27,1.67H413v3.24h5.59v1.69Z"/><path class="cls-5" d="M420.67,111.39v-11.1h4c2.63,0,4.15,1,4.15,3.4a2.89,2.89,0,0,1-2.44,3.08l2.64,4.47-1.83.3L424.48,107h-2v4.38Zm1.85-6h2c1.59,0,2.42-.45,2.42-1.71s-.83-1.67-2.42-1.67h-2Z"/><path class="cls-5" d="M430.65,111.39l3.93-11.14h1.83l3.88,11-1.81.3-.95-2.79h-4.21l-.93,2.64Zm3.22-4.29H437l-1.53-4.5h0Z"/><path class="cls-5" d="M441.3,105.8c0-3.48,1.95-5.71,4.86-5.71a4.38,4.38,0,0,1,4.18,2.63l-1.6.87a2.57,2.57,0,0,0-2.5-1.77c-1.38,0-3,.94-3,3.94s1.48,4.17,3.06,4.17a2.5,2.5,0,0,0,2.61-2.5h-2.12l-.27-1.52h4.17v5.49H449.1v-1.25h0A3.31,3.31,0,0,1,446,111.6C442.88,111.6,441.3,109.13,441.3,105.8Z"/><path class="cls-5" d="M453.31,111.39v-11.1h7.17V102h-5.29v2.76h4l.27,1.67h-4.32v3.24h5.59v1.69Z"/><path d="M660.61,91.19l1.66-1.62a8.14,8.14,0,0,0,7,4.1c4.61,0,6.66-3.42,6.66-6.95,0-4.25-2.56-6.62-6.08-6.62a7,7,0,0,0-6.08,3.35l-1.91-.72,1-13.93h14l.07,2.34H665l-.72,9.25a7.17,7.17,0,0,1,5.9-2.48c4.82,0,8.24,3.38,8.24,8.71s-3.49,9.32-9.14,9.32A10.11,10.11,0,0,1,660.61,91.19Z"/><path d="M694.49,95.43V89H681.68V87.08L693.81,68.8H697V86.72h4.43l.11,2.27H697v6.44Zm-9.93-8.71h9.93V71.78h-.07Z"/><path d="M702.72,76.5c0-5,2.34-8.06,6-8.06s5.94,3.1,5.94,7.92-2.2,8.06-6,8.06S702.72,81.18,702.72,76.5Zm9.68-.07c0-3.6-1.33-6-3.71-6S705,73,705,76.35c0,3.64,1.33,6.12,3.74,6.12S712.4,79.81,712.4,76.43Zm-3.56,19L724.75,68.8H727L711.14,95.43Zm12.35-7.56c0-4.93,2.38-8.06,6-8.06s5.94,3.1,5.94,8c0,4.64-2.2,8-6,8S721.18,92.55,721.18,87.87Zm9.68-.07c0-3.6-1.3-6-3.71-6s-3.67,2.63-3.67,6c0,3.6,1.3,6.08,3.71,6.08S730.87,91.19,730.87,87.8Z"/><path class="cls-7" d="M417.93,53.73a16.51,16.51,0,0,1-14.81,0,21.23,21.23,0,0,0-16.19,20.63v4.72h47.19V74.36A21.24,21.24,0,0,0,417.93,53.73ZM417.61,72h-7.08V67.28h11.8Zm-7.08-21.23A11.8,11.8,0,1,0,398.73,39,11.8,11.8,0,0,0,410.53,50.77Z"/><path class="cls-8" d="M114.6,116.43v-11.1h2.46l3,8.8h0l2.9-8.8h2.5v11.1h-1.82v-8.29h0c-.17.78-.41,1.48-.65,2.26l-2.17,6h-1.67l-2.16-6a21.2,21.2,0,0,1-.66-2.34h0v8.37Z"/><path class="cls-8" d="M128.29,116.43v-11.1h7.17v1.74h-5.29v2.76h4l.27,1.67h-4.32v3.24h5.59v1.69Z"/><path class="cls-8" d="M137.79,116.43v-11.1h1.9l5.25,7.93h0v-7.93h1.74v11.1H145l-5.46-8.08h0v8.08Z"/><path class="cls-8" d="M670.28,118.43l-2.92-10.95,1.81-.3,1.44,5.89c.24.9.45,1.71.6,2.58h0c.13-.84.34-1.68.57-2.57l1.33-5.76h1.79l1.4,5.8c.22.93.42,1.61.57,2.52h0c.17-.95.33-1.54.56-2.48l1.38-5.85h1.74l-2.91,11.1h-1.63l-2-8.52h0l-2.09,8.52Z"/><path class="cls-8" d="M681.71,112.88c0-3.73,2.33-5.76,5-5.76s5,2,5,5.76-2.33,5.76-5,5.76S681.71,116.62,681.71,112.88Zm8.14,0c0-2.52-1.26-4-3.13-4s-3.13,1.51-3.13,4,1.26,4.08,3.13,4.08S689.86,115.41,689.86,112.88Z"/><path class="cls-8" d="M694,118.43v-11.1h2.46l3,8.8h0l2.89-8.8h2.5v11.1h-1.81v-8.29h0c-.17.78-.41,1.48-.64,2.26l-2.18,6h-1.66l-2.16-6a21.39,21.39,0,0,1-.66-2.34h0v8.37Z"/><path class="cls-8" d="M707.71,118.43v-11.1h7.17v1.74h-5.29v2.76h4l.27,1.67h-4.32v3.24h5.59v1.69Z"/><path class="cls-8" d="M717.22,118.43v-11.1h1.91l5.25,7.93h0v-7.93h1.74v11.1h-1.71L719,110.35h0v8.08Z"/></g></g></svg>