<svg xmlns="http://www.w3.org/2000/svg" xmlns:xlink="http://www.w3.org/1999/xlink" viewBox="0 0 751 396"><defs><style>.cls-1,.cls-2,.cls-20{fill:none;}.cls-2{clip-rule:evenodd;}.cls-3{clip-path:url(#clip-path);}.cls-4{clip-path:url(#clip-path-2);}.cls-5{isolation:isolate;}.cls-6{clip-path:url(#clip-path-3);}.cls-7{fill:#2a86ca;}.cls-8{clip-path:url(#clip-path-5);}.cls-9{fill:#5bbeff;opacity:0.1;}.cls-10{clip-path:url(#clip-path-7);}.cls-11{clip-path:url(#clip-path-9);}.cls-12{clip-path:url(#clip-path-11);}.cls-13{clip-path:url(#clip-path-12);}.cls-14{clip-path:url(#clip-path-13);}.cls-15{clip-path:url(#clip-path-15);}.cls-16{clip-path:url(#clip-path-17);}.cls-17{clip-path:url(#clip-path-19);}.cls-18{fill:#004481;}.cls-19{fill:#fff;}.cls-20{stroke:#2a86ca;stroke-miterlimit:10;}</style><clipPath id="clip-path"><rect class="cls-1" x="0.74" y="0.96" width="343.16" height="258.48"/></clipPath><clipPath id="clip-path-2"><rect class="cls-1" x="-154.12" y="1.38" width="499.48" height="258.48"/></clipPath><clipPath id="clip-path-3"><rect class="cls-1" x="-154.12" y="1.38" width="677.97" height="258.48"/></clipPath><clipPath id="clip-path-5"><polygon class="cls-2" points="523.86 65.64 523.86 259.37 -154.12 259.52 523.86 65.64"/></clipPath><clipPath id="clip-path-7"><polygon class="cls-2" points="523.92 194.78 523.92 259.49 -153.95 259.49 523.92 194.78"/></clipPath><clipPath id="clip-path-9"><polygon class="cls-2" points="15.37 0.96 523.89 194.82 523.89 259.59 -154.08 259.59 15.37 0.96"/></clipPath><clipPath id="clip-path-11"><rect class="cls-1" x="407.22" y="0.96" width="343.16" height="258.48"/></clipPath><clipPath id="clip-path-12"><rect class="cls-1" x="252.36" y="1.38" width="499.48" height="258.48"/></clipPath><clipPath id="clip-path-13"><rect class="cls-1" x="252.36" y="1.38" width="677.97" height="258.48"/></clipPath><clipPath id="clip-path-15"><polygon class="cls-2" points="930.34 65.64 930.34 259.37 252.36 259.52 930.34 65.64"/></clipPath><clipPath id="clip-path-17"><polygon class="cls-2" points="930.4 194.78 930.4 259.49 252.53 259.49 930.4 194.78"/></clipPath><clipPath id="clip-path-19"><polygon class="cls-2" points="421.85 0.96 930.37 194.82 930.37 259.59 252.4 259.59 421.85 0.96"/></clipPath></defs><title>proveedores-herramienta-eng</title><g id="cab"><g class="cls-3"><g class="cls-4"><g class="cls-5"><g class="cls-6"><g class="cls-6"><rect class="cls-7" x="-156.2" y="-1.15" width="682.21" height="262.71"/></g><g class="cls-8"><g class="cls-6"><rect class="cls-9" x="-156.24" y="63.52" width="682.22" height="198.12"/></g></g><g class="cls-10"><g class="cls-6"><rect class="cls-9" x="-156.07" y="192.67" width="682.11" height="68.94"/></g></g><g class="cls-11"><g class="cls-6"><rect class="cls-9" x="-156.2" y="-1.16" width="682.21" height="262.87"/></g></g></g></g></g></g><g class="cls-12"><g class="cls-13"><g class="cls-5"><g class="cls-14"><g class="cls-14"><rect class="cls-7" x="250.28" y="-1.15" width="682.21" height="262.71"/></g><g class="cls-15"><g class="cls-14"><rect class="cls-9" x="250.24" y="63.52" width="682.22" height="198.12"/></g></g><g class="cls-16"><g class="cls-14"><rect class="cls-9" x="250.41" y="192.67" width="682.11" height="68.94"/></g></g><g class="cls-17"><g class="cls-14"><rect class="cls-9" x="250.28" y="-1.16" width="682.21" height="262.87"/></g></g></g></g></g></g><rect class="cls-18" x="58.52" y="184.33" width="306.64" height="186.07" transform="translate(1.06 -0.81) rotate(0.22)"/><path class="cls-19" d="M430.48,80.52V69.42h1.38l3.72,9.72h0l3.71-9.72h1.39v11.1h-1.07V71.2h0c-.15.51-.42,1.24-.69,1.95L436,80.52h-1l-2.88-7.36c-.27-.71-.45-1.17-.69-2h0v9.33Z"/><path class="cls-19" d="M442.78,78.66c0-1.56,1.33-2.69,5.35-3.3V75a1.45,1.45,0,0,0-1.62-1.62,4.15,4.15,0,0,0-2.92,1.24l-.58-.65a4.93,4.93,0,0,1,3.58-1.47A2.27,2.27,0,0,1,449.15,75v5.53h-.92l-.1-1.12A4.59,4.59,0,0,1,445,80.65,2,2,0,0,1,442.78,78.66Zm5.35-.1V76.09c-3.48.6-4.33,1.42-4.33,2.44,0,.83.54,1.26,1.44,1.26A4.12,4.12,0,0,0,448.13,78.55Z"/><path class="cls-19" d="M451.43,80.52V72.63h.93l.1,1.54h0a3.46,3.46,0,0,1,3.1-1.71h.11l.09,1a3.11,3.11,0,0,0-.37,0,3.21,3.21,0,0,0-3,2v5.15Z"/><path class="cls-19" d="M457.29,80.52v-11l1-.15v7.44l3.76-4.15h1.21l-2.58,2.77,2.87,5-1,.18L460,76.18,458.33,78v2.49Z"/><path class="cls-19" d="M464.4,76.56c0-2.79,1.8-4.09,3.46-4.09,1.83,0,3.22,1.41,3.22,4.11v.19h-5.65c0,1.94,1.12,3,2.59,3a3.3,3.3,0,0,0,2.53-1.17l.51.67A3.86,3.86,0,0,1,468,80.68C466,80.68,464.4,79.26,464.4,76.56Zm5.68-.6c-.11-1.5-.83-2.62-2.24-2.62-1.14,0-2.22.85-2.4,2.63Z"/><path class="cls-19" d="M473.34,78.64V73.5H472v-.87h1.37V69.85l1-.15v2.92h2.05v.87h-2.05v5c0,.84.31,1.26,1.23,1.26a3,3,0,0,0,.78-.1l.12.89a7,7,0,0,1-1.08.09C474,80.62,473.34,80.08,473.34,78.64Z"/><path class="cls-19" d="M478.12,83.59v-11H479l.1,1.11a3.48,3.48,0,0,1,2.64-1.27c1.81,0,3.25,1.33,3.25,4.09s-1.46,4.09-3.29,4.09a3.56,3.56,0,0,1-2.61-1.21v4Zm5.89-7c0-2.17-1.08-3.23-2.4-3.23a3.4,3.4,0,0,0-2.46,1.29v3.87a3.41,3.41,0,0,0,2.49,1.27C483,79.78,484,78.84,484,76.57Z"/><path class="cls-19" d="M487,80.52v-11l1-.15V80.52Z"/><path class="cls-19" d="M489.95,78.66c0-1.56,1.33-2.69,5.35-3.3V75a1.45,1.45,0,0,0-1.62-1.62,4.15,4.15,0,0,0-2.92,1.24l-.58-.65a4.93,4.93,0,0,1,3.58-1.47A2.27,2.27,0,0,1,496.32,75v5.53h-.92l-.1-1.12a4.59,4.59,0,0,1-3.12,1.26A2,2,0,0,1,489.95,78.66Zm5.35-.1V76.09c-3.48.6-4.33,1.42-4.33,2.44,0,.83.54,1.26,1.44,1.26A4.12,4.12,0,0,0,495.3,78.55Z"/><path class="cls-19" d="M498.17,76.57c0-2.83,1.75-4.11,3.52-4.11a3.1,3.1,0,0,1,2.91,1.88l-.81.5a2.19,2.19,0,0,0-2.13-1.5c-1.17,0-2.46.88-2.46,3.24,0,2,1,3.24,2.44,3.24a2.32,2.32,0,0,0,2.21-1.54l.76.5a3.2,3.2,0,0,1-3,1.92C499.77,80.68,498.17,79.2,498.17,76.57Z"/><path class="cls-19" d="M505.92,76.56c0-2.79,1.8-4.09,3.46-4.09,1.83,0,3.23,1.41,3.23,4.11v.19H507c0,1.94,1.13,3,2.59,3a3.3,3.3,0,0,0,2.54-1.17l.51.67a3.86,3.86,0,0,1-3.06,1.37C507.54,80.68,505.92,79.26,505.92,76.56Zm5.68-.6c-.1-1.5-.82-2.62-2.23-2.62-1.14,0-2.22.85-2.4,2.63Z"/><path class="cls-19" d="M518.48,78.64V73.5h-1.37v-.87h1.37V69.85l1-.15v2.92h2.06v.87h-2.06v5c0,.84.32,1.26,1.23,1.26a3,3,0,0,0,.78-.1l.12.89a6.94,6.94,0,0,1-1.08.09C519.16,80.62,518.48,80.08,518.48,78.64Z"/><path class="cls-19" d="M522.53,76.56c0-2.79,1.8-4.09,3.46-4.09,1.83,0,3.23,1.41,3.23,4.11v.19h-5.66c0,1.94,1.13,3,2.59,3a3.3,3.3,0,0,0,2.54-1.17l.51.67a3.86,3.86,0,0,1-3.06,1.37C524.15,80.68,522.53,79.26,522.53,76.56Zm5.68-.6c-.1-1.5-.82-2.62-2.23-2.62-1.14,0-2.22.85-2.4,2.63Z"/><path class="cls-19" d="M530.7,76.57c0-2.83,1.75-4.11,3.53-4.11a3.1,3.1,0,0,1,2.91,1.88l-.81.5a2.19,2.19,0,0,0-2.13-1.5c-1.17,0-2.46.88-2.46,3.24,0,2,1,3.24,2.45,3.24a2.32,2.32,0,0,0,2.2-1.54l.77.5a3.2,3.2,0,0,1-3,1.92C532.3,80.68,530.7,79.2,530.7,76.57Z"/><path class="cls-19" d="M538.93,80.52v-11l1-.15v4.53a4.27,4.27,0,0,1,3-1.41,2.11,2.11,0,0,1,2.38,2.32v5.73h-1V75c0-1.11-.48-1.65-1.59-1.65A4,4,0,0,0,540,74.73v5.79Z"/><path class="cls-19" d="M547.61,80.52V72.63h.93l.1,1.25a4.27,4.27,0,0,1,3-1.41A2.11,2.11,0,0,1,554,74.79v5.73h-1V75c0-1.11-.48-1.67-1.59-1.67a4,4,0,0,0-2.75,1.38v5.8Z"/><path class="cls-19" d="M555.86,76.57c0-2.64,1.63-4.11,3.58-4.11S563,73.93,563,76.57s-1.64,4.11-3.57,4.11S555.86,79.2,555.86,76.57Zm6.12,0c0-1.74-.87-3.23-2.54-3.23s-2.55,1.37-2.55,3.23.86,3.23,2.55,3.23S562,78.43,562,76.57Z"/><path class="cls-19" d="M565,80.52v-11l1-.15V80.52Z"/><path class="cls-19" d="M568,76.57c0-2.64,1.63-4.11,3.58-4.11s3.57,1.47,3.57,4.11-1.64,4.11-3.57,4.11S568,79.2,568,76.57Zm6.12,0c0-1.74-.87-3.23-2.54-3.23S569,74.71,569,76.57s.86,3.23,2.55,3.23S574.1,78.43,574.1,76.57Z"/><path class="cls-19" d="M576.13,81.57a2,2,0,0,1,1.46-1.8,1,1,0,0,1-.71-1c0-.48.39-.88,1-1.19a2.61,2.61,0,0,1-1.2-2.26,2.89,2.89,0,0,1,3.12-2.85,3.27,3.27,0,0,1,2.25.81,4.09,4.09,0,0,1,1.74-.72l.15,1a4,4,0,0,0-1.5.27,2.46,2.46,0,0,1,.46,1.52,2.83,2.83,0,0,1-3.1,2.8,3.5,3.5,0,0,1-1.28-.23c-.37.15-.63.38-.63.68s.29.51,1.17.6l1.72.14c1.83.15,2.79.78,2.79,2,0,1.44-1.5,2.23-3.66,2.23C577.31,83.55,576.13,82.78,576.13,81.57Zm6.45-.17c0-.75-.6-1.12-2.16-1.24L578.84,80l-.41,0c-.88.28-1.32.84-1.32,1.44,0,.82.87,1.3,2.87,1.3C581.6,82.74,582.58,82.2,582.58,81.4Zm-.69-6.07a1.92,1.92,0,0,0-2.13-2,2,2,0,1,0,2.13,2Z"/><path class="cls-19" d="M585,83.43l-.08-.9a4.89,4.89,0,0,0,1.14.14,1.59,1.59,0,0,0,1.64-1.23l.33-.87-3-7.84,1-.19,2.49,6.76h0L591,72.63h1.08l-3.41,8.8c-.54,1.41-1.12,2.1-2.64,2.1A4.11,4.11,0,0,1,585,83.43Z"/><path class="cls-19" d="M597.07,83.59v-11H598l.1,1.11a3.48,3.48,0,0,1,2.64-1.27c1.81,0,3.25,1.33,3.25,4.09s-1.46,4.09-3.29,4.09a3.56,3.56,0,0,1-2.61-1.21v4Zm5.89-7c0-2.17-1.08-3.23-2.4-3.23a3.4,3.4,0,0,0-2.46,1.29v3.87a3.41,3.41,0,0,0,2.49,1.27C601.91,79.78,603,78.84,603,76.57Z"/><path class="cls-19" d="M606,80.52v-11l1-.15V80.52Z"/><path class="cls-19" d="M608.9,78.66c0-1.56,1.33-2.69,5.35-3.3V75a1.45,1.45,0,0,0-1.62-1.62,4.15,4.15,0,0,0-2.92,1.24l-.58-.65a4.93,4.93,0,0,1,3.58-1.47A2.27,2.27,0,0,1,615.27,75v5.53h-.92l-.1-1.12a4.59,4.59,0,0,1-3.12,1.26A2,2,0,0,1,608.9,78.66Zm5.35-.1V76.09c-3.48.6-4.33,1.42-4.33,2.44,0,.83.54,1.26,1.44,1.26A4.12,4.12,0,0,0,614.25,78.55Z"/><path class="cls-19" d="M618,78.64V73.5h-1.37v-.87H618V69.85l1-.15v2.92h2.05v.87H619v5c0,.84.31,1.26,1.23,1.26a3,3,0,0,0,.78-.1l.12.89a7,7,0,0,1-1.08.09C618.65,80.62,618,80.08,618,78.64Z"/><path class="cls-19" d="M623.68,80.52v-7h-1.37v-.87h1.37v-1.2c0-1.33.76-2,2.28-2l.54,0,.11.85a3.6,3.6,0,0,0-.58,0c-.75,0-1.31.29-1.31,1.14v1.23h1.74v.87h-1.74v7Z"/><path class="cls-19" d="M627.29,76.57c0-2.64,1.63-4.11,3.58-4.11s3.57,1.47,3.57,4.11-1.64,4.11-3.57,4.11S627.29,79.2,627.29,76.57Zm6.12,0c0-1.74-.87-3.23-2.54-3.23s-2.55,1.37-2.55,3.23.86,3.23,2.55,3.23S633.41,78.43,633.41,76.57Z"/><path class="cls-19" d="M636.35,80.52V72.63h.93l.11,1.54h0a3.46,3.46,0,0,1,3.1-1.71h.1l.09,1a3.12,3.12,0,0,0-.37,0,3.21,3.21,0,0,0-3,2v5.15Z"/><path class="cls-19" d="M642.22,80.52V72.63h.93l.1,1.25a4.1,4.1,0,0,1,2.9-1.41c1.33,0,2,.58,2.19,1.42a4.37,4.37,0,0,1,3-1.42,2.05,2.05,0,0,1,2.28,2.34v5.71h-1V75c0-1.11-.37-1.65-1.48-1.65a3.86,3.86,0,0,0-2.64,1.38v5.79h-1V75c0-1.11-.37-1.65-1.5-1.65a3.89,3.89,0,0,0-2.64,1.38v5.79Z"/><path class="cls-19" d="M659.83,78.64V73.5h-1.37v-.87h1.37V69.85l1-.15v2.92h2.05v.87h-2.05v5c0,.84.31,1.26,1.23,1.26a3,3,0,0,0,.78-.1l.12.89a7,7,0,0,1-1.08.09C660.5,80.62,659.83,80.08,659.83,78.64Z"/><path class="cls-19" d="M664.6,80.52v-11l1-.15v4.53a4.27,4.27,0,0,1,3-1.41A2.11,2.11,0,0,1,671,74.79v5.73h-1V75c0-1.11-.48-1.65-1.59-1.65a4,4,0,0,0-2.75,1.38v5.79Z"/><path class="cls-19" d="M672.78,78.66c0-1.56,1.33-2.69,5.35-3.3V75a1.45,1.45,0,0,0-1.62-1.62,4.15,4.15,0,0,0-2.92,1.24l-.58-.65a4.93,4.93,0,0,1,3.58-1.47A2.27,2.27,0,0,1,679.16,75v5.53h-.92l-.1-1.12A4.59,4.59,0,0,1,675,80.65,2,2,0,0,1,672.78,78.66Zm5.35-.1V76.09c-3.48.6-4.33,1.42-4.33,2.44,0,.83.54,1.26,1.44,1.26A4.12,4.12,0,0,0,678.14,78.55Z"/><path class="cls-19" d="M681.86,78.64V73.5H680.5v-.87h1.37V69.85l1-.15v2.92H685v.87H682.9v5c0,.84.32,1.26,1.23,1.26a3,3,0,0,0,.78-.1l.12.89a6.94,6.94,0,0,1-1.08.09C682.54,80.62,681.86,80.08,681.86,78.64Z"/><path class="cls-19" d="M429.8,98.56c0-2.79,1.8-4.09,3.46-4.09,1.83,0,3.22,1.41,3.22,4.11v.19h-5.65c0,1.94,1.12,3,2.59,3a3.3,3.3,0,0,0,2.53-1.17l.51.67a3.86,3.86,0,0,1-3.06,1.37C431.42,102.68,429.8,101.26,429.8,98.56Zm5.68-.6c-.11-1.5-.83-2.62-2.24-2.62-1.14,0-2.22.85-2.4,2.63Z"/><path class="cls-19" d="M438.41,102.52V94.63h.93l.1,1.25a4.27,4.27,0,0,1,3-1.41,2.11,2.11,0,0,1,2.38,2.32v5.73h-1V97c0-1.11-.48-1.67-1.59-1.67a4,4,0,0,0-2.75,1.38v5.8Z"/><path class="cls-19" d="M446.59,100.66c0-1.56,1.33-2.69,5.35-3.3V97a1.45,1.45,0,0,0-1.62-1.62,4.15,4.15,0,0,0-2.92,1.24l-.58-.65a4.93,4.93,0,0,1,3.58-1.47A2.27,2.27,0,0,1,453,97v5.53H452l-.1-1.12a4.59,4.59,0,0,1-3.12,1.26A2,2,0,0,1,446.59,100.66Zm5.35-.1V98.09c-3.48.6-4.33,1.42-4.33,2.44,0,.83.54,1.26,1.44,1.26A4.12,4.12,0,0,0,451.94,100.55Z"/><path class="cls-19" d="M456.27,101.44l0,1.08h-1v-11l1-.15v4.42a3.4,3.4,0,0,1,2.64-1.31c1.81,0,3.25,1.33,3.25,4.09s-1.46,4.09-3.29,4.09A3.56,3.56,0,0,1,456.27,101.44Zm4.86-2.86c0-2.17-1.08-3.23-2.4-3.23a3.4,3.4,0,0,0-2.46,1.29v3.87a3.41,3.41,0,0,0,2.49,1.27C460.08,101.78,461.13,100.81,461.13,98.57Z"/><path class="cls-19" d="M464.17,102.52v-11l1-.15v11.17Z"/><path class="cls-19" d="M467.16,98.56c0-2.79,1.8-4.09,3.46-4.09,1.83,0,3.23,1.41,3.23,4.11v.19h-5.66c0,1.94,1.13,3,2.59,3a3.3,3.3,0,0,0,2.54-1.17l.51.67a3.86,3.86,0,0,1-3.06,1.37C468.78,102.68,467.16,101.26,467.16,98.56Zm5.68-.6c-.1-1.5-.82-2.62-2.23-2.62-1.14,0-2.22.85-2.4,2.63Z"/><path class="cls-19" d="M475.28,101.26l.57-.63a3.21,3.21,0,0,0,2.53,1.19c1.35,0,2.06-.52,2.06-1.36s-.54-1.23-2.17-1.6c-1.91-.46-2.75-1-2.75-2.31,0-1.12,1-2.07,2.68-2.07a3.94,3.94,0,0,1,2.91,1.11l-.53.72a3.22,3.22,0,0,0-2.35-1c-1.2,0-1.71.56-1.71,1.17s.43,1.06,1.89,1.41c2.1.49,3,1,3,2.47s-1.29,2.28-3.08,2.28A3.82,3.82,0,0,1,475.28,101.26Z"/><path class="cls-19" d="M486.35,98.57c0-2.64,1.63-4.11,3.58-4.11s3.57,1.47,3.57,4.11-1.63,4.11-3.57,4.11S486.35,101.2,486.35,98.57Zm6.12,0c0-1.74-.87-3.23-2.53-3.23s-2.55,1.37-2.55,3.23.85,3.23,2.55,3.23S492.47,100.43,492.47,98.57Z"/><path class="cls-19" d="M495.42,102.52V94.63h.93l.1,1.25a4.27,4.27,0,0,1,3-1.41,2.11,2.11,0,0,1,2.38,2.32v5.73h-1V97c0-1.11-.48-1.67-1.59-1.67a4,4,0,0,0-2.75,1.38v5.8Z"/><path class="cls-19" d="M504.15,102.52v-11l1-.15v11.17Z"/><path class="cls-19" d="M507.46,92.23a.63.63,0,1,1,1.26,0,.63.63,0,1,1-1.26,0Zm.12,10.29V94.63h1v7.89Z"/><path class="cls-19" d="M511,102.52V94.63h.93l.1,1.25a4.27,4.27,0,0,1,3-1.41,2.11,2.11,0,0,1,2.38,2.32v5.73h-1V97c0-1.11-.48-1.67-1.59-1.67A4,4,0,0,0,512,96.71v5.8Z"/><path class="cls-19" d="M519.22,98.56c0-2.79,1.8-4.09,3.46-4.09,1.83,0,3.23,1.41,3.23,4.11v.19h-5.66c0,1.94,1.13,3,2.59,3a3.3,3.3,0,0,0,2.54-1.17l.51.67a3.86,3.86,0,0,1-3.06,1.37C520.84,102.68,519.22,101.26,519.22,98.56Zm5.68-.6c-.1-1.5-.82-2.62-2.23-2.62-1.14,0-2.22.85-2.4,2.63Z"/><path class="cls-19" d="M531.22,92.23a.63.63,0,1,1,1.26,0,.63.63,0,1,1-1.26,0Zm.12,10.29V94.63h1v7.89Z"/><path class="cls-19" d="M534.74,102.52V94.63h.93l.1,1.25a4.27,4.27,0,0,1,3-1.41,2.11,2.11,0,0,1,2.38,2.32v5.73h-1V97c0-1.11-.48-1.67-1.59-1.67a4,4,0,0,0-2.75,1.38v5.8Z"/><path class="cls-19" d="M543.88,100.64V95.5h-1.37v-.87h1.37V91.85l1-.15v2.92H547v.87h-2.06v5c0,.84.32,1.26,1.23,1.26a3,3,0,0,0,.78-.1l.12.89a6.94,6.94,0,0,1-1.08.09C544.55,102.62,543.88,102.08,543.88,100.64Z"/><path class="cls-19" d="M547.92,98.56c0-2.79,1.8-4.09,3.46-4.09,1.83,0,3.23,1.41,3.23,4.11v.19H549c0,1.94,1.13,3,2.59,3a3.3,3.3,0,0,0,2.54-1.17l.51.67a3.86,3.86,0,0,1-3.06,1.37C549.54,102.68,547.92,101.26,547.92,98.56Zm5.68-.6c-.1-1.5-.82-2.62-2.23-2.62-1.14,0-2.22.85-2.4,2.63Z"/><path class="cls-19" d="M556.53,102.52V94.63h.93l.11,1.54h0a3.46,3.46,0,0,1,3.1-1.71h.1l.09,1a3.12,3.12,0,0,0-.37,0,3.21,3.21,0,0,0-3,2v5.15Z"/><path class="cls-19" d="M561.9,100.66c0-1.56,1.33-2.69,5.35-3.3V97a1.45,1.45,0,0,0-1.62-1.62,4.16,4.16,0,0,0-2.92,1.24l-.58-.65a4.93,4.93,0,0,1,3.58-1.47A2.27,2.27,0,0,1,568.28,97v5.53h-.92l-.11-1.12a4.59,4.59,0,0,1-3.12,1.26A2,2,0,0,1,561.9,100.66Zm5.35-.1V98.09c-3.48.6-4.33,1.42-4.33,2.44,0,.83.54,1.26,1.44,1.26A4.12,4.12,0,0,0,567.26,100.55Z"/><path class="cls-19" d="M570.12,98.57c0-2.83,1.75-4.11,3.52-4.11a3.1,3.1,0,0,1,2.91,1.88l-.81.5a2.19,2.19,0,0,0-2.13-1.5c-1.17,0-2.46.88-2.46,3.24,0,2,1,3.24,2.44,3.24a2.32,2.32,0,0,0,2.21-1.54l.76.5a3.2,3.2,0,0,1-3,1.92C571.73,102.68,570.12,101.2,570.12,98.57Z"/><path class="cls-19" d="M579,100.64V95.5h-1.37v-.87H579V91.85l1-.15v2.92h2.06v.87H580v5c0,.84.32,1.26,1.23,1.26a3,3,0,0,0,.78-.1l.12.89a6.94,6.94,0,0,1-1.08.09C579.69,102.62,579,102.08,579,100.64Z"/><path class="cls-19" d="M583.72,92.23a.63.63,0,1,1,1.26,0,.63.63,0,1,1-1.26,0Zm.12,10.29V94.63h1v7.89Z"/><path class="cls-19" d="M586.78,98.57c0-2.64,1.63-4.11,3.58-4.11s3.57,1.47,3.57,4.11-1.63,4.11-3.57,4.11S586.78,101.2,586.78,98.57Zm6.12,0c0-1.74-.87-3.23-2.53-3.23s-2.55,1.37-2.55,3.23.85,3.23,2.55,3.23S592.9,100.43,592.9,98.57Z"/><path class="cls-19" d="M595.85,102.52V94.63h.93l.1,1.25a4.27,4.27,0,0,1,3-1.41,2.11,2.11,0,0,1,2.38,2.32v5.73h-1V97c0-1.11-.48-1.67-1.59-1.67a4,4,0,0,0-2.75,1.38v5.8Z"/><path class="cls-19" d="M609.59,102.52l-2.4-7.8,1-.19,1.13,4c.29,1,.47,1.67.74,2.68h0c.29-1.12.43-1.68.72-2.68l1.08-3.9h.95l1.09,4c.29,1,.43,1.58.71,2.61h0c.27-1,.42-1.62.71-2.58l1.17-4h1l-2.43,7.89h-1L612.38,96h0l-1.81,6.49Z"/><path class="cls-19" d="M619,92.23a.63.63,0,1,1,1.26,0,.63.63,0,1,1-1.26,0Zm.12,10.29V94.63h1v7.89Z"/><path class="cls-19" d="M623.08,100.64V95.5h-1.37v-.87h1.37V91.85l1-.15v2.92h2.05v.87h-2.05v5c0,.84.31,1.26,1.23,1.26a3,3,0,0,0,.78-.1l.12.89a7,7,0,0,1-1.08.09C623.76,102.62,623.08,102.08,623.08,100.64Z"/><path class="cls-19" d="M627.86,102.52v-11l1-.15v4.53a4.27,4.27,0,0,1,3-1.41,2.11,2.11,0,0,1,2.38,2.32v5.73h-1V97c0-1.11-.48-1.65-1.59-1.65a4,4,0,0,0-2.75,1.38v5.79Z"/><path class="cls-19" d="M639.42,101.26l.57-.63a3.21,3.21,0,0,0,2.53,1.19c1.35,0,2.06-.52,2.06-1.36s-.54-1.23-2.17-1.6c-1.91-.46-2.75-1-2.75-2.31,0-1.12,1-2.07,2.68-2.07a3.94,3.94,0,0,1,2.91,1.11l-.53.72a3.22,3.22,0,0,0-2.35-1c-1.2,0-1.71.56-1.71,1.17s.43,1.06,1.89,1.41c2.1.49,3,1,3,2.47s-1.29,2.28-3.08,2.28A3.82,3.82,0,0,1,639.42,101.26Z"/><path class="cls-19" d="M647.36,100.36V94.63h1v5.52c0,1.11.46,1.65,1.58,1.65a4.11,4.11,0,0,0,2.76-1.38V94.63h1v7.89h-.93l-.1-1.25a4.4,4.4,0,0,1-3,1.41A2.11,2.11,0,0,1,647.36,100.36Z"/><path class="cls-19" d="M656.09,105.59v-11H657l.11,1.11a3.47,3.47,0,0,1,2.64-1.27c1.82,0,3.25,1.33,3.25,4.09s-1.46,4.09-3.29,4.09a3.56,3.56,0,0,1-2.61-1.21v4Zm5.89-7c0-2.17-1.08-3.23-2.4-3.23a3.4,3.4,0,0,0-2.46,1.29v3.87a3.41,3.41,0,0,0,2.49,1.27C660.94,101.78,662,100.84,662,98.57Z"/><path class="cls-19" d="M665,105.59v-11h.93l.11,1.11a3.47,3.47,0,0,1,2.64-1.27c1.82,0,3.25,1.33,3.25,4.09s-1.46,4.09-3.29,4.09a3.56,3.56,0,0,1-2.61-1.21v4Zm5.89-7c0-2.17-1.08-3.23-2.4-3.23A3.4,3.4,0,0,0,666,96.64v3.87a3.41,3.41,0,0,0,2.49,1.27C669.81,101.78,670.86,100.84,670.86,98.57Z"/><path class="cls-19" d="M673.9,102.52v-11l1-.15v11.17Z"/><path class="cls-19" d="M677.21,92.23a.63.63,0,1,1,1.26,0,.63.63,0,1,1-1.26,0Zm.12,10.29V94.63h1v7.89Z"/><path class="cls-19" d="M680.28,98.56c0-2.79,1.8-4.09,3.46-4.09,1.83,0,3.23,1.41,3.23,4.11v.19h-5.66c0,1.94,1.13,3,2.59,3a3.3,3.3,0,0,0,2.54-1.17l.51.67a3.86,3.86,0,0,1-3.06,1.37C681.9,102.68,680.28,101.26,680.28,98.56ZM686,98c-.1-1.5-.82-2.62-2.23-2.62-1.14,0-2.22.85-2.4,2.63Z"/><path class="cls-19" d="M688.88,102.52V94.63h.93l.11,1.54h0a3.46,3.46,0,0,1,3.1-1.71h.1l.09,1a3.12,3.12,0,0,0-.37,0,3.21,3.21,0,0,0-3,2v5.15Z"/><path class="cls-19" d="M694.25,101.26l.57-.63a3.21,3.21,0,0,0,2.53,1.19c1.35,0,2.06-.52,2.06-1.36s-.54-1.23-2.17-1.6c-1.91-.46-2.75-1-2.75-2.31,0-1.12,1-2.07,2.68-2.07a3.94,3.94,0,0,1,2.91,1.11l-.53.72a3.22,3.22,0,0,0-2.35-1c-1.2,0-1.71.56-1.71,1.17s.43,1.06,1.89,1.41c2.1.49,3,1,3,2.47s-1.29,2.28-3.08,2.28A3.82,3.82,0,0,1,694.25,101.26Z"/><path class="cls-19" d="M702.36,101.8a.69.69,0,0,1,.74-.77.7.7,0,0,1,.74.77.72.72,0,0,1-.74.79A.71.71,0,0,1,702.36,101.8Z"/><path class="cls-19" d="M429.5,46.42,434.22,33h2.2l4.66,13.2-2.18.36-1.13-3.35h-5.06l-1.12,3.17Zm3.87-5.15h3.75l-1.84-5.4h0Z"/><path class="cls-19" d="M442,41.7c0-3.31,1.62-5,3.82-5a3.71,3.71,0,0,1,3,1.28v-4.7l2.21-.32V46.42h-2l-.18-1.26a3.71,3.71,0,0,1-3,1.4C443.58,46.56,442,45,442,41.7Zm6.82,1.85V39.67a3.22,3.22,0,0,0-2.36-1.15c-1.35,0-2.25,1-2.25,3.17,0,2,.86,3.06,2.29,3.06A3.27,3.27,0,0,0,448.81,43.56Z"/><path class="cls-19" d="M459.8,45.12a3.89,3.89,0,0,1-3,1.44c-2.18,0-3.78-1.55-3.78-4.86s1.62-5,3.82-5a3.74,3.74,0,0,1,3,1.26l.18-1.06h2v13l-2.21.32Zm0-1.57V39.67a3.22,3.22,0,0,0-2.36-1.15c-1.35,0-2.25,1-2.25,3.17,0,2,.86,3.06,2.29,3.06A3.27,3.27,0,0,0,459.8,43.56Z"/><path class="cls-19" d="M464.35,43.83v-7h2.21v6.36c0,1,.41,1.51,1.44,1.51a3.89,3.89,0,0,0,2.59-1.26V36.88h2.21v9.54h-2l-.18-1.33a4.64,4.64,0,0,1-3.42,1.53A2.53,2.53,0,0,1,464.35,43.83Z"/><path class="cls-19" d="M475.08,34.28a1.14,1.14,0,0,1,1.26-1.17,1.18,1.18,0,1,1,0,2.34A1.14,1.14,0,0,1,475.08,34.28Zm.18,12.14V36.88h2.2v9.54Z"/><path class="cls-19" d="M479.89,46.42V36.88h2l.18,1.55h0a3.74,3.74,0,0,1,3.37-1.75h.09l.2,2a3.13,3.13,0,0,0-.58,0,3.42,3.42,0,0,0-3.1,1.69v6Z"/><path class="cls-19" d="M486.75,44.06c0-2.11,1.76-3.4,6.23-3.91v-.29c0-.88-.52-1.37-1.66-1.37a4.67,4.67,0,0,0-3.08,1.28L487,38.42a6.32,6.32,0,0,1,4.57-1.75c2.47,0,3.53,1.22,3.53,3.46v6.28h-2L493,45.19a4.68,4.68,0,0,1-3.51,1.37A2.47,2.47,0,0,1,486.75,44.06Zm6.23-.31V41.65c-3.08.43-4.07,1.1-4.07,2.05,0,.76.52,1.15,1.35,1.15A3.71,3.71,0,0,0,493,43.75Z"/><path class="cls-19" d="M25.66,38.78c0-4.18,2.34-6.86,5.83-6.86a5.26,5.26,0,0,1,5,3.15l-1.93,1a3.08,3.08,0,0,0-3-2.12c-1.66,0-3.66,1.13-3.66,4.74s1.78,5,3.67,5a3,3,0,0,0,3.13-3H32.2l-.32-1.82h5V45.5H35V44h0a4,4,0,0,1-3.67,1.75C27.55,45.75,25.66,42.78,25.66,38.78Z"/><path class="cls-19" d="M39.45,45.5V32.34l2.2-.32V45.5Z"/><path class="cls-19" d="M43.58,40.73c0-3.51,2.32-5,4.66-5s4.65,1.46,4.65,5-2.32,5-4.65,5S43.58,44.22,43.58,40.73Zm7.11,0c0-1.76-.77-3.1-2.45-3.1s-2.45,1.21-2.45,3.1.74,3.1,2.45,3.1S50.69,42.56,50.69,40.75Z"/><path class="cls-19" d="M57,44.45l-.14,1H54.79V32.34L57,32v5.22a3.68,3.68,0,0,1,3-1.48c2.18,0,3.78,1.64,3.78,5S62.2,45.64,60,45.64A3.84,3.84,0,0,1,57,44.45Zm4.61-3.73c0-2-.86-3.08-2.29-3.08A3.27,3.27,0,0,0,57,38.84v3.91a3.22,3.22,0,0,0,2.36,1.15C60.73,43.9,61.61,42.83,61.61,40.73Z"/><path class="cls-19" d="M65.09,43.14c0-2.11,1.76-3.4,6.23-3.91v-.29c0-.88-.52-1.37-1.66-1.37a4.67,4.67,0,0,0-3.08,1.28L65.38,37.5A6.32,6.32,0,0,1,70,35.76c2.47,0,3.53,1.22,3.53,3.46V45.5h-2l-.18-1.22a4.68,4.68,0,0,1-3.51,1.37A2.47,2.47,0,0,1,65.09,43.14Zm6.23-.31V40.73c-3.08.43-4.07,1.1-4.07,2.05,0,.76.52,1.15,1.35,1.15A3.71,3.71,0,0,0,71.32,42.83Z"/><path class="cls-19" d="M75.87,45.5V32.34l2.2-.32V45.5Z"/><path class="cls-19" d="M85.44,45.5V32.17h4.66c2.86,0,5.11.94,5.11,4.09S92.77,40.44,90,40.44H87.68V45.5Zm2.23-7h2.47c2,0,2.88-.67,2.88-2.16s-.88-2.09-2.9-2.09H87.68Z"/><path class="cls-19" d="M96.91,45.5V36h2l.18,1.55h0a3.74,3.74,0,0,1,3.37-1.75h.09l.2,2a3.08,3.08,0,0,0-.58,0,3.42,3.42,0,0,0-3.1,1.69v6Z"/><path class="cls-19" d="M103.63,40.73c0-3.51,2.32-5,4.66-5s4.65,1.46,4.65,5-2.32,5-4.65,5S103.63,44.22,103.63,40.73Zm7.11,0c0-1.76-.77-3.1-2.45-3.1s-2.45,1.21-2.45,3.1.74,3.1,2.45,3.1S110.74,42.56,110.74,40.75Z"/><path class="cls-19" d="M114.33,40.73c0-3.66,2.47-5,4.59-5a4.09,4.09,0,0,1,3.87,2.41l-1.64,1a2.26,2.26,0,0,0-2.23-1.62c-1.3,0-2.38,1-2.38,3.15,0,1.91.85,3.17,2.38,3.17a2.55,2.55,0,0,0,2.38-1.78l1.64,1a4.33,4.33,0,0,1-4.14,2.54C116.58,45.7,114.33,44.22,114.33,40.73Z"/><path class="cls-19" d="M124.47,42.91V36h2.21v6.36c0,1,.41,1.51,1.44,1.51a3.89,3.89,0,0,0,2.59-1.26V36h2.21V45.5h-2l-.18-1.33a4.64,4.64,0,0,1-3.42,1.53A2.53,2.53,0,0,1,124.47,42.91Z"/><path class="cls-19" d="M135.33,45.5V36h2l.18,1.55h0a3.74,3.74,0,0,1,3.37-1.75H141l.2,2a3.09,3.09,0,0,0-.58,0,3.42,3.42,0,0,0-3.1,1.69v6Z"/><path class="cls-19" d="M142,40.73a4.57,4.57,0,0,1,4.55-5c2.07,0,4.2,1.28,4.2,5.17v.52h-6.54a2.4,2.4,0,0,0,2.59,2.48,4.22,4.22,0,0,0,3-1.22l.88,1.46a5.4,5.4,0,0,1-4,1.53C144.26,45.7,142,44.24,142,40.73Zm6.72-.92c-.11-1.4-.85-2.25-2.18-2.25a2.33,2.33,0,0,0-2.3,2.25Z"/><path class="cls-19" d="M152.71,45.5V36h2l.18,1.35a4.32,4.32,0,0,1,3.28-1.55c1.6,0,2.38.61,2.63,1.55a4.61,4.61,0,0,1,3.33-1.55A2.56,2.56,0,0,1,167,38.64V45.5h-2.21V39.2c0-1-.31-1.55-1.35-1.55a3.63,3.63,0,0,0-2.45,1.24V45.5h-2.21V39.2c0-1-.31-1.55-1.35-1.55a3.67,3.67,0,0,0-2.45,1.24V45.5Z"/><path class="cls-19" d="M168.8,40.73a4.57,4.57,0,0,1,4.55-5c2.07,0,4.2,1.28,4.2,5.17v.52H171a2.4,2.4,0,0,0,2.59,2.48,4.22,4.22,0,0,0,3-1.22l.88,1.46a5.4,5.4,0,0,1-4,1.53C171,45.7,168.8,44.24,168.8,40.73Zm6.72-.92c-.11-1.4-.85-2.25-2.18-2.25a2.33,2.33,0,0,0-2.3,2.25Z"/><path class="cls-19" d="M179.47,45.5V36h2l.18,1.35a4.54,4.54,0,0,1,3.44-1.55,2.52,2.52,0,0,1,2.81,2.79v7h-2.2V39.2c0-1.06-.43-1.6-1.46-1.6a3.87,3.87,0,0,0-2.59,1.24V45.5Z"/><path class="cls-19" d="M191,42.87V37.7h-1.62V36H191V32.77l2.2-.32V36h2.47V37.7h-2.47v4.83c0,1,.43,1.35,1.33,1.35a3.8,3.8,0,0,0,1-.14l.18,1.75a12.48,12.48,0,0,1-1.75.14C191.87,45.62,191,44.94,191,42.87Z"/><path class="cls-19" d="M25.45,65.48l1.21-1.71a6.44,6.44,0,0,0,4.34,2c1.67,0,2.81-.58,2.81-1.73s-.85-1.71-3-2.38c-2.58-.76-4.63-1.44-4.63-4,0-2.25,1.87-3.75,4.54-3.75a7.76,7.76,0,0,1,5,1.91l-1.06,1.8A6.15,6.15,0,0,0,30.71,56c-1.51,0-2.38.67-2.38,1.53,0,1.24,1,1.67,3.13,2.32C34,60.55,36,61.36,36,63.88c0,2.16-1.76,3.87-4.93,3.87A8,8,0,0,1,25.45,65.48Z"/><path class="cls-19" d="M36.92,71l-.16-1.85a5.92,5.92,0,0,0,1.57.2,1.45,1.45,0,0,0,1.53-1.1l.27-.7-3.6-9.44,2.18-.34,2.5,7.13h0l2.47-7h2.18L41.83,68.54c-.65,1.67-1.46,2.61-3.35,2.61A6.63,6.63,0,0,1,36.92,71Z"/><path class="cls-19" d="M46.44,66.18l.85-1.49A5.22,5.22,0,0,0,50.58,66c1.19,0,1.91-.38,1.91-1s-.56-1-2.14-1.37c-2-.41-3.57-1-3.57-3,0-1.69,1.41-2.81,3.51-2.81A6.24,6.24,0,0,1,54.16,59l-.77,1.57a5.05,5.05,0,0,0-2.93-1c-1.08,0-1.6.4-1.6,1s.52.92,1.94,1.22c2.14.43,3.78.94,3.78,3s-1.82,3-4,3A6.11,6.11,0,0,1,46.44,66.18Z"/><path class="cls-19" d="M57.18,64.87V59.7H55.56V58h1.62V54.77l2.2-.32V58h2.47V59.7H59.37v4.83c0,1,.43,1.35,1.33,1.35a3.8,3.8,0,0,0,1-.14l.18,1.75a12.48,12.48,0,0,1-1.75.14C58.09,67.62,57.18,66.94,57.18,64.87Z"/><path class="cls-19" d="M62.83,62.73a4.58,4.58,0,0,1,4.56-5c2.07,0,4.2,1.28,4.2,5.17v.52H65a2.4,2.4,0,0,0,2.59,2.48,4.22,4.22,0,0,0,3-1.22l.88,1.46a5.4,5.4,0,0,1-4,1.53C65,67.7,62.83,66.24,62.83,62.73Zm6.72-.92c-.11-1.4-.85-2.25-2.18-2.25a2.33,2.33,0,0,0-2.3,2.25Z"/><path class="cls-19" d="M73.5,67.5V58h2l.18,1.35A4.32,4.32,0,0,1,79,57.76c1.6,0,2.38.61,2.63,1.55a4.61,4.61,0,0,1,3.33-1.55,2.56,2.56,0,0,1,2.79,2.88V67.5H85.52V61.2c0-1-.31-1.55-1.35-1.55a3.63,3.63,0,0,0-2.45,1.24V67.5H79.51V61.2c0-1-.31-1.55-1.35-1.55a3.67,3.67,0,0,0-2.45,1.24V67.5Z"/><path class="cls-19" d="M98.9,71.19C96,68.72,94.34,66,94.34,62.46S96,56.19,98.9,53.72l1,1.08A10.68,10.68,0,0,0,100,70.16Z"/><path class="cls-19" d="M100.5,60.78c0-4.18,2.34-6.86,5.83-6.86a5.26,5.26,0,0,1,5,3.15l-1.93,1a3.08,3.08,0,0,0-3-2.12c-1.66,0-3.66,1.13-3.66,4.74s1.78,5,3.67,5a3,3,0,0,0,3.13-3H107l-.32-1.82h5V67.5h-1.85V66h0a4,4,0,0,1-3.67,1.75C102.4,67.75,100.5,64.78,100.5,60.78Z"/><path class="cls-19" d="M114.44,67.5V54.17h4.66c2.86,0,5.11.94,5.11,4.09s-2.45,4.18-5.19,4.18h-2.36V67.5Zm2.23-7h2.47c2,0,2.88-.67,2.88-2.16s-.88-2.09-2.9-2.09h-2.45Z"/><path class="cls-19" d="M125.34,65.48l1.21-1.71a6.44,6.44,0,0,0,4.34,2c1.67,0,2.81-.58,2.81-1.73s-.85-1.71-3-2.38c-2.58-.76-4.63-1.44-4.63-4,0-2.25,1.87-3.75,4.54-3.75a7.76,7.76,0,0,1,5,1.91l-1.06,1.8A6.15,6.15,0,0,0,130.6,56c-1.51,0-2.38.67-2.38,1.53,0,1.24,1,1.67,3.13,2.32,2.52.74,4.54,1.55,4.54,4.07,0,2.16-1.76,3.87-4.93,3.87A8,8,0,0,1,125.34,65.48Z"/><path class="cls-19" d="M137,70.16a10.68,10.68,0,0,0,0-15.36l1-1.08c2.93,2.47,4.55,5.2,4.55,8.73S141,68.72,138,71.19Z"/><path class="cls-19" d="M87.21,228.17l0-11.1,7.56,0v2l-5.12,0v2.38h4l.35,1.94-4.33,0v2.76l5.38,0v2Z"/><path class="cls-19" d="M96.48,228.2l0-10.92,2.4-.35,0,11.28Z"/><path class="cls-19" d="M100.29,224.23a3.93,3.93,0,0,1,4-4.16c1.65,0,3.67.84,3.66,4.47v.36l-5.29,0a1.74,1.74,0,0,0,1.85,1.84,3.8,3.8,0,0,0,2.4-.89l.89,1.38a5.16,5.16,0,0,1-3.48,1.19C102.27,228.39,100.28,227.32,100.29,224.23Zm5.54-.76c-.12-1.12-.62-1.67-1.52-1.67-.75,0-1.4.49-1.58,1.66Z"/><path class="cls-19" d="M109,224.26a3.83,3.83,0,0,1,4.05-4.16,3.59,3.59,0,0,1,3.43,2.13l-1.76.89a1.68,1.68,0,0,0-1.67-1.25c-1,0-1.62.82-1.63,2.41,0,1.42.44,2.45,1.63,2.45a2,2,0,0,0,1.84-1.43l1.78.89a3.89,3.89,0,0,1-3.74,2.24C111,228.42,108.95,227.37,109,224.26Z"/><path class="cls-19" d="M118.52,225.89V222H117.2v-1.75h1.33v-2.57l2.4-.35v2.92H123v1.75h-2.05v3.57c0,.85.4,1,1,1a2.76,2.76,0,0,0,.83-.13l.16,1.76a12.77,12.77,0,0,1-1.71.13C119.35,228.4,118.51,227.81,118.52,225.89Z"/><path class="cls-19" d="M124.33,228.31l0-8h2.23l.17,1.33h0a2.94,2.94,0,0,1,2.59-1.49h.06l.22,2.15a3.51,3.51,0,0,0-.55,0,2.73,2.73,0,0,0-2.33,1.07l0,5Z"/><path class="cls-19" d="M130.25,224.34a4.09,4.09,0,1,1,4.08,4.17A3.82,3.82,0,0,1,130.25,224.34Zm5.76,0c0-1.33-.46-2.42-1.66-2.42s-1.68,1-1.69,2.41.44,2.45,1.67,2.45S136,225.83,136,224.38Z"/><path class="cls-19" d="M139.8,228.37l0-8h2.23l.17,1.26a3.42,3.42,0,0,1,2.77-1.42,2.1,2.1,0,0,1,2.32,2.33l0,5.83h-2.4l0-5.07c0-.72-.27-1.1-.94-1.1a2.69,2.69,0,0,0-1.74.79l0,5.37Z"/><path class="cls-19" d="M149,218.41a1.21,1.21,0,0,1,1.36-1.21,1.22,1.22,0,1,1-1.36,1.21Zm.13,10,0-8h2.4l0,8Z"/><path class="cls-19" d="M152.87,224.43a3.83,3.83,0,0,1,4.05-4.15,3.59,3.59,0,0,1,3.43,2.13l-1.76.89a1.68,1.68,0,0,0-1.68-1.25c-1,0-1.62.82-1.63,2.41,0,1.42.44,2.45,1.63,2.45a2,2,0,0,0,1.83-1.43l1.78.89a3.89,3.89,0,0,1-3.74,2.24C154.91,228.59,152.86,227.53,152.87,224.43Z"/><path class="cls-19" d="M165.23,224.48a3.83,3.83,0,0,1,4.05-4.16,3.59,3.59,0,0,1,3.43,2.13l-1.76.89a1.68,1.68,0,0,0-1.67-1.25c-1,0-1.62.82-1.63,2.41,0,1.42.44,2.45,1.63,2.45a2,2,0,0,0,1.84-1.43l1.78.89a3.89,3.89,0,0,1-3.74,2.24C167.27,228.64,165.22,227.58,165.23,224.48Z"/><path class="cls-19" d="M173.63,226.46c0-1.84,1.57-2.86,5.08-3.13v-.19c0-.58-.33-1-1.2-1a3.75,3.75,0,0,0-2.33.94l-1.3-1.31a5.52,5.52,0,0,1,4-1.44c2.28,0,3.21,1.09,3.2,3.15l0,5h-2.17l-.18-1.17a3.53,3.53,0,0,1-2.79,1.28A2.13,2.13,0,0,1,173.63,226.46Zm5.07-.33v-1.49c-1.91.19-2.72.67-2.72,1.4,0,.51.36.77.88.77A2.47,2.47,0,0,0,178.7,226.13Z"/><path class="cls-19" d="M183.35,226.14V222.3H182v-1.75h1.33V218l2.4-.35v2.92h2.05v1.75h-2.05v3.57c0,.86.4,1,1,1a2.79,2.79,0,0,0,.83-.13l.16,1.76a13,13,0,0,1-1.71.13C184.18,228.64,183.34,228.06,183.35,226.14Z"/><path class="cls-19" d="M188.55,226.51c0-1.84,1.57-2.86,5.08-3.13v-.2c0-.58-.33-1-1.2-1a3.75,3.75,0,0,0-2.33.94l-1.3-1.31a5.53,5.53,0,0,1,4-1.44c2.28,0,3.21,1.09,3.2,3.15l0,5h-2.17l-.18-1.17a3.53,3.53,0,0,1-2.79,1.28A2.13,2.13,0,0,1,188.55,226.51Zm5.07-.33v-1.48c-1.91.19-2.72.66-2.72,1.4,0,.51.36.77.88.77A2.47,2.47,0,0,0,193.62,226.19Z"/><path class="cls-19" d="M197.76,228.59l0-10.92,2.4-.35,0,11.28Z"/><path class="cls-19" d="M201.6,224.62a4.09,4.09,0,1,1,4.08,4.17A3.82,3.82,0,0,1,201.6,224.62Zm5.76,0c0-1.33-.46-2.42-1.66-2.42s-1.68,1-1.69,2.41.44,2.45,1.67,2.45S207.36,226.11,207.36,224.65Z"/><path class="cls-19" d="M210.07,229.84a1.88,1.88,0,0,1,1.39-1.6,1.09,1.09,0,0,1-.54-1,2.14,2.14,0,0,1,1.16-1.63,2.57,2.57,0,0,1-1.31-2.3c0-1.6,1.3-2.86,3.61-2.85a3.92,3.92,0,0,1,2.68.88,3.59,3.59,0,0,1,1.91-.82l.29,1.85a5.81,5.81,0,0,0-1.5.17,2,2,0,0,1,.15.79c0,1.62-1.26,2.85-3.55,2.84a6.09,6.09,0,0,1-1.23-.14c-.17.13-.27.25-.27.4s.31.36.9.39l1.2.08c2.74.12,3.85.78,3.85,2.28,0,1.65-1.94,2.44-4.6,2.43C211.08,231.64,210.06,231,210.07,229.84Zm6.62-.21c0-.5-.24-.72-2.13-.82l-1.26-.07-.52,0a.87.87,0,0,0-.45.72c0,.69.64,1,2.28,1C215.83,230.44,216.68,230.15,216.68,229.62Zm-.92-6.17a1.37,1.37,0,1,0-2.73,0,1.37,1.37,0,1,0,2.73,0Z"/><path class="cls-19" d="M224.31,231.87l0-11.17h2.23l.18,1.21a3,3,0,0,1,2.46-1.37c1.81,0,3.07,1.41,3.06,4.17s-1.29,4.12-3.12,4.11a3,3,0,0,1-2.43-1.07v3.76Zm5.56-7.15c0-1.33-.46-2.18-1.54-2.18a2.34,2.34,0,0,0-1.58.77v3a2.17,2.17,0,0,0,1.6.74C229.35,227,229.87,226.18,229.87,224.72Z"/><path class="cls-19" d="M233.71,228.73l0-8H236l.17,1.34h0a2.94,2.94,0,0,1,2.59-1.49h.06l.22,2.15a3.41,3.41,0,0,0-.56,0,2.73,2.73,0,0,0-2.33,1.07l0,5Z"/><path class="cls-19" d="M239.63,224.76a4.09,4.09,0,1,1,4.08,4.17A3.82,3.82,0,0,1,239.63,224.76Zm5.76,0c0-1.33-.46-2.42-1.66-2.42s-1.68,1-1.69,2.41.44,2.45,1.67,2.45S245.38,226.25,245.38,224.8Z"/><path class="cls-19" d="M248.75,224.79a3.83,3.83,0,0,1,4.05-4.15,3.59,3.59,0,0,1,3.43,2.13l-1.76.89a1.68,1.68,0,0,0-1.68-1.25c-1,0-1.62.82-1.63,2.41,0,1.42.44,2.45,1.63,2.45a2,2,0,0,0,1.83-1.43l1.78.89a3.89,3.89,0,0,1-3.74,2.24C250.79,229,248.73,227.9,248.75,224.79Z"/><path class="cls-19" d="M257.41,226.66l0-5.83h2.42l0,5.13c0,.72.27,1.11.94,1.11a2.72,2.72,0,0,0,1.74-.8l0-5.43h2.42l0,8h-2.23l-.17-1.25a3.45,3.45,0,0,1-2.77,1.4A2.1,2.1,0,0,1,257.41,226.66Z"/><path class="cls-19" d="M266.72,228.85l0-8H269l.17,1.33h0a2.94,2.94,0,0,1,2.59-1.49h.06l.22,2.15a3.5,3.5,0,0,0-.55,0,2.73,2.73,0,0,0-2.33,1.07l0,5Z"/><path class="cls-19" d="M272.62,224.89a3.93,3.93,0,0,1,4-4.15c1.65,0,3.67.84,3.66,4.47v.36l-5.29,0a1.74,1.74,0,0,0,1.85,1.84,3.79,3.79,0,0,0,2.4-.89l.89,1.38a5.16,5.16,0,0,1-3.48,1.19C274.6,229,272.61,228,272.62,224.89Zm5.54-.76c-.12-1.12-.62-1.67-1.52-1.67s-1.4.49-1.58,1.66Z"/><path class="cls-19" d="M281.7,228.91l0-8H284l.18,1.26a3.36,3.36,0,0,1,2.63-1.42c1.33,0,2,.56,2.18,1.43a3.43,3.43,0,0,1,2.65-1.42,2.17,2.17,0,0,1,2.33,2.45l0,5.71h-2.42l0-5.07c0-.72-.16-1.1-.87-1.1a2.45,2.45,0,0,0-1.61.79l0,5.37H286.6l0-5.07c0-.72-.16-1.1-.87-1.1a2.52,2.52,0,0,0-1.62.79l0,5.37Z"/><path class="cls-19" d="M295.26,225a3.93,3.93,0,0,1,4-4.15c1.65,0,3.67.84,3.66,4.47v.36l-5.29,0a1.74,1.74,0,0,0,1.85,1.84,3.8,3.8,0,0,0,2.4-.89l.89,1.38a5.16,5.16,0,0,1-3.48,1.19C297.24,229.14,295.25,228.06,295.26,225Zm5.54-.76c-.12-1.12-.62-1.67-1.52-1.67s-1.4.49-1.58,1.66Z"/><path class="cls-19" d="M304.34,229l0-8h2.24l.17,1.26a3.42,3.42,0,0,1,2.77-1.41,2.09,2.09,0,0,1,2.32,2.33l0,5.83h-2.4l0-5.07c0-.72-.27-1.1-.94-1.1a2.7,2.7,0,0,0-1.74.79l0,5.37Z"/><path class="cls-19" d="M314.18,226.63v-3.84h-1.33V221h1.33v-2.56l2.4-.35V221h2.05v1.75h-2.05v3.57c0,.86.4,1,1,1a2.79,2.79,0,0,0,.83-.13l.16,1.76a13,13,0,0,1-1.71.13C315,229.14,314.17,228.55,314.18,226.63Z"/><path class="cls-19" d="M83.52,247.75v-3.84H82.2v-1.75h1.33v-2.56l2.4-.35v2.92H88v1.75H85.93v3.57c0,.86.4,1,1,1a2.79,2.79,0,0,0,.83-.13l.16,1.76a13,13,0,0,1-1.71.13C84.35,250.26,83.51,249.67,83.52,247.75Z"/><path class="cls-19" d="M88.71,246.18a4.09,4.09,0,1,1,4.08,4.17A3.82,3.82,0,0,1,88.71,246.18Zm5.76,0c0-1.33-.46-2.42-1.66-2.42s-1.68,1-1.69,2.41.44,2.45,1.67,2.45S94.46,247.68,94.47,246.22Z"/><path class="cls-19" d="M97.83,246.22a4.09,4.09,0,1,1,4.08,4.17A3.82,3.82,0,0,1,97.83,246.22Zm5.76,0c0-1.33-.46-2.42-1.66-2.42s-1.68,1-1.69,2.41.44,2.45,1.67,2.45S103.58,247.71,103.59,246.26Z"/><path class="cls-19" d="M107.41,250.25l0-10.92,2.4-.35,0,11.28Z"/><path class="cls-19" d="M115.86,246v-.9h3.38v.9Z"/><path class="cls-19" d="M120.27,248.73l.62-.79a5.33,5.33,0,0,0,3.79,1.62c1.71,0,2.81-.75,2.81-2s-.56-1.76-2.92-2.5-3.59-1.41-3.59-3.24c0-1.59,1.44-2.84,3.46-2.84a5.66,5.66,0,0,1,3.94,1.59l-.54.84a4.92,4.92,0,0,0-3.4-1.47c-1.5,0-2.4.82-2.41,1.81,0,1.25.74,1.68,3.07,2.43s3.44,1.51,3.44,3.33-1.63,3-3.85,3A6,6,0,0,1,120.27,248.73Z"/><path class="cls-19" d="M130.68,250.33l0-11.1h3.72c2.46,0,3.84,1.06,3.83,3a2.83,2.83,0,0,1-2.65,3l2.82,5-1.1.17-2.83-5.08h-2.76l0,5Zm1.07-5.92h2.59c1.83,0,2.87-.53,2.87-2.12s-1-2.07-2.87-2.08h-2.58Z"/><path class="cls-19" d="M140.56,250.37l0-11.1H142l3.68,9.73h0l3.74-9.71h1.39l0,11.1h-1.07l0-9.31h0c-.15.51-.42,1.24-.7,1.95l-2.91,7.35h-1L142.3,243c-.27-.71-.45-1.17-.68-2h0l0,9.33Z"/><path class="cls-19" d="M153.27,246.16v-.9h3.38v.9Z"/><path class="cls-19" d="M165.68,253.54c-2.44-2.06-3.72-4.33-3.71-7.18s1.31-5.11,3.76-7.16l.46.53a8.75,8.75,0,0,0,0,13.3Z"/><path class="cls-19" d="M168,240.19a.63.63,0,1,1,1.26,0,.63.63,0,1,1-1.26,0Zm.08,10.29,0-7.89h1l0,7.89Z"/><path class="cls-19" d="M172,248.62l0-5.14h-1.37v-.87H172v-2.78l1-.15v2.92h2.05v.87H173l0,5c0,.84.31,1.26,1.23,1.26a3,3,0,0,0,.78-.1l.12.89a7,7,0,0,1-1.08.09C172.65,250.6,172,250.06,172,248.62Z"/><path class="cls-19" d="M180.87,250.53l0-7h-1.37v-.87h1.37v-1.2c0-1.33.77-2,2.29-2l.54,0,.1.86a3.71,3.71,0,0,0-.58,0c-.75,0-1.31.28-1.31,1.13v1.23h1.74v.87h-1.74l0,7Z"/><path class="cls-19" d="M184.49,246.59c0-2.64,1.65-4.1,3.6-4.1s3.56,1.48,3.55,4.12-1.65,4.1-3.58,4.1S184.47,249.22,184.49,246.59Zm6.12,0c0-1.74-.86-3.23-2.52-3.23s-2.55,1.36-2.56,3.21.84,3.23,2.54,3.23S190.6,248.48,190.6,246.62Z"/><path class="cls-19" d="M193.54,250.57l0-7.89h.93l.1,1.54h0a3.46,3.46,0,0,1,3.11-1.7h.1l.09,1a3.44,3.44,0,0,0-.37,0,3.21,3.21,0,0,0-3,2l0,5.14Z"/><path class="cls-19" d="M199.4,250.6l0-7.89h.93l.1,1.25a4.1,4.1,0,0,1,2.9-1.4c1.33,0,2,.59,2.18,1.43a4.37,4.37,0,0,1,3-1.41,2.05,2.05,0,0,1,2.27,2.35l0,5.71h-1l0-5.52c0-1.11-.37-1.65-1.48-1.66a3.86,3.86,0,0,0-2.65,1.37l0,5.79h-1l0-5.52c0-1.11-.37-1.65-1.49-1.66a3.89,3.89,0,0,0-2.65,1.37l0,5.79Z"/><path class="cls-19" d="M212.48,249.39l.57-.63a3.21,3.21,0,0,0,2.53,1.2c1.35,0,2.06-.52,2.06-1.36s-.54-1.23-2.17-1.61c-1.9-.47-2.74-1-2.74-2.32,0-1.12,1-2.07,2.69-2.06a3.94,3.94,0,0,1,2.91,1.12l-.53.72a3.22,3.22,0,0,0-2.35-1c-1.2,0-1.71.55-1.71,1.16s.43,1.07,1.88,1.42c2.1.5,3,1,3,2.49s-1.3,2.27-3.08,2.27A3.81,3.81,0,0,1,212.48,249.39Z"/><path class="cls-19" d="M224,253.77l0-11H225l.1,1.11a3.47,3.47,0,0,1,2.64-1.26c1.82,0,3.25,1.35,3.24,4.11s-1.47,4.09-3.3,4.08a3.56,3.56,0,0,1-2.6-1.22l0,4Zm5.92-7c0-2.17-1.07-3.23-2.39-3.23a3.4,3.4,0,0,0-2.46,1.28v3.87a3.42,3.42,0,0,0,2.49,1.28C228.85,250,229.9,249,229.91,246.77Z"/><path class="cls-19" d="M232.32,248.86c0-1.56,1.34-2.68,5.37-3.28v-.41a1.45,1.45,0,0,0-1.61-1.62,4.15,4.15,0,0,0-2.93,1.23l-.58-.65a4.93,4.93,0,0,1,3.59-1.46,2.27,2.27,0,0,1,2.55,2.53l0,5.54h-.92l-.1-1.12a4.59,4.59,0,0,1-3.12,1.25C233.14,250.86,232.32,250.09,232.32,248.86Zm5.35-.08v-2.46c-3.48.59-4.34,1.41-4.34,2.43,0,.83.54,1.26,1.44,1.27A4.12,4.12,0,0,0,237.68,248.78Z"/><path class="cls-19" d="M241,250.76l0-7.89h.93l.1,1.55h0a3.45,3.45,0,0,1,3.11-1.7h.11l.09,1a3,3,0,0,0-.37,0,3.21,3.21,0,0,0-3,2l0,5.15Z"/><path class="cls-19" d="M247.78,248.91l0-5.14h-1.37v-.87h1.37v-2.77l1-.15v2.92h2.06v.87h-2.05l0,5c0,.84.31,1.26,1.23,1.26a3,3,0,0,0,.78-.1l.12.89a6.89,6.89,0,0,1-1.08.09C248.45,250.89,247.78,250.35,247.78,248.91Z"/><path class="cls-19" d="M255.67,246.87c0-2.64,1.65-4.1,3.6-4.1s3.56,1.48,3.55,4.12-1.65,4.1-3.59,4.1S255.66,249.49,255.67,246.87Zm6.12,0c0-1.74-.86-3.23-2.52-3.24s-2.56,1.36-2.56,3.22.84,3.23,2.54,3.23S261.78,248.75,261.79,246.89Z"/><path class="cls-19" d="M265,250.85l0-7h-1.37V243H265v-1.2c0-1.33.77-2,2.29-2l.54,0,.1.86a3.71,3.71,0,0,0-.58,0c-.75,0-1.31.28-1.31,1.13V243h1.74v.87h-1.74l0,7Z"/><path class="cls-19" d="M272.49,245.28c0-3.48,2-5.71,4.66-5.7a3.89,3.89,0,0,1,3.8,2.61l-.95.45a2.82,2.82,0,0,0-2.86-2.08c-1.93,0-3.58,1.59-3.59,4.68s1.44,4.9,3.57,4.9c1.86,0,3.09-1.32,3.09-3.54H277.6l-.16-.92h3.81l0,5.22h-1V249.3h0a3.38,3.38,0,0,1-3.22,1.8C274.13,251.09,272.47,248.6,272.49,245.28Z"/><path class="cls-19" d="M283.78,250.92l0-11.1h3.69c2.4,0,3.88,1,3.87,3,0,2.25-1.66,3.14-4,3.13h-2.52l0,4.92Zm1.09-5.86h2.59c1.83,0,2.85-.57,2.86-2.16s-1-2.09-2.86-2.1h-2.58Z"/><path class="cls-19" d="M292.48,249.39l.62-.79a5.33,5.33,0,0,0,3.79,1.62c1.71,0,2.81-.75,2.81-2s-.56-1.76-2.92-2.5-3.59-1.41-3.59-3.24c0-1.59,1.44-2.84,3.46-2.84a5.66,5.66,0,0,1,3.94,1.59l-.54.84a4.93,4.93,0,0,0-3.4-1.47c-1.5,0-2.4.82-2.41,1.81,0,1.25.74,1.68,3.07,2.43s3.44,1.51,3.44,3.33-1.63,3-3.85,3A6,6,0,0,1,292.48,249.39Z"/><path class="cls-19" d="M302,253.55a8.73,8.73,0,0,0,.05-13.3l.47-.52c2.44,2.06,3.73,4.35,3.72,7.18S305,252,302.5,254.07Z"/><path class="cls-19" d="M308,250.29a.69.69,0,0,1,.74-.76.7.7,0,0,1,.73.77.72.72,0,0,1-.74.79A.71.71,0,0,1,308,250.29Z"/><path class="cls-19" d="M83.36,294.15l0-11.1h1.06l0,11.1Z"/><path class="cls-19" d="M87.54,292.29l0-5.14H86.2v-.87h1.37V283.5l1-.15v2.92h2.05v.87H88.59l0,5c0,.84.31,1.26,1.22,1.26a3,3,0,0,0,.78-.1l.12.89a6.91,6.91,0,0,1-1.08.08C88.21,294.28,87.54,293.73,87.54,292.29Z"/><path class="cls-19" d="M95.86,294.2l0-11,1-.15,0,4.53a4.27,4.27,0,0,1,3-1.4,2.12,2.12,0,0,1,2.38,2.33l0,5.73h-1l0-5.52c0-1.11-.47-1.65-1.58-1.66a4,4,0,0,0-2.75,1.37l0,5.79Z"/><path class="cls-19" d="M104,292.37c0-1.56,1.34-2.68,5.37-3.28v-.41a1.45,1.45,0,0,0-1.61-1.63,4.15,4.15,0,0,0-2.93,1.23l-.58-.65a4.93,4.93,0,0,1,3.59-1.46,2.27,2.27,0,0,1,2.56,2.53l0,5.53h-.92l-.1-1.13a4.58,4.58,0,0,1-3.12,1.25C104.86,294.37,104,293.6,104,292.37Zm5.35-.08v-2.46c-3.48.59-4.34,1.41-4.34,2.43,0,.83.54,1.26,1.44,1.26A4.11,4.11,0,0,0,109.4,292.29Z"/><path class="cls-19" d="M112.07,293l.57-.63a3.2,3.2,0,0,0,2.53,1.2c1.35,0,2.06-.52,2.06-1.36s-.54-1.23-2.17-1.61c-1.9-.47-2.74-1-2.74-2.32,0-1.12,1-2.07,2.69-2.06a3.94,3.94,0,0,1,2.91,1.12l-.53.72a3.22,3.22,0,0,0-2.35-1c-1.2,0-1.71.55-1.71,1.16s.43,1.07,1.88,1.42c2.1.5,3,1,3,2.49s-1.3,2.28-3.08,2.27A3.81,3.81,0,0,1,112.07,293Z"/><path class="cls-19" d="M124.63,293.23l0,1.08h-1l0-11,1-.15,0,4.42a3.41,3.41,0,0,1,2.64-1.29c1.82,0,3.25,1.35,3.24,4.11s-1.47,4.09-3.3,4.08A3.56,3.56,0,0,1,124.63,293.23Zm4.87-2.85c0-2.17-1.07-3.23-2.39-3.23a3.4,3.4,0,0,0-2.46,1.28v3.87a3.41,3.41,0,0,0,2.48,1.28C128.43,293.59,129.49,292.62,129.5,290.38Z"/><path class="cls-19" d="M132.06,290.38c0-2.79,1.82-4.09,3.48-4.08,1.83,0,3.22,1.42,3.21,4.12v.19l-5.66,0c0,1.94,1.11,3,2.58,3.05a3.3,3.3,0,0,0,2.54-1.16l.51.68a3.86,3.86,0,0,1-3.06,1.35C133.66,294.51,132,293.08,132.06,290.38Zm5.69-.58c-.1-1.5-.82-2.63-2.23-2.63-1.14,0-2.22.85-2.41,2.62Z"/><path class="cls-19" d="M140.23,290.41c0-2.79,1.82-4.09,3.48-4.08,1.83,0,3.22,1.42,3.21,4.12v.19l-5.65,0c0,1.93,1.11,3,2.58,3.05a3.3,3.3,0,0,0,2.54-1.16l.51.68a3.86,3.86,0,0,1-3.07,1.35C141.83,294.54,140.22,293.11,140.23,290.41Zm5.69-.58c-.1-1.5-.81-2.63-2.22-2.63-1.14,0-2.22.85-2.41,2.62Z"/><path class="cls-19" d="M148.82,294.4l0-7.89h.93l.1,1.25a4.28,4.28,0,0,1,3-1.4,2.11,2.11,0,0,1,2.38,2.33l0,5.73h-1l0-5.52c0-1.11-.47-1.67-1.58-1.67a4,4,0,0,0-2.75,1.37l0,5.8Z"/><path class="cls-19" d="M160.5,290.52c0-2.76,1.47-4.12,3.3-4.11a3.46,3.46,0,0,1,2.6,1.25l0-4.21,1-.15,0,11.17h-.93l-.1-1.14a3.47,3.47,0,0,1-2.64,1.26C161.93,294.59,160.49,293.28,160.5,290.52Zm5.89,1.91v-3.85a3.44,3.44,0,0,0-2.49-1.3c-1.3,0-2.37,1-2.38,3.23s1.07,3.2,2.39,3.2A3.35,3.35,0,0,0,166.39,292.43Z"/><path class="cls-19" d="M169.34,290.52c0-2.79,1.82-4.09,3.48-4.08,1.83,0,3.22,1.42,3.21,4.12v.2l-5.65,0c0,1.93,1.11,3,2.58,3.05a3.3,3.3,0,0,0,2.54-1.16l.51.68a3.86,3.86,0,0,1-3.06,1.35C170.95,294.65,169.33,293.22,169.34,290.52Zm5.69-.58c-.1-1.5-.82-2.63-2.22-2.63-1.14,0-2.22.85-2.41,2.62Z"/><path class="cls-19" d="M177.46,293.25l.57-.63a3.21,3.21,0,0,0,2.53,1.2c1.35,0,2.06-.52,2.06-1.36s-.54-1.23-2.17-1.61c-1.9-.47-2.74-1-2.74-2.32,0-1.12,1-2.07,2.69-2.06a3.94,3.94,0,0,1,2.91,1.12l-.53.72a3.22,3.22,0,0,0-2.35-1c-1.2,0-1.71.55-1.71,1.16s.43,1.07,1.88,1.42c2.1.5,3,1,3,2.49s-1.3,2.28-3.08,2.27A3.82,3.82,0,0,1,177.46,293.25Z"/><path class="cls-19" d="M185.42,284.25a.63.63,0,0,1,1.26,0,.63.63,0,1,1-1.26,0Zm.08,10.29,0-7.89h1l0,7.89Z"/><path class="cls-19" d="M188,295.6a2,2,0,0,1,1.46-1.79,1,1,0,0,1-.7-1c0-.48.39-.88,1-1.18a2.61,2.61,0,0,1-1.19-2.27,2.89,2.89,0,0,1,3.13-2.84,3.28,3.28,0,0,1,2.25.82,4.08,4.08,0,0,1,1.74-.71l.15,1a4,4,0,0,0-1.5.26,2.46,2.46,0,0,1,.46,1.52,2.84,2.84,0,0,1-3.12,2.79,3.51,3.51,0,0,1-1.27-.23c-.37.15-.63.37-.63.67s.28.51,1.17.6l1.72.14c1.83.16,2.79.79,2.78,2,0,1.44-1.51,2.23-3.67,2.22C189.21,297.59,188,296.82,188,295.6Zm6.45-.14c0-.75-.6-1.13-2.16-1.25l-1.57-.13-.41,0c-.89.28-1.32.83-1.33,1.44,0,.82.86,1.31,2.86,1.32C193.5,296.79,194.48,296.26,194.48,295.46Zm-.67-6.08a1.92,1.92,0,0,0-2.12-2,2,2,0,1,0,2.12,2Z"/><path class="cls-19" d="M197.33,294.59l0-7.89h.93l.1,1.25a4.27,4.27,0,0,1,3-1.4,2.12,2.12,0,0,1,2.38,2.33l0,5.73h-1l0-5.52c0-1.11-.47-1.67-1.58-1.67a4,4,0,0,0-2.75,1.37l0,5.8Z"/><path class="cls-19" d="M205.6,290.66c0-2.79,1.82-4.09,3.48-4.08,1.83,0,3.22,1.42,3.21,4.12v.2l-5.65,0c0,1.93,1.11,3,2.58,3.05a3.3,3.3,0,0,0,2.54-1.16l.51.68a3.86,3.86,0,0,1-3.06,1.35C207.2,294.79,205.59,293.36,205.6,290.66Zm5.69-.58c-.1-1.5-.82-2.63-2.23-2.63-1.14,0-2.22.85-2.41,2.62Z"/><path class="cls-19" d="M213.78,290.72c0-2.76,1.47-4.12,3.3-4.11a3.46,3.46,0,0,1,2.61,1.26l0-4.21,1-.15,0,11.17h-.93l-.1-1.14A3.47,3.47,0,0,1,217,294.8C215.2,294.79,213.77,293.48,213.78,290.72Zm5.89,1.91v-3.85a3.43,3.43,0,0,0-2.48-1.3c-1.31,0-2.37,1-2.38,3.23s1.07,3.2,2.39,3.2A3.35,3.35,0,0,0,219.67,292.63Z"/><path class="cls-19" d="M227,292.83l0-5.14h-1.37v-.87H227V284l1-.15v2.92h2.06v.87h-2.05l0,5c0,.84.31,1.26,1.23,1.26a3,3,0,0,0,.78-.1l.12.89a6.89,6.89,0,0,1-1.08.09C227.68,294.81,227,294.27,227,292.83Z"/><path class="cls-19" d="M231.06,290.77c0-2.64,1.65-4.1,3.6-4.1s3.56,1.48,3.55,4.12-1.65,4.1-3.58,4.1S231.05,293.4,231.06,290.77Zm6.12,0c0-1.74-.86-3.23-2.52-3.24s-2.55,1.36-2.56,3.22.84,3.23,2.54,3.23S237.17,292.66,237.18,290.8Z"/><path class="cls-19" d="M243.55,284.48a.63.63,0,0,1,1.26,0,.63.63,0,1,1-1.26,0Zm.08,10.29,0-7.89h1l0,7.89Z"/><path class="cls-19" d="M246.44,293.52l.57-.63a3.21,3.21,0,0,0,2.53,1.2c1.35,0,2.06-.52,2.06-1.36s-.54-1.23-2.17-1.61c-1.9-.47-2.74-1-2.74-2.32,0-1.12,1-2.07,2.69-2.06a3.94,3.94,0,0,1,2.91,1.12l-.53.72a3.22,3.22,0,0,0-2.35-1c-1.2,0-1.71.55-1.71,1.16s.43,1.07,1.88,1.42c2.1.5,3,1,3,2.49s-1.3,2.27-3.08,2.27A3.81,3.81,0,0,1,246.44,293.52Z"/><path class="cls-19" d="M254,293.55l.57-.63a3.2,3.2,0,0,0,2.53,1.19c1.35,0,2.06-.52,2.06-1.36s-.54-1.23-2.17-1.61c-1.9-.47-2.74-1-2.74-2.32,0-1.12,1-2.07,2.69-2.06a4,4,0,0,1,2.91,1.12l-.53.72a3.22,3.22,0,0,0-2.35-1c-1.2,0-1.71.55-1.71,1.16s.43,1.07,1.88,1.42c2.1.5,3,1,3,2.49s-1.3,2.27-3.08,2.27A3.82,3.82,0,0,1,254,293.55Z"/><path class="cls-19" d="M261.95,292.68l0-5.73h1l0,5.52c0,1.11.46,1.65,1.57,1.66a4.11,4.11,0,0,0,2.77-1.37l0-5.79h1l0,7.89h-.93l-.1-1.25a4.4,4.4,0,0,1-3,1.4A2.11,2.11,0,0,1,261.95,292.68Z"/><path class="cls-19" d="M270.26,290.91c0-2.79,1.81-4.09,3.48-4.08,1.83,0,3.22,1.42,3.21,4.12v.2l-5.65,0c0,1.93,1.11,3,2.58,3.05a3.3,3.3,0,0,0,2.54-1.16l.51.68a3.86,3.86,0,0,1-3.06,1.35C271.87,295,270.25,293.61,270.26,290.91Zm5.69-.58c-.1-1.5-.82-2.63-2.23-2.63-1.14,0-2.22.85-2.41,2.62Z"/><path class="cls-19" d="M82.48,312.22c0-2.76,1.47-4.12,3.3-4.11a3.46,3.46,0,0,1,2.61,1.25l0-4.21,1-.15,0,11.17h-.93l-.1-1.14a3.48,3.48,0,0,1-2.64,1.27C83.9,316.29,82.47,315,82.48,312.22Zm5.89,1.91v-3.85a3.43,3.43,0,0,0-2.48-1.3c-1.31,0-2.37,1-2.38,3.23s1.07,3.2,2.39,3.2A3.35,3.35,0,0,0,88.36,314.13Z"/><path class="cls-19" d="M91.32,312.22c0-2.79,1.82-4.09,3.48-4.08,1.83,0,3.22,1.42,3.21,4.12v.2l-5.65,0c0,1.94,1.11,3,2.58,3.06a3.3,3.3,0,0,0,2.54-1.16L98,315a3.87,3.87,0,0,1-3.07,1.35C92.92,316.36,91.31,314.92,91.32,312.22Zm5.69-.58c-.1-1.5-.81-2.63-2.22-2.63-1.14,0-2.22.85-2.41,2.62Z"/><path class="cls-19" d="M99.49,312.27c0-2.83,1.77-4.1,3.54-4.1a3.1,3.1,0,0,1,2.9,1.89l-.81.49A2.19,2.19,0,0,0,103,309c-1.17,0-2.46.88-2.47,3.23,0,2,1,3.24,2.43,3.25a2.32,2.32,0,0,0,2.21-1.54l.76.5a3.2,3.2,0,0,1-3,1.91C101.08,316.39,99.48,314.9,99.49,312.27Z"/><path class="cls-19" d="M107.25,312.29c0-2.79,1.82-4.09,3.48-4.08,1.83,0,3.22,1.42,3.21,4.12v.2l-5.65,0c0,1.93,1.11,3,2.58,3.05a3.3,3.3,0,0,0,2.54-1.16l.51.68a3.87,3.87,0,0,1-3.07,1.35C108.86,316.42,107.24,315,107.25,312.29Zm5.69-.58c-.1-1.5-.81-2.63-2.22-2.63-1.14,0-2.22.85-2.41,2.62Z"/><path class="cls-19" d="M115.84,316.28l0-7.89h.93l.1,1.25a4.27,4.27,0,0,1,3-1.4,2.12,2.12,0,0,1,2.38,2.33l0,5.73h-1l0-5.52c0-1.11-.47-1.67-1.58-1.67a4,4,0,0,0-2.75,1.37l0,5.8Z"/><path class="cls-19" d="M125,314.44l0-5.14h-1.37v-.87H125v-2.77l1-.15v2.92h2.05v.87H126l0,5c0,.84.31,1.26,1.23,1.26a2.93,2.93,0,0,0,.78-.1l.12.89a7,7,0,0,1-1.08.09C125.65,316.42,125,315.88,125,314.44Z"/><path class="cls-19" d="M129.76,316.33l0-7.89h.93l.1,1.55h0a3.46,3.46,0,0,1,3.11-1.7h.11l.09,1a3,3,0,0,0-.37,0,3.21,3.21,0,0,0-3,2l0,5.15Z"/><path class="cls-19" d="M135.14,314.49c0-1.56,1.35-2.68,5.37-3.28v-.41a1.45,1.45,0,0,0-1.61-1.63,4.16,4.16,0,0,0-2.93,1.23l-.58-.65a4.93,4.93,0,0,1,3.59-1.46,2.27,2.27,0,0,1,2.56,2.53l0,5.54h-.92l-.1-1.12a4.59,4.59,0,0,1-3.12,1.25C136,316.49,135.13,315.72,135.14,314.49Zm5.36-.08v-2.46c-3.48.59-4.34,1.41-4.34,2.43,0,.83.54,1.26,1.44,1.27A4.12,4.12,0,0,0,140.49,314.41Z"/><path class="cls-19" d="M143.83,316.38l0-11,1-.15,0,11.17Z"/><path class="cls-19" d="M147.18,306.11a.63.63,0,1,1,1.26,0,.63.63,0,1,1-1.26,0Zm.08,10.29,0-7.89h1l0,7.89Z"/><path class="cls-19" d="M150,316.41v-.66l4.84-6.36-4.35,0-.15-.86,5.8,0v.66l-4.84,6.36,5,0,.15.86Z"/><path class="cls-19" d="M157.24,312.48c0-2.79,1.82-4.09,3.48-4.08,1.83,0,3.22,1.42,3.21,4.12v.19l-5.65,0c0,1.94,1.11,3,2.58,3.05a3.29,3.29,0,0,0,2.54-1.16l.51.68a3.86,3.86,0,0,1-3.07,1.35C158.85,316.61,157.23,315.18,157.24,312.48Zm5.69-.58c-.1-1.5-.81-2.63-2.22-2.63-1.14,0-2.22.85-2.41,2.62Z"/><path class="cls-19" d="M165.42,312.54c0-2.76,1.47-4.12,3.3-4.11a3.46,3.46,0,0,1,2.6,1.25l0-4.21,1-.15,0,11.17h-.93l-.1-1.14a3.47,3.47,0,0,1-2.64,1.26C166.85,316.61,165.41,315.3,165.42,312.54Zm5.89,1.91v-3.85a3.43,3.43,0,0,0-2.49-1.3c-1.3,0-2.37,1-2.38,3.23s1.07,3.2,2.39,3.2A3.35,3.35,0,0,0,171.31,314.45Z"/><path class="cls-19" d="M178.12,319.59l0-11h.93l.1,1.11a3.48,3.48,0,0,1,2.64-1.27c1.82,0,3.25,1.35,3.24,4.11s-1.47,4.09-3.3,4.08a3.56,3.56,0,0,1-2.61-1.22v4Zm5.92-7c0-2.17-1.07-3.23-2.39-3.23a3.4,3.4,0,0,0-2.46,1.28v3.87a3.41,3.41,0,0,0,2.48,1.28C183,315.8,184,314.86,184,312.59Z"/><path class="cls-19" d="M187,316.55l0-7.89H188l.1,1.55h0a3.46,3.46,0,0,1,3.11-1.7h.1l.09,1a3,3,0,0,0-.37,0,3.21,3.21,0,0,0-3,2l0,5.15Z"/><path class="cls-19" d="M192.18,312.62c0-2.64,1.65-4.1,3.6-4.1s3.56,1.48,3.55,4.12-1.65,4.1-3.59,4.1S192.17,315.25,192.18,312.62Zm6.12,0c0-1.74-.86-3.23-2.52-3.23s-2.55,1.36-2.56,3.21.84,3.23,2.54,3.23S198.29,314.51,198.3,312.65Z"/><path class="cls-19" d="M200.82,312.66c0-2.83,1.77-4.1,3.54-4.1a3.1,3.1,0,0,1,2.9,1.89l-.81.49a2.19,2.19,0,0,0-2.12-1.51c-1.17,0-2.46.88-2.47,3.23,0,2,1,3.24,2.43,3.25a2.32,2.32,0,0,0,2.21-1.54l.76.5a3.2,3.2,0,0,1-3,1.91C202.41,316.77,200.81,315.28,200.82,312.66Z"/><path class="cls-19" d="M209,314.47l0-5.73h1l0,5.52c0,1.11.46,1.65,1.57,1.66a4.1,4.1,0,0,0,2.76-1.37l0-5.79h1l0,7.89h-.93l-.1-1.25a4.4,4.4,0,0,1-3,1.4A2.11,2.11,0,0,1,209,314.47Z"/><path class="cls-19" d="M217.69,316.67l0-7.89h.93l.1,1.55h0a3.46,3.46,0,0,1,3.11-1.7h.1l.09,1a3,3,0,0,0-.37,0,3.21,3.21,0,0,0-3,2l0,5.15Z"/><path class="cls-19" d="M222.88,312.73c0-2.79,1.82-4.09,3.48-4.08,1.83,0,3.22,1.42,3.21,4.12V313l-5.66,0c0,1.94,1.11,3,2.58,3.05a3.3,3.3,0,0,0,2.54-1.16l.51.68a3.86,3.86,0,0,1-3.07,1.35C224.49,316.86,222.87,315.43,222.88,312.73Zm5.69-.58c-.1-1.5-.81-2.63-2.22-2.63-1.14,0-2.22.85-2.41,2.62Z"/><path class="cls-19" d="M231.47,316.72l0-7.89h.93l.1,1.25a4.1,4.1,0,0,1,2.9-1.4c1.33,0,2,.59,2.18,1.43a4.37,4.37,0,0,1,3-1.41,2.05,2.05,0,0,1,2.27,2.35l0,5.71h-1l0-5.52c0-1.11-.37-1.65-1.48-1.66A3.86,3.86,0,0,0,237.7,311l0,5.79h-1l0-5.52c0-1.11-.37-1.65-1.49-1.66a3.89,3.89,0,0,0-2.65,1.37l0,5.79Z"/><path class="cls-19" d="M244.72,312.81c0-2.79,1.82-4.09,3.48-4.08,1.83,0,3.22,1.42,3.21,4.12v.2l-5.65,0c0,1.94,1.11,3,2.58,3.06a3.3,3.3,0,0,0,2.54-1.16l.51.68a3.87,3.87,0,0,1-3.07,1.35C246.32,316.94,244.71,315.51,244.72,312.81Zm5.69-.58c-.1-1.5-.81-2.63-2.22-2.63-1.14,0-2.22.85-2.41,2.62Z"/><path class="cls-19" d="M253.31,316.8l0-7.89h.93l.1,1.25a4.27,4.27,0,0,1,3-1.4,2.11,2.11,0,0,1,2.38,2.33l0,5.73h-1l0-5.52c0-1.11-.47-1.67-1.58-1.67a4,4,0,0,0-2.75,1.37l0,5.8Z"/><path class="cls-19" d="M262.46,315l0-5.14h-1.37v-.87h1.37v-2.77l1-.15V309h2.05v.87h-2.05l0,5c0,.84.31,1.26,1.23,1.26a3,3,0,0,0,.78-.1l.12.89a7,7,0,0,1-1.08.09C263.12,316.95,262.45,316.4,262.46,315Z"/><path class="cls-19" d="M270.77,316.87l0-7.89h.93l.1,1.54h0a3.46,3.46,0,0,1,3.11-1.7h.11l.09,1a3.3,3.3,0,0,0-3.34,1.94l0,5.14Z"/><path class="cls-19" d="M276,312.93c0-2.79,1.82-4.09,3.48-4.08,1.83,0,3.22,1.42,3.21,4.12v.2l-5.65,0c0,1.93,1.11,3,2.58,3.05a3.3,3.3,0,0,0,2.54-1.16l.51.68a3.87,3.87,0,0,1-3.07,1.35C277.56,317.06,276,315.63,276,312.93Zm5.69-.58c-.1-1.5-.81-2.63-2.22-2.63-1.14,0-2.22.85-2.41,2.62Z"/><path class="cls-19" d="M290,315.79a3.51,3.51,0,0,1-2.64,1.28c-1.81,0-3.25-1.32-3.24-4.08s1.47-4.12,3.3-4.11a3.56,3.56,0,0,1,2.6,1.23l.11-1h.93l0,10.81-1,.15Zm0-.88V311a3.44,3.44,0,0,0-2.49-1.3c-1.3,0-2.37,1-2.38,3.23s1.07,3.2,2.39,3.2A3.35,3.35,0,0,0,290,314.9Z"/><path class="cls-19" d="M293.35,314.8l0-5.73h1l0,5.52c0,1.11.46,1.65,1.57,1.66a4.1,4.1,0,0,0,2.76-1.37l0-5.79h1l0,7.89h-.93l-.1-1.25a4.4,4.4,0,0,1-3,1.4A2.11,2.11,0,0,1,293.35,314.8Z"/><path class="cls-19" d="M301.67,313c0-2.79,1.82-4.09,3.48-4.08,1.83,0,3.22,1.42,3.21,4.12v.19l-5.65,0c0,1.94,1.11,3,2.58,3.05a3.29,3.29,0,0,0,2.54-1.16l.51.68a3.86,3.86,0,0,1-3.07,1.35C303.27,317.16,301.66,315.73,301.67,313Zm5.69-.58c-.1-1.5-.81-2.63-2.22-2.63-1.14,0-2.22.85-2.41,2.62Z"/><path class="cls-19" d="M309.78,315.76l.57-.63a3.2,3.2,0,0,0,2.53,1.19c1.35,0,2.06-.52,2.06-1.36s-.54-1.23-2.17-1.61c-1.9-.47-2.74-1-2.74-2.32,0-1.12,1-2.07,2.69-2.06a4,4,0,0,1,2.91,1.12l-.53.72a3.22,3.22,0,0,0-2.35-1c-1.2,0-1.71.55-1.71,1.16s.43,1.07,1.88,1.42c2.1.5,3,1,3,2.49s-1.3,2.27-3.08,2.27A3.81,3.81,0,0,1,309.78,315.76Z"/><path class="cls-19" d="M318.44,315.18l0-5.14H317.1v-.87h1.37v-2.77l1-.15v2.92h2.05V310H319.5l0,5c0,.84.31,1.26,1.22,1.26a3,3,0,0,0,.78-.1l.12.89a7,7,0,0,1-1.08.09C319.11,317.16,318.44,316.62,318.44,315.18Z"/><path class="cls-19" d="M322.8,315.81l.57-.63a3.2,3.2,0,0,0,2.53,1.19c1.35,0,2.06-.52,2.06-1.36s-.54-1.23-2.17-1.61c-1.9-.47-2.74-1-2.74-2.32,0-1.12,1-2.07,2.69-2.06a4,4,0,0,1,2.91,1.12l-.53.72a3.22,3.22,0,0,0-2.35-1c-1.2,0-1.71.55-1.71,1.16s.43,1.07,1.88,1.42c2.1.5,3,1,3,2.49s-1.3,2.27-3.08,2.27A3.81,3.81,0,0,1,322.8,315.81Z"/><path class="cls-19" d="M330.91,316.38a.69.69,0,0,1,.74-.76.7.7,0,0,1,.73.77.72.72,0,0,1-.74.79A.71.71,0,0,1,330.91,316.38Z"/><path class="cls-19" d="M27.23,100.3c0-3.48,2-5.71,4.63-5.71a3.89,3.89,0,0,1,3.81,2.59l-.94.45a2.82,2.82,0,0,0-2.87-2.07c-1.93,0-3.57,1.6-3.57,4.69s1.46,4.89,3.58,4.89c1.86,0,3.09-1.33,3.08-3.55H32.35l-.16-.92H36v5.22H35v-1.6h0a3.37,3.37,0,0,1-3.21,1.81C28.9,106.11,27.23,103.62,27.23,100.3Z"/><path class="cls-19" d="M38.44,105.9v-11l1-.15V105.9Z"/><path class="cls-19" d="M41.42,102c0-2.64,1.63-4.11,3.58-4.11s3.57,1.47,3.57,4.11-1.64,4.11-3.57,4.11S41.42,104.58,41.42,102Zm6.12,0c0-1.74-.87-3.23-2.54-3.23s-2.55,1.37-2.55,3.23.85,3.23,2.55,3.23S47.54,103.81,47.54,102Z"/><path class="cls-19" d="M51.53,104.82l0,1.08h-1v-11l1-.15v4.42a3.4,3.4,0,0,1,2.64-1.31c1.81,0,3.25,1.33,3.25,4.09S56,106,54.14,106A3.56,3.56,0,0,1,51.53,104.82ZM56.39,102c0-2.17-1.08-3.23-2.4-3.23A3.4,3.4,0,0,0,51.53,100v3.87A3.41,3.41,0,0,0,54,105.16C55.34,105.16,56.39,104.19,56.39,102Z"/><path class="cls-19" d="M58.81,104c0-1.56,1.33-2.69,5.35-3.3v-.41a1.45,1.45,0,0,0-1.62-1.62A4.16,4.16,0,0,0,59.62,100L59,99.31a4.93,4.93,0,0,1,3.58-1.47,2.27,2.27,0,0,1,2.57,2.52v5.53h-.92l-.11-1.12A4.59,4.59,0,0,1,61,106,2,2,0,0,1,58.81,104Zm5.35-.1v-2.46c-3.48.6-4.33,1.42-4.33,2.44,0,.83.54,1.26,1.44,1.26A4.12,4.12,0,0,0,64.16,103.93Z"/><path class="cls-19" d="M67.5,105.9v-11l1-.15V105.9Z"/><path class="cls-19" d="M74.4,109V98h.93l.11,1.11a3.47,3.47,0,0,1,2.64-1.27c1.82,0,3.25,1.33,3.25,4.09S79.88,106,78,106a3.56,3.56,0,0,1-2.61-1.21v4Zm5.89-7c0-2.17-1.08-3.23-2.4-3.23A3.4,3.4,0,0,0,75.44,100v3.87a3.41,3.41,0,0,0,2.49,1.27C79.25,105.16,80.3,104.22,80.3,102Z"/><path class="cls-19" d="M83.34,105.9v-11l1-.15V105.9Z"/><path class="cls-19" d="M86.23,104c0-1.56,1.33-2.69,5.36-3.3v-.41A1.45,1.45,0,0,0,90,98.71,4.15,4.15,0,0,0,87,100l-.58-.65A4.93,4.93,0,0,1,90,97.84a2.27,2.27,0,0,1,2.56,2.52v5.53h-.92l-.1-1.12A4.59,4.59,0,0,1,88.47,106,2,2,0,0,1,86.23,104Zm5.36-.1v-2.46c-3.48.6-4.33,1.42-4.33,2.44,0,.83.54,1.26,1.44,1.26A4.12,4.12,0,0,0,91.59,103.93Z"/><path class="cls-19" d="M95.31,104V98.88H93.94V98h1.37V95.23l1-.15V98H98.4v.87H96.34v5c0,.84.31,1.26,1.23,1.26a3,3,0,0,0,.78-.1l.12.89a7,7,0,0,1-1.08.09C96,106,95.31,105.46,95.31,104Z"/><path class="cls-19" d="M101,105.9v-7H99.65V98H101v-1.2c0-1.33.76-2,2.28-2l.54,0,.1.85a3.59,3.59,0,0,0-.58,0c-.75,0-1.3.29-1.3,1.14V98h1.74v.87h-1.74v7Z"/><path class="cls-19" d="M104.62,102c0-2.64,1.63-4.11,3.58-4.11s3.57,1.47,3.57,4.11-1.64,4.11-3.57,4.11S104.62,104.58,104.62,102Zm6.12,0c0-1.74-.87-3.23-2.54-3.23s-2.55,1.37-2.55,3.23.85,3.23,2.55,3.23S110.74,103.81,110.74,102Z"/><path class="cls-19" d="M113.69,105.9V98h.93l.11,1.54h0a3.46,3.46,0,0,1,3.1-1.71h.1l.09,1a3.12,3.12,0,0,0-.37,0,3.21,3.21,0,0,0-3,2v5.15Z"/><path class="cls-19" d="M119.55,105.9V98h.93l.1,1.25a4.1,4.1,0,0,1,2.9-1.41c1.33,0,2,.58,2.19,1.42a4.37,4.37,0,0,1,3-1.42,2.05,2.05,0,0,1,2.28,2.34v5.71h-1v-5.52c0-1.11-.37-1.65-1.48-1.65a3.86,3.86,0,0,0-2.64,1.38v5.79h-1v-5.52c0-1.11-.37-1.65-1.5-1.65a3.89,3.89,0,0,0-2.64,1.38v5.79Z"/><path class="cls-19" d="M137.16,104V98.88H135.8V98h1.37V95.23l1-.15V98h2.05v.87H138.2v5c0,.84.31,1.26,1.23,1.26a3,3,0,0,0,.78-.1l.12.89a7,7,0,0,1-1.08.09C137.84,106,137.16,105.46,137.16,104Z"/><path class="cls-19" d="M141.94,105.9v-11l1-.15v4.53a4.27,4.27,0,0,1,3-1.41,2.11,2.11,0,0,1,2.38,2.32v5.73h-1v-5.52c0-1.11-.48-1.65-1.59-1.65a4,4,0,0,0-2.75,1.38v5.79Z"/><path class="cls-19" d="M150.12,104c0-1.56,1.33-2.69,5.36-3.3v-.41a1.45,1.45,0,0,0-1.62-1.62,4.15,4.15,0,0,0-2.92,1.24l-.58-.65a4.93,4.93,0,0,1,3.58-1.47,2.27,2.27,0,0,1,2.56,2.52v5.53h-.92l-.1-1.12a4.59,4.59,0,0,1-3.12,1.26A2,2,0,0,1,150.12,104Zm5.36-.1v-2.46c-3.48.6-4.33,1.42-4.33,2.44,0,.83.54,1.26,1.44,1.26A4.12,4.12,0,0,0,155.47,103.93Z"/><path class="cls-19" d="M159.2,104V98.88h-1.37V98h1.37V95.23l1-.15V98h2.05v.87h-2.05v5c0,.84.31,1.26,1.23,1.26a3,3,0,0,0,.78-.1l.12.89a7,7,0,0,1-1.08.09C159.87,106,159.2,105.46,159.2,104Z"/><path class="cls-19" d="M167,104.64l.57-.63a3.21,3.21,0,0,0,2.53,1.19c1.35,0,2.06-.52,2.06-1.36s-.54-1.23-2.17-1.6c-1.91-.46-2.75-1-2.75-2.31,0-1.12,1-2.07,2.68-2.07A3.94,3.94,0,0,1,172.82,99l-.53.72a3.22,3.22,0,0,0-2.35-1c-1.2,0-1.71.56-1.71,1.17s.43,1.06,1.89,1.41c2.1.49,3,1,3,2.47s-1.29,2.28-3.08,2.28A3.82,3.82,0,0,1,167,104.64Z"/><path class="cls-19" d="M174.92,103.74V98h1v5.52c0,1.11.46,1.65,1.58,1.65a4.11,4.11,0,0,0,2.76-1.38V98h1v7.89h-.93l-.1-1.25a4.4,4.4,0,0,1-3,1.41A2.11,2.11,0,0,1,174.92,103.74Z"/><path class="cls-19" d="M183.65,109V98h.93l.11,1.11a3.47,3.47,0,0,1,2.64-1.27c1.82,0,3.25,1.33,3.25,4.09S189.13,106,187.3,106a3.56,3.56,0,0,1-2.61-1.21v4Zm5.89-7c0-2.17-1.08-3.23-2.4-3.23a3.4,3.4,0,0,0-2.46,1.29v3.87a3.41,3.41,0,0,0,2.49,1.27C188.5,105.16,189.55,104.22,189.55,102Z"/><path class="cls-19" d="M192.53,109V98h.93l.11,1.11a3.47,3.47,0,0,1,2.64-1.27c1.82,0,3.25,1.33,3.25,4.09S198,106,196.17,106a3.56,3.56,0,0,1-2.61-1.21v4Zm5.89-7c0-2.17-1.08-3.23-2.4-3.23a3.4,3.4,0,0,0-2.46,1.29v3.87a3.41,3.41,0,0,0,2.49,1.27C197.37,105.16,198.42,104.22,198.42,102Z"/><path class="cls-19" d="M201,102c0-2.64,1.63-4.11,3.58-4.11s3.57,1.47,3.57,4.11-1.64,4.11-3.57,4.11S201,104.58,201,102Zm6.12,0c0-1.74-.87-3.23-2.54-3.23S202,100.09,202,102s.85,3.23,2.55,3.23S207.1,103.81,207.1,102Z"/><path class="cls-19" d="M210,105.9V98H211l.1,1.54h0a3.46,3.46,0,0,1,3.1-1.71h.11l.09,1a3.11,3.11,0,0,0-.37,0,3.21,3.21,0,0,0-3,2v5.15Z"/><path class="cls-19" d="M216.86,104V98.88h-1.37V98h1.37V95.23l1-.15V98h2.05v.87h-2.05v5c0,.84.31,1.26,1.23,1.26a3,3,0,0,0,.78-.1l.12.89a7,7,0,0,1-1.08.09C217.53,106,216.86,105.46,216.86,104Z"/><path class="cls-19" d="M221.22,104.64l.57-.63a3.21,3.21,0,0,0,2.54,1.19c1.35,0,2.05-.52,2.05-1.36s-.54-1.23-2.17-1.6c-1.91-.46-2.75-1-2.75-2.31,0-1.12,1-2.07,2.69-2.07A3.94,3.94,0,0,1,227.06,99l-.52.72a3.22,3.22,0,0,0-2.36-1c-1.2,0-1.71.56-1.71,1.17s.44,1.06,1.89,1.41c2.1.49,3,1,3,2.47S226.1,106,224.31,106A3.81,3.81,0,0,1,221.22,104.64Z"/><path class="cls-19" d="M232.29,101.94c0-2.79,1.8-4.09,3.46-4.09,1.83,0,3.22,1.41,3.22,4.11v.19h-5.65c0,1.94,1.13,3,2.59,3a3.3,3.3,0,0,0,2.54-1.17l.51.67a3.86,3.86,0,0,1-3.06,1.37C233.91,106.06,232.29,104.64,232.29,101.94Zm5.68-.6c-.1-1.5-.82-2.62-2.23-2.62-1.14,0-2.22.85-2.4,2.62Z"/><path class="cls-19" d="M242.74,105.94l-2.88-7.84,1-.19,2.38,6.76h0L245.63,98h1l-2.91,7.93Z"/><path class="cls-19" d="M247.5,101.94c0-2.79,1.8-4.09,3.46-4.09,1.83,0,3.22,1.41,3.22,4.11v.19h-5.65c0,1.94,1.13,3,2.59,3a3.3,3.3,0,0,0,2.54-1.17l.51.67a3.86,3.86,0,0,1-3.06,1.37C249.12,106.06,247.5,104.64,247.5,101.94Zm5.68-.6c-.1-1.5-.82-2.62-2.23-2.62-1.14,0-2.22.85-2.4,2.62Z"/><path class="cls-19" d="M256.1,105.9V98H257l.1,1.54h0a3.46,3.46,0,0,1,3.1-1.71h.11l.09,1a3.11,3.11,0,0,0-.37,0,3.21,3.21,0,0,0-3,2v5.15Z"/><path class="cls-19" d="M261.55,108.81l-.07-.9a4.89,4.89,0,0,0,1.14.14,1.59,1.59,0,0,0,1.63-1.23l.33-.87-3-7.84,1-.19,2.49,6.76h0L267.56,98h1.08l-3.4,8.8c-.54,1.41-1.12,2.1-2.64,2.1A4.11,4.11,0,0,1,261.55,108.81Z"/><path class="cls-19" d="M27,126.64l.57-.63a3.21,3.21,0,0,0,2.54,1.19c1.35,0,2.05-.52,2.05-1.36s-.54-1.23-2.17-1.6c-1.91-.46-2.75-1-2.75-2.31,0-1.12,1-2.07,2.69-2.07A3.94,3.94,0,0,1,32.84,121l-.52.72a3.22,3.22,0,0,0-2.36-1c-1.2,0-1.71.56-1.71,1.17s.44,1.06,1.89,1.41c2.1.49,3,1,3,2.47S31.88,128,30.1,128A3.81,3.81,0,0,1,27,126.64Z"/><path class="cls-19" d="M35.67,126v-5.14H34.3V120h1.37v-2.77l1-.15V120h2.05v.87H36.7v5c0,.84.31,1.26,1.23,1.26a3,3,0,0,0,.78-.1l.12.89a7,7,0,0,1-1.08.09C36.34,128,35.67,127.46,35.67,126Z"/><path class="cls-19" d="M40.08,126c0-1.56,1.33-2.69,5.36-3.3v-.41a1.45,1.45,0,0,0-1.62-1.62A4.15,4.15,0,0,0,40.89,122l-.58-.65a4.93,4.93,0,0,1,3.58-1.47,2.27,2.27,0,0,1,2.56,2.52v5.53h-.92l-.1-1.12A4.59,4.59,0,0,1,42.31,128,2,2,0,0,1,40.08,126Zm5.36-.1v-2.46c-3.48.6-4.33,1.42-4.33,2.44,0,.83.54,1.26,1.44,1.26A4.12,4.12,0,0,0,45.43,125.93Z"/><path class="cls-19" d="M47.87,128.95a2,2,0,0,1,1.46-1.8,1,1,0,0,1-.71-1c0-.48.39-.88,1-1.19a2.61,2.61,0,0,1-1.2-2.26,2.89,2.89,0,0,1,3.12-2.85,3.27,3.27,0,0,1,2.25.81,4.09,4.09,0,0,1,1.74-.72l.15,1a4,4,0,0,0-1.5.27,2.46,2.46,0,0,1,.47,1.52,2.84,2.84,0,0,1-3.11,2.8,3.5,3.5,0,0,1-1.27-.23c-.37.15-.63.38-.63.68s.29.51,1.17.6l1.72.14c1.83.15,2.79.78,2.79,2,0,1.44-1.5,2.23-3.66,2.23C49.05,130.93,47.87,130.16,47.87,128.95Zm6.45-.17c0-.75-.6-1.13-2.16-1.24l-1.58-.12-.41,0c-.88.28-1.32.84-1.32,1.44,0,.82.87,1.3,2.87,1.3C53.34,130.12,54.32,129.58,54.32,128.78Zm-.69-6.07a1.92,1.92,0,0,0-2.13-2,2,2,0,1,0,2.13,2Z"/><path class="cls-19" d="M56.54,123.94c0-2.79,1.8-4.09,3.46-4.09,1.83,0,3.22,1.41,3.22,4.11v.19H57.57c0,1.94,1.13,3,2.59,3A3.3,3.3,0,0,0,62.7,126l.51.67a3.86,3.86,0,0,1-3.06,1.37C58.16,128.06,56.54,126.64,56.54,123.94Zm5.68-.6c-.1-1.5-.82-2.62-2.23-2.62-1.14,0-2.22.85-2.4,2.63Z"/><path class="cls-19" d="M68.12,124c0-2.64,1.63-4.11,3.58-4.11s3.57,1.47,3.57,4.11-1.64,4.11-3.57,4.11S68.12,126.58,68.12,124Zm6.12,0c0-1.74-.87-3.23-2.54-3.23s-2.55,1.37-2.55,3.23.85,3.23,2.55,3.23S74.24,125.81,74.24,124Z"/><path class="cls-19" d="M77.47,127.9v-7H76.11V120h1.37v-1.2c0-1.33.76-2,2.28-2l.54,0,.1.85a3.59,3.59,0,0,0-.58,0c-.75,0-1.3.29-1.3,1.14V120h1.74v.87H78.51v7Z"/><path class="cls-19" d="M85.77,126v-5.14H84.4V120h1.37v-2.77l1-.15V120h2.05v.87H86.8v5c0,.84.31,1.26,1.23,1.26a3,3,0,0,0,.78-.1l.12.89a7,7,0,0,1-1.08.09C86.44,128,85.77,127.46,85.77,126Z"/><path class="cls-19" d="M90.55,127.9v-11l1-.15v4.53a4.27,4.27,0,0,1,3-1.41A2.11,2.11,0,0,1,97,122.17v5.73h-1v-5.52c0-1.11-.48-1.65-1.59-1.65a4,4,0,0,0-2.75,1.38v5.79Z"/><path class="cls-19" d="M98.8,123.94c0-2.79,1.8-4.09,3.46-4.09,1.83,0,3.22,1.41,3.22,4.11v.19H99.83c0,1.94,1.12,3,2.59,3A3.3,3.3,0,0,0,105,126l.51.67a3.86,3.86,0,0,1-3.06,1.37C100.42,128.06,98.8,126.64,98.8,123.94Zm5.68-.6c-.11-1.5-.83-2.62-2.24-2.62-1.14,0-2.22.85-2.4,2.63Z"/><path class="cls-19" d="M110.83,131V120h.93l.1,1.11a3.48,3.48,0,0,1,2.64-1.27c1.81,0,3.25,1.33,3.25,4.09S116.3,128,114.47,128a3.56,3.56,0,0,1-2.61-1.21v4Zm5.9-7c0-2.17-1.08-3.23-2.4-3.23a3.4,3.4,0,0,0-2.46,1.29v3.87a3.41,3.41,0,0,0,2.49,1.27C115.67,127.16,116.72,126.22,116.72,124Z"/><path class="cls-19" d="M119.7,127.9V120h.93l.1,1.54h0a3.46,3.46,0,0,1,3.1-1.71H124l.09,1a3.11,3.11,0,0,0-.37,0,3.21,3.21,0,0,0-3,2v5.15Z"/><path class="cls-19" d="M124.86,124c0-2.64,1.63-4.11,3.58-4.11S132,121.31,132,124s-1.64,4.11-3.57,4.11S124.86,126.58,124.86,124Zm6.12,0c0-1.74-.87-3.23-2.54-3.23s-2.55,1.37-2.55,3.23.85,3.23,2.55,3.23S131,125.81,131,124Z"/><path class="cls-19" d="M133.5,124c0-2.83,1.75-4.11,3.52-4.11a3.1,3.1,0,0,1,2.91,1.88l-.81.5a2.19,2.19,0,0,0-2.13-1.5c-1.17,0-2.46.88-2.46,3.24,0,2,1,3.24,2.44,3.24a2.32,2.32,0,0,0,2.21-1.54l.76.5a3.2,3.2,0,0,1-3,1.92C135.11,128.06,133.5,126.58,133.5,124Z"/><path class="cls-19" d="M141.66,125.74V120h1v5.52c0,1.11.47,1.65,1.58,1.65A4.11,4.11,0,0,0,147,125.8V120h1v7.89h-.93l-.11-1.25a4.4,4.4,0,0,1-3,1.41A2.11,2.11,0,0,1,141.66,125.74Z"/><path class="cls-19" d="M150.39,127.9V120h.93l.1,1.54h0a3.46,3.46,0,0,1,3.1-1.71h.11l.09,1a3.11,3.11,0,0,0-.37,0,3.21,3.21,0,0,0-3,2v5.15Z"/><path class="cls-19" d="M155.56,123.94c0-2.79,1.8-4.09,3.46-4.09,1.83,0,3.22,1.41,3.22,4.11v.19H156.6c0,1.94,1.13,3,2.59,3a3.3,3.3,0,0,0,2.54-1.17l.51.67a3.86,3.86,0,0,1-3.06,1.37C157.18,128.06,155.56,126.64,155.56,123.94Zm5.68-.6c-.1-1.5-.82-2.62-2.23-2.62-1.14,0-2.22.85-2.4,2.63Z"/><path class="cls-19" d="M164.17,127.9V120h.93l.11,1.25a4.1,4.1,0,0,1,2.89-1.41,2,2,0,0,1,2.19,1.42,4.37,4.37,0,0,1,3-1.42,2.05,2.05,0,0,1,2.28,2.34v5.71h-1v-5.52c0-1.11-.37-1.65-1.49-1.65a3.86,3.86,0,0,0-2.64,1.38v5.79h-1v-5.52c0-1.11-.37-1.65-1.5-1.65a3.89,3.89,0,0,0-2.64,1.38v5.79Z"/><path class="cls-19" d="M177.4,123.94c0-2.79,1.8-4.09,3.46-4.09,1.83,0,3.22,1.41,3.22,4.11v.19h-5.65c0,1.94,1.12,3,2.59,3a3.3,3.3,0,0,0,2.53-1.17l.51.67a3.86,3.86,0,0,1-3.06,1.37C179,128.06,177.4,126.64,177.4,123.94Zm5.68-.6c-.11-1.5-.83-2.62-2.24-2.62-1.14,0-2.22.85-2.4,2.63Z"/><path class="cls-19" d="M186,127.9V120h.93l.11,1.25a4.27,4.27,0,0,1,3-1.41,2.11,2.11,0,0,1,2.38,2.32v5.73h-1v-5.52c0-1.11-.48-1.67-1.59-1.67a4,4,0,0,0-2.75,1.38v5.8Z"/><path class="cls-19" d="M195.15,126v-5.14h-1.37V120h1.37v-2.77l1-.15V120h2.05v.87h-2.05v5c0,.84.31,1.26,1.23,1.26a3,3,0,0,0,.78-.1l.12.89a7,7,0,0,1-1.08.09C195.82,128,195.15,127.46,195.15,126Z"/><path class="cls-19" d="M203.47,131V120h.93l.11,1.11a3.47,3.47,0,0,1,2.64-1.27c1.82,0,3.25,1.33,3.25,4.09s-1.46,4.09-3.29,4.09a3.56,3.56,0,0,1-2.61-1.21v4Zm5.89-7c0-2.17-1.08-3.23-2.4-3.23a3.4,3.4,0,0,0-2.46,1.29v3.87a3.41,3.41,0,0,0,2.49,1.27C208.32,127.16,209.37,126.22,209.37,124Z"/><path class="cls-19" d="M212.35,127.9V120h.93l.11,1.54h0a3.46,3.46,0,0,1,3.1-1.71h.1l.09,1a3.12,3.12,0,0,0-.37,0,3.21,3.21,0,0,0-3,2v5.15Z"/><path class="cls-19" d="M217.51,124c0-2.64,1.63-4.11,3.58-4.11s3.57,1.47,3.57,4.11-1.63,4.11-3.57,4.11S217.51,126.58,217.51,124Zm6.12,0c0-1.74-.87-3.23-2.53-3.23s-2.55,1.37-2.55,3.23.85,3.23,2.55,3.23S223.63,125.81,223.63,124Z"/><path class="cls-19" d="M226.15,124c0-2.83,1.75-4.11,3.53-4.11a3.1,3.1,0,0,1,2.91,1.88l-.81.5a2.19,2.19,0,0,0-2.13-1.5c-1.17,0-2.46.88-2.46,3.24,0,2,1,3.24,2.45,3.24a2.32,2.32,0,0,0,2.2-1.54l.77.5a3.2,3.2,0,0,1-3,1.92C227.75,128.06,226.15,126.58,226.15,124Z"/><path class="cls-19" d="M233.91,123.94c0-2.79,1.8-4.09,3.46-4.09,1.83,0,3.22,1.41,3.22,4.11v.19h-5.65c0,1.94,1.12,3,2.59,3a3.3,3.3,0,0,0,2.53-1.17l.51.67a3.86,3.86,0,0,1-3.06,1.37C235.53,128.06,233.91,126.64,233.91,123.94Zm5.68-.6c-.11-1.5-.83-2.62-2.24-2.62-1.14,0-2.22.85-2.4,2.63Z"/><path class="cls-19" d="M242,126.64l.57-.63a3.21,3.21,0,0,0,2.54,1.19c1.35,0,2.05-.52,2.05-1.36s-.54-1.23-2.17-1.6c-1.91-.46-2.75-1-2.75-2.31,0-1.12,1-2.07,2.69-2.07a3.94,3.94,0,0,1,2.91,1.11l-.52.72a3.22,3.22,0,0,0-2.36-1c-1.2,0-1.71.56-1.71,1.17s.44,1.06,1.89,1.41c2.1.49,3,1,3,2.47S246.9,128,245.12,128A3.81,3.81,0,0,1,242,126.64Z"/><path class="cls-19" d="M249.59,126.64l.57-.63a3.21,3.21,0,0,0,2.53,1.19c1.35,0,2.06-.52,2.06-1.36s-.54-1.23-2.17-1.6c-1.91-.46-2.75-1-2.75-2.31,0-1.12,1-2.07,2.68-2.07a3.94,3.94,0,0,1,2.91,1.11l-.53.72a3.22,3.22,0,0,0-2.35-1c-1.2,0-1.71.56-1.71,1.17s.43,1.06,1.89,1.41c2.1.49,3,1,3,2.47s-1.29,2.28-3.08,2.28A3.82,3.82,0,0,1,249.59,126.64Z"/><path class="cls-19" d="M257.69,127.18a.69.69,0,0,1,.73-.77.7.7,0,0,1,.74.77.72.72,0,0,1-.74.79A.71.71,0,0,1,257.69,127.18Z"/><g id="Pantallas"><g id="_01A-Home" data-name="01A-Home"><g id="Imported-Layers-Copy"><path id="Fill-1" class="cls-19" d="M722.4,183.18c-5.54-5.4-11.81-8.49-18.87-11l-.6-.16a53.48,53.48,0,0,1,7.08-.85c.95,0,1.08-.32,1.06-.51s-.4-.44-1.27-.58a29,29,0,0,0-11.84.77l-.1,0a14.82,14.82,0,0,1,1.47,2q-1.37.36-2.73.78l.13.17a26.31,26.31,0,0,1,3.5,5.92c.25.59.47.56.67.44s.41-.52.39-1.17a12.09,12.09,0,0,0-1.05-4.44c.87.2,1.78.43,2.72.69a74.15,74.15,0,0,1,19.19,8.46c.61.37.79.31.85.23s-.13-.29-.59-.74"/><path id="Fill-2" class="cls-19" d="M697.86,170.88l-.05-.06a16.61,16.61,0,0,0-6.57-4.47,5.73,5.73,0,0,0-1.08-.18.9.9,0,0,0-.9.24c-.22.25-.21.39.09.66a31.73,31.73,0,0,1,3.83,2.94l-.57-.06c-12.21-1.08-21.18.15-28.8,2.91l-.91.36c-.36.15-.46.24-.39.39s.22.17.68.13c14-2.32,22.27-1.69,28.69-.71h0a31.93,31.93,0,0,0-6.06,3.61,13.39,13.39,0,0,0-1,.94c-.39.39-.49.59-.34.86s.37.26.94.05a58.3,58.3,0,0,1,10.9-4.78l.28-.09q-.76-1-1.6-1.86c.94-.33,1.9-.63,2.86-.89"/><path id="Fill-3" class="cls-19" d="M648.78,194.91v-7.33c0-2.8-1.86-3.71-4-3.71a7.52,7.52,0,0,0-3.49.85l.44,1.1a6.36,6.36,0,0,1,2.75-.72c1.46,0,2.52.51,2.52,2.27v.7c-3.54.36-6.37,1.25-6.37,4.28,0,2.08,1.38,3.37,4.34,3.37a8,8,0,0,0,3.79-.8m-1.76-.66a4.16,4.16,0,0,1-1.89.38c-1.69,0-2.71-.68-2.71-2.33,0-2.31,1.72-2.92,4.6-3.28v5.23"/><path id="Fill-4" class="cls-19" d="M659.94,194.91v-16h-1.84v5.36a6.46,6.46,0,0,0-1.8-.25c-2.94,0-5,2.2-5,6,0,3.45,1.76,5.74,5,5.74a7,7,0,0,0,3.58-.8m-1.84-.74a3.08,3.08,0,0,1-1.65.32c-2.33,0-3.26-2-3.26-4.66,0-2.48.85-4.77,3.49-4.77a5.36,5.36,0,0,1,1.42.21v8.89"/><path id="Fill-5" class="cls-19" d="M671.1,200.06V184.68a6.39,6.39,0,0,0-3.41-.81c-3.54,0-5.19,2.6-5.19,6.14s1.74,5.65,4.47,5.65a4.65,4.65,0,0,0,2.31-.53v4.91h1.82m-1.82-6a3.71,3.71,0,0,1-1.82.47c-2.16,0-3.11-1.69-3.11-4.59s1-4.93,3.3-4.93a3.4,3.4,0,0,1,1.63.32v8.75"/><path id="Fill-6" class="cls-19" d="M678.15,195.74c-2.86,0-4-1.44-4-3.73v-7.92H676v8a2.13,2.13,0,0,0,2.29,2.35,3.85,3.85,0,0,0,2.05-.47v-9.87h1.86v10.74a8.09,8.09,0,0,1-4,.91"/><path id="Fill-7" class="cls-19" d="M685.3,184.09h1.86V195.5H685.3Z"/><path id="Fill-8" class="cls-19" d="M694.75,185.32a3.36,3.36,0,0,0-2.6.21v10h-1.86V184.7c1.12-.57,2.2-.87,4.91-.8l-.44,1.42"/><path id="Fill-9" class="cls-19" d="M704.3,194.91v-7.33c0-2.8-1.86-3.71-4-3.71a7.54,7.54,0,0,0-3.49.85l.44,1.1a6.37,6.37,0,0,1,2.75-.72c1.46,0,2.52.51,2.52,2.27v.7c-3.54.36-6.37,1.25-6.37,4.28,0,2.08,1.38,3.37,4.34,3.37a8,8,0,0,0,3.79-.8m-1.76-.66a4.16,4.16,0,0,1-1.88.38c-1.69,0-2.71-.68-2.71-2.33,0-2.31,1.72-2.92,4.6-3.28v5.23"/></g></g></g><line class="cls-20" x1="377.43" y1="51.84" x2="377.43" y2="396.71"/><line class="cls-20" x1="350.24" y1="47" x2="371.07" y2="47"/><line class="cls-20" x1="382.74" y1="47" x2="403.58" y2="47"/></g></svg>