<svg xmlns="http://www.w3.org/2000/svg" xmlns:xlink="http://www.w3.org/1999/xlink" viewBox="0 0 744 313"><defs><style>.cls-1{fill:#2a86ca;}.cls-2{fill:#004283;}.cls-3{fill:#fff;}.cls-4{clip-path:url(#clip-path);}.cls-5{clip-path:url(#clip-path-2);}.cls-6{isolation:isolate;}.cls-7{clip-path:url(#clip-path-3);}.cls-8{clip-path:url(#clip-path-4);}.cls-9{clip-path:url(#clip-path-5);}.cls-10{fill:#2ecdcd;}.cls-11{fill:#02a5a5;}.cls-12{fill:#d3d3d3;}.cls-13{fill:#ddc170;}.cls-13,.cls-14,.cls-15,.cls-16,.cls-17,.cls-18,.cls-20,.cls-21,.cls-23{fill-rule:evenodd;}.cls-14{fill:#0086cd;}.cls-15{fill:#aa9150;}.cls-16,.cls-19{fill:#2f83c5;}.cls-17,.cls-22{fill:#1b2443;}.cls-18{fill:#fbe18f;}.cls-20{fill:#c19c2a;}.cls-21{fill:#9c761b;}.cls-23{fill:none;stroke:#2a86ca;stroke-miterlimit:10;stroke-width:0.95px;}</style><clipPath id="clip-path"><circle class="cls-1" cx="609.25" cy="58.88" r="41.21"/></clipPath><clipPath id="clip-path-2"><rect class="cls-2" x="426.04" y="-22.65" width="716.71" height="201.57"/></clipPath><clipPath id="clip-path-3"><rect class="cls-2" x="568.04" y="17.67" width="82.42" height="82.42"/></clipPath><clipPath id="clip-path-4"><rect class="cls-2" x="558.63" y="17.67" width="101.68" height="137.97"/></clipPath><clipPath id="clip-path-5"><rect class="cls-2" x="565.8" y="15.43" width="86.9" height="86.9"/></clipPath></defs><title>proveedores-relaciones-eng</title><g id="cab"><path class="cls-3" d="M22.09,259.84V249.63H18.47v-1H26.7l.17,1h-3.7v10.21Z"/><path class="cls-3" d="M28.38,259.84V248.71l1-.15v4.58a4.32,4.32,0,0,1,3-1.42,2.14,2.14,0,0,1,2.41,2.35v5.79h-1v-5.58c0-1.12-.49-1.67-1.61-1.67A4,4,0,0,0,29.43,254v5.85Z"/><path class="cls-3" d="M36.59,255.84c0-2.82,1.82-4.14,3.5-4.14,1.85,0,3.26,1.42,3.26,4.15v.2H37.64c0,2,1.14,3.08,2.62,3.08a3.33,3.33,0,0,0,2.56-1.18l.51.68A3.9,3.9,0,0,1,40.25,260C38.23,260,36.59,258.57,36.59,255.84Zm5.74-.61c-.11-1.52-.83-2.65-2.26-2.65-1.15,0-2.24.86-2.42,2.65Z"/><path class="cls-3" d="M48.73,259.84V248.63h3.73c2.42,0,3.92,1,3.92,3.06,0,2.27-1.67,3.18-4,3.18H49.81v5Zm1.08-5.92h2.62c1.85,0,2.88-.59,2.88-2.2s-1-2.11-2.89-2.11H49.81Z"/><path class="cls-3" d="M58,259.84v-8h.94l.11,1.56h0a3.49,3.49,0,0,1,3.14-1.73h.11l.09,1a3.17,3.17,0,0,0-.38,0,3.24,3.24,0,0,0-3,2v5.2Z"/><path class="cls-3" d="M63.73,249.45a.64.64,0,0,1,1.27,0,.64.64,0,1,1-1.27,0Zm.12,10.39v-8h1v8Z"/><path class="cls-3" d="M67.16,259.84v-8h.94l.11,1.26a4.32,4.32,0,0,1,3-1.42,2.14,2.14,0,0,1,2.41,2.35v5.79h-1v-5.58c0-1.12-.49-1.68-1.61-1.68A4,4,0,0,0,68.2,254v5.86Z"/><path class="cls-3" d="M75.37,255.86c0-2.86,1.77-4.15,3.56-4.15a3.13,3.13,0,0,1,2.94,1.89l-.82.5a2.21,2.21,0,0,0-2.15-1.52c-1.18,0-2.49.89-2.49,3.27,0,2,1.06,3.27,2.47,3.27a2.35,2.35,0,0,0,2.23-1.56l.77.5A3.23,3.23,0,0,1,78.82,260C77,260,75.37,258.51,75.37,255.86Z"/><path class="cls-3" d="M83.48,249.45a.64.64,0,0,1,1.27,0,.64.64,0,1,1-1.27,0Zm.12,10.39v-8h1v8Z"/><path class="cls-3" d="M86.91,262.95V251.87h.94L88,253a3.51,3.51,0,0,1,2.67-1.29c1.83,0,3.29,1.35,3.29,4.14S92.44,260,90.59,260A3.59,3.59,0,0,1,88,258.75v4Zm6-7.09c0-2.2-1.09-3.26-2.42-3.26A3.44,3.44,0,0,0,88,253.9v3.91a3.45,3.45,0,0,0,2.51,1.29C91.8,259.1,92.86,258.14,92.86,255.86Z"/><path class="cls-3" d="M95.81,259.84V248.71l1-.15v11.29Z"/><path class="cls-3" d="M98.71,255.84c0-2.82,1.82-4.14,3.5-4.14,1.85,0,3.26,1.42,3.26,4.15v.2H99.75c0,2,1.14,3.08,2.62,3.08a3.33,3.33,0,0,0,2.56-1.18l.51.68a3.9,3.9,0,0,1-3.09,1.38C100.34,260,98.71,258.57,98.71,255.84Zm5.74-.61c-.11-1.52-.83-2.65-2.26-2.65-1.15,0-2.24.86-2.42,2.65Z"/><path class="cls-3" d="M106.79,258.57l.58-.64a3.24,3.24,0,0,0,2.56,1.2c1.36,0,2.08-.53,2.08-1.38s-.55-1.24-2.2-1.62c-1.92-.47-2.77-1-2.77-2.33,0-1.14,1-2.09,2.71-2.09a4,4,0,0,1,2.94,1.12l-.53.73a3.26,3.26,0,0,0-2.38-1c-1.21,0-1.73.56-1.73,1.18s.44,1.08,1.91,1.42c2.12.5,3.06,1,3.06,2.5s-1.3,2.3-3.11,2.3A3.85,3.85,0,0,1,106.79,258.57Z"/><path class="cls-3" d="M117.52,259.84l4-11.26h1.15l4,11.17-1.06.18-1.23-3.55h-4.55l-1.2,3.45Zm2.58-4.41H124L122,249.86h0Z"/><path class="cls-3" d="M128.17,262.95V251.87h.94l.11,1.12a3.51,3.51,0,0,1,2.67-1.29c1.83,0,3.29,1.35,3.29,4.14S133.7,260,131.85,260a3.59,3.59,0,0,1-2.64-1.23v4Zm6-7.09c0-2.2-1.09-3.26-2.42-3.26a3.44,3.44,0,0,0-2.48,1.3v3.91a3.45,3.45,0,0,0,2.51,1.29C133.06,259.1,134.12,258.14,134.12,255.86Z"/><path class="cls-3" d="M137,262.95V251.87H138l.11,1.12a3.51,3.51,0,0,1,2.67-1.29c1.83,0,3.29,1.35,3.29,4.14s-1.47,4.14-3.32,4.14a3.59,3.59,0,0,1-2.64-1.23v4Zm6-7.09c0-2.2-1.09-3.26-2.42-3.26a3.44,3.44,0,0,0-2.48,1.3v3.91a3.45,3.45,0,0,0,2.51,1.29C141.91,259.1,143,258.14,143,255.86Z"/><path class="cls-3" d="M145.91,259.84V248.71l1-.15v11.29Z"/><path class="cls-3" d="M149.14,249.45a.64.64,0,0,1,1.27,0,.64.64,0,1,1-1.27,0Zm.12,10.39v-8h1v8Z"/><path class="cls-3" d="M152.12,255.86c0-2.86,1.77-4.15,3.56-4.15a3.13,3.13,0,0,1,2.94,1.89l-.82.5a2.21,2.21,0,0,0-2.15-1.52c-1.18,0-2.49.89-2.49,3.27,0,2,1.06,3.27,2.47,3.27a2.35,2.35,0,0,0,2.23-1.56l.77.5a3.23,3.23,0,0,1-3.06,1.94C153.74,260,152.12,258.51,152.12,255.86Z"/><path class="cls-3" d="M160,258c0-1.58,1.35-2.71,5.41-3.33v-.41a1.46,1.46,0,0,0-1.64-1.64,4.19,4.19,0,0,0-3,1.26l-.59-.65a5,5,0,0,1,3.62-1.48,2.29,2.29,0,0,1,2.59,2.55v5.59h-.92l-.11-1.14a4.64,4.64,0,0,1-3.15,1.27A2,2,0,0,1,160,258Zm5.41-.11v-2.48c-3.52.61-4.38,1.44-4.38,2.47,0,.83.54,1.27,1.45,1.27A4.16,4.16,0,0,0,165.41,257.86Z"/><path class="cls-3" d="M169.67,258.75l0,1.09h-1V248.71l1-.15V253a3.44,3.44,0,0,1,2.67-1.32c1.83,0,3.29,1.35,3.29,4.14S174.15,260,172.3,260A3.59,3.59,0,0,1,169.67,258.75Zm4.91-2.89c0-2.2-1.09-3.26-2.42-3.26a3.44,3.44,0,0,0-2.48,1.3v3.91a3.45,3.45,0,0,0,2.51,1.29C173.52,259.1,174.58,258.11,174.58,255.86Z"/><path class="cls-3" d="M177.52,259.84V248.71l1-.15v11.29Z"/><path class="cls-3" d="M180.42,255.84c0-2.82,1.82-4.14,3.5-4.14,1.85,0,3.26,1.42,3.26,4.15v.2h-5.71c0,2,1.14,3.08,2.62,3.08a3.33,3.33,0,0,0,2.56-1.18l.51.68a3.9,3.9,0,0,1-3.09,1.38C182.06,260,180.42,258.57,180.42,255.84Zm5.74-.61c-.11-1.52-.83-2.65-2.26-2.65-1.15,0-2.24.86-2.42,2.65Z"/><path class="cls-3" d="M192.3,249.45a.64.64,0,0,1,1.27,0,.64.64,0,1,1-1.27,0Zm.12,10.39v-8h1v8Z"/><path class="cls-3" d="M195.73,259.84v-8h.94l.11,1.26a4.32,4.32,0,0,1,3-1.42,2.14,2.14,0,0,1,2.41,2.35v5.79h-1v-5.58c0-1.12-.49-1.68-1.61-1.68a4,4,0,0,0-2.77,1.39v5.86Z"/><path class="cls-3" d="M208.24,257.95v-5.2h-1.38v-.88h1.38v-2.8l1-.15v3h2.08v.88h-2.08v5c0,.85.32,1.27,1.24,1.27a3,3,0,0,0,.79-.11l.12.89a7,7,0,0,1-1.09.09C208.92,259.95,208.24,259.4,208.24,257.95Z"/><path class="cls-3" d="M212.95,259.84V248.71l1-.15v4.58a4.32,4.32,0,0,1,3-1.42,2.14,2.14,0,0,1,2.41,2.35v5.79h-1v-5.58c0-1.12-.49-1.67-1.61-1.67A4,4,0,0,0,214,254v5.85Z"/><path class="cls-3" d="M221.16,255.84c0-2.82,1.82-4.14,3.5-4.14,1.85,0,3.26,1.42,3.26,4.15v.2H222.2c0,2,1.14,3.08,2.62,3.08a3.33,3.33,0,0,0,2.56-1.18l.51.68a3.9,3.9,0,0,1-3.09,1.38C222.79,260,221.16,258.57,221.16,255.84Zm5.74-.61c-.11-1.52-.83-2.65-2.26-2.65-1.15,0-2.24.86-2.42,2.65Z"/><path class="cls-3" d="M32.71,278.78V267.57h3.73c2.42,0,3.92,1,3.92,3.06,0,2.27-1.67,3.18-4,3.18H33.78v5Zm1.08-5.92H36.4c1.85,0,2.88-.59,2.88-2.2s-1-2.11-2.89-2.11H33.78Z"/><path class="cls-3" d="M42,278.78v-8h.94l.11,1.56h0a3.49,3.49,0,0,1,3.14-1.73h.11l.09,1a3.17,3.17,0,0,0-.38,0,3.24,3.24,0,0,0-3,2v5.2Z"/><path class="cls-3" d="M47.08,274.8c0-2.67,1.65-4.15,3.62-4.15s3.61,1.48,3.61,4.15-1.65,4.15-3.61,4.15S47.08,277.45,47.08,274.8Zm6.18,0c0-1.76-.88-3.26-2.56-3.26s-2.58,1.38-2.58,3.26.86,3.26,2.58,3.26S53.26,276.68,53.26,274.8Z"/><path class="cls-3" d="M55.68,274.8c0-2.86,1.77-4.15,3.56-4.15a3.13,3.13,0,0,1,2.94,1.89l-.82.5a2.21,2.21,0,0,0-2.15-1.52c-1.18,0-2.49.89-2.49,3.27,0,2,1.06,3.27,2.47,3.27a2.35,2.35,0,0,0,2.23-1.56l.77.5a3.23,3.23,0,0,1-3.06,1.94C57.3,278.95,55.68,277.45,55.68,274.8Z"/><path class="cls-3" d="M63.8,276.6v-5.79h1v5.58c0,1.12.47,1.67,1.59,1.67a4.15,4.15,0,0,0,2.79-1.39v-5.85h1v8h-.94l-.11-1.26a4.44,4.44,0,0,1-3,1.42A2.13,2.13,0,0,1,63.8,276.6Z"/><path class="cls-3" d="M72.5,278.78v-8h.94l.11,1.56h0a3.49,3.49,0,0,1,3.14-1.73h.11l.09,1a3.17,3.17,0,0,0-.38,0,3.24,3.24,0,0,0-3,2v5.2Z"/><path class="cls-3" d="M77.6,274.78c0-2.82,1.82-4.14,3.5-4.14,1.85,0,3.26,1.42,3.26,4.15v.2H78.65c0,2,1.14,3.08,2.62,3.08a3.33,3.33,0,0,0,2.56-1.18l.51.68a3.9,3.9,0,0,1-3.09,1.38C79.24,278.95,77.6,277.51,77.6,274.78Zm5.74-.61c-.11-1.52-.83-2.65-2.26-2.65-1.15,0-2.24.86-2.42,2.65Z"/><path class="cls-3" d="M86.17,278.78v-8h.94l.11,1.26a4.14,4.14,0,0,1,2.92-1.42,2,2,0,0,1,2.21,1.44,4.41,4.41,0,0,1,3-1.44,2.08,2.08,0,0,1,2.3,2.36v5.77h-1v-5.58c0-1.12-.38-1.67-1.5-1.67a3.89,3.89,0,0,0-2.67,1.39v5.85h-1v-5.58c0-1.12-.38-1.67-1.51-1.67a3.92,3.92,0,0,0-2.67,1.39v5.85Z"/><path class="cls-3" d="M99.42,274.78c0-2.82,1.82-4.14,3.5-4.14,1.85,0,3.26,1.42,3.26,4.15v.2h-5.71c0,2,1.14,3.08,2.62,3.08a3.33,3.33,0,0,0,2.56-1.18l.51.68a3.9,3.9,0,0,1-3.09,1.38C101.06,278.95,99.42,277.51,99.42,274.78Zm5.74-.61c-.11-1.52-.83-2.65-2.26-2.65-1.15,0-2.24.86-2.42,2.65Z"/><path class="cls-3" d="M108,278.78v-8h.94l.11,1.26a4.32,4.32,0,0,1,3-1.42,2.14,2.14,0,0,1,2.41,2.35v5.79h-1v-5.58c0-1.12-.49-1.68-1.61-1.68a4,4,0,0,0-2.77,1.39v5.86Z"/><path class="cls-3" d="M117.1,276.89v-5.2h-1.38v-.88h1.38V268l1-.15v3h2.08v.88h-2.08v5c0,.85.32,1.27,1.24,1.27a3,3,0,0,0,.79-.11l.12.89a7,7,0,0,1-1.09.09C117.79,278.89,117.1,278.34,117.1,276.89Z"/><path class="cls-3" d="M125.5,278.78V267.57h3.73c2.42,0,3.92,1,3.92,3.06,0,2.27-1.67,3.18-4,3.18h-2.54v5Zm1.08-5.92h2.62c1.85,0,2.88-.59,2.88-2.2s-1-2.11-2.89-2.11h-2.61Z"/><path class="cls-3" d="M134.77,278.78v-8h.94l.11,1.56h0a3.49,3.49,0,0,1,3.14-1.73h.11l.09,1a3.17,3.17,0,0,0-.38,0,3.24,3.24,0,0,0-3,2v5.2Z"/><path class="cls-3" d="M139.87,274.8c0-2.67,1.65-4.15,3.62-4.15s3.61,1.48,3.61,4.15-1.65,4.15-3.61,4.15S139.87,277.45,139.87,274.8Zm6.18,0c0-1.76-.88-3.26-2.56-3.26s-2.58,1.38-2.58,3.26.86,3.26,2.58,3.26S146,276.68,146,274.8Z"/><path class="cls-3" d="M148.47,274.8c0-2.86,1.77-4.15,3.56-4.15a3.13,3.13,0,0,1,2.94,1.89l-.82.5a2.21,2.21,0,0,0-2.15-1.52c-1.18,0-2.49.89-2.49,3.27,0,2,1.06,3.27,2.47,3.27a2.35,2.35,0,0,0,2.23-1.56l.77.5a3.23,3.23,0,0,1-3.06,1.94C150.09,278.95,148.47,277.45,148.47,274.8Z"/><path class="cls-3" d="M156.19,274.78c0-2.82,1.82-4.14,3.5-4.14,1.85,0,3.26,1.42,3.26,4.15v.2h-5.71c0,2,1.14,3.08,2.62,3.08a3.33,3.33,0,0,0,2.56-1.18l.51.68a3.9,3.9,0,0,1-3.09,1.38C157.83,278.95,156.19,277.51,156.19,274.78Zm5.74-.61c-.11-1.52-.83-2.65-2.26-2.65-1.15,0-2.24.86-2.42,2.65Z"/><path class="cls-3" d="M164.27,277.51l.58-.64a3.24,3.24,0,0,0,2.56,1.2c1.36,0,2.08-.53,2.08-1.38s-.55-1.24-2.2-1.62c-1.92-.47-2.77-1-2.77-2.33,0-1.14,1-2.09,2.71-2.09a4,4,0,0,1,2.94,1.12l-.53.73a3.26,3.26,0,0,0-2.38-1c-1.21,0-1.73.56-1.73,1.18s.44,1.08,1.91,1.42c2.12.5,3.06,1,3.06,2.5s-1.3,2.3-3.11,2.3A3.85,3.85,0,0,1,164.27,277.51Z"/><path class="cls-3" d="M171.79,277.51l.58-.64a3.24,3.24,0,0,0,2.56,1.2c1.36,0,2.08-.53,2.08-1.38s-.55-1.24-2.2-1.62c-1.92-.47-2.77-1-2.77-2.33,0-1.14,1-2.09,2.71-2.09a4,4,0,0,1,2.94,1.12l-.53.73a3.26,3.26,0,0,0-2.38-1c-1.21,0-1.73.56-1.73,1.18s.44,1.08,1.91,1.42c2.12.5,3.06,1,3.06,2.5s-1.3,2.3-3.11,2.3A3.85,3.85,0,0,1,171.79,277.51Z"/><path class="cls-3" d="M186.7,281.89c-2.47-2.08-3.77-4.36-3.77-7.24s1.3-5.17,3.77-7.24l.47.53a8.84,8.84,0,0,0,0,13.44Z"/><path class="cls-3" d="M189.11,278.78V267.57h1.08v11.21Z"/><path class="cls-3" d="M192.9,278.78V267.57h3.73c2.42,0,3.92,1,3.92,3.06,0,2.27-1.67,3.18-4,3.18H194v5Zm1.08-5.92h2.62c1.85,0,2.88-.59,2.88-2.2s-1-2.11-2.89-2.11H194Z"/><path class="cls-3" d="M200.63,278.78l4-11.26h1.15l4,11.17-1.06.18-1.23-3.55h-4.55l-1.2,3.45Zm2.58-4.41h3.88l-1.92-5.58h0Z"/><path class="cls-3" d="M210.16,281.37a8.82,8.82,0,0,0,0-13.44l.47-.53c2.47,2.08,3.79,4.38,3.79,7.24s-1.32,5.17-3.79,7.24Z"/><path class="cls-3" d="M80.86,139.17c0-4.14,2.37-6.51,5.47-6.51a4.75,4.75,0,0,1,4.74,2.91l-1.81,1.07a3,3,0,0,0-2.93-2c-2.15,0-3.34,1.77-3.34,4.53,0,2.91,1.26,4.69,3.46,4.69a3.16,3.16,0,0,0,3.08-2.35l1.84.84a4.82,4.82,0,0,1-4.93,3.43C83.2,145.75,80.86,143.43,80.86,139.17Z"/><path class="cls-3" d="M92.78,141c0-3.32,2.2-4.7,4.41-4.7s4.4,1.38,4.4,4.7-2.2,4.7-4.4,4.7S92.78,144.3,92.78,141Zm6.73,0c0-1.67-.73-2.93-2.32-2.93s-2.32,1.14-2.32,2.93.7,2.93,2.32,2.93S99.51,142.73,99.51,141Z"/><path class="cls-3" d="M103,141c0-3.14,1.53-4.76,3.61-4.76a3.51,3.51,0,0,1,2.85,1.21V133l2.1-.31v12.77h-1.93l-.17-1.19a3.51,3.51,0,0,1-2.88,1.33C104.47,145.64,103,144.18,103,141Zm6.46,1.76v-3.68a3.05,3.05,0,0,0-2.23-1.09c-1.28,0-2.13,1-2.13,3,0,1.86.82,2.9,2.16,2.9A3.09,3.09,0,0,0,109.41,142.8Z"/><path class="cls-3" d="M113.31,141a4.33,4.33,0,0,1,4.31-4.7c2,0,4,1.21,4,4.89v.49h-6.19a2.27,2.27,0,0,0,2.46,2.35,4,4,0,0,0,2.79-1.16l.83,1.38a5.11,5.11,0,0,1-3.75,1.45C115.41,145.69,113.31,144.31,113.31,141Zm6.36-.87c-.1-1.33-.8-2.13-2.06-2.13a2.2,2.2,0,0,0-2.18,2.13Z"/><path class="cls-3" d="M127.2,141c0-3.32,2.2-4.7,4.41-4.7s4.4,1.38,4.4,4.7-2.2,4.7-4.4,4.7S127.2,144.3,127.2,141Zm6.73,0c0-1.67-.73-2.93-2.32-2.93s-2.32,1.14-2.32,2.93.7,2.93,2.32,2.93S133.94,142.73,133.94,141Z"/><path class="cls-3" d="M138.43,145.51v-7.38H136.9v-1.65h1.53v-.94c0-1.52.63-2.69,2.92-2.69.41,0,1,.07,1.18.08l.14,1.55a3.56,3.56,0,0,0-.78-.09c-.75,0-1.36.2-1.36,1.18v.9h2v1.65h-2v7.38Z"/><path class="cls-3" d="M80.86,160c0-4.14,2.37-6.51,5.47-6.51a4.75,4.75,0,0,1,4.74,2.91l-1.81,1.07a3,3,0,0,0-2.93-2c-2.15,0-3.34,1.77-3.34,4.53,0,2.91,1.26,4.69,3.46,4.69a3.16,3.16,0,0,0,3.08-2.35l1.84.84a4.82,4.82,0,0,1-4.93,3.43C83.2,166.58,80.86,164.26,80.86,160Z"/><path class="cls-3" d="M92.78,161.83c0-3.32,2.2-4.7,4.41-4.7s4.4,1.38,4.4,4.7-2.2,4.7-4.4,4.7S92.78,165.13,92.78,161.83Zm6.73,0c0-1.67-.73-2.93-2.32-2.93s-2.32,1.14-2.32,2.93.7,2.93,2.32,2.93S99.51,163.56,99.51,161.84Z"/><path class="cls-3" d="M103.4,166.34v-9h1.93l.17,1.28a4.3,4.3,0,0,1,3.26-1.47,2.39,2.39,0,0,1,2.66,2.64v6.58h-2.08v-6c0-1-.41-1.52-1.38-1.52a3.66,3.66,0,0,0-2.45,1.18v6.31Z"/><path class="cls-3" d="M113.2,161.88c0-3.14,1.53-4.76,3.61-4.76a3.51,3.51,0,0,1,2.85,1.21v-4.45l2.1-.31v12.77h-1.93l-.17-1.19a3.51,3.51,0,0,1-2.88,1.33C114.72,166.48,113.2,165,113.2,161.88Zm6.46,1.76V160a3.05,3.05,0,0,0-2.23-1.09c-1.28,0-2.13,1-2.13,3,0,1.86.82,2.9,2.16,2.9A3.09,3.09,0,0,0,119.66,163.63Z"/><path class="cls-3" d="M124,163.89v-6.58h2.1v6c0,1,.39,1.43,1.36,1.43a3.69,3.69,0,0,0,2.45-1.19v-6.25H132v9h-1.93l-.17-1.26a4.4,4.4,0,0,1-3.24,1.45A2.39,2.39,0,0,1,124,163.89Z"/><path class="cls-3" d="M133.79,161.83c0-3.46,2.33-4.7,4.35-4.7a3.87,3.87,0,0,1,3.67,2.28l-1.55,1a2.14,2.14,0,0,0-2.11-1.53c-1.23,0-2.25.92-2.25,3,0,1.81.8,3,2.25,3a2.42,2.42,0,0,0,2.25-1.69l1.55,1a4.1,4.1,0,0,1-3.92,2.4C135.92,166.53,133.79,165.13,133.79,161.83Z"/><path class="cls-3" d="M144.4,163.85V159h-1.53v-1.65h1.53v-3l2.08-.31v3.32h2.33V159h-2.33v4.57c0,1,.41,1.28,1.26,1.28a3.61,3.61,0,0,0,.92-.14l.17,1.65a11.82,11.82,0,0,1-1.65.14C145.27,166.46,144.4,165.81,144.4,163.85Z"/><path class="cls-3" d="M511.81,139.17c0-4.14,2.37-6.51,5.47-6.51a4.75,4.75,0,0,1,4.74,2.91l-1.81,1.07a3,3,0,0,0-2.93-2c-2.15,0-3.34,1.77-3.34,4.53,0,2.91,1.26,4.69,3.46,4.69a3.16,3.16,0,0,0,3.08-2.35l1.84.84a4.82,4.82,0,0,1-4.93,3.43C514.14,145.75,511.81,143.43,511.81,139.17Z"/><path class="cls-3" d="M523.72,141c0-3.32,2.2-4.7,4.41-4.7s4.4,1.38,4.4,4.7-2.2,4.7-4.4,4.7S523.72,144.3,523.72,141Zm6.73,0c0-1.67-.73-2.93-2.32-2.93s-2.32,1.14-2.32,2.93.7,2.93,2.32,2.93S530.45,142.73,530.45,141Z"/><path class="cls-3" d="M534.34,145.51v-9h1.93l.17,1.47h0a3.54,3.54,0,0,1,3.19-1.65h.08l.19,1.93a2.91,2.91,0,0,0-.54,0,3.23,3.23,0,0,0-2.93,1.6v5.73Z"/><path class="cls-3" d="M541.27,149.07v-12.6h1.93l.17,1.18a3.58,3.58,0,0,1,2.88-1.36c2.06,0,3.58,1.55,3.58,4.69s-1.53,4.67-3.61,4.67a3.64,3.64,0,0,1-2.85-1.12v4.24Zm6.46-8.08c0-1.87-.82-2.91-2.17-2.91a3.09,3.09,0,0,0-2.2,1.13v3.7a3,3,0,0,0,2.23,1.09C546.89,144,547.73,143.09,547.73,141Z"/><path class="cls-3" d="M551.19,141c0-3.32,2.2-4.7,4.41-4.7s4.4,1.38,4.4,4.7-2.2,4.7-4.4,4.7S551.19,144.3,551.19,141Zm6.73,0c0-1.67-.73-2.93-2.32-2.93s-2.32,1.14-2.32,2.93.7,2.93,2.32,2.93S557.92,142.73,557.92,141Z"/><path class="cls-3" d="M561.81,145.51v-9h1.93l.17,1.47h0a3.54,3.54,0,0,1,3.19-1.65h.08l.19,1.93a2.91,2.91,0,0,0-.54,0,3.23,3.23,0,0,0-2.93,1.6v5.73Z"/><path class="cls-3" d="M568.31,143.27c0-2,1.67-3.22,5.9-3.7v-.27c0-.83-.49-1.3-1.57-1.3a4.42,4.42,0,0,0-2.92,1.21l-1.14-1.28a6,6,0,0,1,4.33-1.65c2.33,0,3.34,1.16,3.34,3.27v5.95h-1.87l-.17-1.16a4.43,4.43,0,0,1-3.32,1.3A2.34,2.34,0,0,1,568.31,143.27Zm5.9-.29v-2c-2.92.41-3.85,1-3.85,1.94,0,.72.49,1.09,1.28,1.09A3.52,3.52,0,0,0,574.21,143Z"/><path class="cls-3" d="M579.08,143v-4.89h-1.53v-1.65h1.53v-3l2.08-.31v3.32h2.33v1.65h-2.33v4.57c0,1,.41,1.28,1.26,1.28a3.61,3.61,0,0,0,.92-.14l.17,1.65a11.82,11.82,0,0,1-1.65.14C580,145.63,579.08,145,579.08,143Z"/><path class="cls-3" d="M584.44,141a4.33,4.33,0,0,1,4.31-4.7c2,0,4,1.21,4,4.89v.49h-6.19A2.27,2.27,0,0,0,589,144a4,4,0,0,0,2.79-1.16l.83,1.38a5.11,5.11,0,0,1-3.75,1.45C586.53,145.69,584.44,144.31,584.44,141Zm6.36-.87c-.1-1.33-.8-2.13-2.06-2.13a2.2,2.2,0,0,0-2.18,2.13Z"/><path class="cls-3" d="M598.23,144.26l.8-1.41a4.94,4.94,0,0,0,3.12,1.23c1.13,0,1.81-.36,1.81-1s-.53-1-2-1.3c-1.91-.39-3.37-.9-3.37-2.85,0-1.6,1.33-2.66,3.32-2.66a5.91,5.91,0,0,1,3.66,1.14l-.73,1.48a4.78,4.78,0,0,0-2.78-1c-1,0-1.52.38-1.52.92s.49.87,1.84,1.16c2,.41,3.58.89,3.58,2.8s-1.72,2.86-3.8,2.86A5.78,5.78,0,0,1,598.23,144.26Z"/><path class="cls-3" d="M608.4,143v-4.89h-1.53v-1.65h1.53v-3l2.08-.31v3.32h2.33v1.65h-2.33v4.57c0,1,.41,1.28,1.26,1.28a3.61,3.61,0,0,0,.92-.14l.17,1.65a11.82,11.82,0,0,1-1.65.14C609.27,145.63,608.4,145,608.4,143Z"/><path class="cls-3" d="M614,143.27c0-2,1.67-3.22,5.9-3.7v-.27c0-.83-.49-1.3-1.57-1.3a4.42,4.42,0,0,0-2.92,1.21l-1.14-1.28a6,6,0,0,1,4.33-1.65c2.33,0,3.34,1.16,3.34,3.27v5.95H620l-.17-1.16a4.43,4.43,0,0,1-3.32,1.3A2.34,2.34,0,0,1,614,143.27Zm5.9-.29v-2c-2.92.41-3.85,1-3.85,1.94,0,.72.49,1.09,1.28,1.09A3.52,3.52,0,0,0,619.86,143Z"/><path class="cls-3" d="M624.12,145.51v-9H626l.17,1.28a4.3,4.3,0,0,1,3.26-1.47,2.39,2.39,0,0,1,2.66,2.64v6.58H630v-6c0-1-.41-1.52-1.38-1.52a3.66,3.66,0,0,0-2.45,1.18v6.31Z"/><path class="cls-3" d="M633.92,141c0-3.14,1.53-4.76,3.61-4.76a3.51,3.51,0,0,1,2.85,1.21V133l2.1-.31v12.77h-1.93l-.17-1.19a3.51,3.51,0,0,1-2.88,1.33C635.44,145.64,633.92,144.18,633.92,141Zm6.46,1.76v-3.68a3.05,3.05,0,0,0-2.23-1.09c-1.28,0-2.13,1-2.13,3,0,1.86.82,2.9,2.16,2.9A3.09,3.09,0,0,0,640.38,142.8Z"/><path class="cls-3" d="M644.18,143.27c0-2,1.67-3.22,5.9-3.7v-.27c0-.83-.5-1.3-1.57-1.3a4.42,4.42,0,0,0-2.92,1.21l-1.14-1.28a6,6,0,0,1,4.33-1.65c2.33,0,3.34,1.16,3.34,3.27v5.95h-1.87l-.17-1.16a4.43,4.43,0,0,1-3.32,1.3A2.34,2.34,0,0,1,644.18,143.27Zm5.9-.29v-2c-2.92.41-3.85,1-3.85,1.94,0,.72.49,1.09,1.28,1.09A3.52,3.52,0,0,0,650.08,143Z"/><path class="cls-3" d="M654.34,145.51v-9h1.93l.17,1.47h0a3.54,3.54,0,0,1,3.19-1.65h.08l.19,1.93a2.91,2.91,0,0,0-.54,0,3.23,3.23,0,0,0-2.93,1.6v5.73Z"/><path class="cls-3" d="M660.78,141c0-3.14,1.53-4.76,3.61-4.76a3.51,3.51,0,0,1,2.85,1.21V133l2.1-.31v12.77h-1.93l-.17-1.19a3.51,3.51,0,0,1-2.88,1.33C662.3,145.64,660.78,144.18,660.78,141Zm6.46,1.76v-3.68A3.05,3.05,0,0,0,665,138c-1.28,0-2.13,1-2.13,3,0,1.86.82,2.9,2.16,2.9A3.09,3.09,0,0,0,667.24,142.8Z"/><path class="cls-3" d="M676.72,145.51v-7.38h-1.53v-1.65h1.53v-.94c0-1.52.63-2.69,2.92-2.69.41,0,1,.07,1.18.08l.14,1.55a3.56,3.56,0,0,0-.78-.09c-.75,0-1.36.2-1.36,1.18v.9h2v1.65h-2v7.38Z"/><path class="cls-3" d="M681.64,141c0-3.32,2.2-4.7,4.41-4.7s4.4,1.38,4.4,4.7-2.2,4.7-4.4,4.7S681.64,144.3,681.64,141Zm6.73,0c0-1.67-.73-2.93-2.32-2.93s-2.32,1.14-2.32,2.93.7,2.93,2.32,2.93S688.38,142.73,688.38,141Z"/><path class="cls-3" d="M692.26,145.51v-9h1.93l.17,1.47h0a3.54,3.54,0,0,1,3.19-1.65h.08l.19,1.93a2.91,2.91,0,0,0-.54,0,3.23,3.23,0,0,0-2.93,1.6v5.73Z"/><path class="cls-3" d="M497,166.34V153.73h4.41c2.71,0,4.84.89,4.84,3.87s-2.32,4-4.91,4h-2.23v4.79Zm2.11-6.65h2.33c1.88,0,2.73-.63,2.73-2s-.83-2-2.74-2h-2.32Z"/><path class="cls-3" d="M507.82,166.34v-9h1.93l.17,1.47h0a3.54,3.54,0,0,1,3.19-1.65h.08l.19,1.93a2.91,2.91,0,0,0-.54,0,3.23,3.23,0,0,0-2.93,1.6v5.73Z"/><path class="cls-3" d="M514.19,161.83c0-3.32,2.2-4.7,4.41-4.7s4.4,1.38,4.4,4.7-2.2,4.7-4.4,4.7S514.19,165.13,514.19,161.83Zm6.73,0c0-1.67-.73-2.93-2.32-2.93s-2.32,1.14-2.32,2.93.7,2.93,2.32,2.93S520.92,163.56,520.92,161.84Z"/><path class="cls-3" d="M524.32,161.83c0-3.46,2.33-4.7,4.35-4.7a3.87,3.87,0,0,1,3.67,2.28l-1.55,1a2.14,2.14,0,0,0-2.11-1.53c-1.23,0-2.25.92-2.25,3,0,1.81.8,3,2.25,3a2.42,2.42,0,0,0,2.25-1.69l1.55,1a4.1,4.1,0,0,1-3.92,2.4C526.45,166.53,524.32,165.13,524.32,161.83Z"/><path class="cls-3" d="M533.94,163.89v-6.58H536v6c0,1,.39,1.43,1.36,1.43a3.69,3.69,0,0,0,2.45-1.19v-6.25h2.1v9H540l-.17-1.26a4.4,4.4,0,0,1-3.24,1.45A2.39,2.39,0,0,1,533.94,163.89Z"/><path class="cls-3" d="M544.22,166.34v-9h1.93l.17,1.47h0a3.54,3.54,0,0,1,3.19-1.65h.08l.19,1.93a2.91,2.91,0,0,0-.54,0,3.23,3.23,0,0,0-2.93,1.6v5.73Z"/><path class="cls-3" d="M550.58,161.83a4.33,4.33,0,0,1,4.31-4.7c2,0,4,1.21,4,4.89v.49h-6.19a2.27,2.27,0,0,0,2.46,2.35,4,4,0,0,0,2.79-1.16l.83,1.38a5.11,5.11,0,0,1-3.75,1.45C552.68,166.53,550.58,165.15,550.58,161.83Zm6.36-.87c-.1-1.33-.8-2.13-2.06-2.13A2.2,2.2,0,0,0,552.7,161Z"/><path class="cls-3" d="M560.69,166.34v-9h1.93l.17,1.28a4.09,4.09,0,0,1,3.1-1.47c1.52,0,2.25.58,2.49,1.47a4.36,4.36,0,0,1,3.15-1.47,2.42,2.42,0,0,1,2.64,2.73v6.49h-2.1v-6c0-1-.29-1.47-1.28-1.47a3.44,3.44,0,0,0-2.32,1.18v6.26h-2.1v-6c0-1-.29-1.47-1.28-1.47a3.47,3.47,0,0,0-2.32,1.18v6.26Z"/><path class="cls-3" d="M575.93,161.83a4.33,4.33,0,0,1,4.31-4.7c2,0,4,1.21,4,4.89v.49H578a2.27,2.27,0,0,0,2.46,2.35,4,4,0,0,0,2.79-1.16l.83,1.38a5.11,5.11,0,0,1-3.75,1.45C578,166.53,575.93,165.15,575.93,161.83Zm6.36-.87c-.1-1.33-.8-2.13-2.06-2.13A2.2,2.2,0,0,0,578,161Z"/><path class="cls-3" d="M586,166.34v-9H588l.17,1.28a4.3,4.3,0,0,1,3.26-1.47,2.39,2.39,0,0,1,2.66,2.64v6.58H592v-6c0-1-.41-1.52-1.38-1.52a3.66,3.66,0,0,0-2.45,1.18v6.31Z"/><path class="cls-3" d="M596.92,163.85V159h-1.53v-1.65h1.53v-3L599,154v3.32h2.33V159H599v4.57c0,1,.41,1.28,1.26,1.28a3.61,3.61,0,0,0,.92-.14l.17,1.65a11.82,11.82,0,0,1-1.65.14C597.79,166.46,596.92,165.81,596.92,163.85Z"/><path class="cls-3" d="M606.84,161.83c0-3.32,2.2-4.7,4.41-4.7s4.4,1.38,4.4,4.7-2.2,4.7-4.4,4.7S606.84,165.13,606.84,161.83Zm6.73,0c0-1.67-.73-2.93-2.32-2.93s-2.32,1.14-2.32,2.93.7,2.93,2.32,2.93S613.58,163.56,613.58,161.84Z"/><path class="cls-3" d="M618.07,166.34V159h-1.53v-1.65h1.53v-.94c0-1.52.63-2.69,2.92-2.69.41,0,1,.07,1.18.08l.14,1.55a3.56,3.56,0,0,0-.78-.09c-.75,0-1.36.2-1.36,1.18v.9h2V159h-2v7.38Z"/><path class="cls-3" d="M627.62,160c0-4,2.22-6.49,5.52-6.49a5,5,0,0,1,4.75,3l-1.82,1a2.92,2.92,0,0,0-2.85-2c-1.57,0-3.46,1.07-3.46,4.48s1.69,4.74,3.48,4.74a2.84,2.84,0,0,0,3-2.85h-2.4l-.31-1.72h4.74v6.24h-1.76v-1.41h0a3.76,3.76,0,0,1-3.48,1.65C629.41,166.58,627.62,163.77,627.62,160Z"/><path class="cls-3" d="M640.11,161.83c0-3.32,2.2-4.7,4.41-4.7s4.4,1.38,4.4,4.7-2.2,4.7-4.4,4.7S640.11,165.13,640.11,161.83Zm6.73,0c0-1.67-.73-2.93-2.32-2.93s-2.32,1.14-2.32,2.93.7,2.93,2.32,2.93S646.84,163.56,646.84,161.84Z"/><path class="cls-3" d="M650.24,161.83c0-3.32,2.2-4.7,4.41-4.7s4.4,1.38,4.4,4.7-2.2,4.7-4.4,4.7S650.24,165.13,650.24,161.83Zm6.73,0c0-1.67-.73-2.93-2.32-2.93s-2.32,1.14-2.32,2.93.7,2.93,2.32,2.93S657,163.56,657,161.84Z"/><path class="cls-3" d="M660.42,161.88c0-3.14,1.53-4.76,3.61-4.76a3.51,3.51,0,0,1,2.85,1.21v-4.45l2.1-.31v12.77H667l-.17-1.19a3.51,3.51,0,0,1-2.88,1.33C661.93,166.48,660.42,165,660.42,161.88Zm6.46,1.76V160a3.05,3.05,0,0,0-2.23-1.09c-1.28,0-2.13,1-2.13,3,0,1.86.82,2.9,2.16,2.9A3.09,3.09,0,0,0,666.88,163.63Z"/><path class="cls-3" d="M670.63,165.1l.8-1.41a4.94,4.94,0,0,0,3.12,1.23c1.13,0,1.81-.36,1.81-1s-.53-1-2-1.3c-1.91-.39-3.37-.9-3.37-2.85,0-1.6,1.33-2.66,3.32-2.66a5.91,5.91,0,0,1,3.66,1.14l-.73,1.48a4.78,4.78,0,0,0-2.78-1c-1,0-1.52.38-1.52.92s.49.87,1.84,1.16c2,.41,3.58.89,3.58,2.8s-1.72,2.86-3.8,2.86A5.78,5.78,0,0,1,670.63,165.1Z"/><path class="cls-3" d="M683.86,164.11c0-2,1.67-3.22,5.9-3.7v-.27c0-.83-.5-1.3-1.57-1.3a4.42,4.42,0,0,0-2.92,1.21l-1.14-1.28a6,6,0,0,1,4.33-1.65c2.33,0,3.34,1.16,3.34,3.27v5.95h-1.87l-.17-1.16a4.43,4.43,0,0,1-3.32,1.3A2.34,2.34,0,0,1,683.86,164.11Zm5.9-.29v-2c-2.92.41-3.85,1-3.85,1.94,0,.72.49,1.09,1.28,1.09A3.52,3.52,0,0,0,689.76,163.82Z"/><path class="cls-3" d="M694,166.34v-9h1.93l.17,1.28a4.3,4.3,0,0,1,3.26-1.47,2.39,2.39,0,0,1,2.66,2.64v6.58H700v-6c0-1-.41-1.52-1.38-1.52a3.66,3.66,0,0,0-2.45,1.18v6.31Z"/><path class="cls-3" d="M703.82,161.88c0-3.14,1.53-4.76,3.61-4.76a3.51,3.51,0,0,1,2.85,1.21v-4.45l2.1-.31v12.77h-1.93l-.17-1.19a3.51,3.51,0,0,1-2.88,1.33C705.34,166.48,703.82,165,703.82,161.88Zm6.46,1.76V160a3.05,3.05,0,0,0-2.23-1.09c-1.28,0-2.13,1-2.13,3,0,1.86.82,2.9,2.16,2.9A3.09,3.09,0,0,0,710.28,163.63Z"/><path class="cls-3" d="M520.22,180.84c0-4.14,2.37-6.51,5.47-6.51a4.75,4.75,0,0,1,4.74,2.91l-1.81,1.07a3,3,0,0,0-2.93-2c-2.15,0-3.34,1.77-3.34,4.53,0,2.91,1.26,4.69,3.46,4.69a3.16,3.16,0,0,0,3.08-2.35l1.84.84a4.82,4.82,0,0,1-4.93,3.43C522.56,187.42,520.22,185.1,520.22,180.84Z"/><path class="cls-3" d="M532.14,182.66c0-3.32,2.2-4.7,4.41-4.7s4.4,1.38,4.4,4.7-2.2,4.7-4.4,4.7S532.14,186,532.14,182.66Zm6.73,0c0-1.67-.73-2.93-2.32-2.93s-2.32,1.14-2.32,2.93.7,2.93,2.32,2.93S538.87,184.4,538.87,182.68Z"/><path class="cls-3" d="M542.76,187.18v-9h1.93l.17,1.28a4.3,4.3,0,0,1,3.26-1.47,2.39,2.39,0,0,1,2.66,2.64v6.58h-2.08v-6c0-1-.41-1.52-1.38-1.52a3.66,3.66,0,0,0-2.45,1.18v6.31Z"/><path class="cls-3" d="M553.64,184.69V179.8H552.1v-1.65h1.53v-3l2.08-.31v3.32h2.33v1.65h-2.33v4.57c0,1,.41,1.28,1.26,1.28a3.61,3.61,0,0,0,.92-.14l.17,1.65a11.82,11.82,0,0,1-1.65.14C554.51,187.3,553.64,186.65,553.64,184.69Z"/><path class="cls-3" d="M559.56,187.18v-9h1.93l.17,1.47h0a3.54,3.54,0,0,1,3.19-1.65H565l.19,1.93a2.91,2.91,0,0,0-.54,0,3.23,3.23,0,0,0-2.93,1.6v5.73Z"/><path class="cls-3" d="M566.07,184.94c0-2,1.67-3.22,5.9-3.7V181c0-.83-.5-1.3-1.57-1.3a4.42,4.42,0,0,0-2.92,1.21l-1.14-1.28a6,6,0,0,1,4.33-1.65c2.33,0,3.34,1.16,3.34,3.27v5.95h-1.87L572,186a4.43,4.43,0,0,1-3.32,1.3A2.34,2.34,0,0,1,566.07,184.94Zm5.9-.29v-2c-2.92.41-3.85,1-3.85,1.94,0,.72.49,1.09,1.28,1.09A3.52,3.52,0,0,0,572,184.66Z"/><path class="cls-3" d="M575.74,182.66c0-3.46,2.33-4.7,4.35-4.7a3.87,3.87,0,0,1,3.67,2.28l-1.55,1a2.14,2.14,0,0,0-2.11-1.53c-1.23,0-2.25.92-2.25,3,0,1.81.8,3,2.25,3a2.42,2.42,0,0,0,2.25-1.69l1.55,1a4.1,4.1,0,0,1-3.92,2.4C577.87,187.37,575.74,186,575.74,182.66Z"/><path class="cls-3" d="M586.36,184.69V179.8h-1.53v-1.65h1.53v-3l2.08-.31v3.32h2.33v1.65h-2.33v4.57c0,1,.41,1.28,1.26,1.28a3.61,3.61,0,0,0,.92-.14l.17,1.65a11.82,11.82,0,0,1-1.65.14C587.22,187.3,586.36,186.65,586.36,184.69Z"/><path class="cls-3" d="M592.17,175.69a1.08,1.08,0,0,1,1.19-1.11,1.11,1.11,0,1,1,0,2.22A1.08,1.08,0,0,1,592.17,175.69Zm.17,11.49v-9h2.08v9Z"/><path class="cls-3" d="M596.72,187.18v-9h1.93l.17,1.28a4.3,4.3,0,0,1,3.26-1.47,2.39,2.39,0,0,1,2.66,2.64v6.58h-2.08v-6c0-1-.41-1.52-1.38-1.52a3.66,3.66,0,0,0-2.45,1.18v6.31Z"/><path class="cls-3" d="M606,188.47a2,2,0,0,1,1.48-1.91,1.19,1.19,0,0,1-.7-1.11A2.11,2.11,0,0,1,608,183.8a3,3,0,0,1-1.43-2.61c0-1.86,1.43-3.24,3.8-3.24a4.08,4.08,0,0,1,2.78,1,4.23,4.23,0,0,1,2.06-.89l.27,1.69a5.53,5.53,0,0,0-1.67.26,2.31,2.31,0,0,1,.32,1.23c0,1.89-1.41,3.22-3.77,3.22a4.24,4.24,0,0,1-1.26-.19c-.27.15-.46.34-.46.58s.24.48,1,.55l1.6.1c2.68.17,3.73.89,3.73,2.47,0,1.86-1.87,2.76-4.67,2.76C607.24,190.69,606,189.79,606,188.47Zm7.18-.36c0-.65-.46-.89-2.3-1l-1.57-.1a3,3,0,0,1-.55-.05,1.25,1.25,0,0,0-.83,1.16c0,.8.92,1.06,2.76,1.06C612.21,189.17,613.17,188.76,613.17,188.12Zm-.94-6.85a1.61,1.61,0,0,0-1.84-1.74,1.73,1.73,0,1,0,0,3.44A1.6,1.6,0,0,0,612.23,181.26Z"/><path class="cls-3" d="M620.81,185.27l1.14-1.62a6.1,6.1,0,0,0,4.11,1.88c1.58,0,2.66-.55,2.66-1.64s-.8-1.62-2.88-2.25c-2.44-.72-4.38-1.36-4.38-3.77,0-2.13,1.77-3.54,4.29-3.54a7.35,7.35,0,0,1,4.7,1.81l-1,1.7a5.82,5.82,0,0,0-3.66-1.58c-1.43,0-2.25.63-2.25,1.45,0,1.18.9,1.58,3,2.2,2.39.7,4.29,1.47,4.29,3.85,0,2-1.67,3.66-4.67,3.66A7.6,7.6,0,0,1,620.81,185.27Z"/><path class="cls-3" d="M632.28,182.66a4.33,4.33,0,0,1,4.31-4.7c2,0,4,1.21,4,4.89v.49h-6.19a2.27,2.27,0,0,0,2.46,2.35,4,4,0,0,0,2.79-1.16l.83,1.38a5.11,5.11,0,0,1-3.75,1.45C634.38,187.37,632.28,186,632.28,182.66Zm6.36-.87c-.1-1.33-.8-2.13-2.06-2.13a2.2,2.2,0,0,0-2.18,2.13Z"/><path class="cls-3" d="M642.39,187.18v-9h1.93l.17,1.47h0a3.54,3.54,0,0,1,3.19-1.65h.08l.19,1.93a2.91,2.91,0,0,0-.54,0,3.23,3.23,0,0,0-2.93,1.6v5.73Z"/><path class="cls-3" d="M652,187.21l-3.22-8.91,2.06-.32,2.28,6.85h0l2.2-6.68h2l-3.27,9.07Z"/><path class="cls-3" d="M658.58,175.69a1.08,1.08,0,0,1,1.19-1.11,1.11,1.11,0,1,1,0,2.22A1.08,1.08,0,0,1,658.58,175.69Zm.17,11.49v-9h2.08v9Z"/><path class="cls-3" d="M662.62,182.66c0-3.46,2.33-4.7,4.35-4.7a3.87,3.87,0,0,1,3.67,2.28l-1.55,1A2.14,2.14,0,0,0,667,179.7c-1.23,0-2.25.92-2.25,3,0,1.81.8,3,2.25,3a2.42,2.42,0,0,0,2.25-1.69l1.55,1a4.1,4.1,0,0,1-3.92,2.4C664.75,187.37,662.62,186,662.62,182.66Z"/><path class="cls-3" d="M671.83,182.66a4.33,4.33,0,0,1,4.31-4.7c2,0,4,1.21,4,4.89v.49h-6.19a2.27,2.27,0,0,0,2.46,2.35,4,4,0,0,0,2.79-1.16l.83,1.38a5.11,5.11,0,0,1-3.75,1.45C673.93,187.37,671.83,186,671.83,182.66Zm6.36-.87c-.1-1.33-.8-2.13-2.06-2.13a2.2,2.2,0,0,0-2.18,2.13Z"/><path class="cls-3" d="M681.32,185.93l.8-1.41a4.94,4.94,0,0,0,3.12,1.23c1.13,0,1.81-.36,1.81-1s-.53-1-2-1.3c-1.91-.39-3.37-.9-3.37-2.85,0-1.6,1.33-2.66,3.32-2.66a5.91,5.91,0,0,1,3.66,1.14l-.73,1.48a4.78,4.78,0,0,0-2.78-1c-1,0-1.52.38-1.52.92s.49.87,1.84,1.16c2,.41,3.58.89,3.58,2.8s-1.72,2.86-3.8,2.86A5.79,5.79,0,0,1,681.32,185.93Z"/><path class="cls-3" d="M308.48,145.51V132.89H313c3,0,4.72,1.19,4.72,3.87a3.28,3.28,0,0,1-2.78,3.49l3,5.08-2.08.34-3.05-5.15h-2.23v5Zm2.1-6.83h2.32c1.81,0,2.74-.51,2.74-1.94s-.94-1.89-2.74-1.89h-2.32Z"/><path class="cls-3" d="M319.11,141a4.33,4.33,0,0,1,4.31-4.7c2,0,4,1.21,4,4.89v.49H321.2a2.27,2.27,0,0,0,2.46,2.35,4,4,0,0,0,2.79-1.16l.83,1.38a5.11,5.11,0,0,1-3.75,1.45C321.2,145.69,319.11,144.31,319.11,141Zm6.36-.87c-.1-1.33-.8-2.13-2.06-2.13a2.2,2.2,0,0,0-2.18,2.13Z"/><path class="cls-3" d="M328.6,144.26l.8-1.41a4.94,4.94,0,0,0,3.12,1.23c1.13,0,1.81-.36,1.81-1s-.53-1-2-1.3c-1.91-.39-3.37-.9-3.37-2.85,0-1.6,1.33-2.66,3.32-2.66a5.91,5.91,0,0,1,3.66,1.14l-.73,1.48a4.78,4.78,0,0,0-2.78-1c-1,0-1.52.38-1.52.92s.49.87,1.84,1.16c2,.41,3.58.89,3.58,2.8s-1.72,2.86-3.8,2.86A5.79,5.79,0,0,1,328.6,144.26Z"/><path class="cls-3" d="M338,149.07v-12.6H340l.17,1.18a3.58,3.58,0,0,1,2.88-1.36c2.06,0,3.58,1.55,3.58,4.69s-1.53,4.67-3.61,4.67a3.64,3.64,0,0,1-2.85-1.12v4.24Zm6.46-8.08c0-1.87-.82-2.91-2.17-2.91a3.09,3.09,0,0,0-2.2,1.13v3.7a3,3,0,0,0,2.23,1.09C343.66,144,344.49,143.09,344.49,141Z"/><path class="cls-3" d="M348,141c0-3.32,2.2-4.7,4.41-4.7s4.4,1.38,4.4,4.7-2.2,4.7-4.4,4.7S348,144.3,348,141Zm6.73,0c0-1.67-.73-2.93-2.32-2.93s-2.32,1.14-2.32,2.93.7,2.93,2.32,2.93S354.69,142.73,354.69,141Z"/><path class="cls-3" d="M358.58,145.51v-9h1.93l.17,1.28a4.3,4.3,0,0,1,3.26-1.47,2.39,2.39,0,0,1,2.66,2.64v6.58h-2.08v-6c0-1-.41-1.52-1.38-1.52a3.66,3.66,0,0,0-2.45,1.18v6.31Z"/><path class="cls-3" d="M368.17,144.26l.8-1.41a4.94,4.94,0,0,0,3.12,1.23c1.13,0,1.81-.36,1.81-1s-.53-1-2-1.3c-1.91-.39-3.37-.9-3.37-2.85,0-1.6,1.33-2.66,3.32-2.66a5.91,5.91,0,0,1,3.66,1.14l-.73,1.48a4.78,4.78,0,0,0-2.78-1c-1,0-1.52.38-1.52.92s.49.87,1.84,1.16c2,.41,3.58.89,3.58,2.8s-1.72,2.86-3.8,2.86A5.79,5.79,0,0,1,368.17,144.26Z"/><path class="cls-3" d="M377.47,134a1.08,1.08,0,0,1,1.19-1.11,1.11,1.11,0,1,1,0,2.22A1.08,1.08,0,0,1,377.47,134Zm.17,11.49v-9h2.08v9Z"/><path class="cls-3" d="M384.13,144.52l-.14,1h-2V133l2.1-.31v4.94a3.48,3.48,0,0,1,2.88-1.4c2.06,0,3.58,1.55,3.58,4.69s-1.53,4.67-3.61,4.67A3.64,3.64,0,0,1,384.13,144.52Zm4.36-3.53c0-1.87-.82-2.91-2.17-2.91a3.09,3.09,0,0,0-2.2,1.13v3.7a3,3,0,0,0,2.23,1.09C387.65,144,388.49,143,388.49,141Z"/><path class="cls-3" d="M392.48,145.51V133l2.08-.31v12.77Z"/><path class="cls-3" d="M396.39,141a4.33,4.33,0,0,1,4.31-4.7c2,0,4,1.21,4,4.89v.49h-6.19a2.27,2.27,0,0,0,2.46,2.35,4,4,0,0,0,2.79-1.16l.83,1.38a5.11,5.11,0,0,1-3.75,1.45C398.49,145.69,396.39,144.31,396.39,141Zm6.36-.87c-.1-1.33-.8-2.13-2.06-2.13a2.2,2.2,0,0,0-2.18,2.13Z"/><path class="cls-3" d="M278,166.34V153.73h4.41c2.71,0,4.84.89,4.84,3.87s-2.32,4-4.91,4h-2.23v4.79Zm2.11-6.65h2.33c1.88,0,2.73-.63,2.73-2s-.83-2-2.74-2h-2.32Z"/><path class="cls-3" d="M288.91,166.34v-9h1.93l.17,1.47h0a3.54,3.54,0,0,1,3.19-1.65h.08l.19,1.93a2.91,2.91,0,0,0-.54,0,3.23,3.23,0,0,0-2.93,1.6v5.73Z"/><path class="cls-3" d="M295.28,161.83c0-3.32,2.2-4.7,4.41-4.7s4.4,1.38,4.4,4.7-2.2,4.7-4.4,4.7S295.28,165.13,295.28,161.83Zm6.73,0c0-1.67-.73-2.93-2.32-2.93s-2.32,1.14-2.32,2.93.7,2.93,2.32,2.93S302,163.56,302,161.84Z"/><path class="cls-3" d="M305.42,161.83c0-3.46,2.33-4.7,4.35-4.7a3.87,3.87,0,0,1,3.67,2.28l-1.55,1a2.14,2.14,0,0,0-2.11-1.53c-1.23,0-2.25.92-2.25,3,0,1.81.8,3,2.25,3a2.42,2.42,0,0,0,2.25-1.69l1.55,1a4.1,4.1,0,0,1-3.92,2.4C307.54,166.53,305.42,165.13,305.42,161.83Z"/><path class="cls-3" d="M315,163.89v-6.58h2.1v6c0,1,.39,1.43,1.36,1.43a3.69,3.69,0,0,0,2.45-1.19v-6.25H323v9h-1.93l-.17-1.26a4.4,4.4,0,0,1-3.24,1.45A2.39,2.39,0,0,1,315,163.89Z"/><path class="cls-3" d="M325.32,166.34v-9h1.93l.17,1.47h0a3.54,3.54,0,0,1,3.19-1.65h.08l.19,1.93a2.91,2.91,0,0,0-.54,0,3.23,3.23,0,0,0-2.93,1.6v5.73Z"/><path class="cls-3" d="M331.68,161.83a4.33,4.33,0,0,1,4.31-4.7c2,0,4,1.21,4,4.89v.49h-6.19a2.27,2.27,0,0,0,2.46,2.35A4,4,0,0,0,339,163.7l.83,1.38a5.11,5.11,0,0,1-3.75,1.45C333.77,166.53,331.68,165.15,331.68,161.83ZM338,161c-.1-1.33-.8-2.13-2.06-2.13a2.2,2.2,0,0,0-2.18,2.13Z"/><path class="cls-3" d="M341.79,166.34v-9h1.93l.17,1.28a4.09,4.09,0,0,1,3.1-1.47c1.52,0,2.25.58,2.49,1.47a4.36,4.36,0,0,1,3.15-1.47,2.42,2.42,0,0,1,2.64,2.73v6.49h-2.1v-6c0-1-.29-1.47-1.28-1.47a3.44,3.44,0,0,0-2.32,1.18v6.26h-2.1v-6c0-1-.29-1.47-1.28-1.47a3.47,3.47,0,0,0-2.32,1.18v6.26Z"/><path class="cls-3" d="M357,161.83a4.33,4.33,0,0,1,4.31-4.7c2,0,4,1.21,4,4.89v.49h-6.19a2.27,2.27,0,0,0,2.46,2.35,4,4,0,0,0,2.79-1.16l.83,1.38a5.11,5.11,0,0,1-3.75,1.45C359.12,166.53,357,165.15,357,161.83Zm6.36-.87c-.1-1.33-.8-2.13-2.06-2.13a2.2,2.2,0,0,0-2.18,2.13Z"/><path class="cls-3" d="M367.13,166.34v-9h1.93l.17,1.28a4.3,4.3,0,0,1,3.26-1.47,2.39,2.39,0,0,1,2.66,2.64v6.58h-2.08v-6c0-1-.41-1.52-1.38-1.52a3.66,3.66,0,0,0-2.45,1.18v6.31Z"/><path class="cls-3" d="M378,163.85V159h-1.53v-1.65H378v-3l2.08-.31v3.32h2.33V159h-2.33v4.57c0,1,.41,1.28,1.26,1.28a3.61,3.61,0,0,0,.92-.14l.17,1.65a11.82,11.82,0,0,1-1.65.14C378.88,166.46,378,165.81,378,163.85Z"/><path class="cls-3" d="M388.7,166.34V153.73h4.41c2.71,0,4.84.89,4.84,3.87s-2.32,4-4.91,4h-2.23v4.79Zm2.11-6.65h2.33c1.88,0,2.73-.63,2.73-2s-.83-2-2.74-2h-2.32Z"/><path class="cls-3" d="M399,161.83c0-3.32,2.2-4.7,4.41-4.7s4.4,1.38,4.4,4.7-2.2,4.7-4.4,4.7S399,165.13,399,161.83Zm6.73,0c0-1.67-.73-2.93-2.32-2.93s-2.32,1.14-2.32,2.93.7,2.93,2.32,2.93S405.69,163.56,405.69,161.84Z"/><path class="cls-3" d="M409.63,166.34V153.88l2.08-.31v12.77Z"/><path class="cls-3" d="M413.9,154.85a1.08,1.08,0,0,1,1.19-1.11,1.11,1.11,0,1,1,0,2.22A1.08,1.08,0,0,1,413.9,154.85Zm.17,11.49v-9h2.08v9Z"/><path class="cls-3" d="M417.94,161.83c0-3.46,2.33-4.7,4.35-4.7a3.87,3.87,0,0,1,3.67,2.28l-1.55,1a2.14,2.14,0,0,0-2.11-1.53c-1.23,0-2.25.92-2.25,3,0,1.81.8,3,2.25,3a2.42,2.42,0,0,0,2.25-1.69l1.55,1a4.1,4.1,0,0,1-3.92,2.4C420.07,166.53,417.94,165.13,417.94,161.83Z"/><path class="cls-3" d="M427.11,169.67l-.15-1.76a5.61,5.61,0,0,0,1.48.19,1.38,1.38,0,0,0,1.45-1l.26-.66-3.41-8.93,2.06-.32,2.37,6.75h0l2.33-6.58h2.06l-3.83,10c-.61,1.58-1.38,2.47-3.17,2.47A6.29,6.29,0,0,1,427.11,169.67Z"/><circle class="cls-1" cx="609.25" cy="58.88" r="41.21"/><g class="cls-4"><rect class="cls-2" x="426.04" y="-22.65" width="716.71" height="201.57"/><g class="cls-5"><g class="cls-6"><rect class="cls-2" x="568.04" y="17.67" width="82.42" height="82.42"/><g class="cls-7"><rect class="cls-2" x="558.63" y="17.67" width="101.68" height="137.97"/><g class="cls-8"><rect class="cls-2" x="568.04" y="17.67" width="82.42" height="82.42"/></g><rect class="cls-2" x="565.8" y="15.43" width="86.9" height="86.9"/><g class="cls-9"><rect class="cls-2" x="568.04" y="17.67" width="82.42" height="82.42"/></g></g></g></g></g><rect class="cls-10" x="75.16" y="17.55" width="77.41" height="77.41" transform="translate(73.13 -64.04) rotate(45)"/><rect class="cls-10" x="318.11" y="17.55" width="77.41" height="77.41" transform="translate(144.29 -235.83) rotate(45)"/><rect class="cls-10" x="576.26" y="17.55" width="77.41" height="77.41" transform="translate(219.9 -418.37) rotate(45)"/><g id="Capa_2" data-name="Capa 2"><g id="Capa_1-2" data-name="Capa 1-2"><rect class="cls-11" x="72.85" y="36.8" width="86.59" height="55.62"/><rect class="cls-12" x="75.14" y="36.8" width="80.85" height="51.61"/><path class="cls-3" d="M156,83.82H116C96.09,78.66,75.11,84,75.11,84V32.48s23.28-8.87,40.89-.26h40Z"/><path class="cls-12" d="M113,43.95l-1.54-.67c-15.16-7.71-29.85-.33-30-.25l-1.72.64V41.91l.91-.4c.15-.08,15.57-7.87,31.54.25l.84.39Z"/><path class="cls-12" d="M113,51.4l-1.54-.67c-15.16-7.74-29.85-.34-30-.27l-1.72.64V49.34l.91-.4c.15-.08,15.57-7.87,31.54.25l.84.39Z"/><path class="cls-12" d="M113,58.82l-1.54-.67c-15.16-7.72-29.85-.33-30-.25l-1.72.64V56.77l.91-.4c.15-.08,15.57-7.87,31.54.25L113,57Z"/><path class="cls-12" d="M113,66.25l-1.54-.67c-15.16-7.71-29.85-.33-30-.25L79.71,66V64.21l.91-.4c.15-.08,15.57-7.87,31.54.25l.84.39Z"/><path class="cls-12" d="M113,73.69,111.44,73c-15.16-7.72-29.87-.33-30-.25l-1.72.64V71.64l.91-.4c.15-.08,15.57-7.87,31.54.25l.84.39Z"/><rect class="cls-12" x="120.49" y="42.15" width="28.16" height="1.89"/><rect class="cls-12" x="120.49" y="49.78" width="28.16" height="1.89"/><rect class="cls-12" x="120.49" y="57.06" width="28.16" height="1.89"/><rect class="cls-12" x="120.49" y="64.35" width="28.16" height="1.89"/><rect class="cls-12" x="120.49" y="71.63" width="28.16" height="1.89"/></g></g><path class="cls-13" d="M594.86,75.26l29.29-6.38-3.39,3.58-15-1.31a4.43,4.43,0,0,0-4.27,2.67L601,75.2a3.16,3.16,0,0,0,1.81,4.08l24.92,9.61a27.11,27.11,0,0,0,6.08,1.42L652.1,92l11.38-29.63L625.94,43.88a5.14,5.14,0,0,0-5.21.67L588.22,72.71Z"/><polygon class="cls-14" points="590.49 97.94 595.22 93.21 595.22 92.68 547.95 92.68 547.95 97.94 590.49 97.94"/><path class="cls-15" d="M629.35,59.33,592.91,74.51l2,.75,6.67-1.45a4.43,4.43,0,0,1,4.27-2.66l5.66.49,12.69-2.77-3.39,3.58-9.3-.81-9.93,2.16h0L601,75.2l0,.07L621,74.8l4,.83,5.55-10.19Z"/><path class="cls-16" d="M650.31,28.46a1,1,0,0,0,0,1.45l5.8,6.06a1,1,0,0,0,1.44,0l3.5-3.41a1,1,0,0,0,0-1.45l-5.8-6.06a1,1,0,0,0-1.44,0Zm-2.72,3.26,6.75,7.36-51,50.55H596.2l0-7Z"/><path class="cls-17" d="M655,34.79,656.09,36a1,1,0,0,0,1.44,0l3.5-3.41a1,1,0,0,0,0-1.45l-1.21-1.26Zm-2.24,2.63,1.62,1.66-51,50.55-4.13,0Z"/><path class="cls-13" d="M620.78,72.46l-15-1.31a4.43,4.43,0,0,0-4.27,2.67L601,75.2a3.16,3.16,0,0,0,1.81,4.08l24.92,9.61a27.11,27.11,0,0,0,6.08,1.42Z"/><path class="cls-18" d="M372.87,36.49h8.23a2,2,0,0,1,1.88,2V98a1.88,1.88,0,0,1-1.88,1.88H331.78A1.88,1.88,0,0,1,329.9,98V38.45a2,2,0,0,1,2-2H340"/><path class="cls-19" d="M372.86,36.82h-5.64a10.78,10.78,0,1,0-21.56,0H340a16.42,16.42,0,1,1,32.84,0Z"/><polygon class="cls-15" points="336.54 75.3 370.13 75.3 376.34 69.01 376.34 68.66 336.54 68.66 336.54 75.3"/><polygon class="cls-15" points="336.54 88.57 360.18 88.57 366.39 82.27 366.39 81.93 336.54 81.93 336.54 88.57"/><polygon class="cls-20" points="334.6 38.84 331.47 36.51 381.39 36.51 378.26 38.84 381.39 41.07 331.47 41.07 334.6 38.84"/><polygon class="cls-21" points="334.59 38.86 334.59 41.07 331.44 41.07 334.59 38.86"/><polygon class="cls-21" points="378.22 38.85 378.22 41.06 381.43 41.06 378.22 38.85"/><rect class="cls-19" x="340.02" y="36.49" width="5.57" height="13.95"/><polyline class="cls-22" points="345.59 50.43 340.02 50.43 340.02 54.48"/><polyline class="cls-22" points="367.25 50.43 372.83 50.43 372.83 54.48"/><polyline class="cls-19" points="372.83 36.49 372.83 50.43 367.25 50.43 367.25 36.49"/><polyline class="cls-23" points="234.14 216.75 128.88 216.75 113.86 231.77 98.85 216.75 6.84 216.75"/></g></svg>