<svg xmlns="http://www.w3.org/2000/svg" viewBox="0 0 571 298"><defs><style>.cls-1{fill:#00cccd;}.cls-2{fill:#00beff;}.cls-3{fill:#1464a5;}.cls-4{fill:#004481;}.cls-5{fill:#121212;}.cls-6{fill:#666;}</style></defs><title>sociedad-programa-sociales-eng</title><g id="Capa_1" data-name="Capa 1"><path class="cls-1" d="M425.6,170.21V160h1.72v4.75l4-4.75h2l-3.48,3.93,3.93,6.14-1.79.28-3.27-5.1-1.45,1.6v3.37Z"/><path class="cls-1" d="M435,170.21V162.9h1.56l.14,1a3.48,3.48,0,0,1,2.63-1.19,1.93,1.93,0,0,1,2.15,2.14v5.32h-1.68v-4.83c0-.81-.33-1.23-1.12-1.23a3,3,0,0,0-2,1v5.1Z"/><path class="cls-1" d="M442.92,166.55a3.57,3.57,0,1,1,3.57,3.81A3.46,3.46,0,0,1,442.92,166.55Zm5.45,0c0-1.35-.59-2.37-1.88-2.37s-1.88.92-1.88,2.37.57,2.37,1.88,2.37S448.37,168,448.37,166.57Z"/><path class="cls-1" d="M452.78,170.21,450.63,163l1.66-.26.83,3.16c.21.84.36,1.39.57,2.35h0c.21-1,.33-1.52.57-2.37l.79-3h1.37l.81,3c.23.81.36,1.37.58,2.32h0c.21-1,.33-1.48.57-2.29l.84-3.08h1.53l-2.18,7.31H457l-1.32-5.1h0l-1.34,5.1Z"/><path class="cls-1" d="M461.93,170.21V160.12l1.68-.25v10.33Z"/><path class="cls-1" d="M465.12,166.55a3.5,3.5,0,0,1,3.49-3.81c1.59,0,3.21,1,3.21,4v.4h-5a1.84,1.84,0,0,0,2,1.9,3.23,3.23,0,0,0,2.26-.94l.68,1.12a4.14,4.14,0,0,1-3,1.17C466.81,170.36,465.12,169.24,465.12,166.55Zm5.15-.7c-.08-1.08-.65-1.72-1.67-1.72a1.78,1.78,0,0,0-1.77,1.72Z"/><path class="cls-1" d="M473,166.59c0-2.54,1.24-3.85,2.92-3.85a2.84,2.84,0,0,1,2.3,1v-3.6l1.7-.25v10.33h-1.56l-.14-1a2.84,2.84,0,0,1-2.33,1.08C474.19,170.32,473,169.13,473,166.59Zm5.23,1.42v-3a2.47,2.47,0,0,0-1.81-.88c-1,0-1.72.79-1.72,2.43s.66,2.35,1.75,2.35A2.5,2.5,0,0,0,478.19,168Z"/><path class="cls-1" d="M481,171.26a1.64,1.64,0,0,1,1.2-1.54,1,1,0,0,1-.57-.9,1.71,1.71,0,0,1,1-1.34,2.41,2.41,0,0,1-1.16-2.11c0-1.5,1.16-2.62,3.08-2.62a3.3,3.3,0,0,1,2.25.77,3.41,3.41,0,0,1,1.67-.72l.22,1.37a4.48,4.48,0,0,0-1.35.21,1.86,1.86,0,0,1,.26,1c0,1.53-1.14,2.61-3,2.61a3.45,3.45,0,0,1-1-.15c-.22.12-.37.28-.37.47s.19.39.84.44l1.3.08c2.17.14,3,.72,3,2,0,1.5-1.52,2.23-3.78,2.23C482,173,481,172.32,481,171.26Zm5.81-.29c0-.52-.37-.72-1.86-.81l-1.27-.08a2.41,2.41,0,0,1-.44,0,1,1,0,0,0-.68.94c0,.65.75.85,2.23.85C486,171.82,486.8,171.49,486.8,171Zm-.76-5.55a1.3,1.3,0,0,0-1.49-1.41,1.4,1.4,0,1,0,0,2.79A1.3,1.3,0,0,0,486,165.42Z"/><path class="cls-1" d="M489.37,166.55a3.51,3.51,0,0,1,3.49-3.81c1.59,0,3.21,1,3.21,4v.4h-5a1.84,1.84,0,0,0,2,1.9,3.23,3.23,0,0,0,2.26-.94l.68,1.12a4.14,4.14,0,0,1-3,1.17C491.06,170.36,489.37,169.24,489.37,166.55Zm5.14-.7c-.08-1.08-.65-1.72-1.67-1.72a1.78,1.78,0,0,0-1.77,1.72Z"/><path class="cls-1" d="M497.34,171.75l.36-3.34h1.89l-1.24,3.34Z"/><path class="cls-1" d="M504.39,166.55a3.51,3.51,0,0,1,3.49-3.81c1.59,0,3.21,1,3.21,4v.4h-5a1.84,1.84,0,0,0,2,1.9,3.23,3.23,0,0,0,2.26-.94l.68,1.12a4.14,4.14,0,0,1-3,1.17C506.09,170.36,504.39,169.24,504.39,166.55Zm5.14-.7c-.08-1.08-.65-1.72-1.67-1.72a1.78,1.78,0,0,0-1.77,1.72Z"/><path class="cls-1" d="M512.24,166.59c0-2.54,1.24-3.85,2.92-3.85a2.84,2.84,0,0,1,2.3,1v-3.6l1.7-.25v10.33H517.6l-.14-1a2.84,2.84,0,0,1-2.33,1.08C513.47,170.32,512.24,169.13,512.24,166.59Zm5.23,1.42v-3a2.47,2.47,0,0,0-1.81-.88c-1,0-1.72.79-1.72,2.43s.66,2.35,1.75,2.35A2.5,2.5,0,0,0,517.47,168Z"/><path class="cls-1" d="M521,168.22V162.9h1.7v4.87c0,.77.32,1.16,1.1,1.16a3,3,0,0,0,2-1V162.9h1.7v7.31H525.9l-.14-1a3.56,3.56,0,0,1-2.62,1.17A1.94,1.94,0,0,1,521,168.22Z"/><path class="cls-1" d="M528.93,166.55a3.44,3.44,0,0,1,3.52-3.81,3.13,3.13,0,0,1,3,1.85l-1.26.8a1.73,1.73,0,0,0-1.71-1.24c-1,0-1.82.75-1.82,2.41,0,1.46.65,2.43,1.82,2.43a2,2,0,0,0,1.82-1.37l1.26.79a3.32,3.32,0,0,1-3.17,1.94C530.65,170.36,528.93,169.23,528.93,166.55Z"/><path class="cls-1" d="M536.49,168.4c0-1.61,1.35-2.61,4.77-3v-.22c0-.68-.4-1-1.27-1a3.58,3.58,0,0,0-2.36,1l-.92-1a4.84,4.84,0,0,1,3.5-1.34c1.89,0,2.7.94,2.7,2.65v4.81h-1.52l-.14-.94a3.59,3.59,0,0,1-2.69,1A1.89,1.89,0,0,1,536.49,168.4Zm4.77-.23v-1.61c-2.36.33-3.12.84-3.12,1.57,0,.58.4.88,1,.88A2.85,2.85,0,0,0,541.27,168.17Z"/><path class="cls-1" d="M545.22,168.19v-4H544V162.9h1.24v-2.44l1.68-.25v2.69h1.89v1.34h-1.89v3.7c0,.79.33,1,1,1a2.94,2.94,0,0,0,.75-.11l.14,1.34a9.63,9.63,0,0,1-1.34.11C545.93,170.3,545.22,169.78,545.22,168.19Z"/><path class="cls-1" d="M549.94,160.91a.87.87,0,0,1,1-.9.9.9,0,1,1,0,1.79A.87.87,0,0,1,549.94,160.91Zm.14,9.3V162.9h1.68v7.31Z"/><path class="cls-1" d="M553.23,166.55a3.57,3.57,0,1,1,3.57,3.81A3.46,3.46,0,0,1,553.23,166.55Zm5.45,0c0-1.35-.59-2.37-1.88-2.37s-1.88.92-1.88,2.37.57,2.37,1.88,2.37S558.68,168,558.68,166.57Z"/><path class="cls-1" d="M561.84,170.21V162.9h1.56l.14,1a3.48,3.48,0,0,1,2.63-1.19,1.93,1.93,0,0,1,2.15,2.14v5.32h-1.68v-4.83c0-.81-.33-1.23-1.12-1.23a3,3,0,0,0-2,1v5.1Z"/><path class="cls-1" d="M424.93,190.08c0-1.61,1.35-2.61,4.77-3v-.22c0-.68-.4-1-1.27-1a3.58,3.58,0,0,0-2.36,1l-.92-1a4.84,4.84,0,0,1,3.5-1.34c1.89,0,2.7.94,2.7,2.65v4.81h-1.52l-.14-.94a3.59,3.59,0,0,1-2.69,1A1.89,1.89,0,0,1,424.93,190.08Zm4.77-.23v-1.61c-2.36.33-3.12.84-3.12,1.57,0,.58.4.88,1,.88A2.85,2.85,0,0,0,429.7,189.85Z"/><path class="cls-1" d="M433.17,191.89v-7.31h1.56l.14,1a3.48,3.48,0,0,1,2.63-1.19,1.93,1.93,0,0,1,2.15,2.14v5.32H438v-4.83c0-.81-.33-1.23-1.12-1.23a3,3,0,0,0-2,1v5.1Z"/><path class="cls-1" d="M441.11,188.27c0-2.54,1.24-3.85,2.92-3.85a2.84,2.84,0,0,1,2.3,1v-3.6l1.7-.25v10.33h-1.56l-.14-1A2.84,2.84,0,0,1,444,192C442.34,192,441.11,190.81,441.11,188.27Zm5.23,1.42v-3a2.47,2.47,0,0,0-1.81-.88c-1,0-1.72.79-1.72,2.43s.66,2.35,1.75,2.35A2.5,2.5,0,0,0,446.34,189.69Z"/><path class="cls-1" d="M453,188.23a3.44,3.44,0,0,1,3.52-3.81,3.13,3.13,0,0,1,3,1.85l-1.26.8a1.73,1.73,0,0,0-1.71-1.24c-1,0-1.82.75-1.82,2.41,0,1.46.65,2.43,1.82,2.43a2,2,0,0,0,1.82-1.37l1.26.79a3.32,3.32,0,0,1-3.17,1.94C454.71,192,453,190.91,453,188.23Z"/><path class="cls-1" d="M460.79,189.9v-5.32h1.7v4.87c0,.77.32,1.16,1.1,1.16a3,3,0,0,0,2-1v-5.06h1.7v7.31h-1.56l-.14-1A3.56,3.56,0,0,1,463,192,1.94,1.94,0,0,1,460.79,189.9Z"/><path class="cls-1" d="M469.16,191.89V181.8l1.68-.25v10.33Z"/><path class="cls-1" d="M473.26,189.87v-4H472v-1.34h1.24v-2.44l1.68-.25v2.69h1.89v1.34h-1.89v3.7c0,.79.33,1,1,1a2.94,2.94,0,0,0,.75-.11l.14,1.34a9.63,9.63,0,0,1-1.34.11C474,192,473.26,191.46,473.26,189.87Z"/><path class="cls-1" d="M478,189.9v-5.32h1.7v4.87c0,.77.32,1.16,1.1,1.16a3,3,0,0,0,2-1v-5.06h1.7v7.31H483l-.14-1a3.56,3.56,0,0,1-2.62,1.17A1.94,1.94,0,0,1,478,189.9Z"/><path class="cls-1" d="M486.37,191.89v-7.31h1.56l.14,1.19h0a2.87,2.87,0,0,1,2.58-1.34h.07l.15,1.56a2.36,2.36,0,0,0-.44,0,2.62,2.62,0,0,0-2.37,1.3v4.63Z"/><path class="cls-1" d="M491.53,188.23a3.5,3.5,0,0,1,3.49-3.81c1.59,0,3.21,1,3.21,4v.4h-5a1.84,1.84,0,0,0,2,1.9,3.23,3.23,0,0,0,2.26-.94l.68,1.12a4.14,4.14,0,0,1-3,1.17C493.23,192,491.53,190.92,491.53,188.23Zm5.15-.7c-.08-1.08-.65-1.72-1.67-1.72a1.78,1.78,0,0,0-1.77,1.72Z"/><path class="cls-2" d="M69.43,186.24c0-3.43,2.14-5.3,4.61-5.3s4.59,1.86,4.59,5.3-2.14,5.3-4.59,5.3S69.43,189.68,69.43,186.24Zm7.49,0c0-2.32-1.16-3.71-2.88-3.71s-2.88,1.39-2.88,3.71S72.31,190,74,190,76.92,188.56,76.92,186.24Z"/><path class="cls-2" d="M80.93,189.33v-4H79.69V184h1.24v-2.44l1.68-.25V184H84.5v1.34H82.61v3.7c0,.79.33,1,1,1a2.9,2.9,0,0,0,.75-.11l.14,1.34a9.56,9.56,0,0,1-1.34.11C81.63,191.44,80.93,190.92,80.93,189.33Z"/><path class="cls-2" d="M85.74,191.35V181.26l1.7-.25v4.06a3.42,3.42,0,0,1,2.62-1.19A1.94,1.94,0,0,1,92.23,186v5.32h-1.7v-4.83c0-.79-.33-1.19-1.1-1.19a2.94,2.94,0,0,0-2,1v5.06Z"/><path class="cls-2" d="M93.64,187.69a3.5,3.5,0,0,1,3.49-3.81c1.59,0,3.21,1,3.21,4v.4h-5a1.84,1.84,0,0,0,2,1.9,3.23,3.23,0,0,0,2.26-.94l.68,1.12a4.14,4.14,0,0,1-3,1.17C95.33,191.5,93.64,190.38,93.64,187.69Zm5.15-.7c-.08-1.08-.65-1.72-1.67-1.72A1.78,1.78,0,0,0,95.35,187Z"/><path class="cls-2" d="M101.83,191.35V184h1.56l.14,1.19h0a2.87,2.87,0,0,1,2.58-1.34h.07l.15,1.56a2.39,2.39,0,0,0-.44,0,2.62,2.62,0,0,0-2.37,1.3v4.63Z"/><path class="cls-3" d="M2.53,86.2V76H9v1.6H4.25v2.73H7.72L8,81.86H4.25V86.2Z"/><path class="cls-3" d="M10.22,76.91a.87.87,0,0,1,1-.9.9.9,0,1,1,0,1.79A.87.87,0,0,1,10.22,76.91Zm.14,9.3V78.89H12V86.2Z"/><path class="cls-3" d="M13.92,86.2V78.89h1.56l.14,1a3.48,3.48,0,0,1,2.63-1.19,1.93,1.93,0,0,1,2.15,2.14V86.2H18.72V81.38c0-.81-.33-1.23-1.12-1.23a3,3,0,0,0-2,1v5.1Z"/><path class="cls-3" d="M21.74,84.4c0-1.61,1.35-2.61,4.77-3v-.22c0-.68-.4-1-1.27-1a3.58,3.58,0,0,0-2.36,1l-.92-1a4.84,4.84,0,0,1,3.5-1.34c1.89,0,2.7.94,2.7,2.65V86.2H26.65l-.14-.94a3.59,3.59,0,0,1-2.69,1A1.89,1.89,0,0,1,21.74,84.4Zm4.77-.23V82.55c-2.36.33-3.12.84-3.12,1.57,0,.58.4.88,1,.88A2.84,2.84,0,0,0,26.51,84.16Z"/><path class="cls-3" d="M30,86.2V78.89h1.56l.14,1a3.48,3.48,0,0,1,2.63-1.19,1.93,1.93,0,0,1,2.15,2.14V86.2H34.77V81.38c0-.81-.33-1.23-1.12-1.23a3,3,0,0,0-2,1v5.1Z"/><path class="cls-3" d="M37.86,82.55a3.44,3.44,0,0,1,3.52-3.81,3.13,3.13,0,0,1,3,1.85l-1.26.8a1.73,1.73,0,0,0-1.71-1.24c-1,0-1.82.75-1.82,2.41,0,1.46.65,2.43,1.82,2.43a2,2,0,0,0,1.82-1.37l1.26.79a3.32,3.32,0,0,1-3.17,1.95C39.59,86.36,37.86,85.23,37.86,82.55Z"/><path class="cls-3" d="M45.6,76.91a.87.87,0,0,1,1-.9.9.9,0,1,1,0,1.79A.87.87,0,0,1,45.6,76.91Zm.14,9.3V78.89h1.68V86.2Z"/><path class="cls-3" d="M48.83,84.4c0-1.61,1.35-2.61,4.77-3v-.22c0-.68-.4-1-1.27-1a3.58,3.58,0,0,0-2.36,1l-.92-1a4.84,4.84,0,0,1,3.5-1.34c1.89,0,2.7.94,2.7,2.65V86.2H53.74l-.14-.94a3.59,3.59,0,0,1-2.69,1A1.89,1.89,0,0,1,48.83,84.4Zm4.77-.23V82.55c-2.36.33-3.12.84-3.12,1.57,0,.58.4.88,1,.88A2.84,2.84,0,0,0,53.61,84.16Z"/><path class="cls-3" d="M57.11,86.2V76.12l1.68-.25V86.2Z"/><path class="cls-3" d="M63.83,82.55a3.5,3.5,0,0,1,3.49-3.81c1.59,0,3.21,1,3.21,4v.4h-5a1.84,1.84,0,0,0,2,1.9,3.23,3.23,0,0,0,2.26-.94l.68,1.12a4.14,4.14,0,0,1-3,1.17C65.53,86.36,63.83,85.24,63.83,82.55Zm5.15-.7c-.08-1.08-.65-1.72-1.67-1.72a1.78,1.78,0,0,0-1.77,1.72Z"/><path class="cls-3" d="M71.67,82.59c0-2.54,1.24-3.85,2.92-3.85a2.84,2.84,0,0,1,2.3,1v-3.6l1.7-.25V86.2H77l-.14-1a2.84,2.84,0,0,1-2.33,1.08C72.9,86.31,71.67,85.13,71.67,82.59ZM76.9,84V81a2.47,2.47,0,0,0-1.81-.88c-1,0-1.72.79-1.72,2.43s.66,2.35,1.75,2.35A2.5,2.5,0,0,0,76.9,84Z"/><path class="cls-3" d="M80.41,84.22V78.89h1.7v4.87c0,.77.32,1.16,1.1,1.16a3,3,0,0,0,2-1V78.89h1.7V86.2H85.34l-.14-1a3.56,3.56,0,0,1-2.62,1.17A1.94,1.94,0,0,1,80.41,84.22Z"/><path class="cls-3" d="M88.36,82.55a3.44,3.44,0,0,1,3.52-3.81,3.13,3.13,0,0,1,3,1.85l-1.25.8a1.73,1.73,0,0,0-1.71-1.24c-1,0-1.82.75-1.82,2.41,0,1.46.65,2.43,1.82,2.43a2,2,0,0,0,1.82-1.37l1.25.79a3.32,3.32,0,0,1-3.17,1.95C90.09,86.36,88.36,85.23,88.36,82.55Z"/><path class="cls-3" d="M95.93,84.4c0-1.61,1.35-2.61,4.77-3v-.22c0-.68-.4-1-1.27-1a3.58,3.58,0,0,0-2.36,1l-.92-1a4.84,4.84,0,0,1,3.5-1.34c1.89,0,2.7.94,2.7,2.65V86.2h-1.52l-.14-.94a3.58,3.58,0,0,1-2.69,1A1.89,1.89,0,0,1,95.93,84.4Zm4.77-.23V82.55c-2.36.33-3.12.84-3.12,1.57,0,.58.4.88,1,.88A2.84,2.84,0,0,0,100.7,84.16Z"/><path class="cls-3" d="M104.66,84.19v-4h-1.24V78.89h1.24V76.45l1.68-.25v2.69h1.89v1.34h-1.89v3.7c0,.79.33,1,1,1a2.9,2.9,0,0,0,.75-.11l.14,1.34a9.55,9.55,0,0,1-1.34.11C105.36,86.3,104.66,85.78,104.66,84.19Z"/><path class="cls-3" d="M109.38,76.91a.87.87,0,0,1,1-.9.9.9,0,1,1,0,1.79A.87.87,0,0,1,109.38,76.91Zm.14,9.3V78.89h1.68V86.2Z"/><path class="cls-3" d="M112.66,82.55a3.57,3.57,0,1,1,3.57,3.81A3.46,3.46,0,0,1,112.66,82.55Zm5.45,0c0-1.35-.59-2.37-1.88-2.37s-1.88.92-1.88,2.37.57,2.37,1.88,2.37S118.11,84,118.11,82.56Z"/><path class="cls-3" d="M121.27,86.2V78.89h1.56l.14,1a3.48,3.48,0,0,1,2.63-1.19,1.93,1.93,0,0,1,2.15,2.14V86.2h-1.68V81.38c0-.81-.33-1.23-1.12-1.23a3,3,0,0,0-2,1v5.1Z"/><path class="cls-4" d="M69.17,35.37V25.16h6.59v1.6H70.89V29.3h3.72l.25,1.53h-4v3H76v1.56Z"/><path class="cls-4" d="M77.41,35.37V28.06H79l.14,1a3.48,3.48,0,0,1,2.63-1.19A1.93,1.93,0,0,1,83.9,30v5.32H82.21V30.54c0-.81-.33-1.23-1.12-1.23a3,3,0,0,0-2,1v5.1Z"/><path class="cls-4" d="M86.23,33.35v-4H85V28.06h1.24V25.61l1.68-.25v2.69h1.89v1.34H87.92v3.7c0,.79.33,1,1,1a3,3,0,0,0,.75-.11l.14,1.34a9.63,9.63,0,0,1-1.34.11C86.94,35.46,86.23,34.94,86.23,33.35Z"/><path class="cls-4" d="M91,35.37V28.06h1.56l.14,1.19h0a2.87,2.87,0,0,1,2.58-1.34h.07l.15,1.56a2.35,2.35,0,0,0-.44,0,2.62,2.62,0,0,0-2.37,1.3v4.63Z"/><path class="cls-4" d="M96.21,31.71A3.5,3.5,0,0,1,99.7,27.9c1.59,0,3.21,1,3.21,4v.4h-5a1.84,1.84,0,0,0,2,1.9,3.23,3.23,0,0,0,2.26-.94l.68,1.12a4.14,4.14,0,0,1-3,1.17C97.91,35.52,96.21,34.4,96.21,31.71Zm5.15-.7c-.08-1.08-.65-1.72-1.67-1.72A1.78,1.78,0,0,0,97.92,31Z"/><path class="cls-4" d="M104.4,38.25V28.06H106l.14,1a2.9,2.9,0,0,1,2.33-1.1c1.67,0,2.9,1.26,2.9,3.79s-1.24,3.78-2.92,3.78a2.94,2.94,0,0,1-2.3-.91V38Zm5.23-6.54c0-1.52-.66-2.36-1.75-2.36a2.5,2.5,0,0,0-1.78.91v3a2.47,2.47,0,0,0,1.81.88C109,34.14,109.63,33.41,109.63,31.71Z"/><path class="cls-4" d="M112.83,35.37V28.06h1.56l.14,1.19h0a2.87,2.87,0,0,1,2.58-1.34h.07l.15,1.56a2.35,2.35,0,0,0-.44,0,2.62,2.62,0,0,0-2.37,1.3v4.63Z"/><path class="cls-4" d="M118,31.71a3.5,3.5,0,0,1,3.49-3.81c1.59,0,3.21,1,3.21,4v.4h-5a1.84,1.84,0,0,0,2,1.9,3.23,3.23,0,0,0,2.26-.94l.68,1.12a4.14,4.14,0,0,1-3,1.17C119.69,35.52,118,34.4,118,31.71Zm5.15-.7c-.08-1.08-.65-1.72-1.67-1.72A1.78,1.78,0,0,0,119.71,31Z"/><path class="cls-4" d="M126.19,35.37V28.06h1.56l.14,1a3.48,3.48,0,0,1,2.63-1.19A1.93,1.93,0,0,1,132.68,30v5.32H131V30.54c0-.81-.33-1.23-1.12-1.23a3,3,0,0,0-2,1v5.1Z"/><path class="cls-4" d="M134.09,31.71a3.5,3.5,0,0,1,3.49-3.81c1.59,0,3.21,1,3.21,4v.4h-5a1.84,1.84,0,0,0,2,1.9,3.23,3.23,0,0,0,2.26-.94l.68,1.12a4.14,4.14,0,0,1-3,1.17C135.78,35.52,134.09,34.4,134.09,31.71Zm5.15-.7c-.08-1.08-.65-1.72-1.67-1.72A1.78,1.78,0,0,0,135.8,31Z"/><path class="cls-4" d="M142.23,33.38V28.06h1.7v4.87c0,.77.32,1.16,1.1,1.16a3,3,0,0,0,2-1V28.06h1.7v7.31h-1.56l-.14-1a3.56,3.56,0,0,1-2.62,1.17A1.94,1.94,0,0,1,142.23,33.38Z"/><path class="cls-4" d="M150.56,35.37V28.06h1.56l.14,1.19h0a2.87,2.87,0,0,1,2.58-1.34h.07l.15,1.56a2.35,2.35,0,0,0-.44,0,2.62,2.62,0,0,0-2.37,1.3v4.63Z"/><path class="cls-4" d="M155.78,34.36l.65-1.15a4,4,0,0,0,2.52,1c.91,0,1.46-.29,1.46-.8s-.43-.8-1.64-1c-1.54-.32-2.73-.73-2.73-2.3,0-1.3,1.08-2.15,2.69-2.15a4.78,4.78,0,0,1,3,.92l-.59,1.2a3.87,3.87,0,0,0-2.25-.79c-.83,0-1.23.3-1.23.74s.4.7,1.49.94c1.64.33,2.9.72,2.9,2.26s-1.39,2.32-3.08,2.32A4.68,4.68,0,0,1,155.78,34.36Z"/><path class="cls-4" d="M163.43,35.37V25.28l1.7-.25v4.06a3.42,3.42,0,0,1,2.62-1.19A1.94,1.94,0,0,1,169.92,30v5.32h-1.7V30.54c0-.79-.33-1.19-1.1-1.19a2.94,2.94,0,0,0-2,1v5.06Z"/><path class="cls-4" d="M171.63,26.07a.87.87,0,0,1,1-.9.9.9,0,1,1,0,1.79A.87.87,0,0,1,171.63,26.07Zm.14,9.3V28.06h1.68v7.31Z"/><path class="cls-4" d="M175.33,38.25V28.06h1.56l.14,1a2.9,2.9,0,0,1,2.33-1.1c1.67,0,2.9,1.26,2.9,3.79s-1.24,3.78-2.92,3.78a2.94,2.94,0,0,1-2.3-.91V38Zm5.23-6.54c0-1.52-.66-2.36-1.75-2.36a2.5,2.5,0,0,0-1.78.91v3a2.47,2.47,0,0,0,1.81.88C179.88,34.14,180.56,33.41,180.56,31.71Z"/><path class="cls-5" d="M427.22,139.41c0-3.37,1.79-5.87,4.3-5.87a3.81,3.81,0,0,1,2.57.83l-.49.83a3,3,0,0,0-2.1-.74c-2,0-3.27,2.11-3.27,4.85a4.22,4.22,0,0,1,3.12-1.46,3.13,3.13,0,0,1,3.42,3.42,3.48,3.48,0,0,1-3.67,3.64C429,144.89,427.22,143.16,427.22,139.41Zm6.54,1.86a2.28,2.28,0,0,0-2.51-2.53,3.67,3.67,0,0,0-3,1.61c.22,2.51,1.42,3.64,2.87,3.64A2.48,2.48,0,0,0,433.76,141.27Z"/><path class="cls-5" d="M437,144.66l4.6-10H436l-.07-1h6.76v.9l-4.64,10.07Z"/><path class="cls-5" d="M444.15,136.91c0-2,1-3.31,2.47-3.31s2.44,1.27,2.44,3.25-.9,3.31-2.45,3.31S444.15,138.83,444.15,136.91Zm4,0c0-1.48-.55-2.48-1.52-2.48s-1.52,1.08-1.52,2.45.55,2.51,1.54,2.51S448.12,138.27,448.12,136.88Zm-1.46,7.81,6.54-10.94h.95l-6.54,10.94Zm5.07-3.1c0-2,1-3.31,2.48-3.31s2.44,1.27,2.44,3.27-.9,3.3-2.47,3.3S451.73,143.5,451.73,141.58Zm4,0c0-1.48-.53-2.48-1.52-2.48s-1.51,1.08-1.51,2.47.53,2.5,1.52,2.5S455.71,142.94,455.71,141.55Z"/><path class="cls-5" d="M160.24,12.63c0-1.54,1.09-2.38,2.9-3.16-1.49-.67-2.4-1.37-2.4-2.71s1.26-2.65,3.4-2.65,3.39,1.3,3.39,2.65-.87,2-2.42,2.68C167,10.25,168,11,168,12.63s-1.43,2.87-3.89,2.87S160.24,14.22,160.24,12.63Zm6.76-.06c0-1.23-1-1.91-2.91-2.69-1.94.86-2.81,1.52-2.81,2.69s1.2,2,2.87,2S167,13.82,167,12.58Zm-.49-5.77c0-.87-.72-1.8-2.37-1.8s-2.38.89-2.38,1.76c0,1,.75,1.55,2.42,2.28C165.83,8.33,166.51,7.83,166.51,6.81Z"/><path class="cls-5" d="M169.39,7.5c0-2,1-3.31,2.47-3.31s2.44,1.27,2.44,3.25-.9,3.31-2.45,3.31S169.39,9.43,169.39,7.5Zm4,0c0-1.48-.55-2.48-1.52-2.48s-1.52,1.08-1.52,2.45.55,2.51,1.54,2.51S173.36,8.86,173.36,7.47Zm-1.46,7.81,6.54-10.94h.95l-6.54,10.94Zm5.07-3.1c0-2,1-3.31,2.48-3.31s2.44,1.27,2.44,3.27-.9,3.3-2.47,3.3S177,14.1,177,12.18Zm4,0c0-1.48-.53-2.48-1.52-2.48s-1.51,1.08-1.51,2.47.53,2.5,1.52,2.5S180.95,13.54,180.95,12.15Z"/><path class="cls-5" d="M214.64,160.35l1.86-2.62c3.17,2.69,5.73,4.28,11.18,4.28,9.93,0,15.94-11,15.8-24.63-3.17,3.73-8.14,7.38-15,7.38-11.11,0-15.8-7.17-15.8-15.87,0-9.45,6.28-16.83,16.63-16.83,9.38,0,17.45,7.86,17.45,25.59,0,14.83-7.52,27.39-19.18,27.39C221.6,165,217.6,163,214.64,160.35Zm28.63-27.18c-1.17-12.56-7.24-18.07-14.14-18.07-7.66,0-13,4.9-13,13.8,0,7.45,3.79,12.83,12.56,12.83C234.64,141.73,239.82,138.21,243.26,133.17Z"/><path class="cls-5" d="M251.28,164.08V163c0-7.38,4.07-14,17.52-22.63,7.59-4.83,10.69-8.69,10.69-14.28,0-6.48-3.86-11-11.31-11-6,0-10,3-13,9.31L252.39,123c3.31-7.17,8.9-11,15.94-11,9,0,14.56,5.79,14.56,13.8,0,7.24-3.79,11.59-13.59,17.8S255,155.94,254.87,160.91h27.94l.55,3.17Z"/><path class="cls-5" d="M290.85,161.25c0-1.93,1-3,2.62-3s2.69,1.1,2.69,3-1.1,3.1-2.69,3.1S290.85,163.25,290.85,161.25Z"/><path class="cls-5" d="M306.47,164.08l21.94-47.74H302l-.55-3.31h30.63v3.1l-22,47.94Z"/><path class="cls-6" d="M221.29,192.66V182.45h2.26l2.75,8.1h0l2.66-8.1h2.3v10.21h-1.67V185h0c-.15.72-.37,1.37-.59,2.08l-2,5.54h-1.53l-2-5.54a19.68,19.68,0,0,1-.61-2.15h0v7.7Z"/><path class="cls-6" d="M233.49,192.66V182.45h1.71v10.21Z"/><path class="cls-6" d="M237.37,192.66V182.45h1.72v8.65h4.57l.26,1.56Z"/><path class="cls-6" d="M245.16,192.66V182.45h1.72v8.65h4.57l.26,1.56Z"/><path class="cls-6" d="M253,192.66V182.45h1.71v10.21Z"/><path class="cls-6" d="M256.44,187.55c0-3.44,2.14-5.3,4.61-5.3s4.59,1.86,4.59,5.3-2.14,5.3-4.59,5.3S256.44,191,256.44,187.55Zm7.49,0c0-2.32-1.16-3.71-2.88-3.71s-2.88,1.39-2.88,3.71,1.16,3.75,2.88,3.75S263.93,189.87,263.93,187.55Z"/><path class="cls-6" d="M267.32,192.66V182.45h1.75l4.83,7.3h0v-7.3h1.6v10.21h-1.57l-5-7.44h0v7.44Z"/><path class="cls-6" d="M281.08,192.66V182.45h6.59V184h-4.87v2.54h3.72l.25,1.53h-4v3H288v1.56Z"/><path class="cls-6" d="M289.13,188.95v-6.5h1.72v6.4c0,1.46.68,2.41,2.25,2.41s2.23-.92,2.23-2.4v-6.41H297v6.47a3.57,3.57,0,0,1-3.95,3.92C290.39,192.84,289.13,191.24,289.13,188.95Z"/><path class="cls-6" d="M299.07,192.66V182.45h3.66c2.41,0,3.82,1,3.82,3.13a2.65,2.65,0,0,1-2.25,2.83l2.43,4.11-1.68.28-2.47-4.17h-1.81v4Zm1.7-5.53h1.88c1.46,0,2.22-.41,2.22-1.57s-.76-1.53-2.22-1.53h-1.88Z"/><path class="cls-6" d="M307.81,187.55c0-3.44,2.14-5.3,4.61-5.3s4.59,1.86,4.59,5.3-2.14,5.3-4.59,5.3S307.81,191,307.81,187.55Zm7.49,0c0-2.32-1.16-3.71-2.88-3.71s-2.88,1.39-2.88,3.71,1.16,3.75,2.88,3.75S315.3,189.87,315.3,187.55Z"/><path class="cls-6" d="M317.83,191.11l.92-1.31a4.93,4.93,0,0,0,3.32,1.52c1.28,0,2.15-.44,2.15-1.32s-.65-1.31-2.33-1.82c-2-.58-3.54-1.1-3.54-3,0-1.72,1.43-2.87,3.48-2.87a6,6,0,0,1,3.81,1.46l-.81,1.38a4.71,4.71,0,0,0-3-1.28c-1.16,0-1.82.51-1.82,1.17,0,1,.73,1.28,2.4,1.78,1.93.57,3.48,1.19,3.48,3.12,0,1.66-1.35,3-3.78,3A6.15,6.15,0,0,1,317.83,191.11Z"/><path class="cls-5" d="M106.18,66.12v-10l-2.1.71-.13-.87,2.29-.81h1V66.12Z"/><path class="cls-5" d="M111.84,66.12v-10l-2.1.71L109.6,56l2.29-.81h1V66.12Z"/><path class="cls-5" d="M115.22,58.34c0-2,1-3.31,2.47-3.31s2.44,1.27,2.44,3.25-.9,3.31-2.45,3.31S115.22,60.26,115.22,58.34Zm4,0c0-1.48-.55-2.48-1.52-2.48s-1.52,1.08-1.52,2.45.55,2.51,1.54,2.51S119.19,59.7,119.19,58.31Zm-1.46,7.81,6.54-10.94h.95l-6.54,10.94ZM122.8,63c0-2,1-3.31,2.48-3.31S127.73,61,127.73,63s-.9,3.3-2.47,3.3S122.8,64.94,122.8,63Zm4,0c0-1.48-.53-2.48-1.52-2.48s-1.51,1.08-1.51,2.47.53,2.5,1.52,2.5S126.78,64.37,126.78,63Z"/><path class="cls-5" d="M81.19,172.42v-10l-2.1.71-.13-.87,2.29-.81h1v10.94Z"/><path class="cls-5" d="M89.62,172.42v-2.65H84.35V169l5-7.51h1.3v7.36h1.82l0,.93H90.64v2.65Zm-4.08-3.58h4.08V162.7h0Z"/><path class="cls-5" d="M93.13,164.64c0-2,1-3.31,2.47-3.31S98,162.6,98,164.58s-.9,3.31-2.45,3.31S93.13,166.56,93.13,164.64Zm4,0c0-1.48-.55-2.48-1.52-2.48s-1.52,1.08-1.52,2.45.55,2.51,1.54,2.51S97.11,166,97.11,164.61Zm-1.46,7.81,6.54-10.94h.95l-6.54,10.94Zm5.07-3.1c0-2,1-3.31,2.48-3.31s2.44,1.27,2.44,3.27-.9,3.3-2.47,3.3S100.72,171.23,100.72,169.31Zm4,0c0-1.48-.53-2.48-1.52-2.48s-1.51,1.08-1.51,2.47.53,2.5,1.52,2.5S104.69,170.67,104.69,169.28Z"/></g><g id="cab"><path class="cls-1" d="M270.24,23.63V37.41A121,121,0,1,1,164.18,217.21l-11.83,6.56C176.89,268,219.62,293.2,270.24,293.2a134.79,134.79,0,1,0,0-269.57Z"/><path class="cls-2" d="M149,158.42A120.7,120.7,0,0,1,157,115l-12.6-4.84c-14.94,38.92-12.26,77.19,7.95,113.65l11.83-6.56A120.45,120.45,0,0,1,149,158.42Z"/><path class="cls-3" d="M211.5,52.45l-6.61-11.92q-43,23.82-60.49,69.58L157,115A121.42,121.42,0,0,1,211.5,52.45Z"/><path class="cls-4" d="M270,37.41h.28V23.63a129.54,129.54,0,0,0-65.35,16.9l6.61,11.92A120.45,120.45,0,0,1,270,37.41Z"/></g></svg>