<svg id="Capa_1" data-name="Capa 1" xmlns="http://www.w3.org/2000/svg" viewBox="0 0 745 199"><defs><style>.cls-1{fill:#f3f3f3;}.cls-2{fill:#2ecdcd;}.cls-3{fill:#fff;}.cls-4{fill:#666;}.cls-5{fill:#121212;}</style></defs><title>sociedad-medioambiente-eng</title><path class="cls-1" d="M649.7,79.38l45.37,62.45a77.2,77.2,0,1,1-90.75-124.9A74,74,0,0,1,649.7,2.18Z"/><path class="cls-2" d="M649.7,79.38V2.18a77.2,77.2,0,0,1,77.2,77.2c0,25.58-11.13,47.42-31.82,62.45Z"/><path class="cls-1" d="M459.62,79.39,483.47,6A77.2,77.2,0,1,1,386.2,55.54C396.72,23.14,425.55,2.2,459.62,2.2Z"/><path class="cls-2" d="M459.62,79.39V2.2A73.39,73.39,0,0,1,483.47,6Z"/><path class="cls-1" d="M84.75,79.36l26.4-72.54a77.2,77.2,0,1,1-26.4-4.66Z"/><path class="cls-2" d="M84.75,79.36V2.16a70.69,70.69,0,0,1,26.4,4.66Z"/><circle class="cls-3" cx="85.07" cy="79.04" r="71.58"/><path class="cls-1" d="M271.14,79.2,317.6,17.54A77.2,77.2,0,1,1,209.49,32.74,75.94,75.94,0,0,1,271.14,2Z"/><path class="cls-2" d="M271.14,79.2V2C289,2,303.3,6.77,317.6,17.54Z"/><circle class="cls-3" cx="271.14" cy="79.2" r="71.58"/><circle class="cls-3" cx="459.62" cy="79.4" r="71.58"/><circle class="cls-3" cx="649.7" cy="79.38" r="71.58"/><path class="cls-2" d="M73.24,106.66c0-3.05,1.75-4.8,4-4.8A3.5,3.5,0,0,1,80.76,104l-1.33.79a2.23,2.23,0,0,0-2.16-1.49c-1.58,0-2.46,1.31-2.46,3.34s.93,3.45,2.55,3.45a2.33,2.33,0,0,0,2.27-1.73L81,109a3.55,3.55,0,0,1-3.63,2.52C75,111.51,73.24,109.8,73.24,106.66Z"/><path class="cls-2" d="M82,106.69c0-3.13,1.95-4.82,4.19-4.82s4.18,1.7,4.18,4.82-1.95,4.82-4.18,4.82S82,109.81,82,106.69Zm6.82,0c0-2.11-1.05-3.38-2.62-3.38s-2.62,1.27-2.62,3.38,1.05,3.42,2.62,3.42S88.8,108.79,88.8,106.69Z"/><path class="cls-2" d="M91.37,115.51v-.12c0-.79.27-1.54,1.7-2.45.83-.53,1.16-.8,1.16-1.36s-.31-.78-.88-.78a1.46,1.46,0,0,0-1.27.86l-.63-.53A2.12,2.12,0,0,1,93.39,110a1.53,1.53,0,0,1,1.74,1.54c0,.66-.24,1.16-1.28,1.82-.85.54-1.38,1-1.4,1.35h2.65l.12.81Z"/><path class="cls-4" d="M52.29,183.6v-7.86H54.9c1.7,0,2.75.69,2.75,2.15s-1.17,2.23-2.82,2.23H53v3.48Zm.75-4.15h1.84c1.29,0,2-.41,2-1.54s-.71-1.48-2-1.48H53Z"/><path class="cls-4" d="M59.08,183.6v-7.86h4.69v.7H59.84v2.67h2.94l.12.68H59.84v3.12H64v.69Z"/><path class="cls-4" d="M65.45,183.6v-7.86h2.63c1.74,0,2.72.74,2.72,2.15a2,2,0,0,1-1.87,2.1l2,3.55-.78.13-2-3.59h-2v3.53Zm.74-4.2H68c1.29,0,2-.38,2-1.51s-.72-1.47-2-1.47H66.19Z"/><path class="cls-4" d="M75,183.6v-7.86h2.61c1.7,0,2.75.69,2.75,2.15s-1.17,2.23-2.83,2.23H75.73v3.48Zm.75-4.15h1.84c1.29,0,2-.41,2-1.54s-.71-1.48-2-1.48H75.73Z"/><path class="cls-4" d="M81.77,183.6v-7.86h4.69v.7H82.52v2.67h2.94l.12.68H82.52v3.12h4.16v.69Z"/><path class="cls-4" d="M88.13,183.6v-7.86h2.63c1.74,0,2.72.74,2.72,2.15a2,2,0,0,1-1.87,2.1l2,3.55-.77.13-2-3.59h-2v3.53Zm.74-4.2h1.84c1.3,0,2-.38,2-1.51s-.72-1.47-2-1.47H88.87Z"/><path class="cls-4" d="M94.58,182.49l.43-.56a3.78,3.78,0,0,0,2.69,1.14c1.21,0,2-.54,2-1.41s-.4-1.24-2.07-1.76-2.55-1-2.55-2.28a2.2,2.2,0,0,1,2.44-2,4,4,0,0,1,2.79,1.12l-.38.59a3.49,3.49,0,0,0-2.41-1c-1.06,0-1.7.58-1.7,1.29,0,.88.53,1.19,2.18,1.71s2.44,1.06,2.44,2.35-1.15,2.13-2.72,2.13A4.28,4.28,0,0,1,94.58,182.49Z"/><path class="cls-4" d="M101.68,179.67c0-2.46,1.41-4.08,3.31-4.08s3.31,1.61,3.31,4.08-1.42,4.08-3.31,4.08S101.68,182.13,101.68,179.67Zm5.87,0c0-2.12-1.07-3.39-2.56-3.39s-2.56,1.26-2.56,3.39,1.07,3.4,2.56,3.4S107.55,181.79,107.55,179.67Z"/><path class="cls-4" d="M110,183.6v-7.86h.81l4.33,6.48h0v-6.48h.71v7.86h-.67l-4.47-6.68h0v6.68Z"/><path class="cls-4" d="M239.55,183.6v-7.86h2.61c1.7,0,2.75.69,2.75,2.15s-1.17,2.23-2.83,2.23h-1.78v3.48Zm.75-4.15h1.84c1.29,0,2-.41,2-1.54s-.71-1.48-2-1.48h-1.83Z"/><path class="cls-4" d="M246.35,183.6v-7.86H251v.7H247.1v2.67H250l.12.68H247.1v3.12h4.16v.69Z"/><path class="cls-4" d="M252.71,183.6v-7.86h2.63c1.74,0,2.72.74,2.72,2.15a2,2,0,0,1-1.87,2.1l2,3.55-.78.13-2-3.59h-2v3.53Zm.74-4.2h1.84c1.29,0,2-.38,2-1.51s-.72-1.47-2-1.47h-1.83Z"/><path class="cls-4" d="M262.24,183.6v-7.86h2.61c1.7,0,2.75.69,2.75,2.15s-1.17,2.23-2.83,2.23H263v3.48Zm.75-4.15h1.84c1.29,0,2-.41,2-1.54s-.71-1.48-2-1.48H263Z"/><path class="cls-4" d="M269,183.6v-7.86h4.69v.7h-3.94v2.67h2.94l.12.68h-3.06v3.12H274v.69Z"/><path class="cls-4" d="M275.4,183.6v-7.86H278c1.74,0,2.72.74,2.72,2.15a2,2,0,0,1-1.87,2.1l2,3.55-.77.13-2-3.59h-2v3.53Zm.74-4.2H278c1.3,0,2-.38,2-1.51s-.72-1.47-2-1.47h-1.83Z"/><path class="cls-4" d="M281.84,182.49l.43-.56a3.78,3.78,0,0,0,2.69,1.14c1.21,0,2-.54,2-1.41s-.4-1.24-2.07-1.76-2.55-1-2.55-2.28a2.2,2.2,0,0,1,2.44-2,4,4,0,0,1,2.79,1.12l-.38.59a3.49,3.49,0,0,0-2.41-1c-1.06,0-1.7.58-1.7,1.29,0,.88.53,1.19,2.18,1.71s2.44,1.06,2.44,2.35-1.15,2.13-2.72,2.13A4.28,4.28,0,0,1,281.84,182.49Z"/><path class="cls-4" d="M288.95,179.67c0-2.46,1.41-4.08,3.31-4.08s3.31,1.61,3.31,4.08-1.42,4.08-3.31,4.08S288.95,182.13,288.95,179.67Zm5.87,0c0-2.12-1.07-3.39-2.56-3.39s-2.56,1.26-2.56,3.39,1.07,3.4,2.56,3.4S294.82,181.79,294.82,179.67Z"/><path class="cls-4" d="M297.27,183.6v-7.86h.81l4.33,6.48h0v-6.48h.71v7.86h-.67L298,176.92h0v6.68Z"/><path class="cls-4" d="M428.45,183.6v-7.86h2.61c1.7,0,2.75.69,2.75,2.15s-1.17,2.23-2.83,2.23h-1.78v3.48Zm.75-4.15H431c1.29,0,2-.41,2-1.54s-.71-1.48-2-1.48h-1.83Z"/><path class="cls-4" d="M435.25,183.6v-7.86h4.69v.7H436v2.67h2.94l.12.68H436v3.12h4.16v.69Z"/><path class="cls-4" d="M441.61,183.6v-7.86h2.63c1.74,0,2.72.74,2.72,2.15a2,2,0,0,1-1.87,2.1l2,3.55-.77.13-2-3.59h-2v3.53Zm.74-4.2h1.84c1.3,0,2-.38,2-1.51s-.72-1.47-2-1.47h-1.83Z"/><path class="cls-4" d="M451.14,183.6v-7.86h2.61c1.7,0,2.75.69,2.75,2.15s-1.17,2.23-2.83,2.23h-1.78v3.48Zm.75-4.15h1.84c1.29,0,2-.41,2-1.54s-.71-1.48-2-1.48h-1.83Z"/><path class="cls-4" d="M457.94,183.6v-7.86h4.69v.7h-3.94v2.67h2.94l.12.68h-3.06v3.12h4.16v.69Z"/><path class="cls-4" d="M464.3,183.6v-7.86h2.63c1.74,0,2.72.74,2.72,2.15a2,2,0,0,1-1.87,2.1l2,3.55-.78.13-2-3.59h-2v3.53Zm.74-4.2h1.84c1.29,0,2-.38,2-1.51s-.72-1.47-2-1.47H465Z"/><path class="cls-4" d="M470.74,182.49l.44-.56a3.77,3.77,0,0,0,2.69,1.14c1.21,0,2-.54,2-1.41s-.4-1.24-2.07-1.76-2.55-1-2.55-2.28a2.2,2.2,0,0,1,2.44-2,4,4,0,0,1,2.79,1.12l-.38.59a3.49,3.49,0,0,0-2.41-1c-1.06,0-1.7.58-1.7,1.29,0,.88.53,1.19,2.18,1.71s2.44,1.06,2.44,2.35-1.15,2.13-2.72,2.13A4.28,4.28,0,0,1,470.74,182.49Z"/><path class="cls-4" d="M477.85,179.67c0-2.46,1.41-4.08,3.31-4.08s3.31,1.61,3.31,4.08-1.42,4.08-3.31,4.08S477.85,182.13,477.85,179.67Zm5.87,0c0-2.12-1.07-3.39-2.56-3.39s-2.56,1.26-2.56,3.39,1.07,3.4,2.56,3.4S483.72,181.79,483.72,179.67Z"/><path class="cls-4" d="M486.17,183.6v-7.86H487l4.33,6.48h0v-6.48H492v7.86h-.67l-4.47-6.68h0v6.68Z"/><path class="cls-4" d="M600.36,183.6v-7.86h2.73c1.77,0,2.67.73,2.67,2a1.79,1.79,0,0,1-1.49,1.82v0a1.9,1.9,0,0,1,1.74,1.91c0,1.24-.87,2.13-2.69,2.13Zm.74-4.37H603c1.25,0,2-.46,2-1.42s-.6-1.39-2-1.39H601.1Zm0,3.7h2.21c1.35,0,2-.55,2-1.5s-.84-1.54-2.19-1.54h-2Z"/><path class="cls-4" d="M607.58,180.94v-5.2h.75v5.1a2,2,0,0,0,2.11,2.22,2,2,0,0,0,2.1-2.2v-5.12h.75v5.18a2.86,2.86,0,0,1-5.72,0Z"/><path class="cls-4" d="M615.35,183.6v-7.86h.75v7.86Z"/><path class="cls-4" d="M618.18,183.6v-7.86h.75v7.17h3.78l.12.69Z"/><path class="cls-4" d="M624.2,183.6v-7.86h2c2.55,0,3.91,1.33,3.91,3.92s-1.39,3.94-3.91,3.94Zm.75-.69h1.35c2,0,3-1,3-3.24s-1.09-3.23-3.06-3.23H625Z"/><path class="cls-4" d="M631.84,183.6v-7.86h.75v7.86Z"/><path class="cls-4" d="M634.67,183.6v-7.86h.81l4.33,6.48h0v-6.48h.71v7.86h-.67l-4.47-6.68h0v6.68Z"/><path class="cls-4" d="M642.23,179.64c0-2.46,1.38-4,3.28-4a2.76,2.76,0,0,1,2.7,1.84l-.67.32a2,2,0,0,0-2-1.47c-1.37,0-2.53,1.14-2.53,3.32s1,3.46,2.54,3.46c1.32,0,2.19-.95,2.18-2.52h-1.85l-.12-.65h2.7v3.7h-.68v-1.14h0a2.39,2.39,0,0,1-2.27,1.29C643.41,183.75,642.23,182,642.23,179.64Z"/><path class="cls-4" d="M649.75,182.49l.44-.56a3.77,3.77,0,0,0,2.69,1.14c1.21,0,2-.54,2-1.41s-.4-1.24-2.07-1.76-2.55-1-2.55-2.28a2.2,2.2,0,0,1,2.44-2,4,4,0,0,1,2.79,1.12l-.38.59a3.49,3.49,0,0,0-2.41-1c-1.06,0-1.7.58-1.7,1.29,0,.88.53,1.19,2.18,1.71s2.44,1.06,2.44,2.35-1.15,2.13-2.72,2.13A4.28,4.28,0,0,1,649.75,182.49Z"/><path class="cls-4" d="M661.18,183.6l-2.08-7.79.73-.13,1.24,4.83c.19.72.36,1.43.48,2h0c.11-.53.28-1.25.46-2l1.17-4.78h.8l1.19,4.82c.17.71.34,1.34.45,1.92h0c.14-.63.29-1.19.46-1.88l1.23-4.86h.72L666,183.6h-.71l-1.67-6.82h0l-1.69,6.82Z"/><path class="cls-4" d="M669.54,183.6v-7.86h.75v7.86Z"/><path class="cls-4" d="M674.25,183.6v-7.16h-2.54v-.7h5.77l.12.7H675v7.16Z"/><path class="cls-4" d="M679,183.6v-7.86h.75v3.37H684v-3.37h.75v7.86H684v-3.8h-4.26v3.8Z"/><path class="cls-4" d="M559.83,197.12v-7.86h4.69v.7h-3.94v2.67h2.94l.12.68h-3.06v3.12h4.16v.69Z"/><path class="cls-4" d="M566.19,197.12v-7.86H567l4.33,6.48h0v-6.48h.71v7.86h-.67l-4.47-6.68h0v6.68Z"/><path class="cls-4" d="M576.21,197.15l-2.74-7.83.73-.13,2.37,6.92h0l2.36-6.86h.73l-2.76,7.89Z"/><path class="cls-4" d="M581.13,197.12v-7.86h.75v7.86Z"/><path class="cls-4" d="M584,197.12v-7.86h2.63c1.74,0,2.72.74,2.72,2.15a2,2,0,0,1-1.87,2.1l2,3.55-.77.13-2-3.59h-2v3.53Zm.74-4.2h1.84c1.3,0,2-.38,2-1.51s-.72-1.47-2-1.47H584.7Z"/><path class="cls-4" d="M590.64,193.19c0-2.46,1.41-4.08,3.31-4.08s3.31,1.61,3.31,4.08-1.42,4.08-3.31,4.08S590.64,195.65,590.64,193.19Zm5.87,0c0-2.12-1.07-3.39-2.56-3.39s-2.56,1.26-2.56,3.39,1.07,3.4,2.56,3.4S596.51,195.31,596.51,193.19Z"/><path class="cls-4" d="M599,197.12v-7.86h.81l4.33,6.48h0v-6.48h.71v7.86h-.67l-4.47-6.68h0v6.68Z"/><path class="cls-4" d="M606.87,197.12v-7.86h1l2.63,6.88h0l2.62-6.88h1v7.86h-.75v-6.59h0c-.11.36-.3.88-.49,1.38l-2,5.21h-.69l-2-5.21c-.19-.5-.32-.83-.49-1.39h0v6.61Z"/><path class="cls-4" d="M616.15,197.12v-7.86h4.69v.7h-3.94v2.67h2.94l.12.68h-3.06v3.12h4.16v.69Z"/><path class="cls-4" d="M622.51,197.12v-7.86h.81l4.33,6.48h0v-6.48h.71v7.86h-.67l-4.47-6.68h0v6.68Z"/><path class="cls-4" d="M632.31,197.12V190h-2.54v-.7h5.77l.12.7h-2.59v7.16Z"/><path class="cls-4" d="M635.49,197.12l2.78-7.89h.81l2.77,7.83-.74.13-.86-2.49h-3.19l-.84,2.42Zm1.8-3.09H640l-1.35-3.91h0Z"/><path class="cls-4" d="M643.25,197.12v-7.86H644v7.17h3.78l.12.69Z"/><path class="cls-4" d="M651.27,193.16c0-2.37,1.31-4,3.25-4a2.73,2.73,0,0,1,2.7,1.73l-.65.34a2,2,0,0,0-2-1.38c-1.53,0-2.5,1.34-2.5,3.33,0,2.17,1,3.45,2.53,3.45a2.22,2.22,0,0,0,2.19-1.57l.65.3a2.87,2.87,0,0,1-2.85,2C652.57,197.27,651.27,195.64,651.27,193.16Z"/><path class="cls-4" d="M658.93,197.12v-7.86h4.69v.7h-3.94v2.67h2.94l.12.68h-3.06v3.12h4.16v.69Z"/><path class="cls-4" d="M665.29,197.12v-7.86h2.63c1.74,0,2.72.74,2.72,2.15a2,2,0,0,1-1.87,2.1l2,3.55-.78.13-2-3.59h-2v3.53Zm.74-4.2h1.84c1.29,0,2-.38,2-1.51s-.72-1.47-2-1.47H666Z"/><path class="cls-4" d="M674.26,197.12V190h-2.54v-.7h5.77l.12.7H675v7.16Z"/><path class="cls-4" d="M679,197.12v-7.86h.75v7.86Z"/><path class="cls-4" d="M681.84,197.12v-7.86h4.6v.7H682.6v2.71h2.84l.11.68H682.6v3.77Z"/><path class="cls-4" d="M687.89,197.12v-7.86h.75v7.86Z"/><path class="cls-4" d="M690.39,193.16c0-2.37,1.31-4,3.25-4a2.73,2.73,0,0,1,2.7,1.73l-.65.34a2,2,0,0,0-2-1.38c-1.53,0-2.5,1.34-2.5,3.33,0,2.17,1,3.45,2.53,3.45a2.23,2.23,0,0,0,2.19-1.57l.65.3a2.87,2.87,0,0,1-2.85,2C691.69,197.27,690.39,195.64,690.39,193.16Z"/><path class="cls-4" d="M697.45,197.12l2.78-7.89H701l2.77,7.83-.74.13-.86-2.49H699l-.84,2.42Zm1.81-3.09H702l-1.35-3.91h0Z"/><path class="cls-4" d="M706.21,197.12V190h-2.54v-.7h5.77l.12.7H707v7.16Z"/><path class="cls-4" d="M711,197.12v-7.86h.75v7.86Z"/><path class="cls-4" d="M713.45,193.19c0-2.46,1.41-4.08,3.31-4.08s3.31,1.61,3.31,4.08-1.42,4.08-3.31,4.08S713.45,195.65,713.45,193.19Zm5.87,0c0-2.12-1.07-3.39-2.56-3.39s-2.56,1.26-2.56,3.39,1.07,3.4,2.56,3.4S719.32,195.31,719.32,193.19Z"/><path class="cls-4" d="M721.77,197.12v-7.86h.81l4.33,6.48h0v-6.48h.71v7.86H727l-4.47-6.68h0v6.68Z"/><path class="cls-5" d="M35.91,82.17l1.42-.87c1.5,2.5,3.58,4.24,6.81,4.24,4.66,0,6.78-3.68,6.78-7.33,0-4.45-2.68-6.92-6.19-6.92a7,7,0,0,0-6.15,3.51l-1.42-.59,1-13.35H50.93l.31,1.67H39.7l-.76,9.8a7,7,0,0,1,5.84-2.57c4.45,0,7.86,3.2,7.86,8.34s-3.27,9-8.52,9A9.28,9.28,0,0,1,35.91,82.17Z"/><path class="cls-5" d="M56.19,85.16c0-1,.52-1.53,1.32-1.53a1.35,1.35,0,0,1,1.36,1.53c0,1-.56,1.56-1.36,1.56S56.19,86.17,56.19,85.16Z"/><path class="cls-5" d="M64.05,86.58,75.1,62.53H61.79l-.28-1.67H76.95v1.56L65.86,86.58Z"/><path class="cls-5" d="M79.9,84.71l.94-1.32a7.5,7.5,0,0,0,5.63,2.16c5,0,8-5.56,8-12.41a9.86,9.86,0,0,1-7.54,3.72c-5.6,0-8-3.62-8-8,0-4.76,3.16-8.48,8.38-8.48,4.73,0,8.79,4,8.79,12.9,0,7.47-3.79,13.8-9.66,13.8A9.21,9.21,0,0,1,79.9,84.71ZM94.32,71c-.59-6.33-3.65-9.11-7.13-9.11-3.86,0-6.54,2.47-6.54,7,0,3.75,1.91,6.47,6.33,6.47A9.08,9.08,0,0,0,94.32,71Z"/><path class="cls-5" d="M99.23,68.16c0-4.69,2.19-7.65,5.56-7.65s5.46,2.92,5.46,7.51c0,4.38-2,7.61-5.53,7.61S99.23,72.54,99.23,68.16Zm9.35-.07c0-3.58-1.39-6.08-3.86-6.08s-3.82,2.71-3.82,6c0,3.58,1.39,6.12,3.86,6.12S108.58,71.39,108.58,68.09Zm-3.86,18.49,15.36-25.72h1.67L106.39,86.58Zm11.51-7.13c0-4.69,2.19-7.65,5.56-7.65s5.46,2.92,5.46,7.51c0,4.38-2,7.61-5.53,7.61S116.23,83.84,116.23,79.46Zm9.35-.07c0-3.58-1.39-6.08-3.86-6.08s-3.82,2.71-3.82,6c0,3.58,1.39,6.12,3.86,6.12S125.58,82.69,125.58,79.39Z"/><path class="cls-2" d="M233.68,111.33V102h6v1.46h-4.43v2.31h3.39l.23,1.39h-3.62v2.71h4.68v1.42Z"/><path class="cls-2" d="M241.34,111.33V102h1.57v7.87h4.16l.24,1.42Z"/><path class="cls-2" d="M248.53,111.33V102h6v1.46H250.1v2.31h3.39l.23,1.39H250.1v2.71h4.68v1.42Z"/><path class="cls-2" d="M255.55,106.66c0-3.05,1.75-4.8,4-4.8a3.5,3.5,0,0,1,3.49,2.15l-1.33.79a2.23,2.23,0,0,0-2.16-1.49c-1.58,0-2.46,1.31-2.46,3.34s.93,3.45,2.55,3.45a2.33,2.33,0,0,0,2.27-1.73l1.36.62a3.55,3.55,0,0,1-3.63,2.52C257.27,111.51,255.55,109.8,255.55,106.66Z"/><path class="cls-2" d="M267,111.33V103.5h-2.86V102h7.18l.23,1.46h-3v7.84Z"/><path class="cls-2" d="M272.82,111.33V102h3.33c2.2,0,3.48.88,3.48,2.85a2.42,2.42,0,0,1-2,2.57l2.21,3.74-1.53.25L276,107.66h-1.64v3.67Zm1.54-5h1.71c1.33,0,2-.38,2-1.43s-.69-1.39-2-1.39h-1.71Z"/><path class="cls-2" d="M281.4,111.33V102H283v9.29Z"/><path class="cls-2" d="M284.65,106.66c0-3.05,1.75-4.8,4-4.8a3.5,3.5,0,0,1,3.49,2.15l-1.33.79a2.23,2.23,0,0,0-2.16-1.49c-1.58,0-2.46,1.31-2.46,3.34s.93,3.45,2.55,3.45a2.33,2.33,0,0,0,2.27-1.73l1.36.62a3.55,3.55,0,0,1-3.63,2.52C286.37,111.51,284.65,109.8,284.65,106.66Z"/><path class="cls-2" d="M296.13,111.33V103.5h-2.86V102h7.18l.23,1.46h-3v7.84Z"/><path class="cls-2" d="M304.53,111.33v-4l-3.1-5.16,1.49-.25,2.4,4.08,2.34-4h1.61l-3.18,5.29v4Z"/><path class="cls-5" d="M225.06,86.58V62.49l-4.94,1.81-.24-1.49,5.32-1.95h1.56V86.58Z"/><path class="cls-5" d="M232.09,73.72c0-8,3.27-13.35,9.14-13.35s9.11,5.32,9.11,13.35-3.23,13.35-9.11,13.35S232.09,81.75,232.09,73.72Zm16.55,0c0-7.58-3-11.82-7.4-11.82-4.62,0-7.44,4.24-7.44,11.82s3,11.82,7.44,11.82S248.63,81.3,248.63,73.72Z"/><path class="cls-5" d="M253.57,85.16c0-1,.52-1.53,1.32-1.53a1.35,1.35,0,0,1,1.36,1.53c0,1-.56,1.56-1.36,1.56S253.57,86.17,253.57,85.16Z"/><path class="cls-5" d="M259.86,82.17l1.42-.87c1.5,2.5,3.58,4.24,6.81,4.24,4.66,0,6.78-3.68,6.78-7.33,0-4.45-2.68-6.92-6.19-6.92a7,7,0,0,0-6.15,3.51l-1.42-.59,1-13.35h12.79l.31,1.67H263.65l-.76,9.8a7,7,0,0,1,5.84-2.57c4.45,0,7.86,3.2,7.86,8.34s-3.27,9-8.52,9A9.28,9.28,0,0,1,259.86,82.17Z"/><path class="cls-5" d="M279.27,80.47c0-3.68,2.57-5.63,7.06-7.58-3.65-1.6-5.87-3.3-5.87-6.4s3-6.12,7.72-6.12,7.72,3,7.72,6.12-2.16,4.62-6,6.33c4.62,2,7.16,3.89,7.16,7.65,0,3.44-3.27,6.6-8.9,6.6S279.27,84,279.27,80.47Zm16.09-.1c0-3.09-2.64-4.8-7.26-6.74-5,2.19-7.13,3.79-7.13,6.74s3.06,5.18,7.2,5.18S295.36,83.49,295.36,80.36Zm-1.18-13.87c0-2.22-1.88-4.59-6-4.59-3.93,0-6,2.29-6,4.48,0,2.57,1.81,3.82,6,5.7C292.44,70.28,294.18,69.1,294.18,66.49Z"/><path class="cls-5" d="M299.45,68.16c0-4.69,2.19-7.65,5.56-7.65s5.46,2.92,5.46,7.51c0,4.38-2,7.61-5.53,7.61S299.45,72.54,299.45,68.16Zm9.35-.07c0-3.58-1.39-6.08-3.86-6.08s-3.82,2.71-3.82,6c0,3.58,1.39,6.12,3.86,6.12S308.8,71.39,308.8,68.09Zm-3.86,18.49L320.3,60.86H322L306.61,86.58Zm11.51-7.13c0-4.69,2.19-7.65,5.56-7.65s5.46,2.92,5.46,7.51c0,4.38-2,7.61-5.53,7.61S316.44,83.84,316.44,79.46Zm9.35-.07c0-3.58-1.39-6.08-3.86-6.08s-3.82,2.71-3.82,6c0,3.58,1.39,6.12,3.86,6.12S325.79,82.69,325.79,79.39Z"/><path class="cls-2" d="M441.18,111.33l-2.45-9.17,1.52-.25,1.21,4.94c.2.75.38,1.43.5,2.16h0c.11-.7.29-1.41.48-2.15l1.12-4.82h1.5l1.17,4.86c.19.78.35,1.34.48,2.11h0c.14-.79.28-1.29.46-2.07l1.16-4.9h1.46l-2.44,9.29H446l-1.68-7.13h0l-1.75,7.13Z"/><path class="cls-2" d="M449.77,111.33l3.29-9.33h1.53l3.25,9.21-1.52.25-.79-2.34H452l-.78,2.21Zm2.7-3.59h2.61L453.81,104h0Z"/><path class="cls-2" d="M460.32,111.33V103.5h-2.86V102h7.18l.23,1.46h-3v7.84Z"/><path class="cls-2" d="M466.11,111.33V102h6v1.46h-4.43v2.31h3.39l.23,1.39h-3.62v2.71h4.68v1.42Z"/><path class="cls-2" d="M473.76,111.33V102h3.33c2.2,0,3.48.88,3.48,2.85a2.42,2.42,0,0,1-2,2.57l2.21,3.74-1.53.25L477,107.66h-1.64v3.67Zm1.54-5H477c1.33,0,2-.38,2-1.43s-.69-1.39-2-1.39h-1.71Z"/><path class="cls-5" d="M415,82.17l1.42-.87c1.5,2.5,3.58,4.24,6.81,4.24,4.66,0,6.78-3.68,6.78-7.33,0-4.45-2.68-6.92-6.19-6.92a7,7,0,0,0-6.15,3.51l-1.42-.59,1-13.35H430l.31,1.67H418.74l-.76,9.8a7,7,0,0,1,5.84-2.57c4.45,0,7.86,3.2,7.86,8.34s-3.27,9-8.52,9A9.28,9.28,0,0,1,415,82.17Z"/><path class="cls-5" d="M435.23,85.16c0-1,.52-1.53,1.32-1.53a1.35,1.35,0,0,1,1.36,1.53c0,1-.56,1.56-1.36,1.56S435.23,86.17,435.23,85.16Z"/><path class="cls-5" d="M441.08,73.72c0-8,3.27-13.35,9.14-13.35s9.11,5.32,9.11,13.35-3.23,13.35-9.11,13.35S441.08,81.75,441.08,73.72Zm16.55,0c0-7.58-3-11.82-7.4-11.82-4.62,0-7.44,4.24-7.44,11.82s3,11.82,7.44,11.82S457.63,81.3,457.63,73.72Z"/><path class="cls-5" d="M461.51,86.58V86c0-3.72,2.05-7.06,8.83-11.4,3.82-2.43,5.39-4.38,5.39-7.2,0-3.27-1.95-5.53-5.7-5.53-3,0-5,1.5-6.54,4.69l-1.42-.7c1.67-3.62,4.48-5.53,8-5.53,4.52,0,7.33,2.92,7.33,7,0,3.65-1.91,5.84-6.85,9s-7.19,6.19-7.26,8.69h14.08l.28,1.6Z"/><path class="cls-5" d="M480.86,68.16c0-4.69,2.19-7.65,5.56-7.65s5.46,2.92,5.46,7.51c0,4.38-2,7.61-5.53,7.61S480.86,72.54,480.86,68.16Zm9.35-.07c0-3.58-1.39-6.08-3.86-6.08s-3.82,2.71-3.82,6c0,3.58,1.39,6.12,3.86,6.12S490.21,71.39,490.21,68.09Zm-3.86,18.49,15.36-25.72h1.67L488,86.58Zm11.51-7.13c0-4.69,2.19-7.65,5.56-7.65s5.46,2.92,5.46,7.51c0,4.38-2,7.61-5.53,7.61S497.85,83.84,497.85,79.46Zm9.35-.07c0-3.58-1.39-6.08-3.86-6.08s-3.82,2.71-3.82,6c0,3.58,1.39,6.12,3.86,6.12S507.2,82.69,507.2,79.39Z"/><path class="cls-2" d="M613.82,101.67V92.38h6v1.46h-4.43v2.31h3.39l.23,1.39h-3.62v2.71h4.68v1.42Z"/><path class="cls-2" d="M621.48,101.67V92.38h2.06l2.5,7.37h0l2.42-7.37h2.1v9.29h-1.52V94.73h0c-.14.65-.34,1.24-.54,1.9l-1.82,5h-1.39l-1.81-5a17.87,17.87,0,0,1-.55-2h0v7Z"/><path class="cls-2" d="M632.63,101.67V92.38h3.25c2,0,3.57.65,3.57,2.85s-1.71,2.91-3.62,2.91h-1.64v3.53Zm1.56-4.9h1.72c1.38,0,2-.46,2-1.51s-.62-1.46-2-1.46h-1.71Z"/><path class="cls-2" d="M640.8,101.67V92.38h1.57v7.87h4.16l.24,1.42Z"/><path class="cls-2" d="M647.25,97c0-3.13,1.95-4.82,4.19-4.82s4.18,1.7,4.18,4.82-1.95,4.82-4.18,4.82S647.25,100.15,647.25,97Zm6.82,0c0-2.11-1.05-3.38-2.62-3.38s-2.62,1.27-2.62,3.38,1.05,3.42,2.62,3.42S654.07,99.14,654.07,97Z"/><path class="cls-2" d="M659,101.67v-4l-3.1-5.16,1.49-.25,2.4,4.08,2.34-4h1.61l-3.18,5.29v4Z"/><path class="cls-2" d="M664.94,101.67V92.38h6v1.46h-4.43v2.31h3.39l.23,1.39h-3.62v2.71h4.68v1.42Z"/><path class="cls-2" d="M672.6,101.67V92.38h6v1.46h-4.43v2.31h3.39l.23,1.39h-3.62v2.71h4.68v1.42Z"/><path class="cls-2" d="M679.92,100.27l.84-1.19a4.49,4.49,0,0,0,3,1.38c1.17,0,2-.4,2-1.21s-.59-1.19-2.12-1.66c-1.79-.53-3.23-1-3.23-2.78,0-1.57,1.31-2.61,3.16-2.61A5.41,5.41,0,0,1,687,93.54l-.74,1.26a4.29,4.29,0,0,0-2.7-1.17c-1.05,0-1.66.46-1.66,1.07,0,.87.67,1.17,2.19,1.62,1.76.51,3.17,1.08,3.17,2.84,0,1.51-1.23,2.7-3.44,2.7A5.6,5.6,0,0,1,679.92,100.27Z"/><path class="cls-5" d="M628.57,76.93v-6.6H616.23V69.11l11.71-17.9h2.29V68.76h4.21l.31,1.56h-4.52v6.6Zm-10.29-8.17h10.29V53.19h-.07Z"/><path class="cls-5" d="M636.94,64.06c0-8,3.27-13.35,9.14-13.35s9.11,5.32,9.11,13.35S652,77.41,646.08,77.41,636.94,72.09,636.94,64.06Zm16.55,0c0-7.58-3-11.82-7.4-11.82-4.62,0-7.44,4.24-7.44,11.82s3,11.82,7.44,11.82S653.49,71.64,653.49,64.06Z"/><path class="cls-5" d="M658.3,58.5c0-4.69,2.19-7.65,5.56-7.65s5.46,2.92,5.46,7.51c0,4.38-2,7.61-5.53,7.61S658.3,62.88,658.3,58.5Zm9.35-.07c0-3.58-1.39-6.08-3.86-6.08s-3.82,2.71-3.82,6c0,3.58,1.39,6.12,3.86,6.12S667.65,61.74,667.65,58.43Zm-3.86,18.49L679.16,51.2h1.67L665.46,76.93ZM675.3,69.8c0-4.69,2.19-7.65,5.56-7.65s5.46,2.92,5.46,7.51c0,4.38-2,7.61-5.53,7.61S675.3,74.18,675.3,69.8Zm9.35-.07c0-3.58-1.39-6.08-3.86-6.08s-3.82,2.71-3.82,6c0,3.58,1.39,6.12,3.86,6.12S684.65,73,684.65,69.73Z"/></svg>