<?xml version="1.0" encoding="utf-8"?>
<!-- Generator: Adobe Illustrator 19.2.1, SVG Export Plug-In . SVG Version: 6.00 Build 0)  -->
<svg version="1.1" id="Capa_1" xmlns="http://www.w3.org/2000/svg" xmlns:xlink="http://www.w3.org/1999/xlink" x="0px" y="0px"
	 viewBox="0 0 571 298" style="enable-background:new 0 0 571 298;" xml:space="preserve">
<style type="text/css">
	.st0{fill:none;}
	.st1{enable-background:new    ;}
	.st2{fill:#00CCCD;}
	.st3{fill:#00BEFF;}
	.st4{fill:#1464A5;}
	.st5{fill:#004481;}
	.st6{fill:#121212;}
	.st7{fill:#666666;}
</style>
<title>Group 3</title>
<desc>Created with Sketch.</desc>
<g>
	<g>
		<rect x="436.1" y="159.3" class="st0" width="147.7" height="58.1"/>
	</g>
	<g class="st1">
		<path class="st2" d="M437.3,169.8v-10.4h1.8v4.8l4.1-4.8h2.1l-3.5,4l4,6.2l-1.8,0.3l-3.3-5.2l-1.5,1.6v3.4H437.3z"/>
		<path class="st2" d="M446.8,169.8v-7.4h1.6l0.1,1.1c0.5-0.6,1.4-1.2,2.7-1.2c1.3,0,2.2,0.7,2.2,2.2v5.4h-1.7v-4.9
			c0-0.8-0.3-1.2-1.1-1.2c-0.7,0-1.4,0.4-2,1v5.2H446.8z"/>
		<path class="st2" d="M454.9,166.1c0-2.7,1.8-3.9,3.6-3.9c1.8,0,3.6,1.1,3.6,3.9c0,2.7-1.8,3.9-3.6,3.9
			C456.7,170,454.9,168.8,454.9,166.1z M460.4,166.1c0-1.4-0.6-2.4-1.9-2.4c-1.2,0-1.9,0.9-1.9,2.4c0,1.4,0.6,2.4,1.9,2.4
			C459.7,168.5,460.4,167.5,460.4,166.1z"/>
		<path class="st2" d="M464.8,169.8l-2.2-7.3l1.7-0.3l0.8,3.2c0.2,0.9,0.4,1.4,0.6,2.4h0c0.2-1,0.3-1.5,0.6-2.4l0.8-3h1.4l0.8,3.1
			c0.2,0.8,0.4,1.4,0.6,2.4h0c0.2-1,0.3-1.5,0.6-2.3l0.9-3.1h1.6l-2.2,7.4h-1.6l-1.3-5.2h0l-1.4,5.2H464.8z"/>
		<path class="st2" d="M474.2,169.8v-10.2l1.7-0.3v10.5H474.2z"/>
		<path class="st2" d="M477.5,166.1c0-2.8,2-3.9,3.5-3.9c1.6,0,3.3,1,3.3,4v0.4h-5.1c0.1,1.3,0.9,1.9,2,1.9c0.9,0,1.7-0.4,2.3-1
			l0.7,1.1c-0.8,0.8-1.8,1.2-3.1,1.2C479.2,170,477.5,168.8,477.5,166.1z M482.7,165.4c-0.1-1.1-0.7-1.8-1.7-1.8
			c-0.9,0-1.6,0.6-1.8,1.8H482.7z"/>
		<path class="st2" d="M485.4,166.1c0-2.6,1.3-3.9,3-3.9c1,0,1.8,0.4,2.3,1v-3.7l1.7-0.3v10.5h-1.6l-0.1-1c-0.5,0.6-1.3,1.1-2.4,1.1
			C486.6,169.9,485.4,168.7,485.4,166.1z M490.7,167.6v-3c-0.6-0.6-1.1-0.9-1.8-0.9c-1.1,0-1.8,0.8-1.8,2.5c0,1.5,0.7,2.4,1.8,2.4
			C489.6,168.5,490.2,168.1,490.7,167.6z"/>
		<path class="st2" d="M493.6,170.9c0-0.7,0.5-1.3,1.2-1.6c-0.4-0.2-0.6-0.5-0.6-0.9c0-0.6,0.4-1,1-1.4c-0.8-0.5-1.2-1.2-1.2-2.1
			c0-1.5,1.2-2.7,3.1-2.7c1,0,1.8,0.3,2.3,0.8c0.4-0.4,1.1-0.7,1.7-0.7l0.2,1.4c-0.4,0-0.9,0-1.4,0.2c0.2,0.3,0.3,0.6,0.3,1
			c0,1.6-1.2,2.6-3.1,2.6c-0.4,0-0.7-0.1-1-0.2c-0.2,0.1-0.4,0.3-0.4,0.5c0,0.3,0.2,0.4,0.9,0.4l1.3,0.1c2.2,0.1,3.1,0.7,3.1,2
			c0,1.5-1.5,2.3-3.8,2.3C494.6,172.7,493.6,172,493.6,170.9z M499.5,170.6c0-0.5-0.4-0.7-1.9-0.8l-1.3-0.1c-0.2,0-0.3,0-0.4,0
			c-0.5,0.2-0.7,0.6-0.7,1c0,0.7,0.8,0.9,2.3,0.9C498.7,171.4,499.5,171.1,499.5,170.6z M498.7,164.9c0-0.9-0.5-1.4-1.5-1.4
			c-1,0-1.5,0.5-1.5,1.4c0,0.9,0.6,1.4,1.5,1.4C498.1,166.3,498.7,165.9,498.7,164.9z"/>
		<path class="st2" d="M502,166.1c0-2.8,2-3.9,3.5-3.9c1.6,0,3.3,1,3.3,4v0.4h-5.1c0.1,1.3,0.9,1.9,2,1.9c0.9,0,1.7-0.4,2.3-1
			l0.7,1.1c-0.8,0.8-1.8,1.2-3.1,1.2C503.7,170,502,168.8,502,166.1z M507.2,165.4c-0.1-1.1-0.7-1.8-1.7-1.8c-0.9,0-1.6,0.6-1.8,1.8
			H507.2z"/>
		<path class="st2" d="M509.8,171.4l0.4-3.4h1.9l-1.3,3.4H509.8z"/>
	</g>
	<g class="st1">
		<path class="st2" d="M436.7,184.1c0-2.8,2-3.9,3.5-3.9c1.6,0,3.3,1,3.3,4v0.4h-5.1c0.1,1.3,0.9,1.9,2,1.9c0.9,0,1.7-0.4,2.3-1
			l0.7,1.1c-0.8,0.8-1.8,1.2-3.1,1.2C438.4,188,436.7,186.8,436.7,184.1z M441.9,183.4c-0.1-1.1-0.7-1.8-1.7-1.8
			c-0.9,0-1.6,0.6-1.8,1.8H441.9z"/>
		<path class="st2" d="M444.6,184.1c0-2.6,1.3-3.9,3-3.9c1,0,1.8,0.4,2.3,1v-3.7l1.7-0.3v10.5H450l-0.1-1c-0.5,0.6-1.3,1.1-2.4,1.1
			C445.8,187.9,444.6,186.7,444.6,184.1z M449.9,185.6v-3c-0.6-0.6-1.1-0.9-1.8-0.9c-1.1,0-1.8,0.8-1.8,2.5c0,1.5,0.7,2.4,1.8,2.4
			C448.8,186.5,449.4,186.1,449.9,185.6z"/>
		<path class="st2" d="M453.5,185.8v-5.4h1.7v4.9c0,0.8,0.3,1.2,1.1,1.2c0.7,0,1.4-0.4,2-1v-5.1h1.7v7.4h-1.6l-0.1-1
			c-0.5,0.6-1.4,1.2-2.7,1.2C454.3,188,453.5,187.3,453.5,185.8z"/>
		<path class="st2" d="M461.5,184.1c0-2.8,1.9-3.9,3.6-3.9c1.3,0,2.4,0.7,3,1.9l-1.3,0.8c-0.4-0.9-0.9-1.3-1.7-1.3
			c-1,0-1.8,0.8-1.8,2.5c0,1.5,0.7,2.5,1.8,2.5c0.9,0,1.4-0.5,1.8-1.4l1.3,0.8c-0.7,1.4-1.8,2-3.2,2
			C463.3,188,461.5,186.8,461.5,184.1z"/>
		<path class="st2" d="M469,186c0-1.6,1.4-2.6,4.8-3v-0.2c0-0.7-0.4-1.1-1.3-1.1c-1,0-1.7,0.4-2.4,1l-0.9-1.1
			c0.8-0.7,1.8-1.4,3.6-1.4c1.9,0,2.7,1,2.7,2.7v4.9H474l-0.1-1c-0.7,0.7-1.6,1.1-2.7,1.1C469.9,187.9,469,187.2,469,186z
			 M473.8,185.7v-1.6c-2.4,0.3-3.2,0.9-3.2,1.6c0,0.6,0.4,0.9,1.1,0.9C472.6,186.6,473.3,186.3,473.8,185.7z"/>
		<path class="st2" d="M477.9,185.8v-4h-1.3v-1.4h1.3v-2.5l1.7-0.3v2.7h1.9v1.4h-1.9v3.8c0,0.8,0.3,1.1,1,1.1c0.3,0,0.5-0.1,0.8-0.1
			l0.1,1.4c-0.2,0-0.9,0.1-1.4,0.1C478.6,187.9,477.9,187.4,477.9,185.8z"/>
		<path class="st2" d="M482.9,178.4c0-0.5,0.4-0.9,1-0.9c0.6,0,1,0.4,1,0.9c0,0.5-0.4,0.9-1,0.9
			C483.3,179.3,482.9,178.9,482.9,178.4z M483.1,187.8v-7.4h1.7v7.4H483.1z"/>
		<path class="st2" d="M486.4,184.1c0-2.7,1.8-3.9,3.6-3.9c1.8,0,3.6,1.1,3.6,3.9c0,2.7-1.8,3.9-3.6,3.9
			C488.2,188,486.4,186.8,486.4,184.1z M491.9,184.1c0-1.4-0.6-2.4-1.9-2.4c-1.2,0-1.9,0.9-1.9,2.4c0,1.4,0.6,2.4,1.9,2.4
			C491.2,186.5,491.9,185.5,491.9,184.1z"/>
		<path class="st2" d="M495.1,187.8v-7.4h1.6l0.1,1.1c0.5-0.6,1.4-1.2,2.7-1.2c1.3,0,2.2,0.7,2.2,2.2v5.4H500v-4.9
			c0-0.8-0.3-1.2-1.1-1.2c-0.7,0-1.4,0.4-2,1v5.2H495.1z"/>
	</g>
	<g class="st1">
		<path class="st2" d="M436.6,204c0-1.6,1.4-2.6,4.8-3v-0.2c0-0.7-0.4-1.1-1.3-1.1c-1,0-1.7,0.4-2.4,1l-0.9-1.1
			c0.8-0.7,1.8-1.4,3.6-1.4c1.9,0,2.7,1,2.7,2.7v4.9h-1.5l-0.1-1c-0.7,0.7-1.6,1.1-2.7,1.1C437.5,205.9,436.6,205.2,436.6,204z
			 M441.4,203.7v-1.6c-2.4,0.3-3.2,0.9-3.2,1.6c0,0.6,0.4,0.9,1.1,0.9C440.2,204.6,440.9,204.3,441.4,203.7z"/>
		<path class="st2" d="M445,205.8v-7.4h1.6l0.1,1.1c0.5-0.6,1.4-1.2,2.7-1.2c1.3,0,2.2,0.7,2.2,2.2v5.4h-1.7v-4.9
			c0-0.8-0.3-1.2-1.1-1.2c-0.7,0-1.4,0.4-2,1v5.2H445z"/>
		<path class="st2" d="M453,202.1c0-2.6,1.3-3.9,3-3.9c1,0,1.8,0.4,2.3,1v-3.7l1.7-0.3v10.5h-1.6l-0.1-1c-0.5,0.6-1.3,1.1-2.4,1.1
			C454.3,205.9,453,204.7,453,202.1z M458.3,203.6v-3c-0.6-0.6-1.1-0.9-1.8-0.9c-1.1,0-1.8,0.8-1.8,2.5c0,1.5,0.7,2.4,1.8,2.4
			C457.2,204.5,457.8,204.1,458.3,203.6z"/>
		<path class="st2" d="M465.1,202.1c0-2.8,1.9-3.9,3.6-3.9c1.3,0,2.4,0.7,3,1.9l-1.3,0.8c-0.4-0.9-0.9-1.3-1.7-1.3
			c-1,0-1.8,0.8-1.8,2.5c0,1.5,0.7,2.5,1.8,2.5c0.9,0,1.4-0.5,1.8-1.4l1.3,0.8c-0.7,1.4-1.8,2-3.2,2
			C466.8,206,465.1,204.8,465.1,202.1z"/>
		<path class="st2" d="M473.1,203.8v-5.4h1.7v4.9c0,0.8,0.3,1.2,1.1,1.2c0.7,0,1.4-0.4,2-1v-5.1h1.7v7.4h-1.6l-0.1-1
			c-0.5,0.6-1.4,1.2-2.7,1.2C473.9,206,473.1,205.3,473.1,203.8z"/>
		<path class="st2" d="M481.7,205.8v-10.2l1.7-0.3v10.5H481.7z"/>
		<path class="st2" d="M485.9,203.8v-4h-1.3v-1.4h1.3v-2.5l1.7-0.3v2.7h1.9v1.4h-1.9v3.8c0,0.8,0.3,1.1,1,1.1c0.3,0,0.5-0.1,0.8-0.1
			l0.1,1.4c-0.2,0-0.9,0.1-1.4,0.1C486.6,205.9,485.9,205.4,485.9,203.8z"/>
		<path class="st2" d="M490.9,203.8v-5.4h1.7v4.9c0,0.8,0.3,1.2,1.1,1.2c0.7,0,1.4-0.4,2-1v-5.1h1.7v7.4h-1.6l-0.1-1
			c-0.5,0.6-1.4,1.2-2.7,1.2C491.8,206,490.9,205.3,490.9,203.8z"/>
		<path class="st2" d="M499.4,205.8v-7.4h1.6l0.1,1.2h0c0.4-0.7,1.2-1.4,2.6-1.4h0.1l0.2,1.6c-0.1,0-0.3,0-0.4,0
			c-1.1,0-1.9,0.5-2.4,1.3v4.7H499.4z"/>
		<path class="st2" d="M504.4,202.1c0-2.8,2-3.9,3.5-3.9c1.6,0,3.3,1,3.3,4v0.4h-5.1c0.1,1.3,0.9,1.9,2,1.9c0.9,0,1.7-0.4,2.3-1
			l0.7,1.1c-0.8,0.8-1.8,1.2-3.1,1.2C506.1,206,504.4,204.8,504.4,202.1z M509.6,201.4c-0.1-1.1-0.7-1.8-1.7-1.8
			c-0.9,0-1.6,0.6-1.8,1.8H509.6z"/>
	</g>
	<g>
		<rect x="-27.9" y="178.8" class="st0" width="147.7" height="34.2"/>
	</g>
	<g class="st1">
		<path class="st3" d="M82.1,184.1c0-3.5,2.2-5.4,4.7-5.4c2.5,0,4.7,1.9,4.7,5.4c0,3.5-2.2,5.4-4.7,5.4
			C84.2,189.5,82.1,187.6,82.1,184.1z M89.7,184.1c0-2.4-1.2-3.8-2.9-3.8s-2.9,1.4-2.9,3.8s1.2,3.8,2.9,3.8S89.7,186.4,89.7,184.1z"
			/>
		<path class="st3" d="M93.6,187.2v-4h-1.3v-1.4h1.3v-2.5l1.7-0.3v2.7h1.9v1.4h-1.9v3.8c0,0.8,0.3,1.1,1,1.1c0.3,0,0.5-0.1,0.8-0.1
			l0.1,1.4c-0.2,0-0.9,0.1-1.4,0.1C94.3,189.4,93.6,188.8,93.6,187.2z"/>
		<path class="st3" d="M98.7,189.3V179l1.7-0.3v4.1c0.5-0.6,1.4-1.2,2.7-1.2c1.4,0,2.2,0.7,2.2,2.2v5.4h-1.7v-4.9
			c0-0.8-0.3-1.2-1.1-1.2c-0.7,0-1.4,0.4-2,1v5.1H98.7z"/>
		<path class="st3" d="M106.7,185.5c0-2.8,2-3.9,3.5-3.9c1.6,0,3.3,1,3.3,4v0.4h-5.1c0.1,1.3,0.9,1.9,2,1.9c0.9,0,1.7-0.4,2.3-1
			l0.7,1.1c-0.8,0.8-1.8,1.2-3.1,1.2C108.4,189.4,106.7,188.3,106.7,185.5z M111.9,184.8c-0.1-1.1-0.7-1.8-1.7-1.8
			c-0.9,0-1.6,0.6-1.8,1.8H111.9z"/>
		<path class="st3" d="M115,189.3v-7.4h1.6l0.1,1.2h0c0.4-0.7,1.2-1.4,2.6-1.4h0.1l0.2,1.6c-0.1,0-0.3,0-0.4,0
			c-1.1,0-1.9,0.5-2.4,1.3v4.7H115z"/>
	</g>
	<g>
		<rect x="-5.4" y="73.9" class="st0" width="147.7" height="34.2"/>
	</g>
	<g class="st1">
		<path class="st4" d="M12.6,84.4V74.1h6.5v1.6h-4.8v2.8h3.5l0.3,1.6h-3.8v4.4H12.6z"/>
		<path class="st4" d="M20.5,75c0-0.5,0.4-0.9,1-0.9c0.6,0,1,0.4,1,0.9c0,0.5-0.4,0.9-1,0.9C20.8,75.9,20.5,75.5,20.5,75z
			 M20.6,84.4V77h1.7v7.4H20.6z"/>
		<path class="st4" d="M24.3,84.4V77h1.6l0.1,1.1c0.5-0.6,1.4-1.2,2.7-1.2c1.3,0,2.2,0.7,2.2,2.2v5.4h-1.7v-4.9
			c0-0.8-0.3-1.2-1.1-1.2c-0.7,0-1.4,0.4-2,1v5.2H24.3z"/>
		<path class="st4" d="M32.3,82.6c0-1.6,1.4-2.6,4.8-3v-0.2c0-0.7-0.4-1.1-1.3-1.1c-1,0-1.7,0.4-2.4,1l-0.9-1.1
			c0.8-0.7,1.8-1.4,3.6-1.4c1.9,0,2.7,1,2.7,2.7v4.9h-1.5l-0.1-1c-0.7,0.7-1.6,1.1-2.7,1.1C33.2,84.5,32.3,83.8,32.3,82.6z
			 M37.2,82.4v-1.6c-2.4,0.3-3.2,0.9-3.2,1.6c0,0.6,0.4,0.9,1.1,0.9C35.9,83.2,36.6,82.9,37.2,82.4z"/>
		<path class="st4" d="M40.7,84.4V77h1.6l0.1,1.1c0.5-0.6,1.4-1.2,2.7-1.2c1.3,0,2.2,0.7,2.2,2.2v5.4h-1.7v-4.9
			c0-0.8-0.3-1.2-1.1-1.2c-0.7,0-1.4,0.4-2,1v5.2H40.7z"/>
		<path class="st4" d="M48.7,80.7c0-2.8,1.9-3.9,3.6-3.9c1.3,0,2.4,0.7,3,1.9L54,79.5c-0.4-0.9-0.9-1.3-1.7-1.3
			c-1,0-1.8,0.8-1.8,2.5c0,1.5,0.7,2.5,1.8,2.5c0.9,0,1.4-0.5,1.8-1.4l1.3,0.8c-0.7,1.4-1.8,2-3.2,2C50.5,84.6,48.7,83.4,48.7,80.7z
			"/>
		<path class="st4" d="M56.7,75c0-0.5,0.4-0.9,1-0.9c0.6,0,1,0.4,1,0.9c0,0.5-0.4,0.9-1,0.9C57.1,75.9,56.7,75.5,56.7,75z
			 M56.9,84.4V77h1.7v7.4H56.9z"/>
		<path class="st4" d="M60.1,82.6c0-1.6,1.4-2.6,4.8-3v-0.2c0-0.7-0.4-1.1-1.3-1.1c-1,0-1.7,0.4-2.4,1l-0.9-1.1
			c0.8-0.7,1.8-1.4,3.6-1.4c1.9,0,2.7,1,2.7,2.7v4.9h-1.5l-0.1-1c-0.7,0.7-1.6,1.1-2.7,1.1C61,84.5,60.1,83.8,60.1,82.6z M64.9,82.4
			v-1.6c-2.4,0.3-3.2,0.9-3.2,1.6c0,0.6,0.4,0.9,1.1,0.9C63.7,83.2,64.4,82.9,64.9,82.4z"/>
		<path class="st4" d="M68.6,84.4V74.2l1.7-0.3v10.5H68.6z"/>
		<path class="st4" d="M76,84.4V74.1h6.7v1.6h-4.9v2.6h3.8l0.3,1.6h-4v3H83v1.6H76z"/>
		<path class="st4" d="M83.8,80.8c0-2.6,1.3-3.9,3-3.9c1,0,1.8,0.4,2.3,1v-3.7l1.7-0.3v10.5h-1.6l-0.1-1c-0.5,0.6-1.3,1.1-2.4,1.1
			C85.1,84.5,83.8,83.3,83.8,80.8z M89.1,82.2v-3c-0.6-0.6-1.1-0.9-1.8-0.9c-1.1,0-1.8,0.8-1.8,2.5c0,1.5,0.7,2.4,1.8,2.4
			C88,83.1,88.6,82.7,89.1,82.2z"/>
		<path class="st4" d="M92.7,82.4V77h1.7V82c0,0.8,0.3,1.2,1.1,1.2c0.7,0,1.4-0.4,2-1V77h1.7v7.4h-1.6l-0.1-1
			c-0.5,0.6-1.4,1.2-2.7,1.2C93.5,84.6,92.7,83.9,92.7,82.4z"/>
		<path class="st4" d="M100.8,80.7c0-2.8,1.9-3.9,3.6-3.9c1.3,0,2.4,0.7,3,1.9l-1.3,0.8c-0.4-0.9-0.9-1.3-1.7-1.3
			c-1,0-1.8,0.8-1.8,2.5c0,1.5,0.7,2.5,1.8,2.5c0.9,0,1.4-0.5,1.8-1.4l1.3,0.8c-0.7,1.4-1.8,2-3.2,2
			C102.6,84.6,100.8,83.4,100.8,80.7z"/>
		<path class="st4" d="M108.2,82.6c0-1.6,1.4-2.6,4.8-3v-0.2c0-0.7-0.4-1.1-1.3-1.1c-1,0-1.7,0.4-2.4,1l-0.9-1.1
			c0.8-0.7,1.8-1.4,3.6-1.4c1.9,0,2.7,1,2.7,2.7v4.9h-1.5l-0.1-1c-0.7,0.7-1.6,1.1-2.7,1.1C109.1,84.5,108.2,83.8,108.2,82.6z
			 M113.1,82.4v-1.6c-2.4,0.3-3.2,0.9-3.2,1.6c0,0.6,0.4,0.9,1.1,0.9C111.8,83.2,112.5,82.9,113.1,82.4z"/>
		<path class="st4" d="M117.2,82.4v-4h-1.3V77h1.3v-2.5l1.7-0.3V77h1.9v1.4h-1.9v3.8c0,0.8,0.3,1.1,1,1.1c0.3,0,0.5-0.1,0.8-0.1
			l0.1,1.4c-0.2,0-0.9,0.1-1.4,0.1C117.9,84.5,117.2,84,117.2,82.4z"/>
		<path class="st4" d="M122.2,75c0-0.5,0.4-0.9,1-0.9c0.6,0,1,0.4,1,0.9c0,0.5-0.4,0.9-1,0.9C122.5,75.9,122.2,75.5,122.2,75z
			 M122.3,84.4V77h1.7v7.4H122.3z"/>
		<path class="st4" d="M125.6,80.7c0-2.7,1.8-3.9,3.6-3.9c1.8,0,3.6,1.1,3.6,3.9c0,2.7-1.8,3.9-3.6,3.9S125.6,83.4,125.6,80.7z
			 M131.2,80.7c0-1.4-0.6-2.4-1.9-2.4c-1.2,0-1.9,0.9-1.9,2.4c0,1.4,0.6,2.4,1.9,2.4C130.5,83.1,131.2,82.2,131.2,80.7z"/>
		<path class="st4" d="M134.4,84.4V77h1.6l0.1,1.1c0.5-0.6,1.4-1.2,2.7-1.2c1.3,0,2.2,0.7,2.2,2.2v5.4h-1.7v-4.9
			c0-0.8-0.3-1.2-1.1-1.2c-0.7,0-1.4,0.4-2,1v5.2H134.4z"/>
	</g>
	<g>
		<rect x="47.1" y="23.3" class="st0" width="147.7" height="34.2"/>
	</g>
	<g class="st1">
		<path class="st5" d="M78.7,33.8V23.4h6.7v1.6h-4.9v2.6h3.8l0.3,1.6h-4v3h5.2v1.6H78.7z"/>
		<path class="st5" d="M87.1,33.8v-7.4h1.6l0.1,1.1c0.5-0.6,1.4-1.2,2.7-1.2c1.3,0,2.2,0.7,2.2,2.2v5.4h-1.7v-4.9
			c0-0.8-0.3-1.2-1.1-1.2c-0.7,0-1.4,0.4-2,1v5.2H87.1z"/>
		<path class="st5" d="M96.1,31.7v-4h-1.3v-1.4h1.3v-2.5l1.7-0.3v2.7h1.9v1.4h-1.9v3.8c0,0.8,0.3,1.1,1,1.1c0.3,0,0.5-0.1,0.8-0.1
			l0.1,1.4c-0.2,0-0.9,0.1-1.4,0.1C96.8,33.9,96.1,33.4,96.1,31.7z"/>
		<path class="st5" d="M101.1,33.8v-7.4h1.6l0.1,1.2h0c0.4-0.7,1.2-1.4,2.6-1.4h0.1l0.2,1.6c-0.1,0-0.3,0-0.4,0
			c-1.1,0-1.9,0.5-2.4,1.3v4.7H101.1z"/>
		<path class="st5" d="M106.1,30.1c0-2.8,2-3.9,3.5-3.9c1.6,0,3.3,1,3.3,4v0.4h-5.1c0.1,1.3,0.9,1.9,2,1.9c0.9,0,1.7-0.4,2.3-1
			l0.7,1.1c-0.8,0.8-1.8,1.2-3.1,1.2C107.8,33.9,106.1,32.8,106.1,30.1z M111.3,29.4c-0.1-1.1-0.7-1.8-1.7-1.8
			c-0.9,0-1.6,0.6-1.8,1.8H111.3z"/>
		<path class="st5" d="M114.4,36.7V26.4h1.6l0.1,1c0.5-0.6,1.3-1.1,2.4-1.1c1.7,0,2.9,1.3,2.9,3.9c0,2.6-1.3,3.8-3,3.8
			c-1,0-1.8-0.3-2.3-0.9v3.5L114.4,36.7z M119.7,30.1c0-1.5-0.7-2.4-1.8-2.4c-0.7,0-1.3,0.4-1.8,0.9v3c0.6,0.6,1.1,0.9,1.8,0.9
			C119,32.5,119.7,31.8,119.7,30.1z"/>
		<path class="st5" d="M123,33.8v-7.4h1.6l0.1,1.2h0c0.4-0.7,1.2-1.4,2.6-1.4h0.1l0.2,1.6c-0.1,0-0.3,0-0.4,0
			c-1.1,0-1.9,0.5-2.4,1.3v4.7H123z"/>
		<path class="st5" d="M128,30.1c0-2.8,2-3.9,3.5-3.9c1.6,0,3.3,1,3.3,4v0.4h-5.1c0.1,1.3,0.9,1.9,2,1.9c0.9,0,1.7-0.4,2.3-1
			l0.7,1.1c-0.8,0.8-1.8,1.2-3.1,1.2C129.7,33.9,128,32.8,128,30.1z M133.2,29.4c-0.1-1.1-0.7-1.8-1.7-1.8c-0.9,0-1.6,0.6-1.8,1.8
			H133.2z"/>
		<path class="st5" d="M136.3,33.8v-7.4h1.6l0.1,1.1c0.5-0.6,1.4-1.2,2.7-1.2c1.3,0,2.2,0.7,2.2,2.2v5.4h-1.7v-4.9
			c0-0.8-0.3-1.2-1.1-1.2c-0.7,0-1.4,0.4-2,1v5.2H136.3z"/>
		<path class="st5" d="M144.3,30.1c0-2.8,2-3.9,3.5-3.9c1.6,0,3.3,1,3.3,4v0.4H146c0.1,1.3,0.9,1.9,2,1.9c0.9,0,1.7-0.4,2.3-1
			l0.7,1.1c-0.8,0.8-1.8,1.2-3.1,1.2C146,33.9,144.3,32.8,144.3,30.1z M149.5,29.4c-0.1-1.1-0.7-1.8-1.7-1.8c-0.9,0-1.6,0.6-1.8,1.8
			H149.5z"/>
		<path class="st5" d="M152.5,31.8v-5.4h1.7v4.9c0,0.8,0.3,1.2,1.1,1.2c0.7,0,1.4-0.4,2-1v-5.1h1.7v7.4h-1.6l-0.1-1
			c-0.5,0.6-1.4,1.2-2.7,1.2C153.4,33.9,152.5,33.2,152.5,31.8z"/>
		<path class="st5" d="M161,33.8v-7.4h1.6l0.1,1.2h0c0.4-0.7,1.2-1.4,2.6-1.4h0.1l0.2,1.6c-0.1,0-0.3,0-0.4,0
			c-1.1,0-1.9,0.5-2.4,1.3v4.7H161z"/>
		<path class="st5" d="M166.1,32.8l0.7-1.2c0.7,0.6,1.6,1,2.6,1c0.9,0,1.5-0.3,1.5-0.8c0-0.6-0.4-0.8-1.7-1.1
			c-1.6-0.3-2.8-0.7-2.8-2.3c0-1.3,1.1-2.2,2.7-2.2c1.3,0,2.2,0.4,3,0.9l-0.6,1.2c-0.7-0.5-1.5-0.8-2.3-0.8c-0.8,0-1.2,0.3-1.2,0.8
			c0,0.5,0.4,0.7,1.5,1c1.7,0.3,2.9,0.7,2.9,2.3c0,1.6-1.4,2.4-3.1,2.4C167.9,33.9,166.8,33.4,166.1,32.8z"/>
		<path class="st5" d="M173.9,33.8V23.6l1.7-0.3v4.1c0.5-0.6,1.4-1.2,2.7-1.2c1.4,0,2.2,0.7,2.2,2.2v5.4h-1.7v-4.9
			c0-0.8-0.3-1.2-1.1-1.2c-0.7,0-1.4,0.4-2,1v5.1H173.9z"/>
		<path class="st5" d="M182.3,24.4c0-0.5,0.4-0.9,1-0.9c0.6,0,1,0.4,1,0.9c0,0.5-0.4,0.9-1,0.9C182.6,25.3,182.3,24.9,182.3,24.4z
			 M182.4,33.8v-7.4h1.7v7.4H182.4z"/>
		<path class="st5" d="M186.2,36.7V26.4h1.6l0.1,1c0.5-0.6,1.3-1.1,2.4-1.1c1.7,0,2.9,1.3,2.9,3.9c0,2.6-1.3,3.8-3,3.8
			c-1,0-1.8-0.3-2.3-0.9v3.5L186.2,36.7z M191.5,30.1c0-1.5-0.7-2.4-1.8-2.4c-0.7,0-1.3,0.4-1.8,0.9v3c0.6,0.6,1.1,0.9,1.8,0.9
			C190.8,32.5,191.5,31.8,191.5,30.1z"/>
	</g>
	<g>
		<rect x="436.1" y="132.7" class="st0" width="33.6" height="21.7"/>
	</g>
	<g class="st1">
		<path class="st6" d="M436.9,138.6c0-3.4,1.8-6,4.4-6c1.2,0,2,0.4,2.6,0.8l-0.5,0.8c-0.6-0.5-1.1-0.8-2.1-0.8
			c-2.1,0-3.3,2.1-3.3,4.9c0.7-0.8,1.8-1.5,3.2-1.5c2.3,0,3.5,1.5,3.5,3.5c0,2.1-1.4,3.7-3.7,3.7
			C438.7,144.1,436.9,142.4,436.9,138.6z M443.6,140.4c0-1.5-0.8-2.6-2.5-2.6c-1.2,0-2.3,0.7-3,1.6c0.2,2.5,1.4,3.7,2.9,3.7
			C442.5,143.2,443.6,142.2,443.6,140.4z"/>
		<path class="st6" d="M446.6,143.9l4.7-10.1h-5.7l-0.1-1h6.9v0.9l-4.7,10.2L446.6,143.9z"/>
		<path class="st6" d="M453.9,136c0-2.1,1-3.4,2.5-3.4c1.5,0,2.5,1.3,2.5,3.3c0,1.9-0.9,3.4-2.5,3.4
			C454.8,139.3,453.9,138,453.9,136z M457.9,136c0-1.5-0.6-2.5-1.5-2.5c-1,0-1.5,1.1-1.5,2.5c0,1.5,0.6,2.5,1.6,2.5
			C457.4,138.5,457.9,137.4,457.9,136z M456.5,143.9l6.6-11.1h1l-6.6,11.1H456.5z M461.6,140.8c0-2.1,1-3.4,2.5-3.4
			c1.5,0,2.5,1.3,2.5,3.3c0,1.9-0.9,3.3-2.5,3.3C462.5,144.1,461.6,142.7,461.6,140.8z M465.6,140.7c0-1.5-0.5-2.5-1.5-2.5
			c-1,0-1.5,1.1-1.5,2.5c0,1.5,0.5,2.5,1.5,2.5S465.6,142.1,465.6,140.7z"/>
	</g>
	<g>
		<rect x="161.2" y="2.2" class="st0" width="33.6" height="21.7"/>
	</g>
	<g class="st1">
		<path class="st6" d="M173.8,13.4l4.7-10.1h-5.7l-0.1-1h6.9v0.9l-4.7,10.2L173.8,13.4z"/>
		<path class="st6" d="M181.1,5.5c0-2.1,1-3.4,2.5-3.4c1.5,0,2.5,1.3,2.5,3.3c0,1.9-0.9,3.4-2.5,3.4C182,8.8,181.1,7.5,181.1,5.5z
			 M185.1,5.5c0-1.5-0.6-2.5-1.5-2.5c-1,0-1.5,1.1-1.5,2.5c0,1.5,0.6,2.5,1.6,2.5C184.6,8,185.1,6.9,185.1,5.5z M183.6,13.4
			l6.6-11.1h1l-6.6,11.1H183.6z M188.8,10.3c0-2.1,1-3.4,2.5-3.4s2.5,1.3,2.5,3.3c0,1.9-0.9,3.3-2.5,3.3
			C189.7,13.6,188.8,12.2,188.8,10.3z M192.8,10.2c0-1.5-0.5-2.5-1.5-2.5c-1,0-1.5,1.1-1.5,2.5c0,1.5,0.5,2.5,1.5,2.5
			S192.8,11.6,192.8,10.2z"/>
	</g>
	<g class="st1">
		<path class="st6" d="M224.3,160.8l1.9-2.7c3.2,2.7,5.8,4.3,11.3,4.3c10.1,0,16.2-11.2,16-25c-3.2,3.8-8.3,7.5-15.2,7.5
			c-11.3,0-16-7.3-16-16.1c0-9.6,6.4-17.1,16.9-17.1c9.5,0,17.7,8,17.7,26c0,15.1-7.6,27.8-19.5,27.8
			C231.3,165.6,227.3,163.5,224.3,160.8z M253.3,133.2c-1.2-12.7-7.4-18.3-14.4-18.3c-7.8,0-13.2,5-13.2,14c0,7.6,3.9,13,12.7,13
			C244.6,141.9,249.8,138.3,253.3,133.2z"/>
		<path class="st6" d="M262.7,155.7l2.9-1.8c3.8,6,8.5,8.5,14.5,8.5c8.1,0,13.1-4.8,13.1-11.6c0-8.1-4.4-12.4-17.5-12.4h-1.8v-3.1
			h2.2c11.3,0,16-3.5,16-10.6c0-5.6-3.4-10-11.8-10c-5.6,0-9.5,2.9-12.5,6.8l-2.8-1.8c3.5-4.5,8.4-8.1,15.3-8.1
			c10.9,0,15.1,6.5,15.1,12.9c0,6.8-4.1,11.3-10.6,12.3c7.8,1.6,11.6,6,11.6,13.8c0,8.2-6.3,14.8-16.6,14.8
			C272.6,165.6,266.3,161.9,262.7,155.7z"/>
		<path class="st6" d="M305.6,161.7c0-2,1.1-3.1,2.7-3.1c1.6,0,2.7,1.1,2.7,3.1c0,2-1.1,3.2-2.7,3.2
			C306.7,164.9,305.6,163.8,305.6,161.7z"/>
		<path class="st6" d="M320,155.7l2.9-1.8c3.8,6,8.5,8.5,14.5,8.5c8.1,0,13.1-4.8,13.1-11.6c0-8.1-4.4-12.4-17.5-12.4h-1.8v-3.1h2.2
			c11.3,0,16-3.5,16-10.6c0-5.6-3.4-10-11.8-10c-5.6,0-9.5,2.9-12.5,6.8l-2.8-1.8c3.5-4.5,8.4-8.1,15.3-8.1
			c10.9,0,15.1,6.5,15.1,12.9c0,6.8-4.1,11.3-10.6,12.3c7.8,1.6,11.6,6,11.6,13.8c0,8.2-6.3,14.8-16.6,14.8
			C329.9,165.6,323.6,161.9,320,155.7z"/>
	</g>
	<g class="st1">
		<path class="st7" d="M235.5,193.6v-10.4h2.3l2.8,8.2h0l2.7-8.2h2.3v10.4H244v-7.7h0c-0.2,0.7-0.4,1.4-0.6,2.1l-2,5.6h-1.6l-2-5.6
			c-0.2-0.7-0.4-1.2-0.6-2.2h0v7.8H235.5z"/>
		<path class="st7" d="M248.2,193.6v-10.4h1.7v10.4H248.2z"/>
		<path class="st7" d="M252.4,193.6v-10.4h1.8v8.8h4.6l0.3,1.6H252.4z"/>
		<path class="st7" d="M260.5,193.6v-10.4h1.8v8.8h4.6l0.3,1.6H260.5z"/>
		<path class="st7" d="M268.7,193.6v-10.4h1.7v10.4H268.7z"/>
		<path class="st7" d="M272.4,188.4c0-3.5,2.2-5.4,4.7-5.4c2.5,0,4.7,1.9,4.7,5.4c0,3.5-2.2,5.4-4.7,5.4
			C274.5,193.8,272.4,191.9,272.4,188.4z M280,188.4c0-2.4-1.2-3.8-2.9-3.8s-2.9,1.4-2.9,3.8s1.2,3.8,2.9,3.8S280,190.8,280,188.4z"
			/>
		<path class="st7" d="M283.6,193.6v-10.4h1.8l4.9,7.4h0v-7.4h1.6v10.4h-1.6l-5.1-7.5h0v7.5H283.6z"/>
		<path class="st7" d="M297.8,193.6v-10.4h6.7v1.6h-4.9v2.6h3.8l0.3,1.6h-4v3h5.2v1.6H297.8z"/>
		<path class="st7" d="M306.2,189.8v-6.6h1.8v6.5c0,1.5,0.7,2.5,2.3,2.5c1.6,0,2.3-0.9,2.3-2.4v-6.5h1.7v6.6c0,2.4-1.3,4-4,4
			C307.5,193.8,306.2,192.1,306.2,189.8z"/>
		<path class="st7" d="M316.4,193.6v-10.4h3.7c2.5,0,3.9,1,3.9,3.2c0,1.7-0.9,2.5-2.3,2.9l2.5,4.2l-1.7,0.3l-2.5-4.2h-1.8v4.1H316.4
			z M318.1,188h1.9c1.5,0,2.3-0.4,2.3-1.6c0-1.1-0.8-1.6-2.3-1.6h-1.9V188z"/>
		<path class="st7" d="M325.4,188.4c0-3.5,2.2-5.4,4.7-5.4c2.5,0,4.7,1.9,4.7,5.4c0,3.5-2.2,5.4-4.7,5.4
			C327.6,193.8,325.4,191.9,325.4,188.4z M333,188.4c0-2.4-1.2-3.8-2.9-3.8s-2.9,1.4-2.9,3.8s1.2,3.8,2.9,3.8S333,190.8,333,188.4z"
			/>
		<path class="st7" d="M335.8,192l0.9-1.3c0.8,0.8,2.1,1.5,3.4,1.5c1.3,0,2.2-0.4,2.2-1.3c0-0.9-0.7-1.3-2.4-1.8
			c-2-0.6-3.6-1.1-3.6-3.1c0-1.8,1.5-2.9,3.5-2.9c1.6,0,2.9,0.7,3.9,1.5l-0.8,1.4c-0.8-0.7-1.9-1.3-3-1.3c-1.2,0-1.8,0.5-1.8,1.2
			c0,1,0.7,1.3,2.4,1.8c2,0.6,3.5,1.2,3.5,3.2c0,1.7-1.4,3-3.8,3C338.3,193.8,336.9,193,335.8,192z"/>
	</g>
	<g>
		<rect x="108.6" y="52.9" class="st0" width="33.6" height="21.7"/>
	</g>
	<g class="st1">
		<path class="st6" d="M118.1,64.1V53.9l-2.1,0.7l-0.1-0.9l2.3-0.8h1v11.1H118.1z"/>
		<path class="st6" d="M124.5,64.1V53.9l-2.1,0.7l-0.1-0.9l2.3-0.8h1v11.1H124.5z"/>
		<path class="st6" d="M128.4,56.2c0-2.1,1-3.4,2.5-3.4c1.5,0,2.5,1.3,2.5,3.3c0,1.9-0.9,3.4-2.5,3.4
			C129.2,59.5,128.4,58.1,128.4,56.2z M132.4,56.1c0-1.5-0.6-2.5-1.5-2.5c-1,0-1.5,1.1-1.5,2.5c0,1.5,0.6,2.5,1.6,2.5
			C131.9,58.7,132.4,57.5,132.4,56.1z M130.9,64.1l6.6-11.1h1l-6.6,11.1H130.9z M136.1,60.9c0-2.1,1-3.4,2.5-3.4s2.5,1.3,2.5,3.3
			c0,1.9-0.9,3.3-2.5,3.3C137,64.2,136.1,62.9,136.1,60.9z M140.1,60.9c0-1.5-0.5-2.5-1.5-2.5c-1,0-1.5,1.1-1.5,2.5
			c0,1.5,0.5,2.5,1.5,2.5S140.1,62.3,140.1,60.9z"/>
	</g>
	<g>
		<rect x="86.2" y="158.9" class="st0" width="33.6" height="21.7"/>
	</g>
	<g class="st1">
		<path class="st6" d="M93.3,170v-10.1l-2.1,0.7l-0.1-0.9l2.3-0.8h1V170H93.3z"/>
		<path class="st6" d="M97.1,168.3l0.7-0.7c0.7,1,1.6,1.7,2.9,1.7c1.9,0,2.8-1.4,2.8-2.9c0-1.8-1.1-2.8-2.5-2.8
			c-1.1,0-1.9,0.5-2.5,1.4l-0.8-0.3l0.4-5.8h5.8l0,1h-5l-0.3,3.9c0.5-0.6,1.3-1,2.5-1c2,0,3.4,1.4,3.4,3.6s-1.5,3.9-3.8,3.9
			C99.2,170.3,97.9,169.4,97.1,168.3z"/>
		<path class="st6" d="M106.2,162.2c0-2.1,1-3.4,2.5-3.4c1.5,0,2.5,1.3,2.5,3.3c0,1.9-0.9,3.4-2.5,3.4
			C107.1,165.5,106.2,164.1,106.2,162.2z M110.2,162.1c0-1.5-0.6-2.5-1.5-2.5c-1,0-1.5,1.1-1.5,2.5c0,1.5,0.6,2.5,1.6,2.5
			C109.7,164.6,110.2,163.5,110.2,162.1z M108.7,170l6.6-11.1h1l-6.6,11.1H108.7z M113.9,166.9c0-2.1,1-3.4,2.5-3.4
			c1.5,0,2.5,1.3,2.5,3.3c0,1.9-0.9,3.3-2.5,3.3C114.8,170.2,113.9,168.8,113.9,166.9z M117.9,166.9c0-1.5-0.5-2.5-1.5-2.5
			c-1,0-1.5,1.1-1.5,2.5c0,1.5,0.5,2.5,1.5,2.5S117.9,168.3,117.9,166.9z"/>
	</g>
	<g>
		<path class="st2" d="M285.9,22.1v14c67.7,0.2,122.5,55.1,122.5,122.8c0,67.8-55,122.8-122.8,122.8c-46.2,0-86.4-25.5-107.3-63.1
			l-12,6.7c24.9,44.9,68.3,70.5,119.6,70.5c75.5,0,136.8-61.2,136.8-136.8S361.5,22.1,285.9,22.1z"/>
	</g>
	<g>
		<path class="st3" d="M162.8,158.8c0-15.5,2.9-30.4,8.2-44.1l-12.8-4.9c-15.2,39.5-12.4,78.3,8.1,115.3l12-6.7
			C168.4,200.8,162.8,180.5,162.8,158.8z"/>
	</g>
	<g>
		<path class="st4" d="M226.3,51.3l-6.7-12.1c-29.1,16.1-49.5,39.6-61.4,70.6l12.8,4.9C181.4,87.7,201.2,65.2,226.3,51.3z"/>
	</g>
	<g>
		<path class="st5" d="M285.6,36c0.1,0,0.2,0,0.3,0V22c-24.2,0-45.2,5.4-66.3,17.1l6.7,12.1C243.9,41.6,264.1,36,285.6,36z"/>
	</g>
</g>
</svg>
