<?xml version="1.0" encoding="UTF-8" standalone="no"?>
<svg width="745px" height="199px" viewBox="0 0 745 199" version="1.1" xmlns="http://www.w3.org/2000/svg" xmlns:xlink="http://www.w3.org/1999/xlink">
    <!-- Generator: Sketch 41.2 (35397) - http://www.bohemiancoding.com/sketch -->
    <title>Group 4</title>
    <desc>Created with Sketch.</desc>
    <defs>
        <polygon id="path-1" points="80.923 145.1515 80.923 0.5425 0.9853 0.5425 0.9853 145.1515 80.923 145.1515"></polygon>
    </defs>
    <g id="Page-1" stroke="none" stroke-width="1" fill="none" fill-rule="evenodd">
        <g id="Group-4" transform="translate(0.000000, -1.000000)">
            <g id="Page-1">
                <g id="Group-26" transform="translate(0.000000, 0.648000)">
                    <path d="M664.9853,80.4805 L711.9713,145.1515 C676.2553,171.1015 626.2643,163.1835 600.3143,127.4665 C574.3643,91.7505 582.2823,41.7585 617.9993,15.8085 C632.2863,5.4285 647.3263,0.5425 664.9853,0.5425 L664.9853,80.4805 Z" id="Fill-1" fill="#F3F3F3"></path>
                    <g id="Group-5" transform="translate(664.000000, 0.000000)">
                        <mask id="mask-2" fill="white">
                            <use xlink:href="#path-1"></use>
                        </mask>
                        <g id="Clip-4"></g>
                        <path d="M0.9853,80.4805 L0.9853,0.5425 C45.1333,0.5425 80.9233,36.3325 80.9233,80.4805 C80.9233,106.9695 69.4023,129.5815 47.9713,145.1515 L0.9853,80.4805 Z" id="Fill-3" fill="#2ECDCD" mask="url(#mask-2)"></path>
                    </g>
                    <path d="M468.1445,80.4961 L492.8465,4.4711 C534.8335,18.1131 557.8125,63.2111 544.1695,105.1981 C530.5275,147.1861 485.4295,170.1641 443.4425,156.5211 C401.4545,142.8791 378.4755,97.7811 392.1185,55.7941 C403.0195,22.2461 432.8695,0.5581 468.1445,0.5581 L468.1445,80.4961 Z" id="Fill-6" fill="#F3F3F3"></path>
                    <path d="M468.1445,80.4961 L468.1445,0.5581 C476.9735,0.5581 484.4495,1.7421 492.8465,4.4711 L468.1445,80.4961 Z" id="Fill-8" fill="#2ECDCD"></path>
                    <path d="M79.9599,80.4561 L107.2999,5.3391 C148.7859,20.4381 170.1769,66.3101 155.0769,107.7971 C139.9779,149.2831 94.1059,170.6731 52.6189,155.5731 C11.1339,140.4741 -10.2571,94.6021 4.8429,53.1161 C16.4389,21.2551 46.0539,0.5181 79.9599,0.5181 L79.9599,80.4561 Z" id="Fill-10" fill="#F3F3F3"></path>
                    <path d="M79.9599,80.4561 L79.9599,0.5181 C90.1579,0.5181 97.7169,1.8521 107.2999,5.3391 L79.9599,80.4561 Z" id="Fill-12" fill="#2ECDCD"></path>
                    <path d="M154.4101,80.126 C154.4101,121.062 121.2251,154.246 80.2901,154.246 C39.3541,154.246 6.1711,121.062 6.1711,80.126 C6.1711,39.19 39.3541,6.006 80.2901,6.006 C121.2251,6.006 154.4101,39.19 154.4101,80.126" id="Fill-14" fill="#FFFFFF"></path>
                    <path d="M272.9745,80.29 L321.0815,16.449 C356.3405,43.018 363.3845,93.14 336.8155,128.398 C310.2455,163.656 260.1245,170.7 224.8665,144.132 C189.6075,117.562 182.5635,67.44 209.1325,32.183 C224.5165,11.768 247.4125,0.352 272.9745,0.352 L272.9745,80.29 Z" id="Fill-16" fill="#F3F3F3"></path>
                    <path d="M272.9745,80.29 L272.9745,0.352 C291.5165,0.352 306.2735,5.29 321.0815,16.449 L272.9745,80.29 Z" id="Fill-18" fill="#2ECDCD"></path>
                    <path d="M347.0937,80.292 C347.0937,121.228 313.9087,154.412 272.9747,154.412 C232.0387,154.412 198.8547,121.228 198.8547,80.292 C198.8547,39.357 232.0387,6.173 272.9747,6.173 C313.9087,6.173 347.0937,39.357 347.0937,80.292" id="Fill-20" fill="#FFFFFF"></path>
                    <path d="M542.2636,80.5068 C542.2636,121.4428 509.0786,154.6268 468.1446,154.6268 C427.2086,154.6268 394.0246,121.4428 394.0246,80.5068 C394.0246,39.5708 427.2086,6.3878 468.1446,6.3878 C509.0786,6.3878 542.2636,39.5708 542.2636,80.5068" id="Fill-22" fill="#FFFFFF"></path>
                    <path d="M739.1025,80.4834 C739.1025,121.4184 705.9175,154.6024 664.9825,154.6024 C624.0475,154.6024 590.8635,121.4184 590.8635,80.4834 C590.8635,39.5474 624.0475,6.3634 664.9825,6.3634 C705.9175,6.3634 739.1025,39.5474 739.1025,80.4834" id="Fill-24" fill="#FFFFFF"></path>
                </g>
                <path d="M72.3026,113.799268 C74.3176,113.799268 75.4876,112.772268 76.0596,111.186268 L74.6556,110.549268 C74.2786,111.628268 73.4986,112.343268 72.3026,112.343268 C70.6256,112.343268 69.6636,110.991268 69.6636,108.768268 C69.6636,106.662268 70.5736,105.310268 72.2116,105.310268 C73.3686,105.310268 74.0706,105.960268 74.4476,106.857268 L75.8256,106.038268 C75.1626,104.608268 74.0316,103.815268 72.2116,103.815268 C69.8456,103.815268 68.0386,105.622268 68.0386,108.781268 C68.0386,112.031268 69.8196,113.799268 72.3026,113.799268 Z M81.4676,113.799268 C83.7816,113.799268 85.7966,112.044268 85.7966,108.807268 C85.7966,105.570268 83.7816,103.815268 81.4676,103.815268 C79.1406,103.815268 77.1256,105.570268 77.1256,108.807268 C77.1256,112.044268 79.1406,113.799268 81.4676,113.799268 Z M81.4676,112.343268 C79.8426,112.343268 78.7506,110.991268 78.7506,108.807268 C78.7506,106.623268 79.8426,105.310268 81.4676,105.310268 C83.0926,105.310268 84.1846,106.623268 84.1846,108.807268 C84.1846,110.991268 83.0926,112.343268 81.4676,112.343268 Z" id="CO" fill="#2ECDCD"></path>
                <text id="2" font-family="BentonSansBBVA-Medium, Benton Sans BBVA" font-size="7.579" font-weight="400" fill="#2ECDCD">
                    <tspan x="86.5491" y="118.451582">2</tspan>
                </text>
                <path d="M42.6374,185.851773 L42.6374,182.243773 L44.4854,182.243773 C46.2014,182.243773 47.4114,181.583773 47.4114,179.933773 C47.4114,178.426773 46.3224,177.711773 44.5624,177.711773 L41.8564,177.711773 L41.8564,185.851773 L42.6374,185.851773 Z M42.6374,178.426773 L44.5294,178.426773 C45.8934,178.426773 46.6304,178.855773 46.6304,179.955773 C46.6304,181.121773 45.8824,181.550773 44.5404,181.550773 L42.6374,181.550773 L42.6374,178.426773 Z M52.1014,186.005773 C54.0594,186.005773 55.5334,184.333773 55.5334,181.781773 C55.5334,179.229773 54.0594,177.557773 52.1014,177.557773 C50.1324,177.557773 48.6694,179.229773 48.6694,181.781773 C48.6694,184.333773 50.1324,186.005773 52.1014,186.005773 Z M52.1014,185.301773 C50.5614,185.301773 49.4504,183.981773 49.4504,181.781773 C49.4504,179.581773 50.5614,178.272773 52.1014,178.272773 C53.6414,178.272773 54.7524,179.581773 54.7524,181.781773 C54.7524,183.981773 53.6414,185.301773 52.1014,185.301773 Z M58.1048,185.851773 L58.1048,182.199773 L60.1288,182.199773 L62.2188,185.917773 L63.0218,185.785773 L60.9428,182.111773 C62.1198,181.880773 62.8788,181.242773 62.8788,179.933773 C62.8788,178.481773 61.8668,177.711773 60.0628,177.711773 L57.3348,177.711773 L57.3348,185.851773 L58.1048,185.851773 Z M58.1048,178.426773 L59.9968,178.426773 C61.3608,178.426773 62.1088,178.833773 62.1088,179.944773 C62.1088,181.110773 61.3498,181.506773 60.0078,181.506773 L58.1048,181.506773 L58.1048,178.426773 Z M68.0458,185.851773 L68.0458,182.243773 L69.8938,182.243773 C71.6098,182.243773 72.8198,181.583773 72.8198,179.933773 C72.8198,178.426773 71.7308,177.711773 69.9708,177.711773 L67.2648,177.711773 L67.2648,185.851773 L68.0458,185.851773 Z M68.0458,178.426773 L69.9378,178.426773 C71.3018,178.426773 72.0388,178.855773 72.0388,179.955773 C72.0388,181.121773 71.2908,181.550773 69.9488,181.550773 L68.0458,181.550773 L68.0458,178.426773 Z M79.4425,185.851773 L79.4425,185.136773 L75.1305,185.136773 L75.1305,181.902773 L78.2985,181.902773 L78.1775,181.198773 L75.1305,181.198773 L75.1305,178.437773 L79.2115,178.437773 L79.2115,177.711773 L74.3495,177.711773 L74.3495,185.851773 L79.4425,185.851773 Z M81.7565,185.851773 L81.7565,182.199773 L83.7805,182.199773 L85.8705,185.917773 L86.6735,185.785773 L84.5945,182.111773 C85.7715,181.880773 86.5305,181.242773 86.5305,179.933773 C86.5305,178.481773 85.5185,177.711773 83.7145,177.711773 L80.9865,177.711773 L80.9865,185.851773 L81.7565,185.851773 Z M81.7565,178.426773 L83.6485,178.426773 C85.0125,178.426773 85.7605,178.833773 85.7605,179.944773 C85.7605,181.110773 85.0015,181.506773 83.6595,181.506773 L81.7565,181.506773 L81.7565,178.426773 Z M90.8465,186.005773 C92.4745,186.005773 93.6625,185.136773 93.6625,183.794773 C93.6625,182.463773 92.8265,181.902773 91.1325,181.363773 C89.4275,180.824773 88.8775,180.505773 88.8775,179.592773 C88.8775,178.866773 89.5375,178.261773 90.6375,178.261773 C91.6275,178.261773 92.3975,178.668773 93.1345,179.328773 L93.5305,178.712773 C92.7825,178.041773 91.8805,177.557773 90.6375,177.557773 C89.1525,177.557773 88.1075,178.481773 88.1075,179.647773 C88.1075,180.989773 88.9985,181.462773 90.7475,182.012773 C92.4745,182.551773 92.8925,182.991773 92.8925,183.838773 C92.8925,184.740773 92.0895,185.301773 90.8355,185.301773 C89.7135,185.301773 88.7345,184.817773 88.0525,184.124773 L87.6015,184.707773 C88.4155,185.521773 89.4935,186.005773 90.8465,186.005773 Z M98.3261,186.005773 C100.2841,186.005773 101.7581,184.333773 101.7581,181.781773 C101.7581,179.229773 100.2841,177.557773 98.3261,177.557773 C96.3571,177.557773 94.8941,179.229773 94.8941,181.781773 C94.8941,184.333773 96.3571,186.005773 98.3261,186.005773 Z M98.3261,185.301773 C96.7861,185.301773 95.6751,183.981773 95.6751,181.781773 C95.6751,179.581773 96.7861,178.272773 98.3261,178.272773 C99.8661,178.272773 100.9771,179.581773 100.9771,181.781773 C100.9771,183.981773 99.8661,185.301773 98.3261,185.301773 Z M104.2965,185.851773 L104.2965,178.932773 L104.3185,178.932773 L108.9495,185.851773 L109.6425,185.851773 L109.6425,177.711773 L108.9055,177.711773 L108.9055,184.421773 L108.8835,184.421773 L104.3955,177.711773 L103.5595,177.711773 L103.5595,185.851773 L104.2965,185.851773 Z M111.8927,185.851773 L112.7617,183.343773 L116.0617,183.343773 L116.9527,185.917773 L117.7227,185.785773 L114.8517,177.678773 L114.0157,177.678773 L111.1337,185.851773 L111.8927,185.851773 Z M114.4007,178.602773 L114.4227,178.602773 L115.8197,182.650773 L113.0037,182.650773 L114.4007,178.602773 Z" id="POR-PERSONA" fill="#666666"></path>
                <path d="M236.5564,185.851773 L236.5564,182.243773 L238.4044,182.243773 C240.1204,182.243773 241.3304,181.583773 241.3304,179.933773 C241.3304,178.426773 240.2414,177.711773 238.4814,177.711773 L235.7754,177.711773 L235.7754,185.851773 L236.5564,185.851773 Z M236.5564,178.426773 L238.4484,178.426773 C239.8124,178.426773 240.5494,178.855773 240.5494,179.955773 C240.5494,181.121773 239.8014,181.550773 238.4594,181.550773 L236.5564,181.550773 L236.5564,178.426773 Z M246.0204,186.005773 C247.9784,186.005773 249.4524,184.333773 249.4524,181.781773 C249.4524,179.229773 247.9784,177.557773 246.0204,177.557773 C244.0514,177.557773 242.5884,179.229773 242.5884,181.781773 C242.5884,184.333773 244.0514,186.005773 246.0204,186.005773 Z M246.0204,185.301773 C244.4804,185.301773 243.3694,183.981773 243.3694,181.781773 C243.3694,179.581773 244.4804,178.272773 246.0204,178.272773 C247.5604,178.272773 248.6714,179.581773 248.6714,181.781773 C248.6714,183.981773 247.5604,185.301773 246.0204,185.301773 Z M252.0238,185.851773 L252.0238,182.199773 L254.0478,182.199773 L256.1378,185.917773 L256.9408,185.785773 L254.8618,182.111773 C256.0388,181.880773 256.7978,181.242773 256.7978,179.933773 C256.7978,178.481773 255.7858,177.711773 253.9818,177.711773 L251.2538,177.711773 L251.2538,185.851773 L252.0238,185.851773 Z M252.0238,178.426773 L253.9158,178.426773 C255.2798,178.426773 256.0278,178.833773 256.0278,179.944773 C256.0278,181.110773 255.2688,181.506773 253.9268,181.506773 L252.0238,181.506773 L252.0238,178.426773 Z M261.9648,185.851773 L261.9648,182.243773 L263.8128,182.243773 C265.5288,182.243773 266.7388,181.583773 266.7388,179.933773 C266.7388,178.426773 265.6498,177.711773 263.8898,177.711773 L261.1838,177.711773 L261.1838,185.851773 L261.9648,185.851773 Z M261.9648,178.426773 L263.8568,178.426773 C265.2208,178.426773 265.9578,178.855773 265.9578,179.955773 C265.9578,181.121773 265.2098,181.550773 263.8678,181.550773 L261.9648,181.550773 L261.9648,178.426773 Z M273.3615,185.851773 L273.3615,185.136773 L269.0495,185.136773 L269.0495,181.902773 L272.2175,181.902773 L272.0965,181.198773 L269.0495,181.198773 L269.0495,178.437773 L273.1305,178.437773 L273.1305,177.711773 L268.2685,177.711773 L268.2685,185.851773 L273.3615,185.851773 Z M275.6755,185.851773 L275.6755,182.199773 L277.6995,182.199773 L279.7895,185.917773 L280.5925,185.785773 L278.5135,182.111773 C279.6905,181.880773 280.4495,181.242773 280.4495,179.933773 C280.4495,178.481773 279.4375,177.711773 277.6335,177.711773 L274.9055,177.711773 L274.9055,185.851773 L275.6755,185.851773 Z M275.6755,178.426773 L277.5675,178.426773 C278.9315,178.426773 279.6795,178.833773 279.6795,179.944773 C279.6795,181.110773 278.9205,181.506773 277.5785,181.506773 L275.6755,181.506773 L275.6755,178.426773 Z M284.7655,186.005773 C286.3935,186.005773 287.5815,185.136773 287.5815,183.794773 C287.5815,182.463773 286.7455,181.902773 285.0515,181.363773 C283.3465,180.824773 282.7965,180.505773 282.7965,179.592773 C282.7965,178.866773 283.4565,178.261773 284.5565,178.261773 C285.5465,178.261773 286.3165,178.668773 287.0535,179.328773 L287.4495,178.712773 C286.7015,178.041773 285.7995,177.557773 284.5565,177.557773 C283.0715,177.557773 282.0265,178.481773 282.0265,179.647773 C282.0265,180.989773 282.9175,181.462773 284.6665,182.012773 C286.3935,182.551773 286.8115,182.991773 286.8115,183.838773 C286.8115,184.740773 286.0085,185.301773 284.7545,185.301773 C283.6325,185.301773 282.6535,184.817773 281.9715,184.124773 L281.5205,184.707773 C282.3345,185.521773 283.4125,186.005773 284.7655,186.005773 Z M292.2451,186.005773 C294.2031,186.005773 295.6771,184.333773 295.6771,181.781773 C295.6771,179.229773 294.2031,177.557773 292.2451,177.557773 C290.2761,177.557773 288.8131,179.229773 288.8131,181.781773 C288.8131,184.333773 290.2761,186.005773 292.2451,186.005773 Z M292.2451,185.301773 C290.7051,185.301773 289.5941,183.981773 289.5941,181.781773 C289.5941,179.581773 290.7051,178.272773 292.2451,178.272773 C293.7851,178.272773 294.8961,179.581773 294.8961,181.781773 C294.8961,183.981773 293.7851,185.301773 292.2451,185.301773 Z M298.2155,185.851773 L298.2155,178.932773 L298.2375,178.932773 L302.8685,185.851773 L303.5615,185.851773 L303.5615,177.711773 L302.8245,177.711773 L302.8245,184.421773 L302.8025,184.421773 L298.3145,177.711773 L297.4785,177.711773 L297.4785,185.851773 L298.2155,185.851773 Z M305.8128,185.851773 L306.6818,183.343773 L309.9818,183.343773 L310.8728,185.917773 L311.6428,185.785773 L308.7718,177.678773 L307.9358,177.678773 L305.0538,185.851773 L305.8128,185.851773 Z M308.3208,178.602773 L308.3428,178.602773 L309.7398,182.650773 L306.9238,182.650773 L308.3208,178.602773 Z" id="POR-PERSONA" fill="#666666"></path>
                <path d="M432.1694,185.851773 L432.1694,182.243773 L434.0174,182.243773 C435.7334,182.243773 436.9434,181.583773 436.9434,179.933773 C436.9434,178.426773 435.8544,177.711773 434.0944,177.711773 L431.3884,177.711773 L431.3884,185.851773 L432.1694,185.851773 Z M432.1694,178.426773 L434.0614,178.426773 C435.4254,178.426773 436.1624,178.855773 436.1624,179.955773 C436.1624,181.121773 435.4144,181.550773 434.0724,181.550773 L432.1694,181.550773 L432.1694,178.426773 Z M441.6334,186.005773 C443.5914,186.005773 445.0654,184.333773 445.0654,181.781773 C445.0654,179.229773 443.5914,177.557773 441.6334,177.557773 C439.6644,177.557773 438.2014,179.229773 438.2014,181.781773 C438.2014,184.333773 439.6644,186.005773 441.6334,186.005773 Z M441.6334,185.301773 C440.0934,185.301773 438.9824,183.981773 438.9824,181.781773 C438.9824,179.581773 440.0934,178.272773 441.6334,178.272773 C443.1734,178.272773 444.2844,179.581773 444.2844,181.781773 C444.2844,183.981773 443.1734,185.301773 441.6334,185.301773 Z M447.6368,185.851773 L447.6368,182.199773 L449.6608,182.199773 L451.7508,185.917773 L452.5538,185.785773 L450.4748,182.111773 C451.6518,181.880773 452.4108,181.242773 452.4108,179.933773 C452.4108,178.481773 451.3988,177.711773 449.5948,177.711773 L446.8668,177.711773 L446.8668,185.851773 L447.6368,185.851773 Z M447.6368,178.426773 L449.5288,178.426773 C450.8928,178.426773 451.6408,178.833773 451.6408,179.944773 C451.6408,181.110773 450.8818,181.506773 449.5398,181.506773 L447.6368,181.506773 L447.6368,178.426773 Z M457.5778,185.851773 L457.5778,182.243773 L459.4258,182.243773 C461.1418,182.243773 462.3518,181.583773 462.3518,179.933773 C462.3518,178.426773 461.2628,177.711773 459.5028,177.711773 L456.7968,177.711773 L456.7968,185.851773 L457.5778,185.851773 Z M457.5778,178.426773 L459.4698,178.426773 C460.8338,178.426773 461.5708,178.855773 461.5708,179.955773 C461.5708,181.121773 460.8228,181.550773 459.4808,181.550773 L457.5778,181.550773 L457.5778,178.426773 Z M468.9745,185.851773 L468.9745,185.136773 L464.6625,185.136773 L464.6625,181.902773 L467.8305,181.902773 L467.7095,181.198773 L464.6625,181.198773 L464.6625,178.437773 L468.7435,178.437773 L468.7435,177.711773 L463.8815,177.711773 L463.8815,185.851773 L468.9745,185.851773 Z M471.2885,185.851773 L471.2885,182.199773 L473.3125,182.199773 L475.4025,185.917773 L476.2055,185.785773 L474.1265,182.111773 C475.3035,181.880773 476.0625,181.242773 476.0625,179.933773 C476.0625,178.481773 475.0505,177.711773 473.2465,177.711773 L470.5185,177.711773 L470.5185,185.851773 L471.2885,185.851773 Z M471.2885,178.426773 L473.1805,178.426773 C474.5445,178.426773 475.2925,178.833773 475.2925,179.944773 C475.2925,181.110773 474.5335,181.506773 473.1915,181.506773 L471.2885,181.506773 L471.2885,178.426773 Z M480.3785,186.005773 C482.0065,186.005773 483.1945,185.136773 483.1945,183.794773 C483.1945,182.463773 482.3585,181.902773 480.6645,181.363773 C478.9595,180.824773 478.4095,180.505773 478.4095,179.592773 C478.4095,178.866773 479.0695,178.261773 480.1695,178.261773 C481.1595,178.261773 481.9295,178.668773 482.6665,179.328773 L483.0625,178.712773 C482.3145,178.041773 481.4125,177.557773 480.1695,177.557773 C478.6845,177.557773 477.6395,178.481773 477.6395,179.647773 C477.6395,180.989773 478.5305,181.462773 480.2795,182.012773 C482.0065,182.551773 482.4245,182.991773 482.4245,183.838773 C482.4245,184.740773 481.6215,185.301773 480.3675,185.301773 C479.2455,185.301773 478.2665,184.817773 477.5845,184.124773 L477.1335,184.707773 C477.9475,185.521773 479.0255,186.005773 480.3785,186.005773 Z M487.8581,186.005773 C489.8161,186.005773 491.2901,184.333773 491.2901,181.781773 C491.2901,179.229773 489.8161,177.557773 487.8581,177.557773 C485.8891,177.557773 484.4261,179.229773 484.4261,181.781773 C484.4261,184.333773 485.8891,186.005773 487.8581,186.005773 Z M487.8581,185.301773 C486.3181,185.301773 485.2071,183.981773 485.2071,181.781773 C485.2071,179.581773 486.3181,178.272773 487.8581,178.272773 C489.3981,178.272773 490.5091,179.581773 490.5091,181.781773 C490.5091,183.981773 489.3981,185.301773 487.8581,185.301773 Z M493.8285,185.851773 L493.8285,178.932773 L493.8505,178.932773 L498.4815,185.851773 L499.1745,185.851773 L499.1745,177.711773 L498.4375,177.711773 L498.4375,184.421773 L498.4155,184.421773 L493.9275,177.711773 L493.0915,177.711773 L493.0915,185.851773 L493.8285,185.851773 Z M501.4247,185.851773 L502.2937,183.343773 L505.5937,183.343773 L506.4847,185.917773 L507.2547,185.785773 L504.3837,177.678773 L503.5477,177.678773 L500.6657,185.851773 L501.4247,185.851773 Z M503.9327,178.602773 L503.9547,178.602773 L505.3517,182.650773 L502.5357,182.650773 L503.9327,178.602773 Z" id="POR-PERSONA" fill="#666666"></path>
                <path d="M624.5484,185.851773 L624.5484,185.136773 L620.2364,185.136773 L620.2364,181.902773 L623.4044,181.902773 L623.2834,181.198773 L620.2364,181.198773 L620.2364,178.437773 L624.3174,178.437773 L624.3174,177.711773 L619.4554,177.711773 L619.4554,185.851773 L624.5484,185.851773 Z M626.7572,185.851773 L626.7572,178.932773 L626.7792,178.932773 L631.4102,185.851773 L632.1032,185.851773 L632.1032,177.711773 L631.3662,177.711773 L631.3662,184.421773 L631.3442,184.421773 L626.8562,177.711773 L626.0202,177.711773 L626.0202,185.851773 L626.7572,185.851773 Z M641.7722,185.851773 L641.7722,185.136773 L637.4602,185.136773 L637.4602,181.902773 L640.6282,181.902773 L640.5072,181.198773 L637.4602,181.198773 L637.4602,178.437773 L641.5412,178.437773 L641.5412,177.711773 L636.6792,177.711773 L636.6792,185.851773 L641.7722,185.851773 Z M645.301,185.851773 C647.908,185.851773 649.349,184.454773 649.349,181.770773 C649.349,179.086773 647.941,177.711773 645.301,177.711773 L643.244,177.711773 L643.244,185.851773 L645.301,185.851773 Z M644.025,178.437773 L645.4,178.437773 C647.435,178.437773 648.568,179.493773 648.568,181.781773 C648.568,184.102773 647.446,185.136773 645.422,185.136773 L644.025,185.136773 L644.025,178.437773 Z M651.912,185.851773 L651.912,177.711773 L651.131,177.711773 L651.131,185.851773 L651.912,185.851773 Z M654.8215,185.851773 L654.8215,181.946773 L657.8685,181.946773 L657.7585,181.242773 L654.8215,181.242773 L654.8215,178.437773 L658.8035,178.437773 L658.8035,177.711773 L654.0405,177.711773 L654.0405,185.851773 L654.8215,185.851773 Z M661.0673,185.851773 L661.0673,177.711773 L660.2863,177.711773 L660.2863,185.851773 L661.0673,185.851773 Z M666.2384,186.005773 C667.7014,186.005773 668.7024,185.246773 669.1864,183.981773 L668.5154,183.673773 C668.1084,184.718773 667.3494,185.301773 666.2494,185.301773 C664.6544,185.301773 663.6314,183.970773 663.6314,181.726773 C663.6314,179.658773 664.6324,178.272773 666.2164,178.272773 C667.3054,178.272773 667.9544,178.789773 668.3394,179.702773 L669.0104,179.350773 C668.5154,178.217773 667.6024,177.557773 666.2164,177.557773 C664.2034,177.557773 662.8504,179.295773 662.8504,181.748773 C662.8504,184.322773 664.1924,186.005773 666.2384,186.005773 Z M671.5888,185.851773 L671.5888,177.711773 L670.8078,177.711773 L670.8078,185.851773 L671.5888,185.851773 Z M676.7863,186.005773 C678.7443,186.005773 680.2183,184.333773 680.2183,181.781773 C680.2183,179.229773 678.7443,177.557773 676.7863,177.557773 C674.8173,177.557773 673.3543,179.229773 673.3543,181.781773 C673.3543,184.333773 674.8173,186.005773 676.7863,186.005773 Z M676.7863,185.301773 C675.2463,185.301773 674.1353,183.981773 674.1353,181.781773 C674.1353,179.581773 675.2463,178.272773 676.7863,178.272773 C678.3263,178.272773 679.4373,179.581773 679.4373,181.781773 C679.4373,183.981773 678.3263,185.301773 676.7863,185.301773 Z M684.2487,186.005773 C685.8767,186.005773 687.0647,185.136773 687.0647,183.794773 C687.0647,182.463773 686.2287,181.902773 684.5347,181.363773 C682.8297,180.824773 682.2797,180.505773 682.2797,179.592773 C682.2797,178.866773 682.9397,178.261773 684.0397,178.261773 C685.0297,178.261773 685.7997,178.668773 686.5367,179.328773 L686.9327,178.712773 C686.1847,178.041773 685.2827,177.557773 684.0397,177.557773 C682.5547,177.557773 681.5097,178.481773 681.5097,179.647773 C681.5097,180.989773 682.4007,181.462773 684.1497,182.012773 C685.8767,182.551773 686.2947,182.991773 686.2947,183.838773 C686.2947,184.740773 685.4917,185.301773 684.2377,185.301773 C683.1157,185.301773 682.1367,184.817773 681.4547,184.124773 L681.0037,184.707773 C681.8177,185.521773 682.8957,186.005773 684.2487,186.005773 Z M694.2697,186.005773 C695.7327,186.005773 696.7337,185.246773 697.2177,183.981773 L696.5467,183.673773 C696.1397,184.718773 695.3807,185.301773 694.2807,185.301773 C692.6857,185.301773 691.6627,183.970773 691.6627,181.726773 C691.6627,179.658773 692.6637,178.272773 694.2477,178.272773 C695.3367,178.272773 695.9857,178.789773 696.3707,179.702773 L697.0417,179.350773 C696.5467,178.217773 695.6337,177.557773 694.2477,177.557773 C692.2347,177.557773 690.8817,179.295773 690.8817,181.748773 C690.8817,184.322773 692.2237,186.005773 694.2697,186.005773 Z M701.7321,186.005773 C703.6901,186.005773 705.1641,184.333773 705.1641,181.781773 C705.1641,179.229773 703.6901,177.557773 701.7321,177.557773 C699.7631,177.557773 698.3001,179.229773 698.3001,181.781773 C698.3001,184.333773 699.7631,186.005773 701.7321,186.005773 Z M701.7321,185.301773 C700.1921,185.301773 699.0811,183.981773 699.0811,181.781773 C699.0811,179.581773 700.1921,178.272773 701.7321,178.272773 C703.2721,178.272773 704.3831,179.581773 704.3831,181.781773 C704.3831,183.981773 703.2721,185.301773 701.7321,185.301773 Z M707.6325,185.851773 L707.6325,178.932773 L707.6545,178.932773 L712.2855,185.851773 L712.9785,185.851773 L712.9785,177.711773 L712.2415,177.711773 L712.2415,184.421773 L712.2195,184.421773 L707.7315,177.711773 L706.8955,177.711773 L706.8955,185.851773 L707.6325,185.851773 Z" id="EN-EDIFICIOS-CON-" fill="#666666"></path>
                <path d="M598.5993,200.005773 C600.0623,200.005773 601.0633,199.246773 601.5473,197.981773 L600.8763,197.673773 C600.4693,198.718773 599.7103,199.301773 598.6103,199.301773 C597.0153,199.301773 595.9923,197.970773 595.9923,195.726773 C595.9923,193.658773 596.9933,192.272773 598.5773,192.272773 C599.6663,192.272773 600.3153,192.789773 600.7003,193.702773 L601.3713,193.350773 C600.8763,192.217773 599.9633,191.557773 598.5773,191.557773 C596.5643,191.557773 595.2113,193.295773 595.2113,195.748773 C595.2113,198.322773 596.5533,200.005773 598.5993,200.005773 Z M608.2767,199.851773 L608.2767,199.136773 L603.9647,199.136773 L603.9647,195.902773 L607.1327,195.902773 L607.0117,195.198773 L603.9647,195.198773 L603.9647,192.437773 L608.0457,192.437773 L608.0457,191.711773 L603.1837,191.711773 L603.1837,199.851773 L608.2767,199.851773 Z M610.5907,199.851773 L610.5907,196.199773 L612.6147,196.199773 L614.7047,199.917773 L615.5077,199.785773 L613.4287,196.111773 C614.6057,195.880773 615.3647,195.242773 615.3647,193.933773 C615.3647,192.481773 614.3527,191.711773 612.5487,191.711773 L609.8207,191.711773 L609.8207,199.851773 L610.5907,199.851773 Z M610.5907,192.426773 L612.4827,192.426773 C613.8467,192.426773 614.5947,192.833773 614.5947,193.944773 C614.5947,195.110773 613.8357,195.506773 612.4937,195.506773 L610.5907,195.506773 L610.5907,192.426773 Z M619.7137,199.851773 L619.7137,192.437773 L622.3977,192.437773 L622.2767,191.711773 L616.3037,191.711773 L616.3037,192.437773 L618.9327,192.437773 L618.9327,199.851773 L619.7137,199.851773 Z M624.6864,199.851773 L624.6864,191.711773 L623.9054,191.711773 L623.9054,199.851773 L624.6864,199.851773 Z M627.6604,199.851773 L627.6604,195.946773 L630.7074,195.946773 L630.5974,195.242773 L627.6604,195.242773 L627.6604,192.437773 L631.6424,192.437773 L631.6424,191.711773 L626.8794,191.711773 L626.8794,199.851773 L627.6604,199.851773 Z M633.9762,199.851773 L633.9762,191.711773 L633.1952,191.711773 L633.1952,199.851773 L633.9762,199.851773 Z M639.2173,200.005773 C640.6803,200.005773 641.6813,199.246773 642.1653,197.981773 L641.4943,197.673773 C641.0873,198.718773 640.3283,199.301773 639.2283,199.301773 C637.6333,199.301773 636.6103,197.970773 636.6103,195.726773 C636.6103,193.658773 637.6113,192.272773 639.1953,192.272773 C640.2843,192.272773 640.9333,192.789773 641.3183,193.702773 L641.9893,193.350773 C641.4943,192.217773 640.5813,191.557773 639.1953,191.557773 C637.1823,191.557773 635.8293,193.295773 635.8293,195.748773 C635.8293,198.322773 637.1713,200.005773 639.2173,200.005773 Z M643.6576,199.851773 L644.5266,197.343773 L647.8266,197.343773 L648.7176,199.917773 L649.4876,199.785773 L646.6166,191.678773 L645.7806,191.678773 L642.8986,199.851773 L643.6576,199.851773 Z M646.1656,192.602773 L646.1876,192.602773 L647.5846,196.650773 L644.7686,196.650773 L646.1656,192.602773 Z M653.2492,200.005773 C654.7122,200.005773 655.7132,199.246773 656.1972,197.981773 L655.5262,197.673773 C655.1192,198.718773 654.3602,199.301773 653.2602,199.301773 C651.6652,199.301773 650.6422,197.970773 650.6422,195.726773 C650.6422,193.658773 651.6432,192.272773 653.2272,192.272773 C654.3162,192.272773 654.9652,192.789773 655.3502,193.702773 L656.0212,193.350773 C655.5262,192.217773 654.6132,191.557773 653.2272,191.557773 C651.2142,191.557773 649.8612,193.295773 649.8612,195.748773 C649.8612,198.322773 651.2032,200.005773 653.2492,200.005773 Z M658.6707,199.851773 L658.6707,191.711773 L657.8897,191.711773 L657.8897,199.851773 L658.6707,199.851773 Z M663.5411,191.205773 L664.0361,191.205773 L665.5871,189.489773 L664.5861,189.489773 L663.5411,191.205773 Z M663.9371,200.005773 C665.8951,200.005773 667.3691,198.333773 667.3691,195.781773 C667.3691,193.229773 665.8951,191.557773 663.9371,191.557773 C661.9681,191.557773 660.5051,193.229773 660.5051,195.781773 C660.5051,198.333773 661.9681,200.005773 663.9371,200.005773 Z M663.9371,199.301773 C662.3971,199.301773 661.2861,197.981773 661.2861,195.781773 C661.2861,193.581773 662.3971,192.272773 663.9371,192.272773 C665.4771,192.272773 666.5881,193.581773 666.5881,195.781773 C666.5881,197.981773 665.4771,199.301773 663.9371,199.301773 Z M669.9075,199.851773 L669.9075,192.932773 L669.9295,192.932773 L674.5605,199.851773 L675.2535,199.851773 L675.2535,191.711773 L674.5165,191.711773 L674.5165,198.421773 L674.4945,198.421773 L670.0065,191.711773 L669.1705,191.711773 L669.1705,199.851773 L669.9075,199.851773 Z M679.6725,199.851773 L680.5415,197.343773 L683.8415,197.343773 L684.7325,199.917773 L685.5025,199.785773 L682.6315,191.678773 L681.7955,191.678773 L678.9135,199.851773 L679.6725,199.851773 Z M682.1805,192.602773 L682.2025,192.602773 L683.5995,196.650773 L680.7835,196.650773 L682.1805,192.602773 Z M687.7252,199.851773 L687.7252,193.009773 L687.7472,193.009773 C687.9232,193.592773 688.0552,193.933773 688.2532,194.450773 L690.3652,199.851773 L691.0802,199.851773 L693.1922,194.450773 C693.3902,193.933773 693.5882,193.394773 693.6982,193.020773 L693.7202,193.020773 L693.7202,199.851773 L694.5012,199.851773 L694.5012,191.711773 L693.4782,191.711773 L690.7612,198.839773 L690.7392,198.839773 L688.0112,191.711773 L686.9992,191.711773 L686.9992,199.851773 L687.7252,199.851773 Z M699.7291,199.851773 C701.6101,199.851773 702.5121,198.927773 702.5121,197.640773 C702.5121,196.463773 701.6981,195.836773 700.7081,195.660773 L700.7081,195.638773 C701.5331,195.451773 702.2481,194.846773 702.2481,193.757773 C702.2481,192.470773 701.3241,191.711773 699.4871,191.711773 L696.6601,191.711773 L696.6601,199.851773 L699.7291,199.851773 Z M697.4301,192.415773 L699.4431,192.415773 C700.8511,192.415773 701.4781,192.866773 701.4781,193.856773 C701.4781,194.857773 700.7191,195.330773 699.4211,195.330773 L697.4301,195.330773 L697.4301,192.415773 Z M697.4301,196.012773 L699.4761,196.012773 C700.8731,196.012773 701.7421,196.518773 701.7421,197.607773 C701.7421,198.586773 701.1151,199.158773 699.7181,199.158773 L697.4301,199.158773 L697.4301,196.012773 Z M705.1396,199.851773 L705.1396,191.711773 L704.3586,191.711773 L704.3586,199.851773 L705.1396,199.851773 Z M712.4256,199.851773 L712.4256,199.136773 L708.1136,199.136773 L708.1136,195.902773 L711.2816,195.902773 L711.1606,195.198773 L708.1136,195.198773 L708.1136,192.437773 L712.1946,192.437773 L712.1946,191.711773 L707.3326,191.711773 L707.3326,199.851773 L712.4256,199.851773 Z M714.7066,199.851773 L714.7066,192.932773 L714.7286,192.932773 L719.3596,199.851773 L720.0526,199.851773 L720.0526,191.711773 L719.3156,191.711773 L719.3156,198.421773 L719.2936,198.421773 L714.8056,191.711773 L713.9696,191.711773 L713.9696,199.851773 L714.7066,199.851773 Z M724.9428,199.851773 L724.9428,192.437773 L727.6268,192.437773 L727.5058,191.711773 L721.5328,191.711773 L721.5328,192.437773 L724.1618,192.437773 L724.1618,199.851773 L724.9428,199.851773 Z M727.2623,199.851773 L728.1313,197.343773 L731.4313,197.343773 L732.3223,199.917773 L733.0923,199.785773 L730.2213,191.678773 L729.3853,191.678773 L726.5033,199.851773 L727.2623,199.851773 Z M729.7703,192.602773 L729.7923,192.602773 L731.1893,196.650773 L728.3733,196.650773 L729.7703,192.602773 Z M739.407,199.851773 L739.286,199.136773 L735.37,199.136773 L735.37,191.711773 L734.589,191.711773 L734.589,199.851773 L739.407,199.851773 Z" id="CERTIFICACIÓN-AMBIENTAL" fill="#666666"></path>
                <path d="M37.8848,79.8938125 C43.3208,79.8938125 46.7048,75.8618125 46.7048,70.6058125 C46.7048,65.2778125 43.1768,61.9658125 38.5688,61.9658125 C35.6888,61.9658125 33.9248,62.9738125 32.5208,64.6298125 L33.3128,54.4778125 L45.2648,54.4778125 L44.9408,52.7498125 L31.6928,52.7498125 L30.6848,66.5738125 L32.1608,67.1858125 C33.6368,64.9898125 35.5448,63.5498125 38.5328,63.5498125 C42.1688,63.5498125 44.9408,66.1058125 44.9408,70.7138125 C44.9408,74.4938125 42.7448,78.3098125 37.9208,78.3098125 C34.5728,78.3098125 32.4128,76.5098125 30.8648,73.9178125 L29.3888,74.8178125 C31.0448,77.8058125 34.1048,79.8938125 37.8848,79.8938125 Z M52.7234,82.8818125 L54.9554,76.5098125 L52.5794,76.5098125 L51.6794,82.8818125 L52.7234,82.8818125 Z M62.6264,79.3898125 L74.1104,54.3698125 L74.1104,52.7498125 L58.1264,52.7498125 L58.4144,54.4778125 L72.2024,54.4778125 L60.7544,79.3898125 L62.6264,79.3898125 Z M86.5442,67.7258125 C81.9722,67.7258125 79.9922,64.9178125 79.9922,61.0298125 C79.9922,56.3858125 82.7642,53.8298125 86.7602,53.8298125 C90.3602,53.8298125 93.5282,56.7098125 94.1402,63.2618125 C92.3402,65.8898125 89.6402,67.7258125 86.5442,67.7258125 Z M85.9682,79.8938125 C92.0522,79.8938125 95.9762,73.3418125 95.9762,65.6018125 C95.9762,56.3498125 91.7642,52.2458125 86.8682,52.2458125 C81.4682,52.2458125 78.1922,56.0978125 78.1922,61.0298125 C78.1922,65.5658125 80.6402,69.3098125 86.4362,69.3098125 C90.0002,69.3098125 92.5922,67.4018125 94.2482,65.4578125 C94.3202,72.5498125 91.1882,78.3098125 86.0042,78.3098125 C83.1602,78.3098125 81.8282,77.4818125 80.1722,76.0778125 L79.2002,77.4458125 C80.7482,78.8498125 82.8362,79.8938125 85.9682,79.8938125 Z M107.3048,68.0498125 C110.9408,68.0498125 113.0288,64.7018125 113.0288,60.1658125 C113.0288,55.4138125 110.8688,52.3898125 107.3768,52.3898125 C103.8848,52.3898125 101.6168,55.4498125 101.6168,60.3098125 C101.6168,64.8458125 103.6328,68.0498125 107.3048,68.0498125 Z M109.0328,79.3898125 L124.9448,52.7498125 L123.2168,52.7498125 L107.3048,79.3898125 L109.0328,79.3898125 Z M107.3408,66.5018125 C104.7848,66.5018125 103.3448,63.8738125 103.3448,60.1658125 C103.3448,56.7458125 104.7488,53.9378125 107.3048,53.9378125 C109.8608,53.9378125 111.3008,56.5298125 111.3008,60.2378125 C111.3008,63.6578125 109.8968,66.5018125 107.3408,66.5018125 Z M124.9088,79.7498125 C128.5448,79.7498125 130.6328,76.4018125 130.6328,71.8658125 C130.6328,67.1138125 128.4728,64.0898125 124.9808,64.0898125 C121.4888,64.0898125 119.2208,67.1498125 119.2208,72.0098125 C119.2208,76.5458125 121.2368,79.7498125 124.9088,79.7498125 Z M124.9448,78.2018125 C122.3888,78.2018125 120.9488,75.5738125 120.9488,71.8658125 C120.9488,68.4458125 122.3528,65.6378125 124.9088,65.6378125 C127.4648,65.6378125 128.9048,68.2298125 128.9048,71.9378125 C128.9048,75.3578125 127.5008,78.2018125 124.9448,78.2018125 Z" id="5,79%" fill="#121212"></path>
                <path d="M233.7175,113.617268 L233.7175,112.148268 L228.8685,112.148268 L228.8685,109.340268 L232.6125,109.340268 L232.3785,107.897268 L228.8685,107.897268 L228.8685,105.505268 L233.4575,105.505268 L233.4575,103.997268 L227.2435,103.997268 L227.2435,113.617268 L233.7175,113.617268 Z M241.4805,113.617268 L241.2335,112.148268 L236.9305,112.148268 L236.9305,103.997268 L235.3055,103.997268 L235.3055,113.617268 L241.4805,113.617268 Z M249.3618,113.617268 L249.3618,112.148268 L244.5128,112.148268 L244.5128,109.340268 L248.2568,109.340268 L248.0228,107.897268 L244.5128,107.897268 L244.5128,105.505268 L249.1018,105.505268 L249.1018,103.997268 L242.8878,103.997268 L242.8878,113.617268 L249.3618,113.617268 Z M254.1608,113.799268 C256.1758,113.799268 257.3458,112.772268 257.9178,111.186268 L256.5138,110.549268 C256.1368,111.628268 255.3568,112.343268 254.1608,112.343268 C252.4838,112.343268 251.5218,110.991268 251.5218,108.768268 C251.5218,106.662268 252.4318,105.310268 254.0698,105.310268 C255.2268,105.310268 255.9288,105.960268 256.3058,106.857268 L257.6838,106.038268 C257.0208,104.608268 255.8898,103.815268 254.0698,103.815268 C251.7038,103.815268 249.8968,105.622268 249.8968,108.781268 C249.8968,112.031268 251.6778,113.799268 254.1608,113.799268 Z M263.1471,113.617268 L263.1471,105.505268 L266.2281,105.505268 L265.9941,103.997268 L258.5581,103.997268 L258.5581,105.505268 L261.5221,105.505268 L261.5221,113.617268 L263.1471,113.617268 Z M269.2409,113.617268 L269.2409,109.821268 L270.9439,109.821268 L273.2709,113.747268 L274.8569,113.487268 L272.5689,109.613268 C273.8949,109.275268 274.6879,108.482268 274.6879,106.948268 C274.6879,104.907268 273.3619,103.997268 271.0869,103.997268 L267.6419,103.997268 L267.6419,113.617268 L269.2409,113.617268 Z M269.2409,105.479268 L271.0089,105.479268 C272.3869,105.479268 273.1019,105.856268 273.1019,106.922268 C273.1019,108.014268 272.3869,108.404268 271.0089,108.404268 L269.2409,108.404268 L269.2409,105.479268 Z M278.274,113.617268 L278.274,103.997268 L276.662,103.997268 L276.662,113.617268 L278.274,113.617268 Z M284.4185,113.799268 C286.4335,113.799268 287.6035,112.772268 288.1755,111.186268 L286.7715,110.549268 C286.3945,111.628268 285.6145,112.343268 284.4185,112.343268 C282.7415,112.343268 281.7795,110.991268 281.7795,108.768268 C281.7795,106.662268 282.6895,105.310268 284.3275,105.310268 C285.4845,105.310268 286.1865,105.960268 286.5635,106.857268 L287.9415,106.038268 C287.2785,104.608268 286.1475,103.815268 284.3275,103.815268 C281.9615,103.815268 280.1545,105.622268 280.1545,108.781268 C280.1545,112.031268 281.9355,113.799268 284.4185,113.799268 Z M291.4327,113.617268 L291.4327,103.997268 L289.8207,103.997268 L289.8207,113.617268 L291.4327,113.617268 Z M296.4462,113.617268 C299.4232,113.617268 301.4512,112.200268 301.4512,108.768268 C301.4512,105.401268 299.4622,103.997268 296.4462,103.997268 L293.7162,103.997268 L293.7162,113.617268 L296.4462,113.617268 Z M295.3282,105.505268 L296.5632,105.505268 C298.7992,105.505268 299.8262,106.545268 299.8262,108.794268 C299.8262,111.134268 298.8122,112.148268 296.5892,112.148268 L295.3282,112.148268 L295.3282,105.505268 Z M303.0652,113.617268 L303.8712,111.329268 L307.5242,111.329268 L308.3432,113.747268 L309.9162,113.487268 L306.5492,103.958268 L304.9632,103.958268 L301.5572,113.617268 L303.0652,113.617268 Z M305.7042,105.999268 L305.7302,105.999268 L307.0562,109.899268 L304.3522,109.899268 L305.7042,105.999268 Z M314.1263,113.617268 C317.1033,113.617268 319.1313,112.200268 319.1313,108.768268 C319.1313,105.401268 317.1423,103.997268 314.1263,103.997268 L311.3963,103.997268 L311.3963,113.617268 L314.1263,113.617268 Z M313.0083,105.505268 L314.2433,105.505268 C316.4793,105.505268 317.5063,106.545268 317.5063,108.794268 C317.5063,111.134268 316.4923,112.148268 314.2693,112.148268 L313.0083,112.148268 L313.0083,105.505268 Z" id="ELECTRICIDAD" fill="#2ECDCD"></path>
                <path d="M226.9697,79.3898125 L226.9697,52.7498125 L225.3497,52.7498125 L219.8417,54.7658125 L220.0937,56.3138125 L225.2057,54.4418125 L225.2057,79.3898125 L226.9697,79.3898125 Z M243.8499,79.8938125 C249.9339,79.8938125 253.2819,74.3858125 253.2819,66.0698125 C253.2819,57.7538125 249.9339,52.2458125 243.8499,52.2458125 C237.7659,52.2458125 234.3819,57.7538125 234.3819,66.0698125 C234.3819,74.3858125 237.7659,79.8938125 243.8499,79.8938125 Z M243.8499,78.3098125 C239.2059,78.3098125 236.1459,73.9178125 236.1459,66.0698125 C236.1459,58.2218125 239.0619,53.8298125 243.8499,53.8298125 C248.4579,53.8298125 251.5179,58.2218125 251.5179,66.0698125 C251.5179,73.9178125 248.6019,78.3098125 243.8499,78.3098125 Z M258.1489,82.8818125 L260.3809,76.5098125 L258.0049,76.5098125 L257.1049,82.8818125 L258.1489,82.8818125 Z M274.8815,79.8938125 C280.3175,79.8938125 283.7015,75.8618125 283.7015,70.6058125 C283.7015,65.2778125 280.1735,61.9658125 275.5655,61.9658125 C272.6855,61.9658125 270.9215,62.9738125 269.5175,64.6298125 L270.3095,54.4778125 L282.2615,54.4778125 L281.9375,52.7498125 L268.6895,52.7498125 L267.6815,66.5738125 L269.1575,67.1858125 C270.6335,64.9898125 272.5415,63.5498125 275.5295,63.5498125 C279.1655,63.5498125 281.9375,66.1058125 281.9375,70.7138125 C281.9375,74.4938125 279.7415,78.3098125 274.9175,78.3098125 C271.5695,78.3098125 269.4095,76.5098125 267.8615,73.9178125 L266.3855,74.8178125 C268.0415,77.8058125 271.1015,79.8938125 274.8815,79.8938125 Z M297.9573,79.8938125 C303.7893,79.8938125 307.1733,76.6178125 307.1733,73.0538125 C307.1733,69.1658125 304.5453,67.2218125 299.7573,65.1338125 C303.7173,63.3698125 305.9493,61.8578125 305.9493,58.5818125 C305.9493,55.3418125 303.0333,52.2458125 297.9573,52.2458125 C293.0253,52.2458125 289.9653,55.3058125 289.9653,58.5818125 C289.9653,61.7858125 292.2693,63.5498125 296.0493,65.2058125 C291.4053,67.2218125 288.7413,69.2378125 288.7413,73.0538125 C288.7413,76.7258125 292.1253,79.8938125 297.9573,79.8938125 Z M297.9933,64.3778125 C293.6013,62.4338125 291.7293,61.1378125 291.7293,58.4738125 C291.7293,56.2058125 293.8893,53.8298125 297.9573,53.8298125 C302.2413,53.8298125 304.1853,56.2778125 304.1853,58.5818125 C304.1853,61.2818125 302.3853,62.5058125 297.9933,64.3778125 Z M297.9573,78.3098125 C293.6733,78.3098125 290.5053,76.0778125 290.5053,72.9458125 C290.5053,69.8858125 292.7373,68.2298125 297.8853,65.9618125 C302.6733,67.9778125 305.4093,69.7418125 305.4093,72.9458125 C305.4093,76.1858125 302.2413,78.3098125 297.9573,78.3098125 Z M317.5771,68.0498125 C321.2131,68.0498125 323.3011,64.7018125 323.3011,60.1658125 C323.3011,55.4138125 321.1411,52.3898125 317.6491,52.3898125 C314.1571,52.3898125 311.8891,55.4498125 311.8891,60.3098125 C311.8891,64.8458125 313.9051,68.0498125 317.5771,68.0498125 Z M319.3051,79.3898125 L335.2171,52.7498125 L333.4891,52.7498125 L317.5771,79.3898125 L319.3051,79.3898125 Z M317.6131,66.5018125 C315.0571,66.5018125 313.6171,63.8738125 313.6171,60.1658125 C313.6171,56.7458125 315.0211,53.9378125 317.5771,53.9378125 C320.1331,53.9378125 321.5731,56.5298125 321.5731,60.2378125 C321.5731,63.6578125 320.1691,66.5018125 317.6131,66.5018125 Z M335.1811,79.7498125 C338.8171,79.7498125 340.9051,76.4018125 340.9051,71.8658125 C340.9051,67.1138125 338.7451,64.0898125 335.2531,64.0898125 C331.7611,64.0898125 329.4931,67.1498125 329.4931,72.0098125 C329.4931,76.5458125 331.5091,79.7498125 335.1811,79.7498125 Z M335.2171,78.2018125 C332.6611,78.2018125 331.2211,75.5738125 331.2211,71.8658125 C331.2211,68.4458125 332.6251,65.6378125 335.1811,65.6378125 C337.7371,65.6378125 339.1771,68.2298125 339.1771,71.9378125 C339.1771,75.3578125 337.7731,78.2018125 335.2171,78.2018125 Z" id="10,58%" fill="#121212"></path>
                <path d="M452.1595,113.617268 L452.9655,111.329268 L456.6185,111.329268 L457.4375,113.747268 L459.0105,113.487268 L455.6435,103.958268 L454.0575,103.958268 L450.6515,113.617268 L452.1595,113.617268 Z M454.7985,105.999268 L454.8245,105.999268 L456.1505,109.899268 L453.4465,109.899268 L454.7985,105.999268 Z M463.5395,113.799268 C464.8655,113.799268 465.8015,113.266268 466.1915,112.538268 L466.2175,112.538268 L466.2175,113.617268 L467.5565,113.617268 L467.5565,108.859268 L463.9425,108.859268 L464.1765,110.172268 L466.0095,110.172268 C465.9055,111.524268 465.0215,112.343268 463.7475,112.343268 C462.3825,112.343268 461.0955,111.329268 461.0955,108.729268 C461.0955,106.129268 462.5385,105.310268 463.7345,105.310268 C464.8135,105.310268 465.5025,105.882268 465.9055,106.844268 L467.2965,106.090268 C466.5685,104.491268 465.1645,103.815268 463.6695,103.815268 C461.1475,103.815268 459.4575,105.752268 459.4575,108.768268 C459.4575,111.654268 460.8225,113.799268 463.5395,113.799268 Z M473.3634,113.786268 C475.8984,113.786268 477.0814,112.278268 477.0814,110.094268 L477.0814,103.997268 L475.4824,103.997268 L475.4824,110.042268 C475.4824,111.433268 474.8454,112.304268 473.3764,112.304268 C471.8944,112.304268 471.2574,111.407268 471.2574,110.029268 L471.2574,103.997268 L469.6324,103.997268 L469.6324,110.120268 C469.6324,112.278268 470.8154,113.786268 473.3634,113.786268 Z M479.5109,113.617268 L480.3169,111.329268 L483.9699,111.329268 L484.7889,113.747268 L486.3619,113.487268 L482.9949,103.958268 L481.4089,103.958268 L478.0029,113.617268 L479.5109,113.617268 Z M482.1499,105.999268 L482.1759,105.999268 L483.5019,109.899268 L480.7979,109.899268 L482.1499,105.999268 Z" id="AGUA" fill="#2ECDCD"></path>
                <path d="M430.3971,79.8938125 C435.8331,79.8938125 439.2171,75.8618125 439.2171,70.6058125 C439.2171,65.2778125 435.6891,61.9658125 431.0811,61.9658125 C428.2011,61.9658125 426.4371,62.9738125 425.0331,64.6298125 L425.8251,54.4778125 L437.7771,54.4778125 L437.4531,52.7498125 L424.2051,52.7498125 L423.1971,66.5738125 L424.6731,67.1858125 C426.1491,64.9898125 428.0571,63.5498125 431.0451,63.5498125 C434.6811,63.5498125 437.4531,66.1058125 437.4531,70.7138125 C437.4531,74.4938125 435.2571,78.3098125 430.4331,78.3098125 C427.0851,78.3098125 424.9251,76.5098125 423.3771,73.9178125 L421.9011,74.8178125 C423.5571,77.8058125 426.6171,79.8938125 430.3971,79.8938125 Z M444.7457,82.8818125 L446.9777,76.5098125 L444.6017,76.5098125 L443.7017,82.8818125 L444.7457,82.8818125 Z M460.1347,79.8938125 C466.2187,79.8938125 469.5667,74.3858125 469.5667,66.0698125 C469.5667,57.7538125 466.2187,52.2458125 460.1347,52.2458125 C454.0507,52.2458125 450.6667,57.7538125 450.6667,66.0698125 C450.6667,74.3858125 454.0507,79.8938125 460.1347,79.8938125 Z M460.1347,78.3098125 C455.4907,78.3098125 452.4307,73.9178125 452.4307,66.0698125 C452.4307,58.2218125 455.3467,53.8298125 460.1347,53.8298125 C464.7427,53.8298125 467.8027,58.2218125 467.8027,66.0698125 C467.8027,73.9178125 464.8867,78.3098125 460.1347,78.3098125 Z M490.1001,79.3898125 L489.8121,77.7338125 L475.2321,77.7338125 C475.3041,75.1418125 477.7161,71.9378125 482.7561,68.7338125 C487.8681,65.4938125 489.8481,63.2258125 489.8481,59.4458125 C489.8481,55.2698125 486.9321,52.2458125 482.2521,52.2458125 C478.5801,52.2458125 475.6641,54.2258125 473.9361,57.9698125 L475.4121,58.6898125 C476.9601,55.3778125 479.0481,53.8298125 482.1801,53.8298125 C486.0681,53.8298125 488.0841,56.1698125 488.0841,59.5538125 C488.0841,62.4698125 486.4641,64.4858125 482.5041,67.0058125 C475.4841,71.5058125 473.3601,74.9618125 473.3601,78.8138125 L473.3601,79.3898125 L490.1001,79.3898125 Z M500.9855,68.0498125 C504.6215,68.0498125 506.7095,64.7018125 506.7095,60.1658125 C506.7095,55.4138125 504.5495,52.3898125 501.0575,52.3898125 C497.5655,52.3898125 495.2975,55.4498125 495.2975,60.3098125 C495.2975,64.8458125 497.3135,68.0498125 500.9855,68.0498125 Z M502.7135,79.3898125 L518.6255,52.7498125 L516.8975,52.7498125 L500.9855,79.3898125 L502.7135,79.3898125 Z M501.0215,66.5018125 C498.4655,66.5018125 497.0255,63.8738125 497.0255,60.1658125 C497.0255,56.7458125 498.4295,53.9378125 500.9855,53.9378125 C503.5415,53.9378125 504.9815,56.5298125 504.9815,60.2378125 C504.9815,63.6578125 503.5775,66.5018125 501.0215,66.5018125 Z M518.5895,79.7498125 C522.2255,79.7498125 524.3135,76.4018125 524.3135,71.8658125 C524.3135,67.1138125 522.1535,64.0898125 518.6615,64.0898125 C515.1695,64.0898125 512.9015,67.1498125 512.9015,72.0098125 C512.9015,76.5458125 514.9175,79.7498125 518.5895,79.7498125 Z M518.6255,78.2018125 C516.0695,78.2018125 514.6295,75.5738125 514.6295,71.8658125 C514.6295,68.4458125 516.0335,65.6378125 518.5895,65.6378125 C521.1455,65.6378125 522.5855,68.2298125 522.5855,71.9378125 C522.5855,75.3578125 521.1815,78.2018125 518.6255,78.2018125 Z" id="5,02%" fill="#121212"></path>
                <path d="M650.6645,103.617268 C653.6415,103.617268 655.6695,102.200268 655.6695,98.7682684 C655.6695,95.4012684 653.6805,93.9972684 650.6645,93.9972684 L647.9345,93.9972684 L647.9345,103.617268 L650.6645,103.617268 Z M649.5465,95.5052684 L650.7815,95.5052684 C653.0175,95.5052684 654.0445,96.5452684 654.0445,98.7942684 C654.0445,101.134268 653.0305,102.148268 650.8075,102.148268 L649.5465,102.148268 L649.5465,95.5052684 Z M663.8565,103.617268 L663.8565,102.148268 L659.0075,102.148268 L659.0075,99.3402684 L662.7515,99.3402684 L662.5175,97.8972684 L659.0075,97.8972684 L659.0075,95.5052684 L663.5965,95.5052684 L663.5965,93.9972684 L657.3825,93.9972684 L657.3825,103.617268 L663.8565,103.617268 Z M674.9265,103.617268 L674.6795,102.148268 L670.3765,102.148268 L670.3765,93.9972684 L668.7515,93.9972684 L668.7515,103.617268 L674.9265,103.617268 Z M677.3623,103.617268 L678.1683,101.329268 L681.8213,101.329268 L682.6403,103.747268 L684.2133,103.487268 L680.8463,93.9582684 L679.2603,93.9582684 L675.8543,103.617268 L677.3623,103.617268 Z M680.0013,95.9992684 L680.0273,95.9992684 L681.3533,99.8992684 L678.6493,99.8992684 L680.0013,95.9992684 Z" id="DE-LA" fill="#2ECDCD"></path>
                <path d="M634.2765,119.217268 L634.2765,115.564268 L635.9795,115.564268 C637.9555,115.564268 639.7235,114.914268 639.7235,112.548268 C639.7235,110.273268 638.0985,109.597268 636.0315,109.597268 L632.6645,109.597268 L632.6645,119.217268 L634.2765,119.217268 Z M634.2765,111.079268 L636.0445,111.079268 C637.5005,111.079268 638.1375,111.573268 638.1375,112.587268 C638.1375,113.666268 637.4875,114.147268 636.0575,114.147268 L634.2765,114.147268 L634.2765,111.079268 Z M647.3868,119.217268 L647.1398,117.748268 L642.8368,117.748268 L642.8368,109.597268 L641.2118,109.597268 L641.2118,119.217268 L647.3868,119.217268 Z M649.8826,119.217268 L650.6886,116.929268 L654.3416,116.929268 L655.1606,119.347268 L656.7336,119.087268 L653.3666,109.558268 L651.7806,109.558268 L648.3746,119.217268 L649.8826,119.217268 Z M652.5216,111.599268 L652.5476,111.599268 L653.8736,115.499268 L651.1696,115.499268 L652.5216,111.599268 Z M659.6766,119.217268 L659.6766,112.210268 L659.7026,112.210268 L664.4346,119.217268 L665.9166,119.217268 L665.9166,109.597268 L664.4086,109.597268 L664.4086,116.474268 L664.3826,116.474268 L659.8326,109.597268 L658.1816,109.597268 L658.1816,119.217268 L659.6766,119.217268 Z M671.9406,119.217268 L671.9406,111.105268 L675.0216,111.105268 L674.7876,109.597268 L667.3516,109.597268 L667.3516,111.105268 L670.3156,111.105268 L670.3156,119.217268 L671.9406,119.217268 Z M678.0686,119.217268 L678.0686,109.597268 L676.4566,109.597268 L676.4566,119.217268 L678.0686,119.217268 Z M686.4911,119.217268 L686.2441,117.748268 L681.9411,117.748268 L681.9411,109.597268 L680.3161,109.597268 L680.3161,119.217268 L686.4911,119.217268 Z M694.0374,119.217268 L693.7904,117.748268 L689.4874,117.748268 L689.4874,109.597268 L687.8624,109.597268 L687.8624,119.217268 L694.0374,119.217268 Z M696.5332,119.217268 L697.3392,116.929268 L700.9922,116.929268 L701.8112,119.347268 L703.3842,119.087268 L700.0172,109.558268 L698.4312,109.558268 L695.0252,119.217268 L696.5332,119.217268 Z M699.1722,111.599268 L699.1982,111.599268 L700.5242,115.499268 L697.8202,115.499268 L699.1722,111.599268 Z" id="-PLANTILLA" fill="#2ECDCD"></path>
                <path d="M644.8514,69.3898125 L644.8514,62.5498125 L649.5314,62.5498125 L649.2074,60.9298125 L644.8514,60.9298125 L644.8514,42.7498125 L642.4754,42.7498125 L630.3434,61.2898125 L630.3434,62.5498125 L643.1234,62.5498125 L643.1234,69.3898125 L644.8514,69.3898125 Z M643.0514,44.8018125 L643.1234,44.8018125 L643.1234,60.9298125 L632.4674,60.9298125 L643.0514,44.8018125 Z M662.4986,69.8938125 C668.5826,69.8938125 671.9306,64.3858125 671.9306,56.0698125 C671.9306,47.7538125 668.5826,42.2458125 662.4986,42.2458125 C656.4146,42.2458125 653.0306,47.7538125 653.0306,56.0698125 C653.0306,64.3858125 656.4146,69.8938125 662.4986,69.8938125 Z M662.4986,68.3098125 C657.8546,68.3098125 654.7946,63.9178125 654.7946,56.0698125 C654.7946,48.2218125 657.7106,43.8298125 662.4986,43.8298125 C667.1066,43.8298125 670.1666,48.2218125 670.1666,56.0698125 C670.1666,63.9178125 667.2506,68.3098125 662.4986,68.3098125 Z M682.0826,58.0498125 C685.7186,58.0498125 687.8066,54.7018125 687.8066,50.1658125 C687.8066,45.4138125 685.6466,42.3898125 682.1546,42.3898125 C678.6626,42.3898125 676.3946,45.4498125 676.3946,50.3098125 C676.3946,54.8458125 678.4106,58.0498125 682.0826,58.0498125 Z M683.8106,69.3898125 L699.7226,42.7498125 L697.9946,42.7498125 L682.0826,69.3898125 L683.8106,69.3898125 Z M682.1186,56.5018125 C679.5626,56.5018125 678.1226,53.8738125 678.1226,50.1658125 C678.1226,46.7458125 679.5266,43.9378125 682.0826,43.9378125 C684.6386,43.9378125 686.0786,46.5298125 686.0786,50.2378125 C686.0786,53.6578125 684.6746,56.5018125 682.1186,56.5018125 Z M699.6866,69.7498125 C703.3226,69.7498125 705.4106,66.4018125 705.4106,61.8658125 C705.4106,57.1138125 703.2506,54.0898125 699.7586,54.0898125 C696.2666,54.0898125 693.9986,57.1498125 693.9986,62.0098125 C693.9986,66.5458125 696.0146,69.7498125 699.6866,69.7498125 Z M699.7226,68.2018125 C697.1666,68.2018125 695.7266,65.5738125 695.7266,61.8658125 C695.7266,58.4458125 697.1306,55.6378125 699.6866,55.6378125 C702.2426,55.6378125 703.6826,58.2298125 703.6826,61.9378125 C703.6826,65.3578125 702.2786,68.2018125 699.7226,68.2018125 Z" id="40%" fill="#121212"></path>
            </g>
        </g>
    </g>
</svg>