<?xml version="1.0" encoding="UTF-8" standalone="no"?>
<svg width="729px" height="260px" viewBox="0 0 729 260" version="1.1" xmlns="http://www.w3.org/2000/svg" xmlns:xlink="http://www.w3.org/1999/xlink">
    <!-- Generator: Sketch 41.2 (35397) - http://www.bohemiancoding.com/sketch -->
    <title>Page 1</title>
    <desc>Created with Sketch.</desc>
    <defs></defs>
    <g id="Page-1" stroke="none" stroke-width="1" fill="none" fill-rule="evenodd">
        <g>
            <g id="Group-8">
                <g id="Group-3" fill="#2ECDCD">
                    <path d="M260,130.0001 C260,201.7971 201.797,260.0001 130,260.0001 C58.203,260.0001 0,201.7971 0,130.0001 C0,58.2031 58.203,0.0001 130,0.0001 C201.797,0.0001 260,58.2031 260,130.0001" id="Fill-1"></path>
                </g>
                <path d="M728.476,130.738 C728.476,185.822 683.822,230.475 628.738,230.475 C573.655,230.475 529,185.822 529,130.738 C529,75.654 573.655,31 628.738,31 C683.822,31 728.476,75.654 728.476,130.738" id="Fill-4" fill="#2A86CA"></path>
                <path d="M484.477,130.238 C484.477,176.21 447.21,213.476 401.239,213.476 C355.267,213.476 318,176.21 318,130.238 C318,84.266 355.267,47 401.239,47 C447.21,47 484.477,84.266 484.477,130.238" id="Fill-6" fill="#2A86CA"></path>
            </g>
            <path d="M76.64,83.21 C78.965,83.21 80.315,82.025 80.975,80.195 L79.355,79.46 C78.92,80.705 78.02,81.53 76.64,81.53 C74.705,81.53 73.595,79.97 73.595,77.405 C73.595,74.975 74.645,73.415 76.535,73.415 C77.87,73.415 78.68,74.165 79.115,75.2 L80.705,74.255 C79.94,72.605 78.635,71.69 76.535,71.69 C73.805,71.69 71.72,73.775 71.72,77.42 C71.72,81.17 73.775,83.21 76.64,83.21 Z M87.0965,83.21 C89.7665,83.21 92.0915,81.185 92.0915,77.45 C92.0915,73.715 89.7665,71.69 87.0965,71.69 C84.4115,71.69 82.0865,73.715 82.0865,77.45 C82.0865,81.185 84.4115,83.21 87.0965,83.21 Z M87.0965,81.53 C85.2215,81.53 83.9615,79.97 83.9615,77.45 C83.9615,74.93 85.2215,73.415 87.0965,73.415 C88.9715,73.415 90.2315,74.93 90.2315,77.45 C90.2315,79.97 88.9715,81.53 87.0965,81.53 Z M95.8325,83 L95.8325,74.915 L95.8625,74.915 L101.3225,83 L103.0325,83 L103.0325,71.9 L101.2925,71.9 L101.2925,79.835 L101.2625,79.835 L96.0125,71.9 L94.1075,71.9 L94.1075,83 L95.8325,83 Z M109.943,83 L109.943,73.64 L113.498,73.64 L113.228,71.9 L104.648,71.9 L104.648,73.64 L108.068,73.64 L108.068,83 L109.943,83 Z M116.894,83 L116.894,78.62 L118.859,78.62 L121.544,83.15 L123.374,82.85 L120.734,78.38 C122.264,77.99 123.179,77.075 123.179,75.305 C123.179,72.95 121.649,71.9 119.024,71.9 L115.049,71.9 L115.049,83 L116.894,83 Z M116.894,73.61 L118.934,73.61 C120.524,73.61 121.349,74.045 121.349,75.275 C121.349,76.535 120.524,76.985 118.934,76.985 L116.894,76.985 L116.894,73.61 Z M127.2335,83 L127.2335,71.9 L125.3735,71.9 L125.3735,83 L127.2335,83 Z M134.255,83 C136.52,83 138.185,81.995 138.185,79.955 C138.185,78.245 137.15,77.465 135.89,77.24 L135.89,77.21 C136.925,76.985 137.855,76.19 137.855,74.66 C137.855,72.62 136.22,71.9 133.985,71.9 L129.785,71.9 L129.785,83 L134.255,83 Z M131.63,73.535 L133.835,73.535 C135.395,73.535 136.055,74.03 136.055,75.005 C136.055,76.01 135.275,76.535 133.805,76.535 L131.63,76.535 L131.63,73.535 Z M131.63,78.125 L133.865,78.125 C135.44,78.125 136.355,78.65 136.355,79.775 C136.355,80.795 135.65,81.38 134.06,81.38 L131.63,81.38 L131.63,78.125 Z M144.281,83.195 C147.206,83.195 148.571,81.455 148.571,78.935 L148.571,71.9 L146.726,71.9 L146.726,78.875 C146.726,80.48 145.991,81.485 144.296,81.485 C142.586,81.485 141.851,80.45 141.851,78.86 L141.851,71.9 L139.976,71.9 L139.976,78.965 C139.976,81.455 141.341,83.195 144.281,83.195 Z M155.3135,83.21 C157.6385,83.21 158.9885,82.025 159.6485,80.195 L158.0285,79.46 C157.5935,80.705 156.6935,81.53 155.3135,81.53 C153.3785,81.53 152.2685,79.97 152.2685,77.405 C152.2685,74.975 153.3185,73.415 155.2085,73.415 C156.5435,73.415 157.3535,74.165 157.7885,75.2 L159.3785,74.255 C158.6135,72.605 157.3085,71.69 155.2085,71.69 C152.4785,71.69 150.3935,73.775 150.3935,77.42 C150.3935,81.17 152.4485,83.21 155.3135,83.21 Z M163.325,83 L163.325,71.9 L161.465,71.9 L161.465,83 L163.325,83 Z M169.4525,71.24 L170.6675,71.24 L172.8425,68.75 L170.8475,68.75 L169.4525,71.24 Z M170.3975,83.21 C173.0675,83.21 175.3925,81.185 175.3925,77.45 C175.3925,73.715 173.0675,71.69 170.3975,71.69 C167.7125,71.69 165.3875,73.715 165.3875,77.45 C165.3875,81.185 167.7125,83.21 170.3975,83.21 Z M170.3975,81.53 C168.5225,81.53 167.2625,79.97 167.2625,77.45 C167.2625,74.93 168.5225,73.415 170.3975,73.415 C172.2725,73.415 173.5325,74.93 173.5325,77.45 C173.5325,79.97 172.2725,81.53 170.3975,81.53 Z M179.1335,83 L179.1335,74.915 L179.1635,74.915 L184.6235,83 L186.3335,83 L186.3335,71.9 L184.5935,71.9 L184.5935,79.835 L184.5635,79.835 L179.3135,71.9 L177.4085,71.9 L177.4085,83 L179.1335,83 Z" id="CONTRIBUCIÓN-" fill="#FFFFFF"></path>
            <path d="M83.135,101 L83.135,96.275 L87.17,96.275 L86.9,94.61 L83.135,94.61 L83.135,91.64 L88.25,91.64 L88.25,89.9 L81.26,89.9 L81.26,101 L83.135,101 Z M92.0035,101 L92.0035,89.9 L90.1435,89.9 L90.1435,101 L92.0035,101 Z M98.6265,101.21 C101.2665,101.21 102.7365,99.785 102.7365,97.985 C102.7365,95.885 101.0565,95.21 98.9565,94.595 C97.1415,94.055 96.3465,93.695 96.3465,92.66 C96.3465,91.94 97.0665,91.385 98.3265,91.385 C99.4965,91.385 100.6665,92 101.5515,92.78 L102.4365,91.28 C101.3865,90.41 99.9915,89.69 98.2965,89.69 C96.0765,89.69 94.5165,90.935 94.5165,92.81 C94.5165,94.925 96.2265,95.495 98.3715,96.125 C100.2015,96.68 100.9065,97.13 100.9065,98.105 C100.9065,99.065 99.9615,99.545 98.5665,99.545 C97.2015,99.545 95.8065,98.78 94.9515,97.895 L93.9465,99.32 C95.0715,100.385 96.6315,101.21 98.6265,101.21 Z M109.1165,101.21 C111.4415,101.21 112.7915,100.025 113.4515,98.195 L111.8315,97.46 C111.3965,98.705 110.4965,99.53 109.1165,99.53 C107.1815,99.53 106.0715,97.97 106.0715,95.405 C106.0715,92.975 107.1215,91.415 109.0115,91.415 C110.3465,91.415 111.1565,92.165 111.5915,93.2 L113.1815,92.255 C112.4165,90.605 111.1115,89.69 109.0115,89.69 C106.2815,89.69 104.1965,91.775 104.1965,95.42 C104.1965,99.17 106.2515,101.21 109.1165,101.21 Z M115.789,101 L116.719,98.36 L120.934,98.36 L121.879,101.15 L123.694,100.85 L119.809,89.855 L117.979,89.855 L114.049,101 L115.789,101 Z M118.834,92.21 L118.864,92.21 L120.394,96.71 L117.274,96.71 L118.834,92.21 Z M132.624,101 L132.339,99.305 L127.374,99.305 L127.374,89.9 L125.499,89.9 L125.499,101 L132.624,101 Z M141.58,101 L141.58,91.64 L145.135,91.64 L144.865,89.9 L136.285,89.9 L136.285,91.64 L139.705,91.64 L139.705,101 L141.58,101 Z M150.618,101.21 C153.288,101.21 155.613,99.185 155.613,95.45 C155.613,91.715 153.288,89.69 150.618,89.69 C147.933,89.69 145.608,91.715 145.608,95.45 C145.608,99.185 147.933,101.21 150.618,101.21 Z M150.618,99.53 C148.743,99.53 147.483,97.97 147.483,95.45 C147.483,92.93 148.743,91.415 150.618,91.415 C152.493,91.415 153.753,92.93 153.753,95.45 C153.753,97.97 152.493,99.53 150.618,99.53 Z M161.459,101 L161.459,91.64 L165.014,91.64 L164.744,89.9 L156.164,89.9 L156.164,91.64 L159.584,91.64 L159.584,101 L161.459,101 Z M165.0745,101 L166.0045,98.36 L170.2195,98.36 L171.1645,101.15 L172.9795,100.85 L169.0945,89.855 L167.2645,89.855 L163.3345,101 L165.0745,101 Z M168.1195,92.21 L168.1495,92.21 L169.6795,96.71 L166.5595,96.71 L168.1195,92.21 Z M181.9095,101 L181.6245,99.305 L176.6595,99.305 L176.6595,89.9 L174.7845,89.9 L174.7845,101 L181.9095,101 Z" id="FISCAL-TOTAL" fill="#FFFFFF"></path>
            <path d="M95.093,181 L95.093,172.914 L95.119,172.914 C95.327,173.603 95.483,174.006 95.717,174.617 L98.213,181 L99.058,181 L101.554,174.617 C101.788,174.006 102.022,173.369 102.152,172.927 L102.178,172.927 L102.178,181 L103.101,181 L103.101,171.38 L101.892,171.38 L98.681,179.804 L98.655,179.804 L95.431,171.38 L94.235,171.38 L94.235,181 L95.093,181 Z M106.5764,181 L106.5764,171.38 L105.6534,171.38 L105.6534,181 L106.5764,181 Z M114.8033,181 L114.6603,180.155 L110.0323,180.155 L110.0323,171.38 L109.1093,171.38 L109.1093,181 L114.8033,181 Z M122.1605,181 L122.0175,180.155 L117.3895,180.155 L117.3895,171.38 L116.4665,171.38 L116.4665,181 L122.1605,181 Z M126.451,181.182 C128.765,181.182 130.507,179.206 130.507,176.19 C130.507,173.174 128.765,171.198 126.451,171.198 C124.124,171.198 122.395,173.174 122.395,176.19 C122.395,179.206 124.124,181.182 126.451,181.182 Z M126.451,180.35 C124.631,180.35 123.318,178.79 123.318,176.19 C123.318,173.59 124.631,172.043 126.451,172.043 C128.271,172.043 129.584,173.59 129.584,176.19 C129.584,178.79 128.271,180.35 126.451,180.35 Z M133.4429,181 L133.4429,172.823 L133.4689,172.823 L138.9419,181 L139.7609,181 L139.7609,171.38 L138.8899,171.38 L138.8899,179.31 L138.8639,179.31 L133.5599,171.38 L132.5719,171.38 L132.5719,181 L133.4429,181 Z M148.2699,181 L148.2699,180.155 L143.1739,180.155 L143.1739,176.333 L146.9179,176.333 L146.7749,175.501 L143.1739,175.501 L143.1739,172.238 L147.9969,172.238 L147.9969,171.38 L142.2509,171.38 L142.2509,181 L148.2699,181 Z M153.0817,181.182 C155.0057,181.182 156.4097,180.155 156.4097,178.569 C156.4097,176.996 155.4217,176.333 153.4197,175.696 C151.4047,175.059 150.7547,174.682 150.7547,173.603 C150.7547,172.745 151.5347,172.03 152.8347,172.03 C154.0047,172.03 154.9147,172.511 155.7857,173.291 L156.2537,172.563 C155.3697,171.77 154.3037,171.198 152.8347,171.198 C151.0797,171.198 149.8447,172.29 149.8447,173.668 C149.8447,175.254 150.8977,175.813 152.9647,176.463 C155.0057,177.1 155.4997,177.62 155.4997,178.621 C155.4997,179.687 154.5507,180.35 153.0687,180.35 C151.7427,180.35 150.5857,179.778 149.7797,178.959 L149.2467,179.648 C150.2087,180.61 151.4827,181.182 153.0817,181.182 Z M162.0787,176.138 C162.0787,176.372 162.0917,176.606 162.1047,176.814 L160.5317,176.814 L160.5317,177.555 L162.1827,177.555 C162.5597,180.025 163.9247,181.182 165.6797,181.182 C167.3957,181.182 168.3967,180.064 168.8647,178.491 L168.0457,178.166 C167.6557,179.596 167.0057,180.376 165.6927,180.376 C164.3017,180.376 163.3657,179.414 163.0797,177.555 L166.0177,177.555 L166.0177,176.814 L163.0017,176.814 C162.9887,176.593 162.9757,176.346 162.9757,176.086 C162.9757,175.956 162.9757,175.722 162.9887,175.579 L166.0177,175.579 L166.0177,174.864 L163.0667,174.864 C163.3527,172.901 164.4187,172.017 165.6667,172.017 C167.0187,172.017 167.5127,172.797 167.9027,174.11 L168.7347,173.798 C168.2927,172.29 167.4217,171.198 165.6797,171.198 C164.0547,171.198 162.5467,172.329 162.1697,174.864 L160.5317,174.864 L160.5317,175.579 L162.0917,175.579 C162.0917,175.722 162.0787,175.982 162.0787,176.138 Z" id="MILLONES-€" fill="#FFFFFF"></path>
            <path d="M592.093,173 L592.093,164.914 L592.119,164.914 C592.327,165.603 592.483,166.006 592.717,166.617 L595.213,173 L596.058,173 L598.554,166.617 C598.788,166.006 599.022,165.369 599.152,164.927 L599.178,164.927 L599.178,173 L600.101,173 L600.101,163.38 L598.892,163.38 L595.681,171.804 L595.655,171.804 L592.431,163.38 L591.235,163.38 L591.235,173 L592.093,173 Z M603.5764,173 L603.5764,163.38 L602.6534,163.38 L602.6534,173 L603.5764,173 Z M611.8033,173 L611.6603,172.155 L607.0323,172.155 L607.0323,163.38 L606.1093,163.38 L606.1093,173 L611.8033,173 Z M619.1605,173 L619.0175,172.155 L614.3895,172.155 L614.3895,163.38 L613.4665,163.38 L613.4665,173 L619.1605,173 Z M623.4523,173.182 C625.7663,173.182 627.5083,171.206 627.5083,168.19 C627.5083,165.174 625.7663,163.198 623.4523,163.198 C621.1253,163.198 619.3963,165.174 619.3963,168.19 C619.3963,171.206 621.1253,173.182 623.4523,173.182 Z M623.4523,172.35 C621.6323,172.35 620.3193,170.79 620.3193,168.19 C620.3193,165.59 621.6323,164.043 623.4523,164.043 C625.2723,164.043 626.5853,165.59 626.5853,168.19 C626.5853,170.79 625.2723,172.35 623.4523,172.35 Z M630.4429,173 L630.4429,164.823 L630.4689,164.823 L635.9419,173 L636.7609,173 L636.7609,163.38 L635.8899,163.38 L635.8899,171.31 L635.8639,171.31 L630.5599,163.38 L629.5719,163.38 L629.5719,173 L630.4429,173 Z M645.2699,173 L645.2699,172.155 L640.1739,172.155 L640.1739,168.333 L643.9179,168.333 L643.7749,167.501 L640.1739,167.501 L640.1739,164.238 L644.9969,164.238 L644.9969,163.38 L639.2509,163.38 L639.2509,173 L645.2699,173 Z M650.0817,173.182 C652.0057,173.182 653.4097,172.155 653.4097,170.569 C653.4097,168.996 652.4217,168.333 650.4197,167.696 C648.4047,167.059 647.7547,166.682 647.7547,165.603 C647.7547,164.745 648.5347,164.03 649.8347,164.03 C651.0047,164.03 651.9147,164.511 652.7857,165.291 L653.2537,164.563 C652.3697,163.77 651.3037,163.198 649.8347,163.198 C648.0797,163.198 646.8447,164.29 646.8447,165.668 C646.8447,167.254 647.8977,167.813 649.9647,168.463 C652.0057,169.1 652.4997,169.62 652.4997,170.621 C652.4997,171.687 651.5507,172.35 650.0687,172.35 C648.7427,172.35 647.5857,171.778 646.7797,170.959 L646.2467,171.648 C647.2087,172.61 648.4827,173.182 650.0817,173.182 Z M659.0787,168.138 C659.0787,168.372 659.0917,168.606 659.1047,168.814 L657.5317,168.814 L657.5317,169.555 L659.1827,169.555 C659.5597,172.025 660.9247,173.182 662.6797,173.182 C664.3957,173.182 665.3967,172.064 665.8647,170.491 L665.0457,170.166 C664.6557,171.596 664.0057,172.376 662.6927,172.376 C661.3017,172.376 660.3657,171.414 660.0797,169.555 L663.0177,169.555 L663.0177,168.814 L660.0017,168.814 C659.9887,168.593 659.9757,168.346 659.9757,168.086 C659.9757,167.956 659.9757,167.722 659.9887,167.579 L663.0177,167.579 L663.0177,166.864 L660.0667,166.864 C660.3527,164.901 661.4187,164.017 662.6667,164.017 C664.0187,164.017 664.5127,164.797 664.9027,166.11 L665.7347,165.798 C665.2927,164.29 664.4217,163.198 662.6797,163.198 C661.0547,163.198 659.5467,164.329 659.1697,166.864 L657.5317,166.864 L657.5317,167.579 L659.0917,167.579 C659.0917,167.722 659.0787,167.982 659.0787,168.138 Z" id="MILLONES-€" fill="#FFFFFF"></path>
            <path d="M365.093,177 L365.093,168.914 L365.119,168.914 C365.327,169.603 365.483,170.006 365.717,170.617 L368.213,177 L369.058,177 L371.554,170.617 C371.788,170.006 372.022,169.369 372.152,168.927 L372.178,168.927 L372.178,177 L373.101,177 L373.101,167.38 L371.892,167.38 L368.681,175.804 L368.655,175.804 L365.431,167.38 L364.235,167.38 L364.235,177 L365.093,177 Z M376.5764,177 L376.5764,167.38 L375.6534,167.38 L375.6534,177 L376.5764,177 Z M384.8033,177 L384.6603,176.155 L380.0323,176.155 L380.0323,167.38 L379.1093,167.38 L379.1093,177 L384.8033,177 Z M392.1605,177 L392.0175,176.155 L387.3895,176.155 L387.3895,167.38 L386.4665,167.38 L386.4665,177 L392.1605,177 Z M396.451,177.182 C398.765,177.182 400.507,175.206 400.507,172.19 C400.507,169.174 398.765,167.198 396.451,167.198 C394.124,167.198 392.395,169.174 392.395,172.19 C392.395,175.206 394.124,177.182 396.451,177.182 Z M396.451,176.35 C394.631,176.35 393.318,174.79 393.318,172.19 C393.318,169.59 394.631,168.043 396.451,168.043 C398.271,168.043 399.584,169.59 399.584,172.19 C399.584,174.79 398.271,176.35 396.451,176.35 Z M403.4429,177 L403.4429,168.823 L403.4689,168.823 L408.9419,177 L409.7609,177 L409.7609,167.38 L408.8899,167.38 L408.8899,175.31 L408.8639,175.31 L403.5599,167.38 L402.5719,167.38 L402.5719,177 L403.4429,177 Z M418.2699,177 L418.2699,176.155 L413.1739,176.155 L413.1739,172.333 L416.9179,172.333 L416.7749,171.501 L413.1739,171.501 L413.1739,168.238 L417.9969,168.238 L417.9969,167.38 L412.2509,167.38 L412.2509,177 L418.2699,177 Z M423.0817,177.182 C425.0057,177.182 426.4097,176.155 426.4097,174.569 C426.4097,172.996 425.4217,172.333 423.4197,171.696 C421.4047,171.059 420.7547,170.682 420.7547,169.603 C420.7547,168.745 421.5347,168.03 422.8347,168.03 C424.0047,168.03 424.9147,168.511 425.7857,169.291 L426.2537,168.563 C425.3697,167.77 424.3037,167.198 422.8347,167.198 C421.0797,167.198 419.8447,168.29 419.8447,169.668 C419.8447,171.254 420.8977,171.813 422.9647,172.463 C425.0057,173.1 425.4997,173.62 425.4997,174.621 C425.4997,175.687 424.5507,176.35 423.0687,176.35 C421.7427,176.35 420.5857,175.778 419.7797,174.959 L419.2467,175.648 C420.2087,176.61 421.4827,177.182 423.0817,177.182 Z M432.0787,172.138 C432.0787,172.372 432.0917,172.606 432.1047,172.814 L430.5317,172.814 L430.5317,173.555 L432.1827,173.555 C432.5597,176.025 433.9247,177.182 435.6797,177.182 C437.3957,177.182 438.3967,176.064 438.8647,174.491 L438.0457,174.166 C437.6557,175.596 437.0057,176.376 435.6927,176.376 C434.3017,176.376 433.3657,175.414 433.0797,173.555 L436.0177,173.555 L436.0177,172.814 L433.0017,172.814 C432.9887,172.593 432.9757,172.346 432.9757,172.086 C432.9757,171.956 432.9757,171.722 432.9887,171.579 L436.0177,171.579 L436.0177,170.864 L433.0667,170.864 C433.3527,168.901 434.4187,168.017 435.6667,168.017 C437.0187,168.017 437.5127,168.797 437.9027,170.11 L438.7347,169.798 C438.2927,168.29 437.4217,167.198 435.6797,167.198 C434.0547,167.198 432.5467,168.329 432.1697,170.864 L430.5317,170.864 L430.5317,171.579 L432.0917,171.579 C432.0917,171.722 432.0787,171.982 432.0787,172.138 Z" id="MILLONES-€" fill="#FFFFFF"></path>
            <path d="M77,136.8 C70.65,136.8 67.9,132.9 67.9,127.5 C67.9,121.05 71.75,117.5 77.3,117.5 C82.3,117.5 86.7,121.5 87.55,130.6 C85.05,134.25 81.3,136.8 77,136.8 Z M76.2,153.7 C84.65,153.7 90.1,144.6 90.1,133.85 C90.1,121 84.25,115.3 77.45,115.3 C69.95,115.3 65.4,120.65 65.4,127.5 C65.4,133.8 68.8,139 76.85,139 C81.8,139 85.4,136.35 87.7,133.65 C87.8,143.5 83.45,151.5 76.25,151.5 C72.3,151.5 70.45,150.35 68.15,148.4 L66.8,150.3 C68.95,152.25 71.85,153.7 76.2,153.7 Z M97.573,153.2 C98.723,153.2 99.523,152.4 99.523,150.95 C99.523,149.55 98.723,148.75 97.573,148.75 C96.423,148.75 95.673,149.55 95.673,150.95 C95.673,152.4 96.423,153.2 97.573,153.2 Z M123.476,153 L123.476,143.5 L129.976,143.5 L129.526,141.25 L123.476,141.25 L123.476,116 L120.176,116 L103.326,141.75 L103.326,143.5 L121.076,143.5 L121.076,153 L123.476,153 Z M120.976,118.85 L121.076,118.85 L121.076,141.25 L106.276,141.25 L120.976,118.85 Z M156.714,153 L156.714,143.5 L163.214,143.5 L162.764,141.25 L156.714,141.25 L156.714,116 L153.414,116 L136.564,141.75 L136.564,143.5 L154.314,143.5 L154.314,153 L156.714,153 Z M154.214,118.85 L154.314,118.85 L154.314,141.25 L139.514,141.25 L154.214,118.85 Z M183.012,153.7 C191.462,153.7 196.112,146.05 196.112,134.5 C196.112,122.95 191.462,115.3 183.012,115.3 C174.562,115.3 169.862,122.95 169.862,134.5 C169.862,146.05 174.562,153.7 183.012,153.7 Z M183.012,151.5 C176.562,151.5 172.312,145.4 172.312,134.5 C172.312,123.6 176.362,117.5 183.012,117.5 C189.412,117.5 193.662,123.6 193.662,134.5 C193.662,145.4 189.612,151.5 183.012,151.5 Z" id="9.440" fill="#FFFFFF"></path>
            <path d="M593.116,150.504 C598.552,150.504 601.936,146.472 601.936,141.216 C601.936,135.888 598.408,132.576 593.8,132.576 C590.92,132.576 589.156,133.584 587.752,135.24 L588.544,125.088 L600.496,125.088 L600.172,123.36 L586.924,123.36 L585.916,137.184 L587.392,137.796 C588.868,135.6 590.776,134.16 593.764,134.16 C597.4,134.16 600.172,136.716 600.172,141.324 C600.172,145.104 597.976,148.92 593.152,148.92 C589.804,148.92 587.644,147.12 586.096,144.528 L584.62,145.428 C586.276,148.416 589.336,150.504 593.116,150.504 Z M608.3138,150.144 C609.1418,150.144 609.7178,149.568 609.7178,148.524 C609.7178,147.516 609.1418,146.94 608.3138,146.94 C607.4858,146.94 606.9458,147.516 606.9458,148.524 C606.9458,149.568 607.4858,150.144 608.3138,150.144 Z M622.8348,150.504 C628.2348,150.504 631.5108,146.652 631.5108,141.72 C631.5108,137.184 629.0628,133.44 623.2668,133.44 C619.7028,133.44 617.1108,135.348 615.4548,137.292 C615.3828,130.236 618.5148,124.44 623.6988,124.44 C626.2188,124.44 627.4788,125.088 628.8828,126.24 L629.8908,124.836 C628.4868,123.684 626.6868,122.856 623.7348,122.856 C617.6508,122.856 613.7268,129.408 613.7268,137.148 C613.7268,146.4 617.9388,150.504 622.8348,150.504 Z M622.9428,148.92 C619.3428,148.92 616.1748,146.04 615.5628,139.488 C617.3628,136.86 620.0628,135.024 623.1588,135.024 C627.7308,135.024 629.7108,137.832 629.7108,141.72 C629.7108,146.364 626.9388,148.92 622.9428,148.92 Z M639.0334,150 L650.5174,124.98 L650.5174,123.36 L634.5334,123.36 L634.8214,125.088 L648.6094,125.088 L637.1614,150 L639.0334,150 Z M662.7128,150.504 C668.5448,150.504 671.9288,147.228 671.9288,143.664 C671.9288,139.776 669.3008,137.832 664.5128,135.744 C668.4728,133.98 670.7048,132.468 670.7048,129.192 C670.7048,125.952 667.7888,122.856 662.7128,122.856 C657.7808,122.856 654.7208,125.916 654.7208,129.192 C654.7208,132.396 657.0248,134.16 660.8048,135.816 C656.1608,137.832 653.4968,139.848 653.4968,143.664 C653.4968,147.336 656.8808,150.504 662.7128,150.504 Z M662.7488,134.988 C658.3568,133.044 656.4848,131.748 656.4848,129.084 C656.4848,126.816 658.6448,124.44 662.7128,124.44 C666.9968,124.44 668.9408,126.888 668.9408,129.192 C668.9408,131.892 667.1408,133.116 662.7488,134.988 Z M662.7128,148.92 C658.4288,148.92 655.2608,146.688 655.2608,143.556 C655.2608,140.496 657.4928,138.84 662.6408,136.572 C667.4288,138.588 670.1648,140.352 670.1648,143.556 C670.1648,146.796 666.9968,148.92 662.7128,148.92 Z" id="5.678" fill="#FFFFFF"></path>
            <path d="M361.24,152.56 C367.12,152.56 370.72,148.8 370.72,144.12 C370.72,139.64 368.52,137.16 364.08,136.24 C367.76,135.64 370.12,133.08 370.12,129.2 C370.12,125.56 367.68,121.84 361.48,121.84 C357.52,121.84 354.72,123.88 352.72,126.44 L354.32,127.48 C356,125.24 358.24,123.6 361.44,123.6 C366.2,123.6 368.16,126.12 368.16,129.32 C368.16,133.36 365.48,135.36 359,135.36 L357.72,135.36 L357.72,137.12 L358.76,137.12 C366.24,137.12 368.76,139.6 368.76,144.2 C368.76,148.04 365.92,150.8 361.28,150.8 C357.88,150.8 355.16,149.36 353,145.92 L351.36,146.92 C353.44,150.48 357.04,152.56 361.24,152.56 Z M378.465,152.16 C379.385,152.16 380.025,151.52 380.025,150.36 C380.025,149.24 379.385,148.6 378.465,148.6 C377.545,148.6 376.945,149.24 376.945,150.36 C376.945,151.52 377.545,152.16 378.465,152.16 Z M388.91,152 L401.67,124.2 L401.67,122.4 L383.91,122.4 L384.23,124.32 L399.55,124.32 L386.83,152 L388.91,152 Z M415.035,152.56 C421.035,152.56 424.675,148.28 424.675,142.8 C424.675,137.76 421.955,133.6 415.515,133.6 C411.555,133.6 408.675,135.72 406.835,137.88 C406.755,130.04 410.235,123.6 415.995,123.6 C418.795,123.6 420.195,124.32 421.755,125.6 L422.875,124.04 C421.315,122.76 419.315,121.84 416.035,121.84 C409.275,121.84 404.915,129.12 404.915,137.72 C404.915,148 409.595,152.56 415.035,152.56 Z M415.155,150.8 C411.155,150.8 407.635,147.6 406.955,140.32 C408.955,137.4 411.955,135.36 415.395,135.36 C420.475,135.36 422.675,138.48 422.675,142.8 C422.675,147.96 419.595,150.8 415.155,150.8 Z M448.64,152 L448.32,150.16 L432.12,150.16 C432.2,147.28 434.88,143.72 440.48,140.16 C446.16,136.56 448.36,134.04 448.36,129.84 C448.36,125.2 445.12,121.84 439.92,121.84 C435.84,121.84 432.6,124.04 430.68,128.2 L432.32,129 C434.04,125.32 436.36,123.6 439.84,123.6 C444.16,123.6 446.4,126.2 446.4,129.96 C446.4,133.2 444.6,135.44 440.2,138.24 C432.4,143.24 430.04,147.08 430.04,151.36 L430.04,152 L448.64,152 Z" id="3.762" fill="#FFFFFF"></path>
            <path d="M358.255,94 L358.255,82.9 L356.395,82.9 L356.395,94 L358.255,94 Z M362.4875,94 L362.4875,85.63 L362.5175,85.63 C362.7575,86.71 362.9225,87.175 363.1775,87.97 L365.3375,94 L367.0025,94 L369.1775,87.97 C369.4175,87.19 369.6575,86.485 369.8225,85.705 L369.8525,85.705 L369.8525,94 L371.6675,94 L371.6675,82.9 L369.1625,82.9 L366.2675,91.705 L366.2375,91.705 L363.2525,82.9 L360.7925,82.9 L360.7925,94 L362.4875,94 Z M376.032,94 L376.032,89.785 L377.997,89.785 C380.277,89.785 382.317,89.035 382.317,86.305 C382.317,83.68 380.442,82.9 378.057,82.9 L374.172,82.9 L374.172,94 L376.032,94 Z M376.032,84.61 L378.072,84.61 C379.752,84.61 380.487,85.18 380.487,86.35 C380.487,87.595 379.737,88.15 378.087,88.15 L376.032,88.15 L376.032,84.61 Z M387.9085,94.195 C390.8335,94.195 392.1985,92.455 392.1985,89.935 L392.1985,82.9 L390.3535,82.9 L390.3535,89.875 C390.3535,91.48 389.6185,92.485 387.9235,92.485 C386.2135,92.485 385.4785,91.45 385.4785,89.86 L385.4785,82.9 L383.6035,82.9 L383.6035,89.965 C383.6035,92.455 384.9685,94.195 387.9085,94.195 Z M402.0605,94 L402.0605,92.305 L396.4655,92.305 L396.4655,89.065 L400.7855,89.065 L400.5155,87.4 L396.4655,87.4 L396.4655,84.64 L401.7605,84.64 L401.7605,82.9 L394.5905,82.9 L394.5905,94 L402.0605,94 Z M407.847,94.21 C410.487,94.21 411.957,92.785 411.957,90.985 C411.957,88.885 410.277,88.21 408.177,87.595 C406.362,87.055 405.567,86.695 405.567,85.66 C405.567,84.94 406.287,84.385 407.547,84.385 C408.717,84.385 409.887,85 410.772,85.78 L411.657,84.28 C410.607,83.41 409.212,82.69 407.517,82.69 C405.297,82.69 403.737,83.935 403.737,85.81 C403.737,87.925 405.447,88.495 407.592,89.125 C409.422,89.68 410.127,90.13 410.127,91.105 C410.127,92.065 409.182,92.545 407.787,92.545 C406.422,92.545 405.027,91.78 404.172,90.895 L403.167,92.32 C404.292,93.385 405.852,94.21 407.847,94.21 Z M417.934,94 L417.934,84.64 L421.489,84.64 L421.219,82.9 L412.639,82.9 L412.639,84.64 L416.059,84.64 L416.059,94 L417.934,94 Z M426.7715,94.21 C429.4415,94.21 431.7665,92.185 431.7665,88.45 C431.7665,84.715 429.4415,82.69 426.7715,82.69 C424.0865,82.69 421.7615,84.715 421.7615,88.45 C421.7615,92.185 424.0865,94.21 426.7715,94.21 Z M426.7715,92.53 C424.8965,92.53 423.6365,90.97 423.6365,88.45 C423.6365,85.93 424.8965,84.415 426.7715,84.415 C428.6465,84.415 429.9065,85.93 429.9065,88.45 C429.9065,90.97 428.6465,92.53 426.7715,92.53 Z M437.361,94.21 C440.001,94.21 441.471,92.785 441.471,90.985 C441.471,88.885 439.791,88.21 437.691,87.595 C435.876,87.055 435.081,86.695 435.081,85.66 C435.081,84.94 435.801,84.385 437.061,84.385 C438.231,84.385 439.401,85 440.286,85.78 L441.171,84.28 C440.121,83.41 438.726,82.69 437.031,82.69 C434.811,82.69 433.251,83.935 433.251,85.81 C433.251,87.925 434.961,88.495 437.106,89.125 C438.936,89.68 439.641,90.13 439.641,91.105 C439.641,92.065 438.696,92.545 437.301,92.545 C435.936,92.545 434.541,91.78 433.686,90.895 L432.681,92.32 C433.806,93.385 435.366,94.21 437.361,94.21 Z" id="IMPUESTOS-" fill="#FFFFFF"></path>
            <path d="M370.12,112 L370.12,107.785 L372.085,107.785 C374.365,107.785 376.405,107.035 376.405,104.305 C376.405,101.68 374.53,100.9 372.145,100.9 L368.26,100.9 L368.26,112 L370.12,112 Z M370.12,102.61 L372.16,102.61 C373.84,102.61 374.575,103.18 374.575,104.35 C374.575,105.595 373.825,106.15 372.175,106.15 L370.12,106.15 L370.12,102.61 Z M380.1215,112 L380.1215,107.62 L382.0865,107.62 L384.7715,112.15 L386.6015,111.85 L383.9615,107.38 C385.4915,106.99 386.4065,106.075 386.4065,104.305 C386.4065,101.95 384.8765,100.9 382.2515,100.9 L378.2765,100.9 L378.2765,112 L380.1215,112 Z M380.1215,102.61 L382.1615,102.61 C383.7515,102.61 384.5765,103.045 384.5765,104.275 C384.5765,105.535 383.7515,105.985 382.1615,105.985 L380.1215,105.985 L380.1215,102.61 Z M393.024,112.21 C395.694,112.21 398.019,110.185 398.019,106.45 C398.019,102.715 395.694,100.69 393.024,100.69 C390.339,100.69 388.014,102.715 388.014,106.45 C388.014,110.185 390.339,112.21 393.024,112.21 Z M393.024,110.53 C391.149,110.53 389.889,108.97 389.889,106.45 C389.889,103.93 391.149,102.415 393.024,102.415 C394.899,102.415 396.159,103.93 396.159,106.45 C396.159,108.97 394.899,110.53 393.024,110.53 Z M402.088,112 L402.088,107.785 L404.053,107.785 C406.333,107.785 408.373,107.035 408.373,104.305 C408.373,101.68 406.498,100.9 404.113,100.9 L400.228,100.9 L400.228,112 L402.088,112 Z M402.088,102.61 L404.128,102.61 C405.808,102.61 406.543,103.18 406.543,104.35 C406.543,105.595 405.793,106.15 404.143,106.15 L402.088,106.15 L402.088,102.61 Z M412.1705,112 L412.1705,100.9 L410.3105,100.9 L410.3105,112 L412.1705,112 Z M419.4375,112.21 C422.1075,112.21 424.4325,110.185 424.4325,106.45 C424.4325,102.715 422.1075,100.69 419.4375,100.69 C416.7525,100.69 414.4275,102.715 414.4275,106.45 C414.4275,110.185 416.7525,112.21 419.4375,112.21 Z M419.4375,110.53 C417.5625,110.53 416.3025,108.97 416.3025,106.45 C416.3025,103.93 417.5625,102.415 419.4375,102.415 C421.3125,102.415 422.5725,103.93 422.5725,106.45 C422.5725,108.97 421.3125,110.53 419.4375,110.53 Z M430.237,112.21 C432.877,112.21 434.347,110.785 434.347,108.985 C434.347,106.885 432.667,106.21 430.567,105.595 C428.752,105.055 427.957,104.695 427.957,103.66 C427.957,102.94 428.677,102.385 429.937,102.385 C431.107,102.385 432.277,103 433.162,103.78 L434.047,102.28 C432.997,101.41 431.602,100.69 429.907,100.69 C427.687,100.69 426.127,101.935 426.127,103.81 C426.127,105.925 427.837,106.495 429.982,107.125 C431.812,107.68 432.517,108.13 432.517,109.105 C432.517,110.065 431.572,110.545 430.177,110.545 C428.812,110.545 427.417,109.78 426.562,108.895 L425.557,110.32 C426.682,111.385 428.242,112.21 430.237,112.21 Z" id="PROPIOS" fill="#FFFFFF"></path>
            <path d="M588.038,96 L588.038,85.64 L586.302,85.64 L586.302,96 L588.038,96 Z M591.9852,96 L591.9852,88.188 L592.0132,88.188 C592.2372,89.196 592.3912,89.63 592.6292,90.372 L594.6452,96 L596.1992,96 L598.2292,90.372 C598.4532,89.644 598.6772,88.986 598.8312,88.258 L598.8592,88.258 L598.8592,96 L600.5532,96 L600.5532,85.64 L598.2152,85.64 L595.5132,93.858 L595.4852,93.858 L592.6992,85.64 L590.4032,85.64 L590.4032,96 L591.9852,96 Z M604.6236,96 L604.6236,92.066 L606.4576,92.066 C608.5856,92.066 610.4896,91.366 610.4896,88.818 C610.4896,86.368 608.7396,85.64 606.5136,85.64 L602.8876,85.64 L602.8876,96 L604.6236,96 Z M604.6236,87.236 L606.5276,87.236 C608.0956,87.236 608.7816,87.768 608.7816,88.86 C608.7816,90.022 608.0816,90.54 606.5416,90.54 L604.6236,90.54 L604.6236,87.236 Z M615.7038,96.182 C618.4338,96.182 619.7078,94.558 619.7078,92.206 L619.7078,85.64 L617.9858,85.64 L617.9858,92.15 C617.9858,93.648 617.2998,94.586 615.7178,94.586 C614.1218,94.586 613.4358,93.62 613.4358,92.136 L613.4358,85.64 L611.6858,85.64 L611.6858,92.234 C611.6858,94.558 612.9598,96.182 615.7038,96.182 Z M628.9148,96 L628.9148,94.418 L623.6928,94.418 L623.6928,91.394 L627.7248,91.394 L627.4728,89.84 L623.6928,89.84 L623.6928,87.264 L628.6348,87.264 L628.6348,85.64 L621.9428,85.64 L621.9428,96 L628.9148,96 Z M634.311,96.196 C636.775,96.196 638.147,94.866 638.147,93.186 C638.147,91.226 636.579,90.596 634.619,90.022 C632.925,89.518 632.183,89.182 632.183,88.216 C632.183,87.544 632.855,87.026 634.031,87.026 C635.123,87.026 636.215,87.6 637.041,88.328 L637.867,86.928 C636.887,86.116 635.585,85.444 634.003,85.444 C631.931,85.444 630.475,86.606 630.475,88.356 C630.475,90.33 632.071,90.862 634.073,91.45 C635.781,91.968 636.439,92.388 636.439,93.298 C636.439,94.194 635.557,94.642 634.255,94.642 C632.981,94.642 631.679,93.928 630.881,93.102 L629.943,94.432 C630.993,95.426 632.449,96.196 634.311,96.196 Z M643.728,96 L643.728,87.264 L647.046,87.264 L646.794,85.64 L638.786,85.64 L638.786,87.264 L641.978,87.264 L641.978,96 L643.728,96 Z M651.9732,96.196 C654.4652,96.196 656.6352,94.306 656.6352,90.82 C656.6352,87.334 654.4652,85.444 651.9732,85.444 C649.4672,85.444 647.2972,87.334 647.2972,90.82 C647.2972,94.306 649.4672,96.196 651.9732,96.196 Z M651.9732,94.628 C650.2232,94.628 649.0472,93.172 649.0472,90.82 C649.0472,88.468 650.2232,87.054 651.9732,87.054 C653.7232,87.054 654.8992,88.468 654.8992,90.82 C654.8992,93.172 653.7232,94.628 651.9732,94.628 Z M661.8522,96.196 C664.3162,96.196 665.6882,94.866 665.6882,93.186 C665.6882,91.226 664.1202,90.596 662.1602,90.022 C660.4662,89.518 659.7242,89.182 659.7242,88.216 C659.7242,87.544 660.3962,87.026 661.5722,87.026 C662.6642,87.026 663.7562,87.6 664.5822,88.328 L665.4082,86.928 C664.4282,86.116 663.1262,85.444 661.5442,85.444 C659.4722,85.444 658.0162,86.606 658.0162,88.356 C658.0162,90.33 659.6122,90.862 661.6142,91.45 C663.3222,91.968 663.9802,92.388 663.9802,93.298 C663.9802,94.194 663.0982,94.642 661.7962,94.642 C660.5222,94.642 659.2202,93.928 658.4222,93.102 L657.4842,94.432 C658.5342,95.426 659.9902,96.196 661.8522,96.196 Z" id="IMPUESTOS-" fill="#FFFFFF"></path>
            <path d="M583.116,112 C586.322,112 588.506,110.474 588.506,106.778 C588.506,103.152 586.364,101.64 583.116,101.64 L580.176,101.64 L580.176,112 L583.116,112 Z M581.912,103.264 L583.242,103.264 C585.65,103.264 586.756,104.384 586.756,106.806 C586.756,109.326 585.664,110.418 583.27,110.418 L581.912,110.418 L581.912,103.264 Z M597.4552,112 L597.4552,110.418 L592.2332,110.418 L592.2332,107.394 L596.2652,107.394 L596.0132,105.84 L592.2332,105.84 L592.2332,103.264 L597.1752,103.264 L597.1752,101.64 L590.4832,101.64 L590.4832,112 L597.4552,112 Z M606.6092,112 L606.6092,103.264 L609.9272,103.264 L609.6752,101.64 L601.6672,101.64 L601.6672,103.264 L604.8592,103.264 L604.8592,112 L606.6092,112 Z M618.4564,112 L618.4564,110.418 L613.2344,110.418 L613.2344,107.394 L617.2664,107.394 L617.0144,105.84 L613.2344,105.84 L613.2344,103.264 L618.1764,103.264 L618.1764,101.64 L611.4844,101.64 L611.4844,112 L618.4564,112 Z M621.9134,112 L621.9134,107.912 L623.7474,107.912 L626.2534,112.14 L627.9614,111.86 L625.4974,107.688 C626.9254,107.324 627.7794,106.47 627.7794,104.818 C627.7794,102.62 626.3514,101.64 623.9014,101.64 L620.1914,101.64 L620.1914,112 L621.9134,112 Z M621.9134,103.236 L623.8174,103.236 C625.3014,103.236 626.0714,103.642 626.0714,104.79 C626.0714,105.966 625.3014,106.386 623.8174,106.386 L621.9134,106.386 L621.9134,103.236 Z M633.811,112.196 C635.981,112.196 637.241,111.09 637.857,109.382 L636.345,108.696 C635.939,109.858 635.099,110.628 633.811,110.628 C632.005,110.628 630.969,109.172 630.969,106.778 C630.969,104.51 631.949,103.054 633.713,103.054 C634.959,103.054 635.715,103.754 636.121,104.72 L637.605,103.838 C636.891,102.298 635.673,101.444 633.713,101.444 C631.165,101.444 629.219,103.39 629.219,106.792 C629.219,110.292 631.137,112.196 633.811,112.196 Z M646.5738,112 L646.5738,110.418 L641.3518,110.418 L641.3518,107.394 L645.3838,107.394 L645.1318,105.84 L641.3518,105.84 L641.3518,103.264 L646.2938,103.264 L646.2938,101.64 L639.6018,101.64 L639.6018,112 L646.5738,112 Z M650.0308,112 L650.0308,107.912 L651.8648,107.912 L654.3708,112.14 L656.0788,111.86 L653.6148,107.688 C655.0428,107.324 655.8968,106.47 655.8968,104.818 C655.8968,102.62 654.4688,101.64 652.0188,101.64 L648.3088,101.64 L648.3088,112 L650.0308,112 Z M650.0308,103.236 L651.9348,103.236 C653.4188,103.236 654.1888,103.642 654.1888,104.79 C654.1888,105.966 653.4188,106.386 651.9348,106.386 L650.0308,106.386 L650.0308,103.236 Z M662.004,112.196 C664.496,112.196 666.666,110.306 666.666,106.82 C666.666,103.334 664.496,101.444 662.004,101.444 C659.498,101.444 657.328,103.334 657.328,106.82 C657.328,110.306 659.498,112.196 662.004,112.196 Z M662.004,110.628 C660.254,110.628 659.078,109.172 659.078,106.82 C659.078,104.468 660.254,103.054 662.004,103.054 C663.754,103.054 664.93,104.468 664.93,106.82 C664.93,109.172 663.754,110.628 662.004,110.628 Z M672.013,112.196 C674.477,112.196 675.849,110.866 675.849,109.186 C675.849,107.226 674.281,106.596 672.321,106.022 C670.627,105.518 669.885,105.182 669.885,104.216 C669.885,103.544 670.557,103.026 671.733,103.026 C672.825,103.026 673.917,103.6 674.743,104.328 L675.569,102.928 C674.589,102.116 673.287,101.444 671.705,101.444 C669.633,101.444 668.177,102.606 668.177,104.356 C668.177,106.33 669.773,106.862 671.775,107.45 C673.483,107.968 674.141,108.388 674.141,109.298 C674.141,110.194 673.259,110.642 671.957,110.642 C670.683,110.642 669.381,109.928 668.583,109.102 L667.645,110.432 C668.695,111.426 670.151,112.196 672.013,112.196 Z" id="DE-TERCEROS" fill="#FFFFFF"></path>
        </g>
    </g>
</svg>