<svg width="580" height="451" viewBox="0 0 580 451" xmlns="http://www.w3.org/2000/svg" xmlns:xlink="http://www.w3.org/1999/xlink"><title>Group 8</title><defs><path id="a" d="M205.681.592H.12v329.252h205.56V.592z"/></defs><g fill="none" fill-rule="evenodd"><g transform="translate(275 -.592)"><mask id="b" fill="#fff"><use xlink:href="#a"/></mask><path d="M123.823 41.982C87.467 14.586 45.642.592.12.592v14.117h.006c105.725 0 191.432 85.707 191.432 191.432 0 43.256-14.353 83.156-38.548 115.212l11.27 8.491c68.318-90.662 50.206-219.543-40.457-287.862" fill="#001B45" mask="url(#b)"/></g><path d="M373.727 369.66l7.26 12.08c24.52-14.733 41.075-29.64 58.292-52.488l-11.269-8.49a192.413 192.413 0 0 1-54.283 48.898" fill="#0086CD"/><path d="M343.737 384.305l5.045 13.142a208.35 208.35 0 0 0 32.204-15.707l-7.259-12.081a190.6 190.6 0 0 1-29.99 14.646" fill="#00A6E8"/><path d="M327.898 389.61l3.878 13.527a193.362 193.362 0 0 0 17.006-5.69l-5.045-13.142a189.815 189.815 0 0 1-15.839 5.306" fill="#C9EDFC"/><path d="M428.47 162.67C408.579 93.303 346.71 46.68 274.548 46.68v13.93c80.742 0 146.196 65.455 146.196 146.197 0 66.76-44.75 123.068-105.89 140.567l3.83 13.355c85.009-24.376 134.16-113.05 109.786-198.058" fill="#00BEFF"/><path d="M274.547 353.003c-80.742 0-146.197-65.455-146.197-146.197S193.805 60.609 274.547 60.609V46.68c-88.435 0-160.125 71.69-160.125 160.125s71.69 160.125 160.125 160.125c16.272 0 28.495-1.718 44.137-6.203l-3.83-13.355c-12.804 3.664-26.326 5.63-40.307 5.63" fill="#F3F3F3"/><path d="M4.335 98.527c2.58 0 4.155-1.635 4.155-3.945 0-2.19-1.32-3.675-3.54-3.675-1.155 0-1.89.36-2.34.825l.255-2.865H7.92l-.315-1.65h-6.21L.96 93.112l1.245.42c.54-.72 1.335-1.065 2.25-1.065 1.35 0 2.175.795 2.175 2.19 0 1.2-.735 2.22-2.385 2.22-1.185 0-2.205-.6-2.925-1.425l-.87 1.44c.885.975 2.175 1.635 3.885 1.635zm12.821-.21v-2.28h1.935l-.165-1.62h-1.77v-7.2h-2.115l-5.055 7.35v1.47h5.355v2.28h1.815zm-1.845-8.88h.03v4.98h-3.39l3.36-4.98zm6.169 10.56l1.35-3.63h-2.055l-.39 3.63h1.095zm6.594-1.47c2.43 0 4.005-1.56 4.005-3.78 0-2.28-1.41-3.495-3.525-3.495-1.23 0-2.19.525-2.94 1.2.09-2.385 1.215-3.81 3.015-3.81.84 0 1.425.255 2.055.75l.69-1.515c-.615-.45-1.485-.87-2.76-.87-2.58 0-4.83 2.04-4.83 5.955 0 3.705 1.845 5.565 4.29 5.565zm.09-1.59c-1.41 0-2.385-.975-2.535-3.03.585-.69 1.515-1.095 2.58-1.095 1.56 0 2.1.915 2.1 2.01 0 1.23-.81 2.115-2.145 2.115zm8-2.88c1.755 0 2.79-1.425 2.79-3.525 0-2.115-1.065-3.48-2.775-3.48-1.725 0-2.805 1.365-2.805 3.51 0 2.1 1.02 3.495 2.79 3.495zm1.815 4.26l6.63-11.1h-1.605l-6.63 11.1h1.605zm-1.8-5.475c-.855 0-1.26-.9-1.26-2.31 0-1.335.39-2.25 1.245-2.25.825 0 1.23.885 1.23 2.28 0 1.335-.39 2.28-1.215 2.28zm8.64 5.625c1.755 0 2.79-1.44 2.79-3.525 0-2.115-1.065-3.495-2.775-3.495-1.725 0-2.805 1.38-2.805 3.525 0 2.085 1.035 3.495 2.79 3.495zm.015-1.23c-.855 0-1.245-.885-1.245-2.295 0-1.335.375-2.25 1.23-2.25.84 0 1.23.87 1.23 2.265 0 1.335-.375 2.28-1.215 2.28zM2.43 112.872v-9.435h.03l6.315 9.435h.945v-11.1H8.715v9.15h-.03l-6.12-9.15h-1.14v11.1H2.43zm13.034.165c1.935 0 3.57-1.485 3.57-4.11 0-2.64-1.634-4.11-3.57-4.11-1.95 0-3.585 1.47-3.585 4.11 0 2.625 1.65 4.11 3.585 4.11zm0-.885c-1.694 0-2.55-1.47-2.55-3.225 0-1.86.946-3.225 2.55-3.225 1.665 0 2.536 1.485 2.536 3.225 0 1.86-.945 3.225-2.536 3.225zm9.972.72v-5.145c.6-1.245 1.65-1.965 2.954-1.965.03 0 .345 0 .375.015l-.09-.96h-.105c-1.544 0-2.505.75-3.105 1.71h-.03l-.104-1.545h-.93v7.89h1.035zm7.345.165c1.32 0 2.19-.45 3.06-1.365l-.51-.675c-.736.765-1.486 1.17-2.536 1.17-1.47 0-2.58-1.11-2.595-3.045h5.655v-.195c0-2.7-1.394-4.11-3.224-4.11-1.666 0-3.465 1.305-3.465 4.095 0 2.7 1.62 4.125 3.615 4.125zm-2.566-4.725c.18-1.77 1.26-2.625 2.4-2.625 1.41 0 2.13 1.125 2.235 2.625h-4.635zm10.04 4.695c1.784 0 3.075-.825 3.075-2.28 0-1.485-.93-1.98-3.03-2.475-1.456-.345-1.89-.675-1.89-1.41 0-.615.51-1.17 1.71-1.17.99 0 1.71.36 2.355.975l.524-.72c-.705-.675-1.59-1.11-2.91-1.11-1.71 0-2.684.945-2.684 2.07 0 1.35.84 1.845 2.745 2.31 1.635.375 2.175.735 2.175 1.605 0 .84-.706 1.365-2.056 1.365-1.11 0-1.904-.465-2.535-1.185l-.57.63c.615.78 1.65 1.395 3.09 1.395zm5.498-9.765c.39 0 .63-.255.63-.66 0-.39-.24-.63-.63-.63s-.63.24-.63.63c0 .405.24.66.63.66zm.525 9.63v-7.89h-1.035v7.89h1.035zm5.406-.75c-1.32 0-2.4-1.02-2.4-3.195 0-2.235 1.065-3.24 2.37-3.24.944 0 1.68.465 2.49 1.29v3.855c-.795.81-1.486 1.29-2.46 1.29zm-.18.885c1.184 0 2.01-.585 2.64-1.275l.105 1.14h.93v-11.175l-1.035.15v4.215c-.6-.705-1.53-1.245-2.61-1.245-1.83 0-3.285 1.365-3.285 4.125s1.44 4.065 3.255 4.065zm9.23.03c1.32 0 2.19-.45 3.06-1.365l-.51-.675c-.735.765-1.485 1.17-2.535 1.17-1.47 0-2.58-1.11-2.595-3.045h5.655v-.195c0-2.7-1.395-4.11-3.225-4.11-1.665 0-3.465 1.305-3.465 4.095 0 2.7 1.62 4.125 3.615 4.125zm-2.565-4.725c.18-1.77 1.26-2.625 2.4-2.625 1.41 0 2.13 1.125 2.235 2.625h-4.635zm8.615 4.56v-5.805c.885-.855 1.74-1.38 2.745-1.38 1.11 0 1.59.555 1.59 1.665v5.52h1.035v-5.73c0-1.47-.794-2.325-2.385-2.325-1.2 0-2.205.63-2.985 1.41l-.105-1.245h-.93v7.89h1.035zm10.22.105c.39 0 .825-.045 1.08-.09l-.12-.885c-.21.06-.495.105-.78.105-.915 0-1.23-.42-1.23-1.26v-4.995h2.055v-.87h-2.055v-2.925l-1.035.15v2.775h-1.365v.87h1.364v5.145c0 1.44.675 1.98 2.085 1.98zm5.468.06c1.32 0 2.19-.45 3.06-1.365l-.51-.675c-.735.765-1.485 1.17-2.535 1.17-1.47 0-2.58-1.11-2.595-3.045h5.655v-.195c0-2.7-1.395-4.11-3.225-4.11-1.665 0-3.465 1.305-3.465 4.095 0 2.7 1.62 4.125 3.615 4.125zm-2.565-4.725c.18-1.77 1.26-2.625 2.4-2.625 1.41 0 2.13 1.125 2.235 2.625h-4.635zm10.039 4.695c1.785 0 3.075-.825 3.075-2.28 0-1.485-.93-1.98-3.03-2.475-1.455-.345-1.89-.675-1.89-1.41 0-.615.51-1.17 1.71-1.17.99 0 1.71.36 2.355.975l.525-.72c-.705-.675-1.59-1.11-2.91-1.11-1.71 0-2.685.945-2.685 2.07 0 1.35.84 1.845 2.745 2.31 1.635.375 2.175.735 2.175 1.605 0 .84-.705 1.365-2.055 1.365-1.11 0-1.905-.465-2.535-1.185l-.57.63c.615.78 1.65 1.395 3.09 1.395zm414.407 76.52c2.46 0 4.08-1.305 4.08-3.27 0-1.5-.765-2.55-2.445-2.835 1.35-.255 2.13-1.245 2.13-2.595 0-1.65-1.185-2.805-3.57-2.805-1.515 0-2.895.615-3.765 1.515l.93 1.41c.795-.84 1.68-1.245 2.64-1.245 1.395 0 1.92.585 1.92 1.395 0 .945-.57 1.62-2.745 1.62h-.66l.195 1.53h.405c2.16 0 3.105.57 3.105 1.92 0 1.05-.825 1.71-2.28 1.71-1.065 0-2.13-.48-2.925-1.53l-1.065 1.275c.93 1.215 2.295 1.905 4.05 1.905zm9.15 0c2.58 0 4.154-1.635 4.154-3.945 0-2.19-1.32-3.675-3.54-3.675-1.154 0-1.89.36-2.34.825l.256-2.865h5.054l-.314-1.65h-6.21l-.435 5.895 1.245.42c.54-.72 1.334-1.065 2.25-1.065 1.35 0 2.174.795 2.174 2.19 0 1.2-.735 2.22-2.385 2.22-1.185 0-2.205-.6-2.925-1.425l-.87 1.44c.885.975 2.175 1.635 3.886 1.635zm6.324 1.47l1.35-3.63h-2.055l-.39 3.63h1.096zm6.389-1.47c2.79 0 4.38-2.295 4.38-5.76s-1.59-5.76-4.38-5.76-4.41 2.295-4.41 5.76 1.62 5.76 4.41 5.76zm0-1.65c-1.576 0-2.535-1.335-2.535-4.11 0-2.775.9-4.08 2.534-4.08 1.56 0 2.505 1.305 2.505 4.08 0 2.775-.9 4.11-2.505 4.11zm8.62-2.82c1.755 0 2.79-1.425 2.79-3.525 0-2.115-1.065-3.48-2.775-3.48-1.726 0-2.806 1.365-2.806 3.51 0 2.1 1.02 3.495 2.79 3.495zm1.814 4.26l6.63-11.1h-1.604l-6.63 11.1h1.604zm-1.8-5.475c-.855 0-1.26-.9-1.26-2.31 0-1.335.39-2.25 1.245-2.25.825 0 1.23.885 1.23 2.28 0 1.335-.39 2.28-1.215 2.28zm8.64 5.625c1.755 0 2.79-1.44 2.79-3.525 0-2.115-1.064-3.495-2.774-3.495-1.726 0-2.805 1.38-2.805 3.525 0 2.085 1.034 3.495 2.79 3.495zm.015-1.23c-.855 0-1.245-.885-1.245-2.295 0-1.335.375-2.25 1.23-2.25.84 0 1.23.87 1.23 2.265 0 1.335-.375 2.28-1.215 2.28zm-41.683 15.631v-4.92h2.52c2.34 0 3.99-.9 3.99-3.15 0-2.055-1.484-3.03-3.885-3.03h-3.69v11.1h1.065zm0-10.125h2.58c1.86 0 2.865.585 2.865 2.085 0 1.59-1.02 2.175-2.85 2.175h-2.594v-4.26zm9.711 9.405c-.9 0-1.44-.435-1.44-1.26 0-1.02.855-1.845 4.335-2.445v2.46c-.81.78-1.785 1.245-2.895 1.245zm-.225.855c1.185 0 2.205-.45 3.12-1.26l.105 1.125h.915v-5.535c0-1.575-.81-2.52-2.565-2.52-1.605 0-2.64.6-3.585 1.47l.585.645c.84-.75 1.695-1.245 2.925-1.245 1.035 0 1.62.54 1.62 1.62v.405c-4.02.615-5.355 1.74-5.355 3.3 0 1.23.825 1.995 2.235 1.995zm7.483-.135v-5.145c.6-1.245 1.65-1.965 2.955-1.965.03 0 .345 0 .375.015l-.09-.96h-.105c-1.545 0-2.505.75-3.105 1.71h-.03l-.105-1.545h-.93v7.89h1.035zm7.888.105c.39 0 .825-.045 1.08-.09l-.12-.885c-.21.06-.495.105-.78.105-.915 0-1.23-.42-1.23-1.26v-4.995h2.055v-.87h-2.055v-2.925l-1.035.15v2.775h-1.365v.87h1.365v5.145c0 1.44.675 1.98 2.085 1.98zm3.274-9.735c.39 0 .63-.255.63-.66 0-.39-.24-.63-.63-.63s-.63.24-.63.63c0 .405.24.66.63.66zm.525 9.63v-7.89h-1.035v7.89h1.035zm5.356.165c1.41 0 2.37-.66 3.03-1.92l-.765-.495c-.525 1.02-1.14 1.545-2.205 1.545-1.395 0-2.445-1.215-2.445-3.24 0-2.355 1.29-3.24 2.46-3.24 1.08 0 1.68.54 2.13 1.5l.81-.495c-.54-1.095-1.47-1.875-2.91-1.875-1.77 0-3.525 1.275-3.525 4.11 0 2.625 1.605 4.11 3.42 4.11zm7.138 0c1.2 0 2.205-.645 3-1.41l.105 1.245h.93v-7.89h-1.035v5.79c-.9.84-1.755 1.38-2.76 1.38-1.11 0-1.575-.54-1.575-1.65v-5.52h-1.035v5.73c0 1.47.795 2.325 2.37 2.325zm7.464-.165v-11.175l-1.036.15v11.025h1.036zm4.349-.72c-.9 0-1.44-.435-1.44-1.26 0-1.02.855-1.845 4.335-2.445v2.46c-.81.78-1.785 1.245-2.895 1.245zm-.225.855c1.185 0 2.205-.45 3.12-1.26l.105 1.125h.915v-5.535c0-1.575-.81-2.52-2.565-2.52-1.605 0-2.64.6-3.585 1.47l.585.645c.84-.75 1.695-1.245 2.925-1.245 1.035 0 1.62.54 1.62 1.62v.405c-4.02.615-5.355 1.74-5.355 3.3 0 1.23.825 1.995 2.235 1.995zm7.483-.135v-5.145c.6-1.245 1.65-1.965 2.955-1.965.03 0 .345 0 .375.015l-.09-.96h-.105c-1.545 0-2.505.75-3.105 1.71h-.03l-.105-1.545h-.93v7.89h1.035zm7.343.165c1.32 0 2.19-.45 3.06-1.365l-.51-.675c-.735.765-1.485 1.17-2.534 1.17-1.47 0-2.58-1.11-2.596-3.045h5.655v-.195c0-2.7-1.394-4.11-3.225-4.11-1.664 0-3.465 1.305-3.465 4.095 0 2.7 1.62 4.125 3.615 4.125zm-2.564-4.725c.18-1.77 1.26-2.625 2.4-2.625 1.41 0 2.13 1.125 2.235 2.625h-4.635zm10.038 4.695c1.785 0 3.076-.825 3.076-2.28 0-1.485-.93-1.98-3.03-2.475-1.455-.345-1.89-.675-1.89-1.41 0-.615.51-1.17 1.71-1.17.99 0 1.71.36 2.355.975l.524-.72c-.705-.675-1.59-1.11-2.91-1.11-1.71 0-2.685.945-2.685 2.07 0 1.35.84 1.845 2.745 2.31 1.635.375 2.176.735 2.176 1.605 0 .84-.706 1.365-2.056 1.365-1.11 0-1.904-.465-2.534-1.185l-.57.63c.615.78 1.65 1.395 3.09 1.395z" fill="#000"/><text font-family="BentonSansBBVA-Medium, Benton Sans BBVA" font-size="15" font-weight="400" letter-spacing=".101" fill="#000" transform="translate(0 -1)"><tspan x="475.291" y="347.406">6</tspan> <tspan x="484.557" y="347.406" letter-spacing=".348">,</tspan> <tspan x="489.045" y="347.406" letter-spacing="-.012">3%</tspan></text><path d="M477.301 360.96v-11.1h-1.065v11.1h1.065zm3.66 0v-5.804c.885-.855 1.74-1.38 2.745-1.38 1.11 0 1.59.555 1.59 1.665v5.52h1.035v-5.73c0-1.47-.795-2.325-2.385-2.325-1.2 0-2.205.63-2.985 1.41l-.105-1.245h-.93v7.89h1.035zm10.173.136c1.784 0 3.075-.825 3.075-2.28 0-1.485-.93-1.98-3.03-2.475-1.455-.345-1.89-.675-1.89-1.41 0-.615.51-1.17 1.71-1.17.99 0 1.71.36 2.354.975l.525-.72c-.704-.675-1.59-1.11-2.91-1.11-1.71 0-2.685.945-2.685 2.07 0 1.35.84 1.845 2.745 2.31 1.635.375 2.175.735 2.175 1.605 0 .84-.704 1.365-2.054 1.365-1.11 0-1.906-.465-2.536-1.185l-.57.63c.615.78 1.65 1.395 3.09 1.395zm7.534-.03c.39 0 .825-.045 1.08-.09l-.12-.885c-.21.06-.495.105-.78.105-.916 0-1.23-.42-1.23-1.26v-4.995h2.055v-.87h-2.055v-2.925l-1.036.15v2.775h-1.365v.87h1.365v5.145c0 1.44.675 1.98 2.086 1.98zm3.274-9.735c.39 0 .63-.255.63-.66 0-.39-.24-.63-.63-.63s-.63.24-.63.63c0 .405.24.66.63.66zm.524 9.63v-7.89h-1.034v7.89h1.034zm5.014.105c.39 0 .825-.045 1.08-.09l-.12-.885c-.21.06-.495.105-.78.105-.915 0-1.23-.42-1.23-1.26v-4.995h2.055v-.87h-2.055v-2.925l-1.034.15v2.775h-1.365v.87h1.365v5.145c0 1.44.674 1.98 2.084 1.98zm5.013.06c1.2 0 2.205-.645 3-1.41l.105 1.245h.93v-7.89h-1.035v5.79c-.9.84-1.755 1.38-2.76 1.38-1.11 0-1.575-.54-1.575-1.65v-5.52h-1.035v5.73c0 1.47.795 2.325 2.37 2.325zm9.388 0c1.41 0 2.37-.66 3.03-1.92l-.765-.495c-.525 1.02-1.14 1.545-2.205 1.545-1.395 0-2.445-1.215-2.445-3.24 0-2.355 1.29-3.24 2.46-3.24 1.08 0 1.68.54 2.13 1.5l.81-.495c-.54-1.095-1.47-1.875-2.91-1.875-1.77 0-3.525 1.275-3.525 4.11 0 2.625 1.605 4.11 3.42 4.11zm5.388-9.795c.39 0 .63-.255.63-.66 0-.39-.24-.63-.63-.63s-.63.24-.63.63c0 .405.24.66.63.66zm.524 9.63v-7.89h-1.034v7.89h1.034zm5.52.165c1.935 0 3.57-1.485 3.57-4.11 0-2.64-1.635-4.11-3.57-4.11-1.95 0-3.585 1.47-3.585 4.11 0 2.625 1.65 4.11 3.585 4.11zm0-.885c-1.695 0-2.55-1.47-2.55-3.225 0-1.86.945-3.225 2.55-3.225 1.665 0 2.535 1.485 2.535 3.225 0 1.86-.945 3.225-2.535 3.225zm6.546.72v-5.805c.885-.855 1.74-1.38 2.745-1.38 1.11 0 1.59.555 1.59 1.665v5.52h1.035v-5.73c0-1.47-.796-2.325-2.386-2.325-1.2 0-2.204.63-2.984 1.41l-.106-1.245h-.93v7.89h1.036zm10.857.165c1.32 0 2.19-.45 3.06-1.365l-.51-.675c-.734.765-1.484 1.17-2.534 1.17-1.47 0-2.58-1.11-2.596-3.045h5.656v-.195c0-2.7-1.396-4.11-3.226-4.11-1.664 0-3.465 1.305-3.465 4.095 0 2.7 1.62 4.125 3.615 4.125zm-2.564-4.725c.18-1.77 1.26-2.625 2.4-2.625 1.41 0 2.13 1.125 2.235 2.625h-4.635zm10.038 4.695c1.785 0 3.075-.825 3.075-2.28 0-1.485-.93-1.98-3.03-2.475-1.455-.345-1.89-.675-1.89-1.41 0-.615.51-1.17 1.71-1.17.99 0 1.71.36 2.356.975l.525-.72c-.706-.675-1.59-1.11-2.91-1.11-1.71 0-2.685.945-2.685 2.07 0 1.35.84 1.845 2.745 2.31 1.635.375 2.174.735 2.174 1.605 0 .84-.704 1.365-2.054 1.365-1.11 0-1.905-.465-2.536-1.185l-.57.63c.615.78 1.65 1.395 3.09 1.395z" fill="#000"/><text font-family="BentonSansBBVA-Medium, Benton Sans BBVA" font-size="15" font-weight="400" letter-spacing=".501" fill="#000" transform="translate(0 -1)"><tspan x="422.731" y="389.076">2</tspan> <tspan x="432.278" y="389.076" letter-spacing="-.004">,</tspan> <tspan x="435.814" y="389.076" letter-spacing="-.025">6%</tspan></text><path d="M430.471 402.63v-.974h-5.88v-4.41h4.32l-.164-.96h-4.156v-3.765h5.565v-.99h-6.63v11.1h6.945zm2.654 0v-5.79c.885-.854 1.695-1.38 2.64-1.38 1.125 0 1.5.54 1.5 1.65v5.52h1.035v-5.79c.885-.854 1.68-1.38 2.64-1.38 1.11 0 1.485.54 1.485 1.65v5.52h1.034v-5.714c0-1.425-.66-2.34-2.28-2.34-1.17 0-2.16.645-2.97 1.425-.224-.84-.855-1.425-2.19-1.425-1.185 0-2.115.63-2.894 1.41l-.106-1.245h-.93v7.89h1.036zm16.183-.734c-.945 0-1.68-.45-2.49-1.275v-3.87c.795-.795 1.485-1.29 2.46-1.29 1.32 0 2.4 1.05 2.4 3.225 0 2.265-1.05 3.21-2.37 3.21zm-2.49 3.66v-4.005c.704.72 1.53 1.215 2.61 1.215 1.83 0 3.284-1.335 3.284-4.095s-1.44-4.095-3.255-4.095c-1.185 0-2.01.585-2.64 1.275l-.105-1.11h-.93v10.965l1.036-.15zm8.96-2.925v-11.175l-1.035.15v11.025h1.035zm5.594.165c1.32 0 2.19-.45 3.06-1.365l-.51-.675c-.735.765-1.485 1.17-2.535 1.17-1.47 0-2.58-1.11-2.594-3.045h5.654v-.195c0-2.7-1.394-4.11-3.224-4.11-1.666 0-3.466 1.305-3.466 4.095 0 2.7 1.62 4.125 3.615 4.125zm-2.565-4.725c.18-1.77 1.26-2.625 2.4-2.625 1.41 0 2.13 1.125 2.236 2.625h-4.635zm9.433 3.84c-.9 0-1.44-.435-1.44-1.26 0-1.02.856-1.845 4.335-2.445v2.46c-.81.78-1.784 1.245-2.894 1.245zm-.225.855c1.185 0 2.206-.45 3.12-1.26l.106 1.125h.915v-5.535c0-1.575-.81-2.52-2.565-2.52-1.606 0-2.64.6-3.586 1.47l.586.645c.84-.75 1.695-1.245 2.924-1.245 1.036 0 1.62.54 1.62 1.62v.405c-4.02.615-5.354 1.74-5.354 3.3 0 1.23.825 1.995 2.234 1.995zm9.48-.885c-1.32 0-2.4-1.02-2.4-3.195 0-2.235 1.065-3.24 2.37-3.24.945 0 1.68.465 2.49 1.29v3.855c-.795.81-1.485 1.29-2.46 1.29zm-.18.885c1.185 0 2.01-.585 2.64-1.275l.105 1.14h.93v-11.175l-1.035.15v4.215c-.6-.705-1.53-1.245-2.61-1.245-1.83 0-3.285 1.365-3.285 4.125s1.44 4.065 3.255 4.065zm9.199.03c1.935 0 3.57-1.485 3.57-4.11 0-2.64-1.635-4.11-3.57-4.11-1.95 0-3.585 1.47-3.585 4.11 0 2.625 1.65 4.11 3.585 4.11zm0-.885c-1.695 0-2.55-1.47-2.55-3.225 0-1.86.945-3.225 2.55-3.225 1.665 0 2.535 1.485 2.535 3.225 0 1.86-.945 3.225-2.535 3.225zm7.783.855c1.785 0 3.075-.825 3.075-2.28 0-1.485-.93-1.98-3.03-2.475-1.455-.345-1.89-.675-1.89-1.41 0-.615.51-1.17 1.71-1.17.99 0 1.71.36 2.355.975l.525-.72c-.705-.675-1.59-1.11-2.91-1.11-1.71 0-2.685.945-2.685 2.07 0 1.35.84 1.845 2.745 2.31 1.635.375 2.175.735 2.175 1.605 0 .84-.705 1.365-2.055 1.365-1.11 0-1.905-.465-2.535-1.185l-.57.63c.615.78 1.65 1.395 3.09 1.395zm-152.115 32.56v-11.1h-1.74l-2.43.765.24 1.53 2.13-.6v9.405h1.8zm4.055 1.68l1.35-3.63h-2.054l-.39 3.63h1.095zm9.96-1.68v-2.28h1.935l-.165-1.62h-1.77v-7.2h-2.115l-5.055 7.35v1.47h5.356v2.28h1.815zm-1.844-8.88h.03v4.98h-3.39l3.36-4.98zm7.337 4.62c1.755 0 2.79-1.425 2.79-3.525 0-2.115-1.065-3.48-2.775-3.48-1.724 0-2.804 1.365-2.804 3.51 0 2.1 1.02 3.495 2.79 3.495zm1.815 4.26l6.63-11.1h-1.604l-6.63 11.1h1.604zm-1.8-5.475c-.854 0-1.26-.9-1.26-2.31 0-1.335.39-2.25 1.245-2.25.825 0 1.23.885 1.23 2.28 0 1.335-.39 2.28-1.215 2.28zm8.64 5.625c1.755 0 2.79-1.44 2.79-3.525 0-2.115-1.065-3.495-2.774-3.495-1.726 0-2.805 1.38-2.805 3.525 0 2.085 1.035 3.495 2.79 3.495zm.015-1.23c-.855 0-1.245-.885-1.245-2.295 0-1.335.375-2.25 1.23-2.25.84 0 1.23.87 1.23 2.265 0 1.335-.375 2.28-1.214 2.28zm-27.99 15.622c2.565 0 3.795-1.26 3.795-3.015 0-1.605-1.11-2.46-2.46-2.7v-.03c1.125-.255 2.1-1.08 2.1-2.565 0-1.755-1.26-2.79-3.765-2.79h-3.855v11.1h4.185zm-3.135-10.14h2.745c1.92 0 2.775.615 2.775 1.965 0 1.365-1.035 2.01-2.805 2.01h-2.715v-3.975zm0 4.905h2.79c1.905 0 3.09.69 3.09 2.175 0 1.335-.855 2.115-2.76 2.115h-3.12v-4.29zm10.964 4.515c-.9 0-1.44-.435-1.44-1.26 0-1.02.855-1.845 4.335-2.445v2.46c-.81.78-1.785 1.245-2.895 1.245zm-.225.855c1.185 0 2.205-.45 3.12-1.26l.105 1.125h.915v-5.535c0-1.575-.81-2.52-2.565-2.52-1.605 0-2.64.6-3.585 1.47l.585.645c.84-.75 1.695-1.245 2.925-1.245 1.035 0 1.62.54 1.62 1.62v.405c-4.02.615-5.355 1.74-5.355 3.3 0 1.23.825 1.995 2.235 1.995zm7.467-.135v-5.805c.885-.855 1.74-1.38 2.745-1.38 1.11 0 1.59.555 1.59 1.665v5.52h1.035v-5.73c0-1.47-.795-2.325-2.385-2.325-1.2 0-2.205.63-2.985 1.41l-.105-1.245h-.93v7.89h1.035zm10.65.165c1.41 0 2.37-.66 3.03-1.92l-.766-.495c-.525 1.02-1.14 1.545-2.205 1.545-1.395 0-2.445-1.215-2.445-3.24 0-2.355 1.29-3.24 2.46-3.24 1.08 0 1.68.54 2.13 1.5l.81-.495c-.54-1.095-1.47-1.875-2.91-1.875-1.77 0-3.525 1.275-3.525 4.11 0 2.625 1.605 4.11 3.42 4.11zm7.795 0c1.935 0 3.57-1.485 3.57-4.11 0-2.64-1.635-4.11-3.57-4.11-1.95 0-3.585 1.47-3.585 4.11 0 2.625 1.65 4.11 3.585 4.11zm0-.885c-1.695 0-2.55-1.47-2.55-3.225 0-1.86.945-3.225 2.55-3.225 1.665 0 2.535 1.485 2.535 3.225 0 1.86-.945 3.225-2.535 3.225zm7.77.855c1.784 0 3.074-.825 3.074-2.28 0-1.485-.93-1.98-3.03-2.475-1.455-.345-1.89-.675-1.89-1.41 0-.615.51-1.17 1.71-1.17.99 0 1.71.36 2.355.975l.525-.72c-.705-.675-1.59-1.11-2.91-1.11-1.71 0-2.685.945-2.685 2.07 0 1.35.84 1.845 2.745 2.31 1.635.375 2.175.735 2.175 1.605 0 .84-.705 1.365-2.055 1.365-1.11 0-1.905-.465-2.535-1.185l-.57.63c.615.78 1.65 1.395 3.09 1.395zM7.57 346.648v-2.28h1.935l-.165-1.62H7.57v-7.2H5.455L.4 342.898v1.47h5.355v2.28H7.57zm-1.845-8.88h.03v4.98h-3.39l3.36-4.98zm9.084 9.09c2.58 0 4.155-1.635 4.155-3.945 0-2.19-1.32-3.675-3.54-3.675-1.155 0-1.89.36-2.34.825l.255-2.865h5.055l-.315-1.65h-6.21l-.435 5.895 1.245.42c.54-.72 1.335-1.065 2.25-1.065 1.35 0 2.175.795 2.175 2.19 0 1.2-.735 2.22-2.385 2.22-1.185 0-2.205-.6-2.925-1.425l-.87 1.44c.885.975 2.175 1.635 3.885 1.635zm6.847 1.47l1.35-3.63h-2.055l-.39 3.63h1.095zm9.96-1.68v-2.28h1.935l-.165-1.62h-1.77v-7.2h-2.115l-5.055 7.35v1.47h5.355v2.28h1.815zm-1.845-8.88h.03v4.98h-3.39l3.36-4.98zm7.338 4.62c1.755 0 2.79-1.425 2.79-3.525 0-2.115-1.065-3.48-2.775-3.48-1.725 0-2.805 1.365-2.805 3.51 0 2.1 1.02 3.495 2.79 3.495zm1.815 4.26l6.63-11.1H43.95l-6.63 11.1h1.605zm-1.8-5.475c-.855 0-1.26-.9-1.26-2.31 0-1.335.39-2.25 1.245-2.25.825 0 1.23.885 1.23 2.28 0 1.335-.39 2.28-1.215 2.28zm8.64 5.625c1.755 0 2.79-1.44 2.79-3.525 0-2.115-1.065-3.495-2.775-3.495-1.725 0-2.805 1.38-2.805 3.525 0 2.085 1.035 3.495 2.79 3.495zm.015-1.23c-.855 0-1.245-.885-1.245-2.295 0-1.335.375-2.25 1.23-2.25.84 0 1.23.87 1.23 2.265 0 1.335-.375 2.28-1.215 2.28zM2.47 361.203v-4.98h2.76l2.85 5.07 1.095-.18-2.835-5.01c1.605-.315 2.64-1.185 2.64-2.97 0-1.98-1.38-3.03-3.84-3.03H1.42v11.1h1.05zm0-10.125h2.58c1.86 0 2.88.555 2.88 2.07 0 1.59-1.035 2.13-2.865 2.13H2.47v-4.2zm11.182 10.29c1.32 0 2.19-.45 3.06-1.365l-.51-.675c-.735.765-1.485 1.17-2.535 1.17-1.47 0-2.58-1.11-2.595-3.045h5.655v-.195c0-2.7-1.395-4.11-3.225-4.11-1.665 0-3.465 1.305-3.465 4.095 0 2.7 1.62 4.125 3.615 4.125zm-2.565-4.725c.18-1.77 1.26-2.625 2.4-2.625 1.41 0 2.13 1.125 2.235 2.625h-4.635zm10.039 4.695c1.785 0 3.075-.825 3.075-2.28 0-1.485-.93-1.98-3.03-2.475-1.455-.345-1.89-.675-1.89-1.41 0-.615.51-1.17 1.71-1.17.99 0 1.71.36 2.355.975l.525-.72c-.705-.675-1.59-1.11-2.91-1.11-1.71 0-2.685.945-2.685 2.07 0 1.35.84 1.845 2.745 2.31 1.635.375 2.175.735 2.175 1.605 0 .84-.705 1.365-2.055 1.365-1.11 0-1.905-.465-2.535-1.185l-.57.63c.615.78 1.65 1.395 3.09 1.395zm5.498-9.765c.39 0 .63-.255.63-.66 0-.39-.24-.63-.63-.63s-.63.24-.63.63c0 .405.24.66.63.66zm.525 9.63v-7.89h-1.035v7.89h1.035zm5.407-.75c-1.32 0-2.4-1.02-2.4-3.195 0-2.235 1.065-3.24 2.37-3.24.945 0 1.68.465 2.49 1.29v3.855c-.795.81-1.485 1.29-2.46 1.29zm-.18.885c1.185 0 2.01-.585 2.64-1.275l.105 1.14h.93v-11.175l-1.035.15v4.215c-.6-.705-1.53-1.245-2.61-1.245-1.83 0-3.285 1.365-3.285 4.125s1.44 4.065 3.255 4.065zm9.23.03c1.32 0 2.19-.45 3.06-1.365l-.51-.675c-.734.765-1.484 1.17-2.534 1.17-1.47 0-2.58-1.11-2.595-3.045h5.655v-.195c0-2.7-1.395-4.11-3.225-4.11-1.665 0-3.465 1.305-3.465 4.095 0 2.7 1.62 4.125 3.615 4.125zm-2.564-4.725c.18-1.77 1.26-2.625 2.4-2.625 1.41 0 2.13 1.125 2.235 2.625h-4.635zm8.614 4.56v-5.805c.885-.855 1.74-1.38 2.745-1.38 1.11 0 1.59.555 1.59 1.665v5.52h1.035v-5.73c0-1.47-.795-2.325-2.385-2.325-1.2 0-2.205.63-2.985 1.41l-.105-1.245h-.93v7.89h1.035zm10.219.105c.39 0 .825-.045 1.08-.09l-.12-.885c-.21.06-.495.105-.78.105-.915 0-1.23-.42-1.23-1.26v-4.995h2.055v-.87h-2.055v-2.925l-1.035.15v2.775h-1.365v.87h1.365v5.145c0 1.44.675 1.98 2.085 1.98zm5.468.06c1.32 0 2.19-.45 3.06-1.365l-.51-.675c-.735.765-1.485 1.17-2.535 1.17-1.47 0-2.58-1.11-2.595-3.045h5.655v-.195c0-2.7-1.395-4.11-3.225-4.11-1.665 0-3.465 1.305-3.465 4.095 0 2.7 1.62 4.125 3.615 4.125zm-2.565-4.725c.18-1.77 1.26-2.625 2.4-2.625 1.41 0 2.13 1.125 2.235 2.625h-4.635zm10.04 4.695c1.784 0 3.074-.825 3.074-2.28 0-1.485-.93-1.98-3.03-2.475-1.455-.345-1.89-.675-1.89-1.41 0-.615.51-1.17 1.71-1.17.99 0 1.71.36 2.355.975l.525-.72c-.705-.675-1.59-1.11-2.91-1.11-1.71 0-2.685.945-2.685 2.07 0 1.35.84 1.845 2.745 2.31 1.635.375 2.175.735 2.175 1.605 0 .84-.705 1.365-2.055 1.365-1.11 0-1.905-.465-2.535-1.185l-.57.63c.615.78 1.65 1.395 3.09 1.395z" fill="#000"/><path d="M226.624 246.526l.93-2.64h4.215l.945 2.79 1.815-.3-3.885-10.995h-1.83l-3.93 11.145h1.74zm3.045-8.79h.03l1.53 4.5h-3.12l1.56-4.5zm10.967 9c2.325 0 3.675-1.185 4.335-3.015l-1.62-.735c-.435 1.245-1.335 2.07-2.715 2.07-1.935 0-3.045-1.56-3.045-4.125 0-2.43 1.05-3.99 2.94-3.99 1.335 0 2.145.75 2.58 1.785l1.59-.945c-.765-1.65-2.07-2.565-4.17-2.565-2.73 0-4.815 2.085-4.815 5.73 0 3.75 2.055 5.79 4.92 5.79zm11.47 0c2.325 0 3.675-1.185 4.335-3.015l-1.62-.735c-.435 1.245-1.335 2.07-2.715 2.07-1.935 0-3.045-1.56-3.045-4.125 0-2.43 1.05-3.99 2.94-3.99 1.335 0 2.145.75 2.58 1.785l1.59-.945c-.765-1.65-2.07-2.565-4.17-2.565-2.73 0-4.815 2.085-4.815 5.73 0 3.75 2.055 5.79 4.92 5.79zm9.1-.21v-11.1h-1.86v11.1h1.86zm8.16.21c2.67 0 4.995-2.025 4.995-5.76s-2.325-5.76-4.995-5.76c-2.685 0-5.01 2.025-5.01 5.76s2.325 5.76 5.01 5.76zm0-1.68c-1.875 0-3.135-1.56-3.135-4.08s1.26-4.035 3.135-4.035c1.875 0 3.135 1.515 3.135 4.035 0 2.52-1.26 4.08-3.135 4.08zm9.82 1.47v-8.085h.03l5.46 8.085h1.71v-11.1h-1.74v7.935h-.03l-5.25-7.935h-1.904v11.1h1.725zm12.723 0v-11.1h-1.86v11.1h1.86zm7.524.21c2.64 0 4.11-1.425 4.11-3.225 0-2.1-1.68-2.775-3.78-3.39-1.815-.54-2.61-.9-2.61-1.935 0-.72.72-1.275 1.98-1.275 1.17 0 2.34.615 3.225 1.395l.885-1.5c-1.05-.87-2.445-1.59-4.14-1.59-2.22 0-3.78 1.245-3.78 3.12 0 2.115 1.71 2.685 3.855 3.315 1.83.555 2.535 1.005 2.535 1.98 0 .96-.945 1.44-2.34 1.44-1.365 0-2.76-.765-3.615-1.65l-1.005 1.425c1.125 1.065 2.685 1.89 4.68 1.89zm11.194-.21v-9.36h3.555l-.27-1.74h-8.58v1.74h3.42v9.36h1.875zm4.521 0l.93-2.64h4.215l.945 2.79 1.815-.3-3.885-10.995h-1.83l-3.93 11.145h1.74zm3.045-8.79h.03l1.53 4.5h-3.12l1.56-4.5zm11.284 9c2.64 0 4.11-1.425 4.11-3.225 0-2.1-1.68-2.775-3.78-3.39-1.815-.54-2.61-.9-2.61-1.935 0-.72.72-1.275 1.98-1.275 1.17 0 2.34.615 3.225 1.395l.885-1.5c-1.05-.87-2.445-1.59-4.14-1.59-2.22 0-3.78 1.245-3.78 3.12 0 2.115 1.71 2.685 3.855 3.315 1.83.555 2.535 1.005 2.535 1.98 0 .96-.945 1.44-2.34 1.44-1.365 0-2.76-.765-3.615-1.65l-1.005 1.425c1.125 1.065 2.685 1.89 4.68 1.89z" fill="#00BEFF"/><path d="M198.807 183.918c-6.35 0-9.1-3.9-9.1-9.3 0-6.45 3.85-10 9.4-10 5 0 9.4 4 10.25 13.1-2.5 3.65-6.25 6.2-10.55 6.2zm-.8 16.9c8.45 0 13.9-9.1 13.9-19.85 0-12.85-5.85-18.55-12.65-18.55-7.5 0-12.05 5.35-12.05 12.2 0 6.3 3.4 11.5 11.45 11.5 4.95 0 8.55-2.65 10.85-5.35.1 9.85-4.25 17.85-11.45 17.85-3.95 0-5.8-1.15-8.1-3.1l-1.35 1.9c2.15 1.95 5.05 3.4 9.4 3.4zm30.44 0c7.35 0 11.85-4.7 11.85-10.55 0-5.6-2.75-8.7-8.3-9.85 4.6-.75 7.55-3.95 7.55-8.8 0-4.55-3.05-9.2-10.8-9.2-4.95 0-8.45 2.55-10.95 5.75l2 1.3c2.1-2.8 4.9-4.85 8.9-4.85 5.95 0 8.4 3.15 8.4 7.15 0 5.05-3.35 7.55-11.45 7.55h-1.6v2.2h1.3c9.35 0 12.5 3.1 12.5 8.85 0 4.8-3.55 8.25-9.35 8.25-4.25 0-7.65-1.8-10.35-6.1l-2.05 1.25c2.6 4.45 7.1 7.05 12.35 7.05zm29.93 0c7.55 0 12.25-5.6 12.25-12.9 0-7.4-4.9-12-11.3-12-4 0-6.45 1.4-8.4 3.7l1.1-14.1h16.6l-.45-2.4h-18.4l-1.4 19.2 2.05.85c2.05-3.05 4.7-5.05 8.85-5.05 5.05 0 8.9 3.55 8.9 9.95 0 5.25-3.05 10.55-9.75 10.55-4.65 0-7.65-2.5-9.8-6.1l-2.05 1.25c2.3 4.15 6.55 7.05 11.8 7.05zm20.445-.5c1.15 0 1.95-.8 1.95-2.25 0-1.4-.8-2.2-1.95-2.2s-1.9.8-1.9 2.2c0 1.45.75 2.25 1.9 2.25zm33.65-.2l-.4-2.3h-20.25c.1-3.6 3.45-8.05 10.45-12.5 7.1-4.5 9.85-7.65 9.85-12.9 0-5.8-4.05-10-10.55-10-5.1 0-9.15 2.75-11.55 7.95l2.05 1c2.15-4.6 5.05-6.75 9.4-6.75 5.4 0 8.2 3.25 8.2 7.95 0 4.05-2.25 6.85-7.75 10.35-9.75 6.25-12.7 11.05-12.7 16.4v.8h23.25zm18.115.7c8.1 0 12.8-4.55 12.8-9.5 0-5.4-3.65-8.1-10.3-11 5.5-2.45 8.6-4.55 8.6-9.1 0-4.5-4.05-8.8-11.1-8.8-6.85 0-11.1 4.25-11.1 8.8 0 4.45 3.2 6.9 8.45 9.2-6.45 2.8-10.15 5.6-10.15 10.9 0 5.1 4.7 9.5 12.8 9.5zm.05-21.55c-6.1-2.7-8.7-4.5-8.7-8.2 0-3.15 3-6.45 8.65-6.45 5.95 0 8.65 3.4 8.65 6.6 0 3.75-2.5 5.45-8.6 8.05zm-.05 19.35c-5.95 0-10.35-3.1-10.35-7.45 0-4.25 3.1-6.55 10.25-9.7 6.65 2.8 10.45 5.25 10.45 9.7 0 4.5-4.4 7.45-10.35 7.45zm38.745 1.5v-9.5h6.5l-.45-2.25h-6.05v-25.25h-3.3l-16.85 25.75v1.75h17.75v9.5h2.4zm-2.5-34.15h.1v22.4h-14.8l14.7-22.4z" fill="#121212"/><path d="M328.589 350.797h-235m73-256h-73m400 98h-20m-9 155h-48m0 43h-58m-23 11v17" stroke="#121212"/></g></svg>