<?xml version="1.0" encoding="utf-8"?>
<!-- Generator: Adobe Illustrator 21.0.0, SVG Export Plug-In . SVG Version: 6.00 Build 0)  -->
<!DOCTYPE svg PUBLIC "-//W3C//DTD SVG 1.1//EN" "http://www.w3.org/Graphics/SVG/1.1/DTD/svg11.dtd">
<svg version="1.1" id="Capa_1" xmlns="http://www.w3.org/2000/svg" xmlns:xlink="http://www.w3.org/1999/xlink" x="0px" y="0px"
	 viewBox="0 0 580 451" style="enable-background:new 0 0 580 451;" xml:space="preserve">
<style type="text/css">
	.st0{fill:#001B45;}
	.st1{fill:#0086CD;}
	.st2{fill:#00A6E8;}
	.st3{fill:#C9EDFC;}
	.st4{fill:#00BEFF;}
	.st5{fill:#F3F3F3;}
	.st6{fill:#121212;}
</style>
<title>Group 8</title>
<desc>Created with Sketch.</desc>
<g>
	<g>
		<path class="st0" d="M398.7,40.9C362.4,13.5,320.6-0.5,275-0.5v14.1c0,0,0,0,0,0c105.7,0,191.4,85.7,191.4,191.4
			c0,43.3-14.4,83.2-38.5,115.2l11.3,8.5C507.5,238.1,489.4,109.2,398.7,40.9z"/>
	</g>
	<g>
		<path class="st1" d="M373.7,369.2l7.3,12.1c24.5-14.7,41.1-29.6,58.3-52.5l-11.3-8.5C413.2,339.8,394.7,356.5,373.7,369.2z"/>
	</g>
	<g>
		<path class="st2" d="M343.7,383.8l5,13.1c11-4.2,22.1-9.6,32.2-15.7l-7.3-12.1C364.2,374.9,354.1,379.8,343.7,383.8z"/>
	</g>
	<g>
		<path class="st3" d="M327.8,389.1l3.9,13.5c6.1-1.8,11.1-3.4,17-5.7l-5-13.1C338.5,385.8,333.2,387.6,327.8,389.1z"/>
	</g>
	<g>
		<path class="st4" d="M428.4,162.2c-19.9-69.4-81.8-116-153.9-116v13.9c80.7,0,146.2,65.5,146.2,146.2
			c0,66.8-44.8,123.1-105.9,140.6l3.8,13.4C403.6,335.9,452.8,247.2,428.4,162.2z"/>
	</g>
	<g>
		<path class="st5" d="M274.5,352.5c-80.7,0-146.2-65.5-146.2-146.2S193.7,60.1,274.5,60.1V46.2c-88.4,0-160.1,71.7-160.1,160.1
			S186,366.4,274.5,366.4c16.3,0,28.5-1.7,44.1-6.2l-3.8-13.4C302,350.6,288.5,352.5,274.5,352.5z"/>
	</g>
	<g>
		<path d="M0.4,96.4L1.2,95C2,95.8,3,96.4,4.2,96.4c1.7,0,2.4-1,2.4-2.2c0-1.4-0.8-2.2-2.2-2.2c-0.9,0-1.7,0.3-2.2,1.1l-1.2-0.4
			l0.4-5.9h6.2l0.3,1.6H2.8l-0.3,2.9c0.5-0.5,1.2-0.8,2.3-0.8c2.2,0,3.5,1.5,3.5,3.7c0,2.3-1.6,3.9-4.2,3.9
			C2.5,98,1.3,97.4,0.4,96.4z"/>
		<path d="M14.9,97.8v-2.3H9.6v-1.5l5.1-7.3h2.1v7.2h1.8l0.2,1.6h-1.9v2.3H14.9z M11.5,93.9h3.4v-5h0L11.5,93.9z"/>
		<path d="M19.8,99.5l0.4-3.6h2.1l-1.4,3.6H19.8z"/>
		<path d="M23.4,92.5c0-3.9,2.2-6,4.8-6c1.3,0,2.1,0.4,2.8,0.9l-0.7,1.5c-0.6-0.5-1.2-0.8-2.1-0.8c-1.8,0-2.9,1.4-3,3.8
			c0.8-0.7,1.7-1.2,2.9-1.2c2.1,0,3.5,1.2,3.5,3.5c0,2.2-1.6,3.8-4,3.8C25.3,98,23.4,96.2,23.4,92.5z M29.9,94.3c0-1.1-0.5-2-2.1-2
			c-1.1,0-2,0.4-2.6,1.1c0.2,2.1,1.1,3,2.5,3C29.1,96.5,29.9,95.6,29.9,94.3z"/>
		<path d="M32.6,90.1c0-2.1,1.1-3.5,2.8-3.5c1.7,0,2.8,1.4,2.8,3.5c0,2.1-1,3.5-2.8,3.5C33.7,93.6,32.6,92.2,32.6,90.1z M36.7,90.1
			c0-1.4-0.4-2.3-1.2-2.3c-0.9,0-1.2,0.9-1.2,2.2c0,1.4,0.4,2.3,1.3,2.3C36.3,92.4,36.7,91.4,36.7,90.1z M35.6,97.8l6.6-11.1h1.6
			l-6.6,11.1H35.6z M41.3,94.5c0-2.1,1.1-3.5,2.8-3.5c1.7,0,2.8,1.4,2.8,3.5c0,2.1-1,3.5-2.8,3.5S41.3,96.6,41.3,94.5z M45.3,94.5
			c0-1.4-0.4-2.3-1.2-2.3c-0.9,0-1.2,0.9-1.2,2.2c0,1.4,0.4,2.3,1.2,2.3C44.9,96.8,45.3,95.8,45.3,94.5z"/>
	</g>
	<g>
		<path d="M1.3,116.4v-11.1h1.1l6.1,9.1h0v-9.1h1v11.1H8.7l-6.3-9.4h0v9.4H1.3z"/>
		<path d="M11.8,112.4c0-2.6,1.6-4.1,3.6-4.1c1.9,0,3.6,1.5,3.6,4.1c0,2.6-1.6,4.1-3.6,4.1C13.4,116.5,11.8,115.1,11.8,112.4z
			 M17.9,112.4c0-1.7-0.9-3.2-2.5-3.2c-1.6,0-2.5,1.4-2.5,3.2c0,1.8,0.9,3.2,2.5,3.2C17,115.7,17.9,114.3,17.9,112.4z"/>
		<path d="M24.3,116.4v-7.9h0.9l0.1,1.5h0c0.6-1,1.6-1.7,3.1-1.7h0.1l0.1,1c0,0-0.3,0-0.4,0c-1.3,0-2.4,0.7-3,2v5.1H24.3z"/>
		<path d="M29.4,112.4c0-2.8,1.8-4.1,3.5-4.1c1.8,0,3.2,1.4,3.2,4.1v0.2h-5.7c0,1.9,1.1,3,2.6,3c1,0,1.8-0.4,2.5-1.2l0.5,0.7
			c-0.9,0.9-1.7,1.4-3.1,1.4C31.1,116.5,29.4,115.1,29.4,112.4z M35.1,111.8c-0.1-1.5-0.8-2.6-2.2-2.6c-1.1,0-2.2,0.9-2.4,2.6H35.1z
			"/>
		<path d="M37.6,115.1l0.6-0.6c0.6,0.7,1.4,1.2,2.5,1.2c1.4,0,2.1-0.5,2.1-1.4c0-0.9-0.5-1.2-2.2-1.6c-1.9-0.5-2.7-1-2.7-2.3
			c0-1.1,1-2.1,2.7-2.1c1.3,0,2.2,0.4,2.9,1.1l-0.5,0.7c-0.6-0.6-1.4-1-2.4-1c-1.2,0-1.7,0.6-1.7,1.2c0,0.7,0.4,1.1,1.9,1.4
			c2.1,0.5,3,1,3,2.5c0,1.5-1.3,2.3-3.1,2.3C39.2,116.5,38.2,115.9,37.6,115.1z"/>
		<path d="M45.5,106.1c0-0.4,0.2-0.6,0.6-0.6c0.4,0,0.6,0.2,0.6,0.6c0,0.4-0.2,0.7-0.6,0.7C45.7,106.8,45.5,106.5,45.5,106.1z
			 M45.6,116.4v-7.9h1v7.9H45.6z"/>
		<path d="M48.6,112.5c0-2.8,1.5-4.1,3.3-4.1c1.1,0,2,0.5,2.6,1.2v-4.2l1-0.1v11.2h-0.9l-0.1-1.1c-0.6,0.7-1.5,1.3-2.6,1.3
			C50,116.5,48.6,115.2,48.6,112.5z M54.5,114.3v-3.9c-0.8-0.8-1.5-1.3-2.5-1.3c-1.3,0-2.4,1-2.4,3.2c0,2.2,1.1,3.2,2.4,3.2
			C53,115.6,53.7,115.2,54.5,114.3z"/>
		<path d="M57.4,112.4c0-2.8,1.8-4.1,3.5-4.1c1.8,0,3.2,1.4,3.2,4.1v0.2h-5.7c0,1.9,1.1,3,2.6,3c1,0,1.8-0.4,2.5-1.2l0.5,0.7
			c-0.9,0.9-1.7,1.4-3.1,1.4C59.1,116.5,57.4,115.1,57.4,112.4z M63.1,111.8c-0.1-1.5-0.8-2.6-2.2-2.6c-1.1,0-2.2,0.9-2.4,2.6H63.1z
			"/>
		<path d="M66,116.4v-7.9H67l0.1,1.2c0.8-0.8,1.8-1.4,3-1.4c1.6,0,2.4,0.9,2.4,2.3v5.7h-1v-5.5c0-1.1-0.5-1.7-1.6-1.7
			c-1,0-1.9,0.5-2.7,1.4v5.8H66z"/>
		<path d="M75.2,114.5v-5.1h-1.4v-0.9h1.4v-2.8l1-0.1v2.9h2.1v0.9h-2.1v5c0,0.8,0.3,1.3,1.2,1.3c0.3,0,0.6,0,0.8-0.1l0.1,0.9
			c-0.3,0-0.7,0.1-1.1,0.1C75.9,116.5,75.2,115.9,75.2,114.5z"/>
		<path d="M79.2,112.4c0-2.8,1.8-4.1,3.5-4.1c1.8,0,3.2,1.4,3.2,4.1v0.2h-5.7c0,1.9,1.1,3,2.6,3c1,0,1.8-0.4,2.5-1.2l0.5,0.7
			c-0.9,0.9-1.7,1.4-3.1,1.4C80.8,116.5,79.2,115.1,79.2,112.4z M84.9,111.8c-0.1-1.5-0.8-2.6-2.2-2.6c-1.1,0-2.2,0.9-2.4,2.6H84.9z
			"/>
		<path d="M87.3,115.1l0.6-0.6c0.6,0.7,1.4,1.2,2.5,1.2c1.4,0,2.1-0.5,2.1-1.4c0-0.9-0.5-1.2-2.2-1.6c-1.9-0.5-2.7-1-2.7-2.3
			c0-1.1,1-2.1,2.7-2.1c1.3,0,2.2,0.4,2.9,1.1l-0.5,0.7c-0.6-0.6-1.4-1-2.4-1c-1.2,0-1.7,0.6-1.7,1.2c0,0.7,0.4,1.1,1.9,1.4
			c2.1,0.5,3,1,3,2.5c0,1.5-1.3,2.3-3.1,2.3C89,116.5,88,115.9,87.3,115.1z"/>
	</g>
	<g>
		<path d="M500.2,189.1l1.1-1.3c0.8,1,1.9,1.5,2.9,1.5c1.5,0,2.3-0.7,2.3-1.7c0-1.4-0.9-1.9-3.1-1.9H503l-0.2-1.5h0.7
			c2.2,0,2.7-0.7,2.7-1.6c0-0.8-0.5-1.4-1.9-1.4c-1,0-1.8,0.4-2.6,1.2l-0.9-1.4c0.9-0.9,2.2-1.5,3.8-1.5c2.4,0,3.6,1.2,3.6,2.8
			c0,1.4-0.8,2.3-2.1,2.6c1.7,0.3,2.4,1.3,2.4,2.8c0,2-1.6,3.3-4.1,3.3C502.5,191,501.2,190.4,500.2,189.1z"/>
		<path d="M509.5,189.4l0.9-1.4c0.7,0.8,1.7,1.4,2.9,1.4c1.6,0,2.4-1,2.4-2.2c0-1.4-0.8-2.2-2.2-2.2c-0.9,0-1.7,0.3-2.2,1.1
			l-1.2-0.4l0.4-5.9h6.2l0.3,1.6h-5.1l-0.3,2.9c0.5-0.5,1.2-0.8,2.3-0.8c2.2,0,3.5,1.5,3.5,3.7c0,2.3-1.6,3.9-4.2,3.9
			C511.6,191,510.4,190.4,509.5,189.4z"/>
		<path d="M518.7,192.5l0.4-3.6h2.1l-1.4,3.6H518.7z"/>
		<path d="M522.3,185.3c0-3.5,1.6-5.8,4.4-5.8s4.4,2.3,4.4,5.8s-1.6,5.8-4.4,5.8S522.3,188.7,522.3,185.3z M529.3,185.3
			c0-2.8-0.9-4.1-2.5-4.1c-1.6,0-2.5,1.3-2.5,4.1s1,4.1,2.5,4.1C528.4,189.4,529.3,188.1,529.3,185.3z"/>
		<path d="M532.5,183.1c0-2.1,1.1-3.5,2.8-3.5c1.7,0,2.8,1.4,2.8,3.5c0,2.1-1,3.5-2.8,3.5C533.5,186.6,532.5,185.2,532.5,183.1z
			 M536.5,183.1c0-1.4-0.4-2.3-1.2-2.3c-0.9,0-1.2,0.9-1.2,2.2c0,1.4,0.4,2.3,1.3,2.3C536.1,185.4,536.5,184.4,536.5,183.1z
			 M535.5,190.8l6.6-11.1h1.6l-6.6,11.1H535.5z M541.2,187.5c0-2.1,1.1-3.5,2.8-3.5c1.7,0,2.8,1.4,2.8,3.5c0,2.1-1,3.5-2.8,3.5
			S541.2,189.6,541.2,187.5z M545.2,187.5c0-1.4-0.4-2.3-1.2-2.3c-0.9,0-1.2,0.9-1.2,2.2c0,1.4,0.4,2.3,1.2,2.3
			C544.8,189.8,545.2,188.8,545.2,187.5z"/>
	</g>
	<g>
		<path d="M500.7,208.4v-11.1h3.7c2.4,0,3.9,1,3.9,3c0,2.2-1.6,3.2-4,3.2h-2.5v4.9H500.7z M501.7,202.5h2.6c1.8,0,2.8-0.6,2.8-2.2
			c0-1.5-1-2.1-2.9-2.1h-2.6V202.5z"/>
		<path d="M509.5,206.5c0-1.6,1.3-2.7,5.4-3.3v-0.4c0-1.1-0.6-1.6-1.6-1.6c-1.2,0-2.1,0.5-2.9,1.2l-0.6-0.6c0.9-0.9,2-1.5,3.6-1.5
			c1.8,0,2.6,0.9,2.6,2.5v5.5H515l-0.1-1.1c-0.9,0.8-1.9,1.3-3.1,1.3C510.3,208.5,509.5,207.8,509.5,206.5z M514.9,206.4V204
			c-3.5,0.6-4.3,1.4-4.3,2.4c0,0.8,0.5,1.3,1.4,1.3C513.1,207.7,514.1,207.2,514.9,206.4z"/>
		<path d="M518.2,208.4v-7.9h0.9l0.1,1.5h0c0.6-1,1.6-1.7,3.1-1.7h0.1l0.1,1c0,0-0.3,0-0.4,0c-1.3,0-2.4,0.7-3,2v5.1H518.2z"/>
		<path d="M525,206.5v-5.1h-1.4v-0.9h1.4v-2.8l1-0.1v2.9h2.1v0.9H526v5c0,0.8,0.3,1.3,1.2,1.3c0.3,0,0.6,0,0.8-0.1l0.1,0.9
			c-0.3,0-0.7,0.1-1.1,0.1C525.7,208.5,525,207.9,525,206.5z"/>
		<path d="M529.7,198.1c0-0.4,0.2-0.6,0.6-0.6c0.4,0,0.6,0.2,0.6,0.6c0,0.4-0.2,0.7-0.6,0.7C529.9,198.8,529.7,198.5,529.7,198.1z
			 M529.8,208.4v-7.9h1v7.9H529.8z"/>
		<path d="M532.8,204.4c0-2.8,1.8-4.1,3.5-4.1c1.4,0,2.4,0.8,2.9,1.9l-0.8,0.5c-0.5-1-1-1.5-2.1-1.5c-1.2,0-2.5,0.9-2.5,3.2
			c0,2,1,3.2,2.4,3.2c1.1,0,1.7-0.5,2.2-1.5l0.8,0.5c-0.7,1.3-1.6,1.9-3,1.9C534.4,208.5,532.8,207.1,532.8,204.4z"/>
		<path d="M540.9,206.2v-5.7h1v5.5c0,1.1,0.5,1.6,1.6,1.6c1,0,1.9-0.5,2.8-1.4v-5.8h1v7.9h-0.9l-0.1-1.2c-0.8,0.8-1.8,1.4-3,1.4
			C541.7,208.5,540.9,207.7,540.9,206.2z"/>
		<path d="M549.7,208.4v-11l1-0.2v11.2H549.7z"/>
		<path d="M552.6,206.5c0-1.6,1.3-2.7,5.4-3.3v-0.4c0-1.1-0.6-1.6-1.6-1.6c-1.2,0-2.1,0.5-2.9,1.2l-0.6-0.6c0.9-0.9,2-1.5,3.6-1.5
			c1.8,0,2.6,0.9,2.6,2.5v5.5H558l-0.1-1.1c-0.9,0.8-1.9,1.3-3.1,1.3C553.4,208.5,552.6,207.8,552.6,206.5z M557.9,206.4V204
			c-3.5,0.6-4.3,1.4-4.3,2.4c0,0.8,0.5,1.3,1.4,1.3C556.1,207.7,557.1,207.2,557.9,206.4z"/>
		<path d="M561.2,208.4v-7.9h0.9l0.1,1.5h0c0.6-1,1.6-1.7,3.1-1.7h0.1l0.1,1c0,0-0.3,0-0.4,0c-1.3,0-2.4,0.7-3,2v5.1H561.2z"/>
		<path d="M566.4,204.4c0-2.8,1.8-4.1,3.5-4.1c1.8,0,3.2,1.4,3.2,4.1v0.2h-5.7c0,1.9,1.1,3,2.6,3c1,0,1.8-0.4,2.5-1.2l0.5,0.7
			c-0.9,0.9-1.7,1.4-3.1,1.4C568,208.5,566.4,207.1,566.4,204.4z M572.1,203.8c-0.1-1.5-0.8-2.6-2.2-2.6c-1.1,0-2.2,0.9-2.4,2.6
			H572.1z"/>
		<path d="M574.5,207.1l0.6-0.6c0.6,0.7,1.4,1.2,2.5,1.2c1.3,0,2.1-0.5,2.1-1.4c0-0.9-0.5-1.2-2.2-1.6c-1.9-0.5-2.7-1-2.7-2.3
			c0-1.1,1-2.1,2.7-2.1c1.3,0,2.2,0.4,2.9,1.1l-0.5,0.7c-0.6-0.6-1.4-1-2.4-1c-1.2,0-1.7,0.6-1.7,1.2c0,0.7,0.4,1.1,1.9,1.4
			c2.1,0.5,3,1,3,2.5c0,1.5-1.3,2.3-3.1,2.3C576.2,208.5,575.1,207.9,574.5,207.1z"/>
	</g>
	<g>
		<path d="M475.9,342.6c0-3.9,2.2-6,4.8-6c1.3,0,2.1,0.4,2.8,0.9l-0.7,1.5c-0.6-0.5-1.2-0.8-2.1-0.8c-1.8,0-2.9,1.4-3,3.8
			c0.8-0.7,1.7-1.2,2.9-1.2c2.1,0,3.5,1.2,3.5,3.5c0,2.2-1.6,3.8-4,3.8C477.8,348.1,475.9,346.3,475.9,342.6z M482.4,344.4
			c0-1.1-0.5-2-2.1-2c-1.1,0-2,0.4-2.6,1.1c0.2,2.1,1.1,3,2.5,3C481.6,346.5,482.4,345.7,482.4,344.4z"/>
		<path d="M485.5,349.6l0.4-3.6h2.1l-1.4,3.6H485.5z"/>
		<path d="M489.4,346.2l1.1-1.3c0.8,1,1.9,1.5,2.9,1.5c1.5,0,2.3-0.7,2.3-1.7c0-1.3-0.9-1.9-3.1-1.9h-0.4l-0.2-1.5h0.7
			c2.2,0,2.7-0.7,2.7-1.6c0-0.8-0.5-1.4-1.9-1.4c-1,0-1.8,0.4-2.6,1.2l-0.9-1.4c0.9-0.9,2.2-1.5,3.8-1.5c2.4,0,3.6,1.2,3.6,2.8
			c0,1.4-0.8,2.3-2.1,2.6c1.7,0.3,2.4,1.3,2.4,2.8c0,2-1.6,3.3-4.1,3.3C491.6,348.1,490.3,347.4,489.4,346.2z"/>
		<path d="M498.7,340.2c0-2.1,1.1-3.5,2.8-3.5c1.7,0,2.8,1.4,2.8,3.5c0,2.1-1,3.5-2.8,3.5C499.8,343.7,498.7,342.3,498.7,340.2z
			 M502.8,340.2c0-1.4-0.4-2.3-1.2-2.3c-0.9,0-1.2,0.9-1.2,2.2c0,1.4,0.4,2.3,1.3,2.3C502.4,342.4,502.8,341.5,502.8,340.2z
			 M501.7,347.9l6.6-11.1h1.6l-6.6,11.1H501.7z M507.4,344.6c0-2.1,1.1-3.5,2.8-3.5c1.7,0,2.8,1.4,2.8,3.5c0,2.1-1,3.5-2.8,3.5
			S507.4,346.7,507.4,344.6z M511.4,344.6c0-1.4-0.4-2.3-1.2-2.3c-0.9,0-1.2,0.9-1.2,2.2c0,1.4,0.4,2.3,1.2,2.3
			C511,346.8,511.4,345.9,511.4,344.6z"/>
	</g>
	<g>
		<path d="M476.2,365.5v-11.1h1.1v11.1H476.2z"/>
		<path d="M479.8,365.5v-7.9h0.9l0.1,1.2c0.8-0.8,1.8-1.4,3-1.4c1.6,0,2.4,0.9,2.4,2.3v5.7h-1V360c0-1.1-0.5-1.7-1.6-1.7
			c-1,0-1.9,0.5-2.7,1.4v5.8H479.8z"/>
		<path d="M487.9,364.2l0.6-0.6c0.6,0.7,1.4,1.2,2.5,1.2c1.3,0,2.1-0.5,2.1-1.4c0-0.9-0.5-1.2-2.2-1.6c-1.9-0.5-2.7-1-2.7-2.3
			c0-1.1,1-2.1,2.7-2.1c1.3,0,2.2,0.4,2.9,1.1l-0.5,0.7c-0.6-0.6-1.4-1-2.4-1c-1.2,0-1.7,0.6-1.7,1.2c0,0.7,0.4,1.1,1.9,1.4
			c2.1,0.5,3,1,3,2.5c0,1.5-1.3,2.3-3.1,2.3C489.6,365.6,488.5,365,487.9,364.2z"/>
		<path d="M496.6,363.6v-5.1h-1.4v-0.9h1.4v-2.8l1-0.1v2.9h2.1v0.9h-2.1v5c0,0.8,0.3,1.3,1.2,1.3c0.3,0,0.6,0,0.8-0.1l0.1,0.9
			c-0.3,0-0.7,0.1-1.1,0.1C497.3,365.6,496.6,365,496.6,363.6z"/>
		<path d="M501.3,355.2c0-0.4,0.2-0.6,0.6-0.6c0.4,0,0.6,0.2,0.6,0.6c0,0.4-0.2,0.7-0.6,0.7C501.5,355.8,501.3,355.6,501.3,355.2z
			 M501.4,365.5v-7.9h1v7.9H501.4z"/>
		<path d="M505.3,363.6v-5.1H504v-0.9h1.4v-2.8l1-0.1v2.9h2.1v0.9h-2.1v5c0,0.8,0.3,1.3,1.2,1.3c0.3,0,0.6,0,0.8-0.1l0.1,0.9
			c-0.3,0-0.7,0.1-1.1,0.1C506,365.6,505.3,365,505.3,363.6z"/>
		<path d="M510,363.3v-5.7h1v5.5c0,1.1,0.5,1.6,1.6,1.6c1,0,1.9-0.5,2.8-1.4v-5.8h1v7.9h-0.9l-0.1-1.2c-0.8,0.8-1.8,1.4-3,1.4
			C510.8,365.6,510,364.8,510,363.3z"/>
		<path d="M518.3,361.5c0-2.8,1.8-4.1,3.5-4.1c1.4,0,2.4,0.8,2.9,1.9l-0.8,0.5c-0.4-1-1-1.5-2.1-1.5c-1.2,0-2.5,0.9-2.5,3.2
			c0,2,1,3.2,2.4,3.2c1.1,0,1.7-0.5,2.2-1.5l0.8,0.5c-0.7,1.3-1.6,1.9-3,1.9C519.9,365.6,518.3,364.2,518.3,361.5z"/>
		<path d="M526.5,355.2c0-0.4,0.2-0.6,0.6-0.6s0.6,0.2,0.6,0.6c0,0.4-0.2,0.7-0.6,0.7S526.5,355.6,526.5,355.2z M526.6,365.5v-7.9h1
			v7.9H526.6z"/>
		<path d="M529.6,361.5c0-2.6,1.6-4.1,3.6-4.1c1.9,0,3.6,1.5,3.6,4.1c0,2.6-1.6,4.1-3.6,4.1S529.6,364.2,529.6,361.5z M535.7,361.5
			c0-1.7-0.9-3.2-2.5-3.2c-1.6,0-2.5,1.4-2.5,3.2c0,1.8,0.9,3.2,2.5,3.2C534.7,364.8,535.7,363.4,535.7,361.5z"/>
		<path d="M538.6,365.5v-7.9h0.9l0.1,1.2c0.8-0.8,1.8-1.4,3-1.4c1.6,0,2.4,0.9,2.4,2.3v5.7h-1V360c0-1.1-0.5-1.7-1.6-1.7
			c-1,0-1.9,0.5-2.7,1.4v5.8H538.6z"/>
		<path d="M546.9,361.5c0-2.8,1.8-4.1,3.5-4.1c1.8,0,3.2,1.4,3.2,4.1v0.2h-5.7c0,1.9,1.1,3,2.6,3c1,0,1.8-0.4,2.5-1.2l0.5,0.7
			c-0.9,0.9-1.7,1.4-3.1,1.4C548.5,365.6,546.9,364.2,546.9,361.5z M552.6,360.9c-0.1-1.5-0.8-2.6-2.2-2.6c-1.1,0-2.2,0.9-2.4,2.6
			H552.6z"/>
		<path d="M555,364.2l0.6-0.6c0.6,0.7,1.4,1.2,2.5,1.2c1.3,0,2.1-0.5,2.1-1.4c0-0.9-0.5-1.2-2.2-1.6c-1.9-0.5-2.7-1-2.7-2.3
			c0-1.1,1-2.1,2.7-2.1c1.3,0,2.2,0.4,2.9,1.1l-0.5,0.7c-0.6-0.6-1.4-1-2.4-1c-1.2,0-1.7,0.6-1.7,1.2c0,0.7,0.4,1.1,1.9,1.4
			c2.1,0.5,3,1,3,2.5c0,1.5-1.3,2.3-3.1,2.3C556.6,365.6,555.6,365,555,364.2z"/>
	</g>
	<g>
		<path d="M423.2,389.6v-0.2c0-1.6,0.6-3.2,3.5-5c1.7-1.1,2.4-1.6,2.4-2.8c0-1-0.6-1.6-1.8-1.6c-1,0-2,0.6-2.6,1.8l-1.3-1.1
			c0.9-1.5,2.1-2.3,3.9-2.3c2.2,0,3.6,1.3,3.6,3.2c0,1.3-0.5,2.4-2.6,3.7c-1.7,1.1-2.8,2-2.9,2.8h5.4l0.2,1.6H423.2z"/>
		<path d="M432.7,391.3l0.4-3.6h2.1l-1.4,3.6H432.7z"/>
		<path d="M436.3,384.2c0-3.9,2.2-6,4.8-6c1.3,0,2.1,0.4,2.8,0.9l-0.7,1.5c-0.6-0.5-1.2-0.8-2.1-0.8c-1.8,0-2.9,1.4-3,3.8
			c0.8-0.7,1.7-1.2,2.9-1.2c2.1,0,3.5,1.2,3.5,3.5c0,2.2-1.6,3.8-4,3.8C438.2,389.8,436.3,387.9,436.3,384.2z M442.9,386.1
			c0-1.1-0.5-2-2.1-2c-1.1,0-2,0.4-2.6,1.1c0.2,2.1,1.1,3,2.5,3C442,388.2,442.9,387.3,442.9,386.1z"/>
		<path d="M445.6,381.8c0-2.1,1.1-3.5,2.8-3.5c1.7,0,2.8,1.4,2.8,3.5c0,2.1-1,3.5-2.8,3.5C446.6,385.3,445.6,383.9,445.6,381.8z
			 M449.6,381.8c0-1.4-0.4-2.3-1.2-2.3c-0.9,0-1.2,0.9-1.2,2.2c0,1.4,0.4,2.3,1.3,2.3C449.2,384.1,449.6,383.2,449.6,381.8z
			 M448.6,389.6l6.6-11.1h1.6l-6.6,11.1H448.6z M454.2,386.2c0-2.1,1.1-3.5,2.8-3.5c1.7,0,2.8,1.4,2.8,3.5c0,2.1-1,3.5-2.8,3.5
			S454.2,388.3,454.2,386.2z M458.2,386.2c0-1.4-0.4-2.3-1.2-2.3c-0.9,0-1.2,0.9-1.2,2.2c0,1.4,0.4,2.3,1.2,2.3
			C457.9,388.5,458.2,387.6,458.2,386.2z"/>
	</g>
	<g>
		<path d="M423.5,407.1V396h6.6v1h-5.6v3.8h4.2l0.2,1h-4.3v4.4h5.9v1H423.5z"/>
		<path d="M432.1,407.1v-7.9h0.9l0.1,1.2c0.8-0.8,1.7-1.4,2.9-1.4c1.3,0,2,0.6,2.2,1.4c0.8-0.8,1.8-1.4,3-1.4c1.6,0,2.3,0.9,2.3,2.3
			v5.7h-1v-5.5c0-1.1-0.4-1.6-1.5-1.6c-1,0-1.8,0.5-2.6,1.4v5.8h-1v-5.5c0-1.1-0.4-1.6-1.5-1.6c-0.9,0-1.8,0.5-2.6,1.4v5.8H432.1z"
			/>
		<path d="M445.8,410.2v-11h0.9l0.1,1.1c0.6-0.7,1.5-1.3,2.6-1.3c1.8,0,3.3,1.3,3.3,4.1s-1.5,4.1-3.3,4.1c-1.1,0-1.9-0.5-2.6-1.2v4
			L445.8,410.2z M451.7,403.2c0-2.2-1.1-3.2-2.4-3.2c-1,0-1.7,0.5-2.5,1.3v3.9c0.8,0.8,1.5,1.3,2.5,1.3
			C450.7,406.4,451.7,405.5,451.7,403.2z"/>
		<path d="M454.7,407.1v-11l1-0.2v11.2H454.7z"/>
		<path d="M457.7,403.2c0-2.8,1.8-4.1,3.5-4.1c1.8,0,3.2,1.4,3.2,4.1v0.2h-5.7c0,1.9,1.1,3,2.6,3c1,0,1.8-0.4,2.5-1.2l0.5,0.7
			c-0.9,0.9-1.7,1.4-3.1,1.4C459.3,407.3,457.7,405.9,457.7,403.2z M463.4,402.6c-0.1-1.5-0.8-2.6-2.2-2.6c-1.1,0-2.2,0.9-2.4,2.6
			H463.4z"/>
		<path d="M465.9,405.3c0-1.6,1.3-2.7,5.4-3.3v-0.4c0-1.1-0.6-1.6-1.6-1.6c-1.2,0-2.1,0.5-2.9,1.2l-0.6-0.6c0.9-0.9,2-1.5,3.6-1.5
			c1.8,0,2.6,0.9,2.6,2.5v5.5h-0.9l-0.1-1.1c-0.9,0.8-1.9,1.3-3.1,1.3C466.7,407.3,465.9,406.5,465.9,405.3z M471.2,405.2v-2.5
			c-3.5,0.6-4.3,1.4-4.3,2.4c0,0.8,0.5,1.3,1.4,1.3C469.4,406.4,470.4,406,471.2,405.2z"/>
		<path d="M474.1,403.2c0-2.8,1.5-4.1,3.3-4.1c1.1,0,2,0.5,2.6,1.2v-4.2l1-0.2v11.2h-0.9L480,406c-0.6,0.7-1.5,1.3-2.6,1.3
			C475.6,407.3,474.1,406,474.1,403.2z M480,405.1v-3.9c-0.8-0.8-1.5-1.3-2.5-1.3c-1.3,0-2.4,1-2.4,3.2c0,2.2,1.1,3.2,2.4,3.2
			C478.5,406.4,479.2,405.9,480,405.1z"/>
		<path d="M483,403.2c0-2.6,1.6-4.1,3.6-4.1c1.9,0,3.6,1.5,3.6,4.1c0,2.6-1.6,4.1-3.6,4.1C484.6,407.3,483,405.8,483,403.2z
			 M489.1,403.2c0-1.7-0.9-3.2-2.5-3.2c-1.6,0-2.6,1.4-2.6,3.2c0,1.8,0.9,3.2,2.6,3.2C488.1,406.4,489.1,405.1,489.1,403.2z"/>
		<path d="M491.4,405.9l0.6-0.6c0.6,0.7,1.4,1.2,2.5,1.2c1.4,0,2.1-0.5,2.1-1.4c0-0.9-0.5-1.2-2.2-1.6c-1.9-0.5-2.7-1-2.7-2.3
			c0-1.1,1-2.1,2.7-2.1c1.3,0,2.2,0.4,2.9,1.1l-0.5,0.7c-0.6-0.6-1.4-1-2.4-1c-1.2,0-1.7,0.6-1.7,1.2c0,0.7,0.4,1.1,1.9,1.4
			c2.1,0.5,3,1,3,2.5c0,1.5-1.3,2.3-3.1,2.3C493,407.3,492,406.7,491.4,405.9z"/>
	</g>
	<g>
		<path d="M340.3,431.8v-9.4l-2.1,0.6l-0.2-1.5l2.4-0.8h1.7v11.1H340.3z"/>
		<path d="M344.5,433.5l0.4-3.6h2.1l-1.4,3.6H344.5z"/>
		<path d="M353.6,431.8v-2.3h-5.4v-1.5l5.1-7.3h2.1v7.2h1.8l0.2,1.6h-1.9v2.3H353.6z M350.2,427.9h3.4v-5h0L350.2,427.9z"/>
		<path d="M357.7,424.1c0-2.1,1.1-3.5,2.8-3.5c1.7,0,2.8,1.4,2.8,3.5c0,2.1-1,3.5-2.8,3.5C358.7,427.6,357.7,426.2,357.7,424.1z
			 M361.7,424.1c0-1.4-0.4-2.3-1.2-2.3c-0.9,0-1.2,0.9-1.2,2.2c0,1.4,0.4,2.3,1.3,2.3C361.3,426.4,361.7,425.4,361.7,424.1z
			 M360.7,431.8l6.6-11.1h1.6l-6.6,11.1H360.7z M366.3,428.5c0-2.1,1.1-3.5,2.8-3.5c1.7,0,2.8,1.4,2.8,3.5c0,2.1-1,3.5-2.8,3.5
			S366.3,430.6,366.3,428.5z M370.3,428.5c0-1.4-0.4-2.3-1.2-2.3c-0.9,0-1.2,0.9-1.2,2.2c0,1.4,0.4,2.3,1.2,2.3
			C370,430.8,370.3,429.8,370.3,428.5z"/>
	</g>
	<g>
		<path d="M338.1,449.4v-11.1h3.9c2.5,0,3.8,1,3.8,2.8c0,1.5-1,2.3-2.1,2.6v0c1.3,0.2,2.5,1.1,2.5,2.7c0,1.8-1.2,3-3.8,3H338.1z
			 M339.2,443.2h2.7c1.8,0,2.8-0.6,2.8-2c0-1.3-0.9-2-2.8-2h-2.7V443.2z M339.2,448.4h3.1c1.9,0,2.8-0.8,2.8-2.1
			c0-1.5-1.2-2.2-3.1-2.2h-2.8V448.4z"/>
		<path d="M347.7,447.5c0-1.6,1.3-2.7,5.4-3.3v-0.4c0-1.1-0.6-1.6-1.6-1.6c-1.2,0-2.1,0.5-2.9,1.2l-0.6-0.6c0.9-0.9,2-1.5,3.6-1.5
			c1.8,0,2.6,0.9,2.6,2.5v5.5h-0.9l-0.1-1.1c-0.9,0.8-1.9,1.3-3.1,1.3C348.5,449.5,347.7,448.8,347.7,447.5z M353,447.4V445
			c-3.5,0.6-4.3,1.4-4.3,2.4c0,0.8,0.5,1.3,1.4,1.3C351.2,448.7,352.2,448.2,353,447.4z"/>
		<path d="M356.3,449.4v-7.9h0.9l0.1,1.2c0.8-0.8,1.8-1.4,3-1.4c1.6,0,2.4,0.9,2.4,2.3v5.7h-1v-5.5c0-1.1-0.5-1.7-1.6-1.7
			c-1,0-1.9,0.5-2.7,1.4v5.8H356.3z"/>
		<path d="M364.6,445.4c0-2.8,1.8-4.1,3.5-4.1c1.4,0,2.4,0.8,2.9,1.9l-0.8,0.5c-0.4-1-1-1.5-2.1-1.5c-1.2,0-2.5,0.9-2.5,3.2
			c0,2,1,3.2,2.4,3.2c1.1,0,1.7-0.5,2.2-1.5l0.8,0.5c-0.7,1.3-1.6,1.9-3,1.9C366.2,449.5,364.6,448.1,364.6,445.4z"/>
		<path d="M372.3,445.4c0-2.6,1.6-4.1,3.6-4.1c1.9,0,3.6,1.5,3.6,4.1c0,2.6-1.6,4.1-3.6,4.1C374,449.5,372.3,448.1,372.3,445.4z
			 M378.4,445.4c0-1.7-0.9-3.2-2.5-3.2c-1.6,0-2.5,1.4-2.5,3.2c0,1.8,0.9,3.2,2.5,3.2C377.5,448.7,378.4,447.3,378.4,445.4z"/>
		<path d="M380.7,448.1l0.6-0.6c0.6,0.7,1.4,1.2,2.5,1.2c1.3,0,2.1-0.5,2.1-1.4c0-0.9-0.5-1.2-2.2-1.6c-1.9-0.5-2.7-1-2.7-2.3
			c0-1.1,1-2.1,2.7-2.1c1.3,0,2.2,0.4,2.9,1.1l-0.5,0.7c-0.6-0.6-1.4-1-2.4-1c-1.2,0-1.7,0.6-1.7,1.2c0,0.7,0.4,1.1,1.9,1.4
			c2.1,0.5,3,1,3,2.5c0,1.5-1.3,2.3-3.1,2.3C382.4,449.5,381.3,448.9,380.7,448.1z"/>
	</g>
	<g>
		<path d="M5.7,346.2v-2.3H0.3v-1.5l5.1-7.3h2.1v7.2h1.8l0.2,1.6H7.5v2.3H5.7z M2.3,342.3h3.4v-5h0L2.3,342.3z"/>
		<path d="M10.3,344.7l0.9-1.4c0.7,0.8,1.7,1.4,2.9,1.4c1.6,0,2.4-1,2.4-2.2c0-1.4-0.8-2.2-2.2-2.2c-0.9,0-1.7,0.3-2.2,1.1l-1.2-0.4
			l0.4-5.9h6.2l0.3,1.7h-5.1l-0.3,2.9c0.5-0.5,1.2-0.8,2.3-0.8c2.2,0,3.5,1.5,3.5,3.7c0,2.3-1.6,3.9-4.2,3.9
			C12.4,346.4,11.1,345.7,10.3,344.7z"/>
		<path d="M19.5,347.8l0.4-3.6H22l-1.4,3.6H19.5z"/>
		<path d="M28.6,346.2v-2.3h-5.4v-1.5l5.1-7.3h2.1v7.2h1.8l0.2,1.6h-1.9v2.3H28.6z M25.3,342.3h3.4v-5h0L25.3,342.3z"/>
		<path d="M32.7,338.4c0-2.1,1.1-3.5,2.8-3.5c1.7,0,2.8,1.4,2.8,3.5c0,2.1-1,3.5-2.8,3.5C33.7,341.9,32.7,340.5,32.7,338.4z
			 M36.7,338.4c0-1.4-0.4-2.3-1.2-2.3c-0.9,0-1.2,0.9-1.2,2.2c0,1.4,0.4,2.3,1.3,2.3C36.3,340.7,36.7,339.7,36.7,338.4z M35.7,346.2
			l6.6-11.1h1.6l-6.6,11.1H35.7z M41.4,342.8c0-2.1,1.1-3.5,2.8-3.5c1.7,0,2.8,1.4,2.8,3.5c0,2.1-1,3.5-2.8,3.5
			S41.4,344.9,41.4,342.8z M45.4,342.8c0-1.4-0.4-2.3-1.2-2.3c-0.9,0-1.2,0.9-1.2,2.2c0,1.4,0.4,2.3,1.2,2.3
			C45,345.1,45.4,344.1,45.4,342.8z"/>
	</g>
	<g>
		<path d="M1.3,364.7v-11.1h3.7c2.5,0,3.8,1,3.8,3c0,1.8-1,2.7-2.6,3l2.8,5L8,364.8l-2.8-5.1H2.4v5H1.3z M2.4,358.8H5
			c1.8,0,2.9-0.5,2.9-2.1c0-1.5-1-2.1-2.9-2.1H2.4V358.8z"/>
		<path d="M10.4,360.7c0-2.8,1.8-4.1,3.5-4.1c1.8,0,3.2,1.4,3.2,4.1v0.2h-5.7c0,1.9,1.1,3,2.6,3c1,0,1.8-0.4,2.5-1.2l0.5,0.7
			c-0.9,0.9-1.7,1.4-3.1,1.4C12,364.9,10.4,363.4,10.4,360.7z M16.1,360.1c-0.1-1.5-0.8-2.6-2.2-2.6c-1.1,0-2.2,0.9-2.4,2.6H16.1z"
			/>
		<path d="M18.5,363.4l0.6-0.6c0.6,0.7,1.4,1.2,2.5,1.2c1.3,0,2.1-0.5,2.1-1.4c0-0.9-0.5-1.2-2.2-1.6c-1.9-0.5-2.7-1-2.7-2.3
			c0-1.1,1-2.1,2.7-2.1c1.3,0,2.2,0.4,2.9,1.1l-0.5,0.7c-0.6-0.6-1.4-1-2.4-1c-1.2,0-1.7,0.6-1.7,1.2c0,0.7,0.4,1.1,1.9,1.4
			c2.1,0.5,3,1,3,2.5c0,1.5-1.3,2.3-3.1,2.3C20.2,364.8,19.1,364.2,18.5,363.4z"/>
		<path d="M26.4,354.4c0-0.4,0.2-0.6,0.6-0.6c0.4,0,0.6,0.2,0.6,0.6c0,0.4-0.2,0.7-0.6,0.7C26.7,355.1,26.4,354.8,26.4,354.4z
			 M26.6,364.7v-7.9h1v7.9H26.6z"/>
		<path d="M29.5,360.8c0-2.8,1.5-4.1,3.3-4.1c1.1,0,2,0.5,2.6,1.2v-4.2l1-0.1v11.2h-0.9l-0.1-1.1c-0.6,0.7-1.5,1.3-2.6,1.3
			C31,364.8,29.5,363.5,29.5,360.8z M35.4,362.7v-3.9c-0.8-0.8-1.5-1.3-2.5-1.3c-1.3,0-2.4,1-2.4,3.2c0,2.2,1.1,3.2,2.4,3.2
			C33.9,364,34.6,363.5,35.4,362.7z"/>
		<path d="M38.4,360.7c0-2.8,1.8-4.1,3.5-4.1c1.8,0,3.2,1.4,3.2,4.1v0.2h-5.7c0,1.9,1.1,3,2.6,3c1,0,1.8-0.4,2.5-1.2l0.5,0.7
			c-0.9,0.9-1.7,1.4-3.1,1.4C40,364.9,38.4,363.4,38.4,360.7z M44.1,360.1c-0.1-1.5-0.8-2.6-2.2-2.6c-1.1,0-2.2,0.9-2.4,2.6H44.1z"
			/>
		<path d="M47,364.7v-7.9h0.9l0.1,1.2c0.8-0.8,1.8-1.4,3-1.4c1.6,0,2.4,0.9,2.4,2.3v5.7h-1v-5.5c0-1.1-0.5-1.7-1.6-1.7
			c-1,0-1.9,0.5-2.7,1.4v5.8H47z"/>
		<path d="M56.1,362.8v-5.1h-1.4v-0.9h1.4V354l1-0.2v2.9h2.1v0.9h-2.1v5c0,0.8,0.3,1.3,1.2,1.3c0.3,0,0.6,0,0.8-0.1l0.1,0.9
			c-0.3,0-0.7,0.1-1.1,0.1C56.8,364.8,56.1,364.3,56.1,362.8z"/>
		<path d="M60.2,360.7c0-2.8,1.8-4.1,3.5-4.1c1.8,0,3.2,1.4,3.2,4.1v0.2h-5.7c0,1.9,1.1,3,2.6,3c1,0,1.8-0.4,2.5-1.2l0.5,0.7
			c-0.9,0.9-1.7,1.4-3.1,1.4C61.8,364.9,60.2,363.4,60.2,360.7z M65.9,360.1c-0.1-1.5-0.8-2.6-2.2-2.6c-1.1,0-2.2,0.9-2.4,2.6H65.9z
			"/>
		<path d="M68.3,363.4l0.6-0.6c0.6,0.7,1.4,1.2,2.5,1.2c1.3,0,2.1-0.5,2.1-1.4c0-0.9-0.5-1.2-2.2-1.6c-1.9-0.5-2.7-1-2.7-2.3
			c0-1.1,1-2.1,2.7-2.1c1.3,0,2.2,0.4,2.9,1.1l-0.5,0.7c-0.6-0.6-1.4-1-2.4-1c-1.2,0-1.7,0.6-1.7,1.2c0,0.7,0.4,1.1,1.9,1.4
			c2.1,0.5,3,1,3,2.5c0,1.5-1.3,2.3-3.1,2.3C69.9,364.8,68.9,364.2,68.3,363.4z"/>
	</g>
	<g>
		<path class="st4" d="M224.8,246l3.9-11.1h1.8l3.9,11l-1.8,0.3l-0.9-2.8h-4.2l-0.9,2.6H224.8z M228,241.8h3.1l-1.5-4.5h0L228,241.8
			z"/>
		<path class="st4" d="M235.4,240.5c0-3.6,2.1-5.7,4.8-5.7c2.1,0,3.4,0.9,4.2,2.6l-1.6,0.9c-0.4-1-1.2-1.8-2.6-1.8
			c-1.9,0-2.9,1.6-2.9,4c0,2.6,1.1,4.1,3,4.1c1.4,0,2.3-0.8,2.7-2.1l1.6,0.7c-0.7,1.8-2,3-4.3,3
			C237.4,246.2,235.4,244.2,235.4,240.5z"/>
		<path class="st4" d="M246.2,240.5c0-3.6,2.1-5.7,4.8-5.7c2.1,0,3.4,0.9,4.2,2.6l-1.6,0.9c-0.4-1-1.2-1.8-2.6-1.8
			c-1.9,0-2.9,1.6-2.9,4c0,2.6,1.1,4.1,3,4.1c1.4,0,2.3-0.8,2.7-2.1l1.6,0.7c-0.7,1.8-2,3-4.3,3
			C248.2,246.2,246.2,244.2,246.2,240.5z"/>
		<path class="st4" d="M257.5,246v-11.1h1.9V246H257.5z"/>
		<path class="st4" d="M261.6,240.5c0-3.7,2.3-5.8,5-5.8c2.7,0,5,2,5,5.8c0,3.7-2.3,5.8-5,5.8C263.9,246.2,261.6,244.2,261.6,240.5z
			 M269.8,240.5c0-2.5-1.3-4-3.1-4c-1.9,0-3.1,1.5-3.1,4s1.3,4.1,3.1,4.1C268.5,244.6,269.8,243,269.8,240.5z"/>
		<path class="st4" d="M273.9,246v-11.1h1.9l5.2,7.9h0v-7.9h1.7V246h-1.7l-5.5-8.1h0v8.1H273.9z"/>
		<path class="st4" d="M285.6,246v-11.1h1.9V246H285.6z"/>
		<path class="st4" d="M289.4,244.4l1-1.4c0.9,0.9,2.2,1.6,3.6,1.6c1.4,0,2.3-0.5,2.3-1.4c0-1-0.7-1.4-2.5-2
			c-2.1-0.6-3.9-1.2-3.9-3.3c0-1.9,1.6-3.1,3.8-3.1c1.7,0,3.1,0.7,4.1,1.6l-0.9,1.5c-0.9-0.8-2.1-1.4-3.2-1.4c-1.3,0-2,0.6-2,1.3
			c0,1,0.8,1.4,2.6,1.9c2.1,0.6,3.8,1.3,3.8,3.4c0,1.8-1.5,3.2-4.1,3.2C292.1,246.2,290.6,245.4,289.4,244.4z"/>
		<path class="st4" d="M303.1,246v-9.4h-3.4v-1.7h8.6l0.3,1.7H305v9.4H303.1z"/>
		<path class="st4" d="M308.3,246l3.9-11.1h1.8l3.9,11l-1.8,0.3l-0.9-2.8h-4.2L310,246H308.3z M311.5,241.8h3.1l-1.5-4.5h0
			L311.5,241.8z"/>
		<path class="st4" d="M319.2,244.4l1-1.4c0.9,0.9,2.2,1.6,3.6,1.6c1.4,0,2.3-0.5,2.3-1.4c0-1-0.7-1.4-2.5-2
			c-2.1-0.6-3.9-1.2-3.9-3.3c0-1.9,1.6-3.1,3.8-3.1c1.7,0,3.1,0.7,4.1,1.6l-0.9,1.5c-0.9-0.8-2.1-1.4-3.2-1.4c-1.3,0-2,0.6-2,1.3
			c0,1,0.8,1.4,2.6,1.9c2.1,0.6,3.8,1.3,3.8,3.4c0,1.8-1.5,3.2-4.1,3.2C321.9,246.2,320.3,245.4,319.2,244.4z"/>
	</g>
	<g>
		<path class="st6" d="M188.5,209.9l1.4-1.9c2.3,2,4.2,3.1,8.1,3.1c7.2,0,11.6-8,11.5-17.9c-2.3,2.7-5.9,5.4-10.9,5.4
			c-8.1,0-11.5-5.2-11.5-11.5c0-6.8,4.6-12.2,12.1-12.2c6.8,0,12.7,5.7,12.7,18.6c0,10.8-5.5,19.9-13.9,19.9
			C193.6,213.3,190.7,211.9,188.5,209.9z M209.3,190.2c-0.8-9.1-5.2-13.1-10.3-13.1c-5.6,0-9.4,3.5-9.4,10c0,5.4,2.8,9.3,9.1,9.3
			C203,196.4,206.8,193.9,209.3,190.2z"/>
		<path class="st6" d="M214.8,206.3l2-1.2c2.7,4.3,6.1,6.1,10.4,6.1c5.8,0,9.4-3.5,9.4-8.3c0-5.8-3.2-8.9-12.5-8.9h-1.3v-2.2h1.6
			c8.1,0,11.5-2.5,11.5-7.6c0-4-2.4-7.2-8.4-7.2c-4,0-6.8,2-8.9,4.8l-2-1.3c2.5-3.2,6-5.8,11-5.8c7.8,0,10.8,4.7,10.8,9.2
			c0,4.9-3,8.1-7.6,8.8c5.6,1.2,8.3,4.2,8.3,9.9c0,5.9-4.5,10.6-11.9,10.6C221.9,213.3,217.4,210.7,214.8,206.3z"/>
		<path class="st6" d="M243.6,206.3l2.1-1.2c2.1,3.6,5.2,6.1,9.8,6.1c6.7,0,9.8-5.3,9.8-10.6c0-6.4-3.9-10-8.9-10
			c-4.1,0-6.8,2-8.9,5l-2.1-0.8l1.4-19.2h18.4l0.4,2.4H249l-1.1,14.1c1.9-2.3,4.4-3.7,8.4-3.7c6.4,0,11.3,4.6,11.3,12
			c0,7.3-4.7,12.9-12.3,12.9C250.1,213.3,245.9,210.4,243.6,206.3z"/>
		<path class="st6" d="M273.2,210.6c0-1.4,0.8-2.2,1.9-2.2c1.1,0,1.9,0.8,1.9,2.2c0,1.5-0.8,2.2-1.9,2.2
			C274,212.8,273.2,212,273.2,210.6z"/>
		<path class="st6" d="M283.8,212.6v-0.8c0-5.4,3-10.2,12.7-16.4c5.5-3.5,7.8-6.3,7.8-10.4c0-4.7-2.8-8-8.2-8
			c-4.3,0-7.3,2.2-9.4,6.8l-2.1-1c2.4-5.2,6.5-8,11.6-8c6.5,0,10.6,4.2,10.6,10c0,5.3-2.8,8.4-9.9,12.9c-7,4.5-10.4,8.9-10.5,12.5
			h20.3l0.4,2.3H283.8z"/>
		<path class="st6" d="M310.7,203.8c0-5.3,3.7-8.1,10.2-10.9c-5.2-2.3-8.5-4.8-8.5-9.2c0-4.6,4.2-8.8,11.1-8.8
			c7.1,0,11.1,4.3,11.1,8.8c0,4.5-3.1,6.7-8.6,9.1c6.7,2.9,10.3,5.6,10.3,11c0,5-4.7,9.5-12.8,9.5S310.7,208.9,310.7,203.8z
			 M333.8,203.7c0-4.5-3.8-6.9-10.5-9.7c-7.2,3.2-10.3,5.5-10.3,9.7c0,4.3,4.4,7.5,10.4,7.5S333.8,208.2,333.8,203.7z M332.1,183.7
			c0-3.2-2.7-6.6-8.7-6.6c-5.7,0-8.7,3.3-8.7,6.5c0,3.7,2.6,5.5,8.7,8.2C329.6,189.2,332.1,187.5,332.1,183.7z"/>
		<path class="st6" d="M358.1,212.6v-9.5h-17.8v-1.8l16.9-25.8h3.3v25.3h6.1l0.4,2.2h-6.5v9.5H358.1z M343.3,200.9h14.8v-22.4H358
			L343.3,200.9z"/>
	</g>
	<g>
		<rect x="93.5" y="349.8" class="st6" width="235" height="1"/>
	</g>
	<g>
		<rect x="93.5" y="93.8" class="st6" width="73" height="1"/>
	</g>
	<g>
		<rect x="473.5" y="191.8" class="st6" width="20" height="1"/>
	</g>
	<g>
		<rect x="416.5" y="346.8" class="st6" width="48" height="1"/>
	</g>
	<g>
		<rect x="358.5" y="389.8" class="st6" width="58" height="1"/>
	</g>
	<g>
		<rect x="335" y="401.3" class="st6" width="1" height="17"/>
	</g>
</g>
</svg>
