<?xml version="1.0" encoding="UTF-8" standalone="no"?>
<svg width="580px" height="451px" viewBox="0 0 580 451" version="1.1" xmlns="http://www.w3.org/2000/svg" xmlns:xlink="http://www.w3.org/1999/xlink">
    <!-- Generator: Sketch 41.2 (35397) - http://www.bohemiancoding.com/sketch -->
    <title>Group 8</title>
    <desc>Created with Sketch.</desc>
    <defs>
        <polygon id="path-1" points="205.681301 0.592 0.1198 0.592 0.1198 329.8444 205.681301 329.8444 205.681301 0.592"></polygon>
    </defs>
    <g id="Page-1" stroke="none" stroke-width="1" fill="none" fill-rule="evenodd">
        <g id="Group-8" transform="translate(0.000000, -1.000000)">
            <g id="Page-1">
                <g id="Group-15" transform="translate(0.000000, 0.408000)">
                    <g id="Group-3" transform="translate(275.000000, 0.000000)">
                        <mask id="mask-2" fill="white">
                            <use xlink:href="#path-1"></use>
                        </mask>
                        <g id="Clip-2"></g>
                        <path d="M123.8228,41.9824 C87.4668,14.5864 45.6418,0.5914 0.1198,0.5914 L0.1198,14.7094 L0.1258,14.7094 C105.8508,14.7094 191.5578,100.4164 191.5578,206.1414 C191.5578,249.3974 177.2048,289.2974 153.0098,321.3534 L164.2798,329.8444 C232.5978,239.1824 214.4858,110.3014 123.8228,41.9824" id="Fill-1" fill="#001B45" mask="url(#mask-2)"></path>
                    </g>
                    <path d="M373.7271,370.2515 L380.9861,382.3325 C405.5071,367.5985 422.0621,352.6915 439.2791,329.8445 L428.0101,321.3535 C413.2431,340.9185 394.8091,357.5575 373.7271,370.2515" id="Fill-4" fill="#0086CD"></path>
                    <path d="M343.7373,384.897 L348.7823,398.039 C359.8043,393.808 370.8653,388.413 380.9863,382.332 L373.7273,370.251 C364.2363,375.966 354.2073,380.876 343.7373,384.897" id="Fill-6" fill="#00A6E8"></path>
                    <path d="M327.8984,390.2026 L331.7764,403.7286 C337.8874,401.9766 342.8474,400.3166 348.7824,398.0386 L343.7374,384.8966 C338.5614,386.8846 333.2804,388.6626 327.8984,390.2026" id="Fill-8" fill="#C9EDFC"></path>
                    <path d="M428.4697,163.2617 C408.5787,93.8947 346.7097,47.2727 274.5477,47.2727 L274.5477,61.2007 C355.2897,61.2007 420.7437,126.6557 420.7437,207.3977 C420.7437,274.1587 375.9937,330.4657 314.8537,347.9647 L318.6837,361.3197 C403.6927,336.9437 452.8447,248.2707 428.4697,163.2617" id="Fill-10" fill="#00BEFF"></path>
                    <path d="M274.5474,353.5947 C193.8054,353.5947 128.3504,288.1397 128.3504,207.3977 C128.3504,126.6557 193.8054,61.2007 274.5474,61.2007 L274.5474,47.2727 C186.1124,47.2727 114.4224,118.9637 114.4224,207.3977 C114.4224,295.8327 186.1124,367.5227 274.5474,367.5227 C290.8194,367.5227 303.0424,365.8047 318.6844,361.3197 L314.8544,347.9647 C302.0504,351.6287 288.5284,353.5947 274.5474,353.5947" id="Fill-12" fill="#F3F3F3"></path>
                    <path d="M4.335,99.1186635 C6.915,99.1186635 8.49,97.4836635 8.49,95.1736635 C8.49,92.9836635 7.17,91.4986635 4.95,91.4986635 C3.795,91.4986635 3.06,91.8586635 2.61,92.3236635 L2.865,89.4586635 L7.92,89.4586635 L7.605,87.8086635 L1.395,87.8086635 L0.96,93.7036635 L2.205,94.1236635 C2.745,93.4036635 3.54,93.0586635 4.455,93.0586635 C5.805,93.0586635 6.63,93.8536635 6.63,95.2486635 C6.63,96.4486635 5.895,97.4686635 4.245,97.4686635 C3.06,97.4686635 2.04,96.8686635 1.32,96.0436635 L0.45,97.4836635 C1.335,98.4586635 2.625,99.1186635 4.335,99.1186635 Z M17.156,98.9086635 L17.156,96.6286635 L19.091,96.6286635 L18.926,95.0086635 L17.156,95.0086635 L17.156,87.8086635 L15.041,87.8086635 L9.986,95.1586635 L9.986,96.6286635 L15.341,96.6286635 L15.341,98.9086635 L17.156,98.9086635 Z M15.311,90.0286635 L15.341,90.0286635 L15.341,95.0086635 L11.951,95.0086635 L15.311,90.0286635 Z M21.4795,100.588664 L22.8295,96.9586635 L20.7745,96.9586635 L20.3845,100.588664 L21.4795,100.588664 Z M28.074,99.1186635 C30.504,99.1186635 32.079,97.5586635 32.079,95.3386635 C32.079,93.0586635 30.669,91.8436635 28.554,91.8436635 C27.324,91.8436635 26.364,92.3686635 25.614,93.0436635 C25.704,90.6586635 26.829,89.2336635 28.629,89.2336635 C29.469,89.2336635 30.054,89.4886635 30.684,89.9836635 L31.374,88.4686635 C30.759,88.0186635 29.889,87.5986635 28.614,87.5986635 C26.034,87.5986635 23.784,89.6386635 23.784,93.5536635 C23.784,97.2586635 25.629,99.1186635 28.074,99.1186635 Z M28.164,97.5286635 C26.754,97.5286635 25.779,96.5536635 25.629,94.4986635 C26.214,93.8086635 27.144,93.4036635 28.209,93.4036635 C29.769,93.4036635 30.309,94.3186635 30.309,95.4136635 C30.309,96.6436635 29.499,97.5286635 28.164,97.5286635 Z M36.164,94.6486635 C37.919,94.6486635 38.954,93.2236635 38.954,91.1236635 C38.954,89.0086635 37.889,87.6436635 36.179,87.6436635 C34.454,87.6436635 33.374,89.0086635 33.374,91.1536635 C33.374,93.2536635 34.394,94.6486635 36.164,94.6486635 Z M37.979,98.9086635 L44.609,87.8086635 L43.004,87.8086635 L36.374,98.9086635 L37.979,98.9086635 Z M36.179,93.4336635 C35.324,93.4336635 34.919,92.5336635 34.919,91.1236635 C34.919,89.7886635 35.309,88.8736635 36.164,88.8736635 C36.989,88.8736635 37.394,89.7586635 37.394,91.1536635 C37.394,92.4886635 37.004,93.4336635 36.179,93.4336635 Z M44.819,99.0586635 C46.574,99.0586635 47.609,97.6186635 47.609,95.5336635 C47.609,93.4186635 46.544,92.0386635 44.834,92.0386635 C43.109,92.0386635 42.029,93.4186635 42.029,95.5636635 C42.029,97.6486635 43.064,99.0586635 44.819,99.0586635 Z M44.834,97.8286635 C43.979,97.8286635 43.589,96.9436635 43.589,95.5336635 C43.589,94.1986635 43.964,93.2836635 44.819,93.2836635 C45.659,93.2836635 46.049,94.1536635 46.049,95.5486635 C46.049,96.8836635 45.674,97.8286635 44.834,97.8286635 Z" id="54,6%" fill="#000000"></path>
                    <path d="M2.43,113.463664 L2.43,104.028664 L2.46,104.028664 L8.775,113.463664 L9.72,113.463664 L9.72,102.363664 L8.715,102.363664 L8.715,111.513664 L8.685,111.513664 L2.565,102.363664 L1.425,102.363664 L1.425,113.463664 L2.43,113.463664 Z M15.4645,113.628664 C17.3995,113.628664 19.0345,112.143664 19.0345,109.518664 C19.0345,106.878664 17.3995,105.408664 15.4645,105.408664 C13.5145,105.408664 11.8795,106.878664 11.8795,109.518664 C11.8795,112.143664 13.5295,113.628664 15.4645,113.628664 Z M15.4645,112.743664 C13.7695,112.743664 12.9145,111.273664 12.9145,109.518664 C12.9145,107.658664 13.8595,106.293664 15.4645,106.293664 C17.1295,106.293664 17.9995,107.778664 17.9995,109.518664 C17.9995,111.378664 17.0545,112.743664 15.4645,112.743664 Z M25.4355,113.463664 L25.4355,108.318664 C26.0355,107.073664 27.0855,106.353664 28.3905,106.353664 C28.4205,106.353664 28.7355,106.353664 28.7655,106.368664 L28.6755,105.408664 L28.5705,105.408664 C27.0255,105.408664 26.0655,106.158664 25.4655,107.118664 L25.4355,107.118664 L25.3305,105.573664 L24.4005,105.573664 L24.4005,113.463664 L25.4355,113.463664 Z M32.7805,113.628664 C34.1005,113.628664 34.9705,113.178664 35.8405,112.263664 L35.3305,111.588664 C34.5955,112.353664 33.8455,112.758664 32.7955,112.758664 C31.3255,112.758664 30.2155,111.648664 30.2005,109.713664 L35.8555,109.713664 L35.8555,109.518664 C35.8555,106.818664 34.4605,105.408664 32.6305,105.408664 C30.9655,105.408664 29.1655,106.713664 29.1655,109.503664 C29.1655,112.203664 30.7855,113.628664 32.7805,113.628664 Z M30.2155,108.903664 C30.3955,107.133664 31.4755,106.278664 32.6155,106.278664 C34.0255,106.278664 34.7455,107.403664 34.8505,108.903664 L30.2155,108.903664 Z M40.2545,113.598664 C42.0395,113.598664 43.3295,112.773664 43.3295,111.318664 C43.3295,109.833664 42.3995,109.338664 40.2995,108.843664 C38.8445,108.498664 38.4095,108.168664 38.4095,107.433664 C38.4095,106.818664 38.9195,106.263664 40.1195,106.263664 C41.1095,106.263664 41.8295,106.623664 42.4745,107.238664 L42.9995,106.518664 C42.2945,105.843664 41.4095,105.408664 40.0895,105.408664 C38.3795,105.408664 37.4045,106.353664 37.4045,107.478664 C37.4045,108.828664 38.2445,109.323664 40.1495,109.788664 C41.7845,110.163664 42.3245,110.523664 42.3245,111.393664 C42.3245,112.233664 41.6195,112.758664 40.2695,112.758664 C39.1595,112.758664 38.3645,112.293664 37.7345,111.573664 L37.1645,112.203664 C37.7795,112.983664 38.8145,113.598664 40.2545,113.598664 Z M45.753,103.833664 C46.143,103.833664 46.383,103.578664 46.383,103.173664 C46.383,102.783664 46.143,102.543664 45.753,102.543664 C45.363,102.543664 45.123,102.783664 45.123,103.173664 C45.123,103.578664 45.363,103.833664 45.753,103.833664 Z M46.278,113.463664 L46.278,105.573664 L45.243,105.573664 L45.243,113.463664 L46.278,113.463664 Z M51.6835,112.713664 C50.3635,112.713664 49.2835,111.693664 49.2835,109.518664 C49.2835,107.283664 50.3485,106.278664 51.6535,106.278664 C52.5985,106.278664 53.3335,106.743664 54.1435,107.568664 L54.1435,111.423664 C53.3485,112.233664 52.6585,112.713664 51.6835,112.713664 Z M51.5035,113.598664 C52.6885,113.598664 53.5135,113.013664 54.1435,112.323664 L54.2485,113.463664 L55.1785,113.463664 L55.1785,102.288664 L54.1435,102.438664 L54.1435,106.653664 C53.5435,105.948664 52.6135,105.408664 51.5335,105.408664 C49.7035,105.408664 48.2485,106.773664 48.2485,109.533664 C48.2485,112.293664 49.6885,113.598664 51.5035,113.598664 Z M60.734,113.628664 C62.054,113.628664 62.924,113.178664 63.794,112.263664 L63.284,111.588664 C62.549,112.353664 61.799,112.758664 60.749,112.758664 C59.279,112.758664 58.169,111.648664 58.154,109.713664 L63.809,109.713664 L63.809,109.518664 C63.809,106.818664 62.414,105.408664 60.584,105.408664 C58.919,105.408664 57.119,106.713664 57.119,109.503664 C57.119,112.203664 58.739,113.628664 60.734,113.628664 Z M58.169,108.903664 C58.349,107.133664 59.429,106.278664 60.569,106.278664 C61.979,106.278664 62.699,107.403664 62.804,108.903664 L58.169,108.903664 Z M66.7845,113.463664 L66.7845,107.658664 C67.6695,106.803664 68.5245,106.278664 69.5295,106.278664 C70.6395,106.278664 71.1195,106.833664 71.1195,107.943664 L71.1195,113.463664 L72.1545,113.463664 L72.1545,107.733664 C72.1545,106.263664 71.3595,105.408664 69.7695,105.408664 C68.5695,105.408664 67.5645,106.038664 66.7845,106.818664 L66.6795,105.573664 L65.7495,105.573664 L65.7495,113.463664 L66.7845,113.463664 Z M77.0035,113.568664 C77.3935,113.568664 77.8285,113.523664 78.0835,113.478664 L77.9635,112.593664 C77.7535,112.653664 77.4685,112.698664 77.1835,112.698664 C76.2685,112.698664 75.9535,112.278664 75.9535,111.438664 L75.9535,106.443664 L78.0085,106.443664 L78.0085,105.573664 L75.9535,105.573664 L75.9535,102.648664 L74.9185,102.798664 L74.9185,105.573664 L73.5535,105.573664 L73.5535,106.443664 L74.9185,106.443664 L74.9185,111.588664 C74.9185,113.028664 75.5935,113.568664 77.0035,113.568664 Z M82.472,113.628664 C83.792,113.628664 84.662,113.178664 85.532,112.263664 L85.022,111.588664 C84.287,112.353664 83.537,112.758664 82.487,112.758664 C81.017,112.758664 79.907,111.648664 79.892,109.713664 L85.547,109.713664 L85.547,109.518664 C85.547,106.818664 84.152,105.408664 82.322,105.408664 C80.657,105.408664 78.857,106.713664 78.857,109.503664 C78.857,112.203664 80.477,113.628664 82.472,113.628664 Z M79.907,108.903664 C80.087,107.133664 81.167,106.278664 82.307,106.278664 C83.717,106.278664 84.437,107.403664 84.542,108.903664 L79.907,108.903664 Z M89.946,113.598664 C91.731,113.598664 93.021,112.773664 93.021,111.318664 C93.021,109.833664 92.091,109.338664 89.991,108.843664 C88.536,108.498664 88.101,108.168664 88.101,107.433664 C88.101,106.818664 88.611,106.263664 89.811,106.263664 C90.801,106.263664 91.521,106.623664 92.166,107.238664 L92.691,106.518664 C91.986,105.843664 91.101,105.408664 89.781,105.408664 C88.071,105.408664 87.096,106.353664 87.096,107.478664 C87.096,108.828664 87.936,109.323664 89.841,109.788664 C91.476,110.163664 92.016,110.523664 92.016,111.393664 C92.016,112.233664 91.311,112.758664 89.961,112.758664 C88.851,112.758664 88.056,112.293664 87.426,111.573664 L86.856,112.203664 C87.471,112.983664 88.506,113.598664 89.946,113.598664 Z" id="No-residentes" fill="#000000"></path>
                </g>
                <path d="M504.353,190.526664 C506.813,190.526664 508.433,189.221664 508.433,187.256664 C508.433,185.756664 507.668,184.706664 505.988,184.421664 C507.338,184.166664 508.118,183.176664 508.118,181.826664 C508.118,180.176664 506.933,179.021664 504.548,179.021664 C503.033,179.021664 501.653,179.636664 500.783,180.536664 L501.713,181.946664 C502.508,181.106664 503.393,180.701664 504.353,180.701664 C505.748,180.701664 506.273,181.286664 506.273,182.096664 C506.273,183.041664 505.703,183.716664 503.528,183.716664 L502.868,183.716664 L503.063,185.246664 L503.468,185.246664 C505.628,185.246664 506.573,185.816664 506.573,187.166664 C506.573,188.216664 505.748,188.876664 504.293,188.876664 C503.228,188.876664 502.163,188.396664 501.368,187.346664 L500.303,188.621664 C501.233,189.836664 502.598,190.526664 504.353,190.526664 Z M513.5025,190.526664 C516.0825,190.526664 517.6575,188.891664 517.6575,186.581664 C517.6575,184.391664 516.3375,182.906664 514.1175,182.906664 C512.9625,182.906664 512.2275,183.266664 511.7775,183.731664 L512.0325,180.866664 L517.0875,180.866664 L516.7725,179.216664 L510.5625,179.216664 L510.1275,185.111664 L511.3725,185.531664 C511.9125,184.811664 512.7075,184.466664 513.6225,184.466664 C514.9725,184.466664 515.7975,185.261664 515.7975,186.656664 C515.7975,187.856664 515.0625,188.876664 513.4125,188.876664 C512.2275,188.876664 511.2075,188.276664 510.4875,187.451664 L509.6175,188.891664 C510.5025,189.866664 511.7925,190.526664 513.5025,190.526664 Z M519.8275,191.996664 L521.1775,188.366664 L519.1225,188.366664 L518.7325,191.996664 L519.8275,191.996664 Z M526.2155,190.526664 C529.0055,190.526664 530.5955,188.231664 530.5955,184.766664 C530.5955,181.301664 529.0055,179.006664 526.2155,179.006664 C523.4255,179.006664 521.8055,181.301664 521.8055,184.766664 C521.8055,188.231664 523.4255,190.526664 526.2155,190.526664 Z M526.2155,188.876664 C524.6405,188.876664 523.6805,187.541664 523.6805,184.766664 C523.6805,181.991664 524.5805,180.686664 526.2155,180.686664 C527.7755,180.686664 528.7205,181.991664 528.7205,184.766664 C528.7205,187.541664 527.8205,188.876664 526.2155,188.876664 Z M534.8355,186.056664 C536.5905,186.056664 537.6255,184.631664 537.6255,182.531664 C537.6255,180.416664 536.5605,179.051664 534.8505,179.051664 C533.1255,179.051664 532.0455,180.416664 532.0455,182.561664 C532.0455,184.661664 533.0655,186.056664 534.8355,186.056664 Z M536.6505,190.316664 L543.2805,179.216664 L541.6755,179.216664 L535.0455,190.316664 L536.6505,190.316664 Z M534.8505,184.841664 C533.9955,184.841664 533.5905,183.941664 533.5905,182.531664 C533.5905,181.196664 533.9805,180.281664 534.8355,180.281664 C535.6605,180.281664 536.0655,181.166664 536.0655,182.561664 C536.0655,183.896664 535.6755,184.841664 534.8505,184.841664 Z M543.4905,190.466664 C545.2455,190.466664 546.2805,189.026664 546.2805,186.941664 C546.2805,184.826664 545.2155,183.446664 543.5055,183.446664 C541.7805,183.446664 540.7005,184.826664 540.7005,186.971664 C540.7005,189.056664 541.7355,190.466664 543.4905,190.466664 Z M543.5055,189.236664 C542.6505,189.236664 542.2605,188.351664 542.2605,186.941664 C542.2605,185.606664 542.6355,184.691664 543.4905,184.691664 C544.3305,184.691664 544.7205,185.561664 544.7205,186.956664 C544.7205,188.291664 544.3455,189.236664 543.5055,189.236664 Z" id="35,0%" fill="#000000"></path>
                <path d="M501.8225,204.867964 L501.8225,199.947964 L504.3425,199.947964 C506.6825,199.947964 508.3325,199.047964 508.3325,196.797964 C508.3325,194.742964 506.8475,193.767964 504.4475,193.767964 L500.7575,193.767964 L500.7575,204.867964 L501.8225,204.867964 Z M501.8225,194.742964 L504.4025,194.742964 C506.2625,194.742964 507.2675,195.327964 507.2675,196.827964 C507.2675,198.417964 506.2475,199.002964 504.4175,199.002964 L501.8225,199.002964 L501.8225,194.742964 Z M511.533,204.147964 C510.633,204.147964 510.093,203.712964 510.093,202.887964 C510.093,201.867964 510.948,201.042964 514.428,200.442964 L514.428,202.902964 C513.618,203.682964 512.643,204.147964 511.533,204.147964 Z M511.308,205.002964 C512.493,205.002964 513.513,204.552964 514.428,203.742964 L514.533,204.867964 L515.448,204.867964 L515.448,199.332964 C515.448,197.757964 514.638,196.812964 512.883,196.812964 C511.278,196.812964 510.243,197.412964 509.298,198.282964 L509.883,198.927964 C510.723,198.177964 511.578,197.682964 512.808,197.682964 C513.843,197.682964 514.428,198.222964 514.428,199.302964 L514.428,199.707964 C510.408,200.322964 509.073,201.447964 509.073,203.007964 C509.073,204.237964 509.898,205.002964 511.308,205.002964 Z M518.791,204.867964 L518.791,199.722964 C519.391,198.477964 520.441,197.757964 521.746,197.757964 C521.776,197.757964 522.091,197.757964 522.121,197.772964 L522.031,196.812964 L521.926,196.812964 C520.381,196.812964 519.421,197.562964 518.821,198.522964 L518.791,198.522964 L518.686,196.977964 L517.756,196.977964 L517.756,204.867964 L518.791,204.867964 Z M526.679,204.972964 C527.069,204.972964 527.504,204.927964 527.759,204.882964 L527.639,203.997964 C527.429,204.057964 527.144,204.102964 526.859,204.102964 C525.944,204.102964 525.629,203.682964 525.629,202.842964 L525.629,197.847964 L527.684,197.847964 L527.684,196.977964 L525.629,196.977964 L525.629,194.052964 L524.594,194.202964 L524.594,196.977964 L523.229,196.977964 L523.229,197.847964 L524.594,197.847964 L524.594,202.992964 C524.594,204.432964 525.269,204.972964 526.679,204.972964 Z M529.953,195.237964 C530.343,195.237964 530.583,194.982964 530.583,194.577964 C530.583,194.187964 530.343,193.947964 529.953,193.947964 C529.563,193.947964 529.323,194.187964 529.323,194.577964 C529.323,194.982964 529.563,195.237964 529.953,195.237964 Z M530.478,204.867964 L530.478,196.977964 L529.443,196.977964 L529.443,204.867964 L530.478,204.867964 Z M535.834,205.032964 C537.244,205.032964 538.204,204.372964 538.864,203.112964 L538.099,202.617964 C537.574,203.637964 536.959,204.162964 535.894,204.162964 C534.499,204.162964 533.449,202.947964 533.449,200.922964 C533.449,198.567964 534.739,197.682964 535.909,197.682964 C536.989,197.682964 537.589,198.222964 538.039,199.182964 L538.849,198.687964 C538.309,197.592964 537.379,196.812964 535.939,196.812964 C534.169,196.812964 532.414,198.087964 532.414,200.922964 C532.414,203.547964 534.019,205.032964 535.834,205.032964 Z M542.972,205.032964 C544.172,205.032964 545.177,204.387964 545.972,203.622964 L546.077,204.867964 L547.007,204.867964 L547.007,196.977964 L545.972,196.977964 L545.972,202.767964 C545.072,203.607964 544.217,204.147964 543.212,204.147964 C542.102,204.147964 541.637,203.607964 541.637,202.497964 L541.637,196.977964 L540.602,196.977964 L540.602,202.707964 C540.602,204.177964 541.397,205.032964 542.972,205.032964 Z M550.4355,204.867964 L550.4355,193.692964 L549.4005,193.842964 L549.4005,204.867964 L550.4355,204.867964 Z M554.785,204.147964 C553.885,204.147964 553.345,203.712964 553.345,202.887964 C553.345,201.867964 554.2,201.042964 557.68,200.442964 L557.68,202.902964 C556.87,203.682964 555.895,204.147964 554.785,204.147964 Z M554.56,205.002964 C555.745,205.002964 556.765,204.552964 557.68,203.742964 L557.785,204.867964 L558.7,204.867964 L558.7,199.332964 C558.7,197.757964 557.89,196.812964 556.135,196.812964 C554.53,196.812964 553.495,197.412964 552.55,198.282964 L553.135,198.927964 C553.975,198.177964 554.83,197.682964 556.06,197.682964 C557.095,197.682964 557.68,198.222964 557.68,199.302964 L557.68,199.707964 C553.66,200.322964 552.325,201.447964 552.325,203.007964 C552.325,204.237964 553.15,205.002964 554.56,205.002964 Z M562.043,204.867964 L562.043,199.722964 C562.643,198.477964 563.693,197.757964 564.998,197.757964 C565.028,197.757964 565.343,197.757964 565.373,197.772964 L565.283,196.812964 L565.178,196.812964 C563.633,196.812964 562.673,197.562964 562.073,198.522964 L562.043,198.522964 L561.938,196.977964 L561.008,196.977964 L561.008,204.867964 L562.043,204.867964 Z M569.3865,205.032964 C570.7065,205.032964 571.5765,204.582964 572.4465,203.667964 L571.9365,202.992964 C571.2015,203.757964 570.4515,204.162964 569.4015,204.162964 C567.9315,204.162964 566.8215,203.052964 566.8065,201.117964 L572.4615,201.117964 L572.4615,200.922964 C572.4615,198.222964 571.0665,196.812964 569.2365,196.812964 C567.5715,196.812964 565.7715,198.117964 565.7715,200.907964 C565.7715,203.607964 567.3915,205.032964 569.3865,205.032964 Z M566.8215,200.307964 C567.0015,198.537964 568.0815,197.682964 569.2215,197.682964 C570.6315,197.682964 571.3515,198.807964 571.4565,200.307964 L566.8215,200.307964 Z M576.8605,205.002964 C578.6455,205.002964 579.9355,204.177964 579.9355,202.722964 C579.9355,201.237964 579.0055,200.742964 576.9055,200.247964 C575.4505,199.902964 575.0155,199.572964 575.0155,198.837964 C575.0155,198.222964 575.5255,197.667964 576.7255,197.667964 C577.7155,197.667964 578.4355,198.027964 579.0805,198.642964 L579.6055,197.922964 C578.9005,197.247964 578.0155,196.812964 576.6955,196.812964 C574.9855,196.812964 574.0105,197.757964 574.0105,198.882964 C574.0105,200.232964 574.8505,200.727964 576.7555,201.192964 C578.3905,201.567964 578.9305,201.927964 578.9305,202.797964 C578.9305,203.637964 578.2255,204.162964 576.8755,204.162964 C575.7655,204.162964 574.9705,203.697964 574.3405,202.977964 L573.7705,203.607964 C574.3855,204.387964 575.4205,205.002964 576.8605,205.002964 Z" id="Particulares" fill="#000000"></path>
                <text id="6,3%" font-family="BentonSansBBVA-Medium, Benton Sans BBVA" font-size="15" font-weight="400" letter-spacing="0.1005" fill="#000000">
                    <tspan x="475.2915" y="347.405564">6</tspan>
                    <tspan x="484.557" y="347.405564" letter-spacing="0.348">,</tspan>
                    <tspan x="489.045" y="347.405564" letter-spacing="-0.012">3%</tspan>
                </text>
                <path d="M477.3015,361.960564 L477.3015,350.860564 L476.2365,350.860564 L476.2365,361.960564 L477.3015,361.960564 Z M480.961,361.960564 L480.961,356.155564 C481.846,355.300564 482.701,354.775564 483.706,354.775564 C484.816,354.775564 485.296,355.330564 485.296,356.440564 L485.296,361.960564 L486.331,361.960564 L486.331,356.230564 C486.331,354.760564 485.536,353.905564 483.946,353.905564 C482.746,353.905564 481.741,354.535564 480.961,355.315564 L480.856,354.070564 L479.926,354.070564 L479.926,361.960564 L480.961,361.960564 Z M491.1335,362.095564 C492.9185,362.095564 494.2085,361.270564 494.2085,359.815564 C494.2085,358.330564 493.2785,357.835564 491.1785,357.340564 C489.7235,356.995564 489.2885,356.665564 489.2885,355.930564 C489.2885,355.315564 489.7985,354.760564 490.9985,354.760564 C491.9885,354.760564 492.7085,355.120564 493.3535,355.735564 L493.8785,355.015564 C493.1735,354.340564 492.2885,353.905564 490.9685,353.905564 C489.2585,353.905564 488.2835,354.850564 488.2835,355.975564 C488.2835,357.325564 489.1235,357.820564 491.0285,358.285564 C492.6635,358.660564 493.2035,359.020564 493.2035,359.890564 C493.2035,360.730564 492.4985,361.255564 491.1485,361.255564 C490.0385,361.255564 489.2435,360.790564 488.6135,360.070564 L488.0435,360.700564 C488.6585,361.480564 489.6935,362.095564 491.1335,362.095564 Z M498.6675,362.065564 C499.0575,362.065564 499.4925,362.020564 499.7475,361.975564 L499.6275,361.090564 C499.4175,361.150564 499.1325,361.195564 498.8475,361.195564 C497.9325,361.195564 497.6175,360.775564 497.6175,359.935564 L497.6175,354.940564 L499.6725,354.940564 L499.6725,354.070564 L497.6175,354.070564 L497.6175,351.145564 L496.5825,351.295564 L496.5825,354.070564 L495.2175,354.070564 L495.2175,354.940564 L496.5825,354.940564 L496.5825,360.085564 C496.5825,361.525564 497.2575,362.065564 498.6675,362.065564 Z M501.9415,352.330564 C502.3315,352.330564 502.5715,352.075564 502.5715,351.670564 C502.5715,351.280564 502.3315,351.040564 501.9415,351.040564 C501.5515,351.040564 501.3115,351.280564 501.3115,351.670564 C501.3115,352.075564 501.5515,352.330564 501.9415,352.330564 Z M502.4665,361.960564 L502.4665,354.070564 L501.4315,354.070564 L501.4315,361.960564 L502.4665,361.960564 Z M507.4805,362.065564 C507.8705,362.065564 508.3055,362.020564 508.5605,361.975564 L508.4405,361.090564 C508.2305,361.150564 507.9455,361.195564 507.6605,361.195564 C506.7455,361.195564 506.4305,360.775564 506.4305,359.935564 L506.4305,354.940564 L508.4855,354.940564 L508.4855,354.070564 L506.4305,354.070564 L506.4305,351.145564 L505.3955,351.295564 L505.3955,354.070564 L504.0305,354.070564 L504.0305,354.940564 L505.3955,354.940564 L505.3955,360.085564 C505.3955,361.525564 506.0705,362.065564 507.4805,362.065564 Z M512.493,362.125564 C513.693,362.125564 514.698,361.480564 515.493,360.715564 L515.598,361.960564 L516.528,361.960564 L516.528,354.070564 L515.493,354.070564 L515.493,359.860564 C514.593,360.700564 513.738,361.240564 512.733,361.240564 C511.623,361.240564 511.158,360.700564 511.158,359.590564 L511.158,354.070564 L510.123,354.070564 L510.123,359.800564 C510.123,361.270564 510.918,362.125564 512.493,362.125564 Z M521.881,362.125564 C523.291,362.125564 524.251,361.465564 524.911,360.205564 L524.146,359.710564 C523.621,360.730564 523.006,361.255564 521.941,361.255564 C520.546,361.255564 519.496,360.040564 519.496,358.015564 C519.496,355.660564 520.786,354.775564 521.956,354.775564 C523.036,354.775564 523.636,355.315564 524.086,356.275564 L524.896,355.780564 C524.356,354.685564 523.426,353.905564 521.986,353.905564 C520.216,353.905564 518.461,355.180564 518.461,358.015564 C518.461,360.640564 520.066,362.125564 521.881,362.125564 Z M527.2685,352.330564 C527.6585,352.330564 527.8985,352.075564 527.8985,351.670564 C527.8985,351.280564 527.6585,351.040564 527.2685,351.040564 C526.8785,351.040564 526.6385,351.280564 526.6385,351.670564 C526.6385,352.075564 526.8785,352.330564 527.2685,352.330564 Z M527.7935,361.960564 L527.7935,354.070564 L526.7585,354.070564 L526.7585,361.960564 L527.7935,361.960564 Z M533.313,362.125564 C535.248,362.125564 536.883,360.640564 536.883,358.015564 C536.883,355.375564 535.248,353.905564 533.313,353.905564 C531.363,353.905564 529.728,355.375564 529.728,358.015564 C529.728,360.640564 531.378,362.125564 533.313,362.125564 Z M533.313,361.240564 C531.618,361.240564 530.763,359.770564 530.763,358.015564 C530.763,356.155564 531.708,354.790564 533.313,354.790564 C534.978,354.790564 535.848,356.275564 535.848,358.015564 C535.848,359.875564 534.903,361.240564 533.313,361.240564 Z M539.8585,361.960564 L539.8585,356.155564 C540.7435,355.300564 541.5985,354.775564 542.6035,354.775564 C543.7135,354.775564 544.1935,355.330564 544.1935,356.440564 L544.1935,361.960564 L545.2285,361.960564 L545.2285,356.230564 C545.2285,354.760564 544.4335,353.905564 542.8435,353.905564 C541.6435,353.905564 540.6385,354.535564 539.8585,355.315564 L539.7535,354.070564 L538.8235,354.070564 L538.8235,361.960564 L539.8585,361.960564 Z M550.7165,362.125564 C552.0365,362.125564 552.9065,361.675564 553.7765,360.760564 L553.2665,360.085564 C552.5315,360.850564 551.7815,361.255564 550.7315,361.255564 C549.2615,361.255564 548.1515,360.145564 548.1365,358.210564 L553.7915,358.210564 L553.7915,358.015564 C553.7915,355.315564 552.3965,353.905564 550.5665,353.905564 C548.9015,353.905564 547.1015,355.210564 547.1015,358.000564 C547.1015,360.700564 548.7215,362.125564 550.7165,362.125564 Z M548.1515,357.400564 C548.3315,355.630564 549.4115,354.775564 550.5515,354.775564 C551.9615,354.775564 552.6815,355.900564 552.7865,357.400564 L548.1515,357.400564 Z M558.1905,362.095564 C559.9755,362.095564 561.2655,361.270564 561.2655,359.815564 C561.2655,358.330564 560.3355,357.835564 558.2355,357.340564 C556.7805,356.995564 556.3455,356.665564 556.3455,355.930564 C556.3455,355.315564 556.8555,354.760564 558.0555,354.760564 C559.0455,354.760564 559.7655,355.120564 560.4105,355.735564 L560.9355,355.015564 C560.2305,354.340564 559.3455,353.905564 558.0255,353.905564 C556.3155,353.905564 555.3405,354.850564 555.3405,355.975564 C555.3405,357.325564 556.1805,357.820564 558.0855,358.285564 C559.7205,358.660564 560.2605,359.020564 560.2605,359.890564 C560.2605,360.730564 559.5555,361.255564 558.2055,361.255564 C557.0955,361.255564 556.3005,360.790564 555.6705,360.070564 L555.1005,360.700564 C555.7155,361.480564 556.7505,362.095564 558.1905,362.095564 Z" id="Instituciones" fill="#000000"></path>
                <text id="2,6%" font-family="BentonSansBBVA-Medium, Benton Sans BBVA" font-size="15" font-weight="400" letter-spacing="0.5015" fill="#000000">
                    <tspan x="422.7315" y="389.075564">2</tspan>
                    <tspan x="432.278" y="389.075564" letter-spacing="-0.004">,</tspan>
                    <tspan x="435.814" y="389.075564" letter-spacing="-0.025">6%</tspan>
                </text>
                <path d="M430.4715,403.630564 L430.4715,402.655564 L424.5915,402.655564 L424.5915,398.245564 L428.9115,398.245564 L428.7465,397.285564 L424.5915,397.285564 L424.5915,393.520564 L430.1565,393.520564 L430.1565,392.530564 L423.5265,392.530564 L423.5265,403.630564 L430.4715,403.630564 Z M433.1245,403.630564 L433.1245,397.840564 C434.0095,396.985564 434.8195,396.460564 435.7645,396.460564 C436.8895,396.460564 437.2645,397.000564 437.2645,398.110564 L437.2645,403.630564 L438.2995,403.630564 L438.2995,397.840564 C439.1845,396.985564 439.9795,396.460564 440.9395,396.460564 C442.0495,396.460564 442.4245,397.000564 442.4245,398.110564 L442.4245,403.630564 L443.4595,403.630564 L443.4595,397.915564 C443.4595,396.490564 442.7995,395.575564 441.1795,395.575564 C440.0095,395.575564 439.0195,396.220564 438.2095,397.000564 C437.9845,396.160564 437.3545,395.575564 436.0195,395.575564 C434.8345,395.575564 433.9045,396.205564 433.1245,396.985564 L433.0195,395.740564 L432.0895,395.740564 L432.0895,403.630564 L433.1245,403.630564 Z M449.3075,402.895564 C448.3625,402.895564 447.6275,402.445564 446.8175,401.620564 L446.8175,397.750564 C447.6125,396.955564 448.3025,396.460564 449.2775,396.460564 C450.5975,396.460564 451.6775,397.510564 451.6775,399.685564 C451.6775,401.950564 450.6275,402.895564 449.3075,402.895564 Z M446.8175,406.555564 L446.8175,402.550564 C447.5225,403.270564 448.3475,403.765564 449.4275,403.765564 C451.2575,403.765564 452.7125,402.430564 452.7125,399.670564 C452.7125,396.910564 451.2725,395.575564 449.4575,395.575564 C448.2725,395.575564 447.4475,396.160564 446.8175,396.850564 L446.7125,395.740564 L445.7825,395.740564 L445.7825,406.705564 L446.8175,406.555564 Z M455.778,403.630564 L455.778,392.455564 L454.743,392.605564 L454.743,403.630564 L455.778,403.630564 Z M461.3725,403.795564 C462.6925,403.795564 463.5625,403.345564 464.4325,402.430564 L463.9225,401.755564 C463.1875,402.520564 462.4375,402.925564 461.3875,402.925564 C459.9175,402.925564 458.8075,401.815564 458.7925,399.880564 L464.4475,399.880564 L464.4475,399.685564 C464.4475,396.985564 463.0525,395.575564 461.2225,395.575564 C459.5575,395.575564 457.7575,396.880564 457.7575,399.670564 C457.7575,402.370564 459.3775,403.795564 461.3725,403.795564 Z M458.8075,399.070564 C458.9875,397.300564 460.0675,396.445564 461.2075,396.445564 C462.6175,396.445564 463.3375,397.570564 463.4425,399.070564 L458.8075,399.070564 Z M468.2405,402.910564 C467.3405,402.910564 466.8005,402.475564 466.8005,401.650564 C466.8005,400.630564 467.6555,399.805564 471.1355,399.205564 L471.1355,401.665564 C470.3255,402.445564 469.3505,402.910564 468.2405,402.910564 Z M468.0155,403.765564 C469.2005,403.765564 470.2205,403.315564 471.1355,402.505564 L471.2405,403.630564 L472.1555,403.630564 L472.1555,398.095564 C472.1555,396.520564 471.3455,395.575564 469.5905,395.575564 C467.9855,395.575564 466.9505,396.175564 466.0055,397.045564 L466.5905,397.690564 C467.4305,396.940564 468.2855,396.445564 469.5155,396.445564 C470.5505,396.445564 471.1355,396.985564 471.1355,398.065564 L471.1355,398.470564 C467.1155,399.085564 465.7805,400.210564 465.7805,401.770564 C465.7805,403.000564 466.6055,403.765564 468.0155,403.765564 Z M477.495,402.880564 C476.175,402.880564 475.095,401.860564 475.095,399.685564 C475.095,397.450564 476.16,396.445564 477.465,396.445564 C478.41,396.445564 479.145,396.910564 479.955,397.735564 L479.955,401.590564 C479.16,402.400564 478.47,402.880564 477.495,402.880564 Z M477.315,403.765564 C478.5,403.765564 479.325,403.180564 479.955,402.490564 L480.06,403.630564 L480.99,403.630564 L480.99,392.455564 L479.955,392.605564 L479.955,396.820564 C479.355,396.115564 478.425,395.575564 477.345,395.575564 C475.515,395.575564 474.06,396.940564 474.06,399.700564 C474.06,402.460564 475.5,403.765564 477.315,403.765564 Z M486.514,403.795564 C488.449,403.795564 490.084,402.310564 490.084,399.685564 C490.084,397.045564 488.449,395.575564 486.514,395.575564 C484.564,395.575564 482.929,397.045564 482.929,399.685564 C482.929,402.310564 484.579,403.795564 486.514,403.795564 Z M486.514,402.910564 C484.819,402.910564 483.964,401.440564 483.964,399.685564 C483.964,397.825564 484.909,396.460564 486.514,396.460564 C488.179,396.460564 489.049,397.945564 489.049,399.685564 C489.049,401.545564 488.104,402.910564 486.514,402.910564 Z M494.297,403.765564 C496.082,403.765564 497.372,402.940564 497.372,401.485564 C497.372,400.000564 496.442,399.505564 494.342,399.010564 C492.887,398.665564 492.452,398.335564 492.452,397.600564 C492.452,396.985564 492.962,396.430564 494.162,396.430564 C495.152,396.430564 495.872,396.790564 496.517,397.405564 L497.042,396.685564 C496.337,396.010564 495.452,395.575564 494.132,395.575564 C492.422,395.575564 491.447,396.520564 491.447,397.645564 C491.447,398.995564 492.287,399.490564 494.192,399.955564 C495.827,400.330564 496.367,400.690564 496.367,401.560564 C496.367,402.400564 495.662,402.925564 494.312,402.925564 C493.202,402.925564 492.407,402.460564 491.777,401.740564 L491.207,402.370564 C491.822,403.150564 492.857,403.765564 494.297,403.765564 Z" id="Empleados" fill="#000000"></path>
                <path d="M342.1815,436.325564 L342.1815,425.225564 L340.4415,425.225564 L338.0115,425.990564 L338.2515,427.520564 L340.3815,426.920564 L340.3815,436.325564 L342.1815,436.325564 Z M346.2375,438.005564 L347.5875,434.375564 L345.5325,434.375564 L345.1425,438.005564 L346.2375,438.005564 Z M356.1975,436.325564 L356.1975,434.045564 L358.1325,434.045564 L357.9675,432.425564 L356.1975,432.425564 L356.1975,425.225564 L354.0825,425.225564 L349.0275,432.575564 L349.0275,434.045564 L354.3825,434.045564 L354.3825,436.325564 L356.1975,436.325564 Z M354.3525,427.445564 L354.3825,427.445564 L354.3825,432.425564 L350.9925,432.425564 L354.3525,427.445564 Z M361.6905,432.065564 C363.4455,432.065564 364.4805,430.640564 364.4805,428.540564 C364.4805,426.425564 363.4155,425.060564 361.7055,425.060564 C359.9805,425.060564 358.9005,426.425564 358.9005,428.570564 C358.9005,430.670564 359.9205,432.065564 361.6905,432.065564 Z M363.5055,436.325564 L370.1355,425.225564 L368.5305,425.225564 L361.9005,436.325564 L363.5055,436.325564 Z M361.7055,430.850564 C360.8505,430.850564 360.4455,429.950564 360.4455,428.540564 C360.4455,427.205564 360.8355,426.290564 361.6905,426.290564 C362.5155,426.290564 362.9205,427.175564 362.9205,428.570564 C362.9205,429.905564 362.5305,430.850564 361.7055,430.850564 Z M370.3455,436.475564 C372.1005,436.475564 373.1355,435.035564 373.1355,432.950564 C373.1355,430.835564 372.0705,429.455564 370.3605,429.455564 C368.6355,429.455564 367.5555,430.835564 367.5555,432.980564 C367.5555,435.065564 368.5905,436.475564 370.3455,436.475564 Z M370.3605,435.245564 C369.5055,435.245564 369.1155,434.360564 369.1155,432.950564 C369.1155,431.615564 369.4905,430.700564 370.3455,430.700564 C371.1855,430.700564 371.5755,431.570564 371.5755,432.965564 C371.5755,434.300564 371.2005,435.245564 370.3605,435.245564 Z" id="1,4%" fill="#000000"></path>
                <g id="Group-18" transform="translate(0.000000, 335.408000)" fill="#000000">
                    <path d="M342.3698,115.459964 C344.9348,115.459964 346.1648,114.199964 346.1648,112.444964 C346.1648,110.839964 345.0548,109.984964 343.7048,109.744964 L343.7048,109.714964 C344.8298,109.459964 345.8048,108.634964 345.8048,107.149964 C345.8048,105.394964 344.5448,104.359964 342.0398,104.359964 L338.1848,104.359964 L338.1848,115.459964 L342.3698,115.459964 Z M339.2348,105.319964 L341.9798,105.319964 C343.8998,105.319964 344.7548,105.934964 344.7548,107.284964 C344.7548,108.649964 343.7198,109.294964 341.9498,109.294964 L339.2348,109.294964 L339.2348,105.319964 Z M339.2348,110.224964 L342.0248,110.224964 C343.9298,110.224964 345.1148,110.914964 345.1148,112.399964 C345.1148,113.734964 344.2598,114.514964 342.3548,114.514964 L339.2348,114.514964 L339.2348,110.224964 Z M350.1988,114.739964 C349.2988,114.739964 348.7588,114.304964 348.7588,113.479964 C348.7588,112.459964 349.6138,111.634964 353.0938,111.034964 L353.0938,113.494964 C352.2838,114.274964 351.3088,114.739964 350.1988,114.739964 Z M349.9738,115.594964 C351.1588,115.594964 352.1788,115.144964 353.0938,114.334964 L353.1988,115.459964 L354.1138,115.459964 L354.1138,109.924964 C354.1138,108.349964 353.3038,107.404964 351.5488,107.404964 C349.9438,107.404964 348.9088,108.004964 347.9638,108.874964 L348.5488,109.519964 C349.3888,108.769964 350.2438,108.274964 351.4738,108.274964 C352.5088,108.274964 353.0938,108.814964 353.0938,109.894964 L353.0938,110.299964 C349.0738,110.914964 347.7388,112.039964 347.7388,113.599964 C347.7388,114.829964 348.5638,115.594964 349.9738,115.594964 Z M357.4413,115.459964 L357.4413,109.654964 C358.3263,108.799964 359.1813,108.274964 360.1863,108.274964 C361.2963,108.274964 361.7763,108.829964 361.7763,109.939964 L361.7763,115.459964 L362.8113,115.459964 L362.8113,109.729964 C362.8113,108.259964 362.0163,107.404964 360.4263,107.404964 C359.2263,107.404964 358.2213,108.034964 357.4413,108.814964 L357.3363,107.569964 L356.4063,107.569964 L356.4063,115.459964 L357.4413,115.459964 Z M368.0903,115.624964 C369.5003,115.624964 370.4603,114.964964 371.1203,113.704964 L370.3553,113.209964 C369.8303,114.229964 369.2153,114.754964 368.1503,114.754964 C366.7553,114.754964 365.7053,113.539964 365.7053,111.514964 C365.7053,109.159964 366.9953,108.274964 368.1653,108.274964 C369.2453,108.274964 369.8453,108.814964 370.2953,109.774964 L371.1053,109.279964 C370.5653,108.184964 369.6353,107.404964 368.1953,107.404964 C366.4253,107.404964 364.6703,108.679964 364.6703,111.514964 C364.6703,114.139964 366.2753,115.624964 368.0903,115.624964 Z M375.8863,115.624964 C377.8213,115.624964 379.4563,114.139964 379.4563,111.514964 C379.4563,108.874964 377.8213,107.404964 375.8863,107.404964 C373.9363,107.404964 372.3013,108.874964 372.3013,111.514964 C372.3013,114.139964 373.9513,115.624964 375.8863,115.624964 Z M375.8863,114.739964 C374.1913,114.739964 373.3363,113.269964 373.3363,111.514964 C373.3363,109.654964 374.2813,108.289964 375.8863,108.289964 C377.5513,108.289964 378.4213,109.774964 378.4213,111.514964 C378.4213,113.374964 377.4763,114.739964 375.8863,114.739964 Z M383.6553,115.594964 C385.4403,115.594964 386.7303,114.769964 386.7303,113.314964 C386.7303,111.829964 385.8003,111.334964 383.7003,110.839964 C382.2453,110.494964 381.8103,110.164964 381.8103,109.429964 C381.8103,108.814964 382.3203,108.259964 383.5203,108.259964 C384.5103,108.259964 385.2303,108.619964 385.8753,109.234964 L386.4003,108.514964 C385.6953,107.839964 384.8103,107.404964 383.4903,107.404964 C381.7803,107.404964 380.8053,108.349964 380.8053,109.474964 C380.8053,110.824964 381.6453,111.319964 383.5503,111.784964 C385.1853,112.159964 385.7253,112.519964 385.7253,113.389964 C385.7253,114.229964 385.0203,114.754964 383.6703,114.754964 C382.5603,114.754964 381.7653,114.289964 381.1353,113.569964 L380.5653,114.199964 C381.1803,114.979964 382.2153,115.594964 383.6553,115.594964 Z" id="Bancos"></path>
                    <path d="M7.5698,12.2399635 L7.5698,9.95996352 L9.5048,9.95996352 L9.3398,8.33996352 L7.5698,8.33996352 L7.5698,1.13996352 L5.4548,1.13996352 L0.3998,8.48996352 L0.3998,9.95996352 L5.7548,9.95996352 L5.7548,12.2399635 L7.5698,12.2399635 Z M5.7248,3.35996352 L5.7548,3.35996352 L5.7548,8.33996352 L2.3648,8.33996352 L5.7248,3.35996352 Z M14.8088,12.4499635 C17.3888,12.4499635 18.9638,10.8149635 18.9638,8.50496352 C18.9638,6.31496352 17.6438,4.82996352 15.4238,4.82996352 C14.2688,4.82996352 13.5338,5.18996352 13.0838,5.65496352 L13.3388,2.78996352 L18.3938,2.78996352 L18.0788,1.13996352 L11.8688,1.13996352 L11.4338,7.03496352 L12.6788,7.45496352 C13.2188,6.73496352 14.0138,6.38996352 14.9288,6.38996352 C16.2788,6.38996352 17.1038,7.18496352 17.1038,8.57996352 C17.1038,9.77996352 16.3688,10.7999635 14.7188,10.7999635 C13.5338,10.7999635 12.5138,10.1999635 11.7938,9.37496352 L10.9238,10.8149635 C11.8088,11.7899635 13.0988,12.4499635 14.8088,12.4499635 Z M21.6563,13.9199635 L23.0063,10.2899635 L20.9513,10.2899635 L20.5613,13.9199635 L21.6563,13.9199635 Z M31.6163,12.2399635 L31.6163,9.95996352 L33.5513,9.95996352 L33.3863,8.33996352 L31.6163,8.33996352 L31.6163,1.13996352 L29.5013,1.13996352 L24.4463,8.48996352 L24.4463,9.95996352 L29.8013,9.95996352 L29.8013,12.2399635 L31.6163,12.2399635 Z M29.7713,3.35996352 L29.8013,3.35996352 L29.8013,8.33996352 L26.4113,8.33996352 L29.7713,3.35996352 Z M37.1093,7.97996352 C38.8643,7.97996352 39.8993,6.55496352 39.8993,4.45496352 C39.8993,2.33996352 38.8343,0.974963522 37.1243,0.974963522 C35.3993,0.974963522 34.3193,2.33996352 34.3193,4.48496352 C34.3193,6.58496352 35.3393,7.97996352 37.1093,7.97996352 Z M38.9243,12.2399635 L45.5543,1.13996352 L43.9493,1.13996352 L37.3193,12.2399635 L38.9243,12.2399635 Z M37.1243,6.76496352 C36.2693,6.76496352 35.8643,5.86496352 35.8643,4.45496352 C35.8643,3.11996352 36.2543,2.20496352 37.1093,2.20496352 C37.9343,2.20496352 38.3393,3.08996352 38.3393,4.48496352 C38.3393,5.81996352 37.9493,6.76496352 37.1243,6.76496352 Z M45.7643,12.3899635 C47.5193,12.3899635 48.5543,10.9499635 48.5543,8.86496352 C48.5543,6.74996352 47.4893,5.36996352 45.7793,5.36996352 C44.0543,5.36996352 42.9743,6.74996352 42.9743,8.89496352 C42.9743,10.9799635 44.0093,12.3899635 45.7643,12.3899635 Z M45.7793,11.1599635 C44.9243,11.1599635 44.5343,10.2749635 44.5343,8.86496352 C44.5343,7.52996352 44.9093,6.61496352 45.7643,6.61496352 C46.6043,6.61496352 46.9943,7.48496352 46.9943,8.87996352 C46.9943,10.2149635 46.6193,11.1599635 45.7793,11.1599635 Z" id="45,4%"></path>
                    <path d="M2.4698,26.7949635 L2.4698,21.8149635 L5.2298,21.8149635 L8.0798,26.8849635 L9.1748,26.7049635 L6.3398,21.6949635 C7.9448,21.3799635 8.9798,20.5099635 8.9798,18.7249635 C8.9798,16.7449635 7.5998,15.6949635 5.1398,15.6949635 L1.4198,15.6949635 L1.4198,26.7949635 L2.4698,26.7949635 Z M2.4698,16.6699635 L5.0498,16.6699635 C6.9098,16.6699635 7.9298,17.2249635 7.9298,18.7399635 C7.9298,20.3299635 6.8948,20.8699635 5.0648,20.8699635 L2.4698,20.8699635 L2.4698,16.6699635 Z M13.6518,26.9599635 C14.9718,26.9599635 15.8418,26.5099635 16.7118,25.5949635 L16.2018,24.9199635 C15.4668,25.6849635 14.7168,26.0899635 13.6668,26.0899635 C12.1968,26.0899635 11.0868,24.9799635 11.0718,23.0449635 L16.7268,23.0449635 L16.7268,22.8499635 C16.7268,20.1499635 15.3318,18.7399635 13.5018,18.7399635 C11.8368,18.7399635 10.0368,20.0449635 10.0368,22.8349635 C10.0368,25.5349635 11.6568,26.9599635 13.6518,26.9599635 Z M11.0868,22.2349635 C11.2668,20.4649635 12.3468,19.6099635 13.4868,19.6099635 C14.8968,19.6099635 15.6168,20.7349635 15.7218,22.2349635 L11.0868,22.2349635 Z M21.1258,26.9299635 C22.9108,26.9299635 24.2008,26.1049635 24.2008,24.6499635 C24.2008,23.1649635 23.2708,22.6699635 21.1708,22.1749635 C19.7158,21.8299635 19.2808,21.4999635 19.2808,20.7649635 C19.2808,20.1499635 19.7908,19.5949635 20.9908,19.5949635 C21.9808,19.5949635 22.7008,19.9549635 23.3458,20.5699635 L23.8708,19.8499635 C23.1658,19.1749635 22.2808,18.7399635 20.9608,18.7399635 C19.2508,18.7399635 18.2758,19.6849635 18.2758,20.8099635 C18.2758,22.1599635 19.1158,22.6549635 21.0208,23.1199635 C22.6558,23.4949635 23.1958,23.8549635 23.1958,24.7249635 C23.1958,25.5649635 22.4908,26.0899635 21.1408,26.0899635 C20.0308,26.0899635 19.2358,25.6249635 18.6058,24.9049635 L18.0358,25.5349635 C18.6508,26.3149635 19.6858,26.9299635 21.1258,26.9299635 Z M26.6243,17.1649635 C27.0143,17.1649635 27.2543,16.9099635 27.2543,16.5049635 C27.2543,16.1149635 27.0143,15.8749635 26.6243,15.8749635 C26.2343,15.8749635 25.9943,16.1149635 25.9943,16.5049635 C25.9943,16.9099635 26.2343,17.1649635 26.6243,17.1649635 Z M27.1493,26.7949635 L27.1493,18.9049635 L26.1143,18.9049635 L26.1143,26.7949635 L27.1493,26.7949635 Z M32.5563,26.0449635 C31.2363,26.0449635 30.1563,25.0249635 30.1563,22.8499635 C30.1563,20.6149635 31.2213,19.6099635 32.5263,19.6099635 C33.4713,19.6099635 34.2063,20.0749635 35.0163,20.8999635 L35.0163,24.7549635 C34.2213,25.5649635 33.5313,26.0449635 32.5563,26.0449635 Z M32.3763,26.9299635 C33.5613,26.9299635 34.3863,26.3449635 35.0163,25.6549635 L35.1213,26.7949635 L36.0513,26.7949635 L36.0513,15.6199635 L35.0163,15.7699635 L35.0163,19.9849635 C34.4163,19.2799635 33.4863,18.7399635 32.4063,18.7399635 C30.5763,18.7399635 29.1213,20.1049635 29.1213,22.8649635 C29.1213,25.6249635 30.5613,26.9299635 32.3763,26.9299635 Z M41.6068,26.9599635 C42.9268,26.9599635 43.7968,26.5099635 44.6668,25.5949635 L44.1568,24.9199635 C43.4218,25.6849635 42.6718,26.0899635 41.6218,26.0899635 C40.1518,26.0899635 39.0418,24.9799635 39.0268,23.0449635 L44.6818,23.0449635 L44.6818,22.8499635 C44.6818,20.1499635 43.2868,18.7399635 41.4568,18.7399635 C39.7918,18.7399635 37.9918,20.0449635 37.9918,22.8349635 C37.9918,25.5349635 39.6118,26.9599635 41.6068,26.9599635 Z M39.0418,22.2349635 C39.2218,20.4649635 40.3018,19.6099635 41.4418,19.6099635 C42.8518,19.6099635 43.5718,20.7349635 43.6768,22.2349635 L39.0418,22.2349635 Z M47.6558,26.7949635 L47.6558,20.9899635 C48.5408,20.1349635 49.3958,19.6099635 50.4008,19.6099635 C51.5108,19.6099635 51.9908,20.1649635 51.9908,21.2749635 L51.9908,26.7949635 L53.0258,26.7949635 L53.0258,21.0649635 C53.0258,19.5949635 52.2308,18.7399635 50.6408,18.7399635 C49.4408,18.7399635 48.4358,19.3699635 47.6558,20.1499635 L47.5508,18.9049635 L46.6208,18.9049635 L46.6208,26.7949635 L47.6558,26.7949635 Z M57.8748,26.8999635 C58.2648,26.8999635 58.6998,26.8549635 58.9548,26.8099635 L58.8348,25.9249635 C58.6248,25.9849635 58.3398,26.0299635 58.0548,26.0299635 C57.1398,26.0299635 56.8248,25.6099635 56.8248,24.7699635 L56.8248,19.7749635 L58.8798,19.7749635 L58.8798,18.9049635 L56.8248,18.9049635 L56.8248,15.9799635 L55.7898,16.1299635 L55.7898,18.9049635 L54.4248,18.9049635 L54.4248,19.7749635 L55.7898,19.7749635 L55.7898,24.9199635 C55.7898,26.3599635 56.4648,26.8999635 57.8748,26.8999635 Z M63.3433,26.9599635 C64.6633,26.9599635 65.5333,26.5099635 66.4033,25.5949635 L65.8933,24.9199635 C65.1583,25.6849635 64.4083,26.0899635 63.3583,26.0899635 C61.8883,26.0899635 60.7783,24.9799635 60.7633,23.0449635 L66.4183,23.0449635 L66.4183,22.8499635 C66.4183,20.1499635 65.0233,18.7399635 63.1933,18.7399635 C61.5283,18.7399635 59.7283,20.0449635 59.7283,22.8349635 C59.7283,25.5349635 61.3483,26.9599635 63.3433,26.9599635 Z M60.7783,22.2349635 C60.9583,20.4649635 62.0383,19.6099635 63.1783,19.6099635 C64.5883,19.6099635 65.3083,20.7349635 65.4133,22.2349635 L60.7783,22.2349635 Z M70.8173,26.9299635 C72.6023,26.9299635 73.8923,26.1049635 73.8923,24.6499635 C73.8923,23.1649635 72.9623,22.6699635 70.8623,22.1749635 C69.4073,21.8299635 68.9723,21.4999635 68.9723,20.7649635 C68.9723,20.1499635 69.4823,19.5949635 70.6823,19.5949635 C71.6723,19.5949635 72.3923,19.9549635 73.0373,20.5699635 L73.5623,19.8499635 C72.8573,19.1749635 71.9723,18.7399635 70.6523,18.7399635 C68.9423,18.7399635 67.9673,19.6849635 67.9673,20.8099635 C67.9673,22.1599635 68.8073,22.6549635 70.7123,23.1199635 C72.3473,23.4949635 72.8873,23.8549635 72.8873,24.7249635 C72.8873,25.5649635 72.1823,26.0899635 70.8323,26.0899635 C69.7223,26.0899635 68.9273,25.6249635 68.2973,24.9049635 L67.7273,25.5349635 C68.3423,26.3149635 69.3773,26.9299635 70.8173,26.9299635 Z" id="Residentes"></path>
                </g>
                <path d="M226.6243,247.526164 L227.5543,244.886164 L231.7693,244.886164 L232.7143,247.676164 L234.5293,247.376164 L230.6443,236.381164 L228.8143,236.381164 L224.8843,247.526164 L226.6243,247.526164 Z M229.6693,238.736164 L229.6993,238.736164 L231.2293,243.236164 L228.1093,243.236164 L229.6693,238.736164 Z M240.6363,247.736164 C242.9613,247.736164 244.3113,246.551164 244.9713,244.721164 L243.3513,243.986164 C242.9163,245.231164 242.0163,246.056164 240.6363,246.056164 C238.7013,246.056164 237.5913,244.496164 237.5913,241.931164 C237.5913,239.501164 238.6413,237.941164 240.5313,237.941164 C241.8663,237.941164 242.6763,238.691164 243.1113,239.726164 L244.7013,238.781164 C243.9363,237.131164 242.6313,236.216164 240.5313,236.216164 C237.8013,236.216164 235.7163,238.301164 235.7163,241.946164 C235.7163,245.696164 237.7713,247.736164 240.6363,247.736164 Z M252.1058,247.736164 C254.4308,247.736164 255.7808,246.551164 256.4408,244.721164 L254.8208,243.986164 C254.3858,245.231164 253.4858,246.056164 252.1058,246.056164 C250.1708,246.056164 249.0608,244.496164 249.0608,241.931164 C249.0608,239.501164 250.1108,237.941164 252.0008,237.941164 C253.3358,237.941164 254.1458,238.691164 254.5808,239.726164 L256.1708,238.781164 C255.4058,237.131164 254.1008,236.216164 252.0008,236.216164 C249.2708,236.216164 247.1858,238.301164 247.1858,241.946164 C247.1858,245.696164 249.2408,247.736164 252.1058,247.736164 Z M261.2053,247.526164 L261.2053,236.426164 L259.3453,236.426164 L259.3453,247.526164 L261.2053,247.526164 Z M269.3658,247.736164 C272.0358,247.736164 274.3608,245.711164 274.3608,241.976164 C274.3608,238.241164 272.0358,236.216164 269.3658,236.216164 C266.6808,236.216164 264.3558,238.241164 264.3558,241.976164 C264.3558,245.711164 266.6808,247.736164 269.3658,247.736164 Z M269.3658,246.056164 C267.4908,246.056164 266.2308,244.496164 266.2308,241.976164 C266.2308,239.456164 267.4908,237.941164 269.3658,237.941164 C271.2408,237.941164 272.5008,239.456164 272.5008,241.976164 C272.5008,244.496164 271.2408,246.056164 269.3658,246.056164 Z M279.1868,247.526164 L279.1868,239.441164 L279.2168,239.441164 L284.6768,247.526164 L286.3868,247.526164 L286.3868,236.426164 L284.6468,236.426164 L284.6468,244.361164 L284.6168,244.361164 L279.3668,236.426164 L277.4618,236.426164 L277.4618,247.526164 L279.1868,247.526164 Z M291.9088,247.526164 L291.9088,236.426164 L290.0488,236.426164 L290.0488,247.526164 L291.9088,247.526164 Z M299.4333,247.736164 C302.0733,247.736164 303.5433,246.311164 303.5433,244.511164 C303.5433,242.411164 301.8633,241.736164 299.7633,241.121164 C297.9483,240.581164 297.1533,240.221164 297.1533,239.186164 C297.1533,238.466164 297.8733,237.911164 299.1333,237.911164 C300.3033,237.911164 301.4733,238.526164 302.3583,239.306164 L303.2433,237.806164 C302.1933,236.936164 300.7983,236.216164 299.1033,236.216164 C296.8833,236.216164 295.3233,237.461164 295.3233,239.336164 C295.3233,241.451164 297.0333,242.021164 299.1783,242.651164 C301.0083,243.206164 301.7133,243.656164 301.7133,244.631164 C301.7133,245.591164 300.7683,246.071164 299.3733,246.071164 C298.0083,246.071164 296.6133,245.306164 295.7583,244.421164 L294.7533,245.846164 C295.8783,246.911164 297.4383,247.736164 299.4333,247.736164 Z M310.6268,247.526164 L310.6268,238.166164 L314.1818,238.166164 L313.9118,236.426164 L305.3318,236.426164 L305.3318,238.166164 L308.7518,238.166164 L308.7518,247.526164 L310.6268,247.526164 Z M315.1483,247.526164 L316.0783,244.886164 L320.2933,244.886164 L321.2383,247.676164 L323.0533,247.376164 L319.1683,236.381164 L317.3383,236.381164 L313.4083,247.526164 L315.1483,247.526164 Z M318.1933,238.736164 L318.2233,238.736164 L319.7533,243.236164 L316.6333,243.236164 L318.1933,238.736164 Z M329.4768,247.736164 C332.1168,247.736164 333.5868,246.311164 333.5868,244.511164 C333.5868,242.411164 331.9068,241.736164 329.8068,241.121164 C327.9918,240.581164 327.1968,240.221164 327.1968,239.186164 C327.1968,238.466164 327.9168,237.911164 329.1768,237.911164 C330.3468,237.911164 331.5168,238.526164 332.4018,239.306164 L333.2868,237.806164 C332.2368,236.936164 330.8418,236.216164 329.1468,236.216164 C326.9268,236.216164 325.3668,237.461164 325.3668,239.336164 C325.3668,241.451164 327.0768,242.021164 329.2218,242.651164 C331.0518,243.206164 331.7568,243.656164 331.7568,244.631164 C331.7568,245.591164 330.8118,246.071164 329.4168,246.071164 C328.0518,246.071164 326.6568,245.306164 325.8018,244.421164 L324.7968,245.846164 C325.9218,246.911164 327.4818,247.736164 329.4768,247.736164 Z" id="ACCIONISTAS" fill="#00BEFF"></path>
                <path d="M198.8071,184.917878 C192.4571,184.917878 189.7071,181.017878 189.7071,175.617878 C189.7071,169.167878 193.5571,165.617878 199.1071,165.617878 C204.1071,165.617878 208.5071,169.617878 209.3571,178.717878 C206.8571,182.367878 203.1071,184.917878 198.8071,184.917878 Z M198.0071,201.817878 C206.4571,201.817878 211.9071,192.717878 211.9071,181.967878 C211.9071,169.117878 206.0571,163.417878 199.2571,163.417878 C191.7571,163.417878 187.2071,168.767878 187.2071,175.617878 C187.2071,181.917878 190.6071,187.117878 198.6571,187.117878 C203.6071,187.117878 207.2071,184.467878 209.5071,181.767878 C209.6071,191.617878 205.2571,199.617878 198.0571,199.617878 C194.1071,199.617878 192.2571,198.467878 189.9571,196.517878 L188.6071,198.417878 C190.7571,200.367878 193.6571,201.817878 198.0071,201.817878 Z M228.4471,201.817878 C235.7971,201.817878 240.2971,197.117878 240.2971,191.267878 C240.2971,185.667878 237.5471,182.567878 231.9971,181.417878 C236.5971,180.667878 239.5471,177.467878 239.5471,172.617878 C239.5471,168.067878 236.4971,163.417878 228.7471,163.417878 C223.7971,163.417878 220.2971,165.967878 217.7971,169.167878 L219.7971,170.467878 C221.8971,167.667878 224.6971,165.617878 228.6971,165.617878 C234.6471,165.617878 237.0971,168.767878 237.0971,172.767878 C237.0971,177.817878 233.7471,180.317878 225.6471,180.317878 L224.0471,180.317878 L224.0471,182.517878 L225.3471,182.517878 C234.6971,182.517878 237.8471,185.617878 237.8471,191.367878 C237.8471,196.167878 234.2971,199.617878 228.4971,199.617878 C224.2471,199.617878 220.8471,197.817878 218.1471,193.517878 L216.0971,194.767878 C218.6971,199.217878 223.1971,201.817878 228.4471,201.817878 Z M258.3771,201.817878 C265.9271,201.817878 270.6271,196.217878 270.6271,188.917878 C270.6271,181.517878 265.7271,176.917878 259.3271,176.917878 C255.3271,176.917878 252.8771,178.317878 250.9271,180.617878 L252.0271,166.517878 L268.6271,166.517878 L268.1771,164.117878 L249.7771,164.117878 L248.3771,183.317878 L250.4271,184.167878 C252.4771,181.117878 255.1271,179.117878 259.2771,179.117878 C264.3271,179.117878 268.1771,182.667878 268.1771,189.067878 C268.1771,194.317878 265.1271,199.617878 258.4271,199.617878 C253.7771,199.617878 250.7771,197.117878 248.6271,193.517878 L246.5771,194.767878 C248.8771,198.917878 253.1271,201.817878 258.3771,201.817878 Z M278.8221,201.317878 C279.9721,201.317878 280.7721,200.517878 280.7721,199.067878 C280.7721,197.667878 279.9721,196.867878 278.8221,196.867878 C277.6721,196.867878 276.9221,197.667878 276.9221,199.067878 C276.9221,200.517878 277.6721,201.317878 278.8221,201.317878 Z M312.4721,201.117878 L312.0721,198.817878 L291.8221,198.817878 C291.9221,195.217878 295.2721,190.767878 302.2721,186.317878 C309.3721,181.817878 312.1221,178.667878 312.1221,173.417878 C312.1221,167.617878 308.0721,163.417878 301.5721,163.417878 C296.4721,163.417878 292.4221,166.167878 290.0221,171.367878 L292.0721,172.367878 C294.2221,167.767878 297.1221,165.617878 301.4721,165.617878 C306.8721,165.617878 309.6721,168.867878 309.6721,173.567878 C309.6721,177.617878 307.4221,180.417878 301.9221,183.917878 C292.1721,190.167878 289.2221,194.967878 289.2221,200.317878 L289.2221,201.117878 L312.4721,201.117878 Z M330.5871,201.817878 C338.6871,201.817878 343.3871,197.267878 343.3871,192.317878 C343.3871,186.917878 339.7371,184.217878 333.0871,181.317878 C338.5871,178.867878 341.6871,176.767878 341.6871,172.217878 C341.6871,167.717878 337.6371,163.417878 330.5871,163.417878 C323.7371,163.417878 319.4871,167.667878 319.4871,172.217878 C319.4871,176.667878 322.6871,179.117878 327.9371,181.417878 C321.4871,184.217878 317.7871,187.017878 317.7871,192.317878 C317.7871,197.417878 322.4871,201.817878 330.5871,201.817878 Z M330.6371,180.267878 C324.5371,177.567878 321.9371,175.767878 321.9371,172.067878 C321.9371,168.917878 324.9371,165.617878 330.5871,165.617878 C336.5371,165.617878 339.2371,169.017878 339.2371,172.217878 C339.2371,175.967878 336.7371,177.667878 330.6371,180.267878 Z M330.5871,199.617878 C324.6371,199.617878 320.2371,196.517878 320.2371,192.167878 C320.2371,187.917878 323.3371,185.617878 330.4871,182.467878 C337.1371,185.267878 340.9371,187.717878 340.9371,192.167878 C340.9371,196.667878 336.5371,199.617878 330.5871,199.617878 Z M369.3321,201.117878 L369.3321,191.617878 L375.8321,191.617878 L375.3821,189.367878 L369.3321,189.367878 L369.3321,164.117878 L366.0321,164.117878 L349.1821,189.867878 L349.1821,191.617878 L366.9321,191.617878 L366.9321,201.117878 L369.3321,201.117878 Z M366.8321,166.967878 L366.9321,166.967878 L366.9321,189.367878 L352.1321,189.367878 L366.8321,166.967878 Z" id="935.284" fill="#121212"></path>
                <g id="Group-31" transform="translate(93.000000, 95.408000)" stroke="#121212">
                    <path d="M235.5889,256.3887 L0.5889,256.3887" id="Stroke-19"></path>
                    <path d="M73.5889,0.3887 L0.5889,0.3887" id="Stroke-21"></path>
                    <path d="M400.5889,98.3887 L380.5889,98.3887" id="Stroke-23"></path>
                    <path d="M371.5889,253.3887 L323.5889,253.3887" id="Stroke-25"></path>
                    <path d="M323.5889,296.3887 L265.5889,296.3887" id="Stroke-27"></path>
                    <path d="M242.5889,307.3887 L242.5889,324.3887" id="Stroke-29"></path>
                </g>
            </g>
        </g>
    </g>
</svg>