<?xml version="1.0" encoding="utf-8"?>
<!-- Generator: Adobe Illustrator 21.0.0, SVG Export Plug-In . SVG Version: 6.00 Build 0)  -->
<!DOCTYPE svg PUBLIC "-//W3C//DTD SVG 1.1//EN" "http://www.w3.org/Graphics/SVG/1.1/DTD/svg11.dtd">
<svg version="1.1" id="Capa_1" xmlns="http://www.w3.org/2000/svg" xmlns:xlink="http://www.w3.org/1999/xlink" x="0px" y="0px"
	 viewBox="0 0 735.5 285.7" style="enable-background:new 0 0 735.5 285.7;" xml:space="preserve">
<style type="text/css">
	.st0{fill:url(#SVGID_1_);}
	.st1{fill:url(#SVGID_2_);}
	.st2{fill:url(#SVGID_3_);}
	.st3{fill:url(#SVGID_4_);}
	.st4{fill:url(#SVGID_5_);}
	.st5{fill:url(#SVGID_6_);}
	.st6{fill:url(#SVGID_7_);}
	.st7{fill:url(#SVGID_8_);}
	.st8{fill:url(#SVGID_9_);}
	.st9{fill:url(#SVGID_10_);}
	.st10{fill:#2ECDCD;}
	.st11{fill:#0064A8;}
	.st12{fill:#2A86CA;}
	.st13{enable-background:new    ;}
	.st14{fill:#FFFFFF;}
</style>
<linearGradient id="SVGID_1_" gradientUnits="userSpaceOnUse" x1="22.4903" y1="223.0388" x2="67.0195" y2="242.3993">
	<stop  offset="0" style="stop-color:#000000;stop-opacity:0"/>
	<stop  offset="1" style="stop-color:#000000;stop-opacity:0.5"/>
</linearGradient>
<polygon class="st0" points="47.2,240.7 0.1,219.9 19.1,214.7 62,233.3 "/>
<linearGradient id="SVGID_2_" gradientUnits="userSpaceOnUse" x1="161.6975" y1="222.8626" x2="206.2267" y2="242.2232">
	<stop  offset="0" style="stop-color:#000000;stop-opacity:0"/>
	<stop  offset="1" style="stop-color:#000000;stop-opacity:0.5"/>
</linearGradient>
<polygon class="st1" points="186.4,240.5 139.3,219.7 158.3,214.6 201.2,233.2 "/>
<linearGradient id="SVGID_3_" gradientUnits="userSpaceOnUse" x1="184.1975" y1="222.8626" x2="228.7267" y2="242.2232">
	<stop  offset="0" style="stop-color:#000000;stop-opacity:0"/>
	<stop  offset="1" style="stop-color:#000000;stop-opacity:0.5"/>
</linearGradient>
<polygon class="st2" points="208.9,240.5 161.8,219.7 180.8,214.6 223.7,233.2 "/>
<linearGradient id="SVGID_4_" gradientUnits="userSpaceOnUse" x1="332.1975" y1="222.8626" x2="376.7267" y2="242.2232">
	<stop  offset="0" style="stop-color:#000000;stop-opacity:0"/>
	<stop  offset="1" style="stop-color:#000000;stop-opacity:0.5"/>
</linearGradient>
<polygon class="st3" points="356.9,240.5 309.8,219.7 328.8,214.6 371.7,233.2 "/>
<linearGradient id="SVGID_5_" gradientUnits="userSpaceOnUse" x1="311.6975" y1="222.8626" x2="356.2267" y2="242.2232">
	<stop  offset="0" style="stop-color:#000000;stop-opacity:0"/>
	<stop  offset="1" style="stop-color:#000000;stop-opacity:0.5"/>
</linearGradient>
<polygon class="st4" points="336.4,240.5 289.3,219.7 308.3,214.6 351.2,233.2 "/>
<linearGradient id="SVGID_6_" gradientUnits="userSpaceOnUse" x1="494.1975" y1="222.8626" x2="538.7267" y2="242.2232">
	<stop  offset="0" style="stop-color:#000000;stop-opacity:0"/>
	<stop  offset="1" style="stop-color:#000000;stop-opacity:0.5"/>
</linearGradient>
<polygon class="st5" points="518.9,240.5 471.8,219.7 490.8,214.6 533.7,233.2 "/>
<linearGradient id="SVGID_7_" gradientUnits="userSpaceOnUse" x1="472.1975" y1="222.8626" x2="516.7267" y2="242.2232">
	<stop  offset="0" style="stop-color:#000000;stop-opacity:0"/>
	<stop  offset="1" style="stop-color:#000000;stop-opacity:0.5"/>
</linearGradient>
<polygon class="st6" points="496.9,240.5 449.8,219.7 468.8,214.6 511.7,233.2 "/>
<linearGradient id="SVGID_8_" gradientUnits="userSpaceOnUse" x1="642.6975" y1="222.8626" x2="687.2267" y2="242.2232">
	<stop  offset="0" style="stop-color:#000000;stop-opacity:0"/>
	<stop  offset="1" style="stop-color:#000000;stop-opacity:0.5"/>
</linearGradient>
<polygon class="st7" points="667.4,240.5 620.3,219.7 639.3,214.6 682.2,233.2 "/>
<linearGradient id="SVGID_9_" gradientUnits="userSpaceOnUse" x1="620.6975" y1="222.8626" x2="665.2267" y2="242.2232">
	<stop  offset="0" style="stop-color:#000000;stop-opacity:0"/>
	<stop  offset="1" style="stop-color:#000000;stop-opacity:0.5"/>
</linearGradient>
<polygon class="st8" points="645.4,240.5 598.3,219.7 617.3,214.6 660.2,233.2 "/>
<linearGradient id="SVGID_10_" gradientUnits="userSpaceOnUse" x1="43.4475" y1="222.8626" x2="87.9767" y2="242.2232">
	<stop  offset="0" style="stop-color:#000000;stop-opacity:0"/>
	<stop  offset="1" style="stop-color:#000000;stop-opacity:0.5"/>
</linearGradient>
<polygon class="st9" points="68.2,240.5 21.1,219.7 40.1,214.6 83,233.2 "/>
<title>des_financiero_rentabilidad_en</title>
<g>
	<polygon class="st10" points="667.2,240.9 683.1,232.9 683.1,149.3 667.2,157.2 	"/>
</g>
<g>
	<polygon class="st11" points="667.2,102 683.1,94 667.2,87.6 651.3,95.6 	"/>
</g>
<g>
	<polygon class="st10" points="667.2,102 667.2,157.2 683.1,149.3 683.1,94 	"/>
</g>
<g>
	<polygon class="st12" points="645.2,240.9 661.1,232.9 661.1,169.3 645.2,157.2 	"/>
</g>
<g>
	<polygon class="st11" points="645.2,100.5 661.1,92.6 645.2,86.2 629.3,94.2 	"/>
</g>
<g>
	<polygon class="st12" points="645.2,100.5 645.2,157.2 661.1,169.3 661.1,92.6 	"/>
</g>
<g class="st13">
	<path class="st14" d="M27.9,281.7v-11.1h4c2.6,0,4.2,1,4.2,3.4c0,1.8-0.9,2.7-2.4,3.1l2.6,4.5l-1.8,0.3l-2.7-4.5h-2v4.4L27.9,281.7
		L27.9,281.7z M29.8,275.7h2c1.6,0,2.4-0.5,2.4-1.7s-0.8-1.7-2.4-1.7h-2L29.8,275.7z"/>
	<path class="st14" d="M38,276.1c0-3.7,2.3-5.8,5-5.8s5,2,5,5.8c0,3.7-2.3,5.8-5,5.8C40.4,281.9,38,279.9,38,276.1z M46.2,276.1
		c0-2.5-1.3-4-3.1-4c-1.9,0-3.1,1.5-3.1,4s1.3,4.1,3.1,4.1S46.2,278.7,46.2,276.1z"/>
	<path class="st14" d="M50.5,281.7v-11.1h7.2v1.7h-5.3v2.8h4l0.3,1.7h-4.3v3.2H58v1.7L50.5,281.7L50.5,281.7z"/>
</g>
<g class="st13">
	<path class="st14" d="M67.7,284.8c-2.4-2.1-3.7-4.3-3.7-7.2c0-2.8,1.3-5.1,3.7-7.2l0.5,0.5c-1.9,1.7-3.1,4-3.1,6.6
		c0,2.7,1.2,4.9,3.1,6.7L67.7,284.8z"/>
	<path class="st14" d="M70.4,273.8c0-2.1,1-3.4,2.5-3.4s2.5,1.3,2.5,3.3c0,1.9-0.9,3.4-2.5,3.4C71.3,277.1,70.4,275.8,70.4,273.8z
		 M74.4,273.8c0-1.5-0.6-2.5-1.5-2.5c-1,0-1.5,1.1-1.5,2.5c0,1.5,0.6,2.5,1.6,2.5C73.9,276.3,74.4,275.2,74.4,273.8z M72.9,281.7
		l6.6-11.1h1l-6.6,11.1H72.9z M78.1,278.5c0-2.1,1-3.4,2.5-3.4s2.5,1.3,2.5,3.3c0,1.9-0.9,3.3-2.5,3.3
		C79,281.8,78.1,280.5,78.1,278.5z M82.1,278.5c0-1.5-0.5-2.5-1.5-2.5s-1.5,1.1-1.5,2.5c0,1.5,0.5,2.5,1.5,2.5
		S82.1,279.9,82.1,278.5z"/>
	<path class="st14" d="M85.3,284.3c1.9-1.7,3.1-4,3.1-6.7c0-2.6-1.2-4.9-3.1-6.6l0.5-0.5c2.4,2.1,3.8,4.3,3.8,7.2
		c0,2.8-1.3,5.1-3.8,7.2L85.3,284.3z"/>
</g>
<g class="st13">
	<path class="st14" d="M403.4,13v-0.2c0-1.6,0.8-3.1,3.7-4.9c1.7-1.1,2.3-1.8,2.3-3c0-1.3-0.8-2.2-2.3-2.2c-1.2,0-2.1,0.6-2.8,1.9
		l-0.8-0.5c0.8-1.5,2-2.4,3.6-2.4c2,0,3.3,1.3,3.3,3c0,1.5-0.7,2.5-2.9,3.8c-2,1.3-3,2.5-3.1,3.5h5.9l0.1,1H403.4z"/>
	<path class="st14" d="M412,7.5c0-3.5,1.5-5.8,4.1-5.8s4,2.3,4,5.8s-1.4,5.8-4,5.8S412,11,412,7.5z M419.1,7.5c0-3.1-1.2-4.8-3-4.8
		c-1.9,0-3,1.7-3,4.8s1.2,4.8,3,4.8C418,12.3,419.1,10.6,419.1,7.5z"/>
	<path class="st14" d="M424.1,13V2.9L422,3.7l-0.1-0.9l2.3-0.8h1v11H424.1z"/>
	<path class="st14" d="M427.9,7.7c0-3.4,1.8-6,4.4-6c1.2,0,2,0.4,2.6,0.8l-0.5,0.8c-0.6-0.5-1.1-0.8-2.1-0.8c-2.1,0-3.3,2.1-3.3,4.9
		c0.7-0.8,1.8-1.5,3.2-1.5c2.3,0,3.5,1.5,3.5,3.5c0,2.1-1.4,3.7-3.7,3.7C429.7,13.3,427.9,11.5,427.9,7.7z M434.5,9.6
		c0-1.5-0.8-2.6-2.5-2.6c-1.2,0-2.3,0.7-3,1.6c0.2,2.5,1.4,3.7,2.9,3.7S434.5,11.3,434.5,9.6z"/>
</g>
<g class="st13">
	<path class="st14" d="M23.6,128.9l0.8-0.8c0.8,1.2,1.9,2.1,3.5,2.1c2.3,0,3.3-1.7,3.3-3.5c0-2.1-1.3-3.3-3-3.3
		c-1.4,0-2.3,0.6-3,1.7l-1-0.4l0.5-7h7v1.2h-6l-0.4,4.6c0.6-0.8,1.5-1.2,3-1.2c2.4,0,4.1,1.7,4.1,4.4s-1.7,4.7-4.6,4.7
		C26,131.3,24.5,130.3,23.6,128.9z"/>
	<path class="st14" d="M34.4,130.2c0-0.6,0.3-0.9,0.9-0.9c0.5,0,0.9,0.4,0.9,0.9c0,0.6-0.3,1-0.9,1
		C34.7,131.1,34.4,130.8,34.4,130.2z"/>
	<path class="st14" d="M38.3,131v-0.3c0-1.9,1-3.7,4.5-5.9c2-1.3,2.8-2.2,2.8-3.6c0-1.5-0.9-2.6-2.7-2.6c-1.5,0-2.5,0.8-3.3,2.3
		l-1-0.6c0.9-1.8,2.4-2.8,4.3-2.8c2.4,0,3.9,1.5,3.9,3.7c0,1.8-0.9,3-3.4,4.6c-2.4,1.5-3.6,3-3.7,4.2h7.1l0.2,1H38.3z"/>
</g>
<g class="st13">
	<path class="st14" d="M306.1,13v-0.2c0-1.6,0.8-3.1,3.7-4.9c1.7-1.1,2.3-1.8,2.3-3c0-1.3-0.8-2.2-2.3-2.2c-1.2,0-2.1,0.6-2.8,1.9
		l-0.8-0.5c0.8-1.5,2-2.4,3.6-2.4c2,0,3.3,1.3,3.3,3c0,1.5-0.7,2.5-2.9,3.8c-2,1.3-3,2.5-3.1,3.5h5.9l0.1,1H306.1z"/>
	<path class="st14" d="M314.7,7.5c0-3.5,1.5-5.8,4.1-5.8s4,2.3,4,5.8s-1.4,5.8-4,5.8S314.7,11,314.7,7.5z M321.8,7.5
		c0-3.1-1.2-4.8-3-4.8c-1.9,0-3,1.7-3,4.8s1.2,4.8,3,4.8C320.6,12.3,321.8,10.6,321.8,7.5z"/>
	<path class="st14" d="M326.8,13V2.9l-2.1,0.7l-0.1-0.9l2.3-0.8h1V13H326.8z"/>
	<path class="st14" d="M330.5,11.3l0.7-0.7c0.7,1,1.6,1.7,2.9,1.7c1.9,0,2.8-1.4,2.8-2.9c0-1.8-1.1-2.8-2.5-2.8
		c-1.1,0-1.9,0.5-2.5,1.4L331,7.8l0.4-5.8h5.8v1h-5L332,6.8c0.5-0.6,1.3-1,2.5-1c2,0,3.4,1.4,3.4,3.6s-1.5,3.9-3.8,3.9
		C332.5,13.3,331.2,12.5,330.5,11.3z"/>
</g>
<g class="st13">
	<path class="st14" d="M63.6,96.8c0-4.1,2.2-7.1,5.2-7.1c1.5,0,2.4,0.4,3.1,1l-0.6,1c-0.7-0.6-1.4-0.9-2.6-0.9c-2.5,0-4,2.6-4,5.9
		c0.8-0.9,2.1-1.8,3.8-1.8c2.8,0,4.2,1.7,4.2,4.2s-1.7,4.4-4.5,4.4C65.7,103.5,63.6,101.4,63.6,96.8z M71.5,99.1
		c0-1.8-0.9-3.1-3.1-3.1c-1.5,0-2.8,0.8-3.6,2c0.3,3.1,1.7,4.4,3.5,4.4C70.2,102.4,71.5,101.1,71.5,99.1z"/>
	<path class="st14" d="M74.4,102.4c0-0.6,0.3-0.9,0.9-0.9c0.5,0,0.9,0.4,0.9,0.9c0,0.6-0.3,1-0.9,1
		C74.7,103.3,74.4,102.9,74.4,102.4z"/>
	<path class="st14" d="M78.9,103.2l5.6-12.1h-6.8l-0.1-1.2h8.2V91l-5.7,12.3L78.9,103.2z"/>
</g>
<g class="st13">
	<path class="st14" d="M174.8,114.6c0-4.1,2.2-7.1,5.2-7.1c1.5,0,2.4,0.4,3.1,1l-0.6,1c-0.7-0.6-1.4-0.9-2.6-0.9c-2.5,0-4,2.6-4,5.9
		c0.8-0.9,2.1-1.8,3.8-1.8c2.8,0,4.2,1.7,4.2,4.2s-1.7,4.4-4.5,4.4C176.9,121.3,174.8,119.2,174.8,114.6z M182.7,116.9
		c0-1.8-0.9-3.1-3.1-3.1c-1.5,0-2.8,0.8-3.6,2c0.3,3.1,1.7,4.4,3.5,4.4C181.4,120.2,182.7,119,182.7,116.9z"/>
	<path class="st14" d="M185.6,120.2c0-0.6,0.3-0.9,0.9-0.9c0.5,0,0.9,0.4,0.9,0.9c0,0.6-0.3,1-0.9,1
		C185.9,121.1,185.6,120.8,185.6,120.2z"/>
	<path class="st14" d="M194.8,121v-3.2h-6.4v-1l6.1-9.1h1.6v9h2.2l0.1,1.1h-2.3v3.2H194.8z M189.8,116.7h5v-7.5l0,0L189.8,116.7z"/>
</g>
<g class="st13">
	<path class="st14" d="M196.3,77c0-1.9,1.3-2.9,3.5-3.9c-1.8-0.8-2.9-1.7-2.9-3.3c0-1.6,1.5-3.2,4.1-3.2c2.7,0,4.1,1.6,4.1,3.2
		s-1.1,2.4-3,3.3c2.3,1,3.6,1.9,3.6,3.9c0,1.9-1.7,3.5-4.7,3.5C198.1,80.5,196.3,78.9,196.3,77z M204.6,76.9c0-1.5-1.3-2.3-3.5-3.3
		c-2.4,1-3.4,1.9-3.4,3.3c0,1.5,1.5,2.5,3.5,2.5C203.1,79.4,204.6,78.4,204.6,76.9z M204,69.9c0-1.1-0.9-2.2-2.9-2.2
		c-1.9,0-2.9,1.1-2.9,2.1c0,1.3,0.9,1.9,3,2.8C203.1,71.8,204,71.1,204,69.9z"/>
	<path class="st14" d="M207.6,79.4c0-0.6,0.3-0.9,0.9-0.9c0.5,0,0.9,0.4,0.9,0.9c0,0.6-0.3,1-0.9,1
		C207.9,80.3,207.6,79.9,207.6,79.4z"/>
	<path class="st14" d="M211.6,80.2v-0.3c0-1.9,1-3.7,4.5-5.9c2-1.3,2.8-2.2,2.8-3.6c0-1.5-0.9-2.6-2.7-2.6c-1.5,0-2.5,0.8-3.3,2.3
		l-1-0.6c0.9-1.8,2.4-2.8,4.3-2.8c2.4,0,3.9,1.5,3.9,3.7c0,1.8-0.9,3-3.4,4.6c-2.4,1.5-3.6,3-3.7,4.2h7.1l0.1,1.2h-8.6V80.2z"/>
</g>
<g>
	<polygon class="st10" points="394.2,4.8 389.6,14 372,14 376.6,4.8 	"/>
</g>
<g>
	<polygon class="st12" points="294,4.8 289.4,14 271.8,14 276.4,4.8 	"/>
</g>
<g>
	<polygon class="st12" points="46.9,240.9 62.8,232.9 62.8,148.2 46.9,156.1 	"/>
</g>
<g>
	<polygon class="st11" points="46.9,156.1 62.8,148.1 46.9,141.8 31,149.7 	"/>
</g>
<g>
	<polygon class="st10" points="67.9,240.9 83.8,232.9 83.8,122.8 67.9,130.6 	"/>
</g>
<g>
	<polygon class="st11" points="67.9,130.7 83.8,122.7 67.9,116.3 52,124.3 	"/>
</g>
<g class="st13">
	<path class="st14" d="M167.9,281.7v-11.1h4c2.6,0,4.2,1,4.2,3.4c0,1.8-0.9,2.7-2.4,3.1l2.6,4.5l-1.8,0.3l-2.7-4.5h-2v4.4
		L167.9,281.7L167.9,281.7z M169.8,275.7h2c1.6,0,2.4-0.5,2.4-1.7s-0.8-1.7-2.4-1.7h-2V275.7z"/>
	<path class="st14" d="M178,276.1c0-3.7,2.3-5.8,5-5.8s5,2,5,5.8c0,3.7-2.3,5.8-5,5.8C180.4,281.9,178,279.9,178,276.1z
		 M186.2,276.1c0-2.5-1.3-4-3.1-4c-1.9,0-3.1,1.5-3.1,4s1.3,4.1,3.1,4.1S186.2,278.7,186.2,276.1z"/>
	<path class="st14" d="M192.5,281.7v-9.4h-3.4v-1.7h8.6l0.3,1.7h-3.6v9.4H192.5z"/>
	<path class="st14" d="M199.9,281.7v-11.1h7.2v1.7h-5.3v2.8h4l0.3,1.7h-4.3v3.2h5.6v1.7L199.9,281.7L199.9,281.7z"/>
</g>
<g class="st13">
	<path class="st14" d="M217.6,284.8c-2.4-2.1-3.7-4.3-3.7-7.2c0-2.8,1.3-5.1,3.7-7.2l0.5,0.5c-1.9,1.7-3.1,4-3.1,6.6
		c0,2.7,1.2,4.9,3.1,6.7L217.6,284.8z"/>
	<path class="st14" d="M220.3,273.8c0-2.1,1-3.4,2.5-3.4s2.5,1.3,2.5,3.3c0,1.9-0.9,3.4-2.5,3.4
		C221.2,277.1,220.3,275.8,220.3,273.8z M224.3,273.8c0-1.5-0.6-2.5-1.5-2.5c-1,0-1.5,1.1-1.5,2.5c0,1.5,0.6,2.5,1.6,2.5
		C223.8,276.3,224.3,275.2,224.3,273.8z M222.8,281.7l6.6-11.1h1l-6.6,11.1H222.8z M228,278.5c0-2.1,1-3.4,2.5-3.4s2.5,1.3,2.5,3.3
		c0,1.9-0.9,3.3-2.5,3.3C228.9,281.8,228,280.5,228,278.5z M232,278.5c0-1.5-0.5-2.5-1.5-2.5s-1.5,1.1-1.5,2.5
		c0,1.5,0.5,2.5,1.5,2.5S232,279.9,232,278.5z"/>
	<path class="st14" d="M235.2,284.3c1.9-1.7,3.1-4,3.1-6.7c0-2.6-1.2-4.9-3.1-6.6l0.5-0.5c2.4,2.1,3.8,4.3,3.8,7.2
		c0,2.8-1.3,5.1-3.8,7.2L235.2,284.3z"/>
</g>
<g>
	<polygon class="st12" points="186.9,240.9 202.8,232.9 202.8,169.3 186.9,157.2 	"/>
</g>
<g>
	<polygon class="st11" points="186.9,150 202.8,142.1 186.9,135.7 170.9,143.7 	"/>
</g>
<g>
	<polygon class="st12" points="186.9,150 186.9,157.2 202.8,169.3 202.8,142.1 	"/>
</g>
<g>
	<polygon class="st10" points="208.9,240.9 224.8,232.9 224.8,149.3 208.9,157.2 	"/>
</g>
<g>
	<polygon class="st11" points="208.9,106 224.8,98 208.9,91.7 192.9,99.6 	"/>
</g>
<g>
	<polygon class="st10" points="208.9,106 208.9,157.2 224.8,149.3 224.8,98 	"/>
</g>
<g class="st13">
	<path class="st14" d="M679.1,77.2l0.8-0.8c0.8,1.2,1.9,2.1,3.5,2.1c2.3,0,3.3-1.7,3.3-3.5c0-2.1-1.3-3.3-3-3.3
		c-1.4,0-2.3,0.6-3,1.7l-1-0.4l0.5-7h7v1.2h-6l-0.4,4.6c0.6-0.8,1.5-1.2,3-1.2c2.4,0,4.1,1.7,4.1,4.4s-1.7,4.7-4.6,4.7
		C681.5,79.6,680,78.6,679.1,77.2z"/>
	<path class="st14" d="M692.6,79.4V67.2l-2.6,0.9l-0.2-1.1l2.8-1h1.2v13.3L692.6,79.4L692.6,79.4z"/>
	<path class="st14" d="M697.8,78.5c0-0.6,0.3-0.9,0.9-0.9c0.5,0,0.9,0.4,0.9,0.9c0,0.6-0.3,1-0.9,1S697.8,79.1,697.8,78.5z"/>
	<path class="st14" d="M702.3,78.4l0.6-1c0.8,0.7,1.5,1.1,2.9,1.1c2.4,0,3.9-2.6,3.9-5.9c-0.8,0.9-2.1,1.8-3.8,1.8
		c-2.8,0-4.2-1.7-4.2-4.2s1.7-4.4,4.5-4.4c2.6,0,4.7,2.1,4.7,6.7c0,4.1-2.2,7.1-5.2,7.1C704.1,79.6,703.1,79.1,702.3,78.4z
		 M709.6,71.3c-0.3-3.1-1.7-4.4-3.5-4.4c-1.9,0-3.2,1.2-3.2,3.3c0,1.8,0.9,3.1,3.1,3.1C707.5,73.3,708.8,72.5,709.6,71.3z"/>
</g>
<g class="st13">
	<path class="st14" d="M606.1,74l0.8-0.8c0.8,1.2,1.9,2.1,3.5,2.1c2.3,0,3.3-1.7,3.3-3.5c0-2.1-1.3-3.3-3-3.3c-1.4,0-2.3,0.6-3,1.7
		l-1-0.4l0.5-7h7V64h-6l-0.4,4.6c0.6-0.8,1.5-1.2,3-1.2c2.4,0,4.1,1.7,4.1,4.4s-1.7,4.7-4.6,4.7C608.5,76.4,607,75.4,606.1,74z"/>
	<path class="st14" d="M616.5,76.2v-0.3c0-1.9,1-3.7,4.5-5.9c2-1.3,2.8-2.2,2.8-3.6c0-1.5-0.9-2.6-2.7-2.6c-1.5,0-2.5,0.8-3.3,2.3
		l-1-0.6c0.9-1.8,2.4-2.8,4.3-2.8c2.4,0,3.9,1.5,3.9,3.7c0,1.8-0.9,3-3.4,4.6c-2.4,1.5-3.6,3-3.7,4.2h7.1l0.1,1.2h-8.6V76.2z"/>
	<path class="st14" d="M627.6,75.3c0-0.6,0.3-0.9,0.9-0.9c0.5,0,0.9,0.4,0.9,0.9c0,0.6-0.3,1-0.9,1
		C627.9,76.2,627.6,75.9,627.6,75.3z"/>
	<path class="st14" d="M631,69.5c0-4.2,1.8-6.9,4.9-6.9s4.9,2.8,4.9,6.9s-1.7,6.9-4.9,6.9S631,73.7,631,69.5z M639.5,69.5
		c0-3.8-1.4-5.8-3.6-5.8c-2.3,0-3.6,2-3.6,5.8s1.4,5.8,3.6,5.8S639.5,73.3,639.5,69.5z"/>
</g>
<g class="st13">
	<path class="st14" d="M613.2,281.7v-11.1h7.2v1.7h-5.3v2.8h4l0.3,1.7h-4.3v3.2h5.6v1.7L613.2,281.7L613.2,281.7z"/>
	<path class="st14" d="M623,281.7v-11.1h7v1.7h-5.1v3h3.8l0.3,1.7h-4v4.7L623,281.7L623,281.7z"/>
	<path class="st14" d="M632.2,281.7v-11.1h7v1.7h-5.1v3h3.8l0.3,1.7h-4v4.7L632.2,281.7L632.2,281.7z"/>
	<path class="st14" d="M641.5,281.7v-11.1h1.9v11.1H641.5z"/>
	<path class="st14" d="M645.9,276.1c0-3.6,2.1-5.7,4.8-5.7c2.1,0,3.4,0.9,4.2,2.6l-1.6,0.9c-0.4-1-1.2-1.8-2.6-1.8
		c-1.9,0-2.9,1.6-2.9,4c0,2.6,1.1,4.1,3,4.1c1.4,0,2.3-0.8,2.7-2.1l1.6,0.7c-0.7,1.8-2,3-4.3,3C648,281.9,645.9,279.9,645.9,276.1z"
		/>
	<path class="st14" d="M657.7,281.7v-11.1h1.9v11.1H657.7z"/>
	<path class="st14" d="M662.7,281.7v-11.1h7.2v1.7h-5.3v2.8h4l0.3,1.7h-4.3v3.2h5.6v1.7L662.7,281.7L662.7,281.7z"/>
	<path class="st14" d="M672.4,281.7v-11.1h1.9l5.2,7.9l0,0v-7.9h1.7v11.1h-1.7l-5.5-8.1l0,0v8.1H672.4z"/>
	<path class="st14" d="M683.8,276.1c0-3.6,2.1-5.7,4.8-5.7c2.1,0,3.4,0.9,4.2,2.6l-1.6,0.9c-0.4-1-1.2-1.8-2.6-1.8
		c-1.9,0-2.9,1.6-2.9,4c0,2.6,1.1,4.1,3,4.1c1.4,0,2.3-0.8,2.7-2.1l1.6,0.7c-0.7,1.8-2,3-4.3,3C685.8,281.9,683.8,279.9,683.8,276.1
		z"/>
	<path class="st14" d="M697.8,281.7v-4.8l-3.7-6.2l1.8-0.3l2.9,4.9l2.8-4.7h1.9l-3.8,6.3v4.8L697.8,281.7L697.8,281.7z"/>
</g>
<g class="st13">
	<path class="st14" d="M712.6,284.8c-2.4-2.1-3.7-4.3-3.7-7.2c0-2.8,1.3-5.1,3.7-7.2l0.5,0.5c-1.9,1.7-3.1,4-3.1,6.6
		c0,2.7,1.2,4.9,3.1,6.7L712.6,284.8z"/>
	<path class="st14" d="M715.3,273.8c0-2.1,1-3.4,2.5-3.4s2.5,1.3,2.5,3.3c0,1.9-0.9,3.4-2.5,3.4
		C716.1,277.1,715.3,275.8,715.3,273.8z M719.3,273.8c0-1.5-0.6-2.5-1.5-2.5c-1,0-1.5,1.1-1.5,2.5c0,1.5,0.6,2.5,1.6,2.5
		C718.8,276.3,719.3,275.2,719.3,273.8z M717.8,281.7l6.6-11.1h1l-6.6,11.1H717.8z M722.9,278.5c0-2.1,1-3.4,2.5-3.4
		s2.5,1.3,2.5,3.3c0,1.9-0.9,3.3-2.5,3.3S722.9,280.5,722.9,278.5z M727,278.5c0-1.5-0.5-2.5-1.5-2.5s-1.5,1.1-1.5,2.5
		c0,1.5,0.5,2.5,1.5,2.5S727,279.9,727,278.5z"/>
	<path class="st14" d="M730.1,284.3c1.9-1.7,3.1-4,3.1-6.7c0-2.6-1.2-4.9-3.1-6.6l0.5-0.5c2.4,2.1,3.8,4.3,3.8,7.2
		c0,2.8-1.3,5.1-3.8,7.2L730.1,284.3z"/>
</g>
<g class="st13">
	<path class="st14" d="M317.4,281.7v-11.1h4c2.6,0,4.2,1,4.2,3.4c0,1.8-0.9,2.7-2.4,3.1l2.6,4.5l-1.8,0.3l-2.7-4.5h-2v4.4
		L317.4,281.7L317.4,281.7z M319.2,275.7h2c1.6,0,2.4-0.5,2.4-1.7s-0.8-1.7-2.4-1.7h-2V275.7z"/>
	<path class="st14" d="M327.5,276.1c0-3.7,2.3-5.8,5-5.8s5,2,5,5.8c0,3.7-2.3,5.8-5,5.8S327.5,279.9,327.5,276.1z M335.7,276.1
		c0-2.5-1.3-4-3.1-4c-1.9,0-3.1,1.5-3.1,4s1.3,4.1,3.1,4.1C334.4,280.2,335.7,278.7,335.7,276.1z"/>
	<path class="st14" d="M338.5,281.7l3.9-11.1h1.8l3.9,11l-1.8,0.3l-0.9-2.8h-4.2l-0.9,2.6H338.5z M341.7,277.4h3.1l-1.5-4.5l0,0
		L341.7,277.4z"/>
</g>
<g class="st13">
	<path class="st14" d="M358.3,284.8c-2.4-2.1-3.7-4.3-3.7-7.2c0-2.8,1.3-5.1,3.7-7.2l0.5,0.5c-1.9,1.7-3.1,4-3.1,6.6
		c0,2.7,1.2,4.9,3.1,6.7L358.3,284.8z"/>
	<path class="st14" d="M361,273.8c0-2.1,1-3.4,2.5-3.4s2.5,1.3,2.5,3.3c0,1.9-0.9,3.4-2.5,3.4C361.9,277.1,361,275.8,361,273.8z
		 M365,273.8c0-1.5-0.6-2.5-1.5-2.5c-1,0-1.5,1.1-1.5,2.5c0,1.5,0.6,2.5,1.6,2.5C364.5,276.3,365,275.2,365,273.8z M363.5,281.7
		l6.6-11.1h1l-6.6,11.1H363.5z M368.7,278.5c0-2.1,1-3.4,2.5-3.4s2.5,1.3,2.5,3.3c0,1.9-0.9,3.3-2.5,3.3
		C369.6,281.8,368.7,280.5,368.7,278.5z M372.7,278.5c0-1.5-0.5-2.5-1.5-2.5s-1.5,1.1-1.5,2.5c0,1.5,0.5,2.5,1.5,2.5
		S372.7,279.9,372.7,278.5z"/>
	<path class="st14" d="M375.9,284.3c1.9-1.7,3.1-4,3.1-6.7c0-2.6-1.2-4.9-3.1-6.6l0.5-0.5c2.4,2.1,3.8,4.3,3.8,7.2
		c0,2.8-1.3,5.1-3.8,7.2L375.9,284.3z"/>
</g>
<g class="st13">
	<path class="st14" d="M471.4,281.7v-11.1h4c2.6,0,4.2,1,4.2,3.4c0,1.8-0.9,2.7-2.4,3.1l2.6,4.5l-1.8,0.3l-2.7-4.5h-2v4.4
		L471.4,281.7L471.4,281.7z M473.2,275.7h2c1.6,0,2.4-0.5,2.4-1.7s-0.8-1.7-2.4-1.7h-2V275.7z"/>
	<path class="st14" d="M481.5,276.1c0-3.7,2.3-5.8,5-5.8s5,2,5,5.8c0,3.7-2.3,5.8-5,5.8S481.5,279.9,481.5,276.1z M489.6,276.1
		c0-2.5-1.3-4-3.1-4s-3.1,1.5-3.1,4s1.3,4.1,3.1,4.1S489.6,278.7,489.6,276.1z"/>
	<path class="st14" d="M494,281.7v-11.1h4c2.6,0,4.2,1,4.2,3.4c0,1.8-0.9,2.7-2.4,3.1l2.6,4.5l-1.8,0.3l-2.7-4.5h-2v4.4L494,281.7
		L494,281.7z M495.8,275.7h2c1.6,0,2.4-0.5,2.4-1.7s-0.8-1.7-2.4-1.7h-2V275.7z"/>
	<path class="st14" d="M506.6,281.7l-2.9-10.9l1.8-0.3l1.4,5.9c0.2,0.9,0.5,1.7,0.6,2.6l0,0c0.1-0.8,0.3-1.7,0.6-2.6l1.3-5.8h1.8
		l1.4,5.8c0.2,0.9,0.4,1.6,0.6,2.5l0,0c0.2-0.9,0.3-1.5,0.6-2.5l1.4-5.8h1.7l-2.9,11.1h-1.6l-2-8.5l0,0l-2.1,8.5L506.6,281.7
		L506.6,281.7z"/>
	<path class="st14" d="M517.4,281.7l3.9-11.1h1.8l3.9,11l-1.8,0.3l-0.9-2.8h-4.2l-0.9,2.6H517.4z M520.7,277.4h3.1l-1.5-4.5l0,0
		L520.7,277.4z"/>
</g>
<g class="st13">
	<path class="st14" d="M537.6,284.8c-2.4-2.1-3.7-4.3-3.7-7.2c0-2.8,1.3-5.1,3.7-7.2l0.5,0.5c-1.9,1.7-3.1,4-3.1,6.6
		c0,2.7,1.2,4.9,3.1,6.7L537.6,284.8z"/>
	<path class="st14" d="M540.2,273.8c0-2.1,1-3.4,2.5-3.4s2.5,1.3,2.5,3.3c0,1.9-0.9,3.4-2.5,3.4
		C541.1,277.1,540.2,275.8,540.2,273.8z M544.3,273.8c0-1.5-0.6-2.5-1.5-2.5c-1,0-1.5,1.1-1.5,2.5c0,1.5,0.6,2.5,1.6,2.5
		C543.7,276.3,544.3,275.2,544.3,273.8z M542.8,281.7l6.6-11.1h1l-6.6,11.1H542.8z M547.9,278.5c0-2.1,1-3.4,2.5-3.4
		s2.5,1.3,2.5,3.3c0,1.9-0.9,3.3-2.5,3.3C548.8,281.8,547.9,280.5,547.9,278.5z M552,278.5c0-1.5-0.5-2.5-1.5-2.5s-1.5,1.1-1.5,2.5
		c0,1.5,0.5,2.5,1.5,2.5S552,279.9,552,278.5z"/>
	<path class="st14" d="M555.1,284.3c1.9-1.7,3.1-4,3.1-6.7c0-2.6-1.2-4.9-3.1-6.6l0.5-0.5c2.4,2.1,3.8,4.3,3.8,7.2
		c0,2.8-1.3,5.1-3.8,7.2L555.1,284.3z"/>
</g>
<g>
	<polygon class="st10" points="518.8,241 534.8,233 534.8,212.4 518.8,220.4 	"/>
</g>
<g>
	<polygon class="st11" points="518.8,220.4 534.8,212.4 518.9,206.1 502.9,214 	"/>
</g>
<g class="st13">
	<path class="st14" d="M465.2,195.4c0-4.2,1.8-6.9,4.9-6.9s4.9,2.8,4.9,6.9s-1.7,6.9-4.9,6.9S465.2,199.6,465.2,195.4z M473.7,195.4
		c0-3.8-1.4-5.8-3.6-5.8c-2.3,0-3.6,2-3.6,5.8s1.4,5.8,3.6,5.8C472.4,201.2,473.7,199.2,473.7,195.4z"/>
	<path class="st14" d="M480.2,198.9c0-1.9,1.3-2.9,3.5-3.9c-1.8-0.8-2.9-1.7-2.9-3.3s1.5-3.2,4.1-3.2c2.7,0,4.1,1.6,4.1,3.2
		c0,1.6-1.1,2.4-3,3.3c2.3,1,3.6,1.9,3.6,3.9c0,1.9-1.7,3.5-4.7,3.5C481.9,202.4,480.2,200.8,480.2,198.9z M488.4,198.8
		c0-1.5-1.3-2.3-3.5-3.3c-2.4,1-3.4,1.9-3.4,3.3c0,1.5,1.5,2.5,3.5,2.5S488.4,200.3,488.4,198.8z M487.8,191.8
		c0-1.1-0.9-2.2-2.9-2.2c-1.9,0-2.9,1.1-2.9,2.1c0,1.3,0.9,1.9,3,2.8C487,193.6,487.8,193,487.8,191.8z"/>
	<path class="st14" d="M492.1,202.1l5.6-12.1h-6.8l-0.1-1.2h8.2v1.1l-5.7,12.3L492.1,202.1z"/>
</g>
<g class="st13">
	<path class="st14" d="M517,191.8v-12.1l-2.6,0.9l-0.2-1.1l2.8-1h1.2v13.3L517,191.8L517,191.8z"/>
	<path class="st14" d="M529.3,191.8v-12.1l-2.6,0.9l-0.2-1.1l2.8-1h1.2v13.3L529.3,191.8L529.3,191.8z"/>
	<path class="st14" d="M534.3,190.8l0.6-1c0.8,0.7,1.5,1.1,2.9,1.1c2.4,0,3.9-2.6,3.9-5.9c-0.8,0.9-2.1,1.8-3.8,1.8
		c-2.8,0-4.2-1.7-4.2-4.2s1.7-4.4,4.5-4.4c2.6,0,4.7,2.1,4.7,6.7c0,4.1-2.2,7.1-5.2,7.1C536.2,192,535.1,191.5,534.3,190.8z
		 M541.7,183.7c-0.3-3.1-1.7-4.4-3.5-4.4c-1.9,0-3.2,1.2-3.2,3.3c0,1.8,0.9,3.1,3.1,3.1C539.5,185.7,540.8,184.9,541.7,183.7z"/>
</g>
<g>
	<polygon class="st12" points="496.6,241 512.5,233 512.5,220.1 496.6,228 	"/>
</g>
<g>
	<polygon class="st11" points="496.6,228.1 512.5,220.1 496.6,213.7 480.7,221.7 	"/>
</g>
<g>
	<polygon class="st11" points="357.3,227.7 373.3,219.7 357.4,213.3 341.4,221.3 	"/>
</g>
<g>
	<polygon class="st10" points="357.3,227.7 357.3,240.9 373.3,232.9 373.3,219.7 	"/>
</g>
<g class="st13">
	<path class="st14" d="M300.8,201.4c0-4.2,1.8-6.9,4.9-6.9s4.9,2.8,4.9,6.9s-1.7,6.9-4.9,6.9S300.8,205.6,300.8,201.4z M309.3,201.4
		c0-3.8-1.4-5.8-3.6-5.8c-2.3,0-3.6,2-3.6,5.8s1.4,5.8,3.6,5.8S309.3,205.2,309.3,201.4z"/>
	<path class="st14" d="M321.4,208.1v-3.2H315v-1l6.1-9.1h1.6v9h2.2l0.1,1.1h-2.3v3.2H321.4z M316.4,203.7h5v-7.5l0,0L316.4,203.7z"
		/>
	<path class="st14" d="M326.1,201.7c0-4.1,2.2-7.1,5.2-7.1c1.5,0,2.4,0.4,3.1,1l-0.6,1c-0.7-0.6-1.4-0.9-2.6-0.9c-2.5,0-4,2.6-4,5.9
		c0.8-0.9,2.1-1.8,3.8-1.8c2.8,0,4.2,1.7,4.2,4.2s-1.7,4.4-4.5,4.4C328.3,208.3,326.1,206.2,326.1,201.7z M334.1,203.9
		c0-1.8-0.9-3.1-3.1-3.1c-1.5,0-2.8,0.8-3.6,2c0.3,3.1,1.7,4.4,3.5,4.4C332.8,207.2,334.1,206,334.1,203.9z"/>
</g>
<g class="st13">
	<path class="st14" d="M353.4,194.6c0-4.2,1.8-6.9,4.9-6.9s4.9,2.8,4.9,6.9s-1.7,6.9-4.9,6.9S353.4,198.8,353.4,194.6z M361.8,194.6
		c0-3.8-1.4-5.8-3.6-5.8c-2.3,0-3.6,2-3.6,5.8s1.4,5.8,3.6,5.8C360.5,200.4,361.8,198.4,361.8,194.6z"/>
	<path class="st14" d="M368.2,194.8c0-4.1,2.2-7.1,5.2-7.1c1.5,0,2.4,0.4,3.1,1l-0.6,1c-0.7-0.6-1.4-0.9-2.6-0.9c-2.5,0-4,2.6-4,5.9
		c0.8-0.9,2.1-1.8,3.8-1.8c2.8,0,4.2,1.7,4.2,4.2s-1.7,4.4-4.5,4.4C370.3,201.5,368.2,199.4,368.2,194.8z M376.1,197.1
		c0-1.8-0.9-3.1-3.1-3.1c-1.5,0-2.8,0.8-3.6,2c0.3,3.1,1.7,4.4,3.5,4.4C374.8,200.4,376.1,199.2,376.1,197.1z"/>
	<path class="st14" d="M385,201.3V198h-6.4v-1l6.1-9.1h1.6v9h2.2l0.1,1.1h-2.3v3.2H385V201.3z M380,196.9h5v-7.5l0,0L380,196.9z"/>
</g>
<g>
	<polygon class="st12" points="336.3,240.9 352.3,233 352.3,226.6 336.3,234.6 	"/>
</g>
<g>
	<polygon class="st11" points="336.3,234.6 352.3,226.6 336.4,220.2 320.4,228.2 	"/>
</g>
<path class="st14" d="M312.2,207.2c0-0.6,0.3-0.9,0.9-0.9c0.5,0,0.9,0.4,0.9,0.9c0,0.6-0.3,1-0.9,1
	C312.5,208.1,312.2,207.8,312.2,207.2z"/>
<path class="st14" d="M365,200.4c0-0.6,0.3-0.9,0.9-0.9c0.5,0,0.9,0.4,0.9,0.9c0,0.6-0.3,1-0.9,1C365.3,201.4,365,201.1,365,200.4z"
	/>
<path class="st14" d="M476.8,201.2c0-0.6,0.3-0.9,0.9-0.9c0.5,0,0.9,0.4,0.9,0.9c0,0.6-0.3,1-0.9,1
	C477.1,202.1,476.8,201.8,476.8,201.2z"/>
<path class="st14" d="M522.3,191c0-0.6,0.3-0.9,0.9-0.9c0.5,0,0.9,0.4,0.9,0.9c0,0.6-0.3,1-0.9,1C522.6,191.9,522.3,191.6,522.3,191
	z"/>
</svg>
