<svg width="707" height="281" viewBox="0 0 707 281" xmlns="http://www.w3.org/2000/svg"><title>Page 1</title><g fill="none" fill-rule="evenodd"><path d="M511.778 230.939l-43.807-18.175-18.998 5.25 47.534 20.505z"/><path fill="#2ECDCD" d="M495.835 238.911l15.943-7.972v-19.522l-15.943 7.972z"/><path fill="#0064A8" d="M495.835 219.467l15.944-7.972-15.91-6.375-15.943 7.972z"/><path d="M660.134 230.939l-43.806-18.175-18.999 5.25 47.535 20.505z"/><path fill="#2ECDCD" d="M644.191 238.911l15.943-7.972v-83.666l-15.943 7.972z"/><path fill="#0064A8" d="M644.191 99.957l15.944-7.972-15.909-6.375-15.944 7.972z"/><path fill="#2ECDCD" d="M644.191 99.957v55.289l15.943-7.972v-55.29z"/><path d="M638.131 230.939l-43.807-18.175-18.998 5.25 47.535 20.505z"/><path fill="#2A86CA" d="M622.188 238.911l15.943-7.972v-63.666l-15.943-12.028z"/><path fill="#0064A8" d="M622.188 98.544l15.944-7.972-15.91-6.375-15.943 7.972z"/><path fill="#2A86CA" d="M622.188 98.544v56.701l15.943 12.028v-76.7z"/><path d="M350.285 230.939l-43.806-18.175-18.999 5.25 47.535 20.505z"/><path fill="#0064A8" d="M334.342 228.717l15.944-7.972-15.909-6.375-15.944 7.972z"/><path fill="#2ECDCD" d="M334.342 228.717v10.164l15.943-7.973v-10.163z"/><g font-size="15" fill="#FFF"><text font-family="BentonSansBBVA-Medium, Benton Sans BBVA" font-weight="400" letter-spacing=".025" transform="translate(3 -3.264)"><tspan x=".654" y="282.95">ROE</tspan></text><text font-family="BentonSansBBVA-Book, Benton Sans BBVA" font-weight="300" letter-spacing=".025" transform="translate(3 -3.264)"><tspan x="37.059" y="278.95">(%)</tspan></text><text font-family="BentonSansBBVA-Book, Benton Sans BBVA" font-weight="300" letter-spacing="-.008" transform="translate(3 -3.264)"><tspan x="376.674" y="14.315">2016</tspan></text></g><text font-family="BentonSansBBVA-Book, Benton Sans BBVA" font-size="18" font-weight="300" letter-spacing="-.008" fill="#FFF" transform="translate(-23 -4)"><tspan x="22.852" y="128.453">5,2</tspan></text><text transform="translate(282 -2.264)" font-size="15" font-family="BentonSansBBVA-Book, Benton Sans BBVA" letter-spacing="-.008" fill="#FFF" font-weight="300"><tspan x=".34" y="14.314">2015</tspan></text><text font-family="BentonSansBBVA-Book, Benton Sans BBVA" font-size="18" font-weight="300" letter-spacing="-.008" fill="#FFF" transform="translate(-23 -4)"><tspan x="62.574" y="100.619">6,7</tspan></text><text font-family="BentonSansBBVA-Book, Benton Sans BBVA" font-size="18" font-weight="300" letter-spacing="-.008" fill="#FFF" transform="translate(-23 -4)"><tspan x="173.76" y="118.457">6,4</tspan></text><text font-family="BentonSansBBVA-Book, Benton Sans BBVA" font-size="18" font-weight="300" letter-spacing="-.008" fill="#FFF" transform="translate(-23 -4)"><tspan x="195.594" y="77.615">8,2</tspan></text><text font-family="BentonSansBBVA-Book, Benton Sans BBVA" font-size="18" font-weight="300" letter-spacing="-.008" fill="#FFF" transform="translate(-23 -4)"><tspan x="299.796" y="203.453">0,46</tspan></text><text font-family="BentonSansBBVA-Book, Benton Sans BBVA" font-size="18" font-weight="300" letter-spacing="-.008" fill="#FFF" transform="translate(-23 -4)"><tspan x="352.356" y="200.627">0,64</tspan></text><text font-family="BentonSansBBVA-Book, Benton Sans BBVA" font-size="18" font-weight="300" letter-spacing="-.008" fill="#FFF" transform="translate(-23 -4)"><tspan x="464.244" y="197.459">0,87</tspan></text><text font-family="BentonSansBBVA-Book, Benton Sans BBVA" font-size="18" font-weight="300" letter-spacing="-.008" fill="#FFF" transform="translate(-23 -4)"><tspan x="513.078" y="190.133">1,19</tspan></text><path fill="#2ECDCD" d="M371.233 2.768l-4.633 9.266h-17.609l4.633-9.266z"/><path fill="#2A86CA" d="M271 2.768l-4.632 9.266h-17.61l4.634-9.266z"/><path d="M-23 218.013l47.534 20.506 15.271-7.58-43.807-18.174z"/><path fill="#2A86CA" d="M23.862 238.911l15.943-7.972v-84.73l-15.943 7.894z"/><path fill="#0064A8" d="M23.862 154.103l15.944-7.972-15.909-6.375-15.944 7.972z"/><path d="M60.808 230.939l-43.806-18.175-18.999 5.25 47.535 20.505z"/><path fill="#2ECDCD" d="M44.865 238.911l15.943-7.972V120.823l-15.943 7.82z"/><path fill="#0064A8" d="M44.865 128.687l15.944-7.972L44.9 114.34l-15.944 7.972z"/><g font-size="15" letter-spacing=".025" fill="#FFF"><text font-family="BentonSansBBVA-Medium, Benton Sans BBVA" font-weight="400" transform="translate(143 260.736)"><tspan x=".646" y="18.95">ROTE</tspan></text><text font-family="BentonSansBBVA-Book, Benton Sans BBVA" font-weight="300" transform="translate(143 260.736)"><tspan x="46.951" y="14.95">(%)</tspan></text></g><path d="M179.798 230.939l-43.807-18.175-18.999 5.25 47.535 20.505z"/><path fill="#2A86CA" d="M163.854 238.911l15.943-7.972v-63.666l-15.943-12.028z"/><path fill="#0064A8" d="M163.854 148.046l15.944-7.972-15.909-6.375-15.944 7.972z"/><path fill="#2A86CA" d="M163.854 148.046v7.2l15.943 12.028v-27.2z"/><path d="M201.801 230.939l-43.807-18.175-18.998 5.25 47.534 20.505z"/><path fill="#2ECDCD" d="M185.858 238.911l15.943-7.972v-83.666l-15.943 7.972z"/><path fill="#0064A8" d="M185.858 104.016l15.944-7.972-15.91-6.375-15.943 7.972z"/><path fill="#2ECDCD" d="M185.858 104.016v51.229l15.943-7.971v-51.23z"/><text font-family="BentonSansBBVA-Book, Benton Sans BBVA" font-size="18" font-weight="300" letter-spacing="-.008" fill="#FFF" transform="translate(-23 -4)"><tspan x="678.33" y="76.774">51,9</tspan></text><text font-family="BentonSansBBVA-Book, Benton Sans BBVA" font-size="18" font-weight="300" letter-spacing="-.008" fill="#FFF" transform="translate(-23 -4)"><tspan x="605.34" y="73.552">52,0</tspan></text><g font-size="15" letter-spacing=".025" fill="#FFF"><text font-family="BentonSansBBVA-Medium, Benton Sans BBVA" font-weight="400" transform="translate(293 260.736)"><tspan x="295.979" y="18.95">EFICIENCIA</tspan></text><text font-family="BentonSansBBVA-Book, Benton Sans BBVA" font-weight="300" transform="translate(293 260.736)"><tspan x="388.364" y="14.95">(%)</tspan></text><text font-family="BentonSansBBVA-Medium, Benton Sans BBVA" font-weight="400" transform="translate(293 260.736)"><tspan x=".134" y="18.95">ROA</tspan></text><text font-family="BentonSansBBVA-Book, Benton Sans BBVA" font-weight="300" transform="translate(293 260.736)"><tspan x="37.664" y="14.95">(%)</tspan></text></g><path d="M329.282 230.939l-43.807-18.175-18.998 5.25 47.535 20.505z"/><path fill="#2A86CA" d="M313.339 238.911l15.943-7.972v-7.022l-15.943 7.75z"/><path fill="#0064A8" d="M313.339 231.717l15.944-7.972-15.909-6.375-15.944 7.972z"/><g font-size="15" letter-spacing=".025" fill="#FFF"><text font-family="BentonSansBBVA-Medium, Benton Sans BBVA" font-weight="400" transform="translate(447 260.736)"><tspan x=".123" y="18.95">RORWA</tspan></text><text font-family="BentonSansBBVA-Book, Benton Sans BBVA" font-weight="300" transform="translate(447 260.736)"><tspan x="62.913" y="14.95">(%)</tspan></text></g><path d="M489.524 230.939l-43.806-18.175-18.999 5.25 47.535 20.505z"/><path fill="#2A86CA" d="M473.581 238.911l15.943-7.972v-14.066l-15.943 7.92z"/><path fill="#0064A8" d="M473.581 224.842l15.944-7.972-15.909-6.375-15.944 7.972z"/></g></svg>