<?xml version="1.0" encoding="utf-8"?>
<!-- Generator: Adobe Illustrator 19.2.1, SVG Export Plug-In . SVG Version: 6.00 Build 0)  -->
<svg version="1.1" id="Capa_1" xmlns="http://www.w3.org/2000/svg" xmlns:xlink="http://www.w3.org/1999/xlink" x="0px" y="0px"
	 viewBox="0 0 775.6 346.7" style="enable-background:new 0 0 775.6 346.7;" xml:space="preserve">
<style type="text/css">
	.st0{fill:#FFFFFF;}
	.st1{fill:#2ECDCD;}
	.st2{clip-path:url(#SVGID_2_);}
	.st3{fill:#1D1D1B;}
	.st4{fill:#2A86CA;}
	.st5{fill:#0064A8;}
	.st6{clip-path:url(#SVGID_4_);}
	.st7{fill:#00A6A6;}
	.st8{clip-path:url(#SVGID_6_);}
	.st9{clip-path:url(#SVGID_8_);}
	.st10{clip-path:url(#SVGID_10_);}
	.st11{clip-path:url(#SVGID_12_);}
</style>
<title>des_financiero_solvencia</title>
<g>
	<path class="st0" d="M2,303.6c0-3.6,2.1-5.6,4.7-5.6c1.8-0.1,3.4,0.9,4.1,2.5l-1.6,0.9c-0.4-1.1-1.4-1.8-2.5-1.8
		c-1.9,0-2.9,1.5-2.9,3.9s1.1,4.1,3,4.1c1.2,0,2.3-0.8,2.7-2l1.6,0.7c-0.5,1.9-2.3,3.1-4.3,3C4,309.3,2,307.3,2,303.6z"/>
</g>
<g>
	<path class="st0" d="M13.3,309.1v-10.9h7.1v1.7h-5.2v2.7h4l0.3,1.6h-4.3v3.2h5.5v1.7L13.3,309.1L13.3,309.1z"/>
</g>
<g>
	<path class="st0" d="M25.4,309.1v-9.2H22v-1.7h8.5l0.3,1.7h-3.5v9.2H25.4z"/>
</g>
<g>
	<path class="st0" d="M34.3,309.1v-9.3l-2.1,0.6l-0.2-1.5l2.4-0.8h1.7v10.9H34.3z"/>
</g>
<g>
	<path class="st0" d="M42.7,309.1l1.9-10.9h6.7l-0.4,1.7h-4.8l-0.5,2.9h3.5v1.6h-3.8l-0.8,4.6L42.7,309.1L42.7,309.1z"/>
</g>
<g>
	<path class="st0" d="M51.6,306.8l1-5.5h1.8l-0.9,5.2c-0.2,0.5,0,1,0.5,1.2c0.2,0.1,0.3,0.1,0.5,0.1c0.8-0.1,1.5-0.4,2-1l1-5.5h1.8
		l-1.4,7.8h-1.6V308c-0.7,0.8-1.7,1.2-2.7,1.3C52,309.3,51.3,308.4,51.6,306.8z"/>
</g>
<g>
	<path class="st0" d="M60.4,309.1l1.9-10.8l1.9-0.3l-2,11.1H60.4z"/>
</g>
<g>
	<path class="st0" d="M64.8,309.1l1.9-10.8l1.9-0.3l-1.9,11.1H64.8z"/>
</g>
<g>
	<path class="st0" d="M67.8,311.8l0.6-1.5c0.4,0.2,0.8,0.3,1.2,0.3c0.5,0,1-0.3,1.2-0.8l0.3-0.6l-1.5-7.7l1.8-0.3l1,5.9l0,0l3-5.7
		h1.8l-5,9c-0.7,1.2-1.4,1.9-2.6,1.9C69.1,312.1,68.4,312,67.8,311.8z"/>
</g>
<g>
	<path class="st0" d="M77.9,305.1l0.2-1.3h3.7l-0.2,1.3H77.9z"/>
</g>
<g>
	<path class="st0" d="M83.1,309.1l1.9-10.8l1.9-0.3l-1.9,11.1H83.1z"/>
</g>
<g>
	<path class="st0" d="M87.6,305.9c0-3.4,2.3-4.8,4.3-4.8c1.7-0.1,3.3,1.2,3.4,2.9c0,0.1,0,0.3,0,0.4c0,3.4-2.3,4.8-4.3,4.8
		c-1.8,0.1-3.3-1.2-3.4-3C87.6,306.2,87.6,306,87.6,305.9z M93.4,304.5c0.2-0.9-0.4-1.7-1.3-1.9c-0.1,0-0.3,0-0.4,0
		c-1.3,0-2.3,1.2-2.3,3.3c-0.2,0.9,0.4,1.7,1.3,1.9c0.1,0,0.3,0,0.4,0C92.4,307.8,93.4,306.6,93.4,304.5L93.4,304.5z"/>
</g>
<g>
	<path class="st0" d="M96.3,307.3c0-1.9,1.7-3.1,5.6-3.4v-0.2c0.2-0.8-0.2-1.1-1.2-1.1c-0.9,0-1.8,0.3-2.5,0.8l-0.8-1.1
		c1-0.8,2.3-1.2,3.7-1.1c2.3,0,2.9,1.2,2.6,3l-0.9,5h-1.6v-1c-0.7,0.7-1.7,1.1-2.8,1.1c-1,0.1-2-0.7-2.1-1.7
		C96.3,307.5,96.3,307.4,96.3,307.3z M101.4,306.9l0.3-1.7c-2.7,0.2-3.6,0.8-3.6,1.8c0,0.5,0.4,0.9,1,0.9c0,0,0.1,0,0.1,0
		C100,307.8,100.8,307.5,101.4,306.9L101.4,306.9z"/>
</g>
<g>
	<path class="st0" d="M105.2,306.1c0-3.5,2-5,3.7-5c0.9-0.1,1.8,0.3,2.4,0.9l0.6-3.7l1.9-0.3l-1.9,11.1h-1.6v-1
		c-0.6,0.8-1.4,1.2-2.4,1.2C106.4,309.2,105.2,308.3,105.2,306.1z M110.5,306.9l0.6-3.4c-0.4-0.5-1.1-0.8-1.8-0.8
		c-1,0-2.3,0.9-2.3,3.3c-0.1,0.8,0.4,1.6,1.3,1.8c0.1,0,0.2,0,0.3,0C109.4,307.8,110.1,307.4,110.5,306.9z"/>
</g>
<g>
	<path class="st0" d="M114.5,305.9c0-3.8,2.8-4.8,4.2-4.8c2.3,0,3.3,1.6,2.9,4.2l-0.1,0.4h-5.2v0.2c-0.1,0.9,0.5,1.7,1.4,1.9
		c0.1,0,0.3,0,0.4,0c0.9,0,1.8-0.4,2.4-1l0.8,1.1c-0.9,0.9-2.1,1.4-3.4,1.3c-1.7,0.2-3.2-1.1-3.4-2.8
		C114.5,306.3,114.5,306.1,114.5,305.9z M120.1,304.4c0.1-1.1-0.2-1.8-1.5-1.8c-1,0-1.9,0.8-2.1,1.8H120.1z"/>
</g>
<g>
	<path class="st0" d="M123,306.1c0-3.5,1.9-5,3.7-5c0.9-0.1,1.8,0.3,2.4,0.9l0.6-3.7l1.9-0.3l-1.9,11.1h-1.6v-1
		c-0.6,0.8-1.4,1.2-2.4,1.2C124.2,309.2,123,308.3,123,306.1z M128.3,306.9l0.6-3.4c-0.4-0.5-1.1-0.8-1.8-0.8c-1,0-2.3,0.9-2.3,3.3
		c-0.1,0.8,0.4,1.6,1.3,1.8c0.1,0,0.2,0,0.3,0C127.1,307.8,127.8,307.4,128.3,306.9L128.3,306.9z"/>
</g>
<g>
	<path class="st0" d="M140.4,312.1c-2.4-2-3.7-4.2-3.7-7.1s1.3-5,3.7-7.1l0.5,0.5c-3.6,3.1-4,8.5-1,12.1c0.3,0.3,0.6,0.7,1,1
		L140.4,312.1z"/>
</g>
<g>
	<path class="st0" d="M142.9,301.3c0-2,1-3.3,2.5-3.3s2.4,1.3,2.4,3.2s-0.9,3.3-2.4,3.3S142.9,303.3,142.9,301.3z M146.9,301.3
		c0-1.5-0.6-2.5-1.5-2.5s-1.5,1.1-1.5,2.5s0.6,2.5,1.5,2.5S146.9,302.7,146.9,301.3L146.9,301.3z M145.5,309.1l6.5-11h0.9l-6.5,10.9
		L145.5,309.1L145.5,309.1z M150.5,306c0-2,1-3.3,2.5-3.3s2.4,1.3,2.4,3.3s-0.9,3.3-2.5,3.3S150.5,307.9,150.5,306L150.5,306z
		 M154.5,306c0-1.5-0.5-2.5-1.5-2.5s-1.5,1.1-1.5,2.5s0.5,2.5,1.5,2.5S154.5,307.4,154.5,306L154.5,306z"/>
</g>
<g>
	<path class="st0" d="M157.5,311.6c3.6-3.1,4.1-8.5,1-12.1c-0.3-0.4-0.6-0.7-1-1l0.5-0.5c2.4,2,3.7,4.3,3.7,7.1s-1.3,5-3.7,7.1
		L157.5,311.6z"/>
</g>
<g>
	<path class="st0" d="M32.6,341.9v-3.5h-3.4v-2.2h3.4v-3.5h2.3v3.5h3.4v2.2h-3.4v3.5H32.6z"/>
</g>
<g>
	<path class="st0" d="M39.7,342l1.2-2.1c0.9,0.9,2.2,1.4,3.4,1.4c1.2,0.2,2.3-0.7,2.5-1.9c0-0.2,0-0.3,0-0.5
		c0.2-1.1-0.7-2.2-1.8-2.4c-0.2,0-0.3,0-0.5,0c-1,0-1.8,0.5-2.4,1.3l-1.9-0.6l0.5-7h7.8l0.2,2.2H43l-0.2,2.9
		c0.7-0.6,1.7-0.9,2.6-0.8c2.8,0,4.3,1.8,4.3,4.4c0,2.8-2,4.7-5.2,4.7C42.7,343.7,41,343.1,39.7,342z"/>
</g>
<g>
	<path class="st0" d="M50.3,340c0-1.6,1.3-2.8,2.9-3.5c-1.4-0.7-2.3-1.5-2.3-3.2s1.6-3.3,4.7-3.3s4.7,1.7,4.7,3.3
		c0,1.4-0.9,2.6-2.2,3.1c1.7,0.7,2.9,1.6,2.9,3.5c0,2.2-2,3.6-5.3,3.6S50.3,342.3,50.3,340z M57.9,339.9c0-1-0.8-1.6-2.6-2.3
		c-1.3,0.7-2.2,1.4-2.2,2.3s0.9,1.8,2.4,1.8S57.9,340.9,57.9,339.9z M57.4,333.6c0-0.9-0.8-1.6-1.7-1.6c-0.1,0-0.1,0-0.2,0
		c-1.4,0-1.9,0.8-1.9,1.5c0,1,0.8,1.5,2.1,2C57,334.9,57.5,334.5,57.4,333.6L57.4,333.6z"/>
</g>
<g>
	<path class="st0" d="M66.7,346.7V335H69l0.2,1.3c0.6-0.9,1.5-1.4,2.6-1.5c1.9,0,3.2,1.5,3.2,4.4s-1.3,4.3-3.3,4.3
		c-1,0-1.9-0.4-2.6-1.1v4L66.7,346.7z M72.5,339.2c0-1.4-0.5-2.3-1.6-2.3c-0.6,0-1.2,0.3-1.7,0.8v3.1c0.4,0.5,1,0.8,1.7,0.8
		C71.9,341.6,72.5,340.7,72.5,339.2L72.5,339.2z"/>
</g>
<g>
	<path class="st0" d="M76.3,341.1V335h2.5v5.4c-0.1,0.5,0.3,1.1,0.8,1.2c0.1,0,0.1,0,0.2,0c0.7-0.1,1.3-0.4,1.8-0.9V335h2.5v8.4
		h-2.4l-0.2-1.3c-0.7,0.9-1.8,1.5-2.9,1.5c-1.2,0.1-2.3-0.7-2.4-1.9C76.3,341.5,76.3,341.3,76.3,341.1z"/>
</g>
<g>
	<path class="st0" d="M86,343.4V335h2.3l0.2,1.3c0.7-0.9,1.7-1.5,2.9-1.5c1.2-0.1,2.3,0.7,2.4,1.9c0,0.2,0,0.3,0,0.5v6.1h-2.5v-5.3
		c0.1-0.5-0.2-1-0.7-1.1c-0.1,0-0.2,0-0.3,0c-0.7,0-1.3,0.3-1.8,0.8v5.6H86z"/>
</g>
<g>
	<path class="st0" d="M96.3,340.9v-4h-1.4V335h1.4v-2.7l2.5-0.4v3.1h2.2v1.8h-2.2v3.8c-0.1,0.5,0.2,1,0.7,1.1c0.1,0,0.3,0,0.4,0
		c0.3,0,0.6,0,0.9-0.1l0.2,1.8c-0.6,0.1-1.2,0.1-1.8,0.1C97.1,343.5,96.3,342.9,96.3,340.9z"/>
</g>
<g>
	<path class="st0" d="M101.7,339.2c0-2.4,2-4.3,4.4-4.2c2.4,0,4.3,2,4.2,4.4c0,2.3-1.9,4.2-4.3,4.2c-2.2,0.2-4.1-1.5-4.3-3.7
		C101.7,339.7,101.7,339.4,101.7,339.2z M107.7,339.2c0-1.4-0.5-2.5-1.8-2.5s-1.8,1-1.8,2.5s0.5,2.6,1.8,2.6
		S107.8,340.7,107.7,339.2L107.7,339.2z"/>
</g>
<g>
	<path class="st0" d="M111.1,342.4l0.8-1.5c0.9,0.6,1.9,1,3,1.1c0.8,0,1.3-0.3,1.3-0.8s-0.4-0.8-1.6-1c-1.6-0.3-3.3-0.7-3.3-2.6
		c0-1.7,1.4-2.7,3.3-2.7c1.3,0,2.5,0.3,3.6,1l-0.8,1.5c-0.8-0.5-1.7-0.8-2.6-0.8c-0.7,0-1.1,0.3-1.1,0.7s0.5,0.7,1.5,0.9
		c1.7,0.3,3.4,0.7,3.4,2.6s-1.8,2.8-3.7,2.8C113.5,343.6,112.2,343.2,111.1,342.4z"/>
</g>
<g>
	<path class="st0" d="M126.6,342.4l-0.2,1H124v-11.5l2.5-0.4v4.7c0.6-0.9,1.5-1.4,2.6-1.5c1.9,0,3.2,1.5,3.2,4.4s-1.3,4.3-3.3,4.3
		C128.1,343.5,127.2,343.1,126.6,342.4z M129.9,339.2c0-1.4-0.5-2.3-1.6-2.3c-0.6,0-1.2,0.3-1.7,0.8v3.1c0.4,0.5,1,0.8,1.7,0.8
		C129.3,341.6,129.8,340.7,129.9,339.2L129.9,339.2z"/>
</g>
<g>
	<path class="st0" d="M133.2,341.2c0-1.9,1.6-3,5.3-3.3v-0.2c0-0.6-0.4-1-1-1c-0.1,0-0.2,0-0.3,0c-0.9,0-1.8,0.4-2.4,1l-1.4-1.4
		c1.1-1,2.6-1.6,4.2-1.5c2.4,0,3.4,1.1,3.4,3.3v5.3h-2.3l-0.2-1.2c-0.7,0.9-1.8,1.4-2.9,1.4c-1.2,0.1-2.3-0.8-2.4-2.1
		C133.2,341.4,133.2,341.3,133.2,341.2z M138.5,340.9v-1.6c-2,0.2-2.9,0.7-2.9,1.5c0,0.4,0.3,0.8,0.8,0.8c0,0,0.1,0,0.1,0
		C137.3,341.6,138,341.4,138.5,340.9L138.5,340.9z M137.5,331.4h2.6l-2.4,2.7H136L137.5,331.4z"/>
</g>
<g>
	<path class="st0" d="M142.1,342.4l0.9-1.5c0.9,0.6,1.9,1,3,1.1c0.8,0,1.3-0.3,1.3-0.8s-0.4-0.8-1.6-1c-1.6-0.3-3.3-0.7-3.3-2.6
		c0-1.7,1.4-2.7,3.3-2.7c1.3,0,2.5,0.3,3.6,1l-0.8,1.5c-0.8-0.5-1.7-0.8-2.6-0.8c-0.7,0-1.1,0.3-1.1,0.7s0.5,0.7,1.5,0.9
		c1.6,0.3,3.4,0.7,3.4,2.6s-1.8,2.8-3.7,2.8C144.6,343.6,143.3,343.2,142.1,342.4z"/>
</g>
<g>
	<path class="st0" d="M150.9,332.9c0-0.7,0.5-1.3,1.3-1.3c0.1,0,0.1,0,0.2,0c0.7,0.1,1.2,0.7,1.1,1.4c-0.1,0.7-0.7,1.2-1.4,1.1
		C151.4,334.1,150.9,333.6,150.9,332.9z M151.1,343.4V335h2.5v8.4H151.1z"/>
</g>
<g>
	<path class="st0" d="M155,339.2c-0.2-2.2,1.4-4.2,3.6-4.4c0.2,0,0.4,0,0.6,0c1.5-0.1,3,0.8,3.6,2.2L161,338
		c-0.2-0.8-0.9-1.3-1.8-1.3c-1.1,0-1.7,0.9-1.7,2.5c0,1.5,0.5,2.6,1.7,2.6c0.9,0,1.7-0.6,1.9-1.5l1.9,0.9c-0.7,1.5-2.3,2.4-3.9,2.4
		C157.2,343.6,155,342.5,155,339.2z"/>
</g>
<g>
	<path class="st0" d="M163.6,339.2c0-2.4,2-4.3,4.4-4.2c2.4,0,4.3,2,4.2,4.4c0,2.3-1.9,4.2-4.3,4.2c-2.2,0.2-4.1-1.5-4.3-3.7
		C163.6,339.7,163.6,339.4,163.6,339.2z M169.6,339.2c0-1.4-0.5-2.5-1.8-2.5s-1.8,1-1.8,2.5s0.5,2.6,1.8,2.6
		S169.7,340.7,169.6,339.2L169.6,339.2z"/>
</g>
<g>
	<path class="st0" d="M173,342.4l0.9-1.5c0.9,0.6,1.9,1,3,1.1c0.8,0,1.3-0.3,1.3-0.8s-0.4-0.8-1.6-1c-1.6-0.3-3.3-0.7-3.3-2.6
		c0-1.7,1.4-2.7,3.3-2.7c1.3,0,2.5,0.3,3.6,1l-0.8,1.5c-0.8-0.5-1.7-0.8-2.6-0.8c-0.7,0-1.1,0.3-1.1,0.7s0.5,0.7,1.5,0.9
		c1.6,0.3,3.4,0.7,3.4,2.6s-1.8,2.8-3.7,2.8C175.5,343.6,174.1,343.2,173,342.4z"/>
</g>
<g id="icons">
	<g>
		<path class="st1" d="M4.4,337.1c0,5,4.1,9.1,9.1,9.1c5,0,9.1-4.1,9.1-9.1c0-5-4.1-9.1-9.1-9.1S4.4,332.1,4.4,337.1L4.4,337.1z
			 M18.2,335.7l-1.1,1.1l-2.8-2.8v9.2l-1.5-1.5v-7.7l-2.9,2.9l-1.1-1.1l4.7-4.7L18.2,335.7z"/>
	</g>
</g>
<g>
	<path class="st0" d="M277.2,303.6c0-3.6,2-5.6,4.7-5.6c1.8-0.1,3.4,0.9,4.1,2.5l-1.6,0.9c-0.4-1.1-1.4-1.8-2.5-1.8
		c-1.9,0-2.9,1.5-2.9,3.9s1.1,4.1,3,4.1c1.2,0,2.3-0.8,2.7-2l1.6,0.7c-0.5,1.9-2.3,3.1-4.3,3C279.2,309.3,277.2,307.3,277.2,303.6z"
		/>
</g>
<g>
	<path class="st0" d="M288.5,309.1v-10.9h7.1v1.7h-5.2v2.7h4l0.3,1.6h-4.3v3.2h5.5v1.7L288.5,309.1L288.5,309.1z"/>
</g>
<g>
	<path class="st0" d="M300.6,309.1v-9.2h-3.4v-1.7h8.5l0.3,1.7h-3.5v9.2H300.6z"/>
</g>
<g>
	<path class="st0" d="M309.5,309.1v-9.3l-2.1,0.6l-0.2-1.5l2.4-0.8h1.7v10.9L309.5,309.1L309.5,309.1z"/>
</g>
<g>
	<path class="st0" d="M319.8,298.2h3.2c2.5,0,4.1,0.9,4.1,2.9c0,3-2.2,3.9-4.5,3.9h-2.3l-0.7,4.1h-1.8L319.8,298.2z M323,303.4
		c1.4,0,2.4-0.5,2.4-2.1c0-1-0.7-1.4-2.4-1.4h-1.6l-0.6,3.5L323,303.4L323,303.4z"/>
</g>
<g>
	<path class="st0" d="M327.7,309.1l1.9-10.8l1.9-0.3l-0.8,4.3c0.7-0.8,1.7-1.2,2.7-1.3c1-0.1,1.9,0.5,2.1,1.5c0,0.3,0,0.6-0.1,0.9
		l-1,5.5h-1.8l0.9-5.1c0.2-0.5,0-1-0.5-1.2c-0.2-0.1-0.4-0.1-0.5-0.1c-0.8,0.1-1.5,0.4-2,1l-1,5.5L327.7,309.1L327.7,309.1z"/>
</g>
<g>
	<path class="st0" d="M336.6,307.3c0-1.9,1.7-3.1,5.6-3.4v-0.2c0.2-0.8-0.2-1.1-1.2-1.1c-0.9,0-1.8,0.3-2.5,0.8l-0.8-1.1
		c1-0.8,2.3-1.2,3.6-1.1c2.3,0,2.9,1.2,2.6,3l-0.9,5h-1.6v-1c-0.7,0.7-1.7,1.1-2.8,1.1c-1,0.1-2-0.7-2.1-1.7
		C336.6,307.5,336.6,307.4,336.6,307.3z M341.8,306.9l0.3-1.7c-2.7,0.2-3.6,0.8-3.6,1.8c0,0.5,0.4,0.9,1,0.9c0,0,0.1,0,0.1,0
		C340.4,307.8,341.2,307.5,341.8,306.9L341.8,306.9z"/>
</g>
<g>
	<path class="st0" d="M345.1,307.8l0.9-1.2c0.7,0.8,1.6,1.2,2.7,1.2c0.8,0,1.5-0.2,1.5-1c0-1.4-4-0.8-4-3.2c0-1.7,1.4-2.5,2.9-2.5
		c1.2-0.1,2.4,0.3,3.3,1.1l-0.9,1.3c-0.7-0.6-1.5-0.9-2.4-0.9c-0.8,0-1.2,0.3-1.2,0.9c0,1.4,4,0.8,4,3.2c0,2.1-1.8,2.6-3.3,2.6
		C347.3,309.4,346,308.8,345.1,307.8z"/>
</g>
<g>
	<path class="st0" d="M353.6,305.9c0-3.8,2.8-4.8,4.2-4.8c2.4,0,3.3,1.6,2.9,4.2l-0.1,0.4h-5.2v0.2c-0.1,0.9,0.5,1.7,1.4,1.9
		c0.1,0,0.3,0,0.4,0c0.9,0,1.8-0.4,2.4-1l0.8,1.1c-0.9,0.9-2.1,1.4-3.4,1.3c-1.7,0.2-3.2-1.1-3.4-2.8
		C353.6,306.3,353.6,306.1,353.6,305.9z M359.2,304.4c0.1-1.1-0.2-1.8-1.5-1.8c-1,0-1.9,0.8-2.1,1.8H359.2L359.2,304.4z"/>
</g>
<g>
	<path class="st0" d="M362.1,306.1c0-3.5,2-5,3.7-5c0.9-0.1,1.8,0.3,2.4,0.9l0.6-3.7l1.9-0.3l-2,11.1h-1.6v-1
		c-0.6,0.8-1.4,1.2-2.4,1.2C363.3,309.2,362.1,308.3,362.1,306.1z M367.4,306.9l0.6-3.4c-0.4-0.5-1.1-0.8-1.8-0.8
		c-1,0-2.3,0.9-2.3,3.3c-0.1,0.8,0.4,1.6,1.3,1.8c0.1,0,0.2,0,0.3,0C366.2,307.8,366.9,307.4,367.4,306.9L367.4,306.9z"/>
</g>
<g>
	<path class="st0" d="M371.7,305.1l0.2-1.3h3.6l-0.2,1.3H371.7z"/>
</g>
<g>
	<path class="st0" d="M376.9,309.1l1.4-7.8h1.8l-1.4,7.8H376.9z M378.6,299.1c0.1-0.6,0.6-1,1.1-0.9c0.5,0,0.9,0.3,0.9,0.7
		c0,0.1,0,0.2,0,0.3c-0.1,0.6-0.6,1-1.2,0.9c-0.4,0-0.8-0.3-0.9-0.7C378.5,299.3,378.5,299.2,378.6,299.1L378.6,299.1z"/>
</g>
<g>
	<path class="st0" d="M381.2,309.1l1.4-7.8h1.7v1.1c0.7-0.8,1.7-1.2,2.7-1.3c1-0.1,1.9,0.5,2.1,1.5c0,0.3,0,0.6-0.1,0.9l-1,5.5h-1.8
		l0.9-5.1c0.2-0.5,0-1-0.5-1.2c-0.2-0.1-0.4-0.1-0.5-0.1c-0.8,0.1-1.5,0.4-2,1l-1,5.5L381.2,309.1L381.2,309.1z"/>
</g>
<g>
	<path class="st0" d="M398.6,312.1c-2.4-2-3.7-4.2-3.7-7.1s1.3-5,3.7-7.1l0.5,0.5c-3.6,3.1-4,8.5-1,12.1c0.3,0.3,0.6,0.7,1,1
		L398.6,312.1z"/>
</g>
<g>
	<path class="st0" d="M401.1,301.3c0-2,1-3.3,2.5-3.3s2.4,1.3,2.4,3.2s-0.9,3.3-2.5,3.3S401.1,303.3,401.1,301.3z M405.1,301.3
		c0-1.5-0.5-2.5-1.5-2.5s-1.5,1.1-1.5,2.5s0.5,2.5,1.5,2.5S405.1,302.7,405.1,301.3L405.1,301.3z M403.7,309.1l6.5-10.9h1l-6.5,10.9
		H403.7z M408.8,306c0-2,1-3.3,2.5-3.3s2.4,1.3,2.4,3.3s-0.9,3.3-2.5,3.3S408.7,307.9,408.8,306L408.8,306z M412.8,306
		c0-1.5-0.5-2.5-1.5-2.5s-1.5,1.1-1.5,2.5s0.5,2.5,1.5,2.5S412.7,307.4,412.8,306L412.8,306z"/>
</g>
<g>
	<path class="st0" d="M415.7,311.6c3.6-3.1,4.1-8.5,1-12.1c-0.3-0.4-0.6-0.7-1-1l0.5-0.5c2.4,2,3.7,4.3,3.7,7.1s-1.3,5-3.7,7.1
		L415.7,311.6z"/>
</g>
<g>
	<path class="st0" d="M303.6,340c0-1.6,1.3-2.8,2.9-3.5c-1.4-0.7-2.3-1.5-2.3-3.2s1.6-3.3,4.7-3.3s4.7,1.7,4.7,3.3
		c0,1.4-0.9,2.6-2.3,3.1c1.7,0.7,2.9,1.6,2.9,3.5c0,2.2-2,3.6-5.3,3.6S303.6,342.3,303.6,340z M311.2,339.9c0-1-0.8-1.6-2.6-2.3
		c-1.4,0.7-2.2,1.4-2.2,2.3s0.9,1.8,2.4,1.8S311.2,340.9,311.2,339.9z M310.7,333.6c0-0.9-0.8-1.6-1.7-1.6c-0.1,0-0.1,0-0.2,0
		c-1.4,0-1.9,0.8-1.9,1.5c0,1,0.8,1.5,2.1,2C310.2,334.9,310.7,334.5,310.7,333.6L310.7,333.6z"/>
</g>
<g>
	<path class="st0" d="M319.9,346.7V335h2.4l0.2,1.3c0.6-0.9,1.5-1.4,2.5-1.4c1.9,0,3.2,1.5,3.2,4.4s-1.3,4.3-3.3,4.3
		c-1,0-1.9-0.4-2.5-1.1v4L319.9,346.7z M325.7,339.2c0-1.4-0.5-2.3-1.6-2.3c-0.6,0-1.2,0.3-1.6,0.8v3.1c0.4,0.5,1,0.8,1.7,0.8
		C325.2,341.6,325.7,340.7,325.7,339.2L325.7,339.2z"/>
</g>
<g>
	<path class="st0" d="M329.5,341.1V335h2.5v5.4c-0.1,0.5,0.3,1.1,0.8,1.2c0.1,0,0.1,0,0.2,0c0.7-0.1,1.3-0.4,1.8-0.9V335h2.5v8.4
		h-2.4l-0.2-1.3c-0.7,0.9-1.8,1.5-2.9,1.5c-1.2,0.2-2.3-0.7-2.5-1.9C329.5,341.5,329.5,341.3,329.5,341.1z"/>
</g>
<g>
	<path class="st0" d="M339.2,343.4V335h2.4l0.2,1.3c0.7-0.9,1.7-1.5,2.9-1.5c1.2-0.1,2.3,0.7,2.4,1.9c0,0.2,0,0.3,0,0.5v6.1h-2.5
		v-5.3c0.1-0.5-0.2-1-0.7-1.1c-0.1,0-0.2,0-0.3,0c-0.7,0-1.3,0.3-1.8,0.8v5.6H339.2L339.2,343.4z"/>
</g>
<g>
	<path class="st0" d="M349.5,340.9v-4h-1.4V335h1.4v-2.7l2.5-0.4v3.1h2.2v1.8H352v3.8c-0.1,0.5,0.2,1,0.7,1.1c0.1,0,0.3,0,0.4,0
		c0.3,0,0.6,0,0.9-0.1l0.2,1.8c-0.6,0.1-1.2,0.1-1.8,0.1C350.4,343.5,349.5,342.9,349.5,340.9z"/>
</g>
<g>
	<path class="st0" d="M355,339.2c0-2.4,2-4.3,4.4-4.2c2.4,0,4.3,2,4.2,4.4c0,2.3-1.9,4.2-4.3,4.2c-2.2,0.2-4.1-1.5-4.3-3.7
		C355,339.7,355,339.4,355,339.2z M361,339.2c0-1.4-0.5-2.5-1.8-2.5s-1.8,1-1.8,2.5s0.5,2.6,1.8,2.6S361,340.7,361,339.2L361,339.2z
		"/>
</g>
<g>
	<path class="st0" d="M364.3,342.4l0.9-1.5c0.9,0.6,1.9,1,3,1.1c0.8,0,1.3-0.3,1.3-0.8s-0.4-0.8-1.6-1c-1.6-0.3-3.3-0.7-3.3-2.6
		c0-1.7,1.4-2.7,3.3-2.7c1.3,0,2.5,0.3,3.6,1l-0.8,1.5c-0.8-0.5-1.7-0.8-2.6-0.8c-0.7,0-1.1,0.3-1.1,0.7s0.5,0.7,1.5,0.9
		c1.6,0.3,3.4,0.7,3.4,2.6s-1.8,2.8-3.7,2.8C366.8,343.6,365.5,343.2,364.3,342.4z"/>
</g>
<g>
	<path class="st0" d="M379.8,342.4l-0.2,1h-2.3v-11.5l2.5-0.4v4.7c0.6-0.9,1.5-1.4,2.6-1.5c1.9,0,3.2,1.5,3.2,4.4s-1.3,4.3-3.3,4.3
		C381.4,343.6,380.5,343.1,379.8,342.4z M383.1,339.2c0-1.4-0.5-2.3-1.6-2.3c-0.6,0-1.2,0.3-1.6,0.8v3.1c0.4,0.5,1,0.8,1.7,0.8
		C382.6,341.6,383.1,340.7,383.1,339.2L383.1,339.2z"/>
</g>
<g>
	<path class="st0" d="M386.5,341.2c0-1.9,1.6-3,5.3-3.3v-0.2c0-0.6-0.4-1-1-1c-0.1,0-0.2,0-0.3,0c-0.9,0-1.8,0.4-2.4,1l-1.4-1.4
		c1.1-1,2.6-1.6,4.2-1.5c2.4,0,3.4,1.1,3.4,3.3v5.3H392l-0.2-1.2c-0.7,0.9-1.8,1.4-2.9,1.4c-1.2,0.1-2.3-0.8-2.4-2
		C386.5,341.4,386.4,341.3,386.5,341.2z M391.8,340.9v-1.6c-2,0.2-2.9,0.7-2.9,1.5c0,0.4,0.3,0.8,0.8,0.8c0,0,0.1,0,0.1,0
		C390.6,341.6,391.3,341.4,391.8,340.9L391.8,340.9z M390.8,331.4h2.5l-2.3,2.7h-1.7L390.8,331.4z"/>
</g>
<g>
	<path class="st0" d="M395.4,342.4l0.9-1.5c0.9,0.6,1.9,1,3,1.1c0.8,0,1.3-0.3,1.3-0.8s-0.4-0.8-1.6-1c-1.6-0.3-3.3-0.7-3.3-2.6
		c0-1.7,1.4-2.7,3.3-2.7c1.3,0,2.5,0.3,3.6,1l-0.8,1.5c-0.8-0.5-1.7-0.8-2.6-0.8c-0.7,0-1.1,0.3-1.1,0.7s0.5,0.7,1.5,0.9
		c1.6,0.3,3.4,0.7,3.4,2.6s-1.8,2.8-3.7,2.8C397.9,343.6,396.5,343.2,395.4,342.4z"/>
</g>
<g>
	<path class="st0" d="M404.2,332.9c0-0.7,0.5-1.3,1.3-1.3c0.1,0,0.1,0,0.2,0c0.7,0.1,1.2,0.7,1.1,1.4c-0.1,0.7-0.7,1.2-1.4,1.1
		C404.7,334.1,404.2,333.6,404.2,332.9z M404.3,343.4V335h2.5v8.4H404.3z"/>
</g>
<g>
	<path class="st0" d="M408.3,339.2c-0.2-2.2,1.4-4.2,3.6-4.4c0.2,0,0.4,0,0.6,0c1.5-0.1,3,0.8,3.6,2.2l-1.8,0.9
		c-0.2-0.8-0.9-1.3-1.8-1.3c-1,0-1.7,0.9-1.7,2.5c0,1.5,0.5,2.6,1.7,2.6c0.9,0,1.7-0.6,1.9-1.5l1.9,0.9c-0.7,1.5-2.3,2.4-3.9,2.4
		C410.5,343.6,408.3,342.5,408.3,339.2z"/>
</g>
<g>
	<path class="st0" d="M416.9,339.2c0-2.4,2-4.3,4.4-4.2c2.4,0,4.3,2,4.2,4.4c0,2.3-1.9,4.2-4.3,4.2c-2.2,0.2-4.1-1.5-4.3-3.7
		C416.9,339.7,416.9,339.4,416.9,339.2z M422.9,339.2c0-1.4-0.5-2.5-1.8-2.5s-1.8,1-1.8,2.5s0.5,2.6,1.8,2.6s1.9-1.1,1.9-2.6
		L422.9,339.2z"/>
</g>
<g>
	<path class="st0" d="M426.3,342.4l0.9-1.5c0.9,0.6,1.9,1,3,1.1c0.8,0,1.3-0.3,1.3-0.8s-0.4-0.8-1.6-1c-1.6-0.3-3.3-0.7-3.3-2.6
		c0-1.7,1.4-2.7,3.3-2.7c1.3,0,2.5,0.3,3.6,1l-0.8,1.5c-0.8-0.5-1.7-0.8-2.6-0.8c-0.7,0-1.1,0.3-1.1,0.7s0.5,0.7,1.5,0.9
		c1.6,0.3,3.4,0.7,3.4,2.6s-1.8,2.8-3.7,2.8C428.7,343.6,427.4,343.2,426.3,342.4z"/>
</g>
<g id="icons-2">
	<g>
		<path class="st1" d="M279.7,337.1c0,5,4.1,9.1,9.1,9.1c5,0,9.1-4.1,9.1-9.1c0-5-4.1-9.1-9.1-9.1S279.7,332.1,279.7,337.1
			C279.7,337.1,279.7,337.1,279.7,337.1z M293.4,335.7l-1.1,1.1l-2.8-2.8v9.2l-1.5-1.5v-7.7l-2.9,2.9l-1.1-1.1l4.7-4.7L293.4,335.7z
			"/>
	</g>
</g>
<g>
	<path class="st0" d="M528.4,309.1v-10.9h3.9c2.6,0,4.1,1,4.1,3.4c0.1,1.5-0.9,2.8-2.4,3l2.6,4.4l-1.8,0.3l-2.6-4.5h-1.9v4.3
		L528.4,309.1L528.4,309.1z M530.2,303.2h2c1.6,0,2.4-0.4,2.4-1.7s-0.8-1.6-2.4-1.6h-2V303.2z"/>
</g>
<g>
	<path class="st0" d="M538.1,309.1l3.9-11h1.8l3.8,10.8l-1.8,0.3l-0.9-2.8h-4.2l-0.9,2.6L538.1,309.1L538.1,309.1z M541.2,304.9h3.1
		l-1.5-4.4l0,0L541.2,304.9z"/>
</g>
<g>
	<path class="st0" d="M552.1,309.1v-9.2h-3.4v-1.7h8.5l0.3,1.7H554v9.2H552.1z"/>
</g>
<g>
	<path class="st0" d="M559.5,309.1v-10.9h1.8v10.9H559.5z"/>
</g>
<g>
	<path class="st0" d="M563.7,303.7c0-3.7,2.3-5.7,4.9-5.7s4.9,2,4.9,5.7s-2.3,5.7-4.9,5.7S563.7,307.3,563.7,303.7z M571.7,303.7
		c0-2.5-1.2-4-3.1-4s-3.1,1.5-3.1,4s1.2,4,3.1,4S571.8,306.1,571.7,303.7L571.7,303.7z"/>
</g>
<g>
	<path class="st0" d="M580,309.1v-10.9h3.1c3.4,0,5.7,1.6,5.7,5.4s-2.3,5.5-5.7,5.5L580,309.1L580,309.1z M581.8,307.4h1.4
		c2.5,0,3.7-1.1,3.7-3.8s-1.2-3.7-3.7-3.7h-1.4L581.8,307.4L581.8,307.4z"/>
</g>
<g>
	<path class="st0" d="M591.1,309.1v-10.9h7.1v1.7h-5.2v2.7h4l0.3,1.6H593v3.2h5.5v1.7L591.1,309.1L591.1,309.1z"/>
</g>
<g>
	<path class="st0" d="M604.2,303.6c0-3.6,2-5.6,4.7-5.6c1.8-0.1,3.4,0.9,4.1,2.5l-1.6,0.9c-0.4-1.1-1.4-1.8-2.5-1.8
		c-1.9,0-2.9,1.5-2.9,3.9s1.1,4.1,3,4.1c1.2,0,2.3-0.8,2.7-2l1.6,0.7c-0.5,1.9-2.3,3.1-4.3,3C606.2,309.3,604.2,307.3,604.2,303.6z"
		/>
</g>
<g>
	<path class="st0" d="M614.7,309.1l3.9-11h1.8l3.8,10.8l-1.8,0.3l-0.9-2.8h-4.2l-0.9,2.6L614.7,309.1L614.7,309.1z M617.9,304.9h3.1
		l-1.5-4.4l0,0L617.9,304.9z"/>
</g>
<g>
	<path class="st0" d="M626.2,309.1v-10.9h3.8c2.3,0,4.2,0.8,4.2,3.4s-2,3.4-4.2,3.4H628v4.1H626.2z M628,303.4h2
		c1.6,0,2.4-0.5,2.4-1.8s-0.7-1.7-2.4-1.7h-2L628,303.4L628,303.4z"/>
</g>
<g>
	<path class="st0" d="M636.5,309.1v-10.9h1.8v10.9H636.5z"/>
</g>
<g>
	<path class="st0" d="M643.8,309.1v-9.2h-3.4v-1.7h8.5l0.3,1.7h-3.5v9.2H643.8L643.8,309.1z"/>
</g>
<g>
	<path class="st0" d="M650.2,309.1l3.9-11h1.8l3.8,10.8l-1.8,0.3l-0.9-2.8h-4.2l-0.9,2.6L650.2,309.1L650.2,309.1z M653.3,304.9h3.1
		l-1.5-4.4l0,0L653.3,304.9z"/>
</g>
<g>
	<path class="st0" d="M661.7,309.1v-10.9h1.8v9.3h4.9l0.3,1.7L661.7,309.1L661.7,309.1z"/>
</g>
<g>
	<path class="st0" d="M675.6,298.2h3.2c2.5,0,4.2,0.9,4.2,2.9c0,3-2.2,3.9-4.5,3.9h-2.3l-0.7,4.1h-1.8L675.6,298.2z M678.7,303.4
		c1.4,0,2.4-0.5,2.4-2.1c0-1-0.7-1.4-2.4-1.4h-1.6l-0.6,3.5L678.7,303.4L678.7,303.4z"/>
</g>
<g>
	<path class="st0" d="M683.5,309.1l1.9-10.8l1.9-0.3l-0.8,4.3c0.7-0.8,1.7-1.2,2.7-1.3c1-0.1,1.9,0.5,2.1,1.5c0,0.3,0,0.6-0.1,0.9
		l-1,5.5h-1.8l0.9-5.1c0.2-0.5,0-1-0.5-1.2c-0.2-0.1-0.4-0.1-0.5-0.1c-0.8,0.1-1.5,0.4-2,1l-1,5.5L683.5,309.1L683.5,309.1z"/>
</g>
<g>
	<path class="st0" d="M692.4,307.3c0-1.9,1.7-3.1,5.6-3.4v-0.2c0.2-0.8-0.2-1.1-1.2-1.1c-0.9,0-1.8,0.3-2.5,0.8l-0.8-1.1
		c1-0.8,2.3-1.2,3.7-1.1c2.3,0,2.9,1.2,2.6,3l-0.9,5h-1.6v-1c-0.7,0.7-1.7,1.1-2.8,1.1c-1,0.1-2-0.6-2.1-1.7
		C692.4,307.5,692.4,307.4,692.4,307.3z M697.5,306.9l0.3-1.7c-2.7,0.2-3.6,0.8-3.6,1.8c0,0.5,0.4,0.9,1,0.9c0,0,0.1,0,0.1,0
		C696.2,307.8,696.9,307.5,697.5,306.9L697.5,306.9z"/>
</g>
<g>
	<path class="st0" d="M700.9,307.8l0.9-1.2c0.7,0.8,1.6,1.2,2.7,1.2c0.8,0,1.5-0.2,1.5-1c0-1.4-4-0.8-4-3.2c0-1.7,1.4-2.5,2.9-2.5
		c1.2-0.1,2.4,0.3,3.3,1.1l-0.9,1.3c-0.7-0.6-1.5-0.9-2.4-0.9c-0.8,0-1.2,0.3-1.2,0.9c0,1.4,4,0.8,4,3.2c0,2.1-1.8,2.6-3.3,2.6
		C703.1,309.4,701.8,308.8,700.9,307.8z"/>
</g>
<g>
	<path class="st0" d="M709.3,305.9c0-3.8,2.8-4.8,4.2-4.8c2.3,0,3.3,1.6,2.9,4.2l-0.1,0.4h-5.2v0.2c-0.1,0.9,0.5,1.7,1.4,1.9
		c0.1,0,0.3,0,0.4,0c0.9,0,1.8-0.4,2.4-1l0.8,1.1c-0.9,0.9-2.1,1.4-3.4,1.3c-1.7,0.2-3.2-1.1-3.4-2.8
		C709.3,306.3,709.3,306.1,709.3,305.9z M714.9,304.4c0.1-1.1-0.2-1.8-1.5-1.8c-1,0-1.9,0.8-2.1,1.8H714.9z"/>
</g>
<g>
	<path class="st0" d="M717.9,306.1c0-3.5,2-5,3.7-5c0.9-0.1,1.8,0.3,2.4,0.9l0.6-3.7l1.9-0.3l-2,11.1h-1.6v-1
		c-0.6,0.8-1.4,1.2-2.4,1.2C719.1,309.2,717.9,308.3,717.9,306.1z M723.1,306.9l0.6-3.4c-0.4-0.5-1.1-0.8-1.8-0.8
		c-1,0-2.3,0.9-2.3,3.3c-0.1,0.8,0.4,1.6,1.3,1.8c0.1,0,0.2,0,0.3,0C722,307.8,722.7,307.4,723.1,306.9z"/>
</g>
<g>
	<path class="st0" d="M727.5,305.1l0.2-1.3h3.7l-0.2,1.3H727.5z"/>
</g>
<g>
	<path class="st0" d="M732.7,309.1l1.4-7.8h1.8l-1.4,7.8H732.7z M734.3,299.1c0.1-0.6,0.6-1,1.2-0.9c0.5,0,0.9,0.3,0.9,0.7
		c0,0.1,0,0.2,0,0.3c-0.1,0.6-0.6,1-1.2,0.9c-0.4,0-0.8-0.3-0.9-0.7C734.3,299.3,734.3,299.2,734.3,299.1L734.3,299.1z"/>
</g>
<g>
	<path class="st0" d="M737,309.1l1.4-7.8h1.6v1.1c0.7-0.8,1.7-1.2,2.7-1.3c1-0.1,1.9,0.5,2.1,1.5c0,0.3,0,0.6-0.1,0.9l-1,5.5H742
		l0.9-5.1c0.2-0.5,0-1-0.5-1.2c-0.2-0.1-0.4-0.1-0.5-0.1c-0.8,0.1-1.5,0.4-2,1l-1,5.5L737,309.1L737,309.1z"/>
</g>
<g>
	<path class="st0" d="M754.4,312.1c-2.4-2-3.7-4.2-3.7-7.1s1.3-5,3.7-7.1l0.5,0.5c-3.6,3.1-4,8.5-1,12.1c0.3,0.3,0.6,0.7,1,1
		L754.4,312.1z"/>
</g>
<g>
	<path class="st0" d="M756.9,301.3c0-2,1-3.3,2.5-3.3s2.4,1.3,2.4,3.2s-0.9,3.3-2.5,3.3S756.9,303.3,756.9,301.3z M760.9,301.3
		c0-1.5-0.5-2.5-1.5-2.5s-1.5,1.1-1.5,2.5s0.5,2.5,1.5,2.5S760.9,302.7,760.9,301.3L760.9,301.3z M759.4,309.1l6.5-10.9h1l-6.5,10.9
		H759.4z M764.5,306c0-2,1-3.3,2.5-3.3s2.4,1.3,2.4,3.3s-0.9,3.3-2.5,3.3S764.5,307.9,764.5,306L764.5,306z M768.5,306
		c0-1.5-0.5-2.5-1.5-2.5s-1.5,1.1-1.5,2.5s0.5,2.5,1.5,2.5S768.5,307.4,768.5,306L768.5,306z"/>
</g>
<g>
	<path class="st0" d="M771.5,311.6c3.6-3.1,4.1-8.5,1-12.1c-0.3-0.4-0.6-0.7-1-1l0.5-0.5c2.4,2,3.7,4.3,3.7,7.1s-1.3,5-3.7,7.1
		L771.5,311.6z"/>
</g>
<g>
	<path class="st0" d="M557.1,343.4v-10.5l-2.5,0.6l-0.3-2.4l2.9-0.9h2.7v13.1H557.1z"/>
</g>
<g>
	<path class="st0" d="M568.6,343.4v-2.6h-6.4v-2.1l6-8.5h3.2v8.3h2l0.3,2.3h-2.3v2.6L568.6,343.4L568.6,343.4z M565.2,338.6h3.4
		v-4.8l0,0L565.2,338.6z"/>
</g>
<g>
	<path class="st0" d="M579.2,346.7V335h2.3l0.2,1.3c0.6-0.9,1.5-1.4,2.6-1.5c1.9,0,3.2,1.5,3.2,4.4s-1.3,4.3-3.3,4.3
		c-1,0-1.9-0.4-2.5-1.1v4L579.2,346.7z M585,339.2c0-1.4-0.5-2.3-1.6-2.3c-0.6,0-1.2,0.3-1.7,0.8v3.1c0.4,0.5,1,0.8,1.7,0.8
		C584.5,341.6,585,340.7,585,339.2L585,339.2z"/>
</g>
<g>
	<path class="st0" d="M588.9,341.1V335h2.5v5.4c-0.1,0.5,0.3,1.1,0.8,1.2c0.1,0,0.1,0,0.2,0c0.7-0.1,1.3-0.4,1.8-0.9V335h2.5v8.4
		h-2.4l-0.2-1.3c-0.7,0.9-1.8,1.5-2.9,1.5c-1.2,0.1-2.3-0.7-2.4-1.9C588.8,341.5,588.8,341.3,588.9,341.1z"/>
</g>
<g>
	<path class="st0" d="M598.6,343.4V335h2.3l0.2,1.3c0.7-0.9,1.7-1.5,2.9-1.5c1.2-0.1,2.3,0.7,2.4,1.9c0,0.2,0,0.3,0,0.5v6.1h-2.5
		v-5.3c0.1-0.5-0.2-1-0.7-1.1c-0.1,0-0.2,0-0.3,0c-0.7,0-1.3,0.3-1.8,0.8v5.6H598.6L598.6,343.4z"/>
</g>
<g>
	<path class="st0" d="M608.8,340.9v-4h-1.4V335h1.4v-2.7l2.5-0.4v3.1h2.2v1.8h-2.2v3.8c-0.1,0.5,0.2,1,0.7,1.1c0.1,0,0.3,0,0.4,0
		c0.3,0,0.6,0,0.9-0.1l0.2,1.8c-0.6,0.1-1.2,0.1-1.8,0.1C609.7,343.5,608.8,342.9,608.8,340.9z"/>
</g>
<g>
	<path class="st0" d="M614.3,339.2c0-2.4,2-4.3,4.4-4.2c2.4,0,4.3,2,4.2,4.4c0,2.3-1.9,4.2-4.3,4.2c-2.2,0.2-4.1-1.5-4.3-3.7
		C614.3,339.7,614.3,339.4,614.3,339.2z M620.3,339.2c0-1.4-0.5-2.5-1.8-2.5s-1.8,1-1.8,2.5s0.5,2.6,1.8,2.6
		S620.3,340.7,620.3,339.2L620.3,339.2z"/>
</g>
<g>
	<path class="st0" d="M623.7,342.4l0.8-1.5c0.9,0.6,1.9,1,3,1.1c0.8,0,1.3-0.3,1.3-0.8s-0.4-0.8-1.6-1c-1.6-0.3-3.3-0.7-3.3-2.6
		c0-1.7,1.4-2.7,3.3-2.7c1.3,0,2.5,0.3,3.6,1l-0.8,1.5c-0.8-0.5-1.7-0.8-2.6-0.8c-0.7,0-1.1,0.3-1.1,0.7s0.5,0.7,1.5,0.9
		c1.7,0.3,3.4,0.7,3.4,2.6s-1.8,2.8-3.7,2.8C626.1,343.6,624.8,343.2,623.7,342.4z"/>
</g>
<g>
	<path class="st0" d="M639.1,342.4l-0.2,1h-2.3v-11.5l2.5-0.4v4.7c0.6-0.9,1.5-1.4,2.6-1.5c1.9,0,3.2,1.5,3.2,4.4s-1.3,4.3-3.3,4.3
		C640.7,343.6,639.8,343.1,639.1,342.4z M642.4,339.2c0-1.4-0.5-2.3-1.6-2.3c-0.6,0-1.2,0.3-1.7,0.8v3.1c0.4,0.5,1,0.8,1.7,0.8
		C641.9,341.6,642.4,340.7,642.4,339.2L642.4,339.2z"/>
</g>
<g>
	<path class="st0" d="M645.8,341.2c0-1.9,1.6-3,5.3-3.3v-0.2c0-0.6-0.4-1-1-1c-0.1,0-0.2,0-0.3,0c-0.9,0-1.8,0.4-2.4,1l-1.4-1.4
		c1.1-1,2.6-1.6,4.2-1.5c2.4,0,3.4,1.1,3.4,3.3v5.3h-2.3l-0.2-1.2c-0.7,0.9-1.8,1.4-2.9,1.4c-1.2,0.1-2.3-0.9-2.4-2.1
		C645.8,341.4,645.8,341.3,645.8,341.2z M651.1,340.9v-1.6c-2,0.2-2.8,0.7-2.8,1.5c0,0.4,0.3,0.8,0.8,0.8c0,0,0.1,0,0.1,0
		C649.9,341.6,650.6,341.4,651.1,340.9z M650.1,331.4h2.5l-2.3,2.7h-1.7L650.1,331.4z"/>
</g>
<g>
	<path class="st0" d="M654.7,342.4l0.8-1.5c0.9,0.6,1.9,1,3,1.1c0.8,0,1.3-0.3,1.3-0.8s-0.4-0.8-1.6-1c-1.6-0.3-3.3-0.7-3.3-2.6
		c0-1.7,1.4-2.7,3.3-2.7c1.3,0,2.5,0.3,3.6,1l-0.8,1.5c-0.8-0.5-1.7-0.8-2.6-0.8c-0.7,0-1.1,0.3-1.1,0.7s0.5,0.7,1.5,0.9
		c1.7,0.3,3.4,0.7,3.4,2.6s-1.8,2.8-3.7,2.8C657.2,343.6,655.8,343.2,654.7,342.4z"/>
</g>
<g>
	<path class="st0" d="M663.5,332.9c0-0.7,0.5-1.3,1.3-1.3c0.1,0,0.1,0,0.2,0c0.7,0.1,1.2,0.7,1.1,1.4c-0.1,0.7-0.7,1.2-1.4,1.1
		C664,334.1,663.5,333.6,663.5,332.9z M663.6,343.4V335h2.5v8.4H663.6z"/>
</g>
<g>
	<path class="st0" d="M667.6,339.2c-0.2-2.2,1.4-4.2,3.6-4.4c0.2,0,0.4,0,0.6,0c1.5-0.1,3,0.8,3.6,2.2l-1.8,0.9
		c-0.2-0.8-0.9-1.3-1.8-1.3c-1.1,0-1.7,0.9-1.7,2.5c0,1.5,0.5,2.6,1.7,2.6c0.9,0,1.7-0.6,1.9-1.5l1.9,0.9c-0.7,1.5-2.3,2.4-3.9,2.4
		C669.8,343.6,667.6,342.5,667.6,339.2z"/>
</g>
<g>
	<path class="st0" d="M676.2,339.2c0-2.4,2-4.3,4.4-4.2c2.4,0,4.3,2,4.2,4.4c0,2.3-1.9,4.2-4.3,4.2c-2.2,0.2-4.1-1.5-4.3-3.7
		C676.2,339.7,676.2,339.4,676.2,339.2z M682.2,339.2c0-1.4-0.5-2.5-1.8-2.5s-1.8,1-1.8,2.5s0.5,2.6,1.8,2.6
		S682.3,340.7,682.2,339.2L682.2,339.2z"/>
</g>
<g>
	<path class="st0" d="M685.6,342.4l0.8-1.5c0.9,0.6,1.9,1,3,1.1c0.8,0,1.3-0.3,1.3-0.8s-0.4-0.8-1.6-1c-1.6-0.3-3.3-0.7-3.3-2.6
		c0-1.7,1.4-2.7,3.3-2.7c1.3,0,2.5,0.3,3.6,1l-0.8,1.5c-0.8-0.5-1.7-0.8-2.6-0.8c-0.7,0-1.1,0.3-1.1,0.7s0.5,0.7,1.5,0.9
		c1.7,0.3,3.4,0.7,3.4,2.6s-1.8,2.8-3.7,2.8C688.1,343.6,686.7,343.2,685.6,342.4z"/>
</g>
<g id="icons-3">
	<g>
		<path class="st1" d="M530.3,337.1c0,5,4.1,9.1,9.1,9.1c5,0,9.1-4.1,9.1-9.1c0-5-4.1-9.1-9.1-9.1S530.3,332.1,530.3,337.1
			C530.3,337.1,530.3,337.1,530.3,337.1z M544.1,335.7l-1.1,1.1l-2.8-2.8v9.2l-1.5-1.5v-7.7l-2.9,2.9l-1.1-1.1l4.7-4.7L544.1,335.7z
			"/>
	</g>
</g>
<g>
	<path class="st0" d="M35,155.2v-11.9l-2.5,0.9l-0.2-1l2.8-1h1.2v13.1L35,155.2L35,155.2z"/>
</g>
<g>
	<path class="st0" d="M39.6,148.6c0-4.1,1.7-6.8,4.8-6.8s4.8,2.7,4.8,6.8s-1.7,6.8-4.8,6.8S39.6,152.7,39.6,148.6z M48,148.6
		c0-3.7-1.4-5.7-3.5-5.7s-3.6,2-3.6,5.7s1.4,5.7,3.6,5.7S48,152.3,48,148.6L48,148.6z"/>
</g>
<g>
	<path class="st0" d="M51.5,157l0.5-3.4h1.5l-1.2,3.4H51.5z"/>
</g>
<g>
	<path class="st0" d="M55.2,153l0.9-0.7c0.7,1.3,2.1,2.1,3.6,2.1c2,0,3.1-1.1,3.1-2.7c0-1.9-1.1-2.9-4.2-2.9h-0.5l-0.1-1h0.6
		c2.8,0,3.8-0.9,3.8-2.5c0-1.3-0.8-2.3-2.8-2.3c-1.3,0-2.4,0.6-3.1,1.6l-0.8-0.8c1-1.2,2.4-2,4-2c2.8,0,3.9,1.6,3.9,3.3
		c0.1,1.6-1.1,2.9-2.6,3.1c1.8,0.1,3.1,1.7,2.9,3.4c0,2.1-1.7,3.8-4.4,3.8C57.8,155.5,56.2,154.5,55.2,153z"/>
</g>
<g>
	<path class="st0" d="M89.5,147.6v-11.9l-2.5,0.9l-0.2-1l2.8-1h1.2v13.1L89.5,147.6L89.5,147.6z"/>
</g>
<g>
	<path class="st0" d="M94.1,141.1c0-4.1,1.7-6.8,4.8-6.8s4.8,2.7,4.8,6.8s-1.7,6.8-4.8,6.8S94.1,145.2,94.1,141.1z M102.4,141.1
		c0-3.7-1.4-5.7-3.5-5.7s-3.6,2-3.6,5.7s1.4,5.7,3.6,5.7S102.4,144.8,102.4,141.1z"/>
</g>
<g>
	<path class="st0" d="M105.9,149.4l0.5-3.4h1.5l-1.2,3.4H105.9z"/>
</g>
<g>
	<path class="st0" d="M110.5,146.7l0.6-1c0.8,0.7,1.8,1.1,2.8,1.1c2.4,0,3.9-2.6,3.9-5.8c-0.9,1.1-2.3,1.7-3.7,1.8
		c-2.1,0.2-3.9-1.3-4.1-3.4c0-0.2,0-0.5,0-0.7c-0.1-2.3,1.7-4.3,4-4.4c0.1,0,0.3,0,0.4,0c2.6,0,4.6,2.1,4.6,6.6c0,4-2.1,7-5.1,7
		C112.6,147.9,111.4,147.5,110.5,146.7z M117.7,139.7c-0.3-3-1.7-4.3-3.4-4.3c-1.7-0.1-3.1,1.2-3.1,2.9c0,0.1,0,0.2,0,0.4
		c-0.2,1.5,0.9,2.8,2.5,3c0.2,0,0.4,0,0.5,0C115.6,141.6,116.9,140.9,117.7,139.7z"/>
</g>
<g>
	<path class="st0" d="M306.6,140.3v-11.9l-2.5,0.9l-0.2-1l2.8-1h1.1v13.1L306.6,140.3L306.6,140.3z"/>
</g>
<g>
	<path class="st0" d="M311.1,140.3V140c0-1.9,0.9-3.6,4.4-5.9c2-1.2,2.8-2.1,2.8-3.6c0.1-1.3-0.9-2.5-2.2-2.6c-0.1,0-0.3,0-0.4,0
		c-1.5,0-2.8,0.9-3.3,2.3l-0.9-0.6c0.7-1.7,2.4-2.8,4.2-2.8c1.9-0.2,3.7,1.2,3.8,3.2c0,0.1,0,0.3,0,0.4c0,1.8-0.9,2.9-3.4,4.5
		c-2.4,1.5-3.6,2.9-3.6,4.1h7l0.1,1.1L311.1,140.3L311.1,140.3z"/>
</g>
<g>
	<path class="st0" d="M321.9,142.1l0.5-3.4h1.5l-1.2,3.4H321.9z"/>
</g>
<g>
	<path class="st0" d="M329,140.3v-11.9l-2.5,0.9l-0.2-1l2.8-1h1.1v13.1L329,140.3L329,140.3z"/>
</g>
<g>
	<path class="st0" d="M354.5,137.6v-11.9l-2.5,0.8l-0.2-1l2.8-1h1.1v13H354.5z"/>
</g>
<g>
	<path class="st0" d="M359,137.6v-0.3c0-1.9,0.9-3.6,4.4-5.9c2-1.2,2.8-2.1,2.8-3.6c0.1-1.3-0.9-2.5-2.2-2.6c-0.1,0-0.3,0-0.4,0
		c-1.5,0-2.8,0.9-3.3,2.3l-0.9-0.6c0.7-1.7,2.4-2.8,4.2-2.8c1.9-0.2,3.7,1.2,3.8,3.2c0,0.1,0,0.3,0,0.4c0,1.8-0.9,2.9-3.4,4.5
		c-2.4,1.5-3.6,2.9-3.6,4.1h7l0.1,1.1H359z"/>
</g>
<g>
	<path class="st0" d="M369.8,139.4l0.5-3.4h1.5l-1.2,3.4H369.8z"/>
</g>
<g>
	<path class="st0" d="M373.9,137.6v-0.3c0-1.9,0.9-3.6,4.4-5.9c2-1.2,2.8-2.1,2.8-3.6c0.1-1.3-0.9-2.5-2.2-2.6c-0.1,0-0.3,0-0.4,0
		c-1.5,0-2.8,0.9-3.3,2.3l-0.9-0.6c0.7-1.7,2.4-2.8,4.2-2.8c1.9-0.2,3.7,1.2,3.8,3.2c0,0.1,0,0.3,0,0.4c0,1.8-0.9,2.9-3.4,4.5
		c-2.4,1.5-3.6,2.9-3.6,4.1h7l0.1,1.1H373.9L373.9,137.6z"/>
</g>
<g>
	<path class="st0" d="M550.4,116.6v-11.9l-2.5,0.8l-0.2-1l2.8-1h1.2v13.1L550.4,116.6L550.4,116.6z"/>
</g>
<g>
	<path class="st0" d="M554.8,114.6l0.8-0.8c0.7,1.2,2,2,3.5,2c1.7,0.1,3.2-1.3,3.3-3c0-0.1,0-0.3,0-0.4c0.2-1.6-1-3.1-2.6-3.2
		c-0.1,0-0.3,0-0.4,0c-1.2,0-2.4,0.6-3,1.7l-0.9-0.3l0.5-6.9h6.9v1.2h-5.9l-0.3,4.6c0.7-0.8,1.8-1.3,2.9-1.2c2.2,0,4,1.7,4.1,3.9
		c0,0.1,0,0.2,0,0.4c0.2,2.4-1.7,4.4-4,4.6c-0.2,0-0.3,0-0.5,0C557.3,116.9,555.7,116,554.8,114.6z"/>
</g>
<g>
	<path class="st0" d="M565.6,118.4l0.5-3.4h1.5l-1.2,3.4H565.6L565.6,118.4z"/>
</g>
<g>
	<path class="st0" d="M569.8,110.1c0-4.1,1.7-6.8,4.8-6.8s4.8,2.7,4.8,6.8s-1.7,6.8-4.8,6.8S569.8,114.2,569.8,110.1z M578.1,110.1
		c0-3.7-1.4-5.7-3.5-5.7s-3.6,2-3.6,5.7s1.4,5.7,3.6,5.7S578.1,113.8,578.1,110.1z"/>
</g>
<g>
	<path class="st0" d="M604.9,115v-11.9l-2.5,0.8l-0.2-1l2.8-1h1.2V115L604.9,115L604.9,115z"/>
</g>
<g>
	<path class="st0" d="M609.2,112.9l0.8-0.8c0.7,1.2,2,2,3.5,2c1.7,0.1,3.2-1.3,3.3-3c0-0.1,0-0.3,0-0.4c0.2-1.6-1-3.1-2.6-3.2
		c-0.1,0-0.3,0-0.4,0c-1.2,0-2.4,0.6-3,1.7l-0.9-0.3l0.5-6.9h6.9v1.2h-5.9l-0.3,4.6c0.7-0.8,1.8-1.3,2.9-1.2c2.2,0,4,1.7,4.1,3.9
		c0,0.1,0,0.2,0,0.4c0.2,2.4-1.7,4.4-4,4.6c-0.2,0-0.3,0-0.5,0C611.7,115.3,610.1,114.4,609.2,112.9z"/>
</g>
<g>
	<path class="st0" d="M620.1,116.8l0.5-3.4h1.5l-1.2,3.4H620.1L620.1,116.8z"/>
</g>
<g>
	<path class="st0" d="M627.1,115v-11.9l-2.5,0.8l-0.2-1l2.8-1h1.2V115L627.1,115L627.1,115z"/>
</g>
<g>
	<defs>
		<polygon id="SVGID_1_" points="61.8,266.6 18.7,248.7 0,253.9 46.8,274.1 		"/>
	</defs>
	<clipPath id="SVGID_2_">
		<use xlink:href="#SVGID_1_"  style="overflow:visible;"/>
	</clipPath>
	<g class="st2">
		<g>
			<polygon class="st3" points="36.9,248.7 5.2,267 0,257.9 0,248.7 			"/>
		</g>
		<g>
			<polygon class="st3" points="53.8,248.7 61.8,262.6 61.8,266.6 48.9,274.1 9.3,274.1 5.2,267 36.9,248.7 			"/>
		</g>
		<g>
			<polygon class="st3" points="48.9,274.1 61.8,266.6 61.8,274.1 			"/>
		</g>
	</g>
</g>
<g>
	<polygon class="st4" points="46.1,274.5 61.8,266.6 61.8,204 46.1,192.1 	"/>
</g>
<g>
	<polygon class="st5" points="46.1,183.1 61.8,175.2 46.2,168.9 30.5,176.8 	"/>
</g>
<g>
	<polygon class="st4" points="46.1,183.1 46.1,192.1 61.8,204 61.8,175.2 	"/>
</g>
<g>
	<defs>
		<polygon id="SVGID_3_" points="119.9,266.6 76.8,248.7 58.1,253.9 104.9,274.1 		"/>
	</defs>
	<clipPath id="SVGID_4_">
		<use xlink:href="#SVGID_3_"  style="overflow:visible;"/>
	</clipPath>
	<g class="st6">
		<g>
			<polygon class="st3" points="95,248.7 63.3,267 58.1,257.9 58.1,248.7 			"/>
		</g>
		<g>
			<polygon class="st3" points="111.9,248.7 119.9,262.6 119.9,266.6 107,274.1 67.4,274.1 63.3,267 95,248.7 			"/>
		</g>
		<g>
			<polygon class="st3" points="107,274.1 119.9,266.6 119.9,274.1 			"/>
		</g>
	</g>
</g>
<g>
	<polygon class="st1" points="104.2,274.5 119.9,266.6 119.9,184.3 104.2,192.1 	"/>
</g>
<g>
	<polygon class="st7" points="104.2,179.1 119.9,171.3 104.2,165 88.5,172.8 	"/>
</g>
<g>
	<polygon class="st1" points="104.2,179.1 104.2,192.1 119.9,184.3 119.9,171.3 	"/>
</g>
<g>
	<defs>
		<polygon id="SVGID_5_" points="334.4,266.6 291.3,248.7 272.6,253.9 319.4,274.1 		"/>
	</defs>
	<clipPath id="SVGID_6_">
		<use xlink:href="#SVGID_5_"  style="overflow:visible;"/>
	</clipPath>
	<g class="st8">
		<g>
			<polygon class="st3" points="309.5,248.7 277.9,267 272.6,257.9 272.6,248.7 			"/>
		</g>
		<g>
			<polygon class="st3" points="326.4,248.7 334.4,262.6 334.4,266.6 321.5,274.1 282,274.1 277.9,267 309.5,248.7 			"/>
		</g>
		<g>
			<polygon class="st3" points="321.5,274.1 334.4,266.6 334.4,274.1 			"/>
		</g>
	</g>
</g>
<g>
	<polygon class="st4" points="318.8,274.5 334.4,266.6 334.4,204 318.8,192.1 	"/>
</g>
<g>
	<polygon class="st5" points="318.8,167.3 334.4,159.5 318.8,153.2 303.1,161 	"/>
</g>
<g>
	<polygon class="st4" points="318.8,167.3 318.8,192.1 334.4,204 334.4,159.5 	"/>
</g>
<g>
	<defs>
		<polygon id="SVGID_7_" points="384.6,266.6 341.5,248.7 322.8,253.9 369.6,274.1 		"/>
	</defs>
	<clipPath id="SVGID_8_">
		<use xlink:href="#SVGID_7_"  style="overflow:visible;"/>
	</clipPath>
	<g class="st9">
		<g>
			<polygon class="st3" points="359.7,248.7 328.1,267 322.8,257.9 322.8,248.7 			"/>
		</g>
		<g>
			<polygon class="st3" points="376.6,248.7 384.6,262.6 384.6,266.6 371.7,274.1 332.2,274.1 328.1,267 359.7,248.7 			"/>
		</g>
		<g>
			<polygon class="st3" points="371.7,274.1 384.6,266.6 384.6,274.1 			"/>
		</g>
	</g>
</g>
<g>
	<polygon class="st1" points="369,274.5 384.6,266.6 384.6,184.3 369,192.1 	"/>
</g>
<g>
	<polygon class="st7" points="369,166.6 384.6,158.8 369,152.5 353.3,160.4 	"/>
</g>
<g>
	<polygon class="st1" points="369,166.6 369,192.1 384.6,184.3 384.6,158.8 	"/>
</g>
<g>
	<defs>
		<polygon id="SVGID_9_" points="581,266.6 537.9,248.7 519.2,253.9 566,274.1 		"/>
	</defs>
	<clipPath id="SVGID_10_">
		<use xlink:href="#SVGID_9_"  style="overflow:visible;"/>
	</clipPath>
	<g class="st10">
		<g>
			<polygon class="st3" points="556.1,248.7 524.4,267 519.2,257.9 519.2,248.7 			"/>
		</g>
		<g>
			<polygon class="st3" points="573,248.7 581,262.6 581,266.6 568.1,274.1 528.5,274.1 524.4,267 556.1,248.7 			"/>
		</g>
		<g>
			<polygon class="st3" points="568.1,274.1 581,266.6 581,274.1 			"/>
		</g>
	</g>
</g>
<g>
	<polygon class="st4" points="565.3,274.5 581,266.6 581,204 565.3,192.1 	"/>
</g>
<g>
	<polygon class="st5" points="565.3,143 581,135.2 565.3,128.9 549.6,136.8 	"/>
</g>
<g>
	<polygon class="st4" points="565.3,143 565.3,192.1 581,204 581,135.2 	"/>
</g>
<g>
	<defs>
		<polygon id="SVGID_11_" points="631.2,266.6 588.1,248.7 569.4,253.9 616.2,274.1 		"/>
	</defs>
	<clipPath id="SVGID_12_">
		<use xlink:href="#SVGID_11_"  style="overflow:visible;"/>
	</clipPath>
	<g class="st11">
		<g>
			<polygon class="st3" points="606.3,248.7 574.6,267 569.4,257.9 569.4,248.7 			"/>
		</g>
		<g>
			<polygon class="st3" points="623.2,248.7 631.2,262.6 631.2,266.6 618.3,274.1 578.7,274.1 574.6,267 606.3,248.7 			"/>
		</g>
		<g>
			<polygon class="st3" points="618.3,274.1 631.2,266.6 631.2,274.1 			"/>
		</g>
	</g>
</g>
<g>
	<polygon class="st1" points="615.5,274.5 631.2,266.6 631.2,184.3 615.5,192.1 	"/>
</g>
<g>
	<polygon class="st7" points="615.5,142.1 631.2,134.2 615.5,127.9 599.8,135.8 	"/>
</g>
<g>
	<polygon class="st1" points="615.5,142.1 615.5,192.1 631.2,184.3 631.2,134.2 	"/>
</g>
<g>
	<path class="st0" d="M423.5,11.1v-0.2c0-1.6,0.8-3,3.7-4.9c1.6-1,2.3-1.8,2.3-3c0.1-1.1-0.7-2.1-1.8-2.1c-0.1,0-0.3,0-0.4,0
		c-1.2,0-2.3,0.8-2.7,1.9l-0.8-0.5c0.6-1.4,2-2.3,3.6-2.3c1.6-0.2,3,1,3.2,2.6c0,0.1,0,0.3,0,0.4c0,1.5-0.7,2.4-2.8,3.8
		s-3,2.4-3,3.4h5.9l0.1,0.9L423.5,11.1L423.5,11.1z"/>
</g>
<g>
	<path class="st0" d="M432.1,5.7c0-3.4,1.5-5.7,4-5.7s4,2.3,4,5.7s-1.4,5.7-4,5.7S432.1,9.1,432.1,5.7z M439.1,5.7
		c0-3.1-1.2-4.7-3-4.7s-3,1.7-3,4.7s1.2,4.7,3,4.7S439.1,8.7,439.1,5.7L439.1,5.7z"/>
</g>
<g>
	<path class="st0" d="M444.1,11.1v-10L442,1.8L441.8,1l2.3-0.8h1v11H444.1L444.1,11.1z"/>
</g>
<g>
	<path class="st0" d="M447.9,5.9c0-3.4,1.8-5.9,4.3-5.9c0.9,0,1.8,0.2,2.6,0.8l-0.5,0.8c-0.6-0.5-1.3-0.8-2.1-0.7
		c-2,0-3.3,2.1-3.3,4.8c0.8-0.9,1.9-1.4,3.1-1.5c1.7-0.2,3.2,1.1,3.4,2.8c0,0.2,0,0.4,0,0.6c0.1,1.9-1.4,3.5-3.3,3.6
		c-0.1,0-0.2,0-0.4,0C449.7,11.3,447.9,9.6,447.9,5.9z M454.5,7.7c0.1-1.3-0.8-2.4-2-2.5c-0.2,0-0.3,0-0.5,0c-1.2,0-2.3,0.6-3,1.6
		c0.2,2.5,1.4,3.6,2.9,3.6c1.4,0.1,2.6-0.9,2.6-2.3C454.5,8,454.5,7.9,454.5,7.7z"/>
</g>
<g>
	<path class="st0" d="M317.8,11.1v-0.2c0-1.6,0.8-3,3.7-4.9c1.6-1,2.3-1.8,2.3-3c0.1-1.1-0.7-2.1-1.8-2.1c-0.1,0-0.3,0-0.4,0
		c-1.2,0-2.3,0.8-2.7,1.9L318,2.3c0.6-1.4,2-2.3,3.6-2.3c1.6-0.2,3,1,3.2,2.6c0,0.1,0,0.3,0,0.4c0,1.5-0.7,2.4-2.8,3.8s-3,2.4-3,3.4
		h5.9l0.1,0.9L317.8,11.1L317.8,11.1z"/>
</g>
<g>
	<path class="st0" d="M326.5,5.7c0-3.4,1.5-5.7,4-5.7s4,2.3,4,5.7s-1.4,5.7-4,5.7S326.5,9.1,326.5,5.7z M333.5,5.7
		c0-3.1-1.2-4.7-3-4.7s-3,1.7-3,4.7s1.2,4.7,3,4.7S333.5,8.7,333.5,5.7L333.5,5.7z"/>
</g>
<g>
	<path class="st0" d="M338.4,11.1v-10l-2.1,0.7L336.2,1l2.3-0.8h1v11H338.4L338.4,11.1z"/>
</g>
<g>
	<path class="st0" d="M342.1,9.4l0.7-0.7c0.6,1,1.7,1.7,2.9,1.7c1.5,0.1,2.7-1.1,2.7-2.5c0-0.1,0-0.2,0-0.3c0.2-1.3-0.8-2.5-2.1-2.7
		c-0.1,0-0.2,0-0.4,0c-1,0-2,0.5-2.5,1.4l-0.8-0.3l0.4-5.7h5.7v1h-4.9L343.5,5c0.6-0.7,1.5-1.1,2.4-1c1.8-0.1,3.3,1.4,3.4,3.2
		c0,0.1,0,0.3,0,0.4c0.1,2-1.4,3.7-3.4,3.8c-0.1,0-0.3,0-0.4,0C344.1,11.4,342.8,10.6,342.1,9.4z"/>
</g>
<g>
	<polygon class="st1" points="386.7,3 382.1,12.1 364.8,12.1 369.4,3 	"/>
</g>
<g>
	<polygon class="st4" points="278.2,3 273.6,12.1 256.3,12.1 260.9,3 	"/>
</g>
<g>
	<path class="st0" d="M396.1,11.2V0.1h2.8c3.6,0,5.5,1.9,5.5,5.5c0,3.7-2,5.6-5.5,5.6H396.1z M397.2,10.2h1.9c2.8,0,4.3-1.4,4.3-4.6
		c0-3.1-1.5-4.6-4.3-4.6h-1.9V10.2z"/>
	<path class="st0" d="M406.5,0.9c0-0.4,0.2-0.6,0.6-0.6s0.6,0.2,0.6,0.6c0,0.4-0.2,0.7-0.6,0.7S406.5,1.3,406.5,0.9z M406.6,11.2
		V3.3h1v7.9H406.6z"/>
	<path class="st0" d="M409.7,7.2c0-2.8,1.8-4.1,3.5-4.1c1.4,0,2.4,0.8,2.9,1.9l-0.8,0.5c-0.5-1-1-1.5-2.1-1.5
		c-1.2,0-2.5,0.9-2.5,3.2c0,2,1,3.2,2.4,3.2c1.1,0,1.7-0.5,2.2-1.5l0.8,0.5c-0.7,1.3-1.6,1.9-3,1.9C411.3,11.3,409.7,9.9,409.7,7.2z
		"/>
	<path class="st0" d="M417.9,6.9V6h3.4v0.9H417.9z"/>
</g>
<g>
	<path class="st0" d="M290.4,11.2V0.1h2.8c3.6,0,5.5,1.9,5.5,5.5c0,3.7-2,5.6-5.5,5.6H290.4z M291.5,10.2h1.9c2.8,0,4.3-1.4,4.3-4.6
		c0-3.1-1.5-4.6-4.3-4.6h-1.9V10.2z"/>
	<path class="st0" d="M300.8,0.9c0-0.4,0.2-0.6,0.6-0.6s0.6,0.2,0.6,0.6c0,0.4-0.2,0.7-0.6,0.7S300.8,1.3,300.8,0.9z M300.9,11.2
		V3.3h1v7.9H300.9z"/>
	<path class="st0" d="M304,7.2c0-2.8,1.8-4.1,3.5-4.1c1.4,0,2.4,0.8,2.9,1.9l-0.8,0.5c-0.5-1-1-1.5-2.1-1.5c-1.2,0-2.5,0.9-2.5,3.2
		c0,2,1,3.2,2.4,3.2c1.1,0,1.7-0.5,2.2-1.5l0.8,0.5c-0.7,1.3-1.6,1.9-3,1.9C305.6,11.3,304,9.9,304,7.2z"/>
	<path class="st0" d="M312.2,6.9V6h3.4v0.9H312.2z"/>
</g>
</svg>
