<?xml version="1.0" encoding="UTF-8" standalone="no"?>
<svg width="734px" height="352px" viewBox="0 0 734 352" version="1.1" xmlns="http://www.w3.org/2000/svg" xmlns:xlink="http://www.w3.org/1999/xlink">
    <!-- Generator: Sketch 41.2 (35397) - http://www.bohemiancoding.com/sketch -->
    <title>Page 1</title>
    <desc>Created with Sketch.</desc>
    <defs>
        <linearGradient x1="28.3987597%" y1="26.9652287%" x2="86.2405662%" y2="86.0731585%" id="linearGradient-1">
            <stop stop-color="#000000" stop-opacity="0" offset="0%"></stop>
            <stop stop-color="#000000" stop-opacity="0.5" offset="100%"></stop>
        </linearGradient>
    </defs>
    <g id="Page-1" stroke="none" stroke-width="1" fill="none" fill-rule="evenodd">
        <g transform="translate(-1.000000, -4.000000)">
            <text id="CET1-(Fully-loaded)" font-family="BentonSansBBVA-Medium, Benton Sans BBVA" font-size="15" font-weight="400" letter-spacing="0.025" fill="#FFFFFF">
                <tspan x="1.2651" y="316.789964">CET1 (</tspan>
                <tspan x="47.3901" y="316.789964" font-family="BentonSansBBVA-MediumItalic, Benton Sans BBVA" font-style="italic" font-weight="500">Fully-loaded</tspan>
                <tspan x="133.0701" y="316.789964">)</tspan>
            </text>
            <g id="Group-3" transform="translate(4.000000, 329.915000)">
                <text id="+58pb" font-family="BentonSansBBVA-Bold, Benton Sans BBVA" font-size="18" font-weight="bold" letter-spacing="-0.008" fill="#FFFFFF">
                    <tspan x="24.417" y="21.1074562">+58pb</tspan>
                </text>
                <path d="M14.4937,13.8994 L13.3957,14.9974 L10.5237,12.1184 L10.5547,21.4484 L9.0417,19.9124 L9.0417,12.0944 L6.0927,15.0284 L4.9867,13.9294 L9.7557,9.1614 L14.4937,13.8994 Z M0.5177,15.3044 C0.5177,20.3954 4.6417,24.5194 9.7327,24.5194 C14.8237,24.5194 18.9477,20.3954 18.9477,15.3044 C18.9477,10.2124 14.8237,6.0894 9.7327,6.0894 C4.6417,6.0894 0.5177,10.2124 0.5177,15.3044 L0.5177,15.3044 Z" id="Fill-2" fill="#2ECDCD"></path>
            </g>
            <text id="CET1-(Phased-in)" font-family="BentonSansBBVA-Medium, Benton Sans BBVA" font-size="15" font-weight="400" letter-spacing="0.025" fill="#FFFFFF">
                <tspan x="280.8862" y="316.789964">CET1 (</tspan>
                <tspan x="327.0112" y="316.789964" font-family="BentonSansBBVA-MediumItalic, Benton Sans BBVA" font-style="italic" font-weight="500">Phased-in</tspan>
                <tspan x="397.5562" y="316.789964">)</tspan>
            </text>
            <g id="Group-6" transform="translate(284.000000, 329.915000)">
                <text id="8pb" font-family="BentonSansBBVA-Bold, Benton Sans BBVA" font-size="18" font-weight="bold" letter-spacing="-0.008" fill="#FFFFFF">
                    <tspan x="24.0371" y="21.1074562">8pb</tspan>
                </text>
                <path d="M14.1143,13.8994 L13.0163,14.9974 L10.1443,12.1184 L10.1753,21.4484 L8.6623,19.9124 L8.6623,12.0944 L5.7133,15.0284 L4.6073,13.9294 L9.3763,9.1614 L14.1143,13.8994 Z M0.1383,15.3044 C0.1383,20.3954 4.2623,24.5194 9.3533,24.5194 C14.4443,24.5194 18.5683,20.3954 18.5683,15.3044 C18.5683,10.2124 14.4443,6.0894 9.3533,6.0894 C4.2623,6.0894 0.1383,10.2124 0.1383,15.3044 L0.1383,15.3044 Z" id="Fill-5" fill="#2ECDCD"></path>
            </g>
            <text id="RATIO-CAPITAL-(Phased-in" font-family="BentonSansBBVA-Medium, Benton Sans BBVA" font-size="15" font-weight="400" letter-spacing="0.025" fill="#FFFFFF">
                <tspan x="535.5601" y="316.789964">RATIO CAPITAL (</tspan>
                <tspan x="656.3101" y="316.789964" font-family="BentonSansBBVA-MediumItalic, Benton Sans BBVA" font-style="italic" font-weight="500">Phased-in</tspan>
            </text>
            <g id="Group-9" transform="translate(538.000000, 297.915000)">
                <text id=")" font-family="BentonSansBBVA-Medium, Benton Sans BBVA" font-size="15" font-weight="400" fill="#FFFFFF">
                    <tspan x="191.2725" y="18.8749635">)</tspan>
                </text>
                <text id="14pb" font-family="BentonSansBBVA-Bold, Benton Sans BBVA" font-size="18" font-weight="bold" letter-spacing="-0.008" fill="#FFFFFF">
                    <tspan x="24.7109" y="53.1074562">14pb</tspan>
                </text>
                <path d="M14.7879,45.8994 L13.6899,46.9974 L10.8179,44.1184 L10.8489,53.4484 L9.3359,51.9124 L9.3359,44.0944 L6.3869,47.0284 L5.2809,45.9294 L10.0499,41.1614 L14.7879,45.8994 Z M0.8119,47.3044 C0.8119,52.3954 4.9359,56.5194 10.0269,56.5194 C15.1179,56.5194 19.2419,52.3954 19.2419,47.3044 C19.2419,42.2124 15.1179,38.0894 10.0269,38.0894 C4.9359,38.0894 0.8119,42.2124 0.8119,47.3044 L0.8119,47.3044 Z" id="Fill-8" fill="#2ECDCD"></path>
            </g>
            <text id="10,3" font-family="BentonSansBBVA-Book, Benton Sans BBVA" font-size="18" font-weight="300" letter-spacing="-0.008" fill="#FFFFFF">
                <tspan x="32.6104" y="155.801256">10,3</tspan>
            </text>
            <text id="10,9" font-family="BentonSansBBVA-Book, Benton Sans BBVA" font-size="18" font-weight="300" letter-spacing="-0.008" fill="#FFFFFF">
                <tspan x="85.9444" y="148.133256">10,9</tspan>
            </text>
            <text id="12,1" font-family="BentonSansBBVA-Book, Benton Sans BBVA" font-size="18" font-weight="300" letter-spacing="-0.008" fill="#FFFFFF">
                <tspan x="313.5904" y="140.627256">12,1</tspan>
            </text>
            <text id="12,2" font-family="BentonSansBBVA-Book, Benton Sans BBVA" font-size="18" font-weight="300" letter-spacing="-0.008" fill="#FFFFFF">
                <tspan x="356.2684" y="137.963256">12,2</tspan>
            </text>
            <text id="15,0" font-family="BentonSansBBVA-Book, Benton Sans BBVA" font-size="18" font-weight="300" letter-spacing="-0.008" fill="#FFFFFF">
                <tspan x="555.2584" y="116.633256">15,0</tspan>
            </text>
            <text id="15,1" font-family="BentonSansBBVA-Book, Benton Sans BBVA" font-size="18" font-weight="300" letter-spacing="-0.008" fill="#FFFFFF">
                <tspan x="610.5904" y="114.959256">15,1</tspan>
            </text>
            <polygon id="Fill-10" fill-opacity="0.2" fill="url(#linearGradient-1)" points="0 260.695 47.534 281.2 62.805 273.621 18.999 255.446"></polygon>
            <g id="Group-18" transform="translate(30.000000, 173.915000)">
                <polygon id="Fill-12" fill="#2A86CA" points="16.8622 107.6777 32.8052 99.7057 32.8052 36.0397 16.8622 24.0117"></polygon>
                <polygon id="Fill-14" fill="#0064A8" points="16.8622 14.8018 32.8062 6.8298 16.8972 0.4548 0.9532 8.4268"></polygon>
                <polygon id="Fill-16" fill="#2A86CA" points="16.8622 14.8018 16.8622 24.0118 32.8052 36.0398 32.8052 6.8298"></polygon>
            </g>
            <polygon id="Fill-19" fill-opacity="0.2" fill="url(#linearGradient-1)" points="59.003 260.695 106.538 281.2 121.809 273.621 78.002 255.446"></polygon>
            <g id="Group-27" transform="translate(89.000000, 169.915000)">
                <polygon id="Fill-21" fill="#2ECDCD" points="16.8653 111.6777 32.8083 103.7057 32.8083 20.0397 16.8653 28.0117"></polygon>
                <polygon id="Fill-23" fill="#00A6A6" points="16.8653 14.8018 32.8093 6.8298 16.9003 0.4548 0.9563 8.4268"></polygon>
                <polygon id="Fill-25" fill="#2ECDCD" points="16.8653 14.8018 16.8653 28.0118 32.8083 20.0398 32.8083 6.8298"></polygon>
            </g>
            <polygon id="Fill-28" fill-opacity="0.2" fill="url(#linearGradient-1)" points="276.992 260.695 324.527 281.2 339.798 273.621 295.991 255.446"></polygon>
            <g id="Group-36" transform="translate(307.000000, 157.915000)">
                <polygon id="Fill-30" fill="#2A86CA" points="16.8543 123.6777 32.7973 115.7057 32.7973 52.0397 16.8543 40.0117"></polygon>
                <polygon id="Fill-32" fill="#0064A8" points="16.8543 14.8125 32.7983 6.8395 16.8893 0.4645 0.9453 8.4375"></polygon>
                <polygon id="Fill-34" fill="#2A86CA" points="16.8543 14.8125 16.8543 40.0115 32.7973 52.0405 32.7973 6.8395"></polygon>
            </g>
            <polygon id="Fill-37" fill-opacity="0.2" fill="url(#linearGradient-1)" points="327.996 260.695 375.53 281.2 390.801 273.621 346.994 255.446"></polygon>
            <g id="Group-45" transform="translate(358.000000, 156.915000)">
                <polygon id="Fill-39" fill="#2ECDCD" points="16.8578 124.6777 32.8008 116.7057 32.8008 33.0397 16.8578 41.0117"></polygon>
                <polygon id="Fill-41" fill="#00A6A6" points="16.8578 15.1348 32.8018 7.1628 16.8928 0.7878 0.9488 8.7598"></polygon>
                <polygon id="Fill-43" fill="#2ECDCD" points="16.8578 15.1348 16.8578 41.0118 32.8008 33.0398 32.8008 7.1628"></polygon>
            </g>
            <polygon id="Fill-46" fill-opacity="0.2" fill="url(#linearGradient-1)" points="527.477 260.695 575.012 281.2 590.282 273.621 546.475 255.446"></polygon>
            <g id="Group-54" transform="translate(558.000000, 132.915000)">
                <polygon id="Fill-48" fill="#2A86CA" points="16.3389 148.6777 32.2819 140.7057 32.2819 77.0397 16.3389 65.0117"></polygon>
                <polygon id="Fill-50" fill="#0064A8" points="16.3389 15.1348 32.2829 7.1628 16.3739 0.7878 0.4299 8.7598"></polygon>
                <polygon id="Fill-52" fill="#2A86CA" points="16.3389 15.1348 16.3389 65.0118 32.2819 77.0398 32.2819 7.1628"></polygon>
            </g>
            <polygon id="Fill-55" fill-opacity="0.2" fill="url(#linearGradient-1)" points="578.48 260.695 626.015 281.2 641.285 273.621 597.478 255.446"></polygon>
            <g id="Group-66" transform="translate(280.000000, 0.915000)">
                <polygon id="Fill-57" fill="#2ECDCD" points="345.3421 280.6777 361.2851 272.7057 361.2851 189.0397 345.3421 197.0117"></polygon>
                <polygon id="Fill-59" fill="#00A6A6" points="345.3421 146.1455 361.2861 138.1735 345.3771 131.7985 329.4331 139.7705"></polygon>
                <polygon id="Fill-61" fill="#2ECDCD" points="345.3421 146.1455 345.3421 197.0115 361.2851 189.0405 361.2851 138.1735"></polygon>
                <text id="2016" font-family="BentonSansBBVA-Book, Benton Sans BBVA" font-size="15" font-weight="300" letter-spacing="-0.008" fill="#FFFFFF">
                    <tspan x="121.3311" y="14.1347635">2016</tspan>
                </text>
                <text id="2015" font-family="BentonSansBBVA-Book, Benton Sans BBVA" font-size="15" font-weight="300" letter-spacing="-0.008" fill="#FFFFFF">
                    <tspan x="34.0011" y="15.1347635">2015</tspan>
                </text>
                <polygon id="Fill-64" fill="#2ECDCD" points="112.888 4.8535 108.255 14.1195 90.646 14.1195 95.279 4.8535"></polygon>
                <polygon id="Fill-65" fill="#2A86CA" points="22.6559 4.8535 18.0229 14.1195 0.4139 14.1195 5.0469 4.8535"></polygon>
            </g>
        </g>
    </g>
</svg>