<?xml version="1.0" encoding="UTF-8" standalone="no"?>
<svg width="720px" height="283px" viewBox="0 0 720 283" version="1.1" xmlns="http://www.w3.org/2000/svg" xmlns:xlink="http://www.w3.org/1999/xlink">
    <!-- Generator: Sketch 41.2 (35397) - http://www.bohemiancoding.com/sketch -->
    <title>Group</title>
    <desc>Created with Sketch.</desc>
    <defs>
        <linearGradient x1="13.1545558%" y1="28.6069453%" x2="86.185664%" y2="100%" id="linearGradient-1">
            <stop stop-color="#000000" stop-opacity="0" offset="0%"></stop>
            <stop stop-color="#000000" offset="100%"></stop>
        </linearGradient>
        <polygon id="path-2" points="0.646 22 73.951 22 73.951 0.249963522 0.646 0.249963522 0.646 22"></polygon>
        <polygon id="path-4" points="0.134 22 415.364 22 415.364 0.249963522 0.134 0.249963522 0.134 22"></polygon>
        <polygon id="path-6" points="0.123 22 89.913 22 89.913 0.249963522 0.123 0.249963522 0.123 22"></polygon>
    </defs>
    <g id="Page-1" stroke="none" stroke-width="1" fill="none" fill-rule="evenodd">
        <g id="Group" transform="translate(-8.000000, -1.000000)">
            <g id="Page-1">
                <polygon id="Fill-1" fill-opacity="0.2" fill="url(#linearGradient-1)" points="534.778 232.444 490.971 214.269 471.973 219.519 519.507 240.024"></polygon>
                <polygon id="Fill-3" fill="#2ECDCD" points="518.8347 240.4161 534.7777 232.4441 534.7777 212.9221 518.8347 220.8941"></polygon>
                <polygon id="Fill-4" fill="#0064A8" points="518.8347 220.9722 534.7787 213.0002 518.8697 206.6252 502.9257 214.5972"></polygon>
                <polygon id="Fill-5" fill-opacity="0.2" fill="url(#linearGradient-1)" points="683.134 232.444 639.328 214.269 620.329 219.519 667.864 240.024"></polygon>
                <polygon id="Fill-7" fill="#2ECDCD" points="667.1911 240.4161 683.1341 232.4441 683.1341 148.7781 667.1911 156.7501"></polygon>
                <polygon id="Fill-8" fill="#0064A8" points="667.1911 101.4615 683.1351 93.4895 667.2261 87.1145 651.2821 95.0865"></polygon>
                <polygon id="Fill-9" fill="#2ECDCD" points="667.1911 101.4615 667.1911 156.7505 683.1341 148.7785 683.1341 93.4895"></polygon>
                <polygon id="Fill-10" fill-opacity="0.2" fill="url(#linearGradient-1)" points="661.131 232.444 617.324 214.269 598.326 219.519 645.861 240.024"></polygon>
                <polygon id="Fill-12" fill="#2A86CA" points="645.1877 240.4161 661.1307 232.4441 661.1307 168.7781 645.1877 156.7501"></polygon>
                <polygon id="Fill-13" fill="#0064A8" points="645.1877 100.0489 661.1317 92.0769 645.2227 85.7019 629.2787 93.6739"></polygon>
                <polygon id="Fill-14" fill="#2A86CA" points="645.1877 100.0489 645.1877 156.7499 661.1307 168.7779 661.1307 92.0769"></polygon>
                <polygon id="Fill-15" fill-opacity="0.2" fill="url(#linearGradient-1)" points="373.285 232.444 329.479 214.269 310.48 219.519 358.015 240.024"></polygon>
                <polygon id="Fill-17" fill="#0064A8" points="357.3422 230.2222 373.2862 222.2502 357.3772 215.8752 341.4332 223.8472"></polygon>
                <polygon id="Fill-18" fill="#2ECDCD" points="357.3422 230.2222 357.3422 240.3862 373.2852 232.4132 373.2852 222.2502"></polygon>
                <g id="Group-20" transform="translate(27.000000, 0.941000)" fill="#FFFFFF">
                    <path d="M2.7588,280.249964 L2.7588,275.869964 L4.7238,275.869964 L7.4088,280.399964 L9.2388,280.099964 L6.5988,275.629964 C8.1288,275.239964 9.0438,274.324964 9.0438,272.554964 C9.0438,270.199964 7.5138,269.149964 4.8888,269.149964 L0.9138,269.149964 L0.9138,280.249964 L2.7588,280.249964 Z M2.7588,270.859964 L4.7988,270.859964 C6.3888,270.859964 7.2138,271.294964 7.2138,272.524964 C7.2138,273.784964 6.3888,274.234964 4.7988,274.234964 L2.7588,274.234964 L2.7588,270.859964 Z M15.6238,280.459964 C18.2938,280.459964 20.6188,278.434964 20.6188,274.699964 C20.6188,270.964964 18.2938,268.939964 15.6238,268.939964 C12.9388,268.939964 10.6138,270.964964 10.6138,274.699964 C10.6138,278.434964 12.9388,280.459964 15.6238,280.459964 Z M15.6238,278.779964 C13.7488,278.779964 12.4888,277.219964 12.4888,274.699964 C12.4888,272.179964 13.7488,270.664964 15.6238,270.664964 C17.4988,270.664964 18.7588,272.179964 18.7588,274.699964 C18.7588,277.219964 17.4988,278.779964 15.6238,278.779964 Z M30.1088,280.249964 L30.1088,278.554964 L24.5138,278.554964 L24.5138,275.314964 L28.8338,275.314964 L28.5638,273.649964 L24.5138,273.649964 L24.5138,270.889964 L29.8088,270.889964 L29.8088,269.149964 L22.6388,269.149964 L22.6388,280.249964 L30.1088,280.249964 Z" id="ROE-"></path>
                    <path d="M39.2188,281.814964 C37.3438,280.104964 36.1438,277.809964 36.1438,275.154964 C36.1438,272.514964 37.3438,270.219964 39.2038,268.509964 L38.7388,267.984964 C36.2938,270.039964 35.0038,272.319964 35.0038,275.154964 C35.0038,278.004964 36.2938,280.269964 38.7388,282.324964 L39.2188,281.814964 Z M43.4588,274.659964 C45.0338,274.659964 45.9488,273.249964 45.9488,271.299964 C45.9488,269.289964 45.0038,267.999964 43.4738,267.999964 C41.9438,267.999964 40.9688,269.289964 40.9688,271.359964 C40.9688,273.309964 41.8538,274.659964 43.4588,274.659964 Z M44.4788,279.249964 L51.1088,268.149964 L50.1488,268.149964 L43.5188,279.249964 L44.4788,279.249964 Z M43.4738,273.849964 C42.4688,273.849964 41.9138,272.814964 41.9138,271.299964 C41.9138,269.904964 42.4538,268.809964 43.4588,268.809964 C44.4488,268.809964 45.0038,269.829964 45.0038,271.329964 C45.0038,272.739964 44.4638,273.849964 43.4738,273.849964 Z M51.1538,279.399964 C52.7438,279.399964 53.6588,277.989964 53.6588,276.054964 C53.6588,274.029964 52.7138,272.739964 51.1838,272.739964 C49.6538,272.739964 48.6638,274.044964 48.6638,276.099964 C48.6638,278.049964 49.5638,279.399964 51.1538,279.399964 Z M51.1688,278.589964 C50.1638,278.589964 49.6238,277.554964 49.6238,276.054964 C49.6238,274.644964 50.1488,273.549964 51.1538,273.549964 C52.1588,273.549964 52.6988,274.569964 52.6988,276.069964 C52.6988,277.479964 52.1738,278.589964 51.1688,278.589964 Z M55.8888,282.324964 C58.3338,280.269964 59.6388,278.004964 59.6388,275.154964 C59.6388,272.319964 58.3338,270.039964 55.8888,267.984964 L55.4238,268.509964 C57.2838,270.219964 58.4988,272.514964 58.4988,275.154964 C58.4988,277.809964 57.2838,280.104964 55.4238,281.814964 L55.8888,282.324964 Z" id="(%)"></path>
                    <path d="M383.5788,11.6149635 L383.5038,10.6549635 L377.5638,10.6549635 C377.6088,9.66496352 378.6288,8.44996352 380.6238,7.17496352 C382.7538,5.82496352 383.4888,4.86496352 383.4888,3.34996352 C383.4888,1.56496352 382.2438,0.304963522 380.2188,0.304963522 C378.6138,0.304963522 377.3688,1.14496352 376.6188,2.67496352 L377.4138,3.19996352 C378.0588,1.87996352 378.9438,1.24996352 380.1738,1.24996352 C381.6738,1.24996352 382.4538,2.13496352 382.4538,3.40996352 C382.4538,4.60996352 381.7788,5.37496352 380.1138,6.42496352 C377.1888,8.29996352 376.3938,9.76996352 376.3938,11.3749635 L376.3938,11.6149635 L383.5788,11.6149635 Z M389.2258,11.8249635 C391.8358,11.8249635 393.2758,9.52996352 393.2758,6.06496352 C393.2758,2.59996352 391.8358,0.304963522 389.2258,0.304963522 C386.6158,0.304963522 385.1458,2.59996352 385.1458,6.06496352 C385.1458,9.52996352 386.6158,11.8249635 389.2258,11.8249635 Z M389.2258,10.8799635 C387.3958,10.8799635 386.2108,9.19996352 386.2108,6.06496352 C386.2108,2.92996352 387.3358,1.24996352 389.2258,1.24996352 C391.0408,1.24996352 392.2258,2.92996352 392.2258,6.06496352 C392.2258,9.19996352 391.1008,10.8799635 389.2258,10.8799635 Z M398.4278,11.6149635 L398.4278,0.514963522 L397.4528,0.514963522 L395.1278,1.33996352 L395.2628,2.22496352 L397.3928,1.50496352 L397.3928,11.6149635 L398.4278,11.6149635 Z M405.1998,11.8249635 C407.4948,11.8249635 408.9198,10.2349635 408.9198,8.13496352 C408.9198,6.12496352 407.7948,4.66996352 405.4548,4.66996352 C404.0448,4.66996352 402.9948,5.38996352 402.2898,6.15496352 C402.2898,3.37996352 403.5498,1.23496352 405.6048,1.23496352 C406.5948,1.23496352 407.1348,1.50496352 407.7348,1.98496352 L408.2298,1.14496352 C407.6448,0.664963522 406.8648,0.304963522 405.6198,0.304963522 C403.0698,0.304963522 401.2548,2.83996352 401.2548,6.25996352 C401.2548,10.0699635 403.0398,11.8249635 405.1998,11.8249635 Z M405.2448,10.9099635 C403.7748,10.9099635 402.5598,9.76996352 402.3348,7.21996352 C403.0398,6.24496352 404.1048,5.58496352 405.3348,5.58496352 C407.1348,5.58496352 407.8848,6.67996352 407.8848,8.14996352 C407.8848,9.88996352 406.8198,10.9099635 405.2448,10.9099635 Z" id="2016"></path>
                </g>
                <path d="M27.9456,126.209656 C30.7716,126.209656 32.5176,124.211656 32.5176,121.547656 C32.5176,118.883656 30.8076,117.191656 28.3956,117.191656 C26.9736,117.191656 26.0916,117.677656 25.4436,118.433656 L25.8036,113.807656 L31.7616,113.807656 L31.7256,112.637656 L24.7416,112.637656 L24.2196,119.603656 L25.1736,119.963656 C25.8936,118.919656 26.8476,118.289656 28.2156,118.289656 C29.9796,118.289656 31.2576,119.477656 31.2576,121.601656 C31.2576,123.365656 30.2316,125.075656 27.9276,125.075656 C26.3256,125.075656 25.2096,124.229656 24.4176,123.023656 L23.5896,123.833656 C24.4716,125.237656 26.0196,126.209656 27.9456,126.209656 Z M35.1556,127.775656 L36.4156,124.265656 L34.8676,124.265656 L34.3996,127.775656 L35.1556,127.775656 Z M47.2796,125.957656 L47.1896,124.805656 L40.0616,124.805656 C40.1156,123.617656 41.3396,122.159656 43.7336,120.629656 C46.2896,119.009656 47.1716,117.857656 47.1716,116.039656 C47.1716,113.897656 45.6776,112.385656 43.2476,112.385656 C41.3216,112.385656 39.8276,113.393656 38.9276,115.229656 L39.8816,115.859656 C40.6556,114.275656 41.7176,113.519656 43.1936,113.519656 C44.9936,113.519656 45.9296,114.581656 45.9296,116.111656 C45.9296,117.551656 45.1196,118.469656 43.1216,119.729656 C39.6116,121.979656 38.6576,123.743656 38.6576,125.669656 L38.6576,125.957656 L47.2796,125.957656 Z" id="5,2" fill="#FFFFFF"></path>
                <g id="Group-22" transform="translate(302.000000, 0.941000)" fill="#FFFFFF">
                    <path d="M7.2448,11.6137635 L7.1698,10.6537635 L1.2298,10.6537635 C1.2748,9.66376352 2.2948,8.44876352 4.2898,7.17376352 C6.4198,5.82376352 7.1548,4.86376352 7.1548,3.34876352 C7.1548,1.56376352 5.9098,0.303763522 3.8848,0.303763522 C2.2798,0.303763522 1.0348,1.14376352 0.2848,2.67376352 L1.0798,3.19876352 C1.7248,1.87876352 2.6098,1.24876352 3.8398,1.24876352 C5.3398,1.24876352 6.1198,2.13376352 6.1198,3.40876352 C6.1198,4.60876352 5.4448,5.37376352 3.7798,6.42376352 C0.8548,8.29876352 0.0598,9.76876352 0.0598,11.3737635 L0.0598,11.6137635 L7.2448,11.6137635 Z M12.8918,11.8237635 C15.5018,11.8237635 16.9418,9.52876352 16.9418,6.06376352 C16.9418,2.59876352 15.5018,0.303763522 12.8918,0.303763522 C10.2818,0.303763522 8.8118,2.59876352 8.8118,6.06376352 C8.8118,9.52876352 10.2818,11.8237635 12.8918,11.8237635 Z M12.8918,10.8787635 C11.0618,10.8787635 9.8768,9.19876352 9.8768,6.06376352 C9.8768,2.92876352 11.0018,1.24876352 12.8918,1.24876352 C14.7068,1.24876352 15.8918,2.92876352 15.8918,6.06376352 C15.8918,9.19876352 14.7668,10.8787635 12.8918,10.8787635 Z M22.0938,11.6137635 L22.0938,0.513763522 L21.1188,0.513763522 L18.7938,1.33876352 L18.9288,2.22376352 L21.0588,1.50376352 L21.0588,11.6137635 L22.0938,11.6137635 Z M28.4908,11.8237635 C30.8458,11.8237635 32.3008,10.1587635 32.3008,7.93876352 C32.3008,5.71876352 30.8758,4.30876352 28.8658,4.30876352 C27.6808,4.30876352 26.9458,4.71376352 26.4058,5.34376352 L26.7058,1.48876352 L31.6708,1.48876352 L31.6408,0.513763522 L25.8208,0.513763522 L25.3858,6.31876352 L26.1808,6.61876352 C26.7808,5.74876352 27.5758,5.22376352 28.7158,5.22376352 C30.1858,5.22376352 31.2508,6.21376352 31.2508,7.98376352 C31.2508,9.45376352 30.3958,10.8787635 28.4758,10.8787635 C27.1408,10.8787635 26.2108,10.1737635 25.5508,9.16876352 L24.8608,9.84376352 C25.5958,11.0137635 26.8858,11.8237635 28.4908,11.8237635 Z" id="2015"></path>
                </g>
                <path d="M68.2982,98.3756562 C71.0522,98.3756562 72.7622,96.4676562 72.7622,93.9476562 C72.7622,91.5356562 71.4122,89.7896562 68.6042,89.7896562 C66.9122,89.7896562 65.6522,90.6536562 64.8062,91.5716562 C64.8062,88.2416562 66.3182,85.6676562 68.7842,85.6676562 C69.9722,85.6676562 70.6202,85.9916562 71.3402,86.5676562 L71.9342,85.5596562 C71.2322,84.9836562 70.2962,84.5516562 68.8022,84.5516562 C65.7422,84.5516562 63.5642,87.5936562 63.5642,91.6976562 C63.5642,96.2696562 65.7062,98.3756562 68.2982,98.3756562 Z M68.3522,97.2776562 C66.5882,97.2776562 65.1302,95.9096562 64.8602,92.8496562 C65.7062,91.6796562 66.9842,90.8876562 68.4602,90.8876562 C70.6202,90.8876562 71.5202,92.2016562 71.5202,93.9656562 C71.5202,96.0536562 70.2422,97.2776562 68.3522,97.2776562 Z M75.2202,99.9416562 L76.4802,96.4316562 L74.9322,96.4316562 L74.4642,99.9416562 L75.2202,99.9416562 Z M80.4502,98.1596562 L86.1022,85.9016562 L86.1022,84.8036562 L77.8762,84.8036562 L77.9662,85.9736562 L84.7702,85.9736562 L79.1722,98.0876562 L80.4502,98.1596562 Z" id="6,7" fill="#FFFFFF"></path>
                <path d="M179.4842,116.213656 C182.2382,116.213656 183.9482,114.305656 183.9482,111.785656 C183.9482,109.373656 182.5982,107.627656 179.7902,107.627656 C178.0982,107.627656 176.8382,108.491656 175.9922,109.409656 C175.9922,106.079656 177.5042,103.505656 179.9702,103.505656 C181.1582,103.505656 181.8062,103.829656 182.5262,104.405656 L183.1202,103.397656 C182.4182,102.821656 181.4822,102.389656 179.9882,102.389656 C176.9282,102.389656 174.7502,105.431656 174.7502,109.535656 C174.7502,114.107656 176.8922,116.213656 179.4842,116.213656 Z M179.5382,115.115656 C177.7742,115.115656 176.3162,113.747656 176.0462,110.687656 C176.8922,109.517656 178.1702,108.725656 179.6462,108.725656 C181.8062,108.725656 182.7062,110.039656 182.7062,111.803656 C182.7062,113.891656 181.4282,115.115656 179.5382,115.115656 Z M186.4062,117.779656 L187.6662,114.269656 L186.1182,114.269656 L185.6502,117.779656 L186.4062,117.779656 Z M196.3522,115.961656 L196.3522,112.739656 L198.6202,112.739656 L198.5662,111.605656 L196.3522,111.605656 L196.3522,102.641656 L194.7682,102.641656 L188.7022,111.785656 L188.7022,112.739656 L195.1102,112.739656 L195.1102,115.961656 L196.3522,115.961656 Z M195.0742,104.135656 L195.1102,104.135656 L195.1102,111.605656 L190.1422,111.605656 L195.0742,104.135656 Z" id="6,4" fill="#FFFFFF"></path>
                <path d="M201.0662,75.3896562 C204.0542,75.3896562 205.8002,73.7876562 205.8002,71.8976562 C205.8002,69.9536562 204.5042,68.9996562 202.2362,68.0096562 C204.1262,67.1636562 205.1882,66.3356562 205.1882,64.7516562 C205.1882,63.1136562 203.7302,61.5296562 201.0662,61.5296562 C198.4562,61.5296562 196.9262,63.1136562 196.9262,64.7516562 C196.9262,66.3716562 198.0242,67.2356562 199.8422,68.0456562 C197.6462,68.9996562 196.3142,70.0256562 196.3142,71.8976562 C196.3142,73.8236562 198.0602,75.3896562 201.0662,75.3896562 Z M201.1202,67.5236562 C199.0862,66.6416562 198.1682,66.0116562 198.1682,64.7516562 C198.1682,63.6896562 199.1582,62.6096562 201.0662,62.6096562 C203.0642,62.6096562 203.9462,63.7436562 203.9462,64.8056562 C203.9462,66.0476562 203.1182,66.6596562 201.1202,67.5236562 Z M201.0662,74.3096562 C199.0322,74.3096562 197.5742,73.2836562 197.5742,71.8256562 C197.5742,70.4036562 198.6362,69.5936562 200.9942,68.5496562 C203.2802,69.5036562 204.5402,70.3316562 204.5402,71.8256562 C204.5402,73.3376562 203.0822,74.3096562 201.0662,74.3096562 Z M208.3842,76.9376562 L209.6442,73.4276562 L208.0962,73.4276562 L207.6282,76.9376562 L208.3842,76.9376562 Z M220.5082,75.1196562 L220.4182,73.9676562 L213.2902,73.9676562 C213.3442,72.7796562 214.5682,71.3216562 216.9622,69.7916562 C219.5182,68.1716562 220.4002,67.0196562 220.4002,65.2016562 C220.4002,63.0596562 218.9062,61.5476562 216.4762,61.5476562 C214.5502,61.5476562 213.0562,62.5556562 212.1562,64.3916562 L213.1102,65.0216562 C213.8842,63.4376562 214.9462,62.6816562 216.4222,62.6816562 C218.2222,62.6816562 219.1582,63.7436562 219.1582,65.2736562 C219.1582,66.7136562 218.3482,67.6316562 216.3502,68.8916562 C212.8402,71.1416562 211.8862,72.9056562 211.8862,74.8316562 L211.8862,75.1196562 L220.5082,75.1196562 Z" id="8,2" fill="#FFFFFF"></path>
                <path d="M305.6822,201.209656 C308.8142,201.209656 310.5422,198.455656 310.5422,194.297656 C310.5422,190.139656 308.8142,187.385656 305.6822,187.385656 C302.5502,187.385656 300.7862,190.139656 300.7862,194.297656 C300.7862,198.455656 302.5502,201.209656 305.6822,201.209656 Z M305.6822,200.075656 C303.4862,200.075656 302.0642,198.059656 302.0642,194.297656 C302.0642,190.535656 303.4142,188.519656 305.6822,188.519656 C307.8602,188.519656 309.2822,190.535656 309.2822,194.297656 C309.2822,198.059656 307.9322,200.075656 305.6822,200.075656 Z M313.0002,202.775656 L314.2602,199.265656 L312.7122,199.265656 L312.2442,202.775656 L313.0002,202.775656 Z M322.9462,200.957656 L322.9462,197.735656 L325.2142,197.735656 L325.1602,196.601656 L322.9462,196.601656 L322.9462,187.637656 L321.3622,187.637656 L315.2962,196.781656 L315.2962,197.735656 L321.7042,197.735656 L321.7042,200.957656 L322.9462,200.957656 Z M321.6682,189.131656 L321.7042,189.131656 L321.7042,196.601656 L316.7362,196.601656 L321.6682,189.131656 Z M331.3262,201.209656 C334.0802,201.209656 335.7902,199.301656 335.7902,196.781656 C335.7902,194.369656 334.4402,192.623656 331.6322,192.623656 C329.9402,192.623656 328.6802,193.487656 327.8342,194.405656 C327.8342,191.075656 329.3462,188.501656 331.8122,188.501656 C333.0002,188.501656 333.6482,188.825656 334.3682,189.401656 L334.9622,188.393656 C334.2602,187.817656 333.3242,187.385656 331.8302,187.385656 C328.7702,187.385656 326.5922,190.427656 326.5922,194.531656 C326.5922,199.103656 328.7342,201.209656 331.3262,201.209656 Z M331.3802,200.111656 C329.6162,200.111656 328.1582,198.743656 327.8882,195.683656 C328.7342,194.513656 330.0122,193.721656 331.4882,193.721656 C333.6482,193.721656 334.5482,195.035656 334.5482,196.799656 C334.5482,198.887656 333.2702,200.111656 331.3802,200.111656 Z" id="0,46" fill="#FFFFFF"></path>
                <path d="M358.2422,198.383656 C361.3742,198.383656 363.1022,195.629656 363.1022,191.471656 C363.1022,187.313656 361.3742,184.559656 358.2422,184.559656 C355.1102,184.559656 353.3462,187.313656 353.3462,191.471656 C353.3462,195.629656 355.1102,198.383656 358.2422,198.383656 Z M358.2422,197.249656 C356.0462,197.249656 354.6242,195.233656 354.6242,191.471656 C354.6242,187.709656 355.9742,185.693656 358.2422,185.693656 C360.4202,185.693656 361.8422,187.709656 361.8422,191.471656 C361.8422,195.233656 360.4922,197.249656 358.2422,197.249656 Z M365.5602,199.949656 L366.8202,196.439656 L365.2722,196.439656 L364.8042,199.949656 L365.5602,199.949656 Z M373.2022,198.383656 C375.9562,198.383656 377.6662,196.475656 377.6662,193.955656 C377.6662,191.543656 376.3162,189.797656 373.5082,189.797656 C371.8162,189.797656 370.5562,190.661656 369.7102,191.579656 C369.7102,188.249656 371.2222,185.675656 373.6882,185.675656 C374.8762,185.675656 375.5242,185.999656 376.2442,186.575656 L376.8382,185.567656 C376.1362,184.991656 375.2002,184.559656 373.7062,184.559656 C370.6462,184.559656 368.4682,187.601656 368.4682,191.705656 C368.4682,196.277656 370.6102,198.383656 373.2022,198.383656 Z M373.2562,197.285656 C371.4922,197.285656 370.0342,195.917656 369.7642,192.857656 C370.6102,191.687656 371.8882,190.895656 373.3642,190.895656 C375.5242,190.895656 376.4242,192.209656 376.4242,193.973656 C376.4242,196.061656 375.1462,197.285656 373.2562,197.285656 Z M386.7122,198.131656 L386.7122,194.909656 L388.9802,194.909656 L388.9262,193.775656 L386.7122,193.775656 L386.7122,184.811656 L385.1282,184.811656 L379.0622,193.955656 L379.0622,194.909656 L385.4702,194.909656 L385.4702,198.131656 L386.7122,198.131656 Z M385.4342,186.305656 L385.4702,186.305656 L385.4702,193.775656 L380.5022,193.775656 L385.4342,186.305656 Z" id="0,64" fill="#FFFFFF"></path>
                <path d="M470.1302,195.215656 C473.2622,195.215656 474.9902,192.461656 474.9902,188.303656 C474.9902,184.145656 473.2622,181.391656 470.1302,181.391656 C466.9982,181.391656 465.2342,184.145656 465.2342,188.303656 C465.2342,192.461656 466.9982,195.215656 470.1302,195.215656 Z M470.1302,194.081656 C467.9342,194.081656 466.5122,192.065656 466.5122,188.303656 C466.5122,184.541656 467.8622,182.525656 470.1302,182.525656 C472.3082,182.525656 473.7302,184.541656 473.7302,188.303656 C473.7302,192.065656 472.3802,194.081656 470.1302,194.081656 Z M477.4482,196.781656 L478.7082,193.271656 L477.1602,193.271656 L476.6922,196.781656 L477.4482,196.781656 Z M485.2522,195.233656 C488.2402,195.233656 489.9862,193.631656 489.9862,191.741656 C489.9862,189.797656 488.6902,188.843656 486.4222,187.853656 C488.3122,187.007656 489.3742,186.179656 489.3742,184.595656 C489.3742,182.957656 487.9162,181.373656 485.2522,181.373656 C482.6422,181.373656 481.1122,182.957656 481.1122,184.595656 C481.1122,186.215656 482.2102,187.079656 484.0282,187.889656 C481.8322,188.843656 480.5002,189.869656 480.5002,191.741656 C480.5002,193.667656 482.2462,195.233656 485.2522,195.233656 Z M485.3062,187.367656 C483.2722,186.485656 482.3542,185.855656 482.3542,184.595656 C482.3542,183.533656 483.3442,182.453656 485.2522,182.453656 C487.2502,182.453656 488.1322,183.587656 488.1322,184.649656 C488.1322,185.891656 487.3042,186.503656 485.3062,187.367656 Z M485.2522,194.153656 C483.2182,194.153656 481.7602,193.127656 481.7602,191.669656 C481.7602,190.247656 482.8222,189.437656 485.1802,188.393656 C487.4662,189.347656 488.7262,190.175656 488.7262,191.669656 C488.7262,193.181656 487.2682,194.153656 485.2522,194.153656 Z M493.7942,194.999656 L499.4462,182.741656 L499.4462,181.643656 L491.2202,181.643656 L491.3102,182.813656 L498.1142,182.813656 L492.5162,194.927656 L493.7942,194.999656 Z" id="0,87" fill="#FFFFFF"></path>
                <path d="M518.2622,187.637656 L518.2622,174.317656 L517.0922,174.317656 L514.3022,175.307656 L514.4642,176.369656 L517.0202,175.505656 L517.0202,187.637656 L518.2622,187.637656 Z M523.0242,189.455656 L524.2842,185.945656 L522.7362,185.945656 L522.2682,189.455656 L523.0242,189.455656 Z M530.8462,187.637656 L530.8462,174.317656 L529.6762,174.317656 L526.8862,175.307656 L527.0482,176.369656 L529.6042,175.505656 L529.6042,187.637656 L530.8462,187.637656 Z M538.5242,181.553656 C536.3642,181.553656 535.4642,180.239656 535.4642,178.475656 C535.4642,176.387656 536.7242,175.181656 538.6322,175.181656 C540.3782,175.181656 541.8542,176.531656 542.1242,179.591656 C541.2782,180.761656 540.0002,181.553656 538.5242,181.553656 Z M538.2362,187.889656 C541.2422,187.889656 543.4022,184.847656 543.4022,180.743656 C543.4022,176.171656 541.2782,174.065656 538.6862,174.065656 C535.9322,174.065656 534.2222,175.973656 534.2222,178.493656 C534.2222,180.905656 535.5722,182.651656 538.3802,182.651656 C540.0722,182.651656 541.3142,181.787656 542.1602,180.869656 C542.1782,184.181656 540.6662,186.773656 538.2362,186.773656 C536.8682,186.773656 536.2022,186.377656 535.3742,185.693656 L534.7982,186.701656 C535.5542,187.367656 536.6162,187.889656 538.2362,187.889656 Z" id="1,19" fill="#FFFFFF"></path>
                <polygon id="Fill-23" fill="#2ECDCD" points="394.2333 4.273 389.6003 13.539 371.9913 13.539 376.6243 4.273"></polygon>
                <polygon id="Fill-24" fill="#2A86CA" points="294.0009 4.273 289.3679 13.539 271.7589 13.539 276.3919 4.273"></polygon>
                <polygon id="Fill-25" fill-opacity="0.2" fill="url(#linearGradient-1)" points="0 219.518 47.534 240.024 62.805 232.444 18.998 214.269"></polygon>
                <polygon id="Fill-27" fill="#2A86CA" points="46.862 240.4161 62.805 232.4441 62.805 147.7141 46.862 155.6081"></polygon>
                <polygon id="Fill-28" fill="#0064A8" points="46.862 155.608 62.806 147.636 46.897 141.261 30.953 149.233"></polygon>
                <polygon id="Fill-29" fill-opacity="0.2" fill="url(#linearGradient-1)" points="83.808 232.444 40.002 214.269 21.003 219.519 68.538 240.024"></polygon>
                <polygon id="Fill-31" fill="#2ECDCD" points="67.8654 240.4161 83.8084 232.4441 83.8084 122.3281 67.8654 130.1481"></polygon>
                <polygon id="Fill-32" fill="#0064A8" points="67.8654 130.1915 83.8094 122.2195 67.9004 115.8445 51.9564 123.8165"></polygon>
                <g id="Group-34" transform="translate(166.000000, 262.941000)">
                    <mask id="mask-3" fill="white">
                        <use xlink:href="#path-2"></use>
                    </mask>
                    <g id="Clip-33"></g>
                    <path d="M3.751,18.2499635 L3.751,13.8699635 L5.716,13.8699635 L8.401,18.3999635 L10.231,18.0999635 L7.591,13.6299635 C9.121,13.2399635 10.036,12.3249635 10.036,10.5549635 C10.036,8.19996352 8.506,7.14996352 5.881,7.14996352 L1.906,7.14996352 L1.906,18.2499635 L3.751,18.2499635 Z M3.751,8.85996352 L5.791,8.85996352 C7.381,8.85996352 8.206,9.29496352 8.206,10.5249635 C8.206,11.7849635 7.381,12.2349635 5.791,12.2349635 L3.751,12.2349635 L3.751,8.85996352 Z M16.616,18.4599635 C19.286,18.4599635 21.611,16.4349635 21.611,12.6999635 C21.611,8.96496352 19.286,6.93996352 16.616,6.93996352 C13.931,6.93996352 11.606,8.96496352 11.606,12.6999635 C11.606,16.4349635 13.931,18.4599635 16.616,18.4599635 Z M16.616,16.7799635 C14.741,16.7799635 13.481,15.2199635 13.481,12.6999635 C13.481,10.1799635 14.741,8.66496352 16.616,8.66496352 C18.491,8.66496352 19.751,10.1799635 19.751,12.6999635 C19.751,15.2199635 18.491,16.7799635 16.616,16.7799635 Z M27.546,18.2499635 L27.546,8.88996352 L31.101,8.88996352 L30.831,7.14996352 L22.251,7.14996352 L22.251,8.88996352 L25.671,8.88996352 L25.671,18.2499635 L27.546,18.2499635 Z M40.126,18.2499635 L40.126,16.5549635 L34.531,16.5549635 L34.531,13.3149635 L38.851,13.3149635 L38.581,11.6499635 L34.531,11.6499635 L34.531,8.88996352 L39.826,8.88996352 L39.826,7.14996352 L32.656,7.14996352 L32.656,18.2499635 L40.126,18.2499635 Z" id="ROTE-" fill="#FFFFFF" mask="url(#mask-3)"></path>
                    <path d="M50.111,19.8149635 C48.236,18.1049635 47.036,15.8099635 47.036,13.1549635 C47.036,10.5149635 48.236,8.21996352 50.096,6.50996352 L49.631,5.98496352 C47.186,8.03996352 45.896,10.3199635 45.896,13.1549635 C45.896,16.0049635 47.186,18.2699635 49.631,20.3249635 L50.111,19.8149635 Z M54.351,12.6599635 C55.926,12.6599635 56.841,11.2499635 56.841,9.29996352 C56.841,7.28996352 55.896,5.99996352 54.366,5.99996352 C52.836,5.99996352 51.861,7.28996352 51.861,9.35996352 C51.861,11.3099635 52.746,12.6599635 54.351,12.6599635 Z M55.371,17.2499635 L62.001,6.14996352 L61.041,6.14996352 L54.411,17.2499635 L55.371,17.2499635 Z M54.366,11.8499635 C53.361,11.8499635 52.806,10.8149635 52.806,9.29996352 C52.806,7.90496352 53.346,6.80996352 54.351,6.80996352 C55.341,6.80996352 55.896,7.82996352 55.896,9.32996352 C55.896,10.7399635 55.356,11.8499635 54.366,11.8499635 Z M62.046,17.3999635 C63.636,17.3999635 64.551,15.9899635 64.551,14.0549635 C64.551,12.0299635 63.606,10.7399635 62.076,10.7399635 C60.546,10.7399635 59.556,12.0449635 59.556,14.0999635 C59.556,16.0499635 60.456,17.3999635 62.046,17.3999635 Z M62.061,16.5899635 C61.056,16.5899635 60.516,15.5549635 60.516,14.0549635 C60.516,12.6449635 61.041,11.5499635 62.046,11.5499635 C63.051,11.5499635 63.591,12.5699635 63.591,14.0699635 C63.591,15.4799635 63.066,16.5899635 62.061,16.5899635 Z M66.781,20.3249635 C69.226,18.2699635 70.531,16.0049635 70.531,13.1549635 C70.531,10.3199635 69.226,8.03996352 66.781,5.98496352 L66.316,6.50996352 C68.176,8.21996352 69.391,10.5149635 69.391,13.1549635 C69.391,15.8099635 68.176,18.1049635 66.316,19.8149635 L66.781,20.3249635 Z" id="(%)" fill="#FFFFFF" mask="url(#mask-3)"></path>
                </g>
                <polygon id="Fill-35" fill-opacity="0.2" fill="url(#linearGradient-1)" points="202.798 232.444 158.991 214.269 139.992 219.519 187.527 240.024"></polygon>
                <polygon id="Fill-37" fill="#2A86CA" points="186.8544 240.4161 202.7974 232.4441 202.7974 168.7781 186.8544 156.7501"></polygon>
                <polygon id="Fill-38" fill="#0064A8" points="186.8544 149.5504 202.7984 141.5784 186.8894 135.2034 170.9454 143.1754"></polygon>
                <polygon id="Fill-39" fill="#2A86CA" points="186.8544 149.5504 186.8544 156.7504 202.7974 168.7784 202.7974 141.5784"></polygon>
                <polygon id="Fill-40" fill-opacity="0.2" fill="url(#linearGradient-1)" points="224.801 232.444 180.994 214.269 161.996 219.519 209.53 240.024"></polygon>
                <polygon id="Fill-42" fill="#2ECDCD" points="208.8578 240.4161 224.8008 232.4441 224.8008 148.7781 208.8578 156.7501"></polygon>
                <polygon id="Fill-43" fill="#0064A8" points="208.8578 105.5206 224.8018 97.5486 208.8928 91.1736 192.9488 99.1456"></polygon>
                <polygon id="Fill-44" fill="#2ECDCD" points="208.8578 105.5206 208.8578 156.7496 224.8008 148.7786 224.8008 97.5486"></polygon>
                <path d="M683.4241,74.5309562 C686.2501,74.5309562 687.9961,72.5329562 687.9961,69.8689562 C687.9961,67.2049562 686.2861,65.5129562 683.8741,65.5129562 C682.4521,65.5129562 681.5701,65.9989562 680.9221,66.7549562 L681.2821,62.1289562 L687.2401,62.1289562 L687.2041,60.9589562 L680.2201,60.9589562 L679.6981,67.9249562 L680.6521,68.2849562 C681.3721,67.2409562 682.3261,66.6109562 683.6941,66.6109562 C685.4581,66.6109562 686.7361,67.7989562 686.7361,69.9229562 C686.7361,71.6869562 685.7101,73.3969562 683.4061,73.3969562 C681.8041,73.3969562 680.6881,72.5509562 679.8961,71.3449562 L679.0681,72.1549562 C679.9501,73.5589562 681.4981,74.5309562 683.4241,74.5309562 Z M693.9821,74.2789562 L693.9821,60.9589562 L692.8121,60.9589562 L690.0221,61.9489562 L690.1841,63.0109562 L692.7401,62.1469562 L692.7401,74.2789562 L693.9821,74.2789562 Z M698.7441,76.0969562 L700.0041,72.5869562 L698.4561,72.5869562 L697.9881,76.0969562 L698.7441,76.0969562 Z M706.4941,68.1949562 C704.3341,68.1949562 703.4341,66.8809562 703.4341,65.1169562 C703.4341,63.0289562 704.6941,61.8229562 706.6021,61.8229562 C708.3481,61.8229562 709.8241,63.1729562 710.0941,66.2329562 C709.2481,67.4029562 707.9701,68.1949562 706.4941,68.1949562 Z M706.2061,74.5309562 C709.2121,74.5309562 711.3721,71.4889562 711.3721,67.3849562 C711.3721,62.8129562 709.2481,60.7069562 706.6561,60.7069562 C703.9021,60.7069562 702.1921,62.6149562 702.1921,65.1349562 C702.1921,67.5469562 703.5421,69.2929562 706.3501,69.2929562 C708.0421,69.2929562 709.2841,68.4289562 710.1301,67.5109562 C710.1481,70.8229562 708.6361,73.4149562 706.2061,73.4149562 C704.8381,73.4149562 704.1721,73.0189562 703.3441,72.3349562 L702.7681,73.3429562 C703.5241,74.0089562 704.5861,74.5309562 706.2061,74.5309562 Z" id="51,9" fill="#FFFFFF"></path>
                <path d="M610.4341,71.3089562 C613.2601,71.3089562 615.0061,69.3109562 615.0061,66.6469562 C615.0061,63.9829562 613.2961,62.2909562 610.8841,62.2909562 C609.4621,62.2909562 608.5801,62.7769562 607.9321,63.5329562 L608.2921,58.9069562 L614.2501,58.9069562 L614.2141,57.7369562 L607.2301,57.7369562 L606.7081,64.7029562 L607.6621,65.0629562 C608.3821,64.0189562 609.3361,63.3889562 610.7041,63.3889562 C612.4681,63.3889562 613.7461,64.5769562 613.7461,66.7009562 C613.7461,68.4649562 612.7201,70.1749562 610.4161,70.1749562 C608.8141,70.1749562 607.6981,69.3289562 606.9061,68.1229562 L606.0781,68.9329562 C606.9601,70.3369562 608.5081,71.3089562 610.4341,71.3089562 Z M625.2941,71.0569562 L625.2041,69.9049562 L618.0761,69.9049562 C618.1301,68.7169562 619.3541,67.2589562 621.7481,65.7289562 C624.3041,64.1089562 625.1861,62.9569562 625.1861,61.1389562 C625.1861,58.9969562 623.6921,57.4849562 621.2621,57.4849562 C619.3361,57.4849562 617.8421,58.4929562 616.9421,60.3289562 L617.8961,60.9589562 C618.6701,59.3749562 619.7321,58.6189562 621.2081,58.6189562 C623.0081,58.6189562 623.9441,59.6809562 623.9441,61.2109562 C623.9441,62.6509562 623.1341,63.5689562 621.1361,64.8289562 C617.6261,67.0789562 616.6721,68.8429562 616.6721,70.7689562 L616.6721,71.0569562 L625.2941,71.0569562 Z M628.5441,72.8749562 L629.8041,69.3649562 L628.2561,69.3649562 L627.7881,72.8749562 L628.5441,72.8749562 Z M636.3481,71.3089562 C639.4801,71.3089562 641.2081,68.5549562 641.2081,64.3969562 C641.2081,60.2389562 639.4801,57.4849562 636.3481,57.4849562 C633.2161,57.4849562 631.4521,60.2389562 631.4521,64.3969562 C631.4521,68.5549562 633.2161,71.3089562 636.3481,71.3089562 Z M636.3481,70.1749562 C634.1521,70.1749562 632.7301,68.1589562 632.7301,64.3969562 C632.7301,60.6349562 634.0801,58.6189562 636.3481,58.6189562 C638.5261,58.6189562 639.9481,60.6349562 639.9481,64.3969562 C639.9481,68.1589562 638.5981,70.1749562 636.3481,70.1749562 Z" id="52,0" fill="#FFFFFF"></path>
                <g id="Group-46" transform="translate(316.000000, 262.941000)">
                    <mask id="mask-5" fill="white">
                        <use xlink:href="#path-4"></use>
                    </mask>
                    <g id="Clip-45"></g>
                    <path d="M304.709,18.2499635 L304.709,16.5549635 L299.114,16.5549635 L299.114,13.3149635 L303.434,13.3149635 L303.164,11.6499635 L299.114,11.6499635 L299.114,8.88996352 L304.409,8.88996352 L304.409,7.14996352 L297.239,7.14996352 L297.239,18.2499635 L304.709,18.2499635 Z M308.454,18.2499635 L308.454,13.5249635 L312.489,13.5249635 L312.219,11.8599635 L308.454,11.8599635 L308.454,8.88996352 L313.569,8.88996352 L313.569,7.14996352 L306.579,7.14996352 L306.579,18.2499635 L308.454,18.2499635 Z M317.329,18.2499635 L317.329,7.14996352 L315.469,7.14996352 L315.469,18.2499635 L317.329,18.2499635 Z M324.389,18.4599635 C326.714,18.4599635 328.064,17.2749635 328.724,15.4449635 L327.104,14.7099635 C326.669,15.9549635 325.769,16.7799635 324.389,16.7799635 C322.454,16.7799635 321.344,15.2199635 321.344,12.6549635 C321.344,10.2249635 322.394,8.66496352 324.284,8.66496352 C325.619,8.66496352 326.429,9.41496352 326.864,10.4499635 L328.454,9.50496352 C327.689,7.85496352 326.384,6.93996352 324.284,6.93996352 C321.554,6.93996352 319.469,9.02496352 319.469,12.6699635 C319.469,16.4199635 321.524,18.4599635 324.389,18.4599635 Z M332.679,18.2499635 L332.679,7.14996352 L330.819,7.14996352 L330.819,18.2499635 L332.679,18.2499635 Z M342.829,18.2499635 L342.829,16.5549635 L337.234,16.5549635 L337.234,13.3149635 L341.554,13.3149635 L341.284,11.6499635 L337.234,11.6499635 L337.234,8.88996352 L342.529,8.88996352 L342.529,7.14996352 L335.359,7.14996352 L335.359,18.2499635 L342.829,18.2499635 Z M346.424,18.2499635 L346.424,10.1649635 L346.454,10.1649635 L351.914,18.2499635 L353.624,18.2499635 L353.624,7.14996352 L351.884,7.14996352 L351.884,15.0849635 L351.854,15.0849635 L346.604,7.14996352 L344.699,7.14996352 L344.699,18.2499635 L346.424,18.2499635 Z M360.549,18.4599635 C362.874,18.4599635 364.224,17.2749635 364.884,15.4449635 L363.264,14.7099635 C362.829,15.9549635 361.929,16.7799635 360.549,16.7799635 C358.614,16.7799635 357.504,15.2199635 357.504,12.6549635 C357.504,10.2249635 358.554,8.66496352 360.444,8.66496352 C361.779,8.66496352 362.589,9.41496352 363.024,10.4499635 L364.614,9.50496352 C363.849,7.85496352 362.544,6.93996352 360.444,6.93996352 C357.714,6.93996352 355.629,9.02496352 355.629,12.6699635 C355.629,16.4199635 357.684,18.4599635 360.549,18.4599635 Z M368.839,18.2499635 L368.839,7.14996352 L366.979,7.14996352 L366.979,18.2499635 L368.839,18.2499635 Z M372.374,18.2499635 L373.304,15.6099635 L377.519,15.6099635 L378.464,18.3999635 L380.279,18.0999635 L376.394,7.10496352 L374.564,7.10496352 L370.634,18.2499635 L372.374,18.2499635 Z M375.419,9.45996352 L375.449,9.45996352 L376.979,13.9599635 L373.859,13.9599635 L375.419,9.45996352 Z" id="EFICIENCIA-" fill="#FFFFFF" mask="url(#mask-5)"></path>
                    <path d="M391.524,19.8149635 C389.649,18.1049635 388.449,15.8099635 388.449,13.1549635 C388.449,10.5149635 389.649,8.21996352 391.509,6.50996352 L391.044,5.98496352 C388.599,8.03996352 387.309,10.3199635 387.309,13.1549635 C387.309,16.0049635 388.599,18.2699635 391.044,20.3249635 L391.524,19.8149635 Z M395.764,12.6599635 C397.339,12.6599635 398.254,11.2499635 398.254,9.29996352 C398.254,7.28996352 397.309,5.99996352 395.779,5.99996352 C394.249,5.99996352 393.274,7.28996352 393.274,9.35996352 C393.274,11.3099635 394.159,12.6599635 395.764,12.6599635 Z M396.784,17.2499635 L403.414,6.14996352 L402.454,6.14996352 L395.824,17.2499635 L396.784,17.2499635 Z M395.779,11.8499635 C394.774,11.8499635 394.219,10.8149635 394.219,9.29996352 C394.219,7.90496352 394.759,6.80996352 395.764,6.80996352 C396.754,6.80996352 397.309,7.82996352 397.309,9.32996352 C397.309,10.7399635 396.769,11.8499635 395.779,11.8499635 Z M403.459,17.3999635 C405.049,17.3999635 405.964,15.9899635 405.964,14.0549635 C405.964,12.0299635 405.019,10.7399635 403.489,10.7399635 C401.959,10.7399635 400.969,12.0449635 400.969,14.0999635 C400.969,16.0499635 401.869,17.3999635 403.459,17.3999635 Z M403.474,16.5899635 C402.469,16.5899635 401.929,15.5549635 401.929,14.0549635 C401.929,12.6449635 402.454,11.5499635 403.459,11.5499635 C404.464,11.5499635 405.004,12.5699635 405.004,14.0699635 C405.004,15.4799635 404.479,16.5899635 403.474,16.5899635 Z M408.194,20.3249635 C410.639,18.2699635 411.944,16.0049635 411.944,13.1549635 C411.944,10.3199635 410.639,8.03996352 408.194,5.98496352 L407.729,6.50996352 C409.589,8.21996352 410.804,10.5149635 410.804,13.1549635 C410.804,15.8099635 409.589,18.1049635 407.729,19.8149635 L408.194,20.3249635 Z" id="(%)" fill="#FFFFFF" mask="url(#mask-5)"></path>
                    <path d="M3.239,18.2499635 L3.239,13.8699635 L5.204,13.8699635 L7.889,18.3999635 L9.719,18.0999635 L7.079,13.6299635 C8.609,13.2399635 9.524,12.3249635 9.524,10.5549635 C9.524,8.19996352 7.994,7.14996352 5.369,7.14996352 L1.394,7.14996352 L1.394,18.2499635 L3.239,18.2499635 Z M3.239,8.85996352 L5.279,8.85996352 C6.869,8.85996352 7.694,9.29496352 7.694,10.5249635 C7.694,11.7849635 6.869,12.2349635 5.279,12.2349635 L3.239,12.2349635 L3.239,8.85996352 Z M16.104,18.4599635 C18.774,18.4599635 21.099,16.4349635 21.099,12.6999635 C21.099,8.96496352 18.774,6.93996352 16.104,6.93996352 C13.419,6.93996352 11.094,8.96496352 11.094,12.6999635 C11.094,16.4349635 13.419,18.4599635 16.104,18.4599635 Z M16.104,16.7799635 C14.229,16.7799635 12.969,15.2199635 12.969,12.6999635 C12.969,10.1799635 14.229,8.66496352 16.104,8.66496352 C17.979,8.66496352 19.239,10.1799635 19.239,12.6999635 C19.239,15.2199635 17.979,16.7799635 16.104,16.7799635 Z M23.374,18.2499635 L24.304,15.6099635 L28.519,15.6099635 L29.464,18.3999635 L31.279,18.0999635 L27.394,7.10496352 L25.564,7.10496352 L21.634,18.2499635 L23.374,18.2499635 Z M26.419,9.45996352 L26.449,9.45996352 L27.979,13.9599635 L24.859,13.9599635 L26.419,9.45996352 Z" id="ROA-" fill="#FFFFFF" mask="url(#mask-5)"></path>
                    <path d="M40.824,19.8149635 C38.949,18.1049635 37.749,15.8099635 37.749,13.1549635 C37.749,10.5149635 38.949,8.21996352 40.809,6.50996352 L40.344,5.98496352 C37.899,8.03996352 36.609,10.3199635 36.609,13.1549635 C36.609,16.0049635 37.899,18.2699635 40.344,20.3249635 L40.824,19.8149635 Z M45.064,12.6599635 C46.639,12.6599635 47.554,11.2499635 47.554,9.29996352 C47.554,7.28996352 46.609,5.99996352 45.079,5.99996352 C43.549,5.99996352 42.574,7.28996352 42.574,9.35996352 C42.574,11.3099635 43.459,12.6599635 45.064,12.6599635 Z M46.084,17.2499635 L52.714,6.14996352 L51.754,6.14996352 L45.124,17.2499635 L46.084,17.2499635 Z M45.079,11.8499635 C44.074,11.8499635 43.519,10.8149635 43.519,9.29996352 C43.519,7.90496352 44.059,6.80996352 45.064,6.80996352 C46.054,6.80996352 46.609,7.82996352 46.609,9.32996352 C46.609,10.7399635 46.069,11.8499635 45.079,11.8499635 Z M52.759,17.3999635 C54.349,17.3999635 55.264,15.9899635 55.264,14.0549635 C55.264,12.0299635 54.319,10.7399635 52.789,10.7399635 C51.259,10.7399635 50.269,12.0449635 50.269,14.0999635 C50.269,16.0499635 51.169,17.3999635 52.759,17.3999635 Z M52.774,16.5899635 C51.769,16.5899635 51.229,15.5549635 51.229,14.0549635 C51.229,12.6449635 51.754,11.5499635 52.759,11.5499635 C53.764,11.5499635 54.304,12.5699635 54.304,14.0699635 C54.304,15.4799635 53.779,16.5899635 52.774,16.5899635 Z M57.494,20.3249635 C59.939,18.2699635 61.244,16.0049635 61.244,13.1549635 C61.244,10.3199635 59.939,8.03996352 57.494,5.98496352 L57.029,6.50996352 C58.889,8.21996352 60.104,10.5149635 60.104,13.1549635 C60.104,15.8099635 58.889,18.1049635 57.029,19.8149635 L57.494,20.3249635 Z" id="(%)" fill="#FFFFFF" mask="url(#mask-5)"></path>
                </g>
                <polygon id="Fill-47" fill-opacity="0.2" fill="url(#linearGradient-1)" points="352.282 232.444 308.475 214.269 289.477 219.519 337.012 240.024"></polygon>
                <polygon id="Fill-49" fill="#2A86CA" points="336.339 240.4161 352.282 232.4441 352.282 225.4221 336.339 233.1721"></polygon>
                <polygon id="Fill-50" fill="#0064A8" points="336.339 233.2222 352.283 225.2502 336.374 218.8752 320.43 226.8472"></polygon>
                <g id="Group-52" transform="translate(470.000000, 262.941000)">
                    <mask id="mask-7" fill="white">
                        <use xlink:href="#path-6"></use>
                    </mask>
                    <g id="Clip-51"></g>
                    <path d="M3.228,18.2499635 L3.228,13.8699635 L5.193,13.8699635 L7.878,18.3999635 L9.708,18.0999635 L7.068,13.6299635 C8.598,13.2399635 9.513,12.3249635 9.513,10.5549635 C9.513,8.19996352 7.983,7.14996352 5.358,7.14996352 L1.383,7.14996352 L1.383,18.2499635 L3.228,18.2499635 Z M3.228,8.85996352 L5.268,8.85996352 C6.858,8.85996352 7.683,9.29496352 7.683,10.5249635 C7.683,11.7849635 6.858,12.2349635 5.268,12.2349635 L3.228,12.2349635 L3.228,8.85996352 Z M16.093,18.4599635 C18.763,18.4599635 21.088,16.4349635 21.088,12.6999635 C21.088,8.96496352 18.763,6.93996352 16.093,6.93996352 C13.408,6.93996352 11.083,8.96496352 11.083,12.6999635 C11.083,16.4349635 13.408,18.4599635 16.093,18.4599635 Z M16.093,16.7799635 C14.218,16.7799635 12.958,15.2199635 12.958,12.6999635 C12.958,10.1799635 14.218,8.66496352 16.093,8.66496352 C17.968,8.66496352 19.228,10.1799635 19.228,12.6999635 C19.228,15.2199635 17.968,16.7799635 16.093,16.7799635 Z M24.953,18.2499635 L24.953,13.8699635 L26.918,13.8699635 L29.603,18.3999635 L31.433,18.0999635 L28.793,13.6299635 C30.323,13.2399635 31.238,12.3249635 31.238,10.5549635 C31.238,8.19996352 29.708,7.14996352 27.083,7.14996352 L23.108,7.14996352 L23.108,18.2499635 L24.953,18.2499635 Z M24.953,8.85996352 L26.993,8.85996352 C28.583,8.85996352 29.408,9.29496352 29.408,10.5249635 C29.408,11.7849635 28.583,12.2349635 26.993,12.2349635 L24.953,12.2349635 L24.953,8.85996352 Z M36.978,18.2499635 L39.063,9.72996352 L39.093,9.72996352 L41.103,18.2499635 L42.738,18.2499635 L45.648,7.14996352 L43.908,7.14996352 L42.528,12.9999635 C42.303,13.9299635 42.138,14.5299635 41.973,15.4749635 L41.943,15.4749635 C41.793,14.5599635 41.598,13.8849635 41.373,12.9549635 L39.978,7.14996352 L38.193,7.14996352 L36.858,12.9099635 C36.633,13.7949635 36.423,14.6349635 36.288,15.4749635 L36.258,15.4749635 C36.108,14.6049635 35.898,13.7949635 35.658,12.8949635 L34.218,6.99996352 L32.403,7.29996352 L35.328,18.2499635 L36.978,18.2499635 Z M47.473,18.2499635 L48.403,15.6099635 L52.618,15.6099635 L53.563,18.3999635 L55.378,18.0999635 L51.493,7.10496352 L49.663,7.10496352 L45.733,18.2499635 L47.473,18.2499635 Z M50.518,9.45996352 L50.548,9.45996352 L52.078,13.9599635 L48.958,13.9599635 L50.518,9.45996352 Z" id="RORWA-" fill="#FFFFFF" mask="url(#mask-7)"></path>
                    <path d="M66.073,19.8149635 C64.198,18.1049635 62.998,15.8099635 62.998,13.1549635 C62.998,10.5149635 64.198,8.21996352 66.058,6.50996352 L65.593,5.98496352 C63.148,8.03996352 61.858,10.3199635 61.858,13.1549635 C61.858,16.0049635 63.148,18.2699635 65.593,20.3249635 L66.073,19.8149635 Z M70.313,12.6599635 C71.888,12.6599635 72.803,11.2499635 72.803,9.29996352 C72.803,7.28996352 71.858,5.99996352 70.328,5.99996352 C68.798,5.99996352 67.823,7.28996352 67.823,9.35996352 C67.823,11.3099635 68.708,12.6599635 70.313,12.6599635 Z M71.333,17.2499635 L77.963,6.14996352 L77.003,6.14996352 L70.373,17.2499635 L71.333,17.2499635 Z M70.328,11.8499635 C69.323,11.8499635 68.768,10.8149635 68.768,9.29996352 C68.768,7.90496352 69.308,6.80996352 70.313,6.80996352 C71.303,6.80996352 71.858,7.82996352 71.858,9.32996352 C71.858,10.7399635 71.318,11.8499635 70.328,11.8499635 Z M78.008,17.3999635 C79.598,17.3999635 80.513,15.9899635 80.513,14.0549635 C80.513,12.0299635 79.568,10.7399635 78.038,10.7399635 C76.508,10.7399635 75.518,12.0449635 75.518,14.0999635 C75.518,16.0499635 76.418,17.3999635 78.008,17.3999635 Z M78.023,16.5899635 C77.018,16.5899635 76.478,15.5549635 76.478,14.0549635 C76.478,12.6449635 77.003,11.5499635 78.008,11.5499635 C79.013,11.5499635 79.553,12.5699635 79.553,14.0699635 C79.553,15.4799635 79.028,16.5899635 78.023,16.5899635 Z M82.743,20.3249635 C85.188,18.2699635 86.493,16.0049635 86.493,13.1549635 C86.493,10.3199635 85.188,8.03996352 82.743,5.98496352 L82.278,6.50996352 C84.138,8.21996352 85.353,10.5149635 85.353,13.1549635 C85.353,15.8099635 84.138,18.1049635 82.278,19.8149635 L82.743,20.3249635 Z" id="(%)" fill="#FFFFFF" mask="url(#mask-7)"></path>
                </g>
                <polygon id="Fill-53" fill-opacity="0.2" fill="url(#linearGradient-1)" points="512.524 232.444 468.718 214.269 449.719 219.519 497.254 240.024"></polygon>
                <polygon id="Fill-55" fill="#2A86CA" points="496.5812 240.4161 512.5242 232.4441 512.5242 218.3781 496.5812 226.2971"></polygon>
                <polygon id="Fill-56" fill="#0064A8" points="496.5812 226.3472 512.5252 218.3752 496.6162 212.0002 480.6722 219.9722"></polygon>
            </g>
        </g>
    </g>
</svg>