<?xml version="1.0" encoding="utf-8"?>
<!-- Generator: Adobe Illustrator 21.0.0, SVG Export Plug-In . SVG Version: 6.00 Build 0)  -->
<!DOCTYPE svg PUBLIC "-//W3C//DTD SVG 1.1//EN" "http://www.w3.org/Graphics/SVG/1.1/DTD/svg11.dtd">
<svg version="1.1" id="Capa_1" xmlns="http://www.w3.org/2000/svg" xmlns:xlink="http://www.w3.org/1999/xlink" x="0px" y="0px"
	 viewBox="0 0 247 281" style="enable-background:new 0 0 247 281;" xml:space="preserve">
<style type="text/css">
	.st0{fill:none;}
	.st1{enable-background:new    ;}
	.st2{fill:#121212;}
	.st3{fill:#666666;}
	.st4{fill:#FF555F;}
	.st5{fill:#2ECDCD;}
	.st6{fill:url(#SVGID_1_);}
	.st7{fill:url(#SVGID_2_);}
	.st8{fill:url(#SVGID_3_);}
	.st9{fill:url(#SVGID_4_);}
	.st10{fill:#FFFFFF;}
	.st11{fill:#F2F2F2;}
	.st12{fill:#F25E61;}
</style>
<g>
	<line class="st0" x1="354.1" y1="285.9" x2="354.1" y2="288.9"/>
</g>
<g>
	<line class="st0" x1="354.1" y1="285.9" x2="354.1" y2="288.9"/>
</g>
<g class="st1">
	<path class="st2" d="M86.5,81.7c0-3.5,1.5-5.8,4.1-5.8s4,2.3,4,5.8s-1.4,5.8-4,5.8S86.5,85.2,86.5,81.7z M93.5,81.7
		c0-3.1-1.2-4.8-3-4.8c-1.9,0-3,1.7-3,4.8s1.2,4.8,3,4.8C92.4,86.5,93.5,84.9,93.5,81.7z"/>
	<path class="st2" d="M96,88.8l0.4-2.9h1.3l-1,2.9H96z"/>
	<path class="st2" d="M99.1,81.7c0-3.5,1.5-5.8,4.1-5.8s4,2.3,4,5.8s-1.4,5.8-4,5.8S99.1,85.2,99.1,81.7z M106.2,81.7
		c0-3.1-1.2-4.8-3-4.8c-1.9,0-3,1.7-3,4.8s1.2,4.8,3,4.8S106.2,84.9,106.2,81.7z"/>
	<path class="st2" d="M108.7,84.6c0-1.6,1.1-2.4,2.9-3.2c-1.5-0.7-2.4-1.4-2.4-2.7c0-1.4,1.3-2.7,3.4-2.7c2.2,0,3.4,1.3,3.4,2.7
		c0,1.3-0.9,2-2.5,2.7c1.9,0.8,3,1.6,3,3.2s-1.5,2.9-3.9,2.9C110.1,87.5,108.7,86.2,108.7,84.6z M115.5,84.5c0-1.2-1-1.9-3-2.7
		c-2,0.9-2.9,1.5-2.9,2.7s1.2,2.1,2.9,2.1C114.3,86.6,115.5,85.8,115.5,84.5z M115,78.7c0-0.9-0.7-1.8-2.4-1.8
		c-1.6,0-2.4,0.9-2.4,1.8c0,1,0.8,1.6,2.5,2.3C114.3,80.2,115,79.7,115,78.7z"/>
</g>
<g>
	<g class="st1">
		<path class="st2" d="M22.4,49.1c0-3.5,1.5-5.8,4.1-5.8s4,2.3,4,5.8s-1.4,5.8-4,5.8S22.4,52.5,22.4,49.1z M29.5,49.1
			c0-3.1-1.2-4.8-3-4.8c-1.9,0-3,1.7-3,4.8s1.2,4.8,3,4.8C28.4,53.9,29.5,52.2,29.5,49.1z"/>
		<path class="st2" d="M32,56.1l0.4-2.9h1.3l-1,2.9H32z"/>
		<path class="st2" d="M38.1,54.6V44.5L36,45.2l-0.1-0.9l2.3-0.8h1v11.1H38.1z"/>
		<path class="st2" d="M42,54.6v-0.2c0-1.6,0.8-3.1,3.7-4.9c1.7-1.1,2.3-1.8,2.3-3c0-1.3-0.8-2.2-2.3-2.2c-1.2,0-2.1,0.6-2.8,1.9
			l-0.8-0.5c0.8-1.5,2-2.4,3.6-2.4c2,0,3.3,1.3,3.3,3c0,1.5-0.7,2.5-2.9,3.8c-2,1.3-3,2.5-3.1,3.5h5.9l0.1,1
			C49,54.6,42,54.6,42,54.6z"/>
		<path class="st2" d="M51.3,53.8l0.5-0.8c0.7,0.6,1.2,0.9,2.4,0.9c2,0,3.3-2.2,3.3-4.9c-0.7,0.8-1.7,1.5-3.1,1.5
			c-2.3,0-3.5-1.5-3.5-3.5c0-2.1,1.4-3.7,3.7-3.7c2.2,0,3.9,1.8,3.9,5.6c0,3.4-1.8,6-4.3,6C52.8,54.8,51.9,54.4,51.3,53.8z
			 M57.4,47.9c-0.2-2.5-1.5-3.7-2.9-3.7c-1.6,0-2.6,1-2.6,2.7c0,1.5,0.8,2.6,2.5,2.6C55.6,49.6,56.7,48.9,57.4,47.9z"/>
	</g>
</g>
<g>
	<g class="st1">
		<path class="st3" d="M22.3,221.7l2.6-7.4h0.8l2.6,7.4l-0.7,0.1l-0.8-2.3h-3l-0.8,2.3h-0.7V221.7z M24,218.7h2.6l-1.3-3.7l0,0
			L24,218.7z"/>
		<path class="st3" d="M30.6,221.7v-7.4h2.6c1.7,0,2.5,0.7,2.5,1.9c0,1-0.6,1.5-1.4,1.7l0,0c0.9,0.2,1.6,0.7,1.6,1.8
			c0,1.2-0.8,2-2.5,2H30.6z M31.3,217.5h1.8c1.2,0,1.9-0.4,1.9-1.3c0-0.9-0.6-1.3-1.8-1.3h-1.8v2.6H31.3z M31.3,221h2.1
			c1.3,0,1.8-0.5,1.8-1.4c0-1-0.8-1.4-2.1-1.4h-1.9v2.8H31.3z"/>
		<path class="st3" d="M38.5,221.7v-7.4H41c1.6,0,2.6,0.7,2.6,2c0,1.2-0.7,1.8-1.8,2l1.9,3.3l-0.7,0.1l-1.9-3.4h-1.8v3.3L38.5,221.7
			L38.5,221.7z M39.2,217.7h1.7c1.2,0,1.9-0.4,1.9-1.4s-0.7-1.4-1.9-1.4h-1.7V217.7z"/>
		<path class="st3" d="M45.9,218.8v-0.6h2.2v0.6H45.9z"/>
		<path class="st3" d="M51.5,221.7V215l-1.4,0.5l-0.1-0.6l1.5-0.5h0.6v7.4L51.5,221.7L51.5,221.7z"/>
		<path class="st3" d="M55.1,218.1c0-2.3,1.2-4,2.9-4c0.8,0,1.3,0.2,1.7,0.6l-0.3,0.6c-0.4-0.3-0.8-0.5-1.4-0.5
			c-1.4,0-2.2,1.4-2.2,3.3c0.5-0.5,1.2-1,2.1-1c1.6,0,2.3,1,2.3,2.3c0,1.4-0.9,2.5-2.5,2.5C56.3,221.8,55.1,220.6,55.1,218.1z
			 M59.5,219.3c0-1-0.5-1.7-1.7-1.7c-0.8,0-1.5,0.4-2,1.1c0.1,1.7,1,2.5,1.9,2.5C58.8,221.2,59.5,220.5,59.5,219.3z"/>
	</g>
</g>
<g>
	<g class="st1">
		<path class="st3" d="M84.8,221l0.4-0.5c0.3,0.4,0.7,0.7,1.3,0.7c0.7,0,1.2-0.4,1.2-1.5v-5.4h0.7v5.4c0,1.4-0.7,2.1-1.9,2.1
			C85.7,221.8,85.1,221.5,84.8,221z"/>
		<path class="st3" d="M91.2,219.2v-4.9h0.7v4.8c0,1.2,0.6,2.1,2,2.1s2-0.9,2-2.1v-4.8h0.7v4.9c0,1.5-0.9,2.7-2.7,2.7
			C92.1,221.8,91.2,220.6,91.2,219.2z"/>
		<path class="st3" d="M99.4,221.7v-7.4h0.7v6.7h3.6l0.1,0.6L99.4,221.7L99.4,221.7z"/>
		<path class="st3" d="M105.1,218.8v-0.6h2.2v0.6H105.1z"/>
		<path class="st3" d="M110.7,221.7V215l-1.4,0.5l-0.1-0.6l1.5-0.5h0.6v7.4L110.7,221.7L110.7,221.7z"/>
		<path class="st3" d="M114.2,218.1c0-2.3,1.2-4,2.9-4c0.8,0,1.3,0.2,1.7,0.6l-0.3,0.6c-0.4-0.3-0.8-0.5-1.4-0.5
			c-1.4,0-2.2,1.4-2.2,3.3c0.5-0.5,1.2-1,2.1-1c1.6,0,2.3,1,2.3,2.3c0,1.4-0.9,2.5-2.5,2.5C115.4,221.8,114.2,220.6,114.2,218.1z
			 M118.7,219.3c0-1-0.5-1.7-1.7-1.7c-0.8,0-1.5,0.4-2,1.1c0.1,1.7,1,2.5,1.9,2.5C118,221.2,118.7,220.5,118.7,219.3z"/>
	</g>
</g>
<g>
	<g class="st1">
		<path class="st3" d="M144.6,218c0-2.3,1.3-3.8,3.1-3.8s3.1,1.5,3.1,3.8s-1.3,3.8-3.1,3.8C146,221.8,144.6,220.3,144.6,218z
			 M150.2,218c0-2-1-3.2-2.4-3.2s-2.4,1.2-2.4,3.2s1,3.2,2.4,3.2S150.2,220,150.2,218z"/>
		<path class="st3" d="M153.1,217.9c0-2.2,1.2-3.8,3.1-3.8c1.3,0,2.1,0.6,2.5,1.6l-0.6,0.3c-0.4-0.8-0.9-1.3-1.9-1.3
			c-1.4,0-2.3,1.3-2.3,3.1c0,2,0.9,3.2,2.4,3.2c1,0,1.7-0.5,2.1-1.5l0.6,0.3c-0.4,1.1-1.3,1.8-2.7,1.8
			C154.3,221.8,153.1,220.3,153.1,217.9z"/>
		<path class="st3" d="M162.9,221.7V215h-2.4v-0.7h5.4l0.1,0.7h-2.4v6.7H162.9z"/>
		<path class="st3" d="M167,218.8v-0.6h2.2v0.6H167z"/>
		<path class="st3" d="M172.6,221.7V215l-1.4,0.5l-0.1-0.6l1.5-0.5h0.6v7.4L172.6,221.7L172.6,221.7z"/>
		<path class="st3" d="M176.1,218.1c0-2.3,1.2-4,2.9-4c0.8,0,1.3,0.2,1.7,0.6l-0.3,0.6c-0.4-0.3-0.8-0.5-1.4-0.5
			c-1.4,0-2.2,1.4-2.2,3.3c0.5-0.5,1.2-1,2.1-1c1.6,0,2.3,1,2.3,2.3c0,1.4-0.9,2.5-2.5,2.5C177.3,221.8,176.1,220.6,176.1,218.1z
			 M180.6,219.3c0-1-0.5-1.7-1.7-1.7c-0.8,0-1.5,0.4-2,1.1c0.1,1.7,1,2.5,1.9,2.5C179.9,221.2,180.6,220.5,180.6,219.3z"/>
	</g>
</g>
<g>
	<g class="st1">
		<path class="st3" d="M206.9,221.7v-7.4h4.4v0.7h-3.7v2.5h2.8l0.1,0.6h-2.9v2.9h3.9v0.6L206.9,221.7L206.9,221.7z"/>
		<path class="st3" d="M214,221.7v-7.4h0.8l4.1,6.1l0,0v-6.1h0.7v7.4H219l-4.2-6.3l0,0v6.3H214z"/>
		<path class="st3" d="M222.4,221.7v-7.4h4.4v0.7h-3.7v2.5h2.8l0.1,0.6h-2.9v2.9h3.9v0.6L222.4,221.7L222.4,221.7z"/>
		<path class="st3" d="M228.9,218.8v-0.6h2.2v0.6H228.9z"/>
		<path class="st3" d="M234.5,221.7V215l-1.4,0.5l-0.1-0.6l1.5-0.5h0.6v7.4L234.5,221.7L234.5,221.7z"/>
		<path class="st3" d="M238.6,221.6l3.1-6.7h-3.8v-0.6h4.6v0.6l-3.1,6.8L238.6,221.6z"/>
	</g>
</g>
<g>
	<g>
		<g>
			<g class="st1">
				<path class="st3" d="M193.8,274.3v-9.6h5.7v0.9h-4.8v3.3h3.6l0.1,0.8h-3.7v3.8h5.1v0.8L193.8,274.3L193.8,274.3z"/>
				<path class="st3" d="M201.9,274.3v-6.1h-1.2v-0.8h1.2v-1c0-1.2,0.7-1.8,2-1.8c0.1,0,0.4,0,0.5,0l0.1,0.7c-0.1,0-0.4,0-0.5,0
					c-0.7,0-1.1,0.2-1.1,1v1.1h1.5v0.8h-1.5v6.1L201.9,274.3L201.9,274.3z"/>
				<path class="st3" d="M205.1,270.9c0-2.4,1.6-3.5,3-3.5c1.6,0,2.8,1.2,2.8,3.6v0.2H206c0,1.7,1,2.6,2.2,2.6c0.9,0,1.6-0.4,2.2-1
					l0.4,0.6c-0.8,0.8-1.5,1.2-2.7,1.2C206.5,274.5,205.1,273.2,205.1,270.9z M210,270.4c-0.1-1.3-0.7-2.3-1.9-2.3
					c-1,0-1.9,0.7-2.1,2.3H210z"/>
				<path class="st3" d="M212.2,270.9c0-2.5,1.5-3.6,3.1-3.6c1.2,0,2.1,0.7,2.5,1.6l-0.7,0.4c-0.4-0.8-0.9-1.3-1.8-1.3
					c-1,0-2.1,0.8-2.1,2.8c0,1.8,0.9,2.8,2.1,2.8c0.9,0,1.5-0.5,1.9-1.3l0.7,0.4c-0.6,1.1-1.4,1.7-2.6,1.7
					C213.6,274.5,212.2,273.2,212.2,270.9z"/>
				<path class="st3" d="M219.9,272.7v-4.5h-1.2v-0.8h1.2V265l0.9-0.1v2.5h1.8v0.8h-1.8v4.3c0,0.7,0.3,1.1,1.1,1.1
					c0.2,0,0.5,0,0.7-0.1l0.1,0.8c-0.2,0-0.6,0.1-0.9,0.1C220.5,274.4,219.9,273.9,219.9,272.7z"/>
				<path class="st3" d="M224.2,265.4c0-0.3,0.2-0.5,0.5-0.5s0.5,0.2,0.5,0.5c0,0.4-0.2,0.6-0.5,0.6S224.2,265.7,224.2,265.4z
					 M224.3,274.3v-6.8h0.9v6.8H224.3z"/>
				<path class="st3" d="M229.2,274.3l-2.5-6.8l0.9-0.2l2.1,5.9l0,0l2-5.8h0.9l-2.5,6.9H229.2z"/>
				<path class="st3" d="M233.2,270.9c0-2.3,1.4-3.6,3.1-3.6c1.7,0,3.1,1.3,3.1,3.6c0,2.3-1.4,3.6-3.1,3.6S233.2,273.2,233.2,270.9z
					 M238.5,270.9c0-1.5-0.8-2.8-2.2-2.8s-2.2,1.2-2.2,2.8c0,1.5,0.7,2.8,2.2,2.8C237.7,273.7,238.5,272.5,238.5,270.9z"/>
			</g>
		</g>
		<g>
			<polygon class="st4" points="170.7,275 180.4,275 185.2,265.3 175.5,265.3 			"/>
		</g>
	</g>
	<g>
		<g>
			<g class="st1">
				<path class="st3" d="M27.4,274.3v-9.6h2.4c3.1,0,4.8,1.6,4.8,4.8s-1.7,4.8-4.8,4.8L27.4,274.3L27.4,274.3z M28.3,273.5H30
					c2.4,0,3.7-1.2,3.7-4c0-2.7-1.3-4-3.7-4h-1.6v8H28.3z"/>
				<path class="st3" d="M36.4,265.4c0-0.3,0.2-0.5,0.5-0.5s0.5,0.2,0.5,0.5c0,0.4-0.2,0.6-0.5,0.6S36.4,265.7,36.4,265.4z
					 M36.5,274.3v-6.8h0.9v6.8H36.5z"/>
				<path class="st3" d="M41.4,274.3l-2.5-6.8l0.9-0.2l2.1,5.9l0,0l2-5.8h0.9l-2.5,6.9H41.4z"/>
				<path class="st3" d="M46.1,265.4c0-0.3,0.2-0.5,0.5-0.5s0.5,0.2,0.5,0.5c0,0.4-0.2,0.6-0.5,0.6S46.1,265.7,46.1,265.4z
					 M46.2,274.3v-6.8h0.9v6.8H46.2z"/>
				<path class="st3" d="M48.9,270.9c0-2.4,1.3-3.6,2.8-3.6c0.9,0,1.7,0.5,2.3,1.1v-3.7l0.9-0.1v9.7h-0.8l-0.1-1
					c-0.5,0.6-1.3,1.1-2.3,1.1C50.2,274.4,48.9,273.3,48.9,270.9z M54,272.5v-3.3c-0.7-0.7-1.3-1.1-2.2-1.1c-1.1,0-2.1,0.9-2.1,2.8
					s0.9,2.8,2.1,2.8C52.7,273.7,53.3,273.2,54,272.5z"/>
				<path class="st3" d="M56.6,270.9c0-2.4,1.6-3.5,3-3.5c1.6,0,2.8,1.2,2.8,3.6v0.2h-4.9c0,1.7,1,2.6,2.2,2.6c0.9,0,1.6-0.4,2.2-1
					l0.4,0.6c-0.8,0.8-1.5,1.2-2.7,1.2C58,274.5,56.6,273.2,56.6,270.9z M61.5,270.4c-0.1-1.3-0.7-2.3-1.9-2.3c-1,0-1.9,0.7-2.1,2.3
					H61.5z"/>
				<path class="st3" d="M64.1,274.3v-6.8h0.8l0.1,1.1c0.7-0.7,1.5-1.2,2.6-1.2c1.4,0,2.1,0.7,2.1,2v5h-0.9v-4.8
					c0-1-0.4-1.4-1.4-1.4c-0.9,0-1.6,0.5-2.4,1.2v5h-0.9V274.3z"/>
				<path class="st3" d="M71.3,270.9c0-2.4,1.3-3.6,2.8-3.6c0.9,0,1.7,0.5,2.3,1.1v-3.7l0.9-0.1v9.7h-0.8l-0.1-1
					c-0.5,0.6-1.3,1.1-2.3,1.1C72.5,274.4,71.3,273.3,71.3,270.9z M76.4,272.5v-3.3c-0.7-0.7-1.3-1.1-2.2-1.1
					c-1.1,0-2.1,0.9-2.1,2.8s0.9,2.8,2.1,2.8C75.1,273.7,75.7,273.2,76.4,272.5z"/>
				<path class="st3" d="M79,270.9c0-2.3,1.4-3.6,3.1-3.6s3.1,1.3,3.1,3.6c0,2.3-1.4,3.6-3.1,3.6S79,273.2,79,270.9z M84.3,270.9
					c0-1.5-0.8-2.8-2.2-2.8c-1.4,0-2.2,1.2-2.2,2.8c0,1.5,0.7,2.8,2.2,2.8C83.5,273.7,84.3,272.5,84.3,270.9z"/>
				<path class="st3" d="M86.7,270.6v-0.8h2.9v0.8H86.7z"/>
				<path class="st3" d="M91.1,270.9c0-2.3,1.4-3.6,3.1-3.6s3.1,1.3,3.1,3.6c0,2.3-1.4,3.6-3.1,3.6S91.1,273.2,91.1,270.9z
					 M96.4,270.9c0-1.5-0.8-2.8-2.2-2.8c-1.4,0-2.2,1.2-2.2,2.8c0,1.5,0.7,2.8,2.2,2.8C95.6,273.7,96.4,272.5,96.4,270.9z"/>
				<path class="st3" d="M99,277v-9.5h0.8l0.1,1c0.5-0.6,1.3-1.1,2.3-1.1c1.6,0,2.8,1.2,2.8,3.5c0,2.4-1.3,3.5-2.8,3.5
					c-0.9,0-1.7-0.4-2.3-1.1v3.5L99,277z M104.1,270.9c0-1.9-0.9-2.8-2.1-2.8c-0.8,0-1.4,0.4-2.1,1.1v3.4c0.7,0.7,1.3,1.1,2.2,1.1
					C103.2,273.7,104.1,272.9,104.1,270.9z"/>
				<path class="st3" d="M106.3,270.9c0-2.5,1.5-3.6,3.1-3.6c1.2,0,2.1,0.7,2.5,1.6l-0.7,0.4c-0.4-0.8-0.9-1.3-1.8-1.3
					c-1,0-2.1,0.8-2.1,2.8c0,1.8,0.9,2.8,2.1,2.8c0.9,0,1.5-0.5,1.9-1.3l0.7,0.4c-0.6,1.1-1.4,1.7-2.6,1.7
					C107.7,274.5,106.3,273.2,106.3,270.9z"/>
				<path class="st3" d="M113.6,265.4c0-0.3,0.2-0.5,0.5-0.5s0.5,0.2,0.5,0.5c0,0.4-0.2,0.6-0.5,0.6S113.6,265.7,113.6,265.4z
					 M113.7,274.3v-6.8h0.9v6.8H113.7z"/>
				<path class="st3" d="M116.3,270.9c0-2.3,1.4-3.6,3.1-3.6s3.1,1.3,3.1,3.6c0,2.3-1.4,3.6-3.1,3.6
					C117.8,274.5,116.3,273.2,116.3,270.9z M121.6,270.9c0-1.5-0.8-2.8-2.2-2.8c-1.4,0-2.2,1.2-2.2,2.8c0,1.5,0.7,2.8,2.2,2.8
					C120.8,273.7,121.6,272.5,121.6,270.9z M120.2,264.7h1.2l-1.8,2H119L120.2,264.7z"/>
				<path class="st3" d="M124.2,274.3v-6.8h0.8l0.1,1.1c0.7-0.7,1.5-1.2,2.6-1.2c1.4,0,2.1,0.7,2.1,2v5h-0.9v-4.8
					c0-1-0.4-1.4-1.4-1.4c-0.9,0-1.6,0.5-2.4,1.2v5h-0.9V274.3z"/>
			</g>
		</g>
		<g>
			<polygon class="st5" points="4.3,275 14,275 18.8,265.3 9.1,265.3 			"/>
		</g>
	</g>
</g>
<g class="st1">
	<path class="st2" d="M149.1,81.7c0-3.5,1.5-5.8,4.1-5.8s4,2.3,4,5.8s-1.4,5.8-4,5.8S149.1,85.2,149.1,81.7z M156.2,81.7
		c0-3.1-1.2-4.8-3-4.8c-1.9,0-3,1.7-3,4.8s1.2,4.8,3,4.8C155.1,86.5,156.2,84.9,156.2,81.7z"/>
	<path class="st2" d="M158.7,88.8l0.4-2.9h1.3l-1,2.9H158.7z"/>
	<path class="st2" d="M161.8,81.7c0-3.5,1.5-5.8,4.1-5.8s4,2.3,4,5.8s-1.4,5.8-4,5.8C163.2,87.5,161.8,85.2,161.8,81.7z M168.8,81.7
		c0-3.1-1.2-4.8-3-4.8c-1.9,0-3,1.7-3,4.8s1.2,4.8,3,4.8C167.7,86.5,168.8,84.9,168.8,81.7z"/>
	<path class="st2" d="M171.3,84.6c0-1.6,1.1-2.4,2.9-3.2c-1.5-0.7-2.4-1.4-2.4-2.7c0-1.4,1.3-2.7,3.4-2.7c2.2,0,3.4,1.3,3.4,2.7
		c0,1.3-0.9,2-2.5,2.7c1.9,0.8,3,1.6,3,3.2s-1.5,2.9-3.9,2.9S171.3,86.2,171.3,84.6z M178.2,84.5c0-1.2-1-1.9-3-2.7
		c-2,0.9-2.8,1.5-2.8,2.7s1.2,2.1,2.9,2.1C177,86.6,178.2,85.8,178.2,84.5z M177.7,78.7c0-0.9-0.7-1.8-2.4-1.8
		c-1.6,0-2.4,0.9-2.4,1.8c0,1,0.8,1.6,2.5,2.3C177,80.2,177.7,79.7,177.7,78.7z"/>
</g>
<g class="st1">
	<path class="st2" d="M208.1,81.7c0-3.5,1.5-5.8,4.1-5.8s4,2.3,4,5.8s-1.4,5.8-4,5.8S208.1,85.2,208.1,81.7z M215.2,81.7
		c0-3.1-1.2-4.8-3-4.8c-1.9,0-3,1.7-3,4.8s1.2,4.8,3,4.8C214.1,86.5,215.2,84.9,215.2,81.7z"/>
	<path class="st2" d="M217.7,88.8l0.4-2.9h1.3l-1,2.9H217.7z"/>
	<path class="st2" d="M220.8,81.7c0-3.5,1.5-5.8,4.1-5.8s4,2.3,4,5.8s-1.4,5.8-4,5.8C222.2,87.5,220.8,85.2,220.8,81.7z M227.8,81.7
		c0-3.1-1.2-4.8-3-4.8c-1.9,0-3,1.7-3,4.8s1.2,4.8,3,4.8C226.7,86.5,227.8,84.9,227.8,81.7z"/>
	<path class="st2" d="M230.3,84.6c0-1.6,1.1-2.4,2.9-3.2c-1.5-0.7-2.4-1.4-2.4-2.7c0-1.4,1.3-2.7,3.4-2.7c2.2,0,3.4,1.3,3.4,2.7
		c0,1.3-0.9,2-2.5,2.7c1.9,0.8,3,1.6,3,3.2s-1.5,2.9-3.9,2.9S230.3,86.2,230.3,84.6z M237.2,84.5c0-1.2-1-1.9-3-2.7
		c-2,0.9-2.8,1.5-2.8,2.7s1.2,2.1,2.9,2.1C236,86.6,237.2,85.8,237.2,84.5z M236.7,78.7c0-0.9-0.7-1.8-2.4-1.8
		c-1.6,0-2.4,0.9-2.4,1.8c0,1,0.8,1.6,2.5,2.3C236,80.2,236.7,79.7,236.7,78.7z"/>
</g>
<g>
	<g class="st1">
		<path class="st3" d="M58.7,10.7V1h5.7v0.9h-4.8v3.3h3.6L63.4,6h-3.7v3.8h5.1v0.8L58.7,10.7L58.7,10.7z"/>
		<path class="st3" d="M66.2,8.8v-5h0.9v4.8c0,1,0.4,1.4,1.4,1.4c0.9,0,1.6-0.5,2.4-1.2v-5h0.9v6.8H71l-0.1-1.1
			c-0.7,0.7-1.6,1.2-2.6,1.2C66.9,10.8,66.2,10.1,66.2,8.8z"/>
		<path class="st3" d="M73.8,10.7V3.8h0.8l0.1,1.3l0,0c0.5-0.8,1.4-1.5,2.7-1.5h0.1l0.1,0.8h-0.3c-1.1,0-2,0.6-2.6,1.7v4.5
			L73.8,10.7L73.8,10.7z"/>
		<path class="st3" d="M78.2,7.2c0-2.3,1.4-3.6,3.1-3.6s3.1,1.3,3.1,3.6s-1.4,3.6-3.1,3.6C79.6,10.8,78.2,9.5,78.2,7.2z M83.5,7.2
			c0-1.5-0.8-2.8-2.2-2.8c-1.4,0-2.2,1.2-2.2,2.8c0,1.5,0.7,2.8,2.2,2.8C82.7,10,83.5,8.9,83.5,7.2z"/>
		<path class="st3" d="M85.5,9.6L86,9c0.5,0.6,1.2,1,2.2,1c1.2,0,1.8-0.5,1.8-1.2c0-0.8-0.5-1.1-1.9-1.4c-1.7-0.4-2.4-0.8-2.4-2
			c0-1,0.8-1.8,2.3-1.8c1.1,0,1.9,0.4,2.5,1L90,5.2c-0.6-0.5-1.2-0.8-2-0.8c-1,0-1.5,0.5-1.5,1c0,0.6,0.4,0.9,1.6,1.2
			c1.8,0.4,2.6,0.9,2.6,2.1c0,1.3-1.1,2-2.7,2C86.9,10.8,86,10.3,85.5,9.6z"/>
		<path class="st3" d="M96.4,9.7v0.9h-0.9V1.1L96.4,1v3.8c0.5-0.6,1.3-1.1,2.3-1.1c1.6,0,2.8,1.2,2.8,3.5c0,2.4-1.3,3.5-2.8,3.5
			C97.7,10.8,97,10.4,96.4,9.7z M100.6,7.2c0-1.9-0.9-2.8-2.1-2.8c-0.8,0-1.4,0.4-2.1,1.1v3.4c0.7,0.7,1.3,1.1,2.2,1.1
			C99.7,10,100.6,9.2,100.6,7.2z"/>
		<path class="st3" d="M103.2,10.7V3.8h0.8l0.1,1.3l0,0c0.5-0.8,1.4-1.5,2.7-1.5h0.1l0.1,0.8h-0.3c-1.1,0-2,0.6-2.6,1.7v4.5
			L103.2,10.7L103.2,10.7z"/>
		<path class="st3" d="M108.3,8.8v-5h0.9v4.8c0,1,0.4,1.4,1.4,1.4c0.9,0,1.6-0.5,2.4-1.2v-5h0.9v6.8H113l-0.1-1.1
			c-0.7,0.7-1.6,1.2-2.6,1.2C108.9,10.8,108.3,10.1,108.3,8.8z"/>
		<path class="st3" d="M116.3,9V4.6h-1.2V3.8h1.2V1.4l0.9-0.1v2.5h1.8v0.8h-1.8v4.3c0,0.7,0.3,1.1,1.1,1.1c0.2,0,0.5,0,0.7-0.1
			l0.1,0.8c-0.2,0-0.6,0.1-0.9,0.1C116.9,10.8,116.3,10.3,116.3,9z"/>
		<path class="st3" d="M120.1,7.2c0-2.3,1.4-3.6,3.1-3.6s3.1,1.3,3.1,3.6s-1.4,3.6-3.1,3.6C121.5,10.8,120.1,9.5,120.1,7.2z
			 M125.4,7.2c0-1.5-0.8-2.8-2.2-2.8c-1.4,0-2.2,1.2-2.2,2.8c0,1.5,0.7,2.8,2.2,2.8C124.6,10,125.4,8.9,125.4,7.2z"/>
		<path class="st3" d="M127.4,9.6l0.5-0.5c0.5,0.6,1.2,1,2.2,1c1.2,0,1.8-0.5,1.8-1.2c0-0.8-0.5-1.1-1.9-1.4c-1.7-0.4-2.4-0.8-2.4-2
			c0-1,0.8-1.8,2.3-1.8c1.1,0,1.9,0.4,2.5,1L132,5.3c-0.6-0.5-1.2-0.8-2-0.8c-1,0-1.5,0.5-1.5,1c0,0.6,0.4,0.9,1.6,1.2
			c1.8,0.4,2.6,0.9,2.6,2.1c0,1.3-1.1,2-2.7,2C128.8,10.8,127.9,10.3,127.4,9.6z"/>
		<path class="st3" d="M136.6,10.7l5.6-9.6h0.9l-5.6,9.6H136.6z"/>
		<path class="st3" d="M147,9.1c0-1.4,1.2-2.3,4.6-2.9V5.8c0-0.9-0.5-1.4-1.4-1.4c-1.1,0-1.8,0.4-2.5,1.1L147.2,5
			c0.8-0.8,1.7-1.3,3.1-1.3c1.5,0,2.2,0.8,2.2,2.2v4.8h-0.8l-0.1-1c-0.8,0.7-1.7,1.1-2.7,1.1C147.7,10.8,147,10.1,147,9.1z M151.7,9
			V6.8c-3,0.5-3.8,1.2-3.8,2.1c0,0.7,0.5,1.1,1.2,1.1C150.1,10,151,9.6,151.7,9z"/>
		<path class="st3" d="M154.2,7.2c0-2.5,1.5-3.6,3.1-3.6c1.2,0,2.1,0.7,2.5,1.6L159,5.7c-0.4-0.8-0.9-1.3-1.8-1.3
			c-1,0-2.1,0.8-2.1,2.8c0,1.8,0.9,2.8,2.1,2.8c0.9,0,1.5-0.5,1.9-1.3l0.7,0.4c-0.6,1.1-1.4,1.7-2.6,1.7
			C155.6,10.8,154.2,9.5,154.2,7.2z"/>
		<path class="st3" d="M161,7.2c0-2.5,1.5-3.6,3.1-3.6c1.2,0,2.1,0.7,2.5,1.6l-0.7,0.4c-0.4-0.8-0.9-1.3-1.8-1.3
			c-1,0-2.1,0.8-2.1,2.8c0,1.8,0.9,2.8,2.1,2.8c0.9,0,1.5-0.5,1.9-1.3l0.7,0.4c-0.6,1.1-1.4,1.7-2.6,1.7C162.3,10.8,161,9.5,161,7.2
			z"/>
		<path class="st3" d="M168.2,1.7c0-0.3,0.2-0.5,0.5-0.5s0.5,0.2,0.5,0.5c0,0.4-0.2,0.6-0.5,0.6S168.2,2.1,168.2,1.7z M168.3,10.7
			V3.8h0.9v6.8L168.3,10.7L168.3,10.7z"/>
		<path class="st3" d="M171,7.2c0-2.3,1.4-3.6,3.1-3.6c1.7,0,3.1,1.3,3.1,3.6s-1.4,3.6-3.1,3.6C172.4,10.8,171,9.5,171,7.2z
			 M176.3,7.2c0-1.5-0.8-2.8-2.2-2.8s-2.2,1.2-2.2,2.8c0,1.5,0.7,2.8,2.2,2.8C175.5,10,176.3,8.9,176.3,7.2z M174.9,1.1h1.2l-1.8,2
			h-0.6L174.9,1.1z"/>
		<path class="st3" d="M178.9,10.7V3.8h0.8l0.1,1.1c0.7-0.7,1.5-1.2,2.6-1.2c1.4,0,2.1,0.7,2.1,2v5h-0.9V5.9c0-1-0.4-1.4-1.4-1.4
			c-0.9,0-1.6,0.5-2.4,1.2v5H178.9z"/>
	</g>
</g>
<g>
	<g>
		<g>
			<linearGradient id="SVGID_1_" gradientUnits="userSpaceOnUse" x1="16.168" y1="179.4507" x2="60.6973" y2="198.8112">
				<stop  offset="0" style="stop-color:#000000;stop-opacity:0"/>
				<stop  offset="1" style="stop-color:#000000;stop-opacity:0.5"/>
			</linearGradient>
			<polygon class="st6" points="40.9,197.1 -6.2,176.3 12.8,171.1 55.7,189.8 			"/>
			<linearGradient id="SVGID_2_" gradientUnits="userSpaceOnUse" x1="78.9831" y1="179.4507" x2="123.5124" y2="198.8112">
				<stop  offset="0" style="stop-color:#000000;stop-opacity:0"/>
				<stop  offset="1" style="stop-color:#000000;stop-opacity:0.5"/>
			</linearGradient>
			<polygon class="st7" points="103.7,197.1 56.6,176.3 75.6,171.1 118.5,189.8 			"/>
			<linearGradient id="SVGID_3_" gradientUnits="userSpaceOnUse" x1="201.1949" y1="179.4507" x2="245.7242" y2="198.8112">
				<stop  offset="0" style="stop-color:#000000;stop-opacity:0"/>
				<stop  offset="1" style="stop-color:#000000;stop-opacity:0.5"/>
			</linearGradient>
			<polygon class="st8" points="225.9,197.1 178.8,176.3 197.8,171.1 240.7,189.8 			"/>
			<linearGradient id="SVGID_4_" gradientUnits="userSpaceOnUse" x1="141.9921" y1="179.4507" x2="186.5213" y2="198.8112">
				<stop  offset="0" style="stop-color:#000000;stop-opacity:0"/>
				<stop  offset="1" style="stop-color:#000000;stop-opacity:0.5"/>
			</linearGradient>
			<polygon class="st9" points="166.7,197.1 119.6,176.3 138.6,171.1 181.5,189.8 			"/>
			<polygon class="st5" points="40.6,197.4 56.6,189.5 56.6,123.5 40.6,131.4 			"/>
		</g>
		<g>
			<polygon class="st10" points="40.6,81.6 56.6,73.6 40.7,67.3 24.7,75.2 			"/>
		</g>
		<g>
			<polygon class="st5" points="40.6,81.6 40.6,131.4 56.6,123.5 56.6,73.6 			"/>
		</g>
	</g>
	<g>
		<polygon class="st11" points="40.7,81.6 56.5,73.7 40.7,67.3 24.9,75.2 		"/>
	</g>
</g>
<g>
	<g>
		<g>
			<polygon class="st12" points="103.3,197.4 119.2,189.5 119.2,112.8 103.3,120.8 			"/>
		</g>
		<g>
			<polygon class="st10" points="103.3,120.8 119.2,112.8 103.3,106.5 87.4,114.4 			"/>
		</g>
	</g>
	<g>
		<polygon class="st11" points="103.3,120.8 119.1,112.9 103.4,106.5 87.5,114.4 		"/>
	</g>
</g>
<g>
	<g>
		<g>
			<polygon class="st5" points="165.9,197.4 181.9,189.5 181.9,112.8 165.9,120.8 			"/>
		</g>
		<g>
			<polygon class="st10" points="165.9,120.8 181.9,112.8 166,106.5 150,114.4 			"/>
		</g>
	</g>
	<g>
		<polygon class="st11" points="166,120.8 181.8,112.9 166,106.5 150.2,114.4 		"/>
	</g>
</g>
<g>
	<g>
		<g>
			<polygon class="st12" points="224.9,197.4 240.9,189.5 240.9,112.8 224.9,120.8 			"/>
		</g>
		<g>
			<polygon class="st10" points="224.9,120.8 240.9,112.8 225,106.5 209,114.4 			"/>
		</g>
	</g>
	<g>
		<polygon class="st11" points="225,120.8 240.8,112.9 225,106.5 209.2,114.4 		"/>
	</g>
</g>
</svg>
