<?xml version="1.0" encoding="utf-8"?>
<!-- Generator: Adobe Illustrator 19.2.1, SVG Export Plug-In . SVG Version: 6.00 Build 0)  -->
<svg version="1.1" id="Capa_1" xmlns="http://www.w3.org/2000/svg" xmlns:xlink="http://www.w3.org/1999/xlink" x="0px" y="0px"
	 viewBox="0 0 605 239" style="enable-background:new 0 0 605 239;" xml:space="preserve">
<style type="text/css">
	.st0{enable-background:new    ;}
	.st1{fill:#FFFFFF;}
	.st2{fill:#1464A5;}
	.st3{fill:#F3F3F3;}
	.st4{fill:#45C2C4;}
	.st5{fill:#D8BE75;}
</style>
<title>Group</title>
<desc>Created with Sketch.</desc>
<g>
	<g>
		<g>
			<g class="st0">
				<path class="st1" d="M570.8,26.9l5-10.8h-6.1l-0.1-1h7.3v1l-5,10.9L570.8,26.9z"/>
				<path class="st1" d="M578.1,21c0-3.7,1.6-6.1,4.4-6.1s4.3,2.4,4.3,6.1c0,3.7-1.5,6.1-4.3,6.1S578.1,24.7,578.1,21z M585.7,21
					c0-3.3-1.3-5.1-3.2-5.1c-2,0-3.2,1.8-3.2,5.1c0,3.3,1.3,5.1,3.2,5.1C584.5,26.2,585.7,24.4,585.7,21z"/>
			</g>
		</g>
		<g>
			<g class="st0">
				<path class="st1" d="M555.1,191.9c0-3.7,1.6-6.1,4.4-6.1s4.3,2.4,4.3,6.1c0,3.7-1.5,6.1-4.3,6.1S555.1,195.6,555.1,191.9z
					 M562.6,191.9c0-3.3-1.3-5.1-3.2-5.1c-2,0-3.2,1.8-3.2,5.1c0,3.3,1.3,5.1,3.2,5.1C561.4,197,562.6,195.2,562.6,191.9z"/>
				<path class="st1" d="M565.3,199.4l0.4-3.1h1.4l-1.1,3.1H565.3z"/>
				<path class="st1" d="M568.7,194.9c0-1.7,1.2-2.6,3.1-3.4c-1.6-0.7-2.6-1.5-2.6-2.9c0-1.5,1.4-2.9,3.7-2.9c2.4,0,3.7,1.4,3.7,2.9
					c0,1.4-0.9,2.1-2.6,2.9c2,0.9,3.2,1.7,3.2,3.5c0,1.7-1.6,3.1-4.2,3.1C570.2,198.1,568.7,196.7,568.7,194.9z M576,194.9
					c0-1.3-1.1-2.1-3.2-2.9c-2.1,0.9-3,1.6-3,2.9c0,1.3,1.3,2.2,3.1,2.2C574.7,197.1,576,196.2,576,194.9z M575.5,188.6
					c0-0.9-0.8-2-2.6-2c-1.7,0-2.6,1-2.6,1.9c0,1.1,0.8,1.7,2.6,2.5C574.7,190.3,575.5,189.7,575.5,188.6z"/>
				<path class="st1" d="M584,197.8v-2.9h-5.7v-0.8l5.4-8.1h1.4v8h2l0,1h-2v2.9H584z M579.6,193.9h4.4v-6.6h0L579.6,193.9z"/>
			</g>
		</g>
		<g>
			<rect x="251.4" y="51.2" class="st2" width="354.4" height="1"/>
		</g>
		<g>
			<g class="st0">
				<path class="st1" d="M570.7,115.9V113H565v-0.8l5.4-8.1h1.4v8h2l0,1h-2v2.9H570.7z M566.3,112h4.4v-6.6h0L566.3,112z"/>
				<path class="st1" d="M575.2,117.5l0.4-3.1h1.4l-1.1,3.1H575.2z"/>
				<path class="st1" d="M579.4,115.1l0.5-0.9c0.7,0.6,1.3,1,2.5,1c2.2,0,3.5-2.3,3.5-5.2c-0.8,0.8-1.9,1.6-3.4,1.6
					c-2.5,0-3.7-1.6-3.7-3.7c0-2.2,1.5-3.9,4-3.9c2.3,0,4.2,1.9,4.2,5.9c0,3.6-1.9,6.4-4.6,6.4C581,116.1,580.1,115.6,579.4,115.1z
					 M585.9,108.7c-0.2-2.7-1.6-3.9-3.1-3.9c-1.7,0-2.8,1.1-2.8,2.9c0,1.6,0.8,2.7,2.7,2.7C584,110.5,585.2,109.8,585.9,108.7z"/>
			</g>
		</g>
		<g>
			<g class="st0">
				<path class="st1" d="M276.1,12.6l5-10.8h-6.1l-0.1-1h7.3v1l-5,10.9L276.1,12.6z"/>
				<path class="st1" d="M287.9,12.7V9.8h-5.7V9l5.4-8.1h1.4v8h2l0,1h-2v2.9H287.9z M283.5,8.8h4.4V2.1h0L283.5,8.8z"/>
			</g>
		</g>
		<g>
			<g class="st0">
				<path class="st1" d="M265,162.9v-10.8l-2.3,0.8l-0.1-0.9l2.5-0.9h1v11.8H265z"/>
				<path class="st1" d="M269.7,164.5l0.4-3.1h1.4l-1.1,3.1H269.7z"/>
				<path class="st1" d="M273,157c0-3.7,1.6-6.1,4.4-6.1c2.8,0,4.3,2.4,4.3,6.1c0,3.7-1.5,6.1-4.3,6.1
					C274.5,163.1,273,160.7,273,157z M280.5,157c0-3.3-1.3-5.1-3.2-5.1c-2,0-3.2,1.8-3.2,5.1c0,3.3,1.3,5.1,3.2,5.1
					C279.3,162.1,280.5,160.3,280.5,157z"/>
				<path class="st1" d="M283.4,157.2c0-3.7,1.9-6.4,4.7-6.4c1.3,0,2.2,0.4,2.8,0.9l-0.5,0.9c-0.6-0.5-1.2-0.8-2.3-0.8
					c-2.2,0-3.5,2.3-3.5,5.2c0.8-0.8,1.9-1.6,3.4-1.6c2.5,0,3.7,1.6,3.7,3.7c0,2.2-1.5,3.9-4,3.9
					C285.3,163.1,283.4,161.3,283.4,157.2z M290.5,159.2c0-1.6-0.8-2.7-2.7-2.7c-1.3,0-2.4,0.7-3.2,1.7c0.2,2.7,1.5,3.9,3.1,3.9
					C289.4,162.2,290.5,161.1,290.5,159.2z"/>
			</g>
		</g>
		<g class="st0">
			<path class="st3" d="M273.8,237v-10.4h2.6c3.4,0,5.2,1.8,5.2,5.2c0,3.4-1.8,5.2-5.2,5.2H273.8z M274.8,236.1h1.8
				c2.6,0,4-1.3,4-4.3c0-2.9-1.4-4.3-4-4.3h-1.8V236.1z"/>
			<path class="st3" d="M283.5,227.4c0-0.4,0.2-0.6,0.6-0.6c0.4,0,0.6,0.2,0.6,0.6c0,0.4-0.2,0.6-0.6,0.6
				C283.8,228,283.5,227.8,283.5,227.4z M283.6,237v-7.4h1v7.4H283.6z"/>
			<path class="st3" d="M286.5,233.3c0-2.6,1.6-3.8,3.3-3.8c1.3,0,2.2,0.7,2.7,1.8l-0.8,0.5c-0.4-0.9-1-1.4-2-1.4
				c-1.1,0-2.3,0.8-2.3,3c0,1.9,1,3,2.3,3c1,0,1.6-0.5,2.1-1.4l0.7,0.5c-0.6,1.2-1.5,1.8-2.8,1.8C288,237.1,286.5,235.8,286.5,233.3
				z"/>
			<path class="st3" d="M297.3,233v-0.8h3.2v0.8H297.3z"/>
			<path class="st3" d="M305.2,237v-0.2c0-1.5,0.7-2.9,3.5-4.6c1.6-1,2.2-1.7,2.2-2.8c0-1.2-0.7-2-2.1-2c-1.1,0-2,0.6-2.6,1.8
				l-0.7-0.5c0.7-1.4,1.9-2.2,3.4-2.2c1.9,0,3.1,1.2,3.1,2.8c0,1.4-0.7,2.3-2.7,3.6c-1.9,1.2-2.8,2.3-2.9,3.2h5.5l0.1,0.9H305.2z"/>
			<path class="st3" d="M313.4,231.8c0-3.2,1.4-5.4,3.8-5.4s3.8,2.1,3.8,5.4c0,3.2-1.3,5.4-3.8,5.4S313.4,235,313.4,231.8z
				 M320,231.8c0-2.9-1.1-4.5-2.8-4.5c-1.8,0-2.8,1.6-2.8,4.5s1.1,4.5,2.8,4.5C319,236.3,320,234.7,320,231.8z"/>
			<path class="st3" d="M324.8,237v-9.4l-2,0.7l-0.1-0.8l2.2-0.8h0.9V237H324.8z"/>
			<path class="st3" d="M328.4,235.3l0.6-0.6c0.6,0.9,1.5,1.6,2.7,1.6c1.8,0,2.6-1.3,2.6-2.7c0-1.7-1-2.6-2.4-2.6
				c-1.1,0-1.8,0.5-2.4,1.3l-0.7-0.3l0.4-5.4h5.4l0,0.9h-4.6l-0.3,3.6c0.5-0.6,1.2-1,2.3-1c1.9,0,3.2,1.3,3.2,3.4s-1.4,3.6-3.6,3.6
				C330.3,237.2,329.1,236.4,328.4,235.3z"/>
		</g>
		<g class="st0">
			<path class="st3" d="M512,237v-10.4h2.6c3.4,0,5.2,1.8,5.2,5.2c0,3.4-1.8,5.2-5.2,5.2H512z M513,236.1h1.8c2.6,0,4-1.3,4-4.3
				c0-2.9-1.4-4.3-4-4.3H513V236.1z"/>
			<path class="st3" d="M521.7,227.4c0-0.4,0.2-0.6,0.6-0.6s0.6,0.2,0.6,0.6c0,0.4-0.2,0.6-0.6,0.6S521.7,227.8,521.7,227.4z
				 M521.8,237v-7.4h1v7.4H521.8z"/>
			<path class="st3" d="M524.7,233.3c0-2.6,1.6-3.8,3.3-3.8c1.3,0,2.2,0.7,2.7,1.8l-0.8,0.5c-0.4-0.9-1-1.4-2-1.4
				c-1.1,0-2.3,0.8-2.3,3c0,1.9,1,3,2.3,3c1,0,1.6-0.5,2.1-1.4l0.7,0.5c-0.6,1.2-1.5,1.8-2.8,1.8
				C526.2,237.1,524.7,235.8,524.7,233.3z"/>
			<path class="st3" d="M535.5,233v-0.8h3.2v0.8H535.5z"/>
			<path class="st3" d="M543.4,237v-0.2c0-1.5,0.7-2.9,3.5-4.6c1.6-1,2.2-1.7,2.2-2.8c0-1.2-0.7-2-2.1-2c-1.1,0-2,0.6-2.6,1.8
				l-0.7-0.5c0.7-1.4,1.9-2.2,3.4-2.2c1.9,0,3.1,1.2,3.1,2.8c0,1.4-0.7,2.3-2.7,3.6c-1.9,1.2-2.8,2.3-2.9,3.2h5.5l0.1,0.9H543.4z"/>
			<path class="st3" d="M551.6,231.8c0-3.2,1.4-5.4,3.8-5.4c2.4,0,3.8,2.1,3.8,5.4c0,3.2-1.3,5.4-3.8,5.4
				C553,237.2,551.6,235,551.6,231.8z M558.2,231.8c0-2.9-1.1-4.5-2.8-4.5c-1.8,0-2.8,1.6-2.8,4.5s1.1,4.5,2.8,4.5
				C557.2,236.3,558.2,234.7,558.2,231.8z"/>
			<path class="st3" d="M563,237v-9.4l-2,0.7l-0.1-0.8l2.2-0.8h0.9V237H563z"/>
			<path class="st3" d="M566.6,232c0-3.2,1.7-5.6,4.1-5.6c1.2,0,1.9,0.3,2.4,0.8l-0.5,0.8c-0.6-0.4-1.1-0.7-2-0.7
				c-1.9,0-3.1,2-3.1,4.6c0.7-0.7,1.6-1.4,3-1.4c2.2,0,3.2,1.4,3.2,3.2c0,2-1.3,3.4-3.5,3.4C568.3,237.2,566.6,235.5,566.6,232z
				 M572.8,233.8c0-1.4-0.7-2.4-2.4-2.4c-1.1,0-2.1,0.6-2.8,1.5c0.2,2.4,1.3,3.4,2.7,3.4C571.8,236.3,572.8,235.4,572.8,233.8z"/>
		</g>
		<g>
			<g class="st0">
				<path class="st1" d="M270.2,93.2l0.7-0.7c0.7,1.1,1.7,1.8,3.1,1.8c2,0,3-1.5,3-3.1c0-1.9-1.1-2.9-2.7-2.9
					c-1.2,0-2.1,0.6-2.7,1.5l-0.8-0.3l0.5-6.2h6.2l0,1h-5.3l-0.3,4.1c0.6-0.7,1.4-1.1,2.6-1.1c2.1,0,3.7,1.5,3.7,3.9
					s-1.6,4.1-4.1,4.1C272.3,95.4,271,94.5,270.2,93.2z"/>
				<path class="st1" d="M279.8,96.7l0.4-3.1h1.4l-1.1,3.1H279.8z"/>
				<path class="st1" d="M288.2,95.1v-2.9h-5.7v-0.8l5.4-8.1h1.4v8h2l0,1h-2v2.9H288.2z M283.8,91.3h4.4v-6.6h0L283.8,91.3z"/>
			</g>
		</g>
		<g>
			<rect x="302.3" y="211.2" class="st2" width="1" height="4.3"/>
		</g>
		<g>
			<rect x="541.7" y="211.2" class="st2" width="1" height="4.3"/>
		</g>
		<g>
			<rect x="251.4" y="131.6" class="st2" width="354.4" height="1"/>
		</g>
		<g>
			<rect x="251.4" y="210.7" class="st2" width="354.4" height="1"/>
		</g>
		<g>
			<g>
				<g>
					<g class="st0">
						<path class="st1" d="M5,27.4V18H1.6v-1.7h8.6l0.3,1.7H6.9v9.4H5z"/>
						<path class="st1" d="M9.7,27.4l3.9-11.1h1.8l3.9,11l-1.8,0.3l-0.9-2.8h-4.2l-0.9,2.6H9.7z M12.9,23.1H16l-1.5-4.5h0L12.9,23.1
							z"/>
						<path class="st1" d="M19.9,25.7l1-1.4c0.9,0.9,2.2,1.6,3.6,1.6c1.4,0,2.3-0.5,2.3-1.4c0-1-0.7-1.4-2.5-2
							c-2.1-0.6-3.9-1.2-3.9-3.3c0-1.9,1.6-3.1,3.8-3.1c1.7,0,3.1,0.7,4.1,1.6l-0.9,1.5c-0.9-0.8-2.1-1.4-3.2-1.4
							c-1.3,0-2,0.6-2,1.3c0,1,0.8,1.4,2.6,1.9c2.1,0.6,3.8,1.3,3.8,3.4c0,1.8-1.5,3.2-4.1,3.2C22.6,27.6,21.1,26.8,19.9,25.7z"/>
						<path class="st1" d="M29.5,27.4l3.9-11.1h1.8l3.9,11l-1.8,0.3l-0.9-2.8h-4.2l-0.9,2.6H29.5z M32.7,23.1h3.1l-1.5-4.5h0
							L32.7,23.1z"/>
						<path class="st1" d="M44.1,27.4V16.3h3.1c3.5,0,5.8,1.6,5.8,5.5c0,4-2.3,5.6-5.8,5.6H44.1z M46,25.7h1.5
							c2.6,0,3.7-1.2,3.7-3.9c0-2.6-1.2-3.8-3.8-3.8H46V25.7z"/>
						<path class="st1" d="M55,27.4V16.3h7.2V18h-5.3v2.8h4l0.3,1.7h-4.3v3.2h5.6v1.7H55z"/>
						<path class="st1" d="M67.6,21.8c0-3.6,2.1-5.7,4.8-5.7c2.1,0,3.4,0.9,4.2,2.6L75,19.6c-0.4-1-1.2-1.8-2.6-1.8
							c-1.9,0-2.9,1.6-2.9,4c0,2.6,1.1,4.1,3,4.1c1.4,0,2.3-0.8,2.7-2.1l1.6,0.7c-0.7,1.8-2,3-4.3,3C69.6,27.6,67.6,25.5,67.6,21.8z
							"/>
						<path class="st1" d="M78.1,21.8c0-3.7,2.3-5.8,5-5.8c2.7,0,5,2,5,5.8c0,3.7-2.3,5.8-5,5.8C80.4,27.6,78.1,25.6,78.1,21.8z
							 M86.2,21.8c0-2.5-1.3-4-3.1-4c-1.9,0-3.1,1.5-3.1,4s1.3,4.1,3.1,4.1C85,25.9,86.2,24.3,86.2,21.8z"/>
						<path class="st1" d="M90.1,27.4V16.3h4.2c2.2,0,3.9,0.7,3.9,2.8c0,1.5-0.9,2.3-2,2.5v0c1.3,0.2,2.3,1,2.3,2.7c0,2-1.7,3-3.9,3
							H90.1z M91.9,20.9h2.2c1.5,0,2.2-0.5,2.2-1.5c0-1-0.7-1.5-2.2-1.5h-2.2V20.9z M91.9,25.7h2.4c1.6,0,2.3-0.6,2.3-1.6
							c0-1.1-0.9-1.7-2.5-1.7h-2.2V25.7z"/>
						<path class="st1" d="M100.6,27.4V16.3h7.2V18h-5.3v2.8h4l0.3,1.7h-4.3v3.2h5.6v1.7H100.6z"/>
						<path class="st1" d="M109.9,27.4V16.3h4c2.6,0,4.2,1,4.2,3.4c0,1.8-0.9,2.7-2.4,3.1l2.6,4.5l-1.8,0.3l-2.7-4.5h-2v4.4H109.9z
							 M111.8,21.4h2c1.6,0,2.4-0.5,2.4-1.7c0-1.2-0.8-1.7-2.4-1.7h-2V21.4z"/>
						<path class="st1" d="M122.6,27.4V18h-3.4v-1.7h8.6L128,18h-3.6v9.4H122.6z"/>
						<path class="st1" d="M129.4,23.3v-7.1h1.9v7c0,1.6,0.7,2.6,2.4,2.6c1.7,0,2.4-1,2.4-2.6v-7h1.8v7c0,2.5-1.4,4.3-4.3,4.3
							C130.7,27.6,129.4,25.8,129.4,23.3z"/>
						<path class="st1" d="M140.3,27.4V16.3h4c2.6,0,4.2,1,4.2,3.4c0,1.8-0.9,2.7-2.4,3.1l2.6,4.5l-1.8,0.3l-2.7-4.5h-2v4.4H140.3z
							 M142.2,21.4h2c1.6,0,2.4-0.5,2.4-1.7c0-1.2-0.8-1.7-2.4-1.7h-2V21.4z"/>
						<path class="st1" d="M149.7,27.4l3.9-11.1h1.8l3.9,11l-1.8,0.3l-0.9-2.8h-4.2l-0.9,2.6H149.7z M152.9,23.1h3.1l-1.5-4.5h0
							L152.9,23.1z"/>
						<path class="st1" d="M171.4,30.4c-2.4-2.1-3.8-4.3-3.8-7.3c0-2.9,1.4-5.2,3.8-7.3l0.8,0.9c-1.6,1.7-2.7,3.8-2.7,6.4
							c0,2.6,1.1,4.8,2.7,6.4L171.4,30.4z"/>
						<path class="st1" d="M173.6,19.6c0-2.1,1.1-3.5,2.8-3.5c1.7,0,2.8,1.4,2.8,3.5c0,2.1-1,3.5-2.8,3.5
							C174.6,23.1,173.6,21.7,173.6,19.6z M177.6,19.6c0-1.4-0.4-2.3-1.2-2.3c-0.9,0-1.2,0.9-1.2,2.2c0,1.4,0.4,2.3,1.3,2.3
							C177.2,21.9,177.6,20.9,177.6,19.6z M176.6,27.4l6.6-11.1h1.6l-6.6,11.1H176.6z M182.2,24c0-2.1,1.1-3.5,2.8-3.5
							c1.7,0,2.8,1.4,2.8,3.5c0,2.1-1,3.5-2.8,3.5S182.2,26.1,182.2,24z M186.3,24c0-1.4-0.4-2.3-1.2-2.3c-0.9,0-1.2,0.9-1.2,2.2
							c0,1.4,0.4,2.3,1.2,2.3C185.9,26.3,186.3,25.3,186.3,24z"/>
						<path class="st1" d="M189.1,29.6c1.6-1.6,2.7-3.9,2.7-6.4c0-2.5-1.1-4.7-2.7-6.4l0.9-0.9c2.4,2.1,3.8,4.3,3.8,7.3
							c0,2.9-1.4,5.2-3.8,7.3L189.1,29.6z"/>
					</g>
				</g>
				<g>
					<g class="st0">
						<path class="st1" d="M5,103v-9.4H1.6v-1.7h8.6l0.3,1.7H6.9v9.4H5z"/>
						<path class="st1" d="M9.7,103l3.9-11.1h1.8l3.9,11l-1.8,0.3l-0.9-2.8h-4.2l-0.9,2.6H9.7z M12.9,98.7H16l-1.5-4.5h0L12.9,98.7z
							"/>
						<path class="st1" d="M19.9,101.3l1-1.4c0.9,0.9,2.2,1.6,3.6,1.6c1.4,0,2.3-0.5,2.3-1.4c0-1-0.7-1.4-2.5-2
							c-2.1-0.6-3.9-1.2-3.9-3.3c0-1.9,1.6-3.1,3.8-3.1c1.7,0,3.1,0.7,4.1,1.6l-0.9,1.5c-0.9-0.8-2.1-1.4-3.2-1.4
							c-1.3,0-2,0.6-2,1.3c0,1,0.8,1.4,2.6,1.9c2.1,0.6,3.8,1.3,3.8,3.4c0,1.8-1.5,3.2-4.1,3.2C22.6,103.2,21.1,102.4,19.9,101.3z"
							/>
						<path class="st1" d="M29.5,103l3.9-11.1h1.8l3.9,11l-1.8,0.3l-0.9-2.8h-4.2l-0.9,2.6H29.5z M32.7,98.7h3.1l-1.5-4.5h0
							L32.7,98.7z"/>
						<path class="st1" d="M44.1,103V91.9h3.1c3.5,0,5.8,1.6,5.8,5.5c0,4-2.3,5.6-5.8,5.6H44.1z M46,101.3h1.5
							c2.6,0,3.7-1.2,3.7-3.9c0-2.6-1.2-3.8-3.8-3.8H46V101.3z"/>
						<path class="st1" d="M55,103V91.9h7.2v1.7h-5.3v2.8h4l0.3,1.7h-4.3v3.2h5.6v1.7H55z"/>
						<path class="st1" d="M68.1,103V91.9h2.5l3,8.8h0l2.9-8.8H79V103h-1.8v-8.3h0c-0.2,0.8-0.4,1.5-0.6,2.3l-2.2,6h-1.7l-2.2-6
							c-0.3-0.8-0.4-1.3-0.7-2.3h0v8.4H68.1z"/>
						<path class="st1" d="M81,97.4c0-3.7,2.3-5.8,5-5.8c2.7,0,5,2,5,5.8c0,3.7-2.3,5.8-5,5.8C83.3,103.2,81,101.2,81,97.4z
							 M89.1,97.4c0-2.5-1.3-4-3.1-4c-1.9,0-3.1,1.5-3.1,4s1.3,4.1,3.1,4.1C87.9,101.5,89.1,100,89.1,97.4z"/>
						<path class="st1" d="M93,103V91.9h4c2.6,0,4.2,1,4.2,3.4c0,1.8-0.9,2.7-2.4,3.1l2.6,4.5l-1.8,0.3l-2.7-4.5h-2v4.4H93z
							 M94.8,97h2c1.6,0,2.4-0.5,2.4-1.7c0-1.2-0.8-1.7-2.4-1.7h-2V97z"/>
						<path class="st1" d="M102.3,103l3.9-11.1h1.8l3.9,11l-1.8,0.3l-0.9-2.8H105L104,103H102.3z M105.5,98.7h3.1l-1.5-4.5h0
							L105.5,98.7z"/>
						<path class="st1" d="M120.3,106.1c-2.4-2.1-3.8-4.3-3.8-7.3c0-2.9,1.4-5.2,3.8-7.3l0.8,0.9c-1.6,1.7-2.7,3.8-2.7,6.4
							c0,2.6,1.1,4.8,2.7,6.4L120.3,106.1z"/>
						<path class="st1" d="M122.5,95.2c0-2.1,1.1-3.5,2.8-3.5c1.7,0,2.8,1.4,2.8,3.5c0,2.1-1,3.5-2.8,3.5
							C123.5,98.7,122.5,97.3,122.5,95.2z M126.5,95.2c0-1.4-0.4-2.3-1.2-2.3c-0.9,0-1.2,0.9-1.2,2.2c0,1.4,0.4,2.3,1.3,2.3
							C126.1,97.5,126.5,96.6,126.5,95.2z M125.5,103l6.6-11.1h1.6l-6.6,11.1H125.5z M131.1,99.6c0-2.1,1.1-3.5,2.8-3.5
							c1.7,0,2.8,1.4,2.8,3.5c0,2.1-1,3.5-2.8,3.5S131.1,101.7,131.1,99.6z M135.1,99.6c0-1.4-0.4-2.3-1.2-2.3
							c-0.9,0-1.2,0.9-1.2,2.2c0,1.4,0.4,2.3,1.2,2.3C134.8,101.9,135.1,101,135.1,99.6z"/>
						<path class="st1" d="M138,105.2c1.6-1.6,2.7-3.9,2.7-6.4c0-2.5-1.1-4.7-2.7-6.4l0.9-0.9c2.4,2.1,3.8,4.3,3.8,7.3
							c0,2.9-1.4,5.2-3.8,7.3L138,105.2z"/>
					</g>
				</g>
				<g>
					<g class="st0">
						<path class="st1" d="M1.9,172.6c0-3.6,2.1-5.7,4.8-5.7c2.1,0,3.4,0.9,4.2,2.6l-1.6,0.9c-0.4-1-1.2-1.8-2.6-1.8
							c-1.9,0-2.9,1.6-2.9,4c0,2.6,1.1,4.1,3,4.1c1.4,0,2.3-0.8,2.7-2.1l1.6,0.7c-0.7,1.8-2,3-4.3,3C3.9,178.4,1.9,176.4,1.9,172.6z
							"/>
						<path class="st1" d="M12.4,172.6c0-3.7,2.3-5.8,5-5.8c2.7,0,5,2,5,5.8c0,3.7-2.3,5.8-5,5.8C14.7,178.4,12.4,176.4,12.4,172.6z
							 M20.5,172.6c0-2.5-1.3-4-3.1-4c-1.9,0-3.1,1.5-3.1,4s1.3,4.1,3.1,4.1C19.3,176.7,20.5,175.2,20.5,172.6z"/>
						<path class="st1" d="M23.5,176.5l1-1.4c0.9,0.9,2.2,1.7,3.6,1.7c1.4,0,2.3-0.5,2.3-1.4c0-1-0.7-1.4-2.5-2
							c-2.1-0.6-3.9-1.2-3.9-3.3c0-1.9,1.6-3.1,3.8-3.1c1.7,0,3.1,0.7,4.1,1.6l-0.9,1.5c-0.9-0.8-2.1-1.4-3.2-1.4
							c-1.3,0-2,0.6-2,1.3c0,1,0.8,1.4,2.6,1.9c2.1,0.6,3.8,1.3,3.8,3.4c0,1.8-1.5,3.2-4.1,3.2C26.2,178.4,24.6,177.6,23.5,176.5z"
							/>
						<path class="st1" d="M36.4,178.2v-9.4H33v-1.7h8.6l0.3,1.7h-3.6v9.4H36.4z"/>
						<path class="st1" d="M43.3,178.2v-11.1h7.2v1.7h-5.3v2.8h4l0.3,1.7h-4.3v3.2h5.6v1.7H43.3z"/>
						<path class="st1" d="M56.4,178.2v-11.1h3.1c3.5,0,5.8,1.6,5.8,5.5c0,4-2.3,5.6-5.8,5.6H56.4z M58.3,176.5h1.5
							c2.6,0,3.7-1.2,3.7-3.9c0-2.6-1.2-3.8-3.8-3.8h-1.4V176.5z"/>
						<path class="st1" d="M67.3,178.2v-11.1h7.2v1.7h-5.3v2.8h4l0.3,1.7h-4.3v3.2h5.6v1.7H67.3z"/>
						<path class="st1" d="M80.4,178.2v-11.1h4c2.6,0,4.2,1,4.2,3.4c0,1.8-0.9,2.7-2.4,3.1l2.6,4.5l-1.8,0.3l-2.7-4.5h-2v4.4H80.4z
							 M82.2,172.2h2c1.6,0,2.4-0.4,2.4-1.7c0-1.2-0.8-1.7-2.4-1.7h-2V172.2z"/>
						<path class="st1" d="M90.9,178.2v-11.1h1.9v11.1H90.9z"/>
						<path class="st1" d="M95.4,178.2v-11.1h7.2v1.7h-5.3v2.8h4l0.3,1.7h-4.3v3.2h5.6v1.7H95.4z"/>
						<path class="st1" d="M103.8,176.5l1-1.4c0.9,0.9,2.2,1.7,3.6,1.7c1.4,0,2.3-0.5,2.3-1.4c0-1-0.7-1.4-2.5-2
							c-2.1-0.6-3.9-1.2-3.9-3.3c0-1.9,1.6-3.1,3.8-3.1c1.7,0,3.1,0.7,4.1,1.6l-0.9,1.5c-0.9-0.8-2.1-1.4-3.2-1.4
							c-1.3,0-2,0.6-2,1.3c0,1,0.8,1.4,2.6,1.9c2.1,0.6,3.8,1.3,3.8,3.4c0,1.8-1.5,3.2-4.1,3.2C106.5,178.4,104.9,177.6,103.8,176.5
							z"/>
						<path class="st1" d="M113.9,172.6c0-3.5,2-5.7,4.9-5.7c1.7,0,3.3,0.8,4.2,2.6l-1.6,0.9c-0.5-1.1-1.3-1.8-2.5-1.8
							c-1.4,0-3,0.9-3,3.9s1.5,4.2,3.1,4.2c1.5,0,2.5-0.9,2.6-2.5h-2.1l-0.3-1.5h4.2v5.5h-1.5v-1.2h0c-0.5,0.8-1.5,1.5-3.1,1.5
							C115.5,178.4,113.9,175.9,113.9,172.6z"/>
						<path class="st1" d="M125.1,172.6c0-3.7,2.3-5.8,5-5.8c2.7,0,5,2,5,5.8c0,3.7-2.3,5.8-5,5.8
							C127.4,178.4,125.1,176.4,125.1,172.6z M133.2,172.6c0-2.5-1.3-4-3.1-4c-1.9,0-3.1,1.5-3.1,4s1.3,4.1,3.1,4.1
							C132,176.7,133.2,175.2,133.2,172.6z"/>
						<path class="st1" d="M144.2,181.3c-2.4-2.1-3.8-4.3-3.8-7.3c0-2.9,1.4-5.2,3.8-7.3l0.8,0.9c-1.6,1.7-2.7,3.8-2.7,6.4
							c0,2.6,1.1,4.8,2.7,6.4L144.2,181.3z"/>
						<path class="st1" d="M146.4,170.4c0-2.1,1.1-3.5,2.8-3.5c1.7,0,2.8,1.4,2.8,3.5c0,2.1-1,3.5-2.8,3.5
							C147.4,173.9,146.4,172.5,146.4,170.4z M150.4,170.4c0-1.4-0.4-2.3-1.2-2.3c-0.9,0-1.2,0.9-1.2,2.2c0,1.4,0.4,2.3,1.3,2.3
							C150,172.7,150.4,171.8,150.4,170.4z M149.4,178.2l6.6-11.1h1.6l-6.6,11.1H149.4z M155,174.8c0-2.1,1.1-3.5,2.8-3.5
							c1.7,0,2.8,1.4,2.8,3.5c0,2.1-1,3.5-2.8,3.5S155,176.9,155,174.8z M159.1,174.8c0-1.4-0.4-2.3-1.2-2.3c-0.9,0-1.2,0.9-1.2,2.2
							c0,1.4,0.4,2.3,1.2,2.3C158.7,177.1,159.1,176.2,159.1,174.8z"/>
						<path class="st1" d="M161.9,180.4c1.6-1.6,2.7-3.9,2.7-6.4c0-2.5-1.1-4.7-2.7-6.4l0.9-0.9c2.4,2.1,3.8,4.3,3.8,7.3
							c0,2.9-1.4,5.2-3.8,7.3L161.9,180.4z"/>
					</g>
				</g>
			</g>
		</g>
	</g>
	<g>
		
			<image style="overflow:visible;enable-background:new    ;" width="122" height="16" xlink:href="7B466AE7CAC85039.jpg"  transform="matrix(-0.8043 0 0 -0.6359 400.7972 91.9685)">
		</image>
		
			<image style="overflow:visible;enable-background:new    ;" width="124" height="14" xlink:href="7B466AE7CAC8503B.jpg"  transform="matrix(0.7931 0 0 0.627 443.9195 103.8626)">
		</image>
		<g>
			<polygon class="st4" points="302.7,81.9 302.7,92 542.2,113.3 542.2,103.2 			"/>
		</g>
	</g>
	
		<image style="overflow:visible;enable-background:new    ;" width="124" height="14" xlink:href="7B466AE7CAC8503E.jpg"  transform="matrix(0.7931 0 0 0.6361 443.9456 193.3563)">
	</image>
	<g>
		<polygon class="st5" points="302.7,146.5 302.7,156.6 542.2,203 542.2,192.9 		"/>
	</g>
	<g>
		
			<image style="overflow:visible;enable-background:new    ;" width="124" height="11" xlink:href="7B466AE7CAC8503F.jpg"  transform="matrix(0.795 0 0 0.516 444.6108 17.5295)">
		</image>
		<g>
			<polygon class="st2" points="303.7,2.4 303.7,11.4 543.2,24.7 543.2,15.7 			"/>
		</g>
	</g>
</g>
</svg>
