<?xml version="1.0" encoding="utf-8"?>
<!-- Generator: Adobe Illustrator 19.2.1, SVG Export Plug-In . SVG Version: 6.00 Build 0)  -->
<svg version="1.1" id="Capa_1" xmlns="http://www.w3.org/2000/svg" xmlns:xlink="http://www.w3.org/1999/xlink" x="0px" y="0px"
	 viewBox="0 0 247 281" style="enable-background:new 0 0 247 281;" xml:space="preserve">
<style type="text/css">
	.st0{fill:none;}
	.st1{enable-background:new    ;}
	.st2{fill:#121212;}
	.st3{fill:#666666;}
	.st4{fill:#FF555F;}
	.st5{fill:#2ECDCD;}
	.st6{opacity:0.56;enable-background:new    ;}
	.st7{clip-path:url(#SVGID_2_);fill:#004481;}
	.st8{clip-path:url(#SVGID_2_);fill:#014481;}
	.st9{clip-path:url(#SVGID_2_);fill:#024481;}
	.st10{clip-path:url(#SVGID_2_);fill:#034481;}
	.st11{clip-path:url(#SVGID_2_);fill:#044480;}
	.st12{clip-path:url(#SVGID_2_);fill:#064580;}
	.st13{clip-path:url(#SVGID_2_);fill:#074580;}
	.st14{clip-path:url(#SVGID_2_);fill:#084580;}
	.st15{clip-path:url(#SVGID_2_);fill:#09457F;}
	.st16{clip-path:url(#SVGID_2_);fill:#0A457F;}
	.st17{clip-path:url(#SVGID_2_);fill:#0C457F;}
	.st18{clip-path:url(#SVGID_2_);fill:#0D457F;}
	.st19{fill:#FFFFFF;}
	.st20{fill:#F2F2F2;}
	.st21{clip-path:url(#SVGID_4_);fill:#004481;}
	.st22{clip-path:url(#SVGID_4_);fill:#014481;}
	.st23{clip-path:url(#SVGID_4_);fill:#024481;}
	.st24{clip-path:url(#SVGID_4_);fill:#034481;}
	.st25{clip-path:url(#SVGID_4_);fill:#044480;}
	.st26{clip-path:url(#SVGID_4_);fill:#064580;}
	.st27{clip-path:url(#SVGID_4_);fill:#074580;}
	.st28{clip-path:url(#SVGID_4_);fill:#084580;}
	.st29{clip-path:url(#SVGID_4_);fill:#09457F;}
	.st30{clip-path:url(#SVGID_4_);fill:#0A457F;}
	.st31{clip-path:url(#SVGID_4_);fill:#0C457F;}
	.st32{clip-path:url(#SVGID_4_);fill:#0D457F;}
	.st33{fill:#F25E61;}
	.st34{clip-path:url(#SVGID_6_);fill:#004481;}
	.st35{clip-path:url(#SVGID_6_);fill:#014481;}
	.st36{clip-path:url(#SVGID_6_);fill:#024481;}
	.st37{clip-path:url(#SVGID_6_);fill:#034481;}
	.st38{clip-path:url(#SVGID_6_);fill:#044480;}
	.st39{clip-path:url(#SVGID_6_);fill:#064580;}
	.st40{clip-path:url(#SVGID_6_);fill:#074580;}
	.st41{clip-path:url(#SVGID_6_);fill:#084580;}
	.st42{clip-path:url(#SVGID_6_);fill:#09457F;}
	.st43{clip-path:url(#SVGID_6_);fill:#0A457F;}
	.st44{clip-path:url(#SVGID_6_);fill:#0C457F;}
	.st45{clip-path:url(#SVGID_6_);fill:#0D457F;}
	.st46{clip-path:url(#SVGID_8_);fill:#004481;}
	.st47{clip-path:url(#SVGID_8_);fill:#014481;}
	.st48{clip-path:url(#SVGID_8_);fill:#024481;}
	.st49{clip-path:url(#SVGID_8_);fill:#034481;}
	.st50{clip-path:url(#SVGID_8_);fill:#044480;}
	.st51{clip-path:url(#SVGID_8_);fill:#064580;}
	.st52{clip-path:url(#SVGID_8_);fill:#074580;}
	.st53{clip-path:url(#SVGID_8_);fill:#084580;}
	.st54{clip-path:url(#SVGID_8_);fill:#09457F;}
	.st55{clip-path:url(#SVGID_8_);fill:#0A457F;}
	.st56{clip-path:url(#SVGID_8_);fill:#0C457F;}
	.st57{clip-path:url(#SVGID_8_);fill:#0D457F;}
</style>
<g>
	<line class="st0" x1="354.1" y1="285.9" x2="354.1" y2="288.9"/>
</g>
<g>
	<line class="st0" x1="354.1" y1="285.9" x2="354.1" y2="288.9"/>
</g>
<g class="st1">
	<path class="st2" d="M86.5,81.7c0-3.5,1.5-5.8,4.1-5.8s4,2.3,4,5.8s-1.4,5.8-4,5.8S86.5,85.2,86.5,81.7z M93.5,81.7
		c0-3.1-1.2-4.8-3-4.8c-1.9,0-3,1.7-3,4.8s1.2,4.8,3,4.8C92.4,86.5,93.5,84.9,93.5,81.7z"/>
	<path class="st2" d="M96,88.8l0.4-2.9h1.3l-1,2.9H96z"/>
	<path class="st2" d="M99.1,81.7c0-3.5,1.5-5.8,4.1-5.8s4,2.3,4,5.8s-1.4,5.8-4,5.8S99.1,85.2,99.1,81.7z M106.2,81.7
		c0-3.1-1.2-4.8-3-4.8c-1.9,0-3,1.7-3,4.8s1.2,4.8,3,4.8C105,86.5,106.2,84.9,106.2,81.7z"/>
	<path class="st2" d="M108.7,84.6c0-1.6,1.1-2.4,2.9-3.2c-1.5-0.7-2.4-1.4-2.4-2.7c0-1.4,1.3-2.7,3.4-2.7c2.2,0,3.4,1.3,3.4,2.7
		c0,1.3-0.9,2-2.5,2.7c1.9,0.8,3,1.6,3,3.2c0,1.6-1.5,2.9-3.9,2.9C110.1,87.5,108.7,86.2,108.7,84.6z M115.5,84.5c0-1.2-1-1.9-3-2.7
		c-2,0.9-2.9,1.5-2.9,2.7c0,1.2,1.2,2.1,2.9,2.1C114.3,86.6,115.5,85.8,115.5,84.5z M115,78.7c0-0.9-0.7-1.8-2.4-1.8
		c-1.6,0-2.4,0.9-2.4,1.8c0,1,0.8,1.6,2.5,2.3C114.3,80.2,115,79.7,115,78.7z"/>
</g>
<g>
	<g class="st1">
		<path class="st2" d="M22.4,49.1c0-3.5,1.5-5.8,4.1-5.8s4,2.3,4,5.8s-1.4,5.8-4,5.8S22.4,52.5,22.4,49.1z M29.5,49.1
			c0-3.1-1.2-4.8-3-4.8c-1.9,0-3,1.7-3,4.8s1.2,4.8,3,4.8C28.4,53.9,29.5,52.2,29.5,49.1z"/>
		<path class="st2" d="M32,56.1l0.4-2.9h1.3l-1,2.9H32z"/>
		<path class="st2" d="M38.1,54.6V44.5L36,45.2l-0.1-0.9l2.3-0.8h1v11.1H38.1z"/>
		<path class="st2" d="M42,54.6v-0.2c0-1.6,0.8-3.1,3.7-4.9c1.7-1.1,2.3-1.8,2.3-3c0-1.3-0.8-2.2-2.3-2.2c-1.2,0-2.1,0.6-2.8,1.9
			l-0.8-0.5c0.8-1.5,2-2.4,3.6-2.4c2,0,3.3,1.3,3.3,3c0,1.5-0.7,2.5-2.9,3.8c-2,1.3-3,2.5-3.1,3.5h5.9l0.1,1H42z"/>
		<path class="st2" d="M51.3,53.8l0.5-0.8c0.7,0.6,1.2,0.9,2.4,0.9c2,0,3.3-2.2,3.3-4.9c-0.7,0.8-1.7,1.5-3.1,1.5
			c-2.3,0-3.5-1.5-3.5-3.5c0-2.1,1.4-3.7,3.7-3.7c2.2,0,3.9,1.8,3.9,5.6c0,3.4-1.8,6-4.3,6C52.8,54.8,51.9,54.4,51.3,53.8z
			 M57.4,47.9c-0.2-2.5-1.5-3.7-2.9-3.7c-1.6,0-2.6,1-2.6,2.7c0,1.5,0.8,2.6,2.5,2.6C55.6,49.6,56.7,48.9,57.4,47.9z"/>
	</g>
</g>
<g>
	<g class="st1">
		<path class="st3" d="M22.3,221.7l2.6-7.4h0.8l2.6,7.4l-0.7,0.1l-0.8-2.3h-3l-0.8,2.3H22.3z M24,218.7h2.6l-1.3-3.7h0L24,218.7z"/>
		<path class="st3" d="M30.6,221.7v-7.4h2.6c1.7,0,2.5,0.7,2.5,1.9c0,1-0.6,1.5-1.4,1.7v0c0.9,0.2,1.6,0.7,1.6,1.8
			c0,1.2-0.8,2-2.5,2H30.6z M31.3,217.5h1.8c1.2,0,1.9-0.4,1.9-1.3c0-0.9-0.6-1.3-1.8-1.3h-1.8V217.5z M31.3,221h2.1
			c1.3,0,1.8-0.5,1.8-1.4c0-1-0.8-1.4-2.1-1.4h-1.9V221z"/>
		<path class="st3" d="M38.5,221.7v-7.4H41c1.6,0,2.6,0.7,2.6,2c0,1.2-0.7,1.8-1.8,2l1.9,3.3l-0.7,0.1l-1.9-3.4h-1.8v3.3H38.5z
			 M39.2,217.7h1.7c1.2,0,1.9-0.4,1.9-1.4c0-1-0.7-1.4-1.9-1.4h-1.7V217.7z"/>
		<path class="st3" d="M45.9,218.8v-0.6h2.2v0.6H45.9z"/>
		<path class="st3" d="M51.5,221.7v-6.7l-1.4,0.5l-0.1-0.6l1.5-0.5h0.6v7.4H51.5z"/>
		<path class="st3" d="M55.1,218.1c0-2.3,1.2-4,2.9-4c0.8,0,1.3,0.2,1.7,0.6l-0.3,0.6c-0.4-0.3-0.8-0.5-1.4-0.5
			c-1.4,0-2.2,1.4-2.2,3.3c0.5-0.5,1.2-1,2.1-1c1.6,0,2.3,1,2.3,2.3c0,1.4-0.9,2.5-2.5,2.5C56.3,221.8,55.1,220.6,55.1,218.1z
			 M59.5,219.3c0-1-0.5-1.7-1.7-1.7c-0.8,0-1.5,0.4-2,1.1c0.1,1.7,1,2.5,1.9,2.5C58.8,221.2,59.5,220.5,59.5,219.3z"/>
	</g>
</g>
<g>
	<g class="st1">
		<path class="st3" d="M84.8,221l0.4-0.5c0.3,0.4,0.7,0.7,1.3,0.7c0.7,0,1.2-0.4,1.2-1.5v-5.4h0.7v5.4c0,1.4-0.7,2.1-1.9,2.1
			C85.7,221.8,85.1,221.5,84.8,221z"/>
		<path class="st3" d="M91.2,219.2v-4.9h0.7v4.8c0,1.2,0.6,2.1,2,2.1c1.4,0,2-0.9,2-2.1v-4.8h0.7v4.9c0,1.5-0.9,2.7-2.7,2.7
			C92.1,221.8,91.2,220.6,91.2,219.2z"/>
		<path class="st3" d="M99.4,221.7v-7.4h0.7v6.7h3.6l0.1,0.6H99.4z"/>
		<path class="st3" d="M105.1,218.8v-0.6h2.2v0.6H105.1z"/>
		<path class="st3" d="M110.7,221.7v-6.7l-1.4,0.5l-0.1-0.6l1.5-0.5h0.6v7.4H110.7z"/>
		<path class="st3" d="M114.2,218.1c0-2.3,1.2-4,2.9-4c0.8,0,1.3,0.2,1.7,0.6l-0.3,0.6c-0.4-0.3-0.8-0.5-1.4-0.5
			c-1.4,0-2.2,1.4-2.2,3.3c0.5-0.5,1.2-1,2.1-1c1.6,0,2.3,1,2.3,2.3c0,1.4-0.9,2.5-2.5,2.5C115.4,221.8,114.2,220.6,114.2,218.1z
			 M118.7,219.3c0-1-0.5-1.7-1.7-1.7c-0.8,0-1.5,0.4-2,1.1c0.1,1.7,1,2.5,1.9,2.5C118,221.2,118.7,220.5,118.7,219.3z"/>
	</g>
</g>
<g>
	<g class="st1">
		<path class="st3" d="M144.6,218c0-2.3,1.3-3.8,3.1-3.8c1.8,0,3.1,1.5,3.1,3.8c0,2.3-1.3,3.8-3.1,3.8
			C146,221.8,144.6,220.3,144.6,218z M150.2,218c0-2-1-3.2-2.4-3.2s-2.4,1.2-2.4,3.2s1,3.2,2.4,3.2S150.2,220,150.2,218z"/>
		<path class="st3" d="M153.1,217.9c0-2.2,1.2-3.8,3.1-3.8c1.3,0,2.1,0.6,2.5,1.6l-0.6,0.3c-0.4-0.8-0.9-1.3-1.9-1.3
			c-1.4,0-2.3,1.3-2.3,3.1c0,2,0.9,3.2,2.4,3.2c1,0,1.7-0.5,2.1-1.5l0.6,0.3c-0.4,1.1-1.3,1.8-2.7,1.8
			C154.3,221.8,153.1,220.3,153.1,217.9z"/>
		<path class="st3" d="M162.9,221.7v-6.7h-2.4v-0.7h5.4l0.1,0.7h-2.4v6.7H162.9z"/>
		<path class="st3" d="M167,218.8v-0.6h2.2v0.6H167z"/>
		<path class="st3" d="M172.6,221.7v-6.7l-1.4,0.5l-0.1-0.6l1.5-0.5h0.6v7.4H172.6z"/>
		<path class="st3" d="M176.1,218.1c0-2.3,1.2-4,2.9-4c0.8,0,1.3,0.2,1.7,0.6l-0.3,0.6c-0.4-0.3-0.8-0.5-1.4-0.5
			c-1.4,0-2.2,1.4-2.2,3.3c0.5-0.5,1.2-1,2.1-1c1.6,0,2.3,1,2.3,2.3c0,1.4-0.9,2.5-2.5,2.5C177.3,221.8,176.1,220.6,176.1,218.1z
			 M180.6,219.3c0-1-0.5-1.7-1.7-1.7c-0.8,0-1.5,0.4-2,1.1c0.1,1.7,1,2.5,1.9,2.5C179.9,221.2,180.6,220.5,180.6,219.3z"/>
	</g>
</g>
<g>
	<g class="st1">
		<path class="st3" d="M206.9,221.7v-7.4h4.4v0.7h-3.7v2.5h2.8l0.1,0.6h-2.9v2.9h3.9v0.6H206.9z"/>
		<path class="st3" d="M214,221.7v-7.4h0.8l4.1,6.1h0v-6.1h0.7v7.4h-0.6l-4.2-6.3h0v6.3H214z"/>
		<path class="st3" d="M222.4,221.7v-7.4h4.4v0.7h-3.7v2.5h2.8l0.1,0.6h-2.9v2.9h3.9v0.6H222.4z"/>
		<path class="st3" d="M228.9,218.8v-0.6h2.2v0.6H228.9z"/>
		<path class="st3" d="M234.5,221.7v-6.7l-1.4,0.5l-0.1-0.6l1.5-0.5h0.6v7.4H234.5z"/>
		<path class="st3" d="M238.6,221.6l3.1-6.7h-3.8l0-0.6h4.6v0.6l-3.1,6.8L238.6,221.6z"/>
	</g>
</g>
<g>
	<g>
		<g>
			<g class="st1">
				<path class="st3" d="M193.8,274.3v-9.6h5.7v0.9h-4.8v3.3h3.6l0.1,0.8h-3.7v3.8h5.1v0.8H193.8z"/>
				<path class="st3" d="M201.9,274.3v-6.1h-1.2v-0.8h1.2v-1c0-1.2,0.7-1.8,2-1.8c0.1,0,0.4,0,0.5,0l0.1,0.7c-0.1,0-0.4,0-0.5,0
					c-0.7,0-1.1,0.2-1.1,1v1.1h1.5v0.8h-1.5v6.1H201.9z"/>
				<path class="st3" d="M205.1,270.9c0-2.4,1.6-3.5,3-3.5c1.6,0,2.8,1.2,2.8,3.6v0.2H206c0,1.7,1,2.6,2.2,2.6c0.9,0,1.6-0.4,2.2-1
					l0.4,0.6c-0.8,0.8-1.5,1.2-2.7,1.2C206.5,274.5,205.1,273.2,205.1,270.9z M210,270.4c-0.1-1.3-0.7-2.3-1.9-2.3
					c-1,0-1.9,0.7-2.1,2.3H210z"/>
				<path class="st3" d="M212.2,270.9c0-2.5,1.5-3.6,3.1-3.6c1.2,0,2.1,0.7,2.5,1.6l-0.7,0.4c-0.4-0.8-0.9-1.3-1.8-1.3
					c-1,0-2.1,0.8-2.1,2.8c0,1.8,0.9,2.8,2.1,2.8c0.9,0,1.5-0.5,1.9-1.3l0.7,0.4c-0.6,1.1-1.4,1.7-2.6,1.7
					C213.6,274.5,212.2,273.2,212.2,270.9z"/>
				<path class="st3" d="M219.9,272.7v-4.5h-1.2v-0.8h1.2v-2.4l0.9-0.1v2.5h1.8v0.8h-1.8v4.3c0,0.7,0.3,1.1,1.1,1.1
					c0.2,0,0.5,0,0.7-0.1l0.1,0.8c-0.2,0-0.6,0.1-0.9,0.1C220.5,274.4,219.9,273.9,219.9,272.7z"/>
				<path class="st3" d="M224.2,265.4c0-0.3,0.2-0.5,0.5-0.5s0.5,0.2,0.5,0.5c0,0.4-0.2,0.6-0.5,0.6S224.2,265.7,224.2,265.4z
					 M224.3,274.3v-6.8h0.9v6.8H224.3z"/>
				<path class="st3" d="M229.2,274.3l-2.5-6.8l0.9-0.2l2.1,5.9h0l2-5.8h0.9l-2.5,6.9H229.2z"/>
				<path class="st3" d="M233.2,270.9c0-2.3,1.4-3.6,3.1-3.6c1.7,0,3.1,1.3,3.1,3.6c0,2.3-1.4,3.6-3.1,3.6S233.2,273.2,233.2,270.9z
					 M238.5,270.9c0-1.5-0.8-2.8-2.2-2.8c-1.4,0-2.2,1.2-2.2,2.8c0,1.5,0.7,2.8,2.2,2.8C237.7,273.7,238.5,272.5,238.5,270.9z"/>
			</g>
		</g>
		<g>
			<polygon class="st4" points="170.7,275 180.4,275 185.2,265.3 175.5,265.3 			"/>
		</g>
	</g>
	<g>
		<g>
			<g class="st1">
				<path class="st3" d="M27.4,274.3v-9.6h2.4c3.1,0,4.8,1.6,4.8,4.8s-1.7,4.8-4.8,4.8H27.4z M28.3,273.5H30c2.4,0,3.7-1.2,3.7-4
					c0-2.7-1.3-4-3.7-4h-1.6V273.5z"/>
				<path class="st3" d="M36.4,265.4c0-0.3,0.2-0.5,0.5-0.5s0.5,0.2,0.5,0.5c0,0.4-0.2,0.6-0.5,0.6S36.4,265.7,36.4,265.4z
					 M36.5,274.3v-6.8h0.9v6.8H36.5z"/>
				<path class="st3" d="M41.4,274.3l-2.5-6.8l0.9-0.2l2.1,5.9h0l2-5.8h0.9l-2.5,6.9H41.4z"/>
				<path class="st3" d="M46.1,265.4c0-0.3,0.2-0.5,0.5-0.5s0.5,0.2,0.5,0.5c0,0.4-0.2,0.6-0.5,0.6S46.1,265.7,46.1,265.4z
					 M46.2,274.3v-6.8h0.9v6.8H46.2z"/>
				<path class="st3" d="M48.9,270.9c0-2.4,1.3-3.6,2.8-3.6c0.9,0,1.7,0.5,2.3,1.1v-3.7l0.9-0.1v9.7h-0.8l-0.1-1
					c-0.5,0.6-1.3,1.1-2.3,1.1C50.2,274.4,48.9,273.3,48.9,270.9z M54,272.5v-3.3c-0.7-0.7-1.3-1.1-2.2-1.1c-1.1,0-2.1,0.9-2.1,2.8
					c0,1.9,0.9,2.8,2.1,2.8C52.7,273.7,53.3,273.2,54,272.5z"/>
				<path class="st3" d="M56.6,270.9c0-2.4,1.6-3.5,3-3.5c1.6,0,2.8,1.2,2.8,3.6v0.2h-4.9c0,1.7,1,2.6,2.2,2.6c0.9,0,1.6-0.4,2.2-1
					l0.4,0.6c-0.8,0.8-1.5,1.2-2.7,1.2C58,274.5,56.6,273.2,56.6,270.9z M61.5,270.4c-0.1-1.3-0.7-2.3-1.9-2.3c-1,0-1.9,0.7-2.1,2.3
					H61.5z"/>
				<path class="st3" d="M64.1,274.3v-6.8h0.8l0.1,1.1c0.7-0.7,1.5-1.2,2.6-1.2c1.4,0,2.1,0.7,2.1,2v5h-0.9v-4.8
					c0-1-0.4-1.4-1.4-1.4c-0.9,0-1.6,0.5-2.4,1.2v5H64.1z"/>
				<path class="st3" d="M71.3,270.9c0-2.4,1.3-3.6,2.8-3.6c0.9,0,1.7,0.5,2.3,1.1v-3.7l0.9-0.1v9.7h-0.8l-0.1-1
					c-0.5,0.6-1.3,1.1-2.3,1.1C72.5,274.4,71.3,273.3,71.3,270.9z M76.4,272.5v-3.3c-0.7-0.7-1.3-1.1-2.2-1.1
					c-1.1,0-2.1,0.9-2.1,2.8c0,1.9,0.9,2.8,2.1,2.8C75.1,273.7,75.7,273.2,76.4,272.5z"/>
				<path class="st3" d="M79,270.9c0-2.3,1.4-3.6,3.1-3.6c1.7,0,3.1,1.3,3.1,3.6c0,2.3-1.4,3.6-3.1,3.6
					C80.4,274.5,79,273.2,79,270.9z M84.3,270.9c0-1.5-0.8-2.8-2.2-2.8c-1.4,0-2.2,1.2-2.2,2.8c0,1.5,0.7,2.8,2.2,2.8
					C83.5,273.7,84.3,272.5,84.3,270.9z"/>
				<path class="st3" d="M86.7,270.6v-0.8h2.9v0.8H86.7z"/>
				<path class="st3" d="M91.1,270.9c0-2.3,1.4-3.6,3.1-3.6c1.7,0,3.1,1.3,3.1,3.6c0,2.3-1.4,3.6-3.1,3.6
					C92.5,274.5,91.1,273.2,91.1,270.9z M96.4,270.9c0-1.5-0.8-2.8-2.2-2.8c-1.4,0-2.2,1.2-2.2,2.8c0,1.5,0.7,2.8,2.2,2.8
					C95.6,273.7,96.4,272.5,96.4,270.9z"/>
				<path class="st3" d="M99,277v-9.5h0.8l0.1,1c0.5-0.6,1.3-1.1,2.3-1.1c1.6,0,2.8,1.2,2.8,3.5c0,2.4-1.3,3.5-2.8,3.5
					c-0.9,0-1.7-0.4-2.3-1.1v3.5L99,277z M104.1,270.9c0-1.9-0.9-2.8-2.1-2.8c-0.8,0-1.4,0.4-2.1,1.1v3.4c0.7,0.7,1.3,1.1,2.2,1.1
					C103.2,273.7,104.1,272.9,104.1,270.9z"/>
				<path class="st3" d="M106.3,270.9c0-2.5,1.5-3.6,3.1-3.6c1.2,0,2.1,0.7,2.5,1.6l-0.7,0.4c-0.4-0.8-0.9-1.3-1.8-1.3
					c-1,0-2.1,0.8-2.1,2.8c0,1.8,0.9,2.8,2.1,2.8c0.9,0,1.5-0.5,1.9-1.3l0.7,0.4c-0.6,1.1-1.4,1.7-2.6,1.7
					C107.7,274.5,106.3,273.2,106.3,270.9z"/>
				<path class="st3" d="M113.6,265.4c0-0.3,0.2-0.5,0.5-0.5s0.5,0.2,0.5,0.5c0,0.4-0.2,0.6-0.5,0.6S113.6,265.7,113.6,265.4z
					 M113.7,274.3v-6.8h0.9v6.8H113.7z"/>
				<path class="st3" d="M116.3,270.9c0-2.3,1.4-3.6,3.1-3.6c1.7,0,3.1,1.3,3.1,3.6c0,2.3-1.4,3.6-3.1,3.6
					C117.8,274.5,116.3,273.2,116.3,270.9z M121.6,270.9c0-1.5-0.8-2.8-2.2-2.8c-1.4,0-2.2,1.2-2.2,2.8c0,1.5,0.7,2.8,2.2,2.8
					C120.8,273.7,121.6,272.5,121.6,270.9z M120.2,264.7h1.2l-1.8,2H119L120.2,264.7z"/>
				<path class="st3" d="M124.2,274.3v-6.8h0.8l0.1,1.1c0.7-0.7,1.5-1.2,2.6-1.2c1.4,0,2.1,0.7,2.1,2v5h-0.9v-4.8
					c0-1-0.4-1.4-1.4-1.4c-0.9,0-1.6,0.5-2.4,1.2v5H124.2z"/>
			</g>
		</g>
		<g>
			<polygon class="st5" points="4.3,275 14,275 18.8,265.3 9.1,265.3 			"/>
		</g>
	</g>
</g>
<g>
	<g>
		<g class="st6">
			<g>
				<defs>
					<polygon id="SVGID_1_" points="41.3,196.9 56.3,189.4 15,172.7 -0.1,180.2 					"/>
				</defs>
				<clipPath id="SVGID_2_">
					<use xlink:href="#SVGID_1_"  style="overflow:visible;"/>
				</clipPath>
				<polygon class="st7" points="48.7,196.9 53.5,186 56.3,187.2 56.3,196.9 				"/>
				<polygon class="st7" points="47.7,196.9 52.6,185.6 53.5,186 48.7,196.9 				"/>
				<polygon class="st8" points="46.6,196.9 51.7,185.2 52.6,185.6 47.7,196.9 				"/>
				<polygon class="st8" points="44.4,196.9 49.8,184.4 51.7,185.2 46.6,196.9 				"/>
				<polygon class="st9" points="42.1,196.9 47.9,183.6 49.8,184.4 44.4,196.9 				"/>
				<polygon class="st10" points="39.9,196.9 46,182.7 47.9,183.6 42.1,196.9 				"/>
				<polygon class="st11" points="37.6,196.9 44.1,181.9 46,182.7 39.9,196.9 				"/>
				<polygon class="st12" points="35.4,196.9 42.2,181.1 44.1,181.9 37.6,196.9 				"/>
				<polygon class="st13" points="33.3,196.9 33.1,196.8 40.3,180.3 42.2,181.1 35.4,196.9 				"/>
				
					<rect x="26.8" y="187.1" transform="matrix(0.3987 -0.9171 0.9171 0.3987 -151.02 145.9542)" class="st14" width="18.1" height="2.1"/>
				
					<rect x="24.9" y="186.3" transform="matrix(0.3987 -0.9171 0.9171 0.3987 -151.4028 143.7265)" class="st15" width="18.1" height="2.1"/>
				
					<rect x="23" y="185.5" transform="matrix(0.3987 -0.9171 0.9171 0.3987 -151.7857 141.4988)" class="st16" width="18.1" height="2.1"/>
				
					<rect x="17.8" y="179.6" transform="matrix(0.3987 -0.9171 0.9171 0.3987 -152.8396 135.3669)" class="st16" width="18.1" height="9.3"/>
				<polygon class="st17" points="19,190.7 10.4,187 16.6,172.7 22.9,172.7 26.2,174.1 				"/>
				<polygon class="st18" points="10.4,187 1.9,183.3 6.5,172.7 16.6,172.7 				"/>
				<polygon class="st18" points="1.9,183.3 -0.1,182.4 -0.1,172.7 6.5,172.7 				"/>
			</g>
		</g>
	</g>
	<g>
		<g>
			<polygon class="st5" points="40.7,197.1 56.6,189.2 56.6,123.2 40.7,131.1 			"/>
		</g>
		<g>
			<polygon class="st19" points="40.7,81.3 56.7,73.3 40.7,66.9 24.8,74.9 			"/>
		</g>
		<g>
			<polygon class="st5" points="40.7,81.3 40.7,131.1 56.6,123.2 56.6,73.3 			"/>
		</g>
	</g>
	<g>
		<polygon class="st20" points="40.8,81.3 56.6,73.3 40.8,67 25,74.9 		"/>
	</g>
</g>
<g>
	<g>
		<g class="st6">
			<g>
				<defs>
					<polygon id="SVGID_3_" points="103.9,196.9 119,189.4 77.6,172.7 62.5,180.2 					"/>
				</defs>
				<clipPath id="SVGID_4_">
					<use xlink:href="#SVGID_3_"  style="overflow:visible;"/>
				</clipPath>
				<polygon class="st21" points="111.3,196.9 116.1,186 119,187.2 119,196.9 				"/>
				<polygon class="st21" points="110.3,196.9 115.2,185.6 116.1,186 111.3,196.9 				"/>
				<polygon class="st22" points="109.2,196.9 114.3,185.2 115.2,185.6 110.3,196.9 				"/>
				<polygon class="st22" points="107,196.9 112.4,184.4 114.3,185.2 109.2,196.9 				"/>
				<polygon class="st23" points="104.7,196.9 110.5,183.5 112.4,184.4 107,196.9 				"/>
				<polygon class="st24" points="102.5,196.9 108.7,182.7 110.5,183.5 104.7,196.9 				"/>
				<polygon class="st25" points="100.2,196.9 106.8,181.9 108.7,182.7 102.5,196.9 				"/>
				<polygon class="st26" points="98,196.9 104.9,181.1 106.8,181.9 100.2,196.9 				"/>
				<polygon class="st27" points="95.9,196.9 95.8,196.8 103,180.3 104.9,181.1 98,196.9 				"/>
				
					<rect x="89.4" y="187.1" transform="matrix(0.3987 -0.9171 0.9171 0.3987 -113.3536 203.3892)" class="st28" width="18.1" height="2.1"/>
				
					<rect x="87.5" y="186.3" transform="matrix(0.3987 -0.9171 0.9171 0.3987 -113.7364 201.1615)" class="st29" width="18.1" height="2.1"/>
				
					<rect x="85.6" y="185.5" transform="matrix(0.3987 -0.9171 0.9171 0.3987 -114.1193 198.9338)" class="st30" width="18.1" height="2.1"/>
				
					<rect x="80.4" y="179.6" transform="matrix(0.3987 -0.9171 0.9171 0.3987 -115.1732 192.8019)" class="st30" width="18.1" height="9.3"/>
				<polygon class="st31" points="81.6,190.7 73.1,187 79.3,172.7 85.6,172.7 88.8,174.1 				"/>
				<polygon class="st32" points="73.1,187 64.5,183.3 69.1,172.7 79.3,172.7 				"/>
				<polygon class="st32" points="64.5,183.3 62.5,182.4 62.5,172.7 69.1,172.7 				"/>
			</g>
		</g>
	</g>
	<g>
		<g>
			<polygon class="st33" points="103.3,197.1 119.3,189.2 119.3,112.5 103.3,120.5 			"/>
		</g>
		<g>
			<polygon class="st19" points="103.3,120.5 119.3,112.5 103.4,106.1 87.4,114.1 			"/>
		</g>
	</g>
	<g>
		<polygon class="st20" points="103.4,120.5 119.2,112.5 103.4,106.2 87.6,114.1 		"/>
	</g>
</g>
<g class="st1">
	<path class="st2" d="M149.1,81.7c0-3.5,1.5-5.8,4.1-5.8c2.6,0,4,2.3,4,5.8s-1.4,5.8-4,5.8C150.6,87.5,149.1,85.2,149.1,81.7z
		 M156.2,81.7c0-3.1-1.2-4.8-3-4.8c-1.9,0-3,1.7-3,4.8s1.2,4.8,3,4.8C155.1,86.5,156.2,84.9,156.2,81.7z"/>
	<path class="st2" d="M158.7,88.8l0.4-2.9h1.3l-1,2.9H158.7z"/>
	<path class="st2" d="M161.8,81.7c0-3.5,1.5-5.8,4.1-5.8c2.6,0,4,2.3,4,5.8s-1.4,5.8-4,5.8C163.2,87.5,161.8,85.2,161.8,81.7z
		 M168.8,81.7c0-3.1-1.2-4.8-3-4.8c-1.9,0-3,1.7-3,4.8s1.2,4.8,3,4.8C167.7,86.5,168.8,84.9,168.8,81.7z"/>
	<path class="st2" d="M171.3,84.6c0-1.6,1.1-2.4,2.9-3.2c-1.5-0.7-2.4-1.4-2.4-2.7c0-1.4,1.3-2.7,3.4-2.7c2.2,0,3.4,1.3,3.4,2.7
		c0,1.3-0.9,2-2.5,2.7c1.9,0.8,3,1.6,3,3.2c0,1.6-1.5,2.9-3.9,2.9C172.8,87.5,171.3,86.2,171.3,84.6z M178.2,84.5c0-1.2-1-1.9-3-2.7
		c-2,0.9-2.8,1.5-2.8,2.7c0,1.2,1.2,2.1,2.9,2.1C177,86.6,178.2,85.8,178.2,84.5z M177.7,78.7c0-0.9-0.7-1.8-2.4-1.8
		c-1.6,0-2.4,0.9-2.4,1.8c0,1,0.8,1.6,2.5,2.3C177,80.2,177.7,79.7,177.7,78.7z"/>
</g>
<g>
	<g>
		<g class="st6">
			<g>
				<defs>
					<polygon id="SVGID_5_" points="166.6,196.9 181.6,189.4 140.3,172.7 125.2,180.2 					"/>
				</defs>
				<clipPath id="SVGID_6_">
					<use xlink:href="#SVGID_5_"  style="overflow:visible;"/>
				</clipPath>
				<polygon class="st34" points="174,196.9 178.7,186 181.6,187.2 181.6,196.9 				"/>
				<polygon class="st34" points="172.9,196.9 177.9,185.6 178.7,186 174,196.9 				"/>
				<polygon class="st35" points="171.9,196.9 177,185.2 177.9,185.6 172.9,196.9 				"/>
				<polygon class="st35" points="169.6,196.9 175.1,184.4 177,185.2 171.9,196.9 				"/>
				<polygon class="st36" points="167.4,196.9 173.2,183.6 175.1,184.4 169.6,196.9 				"/>
				<polygon class="st37" points="165.2,196.9 171.3,182.7 173.2,183.6 167.4,196.9 				"/>
				<polygon class="st38" points="162.9,196.9 169.4,181.9 171.3,182.7 165.2,196.9 				"/>
				<polygon class="st39" points="160.7,196.9 167.5,181.1 169.4,181.9 162.9,196.9 				"/>
				<polygon class="st40" points="158.6,196.9 158.4,196.8 165.6,180.3 167.5,181.1 160.7,196.9 				"/>
				
					<rect x="152.1" y="187.1" transform="matrix(0.3987 -0.9171 0.9171 0.3987 -75.681 260.8602)" class="st41" width="18.1" height="2.1"/>
				
					<rect x="150.2" y="186.3" transform="matrix(0.3987 -0.9171 0.9171 0.3987 -76.0638 258.6325)" class="st42" width="18.1" height="2.1"/>
				
					<rect x="148.3" y="185.5" transform="matrix(0.3987 -0.9171 0.9171 0.3987 -76.4467 256.4048)" class="st43" width="18.1" height="2.1"/>
				
					<rect x="143.1" y="179.6" transform="matrix(0.3987 -0.9171 0.9171 0.3987 -77.5006 250.2729)" class="st43" width="18.1" height="9.3"/>
				<polygon class="st44" points="144.3,190.7 135.7,187 141.9,172.7 148.2,172.7 151.5,174.1 				"/>
				<polygon class="st45" points="135.7,187 127.2,183.3 131.8,172.7 141.9,172.7 				"/>
				<polygon class="st45" points="127.2,183.3 125.2,182.4 125.2,172.7 131.8,172.7 				"/>
			</g>
		</g>
	</g>
	<g>
		<g>
			<polygon class="st5" points="166,197.1 181.9,189.2 181.9,112.5 166,120.5 			"/>
		</g>
		<g>
			<polygon class="st19" points="166,120.5 181.9,112.5 166,106.1 150.1,114.1 			"/>
		</g>
	</g>
	<g>
		<polygon class="st20" points="166.1,120.5 181.9,112.5 166.1,106.2 150.3,114.1 		"/>
	</g>
</g>
<g class="st1">
	<path class="st2" d="M208.1,81.7c0-3.5,1.5-5.8,4.1-5.8c2.6,0,4,2.3,4,5.8s-1.4,5.8-4,5.8C209.6,87.5,208.1,85.2,208.1,81.7z
		 M215.2,81.7c0-3.1-1.2-4.8-3-4.8c-1.9,0-3,1.7-3,4.8s1.2,4.8,3,4.8C214.1,86.5,215.2,84.9,215.2,81.7z"/>
	<path class="st2" d="M217.7,88.8l0.4-2.9h1.3l-1,2.9H217.7z"/>
	<path class="st2" d="M220.8,81.7c0-3.5,1.5-5.8,4.1-5.8c2.6,0,4,2.3,4,5.8s-1.4,5.8-4,5.8C222.2,87.5,220.8,85.2,220.8,81.7z
		 M227.8,81.7c0-3.1-1.2-4.8-3-4.8c-1.9,0-3,1.7-3,4.8s1.2,4.8,3,4.8C226.7,86.5,227.8,84.9,227.8,81.7z"/>
	<path class="st2" d="M230.3,84.6c0-1.6,1.1-2.4,2.9-3.2c-1.5-0.7-2.4-1.4-2.4-2.7c0-1.4,1.3-2.7,3.4-2.7c2.2,0,3.4,1.3,3.4,2.7
		c0,1.3-0.9,2-2.5,2.7c1.9,0.8,3,1.6,3,3.2c0,1.6-1.5,2.9-3.9,2.9C231.8,87.5,230.3,86.2,230.3,84.6z M237.2,84.5c0-1.2-1-1.9-3-2.7
		c-2,0.9-2.8,1.5-2.8,2.7c0,1.2,1.2,2.1,2.9,2.1C236,86.6,237.2,85.8,237.2,84.5z M236.7,78.7c0-0.9-0.7-1.8-2.4-1.8
		c-1.6,0-2.4,0.9-2.4,1.8c0,1,0.8,1.6,2.5,2.3C236,80.2,236.7,79.7,236.7,78.7z"/>
</g>
<g>
	<g>
		<g class="st6">
			<g>
				<defs>
					<polygon id="SVGID_7_" points="225.6,196.9 240.6,189.4 199.3,172.7 184.2,180.2 					"/>
				</defs>
				<clipPath id="SVGID_8_">
					<use xlink:href="#SVGID_7_"  style="overflow:visible;"/>
				</clipPath>
				<polygon class="st46" points="233,196.9 237.7,186 240.6,187.2 240.6,196.9 				"/>
				<polygon class="st46" points="231.9,196.9 236.9,185.6 237.7,186 233,196.9 				"/>
				<polygon class="st47" points="230.9,196.9 236,185.2 236.9,185.6 231.9,196.9 				"/>
				<polygon class="st47" points="228.6,196.9 234.1,184.4 236,185.2 230.9,196.9 				"/>
				<polygon class="st48" points="226.4,196.9 232.2,183.6 234.1,184.4 228.6,196.9 				"/>
				<polygon class="st49" points="224.2,196.9 230.3,182.7 232.2,183.6 226.4,196.9 				"/>
				<polygon class="st50" points="221.9,196.9 228.4,181.9 230.3,182.7 224.2,196.9 				"/>
				<polygon class="st51" points="219.7,196.9 226.5,181.1 228.4,181.9 221.9,196.9 				"/>
				<polygon class="st52" points="217.6,196.9 217.4,196.8 224.6,180.3 226.5,181.1 219.7,196.9 				"/>
				
					<rect x="211.1" y="187.1" transform="matrix(0.3987 -0.9171 0.9171 0.3987 -40.2059 314.9673)" class="st53" width="18.1" height="2.1"/>
				
					<rect x="209.2" y="186.3" transform="matrix(0.3987 -0.9171 0.9171 0.3987 -40.5887 312.7396)" class="st54" width="18.1" height="2.1"/>
				
					<rect x="207.3" y="185.5" transform="matrix(0.3987 -0.9171 0.9171 0.3987 -40.9716 310.5119)" class="st55" width="18.1" height="2.1"/>
				
					<rect x="202.1" y="179.6" transform="matrix(0.3987 -0.9171 0.9171 0.3987 -42.0255 304.38)" class="st55" width="18.1" height="9.3"/>
				<polygon class="st56" points="203.3,190.7 194.7,187 200.9,172.7 207.2,172.7 210.5,174.1 				"/>
				<polygon class="st57" points="194.7,187 186.2,183.3 190.8,172.7 200.9,172.7 				"/>
				<polygon class="st57" points="186.2,183.3 184.2,182.4 184.2,172.7 190.8,172.7 				"/>
			</g>
		</g>
	</g>
	<g>
		<g>
			<polygon class="st33" points="225,197.1 240.9,189.2 240.9,112.5 225,120.5 			"/>
		</g>
		<g>
			<polygon class="st19" points="225,120.5 240.9,112.5 225,106.1 209.1,114.1 			"/>
		</g>
	</g>
	<g>
		<polygon class="st20" points="225.1,120.5 240.9,112.5 225.1,106.2 209.3,114.1 		"/>
	</g>
</g>
<g>
	<g class="st1">
		<path class="st3" d="M58.7,10.7V1h5.7v0.9h-4.8v3.3h3.6L63.4,6h-3.7v3.8h5.1v0.8H58.7z"/>
		<path class="st3" d="M66.2,8.8v-5h0.9v4.8c0,1,0.4,1.4,1.4,1.4c0.9,0,1.6-0.5,2.4-1.2v-5h0.9v6.8H71l-0.1-1.1
			c-0.7,0.7-1.6,1.2-2.6,1.2C66.9,10.8,66.2,10.1,66.2,8.8z"/>
		<path class="st3" d="M73.8,10.7V3.8h0.8l0.1,1.3h0c0.5-0.8,1.4-1.5,2.7-1.5h0.1l0.1,0.8c0,0-0.3,0-0.3,0c-1.1,0-2,0.6-2.6,1.7v4.5
			H73.8z"/>
		<path class="st3" d="M78.2,7.2c0-2.3,1.4-3.6,3.1-3.6c1.7,0,3.1,1.3,3.1,3.6c0,2.3-1.4,3.6-3.1,3.6C79.6,10.8,78.2,9.5,78.2,7.2z
			 M83.5,7.2c0-1.5-0.8-2.8-2.2-2.8c-1.4,0-2.2,1.2-2.2,2.8c0,1.5,0.7,2.8,2.2,2.8C82.7,10,83.5,8.9,83.5,7.2z"/>
		<path class="st3" d="M85.5,9.6L86,9c0.5,0.6,1.2,1,2.2,1c1.2,0,1.8-0.5,1.8-1.2c0-0.8-0.5-1.1-1.9-1.4c-1.7-0.4-2.4-0.8-2.4-2
			c0-1,0.8-1.8,2.3-1.8c1.1,0,1.9,0.4,2.5,1l-0.5,0.6c-0.6-0.5-1.2-0.8-2-0.8c-1,0-1.5,0.5-1.5,1c0,0.6,0.4,0.9,1.6,1.2
			c1.8,0.4,2.6,0.9,2.6,2.1c0,1.3-1.1,2-2.7,2C86.9,10.8,86,10.3,85.5,9.6z"/>
		<path class="st3" d="M96.4,9.7l0,0.9h-0.9V1.1L96.4,1v3.8c0.5-0.6,1.3-1.1,2.3-1.1c1.6,0,2.8,1.2,2.8,3.5c0,2.4-1.3,3.5-2.8,3.5
			C97.7,10.8,97,10.4,96.4,9.7z M100.6,7.2c0-1.9-0.9-2.8-2.1-2.8c-0.8,0-1.4,0.4-2.1,1.1v3.4c0.7,0.7,1.3,1.1,2.2,1.1
			C99.7,10,100.6,9.2,100.6,7.2z"/>
		<path class="st3" d="M103.2,10.7V3.8h0.8l0.1,1.3h0c0.5-0.8,1.4-1.5,2.7-1.5h0.1l0.1,0.8c0,0-0.3,0-0.3,0c-1.1,0-2,0.6-2.6,1.7
			v4.5H103.2z"/>
		<path class="st3" d="M108.3,8.8v-5h0.9v4.8c0,1,0.4,1.4,1.4,1.4c0.9,0,1.6-0.5,2.4-1.2v-5h0.9v6.8H113l-0.1-1.1
			c-0.7,0.7-1.6,1.2-2.6,1.2C108.9,10.8,108.3,10.1,108.3,8.8z"/>
		<path class="st3" d="M116.3,9V4.6h-1.2V3.8h1.2V1.4l0.9-0.1v2.5h1.8v0.8h-1.8v4.3c0,0.7,0.3,1.1,1.1,1.1c0.2,0,0.5,0,0.7-0.1
			l0.1,0.8c-0.2,0-0.6,0.1-0.9,0.1C116.9,10.8,116.3,10.3,116.3,9z"/>
		<path class="st3" d="M120.1,7.2c0-2.3,1.4-3.6,3.1-3.6c1.7,0,3.1,1.3,3.1,3.6c0,2.3-1.4,3.6-3.1,3.6
			C121.5,10.8,120.1,9.5,120.1,7.2z M125.4,7.2c0-1.5-0.8-2.8-2.2-2.8c-1.4,0-2.2,1.2-2.2,2.8c0,1.5,0.7,2.8,2.2,2.8
			C124.6,10,125.4,8.9,125.4,7.2z"/>
		<path class="st3" d="M127.4,9.6l0.5-0.5c0.5,0.6,1.2,1,2.2,1c1.2,0,1.8-0.5,1.8-1.2c0-0.8-0.5-1.1-1.9-1.4c-1.7-0.4-2.4-0.8-2.4-2
			c0-1,0.8-1.8,2.3-1.8c1.1,0,1.9,0.4,2.5,1L132,5.3c-0.6-0.5-1.2-0.8-2-0.8c-1,0-1.5,0.5-1.5,1c0,0.6,0.4,0.9,1.6,1.2
			c1.8,0.4,2.6,0.9,2.6,2.1c0,1.3-1.1,2-2.7,2C128.8,10.8,127.9,10.3,127.4,9.6z"/>
		<path class="st3" d="M136.6,10.7l5.6-9.6h0.9l-5.6,9.6H136.6z"/>
		<path class="st3" d="M147,9.1c0-1.4,1.2-2.3,4.6-2.9V5.8c0-0.9-0.5-1.4-1.4-1.4c-1.1,0-1.8,0.4-2.5,1.1L147.2,5
			c0.8-0.8,1.7-1.3,3.1-1.3c1.5,0,2.2,0.8,2.2,2.2v4.8h-0.8l-0.1-1c-0.8,0.7-1.7,1.1-2.7,1.1C147.7,10.8,147,10.1,147,9.1z M151.7,9
			V6.8c-3,0.5-3.8,1.2-3.8,2.1c0,0.7,0.5,1.1,1.2,1.1C150.1,10,151,9.6,151.7,9z"/>
		<path class="st3" d="M154.2,7.2c0-2.5,1.5-3.6,3.1-3.6c1.2,0,2.1,0.7,2.5,1.6L159,5.7c-0.4-0.8-0.9-1.3-1.8-1.3
			c-1,0-2.1,0.8-2.1,2.8c0,1.8,0.9,2.8,2.1,2.8c0.9,0,1.5-0.5,1.9-1.3l0.7,0.4c-0.6,1.1-1.4,1.7-2.6,1.7
			C155.6,10.8,154.2,9.5,154.2,7.2z"/>
		<path class="st3" d="M161,7.2c0-2.5,1.5-3.6,3.1-3.6c1.2,0,2.1,0.7,2.5,1.6l-0.7,0.4c-0.4-0.8-0.9-1.3-1.8-1.3
			c-1,0-2.1,0.8-2.1,2.8c0,1.8,0.9,2.8,2.1,2.8c0.9,0,1.5-0.5,1.9-1.3l0.7,0.4c-0.6,1.1-1.4,1.7-2.6,1.7C162.3,10.8,161,9.5,161,7.2
			z"/>
		<path class="st3" d="M168.2,1.7c0-0.3,0.2-0.5,0.5-0.5s0.5,0.2,0.5,0.5c0,0.4-0.2,0.6-0.5,0.6S168.2,2.1,168.2,1.7z M168.3,10.7
			V3.8h0.9v6.8H168.3z"/>
		<path class="st3" d="M171,7.2c0-2.3,1.4-3.6,3.1-3.6c1.7,0,3.1,1.3,3.1,3.6c0,2.3-1.4,3.6-3.1,3.6C172.4,10.8,171,9.5,171,7.2z
			 M176.3,7.2c0-1.5-0.8-2.8-2.2-2.8c-1.4,0-2.2,1.2-2.2,2.8c0,1.5,0.7,2.8,2.2,2.8C175.5,10,176.3,8.9,176.3,7.2z M174.9,1.1h1.2
			l-1.8,2h-0.6L174.9,1.1z"/>
		<path class="st3" d="M178.9,10.7V3.8h0.8l0.1,1.1c0.7-0.7,1.5-1.2,2.6-1.2c1.4,0,2.1,0.7,2.1,2v5h-0.9V5.9c0-1-0.4-1.4-1.4-1.4
			c-0.9,0-1.6,0.5-2.4,1.2v5H178.9z"/>
	</g>
</g>
</svg>
