<?xml version="1.0" encoding="utf-8"?>
<!-- Generator: Adobe Illustrator 19.2.1, SVG Export Plug-In . SVG Version: 6.00 Build 0)  -->
<svg version="1.1" id="Capa_1" xmlns="http://www.w3.org/2000/svg" xmlns:xlink="http://www.w3.org/1999/xlink" x="0px" y="0px"
	 viewBox="0 0 776.6 346.7" style="enable-background:new 0 0 776.6 346.7;" xml:space="preserve">
<style type="text/css">
	.st0{fill:#FFFFFF;}
	.st1{fill:#2ECDCD;}
	.st2{clip-path:url(#SVGID_2_);}
	.st3{fill:#1D1D1B;}
	.st4{fill:#2A86CA;}
	.st5{fill:#0064A8;}
	.st6{clip-path:url(#SVGID_4_);}
	.st7{fill:#00A6A6;}
	.st8{clip-path:url(#SVGID_6_);}
	.st9{clip-path:url(#SVGID_8_);}
	.st10{clip-path:url(#SVGID_10_);}
	.st11{clip-path:url(#SVGID_12_);}
</style>
<title>des_financiero_solvencia_eng</title>
<path class="st0" d="M2,303.6c0-3.6,2.1-5.6,4.7-5.6c1.8-0.1,3.4,0.9,4.1,2.5l-1.6,0.9c-0.4-1.1-1.4-1.8-2.5-1.8
	c-1.9,0-2.9,1.5-2.9,3.9s1.1,4.1,3,4.1c1.2,0,2.3-0.8,2.7-2l1.6,0.7c-0.5,1.9-2.3,3.1-4.3,3C4,309.3,2,307.3,2,303.6z"/>
<path class="st0" d="M13.3,309.1v-10.9h7.1v1.7h-5.2v2.7h4l0.3,1.6h-4.3v3.2h5.5v1.7L13.3,309.1L13.3,309.1z"/>
<path class="st0" d="M25.4,309.1v-9.2H22v-1.7h8.5l0.3,1.7h-3.5v9.2H25.4z"/>
<path class="st0" d="M34.3,309.1v-9.3l-2.1,0.6l-0.2-1.5l2.4-0.8h1.7v10.9H34.3z"/>
<path class="st0" d="M43.7,309.1v-10.9h6.9v1.7h-5v2.9h3.7l0.3,1.6h-4v4.6L43.7,309.1L43.7,309.1z"/>
<path class="st0" d="M52.3,307v-5.7h1.8v5.2c-0.1,0.6,0.3,1.1,0.8,1.2c0.1,0,0.2,0,0.4,0c0.8,0,1.6-0.4,2.1-1v-5.4h1.8v7.8h-1.7
	l-0.2-1.1c-0.7,0.8-1.7,1.3-2.8,1.3c-1.1,0.1-2.2-0.7-2.3-1.8C52.3,307.3,52.3,307.2,52.3,307z"/>
<path class="st0" d="M61.8,309.1v-10.8l1.8-0.3v11.1L61.8,309.1L61.8,309.1z"/>
<path class="st0" d="M66.2,309.1v-10.8L68,298v11.1L66.2,309.1L66.2,309.1z"/>
<path class="st0" d="M70,312l-0.1-1.5c0.4,0.1,0.9,0.2,1.3,0.2c0.6,0.1,1.1-0.3,1.3-0.9l0.2-0.6l-3-7.7l1.8-0.3l2.1,5.9l0,0l2-5.7
	h1.8L74,310c-0.5,1.4-1.2,2.1-2.8,2.1C70.8,312.1,70.4,312.1,70,312z"/>
<path class="st0" d="M78.7,305.1v-1.3h3.7v1.3H78.7z"/>
<path class="st0" d="M84.6,309.1v-10.8l1.8-0.3v11.1L84.6,309.1L84.6,309.1z"/>
<path class="st0" d="M88.4,305.2c0.1-2.1,2-3.7,4.1-3.6c2.1,0.1,3.7,2,3.6,4.1c-0.1,2-1.8,3.6-3.8,3.6c-2,0.1-3.8-1.5-3.8-3.5
	C88.4,305.6,88.4,305.4,88.4,305.2z M94.3,305.2c0-1.5-0.6-2.5-2-2.5s-2,1-2,2.5s0.6,2.5,2,2.5S94.3,306.7,94.3,305.2L94.3,305.2z"
	/>
<path class="st0" d="M97.6,307.2c0-1.7,1.4-2.8,5.1-3.2v-0.2c0-0.6-0.5-1.1-1.1-1.1c-0.1,0-0.2,0-0.3,0c-0.9,0-1.8,0.4-2.5,1l-1-1.1
	c1-1,2.4-1.5,3.8-1.4c2,0,2.9,1,2.9,2.8v5.1h-1.6l-0.2-1c-0.8,0.8-1.8,1.2-2.9,1.1c-1.1,0.1-2.1-0.7-2.2-1.8
	C97.6,307.3,97.6,307.3,97.6,307.2z M102.7,306.9v-1.7c-2.5,0.4-3.3,0.9-3.3,1.7c0,0.5,0.4,1,0.9,1c0.1,0,0.1,0,0.2,0
	C101.3,307.8,102.1,307.5,102.7,306.9z"/>
<path class="st0" d="M106.3,305.2c0-2.7,1.3-4.1,3.1-4.1c0.9-0.1,1.8,0.3,2.5,1v-3.9l1.8-0.3v11.1h-1.7l-0.2-1
	c-0.6,0.8-1.5,1.2-2.5,1.1C107.7,309.2,106.3,308,106.3,305.2z M111.9,306.8v-3.2c-0.5-0.6-1.2-0.9-1.9-1c-1.1,0-1.8,0.8-1.8,2.6
	s0.7,2.5,1.8,2.5C110.8,307.7,111.5,307.3,111.9,306.8L111.9,306.8z"/>
<path class="st0" d="M115.7,305.2c-0.2-2.1,1.3-3.9,3.4-4.1c0.1,0,0.2,0,0.3,0c1.7,0,3.4,1,3.4,4.2v0.4h-5.4c0,1.1,0.9,2,2,2
	c0,0,0.1,0,0.1,0c0.9,0,1.8-0.4,2.4-1l0.7,1.2c-0.9,0.8-2,1.3-3.2,1.3C117.5,309.3,115.7,308.1,115.7,305.2z M121.2,304.5
	c0.1-1-0.7-1.8-1.6-1.8c-0.1,0-0.1,0-0.2,0c-1,0-1.9,0.8-1.9,1.9H121.2z"/>
<path class="st0" d="M124.4,305.2c0-2.7,1.3-4.1,3.1-4.1c0.9-0.1,1.8,0.3,2.5,1v-3.9l1.8-0.3v11.1h-1.7l-0.1-1
	c-0.6,0.8-1.5,1.2-2.5,1.1C125.8,309.2,124.4,308,124.4,305.2z M130,306.7v-3.2c-0.5-0.6-1.2-0.9-1.9-1c-1.1,0-1.8,0.8-1.8,2.6
	s0.8,2.5,1.9,2.5C128.9,307.7,129.5,307.3,130,306.7z"/>
<path class="st0" d="M141.5,312.1c-2.4-2-3.7-4.2-3.7-7.1s1.3-5,3.7-7.1l0.5,0.5c-3.6,3.1-4,8.5-1,12.1c0.3,0.3,0.6,0.7,1,1
	L141.5,312.1z"/>
<path class="st0" d="M144.1,301.3c0-2,1-3.3,2.5-3.3s2.4,1.3,2.4,3.2s-0.9,3.3-2.4,3.3S144.1,303.3,144.1,301.3z M148.1,301.3
	c0-1.5-0.6-2.5-1.5-2.5s-1.5,1.1-1.5,2.5s0.6,2.5,1.5,2.5S148.1,302.7,148.1,301.3L148.1,301.3z M146.6,309.1l6.5-10.9h0.9
	l-6.5,10.9H146.6z M151.7,306c0-2,1-3.3,2.5-3.3s2.4,1.3,2.4,3.3s-0.9,3.3-2.5,3.3S151.7,307.9,151.7,306L151.7,306z M155.7,306
	c0-1.5-0.5-2.5-1.5-2.5s-1.5,1.1-1.5,2.5s0.5,2.5,1.5,2.5S155.6,307.4,155.7,306L155.7,306z"/>
<path class="st0" d="M158.6,311.6c3.6-3.1,4.1-8.5,1-12.1c-0.3-0.4-0.6-0.7-1-1l0.5-0.5c2.4,2,3.7,4.3,3.7,7.1s-1.3,5-3.7,7.1
	L158.6,311.6z"/>
<path class="st0" d="M32.6,341.9v-3.5h-3.4v-2.2h3.4v-3.5h2.3v3.5h3.4v2.2h-3.4v3.5H32.6z"/>
<path class="st0" d="M39.7,342l1.2-2.1c0.9,0.9,2.2,1.4,3.4,1.4c1.2,0.2,2.3-0.7,2.5-1.9c0-0.2,0-0.3,0-0.5c0.2-1.1-0.7-2.2-1.8-2.4
	c-0.2,0-0.3,0-0.5,0c-1,0-1.8,0.5-2.4,1.3l-1.9-0.6l0.5-7h7.8l0.2,2.2H43l-0.2,2.9c0.7-0.6,1.7-0.9,2.6-0.8c2.8,0,4.3,1.8,4.3,4.4
	c0,2.8-2,4.7-5.2,4.7C42.7,343.7,41,343.1,39.7,342z"/>
<path class="st0" d="M50.3,340c0-1.6,1.3-2.8,2.9-3.5c-1.4-0.7-2.3-1.5-2.3-3.2s1.6-3.3,4.7-3.3s4.7,1.7,4.7,3.3
	c0,1.4-0.9,2.6-2.2,3.1c1.7,0.7,2.9,1.6,2.9,3.5c0,2.2-2,3.6-5.3,3.6S50.3,342.3,50.3,340z M57.9,339.9c0-1-0.8-1.6-2.6-2.3
	c-1.3,0.7-2.2,1.4-2.2,2.3s0.9,1.8,2.4,1.8S57.9,340.9,57.9,339.9z M57.4,333.6c0-0.9-0.8-1.6-1.7-1.6c-0.1,0-0.1,0-0.2,0
	c-1.4,0-1.9,0.8-1.9,1.5c0,1,0.8,1.5,2.1,2C57,334.9,57.5,334.5,57.4,333.6L57.4,333.6z"/>
<path class="st0" d="M69.2,342.4l-0.2,1h-2.3v-11.5l2.5-0.4v4.7c0.6-0.9,1.5-1.4,2.6-1.5c1.9,0,3.2,1.5,3.2,4.4s-1.3,4.3-3.3,4.3
	C70.8,343.6,69.8,343.1,69.2,342.4z M72.5,339.2c0-1.4-0.5-2.3-1.6-2.3c-0.6,0-1.2,0.3-1.7,0.8v3.1c0.4,0.5,1,0.8,1.7,0.8
	C71.9,341.6,72.5,340.7,72.5,339.2L72.5,339.2z"/>
<path class="st0" d="M75.8,341.2c0-1.9,1.6-3,5.3-3.3v-0.2c0-0.6-0.4-1-1-1c-0.1,0-0.2,0-0.3,0c-0.9,0-1.8,0.4-2.4,1l-1.4-1.4
	c1.1-1,2.6-1.6,4.2-1.5c2.4,0,3.4,1.1,3.4,3.3v5.3h-2.3l-0.2-1.2c-0.7,0.9-1.8,1.4-2.9,1.4c-1.2,0.1-2.3-0.8-2.4-2.1
	C75.8,341.4,75.8,341.3,75.8,341.2z M81.1,340.9v-1.6c-2,0.2-2.8,0.7-2.8,1.5c0,0.4,0.3,0.8,0.8,0.8c0,0,0.1,0,0.1,0
	C79.9,341.6,80.6,341.4,81.1,340.9L81.1,340.9z"/>
<path class="st0" d="M84.8,342.4l0.8-1.5c0.9,0.6,1.9,1,3,1.1c0.8,0,1.3-0.3,1.3-0.8s-0.4-0.8-1.6-1c-1.6-0.3-3.3-0.7-3.3-2.6
	c0-1.7,1.4-2.7,3.3-2.7c1.3,0,2.5,0.3,3.6,1l-0.8,1.5c-0.8-0.5-1.7-0.8-2.6-0.8c-0.7,0-1.1,0.3-1.1,0.7s0.5,0.7,1.5,0.9
	c1.7,0.3,3.4,0.7,3.4,2.6s-1.8,2.8-3.7,2.8C87.3,343.6,85.9,343.2,84.8,342.4z"/>
<path class="st0" d="M93.5,332.9c0-0.7,0.5-1.3,1.3-1.3c0.1,0,0.1,0,0.2,0c0.7,0.1,1.2,0.7,1.1,1.4c-0.1,0.7-0.7,1.2-1.4,1.1
	C94,334.1,93.5,333.6,93.5,332.9z M93.7,343.4V335h2.5v8.4H93.7z"/>
<path class="st0" d="M97.6,342.4l0.8-1.5c0.9,0.6,1.9,1,3,1.1c0.8,0,1.3-0.3,1.3-0.8s-0.4-0.8-1.6-1c-1.6-0.3-3.3-0.7-3.3-2.6
	c0-1.7,1.4-2.7,3.3-2.7c1.3,0,2.5,0.3,3.6,1l-0.7,1.5c-0.8-0.5-1.7-0.8-2.6-0.8c-0.7,0-1.1,0.3-1.1,0.7s0.5,0.7,1.5,0.9
	c1.7,0.3,3.4,0.7,3.4,2.6s-1.8,2.8-3.7,2.8C100.1,343.6,98.7,343.2,97.6,342.4z"/>
<path class="st0" d="M110.5,346.7V335h2.3l0.2,1.3c0.6-0.9,1.5-1.4,2.6-1.5c1.9,0,3.2,1.5,3.2,4.4s-1.3,4.3-3.3,4.3
	c-1,0-1.9-0.4-2.6-1.1v4L110.5,346.7z M116.3,339.2c0-1.4-0.5-2.3-1.6-2.3c-0.7,0-1.3,0.3-1.7,0.8v3.1c0.4,0.5,1,0.8,1.7,0.8
	C115.8,341.6,116.3,340.7,116.3,339.2L116.3,339.2z"/>
<path class="st0" d="M119.8,339.2c0-2.4,2-4.3,4.4-4.2c2.4,0,4.3,2,4.2,4.4c0,2.3-1.9,4.2-4.3,4.2c-2.2,0.2-4.1-1.5-4.3-3.7
	C119.7,339.7,119.7,339.4,119.8,339.2z M125.8,339.2c0-1.4-0.5-2.5-1.8-2.5s-1.8,1-1.8,2.5s0.5,2.6,1.8,2.6S125.8,340.7,125.8,339.2
	L125.8,339.2z"/>
<path class="st0" d="M129.6,332.9c0-0.7,0.6-1.3,1.3-1.3c0.1,0,0.1,0,0.2,0c0.7,0.1,1.2,0.7,1.1,1.4c-0.1,0.7-0.7,1.2-1.4,1.1
	C130.1,334.1,129.6,333.6,129.6,332.9z M129.8,343.4V335h2.5v8.4H129.8z"/>
<path class="st0" d="M134.2,343.4V335h2.4l0.2,1.3c0.7-0.9,1.7-1.5,2.9-1.5c1.2-0.1,2.3,0.7,2.4,1.9c0,0.2,0,0.3,0,0.5v6.1h-2.5
	v-5.3c0.1-0.5-0.2-1-0.7-1.1c-0.1,0-0.2,0-0.3,0c-0.7,0-1.3,0.3-1.8,0.8v5.6H134.2L134.2,343.4z"/>
<path class="st0" d="M144.5,340.9v-4h-1.4V335h1.4v-2.7l2.5-0.4v3.1h2.2v1.8H147v3.8c-0.1,0.5,0.2,1,0.7,1.1c0.1,0,0.3,0,0.4,0
	c0.3,0,0.6,0,0.9-0.1l0.2,1.8c-0.6,0.1-1.2,0.1-1.8,0.1C145.3,343.5,144.5,342.9,144.5,340.9z"/>
<path class="st0" d="M149.8,342.4l0.9-1.5c0.9,0.6,1.9,1,3,1.1c0.8,0,1.3-0.3,1.3-0.8s-0.4-0.8-1.6-1c-1.6-0.3-3.3-0.7-3.3-2.6
	c0-1.7,1.4-2.7,3.3-2.7c1.3,0,2.5,0.3,3.6,1l-0.8,1.5c-0.8-0.5-1.7-0.8-2.6-0.8c-0.7,0-1.1,0.3-1.1,0.7s0.5,0.7,1.5,0.9
	c1.6,0.3,3.4,0.7,3.4,2.6s-1.8,2.8-3.7,2.8C152.3,343.6,150.9,343.2,149.8,342.4z"/>
<g id="icons">
	<path class="st1" d="M4.4,337.1c0,5,4.1,9.1,9.1,9.1c5,0,9.1-4.1,9.1-9.1c0-5-4.1-9.1-9.1-9.1S4.4,332.1,4.4,337.1L4.4,337.1z
		 M18.2,335.7l-1.1,1.1l-2.8-2.8v9.2l-1.5-1.5v-7.7l-2.9,2.9l-1.1-1.1l4.7-4.7L18.2,335.7z"/>
</g>
<path class="st0" d="M277.2,303.6c0-3.6,2-5.6,4.7-5.6c1.8-0.1,3.4,0.9,4.1,2.5l-1.6,0.9c-0.4-1.1-1.4-1.8-2.5-1.8
	c-1.9,0-2.9,1.5-2.9,3.9s1.1,4.1,3,4.1c1.2,0,2.3-0.8,2.7-2l1.6,0.7c-0.5,1.9-2.3,3.1-4.3,3C279.2,309.3,277.2,307.3,277.2,303.6z"
	/>
<path class="st0" d="M288.5,309.1v-10.9h7.1v1.7h-5.2v2.7h4l0.3,1.6h-4.3v3.2h5.5v1.7L288.5,309.1L288.5,309.1z"/>
<path class="st0" d="M300.6,309.1v-9.2h-3.4v-1.7h8.5l0.3,1.7h-3.5v9.2H300.6z"/>
<path class="st0" d="M309.5,309.1v-9.3l-2.1,0.6l-0.2-1.5l2.4-0.8h1.7v10.9L309.5,309.1L309.5,309.1z"/>
<path class="st0" d="M318.9,309.1v-10.9h3.8c2.4,0,4.2,0.8,4.2,3.4s-2,3.4-4.2,3.4h-1.9v4.1H318.9z M320.7,303.4h2
	c1.6,0,2.4-0.5,2.4-1.8s-0.7-1.7-2.4-1.7h-2L320.7,303.4L320.7,303.4z"/>
<path class="st0" d="M328.8,309.1v-10.8l1.8-0.3v4.3c0.7-0.8,1.7-1.3,2.8-1.3c1.1-0.1,2.2,0.7,2.3,1.8c0,0.2,0,0.3,0,0.5v5.7h-1.8
	v-5.2c0.1-0.6-0.3-1.1-0.8-1.3c-0.1,0-0.2,0-0.3,0c-0.8,0-1.6,0.4-2.1,1v5.4L328.8,309.1L328.8,309.1z"/>
<path class="st0" d="M337.6,307.2c0-1.7,1.5-2.8,5.1-3.2v-0.2c0-0.6-0.5-1.1-1.1-1.1c-0.1,0-0.2,0-0.3,0c-0.9,0-1.8,0.4-2.5,1
	l-1-1.1c1-1,2.4-1.5,3.8-1.4c2,0,2.9,1,2.9,2.8v5.1h-1.6l-0.1-1c-0.8,0.8-1.8,1.2-2.9,1.1c-1.1,0.1-2.1-0.7-2.2-1.8
	C337.6,307.3,337.6,307.3,337.6,307.2z M342.7,306.9v-1.7c-2.5,0.4-3.3,0.9-3.3,1.7c0,0.5,0.4,1,0.9,1c0.1,0,0.1,0,0.2,0
	C341.3,307.8,342.1,307.5,342.7,306.9z"/>
<path class="st0" d="M346.2,308l0.7-1.2c0.7,0.7,1.7,1,2.7,1.1c1,0,1.6-0.3,1.6-0.9s-0.5-0.9-1.8-1.1c-1.6-0.3-2.9-0.8-2.9-2.5
	c0-1.4,1.1-2.3,2.9-2.3c1.1,0,2.3,0.3,3.2,1l-0.6,1.3c-0.7-0.5-1.5-0.8-2.4-0.8c-0.9,0-1.3,0.3-1.3,0.8s0.4,0.8,1.6,1
	c1.8,0.4,3.1,0.8,3.1,2.4s-1.5,2.5-3.3,2.5C348.4,309.3,347.2,308.9,346.2,308z"/>
<path class="st0" d="M354.4,305.2c-0.2-2.1,1.3-3.9,3.4-4.1c0.1,0,0.2,0,0.3,0c1.7,0,3.4,1,3.4,4.2v0.4h-5.4c0,1.1,0.9,2,2,2
	c0,0,0.1,0,0.1,0c0.9,0,1.8-0.4,2.4-1l0.7,1.2c-0.9,0.8-2,1.3-3.2,1.3C356.2,309.3,354.4,308.1,354.4,305.2z M359.9,304.5
	c0.1-1-0.7-1.8-1.6-1.8c-0.1,0-0.1,0-0.2,0c-1,0-1.9,0.8-1.9,1.9H359.9L359.9,304.5z"/>
<path class="st0" d="M363.1,305.2c0-2.7,1.3-4.1,3.1-4.1c0.9-0.1,1.8,0.3,2.5,1v-3.9l1.8-0.3v11.1h-1.7l-0.1-1
	c-0.6,0.8-1.5,1.2-2.5,1.1C364.5,309.2,363.1,308,363.1,305.2z M368.7,306.8v-3.2c-0.5-0.6-1.2-0.9-1.9-1c-1.1,0-1.9,0.8-1.9,2.6
	s0.7,2.5,1.9,2.5C367.6,307.7,368.3,307.3,368.7,306.8L368.7,306.8z"/>
<path class="st0" d="M372.8,305.1v-1.3h3.6v1.3H372.8z"/>
<path class="st0" d="M378.5,299.2c0-0.5,0.4-1,0.9-1c0,0,0.1,0,0.1,0c0.5-0.2,1.1,0.1,1.2,0.7c0.2,0.5-0.1,1.1-0.7,1.2
	c-0.2,0.1-0.4,0.1-0.6,0C379,300.1,378.6,299.7,378.5,299.2C378.5,299.2,378.5,299.2,378.5,299.2z M378.7,309.2v-7.8h1.8v7.8H378.7z
	"/>
<path class="st0" d="M383,309.1v-7.8h1.7l0.1,1.1c0.7-0.8,1.7-1.3,2.8-1.3c1.1-0.1,2.2,0.7,2.3,1.8c0,0.2,0,0.3,0,0.5v5.7h-1.8v-5.2
	c0.1-0.6-0.3-1.2-0.9-1.3c-0.1,0-0.2,0-0.3,0c-0.8,0-1.6,0.4-2.1,1v5.5L383,309.1L383,309.1z"/>
<path class="st0" d="M399.5,312.1c-2.4-2-3.7-4.2-3.7-7.1s1.3-5,3.7-7.1l0.5,0.5c-3.6,3.1-4,8.5-1,12.1c0.3,0.3,0.6,0.7,1,1
	L399.5,312.1z"/>
<path class="st0" d="M402.1,301.3c0-2,1-3.3,2.5-3.3s2.4,1.3,2.4,3.2s-0.9,3.3-2.5,3.3S402.1,303.3,402.1,301.3z M406.1,301.3
	c0-1.5-0.5-2.5-1.5-2.5s-1.5,1.1-1.5,2.5s0.5,2.5,1.5,2.5S406.1,302.7,406.1,301.3L406.1,301.3z M404.6,309.1l6.5-10.9h1l-6.5,10.9
	H404.6L404.6,309.1z M409.7,306c0-2,1-3.3,2.5-3.3s2.4,1.3,2.4,3.3s-0.9,3.3-2.5,3.3S409.7,307.9,409.7,306L409.7,306z M413.7,306
	c0-1.5-0.5-2.5-1.5-2.5s-1.5,1.1-1.5,2.5s0.5,2.5,1.5,2.5S413.6,307.4,413.7,306L413.7,306z"/>
<path class="st0" d="M416.7,311.6c3.6-3.1,4.1-8.5,1-12.1c-0.3-0.4-0.6-0.7-1-1l0.5-0.5c2.4,2,3.7,4.3,3.7,7.1s-1.3,5-3.7,7.1
	L416.7,311.6z"/>
<path class="st0" d="M303.6,340c0-1.6,1.3-2.8,2.9-3.5c-1.4-0.7-2.3-1.5-2.3-3.2s1.6-3.3,4.7-3.3s4.7,1.7,4.7,3.3
	c0,1.4-0.9,2.6-2.3,3.1c1.7,0.7,2.9,1.6,2.9,3.5c0,2.2-2,3.6-5.3,3.6S303.6,342.3,303.6,340z M311.2,339.9c0-1-0.8-1.6-2.6-2.3
	c-1.4,0.7-2.2,1.4-2.2,2.3s0.9,1.8,2.4,1.8S311.2,340.9,311.2,339.9z M310.7,333.6c0-0.9-0.8-1.6-1.7-1.6c-0.1,0-0.1,0-0.2,0
	c-1.4,0-1.9,0.8-1.9,1.5c0,1,0.8,1.5,2.1,2C310.2,334.9,310.7,334.5,310.7,333.6L310.7,333.6z"/>
<path class="st0" d="M322.5,342.4l-0.2,1h-2.4v-11.5l2.5-0.4v4.7c0.5-0.9,1.5-1.4,2.5-1.5c1.9,0,3.2,1.5,3.2,4.4s-1.3,4.3-3.3,4.3
	C324,343.5,323.1,343.1,322.5,342.4z M325.8,339.2c0-1.4-0.5-2.3-1.6-2.3c-0.6,0-1.2,0.3-1.6,0.8v3.1c0.4,0.5,1,0.8,1.7,0.8
	C325.2,341.6,325.7,340.7,325.8,339.2L325.8,339.2z"/>
<path class="st0" d="M329.1,341.2c0-1.9,1.6-3,5.3-3.3v-0.2c0-0.6-0.4-1-1-1c-0.1,0-0.2,0-0.3,0c-0.9,0-1.8,0.4-2.4,1l-1.4-1.4
	c1.1-1,2.6-1.6,4.2-1.5c2.4,0,3.4,1.1,3.4,3.3v5.3h-2.3l-0.2-1.2c-0.7,0.9-1.8,1.4-2.9,1.4c-1.2,0.1-2.3-0.9-2.4-2.1
	C329.1,341.4,329.1,341.3,329.1,341.2z M334.4,340.9v-1.6c-2,0.2-2.9,0.7-2.9,1.5c0,0.4,0.3,0.8,0.8,0.8c0,0,0.1,0,0.1,0
	C333.2,341.6,333.9,341.4,334.4,340.9z"/>
<path class="st0" d="M338,342.4l0.9-1.5c0.9,0.6,1.9,1,3,1.1c0.8,0,1.3-0.3,1.3-0.8s-0.4-0.8-1.6-1c-1.6-0.3-3.3-0.7-3.3-2.6
	c0-1.7,1.4-2.7,3.3-2.7c1.3,0,2.5,0.3,3.6,1l-0.8,1.5c-0.8-0.5-1.7-0.8-2.6-0.8c-0.7,0-1.1,0.3-1.1,0.7s0.5,0.7,1.5,0.9
	c1.6,0.3,3.4,0.7,3.4,2.6s-1.8,2.8-3.7,2.8C340.5,343.6,339.1,343.2,338,342.4z"/>
<path class="st0" d="M346.8,332.9c0-0.7,0.5-1.3,1.3-1.3c0.1,0,0.1,0,0.2,0c0.7,0.1,1.2,0.7,1.1,1.4c-0.1,0.7-0.7,1.2-1.4,1.1
	C347.3,334.1,346.8,333.6,346.8,332.9z M347,343.4V335h2.5v8.4H347z"/>
<path class="st0" d="M350.8,342.4l0.9-1.5c0.9,0.6,1.9,1,3,1.1c0.8,0,1.3-0.3,1.3-0.8s-0.4-0.8-1.6-1c-1.6-0.3-3.3-0.7-3.3-2.6
	c0-1.7,1.4-2.7,3.3-2.7c1.3,0,2.5,0.3,3.6,1l-0.8,1.5c-0.8-0.5-1.7-0.8-2.6-0.8c-0.7,0-1.1,0.3-1.1,0.7s0.5,0.7,1.5,0.9
	c1.6,0.3,3.4,0.7,3.4,2.6s-1.8,2.8-3.7,2.8C353.3,343.6,351.9,343.2,350.8,342.4z"/>
<path class="st0" d="M363.8,346.7V335h2.4l0.2,1.3c0.6-0.9,1.5-1.4,2.6-1.5c1.9,0,3.2,1.5,3.2,4.4s-1.3,4.3-3.3,4.3
	c-1,0-1.9-0.4-2.5-1.1v4L363.8,346.7z M369.6,339.2c0-1.4-0.5-2.3-1.6-2.3c-0.6,0-1.2,0.3-1.6,0.8v3.1c0.4,0.5,1,0.8,1.7,0.8
	C369,341.6,369.6,340.7,369.6,339.2L369.6,339.2z"/>
<path class="st0" d="M373,339.2c0-2.4,2-4.3,4.4-4.2c2.4,0,4.3,2,4.2,4.4c0,2.3-1.9,4.2-4.3,4.2c-2.2,0.2-4.1-1.5-4.3-3.7
	C373,339.7,373,339.4,373,339.2z M379,339.2c0-1.4-0.5-2.5-1.8-2.5s-1.8,1-1.8,2.5s0.5,2.6,1.8,2.6S379.1,340.7,379,339.2L379,339.2
	z"/>
<path class="st0" d="M382.9,332.9c0-0.7,0.5-1.3,1.3-1.3c0.1,0,0.1,0,0.2,0c0.7,0.1,1.2,0.7,1.1,1.4c-0.1,0.7-0.7,1.2-1.4,1.1
	C383.4,334.1,382.9,333.6,382.9,332.9z M383,343.4V335h2.5v8.4H383z"/>
<path class="st0" d="M387.5,343.4V335h2.4l0.2,1.3c0.7-0.9,1.7-1.5,2.9-1.5c1.2-0.1,2.3,0.7,2.4,1.9c0,0.2,0,0.3,0,0.5v6.1h-2.5
	v-5.3c0.1-0.5-0.2-1-0.7-1.1c-0.1,0-0.2,0-0.3,0c-0.7,0-1.3,0.3-1.8,0.8v5.6L387.5,343.4L387.5,343.4z"/>
<path class="st0" d="M397.7,340.9v-4h-1.4V335h1.4v-2.7l2.5-0.4v3.1h2.2v1.8h-2.2v3.8c-0.1,0.5,0.2,1,0.7,1.1c0.1,0,0.3,0,0.4,0
	c0.3,0,0.6,0,0.9-0.1l0.2,1.8c-0.6,0.1-1.2,0.1-1.8,0.1C398.6,343.5,397.7,342.9,397.7,340.9z"/>
<path class="st0" d="M403.1,342.4l0.9-1.5c0.9,0.6,1.9,1,3,1.1c0.8,0,1.3-0.3,1.3-0.8s-0.4-0.8-1.6-1c-1.6-0.3-3.3-0.7-3.3-2.6
	c0-1.7,1.4-2.7,3.3-2.7c1.3,0,2.5,0.3,3.6,1l-0.8,1.5c-0.8-0.5-1.7-0.8-2.6-0.8c-0.7,0-1.1,0.3-1.1,0.7s0.5,0.7,1.5,0.9
	c1.6,0.3,3.4,0.7,3.4,2.6s-1.8,2.8-3.7,2.8C405.6,343.6,404.2,343.2,403.1,342.4z"/>
<g id="icons-2">
	<path class="st1" d="M279.7,337.1c0,5,4.1,9.1,9.1,9.1c5,0,9.1-4.1,9.1-9.1c0-5-4.1-9.1-9.1-9.1S279.7,332.1,279.7,337.1
		C279.7,337.1,279.7,337.1,279.7,337.1z M293.4,335.7l-1.1,1.1l-2.8-2.8v9.2l-1.5-1.5v-7.7l-2.9,2.9l-1.1-1.1l4.7-4.7L293.4,335.7z"
		/>
</g>
<path class="st0" d="M528.4,309.1v-10.9h3.9c2.6,0,4.1,1,4.1,3.4c0.1,1.5-0.9,2.8-2.4,3l2.6,4.4l-1.8,0.3l-2.6-4.5h-1.9v4.3
	L528.4,309.1L528.4,309.1z M530.2,303.2h2c1.6,0,2.4-0.4,2.4-1.7s-0.8-1.6-2.4-1.6h-2V303.2z"/>
<path class="st0" d="M538.1,309.1l3.9-11h1.8l3.8,10.8l-1.8,0.3l-0.9-2.8h-4.2l-0.9,2.6L538.1,309.1L538.1,309.1z M541.2,304.9h3.1
	l-1.5-4.4l0,0L541.2,304.9z"/>
<path class="st0" d="M552.1,309.1v-9.2h-3.4v-1.7h8.5l0.3,1.7H554v9.2H552.1z"/>
<path class="st0" d="M559.5,309.1v-10.9h1.8v10.9H559.5z"/>
<path class="st0" d="M563.7,303.7c0-3.7,2.3-5.7,4.9-5.7s4.9,2,4.9,5.7s-2.3,5.7-4.9,5.7S563.7,307.3,563.7,303.7z M571.7,303.7
	c0-2.5-1.2-4-3.1-4s-3.1,1.5-3.1,4s1.2,4,3.1,4S571.8,306.1,571.7,303.7L571.7,303.7z"/>
<path class="st0" d="M580,309.1v-10.9h3.1c3.4,0,5.7,1.6,5.7,5.4s-2.3,5.5-5.7,5.5L580,309.1L580,309.1z M581.8,307.4h1.4
	c2.5,0,3.7-1.1,3.7-3.8s-1.2-3.7-3.7-3.7h-1.4L581.8,307.4L581.8,307.4z"/>
<path class="st0" d="M591.1,309.1v-10.9h7.1v1.7h-5.2v2.7h4l0.3,1.6H593v3.2h5.5v1.7L591.1,309.1L591.1,309.1z"/>
<path class="st0" d="M604.2,303.6c0-3.6,2-5.6,4.7-5.6c1.8-0.1,3.4,0.9,4.1,2.5l-1.6,0.9c-0.4-1.1-1.4-1.8-2.5-1.8
	c-1.9,0-2.9,1.5-2.9,3.9s1.1,4.1,3,4.1c1.2,0,2.3-0.8,2.7-2l1.6,0.7c-0.5,1.9-2.3,3.1-4.3,3C606.2,309.3,604.2,307.3,604.2,303.6z"
	/>
<path class="st0" d="M614.7,309.1l3.9-11h1.8l3.8,10.8l-1.8,0.3l-0.9-2.8h-4.2l-0.9,2.6L614.7,309.1L614.7,309.1z M617.9,304.9h3.1
	l-1.5-4.4l0,0L617.9,304.9z"/>
<path class="st0" d="M626.2,309.1v-10.9h3.8c2.3,0,4.2,0.8,4.2,3.4s-2,3.4-4.2,3.4H628v4.1H626.2z M628,303.4h2
	c1.6,0,2.4-0.5,2.4-1.8s-0.7-1.7-2.4-1.7h-2L628,303.4L628,303.4z"/>
<path class="st0" d="M636.5,309.1v-10.9h1.8v10.9H636.5z"/>
<path class="st0" d="M643.8,309.1v-9.2h-3.4v-1.7h8.5l0.3,1.7h-3.5v9.2H643.8L643.8,309.1z"/>
<path class="st0" d="M650.2,309.1l3.9-11h1.8l3.8,10.8l-1.8,0.3l-0.9-2.8h-4.2l-0.9,2.6L650.2,309.1L650.2,309.1z M653.3,304.9h3.1
	l-1.5-4.4l0,0L653.3,304.9z"/>
<path class="st0" d="M661.7,309.1v-10.9h1.8v9.3h4.9l0.3,1.7L661.7,309.1L661.7,309.1z"/>
<path class="st0" d="M674.6,309.1v-10.9h3.8c2.3,0,4.2,0.8,4.2,3.4s-2,3.4-4.2,3.4h-1.9v4.1H674.6z M676.5,303.4h2
	c1.6,0,2.4-0.5,2.4-1.8s-0.7-1.7-2.4-1.7h-2L676.5,303.4L676.5,303.4z"/>
<path class="st0" d="M684.6,309.1v-10.8l1.8-0.3v4.3c0.7-0.8,1.7-1.3,2.8-1.3c1.1-0.1,2.2,0.7,2.3,1.8c0,0.2,0,0.3,0,0.5v5.7h-1.8
	v-5.2c0.1-0.6-0.3-1.1-0.8-1.3c-0.1,0-0.2,0-0.3,0c-0.8,0-1.6,0.4-2.1,1v5.4L684.6,309.1L684.6,309.1z"/>
<path class="st0" d="M693.3,307.2c0-1.7,1.5-2.8,5.1-3.2v-0.2c0-0.6-0.5-1.1-1.1-1.1c-0.1,0-0.2,0-0.3,0c-0.9,0-1.8,0.4-2.5,1
	l-1-1.1c1-1,2.4-1.5,3.8-1.4c2,0,2.9,1,2.9,2.8v5.1h-1.6l-0.2-1c-0.8,0.8-1.8,1.2-2.9,1.1c-1.1,0.1-2.1-0.7-2.2-1.8
	C693.3,307.3,693.3,307.3,693.3,307.2z M698.4,306.9v-1.7c-2.5,0.4-3.3,0.9-3.3,1.7c0,0.5,0.4,1,0.9,1c0.1,0,0.1,0,0.2,0
	C697,307.8,697.9,307.5,698.4,306.9z"/>
<path class="st0" d="M702,308l0.7-1.2c0.7,0.7,1.7,1,2.7,1.1c1,0,1.6-0.3,1.6-0.9s-0.5-0.9-1.8-1.1c-1.7-0.3-2.9-0.8-2.9-2.5
	c0-1.4,1.2-2.3,2.9-2.3c1.1,0,2.3,0.3,3.2,1l-0.6,1.3c-0.7-0.5-1.5-0.8-2.4-0.8c-0.9,0-1.3,0.3-1.3,0.8s0.4,0.8,1.6,1
	c1.8,0.4,3.1,0.8,3.1,2.4s-1.5,2.5-3.3,2.5C704.1,309.3,702.9,308.8,702,308z"/>
<path class="st0" d="M710.2,305.2c-0.2-2.1,1.3-3.9,3.4-4.1c0.1,0,0.2,0,0.3,0c1.7,0,3.4,1,3.4,4.2v0.4H712c0,1.1,0.9,2,2,2
	c0,0,0.1,0,0.1,0c0.9,0,1.8-0.4,2.4-1l0.7,1.2c-0.9,0.8-2,1.3-3.2,1.3C712,309.3,710.2,308.1,710.2,305.2z M715.7,304.5
	c0.1-1-0.7-1.8-1.6-1.8c-0.1,0-0.1,0-0.2,0c-1,0-1.9,0.8-1.9,1.9H715.7z"/>
<path class="st0" d="M718.9,305.2c0-2.7,1.3-4.1,3.1-4.1c0.9-0.1,1.8,0.3,2.5,1v-3.9l1.8-0.3v11.1h-1.7l-0.2-1
	c-0.6,0.8-1.5,1.2-2.5,1.1C720.2,309.2,718.9,308,718.9,305.2z M724.5,306.8v-3.2c-0.5-0.6-1.2-0.9-1.9-1c-1.1,0-1.8,0.8-1.8,2.6
	s0.7,2.5,1.9,2.5C723.3,307.7,724,307.3,724.5,306.8L724.5,306.8z"/>
<path class="st0" d="M728.5,305.1v-1.3h3.7v1.3H728.5z"/>
<path class="st0" d="M734.3,299.2c0-0.5,0.4-1,0.9-1c0,0,0.1,0,0.1,0c0.5-0.2,1.1,0.1,1.2,0.7c0.2,0.5-0.1,1.1-0.7,1.2
	c-0.2,0.1-0.4,0.1-0.6,0C734.8,300.1,734.3,299.7,734.3,299.2C734.3,299.2,734.3,299.2,734.3,299.2z M734.5,309.2v-7.8h1.8v7.8
	H734.5z"/>
<path class="st0" d="M738.7,309.1v-7.8h1.7l0.2,1.1c0.7-0.8,1.7-1.3,2.8-1.3c1.1-0.1,2.2,0.7,2.3,1.8c0,0.2,0,0.3,0,0.5v5.7h-1.8
	v-5.2c0.1-0.6-0.3-1.2-0.9-1.3c-0.1,0-0.2,0-0.3,0c-0.8,0-1.6,0.4-2.1,1v5.5L738.7,309.1L738.7,309.1z"/>
<path class="st0" d="M755.3,312.1c-2.4-2-3.7-4.2-3.7-7.1s1.3-5,3.7-7.1l0.5,0.5c-3.6,3.1-4,8.5-1,12.1c0.3,0.3,0.6,0.7,1,1
	L755.3,312.1z"/>
<path class="st0" d="M757.8,301.3c0-2,1-3.3,2.5-3.3s2.4,1.3,2.4,3.2s-0.9,3.3-2.5,3.3S757.8,303.3,757.8,301.3z M761.8,301.3
	c0-1.5-0.5-2.5-1.5-2.5s-1.5,1.1-1.5,2.5s0.5,2.5,1.5,2.5S761.8,302.7,761.8,301.3L761.8,301.3z M760.4,309.1l6.5-10.9h1l-6.5,10.9
	H760.4z M765.5,306c0-2,1-3.3,2.5-3.3s2.4,1.3,2.4,3.3s-0.9,3.3-2.5,3.3S765.4,307.9,765.5,306L765.5,306z M769.5,306
	c0-1.5-0.5-2.5-1.5-2.5s-1.5,1.1-1.5,2.5s0.5,2.5,1.5,2.5S769.4,307.4,769.5,306L769.5,306z"/>
<path class="st0" d="M772.4,311.6c3.6-3.1,4.1-8.5,1-12.1c-0.3-0.4-0.6-0.7-1-1l0.5-0.5c2.4,2,3.7,4.3,3.7,7.1s-1.3,5-3.7,7.1
	L772.4,311.6z"/>
<path class="st0" d="M557.1,343.4v-10.5l-2.5,0.6l-0.3-2.4l2.9-0.9h2.7v13.1H557.1z"/>
<path class="st0" d="M568.6,343.4v-2.6h-6.4v-2.1l6-8.5h3.2v8.3h2l0.3,2.3h-2.3v2.6L568.6,343.4L568.6,343.4z M565.2,338.6h3.4v-4.8
	l0,0L565.2,338.6z"/>
<path class="st0" d="M581.8,342.4l-0.2,1h-2.3v-11.5l2.5-0.4v4.7c0.6-0.9,1.5-1.4,2.6-1.5c1.9,0,3.2,1.5,3.2,4.4s-1.3,4.3-3.3,4.3
	C583.3,343.6,582.4,343.1,581.8,342.4z M585.1,339.2c0-1.4-0.5-2.3-1.6-2.3c-0.6,0-1.2,0.3-1.7,0.8v3.1c0.4,0.5,1,0.8,1.7,0.8
	C584.5,341.6,585,340.7,585.1,339.2L585.1,339.2z"/>
<path class="st0" d="M588.4,341.2c0-1.9,1.6-3,5.3-3.3v-0.2c0-0.6-0.4-1-1-1c-0.1,0-0.2,0-0.3,0c-0.9,0-1.8,0.4-2.4,1l-1.4-1.4
	c1.1-1,2.6-1.6,4.2-1.5c2.4,0,3.4,1.1,3.4,3.3v5.3h-2.3l-0.2-1.2c-0.7,0.9-1.8,1.4-2.9,1.4c-1.2,0.1-2.3-0.9-2.4-2.1
	C588.4,341.4,588.4,341.3,588.4,341.2z M593.7,340.9v-1.6c-2,0.2-2.8,0.7-2.8,1.5c0,0.4,0.3,0.8,0.8,0.8c0,0,0.1,0,0.1,0
	C592.5,341.6,593.2,341.4,593.7,340.9z"/>
<path class="st0" d="M597.3,342.4l0.8-1.5c0.9,0.6,1.9,1,3,1.1c0.8,0,1.3-0.3,1.3-0.8s-0.4-0.8-1.6-1c-1.6-0.3-3.3-0.7-3.3-2.6
	c0-1.7,1.4-2.7,3.3-2.7c1.3,0,2.5,0.3,3.6,1l-0.8,1.5c-0.8-0.5-1.7-0.8-2.6-0.8c-0.7,0-1.1,0.3-1.1,0.7s0.5,0.7,1.5,0.9
	c1.7,0.3,3.4,0.7,3.4,2.6s-1.8,2.8-3.7,2.8C599.8,343.6,598.5,343.2,597.3,342.4z"/>
<path class="st0" d="M606.1,332.9c0-0.7,0.5-1.3,1.3-1.3c0.1,0,0.1,0,0.2,0c0.7,0.1,1.2,0.7,1.1,1.4c-0.1,0.7-0.7,1.2-1.4,1.1
	C606.6,334.1,606.1,333.6,606.1,332.9z M606.3,343.4V335h2.5v8.4H606.3z"/>
<path class="st0" d="M610.1,342.4l0.8-1.5c0.9,0.6,1.9,1,3,1.1c0.8,0,1.3-0.3,1.3-0.8s-0.4-0.8-1.6-1c-1.6-0.3-3.3-0.7-3.3-2.6
	c0-1.7,1.4-2.7,3.3-2.7c1.3,0,2.5,0.3,3.6,1l-0.8,1.5c-0.8-0.5-1.7-0.8-2.6-0.8c-0.7,0-1.1,0.3-1.1,0.7s0.5,0.7,1.5,0.9
	c1.7,0.3,3.4,0.7,3.4,2.6s-1.8,2.8-3.7,2.8C612.6,343.6,611.3,343.2,610.1,342.4z"/>
<path class="st0" d="M623.1,346.7V335h2.3l0.2,1.3c0.6-0.9,1.5-1.4,2.6-1.5c1.9,0,3.2,1.5,3.2,4.4s-1.3,4.3-3.3,4.3
	c-1,0-1.9-0.4-2.5-1.1v4L623.1,346.7z M628.9,339.2c0-1.4-0.5-2.3-1.6-2.3c-0.6,0-1.2,0.3-1.7,0.8v3.1c0.4,0.5,1,0.8,1.7,0.8
	C628.3,341.6,628.9,340.7,628.9,339.2L628.9,339.2z"/>
<path class="st0" d="M632.3,339.2c0-2.4,2-4.3,4.4-4.2c2.4,0,4.3,2,4.2,4.4c0,2.3-1.9,4.2-4.3,4.2c-2.2,0.2-4.1-1.5-4.3-3.7
	C632.3,339.7,632.3,339.4,632.3,339.2z M638.3,339.2c0-1.4-0.5-2.5-1.8-2.5s-1.8,1-1.8,2.5s0.5,2.6,1.8,2.6S638.4,340.7,638.3,339.2
	L638.3,339.2z"/>
<path class="st0" d="M642.2,332.9c0-0.7,0.5-1.3,1.3-1.3c0.1,0,0.1,0,0.2,0c0.7,0.1,1.2,0.7,1.1,1.4c-0.1,0.7-0.7,1.2-1.4,1.1
	C642.7,334.1,642.2,333.6,642.2,332.9z M642.3,343.4V335h2.5v8.4H642.3z"/>
<path class="st0" d="M646.8,343.4V335h2.3l0.2,1.3c0.7-0.9,1.7-1.5,2.9-1.5c1.2-0.1,2.3,0.7,2.4,1.9c0,0.2,0,0.3,0,0.5v6.1h-2.5
	v-5.3c0.1-0.5-0.2-1-0.7-1.1c-0.1,0-0.2,0-0.3,0c-0.7,0-1.3,0.3-1.8,0.8v5.6H646.8L646.8,343.4z"/>
<path class="st0" d="M657,340.9v-4h-1.4V335h1.4v-2.7l2.5-0.4v3.1h2.2v1.8h-2.2v3.8c-0.1,0.5,0.2,1,0.7,1.1c0.1,0,0.3,0,0.4,0
	c0.3,0,0.6,0,0.9-0.1l0.2,1.8c-0.6,0.1-1.2,0.1-1.8,0.1C657.9,343.5,657,342.9,657,340.9z"/>
<path class="st0" d="M662.4,342.4l0.8-1.5c0.9,0.6,1.9,1,3,1.1c0.8,0,1.3-0.3,1.3-0.8s-0.4-0.8-1.6-1c-1.6-0.3-3.3-0.7-3.3-2.6
	c0-1.7,1.4-2.7,3.3-2.7c1.3,0,2.5,0.3,3.6,1l-0.8,1.5c-0.8-0.5-1.7-0.8-2.6-0.8c-0.7,0-1.1,0.3-1.1,0.7s0.5,0.7,1.5,0.9
	c1.7,0.3,3.4,0.7,3.4,2.6s-1.8,2.8-3.7,2.8C664.9,343.6,663.5,343.2,662.4,342.4z"/>
<g id="icons-3">
	<path class="st1" d="M530.3,337.1c0,5,4.1,9.1,9.1,9.1c5,0,9.1-4.1,9.1-9.1c0-5-4.1-9.1-9.1-9.1S530.3,332.1,530.3,337.1
		C530.3,337.1,530.3,337.1,530.3,337.1z M544.1,335.7l-1.1,1.1l-2.8-2.8v9.2l-1.5-1.5v-7.7l-2.9,2.9l-1.1-1.1l4.7-4.7L544.1,335.7z"
		/>
</g>
<path class="st0" d="M35,155.2v-11.9l-2.5,0.9l-0.2-1l2.8-1h1.2v13.1L35,155.2L35,155.2z"/>
<path class="st0" d="M39.6,148.6c0-4.1,1.7-6.8,4.8-6.8s4.8,2.7,4.8,6.8s-1.7,6.8-4.8,6.8S39.6,152.7,39.6,148.6z M48,148.6
	c0-3.7-1.4-5.7-3.5-5.7s-3.6,2-3.6,5.7s1.4,5.7,3.6,5.7S48,152.3,48,148.6L48,148.6z"/>
<path class="st0" d="M51.6,154.3c0-0.5,0.3-0.9,0.7-0.9c0,0,0.1,0,0.1,0c0.5,0,0.8,0.3,0.9,0.8c0,0,0,0.1,0,0.1
	c0,0.5-0.3,0.9-0.8,0.9c0,0-0.1,0-0.1,0c-0.5,0-0.9-0.3-0.9-0.8C51.6,154.4,51.6,154.4,51.6,154.3z"/>
<path class="st0" d="M55.2,153l0.9-0.7c0.7,1.3,2.1,2.1,3.6,2.1c2,0,3.1-1.1,3.1-2.7c0-1.9-1.1-2.9-4.2-2.9h-0.5l-0.1-1h0.6
	c2.8,0,3.8-0.9,3.8-2.5c0-1.3-0.8-2.3-2.8-2.3c-1.3,0-2.4,0.6-3.1,1.6l-0.8-0.8c1-1.2,2.4-2,4-2c2.8,0,3.9,1.6,3.9,3.3
	c0.1,1.6-1.1,2.9-2.6,3.1c1.8,0.1,3.1,1.7,2.9,3.4c0,2.1-1.7,3.8-4.4,3.8C57.8,155.5,56.2,154.5,55.2,153z"/>
<path class="st0" d="M89.5,147.6v-11.9l-2.5,0.9l-0.2-1l2.8-1h1.2v13.1L89.5,147.6L89.5,147.6z"/>
<path class="st0" d="M94.1,141.1c0-4.1,1.7-6.8,4.8-6.8s4.8,2.7,4.8,6.8s-1.7,6.8-4.8,6.8S94.1,145.2,94.1,141.1z M102.4,141.1
	c0-3.7-1.4-5.7-3.5-5.7s-3.6,2-3.6,5.7s1.4,5.7,3.6,5.7S102.4,144.8,102.4,141.1z"/>
<path class="st0" d="M106,146.8c0-0.5,0.3-0.9,0.7-0.9c0,0,0.1,0,0.1,0c0.5,0,0.8,0.3,0.9,0.8c0,0,0,0.1,0,0.1
	c0,0.5-0.3,0.9-0.8,0.9c0,0-0.1,0-0.1,0c-0.5,0-0.9-0.3-0.9-0.8C106,146.9,106,146.8,106,146.8z"/>
<path class="st0" d="M110.5,146.7l0.6-1c0.8,0.7,1.8,1.1,2.8,1.1c2.4,0,3.9-2.6,3.9-5.8c-0.9,1.1-2.3,1.7-3.7,1.8
	c-2.1,0.2-3.9-1.3-4.1-3.4c0-0.2,0-0.5,0-0.7c-0.1-2.3,1.7-4.3,4-4.4c0.1,0,0.3,0,0.4,0c2.6,0,4.6,2.1,4.6,6.6c0,4-2.1,7-5.1,7
	C112.6,147.9,111.4,147.5,110.5,146.7z M117.7,139.7c-0.3-3-1.7-4.3-3.4-4.3c-1.7-0.1-3.1,1.2-3.1,2.9c0,0.1,0,0.2,0,0.4
	c-0.2,1.5,0.9,2.8,2.5,3c0.2,0,0.4,0,0.5,0C115.6,141.6,116.9,140.9,117.7,139.7z"/>
<path class="st0" d="M306.6,140.3v-11.9l-2.5,0.9l-0.2-1l2.8-1h1.1v13.1L306.6,140.3L306.6,140.3z"/>
<path class="st0" d="M311.1,140.3V140c0-1.9,0.9-3.6,4.4-5.9c2-1.2,2.8-2.1,2.8-3.6c0.1-1.3-0.9-2.5-2.2-2.6c-0.1,0-0.3,0-0.4,0
	c-1.5,0-2.8,0.9-3.3,2.3l-0.9-0.6c0.7-1.7,2.4-2.8,4.2-2.8c1.9-0.2,3.7,1.2,3.8,3.2c0,0.1,0,0.3,0,0.4c0,1.8-0.9,2.9-3.4,4.5
	c-2.4,1.5-3.6,2.9-3.6,4.1h7l0.1,1.1L311.1,140.3L311.1,140.3z"/>
<path class="st0" d="M322,139.4c0-0.5,0.3-0.9,0.7-0.9c0,0,0.1,0,0.1,0c0.5,0,0.8,0.3,0.9,0.8c0,0,0,0.1,0,0.1
	c0,0.5-0.3,0.9-0.8,0.9c0,0-0.1,0-0.1,0c-0.5,0-0.9-0.3-0.9-0.8C322,139.5,322,139.5,322,139.4z"/>
<path class="st0" d="M329,140.3v-11.9l-2.5,0.9l-0.2-1l2.8-1h1.1v13.1L329,140.3L329,140.3z"/>
<path class="st0" d="M354.5,137.6v-11.9l-2.5,0.8l-0.2-1l2.8-1h1.1v13H354.5z"/>
<path class="st0" d="M359,137.6v-0.3c0-1.9,0.9-3.6,4.4-5.9c2-1.2,2.8-2.1,2.8-3.6c0.1-1.3-0.9-2.5-2.2-2.6c-0.1,0-0.3,0-0.4,0
	c-1.5,0-2.8,0.9-3.3,2.3l-0.9-0.6c0.7-1.7,2.4-2.8,4.2-2.8c1.9-0.2,3.7,1.2,3.8,3.2c0,0.1,0,0.3,0,0.4c0,1.8-0.9,2.9-3.4,4.5
	c-2.4,1.5-3.6,2.9-3.6,4.1h7l0.1,1.1H359z"/>
<path class="st0" d="M369.9,136.8c0-0.5,0.3-0.9,0.7-0.9c0,0,0.1,0,0.1,0c0.5,0,0.8,0.3,0.9,0.8c0,0,0,0.1,0,0.1
	c0,0.5-0.3,0.9-0.8,0.9c0,0-0.1,0-0.1,0c-0.5,0-0.9-0.3-0.9-0.8C369.9,136.9,369.9,136.8,369.9,136.8z"/>
<path class="st0" d="M373.9,137.6v-0.3c0-1.9,0.9-3.6,4.4-5.9c2-1.2,2.8-2.1,2.8-3.6c0.1-1.3-0.9-2.5-2.2-2.6c-0.1,0-0.3,0-0.4,0
	c-1.5,0-2.8,0.9-3.3,2.3l-0.9-0.6c0.7-1.7,2.4-2.8,4.2-2.8c1.9-0.2,3.7,1.2,3.8,3.2c0,0.1,0,0.3,0,0.4c0,1.8-0.9,2.9-3.4,4.5
	c-2.4,1.5-3.6,2.9-3.6,4.1h7l0.1,1.1H373.9L373.9,137.6z"/>
<path class="st0" d="M550.4,116.6v-11.9l-2.5,0.8l-0.2-1l2.8-1h1.2v13.1L550.4,116.6L550.4,116.6z"/>
<path class="st0" d="M554.8,114.6l0.8-0.8c0.7,1.2,2,2,3.5,2c1.7,0.1,3.2-1.3,3.3-3c0-0.1,0-0.3,0-0.4c0.2-1.6-1-3.1-2.6-3.2
	c-0.1,0-0.3,0-0.4,0c-1.2,0-2.4,0.6-3,1.7l-0.9-0.3l0.5-6.9h6.9v1.2h-5.9l-0.3,4.6c0.7-0.8,1.8-1.3,2.9-1.2c2.2,0,4,1.7,4.1,3.9
	c0,0.1,0,0.2,0,0.4c0.2,2.4-1.7,4.4-4,4.6c-0.2,0-0.3,0-0.5,0C557.3,116.9,555.7,116,554.8,114.6z"/>
<path class="st0" d="M565.7,115.8c0-0.5,0.3-0.9,0.7-0.9c0,0,0.1,0,0.1,0c0.5,0,0.8,0.3,0.9,0.8c0,0,0,0.1,0,0.1
	c0,0.5-0.3,0.9-0.8,0.9c0,0-0.1,0-0.1,0c-0.5,0-0.9-0.3-0.9-0.8C565.7,115.9,565.7,115.8,565.7,115.8z"/>
<path class="st0" d="M569.8,110.1c0-4.1,1.7-6.8,4.8-6.8s4.8,2.7,4.8,6.8s-1.7,6.8-4.8,6.8S569.8,114.2,569.8,110.1z M578.1,110.1
	c0-3.7-1.4-5.7-3.5-5.7s-3.6,2-3.6,5.7s1.4,5.7,3.6,5.7S578.1,113.8,578.1,110.1z"/>
<path class="st0" d="M604.9,115v-11.9l-2.5,0.8l-0.2-1l2.8-1h1.2V115L604.9,115L604.9,115z"/>
<path class="st0" d="M609.2,112.9l0.8-0.8c0.7,1.2,2,2,3.5,2c1.7,0.1,3.2-1.3,3.3-3c0-0.1,0-0.3,0-0.4c0.2-1.6-1-3.1-2.6-3.2
	c-0.1,0-0.3,0-0.4,0c-1.2,0-2.4,0.6-3,1.7l-0.9-0.3l0.5-6.9h6.9v1.2h-5.9l-0.3,4.6c0.7-0.8,1.8-1.3,2.9-1.2c2.2,0,4,1.7,4.1,3.9
	c0,0.1,0,0.2,0,0.4c0.2,2.4-1.7,4.4-4,4.6c-0.2,0-0.3,0-0.5,0C611.7,115.3,610.1,114.4,609.2,112.9z"/>
<path class="st0" d="M620.2,114.1c0-0.5,0.3-0.9,0.7-0.9c0,0,0.1,0,0.1,0c0.5,0,0.8,0.3,0.9,0.8c0,0,0,0.1,0,0.1
	c0,0.5-0.3,0.9-0.8,0.9c0,0-0.1,0-0.1,0c-0.5,0-0.9-0.3-0.9-0.8C620.2,114.2,620.2,114.2,620.2,114.1z"/>
<path class="st0" d="M627.1,115v-11.9l-2.5,0.8l-0.2-1l2.8-1h1.2V115L627.1,115L627.1,115z"/>
<g>
	<defs>
		<polygon id="SVGID_1_" points="61.8,266.6 18.7,248.7 0,253.9 46.8,274.1 		"/>
	</defs>
	<clipPath id="SVGID_2_">
		<use xlink:href="#SVGID_1_"  style="overflow:visible;"/>
	</clipPath>
	<g class="st2">
		<polygon class="st3" points="36.9,248.7 5.2,267 0,257.9 0,248.7 		"/>
		<polygon class="st3" points="53.8,248.7 61.8,262.6 61.8,266.6 48.9,274.1 9.3,274.1 5.2,267 36.9,248.7 		"/>
		<polygon class="st3" points="48.9,274.1 61.8,266.6 61.8,274.1 		"/>
	</g>
</g>
<polygon class="st4" points="46.1,274.5 61.8,266.6 61.8,204 46.1,192.1 "/>
<polygon class="st5" points="46.1,183.1 61.8,175.2 46.2,168.9 30.5,176.8 "/>
<polygon class="st4" points="46.1,183.1 46.1,192.1 61.8,204 61.8,175.2 "/>
<g>
	<defs>
		<polygon id="SVGID_3_" points="119.9,266.6 76.8,248.7 58.1,253.9 104.9,274.1 		"/>
	</defs>
	<clipPath id="SVGID_4_">
		<use xlink:href="#SVGID_3_"  style="overflow:visible;"/>
	</clipPath>
	<g class="st6">
		<polygon class="st3" points="95,248.7 63.3,267 58.1,257.9 58.1,248.7 		"/>
		<polygon class="st3" points="111.9,248.7 119.9,262.6 119.9,266.6 107,274.1 67.4,274.1 63.3,267 95,248.7 		"/>
		<polygon class="st3" points="107,274.1 119.9,266.6 119.9,274.1 		"/>
	</g>
</g>
<polygon class="st1" points="104.2,274.5 119.9,266.6 119.9,184.3 104.2,192.1 "/>
<polygon class="st7" points="104.2,179.1 119.9,171.3 104.2,165 88.5,172.8 "/>
<polygon class="st1" points="104.2,179.1 104.2,192.1 119.9,184.3 119.9,171.3 "/>
<g>
	<defs>
		<polygon id="SVGID_5_" points="334.4,266.6 291.3,248.7 272.6,253.9 319.4,274.1 		"/>
	</defs>
	<clipPath id="SVGID_6_">
		<use xlink:href="#SVGID_5_"  style="overflow:visible;"/>
	</clipPath>
	<g class="st8">
		<polygon class="st3" points="309.5,248.7 277.9,267 272.6,257.9 272.6,248.7 		"/>
		<polygon class="st3" points="326.4,248.7 334.4,262.6 334.4,266.6 321.5,274.1 282,274.1 277.9,267 309.5,248.7 		"/>
		<polygon class="st3" points="321.5,274.1 334.4,266.6 334.4,274.1 		"/>
	</g>
</g>
<polygon class="st4" points="318.8,274.5 334.4,266.6 334.4,204 318.8,192.1 "/>
<polygon class="st5" points="318.8,167.3 334.4,159.5 318.8,153.2 303.1,161 "/>
<polygon class="st4" points="318.8,167.3 318.8,192.1 334.4,204 334.4,159.5 "/>
<g>
	<defs>
		<polygon id="SVGID_7_" points="384.6,266.6 341.5,248.7 322.8,253.9 369.6,274.1 		"/>
	</defs>
	<clipPath id="SVGID_8_">
		<use xlink:href="#SVGID_7_"  style="overflow:visible;"/>
	</clipPath>
	<g class="st9">
		<polygon class="st3" points="359.7,248.7 328.1,267 322.8,257.9 322.8,248.7 		"/>
		<polygon class="st3" points="376.6,248.7 384.6,262.6 384.6,266.6 371.7,274.1 332.2,274.1 328.1,267 359.7,248.7 		"/>
		<polygon class="st3" points="371.7,274.1 384.6,266.6 384.6,274.1 		"/>
	</g>
</g>
<polygon class="st1" points="369,274.5 384.6,266.6 384.6,184.3 369,192.1 "/>
<polygon class="st7" points="369,166.6 384.6,158.8 369,152.5 353.3,160.4 "/>
<polygon class="st1" points="369,166.6 369,192.1 384.6,184.3 384.6,158.8 "/>
<g>
	<defs>
		<polygon id="SVGID_9_" points="581,266.6 537.9,248.7 519.2,253.9 566,274.1 		"/>
	</defs>
	<clipPath id="SVGID_10_">
		<use xlink:href="#SVGID_9_"  style="overflow:visible;"/>
	</clipPath>
	<g class="st10">
		<polygon class="st3" points="556.1,248.7 524.4,267 519.2,257.9 519.2,248.7 		"/>
		<polygon class="st3" points="573,248.7 581,262.6 581,266.6 568.1,274.1 528.5,274.1 524.4,267 556.1,248.7 		"/>
		<polygon class="st3" points="568.1,274.1 581,266.6 581,274.1 		"/>
	</g>
</g>
<polygon class="st4" points="565.3,274.5 581,266.6 581,204 565.3,192.1 "/>
<polygon class="st5" points="565.3,143 581,135.2 565.3,128.9 549.6,136.8 "/>
<polygon class="st4" points="565.3,143 565.3,192.1 581,204 581,135.2 "/>
<g>
	<defs>
		<polygon id="SVGID_11_" points="631.2,266.6 588.1,248.7 569.4,253.9 616.2,274.1 		"/>
	</defs>
	<clipPath id="SVGID_12_">
		<use xlink:href="#SVGID_11_"  style="overflow:visible;"/>
	</clipPath>
	<g class="st11">
		<polygon class="st3" points="606.3,248.7 574.6,267 569.4,257.9 569.4,248.7 		"/>
		<polygon class="st3" points="623.2,248.7 631.2,262.6 631.2,266.6 618.3,274.1 578.7,274.1 574.6,267 606.3,248.7 		"/>
		<polygon class="st3" points="618.3,274.1 631.2,266.6 631.2,274.1 		"/>
	</g>
</g>
<polygon class="st1" points="615.5,274.5 631.2,266.6 631.2,184.3 615.5,192.1 "/>
<polygon class="st7" points="615.5,142.1 631.2,134.2 615.5,127.9 599.8,135.8 "/>
<polygon class="st1" points="615.5,142.1 615.5,192.1 631.2,184.3 631.2,134.2 "/>
<g>
	<path class="st0" d="M428.3,11.1v-0.2c0-1.6,0.8-3,3.7-4.9c1.6-1,2.3-1.8,2.3-3c0.1-1.1-0.8-2-1.9-2.1c-0.1,0-0.2,0-0.3,0
		c-1.2,0-2.3,0.8-2.7,1.9l-0.8-0.5c0.6-1.4,2-2.3,3.5-2.3c1.6-0.2,3,1,3.2,2.6c0,0.1,0,0.3,0,0.4c0,1.5-0.7,2.4-2.8,3.8
		s-3,2.4-3,3.4h5.9l0.1,0.9L428.3,11.1L428.3,11.1z"/>
</g>
<g>
	<path class="st0" d="M436.9,5.7c0-3.4,1.5-5.7,4-5.7s4,2.3,4,5.7s-1.4,5.7-4,5.7S436.9,9.1,436.9,5.7z M443.9,5.7
		c0-3.1-1.2-4.7-3-4.7s-3,1.7-3,4.7s1.2,4.7,3,4.7S443.9,8.7,443.9,5.7L443.9,5.7z"/>
</g>
<g>
	<path class="st0" d="M448.9,11.1v-10l-2.1,0.7L446.6,1l2.3-0.8h1v11H448.9L448.9,11.1z"/>
</g>
<g>
	<path class="st0" d="M452.7,5.9c0-3.4,1.8-5.9,4.3-5.9c0.9,0,1.8,0.2,2.6,0.8l-0.5,0.8c-0.6-0.5-1.3-0.8-2.1-0.7
		c-2,0-3.3,2.1-3.3,4.8c0.8-0.9,1.9-1.4,3.1-1.5c1.7-0.2,3.2,1.1,3.4,2.8c0,0.2,0,0.4,0,0.6c0.1,1.9-1.4,3.5-3.3,3.6
		c-0.1,0-0.2,0-0.4,0C454.5,11.3,452.7,9.6,452.7,5.9z M459.2,7.7c0.1-1.3-0.8-2.4-2-2.5c-0.2,0-0.3,0-0.5,0c-1.2,0-2.3,0.6-3,1.6
		c0.2,2.5,1.4,3.6,2.9,3.6c1.4,0.1,2.6-0.9,2.6-2.3C459.2,8,459.2,7.9,459.2,7.7z"/>
</g>
<g>
	<path class="st0" d="M322.6,11.1v-0.2c0-1.6,0.8-3,3.7-4.9c1.6-1,2.3-1.8,2.3-3c0.1-1.1-0.7-2.1-1.8-2.1c-0.1,0-0.3,0-0.4,0
		c-1.2,0-2.3,0.8-2.7,1.9l-0.8-0.5c0.6-1.4,2-2.3,3.6-2.3c1.6-0.2,3,1,3.2,2.6c0,0.1,0,0.3,0,0.4c0,1.5-0.7,2.4-2.8,3.8
		s-3,2.4-3,3.4h5.9l0.1,0.9L322.6,11.1L322.6,11.1z"/>
</g>
<g>
	<path class="st0" d="M331.3,5.7c0-3.4,1.5-5.7,4-5.7s4,2.3,4,5.7s-1.4,5.7-4,5.7S331.3,9.1,331.3,5.7z M338.3,5.7
		c0-3.1-1.2-4.7-3-4.7s-3,1.7-3,4.7s1.2,4.7,3,4.7S338.2,8.7,338.3,5.7L338.3,5.7z"/>
</g>
<g>
	<path class="st0" d="M343.2,11.1v-10l-2.1,0.7L341,1l2.3-0.8h1v10.9H343.2L343.2,11.1z"/>
</g>
<g>
	<path class="st0" d="M346.8,9.4l0.7-0.7c0.6,1,1.7,1.7,2.9,1.7c1.5,0.1,2.7-1.1,2.7-2.5c0-0.1,0-0.2,0-0.3c0.2-1.3-0.8-2.5-2.1-2.7
		c-0.1,0-0.2,0-0.4,0c-1,0-2,0.5-2.5,1.4l-0.8-0.3l0.4-5.7h5.7v1h-4.9L348.3,5c0.6-0.7,1.5-1.1,2.4-1c1.8-0.1,3.3,1.4,3.4,3.2
		c0,0.1,0,0.3,0,0.4c0.1,2-1.4,3.7-3.4,3.8c-0.1,0-0.3,0-0.4,0C348.9,11.4,347.6,10.6,346.8,9.4z"/>
</g>
<g>
	<polygon class="st1" points="386.7,3 382.1,12.1 364.8,12.1 369.4,3 	"/>
</g>
<g>
	<polygon class="st4" points="278.2,3 273.6,12.1 256.3,12.1 260.9,3 	"/>
</g>
<g>
	<path class="st0" d="M397.8,11.2V0.1h2.8c3.6,0,5.5,1.9,5.5,5.5c0,3.7-2,5.6-5.5,5.6H397.8z M398.8,10.2h1.9c2.8,0,4.3-1.4,4.3-4.6
		c0-3.1-1.5-4.6-4.3-4.6h-1.9V10.2z"/>
	<path class="st0" d="M407.6,7.2c0-2.8,1.8-4.1,3.5-4.1c1.8,0,3.2,1.4,3.2,4.1v0.2h-5.7c0,1.9,1.1,3,2.6,3c1,0,1.8-0.4,2.5-1.2
		l0.5,0.7c-0.9,0.9-1.7,1.4-3.1,1.4C409.2,11.3,407.6,9.9,407.6,7.2z M413.3,6.6C413.1,5.1,412.4,4,411,4c-1.1,0-2.2,0.9-2.4,2.6
		H413.3z"/>
	<path class="st0" d="M415.8,7.2c0-2.8,1.8-4.1,3.5-4.1c1.4,0,2.4,0.8,2.9,1.9l-0.8,0.5c-0.5-1-1-1.5-2.1-1.5
		c-1.2,0-2.5,0.9-2.5,3.2c0,2,1,3.2,2.4,3.2c1.1,0,1.7-0.5,2.2-1.5l0.8,0.5c-0.7,1.3-1.6,1.9-3,1.9C417.4,11.3,415.8,9.9,415.8,7.2z
		"/>
	<path class="st0" d="M424,6.9V6h3.4v0.9H424z"/>
</g>
<g>
	<path class="st0" d="M290.8,11.2V0.1h2.8c3.6,0,5.5,1.9,5.5,5.5c0,3.7-2,5.6-5.5,5.6H290.8z M291.8,10.2h1.9c2.8,0,4.3-1.4,4.3-4.6
		c0-3.1-1.5-4.6-4.3-4.6h-1.9V10.2z"/>
	<path class="st0" d="M300.6,7.2c0-2.8,1.8-4.1,3.5-4.1c1.8,0,3.2,1.4,3.2,4.1v0.2h-5.7c0,1.9,1.1,3,2.6,3c1,0,1.8-0.4,2.5-1.2
		l0.5,0.7c-0.9,0.9-1.7,1.4-3.1,1.4C302.2,11.3,300.6,9.9,300.6,7.2z M306.3,6.6C306.1,5.1,305.4,4,304,4c-1.1,0-2.2,0.9-2.4,2.6
		H306.3z"/>
	<path class="st0" d="M308.8,7.2c0-2.8,1.8-4.1,3.5-4.1c1.4,0,2.4,0.8,2.9,1.9l-0.8,0.5c-0.5-1-1-1.5-2.1-1.5
		c-1.2,0-2.5,0.9-2.5,3.2c0,2,1,3.2,2.4,3.2c1.1,0,1.7-0.5,2.2-1.5l0.8,0.5c-0.7,1.3-1.6,1.9-3,1.9C310.4,11.3,308.8,9.9,308.8,7.2z
		"/>
	<path class="st0" d="M317,6.9V6h3.4v0.9H317z"/>
</g>
</svg>
