<?xml version="1.0" encoding="UTF-8" standalone="no"?>
<svg width="777px" height="352px" viewBox="0 0 777 352" version="1.1" xmlns="http://www.w3.org/2000/svg" xmlns:xlink="http://www.w3.org/1999/xlink">
    <!-- Generator: Sketch 41.2 (35397) - http://www.bohemiancoding.com/sketch -->
    <title>Page 1</title>
    <desc>Created with Sketch.</desc>
    <defs>
        <linearGradient x1="28.1470176%" y1="26.5632887%" x2="74.8441356%" y2="100%" id="linearGradient-1">
            <stop stop-color="#000000" stop-opacity="0" offset="0%"></stop>
            <stop stop-color="#000000" offset="100%"></stop>
        </linearGradient>
    </defs>
    <g id="Page-1" stroke="none" stroke-width="1" fill="none" fill-rule="evenodd">
        <g transform="translate(-2.000000, -1.000000)">
            <path d="M6.9051,314.999964 C9.2301,314.999964 10.5801,313.814964 11.2401,311.984964 L9.6201,311.249964 C9.1851,312.494964 8.2851,313.319964 6.9051,313.319964 C4.9701,313.319964 3.8601,311.759964 3.8601,309.194964 C3.8601,306.764964 4.9101,305.204964 6.8001,305.204964 C8.1351,305.204964 8.9451,305.954964 9.3801,306.989964 L10.9701,306.044964 C10.2051,304.394964 8.9001,303.479964 6.8001,303.479964 C4.0701,303.479964 1.9851,305.564964 1.9851,309.209964 C1.9851,312.959964 4.0401,314.999964 6.9051,314.999964 Z M20.6701,314.789964 L20.6701,313.094964 L15.0751,313.094964 L15.0751,309.854964 L19.3951,309.854964 L19.1251,308.189964 L15.0751,308.189964 L15.0751,305.429964 L20.3701,305.429964 L20.3701,303.689964 L13.2001,303.689964 L13.2001,314.789964 L20.6701,314.789964 Z M26.9801,314.789964 L26.9801,305.429964 L30.5351,305.429964 L30.2651,303.689964 L21.6851,303.689964 L21.6851,305.429964 L25.1051,305.429964 L25.1051,314.789964 L26.9801,314.789964 Z M35.6301,314.789964 L35.6301,303.689964 L33.8901,303.689964 L31.4601,304.454964 L31.7001,305.984964 L33.8301,305.384964 L33.8301,314.789964 L35.6301,314.789964 Z" id="CET1-" fill="#FFFFFF"></path>
            <path d="M45.2601,314.789964 L46.0851,310.064964 L49.9401,310.064964 L49.9401,308.399964 L46.3851,308.399964 L46.8951,305.429964 L51.8601,305.429964 L52.1751,303.689964 L45.3351,303.689964 L43.3851,314.789964 L45.2601,314.789964 Z M53.2051,314.954964 C54.4051,314.954964 55.4251,314.294964 55.9651,313.664964 L55.9201,314.789964 L57.6151,314.789964 L59.0251,306.824964 L57.1801,306.824964 L56.1901,312.419964 C55.5601,313.004964 54.8101,313.409964 54.1201,313.409964 C53.2051,313.409964 52.9051,312.959964 53.0551,312.089964 L53.9851,306.824964 L52.1401,306.824964 L51.1501,312.449964 C50.8801,314.024964 51.6151,314.954964 53.2051,314.954964 Z M61.6301,314.789964 L63.6101,303.539964 L61.7051,303.839964 L59.7851,314.789964 L61.6301,314.789964 Z M65.7351,314.789964 L67.7151,303.539964 L65.8101,303.839964 L63.8901,314.789964 L65.7351,314.789964 Z M68.5201,317.879964 C69.7501,317.879964 70.4401,317.249964 71.1301,315.989964 L76.2001,306.824964 L74.3551,306.824964 L71.3551,312.629964 L71.3251,312.629964 L70.3501,306.674964 L68.5051,306.974964 L70.0201,314.834964 L69.6601,315.494964 C69.3751,316.034964 69.0301,316.334964 68.4451,316.334964 C68.0401,316.334964 67.4401,316.154964 67.1851,316.034964 L66.5701,317.534964 C66.9601,317.699964 67.6351,317.879964 68.5201,317.879964 Z M80.0651,310.739964 L80.3051,309.419964 L76.6001,309.419964 L76.3601,310.739964 L80.0651,310.739964 Z M83.1501,314.789964 L85.1301,303.539964 L83.2251,303.839964 L81.3051,314.789964 L83.1501,314.789964 Z M88.9201,314.954964 C90.9451,314.954964 93.2851,313.559964 93.2851,310.109964 C93.2851,307.829964 91.7401,306.674964 89.8651,306.674964 C87.8551,306.674964 85.5001,308.024964 85.5001,311.504964 C85.5001,313.769964 87.0451,314.954964 88.9201,314.954964 Z M89.0701,313.454964 C87.8401,313.454964 87.3601,312.674964 87.3601,311.534964 C87.3601,309.419964 88.3951,308.204964 89.7001,308.204964 C90.9151,308.204964 91.4251,308.999964 91.4251,310.139964 C91.4251,312.284964 90.3601,313.454964 89.0701,313.454964 Z M96.7901,313.499964 C96.0701,313.499964 95.6801,313.139964 95.6801,312.614964 C95.6801,311.654964 96.5501,311.054964 99.2951,310.829964 L98.9951,312.569964 C98.3201,313.124964 97.6001,313.499964 96.7901,313.499964 Z M95.9951,314.924964 C96.9101,314.924964 97.8851,314.594964 98.7851,313.769964 L98.7851,314.789964 L100.4201,314.789964 L101.3201,309.704964 C101.6351,307.919964 100.9901,306.674964 98.6501,306.674964 C96.9401,306.674964 95.6651,307.214964 94.9451,307.844964 L95.7551,308.984964 C96.4601,308.444964 97.4351,308.189964 98.3051,308.189964 C99.3401,308.189964 99.7301,308.564964 99.5651,309.359964 L99.5201,309.584964 C95.5301,309.824964 93.8051,311.069964 93.8051,312.989964 C93.8051,314.144964 94.6451,314.924964 95.9951,314.924964 Z M106.0401,313.454964 C105.0201,313.454964 104.4351,312.809964 104.4351,311.624964 C104.4351,309.149964 105.7251,308.249964 106.7601,308.249964 C107.5701,308.249964 108.1251,308.564964 108.5451,309.044964 L107.9301,312.494964 C107.3601,313.109964 106.7301,313.454964 106.0401,313.454964 Z M105.2901,314.924964 C106.3551,314.924964 107.1501,314.474964 107.7051,313.739964 L107.7051,314.789964 L109.3701,314.789964 L111.3501,303.539964 L109.4451,303.839964 L108.8001,307.589964 C108.3051,307.049964 107.4951,306.674964 106.3251,306.674964 C104.5551,306.674964 102.5751,308.234964 102.5751,311.774964 C102.5751,313.964964 103.8051,314.924964 105.2901,314.924964 Z M115.0501,314.954964 C116.6701,314.954964 117.6151,314.429964 118.5001,313.604964 L117.7201,312.434964 C116.8951,313.109964 116.2801,313.484964 115.2901,313.484964 C114.4351,313.484964 113.4301,313.154964 113.4301,311.594964 L113.4301,311.414964 L118.7551,311.414964 L118.8301,310.979964 C119.2951,308.309964 118.2901,306.674964 115.9051,306.674964 C114.4501,306.674964 111.6301,307.724964 111.6301,311.564964 C111.6301,313.799964 113.0551,314.954964 115.0501,314.954964 Z M113.6251,310.034964 C114.0001,308.774964 114.8401,308.174964 115.7701,308.174964 C117.0601,308.174964 117.4351,308.909964 117.3151,310.034964 L113.6251,310.034964 Z M123.4151,313.454964 C122.3951,313.454964 121.8101,312.809964 121.8101,311.624964 C121.8101,309.149964 123.1001,308.249964 124.1351,308.249964 C124.9451,308.249964 125.5001,308.564964 125.9201,309.044964 L125.3051,312.494964 C124.7351,313.109964 124.1051,313.454964 123.4151,313.454964 Z M122.6651,314.924964 C123.7301,314.924964 124.5251,314.474964 125.0801,313.739964 L125.0801,314.789964 L126.7451,314.789964 L128.7251,303.539964 L126.8201,303.839964 L126.1751,307.589964 C125.6801,307.049964 124.8701,306.674964 123.7001,306.674964 C121.9301,306.674964 119.9501,308.234964 119.9501,311.774964 C119.9501,313.964964 121.1801,314.924964 122.6651,314.924964 Z M137.3551,317.354964 C135.4801,315.644964 134.2801,313.349964 134.2801,310.694964 C134.2801,308.054964 135.4801,305.759964 137.3401,304.049964 L136.8751,303.524964 C134.4301,305.579964 133.1401,307.859964 133.1401,310.694964 C133.1401,313.544964 134.4301,315.809964 136.8751,317.864964 L137.3551,317.354964 Z M141.5951,310.199964 C143.1701,310.199964 144.0851,308.789964 144.0851,306.839964 C144.0851,304.829964 143.1401,303.539964 141.6101,303.539964 C140.0801,303.539964 139.1051,304.829964 139.1051,306.899964 C139.1051,308.849964 139.9901,310.199964 141.5951,310.199964 Z M142.6151,314.789964 L149.2451,303.689964 L148.2851,303.689964 L141.6551,314.789964 L142.6151,314.789964 Z M141.6101,309.389964 C140.6051,309.389964 140.0501,308.354964 140.0501,306.839964 C140.0501,305.444964 140.5901,304.349964 141.5951,304.349964 C142.5851,304.349964 143.1401,305.369964 143.1401,306.869964 C143.1401,308.279964 142.6001,309.389964 141.6101,309.389964 Z M149.2901,314.939964 C150.8801,314.939964 151.7951,313.529964 151.7951,311.594964 C151.7951,309.569964 150.8501,308.279964 149.3201,308.279964 C147.7901,308.279964 146.8001,309.584964 146.8001,311.639964 C146.8001,313.589964 147.7001,314.939964 149.2901,314.939964 Z M149.3051,314.129964 C148.3001,314.129964 147.7601,313.094964 147.7601,311.594964 C147.7601,310.184964 148.2851,309.089964 149.2901,309.089964 C150.2951,309.089964 150.8351,310.109964 150.8351,311.609964 C150.8351,313.019964 150.3101,314.129964 149.3051,314.129964 Z M154.0251,317.864964 C156.4701,315.809964 157.7751,313.544964 157.7751,310.694964 C157.7751,307.859964 156.4701,305.579964 154.0251,303.524964 L153.5601,304.049964 C155.4201,305.759964 156.6351,308.054964 156.6351,310.694964 C156.6351,313.349964 155.4201,315.644964 153.5601,317.354964 L154.0251,317.864964 Z" id="Fully-loaded-(%)" fill="#FFFFFF"></path>
            <g id="Group-3" transform="translate(4.000000, 333.915000)">
                <path d="M31.383,13.5414562 L31.383,9.94145623 L34.839,9.94145623 L34.839,7.65545623 L31.383,7.65545623 L31.383,4.05545623 L29.079,4.05545623 L29.079,7.65545623 L25.623,7.65545623 L25.623,9.94145623 L29.079,9.94145623 L29.079,13.5414562 L31.383,13.5414562 Z M41.311,15.3594562 C44.587,15.3594562 46.585,13.4154562 46.585,10.5714562 C46.585,7.97945623 45.091,6.12545623 42.247,6.12545623 C40.897,6.12545623 40.015,6.52145623 39.565,6.95345623 L39.817,4.00145623 L45.685,4.00145623 L45.469,1.78745623 L37.567,1.78745623 L37.027,8.95145623 L38.917,9.54545623 C39.601,8.69945623 40.465,8.26745623 41.365,8.26745623 C42.877,8.26745623 43.669,9.16745623 43.669,10.6794562 C43.669,12.0474562 42.895,13.0374562 41.131,13.0374562 C39.835,13.0374562 38.557,12.4074562 37.639,11.5974562 L36.451,13.6854562 C37.621,14.6934562 39.169,15.3594562 41.311,15.3594562 Z M52.733,15.3594562 C56.081,15.3594562 58.079,13.9554562 58.079,11.6694562 C58.079,9.67145623 56.873,8.82545623 55.163,8.06945623 C56.603,7.42145623 57.467,6.30545623 57.467,4.90145623 C57.467,3.22745623 55.973,1.53545623 52.733,1.53545623 C49.583,1.53545623 47.981,3.20945623 47.981,4.90145623 C47.981,6.59345623 48.863,7.40345623 50.321,8.15945623 C48.701,8.82545623 47.369,9.99545623 47.369,11.6694562 C47.369,13.9734562 49.385,15.3594562 52.733,15.3594562 Z M52.931,7.11545623 C51.599,6.59345623 50.825,6.12545623 50.825,5.11745623 C50.825,4.37945623 51.365,3.60545623 52.751,3.60545623 C54.137,3.60545623 54.641,4.46945623 54.641,5.17145623 C54.641,6.01745623 54.137,6.52145623 52.931,7.11545623 Z M52.733,13.3614562 C51.203,13.3614562 50.321,12.5154562 50.321,11.5074562 C50.321,10.5534562 51.149,9.85145623 52.517,9.18545623 C54.335,9.92345623 55.145,10.4814562 55.145,11.5074562 C55.145,12.5334562 54.263,13.3614562 52.733,13.3614562 Z" id="+58-" fill="#FFFFFF"></path>
                <path d="M68.0208,13.6994611 C67.3328,13.6994611 66.8688,13.4434611 66.3088,12.9154611 L66.3088,9.76346109 C66.7408,9.33146109 67.3328,8.93146109 67.9888,8.93146109 C69.1408,8.93146109 69.6368,9.82746109 69.6368,11.2514611 C69.6368,12.8034611 69.0928,13.6994611 68.0208,13.6994611 Z M66.3088,18.5154611 L66.3088,14.4994611 C66.9488,15.2194611 67.7488,15.6354611 68.9008,15.6354611 C70.8528,15.6354611 72.2128,14.1794611 72.2128,11.2354611 C72.2128,8.29146109 70.8688,6.80346109 68.9328,6.80346109 C67.6688,6.80346109 66.8688,7.50746109 66.3088,8.27546109 L66.1168,6.97946109 L63.7328,6.97946109 L63.7328,18.8994611 L66.3088,18.5154611 Z M76.1248,15.6834611 C77.6128,15.6834611 78.5568,14.8354611 79.0688,14.1794611 L79.2608,15.5074611 L81.6448,15.5074611 L81.6448,6.97946109 L79.0688,6.97946109 L79.0688,12.7714611 C78.4928,13.2674611 77.9008,13.6354611 77.2128,13.6354611 C76.4928,13.6354611 76.2048,13.2194611 76.2048,12.4514611 L76.2048,6.97946109 L73.6288,6.97946109 L73.6288,13.2034611 C73.6288,14.9634611 74.6688,15.6834611 76.1248,15.6834611 Z M86.1808,15.5074611 L86.1808,9.77946109 C86.7568,9.28346109 87.3488,8.93146109 88.0368,8.93146109 C88.7568,8.93146109 89.0448,9.33146109 89.0448,10.0994611 L89.0448,15.5074611 L91.6048,15.5074611 L91.6048,9.28346109 C91.6048,7.52346109 90.5648,6.80346109 89.1248,6.80346109 C87.6368,6.80346109 86.6928,7.65146109 86.1808,8.32346109 L85.9888,6.97946109 L83.6048,6.97946109 L83.6048,15.5074611 L86.1808,15.5074611 Z M97.0528,15.6194611 C97.6608,15.6194611 98.6688,15.5234611 98.8768,15.4754611 L98.7008,13.6034611 C98.4448,13.6834611 98.1408,13.7474611 97.8208,13.7474611 C97.1488,13.7474611 96.7168,13.5714611 96.7168,12.6594611 L96.7168,8.85146109 L98.9088,8.85146109 L98.9088,6.97946109 L96.7168,6.97946109 L96.7168,3.85946109 L94.1568,4.24346109 L94.1568,6.97946109 L92.7328,6.97946109 L92.7328,8.85146109 L94.1568,8.85146109 L94.1568,12.9474611 C94.1568,14.9954611 95.0528,15.6194611 97.0528,15.6194611 Z M104.1488,15.6834611 C106.2128,15.6834611 108.5008,14.5634611 108.5008,11.2514611 C108.5008,7.90746109 106.2128,6.80346109 104.1488,6.80346109 C102.0688,6.80346109 99.7808,7.90746109 99.7808,11.2514611 C99.7808,14.5634611 102.0848,15.6834611 104.1488,15.6834611 Z M104.1488,13.8754611 C102.8368,13.8754611 102.3568,12.6914611 102.3568,11.2674611 C102.3568,9.73146109 102.9168,8.69146109 104.1488,8.69146109 C105.4288,8.69146109 105.9248,9.84346109 105.9248,11.2674611 C105.9248,12.8194611 105.3648,13.8754611 104.1488,13.8754611 Z M113.1808,15.6834611 C115.1488,15.6834611 116.9408,14.8674611 116.9408,12.8034611 C116.9408,10.8674611 115.1648,10.4834611 113.4848,10.1954611 C112.4288,10.0034611 111.9648,9.79546109 111.9648,9.28346109 C111.9648,8.81946109 112.3808,8.53146109 113.1168,8.53146109 C113.9168,8.53146109 114.9088,8.81946109 115.7888,9.34746109 L116.5728,7.81146109 C115.5648,7.20346109 114.4768,6.80346109 112.8928,6.80346109 C110.9888,6.80346109 109.5808,7.79546109 109.5808,9.50746109 C109.5808,11.5074611 111.3088,11.8914611 112.9248,12.1794611 C114.0928,12.3874611 114.5408,12.6114611 114.5408,13.2034611 C114.5408,13.7634611 113.9808,14.0354611 113.1808,14.0354611 C112.1408,14.0354611 110.9408,13.5394611 110.1088,12.9634611 L109.2448,14.4674611 C110.1728,15.1074611 111.4688,15.6834611 113.1808,15.6834611 Z M127.8208,15.6354611 C129.7728,15.6354611 131.1328,14.1794611 131.1328,11.2354611 C131.1328,8.29146109 129.7888,6.80346109 127.8528,6.80346109 C126.5888,6.80346109 125.7888,7.50746109 125.2288,8.29146109 L125.2288,3.47546109 L122.6528,3.85946109 L122.6528,15.5074611 L125.0368,15.5074611 L125.2288,14.4994611 C125.8688,15.2194611 126.6688,15.6354611 127.8208,15.6354611 Z M126.9408,13.6994611 C126.2528,13.6994611 125.7888,13.4434611 125.2288,12.9154611 L125.2288,9.76346109 C125.6608,9.33146109 126.2528,8.93146109 126.9088,8.93146109 C128.0608,8.93146109 128.5568,9.82746109 128.5568,11.2514611 C128.5568,12.8034611 128.0128,13.6994611 126.9408,13.6994611 Z M134.8208,6.06746109 L136.5168,6.06746109 L138.9008,3.29946109 L136.3088,3.29946109 L134.8208,6.06746109 Z M135.3648,13.6994611 C134.8048,13.6994611 134.4208,13.4274611 134.4208,12.8834611 C134.4208,12.0994611 135.2848,11.5874611 137.3168,11.3794611 L137.3168,12.9634611 C136.8848,13.3954611 136.2608,13.6994611 135.3648,13.6994611 Z M134.3408,15.6354611 C135.6048,15.6354611 136.5328,15.1394611 137.3168,14.2594611 L137.5088,15.5074611 L139.8288,15.5074611 L139.8288,10.1474611 C139.8288,7.95546109 138.8368,6.80346109 136.4048,6.80346109 C134.2928,6.80346109 133.0128,7.57146109 132.1648,8.35546109 L133.5568,9.74746109 C134.2608,9.18746109 135.0768,8.73946109 136.0368,8.73946109 C136.9648,8.73946109 137.3168,9.13946109 137.3168,9.76346109 L137.3168,9.97146109 C133.5728,10.2754611 131.9088,11.3634611 131.9088,13.3314611 C131.9088,14.7874611 133.0288,15.6354611 134.3408,15.6354611 Z M145.0528,15.6834611 C147.0208,15.6834611 148.8128,14.8674611 148.8128,12.8034611 C148.8128,10.8674611 147.0368,10.4834611 145.3568,10.1954611 C144.3008,10.0034611 143.8368,9.79546109 143.8368,9.28346109 C143.8368,8.81946109 144.2528,8.53146109 144.9888,8.53146109 C145.7888,8.53146109 146.7808,8.81946109 147.6608,9.34746109 L148.4448,7.81146109 C147.4368,7.20346109 146.3488,6.80346109 144.7648,6.80346109 C142.8608,6.80346109 141.4528,7.79546109 141.4528,9.50746109 C141.4528,11.5074611 143.1808,11.8914611 144.7968,12.1794611 C145.9648,12.3874611 146.4128,12.6114611 146.4128,13.2034611 C146.4128,13.7634611 145.8528,14.0354611 145.0528,14.0354611 C144.0128,14.0354611 142.8128,13.5394611 141.9808,12.9634611 L141.1168,14.4674611 C142.0448,15.1074611 143.3408,15.6834611 145.0528,15.6834611 Z M151.5888,6.14746109 C152.5488,6.14746109 153.0608,5.55546109 153.0608,4.85146109 C153.0608,4.13146109 152.5488,3.55546109 151.5888,3.55546109 C150.6448,3.55546109 150.1488,4.13146109 150.1488,4.85146109 C150.1488,5.55546109 150.6448,6.14746109 151.5888,6.14746109 Z M152.8848,15.5074611 L152.8848,6.97946109 L150.3248,6.97946109 L150.3248,15.5074611 L152.8848,15.5074611 Z M158.6528,15.6834611 C160.2848,15.6834611 161.8208,15.0114611 162.6368,13.2834611 L160.7328,12.3394611 C160.3008,13.3154611 159.6768,13.8754611 158.7808,13.8754611 C157.5168,13.8754611 157.0368,12.7874611 157.0368,11.2674611 C157.0368,9.57146109 157.6928,8.69146109 158.7648,8.69146109 C159.6288,8.69146109 160.1568,9.07546109 160.5568,10.0194611 L162.4288,9.05946109 C161.7248,7.49146109 160.2848,6.80346109 158.7648,6.80346109 C156.8768,6.80346109 154.4608,7.84346109 154.4608,11.2514611 C154.4608,14.5634611 156.6528,15.6834611 158.6528,15.6834611 Z M167.6048,15.6834611 C169.6688,15.6834611 171.9568,14.5634611 171.9568,11.2514611 C171.9568,7.90746109 169.6688,6.80346109 167.6048,6.80346109 C165.5248,6.80346109 163.2368,7.90746109 163.2368,11.2514611 C163.2368,14.5634611 165.5408,15.6834611 167.6048,15.6834611 Z M167.6048,13.8754611 C166.2928,13.8754611 165.8128,12.6914611 165.8128,11.2674611 C165.8128,9.73146109 166.3728,8.69146109 167.6048,8.69146109 C168.8848,8.69146109 169.3808,9.84346109 169.3808,11.2674611 C169.3808,12.8194611 168.8208,13.8754611 167.6048,13.8754611 Z M176.6368,15.6834611 C178.6048,15.6834611 180.3968,14.8674611 180.3968,12.8034611 C180.3968,10.8674611 178.6208,10.4834611 176.9408,10.1954611 C175.8848,10.0034611 175.4208,9.79546109 175.4208,9.28346109 C175.4208,8.81946109 175.8368,8.53146109 176.5728,8.53146109 C177.3728,8.53146109 178.3648,8.81946109 179.2448,9.34746109 L180.0288,7.81146109 C179.0208,7.20346109 177.9328,6.80346109 176.3488,6.80346109 C174.4448,6.80346109 173.0368,7.79546109 173.0368,9.50746109 C173.0368,11.5074611 174.7648,11.8914611 176.3808,12.1794611 C177.5488,12.3874611 177.9968,12.6114611 177.9968,13.2034611 C177.9968,13.7634611 177.4368,14.0354611 176.6368,14.0354611 C175.5968,14.0354611 174.3968,13.5394611 173.5648,12.9634611 L172.7008,14.4674611 C173.6288,15.1074611 174.9248,15.6834611 176.6368,15.6834611 Z" id="puntos-básicos" fill="#FFFFFF"></path>
                <path d="M14.4937,7.8994 L13.3957,8.9974 L10.5237,6.1184 L10.5547,15.4484 L9.0417,13.9124 L9.0417,6.0944 L6.0927,9.0284 L4.9867,7.9294 L9.7557,3.1614 L14.4937,7.8994 Z M0.5177,9.3044 C0.5177,14.3954 4.6417,18.5194 9.7327,18.5194 C14.8237,18.5194 18.9477,14.3954 18.9477,9.3044 C18.9477,4.2124 14.8237,0.0894 9.7327,0.0894 C4.6417,0.0894 0.5177,4.2124 0.5177,9.3044 L0.5177,9.3044 Z" id="Fill-2" fill="#2ECDCD"></path>
            </g>
            <path d="M286.5262,314.999964 C288.8512,314.999964 290.2012,313.814964 290.8612,311.984964 L289.2412,311.249964 C288.8062,312.494964 287.9062,313.319964 286.5262,313.319964 C284.5912,313.319964 283.4812,311.759964 283.4812,309.194964 C283.4812,306.764964 284.5312,305.204964 286.4212,305.204964 C287.7562,305.204964 288.5662,305.954964 289.0012,306.989964 L290.5912,306.044964 C289.8262,304.394964 288.5212,303.479964 286.4212,303.479964 C283.6912,303.479964 281.6062,305.564964 281.6062,309.209964 C281.6062,312.959964 283.6612,314.999964 286.5262,314.999964 Z M300.2912,314.789964 L300.2912,313.094964 L294.6962,313.094964 L294.6962,309.854964 L299.0162,309.854964 L298.7462,308.189964 L294.6962,308.189964 L294.6962,305.429964 L299.9912,305.429964 L299.9912,303.689964 L292.8212,303.689964 L292.8212,314.789964 L300.2912,314.789964 Z M306.6012,314.789964 L306.6012,305.429964 L310.1562,305.429964 L309.8862,303.689964 L301.3062,303.689964 L301.3062,305.429964 L304.7262,305.429964 L304.7262,314.789964 L306.6012,314.789964 Z M315.2512,314.789964 L315.2512,303.689964 L313.5112,303.689964 L311.0812,304.454964 L311.3212,305.984964 L313.4512,305.384964 L313.4512,314.789964 L315.2512,314.789964 Z" id="CET1-" fill="#FFFFFF"></path>
            <path d="M323.0062,314.789964 L324.8662,314.789964 L325.6012,310.574964 L327.9412,310.574964 C330.1762,310.574964 332.4562,309.644964 332.4562,306.599964 C332.4562,304.559964 330.8062,303.689964 328.2412,303.689964 L324.9562,303.689964 L323.0062,314.789964 Z M325.8862,308.939964 L326.5162,305.399964 L328.1362,305.399964 C329.8612,305.399964 330.5662,305.834964 330.5662,306.809964 C330.5662,308.444964 329.5612,308.939964 328.1212,308.939964 L325.8862,308.939964 Z M334.4462,314.789964 L335.4212,309.239964 C336.0512,308.654964 336.8312,308.249964 337.5062,308.249964 C338.4362,308.249964 338.7362,308.699964 338.5712,309.569964 L337.6562,314.789964 L339.5012,314.789964 L340.4912,309.164964 C340.7762,307.589964 340.0412,306.674964 338.4362,306.674964 C337.2362,306.674964 336.2012,307.319964 335.6612,307.949964 L336.4412,303.539964 L334.5362,303.839964 L332.6012,314.789964 L334.4462,314.789964 Z M344.3112,313.499964 C343.5912,313.499964 343.2012,313.139964 343.2012,312.614964 C343.2012,311.654964 344.0712,311.054964 346.8162,310.829964 L346.5162,312.569964 C345.8412,313.124964 345.1212,313.499964 344.3112,313.499964 Z M343.5162,314.924964 C344.4312,314.924964 345.4062,314.594964 346.3062,313.769964 L346.3062,314.789964 L347.9412,314.789964 L348.8412,309.704964 C349.1562,307.919964 348.5112,306.674964 346.1712,306.674964 C344.4612,306.674964 343.1862,307.214964 342.4662,307.844964 L343.2762,308.984964 C343.9812,308.444964 344.9562,308.189964 345.8262,308.189964 C346.8612,308.189964 347.2512,308.564964 347.0862,309.359964 L347.0412,309.584964 C343.0512,309.824964 341.3262,311.069964 341.3262,312.989964 C341.3262,314.144964 342.1662,314.924964 343.5162,314.924964 Z M353.1712,314.939964 C354.7162,314.939964 356.5462,314.384964 356.5462,312.254964 C356.5462,309.824964 352.5112,310.439964 352.5112,308.999964 C352.5112,308.399964 352.9462,308.114964 353.7262,308.114964 C354.8212,308.114964 355.5712,308.549964 356.1562,309.044964 L357.0412,307.754964 C356.3512,307.199964 355.3912,306.674964 353.6512,306.674964 C352.1212,306.674964 350.7112,307.499964 350.7112,309.239964 C350.7112,311.714964 354.7462,311.129964 354.7462,312.539964 C354.7462,313.334964 354.0862,313.544964 353.2312,313.529964 C352.1362,313.514964 351.1612,313.064964 350.5162,312.314964 L349.6012,313.499964 C350.1412,314.279964 351.3562,314.939964 353.1712,314.939964 Z M361.1312,314.954964 C362.7512,314.954964 363.6962,314.429964 364.5812,313.604964 L363.8012,312.434964 C362.9762,313.109964 362.3612,313.484964 361.3712,313.484964 C360.5162,313.484964 359.5112,313.154964 359.5112,311.594964 L359.5112,311.414964 L364.8362,311.414964 L364.9112,310.979964 C365.3762,308.309964 364.3712,306.674964 361.9862,306.674964 C360.5312,306.674964 357.7112,307.724964 357.7112,311.564964 C357.7112,313.799964 359.1362,314.954964 361.1312,314.954964 Z M359.7062,310.034964 C360.0812,308.774964 360.9212,308.174964 361.8512,308.174964 C363.1412,308.174964 363.5162,308.909964 363.3962,310.034964 L359.7062,310.034964 Z M369.4962,313.454964 C368.4762,313.454964 367.8912,312.809964 367.8912,311.624964 C367.8912,309.149964 369.1812,308.249964 370.2162,308.249964 C371.0262,308.249964 371.5812,308.564964 372.0012,309.044964 L371.3862,312.494964 C370.8162,313.109964 370.1862,313.454964 369.4962,313.454964 Z M368.7462,314.924964 C369.8112,314.924964 370.6062,314.474964 371.1612,313.739964 L371.1612,314.789964 L372.8262,314.789964 L374.8062,303.539964 L372.9012,303.839964 L372.2562,307.589964 C371.7612,307.049964 370.9512,306.674964 369.7812,306.674964 C368.0112,306.674964 366.0312,308.234964 366.0312,311.774964 C366.0312,313.964964 367.2612,314.924964 368.7462,314.924964 Z M379.1362,310.739964 L379.3762,309.419964 L375.6712,309.419964 L375.4312,310.739964 L379.1362,310.739964 Z M382.9412,305.654964 C383.6312,305.654964 384.0362,305.294964 384.1412,304.739964 C384.2462,304.184964 383.9162,303.704964 383.2262,303.704964 C382.5512,303.704964 382.1612,304.064964 382.0562,304.619964 C381.9512,305.174964 382.2662,305.654964 382.9412,305.654964 Z M382.2212,314.789964 L383.6312,306.824964 L381.7862,306.824964 L380.3762,314.789964 L382.2212,314.789964 Z M386.2512,314.789964 L387.2262,309.239964 C387.8562,308.654964 388.6362,308.249964 389.3112,308.249964 C390.2412,308.249964 390.5412,308.699964 390.3762,309.569964 L389.4612,314.789964 L391.3062,314.789964 L392.2962,309.164964 C392.5812,307.589964 391.8462,306.674964 390.2412,306.674964 C389.0412,306.674964 388.0062,307.319964 387.4662,307.949964 L387.5112,306.824964 L385.8162,306.824964 L384.4062,314.789964 L386.2512,314.789964 Z M401.8412,317.354964 C399.9662,315.644964 398.7662,313.349964 398.7662,310.694964 C398.7662,308.054964 399.9662,305.759964 401.8262,304.049964 L401.3612,303.524964 C398.9162,305.579964 397.6262,307.859964 397.6262,310.694964 C397.6262,313.544964 398.9162,315.809964 401.3612,317.864964 L401.8412,317.354964 Z M406.0812,310.199964 C407.6562,310.199964 408.5712,308.789964 408.5712,306.839964 C408.5712,304.829964 407.6262,303.539964 406.0962,303.539964 C404.5662,303.539964 403.5912,304.829964 403.5912,306.899964 C403.5912,308.849964 404.4762,310.199964 406.0812,310.199964 Z M407.1012,314.789964 L413.7312,303.689964 L412.7712,303.689964 L406.1412,314.789964 L407.1012,314.789964 Z M406.0962,309.389964 C405.0912,309.389964 404.5362,308.354964 404.5362,306.839964 C404.5362,305.444964 405.0762,304.349964 406.0812,304.349964 C407.0712,304.349964 407.6262,305.369964 407.6262,306.869964 C407.6262,308.279964 407.0862,309.389964 406.0962,309.389964 Z M413.7762,314.939964 C415.3662,314.939964 416.2812,313.529964 416.2812,311.594964 C416.2812,309.569964 415.3362,308.279964 413.8062,308.279964 C412.2762,308.279964 411.2862,309.584964 411.2862,311.639964 C411.2862,313.589964 412.1862,314.939964 413.7762,314.939964 Z M413.7912,314.129964 C412.7862,314.129964 412.2462,313.094964 412.2462,311.594964 C412.2462,310.184964 412.7712,309.089964 413.7762,309.089964 C414.7812,309.089964 415.3212,310.109964 415.3212,311.609964 C415.3212,313.019964 414.7962,314.129964 413.7912,314.129964 Z M418.5112,317.864964 C420.9562,315.809964 422.2612,313.544964 422.2612,310.694964 C422.2612,307.859964 420.9562,305.579964 418.5112,303.524964 L418.0462,304.049964 C419.9062,305.759964 421.1212,308.054964 421.1212,310.694964 C421.1212,313.349964 419.9062,315.644964 418.0462,317.354964 L418.5112,317.864964 Z" id="Phased-in-(%)" fill="#FFFFFF"></path>
            <g id="Group-6" transform="translate(284.000000, 333.915000)">
                <path d="M29.7791,15.3594562 C33.1271,15.3594562 35.1251,13.9554562 35.1251,11.6694562 C35.1251,9.67145623 33.9191,8.82545623 32.2091,8.06945623 C33.6491,7.42145623 34.5131,6.30545623 34.5131,4.90145623 C34.5131,3.22745623 33.0191,1.53545623 29.7791,1.53545623 C26.6291,1.53545623 25.0271,3.20945623 25.0271,4.90145623 C25.0271,6.59345623 25.9091,7.40345623 27.3671,8.15945623 C25.7471,8.82545623 24.4151,9.99545623 24.4151,11.6694562 C24.4151,13.9734562 26.4311,15.3594562 29.7791,15.3594562 Z M29.9771,7.11545623 C28.6451,6.59345623 27.8711,6.12545623 27.8711,5.11745623 C27.8711,4.37945623 28.4111,3.60545623 29.7971,3.60545623 C31.1831,3.60545623 31.6871,4.46945623 31.6871,5.17145623 C31.6871,6.01745623 31.1831,6.52145623 29.9771,7.11545623 Z M29.7791,13.3614562 C28.2491,13.3614562 27.3671,12.5154562 27.3671,11.5074562 C27.3671,10.5534562 28.1951,9.85145623 29.5631,9.18545623 C31.3811,9.92345623 32.1911,10.4814562 32.1911,11.5074562 C32.1911,12.5334562 31.3091,13.3614562 29.7791,13.3614562 Z" id="8-" fill="#FFFFFF"></path>
                <path d="M45.3392,13.6994611 C44.6512,13.6994611 44.1872,13.4434611 43.6272,12.9154611 L43.6272,9.76346109 C44.0592,9.33146109 44.6512,8.93146109 45.3072,8.93146109 C46.4592,8.93146109 46.9552,9.82746109 46.9552,11.2514611 C46.9552,12.8034611 46.4112,13.6994611 45.3392,13.6994611 Z M43.6272,18.5154611 L43.6272,14.4994611 C44.2672,15.2194611 45.0672,15.6354611 46.2192,15.6354611 C48.1712,15.6354611 49.5312,14.1794611 49.5312,11.2354611 C49.5312,8.29146109 48.1872,6.80346109 46.2512,6.80346109 C44.9872,6.80346109 44.1872,7.50746109 43.6272,8.27546109 L43.4352,6.97946109 L41.0512,6.97946109 L41.0512,18.8994611 L43.6272,18.5154611 Z M53.4432,15.6834611 C54.9312,15.6834611 55.8752,14.8354611 56.3872,14.1794611 L56.5792,15.5074611 L58.9632,15.5074611 L58.9632,6.97946109 L56.3872,6.97946109 L56.3872,12.7714611 C55.8112,13.2674611 55.2192,13.6354611 54.5312,13.6354611 C53.8112,13.6354611 53.5232,13.2194611 53.5232,12.4514611 L53.5232,6.97946109 L50.9472,6.97946109 L50.9472,13.2034611 C50.9472,14.9634611 51.9872,15.6834611 53.4432,15.6834611 Z M63.4992,15.5074611 L63.4992,9.77946109 C64.0752,9.28346109 64.6672,8.93146109 65.3552,8.93146109 C66.0752,8.93146109 66.3632,9.33146109 66.3632,10.0994611 L66.3632,15.5074611 L68.9232,15.5074611 L68.9232,9.28346109 C68.9232,7.52346109 67.8832,6.80346109 66.4432,6.80346109 C64.9552,6.80346109 64.0112,7.65146109 63.4992,8.32346109 L63.3072,6.97946109 L60.9232,6.97946109 L60.9232,15.5074611 L63.4992,15.5074611 Z M74.3712,15.6194611 C74.9792,15.6194611 75.9872,15.5234611 76.1952,15.4754611 L76.0192,13.6034611 C75.7632,13.6834611 75.4592,13.7474611 75.1392,13.7474611 C74.4672,13.7474611 74.0352,13.5714611 74.0352,12.6594611 L74.0352,8.85146109 L76.2272,8.85146109 L76.2272,6.97946109 L74.0352,6.97946109 L74.0352,3.85946109 L71.4752,4.24346109 L71.4752,6.97946109 L70.0512,6.97946109 L70.0512,8.85146109 L71.4752,8.85146109 L71.4752,12.9474611 C71.4752,14.9954611 72.3712,15.6194611 74.3712,15.6194611 Z M81.4672,15.6834611 C83.5312,15.6834611 85.8192,14.5634611 85.8192,11.2514611 C85.8192,7.90746109 83.5312,6.80346109 81.4672,6.80346109 C79.3872,6.80346109 77.0992,7.90746109 77.0992,11.2514611 C77.0992,14.5634611 79.4032,15.6834611 81.4672,15.6834611 Z M81.4672,13.8754611 C80.1552,13.8754611 79.6752,12.6914611 79.6752,11.2674611 C79.6752,9.73146109 80.2352,8.69146109 81.4672,8.69146109 C82.7472,8.69146109 83.2432,9.84346109 83.2432,11.2674611 C83.2432,12.8194611 82.6832,13.8754611 81.4672,13.8754611 Z M90.4992,15.6834611 C92.4672,15.6834611 94.2592,14.8674611 94.2592,12.8034611 C94.2592,10.8674611 92.4832,10.4834611 90.8032,10.1954611 C89.7472,10.0034611 89.2832,9.79546109 89.2832,9.28346109 C89.2832,8.81946109 89.6992,8.53146109 90.4352,8.53146109 C91.2352,8.53146109 92.2272,8.81946109 93.1072,9.34746109 L93.8912,7.81146109 C92.8832,7.20346109 91.7952,6.80346109 90.2112,6.80346109 C88.3072,6.80346109 86.8992,7.79546109 86.8992,9.50746109 C86.8992,11.5074611 88.6272,11.8914611 90.2432,12.1794611 C91.4112,12.3874611 91.8592,12.6114611 91.8592,13.2034611 C91.8592,13.7634611 91.2992,14.0354611 90.4992,14.0354611 C89.4592,14.0354611 88.2592,13.5394611 87.4272,12.9634611 L86.5632,14.4674611 C87.4912,15.1074611 88.7872,15.6834611 90.4992,15.6834611 Z M105.1392,15.6354611 C107.0912,15.6354611 108.4512,14.1794611 108.4512,11.2354611 C108.4512,8.29146109 107.1072,6.80346109 105.1712,6.80346109 C103.9072,6.80346109 103.1072,7.50746109 102.5472,8.29146109 L102.5472,3.47546109 L99.9712,3.85946109 L99.9712,15.5074611 L102.3552,15.5074611 L102.5472,14.4994611 C103.1872,15.2194611 103.9872,15.6354611 105.1392,15.6354611 Z M104.2592,13.6994611 C103.5712,13.6994611 103.1072,13.4434611 102.5472,12.9154611 L102.5472,9.76346109 C102.9792,9.33146109 103.5712,8.93146109 104.2272,8.93146109 C105.3792,8.93146109 105.8752,9.82746109 105.8752,11.2514611 C105.8752,12.8034611 105.3312,13.6994611 104.2592,13.6994611 Z M112.1392,6.06746109 L113.8352,6.06746109 L116.2192,3.29946109 L113.6272,3.29946109 L112.1392,6.06746109 Z M112.6832,13.6994611 C112.1232,13.6994611 111.7392,13.4274611 111.7392,12.8834611 C111.7392,12.0994611 112.6032,11.5874611 114.6352,11.3794611 L114.6352,12.9634611 C114.2032,13.3954611 113.5792,13.6994611 112.6832,13.6994611 Z M111.6592,15.6354611 C112.9232,15.6354611 113.8512,15.1394611 114.6352,14.2594611 L114.8272,15.5074611 L117.1472,15.5074611 L117.1472,10.1474611 C117.1472,7.95546109 116.1552,6.80346109 113.7232,6.80346109 C111.6112,6.80346109 110.3312,7.57146109 109.4832,8.35546109 L110.8752,9.74746109 C111.5792,9.18746109 112.3952,8.73946109 113.3552,8.73946109 C114.2832,8.73946109 114.6352,9.13946109 114.6352,9.76346109 L114.6352,9.97146109 C110.8912,10.2754611 109.2272,11.3634611 109.2272,13.3314611 C109.2272,14.7874611 110.3472,15.6354611 111.6592,15.6354611 Z M122.3712,15.6834611 C124.3392,15.6834611 126.1312,14.8674611 126.1312,12.8034611 C126.1312,10.8674611 124.3552,10.4834611 122.6752,10.1954611 C121.6192,10.0034611 121.1552,9.79546109 121.1552,9.28346109 C121.1552,8.81946109 121.5712,8.53146109 122.3072,8.53146109 C123.1072,8.53146109 124.0992,8.81946109 124.9792,9.34746109 L125.7632,7.81146109 C124.7552,7.20346109 123.6672,6.80346109 122.0832,6.80346109 C120.1792,6.80346109 118.7712,7.79546109 118.7712,9.50746109 C118.7712,11.5074611 120.4992,11.8914611 122.1152,12.1794611 C123.2832,12.3874611 123.7312,12.6114611 123.7312,13.2034611 C123.7312,13.7634611 123.1712,14.0354611 122.3712,14.0354611 C121.3312,14.0354611 120.1312,13.5394611 119.2992,12.9634611 L118.4352,14.4674611 C119.3632,15.1074611 120.6592,15.6834611 122.3712,15.6834611 Z M128.9072,6.14746109 C129.8672,6.14746109 130.3792,5.55546109 130.3792,4.85146109 C130.3792,4.13146109 129.8672,3.55546109 128.9072,3.55546109 C127.9632,3.55546109 127.4672,4.13146109 127.4672,4.85146109 C127.4672,5.55546109 127.9632,6.14746109 128.9072,6.14746109 Z M130.2032,15.5074611 L130.2032,6.97946109 L127.6432,6.97946109 L127.6432,15.5074611 L130.2032,15.5074611 Z M135.9712,15.6834611 C137.6032,15.6834611 139.1392,15.0114611 139.9552,13.2834611 L138.0512,12.3394611 C137.6192,13.3154611 136.9952,13.8754611 136.0992,13.8754611 C134.8352,13.8754611 134.3552,12.7874611 134.3552,11.2674611 C134.3552,9.57146109 135.0112,8.69146109 136.0832,8.69146109 C136.9472,8.69146109 137.4752,9.07546109 137.8752,10.0194611 L139.7472,9.05946109 C139.0432,7.49146109 137.6032,6.80346109 136.0832,6.80346109 C134.1952,6.80346109 131.7792,7.84346109 131.7792,11.2514611 C131.7792,14.5634611 133.9712,15.6834611 135.9712,15.6834611 Z M144.9232,15.6834611 C146.9872,15.6834611 149.2752,14.5634611 149.2752,11.2514611 C149.2752,7.90746109 146.9872,6.80346109 144.9232,6.80346109 C142.8432,6.80346109 140.5552,7.90746109 140.5552,11.2514611 C140.5552,14.5634611 142.8592,15.6834611 144.9232,15.6834611 Z M144.9232,13.8754611 C143.6112,13.8754611 143.1312,12.6914611 143.1312,11.2674611 C143.1312,9.73146109 143.6912,8.69146109 144.9232,8.69146109 C146.2032,8.69146109 146.6992,9.84346109 146.6992,11.2674611 C146.6992,12.8194611 146.1392,13.8754611 144.9232,13.8754611 Z M153.9552,15.6834611 C155.9232,15.6834611 157.7152,14.8674611 157.7152,12.8034611 C157.7152,10.8674611 155.9392,10.4834611 154.2592,10.1954611 C153.2032,10.0034611 152.7392,9.79546109 152.7392,9.28346109 C152.7392,8.81946109 153.1552,8.53146109 153.8912,8.53146109 C154.6912,8.53146109 155.6832,8.81946109 156.5632,9.34746109 L157.3472,7.81146109 C156.3392,7.20346109 155.2512,6.80346109 153.6672,6.80346109 C151.7632,6.80346109 150.3552,7.79546109 150.3552,9.50746109 C150.3552,11.5074611 152.0832,11.8914611 153.6992,12.1794611 C154.8672,12.3874611 155.3152,12.6114611 155.3152,13.2034611 C155.3152,13.7634611 154.7552,14.0354611 153.9552,14.0354611 C152.9152,14.0354611 151.7152,13.5394611 150.8832,12.9634611 L150.0192,14.4674611 C150.9472,15.1074611 152.2432,15.6834611 153.9552,15.6834611 Z" id="puntos-básicos" fill="#FFFFFF"></path>
                <path d="M14.1143,7.8994 L13.0163,8.9974 L10.1443,6.1184 L10.1753,15.4484 L8.6623,13.9124 L8.6623,6.0944 L5.7133,9.0284 L4.6073,7.9294 L9.3763,3.1614 L14.1143,7.8994 Z M0.1383,9.3044 C0.1383,14.3954 4.2623,18.5194 9.3533,18.5194 C14.4443,18.5194 18.5683,14.3954 18.5683,9.3044 C18.5683,4.2124 14.4443,0.0894 9.3533,0.0894 C4.2623,0.0894 0.1383,4.2124 0.1383,9.3044 L0.1383,9.3044 Z" id="Fill-5" fill="#2ECDCD"></path>
            </g>
            <path d="M538.6651,314.789964 L538.6651,310.409964 L540.6301,310.409964 L543.3151,314.939964 L545.1451,314.639964 L542.5051,310.169964 C544.0351,309.779964 544.9501,308.864964 544.9501,307.094964 C544.9501,304.739964 543.4201,303.689964 540.7951,303.689964 L536.8201,303.689964 L536.8201,314.789964 L538.6651,314.789964 Z M538.6651,305.399964 L540.7051,305.399964 C542.2951,305.399964 543.1201,305.834964 543.1201,307.064964 C543.1201,308.324964 542.2951,308.774964 540.7051,308.774964 L538.6651,308.774964 L538.6651,305.399964 Z M547.9151,314.789964 L548.8451,312.149964 L553.0601,312.149964 L554.0051,314.939964 L555.8201,314.639964 L551.9351,303.644964 L550.1051,303.644964 L546.1751,314.789964 L547.9151,314.789964 Z M550.9601,305.999964 L550.9901,305.999964 L552.5201,310.499964 L549.4001,310.499964 L550.9601,305.999964 Z M560.6151,314.789964 L560.6151,305.429964 L564.1701,305.429964 L563.9001,303.689964 L555.3201,303.689964 L555.3201,305.429964 L558.7401,305.429964 L558.7401,314.789964 L560.6151,314.789964 Z M567.7201,314.789964 L567.7201,303.689964 L565.8601,303.689964 L565.8601,314.789964 L567.7201,314.789964 Z M574.8701,314.999964 C577.5401,314.999964 579.8651,312.974964 579.8651,309.239964 C579.8651,305.504964 577.5401,303.479964 574.8701,303.479964 C572.1851,303.479964 569.8601,305.504964 569.8601,309.239964 C569.8601,312.974964 572.1851,314.999964 574.8701,314.999964 Z M574.8701,313.319964 C572.9951,313.319964 571.7351,311.759964 571.7351,309.239964 C571.7351,306.719964 572.9951,305.204964 574.8701,305.204964 C576.7451,305.204964 578.0051,306.719964 578.0051,309.239964 C578.0051,311.759964 576.7451,313.319964 574.8701,313.319964 Z M588.8251,314.789964 C592.2601,314.789964 594.6001,313.154964 594.6001,309.194964 C594.6001,305.309964 592.3051,303.689964 588.8251,303.689964 L585.6751,303.689964 L585.6751,314.789964 L588.8251,314.789964 Z M587.5351,305.429964 L588.9601,305.429964 C591.5401,305.429964 592.7251,306.629964 592.7251,309.224964 C592.7251,311.924964 591.5551,313.094964 588.9901,313.094964 L587.5351,313.094964 L587.5351,305.429964 Z M604.0751,314.789964 L604.0751,313.094964 L598.4801,313.094964 L598.4801,309.854964 L602.8001,309.854964 L602.5301,308.189964 L598.4801,308.189964 L598.4801,305.429964 L603.7751,305.429964 L603.7751,303.689964 L596.6051,303.689964 L596.6051,314.789964 L604.0751,314.789964 Z M614.1151,314.999964 C616.4401,314.999964 617.7901,313.814964 618.4501,311.984964 L616.8301,311.249964 C616.3951,312.494964 615.4951,313.319964 614.1151,313.319964 C612.1801,313.319964 611.0701,311.759964 611.0701,309.194964 C611.0701,306.764964 612.1201,305.204964 614.0101,305.204964 C615.3451,305.204964 616.1551,305.954964 616.5901,306.989964 L618.1801,306.044964 C617.4151,304.394964 616.1101,303.479964 614.0101,303.479964 C611.2801,303.479964 609.1951,305.564964 609.1951,309.209964 C609.1951,312.959964 611.2501,314.999964 614.1151,314.999964 Z M620.8151,314.789964 L621.7451,312.149964 L625.9601,312.149964 L626.9051,314.939964 L628.7201,314.639964 L624.8351,303.644964 L623.0051,303.644964 L619.0751,314.789964 L620.8151,314.789964 Z M623.8601,305.999964 L623.8901,305.999964 L625.4201,310.499964 L622.3001,310.499964 L623.8601,305.999964 Z M632.2851,314.789964 L632.2851,310.574964 L634.2501,310.574964 C636.5301,310.574964 638.5701,309.824964 638.5701,307.094964 C638.5701,304.469964 636.6951,303.689964 634.3101,303.689964 L630.4251,303.689964 L630.4251,314.789964 L632.2851,314.789964 Z M632.2851,305.399964 L634.3251,305.399964 C636.0051,305.399964 636.7401,305.969964 636.7401,307.139964 C636.7401,308.384964 635.9901,308.939964 634.3401,308.939964 L632.2851,308.939964 L632.2851,305.399964 Z M642.3751,314.789964 L642.3751,303.689964 L640.5151,303.689964 L640.5151,314.789964 L642.3751,314.789964 Z M649.4951,314.789964 L649.4951,305.429964 L653.0501,305.429964 L652.7801,303.689964 L644.2001,303.689964 L644.2001,305.429964 L647.6201,305.429964 L647.6201,314.789964 L649.4951,314.789964 Z M654.1101,314.789964 L655.0401,312.149964 L659.2551,312.149964 L660.2001,314.939964 L662.0151,314.639964 L658.1301,303.644964 L656.3001,303.644964 L652.3701,314.789964 L654.1101,314.789964 Z M657.1551,305.999964 L657.1851,305.999964 L658.7151,310.499964 L655.5951,310.499964 L657.1551,305.999964 Z M670.8451,314.789964 L670.5601,313.094964 L665.5951,313.094964 L665.5951,303.689964 L663.7201,303.689964 L663.7201,314.789964 L670.8451,314.789964 Z M674.6151,314.789964 L676.4751,314.789964 L677.2101,310.574964 L679.5501,310.574964 C681.7851,310.574964 684.0651,309.644964 684.0651,306.599964 C684.0651,304.559964 682.4151,303.689964 679.8501,303.689964 L676.5651,303.689964 L674.6151,314.789964 Z M677.4951,308.939964 L678.1251,305.399964 L679.7451,305.399964 C681.4701,305.399964 682.1751,305.834964 682.1751,306.809964 C682.1751,308.444964 681.1701,308.939964 679.7301,308.939964 L677.4951,308.939964 Z M686.0551,314.789964 L687.0301,309.239964 C687.6601,308.654964 688.4401,308.249964 689.1151,308.249964 C690.0451,308.249964 690.3451,308.699964 690.1801,309.569964 L689.2651,314.789964 L691.1101,314.789964 L692.1001,309.164964 C692.3851,307.589964 691.6501,306.674964 690.0451,306.674964 C688.8451,306.674964 687.8101,307.319964 687.2701,307.949964 L688.0501,303.539964 L686.1451,303.839964 L684.2101,314.789964 L686.0551,314.789964 Z M695.9201,313.499964 C695.2001,313.499964 694.8101,313.139964 694.8101,312.614964 C694.8101,311.654964 695.6801,311.054964 698.4251,310.829964 L698.1251,312.569964 C697.4501,313.124964 696.7301,313.499964 695.9201,313.499964 Z M695.1251,314.924964 C696.0401,314.924964 697.0151,314.594964 697.9151,313.769964 L697.9151,314.789964 L699.5501,314.789964 L700.4501,309.704964 C700.7651,307.919964 700.1201,306.674964 697.7801,306.674964 C696.0701,306.674964 694.7951,307.214964 694.0751,307.844964 L694.8851,308.984964 C695.5901,308.444964 696.5651,308.189964 697.4351,308.189964 C698.4701,308.189964 698.8601,308.564964 698.6951,309.359964 L698.6501,309.584964 C694.6601,309.824964 692.9351,311.069964 692.9351,312.989964 C692.9351,314.144964 693.7751,314.924964 695.1251,314.924964 Z M704.7801,314.939964 C706.3251,314.939964 708.1551,314.384964 708.1551,312.254964 C708.1551,309.824964 704.1201,310.439964 704.1201,308.999964 C704.1201,308.399964 704.5551,308.114964 705.3351,308.114964 C706.4301,308.114964 707.1801,308.549964 707.7651,309.044964 L708.6501,307.754964 C707.9601,307.199964 707.0001,306.674964 705.2601,306.674964 C703.7301,306.674964 702.3201,307.499964 702.3201,309.239964 C702.3201,311.714964 706.3551,311.129964 706.3551,312.539964 C706.3551,313.334964 705.6951,313.544964 704.8401,313.529964 C703.7451,313.514964 702.7701,313.064964 702.1251,312.314964 L701.2101,313.499964 C701.7501,314.279964 702.9651,314.939964 704.7801,314.939964 Z M712.7401,314.954964 C714.3601,314.954964 715.3051,314.429964 716.1901,313.604964 L715.4101,312.434964 C714.5851,313.109964 713.9701,313.484964 712.9801,313.484964 C712.1251,313.484964 711.1201,313.154964 711.1201,311.594964 L711.1201,311.414964 L716.4451,311.414964 L716.5201,310.979964 C716.9851,308.309964 715.9801,306.674964 713.5951,306.674964 C712.1401,306.674964 709.3201,307.724964 709.3201,311.564964 C709.3201,313.799964 710.7451,314.954964 712.7401,314.954964 Z M711.3151,310.034964 C711.6901,308.774964 712.5301,308.174964 713.4601,308.174964 C714.7501,308.174964 715.1251,308.909964 715.0051,310.034964 L711.3151,310.034964 Z M721.1051,313.454964 C720.0851,313.454964 719.5001,312.809964 719.5001,311.624964 C719.5001,309.149964 720.7901,308.249964 721.8251,308.249964 C722.6351,308.249964 723.1901,308.564964 723.6101,309.044964 L722.9951,312.494964 C722.4251,313.109964 721.7951,313.454964 721.1051,313.454964 Z M720.3551,314.924964 C721.4201,314.924964 722.2151,314.474964 722.7701,313.739964 L722.7701,314.789964 L724.4351,314.789964 L726.4151,303.539964 L724.5101,303.839964 L723.8651,307.589964 C723.3701,307.049964 722.5601,306.674964 721.3901,306.674964 C719.6201,306.674964 717.6401,308.234964 717.6401,311.774964 C717.6401,313.964964 718.8701,314.924964 720.3551,314.924964 Z M730.7451,310.739964 L730.9851,309.419964 L727.2801,309.419964 L727.0401,310.739964 L730.7451,310.739964 Z M734.5501,305.654964 C735.2401,305.654964 735.6451,305.294964 735.7501,304.739964 C735.8551,304.184964 735.5251,303.704964 734.8351,303.704964 C734.1601,303.704964 733.7701,304.064964 733.6651,304.619964 C733.5601,305.174964 733.8751,305.654964 734.5501,305.654964 Z M733.8301,314.789964 L735.2401,306.824964 L733.3951,306.824964 L731.9851,314.789964 L733.8301,314.789964 Z M737.8601,314.789964 L738.8351,309.239964 C739.4651,308.654964 740.2451,308.249964 740.9201,308.249964 C741.8501,308.249964 742.1501,308.699964 741.9851,309.569964 L741.0701,314.789964 L742.9151,314.789964 L743.9051,309.164964 C744.1901,307.589964 743.4551,306.674964 741.8501,306.674964 C740.6501,306.674964 739.6151,307.319964 739.0751,307.949964 L739.1201,306.824964 L737.4251,306.824964 L736.0151,314.789964 L737.8601,314.789964 Z" id="RATIO-DE-CAPITAL-Phased-in" fill="#FFFFFF"></path>
            <g id="Group-9" transform="translate(538.000000, 302.915000)">
                <path d="M220.5672,14.4399635 C218.6922,12.7299635 217.4922,10.4349635 217.4922,7.77996352 C217.4922,5.13996352 218.6922,2.84496352 220.5522,1.13496352 L220.0872,0.609963522 C217.6422,2.66496352 216.3522,4.94496352 216.3522,7.77996352 C216.3522,10.6299635 217.6422,12.8949635 220.0872,14.9499635 L220.5672,14.4399635 Z M224.8072,7.28496352 C226.3822,7.28496352 227.2972,5.87496352 227.2972,3.92496352 C227.2972,1.91496352 226.3522,0.624963522 224.8222,0.624963522 C223.2922,0.624963522 222.3172,1.91496352 222.3172,3.98496352 C222.3172,5.93496352 223.2022,7.28496352 224.8072,7.28496352 Z M225.8272,11.8749635 L232.4572,0.774963522 L231.4972,0.774963522 L224.8672,11.8749635 L225.8272,11.8749635 Z M224.8222,6.47496352 C223.8172,6.47496352 223.2622,5.43996352 223.2622,3.92496352 C223.2622,2.52996352 223.8022,1.43496352 224.8072,1.43496352 C225.7972,1.43496352 226.3522,2.45496352 226.3522,3.95496352 C226.3522,5.36496352 225.8122,6.47496352 224.8222,6.47496352 Z M232.5022,12.0249635 C234.0922,12.0249635 235.0072,10.6149635 235.0072,8.67996352 C235.0072,6.65496352 234.0622,5.36496352 232.5322,5.36496352 C231.0022,5.36496352 230.0122,6.66996352 230.0122,8.72496352 C230.0122,10.6749635 230.9122,12.0249635 232.5022,12.0249635 Z M232.5172,11.2149635 C231.5122,11.2149635 230.9722,10.1799635 230.9722,8.67996352 C230.9722,7.26996352 231.4972,6.17496352 232.5022,6.17496352 C233.5072,6.17496352 234.0472,7.19496352 234.0472,8.69496352 C234.0472,10.1049635 233.5222,11.2149635 232.5172,11.2149635 Z M237.2372,14.9499635 C239.6822,12.8949635 240.9872,10.6299635 240.9872,7.77996352 C240.9872,4.94496352 239.6822,2.66496352 237.2372,0.609963522 L236.7722,1.13496352 C238.6322,2.84496352 239.8472,5.13996352 239.8472,7.77996352 C239.8472,10.4349635 238.6322,12.7299635 236.7722,14.4399635 L237.2372,14.9499635 Z" id="-(%)" fill="#FFFFFF"></path>
                <path d="M30.8849,46.1074562 L30.8849,32.7874562 L28.1309,32.7874562 L25.1429,33.6514562 L25.5029,36.0454562 L28.0589,35.4334562 L28.0589,46.1074562 L30.8849,46.1074562 Z M42.3969,46.1074562 L42.3969,43.4974562 L44.7549,43.4974562 L44.4669,41.1934562 L42.3969,41.1934562 L42.3969,32.7874562 L39.1749,32.7874562 L33.1089,41.3734562 L33.1089,43.4974562 L39.5709,43.4974562 L39.5709,46.1074562 L42.3969,46.1074562 Z M39.5349,36.2794562 L39.5709,36.2794562 L39.5709,41.1934562 L36.1329,41.1934562 L39.5349,36.2794562 Z" id="14-" fill="#FFFFFF"></path>
                <path d="M54.7962,44.6994611 C54.1082,44.6994611 53.6442,44.4434611 53.0842,43.9154611 L53.0842,40.7634611 C53.5162,40.3314611 54.1082,39.9314611 54.7642,39.9314611 C55.9162,39.9314611 56.4122,40.8274611 56.4122,42.2514611 C56.4122,43.8034611 55.8682,44.6994611 54.7962,44.6994611 Z M53.0842,49.5154611 L53.0842,45.4994611 C53.7242,46.2194611 54.5242,46.6354611 55.6762,46.6354611 C57.6282,46.6354611 58.9882,45.1794611 58.9882,42.2354611 C58.9882,39.2914611 57.6442,37.8034611 55.7082,37.8034611 C54.4442,37.8034611 53.6442,38.5074611 53.0842,39.2754611 L52.8922,37.9794611 L50.5082,37.9794611 L50.5082,49.8994611 L53.0842,49.5154611 Z M62.9002,46.6834611 C64.3882,46.6834611 65.3322,45.8354611 65.8442,45.1794611 L66.0362,46.5074611 L68.4202,46.5074611 L68.4202,37.9794611 L65.8442,37.9794611 L65.8442,43.7714611 C65.2682,44.2674611 64.6762,44.6354611 63.9882,44.6354611 C63.2682,44.6354611 62.9802,44.2194611 62.9802,43.4514611 L62.9802,37.9794611 L60.4042,37.9794611 L60.4042,44.2034611 C60.4042,45.9634611 61.4442,46.6834611 62.9002,46.6834611 Z M72.9562,46.5074611 L72.9562,40.7794611 C73.5322,40.2834611 74.1242,39.9314611 74.8122,39.9314611 C75.5322,39.9314611 75.8202,40.3314611 75.8202,41.0994611 L75.8202,46.5074611 L78.3802,46.5074611 L78.3802,40.2834611 C78.3802,38.5234611 77.3402,37.8034611 75.9002,37.8034611 C74.4122,37.8034611 73.4682,38.6514611 72.9562,39.3234611 L72.7642,37.9794611 L70.3802,37.9794611 L70.3802,46.5074611 L72.9562,46.5074611 Z M83.8282,46.6194611 C84.4362,46.6194611 85.4442,46.5234611 85.6522,46.4754611 L85.4762,44.6034611 C85.2202,44.6834611 84.9162,44.7474611 84.5962,44.7474611 C83.9242,44.7474611 83.4922,44.5714611 83.4922,43.6594611 L83.4922,39.8514611 L85.6842,39.8514611 L85.6842,37.9794611 L83.4922,37.9794611 L83.4922,34.8594611 L80.9322,35.2434611 L80.9322,37.9794611 L79.5082,37.9794611 L79.5082,39.8514611 L80.9322,39.8514611 L80.9322,43.9474611 C80.9322,45.9954611 81.8282,46.6194611 83.8282,46.6194611 Z M90.9242,46.6834611 C92.9882,46.6834611 95.2762,45.5634611 95.2762,42.2514611 C95.2762,38.9074611 92.9882,37.8034611 90.9242,37.8034611 C88.8442,37.8034611 86.5562,38.9074611 86.5562,42.2514611 C86.5562,45.5634611 88.8602,46.6834611 90.9242,46.6834611 Z M90.9242,44.8754611 C89.6122,44.8754611 89.1322,43.6914611 89.1322,42.2674611 C89.1322,40.7314611 89.6922,39.6914611 90.9242,39.6914611 C92.2042,39.6914611 92.7002,40.8434611 92.7002,42.2674611 C92.7002,43.8194611 92.1402,44.8754611 90.9242,44.8754611 Z M99.9562,46.6834611 C101.9242,46.6834611 103.7162,45.8674611 103.7162,43.8034611 C103.7162,41.8674611 101.9402,41.4834611 100.2602,41.1954611 C99.2042,41.0034611 98.7402,40.7954611 98.7402,40.2834611 C98.7402,39.8194611 99.1562,39.5314611 99.8922,39.5314611 C100.6922,39.5314611 101.6842,39.8194611 102.5642,40.3474611 L103.3482,38.8114611 C102.3402,38.2034611 101.2522,37.8034611 99.6682,37.8034611 C97.7642,37.8034611 96.3562,38.7954611 96.3562,40.5074611 C96.3562,42.5074611 98.0842,42.8914611 99.7002,43.1794611 C100.8682,43.3874611 101.3162,43.6114611 101.3162,44.2034611 C101.3162,44.7634611 100.7562,45.0354611 99.9562,45.0354611 C98.9162,45.0354611 97.7162,44.5394611 96.8842,43.9634611 L96.0202,45.4674611 C96.9482,46.1074611 98.2442,46.6834611 99.9562,46.6834611 Z M114.5962,46.6354611 C116.5482,46.6354611 117.9082,45.1794611 117.9082,42.2354611 C117.9082,39.2914611 116.5642,37.8034611 114.6282,37.8034611 C113.3642,37.8034611 112.5642,38.5074611 112.0042,39.2914611 L112.0042,34.4754611 L109.4282,34.8594611 L109.4282,46.5074611 L111.8122,46.5074611 L112.0042,45.4994611 C112.6442,46.2194611 113.4442,46.6354611 114.5962,46.6354611 Z M113.7162,44.6994611 C113.0282,44.6994611 112.5642,44.4434611 112.0042,43.9154611 L112.0042,40.7634611 C112.4362,40.3314611 113.0282,39.9314611 113.6842,39.9314611 C114.8362,39.9314611 115.3322,40.8274611 115.3322,42.2514611 C115.3322,43.8034611 114.7882,44.6994611 113.7162,44.6994611 Z M121.5962,37.0674611 L123.2922,37.0674611 L125.6762,34.2994611 L123.0842,34.2994611 L121.5962,37.0674611 Z M122.1402,44.6994611 C121.5802,44.6994611 121.1962,44.4274611 121.1962,43.8834611 C121.1962,43.0994611 122.0602,42.5874611 124.0922,42.3794611 L124.0922,43.9634611 C123.6602,44.3954611 123.0362,44.6994611 122.1402,44.6994611 Z M121.1162,46.6354611 C122.3802,46.6354611 123.3082,46.1394611 124.0922,45.2594611 L124.2842,46.5074611 L126.6042,46.5074611 L126.6042,41.1474611 C126.6042,38.9554611 125.6122,37.8034611 123.1802,37.8034611 C121.0682,37.8034611 119.7882,38.5714611 118.9402,39.3554611 L120.3322,40.7474611 C121.0362,40.1874611 121.8522,39.7394611 122.8122,39.7394611 C123.7402,39.7394611 124.0922,40.1394611 124.0922,40.7634611 L124.0922,40.9714611 C120.3482,41.2754611 118.6842,42.3634611 118.6842,44.3314611 C118.6842,45.7874611 119.8042,46.6354611 121.1162,46.6354611 Z M131.8282,46.6834611 C133.7962,46.6834611 135.5882,45.8674611 135.5882,43.8034611 C135.5882,41.8674611 133.8122,41.4834611 132.1322,41.1954611 C131.0762,41.0034611 130.6122,40.7954611 130.6122,40.2834611 C130.6122,39.8194611 131.0282,39.5314611 131.7642,39.5314611 C132.5642,39.5314611 133.5562,39.8194611 134.4362,40.3474611 L135.2202,38.8114611 C134.2122,38.2034611 133.1242,37.8034611 131.5402,37.8034611 C129.6362,37.8034611 128.2282,38.7954611 128.2282,40.5074611 C128.2282,42.5074611 129.9562,42.8914611 131.5722,43.1794611 C132.7402,43.3874611 133.1882,43.6114611 133.1882,44.2034611 C133.1882,44.7634611 132.6282,45.0354611 131.8282,45.0354611 C130.7882,45.0354611 129.5882,44.5394611 128.7562,43.9634611 L127.8922,45.4674611 C128.8202,46.1074611 130.1162,46.6834611 131.8282,46.6834611 Z M138.3642,37.1474611 C139.3242,37.1474611 139.8362,36.5554611 139.8362,35.8514611 C139.8362,35.1314611 139.3242,34.5554611 138.3642,34.5554611 C137.4202,34.5554611 136.9242,35.1314611 136.9242,35.8514611 C136.9242,36.5554611 137.4202,37.1474611 138.3642,37.1474611 Z M139.6602,46.5074611 L139.6602,37.9794611 L137.1002,37.9794611 L137.1002,46.5074611 L139.6602,46.5074611 Z M145.4282,46.6834611 C147.0602,46.6834611 148.5962,46.0114611 149.4122,44.2834611 L147.5082,43.3394611 C147.0762,44.3154611 146.4522,44.8754611 145.5562,44.8754611 C144.2922,44.8754611 143.8122,43.7874611 143.8122,42.2674611 C143.8122,40.5714611 144.4682,39.6914611 145.5402,39.6914611 C146.4042,39.6914611 146.9322,40.0754611 147.3322,41.0194611 L149.2042,40.0594611 C148.5002,38.4914611 147.0602,37.8034611 145.5402,37.8034611 C143.6522,37.8034611 141.2362,38.8434611 141.2362,42.2514611 C141.2362,45.5634611 143.4282,46.6834611 145.4282,46.6834611 Z M154.3802,46.6834611 C156.4442,46.6834611 158.7322,45.5634611 158.7322,42.2514611 C158.7322,38.9074611 156.4442,37.8034611 154.3802,37.8034611 C152.3002,37.8034611 150.0122,38.9074611 150.0122,42.2514611 C150.0122,45.5634611 152.3162,46.6834611 154.3802,46.6834611 Z M154.3802,44.8754611 C153.0682,44.8754611 152.5882,43.6914611 152.5882,42.2674611 C152.5882,40.7314611 153.1482,39.6914611 154.3802,39.6914611 C155.6602,39.6914611 156.1562,40.8434611 156.1562,42.2674611 C156.1562,43.8194611 155.5962,44.8754611 154.3802,44.8754611 Z M163.4122,46.6834611 C165.3802,46.6834611 167.1722,45.8674611 167.1722,43.8034611 C167.1722,41.8674611 165.3962,41.4834611 163.7162,41.1954611 C162.6602,41.0034611 162.1962,40.7954611 162.1962,40.2834611 C162.1962,39.8194611 162.6122,39.5314611 163.3482,39.5314611 C164.1482,39.5314611 165.1402,39.8194611 166.0202,40.3474611 L166.8042,38.8114611 C165.7962,38.2034611 164.7082,37.8034611 163.1242,37.8034611 C161.2202,37.8034611 159.8122,38.7954611 159.8122,40.5074611 C159.8122,42.5074611 161.5402,42.8914611 163.1562,43.1794611 C164.3242,43.3874611 164.7722,43.6114611 164.7722,44.2034611 C164.7722,44.7634611 164.2122,45.0354611 163.4122,45.0354611 C162.3722,45.0354611 161.1722,44.5394611 160.3402,43.9634611 L159.4762,45.4674611 C160.4042,46.1074611 161.7002,46.6834611 163.4122,46.6834611 Z" id="puntos-básicos" fill="#FFFFFF"></path>
                <path d="M14.7879,38.8994 L13.6899,39.9974 L10.8179,37.1184 L10.8489,46.4484 L9.3359,44.9124 L9.3359,37.0944 L6.3869,40.0284 L5.2809,38.9294 L10.0499,34.1614 L14.7879,38.8994 Z M0.8119,40.3044 C0.8119,45.3954 4.9359,49.5194 10.0269,49.5194 C15.1179,49.5194 19.2419,45.3954 19.2419,40.3044 C19.2419,35.2124 15.1179,31.0894 10.0269,31.0894 C4.9359,31.0894 0.8119,35.2124 0.8119,40.3044 L0.8119,40.3044 Z" id="Fill-8" fill="#2ECDCD"></path>
            </g>
            <path d="M36.7944,153.801256 L36.7944,140.481256 L35.6244,140.481256 L32.8344,141.471256 L32.9964,142.533256 L35.5524,141.669256 L35.5524,153.801256 L36.7944,153.801256 Z M45.0844,154.053256 C48.2164,154.053256 49.9444,151.299256 49.9444,147.141256 C49.9444,142.983256 48.2164,140.229256 45.0844,140.229256 C41.9524,140.229256 40.1884,142.983256 40.1884,147.141256 C40.1884,151.299256 41.9524,154.053256 45.0844,154.053256 Z M45.0844,152.919256 C42.8884,152.919256 41.4664,150.903256 41.4664,147.141256 C41.4664,143.379256 42.8164,141.363256 45.0844,141.363256 C47.2624,141.363256 48.6844,143.379256 48.6844,147.141256 C48.6844,150.903256 47.3344,152.919256 45.0844,152.919256 Z M52.4024,155.619256 L53.6624,152.109256 L52.1144,152.109256 L51.6464,155.619256 L52.4024,155.619256 Z M60.1524,154.053256 C62.8884,154.053256 64.5984,152.397256 64.5984,150.219256 C64.5984,148.257256 63.6264,147.105256 61.6284,146.709256 C63.2664,146.439256 64.2924,145.269256 64.2924,143.559256 C64.2924,141.831256 63.1044,140.229256 60.2964,140.229256 C58.5144,140.229256 57.1464,141.093256 56.1924,142.227256 L57.0384,143.037256 C57.8484,142.029256 58.8564,141.363256 60.2244,141.363256 C62.2404,141.363256 63.0504,142.389256 63.0504,143.685256 C63.0504,145.323256 61.9884,146.187256 59.1624,146.187256 L58.5144,146.187256 L58.5864,147.285256 L59.0544,147.285256 C62.2044,147.285256 63.3384,148.275256 63.3384,150.219256 C63.3384,151.821256 62.1504,152.919256 60.1524,152.919256 C58.6944,152.919256 57.4524,152.307256 56.4804,150.831256 L55.5984,151.587256 C56.5884,153.153256 58.2084,154.053256 60.1524,154.053256 Z" id="10,3" fill="#FFFFFF"></path>
            <path d="M92.1264,146.133256 L92.1264,132.813256 L90.9564,132.813256 L88.1664,133.803256 L88.3284,134.865256 L90.8844,134.001256 L90.8844,146.133256 L92.1264,146.133256 Z M100.4164,146.385256 C103.5484,146.385256 105.2764,143.631256 105.2764,139.473256 C105.2764,135.315256 103.5484,132.561256 100.4164,132.561256 C97.2844,132.561256 95.5204,135.315256 95.5204,139.473256 C95.5204,143.631256 97.2844,146.385256 100.4164,146.385256 Z M100.4164,145.251256 C98.2204,145.251256 96.7984,143.235256 96.7984,139.473256 C96.7984,135.711256 98.1484,133.695256 100.4164,133.695256 C102.5944,133.695256 104.0164,135.711256 104.0164,139.473256 C104.0164,143.235256 102.6664,145.251256 100.4164,145.251256 Z M107.7344,147.951256 L108.9944,144.441256 L107.4464,144.441256 L106.9784,147.951256 L107.7344,147.951256 Z M115.4844,140.049256 C113.3244,140.049256 112.4244,138.735256 112.4244,136.971256 C112.4244,134.883256 113.6844,133.677256 115.5924,133.677256 C117.3384,133.677256 118.8144,135.027256 119.0844,138.087256 C118.2384,139.257256 116.9604,140.049256 115.4844,140.049256 Z M115.1964,146.385256 C118.2024,146.385256 120.3624,143.343256 120.3624,139.239256 C120.3624,134.667256 118.2384,132.561256 115.6464,132.561256 C112.8924,132.561256 111.1824,134.469256 111.1824,136.989256 C111.1824,139.401256 112.5324,141.147256 115.3404,141.147256 C117.0324,141.147256 118.2744,140.283256 119.1204,139.365256 C119.1384,142.677256 117.6264,145.269256 115.1964,145.269256 C113.8284,145.269256 113.1624,144.873256 112.3344,144.189256 L111.7584,145.197256 C112.5144,145.863256 113.5764,146.385256 115.1964,146.385256 Z" id="10,9" fill="#FFFFFF"></path>
            <path d="M312.7704,138.627256 L312.7704,125.307256 L311.6004,125.307256 L308.8104,126.297256 L308.9724,127.359256 L311.5284,126.495256 L311.5284,138.627256 L312.7704,138.627256 Z M324.8404,138.627256 L324.7504,137.475256 L317.6224,137.475256 C317.6764,136.287256 318.9004,134.829256 321.2944,133.299256 C323.8504,131.679256 324.7324,130.527256 324.7324,128.709256 C324.7324,126.567256 323.2384,125.055256 320.8084,125.055256 C318.8824,125.055256 317.3884,126.063256 316.4884,127.899256 L317.4424,128.529256 C318.2164,126.945256 319.2784,126.189256 320.7544,126.189256 C322.5544,126.189256 323.4904,127.251256 323.4904,128.781256 C323.4904,130.221256 322.6804,131.139256 320.6824,132.399256 C317.1724,134.649256 316.2184,136.413256 316.2184,138.339256 L316.2184,138.627256 L324.8404,138.627256 Z M328.0904,140.445256 L329.3504,136.935256 L327.8024,136.935256 L327.3344,140.445256 L328.0904,140.445256 Z M335.9124,138.627256 L335.9124,125.307256 L334.7424,125.307256 L331.9524,126.297256 L332.1144,127.359256 L334.6704,126.495256 L334.6704,138.627256 L335.9124,138.627256 Z" id="12,1" fill="#FFFFFF"></path>
            <path d="M361.4424,135.963256 L361.4424,122.643256 L360.2724,122.643256 L357.4824,123.633256 L357.6444,124.695256 L360.2004,123.831256 L360.2004,135.963256 L361.4424,135.963256 Z M373.5124,135.963256 L373.4224,134.811256 L366.2944,134.811256 C366.3484,133.623256 367.5724,132.165256 369.9664,130.635256 C372.5224,129.015256 373.4044,127.863256 373.4044,126.045256 C373.4044,123.903256 371.9104,122.391256 369.4804,122.391256 C367.5544,122.391256 366.0604,123.399256 365.1604,125.235256 L366.1144,125.865256 C366.8884,124.281256 367.9504,123.525256 369.4264,123.525256 C371.2264,123.525256 372.1624,124.587256 372.1624,126.117256 C372.1624,127.557256 371.3524,128.475256 369.3544,129.735256 C365.8444,131.985256 364.8904,133.749256 364.8904,135.675256 L364.8904,135.963256 L373.5124,135.963256 Z M376.7624,137.781256 L378.0224,134.271256 L376.4744,134.271256 L376.0064,137.781256 L376.7624,137.781256 Z M388.8864,135.963256 L388.7964,134.811256 L381.6684,134.811256 C381.7224,133.623256 382.9464,132.165256 385.3404,130.635256 C387.8964,129.015256 388.7784,127.863256 388.7784,126.045256 C388.7784,123.903256 387.2844,122.391256 384.8544,122.391256 C382.9284,122.391256 381.4344,123.399256 380.5344,125.235256 L381.4884,125.865256 C382.2624,124.281256 383.3244,123.525256 384.8004,123.525256 C386.6004,123.525256 387.5364,124.587256 387.5364,126.117256 C387.5364,127.557256 386.7264,128.475256 384.7284,129.735256 C381.2184,131.985256 380.2644,133.749256 380.2644,135.675256 L380.2644,135.963256 L388.8864,135.963256 Z" id="12,2" fill="#FFFFFF"></path>
            <path d="M560.4324,114.633256 L560.4324,101.313256 L559.2624,101.313256 L556.4724,102.303256 L556.6344,103.365256 L559.1904,102.501256 L559.1904,114.633256 L560.4324,114.633256 Z M568.1104,114.885256 C570.9364,114.885256 572.6824,112.887256 572.6824,110.223256 C572.6824,107.559256 570.9724,105.867256 568.5604,105.867256 C567.1384,105.867256 566.2564,106.353256 565.6084,107.109256 L565.9684,102.483256 L571.9264,102.483256 L571.8904,101.313256 L564.9064,101.313256 L564.3844,108.279256 L565.3384,108.639256 C566.0584,107.595256 567.0124,106.965256 568.3804,106.965256 C570.1444,106.965256 571.4224,108.153256 571.4224,110.277256 C571.4224,112.041256 570.3964,113.751256 568.0924,113.751256 C566.4904,113.751256 565.3744,112.905256 564.5824,111.699256 L563.7544,112.509256 C564.6364,113.913256 566.1844,114.885256 568.1104,114.885256 Z M575.3204,116.451256 L576.5804,112.941256 L575.0324,112.941256 L574.5644,116.451256 L575.3204,116.451256 Z M583.1244,114.885256 C586.2564,114.885256 587.9844,112.131256 587.9844,107.973256 C587.9844,103.815256 586.2564,101.061256 583.1244,101.061256 C579.9924,101.061256 578.2284,103.815256 578.2284,107.973256 C578.2284,112.131256 579.9924,114.885256 583.1244,114.885256 Z M583.1244,113.751256 C580.9284,113.751256 579.5064,111.735256 579.5064,107.973256 C579.5064,104.211256 580.8564,102.195256 583.1244,102.195256 C585.3024,102.195256 586.7244,104.211256 586.7244,107.973256 C586.7244,111.735256 585.3744,113.751256 583.1244,113.751256 Z" id="15,0" fill="#FFFFFF"></path>
            <path d="M615.7644,112.959256 L615.7644,99.6392562 L614.5944,99.6392562 L611.8044,100.629256 L611.9664,101.691256 L614.5224,100.827256 L614.5224,112.959256 L615.7644,112.959256 Z M623.4424,113.211256 C626.2684,113.211256 628.0144,111.213256 628.0144,108.549256 C628.0144,105.885256 626.3044,104.193256 623.8924,104.193256 C622.4704,104.193256 621.5884,104.679256 620.9404,105.435256 L621.3004,100.809256 L627.2584,100.809256 L627.2224,99.6392562 L620.2384,99.6392562 L619.7164,106.605256 L620.6704,106.965256 C621.3904,105.921256 622.3444,105.291256 623.7124,105.291256 C625.4764,105.291256 626.7544,106.479256 626.7544,108.603256 C626.7544,110.367256 625.7284,112.077256 623.4244,112.077256 C621.8224,112.077256 620.7064,111.231256 619.9144,110.025256 L619.0864,110.835256 C619.9684,112.239256 621.5164,113.211256 623.4424,113.211256 Z M630.6524,114.777256 L631.9124,111.267256 L630.3644,111.267256 L629.8964,114.777256 L630.6524,114.777256 Z M638.4744,112.959256 L638.4744,99.6392562 L637.3044,99.6392562 L634.5144,100.629256 L634.6764,101.691256 L637.2324,100.827256 L637.2324,112.959256 L638.4744,112.959256 Z" id="15,1" fill="#FFFFFF"></path>
            <polygon id="Fill-10" fill-opacity="0.1" fill="url(#linearGradient-1)" points="0 258.695 47.534 279.2 62.805 271.621 18.999 253.446"></polygon>
            <g id="Group-18" transform="translate(30.000000, 171.915000)">
                <polygon id="Fill-12" fill="#2A86CA" points="16.8622 107.6777 32.8052 99.7057 32.8052 36.0397 16.8622 24.0117"></polygon>
                <polygon id="Fill-14" fill="#0064A8" points="16.8622 14.8018 32.8062 6.8298 16.8972 0.4548 0.9532 8.4268"></polygon>
                <polygon id="Fill-16" fill="#2A86CA" points="16.8622 14.8018 16.8622 24.0118 32.8052 36.0398 32.8052 6.8298"></polygon>
            </g>
            <polygon id="Fill-19" fill-opacity="0.1" fill="url(#linearGradient-1)" points="59.003 258.695 106.538 279.2 121.809 271.621 78.002 253.446"></polygon>
            <g id="Group-27" transform="translate(89.000000, 167.915000)">
                <polygon id="Fill-21" fill="#2ECDCD" points="16.8653 111.6777 32.8083 103.7057 32.8083 20.0397 16.8653 28.0117"></polygon>
                <polygon id="Fill-23" fill="#00A6A6" points="16.8653 14.8018 32.8093 6.8298 16.9003 0.4548 0.9563 8.4268"></polygon>
                <polygon id="Fill-25" fill="#2ECDCD" points="16.8653 14.8018 16.8653 28.0118 32.8083 20.0398 32.8083 6.8298"></polygon>
            </g>
            <polygon id="Fill-28" fill-opacity="0.1" fill="url(#linearGradient-1)" points="276.992 258.695 324.527 279.2 339.798 271.621 295.991 253.446"></polygon>
            <g id="Group-36" transform="translate(307.000000, 155.915000)">
                <polygon id="Fill-30" fill="#2A86CA" points="16.8543 123.6777 32.7973 115.7057 32.7973 52.0397 16.8543 40.0117"></polygon>
                <polygon id="Fill-32" fill="#0064A8" points="16.8543 14.8125 32.7983 6.8395 16.8893 0.4645 0.9453 8.4375"></polygon>
                <polygon id="Fill-34" fill="#2A86CA" points="16.8543 14.8125 16.8543 40.0115 32.7973 52.0405 32.7973 6.8395"></polygon>
            </g>
            <polygon id="Fill-37" fill-opacity="0.1" fill="url(#linearGradient-1)" points="327.996 258.695 375.53 279.2 390.801 271.621 346.994 253.446"></polygon>
            <g id="Group-45" transform="translate(358.000000, 154.915000)">
                <polygon id="Fill-39" fill="#2ECDCD" points="16.8578 124.6777 32.8008 116.7057 32.8008 33.0397 16.8578 41.0117"></polygon>
                <polygon id="Fill-41" fill="#00A6A6" points="16.8578 15.1348 32.8018 7.1628 16.8928 0.7878 0.9488 8.7598"></polygon>
                <polygon id="Fill-43" fill="#2ECDCD" points="16.8578 15.1348 16.8578 41.0118 32.8008 33.0398 32.8008 7.1628"></polygon>
            </g>
            <polygon id="Fill-46" fill-opacity="0.1" fill="url(#linearGradient-1)" points="527.477 258.695 575.012 279.2 590.282 271.621 546.475 253.446"></polygon>
            <g id="Group-54" transform="translate(558.000000, 130.915000)">
                <polygon id="Fill-48" fill="#2A86CA" points="16.3389 148.6777 32.2819 140.7057 32.2819 77.0397 16.3389 65.0117"></polygon>
                <polygon id="Fill-50" fill="#0064A8" points="16.3389 15.1348 32.2829 7.1628 16.3739 0.7878 0.4299 8.7598"></polygon>
                <polygon id="Fill-52" fill="#2A86CA" points="16.3389 15.1348 16.3389 65.0118 32.2819 77.0398 32.2819 7.1628"></polygon>
            </g>
            <polygon id="Fill-55" fill-opacity="0.1" fill="url(#linearGradient-1)" points="578.48 258.695 626.015 279.2 641.285 271.621 597.478 253.446"></polygon>
            <g id="Group-66" transform="translate(280.000000, 0.915000)">
                <polygon id="Fill-57" fill="#2ECDCD" points="345.3421 278.6777 361.2851 270.7057 361.2851 187.0397 345.3421 195.0117"></polygon>
                <polygon id="Fill-59" fill="#00A6A6" points="345.3421 144.1455 361.2861 136.1735 345.3771 129.7985 329.4331 137.7705"></polygon>
                <polygon id="Fill-61" fill="#2ECDCD" points="345.3421 144.1455 345.3421 195.0115 361.2851 187.0405 361.2851 136.1735"></polygon>
                <path d="M125.2361,12.1347635 L125.1611,11.1747635 L119.2211,11.1747635 C119.2661,10.1847635 120.2861,8.96976352 122.2811,7.69476352 C124.4111,6.34476352 125.1461,5.38476352 125.1461,3.86976352 C125.1461,2.08476352 123.9011,0.824763522 121.8761,0.824763522 C120.2711,0.824763522 119.0261,1.66476352 118.2761,3.19476352 L119.0711,3.71976352 C119.7161,2.39976352 120.6011,1.76976352 121.8311,1.76976352 C123.3311,1.76976352 124.1111,2.65476352 124.1111,3.92976352 C124.1111,5.12976352 123.4361,5.89476352 121.7711,6.94476352 C118.8461,8.81976352 118.0511,10.2897635 118.0511,11.8947635 L118.0511,12.1347635 L125.2361,12.1347635 Z M130.8831,12.3447635 C133.4931,12.3447635 134.9331,10.0497635 134.9331,6.58476352 C134.9331,3.11976352 133.4931,0.824763522 130.8831,0.824763522 C128.2731,0.824763522 126.8031,3.11976352 126.8031,6.58476352 C126.8031,10.0497635 128.2731,12.3447635 130.8831,12.3447635 Z M130.8831,11.3997635 C129.0531,11.3997635 127.8681,9.71976352 127.8681,6.58476352 C127.8681,3.44976352 128.9931,1.76976352 130.8831,1.76976352 C132.6981,1.76976352 133.8831,3.44976352 133.8831,6.58476352 C133.8831,9.71976352 132.7581,11.3997635 130.8831,11.3997635 Z M140.0851,12.1347635 L140.0851,1.03476352 L139.1101,1.03476352 L136.7851,1.85976352 L136.9201,2.74476352 L139.0501,2.02476352 L139.0501,12.1347635 L140.0851,12.1347635 Z M146.8571,12.3447635 C149.1521,12.3447635 150.5771,10.7547635 150.5771,8.65476352 C150.5771,6.64476352 149.4521,5.18976352 147.1121,5.18976352 C145.7021,5.18976352 144.6521,5.90976352 143.9471,6.67476352 C143.9471,3.89976352 145.2071,1.75476352 147.2621,1.75476352 C148.2521,1.75476352 148.7921,2.02476352 149.3921,2.50476352 L149.8871,1.66476352 C149.3021,1.18476352 148.5221,0.824763522 147.2771,0.824763522 C144.7271,0.824763522 142.9121,3.35976352 142.9121,6.77976352 C142.9121,10.5897635 144.6971,12.3447635 146.8571,12.3447635 Z M146.9021,11.4297635 C145.4321,11.4297635 144.2171,10.2897635 143.9921,7.73976352 C144.6971,6.76476352 145.7621,6.10476352 146.9921,6.10476352 C148.7921,6.10476352 149.5421,7.19976352 149.5421,8.66976352 C149.5421,10.4097635 148.4771,11.4297635 146.9021,11.4297635 Z" id="2016" fill="#FFFFFF"></path>
                <path d="M37.9061,12.1347635 L37.8311,11.1747635 L31.8911,11.1747635 C31.9361,10.1847635 32.9561,8.96976352 34.9511,7.69476352 C37.0811,6.34476352 37.8161,5.38476352 37.8161,3.86976352 C37.8161,2.08476352 36.5711,0.824763522 34.5461,0.824763522 C32.9411,0.824763522 31.6961,1.66476352 30.9461,3.19476352 L31.7411,3.71976352 C32.3861,2.39976352 33.2711,1.76976352 34.5011,1.76976352 C36.0011,1.76976352 36.7811,2.65476352 36.7811,3.92976352 C36.7811,5.12976352 36.1061,5.89476352 34.4411,6.94476352 C31.5161,8.81976352 30.7211,10.2897635 30.7211,11.8947635 L30.7211,12.1347635 L37.9061,12.1347635 Z M43.5531,12.3447635 C46.1631,12.3447635 47.6031,10.0497635 47.6031,6.58476352 C47.6031,3.11976352 46.1631,0.824763522 43.5531,0.824763522 C40.9431,0.824763522 39.4731,3.11976352 39.4731,6.58476352 C39.4731,10.0497635 40.9431,12.3447635 43.5531,12.3447635 Z M43.5531,11.3997635 C41.7231,11.3997635 40.5381,9.71976352 40.5381,6.58476352 C40.5381,3.44976352 41.6631,1.76976352 43.5531,1.76976352 C45.3681,1.76976352 46.5531,3.44976352 46.5531,6.58476352 C46.5531,9.71976352 45.4281,11.3997635 43.5531,11.3997635 Z M52.7551,12.1347635 L52.7551,1.03476352 L51.7801,1.03476352 L49.4551,1.85976352 L49.5901,2.74476352 L51.7201,2.02476352 L51.7201,12.1347635 L52.7551,12.1347635 Z M59.1521,12.3447635 C61.5071,12.3447635 62.9621,10.6797635 62.9621,8.45976352 C62.9621,6.23976352 61.5371,4.82976352 59.5271,4.82976352 C58.3421,4.82976352 57.6071,5.23476352 57.0671,5.86476352 L57.3671,2.00976352 L62.3321,2.00976352 L62.3021,1.03476352 L56.4821,1.03476352 L56.0471,6.83976352 L56.8421,7.13976352 C57.4421,6.26976352 58.2371,5.74476352 59.3771,5.74476352 C60.8471,5.74476352 61.9121,6.73476352 61.9121,8.50476352 C61.9121,9.97476352 61.0571,11.3997635 59.1371,11.3997635 C57.8021,11.3997635 56.8721,10.6947635 56.2121,9.68976352 L55.5221,10.3647635 C56.2571,11.5347635 57.5471,12.3447635 59.1521,12.3447635 Z" id="2015" fill="#FFFFFF"></path>
                <polygon id="Fill-64" fill="#2ECDCD" points="112.888 2.8535 108.255 12.1195 90.646 12.1195 95.279 2.8535"></polygon>
                <polygon id="Fill-65" fill="#2A86CA" points="22.6559 2.8535 18.0229 12.1195 0.4139 12.1195 5.0469 2.8535"></polygon>
            </g>
        </g>
    </g>
</svg>