<?xml version="1.0" encoding="UTF-8" standalone="no"?>
<svg width="747px" height="470px" viewBox="0 0 747 470" version="1.1" xmlns="http://www.w3.org/2000/svg" xmlns:xlink="http://www.w3.org/1999/xlink">
    <!-- Generator: Sketch 41.2 (35397) - http://www.bohemiancoding.com/sketch -->
    <title>Page 1</title>
    <desc>Created with Sketch.</desc>
    <defs></defs>
    <g id="Page-1" stroke="none" stroke-width="1" fill="none" fill-rule="evenodd">
        <g transform="translate(0.000000, -4.000000)">
            <g id="Group-2" transform="translate(619.000000, 0.927000)" font-size="15" font-family="BentonSansBBVA-Book, Benton Sans BBVA" letter-spacing="-0.008" fill="#FFFFFF" font-weight="300">
                <text id="2016">
                    <tspan x="0.3965" y="14.1225635">2016</tspan>
                </text>
                <text id="2015">
                    <tspan x="94.8065" y="14.1225635">2015</tspan>
                </text>
            </g>
            <polygon id="Fill-3" fill="#2ECDCD" points="610.9531 10.7678 606.3201 20.0338 588.7111 20.0338 593.3441 10.7678"></polygon>
            <polygon id="Fill-4" fill="#0086CD" points="702.4612 10.7678 697.8282 20.0338 680.2192 20.0338 684.8522 10.7678"></polygon>
            <text id="TOTAL-ACTIVO-(MM€)" font-family="BentonSansBBVA-Medium, Benton Sans BBVA" font-size="15" font-weight="400" letter-spacing="0.025" fill="#FFFFFF">
                <tspan x="1.8916" y="44.4005635">TOTAL ACTIVO </tspan>
                <tspan x="111.2066" y="44.4005635" font-family="BentonSansBBVA-Book, Benton Sans BBVA" font-weight="300">(MM€)</tspan>
            </text>
            <text id="CRÉDITOS-A-LA-CLIENTELA-" font-family="BentonSansBBVA-Medium, Benton Sans BBVA" font-size="15" font-weight="400" letter-spacing="0.025" fill="#FFFFFF">
                <tspan x="0" y="136.733564">CRÉDITOS A LA CLIENTELA </tspan>
            </text>
            <text id="(MM€)" font-family="BentonSansBBVA-Book, Benton Sans BBVA" font-size="15" font-weight="300" letter-spacing="0.025" fill="#FFFFFF">
                <tspan x="213.2227" y="132.733564">(MM€)</tspan>
            </text>
            <text id="DEPÓSITOS-DE-LA-CLIENTELA-" font-family="BentonSansBBVA-Medium, Benton Sans BBVA" font-size="15" font-weight="400" letter-spacing="0.025" fill="#FFFFFF">
                <tspan x="0.5586" y="231.243364">DEPÓSITOS DE LA CLIENTELA </tspan>
            </text>
            <text id="(MM€)" font-family="BentonSansBBVA-Book, Benton Sans BBVA" font-size="15" font-weight="300" letter-spacing="0.025" fill="#FFFFFF">
                <tspan x="234.7959" y="227.243364">(MM€)</tspan>
            </text>
            <text id="PATRIMONIO-NETO-(MM€)" font-family="BentonSansBBVA-Medium, Benton Sans BBVA" font-size="15" font-weight="400" letter-spacing="0.025" fill="#FFFFFF">
                <tspan x="1.0059" y="420.078364">PATRIMONIO NETO </tspan>
                <tspan x="144.9259" y="420.078364" font-family="BentonSansBBVA-Book, Benton Sans BBVA" font-weight="300">(MM€)</tspan>
            </text>
            <text id="750" font-family="BentonSansBBVA-Book, Benton Sans BBVA" font-size="15" font-weight="300" letter-spacing="-0.008" fill="#FFFFFF">
                <tspan x="649.2009" y="90.2483635">750</tspan>
            </text>
            <text id="732" font-family="BentonSansBBVA-Book, Benton Sans BBVA" font-size="15" font-weight="300" letter-spacing="-0.008" fill="#FFFFFF">
                <tspan x="637.3359" y="68.9183635">732</tspan>
            </text>
            <text id="430" font-family="BentonSansBBVA-Book, Benton Sans BBVA" font-size="15" font-weight="300" letter-spacing="-0.008" fill="#FFFFFF">
                <tspan x="380.1459" y="162.428364">430</tspan>
            </text>
            <text id="401" font-family="BentonSansBBVA-Book, Benton Sans BBVA" font-size="15" font-weight="300" letter-spacing="-0.008" fill="#FFFFFF">
                <tspan x="366.4059" y="261.053364">401</tspan>
            </text>
            <text id="403" font-family="BentonSansBBVA-Book, Benton Sans BBVA" font-size="15" font-weight="300" letter-spacing="-0.008" fill="#FFFFFF">
                <tspan x="367.0809" y="281.768364">403</tspan>
            </text>
            <text id="55" font-family="BentonSansBBVA-Book, Benton Sans BBVA" font-size="15" font-weight="300" letter-spacing="-0.008" fill="#FFFFFF">
                <tspan x="78.7959" y="450.173364">55</tspan>
            </text>
            <text id="55" font-family="BentonSansBBVA-Book, Benton Sans BBVA" font-size="15" font-weight="300" letter-spacing="-0.008" fill="#FFFFFF">
                <tspan x="78.8516" y="470.386964">55</tspan>
            </text>
            <text id="433" font-family="BentonSansBBVA-Book, Benton Sans BBVA" font-size="15" font-weight="300" letter-spacing="-0.008" fill="#FFFFFF">
                <tspan x="383.9717" y="184.422564">433</tspan>
            </text>
            <polygon id="Fill-8" points="2.658 66.365 22.492 66.365 35.119 72.734 18.157 72.734"></polygon>
            <polygon id="Fill-10" points="2.658 86.226 22.492 86.226 35.119 92.596 18.157 92.596"></polygon>
            <polygon id="Fill-12" points="1.658 160.824 21.492 160.824 34.119 167.194 17.157 167.194"></polygon>
            <polygon id="Fill-14" points="1.658 180.686 21.492 180.686 34.119 187.056 17.157 187.056"></polygon>
            <polygon id="Fill-16" points="1.658 257.529 21.492 257.529 34.119 263.899 17.157 263.899"></polygon>
            <polygon id="Fill-18" points="1.658 278.39 21.492 278.39 34.119 284.76 17.157 284.76"></polygon>
            <polygon id="Fill-20" points="1.325 446.955 21.159 446.955 33.786 453.324 16.824 453.324"></polygon>
            <polygon id="Fill-22" points="1.325 466.817 21.159 466.817 33.786 473.186 16.824 473.186"></polygon>
            <polygon id="Fill-24" points="1.325 353.646 21.159 353.646 33.786 360.016 16.824 360.016"></polygon>
            <polygon id="Fill-26" points="1.325 373.508 21.159 373.508 33.786 379.878 16.824 379.878"></polygon>
            <polygon id="Fill-28" fill="#2ECDCD" points="623.8013 63.4744 619.1683 72.7404 18.1433 72.7404 22.7763 63.4744"></polygon>
            <polygon id="Fill-29" fill="#2A86CA" points="638.7678 83.3357 634.1348 92.6017 18.1588 92.6017 22.7918 83.3357"></polygon>
            <polygon id="Fill-30" fill="#2ECDCD" points="373.3982 157.8928 368.7652 167.1588 17.4812 167.1588 22.1142 157.8928"></polygon>
            <polygon id="Fill-31" fill="#2A86CA" points="376.2764 177.7395 371.6434 187.0055 17.4584 187.0055 22.0914 177.7395"></polygon>
            <polygon id="Fill-32" fill="#2ECDCD" points="349.2214 254.7405 344.5884 264.0065 17.4254 264.0065 22.0594 254.7405"></polygon>
            <polygon id="Fill-33" fill="#2A86CA" points="350.9482 275.509 346.3152 284.775 17.7142 284.775 22.3472 275.509"></polygon>
            <polygon id="Fill-34" fill="#2ECDCD" points="62.2764 444.2336 57.6434 453.4996 17.1124 453.4996 21.7454 444.2336"></polygon>
            <polygon id="Fill-35" fill="#2A86CA" points="62.0283 464.072 57.3953 473.338 17.2303 473.338 21.8633 464.072"></polygon>
            <text id="PATRIMONIO-NETO-(MM€)" font-family="BentonSansBBVA-Medium, Benton Sans BBVA" font-size="15" font-weight="400" letter-spacing="0.025" fill="#FFFFFF">
                <tspan x="1" y="327.005064">PATRIMONIO NETO </tspan>
                <tspan x="144.92" y="327.005064" font-family="BentonSansBBVA-Book, Benton Sans BBVA" font-weight="300">(MM€)</tspan>
            </text>
            <text id="536" font-family="BentonSansBBVA-Book, Benton Sans BBVA" font-size="15" font-weight="300" letter-spacing="-0.008" fill="#FFFFFF">
                <tspan x="477.595" y="357.100064">536</tspan>
            </text>
            <text id="535" font-family="BentonSansBBVA-Book, Benton Sans BBVA" font-size="15" font-weight="300" letter-spacing="-0.008" fill="#FFFFFF">
                <tspan x="477.655" y="377.320064">535</tspan>
            </text>
            <polygon id="Fill-36" fill="#2ECDCD" points="461.0723 351.1609 456.4393 360.4269 17.1133 360.4269 21.7463 351.1609"></polygon>
            <polygon id="Fill-37" fill="#2A86CA" points="460.8242 370.9993 456.1912 380.2653 17.2302 380.2653 21.8632 370.9993"></polygon>
        </g>
    </g>
</svg>