<?xml version="1.0" encoding="UTF-8" standalone="no"?>
<svg width="605px" height="234px" viewBox="0 0 605 234" version="1.1" xmlns="http://www.w3.org/2000/svg" xmlns:xlink="http://www.w3.org/1999/xlink">
    <!-- Generator: Sketch 41.2 (35397) - http://www.bohemiancoding.com/sketch -->
    <title>Group</title>
    <desc>Created with Sketch.</desc>
    <defs>
        <linearGradient x1="0%" y1="50%" x2="100%" y2="50%" id="linearGradient-1">
            <stop stop-color="#000000" stop-opacity="0" offset="0%"></stop>
            <stop stop-color="#000000" offset="100%"></stop>
        </linearGradient>
    </defs>
    <g id="Page-1" stroke="none" stroke-width="1" fill="none" fill-rule="evenodd">
        <g id="Group" transform="translate(0.000000, -1.000000)">
            <g id="Page-1">
                <rect id="Rectangle-2" fill-opacity="0.2" fill="url(#linearGradient-1)" x="442" y="21" width="100" height="10"></rect>
                <rect id="Rectangle-2-Copy" fill-opacity="0.2" fill="url(#linearGradient-1)" x="441" y="109" width="100" height="10"></rect>
                <rect id="Rectangle-2-Copy-2" fill-opacity="0.2" fill="url(#linearGradient-1)" x="441" y="199" width="100" height="10"></rect>
                <rect id="Rectangle-2-Copy-3" fill-opacity="0.2" fill="url(#linearGradient-1)" transform="translate(352.000000, 158.000000) rotate(-180.000000) translate(-352.000000, -158.000000) " x="302" y="153" width="100" height="10"></rect>
                <rect id="Rectangle-2-Copy-4" fill-opacity="0.2" fill="url(#linearGradient-1)" transform="translate(352.000000, 92.000000) rotate(-180.000000) translate(-352.000000, -92.000000) " x="302" y="87" width="100" height="10"></rect>
                <rect id="Rectangle-2-Copy-5" fill-opacity="0.2" fill="url(#linearGradient-1)" transform="translate(352.000000, 13.000000) rotate(-180.000000) translate(-352.000000, -13.000000) " x="302" y="8" width="100" height="10"></rect>
                <path d="M557.688247,27.1342957 L564.053812,13.3287232 L564.053812,12.0921007 L554.78928,12.0921007 L554.890643,13.4098132 L562.553648,13.4098132 L556.2489,27.0532057 L557.688247,27.1342957 Z M571.039825,27.3775657 C574.56724,27.3775657 576.5134,24.2758732 576.5134,19.5929257 C576.5134,14.9099782 574.56724,11.8082857 571.039825,11.8082857 C567.51241,11.8082857 565.525705,14.9099782 565.525705,19.5929257 C565.525705,24.2758732 567.51241,27.3775657 571.039825,27.3775657 Z M571.039825,26.1003982 C568.56658,26.1003982 566.965052,23.8298782 566.965052,19.5929257 C566.965052,15.3559732 568.48549,13.0854532 571.039825,13.0854532 C573.492797,13.0854532 575.094325,15.3559732 575.094325,19.5929257 C575.094325,23.8298782 573.573887,26.1003982 571.039825,26.1003982 Z" id="70" fill="#FFFFFF"></path>
                <path d="M560.445308,198.234196 C563.972723,198.234196 565.918882,195.132503 565.918882,190.449556 C565.918882,185.766608 563.972723,182.664916 560.445308,182.664916 C556.917892,182.664916 554.931187,185.766608 554.931187,190.449556 C554.931187,195.132503 556.917892,198.234196 560.445308,198.234196 Z M560.445308,196.957028 C557.972062,196.957028 556.370535,194.686508 556.370535,190.449556 C556.370535,186.212603 557.890972,183.942083 560.445308,183.942083 C562.89828,183.942083 564.499807,186.212603 564.499807,190.449556 C564.499807,194.686508 562.97937,196.957028 560.445308,196.957028 Z M568.688215,199.997903 L570.10729,196.044766 L568.363855,196.044766 L567.83677,199.997903 L568.688215,199.997903 Z M577.47848,198.254468 C580.843715,198.254468 582.810147,196.450216 582.810147,194.321603 C582.810147,192.132173 581.350527,191.057731 578.796192,189.942743 C580.924805,188.989936 582.120882,188.057401 582.120882,186.273421 C582.120882,184.428623 580.47881,182.644643 577.47848,182.644643 C574.538968,182.644643 572.815805,184.428623 572.815805,186.273421 C572.815805,188.097946 574.052428,189.071026 576.09995,189.983288 C573.626705,191.057731 572.12654,192.213263 572.12654,194.321603 C572.12654,196.490761 574.092972,198.254468 577.47848,198.254468 Z M577.539297,189.395386 C575.248505,188.402033 574.214607,187.692496 574.214607,186.273421 C574.214607,185.077343 575.329595,183.860993 577.47848,183.860993 C579.728727,183.860993 580.72208,185.138161 580.72208,186.334238 C580.72208,187.733041 579.789545,188.422306 577.539297,189.395386 Z M577.47848,197.038118 C575.187688,197.038118 573.545615,195.882586 573.545615,194.240513 C573.545615,192.638986 574.741692,191.726723 577.39739,190.550918 C579.971998,191.625361 581.391072,192.557896 581.391072,194.240513 C581.391072,195.943403 579.749,197.038118 577.47848,197.038118 Z M592.897852,197.950381 L592.897852,194.321603 L595.452188,194.321603 L595.39137,193.044436 L592.897852,193.044436 L592.897852,182.948731 L591.113872,182.948731 L584.28204,193.247161 L584.28204,194.321603 L591.49905,194.321603 L591.49905,197.950381 L592.897852,197.950381 Z M591.458505,184.631348 L591.49905,184.631348 L591.49905,193.044436 L585.90384,193.044436 L591.458505,184.631348 Z" id="0,84" fill="#FFFFFF"></path>
                <path d="M250.2236,57.202 L604.6066,57.202" id="Stroke-1" stroke="#1364A5"></path>
                <path d="M563.101005,116.032651 L563.101005,112.403873 L565.65534,112.403873 L565.594523,111.126706 L563.101005,111.126706 L563.101005,101.031001 L561.317025,101.031001 L554.485192,111.329431 L554.485192,112.403873 L561.702202,112.403873 L561.702202,116.032651 L563.101005,116.032651 Z M561.661657,102.713618 L561.702202,102.713618 L561.702202,111.126706 L556.106992,111.126706 L561.661657,102.713618 Z M568.201675,118.080173 L569.62075,114.127036 L567.877315,114.127036 L567.35023,118.080173 L568.201675,118.080173 Z M576.931123,109.180546 C574.498422,109.180546 573.484798,107.700653 573.484798,105.713948 C573.484798,103.362338 574.903873,102.004081 577.052757,102.004081 C579.01919,102.004081 580.681535,103.524518 580.985622,106.970843 C580.032815,108.288556 578.593467,109.180546 576.931123,109.180546 Z M576.606762,116.316466 C579.99227,116.316466 582.42497,112.890413 582.42497,108.268283 C582.42497,103.119068 580.032815,100.747186 577.113575,100.747186 C574.011882,100.747186 572.085995,102.896071 572.085995,105.734221 C572.085995,108.450736 573.606432,110.417168 576.768942,110.417168 C578.674557,110.417168 580.07336,109.444088 581.026167,108.410191 C581.04644,112.140331 579.34355,115.059571 576.606762,115.059571 C575.066052,115.059571 574.31597,114.613576 573.383435,113.843221 L572.734715,114.978481 C573.58616,115.728563 574.782237,116.316466 576.606762,116.316466 Z" id="4,9" fill="#FFFFFF"></path>
                <g id="Group-4" transform="translate(272.000000, 0.994000)" fill="#FFFFFF">
                    <path d="M3.2693967,12.9073063 L8.5740185,1.40269662 L8.5740185,0.372180917 L0.8535976,0.372180917 L0.9380661,1.47027142 L7.3238847,1.47027142 L2.069944,12.8397315 L3.2693967,12.9073063 Z M15.6444788,12.8735189 L15.6444788,9.84954662 L17.773085,9.84954662 L17.7224039,8.78524352 L15.6444788,8.78524352 L15.6444788,0.372180917 L14.1578332,0.372180917 L8.4646563,8.95418052 L8.4646563,9.84954662 L14.4788135,9.84954662 L14.4788135,12.8735189 L15.6444788,12.8735189 Z M14.4450261,1.77435802 L14.4788135,1.77435802 L14.4788135,8.78524352 L9.8161523,8.78524352 L14.4450261,1.77435802 Z" id="74"></path>
                </g>
                <path d="M263.511586,164.112619 L263.511586,151.611281 L262.413495,151.611281 L259.794972,152.540434 L259.947015,153.537163 L262.34592,152.726265 L262.34592,164.112619 L263.511586,164.112619 Z M267.980416,165.818883 L269.162975,162.524611 L267.710117,162.524611 L267.270881,165.818883 L267.980416,165.818883 Z M275.304282,164.349131 C278.243786,164.349131 279.865581,161.764395 279.865581,157.86195 C279.865581,153.959505 278.243786,151.374769 275.304282,151.374769 C272.364778,151.374769 270.709196,153.959505 270.709196,157.86195 C270.709196,161.764395 272.364778,164.349131 275.304282,164.349131 Z M275.304282,163.284828 C273.243251,163.284828 271.908648,161.392733 271.908648,157.86195 C271.908648,154.331167 273.175676,152.439072 275.304282,152.439072 C277.34842,152.439072 278.683022,154.331167 278.683022,157.86195 C278.683022,161.392733 277.415994,163.284828 275.304282,163.284828 Z M286.175825,164.349131 C288.760561,164.349131 290.365462,162.558399 290.365462,160.193281 C290.365462,157.929525 289.098435,156.290836 286.463018,156.290836 C284.87501,156.290836 283.692451,157.101733 282.898447,157.963312 C282.898447,154.837978 284.317518,152.422179 286.631955,152.422179 C287.746939,152.422179 288.355112,152.726265 289.03086,153.266864 L289.588352,152.320816 C288.929498,151.780218 288.051025,151.374769 286.648848,151.374769 C283.776919,151.374769 281.732782,154.229804 281.732782,158.081568 C281.732782,162.372568 283.743132,164.349131 286.175825,164.349131 Z M286.226506,163.318615 C284.570923,163.318615 283.202534,162.034694 282.949128,159.162765 C283.743132,158.064674 284.942585,157.321352 286.327868,157.321352 C288.355112,157.321352 289.199797,158.554592 289.199797,160.210174 C289.199797,162.169843 288.000344,163.318615 286.226506,163.318615 Z" id="1,06" fill="#FFFFFF"></path>
                <g id="Group-6" transform="translate(290.000000, 225.994000)" fill="#F3F3F3">
                    <path d="M5.6955774,8.30233535 L5.6448964,7.65361855 L1.6309612,7.65361855 C1.6613698,6.98462935 2.3506314,6.16359715 3.698746,5.30202015 C5.1380864,4.38976215 5.6347602,3.74104535 5.6347602,2.71728915 C5.6347602,1.51108135 4.7934556,0.65964055 3.4250686,0.65964055 C2.3404952,0.65964055 1.4991906,1.22726775 0.9923806,2.26116015 L1.5295992,2.61592715 C1.9654558,1.72394155 2.5634916,1.29822115 3.39466,1.29822115 C4.40828,1.29822115 4.9353624,1.89625695 4.9353624,2.75783395 C4.9353624,3.56872995 4.4792334,4.08567615 3.3541152,4.79521015 C1.3775562,6.06223515 0.8403376,7.05558275 0.8403376,8.14015615 L0.8403376,8.30233535 L5.6955774,8.30233535 Z M9.5089248,8.44424215 C11.2726236,8.44424215 12.2456988,6.89340355 12.2456988,4.55194135 C12.2456988,2.21047915 11.2726236,0.65964055 9.5089248,0.65964055 C7.745226,0.65964055 6.7518784,2.21047915 6.7518784,4.55194135 C6.7518784,6.89340355 7.745226,8.44424215 9.5089248,8.44424215 Z M9.5089248,7.80566155 C8.2723084,7.80566155 7.4715486,6.67040715 7.4715486,4.55194135 C7.4715486,2.43347555 8.2317636,1.29822115 9.5089248,1.29822115 C10.735405,1.29822115 11.5361648,2.43347555 11.5361648,4.55194135 C11.5361648,6.67040715 10.7759498,7.80566155 9.5089248,7.80566155 Z M15.7245516,8.30233535 L15.7245516,0.80154735 L15.0656986,0.80154735 L13.4945876,1.35903835 L13.5858134,1.95707415 L15.0251538,1.47053655 L15.0251538,8.30233535 L15.7245516,8.30233535 Z M20.044709,8.44424215 C21.6360924,8.44424215 22.6193038,7.31912395 22.6193038,5.81896635 C22.6193038,4.31880875 21.6563648,3.36600595 20.298114,3.36600595 C19.4973542,3.36600595 19.0006804,3.63968335 18.6357772,4.06540375 L18.8385012,1.46040035 L22.1935834,1.46040035 L22.173311,0.80154735 L18.2404654,0.80154735 L17.9465156,4.72425675 L18.4837342,4.92698075 C18.8891822,4.33908115 19.4264008,3.98431415 20.196752,3.98431415 C21.1900996,3.98431415 21.9097698,4.65330335 21.9097698,5.84937495 C21.9097698,6.84272255 21.3320064,7.80566155 20.0345728,7.80566155 C19.132451,7.80566155 18.5040066,7.32926015 18.0580138,6.65013475 L17.5917486,7.10626375 C18.0884224,7.89688735 18.9601356,8.44424215 20.044709,8.44424215 Z" id="2015"></path>
                    <path d="M244.990987,8.30233535 L244.940306,7.65361855 L240.926371,7.65361855 C240.956779,6.98462935 241.646041,6.16359715 242.994156,5.30202015 C244.433496,4.38976215 244.93017,3.74104535 244.93017,2.71728915 C244.93017,1.51108135 244.088865,0.65964055 242.720478,0.65964055 C241.635905,0.65964055 240.7946,1.22726775 240.28779,2.26116015 L240.825009,2.61592715 C241.260865,1.72394155 241.858901,1.29822115 242.69007,1.29822115 C243.70369,1.29822115 244.230772,1.89625695 244.230772,2.75783395 C244.230772,3.56872995 243.774643,4.08567615 242.649525,4.79521015 C240.672966,6.06223515 240.135747,7.05558275 240.135747,8.14015615 L240.135747,8.30233535 L244.990987,8.30233535 Z M248.804334,8.44424215 C250.568033,8.44424215 251.541108,6.89340355 251.541108,4.55194135 C251.541108,2.21047915 250.568033,0.65964055 248.804334,0.65964055 C247.040636,0.65964055 246.047288,2.21047915 246.047288,4.55194135 C246.047288,6.89340355 247.040636,8.44424215 248.804334,8.44424215 Z M248.804334,7.80566155 C247.567718,7.80566155 246.766958,6.67040715 246.766958,4.55194135 C246.766958,2.43347555 247.527173,1.29822115 248.804334,1.29822115 C250.030815,1.29822115 250.831574,2.43347555 250.831574,4.55194135 C250.831574,6.67040715 250.071359,7.80566155 248.804334,7.80566155 Z M255.019961,8.30233535 L255.019961,0.80154735 L254.361108,0.80154735 L252.789997,1.35903835 L252.881223,1.95707415 L254.320563,1.47053655 L254.320563,8.30233535 L255.019961,8.30233535 Z M259.593524,8.44424215 C261.144362,8.44424215 262.107301,7.36980495 262.107301,5.95073695 C262.107301,4.59248615 261.347086,3.60927475 259.765839,3.60927475 C258.813036,3.60927475 258.103502,4.09581235 257.627101,4.61275855 C257.627101,2.73756155 258.478542,1.28808495 259.867201,1.28808495 C260.53619,1.28808495 260.901093,1.47053655 261.306541,1.79489495 L261.641036,1.22726775 C261.245724,0.90290935 260.718642,0.65964055 259.877337,0.65964055 C258.154183,0.65964055 256.927703,2.37265835 256.927703,4.68371195 C256.927703,7.25830675 258.133911,8.44424215 259.593524,8.44424215 Z M259.623932,7.82593395 C258.630585,7.82593395 257.809552,7.05558275 257.657509,5.33242875 C258.133911,4.67357575 258.853581,4.22758295 259.684749,4.22758295 C260.901093,4.22758295 261.407903,4.96752555 261.407903,5.96087315 C261.407903,7.13667235 260.688233,7.82593395 259.623932,7.82593395 Z" id="2016"></path>
                </g>
                <path d="M271.874217,96.5644307 C274.526528,96.5644307 276.165217,94.68923 276.165217,92.1889624 C276.165217,89.6886948 274.560315,88.100687 272.29656,88.100687 C270.961957,88.100687 270.134166,88.5568169 269.525993,89.2663523 L269.863867,84.9246714 L275.455681,84.9246714 L275.421894,83.8265809 L268.867138,83.8265809 L268.377221,90.3644428 L269.272587,90.7023168 C269.948335,89.7224822 270.843701,89.1312027 272.127623,89.1312027 C273.783205,89.1312027 274.982658,90.2461869 274.982658,92.2396435 C274.982658,93.8952261 274.019717,95.5001276 271.857323,95.5001276 C270.353784,95.5001276 269.306375,94.7061237 268.563052,93.5742458 L267.785942,94.3344623 C268.613733,95.6521709 270.066591,96.5644307 271.874217,96.5644307 Z M278.640591,98.0341826 L279.82315,94.7399111 L278.370292,94.7399111 L277.931055,98.0341826 L278.640591,98.0341826 Z M287.974807,96.3279189 L287.974807,93.3039466 L290.103413,93.3039466 L290.052732,92.2396435 L287.974807,92.2396435 L287.974807,83.8265809 L286.488161,83.8265809 L280.794984,92.4085805 L280.794984,93.3039466 L286.809142,93.3039466 L286.809142,96.3279189 L287.974807,96.3279189 Z M286.775354,85.228758 L286.809142,85.228758 L286.809142,92.2396435 L282.14648,92.2396435 L286.775354,85.228758 Z" id="5,4" fill="#FFFFFF"></path>
                <path d="M301.6472,216.6781 L301.6472,220.9651" id="Stroke-7" stroke="#1364A5"></path>
                <path d="M541.0234,216.6781 L541.0234,220.9841" id="Stroke-8" stroke="#1364A5"></path>
                <g id="Group-16" transform="translate(0.000000, 20.994000)">
                    <path d="M250.2236,116.6162 L604.6066,116.6162 L250.2236,116.6162 Z" id="Stroke-9" stroke="#1364A5"></path>
                    <path d="M250.2236,195.6841 L604.6066,195.6841" id="Stroke-11" stroke="#1364A5"></path>
                    <path d="M5.7,11.8446635 L5.7,2.48466352 L9.255,2.48466352 L8.985,0.744663522 L0.405,0.744663522 L0.405,2.48466352 L3.825,2.48466352 L3.825,11.8446635 L5.7,11.8446635 Z M10.315,11.8446635 L11.245,9.20466352 L15.46,9.20466352 L16.405,11.9946635 L18.22,11.6946635 L14.335,0.699663522 L12.505,0.699663522 L8.575,11.8446635 L10.315,11.8446635 Z M13.36,3.05466352 L13.39,3.05466352 L14.92,7.55466352 L11.8,7.55466352 L13.36,3.05466352 Z M23.51,12.0546635 C26.15,12.0546635 27.62,10.6296635 27.62,8.82966352 C27.62,6.72966352 25.94,6.05466352 23.84,5.43966352 C22.025,4.89966352 21.23,4.53966352 21.23,3.50466352 C21.23,2.78466352 21.95,2.22966352 23.21,2.22966352 C24.38,2.22966352 25.55,2.84466352 26.435,3.62466352 L27.32,2.12466352 C26.27,1.25466352 24.875,0.534663522 23.18,0.534663522 C20.96,0.534663522 19.4,1.77966352 19.4,3.65466352 C19.4,5.76966352 21.11,6.33966352 23.255,6.96966352 C25.085,7.52466352 25.79,7.97466352 25.79,8.94966352 C25.79,9.90966352 24.845,10.3896635 23.45,10.3896635 C22.085,10.3896635 20.69,9.62466352 19.835,8.73966352 L18.83,10.1646635 C19.955,11.2296635 21.515,12.0546635 23.51,12.0546635 Z M30.165,11.8446635 L31.095,9.20466352 L35.31,9.20466352 L36.255,11.9946635 L38.07,11.6946635 L34.185,0.699663522 L32.355,0.699663522 L28.425,11.8446635 L30.165,11.8446635 Z M33.21,3.05466352 L33.24,3.05466352 L34.77,7.55466352 L31.65,7.55466352 L33.21,3.05466352 Z M46.265,11.8446635 C49.7,11.8446635 52.04,10.2096635 52.04,6.24966352 C52.04,2.36466352 49.745,0.744663522 46.265,0.744663522 L43.115,0.744663522 L43.115,11.8446635 L46.265,11.8446635 Z M44.975,2.48466352 L46.4,2.48466352 C48.98,2.48466352 50.165,3.68466352 50.165,6.27966352 C50.165,8.97966352 48.995,10.1496635 46.43,10.1496635 L44.975,10.1496635 L44.975,2.48466352 Z M61.515,11.8446635 L61.515,10.1496635 L55.92,10.1496635 L55.92,6.90966352 L60.24,6.90966352 L59.97,5.24466352 L55.92,5.24466352 L55.92,2.48466352 L61.215,2.48466352 L61.215,0.744663522 L54.045,0.744663522 L54.045,11.8446635 L61.515,11.8446635 Z M71.555,12.0546635 C73.88,12.0546635 75.23,10.8696635 75.89,9.03966352 L74.27,8.30466352 C73.835,9.54966352 72.935,10.3746635 71.555,10.3746635 C69.62,10.3746635 68.51,8.81466352 68.51,6.24966352 C68.51,3.81966352 69.56,2.25966352 71.45,2.25966352 C72.785,2.25966352 73.595,3.00966352 74.03,4.04466352 L75.62,3.09966352 C74.855,1.44966352 73.55,0.534663522 71.45,0.534663522 C68.72,0.534663522 66.635,2.61966352 66.635,6.26466352 C66.635,10.0146635 68.69,12.0546635 71.555,12.0546635 Z M82.17,12.0546635 C84.84,12.0546635 87.165,10.0296635 87.165,6.29466352 C87.165,2.55966352 84.84,0.534663522 82.17,0.534663522 C79.485,0.534663522 77.16,2.55966352 77.16,6.29466352 C77.16,10.0296635 79.485,12.0546635 82.17,12.0546635 Z M82.17,10.3746635 C80.295,10.3746635 79.035,8.81466352 79.035,6.29466352 C79.035,3.77466352 80.295,2.25966352 82.17,2.25966352 C84.045,2.25966352 85.305,3.77466352 85.305,6.29466352 C85.305,8.81466352 84.045,10.3746635 82.17,10.3746635 Z M93.655,11.8446635 C95.92,11.8446635 97.585,10.8396635 97.585,8.79966352 C97.585,7.08966352 96.55,6.30966352 95.29,6.08466352 L95.29,6.05466352 C96.325,5.82966352 97.255,5.03466352 97.255,3.50466352 C97.255,1.46466352 95.62,0.744663522 93.385,0.744663522 L89.185,0.744663522 L89.185,11.8446635 L93.655,11.8446635 Z M91.03,2.37966352 L93.235,2.37966352 C94.795,2.37966352 95.455,2.87466352 95.455,3.84966352 C95.455,4.85466352 94.675,5.37966352 93.205,5.37966352 L91.03,5.37966352 L91.03,2.37966352 Z M91.03,6.96966352 L93.265,6.96966352 C94.84,6.96966352 95.755,7.49466352 95.755,8.61966352 C95.755,9.63966352 95.05,10.2246635 93.46,10.2246635 L91.03,10.2246635 L91.03,6.96966352 Z M107.21,11.8446635 L107.21,10.1496635 L101.615,10.1496635 L101.615,6.90966352 L105.935,6.90966352 L105.665,5.24466352 L101.615,5.24466352 L101.615,2.48466352 L106.91,2.48466352 L106.91,0.744663522 L99.74,0.744663522 L99.74,11.8446635 L107.21,11.8446635 Z M110.925,11.8446635 L110.925,7.46466352 L112.89,7.46466352 L115.575,11.9946635 L117.405,11.6946635 L114.765,7.22466352 C116.295,6.83466352 117.21,5.91966352 117.21,4.14966352 C117.21,1.79466352 115.68,0.744663522 113.055,0.744663522 L109.08,0.744663522 L109.08,11.8446635 L110.925,11.8446635 Z M110.925,2.45466352 L112.965,2.45466352 C114.555,2.45466352 115.38,2.88966352 115.38,4.11966352 C115.38,5.37966352 114.555,5.82966352 112.965,5.82966352 L110.925,5.82966352 L110.925,2.45466352 Z M123.61,11.8446635 L123.61,2.48466352 L127.165,2.48466352 L126.895,0.744663522 L118.315,0.744663522 L118.315,2.48466352 L121.735,2.48466352 L121.735,11.8446635 L123.61,11.8446635 Z M132.875,12.0396635 C135.8,12.0396635 137.165,10.2996635 137.165,7.77966352 L137.165,0.744663522 L135.32,0.744663522 L135.32,7.71966352 C135.32,9.32466352 134.585,10.3296635 132.89,10.3296635 C131.18,10.3296635 130.445,9.29466352 130.445,7.70466352 L130.445,0.744663522 L128.57,0.744663522 L128.57,7.80966352 C128.57,10.2996635 129.935,12.0396635 132.875,12.0396635 Z M141.405,11.8446635 L141.405,7.46466352 L143.37,7.46466352 L146.055,11.9946635 L147.885,11.6946635 L145.245,7.22466352 C146.775,6.83466352 147.69,5.91966352 147.69,4.14966352 C147.69,1.79466352 146.16,0.744663522 143.535,0.744663522 L139.56,0.744663522 L139.56,11.8446635 L141.405,11.8446635 Z M141.405,2.45466352 L143.445,2.45466352 C145.035,2.45466352 145.86,2.88966352 145.86,4.11966352 C145.86,5.37966352 145.035,5.82966352 143.445,5.82966352 L141.405,5.82966352 L141.405,2.45466352 Z M150.655,11.8446635 L151.585,9.20466352 L155.8,9.20466352 L156.745,11.9946635 L158.56,11.6946635 L154.675,0.699663522 L152.845,0.699663522 L148.915,11.8446635 L150.655,11.8446635 Z M153.7,3.05466352 L153.73,3.05466352 L155.26,7.55466352 L152.14,7.55466352 L153.7,3.05466352 Z M171.61,14.0646635 C169.945,12.4146635 168.865,10.2096635 168.865,7.64466352 C168.865,5.09466352 169.93,2.93466352 171.55,1.26966352 L170.71,0.369663522 C168.265,2.42466352 166.915,4.70466352 166.915,7.64466352 C166.915,10.5846635 168.265,12.8646635 170.71,14.9196635 L171.61,14.0646635 Z M175.73,7.58466352 C177.485,7.58466352 178.52,6.15966352 178.52,4.05966352 C178.52,1.94466352 177.455,0.579663522 175.745,0.579663522 C174.02,0.579663522 172.94,1.94466352 172.94,4.08966352 C172.94,6.18966352 173.96,7.58466352 175.73,7.58466352 Z M177.545,11.8446635 L184.175,0.744663522 L182.57,0.744663522 L175.94,11.8446635 L177.545,11.8446635 Z M175.745,6.36966352 C174.89,6.36966352 174.485,5.46966352 174.485,4.05966352 C174.485,2.72466352 174.875,1.80966352 175.73,1.80966352 C176.555,1.80966352 176.96,2.69466352 176.96,4.08966352 C176.96,5.42466352 176.57,6.36966352 175.745,6.36966352 Z M184.385,11.9946635 C186.14,11.9946635 187.175,10.5546635 187.175,8.46966352 C187.175,6.35466352 186.11,4.97466352 184.4,4.97466352 C182.675,4.97466352 181.595,6.35466352 181.595,8.49966352 C181.595,10.5846635 182.63,11.9946635 184.385,11.9946635 Z M184.4,10.7646635 C183.545,10.7646635 183.155,9.87966352 183.155,8.46966352 C183.155,7.13466352 183.53,6.21966352 184.385,6.21966352 C185.225,6.21966352 185.615,7.08966352 185.615,8.48466352 C185.615,9.81966352 185.24,10.7646635 184.4,10.7646635 Z M189.405,14.9196635 C191.85,12.8646635 193.2,10.5846635 193.2,7.64466352 C193.2,4.70466352 191.85,2.42466352 189.405,0.369663522 L188.55,1.26966352 C190.185,2.93466352 191.25,5.09466352 191.25,7.64466352 C191.25,10.2096635 190.17,12.4146635 188.52,14.0646635 L189.405,14.9196635 Z" id="TASA-DE-COBERTURA--(%)" fill="#FFFFFF"></path>
                    <path d="M5.7,87.4596635 L5.7,78.0996635 L9.255,78.0996635 L8.985,76.3596635 L0.405,76.3596635 L0.405,78.0996635 L3.825,78.0996635 L3.825,87.4596635 L5.7,87.4596635 Z M10.315,87.4596635 L11.245,84.8196635 L15.46,84.8196635 L16.405,87.6096635 L18.22,87.3096635 L14.335,76.3146635 L12.505,76.3146635 L8.575,87.4596635 L10.315,87.4596635 Z M13.36,78.6696635 L13.39,78.6696635 L14.92,83.1696635 L11.8,83.1696635 L13.36,78.6696635 Z M23.51,87.6696635 C26.15,87.6696635 27.62,86.2446635 27.62,84.4446635 C27.62,82.3446635 25.94,81.6696635 23.84,81.0546635 C22.025,80.5146635 21.23,80.1546635 21.23,79.1196635 C21.23,78.3996635 21.95,77.8446635 23.21,77.8446635 C24.38,77.8446635 25.55,78.4596635 26.435,79.2396635 L27.32,77.7396635 C26.27,76.8696635 24.875,76.1496635 23.18,76.1496635 C20.96,76.1496635 19.4,77.3946635 19.4,79.2696635 C19.4,81.3846635 21.11,81.9546635 23.255,82.5846635 C25.085,83.1396635 25.79,83.5896635 25.79,84.5646635 C25.79,85.5246635 24.845,86.0046635 23.45,86.0046635 C22.085,86.0046635 20.69,85.2396635 19.835,84.3546635 L18.83,85.7796635 C19.955,86.8446635 21.515,87.6696635 23.51,87.6696635 Z M30.165,87.4596635 L31.095,84.8196635 L35.31,84.8196635 L36.255,87.6096635 L38.07,87.3096635 L34.185,76.3146635 L32.355,76.3146635 L28.425,87.4596635 L30.165,87.4596635 Z M33.21,78.6696635 L33.24,78.6696635 L34.77,83.1696635 L31.65,83.1696635 L33.21,78.6696635 Z M46.265,87.4596635 C49.7,87.4596635 52.04,85.8246635 52.04,81.8646635 C52.04,77.9796635 49.745,76.3596635 46.265,76.3596635 L43.115,76.3596635 L43.115,87.4596635 L46.265,87.4596635 Z M44.975,78.0996635 L46.4,78.0996635 C48.98,78.0996635 50.165,79.2996635 50.165,81.8946635 C50.165,84.5946635 48.995,85.7646635 46.43,85.7646635 L44.975,85.7646635 L44.975,78.0996635 Z M61.515,87.4596635 L61.515,85.7646635 L55.92,85.7646635 L55.92,82.5246635 L60.24,82.5246635 L59.97,80.8596635 L55.92,80.8596635 L55.92,78.0996635 L61.215,78.0996635 L61.215,76.3596635 L54.045,76.3596635 L54.045,87.4596635 L61.515,87.4596635 Z M68.87,87.4596635 L68.87,79.0896635 L68.9,79.0896635 C69.14,80.1696635 69.305,80.6346635 69.56,81.4296635 L71.72,87.4596635 L73.385,87.4596635 L75.56,81.4296635 C75.8,80.6496635 76.04,79.9446635 76.205,79.1646635 L76.235,79.1646635 L76.235,87.4596635 L78.05,87.4596635 L78.05,76.3596635 L75.545,76.3596635 L72.65,85.1646635 L72.62,85.1646635 L69.635,76.3596635 L67.175,76.3596635 L67.175,87.4596635 L68.87,87.4596635 Z M85.065,87.6696635 C87.735,87.6696635 90.06,85.6446635 90.06,81.9096635 C90.06,78.1746635 87.735,76.1496635 85.065,76.1496635 C82.38,76.1496635 80.055,78.1746635 80.055,81.9096635 C80.055,85.6446635 82.38,87.6696635 85.065,87.6696635 Z M85.065,85.9896635 C83.19,85.9896635 81.93,84.4296635 81.93,81.9096635 C81.93,79.3896635 83.19,77.8746635 85.065,77.8746635 C86.94,77.8746635 88.2,79.3896635 88.2,81.9096635 C88.2,84.4296635 86.94,85.9896635 85.065,85.9896635 Z M93.925,87.4596635 L93.925,83.0796635 L95.89,83.0796635 L98.575,87.6096635 L100.405,87.3096635 L97.765,82.8396635 C99.295,82.4496635 100.21,81.5346635 100.21,79.7646635 C100.21,77.4096635 98.68,76.3596635 96.055,76.3596635 L92.08,76.3596635 L92.08,87.4596635 L93.925,87.4596635 Z M93.925,78.0696635 L95.965,78.0696635 C97.555,78.0696635 98.38,78.5046635 98.38,79.7346635 C98.38,80.9946635 97.555,81.4446635 95.965,81.4446635 L93.925,81.4446635 L93.925,78.0696635 Z M103.175,87.4596635 L104.105,84.8196635 L108.32,84.8196635 L109.265,87.6096635 L111.08,87.3096635 L107.195,76.3146635 L105.365,76.3146635 L101.435,87.4596635 L103.175,87.4596635 Z M106.22,78.6696635 L106.25,78.6696635 L107.78,83.1696635 L104.66,83.1696635 L106.22,78.6696635 Z M120.34,89.6796635 C118.675,88.0296635 117.595,85.8246635 117.595,83.2596635 C117.595,80.7096635 118.66,78.5496635 120.28,76.8846635 L119.44,75.9846635 C116.995,78.0396635 115.645,80.3196635 115.645,83.2596635 C115.645,86.1996635 116.995,88.4796635 119.44,90.5346635 L120.34,89.6796635 Z M124.46,83.1996635 C126.215,83.1996635 127.25,81.7746635 127.25,79.6746635 C127.25,77.5596635 126.185,76.1946635 124.475,76.1946635 C122.75,76.1946635 121.67,77.5596635 121.67,79.7046635 C121.67,81.8046635 122.69,83.1996635 124.46,83.1996635 Z M126.275,87.4596635 L132.905,76.3596635 L131.3,76.3596635 L124.67,87.4596635 L126.275,87.4596635 Z M124.475,81.9846635 C123.62,81.9846635 123.215,81.0846635 123.215,79.6746635 C123.215,78.3396635 123.605,77.4246635 124.46,77.4246635 C125.285,77.4246635 125.69,78.3096635 125.69,79.7046635 C125.69,81.0396635 125.3,81.9846635 124.475,81.9846635 Z M133.115,87.6096635 C134.87,87.6096635 135.905,86.1696635 135.905,84.0846635 C135.905,81.9696635 134.84,80.5896635 133.13,80.5896635 C131.405,80.5896635 130.325,81.9696635 130.325,84.1146635 C130.325,86.1996635 131.36,87.6096635 133.115,87.6096635 Z M133.13,86.3796635 C132.275,86.3796635 131.885,85.4946635 131.885,84.0846635 C131.885,82.7496635 132.26,81.8346635 133.115,81.8346635 C133.955,81.8346635 134.345,82.7046635 134.345,84.0996635 C134.345,85.4346635 133.97,86.3796635 133.13,86.3796635 Z M138.135,90.5346635 C140.58,88.4796635 141.93,86.1996635 141.93,83.2596635 C141.93,80.3196635 140.58,78.0396635 138.135,75.9846635 L137.28,76.8846635 C138.915,78.5496635 139.98,80.7096635 139.98,83.2596635 C139.98,85.8246635 138.9,88.0296635 137.25,89.6796635 L138.135,90.5346635 Z" id="TASA-DE-MORA-(%)" fill="#FFFFFF"></path>
                    <path d="M5.64,162.879664 C7.965,162.879664 9.315,161.694664 9.975,159.864664 L8.355,159.129664 C7.92,160.374664 7.02,161.199664 5.64,161.199664 C3.705,161.199664 2.595,159.639664 2.595,157.074664 C2.595,154.644664 3.645,153.084664 5.535,153.084664 C6.87,153.084664 7.68,153.834664 8.115,154.869664 L9.705,153.924664 C8.94,152.274664 7.635,151.359664 5.535,151.359664 C2.805,151.359664 0.72,153.444664 0.72,157.089664 C0.72,160.839664 2.775,162.879664 5.64,162.879664 Z M16.255,162.879664 C18.925,162.879664 21.25,160.854664 21.25,157.119664 C21.25,153.384664 18.925,151.359664 16.255,151.359664 C13.57,151.359664 11.245,153.384664 11.245,157.119664 C11.245,160.854664 13.57,162.879664 16.255,162.879664 Z M16.255,161.199664 C14.38,161.199664 13.12,159.639664 13.12,157.119664 C13.12,154.599664 14.38,153.084664 16.255,153.084664 C18.13,153.084664 19.39,154.599664 19.39,157.119664 C19.39,159.639664 18.13,161.199664 16.255,161.199664 Z M27.08,162.879664 C29.72,162.879664 31.19,161.454664 31.19,159.654664 C31.19,157.554664 29.51,156.879664 27.41,156.264664 C25.595,155.724664 24.8,155.364664 24.8,154.329664 C24.8,153.609664 25.52,153.054664 26.78,153.054664 C27.95,153.054664 29.12,153.669664 30.005,154.449664 L30.89,152.949664 C29.84,152.079664 28.445,151.359664 26.75,151.359664 C24.53,151.359664 22.97,152.604664 22.97,154.479664 C22.97,156.594664 24.68,157.164664 26.825,157.794664 C28.655,158.349664 29.36,158.799664 29.36,159.774664 C29.36,160.734664 28.415,161.214664 27.02,161.214664 C25.655,161.214664 24.26,160.449664 23.405,159.564664 L22.4,160.989664 C23.525,162.054664 25.085,162.879664 27.08,162.879664 Z M37.17,162.669664 L37.17,153.309664 L40.725,153.309664 L40.455,151.569664 L31.875,151.569664 L31.875,153.309664 L35.295,153.309664 L35.295,162.669664 L37.17,162.669664 Z M49.75,162.669664 L49.75,160.974664 L44.155,160.974664 L44.155,157.734664 L48.475,157.734664 L48.205,156.069664 L44.155,156.069664 L44.155,153.309664 L49.45,153.309664 L49.45,151.569664 L42.28,151.569664 L42.28,162.669664 L49.75,162.669664 Z M58.56,162.669664 C61.995,162.669664 64.335,161.034664 64.335,157.074664 C64.335,153.189664 62.04,151.569664 58.56,151.569664 L55.41,151.569664 L55.41,162.669664 L58.56,162.669664 Z M57.27,153.309664 L58.695,153.309664 C61.275,153.309664 62.46,154.509664 62.46,157.104664 C62.46,159.804664 61.29,160.974664 58.725,160.974664 L57.27,160.974664 L57.27,153.309664 Z M73.81,162.669664 L73.81,160.974664 L68.215,160.974664 L68.215,157.734664 L72.535,157.734664 L72.265,156.069664 L68.215,156.069664 L68.215,153.309664 L73.51,153.309664 L73.51,151.569664 L66.34,151.569664 L66.34,162.669664 L73.81,162.669664 Z M81.315,162.669664 L81.315,158.289664 L83.28,158.289664 L85.965,162.819664 L87.795,162.519664 L85.155,158.049664 C86.685,157.659664 87.6,156.744664 87.6,154.974664 C87.6,152.619664 86.07,151.569664 83.445,151.569664 L79.47,151.569664 L79.47,162.669664 L81.315,162.669664 Z M81.315,153.279664 L83.355,153.279664 C84.945,153.279664 85.77,153.714664 85.77,154.944664 C85.77,156.204664 84.945,156.654664 83.355,156.654664 L81.315,156.654664 L81.315,153.279664 Z M91.855,162.669664 L91.855,151.569664 L89.995,151.569664 L89.995,162.669664 L91.855,162.669664 Z M102.005,162.669664 L102.005,160.974664 L96.41,160.974664 L96.41,157.734664 L100.73,157.734664 L100.46,156.069664 L96.41,156.069664 L96.41,153.309664 L101.705,153.309664 L101.705,151.569664 L94.535,151.569664 L94.535,162.669664 L102.005,162.669664 Z M107.61,162.879664 C110.25,162.879664 111.72,161.454664 111.72,159.654664 C111.72,157.554664 110.04,156.879664 107.94,156.264664 C106.125,155.724664 105.33,155.364664 105.33,154.329664 C105.33,153.609664 106.05,153.054664 107.31,153.054664 C108.48,153.054664 109.65,153.669664 110.535,154.449664 L111.42,152.949664 C110.37,152.079664 108.975,151.359664 107.28,151.359664 C105.06,151.359664 103.5,152.604664 103.5,154.479664 C103.5,156.594664 105.21,157.164664 107.355,157.794664 C109.185,158.349664 109.89,158.799664 109.89,159.774664 C109.89,160.734664 108.945,161.214664 107.55,161.214664 C106.185,161.214664 104.79,160.449664 103.935,159.564664 L102.93,160.989664 C104.055,162.054664 105.615,162.879664 107.61,162.879664 Z M117.805,162.879664 C119.335,162.879664 120.415,162.264664 120.865,161.424664 L120.895,161.424664 L120.895,162.669664 L122.44,162.669664 L122.44,157.179664 L118.27,157.179664 L118.54,158.694664 L120.655,158.694664 C120.535,160.254664 119.515,161.199664 118.045,161.199664 C116.47,161.199664 114.985,160.029664 114.985,157.029664 C114.985,154.029664 116.65,153.084664 118.03,153.084664 C119.275,153.084664 120.07,153.744664 120.535,154.854664 L122.14,153.984664 C121.3,152.139664 119.68,151.359664 117.955,151.359664 C115.045,151.359664 113.095,153.594664 113.095,157.074664 C113.095,160.404664 114.67,162.879664 117.805,162.879664 Z M129.305,162.879664 C131.975,162.879664 134.3,160.854664 134.3,157.119664 C134.3,153.384664 131.975,151.359664 129.305,151.359664 C126.62,151.359664 124.295,153.384664 124.295,157.119664 C124.295,160.854664 126.62,162.879664 129.305,162.879664 Z M129.305,161.199664 C127.43,161.199664 126.17,159.639664 126.17,157.119664 C126.17,154.599664 127.43,153.084664 129.305,153.084664 C131.18,153.084664 132.44,154.599664 132.44,157.119664 C132.44,159.639664 131.18,161.199664 129.305,161.199664 Z M144.325,164.889664 C142.66,163.239664 141.58,161.034664 141.58,158.469664 C141.58,155.919664 142.645,153.759664 144.265,152.094664 L143.425,151.194664 C140.98,153.249664 139.63,155.529664 139.63,158.469664 C139.63,161.409664 140.98,163.689664 143.425,165.744664 L144.325,164.889664 Z M148.445,158.409664 C150.2,158.409664 151.235,156.984664 151.235,154.884664 C151.235,152.769664 150.17,151.404664 148.46,151.404664 C146.735,151.404664 145.655,152.769664 145.655,154.914664 C145.655,157.014664 146.675,158.409664 148.445,158.409664 Z M150.26,162.669664 L156.89,151.569664 L155.285,151.569664 L148.655,162.669664 L150.26,162.669664 Z M148.46,157.194664 C147.605,157.194664 147.2,156.294664 147.2,154.884664 C147.2,153.549664 147.59,152.634664 148.445,152.634664 C149.27,152.634664 149.675,153.519664 149.675,154.914664 C149.675,156.249664 149.285,157.194664 148.46,157.194664 Z M157.1,162.819664 C158.855,162.819664 159.89,161.379664 159.89,159.294664 C159.89,157.179664 158.825,155.799664 157.115,155.799664 C155.39,155.799664 154.31,157.179664 154.31,159.324664 C154.31,161.409664 155.345,162.819664 157.1,162.819664 Z M157.115,161.589664 C156.26,161.589664 155.87,160.704664 155.87,159.294664 C155.87,157.959664 156.245,157.044664 157.1,157.044664 C157.94,157.044664 158.33,157.914664 158.33,159.309664 C158.33,160.644664 157.955,161.589664 157.115,161.589664 Z M162.12,165.744664 C164.565,163.689664 165.915,161.409664 165.915,158.469664 C165.915,155.529664 164.565,153.249664 162.12,151.194664 L161.265,152.094664 C162.9,153.759664 163.965,155.919664 163.965,158.469664 C163.965,161.034664 162.885,163.239664 161.235,164.889664 L162.12,165.744664 Z" id="COSTE-DE-RIESGO-(%)" fill="#FFFFFF"></path>
                </g>
                <polygon id="Fill-17" fill="#45C2C4" points="301.5276 87.3392 301.5276 97.4422 541.0216 118.7732 541.0216 108.6712"></polygon>
                <polygon id="Fill-19" fill="#D8BE75" points="301.5276 151.9989 301.5276 162.1019 541.0216 208.4429 541.0216 198.3409"></polygon>
                <polygon id="Fill-21" fill="#1364A5" points="302.5276 7.9056 302.5276 16.8816 542.0216 30.1626 542.0216 21.1866"></polygon>
            </g>
        </g>
    </g>
</svg>