<?xml version="1.0" encoding="UTF-8" standalone="no"?>
<svg width="707px" height="281px" viewBox="0 0 707 281" version="1.1" xmlns="http://www.w3.org/2000/svg" xmlns:xlink="http://www.w3.org/1999/xlink">
    <!-- Generator: Sketch 41.2 (35397) - http://www.bohemiancoding.com/sketch -->
    <title>Page 1</title>
    <desc>Created with Sketch.</desc>
    <defs></defs>
    <g id="Page-1" stroke="none" stroke-width="1" fill="none" fill-rule="evenodd">
        <g transform="translate(-23.000000, -4.000000)">
            <polygon id="Fill-1" points="534.778 234.939 490.971 216.764 471.973 222.014 519.507 242.519"></polygon>
            <polygon id="Fill-3" fill="#2ECDCD" points="518.8347 242.9113 534.7777 234.9393 534.7777 215.4173 518.8347 223.3893"></polygon>
            <polygon id="Fill-4" fill="#0064A8" points="518.8347 223.4674 534.7787 215.4954 518.8697 209.1204 502.9257 217.0924"></polygon>
            <polygon id="Fill-5" points="683.134 234.939 639.328 216.764 620.329 222.014 667.864 242.519"></polygon>
            <polygon id="Fill-7" fill="#2ECDCD" points="667.1911 242.9113 683.1341 234.9393 683.1341 151.2733 667.1911 159.2453"></polygon>
            <polygon id="Fill-8" fill="#0064A8" points="667.1911 103.9567 683.1351 95.9847 667.2261 89.6097 651.2821 97.5817"></polygon>
            <polygon id="Fill-9" fill="#2ECDCD" points="667.1911 103.9567 667.1911 159.2457 683.1341 151.2737 683.1341 95.9847"></polygon>
            <polygon id="Fill-10" points="661.131 234.939 617.324 216.764 598.326 222.014 645.861 242.519"></polygon>
            <polygon id="Fill-12" fill="#2A86CA" points="645.1877 242.9113 661.1307 234.9393 661.1307 171.2733 645.1877 159.2453"></polygon>
            <polygon id="Fill-13" fill="#0064A8" points="645.1877 102.5441 661.1317 94.5721 645.2227 88.1971 629.2787 96.1691"></polygon>
            <polygon id="Fill-14" fill="#2A86CA" points="645.1877 102.5441 645.1877 159.2451 661.1307 171.2731 661.1307 94.5721"></polygon>
            <polygon id="Fill-15" points="373.285 234.939 329.479 216.764 310.48 222.014 358.015 242.519"></polygon>
            <polygon id="Fill-17" fill="#0064A8" points="357.3422 232.7174 373.2862 224.7454 357.3772 218.3704 341.4332 226.3424"></polygon>
            <polygon id="Fill-18" fill="#2ECDCD" points="357.3422 232.7174 357.3422 242.8814 373.2852 234.9084 373.2852 224.7454"></polygon>
            <g id="Group-20" transform="translate(26.000000, 0.736000)" font-size="15" fill="#FFFFFF">
                <text id="ROE-" font-family="BentonSansBBVA-Medium, Benton Sans BBVA" font-weight="400" letter-spacing="0.025">
                    <tspan x="0.6538" y="282.950164">ROE </tspan>
                </text>
                <text id="(%)" font-family="BentonSansBBVA-Book, Benton Sans BBVA" font-weight="300" letter-spacing="0.025">
                    <tspan x="37.0588" y="278.950164">(%)</tspan>
                </text>
                <text id="2016" font-family="BentonSansBBVA-Book, Benton Sans BBVA" font-weight="300" letter-spacing="-0.008">
                    <tspan x="376.6738" y="14.3151635">2016</tspan>
                </text>
            </g>
            <text id="5,2" font-family="BentonSansBBVA-Book, Benton Sans BBVA" font-size="18" font-weight="300" letter-spacing="-0.008" fill="#FFFFFF">
                <tspan x="22.8516" y="128.452856">5,2</tspan>
            </text>
            <g id="Group-22" transform="translate(305.000000, 1.736000)" font-size="15" font-family="BentonSansBBVA-Book, Benton Sans BBVA" letter-spacing="-0.008" fill="#FFFFFF" font-weight="300">
                <text id="2015">
                    <tspan x="0.3398" y="14.3139635">2015</tspan>
                </text>
            </g>
            <text id="6,7" font-family="BentonSansBBVA-Book, Benton Sans BBVA" font-size="18" font-weight="300" letter-spacing="-0.008" fill="#FFFFFF">
                <tspan x="62.5742" y="100.618856">6,7</tspan>
            </text>
            <text id="6,4" font-family="BentonSansBBVA-Book, Benton Sans BBVA" font-size="18" font-weight="300" letter-spacing="-0.008" fill="#FFFFFF">
                <tspan x="173.7602" y="118.456856">6,4</tspan>
            </text>
            <text id="8,2" font-family="BentonSansBBVA-Book, Benton Sans BBVA" font-size="18" font-weight="300" letter-spacing="-0.008" fill="#FFFFFF">
                <tspan x="195.5942" y="77.6148562">8,2</tspan>
            </text>
            <text id="0,46" font-family="BentonSansBBVA-Book, Benton Sans BBVA" font-size="18" font-weight="300" letter-spacing="-0.008" fill="#FFFFFF">
                <tspan x="299.7962" y="203.452856">0,46</tspan>
            </text>
            <text id="0,64" font-family="BentonSansBBVA-Book, Benton Sans BBVA" font-size="18" font-weight="300" letter-spacing="-0.008" fill="#FFFFFF">
                <tspan x="352.3562" y="200.626856">0,64</tspan>
            </text>
            <text id="0,87" font-family="BentonSansBBVA-Book, Benton Sans BBVA" font-size="18" font-weight="300" letter-spacing="-0.008" fill="#FFFFFF">
                <tspan x="464.2442" y="197.458856">0,87</tspan>
            </text>
            <text id="1,19" font-family="BentonSansBBVA-Book, Benton Sans BBVA" font-size="18" font-weight="300" letter-spacing="-0.008" fill="#FFFFFF">
                <tspan x="513.0782" y="190.132856">1,19</tspan>
            </text>
            <polygon id="Fill-23" fill="#2ECDCD" points="394.2333 6.7682 389.6003 16.0342 371.9913 16.0342 376.6243 6.7682"></polygon>
            <polygon id="Fill-24" fill="#2A86CA" points="294.0009 6.7682 289.3679 16.0342 271.7589 16.0342 276.3919 6.7682"></polygon>
            <polygon id="Fill-25" points="0 222.013 47.534 242.519 62.805 234.939 18.998 216.765"></polygon>
            <polygon id="Fill-27" fill="#2A86CA" points="46.862 242.9113 62.805 234.9393 62.805 150.2093 46.862 158.1033"></polygon>
            <polygon id="Fill-28" fill="#0064A8" points="46.862 158.1032 62.806 150.1312 46.897 143.7562 30.953 151.7282"></polygon>
            <polygon id="Fill-29" points="83.808 234.939 40.002 216.764 21.003 222.014 68.538 242.519"></polygon>
            <polygon id="Fill-31" fill="#2ECDCD" points="67.8654 242.9113 83.8084 234.9393 83.8084 124.8233 67.8654 132.6433"></polygon>
            <polygon id="Fill-32" fill="#0064A8" points="67.8654 132.6867 83.8094 124.7147 67.9004 118.3397 51.9564 126.3117"></polygon>
            <g id="Group-34" transform="translate(166.000000, 264.736000)" font-size="15" letter-spacing="0.025" fill="#FFFFFF">
                <text id="ROTE-" font-family="BentonSansBBVA-Medium, Benton Sans BBVA" font-weight="400">
                    <tspan x="0.646" y="18.9501635">ROTE </tspan>
                </text>
                <text id="(%)" font-family="BentonSansBBVA-Book, Benton Sans BBVA" font-weight="300">
                    <tspan x="46.951" y="14.9501635">(%)</tspan>
                </text>
            </g>
            <polygon id="Fill-35" points="202.798 234.939 158.991 216.764 139.992 222.014 187.527 242.519"></polygon>
            <polygon id="Fill-37" fill="#2A86CA" points="186.8544 242.9113 202.7974 234.9393 202.7974 171.2733 186.8544 159.2453"></polygon>
            <polygon id="Fill-38" fill="#0064A8" points="186.8544 152.0456 202.7984 144.0736 186.8894 137.6986 170.9454 145.6706"></polygon>
            <polygon id="Fill-39" fill="#2A86CA" points="186.8544 152.0456 186.8544 159.2456 202.7974 171.2736 202.7974 144.0736"></polygon>
            <polygon id="Fill-40" points="224.801 234.939 180.994 216.764 161.996 222.014 209.53 242.519"></polygon>
            <polygon id="Fill-42" fill="#2ECDCD" points="208.8578 242.9113 224.8008 234.9393 224.8008 151.2733 208.8578 159.2453"></polygon>
            <polygon id="Fill-43" fill="#0064A8" points="208.8578 108.0158 224.8018 100.0438 208.8928 93.6688 192.9488 101.6408"></polygon>
            <polygon id="Fill-44" fill="#2ECDCD" points="208.8578 108.0158 208.8578 159.2448 224.8008 151.2738 224.8008 100.0438"></polygon>
            <text id="51,9" font-family="BentonSansBBVA-Book, Benton Sans BBVA" font-size="18" font-weight="300" letter-spacing="-0.008" fill="#FFFFFF">
                <tspan x="678.3301" y="76.7741562">51,9</tspan>
            </text>
            <text id="52,0" font-family="BentonSansBBVA-Book, Benton Sans BBVA" font-size="18" font-weight="300" letter-spacing="-0.008" fill="#FFFFFF">
                <tspan x="605.3401" y="73.5521562">52,0</tspan>
            </text>
            <g id="Group-46" transform="translate(316.000000, 264.736000)" font-size="15" letter-spacing="0.025" fill="#FFFFFF">
                <text id="EFICIENCIA-" font-family="BentonSansBBVA-Medium, Benton Sans BBVA" font-weight="400">
                    <tspan x="295.979" y="18.9501635">EFICIENCIA </tspan>
                </text>
                <text id="(%)" font-family="BentonSansBBVA-Book, Benton Sans BBVA" font-weight="300">
                    <tspan x="388.364" y="14.9501635">(%)</tspan>
                </text>
                <text id="ROA-" font-family="BentonSansBBVA-Medium, Benton Sans BBVA" font-weight="400">
                    <tspan x="0.134" y="18.9501635">ROA </tspan>
                </text>
                <text id="(%)" font-family="BentonSansBBVA-Book, Benton Sans BBVA" font-weight="300">
                    <tspan x="37.664" y="14.9501635">(%)</tspan>
                </text>
            </g>
            <polygon id="Fill-47" points="352.282 234.939 308.475 216.764 289.477 222.014 337.012 242.519"></polygon>
            <polygon id="Fill-49" fill="#2A86CA" points="336.339 242.9113 352.282 234.9393 352.282 227.9173 336.339 235.6673"></polygon>
            <polygon id="Fill-50" fill="#0064A8" points="336.339 235.7174 352.283 227.7454 336.374 221.3704 320.43 229.3424"></polygon>
            <g id="Group-52" transform="translate(470.000000, 264.736000)" font-size="15" letter-spacing="0.025" fill="#FFFFFF">
                <text id="RORWA-" font-family="BentonSansBBVA-Medium, Benton Sans BBVA" font-weight="400">
                    <tspan x="0.123" y="18.9501635">RORWA </tspan>
                </text>
                <text id="(%)" font-family="BentonSansBBVA-Book, Benton Sans BBVA" font-weight="300">
                    <tspan x="62.913" y="14.9501635">(%)</tspan>
                </text>
            </g>
            <polygon id="Fill-53" points="512.524 234.939 468.718 216.764 449.719 222.014 497.254 242.519"></polygon>
            <polygon id="Fill-55" fill="#2A86CA" points="496.5812 242.9113 512.5242 234.9393 512.5242 220.8733 496.5812 228.7923"></polygon>
            <polygon id="Fill-56" fill="#0064A8" points="496.5812 228.8424 512.5252 220.8704 496.6162 214.4954 480.6722 222.4674"></polygon>
        </g>
    </g>
</svg>