<?xml version="1.0" encoding="UTF-8" standalone="no"?>
<svg width="707px" height="280px" viewBox="0 0 707 280" version="1.1" xmlns="http://www.w3.org/2000/svg" xmlns:xlink="http://www.w3.org/1999/xlink">
    <!-- Generator: Sketch 41.2 (35397) - http://www.bohemiancoding.com/sketch -->
    <title>des_financiero_rentabilidad</title>
    <desc>Created with Sketch.</desc>
    <defs></defs>
    <g id="Page-1" stroke="none" stroke-width="1" fill="none" fill-rule="evenodd">
        <g id="des_financiero_rentabilidad" transform="translate(-23.000000, 0.000000)">
            <polygon id="Fill-1" points="534.778 231.939 490.971 213.764 471.973 219.014 519.507 239.519"></polygon>
            <polygon id="Fill-3" fill="#2ECDCD" points="518.8347 239.9113 534.7777 231.9393 534.7777 212.4173 518.8347 220.3893"></polygon>
            <polygon id="Fill-4" fill="#0064A8" points="518.8347 220.4674 534.7787 212.4954 518.8697 206.1204 502.9257 214.0924"></polygon>
            <polygon id="Fill-5" points="683.134 231.939 639.328 213.764 620.329 219.014 667.864 239.519"></polygon>
            <polygon id="Fill-7" fill="#2ECDCD" points="667.1911 239.9113 683.1341 231.9393 683.1341 148.2733 667.1911 156.2453"></polygon>
            <polygon id="Fill-8" fill="#0064A8" points="667.1911 100.9567 683.1351 92.9847 667.2261 86.6097 651.2821 94.5817"></polygon>
            <polygon id="Fill-9" fill="#2ECDCD" points="667.1911 100.9567 667.1911 156.2457 683.1341 148.2737 683.1341 92.9847"></polygon>
            <polygon id="Fill-10" points="661.131 231.939 617.324 213.764 598.326 219.014 645.861 239.519"></polygon>
            <polygon id="Fill-12" fill="#2A86CA" points="645.1877 239.9113 661.1307 231.9393 661.1307 168.2733 645.1877 156.2453"></polygon>
            <polygon id="Fill-13" fill="#0064A8" points="645.1877 99.5441 661.1317 91.5721 645.2227 85.1971 629.2787 93.1691"></polygon>
            <polygon id="Fill-14" fill="#2A86CA" points="645.1877 99.5441 645.1877 156.2451 661.1307 168.2731 661.1307 91.5721"></polygon>
            <polygon id="Fill-15" points="373.285 231.939 329.479 213.764 310.48 219.014 358.015 239.519"></polygon>
            <polygon id="Fill-17" fill="#0064A8" points="357.3422 229.7174 373.2862 221.7454 357.3772 215.3704 341.4332 223.3424"></polygon>
            <polygon id="Fill-18" fill="#2ECDCD" points="357.3422 229.7174 357.3422 239.8814 373.2852 231.9084 373.2852 221.7454"></polygon>
            <g id="Group-20" transform="translate(27.000000, 0.736000)" fill="#FFFFFF">
                <g id="ROE-" transform="translate(0.000000, 265.000000)">
                    <path d="M2.7588,11.950164 L2.7588,7.570164 L4.7238,7.570164 L7.4088,12.100164 L9.2388,11.800164 L6.5988,7.330164 C8.1288,6.940164 9.0438,6.025164 9.0438,4.255164 C9.0438,1.900164 7.5138,0.850164 4.8888,0.850164 L0.9138,0.850164 L0.9138,11.950164 L2.7588,11.950164 Z M2.7588,2.560164 L4.7988,2.560164 C6.3888,2.560164 7.2138,2.995164 7.2138,4.225164 C7.2138,5.485164 6.3888,5.935164 4.7988,5.935164 L2.7588,5.935164 L2.7588,2.560164 Z M15.5988,12.160164 C18.2688,12.160164 20.5938,10.135164 20.5938,6.400164 C20.5938,2.665164 18.2688,0.640164 15.5988,0.640164 C12.9138,0.640164 10.5888,2.665164 10.5888,6.400164 C10.5888,10.135164 12.9138,12.160164 15.5988,12.160164 Z M15.5988,10.480164 C13.7238,10.480164 12.4638,8.920164 12.4638,6.400164 C12.4638,3.880164 13.7238,2.365164 15.5988,2.365164 C17.4738,2.365164 18.7338,3.880164 18.7338,6.400164 C18.7338,8.920164 17.4738,10.480164 15.5988,10.480164 Z M30.0588,11.950164 L30.0588,10.255164 L24.4638,10.255164 L24.4638,7.015164 L28.7838,7.015164 L28.5138,5.350164 L24.4638,5.350164 L24.4638,2.590164 L29.7588,2.590164 L29.7588,0.850164 L22.5888,0.850164 L22.5888,11.950164 L30.0588,11.950164 Z" id="ROE"></path>
                </g>
                <g id="(%)" transform="translate(37.000000, 264.000000)">
                    <path d="M4.0988,14.650164 C2.1488,12.925164 0.8888,10.585164 0.8888,7.900164 C0.8888,5.215164 2.1488,2.875164 4.0988,1.150164 L3.7838,0.775164 C1.3388,2.830164 0.0638,5.095164 0.0638,7.900164 C0.0638,10.705164 1.3388,12.970164 3.7838,15.025164 L4.0988,14.650164 Z M8.3588,7.225164 C9.8738,7.225164 10.7438,5.830164 10.7438,3.940164 C10.7438,1.960164 9.8438,0.700164 8.3888,0.700164 C6.9338,0.700164 5.9888,1.975164 5.9888,4.000164 C5.9888,5.890164 6.8288,7.225164 8.3588,7.225164 Z M9.0788,11.950164 L15.7088,0.850164 L14.9888,0.850164 L8.3588,11.950164 L9.0788,11.950164 Z M8.3738,6.580164 C7.3088,6.580164 6.7088,5.485164 6.7088,3.940164 C6.7088,2.515164 7.2938,1.345164 8.3588,1.345164 C9.4238,1.345164 10.0238,2.425164 10.0238,3.970164 C10.0238,5.395164 9.4388,6.580164 8.3738,6.580164 Z M15.6938,12.100164 C17.2088,12.100164 18.0788,10.705164 18.0788,8.815164 C18.0788,6.835164 17.1788,5.575164 15.7238,5.575164 C14.2688,5.575164 13.3238,6.850164 13.3238,8.875164 C13.3238,10.765164 14.1638,12.100164 15.6938,12.100164 Z M15.7088,11.455164 C14.6438,11.455164 14.0438,10.360164 14.0438,8.815164 C14.0438,7.390164 14.6288,6.220164 15.6938,6.220164 C16.7588,6.220164 17.3588,7.300164 17.3588,8.845164 C17.3588,10.270164 16.7738,11.455164 15.7088,11.455164 Z M20.2838,15.025164 C22.7288,12.970164 24.0038,10.705164 24.0038,7.900164 C24.0038,5.095164 22.7288,2.830164 20.2838,0.775164 L19.9688,1.150164 C21.9188,2.875164 23.1788,5.215164 23.1788,7.900164 C23.1788,10.585164 21.9188,12.925164 19.9688,14.650164 L20.2838,15.025164 Z"></path>
                </g>
                <g id="2016" transform="translate(376.000000, 0.000000)">
                    <path d="M7.4438,11.3151635 L7.3238,10.6251635 L1.2488,10.6251635 C1.2788,9.5451635 2.2838,8.2101635 4.3838,6.8751635 C6.5138,5.5251635 7.3388,4.5801635 7.3388,3.0051635 C7.3388,1.2651635 6.1238,0.0051635 4.1738,0.0051635 C2.6438,0.0051635 1.4288,0.8301635 0.7088,2.3901635 L1.3238,2.6901635 C1.9688,1.3101635 2.8388,0.6651635 4.1438,0.6651635 C5.7638,0.6651635 6.6038,1.6401635 6.6038,3.0501635 C6.6038,4.2651635 5.9288,5.1051635 4.2788,6.1551635 C1.3538,8.0301635 0.4688,9.4701635 0.4688,11.0751635 L0.4688,11.3151635 L7.4438,11.3151635 Z M13.0688,11.5251635 C15.6038,11.5251635 16.9988,9.2301635 16.9988,5.7651635 C16.9988,2.3001635 15.6038,0.0051635 13.0688,0.0051635 C10.5338,0.0051635 9.1238,2.3001635 9.1238,5.7651635 C9.1238,9.2301635 10.5338,11.5251635 13.0688,11.5251635 Z M13.0688,10.8651635 C11.1338,10.8651635 9.8588,9.0351635 9.8588,5.7651635 C9.8588,2.4951635 11.0738,0.6651635 13.0688,0.6651635 C14.9888,0.6651635 16.2638,2.4951635 16.2638,5.7651635 C16.2638,9.0351635 15.0488,10.8651635 13.0688,10.8651635 Z M22.0238,11.3151635 L22.0238,0.2151635 L21.3488,0.2151635 L19.0538,1.0551635 L19.1588,1.7001635 L21.2888,0.9201635 L21.2888,11.3151635 L22.0238,11.3151635 Z M28.8038,11.5251635 C31.0538,11.5251635 32.4188,9.9201635 32.4188,7.8651635 C32.4188,5.9751635 31.3988,4.4151635 28.9838,4.4151635 C27.4988,4.4151635 26.4188,5.2101635 25.7288,6.0201635 C25.6988,3.0801635 27.0038,0.6651635 29.1638,0.6651635 C30.2138,0.6651635 30.7388,0.9351635 31.3238,1.4151635 L31.7438,0.8301635 C31.1588,0.3501635 30.4088,0.0051635 29.1788,0.0051635 C26.6438,0.0051635 25.0088,2.7351635 25.0088,5.9601635 C25.0088,9.8151635 26.7638,11.5251635 28.8038,11.5251635 Z M28.8488,10.8651635 C27.3488,10.8651635 26.0288,9.6651635 25.7738,6.9351635 C26.5238,5.8401635 27.6488,5.0751635 28.9388,5.0751635 C30.8438,5.0751635 31.6688,6.2451635 31.6688,7.8651635 C31.6688,9.8001635 30.5138,10.8651635 28.8488,10.8651635 Z"></path>
                </g>
            </g>
            <g id="5,2" transform="translate(23.000000, 111.000000)" fill="#FFFFFF">
                <path d="M4.9096,14.704856 C7.6276,14.704856 9.3196,12.688856 9.3196,10.060856 C9.3196,7.396856 7.5556,5.740856 5.2516,5.740856 C3.8116,5.740856 2.9296,6.244856 2.2276,7.072856 L2.6236,1.996856 L8.5996,1.996856 L8.4376,1.132856 L1.8136,1.132856 L1.3096,8.044856 L2.0476,8.350856 C2.7856,7.252856 3.7396,6.532856 5.2336,6.532856 C7.0516,6.532856 8.4376,7.810856 8.4376,10.114856 C8.4376,12.004856 7.3396,13.912856 4.9276,13.912856 C3.2536,13.912856 2.1736,13.012856 1.3996,11.716856 L0.6616,12.166856 C1.4896,13.660856 3.0196,14.704856 4.9096,14.704856 Z M11.9836,16.198856 L13.0996,13.012856 L11.9116,13.012856 L11.4616,16.198856 L11.9836,16.198856 Z M23.9536,14.452856 L23.8096,13.624856 L16.5196,13.624856 C16.5556,12.328856 17.7616,10.726856 20.2816,9.124856 C22.8376,7.504856 23.8276,6.370856 23.8276,4.480856 C23.8276,2.392856 22.3696,0.880856 20.0296,0.880856 C18.1936,0.880856 16.7356,1.870856 15.8716,3.742856 L16.6096,4.102856 C17.3836,2.446856 18.4276,1.672856 19.9936,1.672856 C21.9376,1.672856 22.9456,2.842856 22.9456,4.534856 C22.9456,5.992856 22.1356,7.000856 20.1556,8.260856 C16.6456,10.510856 15.5836,12.238856 15.5836,14.164856 L15.5836,14.452856 L23.9536,14.452856 Z"></path>
            </g>
            <g id="Group-22" transform="translate(303.000000, 2.736000)" fill="#FFFFFF">
                <g id="2015">
                    <path d="M7.1098,11.3139635 L6.9898,10.6239635 L0.9148,10.6239635 C0.9448,9.5439635 1.9498,8.2089635 4.0498,6.8739635 C6.1798,5.5239635 7.0048,4.5789635 7.0048,3.0039635 C7.0048,1.2639635 5.7898,0.0039635 3.8398,0.0039635 C2.3098,0.0039635 1.0948,0.8289635 0.3748,2.3889635 L0.9898,2.6889635 C1.6348,1.3089635 2.5048,0.6639635 3.8098,0.6639635 C5.4298,0.6639635 6.2698,1.6389635 6.2698,3.0489635 C6.2698,4.2639635 5.5948,5.1039635 3.9448,6.1539635 C1.0198,8.0289635 0.1348,9.4689635 0.1348,11.0739635 L0.1348,11.3139635 L7.1098,11.3139635 Z M12.7348,11.5239635 C15.2698,11.5239635 16.6648,9.2289635 16.6648,5.7639635 C16.6648,2.2989635 15.2698,0.0039635 12.7348,0.0039635 C10.1998,0.0039635 8.7898,2.2989635 8.7898,5.7639635 C8.7898,9.2289635 10.1998,11.5239635 12.7348,11.5239635 Z M12.7348,10.8639635 C10.7998,10.8639635 9.5248,9.0339635 9.5248,5.7639635 C9.5248,2.4939635 10.7398,0.6639635 12.7348,0.6639635 C14.6548,0.6639635 15.9298,2.4939635 15.9298,5.7639635 C15.9298,9.0339635 14.7148,10.8639635 12.7348,10.8639635 Z M21.6898,11.3139635 L21.6898,0.2139635 L21.0148,0.2139635 L18.7198,1.0539635 L18.8248,1.6989635 L20.9548,0.9189635 L20.9548,11.3139635 L21.6898,11.3139635 Z M28.1548,11.5239635 C30.4198,11.5239635 31.8298,9.8439635 31.8298,7.6539635 C31.8298,5.4339635 30.3598,4.0539635 28.4398,4.0539635 C27.2398,4.0539635 26.5048,4.4739635 25.9198,5.1639635 L26.2498,0.9339635 L31.2298,0.9339635 L31.0948,0.2139635 L25.5748,0.2139635 L25.1548,5.9739635 L25.7698,6.2289635 C26.3848,5.3139635 27.1798,4.7139635 28.4248,4.7139635 C29.9398,4.7139635 31.0948,5.7789635 31.0948,7.6989635 C31.0948,9.2739635 30.1798,10.8639635 28.1698,10.8639635 C26.7748,10.8639635 25.8748,10.1139635 25.2298,9.0339635 L24.6148,9.4089635 C25.3048,10.6539635 26.5798,11.5239635 28.1548,11.5239635 Z"></path>
                </g>
            </g>
            <g id="6,7" transform="translate(63.000000, 84.000000)" fill="#FFFFFF">
                <path d="M5.1902,13.870856 C7.8902,13.870856 9.5282,11.944856 9.5282,9.478856 C9.5282,7.210856 8.3042,5.338856 5.4062,5.338856 C3.6242,5.338856 2.3282,6.292856 1.5002,7.264856 C1.4642,3.736856 3.0302,0.838856 5.6222,0.838856 C6.8822,0.838856 7.5122,1.162856 8.2142,1.738856 L8.7182,1.036856 C8.0162,0.460856 7.1162,0.046856 5.6402,0.046856 C2.5982,0.046856 0.6362,3.322856 0.6362,7.192856 C0.6362,11.818856 2.7422,13.870856 5.1902,13.870856 Z M5.2442,13.078856 C3.4442,13.078856 1.8602,11.638856 1.5542,8.362856 C2.4542,7.048856 3.8042,6.130856 5.3522,6.130856 C7.6382,6.130856 8.6282,7.534856 8.6282,9.478856 C8.6282,11.800856 7.2422,13.078856 5.2442,13.078856 Z M11.9762,15.364856 L13.0922,12.178856 L11.9042,12.178856 L11.4542,15.364856 L11.9762,15.364856 Z M16.9622,13.618856 L22.7042,1.108856 L22.7042,0.298856 L14.7122,0.298856 L14.8562,1.162856 L21.7502,1.162856 L16.0262,13.618856 L16.9622,13.618856 Z"></path>
            </g>
            <g id="6,4" transform="translate(174.000000, 101.000000)" fill="#FFFFFF">
                <path d="M5.3762,14.708856 C8.0762,14.708856 9.7142,12.782856 9.7142,10.316856 C9.7142,8.048856 8.4902,6.176856 5.5922,6.176856 C3.8102,6.176856 2.5142,7.130856 1.6862,8.102856 C1.6502,4.574856 3.2162,1.676856 5.8082,1.676856 C7.0682,1.676856 7.6982,2.000856 8.4002,2.576856 L8.9042,1.874856 C8.2022,1.298856 7.3022,0.884856 5.8262,0.884856 C2.7842,0.884856 0.8222,4.160856 0.8222,8.030856 C0.8222,12.656856 2.9282,14.708856 5.3762,14.708856 Z M5.4302,13.916856 C3.6302,13.916856 2.0462,12.476856 1.7402,9.200856 C2.6402,7.886856 3.9902,6.968856 5.5382,6.968856 C7.8242,6.968856 8.8142,8.372856 8.8142,10.316856 C8.8142,12.638856 7.4282,13.916856 5.4302,13.916856 Z M12.1622,16.202856 L13.2782,13.016856 L12.0902,13.016856 L11.6402,16.202856 L12.1622,16.202856 Z M21.6302,14.456856 L21.6302,11.036856 L23.9702,11.036856 L23.8082,10.226856 L21.6302,10.226856 L21.6302,1.136856 L20.4422,1.136856 L14.3762,10.406856 L14.3762,11.036856 L20.7662,11.036856 L20.7662,14.456856 L21.6302,14.456856 Z M20.7302,2.162856 L20.7662,2.162856 L20.7662,10.226856 L15.4382,10.226856 L20.7302,2.162856 Z"></path>
            </g>
            <g id="8,2" transform="translate(196.000000, 61.000000)" fill="#FFFFFF">
                <path d="M4.9942,13.8668562 C7.9102,13.8668562 9.6022,12.2288562 9.6022,10.4468562 C9.6022,8.5028562 8.2882,7.5308562 5.8942,6.4868562 C7.8742,5.6048562 8.9902,4.8488562 8.9902,3.2108562 C8.9902,1.5908562 7.5322,0.0428562 4.9942,0.0428562 C2.5282,0.0428562 0.9982,1.5728562 0.9982,3.2108562 C0.9982,4.8128562 2.1502,5.6948562 4.0402,6.5228562 C1.7182,7.5308562 0.3862,8.5388562 0.3862,10.4468562 C0.3862,12.2828562 2.0782,13.8668562 4.9942,13.8668562 Z M5.0122,6.1088562 C2.8162,5.1368562 1.8802,4.4888562 1.8802,3.1568562 C1.8802,2.0228562 2.9602,0.8348562 4.9942,0.8348562 C7.1362,0.8348562 8.1082,2.0588562 8.1082,3.2108562 C8.1082,4.5608562 7.2082,5.1728562 5.0122,6.1088562 Z M4.9942,13.0748562 C2.8522,13.0748562 1.2682,11.9588562 1.2682,10.3928562 C1.2682,8.8628562 2.3842,8.0348562 4.9582,6.9008562 C7.3522,7.9088562 8.7202,8.7908562 8.7202,10.3928562 C8.7202,12.0128562 7.1362,13.0748562 4.9942,13.0748562 Z M12.1582,15.3608562 L13.2742,12.1748562 L12.0862,12.1748562 L11.6362,15.3608562 L12.1582,15.3608562 Z M24.1282,13.6148562 L23.9842,12.7868562 L16.6942,12.7868562 C16.7302,11.4908562 17.9362,9.8888562 20.4562,8.2868562 C23.0122,6.6668562 24.0022,5.5328562 24.0022,3.6428562 C24.0022,1.5548562 22.5442,0.0428562 20.2042,0.0428562 C18.3682,0.0428562 16.9102,1.0328562 16.0462,2.9048562 L16.7842,3.2648562 C17.5582,1.6088562 18.6022,0.8348562 20.1682,0.8348562 C22.1122,0.8348562 23.1202,2.0048562 23.1202,3.6968562 C23.1202,5.1548562 22.3102,6.1628562 20.3302,7.4228562 C16.8202,9.6728562 15.7582,11.4008562 15.7582,13.3268562 L15.7582,13.6148562 L24.1282,13.6148562 Z"></path>
            </g>
            <g id="0,46" transform="translate(300.000000, 186.000000)" fill="#FFFFFF">
                <path d="M5.5922,14.704856 C8.6342,14.704856 10.3082,11.950856 10.3082,7.792856 C10.3082,3.634856 8.6342,0.880856 5.5922,0.880856 C2.5502,0.880856 0.8582,3.634856 0.8582,7.792856 C0.8582,11.950856 2.5502,14.704856 5.5922,14.704856 Z M5.5922,13.912856 C3.2702,13.912856 1.7402,11.716856 1.7402,7.792856 C1.7402,3.868856 3.1982,1.672856 5.5922,1.672856 C7.8962,1.672856 9.4262,3.868856 9.4262,7.792856 C9.4262,11.716856 7.9682,13.912856 5.5922,13.912856 Z M12.7742,16.198856 L13.8902,13.012856 L12.7022,13.012856 L12.2522,16.198856 L12.7742,16.198856 Z M22.2422,14.452856 L22.2422,11.032856 L24.5822,11.032856 L24.4202,10.222856 L22.2422,10.222856 L22.2422,1.132856 L21.0542,1.132856 L14.9882,10.402856 L14.9882,11.032856 L21.3782,11.032856 L21.3782,14.452856 L22.2422,14.452856 Z M21.3422,2.158856 L21.3782,2.158856 L21.3782,10.222856 L16.0502,10.222856 L21.3422,2.158856 Z M30.5762,14.704856 C33.2762,14.704856 34.9142,12.778856 34.9142,10.312856 C34.9142,8.044856 33.6902,6.172856 30.7922,6.172856 C29.0102,6.172856 27.7142,7.126856 26.8862,8.098856 C26.8502,4.570856 28.4162,1.672856 31.0082,1.672856 C32.2682,1.672856 32.8982,1.996856 33.6002,2.572856 L34.1042,1.870856 C33.4022,1.294856 32.5022,0.880856 31.0262,0.880856 C27.9842,0.880856 26.0222,4.156856 26.0222,8.026856 C26.0222,12.652856 28.1282,14.704856 30.5762,14.704856 Z M30.6302,13.912856 C28.8302,13.912856 27.2462,12.472856 26.9402,9.196856 C27.8402,7.882856 29.1902,6.964856 30.7382,6.964856 C33.0242,6.964856 34.0142,8.368856 34.0142,10.312856 C34.0142,12.634856 32.6282,13.912856 30.6302,13.912856 Z"></path>
            </g>
            <g id="0,64" transform="translate(353.000000, 184.000000)" fill="#FFFFFF">
                <path d="M5.1522,13.878856 C8.1942,13.878856 9.8682,11.124856 9.8682,6.966856 C9.8682,2.808856 8.1942,0.054856 5.1522,0.054856 C2.1102,0.054856 0.4182,2.808856 0.4182,6.966856 C0.4182,11.124856 2.1102,13.878856 5.1522,13.878856 Z M5.1522,13.086856 C2.8302,13.086856 1.3002,10.890856 1.3002,6.966856 C1.3002,3.042856 2.7582,0.846856 5.1522,0.846856 C7.4562,0.846856 8.9862,3.042856 8.9862,6.966856 C8.9862,10.890856 7.5282,13.086856 5.1522,13.086856 Z M12.3342,15.372856 L13.4502,12.186856 L12.2622,12.186856 L11.8122,15.372856 L12.3342,15.372856 Z M19.8762,13.878856 C22.5762,13.878856 24.2142,11.952856 24.2142,9.486856 C24.2142,7.218856 22.9902,5.346856 20.0922,5.346856 C18.3102,5.346856 17.0142,6.300856 16.1862,7.272856 C16.1502,3.744856 17.7162,0.846856 20.3082,0.846856 C21.5682,0.846856 22.1982,1.170856 22.9002,1.746856 L23.4042,1.044856 C22.7022,0.468856 21.8022,0.054856 20.3262,0.054856 C17.2842,0.054856 15.3222,3.330856 15.3222,7.200856 C15.3222,11.826856 17.4282,13.878856 19.8762,13.878856 Z M19.9302,13.086856 C18.1302,13.086856 16.5462,11.646856 16.2402,8.370856 C17.1402,7.056856 18.4902,6.138856 20.0382,6.138856 C22.3242,6.138856 23.3142,7.542856 23.3142,9.486856 C23.3142,11.808856 21.9282,13.086856 19.9302,13.086856 Z M32.9802,13.626856 L32.9802,10.206856 L35.3202,10.206856 L35.1582,9.396856 L32.9802,9.396856 L32.9802,0.306856 L31.7922,0.306856 L25.7262,9.576856 L25.7262,10.206856 L32.1162,10.206856 L32.1162,13.626856 L32.9802,13.626856 Z M32.0802,1.332856 L32.1162,1.332856 L32.1162,9.396856 L26.7882,9.396856 L32.0802,1.332856 Z"></path>
            </g>
            <g id="0,87" transform="translate(465.000000, 180.000000)" fill="#FFFFFF">
                <path d="M5.0402,14.710856 C8.0822,14.710856 9.7562,11.956856 9.7562,7.798856 C9.7562,3.640856 8.0822,0.886856 5.0402,0.886856 C1.9982,0.886856 0.3062,3.640856 0.3062,7.798856 C0.3062,11.956856 1.9982,14.710856 5.0402,14.710856 Z M5.0402,13.918856 C2.7182,13.918856 1.1882,11.722856 1.1882,7.798856 C1.1882,3.874856 2.6462,1.678856 5.0402,1.678856 C7.3442,1.678856 8.8742,3.874856 8.8742,7.798856 C8.8742,11.722856 7.4162,13.918856 5.0402,13.918856 Z M12.2222,16.204856 L13.3382,13.018856 L12.1502,13.018856 L11.7002,16.204856 L12.2222,16.204856 Z M19.9082,14.710856 C22.8242,14.710856 24.5162,13.072856 24.5162,11.290856 C24.5162,9.346856 23.2022,8.374856 20.8082,7.330856 C22.7882,6.448856 23.9042,5.692856 23.9042,4.054856 C23.9042,2.434856 22.4462,0.886856 19.9082,0.886856 C17.4422,0.886856 15.9122,2.416856 15.9122,4.054856 C15.9122,5.656856 17.0642,6.538856 18.9542,7.366856 C16.6322,8.374856 15.3002,9.382856 15.3002,11.290856 C15.3002,13.126856 16.9922,14.710856 19.9082,14.710856 Z M19.9262,6.952856 C17.7302,5.980856 16.7942,5.332856 16.7942,4.000856 C16.7942,2.866856 17.8742,1.678856 19.9082,1.678856 C22.0502,1.678856 23.0222,2.902856 23.0222,4.054856 C23.0222,5.404856 22.1222,6.016856 19.9262,6.952856 Z M19.9082,13.918856 C17.7662,13.918856 16.1822,12.802856 16.1822,11.236856 C16.1822,9.706856 17.2982,8.878856 19.8722,7.744856 C22.2662,8.752856 23.6342,9.634856 23.6342,11.236856 C23.6342,12.856856 22.0502,13.918856 19.9082,13.918856 Z M28.1882,14.458856 L33.9302,1.948856 L33.9302,1.138856 L25.9382,1.138856 L26.0822,2.002856 L32.9762,2.002856 L27.2522,14.458856 L28.1882,14.458856 Z"></path>
            </g>
            <g id="1,19" transform="translate(514.000000, 173.000000)" fill="#FFFFFF">
                <path d="M4.0462,14.132856 L4.0462,0.812856 L3.2362,0.812856 L0.4822,1.820856 L0.6082,2.594856 L3.1642,1.658856 L3.1642,14.132856 L4.0462,14.132856 Z M8.8702,15.878856 L9.9862,12.692856 L8.7982,12.692856 L8.3482,15.878856 L8.8702,15.878856 Z M16.4842,14.132856 L16.4842,0.812856 L15.6742,0.812856 L12.9202,1.820856 L13.0462,2.594856 L15.6022,1.658856 L15.6022,14.132856 L16.4842,14.132856 Z M24.2242,8.300856 C21.9382,8.300856 20.9482,6.896856 20.9482,4.952856 C20.9482,2.630856 22.3342,1.352856 24.3322,1.352856 C26.1322,1.352856 27.7162,2.792856 28.0222,6.068856 C27.1222,7.382856 25.7722,8.300856 24.2242,8.300856 Z M23.9362,14.384856 C26.9782,14.384856 28.9402,11.108856 28.9402,7.238856 C28.9402,2.612856 26.8342,0.560856 24.3862,0.560856 C21.6862,0.560856 20.0482,2.486856 20.0482,4.952856 C20.0482,7.220856 21.2722,9.092856 24.1702,9.092856 C25.9522,9.092856 27.2482,8.138856 28.0762,7.166856 C28.1122,10.712856 26.5462,13.592856 23.9542,13.592856 C22.5322,13.592856 21.8662,13.178856 21.0382,12.476856 L20.5522,13.160856 C21.3262,13.862856 22.3702,14.384856 23.9362,14.384856 Z"></path>
            </g>
            <polygon id="Fill-23" fill="#2ECDCD" points="394.2333 3.7682 389.6003 13.0342 371.9913 13.0342 376.6243 3.7682"></polygon>
            <polygon id="Fill-24" fill="#2A86CA" points="294.0009 3.7682 289.3679 13.0342 271.7589 13.0342 276.3919 3.7682"></polygon>
            <polygon id="Fill-25" points="0 219.013 47.534 239.519 62.805 231.939 18.998 213.765"></polygon>
            <polygon id="Fill-27" fill="#2A86CA" points="46.862 239.9113 62.805 231.9393 62.805 147.2093 46.862 155.1033"></polygon>
            <polygon id="Fill-28" fill="#0064A8" points="46.862 155.1032 62.806 147.1312 46.897 140.7562 30.953 148.7282"></polygon>
            <polygon id="Fill-29" points="83.808 231.939 40.002 213.764 21.003 219.014 68.538 239.519"></polygon>
            <polygon id="Fill-31" fill="#2ECDCD" points="67.8654 239.9113 83.8084 231.9393 83.8084 121.8233 67.8654 129.6433"></polygon>
            <polygon id="Fill-32" fill="#0064A8" points="67.8654 129.6867 83.8094 121.7147 67.9004 115.3397 51.9564 123.3117"></polygon>
            <g id="Group-34" transform="translate(167.000000, 264.736000)" fill="#FFFFFF">
                <g id="ROTE-" transform="translate(0.000000, 1.000000)">
                    <path d="M2.751,11.9501635 L2.751,7.5701635 L4.716,7.5701635 L7.401,12.1001635 L9.231,11.8001635 L6.591,7.3301635 C8.121,6.9401635 9.036,6.0251635 9.036,4.2551635 C9.036,1.9001635 7.506,0.8501635 4.881,0.8501635 L0.906,0.8501635 L0.906,11.9501635 L2.751,11.9501635 Z M2.751,2.5601635 L4.791,2.5601635 C6.381,2.5601635 7.206,2.9951635 7.206,4.2251635 C7.206,5.4851635 6.381,5.9351635 4.791,5.9351635 L2.751,5.9351635 L2.751,2.5601635 Z M15.591,12.1601635 C18.261,12.1601635 20.586,10.1351635 20.586,6.4001635 C20.586,2.6651635 18.261,0.6401635 15.591,0.6401635 C12.906,0.6401635 10.581,2.6651635 10.581,6.4001635 C10.581,10.1351635 12.906,12.1601635 15.591,12.1601635 Z M15.591,10.4801635 C13.716,10.4801635 12.456,8.9201635 12.456,6.4001635 C12.456,3.8801635 13.716,2.3651635 15.591,2.3651635 C17.466,2.3651635 18.726,3.8801635 18.726,6.4001635 C18.726,8.9201635 17.466,10.4801635 15.591,10.4801635 Z M26.496,11.9501635 L26.496,2.5901635 L30.051,2.5901635 L29.781,0.8501635 L21.201,0.8501635 L21.201,2.5901635 L24.621,2.5901635 L24.621,11.9501635 L26.496,11.9501635 Z M39.051,11.9501635 L39.051,10.2551635 L33.456,10.2551635 L33.456,7.0151635 L37.776,7.0151635 L37.506,5.3501635 L33.456,5.3501635 L33.456,2.5901635 L38.751,2.5901635 L38.751,0.8501635 L31.581,0.8501635 L31.581,11.9501635 L39.051,11.9501635 Z" id="ROTE"></path>
                </g>
                <g id="(%)" transform="translate(46.000000, 0.000000)">
                    <path d="M4.991,14.6501635 C3.041,12.9251635 1.781,10.5851635 1.781,7.9001635 C1.781,5.2151635 3.041,2.8751635 4.991,1.1501635 L4.676,0.7751635 C2.231,2.8301635 0.956,5.0951635 0.956,7.9001635 C0.956,10.7051635 2.231,12.9701635 4.676,15.0251635 L4.991,14.6501635 Z M9.251,7.2251635 C10.766,7.2251635 11.636,5.8301635 11.636,3.9401635 C11.636,1.9601635 10.736,0.7001635 9.281,0.7001635 C7.826,0.7001635 6.881,1.9751635 6.881,4.0001635 C6.881,5.8901635 7.721,7.2251635 9.251,7.2251635 Z M9.971,11.9501635 L16.601,0.8501635 L15.881,0.8501635 L9.251,11.9501635 L9.971,11.9501635 Z M9.266,6.5801635 C8.201,6.5801635 7.601,5.4851635 7.601,3.9401635 C7.601,2.5151635 8.186,1.3451635 9.251,1.3451635 C10.316,1.3451635 10.916,2.4251635 10.916,3.9701635 C10.916,5.3951635 10.331,6.5801635 9.266,6.5801635 Z M16.586,12.1001635 C18.101,12.1001635 18.971,10.7051635 18.971,8.8151635 C18.971,6.8351635 18.071,5.5751635 16.616,5.5751635 C15.161,5.5751635 14.216,6.8501635 14.216,8.8751635 C14.216,10.7651635 15.056,12.1001635 16.586,12.1001635 Z M16.601,11.4551635 C15.536,11.4551635 14.936,10.3601635 14.936,8.8151635 C14.936,7.3901635 15.521,6.2201635 16.586,6.2201635 C17.651,6.2201635 18.251,7.3001635 18.251,8.8451635 C18.251,10.2701635 17.666,11.4551635 16.601,11.4551635 Z M21.176,15.0251635 C23.621,12.9701635 24.896,10.7051635 24.896,7.9001635 C24.896,5.0951635 23.621,2.8301635 21.176,0.7751635 L20.861,1.1501635 C22.811,2.8751635 24.071,5.2151635 24.071,7.9001635 C24.071,10.5851635 22.811,12.9251635 20.861,14.6501635 L21.176,15.0251635 Z"></path>
                </g>
            </g>
            <polygon id="Fill-35" points="202.798 231.939 158.991 213.764 139.992 219.014 187.527 239.519"></polygon>
            <polygon id="Fill-37" fill="#2A86CA" points="186.8544 239.9113 202.7974 231.9393 202.7974 168.2733 186.8544 156.2453"></polygon>
            <polygon id="Fill-38" fill="#0064A8" points="186.8544 149.0456 202.7984 141.0736 186.8894 134.6986 170.9454 142.6706"></polygon>
            <polygon id="Fill-39" fill="#2A86CA" points="186.8544 149.0456 186.8544 156.2456 202.7974 168.2736 202.7974 141.0736"></polygon>
            <polygon id="Fill-40" points="224.801 231.939 180.994 213.764 161.996 219.014 209.53 239.519"></polygon>
            <polygon id="Fill-42" fill="#2ECDCD" points="208.8578 239.9113 224.8008 231.9393 224.8008 148.2733 208.8578 156.2453"></polygon>
            <polygon id="Fill-43" fill="#0064A8" points="208.8578 105.0158 224.8018 97.0438 208.8928 90.6688 192.9488 98.6408"></polygon>
            <polygon id="Fill-44" fill="#2ECDCD" points="208.8578 105.0158 208.8578 156.2448 224.8008 148.2738 224.8008 97.0438"></polygon>
            <g id="51,9" transform="translate(679.000000, 60.000000)" fill="#FFFFFF">
                <path d="M4.3881,14.0261562 C7.1061,14.0261562 8.7981,12.0101562 8.7981,9.3821562 C8.7981,6.7181562 7.0341,5.0621562 4.7301,5.0621562 C3.2901,5.0621562 2.4081,5.5661562 1.7061,6.3941562 L2.1021,1.3181562 L8.0781,1.3181562 L7.9161,0.4541562 L1.2921,0.4541562 L0.7881,7.3661562 L1.5261,7.6721562 C2.2641,6.5741562 3.2181,5.8541562 4.7121,5.8541562 C6.5301,5.8541562 7.9161,7.1321562 7.9161,9.4361562 C7.9161,11.3261562 6.8181,13.2341562 4.4061,13.2341562 C2.7321,13.2341562 1.6521,12.3341562 0.8781,11.0381562 L0.1401,11.4881562 C0.9681,12.9821562 2.4981,14.0261562 4.3881,14.0261562 Z M14.6661,13.7741562 L14.6661,0.4541562 L13.8561,0.4541562 L11.1021,1.4621562 L11.2281,2.2361562 L13.7841,1.3001562 L13.7841,13.7741562 L14.6661,13.7741562 Z M19.4901,15.5201562 L20.6061,12.3341562 L19.4181,12.3341562 L18.9681,15.5201562 L19.4901,15.5201562 Z M27.1761,7.9421562 C24.8901,7.9421562 23.9001,6.5381562 23.9001,4.5941562 C23.9001,2.2721562 25.2861,0.9941562 27.2841,0.9941562 C29.0841,0.9941562 30.6681,2.4341562 30.9741,5.7101562 C30.0741,7.0241562 28.7241,7.9421562 27.1761,7.9421562 Z M26.8881,14.0261562 C29.9301,14.0261562 31.8921,10.7501562 31.8921,6.8801562 C31.8921,2.2541562 29.7861,0.2021562 27.3381,0.2021562 C24.6381,0.2021562 23.0001,2.1281562 23.0001,4.5941562 C23.0001,6.8621562 24.2241,8.7341562 27.1221,8.7341562 C28.9041,8.7341562 30.2001,7.7801562 31.0281,6.8081562 C31.0641,10.3541562 29.4981,13.2341562 26.9061,13.2341562 C25.4841,13.2341562 24.8181,12.8201562 23.9901,12.1181562 L23.5041,12.8021562 C24.2781,13.5041562 25.3221,14.0261562 26.8881,14.0261562 Z"></path>
            </g>
            <g id="52,0" transform="translate(606.000000, 56.000000)" fill="#FFFFFF">
                <path d="M4.3981,14.8041562 C7.1161,14.8041562 8.8081,12.7881562 8.8081,10.1601562 C8.8081,7.4961562 7.0441,5.8401562 4.7401,5.8401562 C3.3001,5.8401562 2.4181,6.3441562 1.7161,7.1721562 L2.1121,2.0961562 L8.0881,2.0961562 L7.9261,1.2321562 L1.3021,1.2321562 L0.7981,8.1441562 L1.5361,8.4501562 C2.2741,7.3521562 3.2281,6.6321562 4.7221,6.6321562 C6.5401,6.6321562 7.9261,7.9101562 7.9261,10.2141562 C7.9261,12.1041562 6.8281,14.0121562 4.4161,14.0121562 C2.7421,14.0121562 1.6621,13.1121562 0.8881,11.8161562 L0.1501,12.2661562 C0.9781,13.7601562 2.5081,14.8041562 4.3981,14.8041562 Z M19.0321,14.5521562 L18.8881,13.7241562 L11.5981,13.7241562 C11.6341,12.4281562 12.8401,10.8261562 15.3601,9.2241562 C17.9161,7.6041562 18.9061,6.4701562 18.9061,4.5801562 C18.9061,2.4921562 17.4481,0.9801562 15.1081,0.9801562 C13.2721,0.9801562 11.8141,1.9701562 10.9501,3.8421562 L11.6881,4.2021562 C12.4621,2.5461562 13.5061,1.7721562 15.0721,1.7721562 C17.0161,1.7721562 18.0241,2.9421562 18.0241,4.6341562 C18.0241,6.0921562 17.2141,7.1001562 15.2341,8.3601562 C11.7241,10.6101562 10.6621,12.3381562 10.6621,14.2641562 L10.6621,14.5521562 L19.0321,14.5521562 Z M22.2901,16.2981562 L23.4061,13.1121562 L22.2181,13.1121562 L21.7681,16.2981562 L22.2901,16.2981562 Z M30.0121,14.8041562 C33.0541,14.8041562 34.7281,12.0501562 34.7281,7.8921562 C34.7281,3.7341562 33.0541,0.9801562 30.0121,0.9801562 C26.9701,0.9801562 25.2781,3.7341562 25.2781,7.8921562 C25.2781,12.0501562 26.9701,14.8041562 30.0121,14.8041562 Z M30.0121,14.0121562 C27.6901,14.0121562 26.1601,11.8161562 26.1601,7.8921562 C26.1601,3.9681562 27.6181,1.7721562 30.0121,1.7721562 C32.3161,1.7721562 33.8461,3.9681562 33.8461,7.8921562 C33.8461,11.8161562 32.3881,14.0121562 30.0121,14.0121562 Z"></path>
            </g>
            <g id="Group-46" transform="translate(317.000000, 264.736000)" fill="#FFFFFF">
                <g id="EFICIENCIA-" transform="translate(300.000000, 1.000000)">
                    <path d="M7.709,11.9501635 L7.709,10.2551635 L2.114,10.2551635 L2.114,7.0151635 L6.434,7.0151635 L6.164,5.3501635 L2.114,5.3501635 L2.114,2.5901635 L7.409,2.5901635 L7.409,0.8501635 L0.239,0.8501635 L0.239,11.9501635 L7.709,11.9501635 Z M11.429,11.9501635 L11.429,7.2251635 L15.464,7.2251635 L15.194,5.5601635 L11.429,5.5601635 L11.429,2.5901635 L16.544,2.5901635 L16.544,0.8501635 L9.554,0.8501635 L9.554,11.9501635 L11.429,11.9501635 Z M20.279,11.9501635 L20.279,0.8501635 L18.419,0.8501635 L18.419,11.9501635 L20.279,11.9501635 Z M27.314,12.1601635 C29.639,12.1601635 30.989,10.9751635 31.649,9.1451635 L30.029,8.4101635 C29.594,9.6551635 28.694,10.4801635 27.314,10.4801635 C25.379,10.4801635 24.269,8.9201635 24.269,6.3551635 C24.269,3.9251635 25.319,2.3651635 27.209,2.3651635 C28.544,2.3651635 29.354,3.1151635 29.789,4.1501635 L31.379,3.2051635 C30.614,1.5551635 29.309,0.6401635 27.209,0.6401635 C24.479,0.6401635 22.394,2.7251635 22.394,6.3701635 C22.394,10.1201635 24.449,12.1601635 27.314,12.1601635 Z M35.579,11.9501635 L35.579,0.8501635 L33.719,0.8501635 L33.719,11.9501635 L35.579,11.9501635 Z M45.704,11.9501635 L45.704,10.2551635 L40.109,10.2551635 L40.109,7.0151635 L44.429,7.0151635 L44.159,5.3501635 L40.109,5.3501635 L40.109,2.5901635 L45.404,2.5901635 L45.404,0.8501635 L38.234,0.8501635 L38.234,11.9501635 L45.704,11.9501635 Z M49.274,11.9501635 L49.274,3.8651635 L49.304,3.8651635 L54.764,11.9501635 L56.474,11.9501635 L56.474,0.8501635 L54.734,0.8501635 L54.734,8.7851635 L54.704,8.7851635 L49.454,0.8501635 L47.549,0.8501635 L47.549,11.9501635 L49.274,11.9501635 Z M63.374,12.1601635 C65.699,12.1601635 67.049,10.9751635 67.709,9.1451635 L66.089,8.4101635 C65.654,9.6551635 64.754,10.4801635 63.374,10.4801635 C61.439,10.4801635 60.329,8.9201635 60.329,6.3551635 C60.329,3.9251635 61.379,2.3651635 63.269,2.3651635 C64.604,2.3651635 65.414,3.1151635 65.849,4.1501635 L67.439,3.2051635 C66.674,1.5551635 65.369,0.6401635 63.269,0.6401635 C60.539,0.6401635 58.454,2.7251635 58.454,6.3701635 C58.454,10.1201635 60.509,12.1601635 63.374,12.1601635 Z M71.639,11.9501635 L71.639,0.8501635 L69.779,0.8501635 L69.779,11.9501635 L71.639,11.9501635 Z M75.149,11.9501635 L76.079,9.3101635 L80.294,9.3101635 L81.239,12.1001635 L83.054,11.8001635 L79.169,0.8051635 L77.339,0.8051635 L73.409,11.9501635 L75.149,11.9501635 Z M78.194,3.1601635 L78.224,3.1601635 L79.754,7.6601635 L76.634,7.6601635 L78.194,3.1601635 Z" id="EFICIENCIA"></path>
                </g>
                <g id="(%)" transform="translate(388.000000, 0.000000)">
                    <path d="M4.404,14.6501635 C2.454,12.9251635 1.194,10.5851635 1.194,7.9001635 C1.194,5.2151635 2.454,2.8751635 4.404,1.1501635 L4.089,0.7751635 C1.644,2.8301635 0.369,5.0951635 0.369,7.9001635 C0.369,10.7051635 1.644,12.9701635 4.089,15.0251635 L4.404,14.6501635 Z M8.664,7.2251635 C10.179,7.2251635 11.049,5.8301635 11.049,3.9401635 C11.049,1.9601635 10.149,0.7001635 8.694,0.7001635 C7.239,0.7001635 6.294,1.9751635 6.294,4.0001635 C6.294,5.8901635 7.134,7.2251635 8.664,7.2251635 Z M9.384,11.9501635 L16.014,0.8501635 L15.294,0.8501635 L8.664,11.9501635 L9.384,11.9501635 Z M8.679,6.5801635 C7.614,6.5801635 7.014,5.4851635 7.014,3.9401635 C7.014,2.5151635 7.599,1.3451635 8.664,1.3451635 C9.729,1.3451635 10.329,2.4251635 10.329,3.9701635 C10.329,5.3951635 9.744,6.5801635 8.679,6.5801635 Z M15.999,12.1001635 C17.514,12.1001635 18.384,10.7051635 18.384,8.8151635 C18.384,6.8351635 17.484,5.5751635 16.029,5.5751635 C14.574,5.5751635 13.629,6.8501635 13.629,8.8751635 C13.629,10.7651635 14.469,12.1001635 15.999,12.1001635 Z M16.014,11.4551635 C14.949,11.4551635 14.349,10.3601635 14.349,8.8151635 C14.349,7.3901635 14.934,6.2201635 15.999,6.2201635 C17.064,6.2201635 17.664,7.3001635 17.664,8.8451635 C17.664,10.2701635 17.079,11.4551635 16.014,11.4551635 Z M20.589,15.0251635 C23.034,12.9701635 24.309,10.7051635 24.309,7.9001635 C24.309,5.0951635 23.034,2.8301635 20.589,0.7751635 L20.274,1.1501635 C22.224,2.8751635 23.484,5.2151635 23.484,7.9001635 C23.484,10.5851635 22.224,12.9251635 20.274,14.6501635 L20.589,15.0251635 Z"></path>
                </g>
                <g id="ROA-" transform="translate(0.000000, 1.000000)">
                    <path d="M2.239,11.9501635 L2.239,7.5701635 L4.204,7.5701635 L6.889,12.1001635 L8.719,11.8001635 L6.079,7.3301635 C7.609,6.9401635 8.524,6.0251635 8.524,4.2551635 C8.524,1.9001635 6.994,0.8501635 4.369,0.8501635 L0.394,0.8501635 L0.394,11.9501635 L2.239,11.9501635 Z M2.239,2.5601635 L4.279,2.5601635 C5.869,2.5601635 6.694,2.9951635 6.694,4.2251635 C6.694,5.4851635 5.869,5.9351635 4.279,5.9351635 L2.239,5.9351635 L2.239,2.5601635 Z M15.079,12.1601635 C17.749,12.1601635 20.074,10.1351635 20.074,6.4001635 C20.074,2.6651635 17.749,0.6401635 15.079,0.6401635 C12.394,0.6401635 10.069,2.6651635 10.069,6.4001635 C10.069,10.1351635 12.394,12.1601635 15.079,12.1601635 Z M15.079,10.4801635 C13.204,10.4801635 11.944,8.9201635 11.944,6.4001635 C11.944,3.8801635 13.204,2.3651635 15.079,2.3651635 C16.954,2.3651635 18.214,3.8801635 18.214,6.4001635 C18.214,8.9201635 16.954,10.4801635 15.079,10.4801635 Z M22.324,11.9501635 L23.254,9.3101635 L27.469,9.3101635 L28.414,12.1001635 L30.229,11.8001635 L26.344,0.8051635 L24.514,0.8051635 L20.584,11.9501635 L22.324,11.9501635 Z M25.369,3.1601635 L25.399,3.1601635 L26.929,7.6601635 L23.809,7.6601635 L25.369,3.1601635 Z" id="ROA"></path>
                </g>
                <g id="(%)" transform="translate(37.000000, 0.000000)">
                    <path d="M4.704,14.6501635 C2.754,12.9251635 1.494,10.5851635 1.494,7.9001635 C1.494,5.2151635 2.754,2.8751635 4.704,1.1501635 L4.389,0.7751635 C1.944,2.8301635 0.669,5.0951635 0.669,7.9001635 C0.669,10.7051635 1.944,12.9701635 4.389,15.0251635 L4.704,14.6501635 Z M8.964,7.2251635 C10.479,7.2251635 11.349,5.8301635 11.349,3.9401635 C11.349,1.9601635 10.449,0.7001635 8.994,0.7001635 C7.539,0.7001635 6.594,1.9751635 6.594,4.0001635 C6.594,5.8901635 7.434,7.2251635 8.964,7.2251635 Z M9.684,11.9501635 L16.314,0.8501635 L15.594,0.8501635 L8.964,11.9501635 L9.684,11.9501635 Z M8.979,6.5801635 C7.914,6.5801635 7.314,5.4851635 7.314,3.9401635 C7.314,2.5151635 7.899,1.3451635 8.964,1.3451635 C10.029,1.3451635 10.629,2.4251635 10.629,3.9701635 C10.629,5.3951635 10.044,6.5801635 8.979,6.5801635 Z M16.299,12.1001635 C17.814,12.1001635 18.684,10.7051635 18.684,8.8151635 C18.684,6.8351635 17.784,5.5751635 16.329,5.5751635 C14.874,5.5751635 13.929,6.8501635 13.929,8.8751635 C13.929,10.7651635 14.769,12.1001635 16.299,12.1001635 Z M16.314,11.4551635 C15.249,11.4551635 14.649,10.3601635 14.649,8.8151635 C14.649,7.3901635 15.234,6.2201635 16.299,6.2201635 C17.364,6.2201635 17.964,7.3001635 17.964,8.8451635 C17.964,10.2701635 17.379,11.4551635 16.314,11.4551635 Z M20.889,15.0251635 C23.334,12.9701635 24.609,10.7051635 24.609,7.9001635 C24.609,5.0951635 23.334,2.8301635 20.889,0.7751635 L20.574,1.1501635 C22.524,2.8751635 23.784,5.2151635 23.784,7.9001635 C23.784,10.5851635 22.524,12.9251635 20.574,14.6501635 L20.889,15.0251635 Z"></path>
                </g>
            </g>
            <polygon id="Fill-47" points="352.282 231.939 308.475 213.764 289.477 219.014 337.012 239.519"></polygon>
            <polygon id="Fill-49" fill="#2A86CA" points="336.339 239.9113 352.282 231.9393 352.282 224.9173 336.339 232.6673"></polygon>
            <polygon id="Fill-50" fill="#0064A8" points="336.339 232.7174 352.283 224.7454 336.374 218.3704 320.43 226.3424"></polygon>
            <g id="Group-52" transform="translate(474.000000, 264.736000)" fill="#FFFFFF">
                <g id="RORWA-" transform="translate(0.000000, 2.000000)">
                    <path d="M2.228,11.9501635 L2.228,7.5701635 L4.193,7.5701635 L6.878,12.1001635 L8.708,11.8001635 L6.068,7.3301635 C7.598,6.9401635 8.513,6.0251635 8.513,4.2551635 C8.513,1.9001635 6.983,0.8501635 4.358,0.8501635 L0.383,0.8501635 L0.383,11.9501635 L2.228,11.9501635 Z M2.228,2.5601635 L4.268,2.5601635 C5.858,2.5601635 6.683,2.9951635 6.683,4.2251635 C6.683,5.4851635 5.858,5.9351635 4.268,5.9351635 L2.228,5.9351635 L2.228,2.5601635 Z M15.068,12.1601635 C17.738,12.1601635 20.063,10.1351635 20.063,6.4001635 C20.063,2.6651635 17.738,0.6401635 15.068,0.6401635 C12.383,0.6401635 10.058,2.6651635 10.058,6.4001635 C10.058,10.1351635 12.383,12.1601635 15.068,12.1601635 Z M15.068,10.4801635 C13.193,10.4801635 11.933,8.9201635 11.933,6.4001635 C11.933,3.8801635 13.193,2.3651635 15.068,2.3651635 C16.943,2.3651635 18.203,3.8801635 18.203,6.4001635 C18.203,8.9201635 16.943,10.4801635 15.068,10.4801635 Z M23.903,11.9501635 L23.903,7.5701635 L25.868,7.5701635 L28.553,12.1001635 L30.383,11.8001635 L27.743,7.3301635 C29.273,6.9401635 30.188,6.0251635 30.188,4.2551635 C30.188,1.9001635 28.658,0.8501635 26.033,0.8501635 L22.058,0.8501635 L22.058,11.9501635 L23.903,11.9501635 Z M23.903,2.5601635 L25.943,2.5601635 C27.533,2.5601635 28.358,2.9951635 28.358,4.2251635 C28.358,5.4851635 27.533,5.9351635 25.943,5.9351635 L23.903,5.9351635 L23.903,2.5601635 Z M35.903,11.9501635 L37.988,3.4301635 L38.018,3.4301635 L40.028,11.9501635 L41.663,11.9501635 L44.573,0.8501635 L42.833,0.8501635 L41.453,6.7001635 C41.228,7.6301635 41.063,8.2301635 40.898,9.1751635 L40.868,9.1751635 C40.718,8.2601635 40.523,7.5851635 40.298,6.6551635 L38.903,0.8501635 L37.118,0.8501635 L35.783,6.6101635 C35.558,7.4951635 35.348,8.3351635 35.213,9.1751635 L35.183,9.1751635 C35.033,8.3051635 34.823,7.4951635 34.583,6.5951635 L33.143,0.7001635 L31.328,1.0001635 L34.253,11.9501635 L35.903,11.9501635 Z M46.373,11.9501635 L47.303,9.3101635 L51.518,9.3101635 L52.463,12.1001635 L54.278,11.8001635 L50.393,0.8051635 L48.563,0.8051635 L44.633,11.9501635 L46.373,11.9501635 Z M49.418,3.1601635 L49.448,3.1601635 L50.978,7.6601635 L47.858,7.6601635 L49.418,3.1601635 Z" id="RORWA"></path>
                </g>
                <g id="(%)" transform="translate(59.000000, 0.000000)">
                    <path d="M4.953,14.6501635 C3.003,12.9251635 1.743,10.5851635 1.743,7.9001635 C1.743,5.2151635 3.003,2.8751635 4.953,1.1501635 L4.638,0.7751635 C2.193,2.8301635 0.918,5.0951635 0.918,7.9001635 C0.918,10.7051635 2.193,12.9701635 4.638,15.0251635 L4.953,14.6501635 Z M9.213,7.2251635 C10.728,7.2251635 11.598,5.8301635 11.598,3.9401635 C11.598,1.9601635 10.698,0.7001635 9.243,0.7001635 C7.788,0.7001635 6.843,1.9751635 6.843,4.0001635 C6.843,5.8901635 7.683,7.2251635 9.213,7.2251635 Z M9.933,11.9501635 L16.563,0.8501635 L15.843,0.8501635 L9.213,11.9501635 L9.933,11.9501635 Z M9.228,6.5801635 C8.163,6.5801635 7.563,5.4851635 7.563,3.9401635 C7.563,2.5151635 8.148,1.3451635 9.213,1.3451635 C10.278,1.3451635 10.878,2.4251635 10.878,3.9701635 C10.878,5.3951635 10.293,6.5801635 9.228,6.5801635 Z M16.548,12.1001635 C18.063,12.1001635 18.933,10.7051635 18.933,8.8151635 C18.933,6.8351635 18.033,5.5751635 16.578,5.5751635 C15.123,5.5751635 14.178,6.8501635 14.178,8.8751635 C14.178,10.7651635 15.018,12.1001635 16.548,12.1001635 Z M16.563,11.4551635 C15.498,11.4551635 14.898,10.3601635 14.898,8.8151635 C14.898,7.3901635 15.483,6.2201635 16.548,6.2201635 C17.613,6.2201635 18.213,7.3001635 18.213,8.8451635 C18.213,10.2701635 17.628,11.4551635 16.563,11.4551635 Z M21.138,15.0251635 C23.583,12.9701635 24.858,10.7051635 24.858,7.9001635 C24.858,5.0951635 23.583,2.8301635 21.138,0.7751635 L20.823,1.1501635 C22.773,2.8751635 24.033,5.2151635 24.033,7.9001635 C24.033,10.5851635 22.773,12.9251635 20.823,14.6501635 L21.138,15.0251635 Z"></path>
                </g>
            </g>
            <polygon id="Fill-53" points="512.524 231.939 468.718 213.764 449.719 219.014 497.254 239.519"></polygon>
            <polygon id="Fill-55" fill="#2A86CA" points="496.5812 239.9113 512.5242 231.9393 512.5242 217.8733 496.5812 225.7923"></polygon>
            <polygon id="Fill-56" fill="#0064A8" points="496.5812 225.8424 512.5252 217.8704 496.6162 211.4954 480.6722 219.4674"></polygon>
        </g>
    </g>
</svg>