<?xml version="1.0" encoding="utf-8"?>
<!-- Generator: Adobe Illustrator 21.0.0, SVG Export Plug-In . SVG Version: 6.00 Build 0)  -->
<!DOCTYPE svg PUBLIC "-//W3C//DTD SVG 1.1//EN" "http://www.w3.org/Graphics/SVG/1.1/DTD/svg11.dtd">
<svg version="1.1" id="Capa_1" xmlns="http://www.w3.org/2000/svg" xmlns:xlink="http://www.w3.org/1999/xlink" x="0px" y="0px"
	 viewBox="0 0 247 281" style="enable-background:new 0 0 247 281;" xml:space="preserve">
<style type="text/css">
	.st0{fill:none;}
	.st1{enable-background:new    ;}
	.st2{fill:#121212;}
	.st3{fill:#666666;}
	.st4{fill:#FF555F;}
	.st5{fill:#2ECDCD;}
	.st6{fill:url(#SVGID_1_);}
	.st7{fill:url(#SVGID_2_);}
	.st8{fill:url(#SVGID_3_);}
	.st9{fill:url(#SVGID_4_);}
	.st10{fill:#FFFFFF;}
	.st11{fill:#F2F2F2;}
	.st12{fill:#F25E61;}
</style>
<g>
	<line class="st0" x1="354.1" y1="285.9" x2="354.1" y2="288.9"/>
</g>
<g>
	<line class="st0" x1="354.1" y1="285.9" x2="354.1" y2="288.9"/>
</g>
<g>
	<g>
		<line class="st0" x1="354.4" y1="291.9" x2="354.4" y2="294.9"/>
	</g>
	<g>
		<line class="st0" x1="354.4" y1="291.9" x2="354.4" y2="294.9"/>
	</g>
	<g class="st1">
		<path class="st2" d="M85.8,81.7c0-3.5,1.5-5.8,4.1-5.8s4,2.3,4,5.8s-1.4,5.8-4,5.8S85.8,85.2,85.8,81.7z M92.9,81.7
			c0-3.1-1.2-4.8-3-4.8c-1.9,0-3,1.7-3,4.8s1.2,4.8,3,4.8C91.8,86.5,92.9,84.9,92.9,81.7z"/>
		<path class="st2" d="M95.4,86.6c0-0.5,0.3-0.8,0.7-0.8c0.5,0,0.7,0.3,0.7,0.8s-0.3,0.8-0.7,0.8C95.7,87.4,95.4,87,95.4,86.6z"/>
		<path class="st2" d="M98.4,81.7c0-3.5,1.5-5.8,4.1-5.8s4,2.3,4,5.8s-1.4,5.8-4,5.8S98.4,85.2,98.4,81.7z M105.5,81.7
			c0-3.1-1.2-4.8-3-4.8c-1.9,0-3,1.7-3,4.8s1.2,4.8,3,4.8C104.4,86.5,105.5,84.9,105.5,81.7z"/>
		<path class="st2" d="M108,84.6c0-1.6,1.1-2.4,2.9-3.2c-1.5-0.7-2.4-1.4-2.4-2.7c0-1.4,1.3-2.7,3.5-2.7s3.4,1.3,3.4,2.7
			c0,1.3-0.9,2-2.5,2.7c1.9,0.8,3,1.6,3,3.2s-1.5,2.9-3.9,2.9C109.4,87.5,108,86.2,108,84.6z M114.8,84.5c0-1.2-1-1.9-3-2.7
			c-2,0.9-2.9,1.5-2.9,2.7s1.2,2.1,2.9,2.1C113.6,86.6,114.8,85.8,114.8,84.5z M114.3,78.7c0-0.9-0.7-1.8-2.4-1.8
			c-1.6,0-2.4,0.9-2.4,1.8c0,1,0.8,1.6,2.5,2.3C113.7,80.2,114.3,79.7,114.3,78.7z"/>
	</g>
	<g>
		<g class="st1">
			<path class="st2" d="M21.8,49.1c0-3.5,1.5-5.8,4.1-5.8s4,2.3,4,5.8s-1.4,5.8-4,5.8S21.8,52.5,21.8,49.1z M28.9,49.1
				c0-3.1-1.2-4.8-3-4.8c-1.9,0-3,1.7-3,4.8s1.2,4.8,3,4.8C27.7,53.9,28.9,52.2,28.9,49.1z"/>
			<path class="st2" d="M31.4,53.9c0-0.5,0.3-0.8,0.7-0.8c0.5,0,0.7,0.3,0.7,0.8s-0.3,0.8-0.7,0.8C31.7,54.7,31.4,54.4,31.4,53.9z"
				/>
			<path class="st2" d="M37.5,54.6V44.5l-2.1,0.7l-0.1-0.9l2.3-0.8h1v11.1H37.5z"/>
			<path class="st2" d="M41.4,54.6v-0.2c0-1.6,0.8-3.1,3.7-4.9c1.7-1.1,2.3-1.8,2.3-3c0-1.3-0.8-2.2-2.3-2.2c-1.2,0-2.1,0.6-2.8,1.9
				l-0.8-0.5c0.8-1.5,2-2.4,3.6-2.4c2,0,3.3,1.3,3.3,3c0,1.5-0.7,2.5-2.9,3.8c-2,1.3-3,2.5-3.1,3.5h5.9l0.1,1
				C48.4,54.6,41.4,54.6,41.4,54.6z"/>
			<path class="st2" d="M50.6,53.9l0.5-0.8c0.7,0.6,1.2,0.9,2.4,0.9c2,0,3.3-2.2,3.3-4.9c-0.7,0.8-1.7,1.5-3.1,1.5
				c-2.3,0-3.5-1.5-3.5-3.5c0-2.1,1.4-3.7,3.7-3.7c2.2,0,3.9,1.8,3.9,5.6c0,3.4-1.8,6-4.3,6C52.1,54.8,51.2,54.4,50.6,53.9z
				 M56.7,47.9c-0.2-2.5-1.5-3.7-2.9-3.7c-1.6,0-2.6,1-2.6,2.7c0,1.5,0.8,2.6,2.5,2.6C54.9,49.6,56,48.9,56.7,47.9z"/>
		</g>
	</g>
	<g>
		<g class="st1">
			<path class="st3" d="M21.9,221.7l2.6-7.4h0.8l2.6,7.4l-0.7,0.1l-0.8-2.3h-3l-0.8,2.3h-0.7V221.7z M23.6,218.8h2.6l-1.3-3.7l0,0
				L23.6,218.8z"/>
			<path class="st3" d="M30,223.7v-7.3h0.6l0.1,0.7c0.4-0.5,1-0.8,1.8-0.8c1.2,0,2.2,0.9,2.2,2.7s-1,2.7-2.2,2.7
				c-0.7,0-1.3-0.3-1.7-0.8v2.7L30,223.7z M34,219c0-1.4-0.7-2.1-1.6-2.1c-0.6,0-1.1,0.3-1.6,0.9v2.6c0.5,0.5,1,0.8,1.7,0.8
				C33.3,221.2,34,220.5,34,219z"/>
			<path class="st3" d="M37.1,221.7v-7.4h2.5c1.6,0,2.6,0.7,2.6,2c0,1.2-0.7,1.8-1.8,2l1.9,3.3l-0.7,0.1l-1.9-3.4h-1.8v3.3
				L37.1,221.7L37.1,221.7z M37.8,217.7h1.7c1.2,0,1.9-0.4,1.9-1.4s-0.7-1.4-1.9-1.4h-1.7V217.7z"/>
			<path class="st3" d="M44.5,218.8v-0.6h2.2v0.6H44.5z"/>
			<path class="st3" d="M50.1,221.7V215l-1.4,0.5l-0.1-0.6l1.5-0.5h0.6v7.4L50.1,221.7L50.1,221.7z"/>
			<path class="st3" d="M53.7,218.1c0-2.3,1.2-4,2.9-4c0.8,0,1.3,0.2,1.7,0.6l-0.3,0.6c-0.4-0.3-0.8-0.5-1.4-0.5
				c-1.4,0-2.2,1.4-2.2,3.3c0.5-0.5,1.2-1,2.1-1c1.6,0,2.3,1,2.3,2.3c0,1.4-0.9,2.5-2.5,2.5C54.9,221.8,53.7,220.6,53.7,218.1z
				 M58.1,219.4c0-1-0.5-1.7-1.7-1.7c-0.8,0-1.5,0.4-2,1.1c0.1,1.7,1,2.5,1.9,2.5C57.4,221.2,58.1,220.5,58.1,219.4z"/>
		</g>
	</g>
	<g>
		<g class="st1">
			<path class="st3" d="M84.1,221l0.4-0.5c0.3,0.4,0.7,0.7,1.3,0.7c0.7,0,1.2-0.4,1.2-1.5v-5.4h0.7v5.4c0,1.4-0.7,2.1-1.9,2.1
				C85,221.8,84.5,221.5,84.1,221z"/>
			<path class="st3" d="M90.5,219.2v-4.9h0.7v4.8c0,1.2,0.6,2.1,2,2.1s2-0.9,2-2.1v-4.8h0.7v4.9c0,1.5-0.9,2.7-2.7,2.7
				C91.4,221.8,90.5,220.6,90.5,219.2z"/>
			<path class="st3" d="M98.7,221.7v-7.4h0.7v6.7h3.6l0.1,0.6L98.7,221.7L98.7,221.7z"/>
			<path class="st3" d="M104.4,218.8v-0.6h2.2v0.6H104.4z"/>
			<path class="st3" d="M110,221.7V215l-1.4,0.5l-0.1-0.6l1.5-0.5h0.6v7.4L110,221.7L110,221.7z"/>
			<path class="st3" d="M113.6,218.1c0-2.3,1.2-4,2.9-4c0.8,0,1.3,0.2,1.7,0.6l-0.3,0.6c-0.4-0.3-0.8-0.5-1.4-0.5
				c-1.4,0-2.2,1.4-2.2,3.3c0.5-0.5,1.2-1,2.1-1c1.6,0,2.3,1,2.3,2.3c0,1.4-0.9,2.5-2.5,2.5C114.8,221.8,113.6,220.6,113.6,218.1z
				 M118,219.4c0-1-0.5-1.7-1.7-1.7c-0.8,0-1.5,0.4-2,1.1c0.1,1.7,1,2.5,1.9,2.5C117.3,221.2,118,220.5,118,219.4z"/>
		</g>
	</g>
	<g>
		<g class="st1">
			<path class="st3" d="M144,218c0-2.3,1.3-3.8,3.1-3.8s3.1,1.5,3.1,3.8s-1.3,3.8-3.1,3.8S144,220.3,144,218z M149.5,218
				c0-2-1-3.2-2.4-3.2s-2.4,1.2-2.4,3.2s1,3.2,2.4,3.2S149.5,220,149.5,218z"/>
			<path class="st3" d="M152.4,217.9c0-2.2,1.2-3.8,3.1-3.8c1.3,0,2.1,0.6,2.5,1.6l-0.6,0.3c-0.3-0.8-0.9-1.3-1.9-1.3
				c-1.4,0-2.3,1.3-2.3,3.1c0,2,0.9,3.2,2.4,3.2c1,0,1.7-0.5,2.1-1.5l0.6,0.3c-0.4,1.1-1.3,1.8-2.7,1.8
				C153.6,221.8,152.4,220.3,152.4,217.9z"/>
			<path class="st3" d="M162.2,221.7V215h-2.4v-0.7h5.4l0.1,0.7h-2.4v6.7H162.2z"/>
			<path class="st3" d="M166.3,218.8v-0.6h2.2v0.6H166.3z"/>
			<path class="st3" d="M171.9,221.7V215l-1.4,0.5l-0.1-0.6l1.5-0.5h0.6v7.4L171.9,221.7L171.9,221.7z"/>
			<path class="st3" d="M175.5,218.1c0-2.3,1.2-4,2.9-4c0.8,0,1.3,0.2,1.7,0.6l-0.3,0.6c-0.4-0.3-0.8-0.5-1.4-0.5
				c-1.4,0-2.2,1.4-2.2,3.3c0.5-0.5,1.2-1,2.1-1c1.6,0,2.3,1,2.3,2.3c0,1.4-0.9,2.5-2.5,2.5C176.7,221.8,175.5,220.6,175.5,218.1z
				 M179.9,219.4c0-1-0.5-1.7-1.7-1.7c-0.8,0-1.5,0.4-2,1.1c0.2,1.7,1,2.5,1.9,2.5C179.2,221.2,179.9,220.5,179.9,219.4z"/>
		</g>
	</g>
	<g>
		<g class="st1">
			<path class="st3" d="M205.6,223.6l-0.1-0.6c0.1,0,0.2,0,0.3,0c0.3,0,0.5-0.2,0.5-0.6v-6.1h0.7v6.1c0,0.7-0.3,1.2-1.1,1.2
				C205.8,223.7,205.6,223.7,205.6,223.6z M206.3,214.8c0-0.3,0.2-0.4,0.4-0.4s0.4,0.2,0.4,0.4c0,0.3-0.2,0.4-0.4,0.4
				S206.3,215.1,206.3,214.8z"/>
			<path class="st3" d="M209.4,220.4c0-1,0.9-1.8,3.6-2.2V218c0-0.7-0.4-1.1-1.1-1.1c-0.8,0-1.4,0.3-1.9,0.8l-0.4-0.4
				c0.6-0.6,1.3-1,2.4-1c1.2,0,1.7,0.6,1.7,1.7v3.7H213l-0.1-0.8c-0.6,0.5-1.3,0.8-2.1,0.8C209.9,221.8,209.4,221.2,209.4,220.4z
				 M213,220.4v-1.6c-2.3,0.4-2.9,0.9-2.9,1.6c0,0.5,0.4,0.8,1,0.8C211.8,221.2,212.4,220.9,213,220.4z"/>
			<path class="st3" d="M216.2,221.7v-5.3h0.6l0.1,0.8c0.5-0.5,1.2-0.9,2-0.9c1.1,0,1.6,0.6,1.6,1.5v3.8h-0.7V218
				c0-0.7-0.3-1.1-1.1-1.1c-0.7,0-1.2,0.3-1.8,0.9v3.9L216.2,221.7L216.2,221.7z"/>
			<path class="st3" d="M222.8,218.8v-0.6h2.2v0.6H222.8z"/>
			<path class="st3" d="M228.4,221.7V215l-1.4,0.5l-0.1-0.6l1.5-0.5h0.6v7.4L228.4,221.7L228.4,221.7z"/>
			<path class="st3" d="M232.6,221.6l3.1-6.7h-3.8v-0.6h4.6v0.6l-3.1,6.8L232.6,221.6z"/>
		</g>
	</g>
	<g>
		<g>
			<g>
				<g class="st1">
					<path class="st3" d="M192.7,269.5c0-2.9,1.6-5,4-5c1.6,0,2.7,0.8,3.3,2.1l-0.8,0.4c-0.5-1.1-1.2-1.7-2.5-1.7
						c-1.9,0-3.1,1.6-3.1,4.1c0,2.7,1.2,4.2,3.1,4.2c1.3,0,2.2-0.7,2.7-1.9l0.8,0.4c-0.6,1.5-1.8,2.4-3.5,2.4
						C194.2,274.5,192.7,272.5,192.7,269.5z"/>
					<path class="st3" d="M201.6,272.7c0-1.4,1.2-2.3,4.6-2.9v-0.4c0-0.9-0.5-1.4-1.4-1.4c-1.1,0-1.8,0.4-2.5,1.1l-0.5-0.6
						c0.8-0.8,1.7-1.3,3.1-1.3c1.5,0,2.2,0.8,2.2,2.2v4.8h-0.8l-0.1-1c-0.8,0.7-1.7,1.1-2.7,1.1
						C202.3,274.4,201.6,273.8,201.6,272.7z M206.2,272.6v-2.1c-3,0.5-3.8,1.2-3.8,2.1c0,0.7,0.5,1.1,1.2,1.1
						C204.7,273.7,205.5,273.3,206.2,272.6z"/>
					<path class="st3" d="M208.6,273.2l0.5-0.5c0.5,0.6,1.2,1,2.2,1c1.2,0,1.8-0.5,1.8-1.2c0-0.8-0.5-1.1-1.9-1.4
						c-1.7-0.4-2.4-0.8-2.4-2c0-1,0.8-1.8,2.3-1.8c1.1,0,1.9,0.4,2.5,1l-0.5,0.6c-0.6-0.5-1.2-0.8-2-0.8c-1,0-1.5,0.5-1.5,1
						c0,0.6,0.4,0.9,1.6,1.2c1.8,0.4,2.6,0.9,2.6,2.1c0,1.3-1.1,2-2.7,2C210.1,274.4,209.2,273.9,208.6,273.2z"/>
					<path class="st3" d="M215.7,274.3v-9.6l0.9-0.1v3.9c0.7-0.7,1.5-1.2,2.6-1.2c1.4,0,2.1,0.7,2.1,2v5h-0.9v-4.8
						c0-1-0.4-1.4-1.4-1.4c-0.9,0-1.6,0.5-2.4,1.2v5H215.7z"/>
				</g>
			</g>
			<g>
				<polygon class="st4" points="170,275 179.7,275 184.6,265.3 174.9,265.3 				"/>
			</g>
		</g>
		<g>
			<g>
				<g class="st1">
					<path class="st3" d="M27.4,274.3v-9.6h2.4c3.1,0,4.8,1.6,4.8,4.8s-1.7,4.8-4.8,4.8L27.4,274.3L27.4,274.3z M28.3,273.5H30
						c2.4,0,3.7-1.2,3.7-4c0-2.7-1.3-4-3.7-4h-1.6v8H28.3z"/>
					<path class="st3" d="M36.4,265.4c0-0.3,0.2-0.5,0.5-0.5s0.5,0.2,0.5,0.5c0,0.4-0.2,0.6-0.5,0.6S36.4,265.8,36.4,265.4z
						 M36.5,274.3v-6.8h0.9v6.8H36.5z"/>
					<path class="st3" d="M41.4,274.4l-2.5-6.8l0.9-0.2l2.1,5.9l0,0l2-5.8h0.9l-2.5,6.9H41.4z"/>
					<path class="st3" d="M46.1,265.4c0-0.3,0.2-0.5,0.5-0.5s0.5,0.2,0.5,0.5c0,0.4-0.2,0.6-0.5,0.6S46.1,265.8,46.1,265.4z
						 M46.2,274.3v-6.8h0.9v6.8H46.2z"/>
					<path class="st3" d="M48.9,270.9c0-2.4,1.3-3.6,2.8-3.6c0.9,0,1.7,0.5,2.3,1.1v-3.7l0.9-0.1v9.7h-0.8l-0.1-1
						c-0.5,0.6-1.3,1.1-2.3,1.1C50.2,274.4,48.9,273.3,48.9,270.9z M54,272.5v-3.3c-0.7-0.7-1.3-1.1-2.2-1.1c-1.1,0-2.1,0.9-2.1,2.8
						s0.9,2.8,2.1,2.8C52.7,273.7,53.3,273.3,54,272.5z"/>
					<path class="st3" d="M56.6,270.9c0-2.4,1.6-3.5,3-3.5c1.6,0,2.8,1.2,2.8,3.6v0.2h-4.9c0,1.7,1,2.6,2.2,2.6c0.9,0,1.6-0.4,2.2-1
						l0.4,0.6c-0.8,0.8-1.5,1.2-2.7,1.2C58,274.5,56.6,273.2,56.6,270.9z M61.5,270.4c-0.1-1.3-0.7-2.3-1.9-2.3
						c-1,0-1.9,0.7-2.1,2.3H61.5z"/>
					<path class="st3" d="M64.1,274.3v-6.8h0.8l0.1,1.1c0.7-0.7,1.5-1.2,2.6-1.2c1.4,0,2.1,0.7,2.1,2v5h-0.9v-4.8
						c0-1-0.4-1.4-1.4-1.4c-0.9,0-1.6,0.5-2.4,1.2v5h-0.9V274.3z"/>
					<path class="st3" d="M71.3,270.9c0-2.4,1.3-3.6,2.8-3.6c0.9,0,1.7,0.5,2.3,1.1v-3.7l0.9-0.1v9.7h-0.8l-0.1-1
						c-0.5,0.6-1.3,1.1-2.3,1.1C72.5,274.4,71.3,273.3,71.3,270.9z M76.4,272.5v-3.3c-0.7-0.7-1.3-1.1-2.2-1.1
						c-1.1,0-2.1,0.9-2.1,2.8s0.9,2.8,2.1,2.8C75.1,273.7,75.7,273.3,76.4,272.5z"/>
					<path class="st3" d="M79.2,270.6v-0.8h2.9v0.8H79.2z"/>
					<path class="st3" d="M83.6,270.9c0-2.3,1.4-3.6,3.1-3.6s3.1,1.3,3.1,3.6c0,2.3-1.4,3.6-3.1,3.6S83.6,273.2,83.6,270.9z
						 M88.9,270.9c0-1.5-0.8-2.8-2.2-2.8c-1.4,0-2.2,1.2-2.2,2.8c0,1.5,0.7,2.8,2.2,2.8C88.1,273.7,88.9,272.5,88.9,270.9z"/>
					<path class="st3" d="M91.5,277v-9.5h0.8l0.1,1c0.5-0.6,1.3-1.1,2.3-1.1c1.6,0,2.8,1.2,2.8,3.5c0,2.4-1.3,3.5-2.8,3.5
						c-0.9,0-1.7-0.4-2.3-1.1v3.5L91.5,277z M96.6,270.9c0-1.9-0.9-2.8-2.1-2.8c-0.8,0-1.4,0.4-2.1,1.1v3.4c0.7,0.7,1.3,1.1,2.2,1.1
						C95.7,273.7,96.6,272.9,96.6,270.9z"/>
					<path class="st3" d="M99.7,272.7v-4.5h-1.2v-0.8h1.2V265l0.9-0.1v2.5h1.8v0.8h-1.8v4.3c0,0.7,0.3,1.1,1.1,1.1
						c0.2,0,0.5,0,0.7-0.1l0.1,0.8c-0.2,0-0.6,0.1-0.9,0.1C100.2,274.4,99.7,273.9,99.7,272.7z"/>
					<path class="st3" d="M103.9,265.4c0-0.3,0.2-0.5,0.5-0.5s0.5,0.2,0.5,0.5c0,0.4-0.2,0.6-0.5,0.6S103.9,265.8,103.9,265.4z
						 M104,274.3v-6.8h0.9v6.8H104z"/>
					<path class="st3" d="M106.7,270.9c0-2.3,1.4-3.6,3.1-3.6s3.1,1.3,3.1,3.6c0,2.3-1.4,3.6-3.1,3.6S106.7,273.2,106.7,270.9z
						 M112,270.9c0-1.5-0.8-2.8-2.2-2.8c-1.4,0-2.2,1.2-2.2,2.8c0,1.5,0.7,2.8,2.2,2.8C111.2,273.7,112,272.5,112,270.9z"/>
					<path class="st3" d="M114.6,274.3v-6.8h0.8l0.1,1.1c0.7-0.7,1.5-1.2,2.6-1.2c1.4,0,2.1,0.7,2.1,2v5h-0.9v-4.8
						c0-1-0.4-1.4-1.4-1.4c-0.9,0-1.6,0.5-2.4,1.2v5h-0.9V274.3z"/>
				</g>
			</g>
			<g>
				<polygon class="st5" points="4.3,275 14,275 18.8,265.3 9.1,265.3 				"/>
			</g>
		</g>
	</g>
	<g>
		<g>
			<g>
				<linearGradient id="SVGID_1_" gradientUnits="userSpaceOnUse" x1="15.59" y1="179.1319" x2="60.1193" y2="198.4924">
					<stop  offset="0" style="stop-color:#000000;stop-opacity:0"/>
					<stop  offset="1" style="stop-color:#000000;stop-opacity:0.5"/>
				</linearGradient>
				<polygon class="st6" points="40.3,196.8 -6.8,176 12.2,170.8 55.1,189.4 				"/>
				<linearGradient id="SVGID_2_" gradientUnits="userSpaceOnUse" x1="78.4051" y1="179.1319" x2="122.9344" y2="198.4924">
					<stop  offset="0" style="stop-color:#000000;stop-opacity:0"/>
					<stop  offset="1" style="stop-color:#000000;stop-opacity:0.5"/>
				</linearGradient>
				<polygon class="st7" points="103.1,196.8 56,176 75,170.8 118,189.4 				"/>
				<linearGradient id="SVGID_3_" gradientUnits="userSpaceOnUse" x1="200.617" y1="179.1319" x2="245.1462" y2="198.4924">
					<stop  offset="0" style="stop-color:#000000;stop-opacity:0"/>
					<stop  offset="1" style="stop-color:#000000;stop-opacity:0.5"/>
				</linearGradient>
				<polygon class="st8" points="225.3,196.8 178.3,176 197.3,170.8 240.2,189.4 				"/>
				<linearGradient id="SVGID_4_" gradientUnits="userSpaceOnUse" x1="141.4141" y1="179.1319" x2="185.9433" y2="198.4924">
					<stop  offset="0" style="stop-color:#000000;stop-opacity:0"/>
					<stop  offset="1" style="stop-color:#000000;stop-opacity:0.5"/>
				</linearGradient>
				<polygon class="st9" points="166.1,196.8 119.1,176 138.1,170.8 181,189.4 				"/>
				<polygon class="st5" points="40,197.1 56,189.2 56,123.2 40,131.1 				"/>
			</g>
			<g>
				<polygon class="st10" points="40,81.3 56,73.3 40.1,67 24.1,74.9 				"/>
			</g>
			<g>
				<polygon class="st5" points="40,81.3 40,131.1 56,123.2 56,73.3 				"/>
			</g>
		</g>
		<g>
			<polygon class="st11" points="40.1,81.3 55.9,73.4 40.1,67 24.3,74.9 			"/>
		</g>
	</g>
	<g>
		<g>
			<g>
				<polygon class="st12" points="102.7,197.1 118.6,189.2 118.6,112.5 102.7,120.5 				"/>
			</g>
			<g>
				<polygon class="st10" points="102.7,120.5 118.6,112.5 102.7,106.2 86.8,114.1 				"/>
			</g>
		</g>
		<g>
			<polygon class="st11" points="102.7,120.5 118.5,112.6 102.8,106.2 86.9,114.1 			"/>
		</g>
	</g>
	<g class="st1">
		<path class="st2" d="M148.5,81.7c0-3.5,1.5-5.8,4.1-5.8s4,2.3,4,5.8s-1.4,5.8-4,5.8C149.9,87.5,148.5,85.2,148.5,81.7z
			 M155.5,81.7c0-3.1-1.2-4.8-3-4.8c-1.9,0-3,1.7-3,4.8s1.2,4.8,3,4.8C154.4,86.5,155.5,84.9,155.5,81.7z"/>
		<path class="st2" d="M158.1,86.6c0-0.5,0.3-0.8,0.7-0.8c0.5,0,0.7,0.3,0.7,0.8s-0.3,0.8-0.7,0.8C158.4,87.4,158.1,87,158.1,86.6z"
			/>
		<path class="st2" d="M161.1,81.7c0-3.5,1.5-5.8,4.1-5.8s4,2.3,4,5.8s-1.4,5.8-4,5.8S161.1,85.2,161.1,81.7z M168.2,81.7
			c0-3.1-1.2-4.8-3-4.8c-1.9,0-3,1.7-3,4.8s1.2,4.8,3,4.8S168.2,84.9,168.2,81.7z"/>
		<path class="st2" d="M170.7,84.6c0-1.6,1.1-2.4,2.9-3.2c-1.5-0.7-2.4-1.4-2.4-2.7c0-1.4,1.3-2.7,3.4-2.7c2.2,0,3.4,1.3,3.4,2.7
			c0,1.3-0.9,2-2.5,2.7c1.9,0.8,3,1.6,3,3.2s-1.5,2.9-3.9,2.9C172.1,87.5,170.7,86.2,170.7,84.6z M177.5,84.5c0-1.2-1-1.9-3-2.7
			c-2,0.9-2.8,1.5-2.8,2.7s1.2,2.1,2.9,2.1C176.3,86.6,177.5,85.8,177.5,84.5z M177,78.7c0-0.9-0.7-1.8-2.4-1.8
			c-1.6,0-2.4,0.9-2.4,1.8c0,1,0.8,1.6,2.5,2.3C176.3,80.2,177,79.7,177,78.7z"/>
	</g>
	<g>
		<g>
			<g>
				<polygon class="st5" points="165.3,197.1 181.3,189.2 181.3,112.5 165.3,120.5 				"/>
			</g>
			<g>
				<polygon class="st10" points="165.3,120.5 181.3,112.5 165.4,106.2 149.4,114.1 				"/>
			</g>
		</g>
		<g>
			<polygon class="st11" points="165.4,120.5 181.2,112.6 165.4,106.2 149.6,114.1 			"/>
		</g>
	</g>
	<g class="st1">
		<path class="st2" d="M207.5,81.7c0-3.5,1.5-5.8,4.1-5.8s4,2.3,4,5.8s-1.4,5.8-4,5.8S207.5,85.2,207.5,81.7z M214.5,81.7
			c0-3.1-1.2-4.8-3-4.8c-1.9,0-3,1.7-3,4.8s1.2,4.8,3,4.8C213.4,86.5,214.5,84.9,214.5,81.7z"/>
		<path class="st2" d="M217.1,86.6c0-0.5,0.3-0.8,0.7-0.8s0.7,0.3,0.7,0.8s-0.3,0.8-0.7,0.8C217.4,87.4,217.1,87,217.1,86.6z"/>
		<path class="st2" d="M220.1,81.7c0-3.5,1.5-5.8,4.1-5.8s4,2.3,4,5.8s-1.4,5.8-4,5.8S220.1,85.2,220.1,81.7z M227.2,81.7
			c0-3.1-1.2-4.8-3-4.8c-1.9,0-3,1.7-3,4.8s1.2,4.8,3,4.8S227.2,84.9,227.2,81.7z"/>
		<path class="st2" d="M229.7,84.6c0-1.6,1.1-2.4,2.9-3.2c-1.5-0.7-2.4-1.4-2.4-2.7c0-1.4,1.3-2.7,3.4-2.7c2.2,0,3.4,1.3,3.4,2.7
			c0,1.3-0.9,2-2.5,2.7c1.9,0.8,3,1.6,3,3.2s-1.5,2.9-3.9,2.9C231.1,87.5,229.7,86.2,229.7,84.6z M236.5,84.5c0-1.2-1-1.9-3-2.7
			c-2,0.9-2.9,1.5-2.9,2.7s1.2,2.1,2.9,2.1C235.3,86.6,236.5,85.8,236.5,84.5z M236,78.7c0-0.9-0.7-1.8-2.4-1.8
			c-1.6,0-2.4,0.9-2.4,1.8c0,1,0.8,1.6,2.5,2.3C235.3,80.2,236,79.7,236,78.7z"/>
	</g>
	<g>
		<g>
			<g>
				<polygon class="st12" points="224.3,197.1 240.3,189.2 240.3,112.5 224.3,120.5 				"/>
			</g>
			<g>
				<polygon class="st10" points="224.3,120.5 240.3,112.5 224.4,106.2 208.4,114.1 				"/>
			</g>
		</g>
		<g>
			<polygon class="st11" points="224.4,120.5 240.2,112.6 224.4,106.2 208.6,114.1 			"/>
		</g>
	</g>
	<g>
		<g class="st1">
			<path class="st3" d="M63.6,11.7V2.1h5.7V3h-4.8v3.3h3.6L68.2,7h-3.7v3.8h5.1v0.8L63.6,11.7L63.6,11.7z"/>
			<path class="st3" d="M71,9.8v-5h0.9v4.8c0,1,0.4,1.4,1.4,1.4c0.9,0,1.6-0.5,2.4-1.2v-5h0.9v6.8h-0.8l-0.1-1.1
				c-0.7,0.7-1.6,1.2-2.6,1.2C71.7,11.8,71,11.1,71,9.8z"/>
			<path class="st3" d="M78.6,11.7V4.8h0.8l0.1,1.3l0,0c0.5-0.8,1.4-1.5,2.7-1.5h0.1l0.1,0.8h-0.3c-1.1,0-2,0.6-2.6,1.7v4.5
				L78.6,11.7L78.6,11.7z"/>
			<path class="st3" d="M83,8.3c0-2.3,1.4-3.6,3.1-3.6s3.1,1.3,3.1,3.6s-1.4,3.6-3.1,3.6C84.4,11.8,83,10.5,83,8.3z M88.3,8.3
				c0-1.5-0.8-2.8-2.2-2.8c-1.4,0-2.2,1.2-2.2,2.8c0,1.5,0.7,2.8,2.2,2.8C87.5,11.1,88.3,9.9,88.3,8.3z"/>
			<path class="st3" d="M90.3,10.6l0.5-0.5c0.5,0.6,1.2,1,2.2,1c1.2,0,1.8-0.5,1.8-1.2c0-0.8-0.5-1.1-1.9-1.4
				c-1.7-0.4-2.4-0.8-2.4-2c0-1,0.8-1.8,2.3-1.8c1.1,0,1.9,0.4,2.5,1l-0.5,0.6c-0.6-0.5-1.2-0.8-2-0.8c-1,0-1.5,0.5-1.5,1
				c0,0.6,0.4,0.9,1.6,1.2c1.8,0.4,2.6,0.9,2.6,2.1c0,1.3-1.1,2-2.7,2C91.7,11.8,90.8,11.3,90.3,10.6z"/>
			<path class="st3" d="M97.2,8V7.2h2.9V8H97.2z"/>
			<path class="st3" d="M101.2,12.6c0-0.7,0.5-1.2,1.3-1.6c-0.4-0.2-0.6-0.5-0.6-0.9s0.3-0.8,0.8-1c-0.6-0.4-1-1.1-1-2
				c0-1.5,1.2-2.5,2.7-2.5c0.8,0,1.5,0.3,2,0.7c0.4-0.3,1-0.6,1.5-0.6l0.1,0.8c-0.4,0-0.9,0.1-1.3,0.2c0.3,0.4,0.4,0.8,0.4,1.3
				c0,1.5-1.2,2.4-2.7,2.4c-0.4,0-0.8-0.1-1.1-0.2c-0.3,0.1-0.5,0.3-0.5,0.6s0.2,0.4,1,0.5l1.5,0.1c1.6,0.1,2.4,0.7,2.4,1.7
				c0,1.2-1.3,1.9-3.2,1.9C102.3,14.3,101.2,13.6,101.2,12.6z M106.8,12.4c0-0.6-0.5-1-1.9-1.1l-1.4-0.1c-0.1,0-0.2,0-0.4,0
				c-0.8,0.2-1.1,0.7-1.1,1.2c0,0.7,0.8,1.1,2.5,1.1C106,13.6,106.8,13.1,106.8,12.4z M106.2,7.2c0-1.1-0.7-1.8-1.8-1.8
				c-1.1,0-1.8,0.7-1.8,1.8s0.7,1.7,1.8,1.7S106.2,8.2,106.2,7.2z"/>
			<path class="st3" d="M109.4,11.7V4.8h0.8l0.1,1.3l0,0c0.5-0.8,1.4-1.5,2.7-1.5h0.1l0.1,0.8h-0.3c-1.1,0-2,0.6-2.6,1.7v4.5
				L109.4,11.7L109.4,11.7z"/>
			<path class="st3" d="M113.7,8.3c0-2.3,1.4-3.6,3.1-3.6s3.1,1.3,3.1,3.6s-1.4,3.6-3.1,3.6C115.2,11.8,113.7,10.5,113.7,8.3z
				 M119,8.3c0-1.5-0.8-2.8-2.2-2.8c-1.4,0-2.2,1.2-2.2,2.8c0,1.5,0.7,2.8,2.2,2.8C118.2,11.1,119,9.9,119,8.3z"/>
			<path class="st3" d="M121,10.6l0.5-0.5c0.5,0.6,1.2,1,2.2,1c1.2,0,1.8-0.5,1.8-1.2c0-0.8-0.5-1.1-1.9-1.4c-1.7-0.4-2.4-0.8-2.4-2
				c0-1,0.8-1.8,2.3-1.8c1.1,0,1.9,0.4,2.5,1l-0.5,0.6c-0.6-0.5-1.2-0.8-2-0.8c-1,0-1.5,0.5-1.5,1c0,0.6,0.4,0.9,1.6,1.2
				c1.8,0.4,2.6,0.9,2.6,2.1c0,1.3-1.1,2-2.7,2C122.5,11.8,121.6,11.3,121,10.6z"/>
			<path class="st3" d="M127.5,10.6L128,10c0.5,0.6,1.2,1,2.2,1c1.2,0,1.8-0.5,1.8-1.2c0-0.8-0.5-1.1-1.9-1.4
				c-1.7-0.4-2.4-0.8-2.4-2c0-1,0.8-1.8,2.3-1.8c1.1,0,1.9,0.4,2.5,1L132,6.2c-0.6-0.5-1.2-0.8-2-0.8c-1,0-1.5,0.5-1.5,1
				c0,0.6,0.4,0.9,1.6,1.2c1.8,0.4,2.6,0.9,2.6,2.1c0,1.3-1.1,2-2.7,2C128.9,11.8,128,11.3,127.5,10.6z"/>
			<path class="st3" d="M134.3,8V7.2h2.9V8H134.3z"/>
			<path class="st3" d="M138.4,11.7l5.6-9.6h0.9l-5.6,9.6H138.4z"/>
			<path class="st3" d="M144.5,10.6L145,10c0.5,0.6,1.2,1,2.2,1c1.2,0,1.8-0.5,1.8-1.2c0-0.8-0.5-1.1-1.9-1.4
				c-1.7-0.4-2.4-0.8-2.4-2c0-1,0.8-1.8,2.3-1.8c1.1,0,1.9,0.4,2.5,1L149,6.2c-0.6-0.5-1.2-0.8-2-0.8c-1,0-1.5,0.5-1.5,1
				c0,0.6,0.4,0.9,1.6,1.2c1.8,0.4,2.6,0.9,2.6,2.1c0,1.3-1.1,2-2.7,2C146,11.8,145.1,11.3,144.5,10.6z"/>
			<path class="st3" d="M151.6,11.7V2.1l0.9-0.1v3.9c0.7-0.7,1.5-1.2,2.6-1.2c1.4,0,2.1,0.7,2.1,2v5h-0.9V6.9c0-1-0.4-1.4-1.4-1.4
				c-0.9,0-1.6,0.5-2.4,1.2v5H151.6z"/>
			<path class="st3" d="M158.7,10.1c0-1.4,1.2-2.3,4.6-2.9V6.9c0-0.9-0.5-1.4-1.4-1.4c-1.1,0-1.8,0.4-2.5,1.1L158.9,6
				c0.8-0.8,1.7-1.3,3.1-1.3c1.5,0,2.2,0.8,2.2,2.2v4.8h-0.8l-0.1-1c-0.8,0.7-1.7,1.1-2.7,1.1C159.4,11.8,158.7,11.1,158.7,10.1z
				 M163.4,10V7.8c-3,0.5-3.8,1.2-3.8,2.1c0,0.7,0.5,1.1,1.2,1.1C161.8,11.1,162.7,10.6,163.4,10z"/>
			<path class="st3" d="M166.2,11.7V4.8h0.8l0.1,1.3l0,0c0.5-0.8,1.4-1.5,2.7-1.5h0.1l0.1,0.8h-0.3c-1.1,0-2,0.6-2.6,1.7v4.5
				L166.2,11.7L166.2,11.7z"/>
			<path class="st3" d="M170.6,8.2c0-2.4,1.6-3.5,3-3.5c1.6,0,2.8,1.2,2.8,3.6v0.2h-4.9c0,1.7,1,2.6,2.2,2.6c0.9,0,1.6-0.4,2.2-1
				l0.4,0.6c-0.8,0.8-1.5,1.2-2.7,1.2C172,11.8,170.6,10.6,170.6,8.2z M175.5,7.7c-0.1-1.3-0.7-2.3-1.9-2.3c-1,0-1.9,0.7-2.1,2.3
				H175.5z"/>
		</g>
	</g>
</g>
</svg>
