<?xml version="1.0" encoding="utf-8"?>
<!-- Generator: Adobe Illustrator 19.2.1, SVG Export Plug-In . SVG Version: 6.00 Build 0)  -->
<svg version="1.1" id="Capa_1" xmlns="http://www.w3.org/2000/svg" xmlns:xlink="http://www.w3.org/1999/xlink" x="0px" y="0px"
	 viewBox="0 0 747 467" style="enable-background:new 0 0 747 467;" xml:space="preserve">
<style type="text/css">
	.st0{enable-background:new    ;}
	.st1{fill:#FFFFFF;}
	.st2{fill:#2ECDCD;}
	.st3{fill:#0086CD;}
	.st4{clip-path:url(#SVGID_2_);}
	.st5{clip-path:url(#SVGID_4_);}
	.st6{clip-path:url(#SVGID_6_);}
	.st7{clip-path:url(#SVGID_8_);}
	.st8{clip-path:url(#SVGID_10_);}
	.st9{clip-path:url(#SVGID_12_);}
	.st10{clip-path:url(#SVGID_14_);}
	.st11{clip-path:url(#SVGID_16_);}
	.st12{clip-path:url(#SVGID_18_);}
	.st13{clip-path:url(#SVGID_20_);}
	.st14{clip-path:url(#SVGID_22_);}
	.st15{clip-path:url(#SVGID_24_);}
	.st16{clip-path:url(#SVGID_26_);}
	.st17{clip-path:url(#SVGID_28_);}
	.st18{clip-path:url(#SVGID_30_);}
	.st19{clip-path:url(#SVGID_32_);}
	.st20{clip-path:url(#SVGID_34_);}
	.st21{clip-path:url(#SVGID_36_);}
	.st22{clip-path:url(#SVGID_38_);}
	.st23{clip-path:url(#SVGID_40_);}
	.st24{clip-path:url(#SVGID_42_);}
	.st25{clip-path:url(#SVGID_44_);}
	.st26{clip-path:url(#SVGID_46_);}
	.st27{clip-path:url(#SVGID_48_);}
	.st28{clip-path:url(#SVGID_50_);}
	.st29{clip-path:url(#SVGID_52_);}
	.st30{clip-path:url(#SVGID_54_);}
	.st31{clip-path:url(#SVGID_56_);}
	.st32{clip-path:url(#SVGID_58_);}
	.st33{clip-path:url(#SVGID_60_);}
	.st34{fill:#2A86CA;}
</style>
<title>Page 1</title>
<desc>Created with Sketch.</desc>
<g class="st0">
	<g>
		<g>
			<path class="st1" d="M611.7,11.3v-0.2c0-1.6,0.8-3.1,3.7-4.9c1.7-1.1,2.3-1.8,2.3-3c0-1.3-0.8-2.2-2.3-2.2
				c-1.2,0-2.1,0.6-2.8,1.9l-0.8-0.5c0.8-1.5,2-2.4,3.6-2.4c2,0,3.3,1.3,3.3,3c0,1.5-0.7,2.5-2.9,3.8c-2,1.3-3,2.5-3.1,3.5h5.9
				l0.1,1H611.7z"/>
		</g>
	</g>
	<g>
		<g>
			<path class="st1" d="M620.5,5.8c0-3.5,1.5-5.8,4.1-5.8s4,2.3,4,5.8s-1.4,5.8-4,5.8C622,11.5,620.5,9.2,620.5,5.8z M627.6,5.8
				c0-3.1-1.2-4.8-3-4.8c-1.9,0-3,1.7-3,4.8s1.2,4.8,3,4.8C626.4,10.6,627.6,8.9,627.6,5.8z"/>
		</g>
	</g>
	<g>
		<g>
			<path class="st1" d="M632.7,11.3V1.2l-2.1,0.7L630.5,1l2.3-0.8h1v11.1H632.7z"/>
		</g>
	</g>
	<g>
		<g>
			<path class="st1" d="M636.6,6c0-3.4,1.8-6,4.4-6c1.2,0,2,0.4,2.6,0.8l-0.5,0.9c-0.6-0.5-1.1-0.8-2.1-0.8c-2.1,0-3.3,2.1-3.3,4.9
				c0.7-0.8,1.8-1.5,3.2-1.5c2.3,0,3.5,1.5,3.5,3.5c0,2.1-1.4,3.7-3.7,3.7S636.6,9.8,636.6,6z M643.2,7.9c0-1.5-0.8-2.6-2.5-2.6
				c-1.2,0-2.3,0.7-3,1.6c0.2,2.5,1.4,3.7,2.9,3.7C642.2,10.6,643.2,9.6,643.2,7.9z"/>
		</g>
	</g>
</g>
<g class="st0">
	<g>
		<g>
			<path class="st1" d="M714.1,11.6v-0.2c0-1.6,0.8-3.1,3.7-4.9c1.7-1.1,2.3-1.8,2.3-3c0-1.3-0.8-2.2-2.3-2.2
				c-1.2,0-2.1,0.6-2.8,1.9l-0.8-0.5c0.8-1.5,2-2.4,3.6-2.4c2,0,3.3,1.3,3.3,3c0,1.5-0.7,2.5-2.9,3.8c-2,1.3-3,2.5-3.1,3.5h5.9
				l0.1,1H714.1z"/>
		</g>
	</g>
	<g>
		<g>
			<path class="st1" d="M722.9,6.1c0-3.5,1.5-5.8,4.1-5.8s4,2.3,4,5.8s-1.4,5.8-4,5.8C724.4,11.8,722.9,9.5,722.9,6.1z M730,6.1
				c0-3.1-1.2-4.8-3-4.8c-1.9,0-3,1.7-3,4.8s1.2,4.8,3,4.8S730,9.2,730,6.1z"/>
		</g>
	</g>
	<g>
		<g>
			<path class="st1" d="M735.1,11.6V1.5L733,2.2l-0.1-0.9l2.3-0.8h1v11.1H735.1z"/>
		</g>
	</g>
	<g>
		<g>
			<path class="st1" d="M739,9.9l0.7-0.7c0.7,1,1.6,1.7,2.9,1.7c1.9,0,2.8-1.4,2.8-2.9c0-1.8-1.1-2.8-2.5-2.8
				c-1.1,0-1.9,0.5-2.5,1.4l-0.8-0.3l0.4-5.8h5.8v1h-5l-0.3,3.9c0.5-0.6,1.3-1,2.5-1c2,0,3.4,1.4,3.4,3.6s-1.5,3.9-3.8,3.9
				C741,11.8,739.7,11,739,9.9z"/>
		</g>
	</g>
</g>
<g>
	<g>
		<g>
			<polygon class="st2" points="570.6,1.4 565.9,10.6 548.3,10.6 553,1.4 			"/>
		</g>
	</g>
</g>
<g>
	<g>
		<g>
			<polygon class="st3" points="675.1,1.4 670.4,10.6 652.8,10.6 657.5,1.4 			"/>
		</g>
	</g>
</g>
<g class="st0">
	<g>
		<path class="st1" d="M5.3,37v-9.4H1.9v-1.7h8.6l0.3,1.7H7.2V37H5.3z"/>
	</g>
	<g>
		<path class="st1" d="M11.2,31.4c0-3.7,2.3-5.8,5-5.8s5,2,5,5.8c0,3.7-2.3,5.8-5,5.8C13.5,37.2,11.2,35.2,11.2,31.4z M19.4,31.4
			c0-2.5-1.3-4-3.1-4c-1.9,0-3.1,1.5-3.1,4s1.3,4.1,3.1,4.1S19.4,34,19.4,31.4z"/>
	</g>
	<g>
		<path class="st1" d="M25.3,37v-9.4h-3.4v-1.7h8.6l0.3,1.7h-3.6V37H25.3z"/>
	</g>
	<g>
		<path class="st1" d="M30,37l3.9-11.1h1.8l3.9,11l-1.8,0.3l-0.9-2.8h-4.2l-1,2.6H30z M33.2,32.7h3.1l-1.5-4.5l0,0L33.2,32.7z"/>
	</g>
	<g>
		<path class="st1" d="M41.3,37V25.9h1.9v9.4h5l0.3,1.7H41.3z"/>
	</g>
	<g>
		<path class="st1" d="M51.8,37l3.9-11.1h1.8l3.9,11l-1.8,0.3l-0.9-2.8h-4.2l-1,2.6H51.8z M55,32.7h3.1l-1.5-4.5l0,0L55,32.7z"/>
	</g>
	<g>
		<path class="st1" d="M62,35.3l1-1.4c0.9,0.9,2.2,1.6,3.6,1.6s2.3-0.5,2.3-1.4c0-1-0.7-1.4-2.5-2c-2.1-0.6-3.9-1.2-3.9-3.3
			c0-1.9,1.6-3.1,3.8-3.1c1.7,0,3.1,0.7,4.1,1.6l-0.9,1.5c-0.9-0.8-2.1-1.4-3.2-1.4c-1.3,0-2,0.6-2,1.3c0,1,0.8,1.4,2.6,1.9
			c2.1,0.6,3.8,1.3,3.8,3.4c0,1.8-1.5,3.2-4.1,3.2C64.7,37.2,63.1,36.4,62,35.3z"/>
	</g>
	<g>
		<path class="st1" d="M72,35.3l1-1.4c0.9,0.9,2.2,1.6,3.6,1.6s2.3-0.5,2.3-1.4c0-1-0.7-1.4-2.5-2c-2.1-0.6-3.9-1.2-3.9-3.3
			c0-1.9,1.6-3.1,3.8-3.1c1.7,0,3.1,0.7,4.1,1.6l-0.9,1.5c-0.9-0.8-2.1-1.4-3.2-1.4c-1.3,0-2,0.6-2,1.3c0,1,0.8,1.4,2.6,1.9
			c2.1,0.6,3.8,1.3,3.8,3.4c0,1.8-1.5,3.2-4.1,3.2C74.7,37.2,73.1,36.4,72,35.3z"/>
	</g>
	<g>
		<path class="st1" d="M82.8,37V25.9H90v1.7h-5.3v2.8h4l0.3,1.7h-4.3v3.2h5.6V37H82.8z"/>
	</g>
	<g>
		<path class="st1" d="M94.7,37v-9.4h-3.4v-1.7h8.6l0.3,1.7h-3.6V37H94.7z"/>
	</g>
	<g>
		<path class="st1" d="M100.4,35.3l1-1.4c0.9,0.9,2.2,1.6,3.6,1.6s2.3-0.5,2.3-1.4c0-1-0.7-1.4-2.5-2c-2.1-0.6-3.9-1.2-3.9-3.3
			c0-1.9,1.6-3.1,3.8-3.1c1.7,0,3.1,0.7,4.1,1.6l-0.9,1.5c-0.9-0.8-2.1-1.4-3.2-1.4c-1.3,0-2,0.6-2,1.3c0,1,0.8,1.4,2.6,1.9
			c2.1,0.6,3.8,1.3,3.8,3.4c0,1.8-1.5,3.2-4.1,3.2C103.1,37.2,101.5,36.4,100.4,35.3z"/>
	</g>
</g>
<g class="st0">
	<g>
		<path class="st1" d="M127.8,40.1c-2.4-2.1-3.7-4.3-3.7-7.2c0-2.8,1.3-5.1,3.7-7.2l0.5,0.5c-1.9,1.7-3.1,4-3.1,6.6
			c0,2.7,1.2,4.9,3.1,6.7L127.8,40.1z"/>
	</g>
	<g>
		<path class="st1" d="M131.2,30.7h-1.8v-0.8h1.9c0.4-2.9,2.2-4.2,4-4.2c2,0,3,1.3,3.5,3l-1,0.4c-0.5-1.5-1-2.4-2.6-2.4
			c-1.4,0-2.7,1-3,3.3h3.4v0.8h-3.5c0,0.2,0,0.4,0,0.6c0,0.3,0,0.6,0,0.8h3.5V33h-3.4c0.3,2.1,1.4,3.3,3,3.3c1.5,0,2.3-0.9,2.7-2.5
			l0.9,0.4c-0.5,1.8-1.7,3.1-3.7,3.1s-3.6-1.3-4-4.2h-1.9v-0.9h1.8c0-0.2,0-0.5,0-0.8C131.2,31.2,131.2,30.9,131.2,30.7z"/>
	</g>
	<g>
		<path class="st1" d="M141.2,37V25.9h3.9c2.5,0,3.8,1,3.8,2.8c0,1.5-1,2.3-2.1,2.6l0,0c1.3,0.2,2.5,1.1,2.5,2.7c0,1.8-1.2,3-3.8,3
			H141.2z M142.3,30.8h2.7c1.8,0,2.8-0.6,2.8-2c0-1.3-0.9-2-2.8-2h-2.7V30.8z M142.3,36h3.1c1.9,0,2.8-0.8,2.8-2.1
			c0-1.5-1.2-2.2-3.1-2.2h-2.8V36z"/>
	</g>
	<g>
		<path class="st1" d="M151.5,37V25.9h1.1l6.1,9.1l0,0v-9.1h1V37h-0.9l-6.3-9.4l0,0V37H151.5z"/>
	</g>
	<g>
		<path class="st1" d="M162,39.5c1.9-1.7,3.1-4,3.1-6.7c0-2.6-1.2-4.9-3.1-6.6l0.5-0.5c2.4,2.1,3.8,4.3,3.8,7.2
			c0,2.8-1.3,5.1-3.8,7.2L162,39.5z"/>
	</g>
</g>
<g class="st0">
	<g>
		<path class="st1" d="M0.9,129.3v-11.1h1.9v9.4h5l0.3,1.7H0.9z"/>
	</g>
	<g>
		<path class="st1" d="M8.5,123.8c0-3.7,2.3-5.8,5-5.8s5,2,5,5.8c0,3.7-2.3,5.8-5,5.8C10.9,129.5,8.5,127.5,8.5,123.8z M16.7,123.8
			c0-2.5-1.3-4-3.1-4c-1.9,0-3.1,1.5-3.1,4s1.3,4.1,3.1,4.1C15.4,127.8,16.7,126.3,16.7,123.8z"/>
	</g>
	<g>
		<path class="st1" d="M19,129.3l3.9-11.1h1.8l3.9,11l-1.8,0.3l-0.9-2.8h-4.2l-0.9,2.6L19,129.3L19,129.3z M22.3,125h3.1l-1.5-4.5
			l0,0L22.3,125z"/>
	</g>
	<g>
		<path class="st1" d="M30.4,129.3v-11.1h1.9l5.2,7.9l0,0v-7.9h1.7v11.1h-1.7l-5.5-8.1l0,0v8.1H30.4z"/>
	</g>
	<g>
		<path class="st1" d="M41.1,127.6l1-1.4c0.9,0.9,2.2,1.6,3.6,1.6c1.4,0,2.3-0.5,2.3-1.4c0-1-0.7-1.4-2.5-2
			c-2.1-0.6-3.9-1.2-3.9-3.3c0-1.9,1.6-3.1,3.8-3.1c1.7,0,3.1,0.7,4.1,1.6l-0.9,1.5c-0.9-0.8-2.1-1.4-3.2-1.4c-1.3,0-2,0.6-2,1.3
			c0,1,0.8,1.4,2.6,1.9c2.1,0.6,3.8,1.3,3.8,3.4c0,1.8-1.5,3.2-4.1,3.2C43.8,129.5,42.2,128.7,41.1,127.6z"/>
	</g>
	<g>
		<path class="st1" d="M54.4,129.3l3.9-11.1h1.8l3.9,11l-1.8,0.3l-0.9-2.8H57l-0.9,2.6L54.4,129.3L54.4,129.3z M57.6,125h3.1
			l-1.5-4.5l0,0L57.6,125z"/>
	</g>
	<g>
		<path class="st1" d="M65.7,129.3v-11.1h1.9l5.2,7.9l0,0v-7.9h1.7v11.1h-1.7l-5.5-8.1l0,0v8.1H65.7z"/>
	</g>
	<g>
		<path class="st1" d="M77.1,129.3v-11.1h3.1c3.5,0,5.8,1.6,5.8,5.5c0,4-2.3,5.6-5.8,5.6H77.1z M79,127.6h1.5c2.6,0,3.7-1.2,3.7-3.9
			c0-2.6-1.2-3.8-3.8-3.8H79V127.6z"/>
	</g>
	<g>
		<path class="st1" d="M90.5,129.3l3.9-11.1h1.8l3.9,11l-1.8,0.3l-0.9-2.8h-4.2l-0.9,2.6L90.5,129.3L90.5,129.3z M93.7,125h3.1
			l-1.5-4.5l0,0L93.7,125z"/>
	</g>
	<g>
		<path class="st1" d="M101.8,129.3v-11.1h3.1c3.5,0,5.8,1.6,5.8,5.5c0,4-2.3,5.6-5.8,5.6H101.8z M103.6,127.6h1.5
			c2.6,0,3.7-1.2,3.7-3.9c0-2.6-1.2-3.8-3.8-3.8h-1.4C103.6,119.9,103.6,127.6,103.6,127.6z"/>
	</g>
	<g>
		<path class="st1" d="M115.1,129.4l-3.8-11l1.8-0.3l2.9,8.8l0,0l2.9-8.7h1.8l-3.9,11.1L115.1,129.4L115.1,129.4z"/>
	</g>
	<g>
		<path class="st1" d="M120.6,129.3l3.9-11.1h1.8l3.9,11l-1.8,0.3l-0.9-2.8h-4.2l-0.9,2.6L120.6,129.3L120.6,129.3z M123.8,125h3.1
			l-1.5-4.5l0,0L123.8,125z"/>
	</g>
	<g>
		<path class="st1" d="M131.9,129.3v-11.1h1.9l5.2,7.9l0,0v-7.9h1.7v11.1H139l-5.5-8.1l0,0v8.1H131.9z"/>
	</g>
	<g>
		<path class="st1" d="M142.8,123.7c0-3.6,2.1-5.7,4.8-5.7c2.1,0,3.4,0.9,4.2,2.6l-1.6,0.9c-0.4-1-1.2-1.8-2.6-1.8
			c-1.9,0-2.9,1.6-2.9,4c0,2.6,1.1,4.1,3,4.1c1.4,0,2.3-0.8,2.7-2.1l1.6,0.7c-0.7,1.8-2,3-4.3,3
			C144.9,129.5,142.8,127.5,142.8,123.7z"/>
	</g>
	<g>
		<path class="st1" d="M154,129.3v-11.1h7.2v1.7h-5.3v2.8h4l0.3,1.7h-4.3v3.2h5.6v1.7H154z"/>
	</g>
	<g>
		<path class="st1" d="M162.4,127.6l1-1.4c0.9,0.9,2.2,1.6,3.6,1.6c1.4,0,2.3-0.5,2.3-1.4c0-1-0.7-1.4-2.5-2
			c-2.1-0.6-3.9-1.2-3.9-3.3c0-1.9,1.6-3.1,3.8-3.1c1.7,0,3.1,0.7,4.1,1.6l-0.9,1.5c-0.9-0.8-2.1-1.4-3.2-1.4c-1.3,0-2,0.6-2,1.3
			c0,1,0.8,1.4,2.6,1.9c2.1,0.6,3.8,1.3,3.8,3.4c0,1.8-1.5,3.2-4.1,3.2C165.1,129.5,163.5,128.7,162.4,127.6z"/>
	</g>
	<g>
		<path class="st1" d="M179.1,129.3V120h-3.4v-1.7h8.6l0.3,1.7H181v9.4L179.1,129.3L179.1,129.3z"/>
	</g>
	<g>
		<path class="st1" d="M185,123.8c0-3.7,2.3-5.8,5-5.8s5,2,5,5.8c0,3.7-2.3,5.8-5,5.8C187.3,129.5,185,127.5,185,123.8z
			 M193.1,123.8c0-2.5-1.3-4-3.1-4c-1.9,0-3.1,1.5-3.1,4s1.3,4.1,3.1,4.1C191.9,127.8,193.1,126.3,193.1,123.8z"/>
	</g>
	<g>
		<path class="st1" d="M200.2,123.7c0-3.6,2.1-5.7,4.8-5.7c2.1,0,3.4,0.9,4.2,2.6l-1.6,0.9c-0.4-1-1.2-1.8-2.6-1.8
			c-1.9,0-2.9,1.6-2.9,4c0,2.6,1.1,4.1,3,4.1c1.4,0,2.3-0.8,2.7-2.1l1.6,0.7c-0.7,1.8-2,3-4.3,3
			C202.3,129.5,200.2,127.5,200.2,123.7z"/>
	</g>
	<g>
		<path class="st1" d="M211.1,125.3v-7.1h1.9v7c0,1.6,0.7,2.6,2.4,2.6s2.4-1,2.4-2.6v-7h1.8v7c0,2.5-1.4,4.3-4.3,4.3
			C212.5,129.5,211.1,127.8,211.1,125.3z"/>
	</g>
	<g>
		<path class="st1" d="M221.1,127.6l1-1.4c0.9,0.9,2.2,1.6,3.6,1.6c1.4,0,2.3-0.5,2.3-1.4c0-1-0.7-1.4-2.5-2
			c-2.1-0.6-3.9-1.2-3.9-3.3c0-1.9,1.6-3.1,3.8-3.1c1.7,0,3.1,0.7,4.1,1.6l-0.9,1.5c-0.9-0.8-2.1-1.4-3.2-1.4c-1.3,0-2,0.6-2,1.3
			c0,1,0.8,1.4,2.6,1.9c2.1,0.6,3.8,1.3,3.8,3.4c0,1.8-1.5,3.2-4.1,3.2C223.8,129.5,222.2,128.7,221.1,127.6z"/>
	</g>
	<g>
		<path class="st1" d="M234,129.3V120h-3.4v-1.7h8.6l0.3,1.7h-3.6v9.4L234,129.3L234,129.3z"/>
	</g>
	<g>
		<path class="st1" d="M239.9,123.8c0-3.7,2.3-5.8,5-5.8s5,2,5,5.8c0,3.7-2.3,5.8-5,5.8C242.2,129.5,239.9,127.5,239.9,123.8z
			 M248,123.8c0-2.5-1.3-4-3.1-4c-1.9,0-3.1,1.5-3.1,4s1.3,4.1,3.1,4.1C246.8,127.8,248,126.3,248,123.8z"/>
	</g>
	<g>
		<path class="st1" d="M251.9,129.3v-11.1h2.5l3,8.8l0,0l2.9-8.8h2.5v11.1H261V121l0,0c-0.2,0.8-0.4,1.5-0.6,2.3l-2.2,6h-1.7l-2.2-6
			c-0.3-0.8-0.4-1.3-0.7-2.3l0,0v8.4L251.9,129.3L251.9,129.3z"/>
	</g>
	<g>
		<path class="st1" d="M265.3,129.3v-11.1h7.2v1.7h-5.3v2.8h4l0.3,1.7h-4.3v3.2h5.6v1.7H265.3z"/>
	</g>
	<g>
		<path class="st1" d="M274.6,129.3v-11.1h4c2.6,0,4.2,1,4.2,3.4c0,1.8-0.9,2.7-2.4,3.1l2.6,4.5l-1.8,0.3l-2.7-4.5h-2v4.4h-1.9
			L274.6,129.3L274.6,129.3z M276.4,123.3h2c1.6,0,2.4-0.5,2.4-1.7s-0.8-1.7-2.4-1.7h-2V123.3z"/>
	</g>
	<g>
		<path class="st1" d="M284.1,127.6l1-1.4c0.9,0.9,2.2,1.6,3.6,1.6s2.3-0.5,2.3-1.4c0-1-0.7-1.4-2.5-2c-2.1-0.6-3.9-1.2-3.9-3.3
			c0-1.9,1.6-3.1,3.8-3.1c1.7,0,3.1,0.7,4.1,1.6l-0.9,1.5c-0.9-0.8-2.1-1.4-3.2-1.4c-1.3,0-2,0.6-2,1.3c0,1,0.8,1.4,2.6,1.9
			c2.1,0.6,3.8,1.3,3.8,3.4c0,1.8-1.5,3.2-4.1,3.2C286.8,129.5,285.2,128.7,284.1,127.6z"/>
	</g>
</g>
<g class="st0">
	<g>
		<path class="st1" d="M324.4,132.4c-2.4-2.1-3.7-4.3-3.7-7.2c0-2.8,1.3-5.1,3.7-7.2l0.5,0.5c-1.9,1.7-3.1,4-3.1,6.6
			c0,2.7,1.2,4.9,3.1,6.7L324.4,132.4z"/>
	</g>
	<g>
		<path class="st1" d="M326,130.4c0-0.8,0.5-1.4,1.5-1.8c-0.5-0.2-0.7-0.5-0.7-1s0.4-0.9,1-1.2c-0.8-0.5-1.2-1.3-1.2-2.3
			c0-1.7,1.3-2.8,3.1-2.8c0.9,0,1.7,0.3,2.2,0.8c0.4-0.3,1.1-0.6,1.7-0.7l0.1,1c-0.5,0-1,0.1-1.5,0.3c0.3,0.4,0.5,0.9,0.5,1.5
			c0,1.7-1.4,2.8-3.1,2.8c-0.5,0-0.9-0.1-1.3-0.2c-0.4,0.2-0.6,0.4-0.6,0.7c0,0.3,0.3,0.5,1.2,0.6l1.7,0.1c1.8,0.1,2.8,0.8,2.8,2
			c0,1.4-1.5,2.2-3.7,2.2C327.2,132.3,326,131.6,326,130.4z M332.5,130.2c0-0.8-0.6-1.1-2.2-1.2l-1.6-0.1c-0.1,0-0.3,0-0.4,0
			c-0.9,0.3-1.3,0.8-1.3,1.4c0,0.8,0.9,1.3,2.9,1.3C331.5,131.5,332.5,131,332.5,130.2z M331.8,124.1c0-1.3-0.8-2-2.1-2
			c-1.3,0-2.1,0.8-2.1,2s0.8,2,2.1,2S331.8,125.3,331.8,124.1z"/>
	</g>
	<g>
		<path class="st1" d="M335.4,129.3v-7.9h0.9l0.1,1.5l0,0c0.6-1,1.6-1.7,3.1-1.7h0.1l0.1,1c0,0-0.3,0-0.4,0c-1.3,0-2.4,0.7-3,2v5.1
			H335.4z"/>
	</g>
	<g>
		<path class="st1" d="M340.5,125.4c0-2.6,1.6-4.1,3.6-4.1c1.9,0,3.6,1.5,3.6,4.1s-1.6,4.1-3.6,4.1S340.5,128,340.5,125.4z
			 M346.6,125.4c0-1.7-0.9-3.2-2.5-3.2s-2.5,1.4-2.5,3.2c0,1.8,0.9,3.2,2.5,3.2C345.6,128.6,346.6,127.2,346.6,125.4z"/>
	</g>
	<g>
		<path class="st1" d="M348.9,128.1l0.6-0.6c0.6,0.7,1.4,1.2,2.5,1.2c1.4,0,2.1-0.5,2.1-1.4s-0.5-1.2-2.2-1.6
			c-1.9-0.5-2.7-1-2.7-2.3c0-1.1,1-2.1,2.7-2.1c1.3,0,2.2,0.4,2.9,1.1l-0.5,0.7c-0.6-0.6-1.4-1-2.4-1c-1.2,0-1.7,0.6-1.7,1.2
			c0,0.7,0.4,1.1,1.9,1.4c2.1,0.5,3,1,3,2.5c0,1.5-1.3,2.3-3.1,2.3C350.5,129.5,349.5,128.8,348.9,128.1z"/>
	</g>
	<g>
		<path class="st1" d="M356.3,128.1l0.6-0.6c0.6,0.7,1.4,1.2,2.5,1.2c1.4,0,2.1-0.5,2.1-1.4s-0.5-1.2-2.2-1.6
			c-1.9-0.5-2.7-1-2.7-2.3c0-1.1,1-2.1,2.7-2.1c1.3,0,2.2,0.4,2.9,1.1l-0.5,0.7c-0.6-0.6-1.4-1-2.4-1c-1.2,0-1.7,0.6-1.7,1.2
			c0,0.7,0.4,1.1,1.9,1.4c2.1,0.5,3,1,3,2.5c0,1.5-1.3,2.3-3.1,2.3C358,129.5,356.9,128.8,356.3,128.1z"/>
	</g>
	<g>
		<path class="st1" d="M363.7,131.9c1.9-1.7,3.1-4,3.1-6.7c0-2.6-1.2-4.9-3.1-6.6l0.5-0.5c2.4,2.1,3.8,4.3,3.8,7.2
			c0,2.8-1.3,5.1-3.8,7.2L363.7,131.9z"/>
	</g>
	<g>
		<path class="st1" d="M373.6,132.4c-2.4-2.1-3.7-4.3-3.7-7.2c0-2.8,1.3-5.1,3.7-7.2l0.5,0.5c-1.9,1.7-3.1,4-3.1,6.6
			c0,2.7,1.2,4.9,3.1,6.7L373.6,132.4z"/>
	</g>
	<g>
		<path class="st1" d="M377,123.1h-1.8v-0.8h1.9c0.4-2.9,2.2-4.2,4-4.2c2,0,3,1.3,3.5,3l-1,0.4c-0.5-1.5-1-2.4-2.6-2.4
			c-1.4,0-2.7,1-3,3.3h3.4v0.8H378c0,0.2,0,0.4,0,0.6c0,0.3,0,0.6,0,0.8h3.5v0.9h-3.4c0.3,2.1,1.4,3.3,3,3.3c1.5,0,2.3-0.9,2.7-2.5
			l0.9,0.4c-0.5,1.8-1.7,3.1-3.7,3.1s-3.6-1.3-4-4.2h-1.9v-0.9h1.8c0-0.2,0-0.5,0-0.8C376.9,123.5,377,123.2,377,123.1z"/>
	</g>
	<g>
		<path class="st1" d="M387,129.3v-11.1h3.9c2.5,0,3.8,1,3.8,2.8c0,1.5-1,2.3-2.1,2.6l0,0c1.3,0.2,2.5,1.1,2.5,2.7
			c0,1.8-1.2,3-3.8,3H387z M388.1,123.2h2.7c1.8,0,2.8-0.6,2.8-2c0-1.3-0.9-2-2.8-2h-2.7V123.2z M388.1,128.4h3.1
			c1.9,0,2.8-0.8,2.8-2.1c0-1.5-1.2-2.2-3.1-2.2h-2.8V128.4z"/>
	</g>
	<g>
		<path class="st1" d="M397.3,129.3v-11.1h1.1l6.1,9.1l0,0v-9.1h1v11.1h-0.9l-6.3-9.4l0,0v9.4H397.3z"/>
	</g>
	<g>
		<path class="st1" d="M407.8,131.9c1.9-1.7,3.1-4,3.1-6.7c0-2.6-1.2-4.9-3.1-6.6l0.5-0.5c2.4,2.1,3.8,4.3,3.8,7.2
			c0,2.8-1.3,5.1-3.8,7.2L407.8,131.9z"/>
	</g>
</g>
<g class="st0">
	<g>
		<path class="st1" d="M1.4,223.8v-11.1h3.1c3.5,0,5.8,1.6,5.8,5.5c0,4-2.3,5.6-5.8,5.6H1.4z M3.3,222.1h1.5c2.6,0,3.7-1.2,3.7-3.9
			c0-2.6-1.2-3.8-3.8-3.8H3.3V222.1z"/>
	</g>
	<g>
		<path class="st1" d="M12.3,223.8v-11.1h7.2v1.7h-5.3v2.8h4l0.3,1.7h-4.3v3.2h5.6v1.7L12.3,223.8L12.3,223.8z"/>
	</g>
	<g>
		<path class="st1" d="M21.6,223.8v-11.1h3.9c2.4,0,4.3,0.8,4.3,3.4c0,2.7-2,3.5-4.3,3.5h-2v4.2L21.6,223.8L21.6,223.8z M23.5,218
			h2.1c1.6,0,2.4-0.6,2.4-1.8s-0.7-1.7-2.4-1.7h-2v3.5H23.5z"/>
	</g>
	<g>
		<path class="st1" d="M31,218.3c0-3.7,2.3-5.8,5-5.8s5,2,5,5.8c0,3.7-2.3,5.8-5,5.8C33.4,224,31,222,31,218.3z M39.2,218.3
			c0-2.5-1.3-4-3.1-4c-1.9,0-3.1,1.5-3.1,4s1.3,4.1,3.1,4.1C37.9,222.4,39.2,220.8,39.2,218.3z"/>
	</g>
	<g>
		<path class="st1" d="M42.2,222.1l1-1.4c0.9,0.9,2.2,1.6,3.6,1.6c1.4,0,2.3-0.5,2.3-1.4c0-1-0.7-1.4-2.5-2
			c-2.1-0.6-3.9-1.2-3.9-3.3c0-1.9,1.6-3.1,3.8-3.1c1.7,0,3.1,0.7,4.1,1.6l-0.9,1.5c-0.9-0.8-2.1-1.4-3.2-1.4c-1.3,0-2,0.6-2,1.3
			c0,1,0.8,1.4,2.6,1.9c2.1,0.6,3.8,1.3,3.8,3.4c0,1.8-1.5,3.2-4.1,3.2C44.9,224,43.3,223.2,42.2,222.1z"/>
	</g>
	<g>
		<path class="st1" d="M53.1,223.8v-11.1H55v11.1H53.1z"/>
	</g>
	<g>
		<path class="st1" d="M60.2,223.8v-9.4h-3.4v-1.7h8.6l0.3,1.7h-3.6v9.4H60.2z"/>
	</g>
	<g>
		<path class="st1" d="M65.9,222.1l1-1.4c0.9,0.9,2.2,1.6,3.6,1.6s2.3-0.5,2.3-1.4c0-1-0.7-1.4-2.5-2c-2.1-0.6-3.9-1.2-3.9-3.3
			c0-1.9,1.6-3.1,3.8-3.1c1.7,0,3.1,0.7,4.1,1.6l-0.9,1.5c-0.9-0.8-2.1-1.4-3.2-1.4c-1.3,0-2,0.6-2,1.3c0,1,0.8,1.4,2.6,1.9
			c2.1,0.6,3.8,1.3,3.8,3.4c0,1.8-1.5,3.2-4.1,3.2C68.6,224,67.1,223.2,65.9,222.1z"/>
	</g>
	<g>
		<path class="st1" d="M80.5,223.8v-11.1h7v1.7h-5.1v3h3.8l0.3,1.7h-4v4.7L80.5,223.8L80.5,223.8z"/>
	</g>
	<g>
		<path class="st1" d="M89.3,223.8v-11.1h4c2.6,0,4.2,1,4.2,3.4c0,1.8-0.9,2.7-2.4,3.1l2.6,4.5l-1.8,0.3l-2.7-4.5h-2v4.4L89.3,223.8
			L89.3,223.8z M91.1,217.8h2c1.6,0,2.4-0.5,2.4-1.7s-0.8-1.7-2.4-1.7h-2V217.8z"/>
	</g>
	<g>
		<path class="st1" d="M98.9,218.3c0-3.7,2.3-5.8,5-5.8s5,2,5,5.8c0,3.7-2.3,5.8-5,5.8C101.3,224,98.9,222,98.9,218.3z M107.1,218.3
			c0-2.5-1.3-4-3.1-4c-1.9,0-3.1,1.5-3.1,4s1.3,4.1,3.1,4.1C105.8,222.4,107.1,220.8,107.1,218.3z"/>
	</g>
	<g>
		<path class="st1" d="M110.9,223.8v-11.1h2.5l3,8.8l0,0l2.9-8.8h2.5v11.1H120v-8.3l0,0c-0.2,0.8-0.4,1.5-0.6,2.3l-2.2,6h-1.7
			l-2.2-6c-0.3-0.8-0.4-1.3-0.7-2.3l0,0v8.4L110.9,223.8L110.9,223.8z"/>
	</g>
	<g>
		<path class="st1" d="M127.5,218.2c0-3.6,2.1-5.7,4.8-5.7c2.1,0,3.4,0.9,4.2,2.6l-1.6,0.9c-0.4-1-1.2-1.8-2.6-1.8
			c-1.9,0-2.9,1.6-2.9,4c0,2.6,1.1,4.1,3,4.1c1.4,0,2.3-0.8,2.7-2.1l1.6,0.7c-0.7,1.8-2,3-4.3,3C129.6,224,127.5,222,127.5,218.2z"
			/>
	</g>
	<g>
		<path class="st1" d="M138.4,219.8v-7.1h1.9v7c0,1.6,0.7,2.6,2.4,2.6s2.4-1,2.4-2.6v-7h1.8v7c0,2.5-1.4,4.3-4.3,4.3
			C139.8,224,138.4,222.3,138.4,219.8z"/>
	</g>
	<g>
		<path class="st1" d="M148.5,222.1l1-1.4c0.9,0.9,2.2,1.6,3.6,1.6c1.4,0,2.3-0.5,2.3-1.4c0-1-0.7-1.4-2.5-2
			c-2.1-0.6-3.9-1.2-3.9-3.3c0-1.9,1.6-3.1,3.8-3.1c1.7,0,3.1,0.7,4.1,1.6l-0.9,1.5c-0.9-0.8-2.1-1.4-3.2-1.4c-1.3,0-2,0.6-2,1.3
			c0,1,0.8,1.4,2.6,1.9c2.1,0.6,3.8,1.3,3.8,3.4c0,1.8-1.5,3.2-4.1,3.2C151.1,224,149.6,223.2,148.5,222.1z"/>
	</g>
	<g>
		<path class="st1" d="M161.3,223.8v-9.4h-3.4v-1.7h8.6l0.3,1.7h-3.6v9.4H161.3z"/>
	</g>
	<g>
		<path class="st1" d="M167.2,218.3c0-3.7,2.3-5.8,5-5.8s5,2,5,5.8c0,3.7-2.3,5.8-5,5.8C169.5,224,167.2,222,167.2,218.3z
			 M175.4,218.3c0-2.5-1.3-4-3.1-4c-1.9,0-3.1,1.5-3.1,4s1.3,4.1,3.1,4.1C174.1,222.4,175.4,220.8,175.4,218.3z"/>
	</g>
	<g>
		<path class="st1" d="M179.2,223.8v-11.1h2.5l3,8.8l0,0l2.9-8.8h2.5v11.1h-1.8v-8.3l0,0c-0.2,0.8-0.4,1.5-0.6,2.3l-2.2,6h-1.7
			l-2.2-6c-0.3-0.8-0.4-1.3-0.7-2.3l0,0v8.4L179.2,223.8L179.2,223.8z"/>
	</g>
	<g>
		<path class="st1" d="M192.6,223.8v-11.1h7.2v1.7h-5.3v2.8h4l0.3,1.7h-4.3v3.2h5.6v1.7L192.6,223.8L192.6,223.8z"/>
	</g>
	<g>
		<path class="st1" d="M201.9,223.8v-11.1h4c2.6,0,4.2,1,4.2,3.4c0,1.8-0.9,2.7-2.4,3.1l2.6,4.5l-1.8,0.3l-2.7-4.5h-2v4.4
			L201.9,223.8L201.9,223.8z M203.8,217.8h2c1.6,0,2.4-0.5,2.4-1.7s-0.8-1.7-2.4-1.7h-2V217.8z"/>
	</g>
	<g>
		<path class="st1" d="M211.4,222.1l1-1.4c0.9,0.9,2.2,1.6,3.6,1.6c1.4,0,2.3-0.5,2.3-1.4c0-1-0.7-1.4-2.5-2
			c-2.1-0.6-3.9-1.2-3.9-3.3c0-1.9,1.6-3.1,3.8-3.1c1.7,0,3.1,0.7,4.1,1.6l-0.9,1.5c-0.9-0.8-2.1-1.4-3.2-1.4c-1.3,0-2,0.6-2,1.3
			c0,1,0.8,1.4,2.6,1.9c2.1,0.6,3.8,1.3,3.8,3.4c0,1.8-1.5,3.2-4.1,3.2C214.1,224,212.5,223.2,211.4,222.1z"/>
	</g>
</g>
<g class="st0">
	<g>
		<path class="st1" d="M240.8,226.9c-2.4-2.1-3.7-4.3-3.7-7.2c0-2.8,1.3-5.1,3.7-7.2l0.5,0.5c-1.9,1.7-3.1,4-3.1,6.6
			c0,2.7,1.2,4.9,3.1,6.7L240.8,226.9z"/>
	</g>
	<g>
		<path class="st1" d="M244.2,217.6h-1.8v-0.8h1.9c0.4-2.9,2.2-4.2,4-4.2c2,0,3,1.3,3.5,3l-1,0.4c-0.5-1.5-1-2.4-2.6-2.4
			c-1.4,0-2.7,1-3,3.3h3.4v0.8h-3.5c0,0.2,0,0.4,0,0.6c0,0.3,0,0.6,0,0.8h3.5v0.9h-3.4c0.3,2.1,1.4,3.3,3,3.3c1.5,0,2.3-0.9,2.7-2.5
			l0.9,0.4c-0.5,1.8-1.7,3.1-3.7,3.1s-3.6-1.3-4-4.2h-1.9V219h1.8c0-0.2,0-0.5,0-0.8C244.2,218,244.2,217.7,244.2,217.6z"/>
	</g>
	<g>
		<path class="st1" d="M254.3,223.8v-11.1h3.9c2.5,0,3.8,1,3.8,2.8c0,1.5-1,2.3-2.1,2.6l0,0c1.3,0.2,2.5,1.1,2.5,2.7
			c0,1.8-1.2,3-3.8,3H254.3z M255.4,217.7h2.7c1.8,0,2.8-0.6,2.8-2c0-1.3-0.9-2-2.8-2h-2.7L255.4,217.7L255.4,217.7z M255.4,222.9
			h3.1c1.9,0,2.8-0.8,2.8-2.1c0-1.5-1.2-2.2-3.1-2.2h-2.8L255.4,222.9L255.4,222.9z"/>
	</g>
	<g>
		<path class="st1" d="M264.6,223.8v-11.1h1.1l6.1,9.1l0,0v-9.1h1v11.1h-0.9l-6.3-9.4l0,0v9.4H264.6z"/>
	</g>
	<g>
		<path class="st1" d="M275.1,226.4c1.9-1.7,3.1-4,3.1-6.7c0-2.6-1.2-4.9-3.1-6.6l0.5-0.5c2.4,2.1,3.8,4.3,3.8,7.2
			c0,2.8-1.3,5.1-3.8,7.2L275.1,226.4z"/>
	</g>
</g>
<g class="st0">
	<g>
		<path class="st1" d="M4.4,412.7v-9.4H1v-1.7h8.6l0.3,1.7H6.3v9.4H4.4z"/>
	</g>
	<g>
		<path class="st1" d="M10.3,407.1c0-3.7,2.3-5.8,5-5.8s5,2,5,5.8c0,3.7-2.3,5.8-5,5.8C12.7,412.9,10.3,410.8,10.3,407.1z
			 M18.5,407.1c0-2.5-1.3-4-3.1-4c-1.9,0-3.1,1.5-3.1,4s1.3,4.1,3.1,4.1S18.5,409.6,18.5,407.1z"/>
	</g>
	<g>
		<path class="st1" d="M24.4,412.7v-9.4H21v-1.7h8.6l0.3,1.7h-3.6v9.4H24.4z"/>
	</g>
	<g>
		<path class="st1" d="M29.1,412.7l3.9-11.1h1.8l3.9,11l-1.8,0.3L36,410h-4.2l-0.9,2.6h-1.8V412.7z M32.3,408.4h3.1l-1.5-4.5l0,0
			L32.3,408.4z"/>
	</g>
	<g>
		<path class="st1" d="M40.4,412.7v-11.1h1.9v9.4h5l0.3,1.7H40.4z"/>
	</g>
	<g>
		<path class="st1" d="M52.2,412.7v-11.1h7.2v1.7h-5.3v2.8h4l0.3,1.7h-4.3v3.2h5.6v1.7L52.2,412.7L52.2,412.7z"/>
	</g>
	<g>
		<path class="st1" d="M68,415.6c-2.2,0-3.5-1.2-3.5-2.8c-2.2-0.4-3.9-2.4-3.9-5.6c0-3.7,2.3-5.8,5-5.8c2.7,0,5,2,5,5.8
			c0,3.3-1.8,5.3-4.1,5.7c0.2,1,1.2,1.2,2.4,1.2h0.9l-0.3,1.6H68V415.6z M68.7,407.1c0-2.5-1.2-4-3.1-4s-3.1,1.5-3.1,4
			s1.3,4.1,3.1,4.1C67.4,411.2,68.7,409.6,68.7,407.1z"/>
	</g>
	<g>
		<path class="st1" d="M72.3,408.6v-7.1h1.9v7c0,1.6,0.7,2.6,2.4,2.6c1.7,0,2.4-1,2.4-2.6v-7h1.8v7c0,2.5-1.4,4.3-4.3,4.3
			C73.7,412.9,72.3,411.1,72.3,408.6z"/>
	</g>
	<g>
		<path class="st1" d="M83.4,412.7v-11.1h1.9v11.1H83.4z"/>
	</g>
	<g>
		<path class="st1" d="M90.5,412.7v-9.4h-3.4v-1.7h8.6l0.3,1.7h-3.6v9.4H90.5z"/>
	</g>
	<g>
		<path class="st1" d="M100.2,412.7v-4.8l-3.7-6.2l1.8-0.3l2.9,4.9l2.8-4.7h1.9l-3.8,6.3v4.8L100.2,412.7L100.2,412.7z"/>
	</g>
</g>
<g class="st0">
	<g>
		<path class="st1" d="M123,415.7c-2.4-2.1-3.7-4.3-3.7-7.2c0-2.8,1.3-5.1,3.7-7.2l0.5,0.5c-1.9,1.7-3.1,4-3.1,6.6
			c0,2.7,1.2,4.9,3.1,6.7L123,415.7z"/>
	</g>
	<g>
		<path class="st1" d="M126.4,406.4h-1.8v-0.8h1.9c0.4-2.9,2.2-4.2,4-4.2c2,0,3,1.3,3.5,3l-1,0.4c-0.5-1.5-1-2.4-2.6-2.4
			c-1.4,0-2.7,1-3,3.3h3.4v0.8h-3.5c0,0.2,0,0.4,0,0.6c0,0.3,0,0.6,0,0.8h3.5v0.9h-3.4c0.3,2.1,1.4,3.3,3,3.3c1.5,0,2.3-0.9,2.7-2.5
			l0.9,0.4c-0.5,1.8-1.7,3.1-3.7,3.1s-3.6-1.3-4-4.2h-1.9V408h1.8c0-0.2,0-0.5,0-0.8C126.4,406.9,126.4,406.6,126.4,406.4z"/>
	</g>
	<g>
		<path class="st1" d="M136.4,412.7v-11.1h3.9c2.5,0,3.8,1,3.8,2.8c0,1.5-1,2.3-2.1,2.6l0,0c1.3,0.2,2.5,1.1,2.5,2.7
			c0,1.8-1.2,3-3.8,3H136.4z M137.5,406.5h2.7c1.8,0,2.8-0.6,2.8-2c0-1.3-0.9-2-2.8-2h-2.7V406.5z M137.5,411.7h3.1
			c1.9,0,2.8-0.8,2.8-2.1c0-1.5-1.2-2.2-3.1-2.2h-2.8V411.7z"/>
	</g>
	<g>
		<path class="st1" d="M146.7,412.7v-11.1h1.1l6.1,9.1l0,0v-9.1h1v11.1H154l-6.3-9.4l0,0v9.4H146.7z"/>
	</g>
	<g>
		<path class="st1" d="M157.2,415.2c1.9-1.7,3.1-4,3.1-6.7c0-2.6-1.2-4.9-3.1-6.6l0.5-0.5c2.4,2.1,3.8,4.3,3.8,7.2
			c0,2.8-1.3,5.1-3.8,7.2L157.2,415.2z"/>
	</g>
</g>
<g class="st0">
	<g>
		<path class="st1" d="M650.6,86.8l4.7-10.1h-5.7l-0.1-1h6.9v0.9l-4.7,10.2H650.6z"/>
	</g>
	<g>
		<path class="st1" d="M657.3,85.1l0.7-0.7c0.7,1,1.6,1.7,2.9,1.7c1.9,0,2.8-1.4,2.8-2.9c0-1.8-1.1-2.8-2.5-2.8
			c-1.1,0-1.9,0.5-2.5,1.4l-0.8-0.3l0.4-5.8h5.8v1h-5l-0.3,3.9c0.5-0.6,1.3-1,2.5-1c2,0,3.4,1.4,3.4,3.6s-1.5,3.9-3.8,3.9
			C659.3,87,658,86.2,657.3,85.1z"/>
	</g>
	<g>
		<path class="st1" d="M666.2,81.3c0-3.5,1.5-5.8,4.1-5.8s4.1,2.3,4.1,5.8s-1.4,5.8-4.1,5.8C667.7,87,666.2,84.8,666.2,81.3z
			 M673.3,81.3c0-3.1-1.2-4.8-3-4.8c-1.9,0-3,1.7-3,4.8s1.2,4.8,3,4.8C672.2,86.1,673.3,84.4,673.3,81.3z"/>
	</g>
</g>
<g>
	<g class="st0">
		<g>
			<path class="st1" d="M638.7,65.5l4.7-10.1h-5.7l-0.1-1h6.9v0.9l-4.7,10.2H638.7z"/>
		</g>
		<g>
			<path class="st1" d="M645.3,63.7L646,63c0.8,1.2,1.8,1.7,3.1,1.7c1.7,0,2.7-0.9,2.7-2.2c0-1.6-0.9-2.4-3.6-2.4h-0.4l-0.1-0.9h0.5
				c2.4,0,3.2-0.7,3.2-2.1c0-1.1-0.7-1.9-2.4-1.9c-1.1,0-2,0.6-2.7,1.4l-0.7-0.7c0.8-0.9,1.9-1.7,3.4-1.7c2.3,0,3.3,1.3,3.3,2.8
				c0,1.4-0.9,2.4-2.2,2.6c1.7,0.3,2.5,1.3,2.5,2.9c0,1.8-1.4,3.2-3.7,3.2C647.4,65.7,646.1,65,645.3,63.7z"/>
		</g>
		<g>
			<path class="st1" d="M654.4,65.5v-0.2c0-1.6,0.8-3.1,3.7-4.9c1.7-1.1,2.3-1.8,2.3-3c0-1.3-0.8-2.2-2.3-2.2
				c-1.2,0-2.1,0.6-2.8,1.9l-0.8-0.5c0.8-1.5,2-2.4,3.6-2.4c2,0,3.3,1.3,3.3,3c0,1.5-0.7,2.5-2.9,3.8c-2,1.3-3,2.5-3.1,3.5h5.9
				l0.1,1H654.4z"/>
		</g>
	</g>
</g>
<g>
	<g class="st0">
		<g>
			<path class="st1" d="M385.6,159v-2.7h-5.3v-0.8l5.1-7.6h1.3v7.5h1.8v0.9h-1.9v2.7L385.6,159L385.6,159z M381.4,155.4h4.1v-6.2
				l0,0L381.4,155.4z"/>
		</g>
		<g>
			<path class="st1" d="M389.3,157.2l0.7-0.6c0.8,1.2,1.8,1.7,3.1,1.7c1.7,0,2.7-0.9,2.7-2.2c0-1.6-0.9-2.4-3.6-2.4h-0.4l-0.1-0.9
				h0.5c2.4,0,3.2-0.7,3.2-2.1c0-1.1-0.7-1.9-2.4-1.9c-1.1,0-2,0.6-2.7,1.4l-0.7-0.7c0.8-0.9,1.9-1.7,3.4-1.7c2.3,0,3.3,1.3,3.3,2.8
				c0,1.4-0.9,2.4-2.2,2.6c1.7,0.3,2.5,1.3,2.5,2.9c0,1.8-1.4,3.2-3.7,3.2C391.5,159.2,390.1,158.5,389.3,157.2z"/>
		</g>
		<g>
			<path class="st1" d="M398.5,153.5c0-3.5,1.5-5.8,4.1-5.8s4.1,2.3,4.1,5.8s-1.4,5.8-4.1,5.8C400,159.2,398.5,156.9,398.5,153.5z
				 M405.6,153.5c0-3.1-1.2-4.8-3-4.8c-1.9,0-3,1.7-3,4.8s1.2,4.8,3,4.8C404.5,158.3,405.6,156.6,405.6,153.5z"/>
		</g>
	</g>
</g>
<g>
	<g class="st0">
		<g>
			<path class="st1" d="M371.8,257.6v-2.7h-5.3v-0.8l5.1-7.6h1.3v7.5h1.8v0.9h-1.9v2.7H371.8z M367.7,254h4.1v-6.2l0,0L367.7,254z"
				/>
		</g>
		<g>
			<path class="st1" d="M375.9,252.1c0-3.5,1.5-5.8,4.1-5.8s4,2.3,4,5.8s-1.4,5.8-4,5.8S375.9,255.5,375.9,252.1z M383,252.1
				c0-3.1-1.2-4.8-3-4.8c-1.9,0-3,1.7-3,4.8s1.2,4.8,3,4.8C381.9,256.9,383,255.2,383,252.1z"/>
		</g>
		<g>
			<path class="st1" d="M388.2,257.6v-10.1l-2.1,0.7l-0.1-0.9l2.3-0.8h1v11.1H388.2z"/>
		</g>
	</g>
</g>
<g>
	<g class="st0">
		<g>
			<path class="st1" d="M372.5,278.4v-2.7h-5.3v-0.8l5.1-7.6h1.3v7.5h1.8v0.9h-1.9v2.7H372.5z M368.4,274.7h4.1v-6.2l0,0
				L368.4,274.7z"/>
		</g>
		<g>
			<path class="st1" d="M376.6,272.8c0-3.5,1.5-5.8,4.1-5.8s4,2.3,4,5.8s-1.4,5.8-4,5.8S376.6,276.3,376.6,272.8z M383.7,272.8
				c0-3.1-1.2-4.8-3-4.8c-1.9,0-3,1.7-3,4.8s1.2,4.8,3,4.8C382.6,277.6,383.7,275.9,383.7,272.8z"/>
		</g>
		<g>
			<path class="st1" d="M385.8,276.5l0.7-0.6c0.8,1.2,1.8,1.7,3.1,1.7c1.7,0,2.7-0.9,2.7-2.2c0-1.6-0.9-2.4-3.6-2.4h-0.4l-0.1-0.9
				h0.5c2.4,0,3.2-0.7,3.2-2.1c0-1.1-0.7-1.9-2.4-1.9c-1.1,0-2,0.6-2.7,1.4l-0.7-0.7c0.8-0.9,1.9-1.7,3.4-1.7c2.3,0,3.3,1.3,3.3,2.8
				c0,1.4-0.9,2.4-2.2,2.6c1.7,0.3,2.5,1.3,2.5,2.9c0,1.8-1.4,3.2-3.7,3.2C388,278.6,386.7,277.8,385.8,276.5z"/>
		</g>
	</g>
</g>
<g>
	<g class="st0">
		<g>
			<path class="st1" d="M79,445l0.7-0.7c0.7,1,1.6,1.7,2.9,1.7c1.9,0,2.8-1.4,2.8-2.9c0-1.8-1.1-2.8-2.5-2.8c-1.1,0-1.9,0.5-2.5,1.4
				l-0.8-0.3l0.4-5.8h5.8v1h-5l-0.3,3.9c0.5-0.6,1.3-1,2.5-1c2,0,3.4,1.4,3.4,3.6S85,447,82.6,447C81,447,79.8,446.2,79,445z"/>
		</g>
		<g>
			<path class="st1" d="M87.7,445l0.7-0.7c0.7,1,1.6,1.7,2.9,1.7c1.9,0,2.8-1.4,2.8-2.9c0-1.8-1.1-2.8-2.5-2.8
				c-1.1,0-1.9,0.5-2.5,1.4l-0.8-0.3l0.4-5.8h5.8v1h-5l-0.3,3.9c0.5-0.6,1.3-1,2.5-1c2,0,3.4,1.4,3.4,3.6s-1.5,3.9-3.8,3.9
				C89.8,447,88.5,446.2,87.7,445z"/>
		</g>
	</g>
</g>
<g>
	<g class="st0">
		<g>
			<path class="st1" d="M79.1,465.2l0.7-0.7c0.7,1,1.6,1.7,2.9,1.7c1.9,0,2.8-1.4,2.8-2.9c0-1.8-1.1-2.8-2.5-2.8
				c-1.1,0-1.9,0.5-2.5,1.4l-0.8-0.3l0.4-5.8h5.8v1h-5l-0.3,3.9c0.5-0.6,1.3-1,2.5-1c2,0,3.4,1.4,3.4,3.6s-1.5,3.9-3.8,3.9
				C81.1,467.2,79.8,466.4,79.1,465.2z"/>
		</g>
		<g>
			<path class="st1" d="M87.8,465.2l0.7-0.7c0.7,1,1.6,1.7,2.9,1.7c1.9,0,2.8-1.4,2.8-2.9c0-1.8-1.1-2.8-2.5-2.8
				c-1.1,0-1.9,0.5-2.5,1.4l-0.8-0.3l0.4-5.8h5.8v1h-5l-0.3,3.9c0.5-0.6,1.3-1,2.5-1c2,0,3.4,1.4,3.4,3.6s-1.5,3.9-3.8,3.9
				C89.8,467.2,88.5,466.4,87.8,465.2z"/>
		</g>
	</g>
</g>
<g>
	<g class="st0">
		<g>
			<path class="st1" d="M389.4,181v-2.7h-5.3v-0.8l5.1-7.6h1.3v7.5h1.8v0.9h-1.9v2.7L389.4,181L389.4,181z M385.3,177.4h4.1v-6.2
				l0,0L385.3,177.4z"/>
		</g>
		<g>
			<path class="st1" d="M393.1,179.2l0.7-0.6c0.8,1.2,1.8,1.7,3.1,1.7c1.7,0,2.7-0.9,2.7-2.2c0-1.6-0.9-2.4-3.6-2.4h-0.4l-0.1-0.9
				h0.5c2.4,0,3.2-0.7,3.2-2.1c0-1.1-0.7-1.9-2.4-1.9c-1.1,0-2,0.6-2.7,1.4l-0.7-0.7c0.8-0.9,1.9-1.7,3.4-1.7c2.3,0,3.3,1.3,3.3,2.8
				c0,1.4-0.9,2.4-2.2,2.6c1.7,0.3,2.5,1.3,2.5,2.9c0,1.8-1.4,3.2-3.7,3.2C395.3,181.2,394,180.5,393.1,179.2z"/>
		</g>
		<g>
			<path class="st1" d="M402,179.2l0.7-0.6c0.8,1.2,1.8,1.7,3.1,1.7c1.7,0,2.7-0.9,2.7-2.2c0-1.6-0.9-2.4-3.6-2.4h-0.4l-0.1-0.9h0.5
				c2.4,0,3.2-0.7,3.2-2.1c0-1.1-0.7-1.9-2.4-1.9c-1.1,0-2,0.6-2.7,1.4l-0.7-0.7c0.8-0.9,1.9-1.7,3.4-1.7c2.3,0,3.3,1.3,3.3,2.8
				c0,1.4-0.9,2.4-2.2,2.6c1.7,0.3,2.5,1.3,2.5,2.9c0,1.8-1.4,3.2-3.7,3.2C404.2,181.2,402.8,180.5,402,179.2z"/>
		</g>
	</g>
</g>
<g>
	<g>
		<g>
			<g>
				<defs>
					<polygon id="SVGID_1_" points="2.3,58.9 22.1,58.9 34.7,65.3 17.8,65.3 					"/>
				</defs>
				<clipPath id="SVGID_2_">
					<use xlink:href="#SVGID_1_"  style="overflow:visible;"/>
				</clipPath>
				<g class="st4">
					<polygon points="23.5,58.9 2.3,59.4 2.3,58.9 					"/>
				</g>
			</g>
		</g>
		<g>
			<g>
				<defs>
					<polygon id="SVGID_3_" points="2.3,58.9 22.1,58.9 34.7,65.3 17.8,65.3 					"/>
				</defs>
				<clipPath id="SVGID_4_">
					<use xlink:href="#SVGID_3_"  style="overflow:visible;"/>
				</clipPath>
				<g class="st5">
					<polygon points="34.7,65 22.7,65.3 2.3,65.3 2.3,59.4 23.5,58.9 34.7,58.9 					"/>
				</g>
			</g>
		</g>
		<g>
			<g>
				<defs>
					<polygon id="SVGID_5_" points="2.3,58.9 22.1,58.9 34.7,65.3 17.8,65.3 					"/>
				</defs>
				<clipPath id="SVGID_6_">
					<use xlink:href="#SVGID_5_"  style="overflow:visible;"/>
				</clipPath>
				<g class="st6">
					<polygon points="22.7,65.3 34.7,65 34.7,65.3 					"/>
				</g>
			</g>
		</g>
	</g>
</g>
<g>
	<g>
		<g>
			<g>
				<defs>
					<polygon id="SVGID_7_" points="2.3,78.8 22.1,78.8 34.7,85.2 17.8,85.2 					"/>
				</defs>
				<clipPath id="SVGID_8_">
					<use xlink:href="#SVGID_7_"  style="overflow:visible;"/>
				</clipPath>
				<g class="st7">
					<polygon points="22,78.8 2.3,79.3 2.3,78.8 					"/>
				</g>
			</g>
		</g>
		<g>
			<g>
				<defs>
					<polygon id="SVGID_9_" points="2.3,78.8 22.1,78.8 34.7,85.2 17.8,85.2 					"/>
				</defs>
				<clipPath id="SVGID_10_">
					<use xlink:href="#SVGID_9_"  style="overflow:visible;"/>
				</clipPath>
				<g class="st8">
					<polygon points="34.7,84.9 21.2,85.2 2.3,85.2 2.3,79.3 22,78.8 34.7,78.8 					"/>
				</g>
			</g>
		</g>
		<g>
			<g>
				<defs>
					<polygon id="SVGID_11_" points="2.3,78.8 22.1,78.8 34.7,85.2 17.8,85.2 					"/>
				</defs>
				<clipPath id="SVGID_12_">
					<use xlink:href="#SVGID_11_"  style="overflow:visible;"/>
				</clipPath>
				<g class="st9">
					<polygon points="21.2,85.2 34.7,84.9 34.7,85.2 					"/>
				</g>
			</g>
		</g>
	</g>
</g>
<g>
	<g>
		<g>
			<g>
				<defs>
					<polygon id="SVGID_13_" points="1.3,153.4 21.1,153.4 33.7,159.8 16.8,159.8 					"/>
				</defs>
				<clipPath id="SVGID_14_">
					<use xlink:href="#SVGID_13_"  style="overflow:visible;"/>
				</clipPath>
				<g class="st10">
					<polygon points="20.9,153.4 1.3,153.9 1.3,153.4 					"/>
				</g>
			</g>
		</g>
		<g>
			<g>
				<defs>
					<polygon id="SVGID_15_" points="1.3,153.4 21.1,153.4 33.7,159.8 16.8,159.8 					"/>
				</defs>
				<clipPath id="SVGID_16_">
					<use xlink:href="#SVGID_15_"  style="overflow:visible;"/>
				</clipPath>
				<g class="st11">
					<polygon points="33.7,159.5 20.1,159.8 1.3,159.8 1.3,153.9 20.9,153.4 33.7,153.4 					"/>
				</g>
			</g>
		</g>
		<g>
			<g>
				<defs>
					<polygon id="SVGID_17_" points="1.3,153.4 21.1,153.4 33.7,159.8 16.8,159.8 					"/>
				</defs>
				<clipPath id="SVGID_18_">
					<use xlink:href="#SVGID_17_"  style="overflow:visible;"/>
				</clipPath>
				<g class="st12">
					<polygon points="20.1,159.8 33.7,159.5 33.7,159.8 					"/>
				</g>
			</g>
		</g>
	</g>
</g>
<g>
	<g>
		<g>
			<g>
				<defs>
					<polygon id="SVGID_19_" points="1.3,173.3 21.1,173.3 33.7,179.6 16.8,179.6 					"/>
				</defs>
				<clipPath id="SVGID_20_">
					<use xlink:href="#SVGID_19_"  style="overflow:visible;"/>
				</clipPath>
				<g class="st13">
					<polygon points="19.4,173.3 1.3,173.8 1.3,173.3 					"/>
				</g>
			</g>
		</g>
		<g>
			<g>
				<defs>
					<polygon id="SVGID_21_" points="1.3,173.3 21.1,173.3 33.7,179.6 16.8,179.6 					"/>
				</defs>
				<clipPath id="SVGID_22_">
					<use xlink:href="#SVGID_21_"  style="overflow:visible;"/>
				</clipPath>
				<g class="st14">
					<polygon points="33.7,179.3 22.5,179.6 1.3,179.6 1.3,173.8 19.4,173.3 33.7,173.3 					"/>
				</g>
			</g>
		</g>
		<g>
			<g>
				<defs>
					<polygon id="SVGID_23_" points="1.3,173.3 21.1,173.3 33.7,179.6 16.8,179.6 					"/>
				</defs>
				<clipPath id="SVGID_24_">
					<use xlink:href="#SVGID_23_"  style="overflow:visible;"/>
				</clipPath>
				<g class="st15">
					<polygon points="22.5,179.6 33.7,179.3 33.7,179.6 					"/>
				</g>
			</g>
		</g>
	</g>
</g>
<g>
	<g>
		<g>
			<g>
				<defs>
					<polygon id="SVGID_25_" points="1.3,250.1 21.1,250.1 33.7,256.5 16.8,256.5 					"/>
				</defs>
				<clipPath id="SVGID_26_">
					<use xlink:href="#SVGID_25_"  style="overflow:visible;"/>
				</clipPath>
				<g class="st16">
					<polygon points="21.1,250.1 1.3,250.6 1.3,250.1 					"/>
				</g>
			</g>
		</g>
		<g>
			<g>
				<defs>
					<polygon id="SVGID_27_" points="1.3,250.1 21.1,250.1 33.7,256.5 16.8,256.5 					"/>
				</defs>
				<clipPath id="SVGID_28_">
					<use xlink:href="#SVGID_27_"  style="overflow:visible;"/>
				</clipPath>
				<g class="st17">
					<polygon points="33.7,256.2 20.3,256.5 1.3,256.5 1.3,250.6 21.1,250.1 33.7,250.1 					"/>
				</g>
			</g>
		</g>
		<g>
			<g>
				<defs>
					<polygon id="SVGID_29_" points="1.3,250.1 21.1,250.1 33.7,256.5 16.8,256.5 					"/>
				</defs>
				<clipPath id="SVGID_30_">
					<use xlink:href="#SVGID_29_"  style="overflow:visible;"/>
				</clipPath>
				<g class="st18">
					<polygon points="20.3,256.5 33.7,256.2 33.7,256.5 					"/>
				</g>
			</g>
		</g>
	</g>
</g>
<g>
	<g>
		<g>
			<g>
				<defs>
					<polygon id="SVGID_31_" points="1.3,271 21.1,271 33.7,277.3 16.8,277.3 					"/>
				</defs>
				<clipPath id="SVGID_32_">
					<use xlink:href="#SVGID_31_"  style="overflow:visible;"/>
				</clipPath>
				<g class="st19">
					<polygon points="19.6,271 1.3,271.5 1.3,271 					"/>
				</g>
			</g>
		</g>
		<g>
			<g>
				<defs>
					<polygon id="SVGID_33_" points="1.3,271 21.1,271 33.7,277.3 16.8,277.3 					"/>
				</defs>
				<clipPath id="SVGID_34_">
					<use xlink:href="#SVGID_33_"  style="overflow:visible;"/>
				</clipPath>
				<g class="st20">
					<polygon points="33.7,277 22.7,277.3 1.3,277.3 1.3,271.5 19.6,271 33.7,271 					"/>
				</g>
			</g>
		</g>
		<g>
			<g>
				<defs>
					<polygon id="SVGID_35_" points="1.3,271 21.1,271 33.7,277.3 16.8,277.3 					"/>
				</defs>
				<clipPath id="SVGID_36_">
					<use xlink:href="#SVGID_35_"  style="overflow:visible;"/>
				</clipPath>
				<g class="st21">
					<polygon points="22.7,277.3 33.7,277 33.7,277.3 					"/>
				</g>
			</g>
		</g>
	</g>
</g>
<g>
	<g>
		<g>
			<g>
				<defs>
					<polygon id="SVGID_37_" points="0.9,439.5 20.8,439.5 33.4,445.9 16.4,445.9 					"/>
				</defs>
				<clipPath id="SVGID_38_">
					<use xlink:href="#SVGID_37_"  style="overflow:visible;"/>
				</clipPath>
				<g class="st22">
					<polygon points="21.8,439.5 0.9,440 0.9,439.5 					"/>
				</g>
			</g>
		</g>
		<g>
			<g>
				<defs>
					<polygon id="SVGID_39_" points="0.9,439.5 20.8,439.5 33.4,445.9 16.4,445.9 					"/>
				</defs>
				<clipPath id="SVGID_40_">
					<use xlink:href="#SVGID_39_"  style="overflow:visible;"/>
				</clipPath>
				<g class="st23">
					<polygon points="33.4,445.6 21,445.9 0.9,445.9 0.9,440 21.8,439.5 33.4,439.5 					"/>
				</g>
			</g>
		</g>
		<g>
			<g>
				<defs>
					<polygon id="SVGID_41_" points="0.9,439.5 20.8,439.5 33.4,445.9 16.4,445.9 					"/>
				</defs>
				<clipPath id="SVGID_42_">
					<use xlink:href="#SVGID_41_"  style="overflow:visible;"/>
				</clipPath>
				<g class="st24">
					<polygon points="21,445.9 33.4,445.6 33.4,445.9 					"/>
				</g>
			</g>
		</g>
	</g>
</g>
<g>
	<g>
		<g>
			<g>
				<defs>
					<polygon id="SVGID_43_" points="0.9,459.4 20.8,459.4 33.4,465.8 16.4,465.8 					"/>
				</defs>
				<clipPath id="SVGID_44_">
					<use xlink:href="#SVGID_43_"  style="overflow:visible;"/>
				</clipPath>
				<g class="st25">
					<polygon points="20.3,459.4 0.9,459.9 0.9,459.4 					"/>
				</g>
			</g>
		</g>
		<g>
			<g>
				<defs>
					<polygon id="SVGID_45_" points="0.9,459.4 20.8,459.4 33.4,465.8 16.4,465.8 					"/>
				</defs>
				<clipPath id="SVGID_46_">
					<use xlink:href="#SVGID_45_"  style="overflow:visible;"/>
				</clipPath>
				<g class="st26">
					<polygon points="33.4,465.4 19.5,465.8 0.9,465.8 0.9,459.9 20.3,459.4 33.4,459.4 					"/>
				</g>
			</g>
		</g>
		<g>
			<g>
				<defs>
					<polygon id="SVGID_47_" points="0.9,459.4 20.8,459.4 33.4,465.8 16.4,465.8 					"/>
				</defs>
				<clipPath id="SVGID_48_">
					<use xlink:href="#SVGID_47_"  style="overflow:visible;"/>
				</clipPath>
				<g class="st27">
					<polygon points="19.5,465.8 33.4,465.4 33.4,465.8 					"/>
				</g>
			</g>
		</g>
	</g>
</g>
<g>
	<g>
		<g>
			<g>
				<defs>
					<polygon id="SVGID_49_" points="0.9,346.2 20.8,346.2 33.4,352.6 16.4,352.6 					"/>
				</defs>
				<clipPath id="SVGID_50_">
					<use xlink:href="#SVGID_49_"  style="overflow:visible;"/>
				</clipPath>
				<g class="st28">
					<polygon points="21.4,346.2 0.9,346.7 0.9,346.2 					"/>
				</g>
			</g>
		</g>
		<g>
			<g>
				<defs>
					<polygon id="SVGID_51_" points="0.9,346.2 20.8,346.2 33.4,352.6 16.4,352.6 					"/>
				</defs>
				<clipPath id="SVGID_52_">
					<use xlink:href="#SVGID_51_"  style="overflow:visible;"/>
				</clipPath>
				<g class="st29">
					<polygon points="33.4,352.3 20.6,352.6 0.9,352.6 0.9,346.7 21.4,346.2 33.4,346.2 					"/>
				</g>
			</g>
		</g>
		<g>
			<g>
				<defs>
					<polygon id="SVGID_53_" points="0.9,346.2 20.8,346.2 33.4,352.6 16.4,352.6 					"/>
				</defs>
				<clipPath id="SVGID_54_">
					<use xlink:href="#SVGID_53_"  style="overflow:visible;"/>
				</clipPath>
				<g class="st30">
					<polygon points="20.6,352.6 33.4,352.3 33.4,352.6 					"/>
				</g>
			</g>
		</g>
	</g>
</g>
<g>
	<g>
		<g>
			<g>
				<defs>
					<polygon id="SVGID_55_" points="0.9,366.1 20.8,366.1 33.4,372.5 16.4,372.5 					"/>
				</defs>
				<clipPath id="SVGID_56_">
					<use xlink:href="#SVGID_55_"  style="overflow:visible;"/>
				</clipPath>
				<g class="st31">
					<polygon points="19.9,366.1 0.9,366.6 0.9,366.1 					"/>
				</g>
			</g>
		</g>
		<g>
			<g>
				<defs>
					<polygon id="SVGID_57_" points="0.9,366.1 20.8,366.1 33.4,372.5 16.4,372.5 					"/>
				</defs>
				<clipPath id="SVGID_58_">
					<use xlink:href="#SVGID_57_"  style="overflow:visible;"/>
				</clipPath>
				<g class="st32">
					<polygon points="33.4,372.1 19.2,372.5 0.9,372.5 0.9,366.6 19.9,366.1 33.4,366.1 					"/>
				</g>
			</g>
		</g>
		<g>
			<g>
				<defs>
					<polygon id="SVGID_59_" points="0.9,366.1 20.8,366.1 33.4,372.5 16.4,372.5 					"/>
				</defs>
				<clipPath id="SVGID_60_">
					<use xlink:href="#SVGID_59_"  style="overflow:visible;"/>
				</clipPath>
				<g class="st33">
					<polygon points="19.2,372.5 33.4,372.1 33.4,372.5 					"/>
				</g>
			</g>
		</g>
	</g>
</g>
<g>
	<g>
		<polygon class="st2" points="623.4,56.1 618.8,65.3 17.8,65.3 22.4,56.1 		"/>
	</g>
</g>
<g>
	<g>
		<polygon class="st34" points="638.4,75.9 633.7,85.2 17.8,85.2 22.4,75.9 		"/>
	</g>
</g>
<g>
	<g>
		<polygon class="st2" points="373,150.5 368.4,159.7 17.1,159.7 21.7,150.5 		"/>
	</g>
</g>
<g>
	<g>
		<polygon class="st34" points="375.9,170.3 371.3,179.6 17.1,179.6 21.7,170.3 		"/>
	</g>
</g>
<g>
	<g>
		<polygon class="st2" points="348.8,247.3 344.2,256.6 17,256.6 21.7,247.3 		"/>
	</g>
</g>
<g>
	<g>
		<polygon class="st34" points="350.6,268.1 345.9,277.4 17.3,277.4 22,268.1 		"/>
	</g>
</g>
<g>
	<g>
		<polygon class="st2" points="61.9,436.8 57.3,446.1 16.7,446.1 21.4,436.8 		"/>
	</g>
</g>
<g>
	<g>
		<polygon class="st34" points="61.6,456.7 57,465.9 16.8,465.9 21.5,456.7 		"/>
	</g>
</g>
<g class="st0">
	<g>
		<path class="st1" d="M4.4,319.6v-9.4H1v-1.7h8.6l0.3,1.7H6.3v9.4H4.4z"/>
	</g>
	<g>
		<path class="st1" d="M10.3,314c0-3.7,2.3-5.8,5-5.8s5,2,5,5.8c0,3.7-2.3,5.8-5,5.8C12.7,319.8,10.3,317.8,10.3,314z M18.5,314
			c0-2.5-1.3-4-3.1-4c-1.9,0-3.1,1.5-3.1,4s1.3,4.1,3.1,4.1S18.5,316.6,18.5,314z"/>
	</g>
	<g>
		<path class="st1" d="M24.4,319.6v-9.4H21v-1.7h8.6l0.3,1.7h-3.6v9.4H24.4z"/>
	</g>
	<g>
		<path class="st1" d="M29.1,319.6l3.9-11.1h1.8l3.9,11l-1.8,0.3L36,317h-4.2l-0.9,2.6H29.1z M32.3,315.3h3.1l-1.5-4.5l0,0
			L32.3,315.3z"/>
	</g>
	<g>
		<path class="st1" d="M40.4,319.6v-11.1h1.9v9.4h5l0.3,1.7H40.4z"/>
	</g>
	<g>
		<path class="st1" d="M51.7,314c0-3.6,2.1-5.7,4.8-5.7c2.1,0,3.4,0.9,4.2,2.6l-1.6,0.9c-0.4-1-1.2-1.8-2.6-1.8
			c-1.9,0-2.9,1.6-2.9,4c0,2.6,1.1,4.1,3,4.1c1.4,0,2.3-0.8,2.7-2.1l1.6,0.7c-0.7,1.8-2,3-4.3,3C53.8,319.8,51.7,317.8,51.7,314z"/>
	</g>
	<g>
		<path class="st1" d="M62.6,315.6v-7.1h1.9v7c0,1.6,0.7,2.6,2.4,2.6c1.7,0,2.4-1,2.4-2.6v-7h1.8v7c0,2.5-1.4,4.3-4.3,4.3
			C64,319.8,62.6,318,62.6,315.6z"/>
	</g>
	<g>
		<path class="st1" d="M72.6,317.9l1-1.4c0.9,0.9,2.2,1.6,3.6,1.6s2.3-0.5,2.3-1.4c0-1-0.7-1.4-2.5-2c-2.1-0.6-3.9-1.2-3.9-3.3
			c0-1.9,1.6-3.1,3.8-3.1c1.7,0,3.1,0.7,4.1,1.6l-0.9,1.5c-0.9-0.8-2.1-1.4-3.2-1.4c-1.3,0-2,0.6-2,1.3c0,1,0.8,1.4,2.6,1.9
			c2.1,0.6,3.8,1.3,3.8,3.4c0,1.8-1.5,3.2-4.1,3.2C75.3,319.8,73.7,319,72.6,317.9z"/>
	</g>
	<g>
		<path class="st1" d="M85.5,319.6v-9.4h-3.4v-1.7h8.6l0.3,1.7h-3.6v9.4H85.5z"/>
	</g>
	<g>
		<path class="st1" d="M91.4,314c0-3.7,2.3-5.8,5-5.8s5,2,5,5.8c0,3.7-2.3,5.8-5,5.8C93.7,319.8,91.4,317.8,91.4,314z M99.5,314
			c0-2.5-1.3-4-3.1-4c-1.9,0-3.1,1.5-3.1,4s1.3,4.1,3.1,4.1C98.3,318.1,99.5,316.6,99.5,314z"/>
	</g>
	<g>
		<path class="st1" d="M103.4,319.6v-11.1h2.5l3,8.8l0,0l2.9-8.8h2.5v11.1h-1.8v-8.3l0,0c-0.2,0.8-0.4,1.5-0.6,2.3l-2.2,6H108
			l-2.2-6c-0.3-0.8-0.4-1.3-0.7-2.3l0,0v8.4h-1.7C103.4,319.7,103.4,319.6,103.4,319.6z"/>
	</g>
	<g>
		<path class="st1" d="M116.8,319.6v-11.1h7.2v1.7h-5.3v2.8h4l0.3,1.7h-4.3v3.2h5.6v1.7L116.8,319.6L116.8,319.6z"/>
	</g>
	<g>
		<path class="st1" d="M126.1,319.6v-11.1h4c2.6,0,4.2,1,4.2,3.4c0,1.8-0.9,2.7-2.4,3.1l2.6,4.5l-1.8,0.3l-2.7-4.5h-2v4.4
			L126.1,319.6L126.1,319.6z M127.9,313.6h2c1.6,0,2.4-0.5,2.4-1.7s-0.8-1.7-2.4-1.7h-2C127.9,310.2,127.9,313.6,127.9,313.6z"/>
	</g>
	<g>
		<path class="st1" d="M140.2,319.6v-11.1h7v1.7h-5.1v3h3.8l0.3,1.7h-4v4.7L140.2,319.6L140.2,319.6z"/>
	</g>
	<g>
		<path class="st1" d="M148.8,315.6v-7.1h1.9v7c0,1.6,0.7,2.6,2.4,2.6s2.4-1,2.4-2.6v-7h1.8v7c0,2.5-1.4,4.3-4.3,4.3
			C150.2,319.8,148.8,318,148.8,315.6z"/>
	</g>
	<g>
		<path class="st1" d="M159.8,319.6v-11.1h1.9l5.2,7.9l0,0v-7.9h1.7v11.1H167l-5.5-8.1l0,0v8.1H159.8z"/>
	</g>
	<g>
		<path class="st1" d="M171.2,319.6v-11.1h3.1c3.5,0,5.8,1.6,5.8,5.5c0,4-2.3,5.6-5.8,5.6H171.2z M173.1,317.9h1.5
			c2.6,0,3.7-1.2,3.7-3.9c0-2.6-1.2-3.8-3.8-3.8h-1.4V317.9z"/>
	</g>
	<g>
		<path class="st1" d="M181.2,317.9l1-1.4c0.9,0.9,2.2,1.6,3.6,1.6c1.4,0,2.3-0.5,2.3-1.4c0-1-0.7-1.4-2.5-2
			c-2.1-0.6-3.9-1.2-3.9-3.3c0-1.9,1.6-3.1,3.8-3.1c1.7,0,3.1,0.7,4.1,1.6l-0.9,1.5c-0.9-0.8-2.1-1.4-3.2-1.4c-1.3,0-2,0.6-2,1.3
			c0,1,0.8,1.4,2.6,1.9c2.1,0.6,3.8,1.3,3.8,3.4c0,1.8-1.5,3.2-4.1,3.2C183.9,319.8,182.4,319,181.2,317.9z"/>
	</g>
</g>
<g class="st0">
	<g>
		<path class="st1" d="M211.7,322.7c-2.4-2.1-3.7-4.3-3.7-7.2c0-2.8,1.3-5.1,3.7-7.2l0.5,0.5c-1.9,1.7-3.1,4-3.1,6.6
			c0,2.7,1.2,4.9,3.1,6.7L211.7,322.7z"/>
	</g>
	<g>
		<path class="st1" d="M215.1,313.3h-1.8v-0.8h1.9c0.4-2.9,2.2-4.2,4-4.2c2,0,3,1.3,3.5,3l-1,0.4c-0.5-1.5-1-2.4-2.6-2.4
			c-1.4,0-2.7,1-3,3.3h3.4v0.8H216c0,0.2,0,0.4,0,0.6c0,0.3,0,0.6,0,0.8h3.5v0.9h-3.4c0.3,2.1,1.4,3.3,3,3.3c1.5,0,2.3-0.9,2.7-2.5
			l0.9,0.4c-0.5,1.8-1.7,3.1-3.7,3.1s-3.6-1.3-4-4.2h-1.9v-0.9h1.8c0-0.2,0-0.5,0-0.8C215.1,313.8,215.1,313.5,215.1,313.3z"/>
	</g>
	<g>
		<path class="st1" d="M225.1,319.6v-11.1h3.9c2.5,0,3.8,1,3.8,2.8c0,1.5-1,2.3-2.1,2.6l0,0c1.3,0.2,2.5,1.1,2.5,2.7
			c0,1.8-1.2,3-3.8,3H225.1z M226.2,313.4h2.7c1.8,0,2.8-0.6,2.8-2c0-1.3-0.9-2-2.8-2h-2.7V313.4z M226.2,318.6h3.1
			c1.9,0,2.8-0.8,2.8-2.1c0-1.5-1.2-2.2-3.1-2.2h-2.8V318.6z"/>
	</g>
	<g>
		<path class="st1" d="M235.4,319.6v-11.1h1.1l6.1,9.1l0,0v-9.1h1v11.1h-0.9l-6.3-9.4l0,0v9.4H235.4z"/>
	</g>
	<g>
		<path class="st1" d="M245.9,322.2c1.9-1.7,3.1-4,3.1-6.7c0-2.6-1.2-4.9-3.1-6.6l0.5-0.5c2.4,2.1,3.8,4.3,3.8,7.2
			c0,2.8-1.3,5.1-3.8,7.2L245.9,322.2z"/>
	</g>
</g>
<g>
	<g class="st0">
		<g>
			<path class="st1" d="M477.8,351.9l0.7-0.7c0.7,1,1.6,1.7,2.9,1.7c1.9,0,2.8-1.4,2.8-2.9c0-1.8-1.1-2.8-2.5-2.8
				c-1.1,0-1.9,0.5-2.5,1.4l-0.8-0.3l0.4-5.8h5.8v1h-5l-0.3,3.9c0.5-0.6,1.3-1,2.5-1c2,0,3.4,1.4,3.4,3.6s-1.5,3.9-3.8,3.9
				C479.8,353.9,478.5,353.1,477.8,351.9z"/>
		</g>
		<g>
			<path class="st1" d="M486.4,351.8l0.7-0.6c0.8,1.2,1.8,1.7,3.1,1.7c1.7,0,2.7-0.9,2.7-2.2c0-1.6-0.9-2.4-3.6-2.4h-0.4l-0.1-0.9
				h0.5c2.4,0,3.2-0.7,3.2-2.1c0-1.1-0.7-1.9-2.4-1.9c-1.1,0-2,0.6-2.7,1.4l-0.7-0.7c0.8-0.9,1.9-1.7,3.4-1.7c2.3,0,3.3,1.3,3.3,2.8
				c0,1.4-0.9,2.4-2.2,2.6c1.7,0.3,2.5,1.3,2.5,2.9c0,1.8-1.4,3.2-3.7,3.2C488.6,353.9,487.2,353.1,486.4,351.8z"/>
		</g>
		<g>
			<path class="st1" d="M500.6,353.7V351h-5.3v-0.8l5.1-7.6h1.3v7.5h1.8v0.9h-1.9v2.7H500.6z M496.5,350.1h4.1v-6.2l0,0L496.5,350.1
				z"/>
		</g>
	</g>
</g>
<g>
	<g class="st0">
		<g>
			<path class="st1" d="M477.9,372.1l0.7-0.7c0.7,1,1.6,1.7,2.9,1.7c1.9,0,2.8-1.4,2.8-2.9c0-1.8-1.1-2.8-2.5-2.8
				c-1.1,0-1.9,0.5-2.5,1.4l-0.8-0.3l0.4-5.8h5.8v1h-5l-0.3,3.9c0.5-0.6,1.3-1,2.5-1c2,0,3.4,1.4,3.4,3.6s-1.5,3.9-3.8,3.9
				C479.9,374.1,478.6,373.3,477.9,372.1z"/>
		</g>
		<g>
			<path class="st1" d="M486.5,372.1l0.7-0.6c0.8,1.2,1.8,1.7,3.1,1.7c1.7,0,2.7-0.9,2.7-2.2c0-1.6-0.9-2.4-3.6-2.4H489l-0.1-0.9
				h0.5c2.4,0,3.2-0.7,3.2-2.1c0-1.1-0.7-1.9-2.4-1.9c-1.1,0-2,0.6-2.7,1.4l-0.7-0.7c0.8-0.9,1.9-1.7,3.4-1.7c2.3,0,3.3,1.3,3.3,2.8
				c0,1.4-0.9,2.4-2.2,2.6c1.7,0.3,2.5,1.3,2.5,2.9c0,1.8-1.4,3.2-3.7,3.2C488.6,374.1,487.3,373.4,486.5,372.1z"/>
		</g>
		<g>
			<path class="st1" d="M495.5,372.1l0.7-0.7c0.7,1,1.6,1.7,2.9,1.7c1.9,0,2.8-1.4,2.8-2.9c0-1.8-1.1-2.8-2.5-2.8
				c-1.1,0-1.9,0.5-2.5,1.4l-0.8-0.3l0.4-5.8h5.8v1h-5l-0.3,3.9c0.5-0.6,1.3-1,2.5-1c2,0,3.4,1.4,3.4,3.6s-1.5,3.9-3.8,3.9
				C497.5,374.1,496.2,373.3,495.5,372.1z"/>
		</g>
	</g>
</g>
<g>
	<g>
		<polygon class="st2" points="460.7,343.7 456,353 16.7,353 21.4,343.7 		"/>
	</g>
</g>
<g>
	<g>
		<polygon class="st34" points="460.4,363.6 455.8,372.9 16.8,372.9 21.5,363.6 		"/>
	</g>
</g>
<g>
	<path class="st1" d="M580.1,11.2V0.1h2.8c3.6,0,5.5,1.9,5.5,5.5c0,3.7-2,5.6-5.5,5.6H580.1z M581.2,10.2h1.9c2.8,0,4.3-1.4,4.3-4.6
		c0-3.1-1.5-4.6-4.3-4.6h-1.9V10.2z"/>
	<path class="st1" d="M589.9,7.2c0-2.8,1.8-4.1,3.5-4.1c1.8,0,3.2,1.4,3.2,4.1v0.2h-5.7c0,1.9,1.1,3,2.6,3c1,0,1.8-0.4,2.5-1.2
		l0.5,0.7c-0.9,0.9-1.7,1.4-3.1,1.4C591.5,11.3,589.9,9.9,589.9,7.2z M595.6,6.6c-0.1-1.5-0.8-2.6-2.2-2.6c-1.1,0-2.2,0.9-2.4,2.6
		H595.6z"/>
	<path class="st1" d="M598.1,7.2c0-2.8,1.8-4.1,3.5-4.1c1.4,0,2.4,0.8,2.9,1.9l-0.8,0.5c-0.5-1-1-1.5-2.1-1.5
		c-1.2,0-2.5,0.9-2.5,3.2c0,2,1,3.2,2.4,3.2c1.1,0,1.7-0.5,2.2-1.5l0.8,0.5c-0.7,1.3-1.6,1.9-3,1.9C599.7,11.3,598.1,9.9,598.1,7.2z
		"/>
	<path class="st1" d="M606.3,6.9V6h3.4v0.9H606.3z"/>
</g>
<g>
	<path class="st1" d="M682.8,11.2V0.1h2.8c3.6,0,5.5,1.9,5.5,5.5c0,3.7-2,5.6-5.5,5.6H682.8z M683.8,10.2h1.9c2.8,0,4.3-1.4,4.3-4.6
		c0-3.1-1.5-4.6-4.3-4.6h-1.9V10.2z"/>
	<path class="st1" d="M692.6,7.2c0-2.8,1.8-4.1,3.5-4.1c1.8,0,3.2,1.4,3.2,4.1v0.2h-5.7c0,1.9,1.1,3,2.6,3c1,0,1.8-0.4,2.5-1.2
		l0.5,0.7c-0.9,0.9-1.7,1.4-3.1,1.4C694.2,11.3,692.6,9.9,692.6,7.2z M698.3,6.6C698.1,5.1,697.4,4,696,4c-1.1,0-2.2,0.9-2.4,2.6
		H698.3z"/>
	<path class="st1" d="M700.8,7.2c0-2.8,1.8-4.1,3.5-4.1c1.4,0,2.4,0.8,2.9,1.9l-0.8,0.5c-0.5-1-1-1.5-2.1-1.5
		c-1.2,0-2.5,0.9-2.5,3.2c0,2,1,3.2,2.4,3.2c1.1,0,1.7-0.5,2.2-1.5l0.8,0.5c-0.7,1.3-1.6,1.9-3,1.9C702.4,11.3,700.8,9.9,700.8,7.2z
		"/>
	<path class="st1" d="M709,6.9V6h3.4v0.9H709z"/>
</g>
</svg>
