<?xml version="1.0" encoding="UTF-8" standalone="no"?>
<svg width="726px" height="279px" viewBox="0 0 726 279" version="1.1" xmlns="http://www.w3.org/2000/svg" xmlns:xlink="http://www.w3.org/1999/xlink">
    <!-- Generator: Sketch 41.2 (35397) - http://www.bohemiancoding.com/sketch -->
    <title>Page 1</title>
    <desc>Created with Sketch.</desc>
    <defs>
        <linearGradient x1="35.8837125%" y1="37.0061032%" x2="74.4968429%" y2="84.2132596%" id="linearGradient-1">
            <stop stop-color="#000000" stop-opacity="0" offset="0%"></stop>
            <stop stop-color="#000000" offset="100%"></stop>
        </linearGradient>
        <linearGradient x1="36.7271838%" y1="33.3129489%" x2="76.8983361%" y2="87.9405395%" id="linearGradient-2">
            <stop stop-color="#000000" stop-opacity="0" offset="0%"></stop>
            <stop stop-color="#000000" offset="100%"></stop>
        </linearGradient>
        <linearGradient x1="33.4402118%" y1="34.9813143%" x2="75.9965991%" y2="89.4003592%" id="linearGradient-3">
            <stop stop-color="#000000" stop-opacity="0" offset="0%"></stop>
            <stop stop-color="#000000" offset="100%"></stop>
        </linearGradient>
        <linearGradient x1="31.646316%" y1="30.7004404%" x2="73.5107675%" y2="90.6819671%" id="linearGradient-4">
            <stop stop-color="#000000" stop-opacity="0" offset="0%"></stop>
            <stop stop-color="#000000" offset="100%"></stop>
        </linearGradient>
        <linearGradient x1="11.1269505%" y1="0%" x2="77.789139%" y2="79.480372%" id="linearGradient-5">
            <stop stop-color="#000000" stop-opacity="0" offset="0%"></stop>
            <stop stop-color="#000000" offset="100%"></stop>
        </linearGradient>
        <linearGradient x1="24.4928828%" y1="26.3588988%" x2="78.1116155%" y2="88.0504999%" id="linearGradient-6">
            <stop stop-color="#000000" stop-opacity="0" offset="0%"></stop>
            <stop stop-color="#000000" offset="100%"></stop>
        </linearGradient>
        <linearGradient x1="32.9572872%" y1="24.4023612%" x2="78.7719927%" y2="87.5063853%" id="linearGradient-7">
            <stop stop-color="#000000" stop-opacity="0" offset="0%"></stop>
            <stop stop-color="#000000" offset="100%"></stop>
        </linearGradient>
        <linearGradient x1="29.1803375%" y1="39.9067839%" x2="75.1279879%" y2="94.4016635%" id="linearGradient-8">
            <stop stop-color="#000000" stop-opacity="0" offset="0%"></stop>
            <stop stop-color="#000000" offset="100%"></stop>
        </linearGradient>
        <linearGradient x1="24.5485531%" y1="21.1262983%" x2="73.2857157%" y2="94.2158683%" id="linearGradient-9">
            <stop stop-color="#000000" stop-opacity="0" offset="0%"></stop>
            <stop stop-color="#000000" offset="100%"></stop>
        </linearGradient>
    </defs>
    <g id="Page-1" stroke="none" stroke-width="1" fill="none" fill-rule="evenodd">
        <g transform="translate(-4.000000, 0.000000)">
            <polygon id="Fill-1" fill-opacity="0.1" fill="url(#linearGradient-1)" points="534.778 231.939 490.971 213.764 471.973 219.014 519.507 239.519"></polygon>
            <polygon id="Fill-3" fill="#2ECDCD" points="518.8347 239.9113 534.7777 231.9393 534.7777 212.4173 518.8347 220.3893"></polygon>
            <polygon id="Fill-4" fill="#0064A8" points="518.8347 220.4674 534.7787 212.4954 518.8697 206.1204 502.9257 214.0924"></polygon>
            <polygon id="Fill-5" fill-opacity="0.1" fill="url(#linearGradient-2)" points="683.134 231.939 639.328 213.764 620.329 219.014 667.864 239.519"></polygon>
            <polygon id="Fill-7" fill="#2ECDCD" points="667.1911 239.9113 683.1341 231.9393 683.1341 148.2733 667.1911 156.2453"></polygon>
            <polygon id="Fill-8" fill="#0064A8" points="667.1911 100.9567 683.1351 92.9847 667.2261 86.6097 651.2821 94.5817"></polygon>
            <polygon id="Fill-9" fill="#2ECDCD" points="667.1911 100.9567 667.1911 156.2457 683.1341 148.2737 683.1341 92.9847"></polygon>
            <polygon id="Fill-10" fill-opacity="0.1" fill="url(#linearGradient-3)" points="661.131 231.939 617.324 213.764 598.326 219.014 645.861 239.519"></polygon>
            <polygon id="Fill-12" fill="#2A86CA" points="645.1877 239.9113 661.1307 231.9393 661.1307 168.2733 645.1877 156.2453"></polygon>
            <polygon id="Fill-13" fill="#0064A8" points="645.1877 99.5441 661.1317 91.5721 645.2227 85.1971 629.2787 93.1691"></polygon>
            <polygon id="Fill-14" fill="#2A86CA" points="645.1877 99.5441 645.1877 156.2451 661.1307 168.2731 661.1307 91.5721"></polygon>
            <polygon id="Fill-15" fill-opacity="0.1" fill="url(#linearGradient-4)" points="373.285 231.939 329.479 213.764 310.48 219.014 358.015 239.519"></polygon>
            <polygon id="Fill-17" fill="#0064A8" points="357.3422 229.7174 373.2862 221.7454 357.3772 215.3704 341.4332 223.3424"></polygon>
            <polygon id="Fill-18" fill="#2ECDCD" points="357.3422 229.7174 357.3422 239.8814 373.2852 231.9084 373.2852 221.7454"></polygon>
            <g id="Group-20" transform="translate(28.000000, 0.736000)" fill="#FFFFFF">
                <path d="M2.105,277 L2.105,272.62 L4.07,272.62 L6.755,277.15 L8.585,276.85 L5.945,272.38 C7.475,271.99 8.39,271.075 8.39,269.305 C8.39,266.95 6.86,265.9 4.235,265.9 L0.26,265.9 L0.26,277 L2.105,277 Z M2.105,267.61 L4.145,267.61 C5.735,267.61 6.56,268.045 6.56,269.275 C6.56,270.535 5.735,270.985 4.145,270.985 L2.105,270.985 L2.105,267.61 Z M14.97,277.21 C17.64,277.21 19.965,275.185 19.965,271.45 C19.965,267.715 17.64,265.69 14.97,265.69 C12.285,265.69 9.96,267.715 9.96,271.45 C9.96,275.185 12.285,277.21 14.97,277.21 Z M14.97,275.53 C13.095,275.53 11.835,273.97 11.835,271.45 C11.835,268.93 13.095,267.415 14.97,267.415 C16.845,267.415 18.105,268.93 18.105,271.45 C18.105,273.97 16.845,275.53 14.97,275.53 Z M29.455,277 L29.455,275.305 L23.86,275.305 L23.86,272.065 L28.18,272.065 L27.91,270.4 L23.86,270.4 L23.86,267.64 L29.155,267.64 L29.155,265.9 L21.985,265.9 L21.985,277 L29.455,277 Z" id="ROE-"></path>
                <path d="M40.16,277.565 C38.285,275.855 37.085,273.56 37.085,270.905 C37.085,268.265 38.285,265.97 40.145,264.26 L39.68,263.735 C37.235,265.79 35.945,268.07 35.945,270.905 C35.945,273.755 37.235,276.02 39.68,278.075 L40.16,277.565 Z M44.4,270.41 C45.975,270.41 46.89,269 46.89,267.05 C46.89,265.04 45.945,263.75 44.415,263.75 C42.885,263.75 41.91,265.04 41.91,267.11 C41.91,269.06 42.795,270.41 44.4,270.41 Z M45.42,275 L52.05,263.9 L51.09,263.9 L44.46,275 L45.42,275 Z M44.415,269.6 C43.41,269.6 42.855,268.565 42.855,267.05 C42.855,265.655 43.395,264.56 44.4,264.56 C45.39,264.56 45.945,265.58 45.945,267.08 C45.945,268.49 45.405,269.6 44.415,269.6 Z M52.095,275.15 C53.685,275.15 54.6,273.74 54.6,271.805 C54.6,269.78 53.655,268.49 52.125,268.49 C50.595,268.49 49.605,269.795 49.605,271.85 C49.605,273.8 50.505,275.15 52.095,275.15 Z M52.11,274.34 C51.105,274.34 50.565,273.305 50.565,271.805 C50.565,270.395 51.09,269.3 52.095,269.3 C53.1,269.3 53.64,270.32 53.64,271.82 C53.64,273.23 53.115,274.34 52.11,274.34 Z M56.83,278.075 C59.275,276.02 60.58,273.755 60.58,270.905 C60.58,268.07 59.275,265.79 56.83,263.735 L56.365,264.26 C58.225,265.97 59.44,268.265 59.44,270.905 C59.44,273.56 58.225,275.855 56.365,277.565 L56.83,278.075 Z" id="(%)"></path>
                <path d="M382.5788,11.3151635 L382.5038,10.3551635 L376.5638,10.3551635 C376.6088,9.36516352 377.6288,8.15016352 379.6238,6.87516352 C381.7538,5.52516352 382.4888,4.56516352 382.4888,3.05016352 C382.4888,1.26516352 381.2438,0.00516352196 379.2188,0.00516352196 C377.6138,0.00516352196 376.3688,0.845163522 375.6188,2.37516352 L376.4138,2.90016352 C377.0588,1.58016352 377.9438,0.950163522 379.1738,0.950163522 C380.6738,0.950163522 381.4538,1.83516352 381.4538,3.11016352 C381.4538,4.31016352 380.7788,5.07516352 379.1138,6.12516352 C376.1888,8.00016352 375.3938,9.47016352 375.3938,11.0751635 L375.3938,11.3151635 L382.5788,11.3151635 Z M388.2258,11.5251635 C390.8358,11.5251635 392.2758,9.23016352 392.2758,5.76516352 C392.2758,2.30016352 390.8358,0.00516352196 388.2258,0.00516352196 C385.6158,0.00516352196 384.1458,2.30016352 384.1458,5.76516352 C384.1458,9.23016352 385.6158,11.5251635 388.2258,11.5251635 Z M388.2258,10.5801635 C386.3958,10.5801635 385.2108,8.90016352 385.2108,5.76516352 C385.2108,2.63016352 386.3358,0.950163522 388.2258,0.950163522 C390.0408,0.950163522 391.2258,2.63016352 391.2258,5.76516352 C391.2258,8.90016352 390.1008,10.5801635 388.2258,10.5801635 Z M397.4278,11.3151635 L397.4278,0.215163522 L396.4528,0.215163522 L394.1278,1.04016352 L394.2628,1.92516352 L396.3928,1.20516352 L396.3928,11.3151635 L397.4278,11.3151635 Z M404.1998,11.5251635 C406.4948,11.5251635 407.9198,9.93516352 407.9198,7.83516352 C407.9198,5.82516352 406.7948,4.37016352 404.4548,4.37016352 C403.0448,4.37016352 401.9948,5.09016352 401.2898,5.85516352 C401.2898,3.08016352 402.5498,0.935163522 404.6048,0.935163522 C405.5948,0.935163522 406.1348,1.20516352 406.7348,1.68516352 L407.2298,0.845163522 C406.6448,0.365163522 405.8648,0.00516352196 404.6198,0.00516352196 C402.0698,0.00516352196 400.2548,2.54016352 400.2548,5.96016352 C400.2548,9.77016352 402.0398,11.5251635 404.1998,11.5251635 Z M404.2448,10.6101635 C402.7748,10.6101635 401.5598,9.47016352 401.3348,6.92016352 C402.0398,5.94516352 403.1048,5.28516352 404.3348,5.28516352 C406.1348,5.28516352 406.8848,6.38016352 406.8848,7.85016352 C406.8848,9.59016352 405.8198,10.6101635 404.2448,10.6101635 Z" id="2016"></path>
            </g>
            <path d="M27.9456,125.704856 C30.7716,125.704856 32.5176,123.706856 32.5176,121.042856 C32.5176,118.378856 30.8076,116.686856 28.3956,116.686856 C26.9736,116.686856 26.0916,117.172856 25.4436,117.928856 L25.8036,113.302856 L31.7616,113.302856 L31.7256,112.132856 L24.7416,112.132856 L24.2196,119.098856 L25.1736,119.458856 C25.8936,118.414856 26.8476,117.784856 28.2156,117.784856 C29.9796,117.784856 31.2576,118.972856 31.2576,121.096856 C31.2576,122.860856 30.2316,124.570856 27.9276,124.570856 C26.3256,124.570856 25.2096,123.724856 24.4176,122.518856 L23.5896,123.328856 C24.4716,124.732856 26.0196,125.704856 27.9456,125.704856 Z M35.1556,127.270856 L36.4156,123.760856 L34.8676,123.760856 L34.3996,127.270856 L35.1556,127.270856 Z M47.2796,125.452856 L47.1896,124.300856 L40.0616,124.300856 C40.1156,123.112856 41.3396,121.654856 43.7336,120.124856 C46.2896,118.504856 47.1716,117.352856 47.1716,115.534856 C47.1716,113.392856 45.6776,111.880856 43.2476,111.880856 C41.3216,111.880856 39.8276,112.888856 38.9276,114.724856 L39.8816,115.354856 C40.6556,113.770856 41.7176,113.014856 43.1936,113.014856 C44.9936,113.014856 45.9296,114.076856 45.9296,115.606856 C45.9296,117.046856 45.1196,117.964856 43.1216,119.224856 C39.6116,121.474856 38.6576,123.238856 38.6576,125.164856 L38.6576,125.452856 L47.2796,125.452856 Z" id="5,2" fill="#FFFFFF"></path>
            <g id="Group-22" transform="translate(306.000000, 0.736000)" fill="#FFFFFF">
                <path d="M7.2448,11.3139635 L7.1698,10.3539635 L1.2298,10.3539635 C1.2748,9.36396352 2.2948,8.14896352 4.2898,6.87396352 C6.4198,5.52396352 7.1548,4.56396352 7.1548,3.04896352 C7.1548,1.26396352 5.9098,0.00396352196 3.8848,0.00396352196 C2.2798,0.00396352196 1.0348,0.843963522 0.2848,2.37396352 L1.0798,2.89896352 C1.7248,1.57896352 2.6098,0.948963522 3.8398,0.948963522 C5.3398,0.948963522 6.1198,1.83396352 6.1198,3.10896352 C6.1198,4.30896352 5.4448,5.07396352 3.7798,6.12396352 C0.8548,7.99896352 0.0598,9.46896352 0.0598,11.0739635 L0.0598,11.3139635 L7.2448,11.3139635 Z M12.8918,11.5239635 C15.5018,11.5239635 16.9418,9.22896352 16.9418,5.76396352 C16.9418,2.29896352 15.5018,0.00396352196 12.8918,0.00396352196 C10.2818,0.00396352196 8.8118,2.29896352 8.8118,5.76396352 C8.8118,9.22896352 10.2818,11.5239635 12.8918,11.5239635 Z M12.8918,10.5789635 C11.0618,10.5789635 9.8768,8.89896352 9.8768,5.76396352 C9.8768,2.62896352 11.0018,0.948963522 12.8918,0.948963522 C14.7068,0.948963522 15.8918,2.62896352 15.8918,5.76396352 C15.8918,8.89896352 14.7668,10.5789635 12.8918,10.5789635 Z M22.0938,11.3139635 L22.0938,0.213963522 L21.1188,0.213963522 L18.7938,1.03896352 L18.9288,1.92396352 L21.0588,1.20396352 L21.0588,11.3139635 L22.0938,11.3139635 Z M28.4908,11.5239635 C30.8458,11.5239635 32.3008,9.85896352 32.3008,7.63896352 C32.3008,5.41896352 30.8758,4.00896352 28.8658,4.00896352 C27.6808,4.00896352 26.9458,4.41396352 26.4058,5.04396352 L26.7058,1.18896352 L31.6708,1.18896352 L31.6408,0.213963522 L25.8208,0.213963522 L25.3858,6.01896352 L26.1808,6.31896352 C26.7808,5.44896352 27.5758,4.92396352 28.7158,4.92396352 C30.1858,4.92396352 31.2508,5.91396352 31.2508,7.68396352 C31.2508,9.15396352 30.3958,10.5789635 28.4758,10.5789635 C27.1408,10.5789635 26.2108,9.87396352 25.5508,8.86896352 L24.8608,9.54396352 C25.5958,10.7139635 26.8858,11.5239635 28.4908,11.5239635 Z" id="2015"></path>
            </g>
            <path d="M68.2982,97.8708562 C71.0522,97.8708562 72.7622,95.9628562 72.7622,93.4428562 C72.7622,91.0308562 71.4122,89.2848562 68.6042,89.2848562 C66.9122,89.2848562 65.6522,90.1488562 64.8062,91.0668562 C64.8062,87.7368562 66.3182,85.1628562 68.7842,85.1628562 C69.9722,85.1628562 70.6202,85.4868562 71.3402,86.0628562 L71.9342,85.0548562 C71.2322,84.4788562 70.2962,84.0468562 68.8022,84.0468562 C65.7422,84.0468562 63.5642,87.0888562 63.5642,91.1928562 C63.5642,95.7648562 65.7062,97.8708562 68.2982,97.8708562 Z M68.3522,96.7728562 C66.5882,96.7728562 65.1302,95.4048562 64.8602,92.3448562 C65.7062,91.1748562 66.9842,90.3828562 68.4602,90.3828562 C70.6202,90.3828562 71.5202,91.6968562 71.5202,93.4608562 C71.5202,95.5488562 70.2422,96.7728562 68.3522,96.7728562 Z M75.2202,99.4368562 L76.4802,95.9268562 L74.9322,95.9268562 L74.4642,99.4368562 L75.2202,99.4368562 Z M80.4502,97.6548562 L86.1022,85.3968562 L86.1022,84.2988562 L77.8762,84.2988562 L77.9662,85.4688562 L84.7702,85.4688562 L79.1722,97.5828562 L80.4502,97.6548562 Z" id="6,7" fill="#FFFFFF"></path>
            <path d="M179.4842,115.708856 C182.2382,115.708856 183.9482,113.800856 183.9482,111.280856 C183.9482,108.868856 182.5982,107.122856 179.7902,107.122856 C178.0982,107.122856 176.8382,107.986856 175.9922,108.904856 C175.9922,105.574856 177.5042,103.000856 179.9702,103.000856 C181.1582,103.000856 181.8062,103.324856 182.5262,103.900856 L183.1202,102.892856 C182.4182,102.316856 181.4822,101.884856 179.9882,101.884856 C176.9282,101.884856 174.7502,104.926856 174.7502,109.030856 C174.7502,113.602856 176.8922,115.708856 179.4842,115.708856 Z M179.5382,114.610856 C177.7742,114.610856 176.3162,113.242856 176.0462,110.182856 C176.8922,109.012856 178.1702,108.220856 179.6462,108.220856 C181.8062,108.220856 182.7062,109.534856 182.7062,111.298856 C182.7062,113.386856 181.4282,114.610856 179.5382,114.610856 Z M186.4062,117.274856 L187.6662,113.764856 L186.1182,113.764856 L185.6502,117.274856 L186.4062,117.274856 Z M196.3522,115.456856 L196.3522,112.234856 L198.6202,112.234856 L198.5662,111.100856 L196.3522,111.100856 L196.3522,102.136856 L194.7682,102.136856 L188.7022,111.280856 L188.7022,112.234856 L195.1102,112.234856 L195.1102,115.456856 L196.3522,115.456856 Z M195.0742,103.630856 L195.1102,103.630856 L195.1102,111.100856 L190.1422,111.100856 L195.0742,103.630856 Z" id="6,4" fill="#FFFFFF"></path>
            <path d="M201.0662,74.8848562 C204.0542,74.8848562 205.8002,73.2828562 205.8002,71.3928562 C205.8002,69.4488562 204.5042,68.4948562 202.2362,67.5048562 C204.1262,66.6588562 205.1882,65.8308562 205.1882,64.2468562 C205.1882,62.6088562 203.7302,61.0248562 201.0662,61.0248562 C198.4562,61.0248562 196.9262,62.6088562 196.9262,64.2468562 C196.9262,65.8668562 198.0242,66.7308562 199.8422,67.5408562 C197.6462,68.4948562 196.3142,69.5208562 196.3142,71.3928562 C196.3142,73.3188562 198.0602,74.8848562 201.0662,74.8848562 Z M201.1202,67.0188562 C199.0862,66.1368562 198.1682,65.5068562 198.1682,64.2468562 C198.1682,63.1848562 199.1582,62.1048562 201.0662,62.1048562 C203.0642,62.1048562 203.9462,63.2388562 203.9462,64.3008562 C203.9462,65.5428562 203.1182,66.1548562 201.1202,67.0188562 Z M201.0662,73.8048562 C199.0322,73.8048562 197.5742,72.7788562 197.5742,71.3208562 C197.5742,69.8988562 198.6362,69.0888562 200.9942,68.0448562 C203.2802,68.9988562 204.5402,69.8268562 204.5402,71.3208562 C204.5402,72.8328562 203.0822,73.8048562 201.0662,73.8048562 Z M208.3842,76.4328562 L209.6442,72.9228562 L208.0962,72.9228562 L207.6282,76.4328562 L208.3842,76.4328562 Z M220.5082,74.6148562 L220.4182,73.4628562 L213.2902,73.4628562 C213.3442,72.2748562 214.5682,70.8168562 216.9622,69.2868562 C219.5182,67.6668562 220.4002,66.5148562 220.4002,64.6968562 C220.4002,62.5548562 218.9062,61.0428562 216.4762,61.0428562 C214.5502,61.0428562 213.0562,62.0508562 212.1562,63.8868562 L213.1102,64.5168562 C213.8842,62.9328562 214.9462,62.1768562 216.4222,62.1768562 C218.2222,62.1768562 219.1582,63.2388562 219.1582,64.7688562 C219.1582,66.2088562 218.3482,67.1268562 216.3502,68.3868562 C212.8402,70.6368562 211.8862,72.4008562 211.8862,74.3268562 L211.8862,74.6148562 L220.5082,74.6148562 Z" id="8,2" fill="#FFFFFF"></path>
            <path d="M305.6822,202.702856 C308.8142,202.702856 310.5422,199.948856 310.5422,195.790856 C310.5422,191.632856 308.8142,188.878856 305.6822,188.878856 C302.5502,188.878856 300.7862,191.632856 300.7862,195.790856 C300.7862,199.948856 302.5502,202.702856 305.6822,202.702856 Z M305.6822,201.568856 C303.4862,201.568856 302.0642,199.552856 302.0642,195.790856 C302.0642,192.028856 303.4142,190.012856 305.6822,190.012856 C307.8602,190.012856 309.2822,192.028856 309.2822,195.790856 C309.2822,199.552856 307.9322,201.568856 305.6822,201.568856 Z M313.0002,204.268856 L314.2602,200.758856 L312.7122,200.758856 L312.2442,204.268856 L313.0002,204.268856 Z M322.9462,202.450856 L322.9462,199.228856 L325.2142,199.228856 L325.1602,198.094856 L322.9462,198.094856 L322.9462,189.130856 L321.3622,189.130856 L315.2962,198.274856 L315.2962,199.228856 L321.7042,199.228856 L321.7042,202.450856 L322.9462,202.450856 Z M321.6682,190.624856 L321.7042,190.624856 L321.7042,198.094856 L316.7362,198.094856 L321.6682,190.624856 Z M331.3262,202.702856 C334.0802,202.702856 335.7902,200.794856 335.7902,198.274856 C335.7902,195.862856 334.4402,194.116856 331.6322,194.116856 C329.9402,194.116856 328.6802,194.980856 327.8342,195.898856 C327.8342,192.568856 329.3462,189.994856 331.8122,189.994856 C333.0002,189.994856 333.6482,190.318856 334.3682,190.894856 L334.9622,189.886856 C334.2602,189.310856 333.3242,188.878856 331.8302,188.878856 C328.7702,188.878856 326.5922,191.920856 326.5922,196.024856 C326.5922,200.596856 328.7342,202.702856 331.3262,202.702856 Z M331.3802,201.604856 C329.6162,201.604856 328.1582,200.236856 327.8882,197.176856 C328.7342,196.006856 330.0122,195.214856 331.4882,195.214856 C333.6482,195.214856 334.5482,196.528856 334.5482,198.292856 C334.5482,200.380856 333.2702,201.604856 331.3802,201.604856 Z" id="0,46" fill="#FFFFFF"></path>
            <path d="M358.2422,195.862856 C361.3742,195.862856 363.1022,193.108856 363.1022,188.950856 C363.1022,184.792856 361.3742,182.038856 358.2422,182.038856 C355.1102,182.038856 353.3462,184.792856 353.3462,188.950856 C353.3462,193.108856 355.1102,195.862856 358.2422,195.862856 Z M358.2422,194.728856 C356.0462,194.728856 354.6242,192.712856 354.6242,188.950856 C354.6242,185.188856 355.9742,183.172856 358.2422,183.172856 C360.4202,183.172856 361.8422,185.188856 361.8422,188.950856 C361.8422,192.712856 360.4922,194.728856 358.2422,194.728856 Z M365.5602,197.428856 L366.8202,193.918856 L365.2722,193.918856 L364.8042,197.428856 L365.5602,197.428856 Z M373.2022,195.862856 C375.9562,195.862856 377.6662,193.954856 377.6662,191.434856 C377.6662,189.022856 376.3162,187.276856 373.5082,187.276856 C371.8162,187.276856 370.5562,188.140856 369.7102,189.058856 C369.7102,185.728856 371.2222,183.154856 373.6882,183.154856 C374.8762,183.154856 375.5242,183.478856 376.2442,184.054856 L376.8382,183.046856 C376.1362,182.470856 375.2002,182.038856 373.7062,182.038856 C370.6462,182.038856 368.4682,185.080856 368.4682,189.184856 C368.4682,193.756856 370.6102,195.862856 373.2022,195.862856 Z M373.2562,194.764856 C371.4922,194.764856 370.0342,193.396856 369.7642,190.336856 C370.6102,189.166856 371.8882,188.374856 373.3642,188.374856 C375.5242,188.374856 376.4242,189.688856 376.4242,191.452856 C376.4242,193.540856 375.1462,194.764856 373.2562,194.764856 Z M386.7122,195.610856 L386.7122,192.388856 L388.9802,192.388856 L388.9262,191.254856 L386.7122,191.254856 L386.7122,182.290856 L385.1282,182.290856 L379.0622,191.434856 L379.0622,192.388856 L385.4702,192.388856 L385.4702,195.610856 L386.7122,195.610856 Z M385.4342,183.784856 L385.4702,183.784856 L385.4702,191.254856 L380.5022,191.254856 L385.4342,183.784856 Z" id="0,64" fill="#FFFFFF"></path>
            <path d="M470.1302,196.690856 C473.2622,196.690856 474.9902,193.936856 474.9902,189.778856 C474.9902,185.620856 473.2622,182.866856 470.1302,182.866856 C466.9982,182.866856 465.2342,185.620856 465.2342,189.778856 C465.2342,193.936856 466.9982,196.690856 470.1302,196.690856 Z M470.1302,195.556856 C467.9342,195.556856 466.5122,193.540856 466.5122,189.778856 C466.5122,186.016856 467.8622,184.000856 470.1302,184.000856 C472.3082,184.000856 473.7302,186.016856 473.7302,189.778856 C473.7302,193.540856 472.3802,195.556856 470.1302,195.556856 Z M477.4482,198.256856 L478.7082,194.746856 L477.1602,194.746856 L476.6922,198.256856 L477.4482,198.256856 Z M485.2522,196.708856 C488.2402,196.708856 489.9862,195.106856 489.9862,193.216856 C489.9862,191.272856 488.6902,190.318856 486.4222,189.328856 C488.3122,188.482856 489.3742,187.654856 489.3742,186.070856 C489.3742,184.432856 487.9162,182.848856 485.2522,182.848856 C482.6422,182.848856 481.1122,184.432856 481.1122,186.070856 C481.1122,187.690856 482.2102,188.554856 484.0282,189.364856 C481.8322,190.318856 480.5002,191.344856 480.5002,193.216856 C480.5002,195.142856 482.2462,196.708856 485.2522,196.708856 Z M485.3062,188.842856 C483.2722,187.960856 482.3542,187.330856 482.3542,186.070856 C482.3542,185.008856 483.3442,183.928856 485.2522,183.928856 C487.2502,183.928856 488.1322,185.062856 488.1322,186.124856 C488.1322,187.366856 487.3042,187.978856 485.3062,188.842856 Z M485.2522,195.628856 C483.2182,195.628856 481.7602,194.602856 481.7602,193.144856 C481.7602,191.722856 482.8222,190.912856 485.1802,189.868856 C487.4662,190.822856 488.7262,191.650856 488.7262,193.144856 C488.7262,194.656856 487.2682,195.628856 485.2522,195.628856 Z M493.7942,196.474856 L499.4462,184.216856 L499.4462,183.118856 L491.2202,183.118856 L491.3102,184.288856 L498.1142,184.288856 L492.5162,196.402856 L493.7942,196.474856 Z" id="0,87" fill="#FFFFFF"></path>
            <path d="M518.2622,186.106856 L518.2622,172.786856 L517.0922,172.786856 L514.3022,173.776856 L514.4642,174.838856 L517.0202,173.974856 L517.0202,186.106856 L518.2622,186.106856 Z M523.0242,187.924856 L524.2842,184.414856 L522.7362,184.414856 L522.2682,187.924856 L523.0242,187.924856 Z M530.8462,186.106856 L530.8462,172.786856 L529.6762,172.786856 L526.8862,173.776856 L527.0482,174.838856 L529.6042,173.974856 L529.6042,186.106856 L530.8462,186.106856 Z M538.5242,180.022856 C536.3642,180.022856 535.4642,178.708856 535.4642,176.944856 C535.4642,174.856856 536.7242,173.650856 538.6322,173.650856 C540.3782,173.650856 541.8542,175.000856 542.1242,178.060856 C541.2782,179.230856 540.0002,180.022856 538.5242,180.022856 Z M538.2362,186.358856 C541.2422,186.358856 543.4022,183.316856 543.4022,179.212856 C543.4022,174.640856 541.2782,172.534856 538.6862,172.534856 C535.9322,172.534856 534.2222,174.442856 534.2222,176.962856 C534.2222,179.374856 535.5722,181.120856 538.3802,181.120856 C540.0722,181.120856 541.3142,180.256856 542.1602,179.338856 C542.1782,182.650856 540.6662,185.242856 538.2362,185.242856 C536.8682,185.242856 536.2022,184.846856 535.3742,184.162856 L534.7982,185.170856 C535.5542,185.836856 536.6162,186.358856 538.2362,186.358856 Z" id="1,19" fill="#FFFFFF"></path>
            <polygon id="Fill-23" fill="#2ECDCD" points="394.2333 3.7682 389.6003 13.0342 371.9913 13.0342 376.6243 3.7682"></polygon>
            <polygon id="Fill-24" fill="#2A86CA" points="294.0009 3.7682 289.3679 13.0342 271.7589 13.0342 276.3919 3.7682"></polygon>
            <polygon id="Fill-25" fill-opacity="0.1" fill="url(#linearGradient-5)" points="0 219.013 47.534 239.519 62.805 231.939 18.998 213.765"></polygon>
            <polygon id="Fill-27" fill-opacity="0.1" fill="url(#linearGradient-5)" points="83.808 231.939 40.002 213.764 21.003 219.014 68.538 239.519"></polygon>
            <polygon id="Fill-29" fill-opacity="0.1" fill="url(#linearGradient-6)" points="202.798 231.939 158.991 213.764 139.992 219.014 187.527 239.519"></polygon>
            <polygon id="Fill-31" fill-opacity="0.1" fill="url(#linearGradient-7)" points="224.801 231.939 180.994 213.764 161.996 219.014 209.53 239.519"></polygon>
            <polygon id="Fill-33" fill="#2A86CA" points="46.862 239.9113 62.805 231.9393 62.805 147.2093 46.862 155.1033"></polygon>
            <polygon id="Fill-34" fill="#0064A8" points="46.862 155.1032 62.806 147.1312 46.897 140.7562 30.953 148.7282"></polygon>
            <polygon id="Fill-35" fill="#2ECDCD" points="67.8654 239.9113 83.8084 231.9393 83.8084 121.8233 67.8654 129.6433"></polygon>
            <polygon id="Fill-36" fill="#0064A8" points="67.8654 129.6867 83.8094 121.7147 67.9004 115.3397 51.9564 123.3117"></polygon>
            <g id="Group-38" transform="translate(168.000000, 263.736000)" fill="#FFFFFF">
                <path d="M2.105,14 L2.105,9.62 L4.07,9.62 L6.755,14.15 L8.585,13.85 L5.945,9.38 C7.475,8.99 8.39,8.075 8.39,6.305 C8.39,3.95 6.86,2.9 4.235,2.9 L0.26,2.9 L0.26,14 L2.105,14 Z M2.105,4.61 L4.145,4.61 C5.735,4.61 6.56,5.045 6.56,6.275 C6.56,7.535 5.735,7.985 4.145,7.985 L2.105,7.985 L2.105,4.61 Z M14.97,14.21 C17.64,14.21 19.965,12.185 19.965,8.45 C19.965,4.715 17.64,2.69 14.97,2.69 C12.285,2.69 9.96,4.715 9.96,8.45 C9.96,12.185 12.285,14.21 14.97,14.21 Z M14.97,12.53 C13.095,12.53 11.835,10.97 11.835,8.45 C11.835,5.93 13.095,4.415 14.97,4.415 C16.845,4.415 18.105,5.93 18.105,8.45 C18.105,10.97 16.845,12.53 14.97,12.53 Z M25.9,14 L25.9,4.64 L29.455,4.64 L29.185,2.9 L20.605,2.9 L20.605,4.64 L24.025,4.64 L24.025,14 L25.9,14 Z M38.48,14 L38.48,12.305 L32.885,12.305 L32.885,9.065 L37.205,9.065 L36.935,7.4 L32.885,7.4 L32.885,4.64 L38.18,4.64 L38.18,2.9 L31.01,2.9 L31.01,14 L38.48,14 Z" id="ROTE-"></path>
                <path d="M50.16,14.565 C48.285,12.855 47.085,10.56 47.085,7.905 C47.085,5.265 48.285,2.97 50.145,1.26 L49.68,0.735 C47.235,2.79 45.945,5.07 45.945,7.905 C45.945,10.755 47.235,13.02 49.68,15.075 L50.16,14.565 Z M54.4,7.41 C55.975,7.41 56.89,6 56.89,4.05 C56.89,2.04 55.945,0.75 54.415,0.75 C52.885,0.75 51.91,2.04 51.91,4.11 C51.91,6.06 52.795,7.41 54.4,7.41 Z M55.42,12 L62.05,0.9 L61.09,0.9 L54.46,12 L55.42,12 Z M54.415,6.6 C53.41,6.6 52.855,5.565 52.855,4.05 C52.855,2.655 53.395,1.56 54.4,1.56 C55.39,1.56 55.945,2.58 55.945,4.08 C55.945,5.49 55.405,6.6 54.415,6.6 Z M62.095,12.15 C63.685,12.15 64.6,10.74 64.6,8.805 C64.6,6.78 63.655,5.49 62.125,5.49 C60.595,5.49 59.605,6.795 59.605,8.85 C59.605,10.8 60.505,12.15 62.095,12.15 Z M62.11,11.34 C61.105,11.34 60.565,10.305 60.565,8.805 C60.565,7.395 61.09,6.3 62.095,6.3 C63.1,6.3 63.64,7.32 63.64,8.82 C63.64,10.23 63.115,11.34 62.11,11.34 Z M66.83,15.075 C69.275,13.02 70.58,10.755 70.58,7.905 C70.58,5.07 69.275,2.79 66.83,0.735 L66.365,1.26 C68.225,2.97 69.44,5.265 69.44,7.905 C69.44,10.56 68.225,12.855 66.365,14.565 L66.83,15.075 Z" id="(%)"></path>
            </g>
            <polygon id="Fill-39" fill="#2A86CA" points="186.8544 239.9113 202.7974 231.9393 202.7974 168.2733 186.8544 156.2453"></polygon>
            <polygon id="Fill-40" fill="#0064A8" points="186.8544 149.0456 202.7984 141.0736 186.8894 134.6986 170.9454 142.6706"></polygon>
            <polygon id="Fill-41" fill="#2A86CA" points="186.8544 149.0456 186.8544 156.2456 202.7974 168.2736 202.7974 141.0736"></polygon>
            <polygon id="Fill-42" fill="#2ECDCD" points="208.8578 239.9113 224.8008 231.9393 224.8008 148.2733 208.8578 156.2453"></polygon>
            <polygon id="Fill-43" fill="#0064A8" points="208.8578 105.0158 224.8018 97.0438 208.8928 90.6688 192.9488 98.6408"></polygon>
            <polygon id="Fill-44" fill="#2ECDCD" points="208.8578 105.0158 208.8578 156.2448 224.8008 148.2738 224.8008 97.0438"></polygon>
            <path d="M683.4241,74.0261562 C686.2501,74.0261562 687.9961,72.0281562 687.9961,69.3641562 C687.9961,66.7001562 686.2861,65.0081562 683.8741,65.0081562 C682.4521,65.0081562 681.5701,65.4941562 680.9221,66.2501562 L681.2821,61.6241562 L687.2401,61.6241562 L687.2041,60.4541562 L680.2201,60.4541562 L679.6981,67.4201562 L680.6521,67.7801562 C681.3721,66.7361562 682.3261,66.1061562 683.6941,66.1061562 C685.4581,66.1061562 686.7361,67.2941562 686.7361,69.4181562 C686.7361,71.1821562 685.7101,72.8921562 683.4061,72.8921562 C681.8041,72.8921562 680.6881,72.0461562 679.8961,70.8401562 L679.0681,71.6501562 C679.9501,73.0541562 681.4981,74.0261562 683.4241,74.0261562 Z M693.9821,73.7741562 L693.9821,60.4541562 L692.8121,60.4541562 L690.0221,61.4441562 L690.1841,62.5061562 L692.7401,61.6421562 L692.7401,73.7741562 L693.9821,73.7741562 Z M698.7441,75.5921562 L700.0041,72.0821562 L698.4561,72.0821562 L697.9881,75.5921562 L698.7441,75.5921562 Z M706.4941,67.6901562 C704.3341,67.6901562 703.4341,66.3761562 703.4341,64.6121562 C703.4341,62.5241562 704.6941,61.3181562 706.6021,61.3181562 C708.3481,61.3181562 709.8241,62.6681562 710.0941,65.7281562 C709.2481,66.8981562 707.9701,67.6901562 706.4941,67.6901562 Z M706.2061,74.0261562 C709.2121,74.0261562 711.3721,70.9841562 711.3721,66.8801562 C711.3721,62.3081562 709.2481,60.2021562 706.6561,60.2021562 C703.9021,60.2021562 702.1921,62.1101562 702.1921,64.6301562 C702.1921,67.0421562 703.5421,68.7881562 706.3501,68.7881562 C708.0421,68.7881562 709.2841,67.9241562 710.1301,67.0061562 C710.1481,70.3181562 708.6361,72.9101562 706.2061,72.9101562 C704.8381,72.9101562 704.1721,72.5141562 703.3441,71.8301562 L702.7681,72.8381562 C703.5241,73.5041562 704.5861,74.0261562 706.2061,74.0261562 Z" id="51,9" fill="#FFFFFF"></path>
            <path d="M610.4341,70.8041562 C613.2601,70.8041562 615.0061,68.8061562 615.0061,66.1421562 C615.0061,63.4781562 613.2961,61.7861562 610.8841,61.7861562 C609.4621,61.7861562 608.5801,62.2721562 607.9321,63.0281562 L608.2921,58.4021562 L614.2501,58.4021562 L614.2141,57.2321562 L607.2301,57.2321562 L606.7081,64.1981562 L607.6621,64.5581562 C608.3821,63.5141562 609.3361,62.8841562 610.7041,62.8841562 C612.4681,62.8841562 613.7461,64.0721562 613.7461,66.1961562 C613.7461,67.9601562 612.7201,69.6701562 610.4161,69.6701562 C608.8141,69.6701562 607.6981,68.8241562 606.9061,67.6181562 L606.0781,68.4281562 C606.9601,69.8321562 608.5081,70.8041562 610.4341,70.8041562 Z M625.2941,70.5521562 L625.2041,69.4001562 L618.0761,69.4001562 C618.1301,68.2121562 619.3541,66.7541562 621.7481,65.2241562 C624.3041,63.6041562 625.1861,62.4521562 625.1861,60.6341562 C625.1861,58.4921562 623.6921,56.9801562 621.2621,56.9801562 C619.3361,56.9801562 617.8421,57.9881562 616.9421,59.8241562 L617.8961,60.4541562 C618.6701,58.8701562 619.7321,58.1141562 621.2081,58.1141562 C623.0081,58.1141562 623.9441,59.1761562 623.9441,60.7061562 C623.9441,62.1461562 623.1341,63.0641562 621.1361,64.3241562 C617.6261,66.5741562 616.6721,68.3381562 616.6721,70.2641562 L616.6721,70.5521562 L625.2941,70.5521562 Z M628.5441,72.3701562 L629.8041,68.8601562 L628.2561,68.8601562 L627.7881,72.3701562 L628.5441,72.3701562 Z M636.3481,70.8041562 C639.4801,70.8041562 641.2081,68.0501562 641.2081,63.8921562 C641.2081,59.7341562 639.4801,56.9801562 636.3481,56.9801562 C633.2161,56.9801562 631.4521,59.7341562 631.4521,63.8921562 C631.4521,68.0501562 633.2161,70.8041562 636.3481,70.8041562 Z M636.3481,69.6701562 C634.1521,69.6701562 632.7301,67.6541562 632.7301,63.8921562 C632.7301,60.1301562 634.0801,58.1141562 636.3481,58.1141562 C638.5261,58.1141562 639.9481,60.1301562 639.9481,63.8921562 C639.9481,67.6541562 638.5981,69.6701562 636.3481,69.6701562 Z" id="52,0" fill="#FFFFFF"></path>
            <g id="Group-46" transform="translate(317.000000, 263.736000)" fill="#FFFFFF">
                <path d="M303.73,14 L303.73,12.305 L298.135,12.305 L298.135,9.065 L302.455,9.065 L302.185,7.4 L298.135,7.4 L298.135,4.64 L303.43,4.64 L303.43,2.9 L296.26,2.9 L296.26,14 L303.73,14 Z M307.475,14 L307.475,9.275 L311.51,9.275 L311.24,7.61 L307.475,7.61 L307.475,4.64 L312.59,4.64 L312.59,2.9 L305.6,2.9 L305.6,14 L307.475,14 Z M316.35,14 L316.35,2.9 L314.49,2.9 L314.49,14 L316.35,14 Z M323.41,14.21 C325.735,14.21 327.085,13.025 327.745,11.195 L326.125,10.46 C325.69,11.705 324.79,12.53 323.41,12.53 C321.475,12.53 320.365,10.97 320.365,8.405 C320.365,5.975 321.415,4.415 323.305,4.415 C324.64,4.415 325.45,5.165 325.885,6.2 L327.475,5.255 C326.71,3.605 325.405,2.69 323.305,2.69 C320.575,2.69 318.49,4.775 318.49,8.42 C318.49,12.17 320.545,14.21 323.41,14.21 Z M331.7,14 L331.7,2.9 L329.84,2.9 L329.84,14 L331.7,14 Z M341.85,14 L341.85,12.305 L336.255,12.305 L336.255,9.065 L340.575,9.065 L340.305,7.4 L336.255,7.4 L336.255,4.64 L341.55,4.64 L341.55,2.9 L334.38,2.9 L334.38,14 L341.85,14 Z M345.445,14 L345.445,5.915 L345.475,5.915 L350.935,14 L352.645,14 L352.645,2.9 L350.905,2.9 L350.905,10.835 L350.875,10.835 L345.625,2.9 L343.72,2.9 L343.72,14 L345.445,14 Z M359.57,14.21 C361.895,14.21 363.245,13.025 363.905,11.195 L362.285,10.46 C361.85,11.705 360.95,12.53 359.57,12.53 C357.635,12.53 356.525,10.97 356.525,8.405 C356.525,5.975 357.575,4.415 359.465,4.415 C360.8,4.415 361.61,5.165 362.045,6.2 L363.635,5.255 C362.87,3.605 361.565,2.69 359.465,2.69 C356.735,2.69 354.65,4.775 354.65,8.42 C354.65,12.17 356.705,14.21 359.57,14.21 Z M367.86,14 L367.86,2.9 L366,2.9 L366,14 L367.86,14 Z M371.395,14 L372.325,11.36 L376.54,11.36 L377.485,14.15 L379.3,13.85 L375.415,2.855 L373.585,2.855 L369.655,14 L371.395,14 Z M374.44,5.21 L374.47,5.21 L376,9.71 L372.88,9.71 L374.44,5.21 Z" id="EFICIENCIA-"></path>
                <path d="M392.16,14.565 C390.285,12.855 389.085,10.56 389.085,7.905 C389.085,5.265 390.285,2.97 392.145,1.26 L391.68,0.735 C389.235,2.79 387.945,5.07 387.945,7.905 C387.945,10.755 389.235,13.02 391.68,15.075 L392.16,14.565 Z M396.4,7.41 C397.975,7.41 398.89,6 398.89,4.05 C398.89,2.04 397.945,0.75 396.415,0.75 C394.885,0.75 393.91,2.04 393.91,4.11 C393.91,6.06 394.795,7.41 396.4,7.41 Z M397.42,12 L404.05,0.9 L403.09,0.9 L396.46,12 L397.42,12 Z M396.415,6.6 C395.41,6.6 394.855,5.565 394.855,4.05 C394.855,2.655 395.395,1.56 396.4,1.56 C397.39,1.56 397.945,2.58 397.945,4.08 C397.945,5.49 397.405,6.6 396.415,6.6 Z M404.095,12.15 C405.685,12.15 406.6,10.74 406.6,8.805 C406.6,6.78 405.655,5.49 404.125,5.49 C402.595,5.49 401.605,6.795 401.605,8.85 C401.605,10.8 402.505,12.15 404.095,12.15 Z M404.11,11.34 C403.105,11.34 402.565,10.305 402.565,8.805 C402.565,7.395 403.09,6.3 404.095,6.3 C405.1,6.3 405.64,7.32 405.64,8.82 C405.64,10.23 405.115,11.34 404.11,11.34 Z M408.83,15.075 C411.275,13.02 412.58,10.755 412.58,7.905 C412.58,5.07 411.275,2.79 408.83,0.735 L408.365,1.26 C410.225,2.97 411.44,5.265 411.44,7.905 C411.44,10.56 410.225,12.855 408.365,14.565 L408.83,15.075 Z" id="(%)"></path>
                <path d="M2.105,14 L2.105,9.62 L4.07,9.62 L6.755,14.15 L8.585,13.85 L5.945,9.38 C7.475,8.99 8.39,8.075 8.39,6.305 C8.39,3.95 6.86,2.9 4.235,2.9 L0.26,2.9 L0.26,14 L2.105,14 Z M2.105,4.61 L4.145,4.61 C5.735,4.61 6.56,5.045 6.56,6.275 C6.56,7.535 5.735,7.985 4.145,7.985 L2.105,7.985 L2.105,4.61 Z M14.97,14.21 C17.64,14.21 19.965,12.185 19.965,8.45 C19.965,4.715 17.64,2.69 14.97,2.69 C12.285,2.69 9.96,4.715 9.96,8.45 C9.96,12.185 12.285,14.21 14.97,14.21 Z M14.97,12.53 C13.095,12.53 11.835,10.97 11.835,8.45 C11.835,5.93 13.095,4.415 14.97,4.415 C16.845,4.415 18.105,5.93 18.105,8.45 C18.105,10.97 16.845,12.53 14.97,12.53 Z M22.24,14 L23.17,11.36 L27.385,11.36 L28.33,14.15 L30.145,13.85 L26.26,2.855 L24.43,2.855 L20.5,14 L22.24,14 Z M25.285,5.21 L25.315,5.21 L26.845,9.71 L23.725,9.71 L25.285,5.21 Z" id="ROA-"></path>
                <path d="M42.16,14.565 C40.285,12.855 39.085,10.56 39.085,7.905 C39.085,5.265 40.285,2.97 42.145,1.26 L41.68,0.735 C39.235,2.79 37.945,5.07 37.945,7.905 C37.945,10.755 39.235,13.02 41.68,15.075 L42.16,14.565 Z M46.4,7.41 C47.975,7.41 48.89,6 48.89,4.05 C48.89,2.04 47.945,0.75 46.415,0.75 C44.885,0.75 43.91,2.04 43.91,4.11 C43.91,6.06 44.795,7.41 46.4,7.41 Z M47.42,12 L54.05,0.9 L53.09,0.9 L46.46,12 L47.42,12 Z M46.415,6.6 C45.41,6.6 44.855,5.565 44.855,4.05 C44.855,2.655 45.395,1.56 46.4,1.56 C47.39,1.56 47.945,2.58 47.945,4.08 C47.945,5.49 47.405,6.6 46.415,6.6 Z M54.095,12.15 C55.685,12.15 56.6,10.74 56.6,8.805 C56.6,6.78 55.655,5.49 54.125,5.49 C52.595,5.49 51.605,6.795 51.605,8.85 C51.605,10.8 52.505,12.15 54.095,12.15 Z M54.11,11.34 C53.105,11.34 52.565,10.305 52.565,8.805 C52.565,7.395 53.09,6.3 54.095,6.3 C55.1,6.3 55.64,7.32 55.64,8.82 C55.64,10.23 55.115,11.34 54.11,11.34 Z M58.83,15.075 C61.275,13.02 62.58,10.755 62.58,7.905 C62.58,5.07 61.275,2.79 58.83,0.735 L58.365,1.26 C60.225,2.97 61.44,5.265 61.44,7.905 C61.44,10.56 60.225,12.855 58.365,14.565 L58.83,15.075 Z" id="(%)"></path>
            </g>
            <polygon id="Fill-47" fill-opacity="0.1" fill="url(#linearGradient-8)" points="352.282 231.939 308.475 213.764 289.477 219.014 337.012 239.519"></polygon>
            <polygon id="Fill-49" fill="#2A86CA" points="336.339 239.9113 352.282 231.9393 352.282 224.9173 336.339 232.6673"></polygon>
            <polygon id="Fill-50" fill="#0064A8" points="336.339 232.7174 352.283 224.7454 336.374 218.3704 320.43 226.3424"></polygon>
            <g id="Group-52" transform="translate(471.000000, 263.736000)" fill="#FFFFFF">
                <path d="M2.105,14 L2.105,9.62 L4.07,9.62 L6.755,14.15 L8.585,13.85 L5.945,9.38 C7.475,8.99 8.39,8.075 8.39,6.305 C8.39,3.95 6.86,2.9 4.235,2.9 L0.26,2.9 L0.26,14 L2.105,14 Z M2.105,4.61 L4.145,4.61 C5.735,4.61 6.56,5.045 6.56,6.275 C6.56,7.535 5.735,7.985 4.145,7.985 L2.105,7.985 L2.105,4.61 Z M14.97,14.21 C17.64,14.21 19.965,12.185 19.965,8.45 C19.965,4.715 17.64,2.69 14.97,2.69 C12.285,2.69 9.96,4.715 9.96,8.45 C9.96,12.185 12.285,14.21 14.97,14.21 Z M14.97,12.53 C13.095,12.53 11.835,10.97 11.835,8.45 C11.835,5.93 13.095,4.415 14.97,4.415 C16.845,4.415 18.105,5.93 18.105,8.45 C18.105,10.97 16.845,12.53 14.97,12.53 Z M23.83,14 L23.83,9.62 L25.795,9.62 L28.48,14.15 L30.31,13.85 L27.67,9.38 C29.2,8.99 30.115,8.075 30.115,6.305 C30.115,3.95 28.585,2.9 25.96,2.9 L21.985,2.9 L21.985,14 L23.83,14 Z M23.83,4.61 L25.87,4.61 C27.46,4.61 28.285,5.045 28.285,6.275 C28.285,7.535 27.46,7.985 25.87,7.985 L23.83,7.985 L23.83,4.61 Z M35.855,14 L37.94,5.48 L37.97,5.48 L39.98,14 L41.615,14 L44.525,2.9 L42.785,2.9 L41.405,8.75 C41.18,9.68 41.015,10.28 40.85,11.225 L40.82,11.225 C40.67,10.31 40.475,9.635 40.25,8.705 L38.855,2.9 L37.07,2.9 L35.735,8.66 C35.51,9.545 35.3,10.385 35.165,11.225 L35.135,11.225 C34.985,10.355 34.775,9.545 34.535,8.645 L33.095,2.75 L31.28,3.05 L34.205,14 L35.855,14 Z M46.35,14 L47.28,11.36 L51.495,11.36 L52.44,14.15 L54.255,13.85 L50.37,2.855 L48.54,2.855 L44.61,14 L46.35,14 Z M49.395,5.21 L49.425,5.21 L50.955,9.71 L47.835,9.71 L49.395,5.21 Z" id="RORWA-"></path>
                <path d="M67.16,14.565 C65.285,12.855 64.085,10.56 64.085,7.905 C64.085,5.265 65.285,2.97 67.145,1.26 L66.68,0.735 C64.235,2.79 62.945,5.07 62.945,7.905 C62.945,10.755 64.235,13.02 66.68,15.075 L67.16,14.565 Z M71.4,7.41 C72.975,7.41 73.89,6 73.89,4.05 C73.89,2.04 72.945,0.75 71.415,0.75 C69.885,0.75 68.91,2.04 68.91,4.11 C68.91,6.06 69.795,7.41 71.4,7.41 Z M72.42,12 L79.05,0.9 L78.09,0.9 L71.46,12 L72.42,12 Z M71.415,6.6 C70.41,6.6 69.855,5.565 69.855,4.05 C69.855,2.655 70.395,1.56 71.4,1.56 C72.39,1.56 72.945,2.58 72.945,4.08 C72.945,5.49 72.405,6.6 71.415,6.6 Z M79.095,12.15 C80.685,12.15 81.6,10.74 81.6,8.805 C81.6,6.78 80.655,5.49 79.125,5.49 C77.595,5.49 76.605,6.795 76.605,8.85 C76.605,10.8 77.505,12.15 79.095,12.15 Z M79.11,11.34 C78.105,11.34 77.565,10.305 77.565,8.805 C77.565,7.395 78.09,6.3 79.095,6.3 C80.1,6.3 80.64,7.32 80.64,8.82 C80.64,10.23 80.115,11.34 79.11,11.34 Z M83.83,15.075 C86.275,13.02 87.58,10.755 87.58,7.905 C87.58,5.07 86.275,2.79 83.83,0.735 L83.365,1.26 C85.225,2.97 86.44,5.265 86.44,7.905 C86.44,10.56 85.225,12.855 83.365,14.565 L83.83,15.075 Z" id="(%)"></path>
            </g>
            <polygon id="Fill-53" fill-opacity="0.1" fill="url(#linearGradient-9)" points="512.524 231.939 468.718 213.764 449.719 219.014 497.254 239.519"></polygon>
            <polygon id="Fill-55" fill="#2A86CA" points="496.5812 239.9113 512.5242 231.9393 512.5242 217.8733 496.5812 225.7923"></polygon>
            <polygon id="Fill-56" fill="#0064A8" points="496.5812 225.8424 512.5252 217.8704 496.6162 211.4954 480.6722 219.4674"></polygon>
        </g>
    </g>
</svg>