<?xml version="1.0" encoding="UTF-8" standalone="no"?>
<svg width="733px" height="352px" viewBox="0 0 733 352" version="1.1" xmlns="http://www.w3.org/2000/svg" xmlns:xlink="http://www.w3.org/1999/xlink">
    <!-- Generator: Sketch 41.2 (35397) - http://www.bohemiancoding.com/sketch -->
    <title>des_financiero_solvencia</title>
    <desc>Created with Sketch.</desc>
    <defs>
        <linearGradient x1="46.3677174%" y1="26.9652287%" x2="56.0939083%" y2="86.0731585%" id="linearGradient-1">
            <stop stop-color="#000000" stop-opacity="0" offset="0%"></stop>
            <stop stop-color="#000000" stop-opacity="0.5" offset="100%"></stop>
        </linearGradient>
        <linearGradient x1="46.3678331%" y1="26.9652287%" x2="56.0937143%" y2="86.0731585%" id="linearGradient-2">
            <stop stop-color="#000000" stop-opacity="0" offset="0%"></stop>
            <stop stop-color="#000000" stop-opacity="0.5" offset="100%"></stop>
        </linearGradient>
    </defs>
    <g id="Page-1" stroke="none" stroke-width="1" fill="none" fill-rule="evenodd">
        <g id="des_financiero_solvencia" transform="translate(-2.000000, -1.000000)">
            <g id="CET1-(Fully-loaded)" transform="translate(1.000000, 303.000000)" fill="#FFFFFF">
                <path d="M5.9051,11.999964 C8.2301,11.999964 9.5801,10.814964 10.2401,8.984964 L8.6201,8.249964 C8.1851,9.494964 7.2851,10.319964 5.9051,10.319964 C3.9701,10.319964 2.8601,8.759964 2.8601,6.194964 C2.8601,3.764964 3.9101,2.204964 5.8001,2.204964 C7.1351,2.204964 7.9451,2.954964 8.3801,3.989964 L9.9701,3.044964 C9.2051,1.394964 7.9001,0.479964 5.8001,0.479964 C3.0701,0.479964 0.9851,2.564964 0.9851,6.209964 C0.9851,9.959964 3.0401,11.999964 5.9051,11.999964 Z M19.6451,11.789964 L19.6451,10.094964 L14.0501,10.094964 L14.0501,6.854964 L18.3701,6.854964 L18.1001,5.189964 L14.0501,5.189964 L14.0501,2.429964 L19.3451,2.429964 L19.3451,0.689964 L12.1751,0.689964 L12.1751,11.789964 L19.6451,11.789964 Z M25.9301,11.789964 L25.9301,2.429964 L29.4851,2.429964 L29.2151,0.689964 L20.6351,0.689964 L20.6351,2.429964 L24.0551,2.429964 L24.0551,11.789964 L25.9301,11.789964 Z M34.5551,11.789964 L34.5551,0.689964 L32.8151,0.689964 L30.3851,1.454964 L30.6251,2.984964 L32.7551,2.384964 L32.7551,11.789964 L34.5551,11.789964 Z M45.7001,14.009964 C44.0351,12.359964 42.9551,10.154964 42.9551,7.589964 C42.9551,5.039964 44.0201,2.879964 45.6401,1.214964 L44.8001,0.314964 C42.3551,2.369964 41.0051,4.649964 41.0051,7.589964 C41.0051,10.529964 42.3551,12.809964 44.8001,14.864964 L45.7001,14.009964 Z" id="CET1-("></path>
                <path d="M48.5501,11.789964 L49.3751,7.064964 L53.2301,7.064964 L53.2301,5.399964 L49.6751,5.399964 L50.1851,2.429964 L55.1501,2.429964 L55.4651,0.689964 L48.6251,0.689964 L46.6751,11.789964 L48.5501,11.789964 Z M56.4701,11.954964 C57.6701,11.954964 58.6901,11.294964 59.2301,10.664964 L59.1851,11.789964 L60.8801,11.789964 L62.2901,3.824964 L60.4451,3.824964 L59.4551,9.419964 C58.8251,10.004964 58.0751,10.409964 57.3851,10.409964 C56.4701,10.409964 56.1701,9.959964 56.3201,9.089964 L57.2501,3.824964 L55.4051,3.824964 L54.4151,9.449964 C54.1451,11.024964 54.8801,11.954964 56.4701,11.954964 Z M64.8701,11.789964 L66.8501,0.539964 L64.9451,0.839964 L63.0251,11.789964 L64.8701,11.789964 Z M68.9501,11.789964 L70.9301,0.539964 L69.0251,0.839964 L67.1051,11.789964 L68.9501,11.789964 Z M71.7101,14.879964 C72.9401,14.879964 73.6301,14.249964 74.3201,12.989964 L79.3901,3.824964 L77.5451,3.824964 L74.5451,9.629964 L74.5151,9.629964 L73.5401,3.674964 L71.6951,3.974964 L73.2101,11.834964 L72.8501,12.494964 C72.5651,13.034964 72.2201,13.334964 71.6351,13.334964 C71.2301,13.334964 70.6301,13.154964 70.3751,13.034964 L69.7601,14.534964 C70.1501,14.699964 70.8251,14.879964 71.7101,14.879964 Z M83.2301,7.739964 L83.4701,6.419964 L79.7651,6.419964 L79.5251,7.739964 L83.2301,7.739964 Z M86.2901,11.789964 L88.2701,0.539964 L86.3651,0.839964 L84.4451,11.789964 L86.2901,11.789964 Z M92.0351,11.954964 C94.0601,11.954964 96.4001,10.559964 96.4001,7.109964 C96.4001,4.829964 94.8551,3.674964 92.9801,3.674964 C90.9701,3.674964 88.6151,5.024964 88.6151,8.504964 C88.6151,10.769964 90.1601,11.954964 92.0351,11.954964 Z M92.1851,10.454964 C90.9551,10.454964 90.4751,9.674964 90.4751,8.534964 C90.4751,6.419964 91.5101,5.204964 92.8151,5.204964 C94.0301,5.204964 94.5401,5.999964 94.5401,7.139964 C94.5401,9.284964 93.4751,10.454964 92.1851,10.454964 Z M99.8801,10.499964 C99.1601,10.499964 98.7701,10.139964 98.7701,9.614964 C98.7701,8.654964 99.6401,8.054964 102.3851,7.829964 L102.0851,9.569964 C101.4101,10.124964 100.6901,10.499964 99.8801,10.499964 Z M99.0851,11.924964 C100.0001,11.924964 100.9751,11.594964 101.8751,10.769964 L101.8751,11.789964 L103.5101,11.789964 L104.4101,6.704964 C104.7251,4.919964 104.0801,3.674964 101.7401,3.674964 C100.0301,3.674964 98.7551,4.214964 98.0351,4.844964 L98.8451,5.984964 C99.5501,5.444964 100.5251,5.189964 101.3951,5.189964 C102.4301,5.189964 102.8201,5.564964 102.6551,6.359964 L102.6101,6.584964 C98.6201,6.824964 96.8951,8.069964 96.8951,9.989964 C96.8951,11.144964 97.7351,11.924964 99.0851,11.924964 Z M109.1051,10.454964 C108.0851,10.454964 107.5001,9.809964 107.5001,8.624964 C107.5001,6.149964 108.7901,5.249964 109.8251,5.249964 C110.6351,5.249964 111.1901,5.564964 111.6101,6.044964 L110.9951,9.494964 C110.4251,10.109964 109.7951,10.454964 109.1051,10.454964 Z M108.3551,11.924964 C109.4201,11.924964 110.2151,11.474964 110.7701,10.739964 L110.7701,11.789964 L112.4351,11.789964 L114.4151,0.539964 L112.5101,0.839964 L111.8651,4.589964 C111.3701,4.049964 110.5601,3.674964 109.3901,3.674964 C107.6201,3.674964 105.6401,5.234964 105.6401,8.774964 C105.6401,10.964964 106.8701,11.924964 108.3551,11.924964 Z M118.0901,11.954964 C119.7101,11.954964 120.6551,11.429964 121.5401,10.604964 L120.7601,9.434964 C119.9351,10.109964 119.3201,10.484964 118.3301,10.484964 C117.4751,10.484964 116.4701,10.154964 116.4701,8.594964 L116.4701,8.414964 L121.7951,8.414964 L121.8701,7.979964 C122.3351,5.309964 121.3301,3.674964 118.9451,3.674964 C117.4901,3.674964 114.6701,4.724964 114.6701,8.564964 C114.6701,10.799964 116.0951,11.954964 118.0901,11.954964 Z M116.6651,7.034964 C117.0401,5.774964 117.8801,5.174964 118.8101,5.174964 C120.1001,5.174964 120.4751,5.909964 120.3551,7.034964 L116.6651,7.034964 Z M126.4301,10.454964 C125.4101,10.454964 124.8251,9.809964 124.8251,8.624964 C124.8251,6.149964 126.1151,5.249964 127.1501,5.249964 C127.9601,5.249964 128.5151,5.564964 128.9351,6.044964 L128.3201,9.494964 C127.7501,10.109964 127.1201,10.454964 126.4301,10.454964 Z M125.6801,11.924964 C126.7451,11.924964 127.5401,11.474964 128.0951,10.739964 L128.0951,11.789964 L129.7601,11.789964 L131.7401,0.539964 L129.8351,0.839964 L129.1901,4.589964 C128.6951,4.049964 127.8851,3.674964 126.7151,3.674964 C124.9451,3.674964 122.9651,5.234964 122.9651,8.774964 C122.9651,10.964964 124.1951,11.924964 125.6801,11.924964 Z" id="Fully-loaded"></path>
                <path d="M133.5101,14.864964 C135.9551,12.809964 137.3051,10.529964 137.3051,7.589964 C137.3051,4.649964 135.9551,2.369964 133.5101,0.314964 L132.6551,1.214964 C134.2901,2.879964 135.3551,5.039964 135.3551,7.589964 C135.3551,10.154964 134.2751,12.359964 132.6251,14.009964 L133.5101,14.864964 Z" id=")"></path>
            </g>
            <g id="Group-3" transform="translate(4.000000, 333.915000)">
                <g id="+58pb" transform="translate(25.000000, 1.000000)" fill="#FFFFFF">
                    <path d="M6.383,12.5414562 L6.383,8.9414562 L9.839,8.9414562 L9.839,6.6554562 L6.383,6.6554562 L6.383,3.0554562 L4.079,3.0554562 L4.079,6.6554562 L0.623,6.6554562 L0.623,8.9414562 L4.079,8.9414562 L4.079,12.5414562 L6.383,12.5414562 Z M16.319,14.3594562 C19.595,14.3594562 21.593,12.4154562 21.593,9.5714562 C21.593,6.9794562 20.099,5.1254562 17.255,5.1254562 C15.905,5.1254562 15.023,5.5214562 14.573,5.9534562 L14.825,3.0014562 L20.693,3.0014562 L20.477,0.7874562 L12.575,0.7874562 L12.035,7.9514562 L13.925,8.5454562 C14.609,7.6994562 15.473,7.2674562 16.373,7.2674562 C17.885,7.2674562 18.677,8.1674562 18.677,9.6794562 C18.677,11.0474562 17.903,12.0374562 16.139,12.0374562 C14.843,12.0374562 13.565,11.4074562 12.647,10.5974562 L11.459,12.6854562 C12.629,13.6934562 14.177,14.3594562 16.319,14.3594562 Z M27.749,14.3594562 C31.097,14.3594562 33.095,12.9554562 33.095,10.6694562 C33.095,8.6714562 31.889,7.8254562 30.179,7.0694562 C31.619,6.4214562 32.483,5.3054562 32.483,3.9014562 C32.483,2.2274562 30.989,0.5354562 27.749,0.5354562 C24.599,0.5354562 22.997,2.2094562 22.997,3.9014562 C22.997,5.5934562 23.879,6.4034562 25.337,7.1594562 C23.717,7.8254562 22.385,8.9954562 22.385,10.6694562 C22.385,12.9734562 24.401,14.3594562 27.749,14.3594562 Z M27.947,6.1154562 C26.615,5.5934562 25.841,5.1254562 25.841,4.1174562 C25.841,3.3794562 26.381,2.6054562 27.767,2.6054562 C29.153,2.6054562 29.657,3.4694562 29.657,4.1714562 C29.657,5.0174562 29.153,5.5214562 27.947,6.1154562 Z M27.749,12.3614562 C26.219,12.3614562 25.337,11.5154562 25.337,10.5074562 C25.337,9.5534562 26.165,8.8514562 27.533,8.1854562 C29.351,8.9234562 30.161,9.4814562 30.161,10.5074562 C30.161,11.5334562 29.279,12.3614562 27.749,12.3614562 Z M39.413,12.0734562 C38.639,12.0734562 38.117,11.7854562 37.487,11.1914562 L37.487,7.6454562 C37.973,7.1594562 38.639,6.7094562 39.377,6.7094562 C40.673,6.7094562 41.231,7.7174562 41.231,9.3194562 C41.231,11.0654562 40.619,12.0734562 39.413,12.0734562 Z M37.487,17.4914562 L37.487,12.9734562 C38.207,13.7834562 39.107,14.2514562 40.403,14.2514562 C42.599,14.2514562 44.129,12.6134562 44.129,9.3014562 C44.129,5.9894562 42.617,4.3154562 40.439,4.3154562 C39.017,4.3154562 38.117,5.1074562 37.487,5.9714562 L37.271,4.5134562 L34.589,4.5134562 L34.589,17.9234562 L37.487,17.4914562 Z M51.635,14.2514562 C53.831,14.2514562 55.361,12.6134562 55.361,9.3014562 C55.361,5.9894562 53.849,4.3154562 51.671,4.3154562 C50.249,4.3154562 49.349,5.1074562 48.719,5.9894562 L48.719,0.5714562 L45.821,1.0034562 L45.821,14.1074562 L48.503,14.1074562 L48.719,12.9734562 C49.439,13.7834562 50.339,14.2514562 51.635,14.2514562 Z M50.645,12.0734562 C49.871,12.0734562 49.349,11.7854562 48.719,11.1914562 L48.719,7.6454562 C49.205,7.1594562 49.871,6.7094562 50.609,6.7094562 C51.905,6.7094562 52.463,7.7174562 52.463,9.3194562 C52.463,11.0654562 51.851,12.0734562 50.645,12.0734562 Z"></path>
                </g>
                <path d="M14.4937,7.8994 L13.3957,8.9974 L10.5237,6.1184 L10.5547,15.4484 L9.0417,13.9124 L9.0417,6.0944 L6.0927,9.0284 L4.9867,7.9294 L9.7557,3.1614 L14.4937,7.8994 Z M0.5177,9.3044 C0.5177,14.3954 4.6417,18.5194 9.7327,18.5194 C14.8237,18.5194 18.9477,14.3954 18.9477,9.3044 C18.9477,4.2124 14.8237,0.0894 9.7327,0.0894 C4.6417,0.0894 0.5177,4.2124 0.5177,9.3044 L0.5177,9.3044 Z" id="Fill-2" fill="#2ECDCD"></path>
            </g>
            <g id="CET1-(Phased-in)" transform="translate(281.000000, 303.000000)" fill="#FFFFFF">
                <path d="M5.5262,11.999964 C7.8512,11.999964 9.2012,10.814964 9.8612,8.984964 L8.2412,8.249964 C7.8062,9.494964 6.9062,10.319964 5.5262,10.319964 C3.5912,10.319964 2.4812,8.759964 2.4812,6.194964 C2.4812,3.764964 3.5312,2.204964 5.4212,2.204964 C6.7562,2.204964 7.5662,2.954964 8.0012,3.989964 L9.5912,3.044964 C8.8262,1.394964 7.5212,0.479964 5.4212,0.479964 C2.6912,0.479964 0.6062,2.564964 0.6062,6.209964 C0.6062,9.959964 2.6612,11.999964 5.5262,11.999964 Z M19.2662,11.789964 L19.2662,10.094964 L13.6712,10.094964 L13.6712,6.854964 L17.9912,6.854964 L17.7212,5.189964 L13.6712,5.189964 L13.6712,2.429964 L18.9662,2.429964 L18.9662,0.689964 L11.7962,0.689964 L11.7962,11.789964 L19.2662,11.789964 Z M25.5512,11.789964 L25.5512,2.429964 L29.1062,2.429964 L28.8362,0.689964 L20.2562,0.689964 L20.2562,2.429964 L23.6762,2.429964 L23.6762,11.789964 L25.5512,11.789964 Z M34.1762,11.789964 L34.1762,0.689964 L32.4362,0.689964 L30.0062,1.454964 L30.2462,2.984964 L32.3762,2.384964 L32.3762,11.789964 L34.1762,11.789964 Z M45.3212,14.009964 C43.6562,12.359964 42.5762,10.154964 42.5762,7.589964 C42.5762,5.039964 43.6412,2.879964 45.2612,1.214964 L44.4212,0.314964 C41.9762,2.369964 40.6262,4.649964 40.6262,7.589964 C40.6262,10.529964 41.9762,12.809964 44.4212,14.864964 L45.3212,14.009964 Z" id="CET1-("></path>
                <path d="M46.2962,11.789964 L48.1562,11.789964 L48.8912,7.574964 L51.2312,7.574964 C53.4662,7.574964 55.7462,6.644964 55.7462,3.599964 C55.7462,1.559964 54.0962,0.689964 51.5312,0.689964 L48.2462,0.689964 L46.2962,11.789964 Z M49.1762,5.939964 L49.8062,2.399964 L51.4262,2.399964 C53.1512,2.399964 53.8562,2.834964 53.8562,3.809964 C53.8562,5.444964 52.8512,5.939964 51.4112,5.939964 L49.1762,5.939964 Z M57.7112,11.789964 L58.6862,6.239964 C59.3162,5.654964 60.0962,5.249964 60.7712,5.249964 C61.7012,5.249964 62.0012,5.699964 61.8362,6.569964 L60.9212,11.789964 L62.7662,11.789964 L63.7562,6.164964 C64.0412,4.589964 63.3062,3.674964 61.7012,3.674964 C60.5012,3.674964 59.4662,4.319964 58.9262,4.949964 L59.7062,0.539964 L57.8012,0.839964 L55.8662,11.789964 L57.7112,11.789964 Z M67.5512,10.499964 C66.8312,10.499964 66.4412,10.139964 66.4412,9.614964 C66.4412,8.654964 67.3112,8.054964 70.0562,7.829964 L69.7562,9.569964 C69.0812,10.124964 68.3612,10.499964 67.5512,10.499964 Z M66.7562,11.924964 C67.6712,11.924964 68.6462,11.594964 69.5462,10.769964 L69.5462,11.789964 L71.1812,11.789964 L72.0812,6.704964 C72.3962,4.919964 71.7512,3.674964 69.4112,3.674964 C67.7012,3.674964 66.4262,4.214964 65.7062,4.844964 L66.5162,5.984964 C67.2212,5.444964 68.1962,5.189964 69.0662,5.189964 C70.1012,5.189964 70.4912,5.564964 70.3262,6.359964 L70.2812,6.584964 C66.2912,6.824964 64.5662,8.069964 64.5662,9.989964 C64.5662,11.144964 65.4062,11.924964 66.7562,11.924964 Z M76.3862,11.939964 C77.9312,11.939964 79.7612,11.384964 79.7612,9.254964 C79.7612,6.824964 75.7262,7.439964 75.7262,5.999964 C75.7262,5.399964 76.1612,5.114964 76.9412,5.114964 C78.0362,5.114964 78.7862,5.549964 79.3712,6.044964 L80.2562,4.754964 C79.5662,4.199964 78.6062,3.674964 76.8662,3.674964 C75.3362,3.674964 73.9262,4.499964 73.9262,6.239964 C73.9262,8.714964 77.9612,8.129964 77.9612,9.539964 C77.9612,10.334964 77.3012,10.544964 76.4462,10.529964 C75.3512,10.514964 74.3762,10.064964 73.7312,9.314964 L72.8162,10.499964 C73.3562,11.279964 74.5712,11.939964 76.3862,11.939964 Z M84.3212,11.954964 C85.9412,11.954964 86.8862,11.429964 87.7712,10.604964 L86.9912,9.434964 C86.1662,10.109964 85.5512,10.484964 84.5612,10.484964 C83.7062,10.484964 82.7012,10.154964 82.7012,8.594964 L82.7012,8.414964 L88.0262,8.414964 L88.1012,7.979964 C88.5662,5.309964 87.5612,3.674964 85.1762,3.674964 C83.7212,3.674964 80.9012,4.724964 80.9012,8.564964 C80.9012,10.799964 82.3262,11.954964 84.3212,11.954964 Z M82.8962,7.034964 C83.2712,5.774964 84.1112,5.174964 85.0412,5.174964 C86.3312,5.174964 86.7062,5.909964 86.5862,7.034964 L82.8962,7.034964 Z M92.6612,10.454964 C91.6412,10.454964 91.0562,9.809964 91.0562,8.624964 C91.0562,6.149964 92.3462,5.249964 93.3812,5.249964 C94.1912,5.249964 94.7462,5.564964 95.1662,6.044964 L94.5512,9.494964 C93.9812,10.109964 93.3512,10.454964 92.6612,10.454964 Z M91.9112,11.924964 C92.9762,11.924964 93.7712,11.474964 94.3262,10.739964 L94.3262,11.789964 L95.9912,11.789964 L97.9712,0.539964 L96.0662,0.839964 L95.4212,4.589964 C94.9262,4.049964 94.1162,3.674964 92.9462,3.674964 C91.1762,3.674964 89.1962,5.234964 89.1962,8.774964 C89.1962,10.964964 90.4262,11.924964 91.9112,11.924964 Z M102.2762,7.739964 L102.5162,6.419964 L98.8112,6.419964 L98.5712,7.739964 L102.2762,7.739964 Z M106.0562,2.654964 C106.7462,2.654964 107.1512,2.294964 107.2562,1.739964 C107.3612,1.184964 107.0312,0.704964 106.3412,0.704964 C105.6662,0.704964 105.2762,1.064964 105.1712,1.619964 C105.0662,2.174964 105.3812,2.654964 106.0562,2.654964 Z M105.3362,11.789964 L106.7462,3.824964 L104.9012,3.824964 L103.4912,11.789964 L105.3362,11.789964 Z M109.3412,11.789964 L110.3162,6.239964 C110.9462,5.654964 111.7262,5.249964 112.4012,5.249964 C113.3312,5.249964 113.6312,5.699964 113.4662,6.569964 L112.5512,11.789964 L114.3962,11.789964 L115.3862,6.164964 C115.6712,4.589964 114.9362,3.674964 113.3312,3.674964 C112.1312,3.674964 111.0962,4.319964 110.5562,4.949964 L110.6012,3.824964 L108.9062,3.824964 L107.4962,11.789964 L109.3412,11.789964 Z" id="Phased-in"></path>
                <path d="M117.9962,14.864964 C120.4412,12.809964 121.7912,10.529964 121.7912,7.589964 C121.7912,4.649964 120.4412,2.369964 117.9962,0.314964 L117.1412,1.214964 C118.7762,2.879964 119.8412,5.039964 119.8412,7.589964 C119.8412,10.154964 118.7612,12.359964 117.1112,14.009964 L117.9962,14.864964 Z" id=")"></path>
            </g>
            <g id="Group-6" transform="translate(284.000000, 333.915000)">
                <g id="8pb" transform="translate(24.000000, 1.000000)" fill="#FFFFFF">
                    <path d="M5.7791,14.3594562 C9.1271,14.3594562 11.1251,12.9554562 11.1251,10.6694562 C11.1251,8.6714562 9.9191,7.8254562 8.2091,7.0694562 C9.6491,6.4214562 10.5131,5.3054562 10.5131,3.9014562 C10.5131,2.2274562 9.0191,0.5354562 5.7791,0.5354562 C2.6291,0.5354562 1.0271,2.2094562 1.0271,3.9014562 C1.0271,5.5934562 1.9091,6.4034562 3.3671,7.1594562 C1.7471,7.8254562 0.4151,8.9954562 0.4151,10.6694562 C0.4151,12.9734562 2.4311,14.3594562 5.7791,14.3594562 Z M5.9771,6.1154562 C4.6451,5.5934562 3.8711,5.1254562 3.8711,4.1174562 C3.8711,3.3794562 4.4111,2.6054562 5.7971,2.6054562 C7.1831,2.6054562 7.6871,3.4694562 7.6871,4.1714562 C7.6871,5.0174562 7.1831,5.5214562 5.9771,6.1154562 Z M5.7791,12.3614562 C4.2491,12.3614562 3.3671,11.5154562 3.3671,10.5074562 C3.3671,9.5534562 4.1951,8.8514562 5.5631,8.1854562 C7.3811,8.9234562 8.1911,9.4814562 8.1911,10.5074562 C8.1911,11.5334562 7.3091,12.3614562 5.7791,12.3614562 Z M17.4431,12.0734562 C16.6691,12.0734562 16.1471,11.7854562 15.5171,11.1914562 L15.5171,7.6454562 C16.0031,7.1594562 16.6691,6.7094562 17.4071,6.7094562 C18.7031,6.7094562 19.2611,7.7174562 19.2611,9.3194562 C19.2611,11.0654562 18.6491,12.0734562 17.4431,12.0734562 Z M15.5171,17.4914562 L15.5171,12.9734562 C16.2371,13.7834562 17.1371,14.2514562 18.4331,14.2514562 C20.6291,14.2514562 22.1591,12.6134562 22.1591,9.3014562 C22.1591,5.9894562 20.6471,4.3154562 18.4691,4.3154562 C17.0471,4.3154562 16.1471,5.1074562 15.5171,5.9714562 L15.3011,4.5134562 L12.6191,4.5134562 L12.6191,17.9234562 L15.5171,17.4914562 Z M29.6651,14.2514562 C31.8611,14.2514562 33.3911,12.6134562 33.3911,9.3014562 C33.3911,5.9894562 31.8791,4.3154562 29.7011,4.3154562 C28.2791,4.3154562 27.3791,5.1074562 26.7491,5.9894562 L26.7491,0.5714562 L23.8511,1.0034562 L23.8511,14.1074562 L26.5331,14.1074562 L26.7491,12.9734562 C27.4691,13.7834562 28.3691,14.2514562 29.6651,14.2514562 Z M28.6751,12.0734562 C27.9011,12.0734562 27.3791,11.7854562 26.7491,11.1914562 L26.7491,7.6454562 C27.2351,7.1594562 27.9011,6.7094562 28.6391,6.7094562 C29.9351,6.7094562 30.4931,7.7174562 30.4931,9.3194562 C30.4931,11.0654562 29.8811,12.0734562 28.6751,12.0734562 Z"></path>
                </g>
                <path d="M14.1143,7.8994 L13.0163,8.9974 L10.1443,6.1184 L10.1753,15.4484 L8.6623,13.9124 L8.6623,6.0944 L5.7133,9.0284 L4.6073,7.9294 L9.3763,3.1614 L14.1143,7.8994 Z M0.1383,9.3044 C0.1383,14.3954 4.2623,18.5194 9.3533,18.5194 C14.4443,18.5194 18.5683,14.3954 18.5683,9.3044 C18.5683,4.2124 14.4443,0.0894 9.3533,0.0894 C4.2623,0.0894 0.1383,4.2124 0.1383,9.3044 L0.1383,9.3044 Z" id="Fill-5" fill="#2ECDCD"></path>
            </g>
            <g id="RATIO-CAPITAL-(Phased-in" transform="translate(536.000000, 303.000000)" fill="#FFFFFF">
                <path d="M2.6651,11.789964 L2.6651,7.409964 L4.6301,7.409964 L7.3151,11.939964 L9.1451,11.639964 L6.5051,7.169964 C8.0351,6.779964 8.9501,5.864964 8.9501,4.094964 C8.9501,1.739964 7.4201,0.689964 4.7951,0.689964 L0.8201,0.689964 L0.8201,11.789964 L2.6651,11.789964 Z M2.6651,2.399964 L4.7051,2.399964 C6.2951,2.399964 7.1201,2.834964 7.1201,4.064964 C7.1201,5.324964 6.2951,5.774964 4.7051,5.774964 L2.6651,5.774964 L2.6651,2.399964 Z M11.8901,11.789964 L12.8201,9.149964 L17.0351,9.149964 L17.9801,11.939964 L19.7951,11.639964 L15.9101,0.644964 L14.0801,0.644964 L10.1501,11.789964 L11.8901,11.789964 Z M14.9351,2.999964 L14.9651,2.999964 L16.4951,7.499964 L13.3751,7.499964 L14.9351,2.999964 Z M24.5651,11.789964 L24.5651,2.429964 L28.1201,2.429964 L27.8501,0.689964 L19.2701,0.689964 L19.2701,2.429964 L22.6901,2.429964 L22.6901,11.789964 L24.5651,11.789964 Z M31.6451,11.789964 L31.6451,0.689964 L29.7851,0.689964 L29.7851,11.789964 L31.6451,11.789964 Z M38.7701,11.999964 C41.4401,11.999964 43.7651,9.974964 43.7651,6.239964 C43.7651,2.504964 41.4401,0.479964 38.7701,0.479964 C36.0851,0.479964 33.7601,2.504964 33.7601,6.239964 C33.7601,9.974964 36.0851,11.999964 38.7701,11.999964 Z M38.7701,10.319964 C36.8951,10.319964 35.6351,8.759964 35.6351,6.239964 C35.6351,3.719964 36.8951,2.204964 38.7701,2.204964 C40.6451,2.204964 41.9051,3.719964 41.9051,6.239964 C41.9051,8.759964 40.6451,10.319964 38.7701,10.319964 Z M53.9051,11.999964 C56.2301,11.999964 57.5801,10.814964 58.2401,8.984964 L56.6201,8.249964 C56.1851,9.494964 55.2851,10.319964 53.9051,10.319964 C51.9701,10.319964 50.8601,8.759964 50.8601,6.194964 C50.8601,3.764964 51.9101,2.204964 53.8001,2.204964 C55.1351,2.204964 55.9451,2.954964 56.3801,3.989964 L57.9701,3.044964 C57.2051,1.394964 55.9001,0.479964 53.8001,0.479964 C51.0701,0.479964 48.9851,2.564964 48.9851,6.209964 C48.9851,9.959964 51.0401,11.999964 53.9051,11.999964 Z M60.5801,11.789964 L61.5101,9.149964 L65.7251,9.149964 L66.6701,11.939964 L68.4851,11.639964 L64.6001,0.644964 L62.7701,0.644964 L58.8401,11.789964 L60.5801,11.789964 Z M63.6251,2.999964 L63.6551,2.999964 L65.1851,7.499964 L62.0651,7.499964 L63.6251,2.999964 Z M72.0251,11.789964 L72.0251,7.574964 L73.9901,7.574964 C76.2701,7.574964 78.3101,6.824964 78.3101,4.094964 C78.3101,1.469964 76.4351,0.689964 74.0501,0.689964 L70.1651,0.689964 L70.1651,11.789964 L72.0251,11.789964 Z M72.0251,2.399964 L74.0651,2.399964 C75.7451,2.399964 76.4801,2.969964 76.4801,4.139964 C76.4801,5.384964 75.7301,5.939964 74.0801,5.939964 L72.0251,5.939964 L72.0251,2.399964 Z M82.0901,11.789964 L82.0901,0.689964 L80.2301,0.689964 L80.2301,11.789964 L82.0901,11.789964 Z M89.1851,11.789964 L89.1851,2.429964 L92.7401,2.429964 L92.4701,0.689964 L83.8901,0.689964 L83.8901,2.429964 L87.3101,2.429964 L87.3101,11.789964 L89.1851,11.789964 Z M93.7751,11.789964 L94.7051,9.149964 L98.9201,9.149964 L99.8651,11.939964 L101.6801,11.639964 L97.7951,0.644964 L95.9651,0.644964 L92.0351,11.789964 L93.7751,11.789964 Z M96.8201,2.999964 L96.8501,2.999964 L98.3801,7.499964 L95.2601,7.499964 L96.8201,2.999964 Z M110.4851,11.789964 L110.2001,10.094964 L105.2351,10.094964 L105.2351,0.689964 L103.3601,0.689964 L103.3601,11.789964 L110.4851,11.789964 Z M119.3951,14.009964 C117.7301,12.359964 116.6501,10.154964 116.6501,7.589964 C116.6501,5.039964 117.7151,2.879964 119.3351,1.214964 L118.4951,0.314964 C116.0501,2.369964 114.7001,4.649964 114.7001,7.589964 C114.7001,10.529964 116.0501,12.809964 118.4951,14.864964 L119.3951,14.009964 Z" id="RATIO-CAPITAL-("></path>
                <path d="M120.5951,11.789964 L122.4551,11.789964 L123.1901,7.574964 L125.5301,7.574964 C127.7651,7.574964 130.0451,6.644964 130.0451,3.599964 C130.0451,1.559964 128.3951,0.689964 125.8301,0.689964 L122.5451,0.689964 L120.5951,11.789964 Z M123.4751,5.939964 L124.1051,2.399964 L125.7251,2.399964 C127.4501,2.399964 128.1551,2.834964 128.1551,3.809964 C128.1551,5.444964 127.1501,5.939964 125.7101,5.939964 L123.4751,5.939964 Z M132.0101,11.789964 L132.9851,6.239964 C133.6151,5.654964 134.3951,5.249964 135.0701,5.249964 C136.0001,5.249964 136.3001,5.699964 136.1351,6.569964 L135.2201,11.789964 L137.0651,11.789964 L138.0551,6.164964 C138.3401,4.589964 137.6051,3.674964 136.0001,3.674964 C134.8001,3.674964 133.7651,4.319964 133.2251,4.949964 L134.0051,0.539964 L132.1001,0.839964 L130.1651,11.789964 L132.0101,11.789964 Z M141.8501,10.499964 C141.1301,10.499964 140.7401,10.139964 140.7401,9.614964 C140.7401,8.654964 141.6101,8.054964 144.3551,7.829964 L144.0551,9.569964 C143.3801,10.124964 142.6601,10.499964 141.8501,10.499964 Z M141.0551,11.924964 C141.9701,11.924964 142.9451,11.594964 143.8451,10.769964 L143.8451,11.789964 L145.4801,11.789964 L146.3801,6.704964 C146.6951,4.919964 146.0501,3.674964 143.7101,3.674964 C142.0001,3.674964 140.7251,4.214964 140.0051,4.844964 L140.8151,5.984964 C141.5201,5.444964 142.4951,5.189964 143.3651,5.189964 C144.4001,5.189964 144.7901,5.564964 144.6251,6.359964 L144.5801,6.584964 C140.5901,6.824964 138.8651,8.069964 138.8651,9.989964 C138.8651,11.144964 139.7051,11.924964 141.0551,11.924964 Z M150.6851,11.939964 C152.2301,11.939964 154.0601,11.384964 154.0601,9.254964 C154.0601,6.824964 150.0251,7.439964 150.0251,5.999964 C150.0251,5.399964 150.4601,5.114964 151.2401,5.114964 C152.3351,5.114964 153.0851,5.549964 153.6701,6.044964 L154.5551,4.754964 C153.8651,4.199964 152.9051,3.674964 151.1651,3.674964 C149.6351,3.674964 148.2251,4.499964 148.2251,6.239964 C148.2251,8.714964 152.2601,8.129964 152.2601,9.539964 C152.2601,10.334964 151.6001,10.544964 150.7451,10.529964 C149.6501,10.514964 148.6751,10.064964 148.0301,9.314964 L147.1151,10.499964 C147.6551,11.279964 148.8701,11.939964 150.6851,11.939964 Z M158.6201,11.954964 C160.2401,11.954964 161.1851,11.429964 162.0701,10.604964 L161.2901,9.434964 C160.4651,10.109964 159.8501,10.484964 158.8601,10.484964 C158.0051,10.484964 157.0001,10.154964 157.0001,8.594964 L157.0001,8.414964 L162.3251,8.414964 L162.4001,7.979964 C162.8651,5.309964 161.8601,3.674964 159.4751,3.674964 C158.0201,3.674964 155.2001,4.724964 155.2001,8.564964 C155.2001,10.799964 156.6251,11.954964 158.6201,11.954964 Z M157.1951,7.034964 C157.5701,5.774964 158.4101,5.174964 159.3401,5.174964 C160.6301,5.174964 161.0051,5.909964 160.8851,7.034964 L157.1951,7.034964 Z M166.9601,10.454964 C165.9401,10.454964 165.3551,9.809964 165.3551,8.624964 C165.3551,6.149964 166.6451,5.249964 167.6801,5.249964 C168.4901,5.249964 169.0451,5.564964 169.4651,6.044964 L168.8501,9.494964 C168.2801,10.109964 167.6501,10.454964 166.9601,10.454964 Z M166.2101,11.924964 C167.2751,11.924964 168.0701,11.474964 168.6251,10.739964 L168.6251,11.789964 L170.2901,11.789964 L172.2701,0.539964 L170.3651,0.839964 L169.7201,4.589964 C169.2251,4.049964 168.4151,3.674964 167.2451,3.674964 C165.4751,3.674964 163.4951,5.234964 163.4951,8.774964 C163.4951,10.964964 164.7251,11.924964 166.2101,11.924964 Z M176.5751,7.739964 L176.8151,6.419964 L173.1101,6.419964 L172.8701,7.739964 L176.5751,7.739964 Z M180.3551,2.654964 C181.0451,2.654964 181.4501,2.294964 181.5551,1.739964 C181.6601,1.184964 181.3301,0.704964 180.6401,0.704964 C179.9651,0.704964 179.5751,1.064964 179.4701,1.619964 C179.3651,2.174964 179.6801,2.654964 180.3551,2.654964 Z M179.6351,11.789964 L181.0451,3.824964 L179.2001,3.824964 L177.7901,11.789964 L179.6351,11.789964 Z M183.6401,11.789964 L184.6151,6.239964 C185.2451,5.654964 186.0251,5.249964 186.7001,5.249964 C187.6301,5.249964 187.9301,5.699964 187.7651,6.569964 L186.8501,11.789964 L188.6951,11.789964 L189.6851,6.164964 C189.9701,4.589964 189.2351,3.674964 187.6301,3.674964 C186.4301,3.674964 185.3951,4.319964 184.8551,4.949964 L184.9001,3.824964 L183.2051,3.824964 L181.7951,11.789964 L183.6401,11.789964 Z" id="Phased-in"></path>
            </g>
            <g id="Group-9" transform="translate(538.000000, 302.915000)">
                <g id=")" transform="translate(191.000000, 0.000000)" fill="#FFFFFF">
                    <path d="M1.7125,14.9499635 C4.1575,12.8949635 5.5075,10.6149635 5.5075,7.6749635 C5.5075,4.7349635 4.1575,2.4549635 1.7125,0.3999635 L0.8575,1.2999635 C2.4925,2.9649635 3.5575,5.1249635 3.5575,7.6749635 C3.5575,10.2399635 2.4775,12.4449635 0.8275,14.0949635 L1.7125,14.9499635 Z"></path>
                </g>
                <g id="14pb" transform="translate(25.000000, 32.000000)" fill="#FFFFFF">
                    <path d="M5.8849,14.1074562 L5.8849,0.7874562 L3.1309,0.7874562 L0.1429,1.6514562 L0.5029,4.0454562 L3.0589,3.4334562 L3.0589,14.1074562 L5.8849,14.1074562 Z M17.4049,14.1074562 L17.4049,11.4974562 L19.7629,11.4974562 L19.4749,9.1934562 L17.4049,9.1934562 L17.4049,0.7874562 L14.1829,0.7874562 L8.1169,9.3734562 L8.1169,11.4974562 L14.5789,11.4974562 L14.5789,14.1074562 L17.4049,14.1074562 Z M14.5429,4.2794562 L14.5789,4.2794562 L14.5789,9.1934562 L11.1409,9.1934562 L14.5429,4.2794562 Z M25.8109,12.0734562 C25.0369,12.0734562 24.5149,11.7854562 23.8849,11.1914562 L23.8849,7.6454562 C24.3709,7.1594562 25.0369,6.7094562 25.7749,6.7094562 C27.0709,6.7094562 27.6289,7.7174562 27.6289,9.3194562 C27.6289,11.0654562 27.0169,12.0734562 25.8109,12.0734562 Z M23.8849,17.4914562 L23.8849,12.9734562 C24.6049,13.7834562 25.5049,14.2514562 26.8009,14.2514562 C28.9969,14.2514562 30.5269,12.6134562 30.5269,9.3014562 C30.5269,5.9894562 29.0149,4.3154562 26.8369,4.3154562 C25.4149,4.3154562 24.5149,5.1074562 23.8849,5.9714562 L23.6689,4.5134562 L20.9869,4.5134562 L20.9869,17.9234562 L23.8849,17.4914562 Z M38.0329,14.2514562 C40.2289,14.2514562 41.7589,12.6134562 41.7589,9.3014562 C41.7589,5.9894562 40.2469,4.3154562 38.0689,4.3154562 C36.6469,4.3154562 35.7469,5.1074562 35.1169,5.9894562 L35.1169,0.5714562 L32.2189,1.0034562 L32.2189,14.1074562 L34.9009,14.1074562 L35.1169,12.9734562 C35.8369,13.7834562 36.7369,14.2514562 38.0329,14.2514562 Z M37.0429,12.0734562 C36.2689,12.0734562 35.7469,11.7854562 35.1169,11.1914562 L35.1169,7.6454562 C35.6029,7.1594562 36.2689,6.7094562 37.0069,6.7094562 C38.3029,6.7094562 38.8609,7.7174562 38.8609,9.3194562 C38.8609,11.0654562 38.2489,12.0734562 37.0429,12.0734562 Z"></path>
                </g>
                <path d="M14.7879,38.8994 L13.6899,39.9974 L10.8179,37.1184 L10.8489,46.4484 L9.3359,44.9124 L9.3359,37.0944 L6.3869,40.0284 L5.2809,38.9294 L10.0499,34.1614 L14.7879,38.8994 Z M0.8119,40.3044 C0.8119,45.3954 4.9359,49.5194 10.0269,49.5194 C15.1179,49.5194 19.2419,45.3954 19.2419,40.3044 C19.2419,35.2124 15.1179,31.0894 10.0269,31.0894 C4.9359,31.0894 0.8119,35.2124 0.8119,40.3044 L0.8119,40.3044 Z" id="Fill-8" fill="#2ECDCD"></path>
            </g>
            <g id="10,3" transform="translate(34.000000, 140.000000)" fill="#FFFFFF">
                <path d="M3.5784,13.801256 L3.5784,0.481256 L2.7684,0.481256 L0.0144,1.489256 L0.1404,2.263256 L2.6964,1.327256 L2.6964,13.801256 L3.5784,13.801256 Z M11.8944,14.053256 C14.9364,14.053256 16.6104,11.299256 16.6104,7.141256 C16.6104,2.983256 14.9364,0.229256 11.8944,0.229256 C8.8524,0.229256 7.1604,2.983256 7.1604,7.141256 C7.1604,11.299256 8.8524,14.053256 11.8944,14.053256 Z M11.8944,13.261256 C9.5724,13.261256 8.0424,11.065256 8.0424,7.141256 C8.0424,3.217256 9.5004,1.021256 11.8944,1.021256 C14.1984,1.021256 15.7284,3.217256 15.7284,7.141256 C15.7284,11.065256 14.2704,13.261256 11.8944,13.261256 Z M19.0764,15.547256 L20.1924,12.361256 L19.0044,12.361256 L18.5544,15.547256 L19.0764,15.547256 Z M26.7804,14.053256 C29.4264,14.053256 31.0464,12.361256 31.0464,10.255256 C31.0464,8.239256 30.0564,7.123256 28.0584,6.709256 C29.7144,6.439256 30.7764,5.287256 30.7764,3.541256 C30.7764,1.903256 29.6784,0.229256 26.8884,0.229256 C25.1064,0.229256 23.8464,1.147256 22.9464,2.299256 L23.6664,2.767256 C24.4224,1.759256 25.4304,1.021256 26.8704,1.021256 C29.0124,1.021256 29.8944,2.155256 29.8944,3.595256 C29.8944,5.413256 28.6884,6.313256 25.7724,6.313256 L25.1964,6.313256 L25.1964,7.105256 L25.6644,7.105256 C29.0304,7.105256 30.1644,8.221256 30.1644,10.291256 C30.1644,12.019256 28.8864,13.261256 26.7984,13.261256 C25.2684,13.261256 24.0444,12.613256 23.0724,11.065256 L22.3344,11.515256 C23.2704,13.117256 24.8904,14.053256 26.7804,14.053256 Z"></path>
            </g>
            <g id="10,9" transform="translate(87.000000, 132.000000)" fill="#FFFFFF">
                <path d="M3.9124,14.133256 L3.9124,0.813256 L3.1024,0.813256 L0.3484,1.821256 L0.4744,2.595256 L3.0304,1.659256 L3.0304,14.133256 L3.9124,14.133256 Z M12.2284,14.385256 C15.2704,14.385256 16.9444,11.631256 16.9444,7.473256 C16.9444,3.315256 15.2704,0.561256 12.2284,0.561256 C9.1864,0.561256 7.4944,3.315256 7.4944,7.473256 C7.4944,11.631256 9.1864,14.385256 12.2284,14.385256 Z M12.2284,13.593256 C9.9064,13.593256 8.3764,11.397256 8.3764,7.473256 C8.3764,3.549256 9.8344,1.353256 12.2284,1.353256 C14.5324,1.353256 16.0624,3.549256 16.0624,7.473256 C16.0624,11.397256 14.6044,13.593256 12.2284,13.593256 Z M19.4104,15.879256 L20.5264,12.693256 L19.3384,12.693256 L18.8884,15.879256 L19.4104,15.879256 Z M27.0964,8.301256 C24.8104,8.301256 23.8204,6.897256 23.8204,4.953256 C23.8204,2.631256 25.2064,1.353256 27.2044,1.353256 C29.0044,1.353256 30.5884,2.793256 30.8944,6.069256 C29.9944,7.383256 28.6444,8.301256 27.0964,8.301256 Z M26.8084,14.385256 C29.8504,14.385256 31.8124,11.109256 31.8124,7.239256 C31.8124,2.613256 29.7064,0.561256 27.2584,0.561256 C24.5584,0.561256 22.9204,2.487256 22.9204,4.953256 C22.9204,7.221256 24.1444,9.093256 27.0424,9.093256 C28.8244,9.093256 30.1204,8.139256 30.9484,7.167256 C30.9844,10.713256 29.4184,13.593256 26.8264,13.593256 C25.4044,13.593256 24.7384,13.179256 23.9104,12.477256 L23.4244,13.161256 C24.1984,13.863256 25.2424,14.385256 26.8084,14.385256 Z"></path>
            </g>
            <g id="12,1" transform="translate(314.000000, 125.000000)" fill="#FFFFFF">
                <path d="M4.5584,13.627256 L4.5584,0.307256 L3.7484,0.307256 L0.9944,1.315256 L1.1204,2.089256 L3.6764,1.153256 L3.6764,13.627256 L4.5584,13.627256 Z M16.5824,13.627256 L16.4384,12.799256 L9.1484,12.799256 C9.1844,11.503256 10.3904,9.901256 12.9104,8.299256 C15.4664,6.679256 16.4564,5.545256 16.4564,3.655256 C16.4564,1.567256 14.9984,0.055256 12.6584,0.055256 C10.8224,0.055256 9.3644,1.045256 8.5004,2.917256 L9.2384,3.277256 C10.0124,1.621256 11.0564,0.847256 12.6224,0.847256 C14.5664,0.847256 15.5744,2.017256 15.5744,3.709256 C15.5744,5.167256 14.7644,6.175256 12.7844,7.435256 C9.2744,9.685256 8.2124,11.413256 8.2124,13.339256 L8.2124,13.627256 L16.5824,13.627256 Z M19.8404,15.373256 L20.9564,12.187256 L19.7684,12.187256 L19.3184,15.373256 L19.8404,15.373256 Z M27.4544,13.627256 L27.4544,0.307256 L26.6444,0.307256 L23.8904,1.315256 L24.0164,2.089256 L26.5724,1.153256 L26.5724,13.627256 L27.4544,13.627256 Z"></path>
            </g>
            <g id="12,2" transform="translate(357.000000, 122.000000)" fill="#FFFFFF">
                <path d="M4.2364,13.963256 L4.2364,0.643256 L3.4264,0.643256 L0.6724,1.651256 L0.7984,2.425256 L3.3544,1.489256 L3.3544,13.963256 L4.2364,13.963256 Z M16.2604,13.963256 L16.1164,13.135256 L8.8264,13.135256 C8.8624,11.839256 10.0684,10.237256 12.5884,8.635256 C15.1444,7.015256 16.1344,5.881256 16.1344,3.991256 C16.1344,1.903256 14.6764,0.391256 12.3364,0.391256 C10.5004,0.391256 9.0424,1.381256 8.1784,3.253256 L8.9164,3.613256 C9.6904,1.957256 10.7344,1.183256 12.3004,1.183256 C14.2444,1.183256 15.2524,2.353256 15.2524,4.045256 C15.2524,5.503256 14.4424,6.511256 12.4624,7.771256 C8.9524,10.021256 7.8904,11.749256 7.8904,13.675256 L7.8904,13.963256 L16.2604,13.963256 Z M19.5184,15.709256 L20.6344,12.523256 L19.4464,12.523256 L18.9964,15.709256 L19.5184,15.709256 Z M31.4884,13.963256 L31.3444,13.135256 L24.0544,13.135256 C24.0904,11.839256 25.2964,10.237256 27.8164,8.635256 C30.3724,7.015256 31.3624,5.881256 31.3624,3.991256 C31.3624,1.903256 29.9044,0.391256 27.5644,0.391256 C25.7284,0.391256 24.2704,1.381256 23.4064,3.253256 L24.1444,3.613256 C24.9184,1.957256 25.9624,1.183256 27.5284,1.183256 C29.4724,1.183256 30.4804,2.353256 30.4804,4.045256 C30.4804,5.503256 29.6704,6.511256 27.6904,7.771256 C24.1804,10.021256 23.1184,11.749256 23.1184,13.675256 L23.1184,13.963256 L31.4884,13.963256 Z"></path>
            </g>
            <g id="15,0" transform="translate(556.000000, 101.000000)" fill="#FFFFFF">
                <path d="M4.2264,13.633256 L4.2264,0.313256 L3.4164,0.313256 L0.6624,1.321256 L0.7884,2.095256 L3.3444,1.159256 L3.3444,13.633256 L4.2264,13.633256 Z M11.9844,13.885256 C14.7024,13.885256 16.3944,11.869256 16.3944,9.241256 C16.3944,6.577256 14.6304,4.921256 12.3264,4.921256 C10.8864,4.921256 10.0044,5.425256 9.3024,6.253256 L9.6984,1.177256 L15.6744,1.177256 L15.5124,0.313256 L8.8884,0.313256 L8.3844,7.225256 L9.1224,7.531256 C9.8604,6.433256 10.8144,5.713256 12.3084,5.713256 C14.1264,5.713256 15.5124,6.991256 15.5124,9.295256 C15.5124,11.185256 14.4144,13.093256 12.0024,13.093256 C10.3284,13.093256 9.2484,12.193256 8.4744,10.897256 L7.7364,11.347256 C8.5644,12.841256 10.0944,13.885256 11.9844,13.885256 Z M19.0584,15.379256 L20.1744,12.193256 L18.9864,12.193256 L18.5364,15.379256 L19.0584,15.379256 Z M26.7804,13.885256 C29.8224,13.885256 31.4964,11.131256 31.4964,6.973256 C31.4964,2.815256 29.8224,0.061256 26.7804,0.061256 C23.7384,0.061256 22.0464,2.815256 22.0464,6.973256 C22.0464,11.131256 23.7384,13.885256 26.7804,13.885256 Z M26.7804,13.093256 C24.4584,13.093256 22.9284,10.897256 22.9284,6.973256 C22.9284,3.049256 24.3864,0.853256 26.7804,0.853256 C29.0844,0.853256 30.6144,3.049256 30.6144,6.973256 C30.6144,10.897256 29.1564,13.093256 26.7804,13.093256 Z"></path>
            </g>
            <g id="15,1" transform="translate(611.000000, 99.000000)" fill="#FFFFFF">
                <path d="M4.5584,13.959256 L4.5584,0.639256 L3.7484,0.639256 L0.9944,1.647256 L1.1204,2.421256 L3.6764,1.485256 L3.6764,13.959256 L4.5584,13.959256 Z M12.3164,14.211256 C15.0344,14.211256 16.7264,12.195256 16.7264,9.567256 C16.7264,6.903256 14.9624,5.247256 12.6584,5.247256 C11.2184,5.247256 10.3364,5.751256 9.6344,6.579256 L10.0304,1.503256 L16.0064,1.503256 L15.8444,0.639256 L9.2204,0.639256 L8.7164,7.551256 L9.4544,7.857256 C10.1924,6.759256 11.1464,6.039256 12.6404,6.039256 C14.4584,6.039256 15.8444,7.317256 15.8444,9.621256 C15.8444,11.511256 14.7464,13.419256 12.3344,13.419256 C10.6604,13.419256 9.5804,12.519256 8.8064,11.223256 L8.0684,11.673256 C8.8964,13.167256 10.4264,14.211256 12.3164,14.211256 Z M19.3904,15.705256 L20.5064,12.519256 L19.3184,12.519256 L18.8684,15.705256 L19.3904,15.705256 Z M27.0044,13.959256 L27.0044,0.639256 L26.1944,0.639256 L23.4404,1.647256 L23.5664,2.421256 L26.1224,1.485256 L26.1224,13.959256 L27.0044,13.959256 Z"></path>
            </g>
            <polygon id="Fill-10" fill="url(#linearGradient-1)" points="0 258.695 47.534 279.2 62.805 271.621 18.999 253.446"></polygon>
            <g id="Group-18" transform="translate(30.000000, 171.915000)">
                <polygon id="Fill-12" fill="#2A86CA" points="16.8622 107.6777 32.8052 99.7057 32.8052 36.0397 16.8622 24.0117"></polygon>
                <polygon id="Fill-14" fill="#0064A8" points="16.8622 14.8018 32.8062 6.8298 16.8972 0.4548 0.9532 8.4268"></polygon>
                <polygon id="Fill-16" fill="#2A86CA" points="16.8622 14.8018 16.8622 24.0118 32.8052 36.0398 32.8052 6.8298"></polygon>
            </g>
            <polygon id="Fill-19" fill="url(#linearGradient-2)" points="59.003 258.695 106.538 279.2 121.809 271.621 78.002 253.446"></polygon>
            <g id="Group-27" transform="translate(89.000000, 167.915000)">
                <polygon id="Fill-21" fill="#2ECDCD" points="16.8653 111.6777 32.8083 103.7057 32.8083 20.0397 16.8653 28.0117"></polygon>
                <polygon id="Fill-23" fill="#00A6A6" points="16.8653 14.8018 32.8093 6.8298 16.9003 0.4548 0.9563 8.4268"></polygon>
                <polygon id="Fill-25" fill="#2ECDCD" points="16.8653 14.8018 16.8653 28.0118 32.8083 20.0398 32.8083 6.8298"></polygon>
            </g>
            <polygon id="Fill-28" fill="url(#linearGradient-2)" points="276.992 258.695 324.527 279.2 339.798 271.621 295.991 253.446"></polygon>
            <g id="Group-36" transform="translate(307.000000, 155.915000)">
                <polygon id="Fill-30" fill="#2A86CA" points="16.8543 123.6777 32.7973 115.7057 32.7973 52.0397 16.8543 40.0117"></polygon>
                <polygon id="Fill-32" fill="#0064A8" points="16.8543 14.8125 32.7983 6.8395 16.8893 0.4645 0.9453 8.4375"></polygon>
                <polygon id="Fill-34" fill="#2A86CA" points="16.8543 14.8125 16.8543 40.0115 32.7973 52.0405 32.7973 6.8395"></polygon>
            </g>
            <polygon id="Fill-37" fill="url(#linearGradient-1)" points="327.996 258.695 375.53 279.2 390.801 271.621 346.994 253.446"></polygon>
            <g id="Group-45" transform="translate(358.000000, 154.915000)">
                <polygon id="Fill-39" fill="#2ECDCD" points="16.8578 124.6777 32.8008 116.7057 32.8008 33.0397 16.8578 41.0117"></polygon>
                <polygon id="Fill-41" fill="#00A6A6" points="16.8578 15.1348 32.8018 7.1628 16.8928 0.7878 0.9488 8.7598"></polygon>
                <polygon id="Fill-43" fill="#2ECDCD" points="16.8578 15.1348 16.8578 41.0118 32.8008 33.0398 32.8008 7.1628"></polygon>
            </g>
            <polygon id="Fill-46" fill="url(#linearGradient-1)" points="527.477 258.695 575.012 279.2 590.282 271.621 546.475 253.446"></polygon>
            <g id="Group-54" transform="translate(558.000000, 130.915000)">
                <polygon id="Fill-48" fill="#2A86CA" points="16.3389 148.6777 32.2819 140.7057 32.2819 77.0397 16.3389 65.0117"></polygon>
                <polygon id="Fill-50" fill="#0064A8" points="16.3389 15.1348 32.2829 7.1628 16.3739 0.7878 0.4299 8.7598"></polygon>
                <polygon id="Fill-52" fill="#2A86CA" points="16.3389 15.1348 16.3389 65.0118 32.2819 77.0398 32.2819 7.1628"></polygon>
            </g>
            <polygon id="Fill-55" fill="url(#linearGradient-1)" points="578.48 258.695 626.015 279.2 641.285 271.621 597.478 253.446"></polygon>
            <g id="Group-66" transform="translate(280.000000, 0.915000)">
                <polygon id="Fill-57" fill="#2ECDCD" points="345.3421 278.6777 361.2851 270.7057 361.2851 187.0397 345.3421 195.0117"></polygon>
                <polygon id="Fill-59" fill="#00A6A6" points="345.3421 144.1455 361.2861 136.1735 345.3771 129.7985 329.4331 137.7705"></polygon>
                <polygon id="Fill-61" fill="#2ECDCD" points="345.3421 144.1455 345.3421 195.0115 361.2851 187.0405 361.2851 136.1735"></polygon>
                <g id="2016" transform="translate(122.000000, 0.000000)" fill="#FFFFFF">
                    <path d="M7.1011,12.1347635 L6.9811,11.4447635 L0.9061,11.4447635 C0.9361,10.3647635 1.9411,9.0297635 4.0411,7.6947635 C6.1711,6.3447635 6.9961,5.3997635 6.9961,3.8247635 C6.9961,2.0847635 5.7811,0.8247635 3.8311,0.8247635 C2.3011,0.8247635 1.0861,1.6497635 0.3661,3.2097635 L0.9811,3.5097635 C1.6261,2.1297635 2.4961,1.4847635 3.8011,1.4847635 C5.4211,1.4847635 6.2611,2.4597635 6.2611,3.8697635 C6.2611,5.0847635 5.5861,5.9247635 3.9361,6.9747635 C1.0111,8.8497635 0.1261,10.2897635 0.1261,11.8947635 L0.1261,12.1347635 L7.1011,12.1347635 Z M12.7261,12.3447635 C15.2611,12.3447635 16.6561,10.0497635 16.6561,6.5847635 C16.6561,3.1197635 15.2611,0.8247635 12.7261,0.8247635 C10.1911,0.8247635 8.7811,3.1197635 8.7811,6.5847635 C8.7811,10.0497635 10.1911,12.3447635 12.7261,12.3447635 Z M12.7261,11.6847635 C10.7911,11.6847635 9.5161,9.8547635 9.5161,6.5847635 C9.5161,3.3147635 10.7311,1.4847635 12.7261,1.4847635 C14.6461,1.4847635 15.9211,3.3147635 15.9211,6.5847635 C15.9211,9.8547635 14.7061,11.6847635 12.7261,11.6847635 Z M21.6811,12.1347635 L21.6811,1.0347635 L21.0061,1.0347635 L18.7111,1.8747635 L18.8161,2.5197635 L20.9461,1.7397635 L20.9461,12.1347635 L21.6811,12.1347635 Z M28.4611,12.3447635 C30.7111,12.3447635 32.0761,10.7397635 32.0761,8.6847635 C32.0761,6.7947635 31.0561,5.2347635 28.6411,5.2347635 C27.1561,5.2347635 26.0761,6.0297635 25.3861,6.8397635 C25.3561,3.8997635 26.6611,1.4847635 28.8211,1.4847635 C29.8711,1.4847635 30.3961,1.7547635 30.9811,2.2347635 L31.4011,1.6497635 C30.8161,1.1697635 30.0661,0.8247635 28.8361,0.8247635 C26.3011,0.8247635 24.6661,3.5547635 24.6661,6.7797635 C24.6661,10.6347635 26.4211,12.3447635 28.4611,12.3447635 Z M28.5061,11.6847635 C27.0061,11.6847635 25.6861,10.4847635 25.4311,7.7547635 C26.1811,6.6597635 27.3061,5.8947635 28.5961,5.8947635 C30.5011,5.8947635 31.3261,7.0647635 31.3261,8.6847635 C31.3261,10.6197635 30.1711,11.6847635 28.5061,11.6847635 Z"></path>
                </g>
                <g id="2015" transform="translate(34.000000, 1.000000)" fill="#FFFFFF">
                    <path d="M7.7711,12.1347635 L7.6511,11.4447635 L1.5761,11.4447635 C1.6061,10.3647635 2.6111,9.0297635 4.7111,7.6947635 C6.8411,6.3447635 7.6661,5.3997635 7.6661,3.8247635 C7.6661,2.0847635 6.4511,0.8247635 4.5011,0.8247635 C2.9711,0.8247635 1.7561,1.6497635 1.0361,3.2097635 L1.6511,3.5097635 C2.2961,2.1297635 3.1661,1.4847635 4.4711,1.4847635 C6.0911,1.4847635 6.9311,2.4597635 6.9311,3.8697635 C6.9311,5.0847635 6.2561,5.9247635 4.6061,6.9747635 C1.6811,8.8497635 0.7961,10.2897635 0.7961,11.8947635 L0.7961,12.1347635 L7.7711,12.1347635 Z M13.3961,12.3447635 C15.9311,12.3447635 17.3261,10.0497635 17.3261,6.5847635 C17.3261,3.1197635 15.9311,0.8247635 13.3961,0.8247635 C10.8611,0.8247635 9.4511,3.1197635 9.4511,6.5847635 C9.4511,10.0497635 10.8611,12.3447635 13.3961,12.3447635 Z M13.3961,11.6847635 C11.4611,11.6847635 10.1861,9.8547635 10.1861,6.5847635 C10.1861,3.3147635 11.4011,1.4847635 13.3961,1.4847635 C15.3161,1.4847635 16.5911,3.3147635 16.5911,6.5847635 C16.5911,9.8547635 15.3761,11.6847635 13.3961,11.6847635 Z M22.3511,12.1347635 L22.3511,1.0347635 L21.6761,1.0347635 L19.3811,1.8747635 L19.4861,2.5197635 L21.6161,1.7397635 L21.6161,12.1347635 L22.3511,12.1347635 Z M28.8161,12.3447635 C31.0811,12.3447635 32.4911,10.6647635 32.4911,8.4747635 C32.4911,6.2547635 31.0211,4.8747635 29.1011,4.8747635 C27.9011,4.8747635 27.1661,5.2947635 26.5811,5.9847635 L26.9111,1.7547635 L31.8911,1.7547635 L31.7561,1.0347635 L26.2361,1.0347635 L25.8161,6.7947635 L26.4311,7.0497635 C27.0461,6.1347635 27.8411,5.5347635 29.0861,5.5347635 C30.6011,5.5347635 31.7561,6.5997635 31.7561,8.5197635 C31.7561,10.0947635 30.8411,11.6847635 28.8311,11.6847635 C27.4361,11.6847635 26.5361,10.9347635 25.8911,9.8547635 L25.2761,10.2297635 C25.9661,11.4747635 27.2411,12.3447635 28.8161,12.3447635 Z"></path>
                </g>
                <polygon id="Fill-64" fill="#2ECDCD" points="112.888 2.8535 108.255 12.1195 90.646 12.1195 95.279 2.8535"></polygon>
                <polygon id="Fill-65" fill="#2A86CA" points="22.6559 2.8535 18.0229 12.1195 0.4139 12.1195 5.0469 2.8535"></polygon>
            </g>
        </g>
    </g>
</svg>