<svg width="803" height="476" viewBox="0 0 803 476" xmlns="http://www.w3.org/2000/svg" xmlns:xlink="http://www.w3.org/1999/xlink"><title>Page 1</title><defs><path id="a" d="M0 480h802.543V.377H0z"/><path d="M5.104 7.33c0 3.487 2.893 6.362 6.463 6.362 3.569 0 6.462-2.875 6.462-6.362A6.453 6.453 0 0 0 11.567.851 6.454 6.454 0 0 0 5.104 7.33zm6.463 8.365c-2.469.011-3.242-.553-4.349-1.06C-.773 16.874.185 26.769.167 26.769h22.916c-.041 0 1.058-10.014-7.051-12.253 0 0-1.998 1.168-4.465 1.179zm.119 4.005h5.866v.118l-2.154 2.184h-3.712V19.7z" id="c"/><path d="M.685 63.154C8.237 75.643 21.947 83.99 37.608 83.99c23.813 0 43.117-19.304 43.117-43.118 0-18.163-11.229-33.702-27.123-40.054H21.614A43.273 43.273 0 0 0 .685 18.592v44.562z" id="e"/><path id="g" d="M0 480h802.543V.377H0z"/><path id="i" d="M86.395.377H.159v86.236h86.236V.377z"/><path id="k" d="M0 480h802.543V.377H0z"/><path id="m" d="M0 480h802.543V.377H0z"/><path id="o" d="M0 480h802.543V.377H0z"/><path d="M.21 49.113h67.251c1.361 0 2.463-1.118 2.463-2.497V3.39c0-1.38-1.102-2.497-2.463-2.497H.211v48.22z" id="q"/><path id="s" d="M0 .915V87.15h86.236V.915H0z"/><path id="u" d="M0 480h802.543V.377H0z"/><path id="w" d="M0 480h802.543V.377H0z"/><path id="y" d="M0 480h802.543V.377H0z"/><path id="A" d="M0 480h802.543V.377H0z"/></defs><g fill="none" fill-rule="evenodd"><path d="M117.124 335.976l1.44 1.825c65.882 41.946 167.763 68.858 282.11 68.858 114.347 0 216.227-26.912 282.11-68.858l1.44-1.825-283.55-109.645-283.55 109.645z" fill="#F2F2F2"/><path d="M760.363 225.263c0 100.182-161.039 181.396-359.689 181.396-198.65 0-359.69-81.214-359.69-181.396 0-100.182 161.04-181.396 359.69-181.396s359.69 81.214 359.69 181.396z" stroke="#CCC" stroke-width="1.114" stroke-linecap="round" stroke-dasharray="0.856,3.424"/><text font-family="BentonSansBBVA-Bold, Benton Sans BBVA" font-size="15" font-weight="bold" letter-spacing=".117" fill="#2A86CA" transform="translate(0 -1)"><tspan x="345.851" y="162.441">T</tspan> <tspan x="355.687" y="162.441" letter-spacing="-.071">E</tspan> <tspan x="364.736" y="162.441" letter-spacing="-.02">C</tspan> <tspan x="375.501" y="162.441" letter-spacing=".148">NO</tspan> <tspan x="399.152" y="162.441" letter-spacing="-.202">L</tspan> <tspan x="407.366" y="162.441" letter-spacing=".185">O</tspan> <tspan x="419.251" y="162.441" letter-spacing=".037">G</tspan> <tspan x="430.703" y="162.441" letter-spacing="-.02">Í</tspan> <tspan x="435.633" y="162.441" letter-spacing=".1">A</tspan> <tspan x="446.008" y="162.441" letter-spacing="-.02">S</tspan></text><text font-family="BentonSansBBVA-Bold, Benton Sans BBVA" font-size="15" font-weight="bold" letter-spacing=".119" fill="#2A86CA" transform="translate(0 -1)"><tspan x="336.341" y="180.441">E</tspan> <tspan x="345.955" y="180.441" letter-spacing="-.242">X</tspan> <tspan x="356.587" y="180.441" letter-spacing=".044">P</tspan> <tspan x="366.771" y="180.441" letter-spacing=".008">O</tspan> <tspan x="378.479" y="180.441" letter-spacing="-.01">N</tspan> <tspan x="390.124" y="180.441" letter-spacing="-.035">E</tspan> <tspan x="399.584" y="180.441" letter-spacing=".034">N</tspan> <tspan x="411.272" y="180.441" letter-spacing="-.226">C</tspan> <tspan x="421.831" y="180.441" letter-spacing="-.162">I</tspan> <tspan x="426.62" y="180.441" letter-spacing="-.107">A</tspan> <tspan x="437.207" y="180.441" letter-spacing="-.01">L</tspan> <tspan x="445.987" y="180.441" letter-spacing=".089">E</tspan> <tspan x="455.376" y="180.441" letter-spacing="-.01">S</tspan></text><g font-size="15" font-family="BentonSansBBVA-Bold, Benton Sans BBVA" fill="#2DCCCD" font-weight="bold"><text letter-spacing="-.006" transform="translate(354 296.623)"><tspan x="14.666" y="18.818">NU</tspan> <tspan x="37.184" y="18.818" letter-spacing=".011">E</tspan> <tspan x="46.539" y="18.818" letter-spacing="-.555">V</tspan> <tspan x="55.855" y="18.818" letter-spacing="-.324">O</tspan> <tspan x="67.081" y="18.818">S</tspan></text><text letter-spacing=".063" transform="translate(354 296.623)"><tspan x=".266" y="36.818">E</tspan> <tspan x="9.823" y="36.818" letter-spacing="-.017">N</tspan> <tspan x="21.462" y="36.818" letter-spacing=".074">T</tspan> <tspan x="31.256" y="36.818" letter-spacing=".245">R</tspan> <tspan x="41.926" y="36.818" letter-spacing="-.017">AN</tspan> <tspan x="64.243" y="36.818" letter-spacing=".074">T</tspan> <tspan x="74.037" y="36.818" letter-spacing=".187">E</tspan> <tspan x="83.524" y="36.818" letter-spacing="-.017">S</tspan></text></g><path d="M802.543 259.006c0 23.943-19.41 43.352-43.353 43.352-23.942 0-43.353-19.41-43.353-43.352 0-23.943 19.41-43.353 43.353-43.353 23.944 0 43.353 19.41 43.353 43.353" fill="#2A86CA"/><text font-family="BentonSansBBVA-Book, Benton Sans BBVA" font-size="13" font-weight="300" letter-spacing=".238" fill="#121212" transform="translate(0 -1)"><tspan x="742.657" y="325.547">M</tspan> <tspan x="754.217" y="325.547" letter-spacing="-.021">ó</tspan> <tspan x="761.372" y="325.547" letter-spacing=".17">v</tspan> <tspan x="768.159" y="325.547" letter-spacing=".123">i</tspan> <tspan x="771.403" y="325.547" letter-spacing="-.021">l</tspan></text><g transform="translate(0 -.377)"><path d="M777.634 299.36c0 1.776-1.554 3.218-3.474 3.218h-33.004c-1.918 0-3.474-1.442-3.474-3.218v-64.99c0-1.778 1.556-3.218 3.474-3.218h33.004c1.92 0 3.474 1.44 3.474 3.218v64.99z" fill="#F9CD51"/><mask id="b" fill="#fff"><use xlink:href="#a"/></mask><path fill="#004480" mask="url(#b)" d="M737.682 291.951h39.952v-52.157h-39.952zm22.925 5.263a2.948 2.948 0 1 1-5.895 0 2.948 2.948 0 0 1 5.895 0"/><path d="M762.827 231.152h-22.393c-1.555 0-2.817 1.315-2.817 2.938v22.315l25.21-25.253z" fill="#FFF" mask="url(#b)"/><path d="M751.104 259.33c0 3.487 2.894 6.362 6.463 6.362 3.57 0 6.462-2.875 6.462-6.362a6.453 6.453 0 0 0-6.462-6.479 6.454 6.454 0 0 0-6.463 6.48zm6.463 8.364c-2.468.012-3.241-.552-4.35-1.059-7.99 2.238-7.032 12.134-7.05 12.134h22.916c-.041 0 1.058-10.014-7.051-12.253 0 0-1.998 1.168-4.465 1.178zm.119 4.007h5.867v.117l-2.154 2.183h-3.713v-2.3z" fill="#2DCBCC" mask="url(#b)"/></g><g transform="translate(746 251.623)"><mask id="d" fill="#fff"><use xlink:href="#c"/></mask><path fill="#2DCBCC" mask="url(#d)" d="M-.449 27.358h24.15V.262H-.449z"/></g><text font-family="BentonSansBBVA-BookItalic, Benton Sans BBVA" font-size="13" font-style="italic" font-weight="300" letter-spacing="-.024" fill="#121212" transform="translate(0 -1)"><tspan x="222.704" y="129.271">C</tspan> <tspan x="231.637" y="129.271" letter-spacing=".133">l</tspan> <tspan x="234.89" y="129.271" letter-spacing=".21">o</tspan> <tspan x="242.471" y="129.271" letter-spacing=".218">u</tspan> <tspan x="250.086" y="129.271">d</tspan></text><text font-family="BentonSansBBVA-BookItalic, Benton Sans BBVA" font-size="13" font-style="italic" font-weight="300" letter-spacing="-.107" fill="#121212" transform="translate(0 -1)"><tspan x="208.417" y="143.272">c</tspan> <tspan x="214.965" y="143.272" letter-spacing="-.006">o</tspan> <tspan x="222.33" y="143.272" letter-spacing=".002">m</tspan> <tspan x="234.071" y="143.272" letter-spacing="-.006">pu</tspan> <tspan x="249.035" y="143.272" letter-spacing="-.154">t</tspan> <tspan x="253.509" y="143.272" letter-spacing="-.05">i</tspan> <tspan x="256.579" y="143.272" letter-spacing=".038">n</tspan> <tspan x="264.04" y="143.272" letter-spacing="-.006">g</tspan></text><path d="M282.725 59.496c0 23.814-19.305 43.118-43.118 43.118-23.813 0-43.118-19.304-43.118-43.118 0-23.813 19.305-43.118 43.118-43.118 23.813 0 43.118 19.305 43.118 43.118" fill="#2A86CA"/><g transform="translate(202 18.623)"><mask id="f" fill="#fff"><use xlink:href="#e"/></mask><path d="M.685 76.24L76.107.819s30.639 59.879 26.673 63.347c-3.965 3.47-19.329 27.258-22.798 29.737-3.469 2.479-25.771 9.418-30.232 11.399-4.46 1.982-28.745-13.876-31.223-13.381C16.049 92.416.685 76.24.685 76.24" fill="#004480" mask="url(#f)"/></g><g transform="translate(0 -.377)"><path d="M274.683 64.646V79.03c0 .931-1.476 2.222-2.407 2.222h-10.663l13.07-16.606z" stroke="#FCDBF8" stroke-width="2" stroke-linecap="round" stroke-linejoin="round"/><path d="M217.5 79.342h-14.936c-.931 0-.993-1.224-.993-2.156V49.643c0-.931.061-1.335.993-1.335h5.95" stroke="#FCDAC3" stroke-width="2" stroke-linecap="round" stroke-linejoin="round"/><path d="M214.047 47.115s1.113-11.29 13.256-9.093c2.527-3.888 6.905-6.46 11.887-6.46 6.368 0 11.756 4.2 13.542 9.984a9.787 9.787 0 0 1 4.949-1.343c4.417 0 7.95 4.066 7.95 6.912h-51.584z" fill="#FFF"/><path stroke="#FCDBF8" stroke-width="2" stroke-linecap="round" stroke-linejoin="round" d="M264.378 84.643l-3.49-3.49 3.49-3.49"/><path stroke="#FCDAC3" stroke-width="2" stroke-linecap="round" stroke-linejoin="round" d="M205.539 45.008l3.49 3.491-3.49 3.49"/><path d="M271.043 99.141h-60.206c-1.14 0-2.073-.947-2.073-2.102V62.207c0-1.155.932-2.1 2.073-2.1h60.206c1.14 0 2.074.945 2.074 2.1V97.04c0 1.155-.935 2.102-2.074 2.102" fill="#00CBCB"/><path d="M271.166 103.097H193.68c-1.072 0-1.95-.892-1.95-1.977 0-1.088.878-1.979 1.95-1.979h77.486c1.072 0 1.95.891 1.95 1.98 0 1.084-.878 1.976-1.95 1.976" fill="#00A5A5"/><mask id="h" fill="#fff"><use xlink:href="#g"/></mask><path fill="#C1EDEF" mask="url(#h)" d="M213.392 95.411h54.676V63.772h-54.676z"/><path d="M261.81 103.097h-68.13c-1.072 0-1.95-.892-1.95-1.977 0-1.088.878-1.979 1.95-1.979h68.13c1.075 0 1.952.891 1.952 1.98 0 1.084-.877 1.976-1.951 1.976" fill="#00CBCC" mask="url(#h)"/><path d="M215.035 76.402v-9.538c0-.744.598-1.35 1.333-1.35h10.073" fill="#DEFFFF" mask="url(#h)"/><path d="M148.511 124.76c0 24.208-19.624 43.832-43.832 43.832-24.207 0-43.833-19.624-43.833-43.832 0-24.208 19.626-43.832 43.833-43.832 24.208 0 43.832 19.624 43.832 43.832" fill="#2A86CA" mask="url(#h)"/></g><text font-family="BentonSansBBVA-Book, Benton Sans BBVA" font-size="13" font-weight="300" letter-spacing="-.005" fill="#121212" transform="translate(0 -1)"><tspan x="75.748" y="190.444">B</tspan> <tspan x="84.648" y="190.444" letter-spacing="-.031">i</tspan> <tspan x="87.737" y="190.444" letter-spacing=".038">o</tspan> <tspan x="95.275" y="190.444" letter-spacing=".06">m</tspan> <tspan x="107.204" y="190.444" letter-spacing="-.126">e</tspan> <tspan x="114.177" y="190.444" letter-spacing="-.067">t</tspan> <tspan x="118.841" y="190.444">r</tspan> <tspan x="123.958" y="190.444" letter-spacing="-.097">í</tspan> <tspan x="126.981" y="190.444">a</tspan></text><g fill="#FFF"><path d="M104.865 130.504c.758 0 1.374-.65 1.374-1.453v-12.783c0-.803-.616-1.453-1.374-1.453-.76 0-1.375.65-1.375 1.453v12.783c0 .803.615 1.453 1.375 1.453"/><path d="M104.865 101.105c-7.664 0-13.9 6.235-13.9 13.9v31.25a1.757 1.757 0 0 1-3.512 0v-17.97a1.374 1.374 0 0 0-2.75 0v17.97a4.51 4.51 0 0 0 4.507 4.504 4.506 4.506 0 0 0 4.442-3.784c.037-.125.063-.254.063-.39v-31.581c0-6.148 5.002-11.15 11.15-11.15 6.147 0 11.149 5.002 11.149 11.15v24.929c0 4.42-3.597 8.017-8.018 8.017-4.421 0-8.02-3.597-8.02-8.017v-24.502a4.893 4.893 0 0 1 4.889-4.888 4.893 4.893 0 0 1 4.887 4.888v4.218a1.375 1.375 0 1 0 2.748 0v-4.218c0-4.21-3.425-7.638-7.635-7.638-4.211 0-7.637 3.427-7.637 7.638v25.102c0 .118.02.231.047.341.479 5.496 5.1 9.825 10.72 9.825 5.937 0 10.768-4.829 10.768-10.766v-24.928c0-7.665-6.235-13.9-13.898-13.9m18.415 32.749c-.76 0-1.375.615-1.375 1.374v13.494a1.374 1.374 0 1 0 2.75 0v-13.494c0-.759-.616-1.374-1.376-1.374"/><path d="M104.68 94.96c-11.016 0-19.976 8.96-19.976 19.975v7.063a1.374 1.374 0 0 0 2.75 0v-7.063c0-9.497 7.727-17.224 17.225-17.224 9.5 0 17.226 7.727 17.226 17.224v14.19a1.375 1.375 0 1 0 2.75 0v-14.19c0-11.014-8.962-19.974-19.976-19.974"/><path d="M103.49 139.85a4.603 4.603 0 0 0 4.599 4.598 4.603 4.603 0 0 0 4.598-4.598v-13.808a1.375 1.375 0 1 0-2.75 0v13.808a1.85 1.85 0 0 1-1.848 1.849 1.85 1.85 0 0 1-1.85-1.85v-4.621a1.375 1.375 0 0 0-2.75 0v4.622z"/></g><text font-family="BentonSansBBVA-BookItalic, Benton Sans BBVA" font-size="13" font-style="italic" font-weight="300" letter-spacing=".064" fill="#121212" transform="translate(0 -1)"><tspan x="363.937" y="107.602">D</tspan> <tspan x="373.088" y="107.602" letter-spacing="-.139">i</tspan> <tspan x="376.069" y="107.602" letter-spacing=".008">s</tspan> <tspan x="382.395" y="107.602" letter-spacing="-.114">t</tspan> <tspan x="386.909" y="107.602" letter-spacing="-.077">r</tspan> <tspan x="391.85" y="107.602" letter-spacing="-.05">i</tspan> <tspan x="394.92" y="107.602" letter-spacing="-.006">bu</tspan> <tspan x="409.884" y="107.602" letter-spacing="-.265">t</tspan> <tspan x="414.13" y="107.602" letter-spacing=".042">e</tspan> <tspan x="421.14" y="107.602" letter-spacing="-.006">d</tspan></text><text font-family="BentonSansBBVA-BookItalic, Benton Sans BBVA" font-size="13" font-style="italic" font-weight="300" letter-spacing="-.085" fill="#121212" transform="translate(0 -1)"><tspan x="374.61" y="121.603">l</tspan> <tspan x="377.644" y="121.603" letter-spacing="-.002">e</tspan> <tspan x="384.61" y="121.603" letter-spacing=".006">d</tspan> <tspan x="392.195" y="121.603" letter-spacing="-.118">g</tspan> <tspan x="399.045" y="121.603" letter-spacing="-.023">e</tspan> <tspan x="405.991" y="121.603" letter-spacing="-.002">rs</tspan></text><g transform="translate(0 -.377)"><g transform="translate(355)"><mask id="j" fill="#fff"><use xlink:href="#i"/></mask><path d="M86.395 43.495c0 23.814-19.305 43.118-43.118 43.118C19.464 86.613.159 67.309.159 43.495.159 19.682 19.464.377 43.277.377c23.813 0 43.118 19.305 43.118 43.118" fill="#2A86CA" mask="url(#j)"/></g><path stroke="#F25E61" stroke-width="2.195" stroke-linecap="round" stroke-linejoin="round" d="M398.278 31.168v12.156h-23.99v6.945m23.99-6.946h23.99v6.945"/><path d="M378.278 58.505v.24" stroke="#FFF" stroke-width=".468" stroke-linecap="round" stroke-linejoin="round"/><mask id="l" fill="#fff"><use xlink:href="#k"/></mask><path fill="#004480" mask="url(#l)" d="M371.126 81.839h6.323v-4.808h-6.323z"/><path fill="#004480" mask="url(#l)" d="M365.494 82.641h17.587v-1.202h-17.587z"/><path d="M353.243 77.436c0 .778.63 1.408 1.408 1.408h39.274c.776 0 1.407-.63 1.407-1.408v-25.52c0-.778-.63-1.408-1.407-1.408H354.65c-.779 0-1.409.63-1.409 1.408v25.52z" fill="#0074B1" mask="url(#l)"/><path d="M353.243 76.585c0 .778.63 1.408 1.408 1.408h39.274c.776 0 1.407-.63 1.407-1.408v-25.52c0-.777-.63-1.408-1.407-1.408H354.65c-.779 0-1.409.63-1.409 1.408v25.52z" fill="#004480" mask="url(#l)"/><path d="M393.95 73.27c0 .663-.532 1.202-1.187 1.202h-36.952a1.194 1.194 0 0 1-1.186-1.203V52.457c0-.663.531-1.202 1.186-1.202h36.952c.655 0 1.186.538 1.186 1.203v20.811z" fill="#B3EEEC" mask="url(#l)"/><path d="M375.6 76.434a1.32 1.32 0 0 1-1.313 1.33 1.32 1.32 0 0 1-1.31-1.33c0-.735.586-1.33 1.31-1.33a1.32 1.32 0 0 1 1.312 1.33" fill="#004282" mask="url(#l)"/><path fill="#062146" mask="url(#l)" d="M371.126 80.089h6.323v-1.245h-6.323z"/><path d="M392.764 51.255h-6.375l-23.216 23.216h29.59c.656 0 1.187-.538 1.187-1.202V52.457c0-.664-.531-1.202-1.186-1.202" fill="#A7E1DA" mask="url(#l)"/><path d="M363.873 64.113c0 .164.133.297.298.297h24.994a.298.298 0 0 0 .298-.297v-.001a.297.297 0 0 0-.298-.297h-24.994a.297.297 0 0 0-.298.297zm-4.761-2.827c0 .164.133.297.298.297h24.994a.297.297 0 0 0 0-.595H359.41a.297.297 0 0 0-.298.297v.001zm1.562 1.414c0 .164.133.297.298.297h24.994a.298.298 0 0 0 .298-.297v-.002a.298.298 0 0 0-.298-.297h-24.994a.297.297 0 0 0-.298.297v.002zm-1.414.004c0 .161.132.292.294.292h.232a.293.293 0 0 0 .293-.292v-.01a.293.293 0 0 0-.293-.293h-.232a.293.293 0 0 0-.293.292v.011zm27.6 0c0 .161.13.292.292.292h.232a.293.293 0 0 0 .293-.292v-.01a.293.293 0 0 0-.293-.293h-.232a.293.293 0 0 0-.293.292v.011z" fill="#68CCCC" mask="url(#l)"/><path d="M382.991 71.03c0 .247-.2.446-.446.446h-15.622a.446.446 0 0 1-.446-.446V53.325c0-.246.2-.446.446-.446h15.622c.246 0 .446.2.446.446V71.03z" fill="#D3D3D3" mask="url(#l)"/><path d="M366.03 53.772c-.246 0-.445.2-.445.446v17.705c0 .246.199.446.446.446h15.621c.247 0 .447-.2.447-.446V54.218c0-.246-.2-.446-.447-.446h-15.621z" fill="#FFF" mask="url(#l)"/><path d="M380.59 59.942a.26.26 0 0 1-.262.26h-12.375a.26.26 0 1 1 0-.521h12.375a.26.26 0 0 1 .261.26m.001 1.395a.261.261 0 0 1-.262.261h-12.375a.261.261 0 0 1 0-.523h12.375c.144 0 .261.117.261.262m.001 1.482a.261.261 0 0 1-.262.26h-12.375a.261.261 0 0 1 0-.522h12.375c.144 0 .261.117.261.262m.001 1.394a.261.261 0 0 1-.262.262h-12.375a.261.261 0 0 1 0-.523h12.375c.144 0 .261.117.261.26m.001 1.395a.261.261 0 0 1-.262.261h-12.375a.261.261 0 0 1 0-.523h12.375c.144 0 .261.117.261.262m.001 1.482a.261.261 0 0 1-.262.26h-12.375a.261.261 0 0 1 0-.522h12.375c.144 0 .261.117.261.262m.001 1.394a.261.261 0 0 1-.262.262h-12.375a.261.261 0 0 1 0-.523h12.375a.26.26 0 0 1 .261.26m-7.319 1.962a.22.22 0 0 1-.219.218h-5.14a.218.218 0 1 1 0-.436h5.14c.12 0 .218.097.218.218m-4.496-12.403h-.21v-2.188h.38c.184 0 .343.152.343.334a.353.353 0 0 1-.076.217l-.247.37c.258.062.43.259.43.628 0 .449-.266.639-.62.639m.744-1.383l.143-.218c.307-.46.096-.958-.508-.958h-1.288v2.997h1.243c1.093 0 1.422-1.29.41-1.821" fill="#2A86CA" mask="url(#l)"/><path fill="#F4F4F4" mask="url(#l)" d="M364.454 72.94l20.356-20.37-1.29 22.03h-11.687z"/><path d="M426.257 58.505l.001.24" stroke="#FFF" stroke-width=".468" stroke-linecap="round" stroke-linejoin="round" mask="url(#l)"/><path fill="#004480" mask="url(#l)" d="M419.106 81.839h6.323v-4.808h-6.323z"/><path fill="#004480" mask="url(#l)" d="M413.473 82.641h17.587v-1.202h-17.587z"/><path d="M401.222 77.436c0 .778.63 1.408 1.408 1.408h39.274c.777 0 1.408-.63 1.408-1.408v-25.52c0-.778-.631-1.408-1.408-1.408H402.63c-.778 0-1.408.63-1.408 1.408v25.52z" fill="#0074B1" mask="url(#l)"/><path d="M401.222 76.585c0 .778.63 1.408 1.408 1.408h39.274c.777 0 1.408-.63 1.408-1.408v-25.52c0-.777-.631-1.408-1.408-1.408H402.63c-.778 0-1.408.63-1.408 1.408v25.52z" fill="#004480" mask="url(#l)"/><path d="M441.929 73.27c0 .663-.531 1.202-1.186 1.202H403.79a1.194 1.194 0 0 1-1.186-1.203V52.457c0-.663.53-1.202 1.186-1.202h36.952c.655 0 1.186.538 1.186 1.203v20.811z" fill="#B3EEEC" mask="url(#l)"/><path d="M423.579 76.434a1.32 1.32 0 0 1-1.313 1.33 1.32 1.32 0 0 1-1.31-1.33c0-.735.587-1.33 1.31-1.33a1.32 1.32 0 0 1 1.313 1.33" fill="#004282" mask="url(#l)"/><path fill="#062146" mask="url(#l)" d="M419.106 80.089h6.323v-1.245h-6.323z"/><path d="M440.743 51.255h-6.375l-23.216 23.216h29.59c.656 0 1.187-.538 1.187-1.202V52.457c0-.664-.531-1.202-1.186-1.202" fill="#A7E1DA" mask="url(#l)"/><path d="M411.852 64.352c0 .164.133.297.298.297h24.994a.298.298 0 0 0 .298-.297v-.002a.297.297 0 0 0-.298-.296H412.15a.296.296 0 0 0-.298.296v.002zm-4.761-2.827c0 .164.133.296.298.296h24.994a.296.296 0 0 0 .298-.296v-.002a.297.297 0 0 0-.298-.297H407.39a.297.297 0 0 0-.298.297v.002zm1.563 1.413c0 .164.132.297.298.297h24.993a.297.297 0 1 0 0-.595h-24.993a.297.297 0 0 0-.298.297v.002zm-1.414.005c0 .162.131.292.293.292h.232c.162 0 .293-.13.293-.292v-.01a.293.293 0 0 0-.293-.293h-.232a.293.293 0 0 0-.293.293v.01zm27.598 0c0 .162.131.292.293.292h.232c.162 0 .293-.13.293-.292v-.01a.293.293 0 0 0-.293-.293h-.232a.293.293 0 0 0-.293.293v.01z" fill="#68CCCC" mask="url(#l)"/><path d="M430.97 71.27c0 .246-.2.446-.446.446h-15.622a.445.445 0 0 1-.446-.447V53.564c0-.245.2-.446.446-.446h15.622c.246 0 .446.2.446.447v17.704z" fill="#D3D3D3" mask="url(#l)"/><path d="M414.01 54.011c-.247 0-.446.2-.446.446v17.705c0 .246.199.446.446.446h15.622c.246 0 .446-.2.446-.446V54.457c0-.246-.2-.446-.446-.446H414.01z" fill="#FFF" mask="url(#l)"/><path d="M428.568 60.181a.261.261 0 0 1-.261.261h-12.375a.261.261 0 0 1 0-.523h12.375c.144 0 .261.117.261.262m0 1.394a.262.262 0 0 1-.261.262h-12.375a.261.261 0 0 1 0-.523h12.375c.144 0 .261.117.261.261m0 1.482a.262.262 0 0 1-.261.262h-12.375a.261.261 0 0 1 0-.523h12.375c.144 0 .261.117.261.26m0 1.395a.261.261 0 0 1-.261.261h-12.375a.261.261 0 0 1 0-.523h12.375c.144 0 .261.117.261.262m0 1.394a.262.262 0 0 1-.261.262h-12.375a.261.261 0 0 1 0-.523h12.375c.144 0 .261.117.261.261m0 1.482a.262.262 0 0 1-.261.262h-12.375a.261.261 0 0 1 0-.523h12.375c.144 0 .261.117.261.26m0 1.395a.261.261 0 0 1-.261.261h-12.375a.261.261 0 0 1 0-.523h12.375c.144 0 .261.117.261.262m-7.32 1.961a.218.218 0 0 1-.218.218h-5.14a.218.218 0 1 1 0-.436h5.14c.12 0 .218.098.218.218m-4.495-12.403h-.21V56.09h.38c.183 0 .343.152.343.334a.353.353 0 0 1-.076.217l-.247.37c.258.062.43.259.43.628 0 .449-.267.639-.62.639m.744-1.384l.143-.217c.307-.46.096-.958-.508-.958h-1.288v2.996h1.243c1.093 0 1.42-1.288.41-1.821" fill="#2A86CA" mask="url(#l)"/><path fill="#F4F4F4" mask="url(#l)" d="M412.434 73.18l20.356-20.37-1.291 22.03h-11.687z"/><path d="M402.268 13.198l.001.239" stroke="#FFF" stroke-width=".468" stroke-linecap="round" stroke-linejoin="round" mask="url(#l)"/><path fill="#004480" mask="url(#l)" d="M395.117 36.532h6.323v-4.808h-6.323z"/><path fill="#004480" mask="url(#l)" d="M389.484 37.333h17.587v-1.202h-17.587z"/><path d="M377.233 32.128c0 .778.63 1.408 1.408 1.408h39.274c.777 0 1.408-.63 1.408-1.408V6.608c0-.778-.631-1.408-1.408-1.408H378.64c-.778 0-1.408.63-1.408 1.407v25.521z" fill="#0074B1" mask="url(#l)"/><path d="M377.233 31.277c0 .778.63 1.408 1.408 1.408h39.274c.777 0 1.408-.63 1.408-1.408V5.757c0-.778-.631-1.408-1.408-1.408H378.64c-.778 0-1.408.63-1.408 1.408v25.52z" fill="#004480" mask="url(#l)"/><path d="M417.94 27.961c0 .664-.531 1.202-1.187 1.202h-36.952a1.194 1.194 0 0 1-1.185-1.202V7.15c0-.664.53-1.202 1.185-1.202h36.952c.656 0 1.187.538 1.187 1.202v20.812z" fill="#B3EEEC" mask="url(#l)"/><path d="M399.59 31.126a1.32 1.32 0 0 1-1.313 1.33 1.32 1.32 0 0 1-1.31-1.33c0-.735.586-1.33 1.31-1.33a1.32 1.32 0 0 1 1.312 1.33" fill="#004282" mask="url(#l)"/><path fill="#062146" mask="url(#l)" d="M395.117 34.781h6.323v-1.245h-6.323z"/><path d="M416.754 5.948h-6.375l-23.216 23.216h29.59c.656 0 1.187-.538 1.187-1.202V7.15c0-.664-.531-1.202-1.186-1.202" fill="#A7E1DA" mask="url(#l)"/><path d="M387.863 19.044c0 .164.133.296.298.296h24.994a.297.297 0 0 0 .298-.296v-.002a.297.297 0 0 0-.298-.296h-24.994a.296.296 0 0 0-.298.296v.002zm-4.761-2.827c0 .164.133.297.298.297h24.994a.297.297 0 0 0 0-.595H383.4a.297.297 0 0 0-.298.297v.001zm1.562 1.413c0 .165.134.298.298.298h24.995a.297.297 0 0 0 .298-.297v-.001a.297.297 0 0 0-.298-.297h-24.995a.297.297 0 0 0-.298.297zm-1.413.005c0 .162.131.292.293.292h.232c.162 0 .293-.13.293-.292v-.01a.293.293 0 0 0-.293-.293h-.232a.293.293 0 0 0-.293.293v.01zm27.599 0c0 .162.13.292.292.292h.232c.162 0 .293-.13.293-.292v-.01a.293.293 0 0 0-.293-.293h-.232a.293.293 0 0 0-.293.293v.01z" fill="#68CCCC" mask="url(#l)"/><path d="M406.981 25.961c0 .247-.2.447-.446.447h-15.622a.446.446 0 0 1-.446-.447V8.256c0-.246.2-.446.446-.446h15.622c.246 0 .446.2.446.446v17.705z" fill="#D3D3D3" mask="url(#l)"/><path d="M390.02 8.704c-.246 0-.445.2-.445.446v17.704c0 .247.199.447.446.447h15.622c.246 0 .446-.2.446-.447V9.15c0-.246-.2-.446-.446-.446H390.02z" fill="#FFF" mask="url(#l)"/><path d="M404.58 14.873a.261.261 0 0 1-.263.261h-12.374a.261.261 0 0 1 0-.523h12.374c.145 0 .262.117.262.262m.001 1.395a.262.262 0 0 1-.263.262h-12.374a.261.261 0 0 1 0-.523h12.374c.145 0 .262.117.262.26m.001 1.482a.262.262 0 0 1-.263.262h-12.374a.261.261 0 0 1 0-.523h12.374a.26.26 0 0 1 .262.261m.001 1.395a.261.261 0 0 1-.263.26h-12.374a.261.261 0 0 1 0-.522h12.374c.145 0 .262.117.262.262m.001 1.394a.262.262 0 0 1-.263.262h-12.374a.261.261 0 0 1 0-.523h12.374a.26.26 0 0 1 .262.26m.001 1.482a.26.26 0 0 1-.263.261h-12.374a.26.26 0 1 1 0-.522h12.374c.145 0 .262.117.262.261m.001 1.395a.261.261 0 0 1-.263.26h-12.374a.261.261 0 0 1 0-.522h12.374c.145 0 .262.117.262.262m-7.319 1.96a.22.22 0 0 1-.219.218h-5.14a.218.218 0 1 1 0-.436h5.14c.12 0 .218.098.218.218m-4.495-12.403h-.21v-2.188h.38c.183 0 .343.152.343.334a.348.348 0 0 1-.076.216l-.247.371c.258.062.43.26.43.628 0 .45-.267.64-.62.64m.744-1.385l.143-.217c.307-.46.096-.958-.508-.958h-1.288v2.996h1.243c1.093 0 1.42-1.288.41-1.82" fill="#2A86CA" mask="url(#l)"/><path fill="#F4F4F4" mask="url(#l)" d="M388.445 27.872L408.8 7.502l-1.291 22.03h-11.687z"/></g><text font-family="BentonSansBBVA-Book, Benton Sans BBVA" font-size="13" font-weight="300" letter-spacing=".036" fill="#121212" transform="translate(0 -1)"><tspan x="530.625" y="125.271">I</tspan> <tspan x="534.313" y="125.271" letter-spacing=".105">n</tspan> <tspan x="541.971" y="125.271" letter-spacing="-.189">t</tspan> <tspan x="546.397" y="125.271" letter-spacing=".132">e</tspan> <tspan x="553.626" y="125.271" letter-spacing=".049">l</tspan> <tspan x="556.795" y="125.271" letter-spacing=".098">i</tspan> <tspan x="560.013" y="125.271" letter-spacing="-.015">g</tspan> <tspan x="567.096" y="125.271" letter-spacing=".158">e</tspan> <tspan x="574.352" y="125.271" letter-spacing=".18">n</tspan> <tspan x="582.085" y="125.271" letter-spacing="-.015">c</tspan> <tspan x="588.973" y="125.271" letter-spacing=".05">i</tspan> <tspan x="592.143" y="125.271" letter-spacing=".121">a</tspan> <tspan x="599.376" y="125.271" letter-spacing="-.015">l</tspan></text><text font-family="BentonSansBBVA-Book, Benton Sans BBVA" font-size="13" font-weight="300" letter-spacing=".162" fill="#121212" transform="translate(0 -1)"><tspan x="541.947" y="139.272">a</tspan> <tspan x="549.22" y="139.272" letter-spacing=".514">r</tspan> <tspan x="554.856" y="139.272" letter-spacing=".014">t</tspan> <tspan x="559.602" y="139.272" letter-spacing=".14">i</tspan> <tspan x="562.862" y="139.272" letter-spacing=".105">˜</tspan> <tspan x="569.518" y="139.272" letter-spacing="-.015">c</tspan> <tspan x="576.406" y="139.272" letter-spacing=".049">i</tspan> <tspan x="579.575" y="139.272" letter-spacing=".123">a</tspan> <tspan x="586.809" y="139.272" letter-spacing="-.015">l</tspan></text><g transform="translate(0 -.377)"><path d="M608.118 58.939c0 23.814-19.305 43.119-43.118 43.119-23.813 0-43.118-19.305-43.118-43.119 0-23.813 19.305-43.118 43.118-43.118 23.813 0 43.118 19.305 43.118 43.118z" fill="#2A86CA"/><path d="M565 102.058c23.813 0 43.118-19.305 43.118-43.12 0-12.301-5.16-23.391-13.425-31.246l-60.94 60.94c7.855 8.265 18.945 13.426 31.247 13.426" fill="#1D1D1B"/><path d="M552.368 50.828h-5.917m5.917 7.739h-5.917m5.917 7.74h-5.917m38.099-15.479h-5.917m5.917 7.739h-5.917m5.917 7.74h-5.917" stroke="#FFF" stroke-width="2" stroke-linecap="round" stroke-linejoin="round"/><path d="M573.246 48.828h-15.48a2 2 0 0 0-2 2v15.48a2 2 0 0 0 2 2h15.48a2 2 0 0 0 2-2v-15.48a2 2 0 0 0-2-2zm-15.48 17.48h15.48v-15.48h-15.48v15.48z" fill="#FFF"/><path d="M557.768 70.736v5.917m7.738-5.917v5.917m7.74-5.917v5.917m-15.478-36.171V46.4m7.738-5.918V46.4m7.74-5.918V46.4M549.41 61.694h-21.5v6" stroke="#FFF" stroke-width="2" stroke-linecap="round" stroke-linejoin="round"/><path d="M529.826 69.694a1.917 1.917 0 1 1-3.835 0 1.917 1.917 0 0 1 3.835 0z" stroke="#FFF" stroke-width="2" stroke-linejoin="round"/><path d="M549.41 77.652a1.917 1.917 0 1 1-3.834.001 1.917 1.917 0 0 1 3.833 0zm1.874-41.332a1.917 1.917 0 1 1-3.834-.001 1.917 1.917 0 0 1 3.834 0zm30.479-3.876a1.917 1.917 0 1 1-3.834 0 1.917 1.917 0 0 1 3.834 0zm9.563 17.224a1.917 1.917 0 1 1-3.834 0 1.917 1.917 0 0 1 3.834 0zm12.75 2.652a1.917 1.917 0 1 1-3.835-.001 1.917 1.917 0 0 1 3.835 0zM583.68 83.07a1.917 1.917 0 1 1-3.834-.001 1.917 1.917 0 0 1 3.834 0zm-3.088-28.5h8.817v-2.25" stroke="#FFF" stroke-width="2" stroke-linecap="round" stroke-linejoin="round"/><path stroke="#FFF" stroke-width="2" stroke-linecap="round" stroke-linejoin="round" d="M580.592 61.94h21.567v-7.704M560.95 73.694v9.375h18.897M561.534 43.44v-7.12h-9.667m17.417 7.12V32.445h7.875M549.41 54.57h-6.376v23.082h2.333"/><path d="M533.623 59.474h2.43a8.025 8.025 0 0 1 1.648-1.547 1 1 0 0 0 .252-1.39 7.984 7.984 0 0 1-1.42-4.563 7.99 7.99 0 0 1 3.88-6.882 1 1 0 0 0 .46-1.054 8.046 8.046 0 0 1 3.355-8.248.998.998 0 0 0 .427-.96 6.132 6.132 0 0 1 6.859-6.907.992.992 0 0 0 1.019-.54c1.128-2.223 3.203-3.55 5.549-3.55a6.367 6.367 0 0 1 6.36 6.36v8.631h2v-8.632a6.366 6.366 0 0 1 6.358-6.36c2.347 0 4.422 1.328 5.55 3.551a1 1 0 0 0 1.019.54 6.132 6.132 0 0 1 6.859 6.907.998.998 0 0 0 .426.96 8.046 8.046 0 0 1 3.354 8.25 1 1 0 0 0 .462 1.052 7.99 7.99 0 0 1 3.88 6.882 7.988 7.988 0 0 1-1.42 4.563c-.313.454-.2 1.075.252 1.39a8.002 8.002 0 0 1 1.837 1.793h2.372a10.03 10.03 0 0 0-2.311-2.854 9.991 9.991 0 0 0 1.27-4.892 9.967 9.967 0 0 0-4.268-8.218 10.042 10.042 0 0 0-3.813-9.263c.01-.167.016-.332.016-.497 0-4.599-3.883-8.325-8.484-8.117-1.525-2.512-4.151-4.047-7.001-4.047a8.364 8.364 0 0 0-7.358 4.4 8.367 8.367 0 0 0-7.36-4.4c-2.85 0-5.475 1.535-7 4.047a8.561 8.561 0 0 0-.36-.008c-4.48 0-8.124 3.645-8.124 8.125 0 .164.005.33.015.497a10.044 10.044 0 0 0-3.812 9.264 9.964 9.964 0 0 0-4.268 8.217c0 1.73.437 3.402 1.27 4.892a10.04 10.04 0 0 0-2.18 2.608" fill="#F8CC51"/><mask id="n" fill="#fff"><use xlink:href="#m"/></mask><path fill="#F8CC51" mask="url(#n)" d="M564.507 80.849h2v-2.538h-2z"/><path d="M598.702 64.533c0-.126-.016-.249-.021-.374h-2.003c.006.125.024.248.024.374a8.049 8.049 0 0 1-2.727 6.032 1 1 0 0 0-.283 1.08 8.03 8.03 0 0 1 .447 2.648c0 3.544-2.37 6.716-5.764 7.714a1 1 0 0 0-.717.94c-.118 5.71-4.861 10.356-10.576 10.356-4.946 0-9.097-3.419-10.249-8.014h-2.654c-1.15 4.595-5.301 8.014-10.248 8.014-5.716 0-10.459-4.646-10.575-10.357a1 1 0 0 0-.717-.939c-3.394-.998-5.764-4.17-5.764-7.714 0-.908.15-1.8.446-2.649a1 1 0 0 0-.284-1.079 8.051 8.051 0 0 1-2.726-6.032c0-.208.022-.414.038-.619h-2.004c-.013.206-.034.411-.034.62 0 2.658 1.058 5.203 2.925 7.08a10.006 10.006 0 0 0-.361 2.68c0 4.183 2.645 7.951 6.516 9.404.502 6.461 5.984 11.605 12.54 11.605 5.191 0 9.659-3.165 11.575-7.666 1.918 4.501 6.385 7.666 11.577 7.666 6.556 0 12.037-5.144 12.538-11.605 3.871-1.453 6.518-5.222 6.518-9.405 0-.912-.123-1.81-.362-2.679a10.05 10.05 0 0 0 2.924-7.08" fill="#F8CC51" mask="url(#n)"/></g><text font-family="BentonSansBBVA-BookItalic, Benton Sans BBVA" font-size="13" font-style="italic" font-weight="300" letter-spacing=".056" fill="#121212" transform="translate(0 -1)"><tspan x="669.429" y="193.444">O</tspan> <tspan x="678.871" y="193.444" letter-spacing=".048">p</tspan> <tspan x="686.498" y="193.444" letter-spacing="-.004">en</tspan></text><text font-family="BentonSansBBVA-BookItalic, Benton Sans BBVA" font-size="13" font-style="italic" font-weight="300" letter-spacing=".01" fill="#121212" transform="translate(0 -1)"><tspan x="655.116" y="207.445">i</tspan> <tspan x="658.246" y="207.445" letter-spacing=".059">n</tspan> <tspan x="665.728" y="207.445" letter-spacing=".067">n</tspan> <tspan x="673.218" y="207.445" letter-spacing="-.167">o</tspan> <tspan x="680.045" y="207.445" letter-spacing="-.011">v</tspan> <tspan x="686.274" y="207.445" letter-spacing="-.099">a</tspan> <tspan x="693.273" y="207.445" letter-spacing="-.096">t</tspan> <tspan x="697.805" y="207.445" letter-spacing="-.011">i</tspan> <tspan x="700.914" y="207.445" letter-spacing=".057">o</tspan> <tspan x="708.342" y="207.445" letter-spacing="-.011">n</tspan></text><g transform="translate(0 -.377)"><path d="M728.406 124.802c0 23.813-19.305 43.118-43.118 43.118-23.813 0-43.118-19.305-43.118-43.118 0-23.814 19.305-43.118 43.118-43.118 23.813 0 43.118 19.304 43.118 43.118z" fill="#2A86CA"/><path d="M693.374 117.952l.002.497" stroke="#FFF" stroke-width=".972" stroke-linecap="round" stroke-linejoin="round"/><mask id="p" fill="#fff"><use xlink:href="#o"/></mask><path fill="#004480" mask="url(#p)" d="M678.519 166.417h13.134v-9.986h-13.134z"/><path fill="#004480" mask="url(#p)" d="M666.821 168.083h36.529v-2.496h-36.529z"/><path d="M641.375 157.272a2.925 2.925 0 0 0 2.925 2.924h81.573a2.925 2.925 0 0 0 2.925-2.924v-53.007a2.925 2.925 0 0 0-2.925-2.925H644.3a2.925 2.925 0 0 0-2.925 2.924v53.008z" fill="#0074B1" mask="url(#p)"/><path d="M641.375 155.502a2.924 2.924 0 0 0 2.925 2.925h81.573a2.924 2.924 0 0 0 2.925-2.925v-53.006a2.924 2.924 0 0 0-2.925-2.925H644.3a2.924 2.924 0 0 0-2.925 2.925v53.006z" fill="#004480" mask="url(#p)"/><path d="M725.925 148.617c0 1.379-1.102 2.497-2.463 2.497H646.71c-1.36 0-2.462-1.118-2.462-2.497V105.39c0-1.38 1.102-2.497 2.462-2.497h76.752c1.36 0 2.463 1.118 2.463 2.497v43.227z" fill="#FFF" mask="url(#p)"/></g><path d="M664.023 141.415h6.972" stroke="#F8CC51" stroke-width="2" stroke-linecap="round" stroke-linejoin="round"/><path d="M665.265 143.687h4.489" stroke="#F8CC51" stroke-linecap="round" stroke-linejoin="round"/><path d="M664.023 138.388h6.972m4.89-14.315a8.376 8.376 0 1 0-12.947 7.017v4.271h9.143v-4.27a8.37 8.37 0 0 0 3.804-7.018z" stroke="#F8CC51" stroke-width="2" stroke-linecap="round" stroke-linejoin="round"/><path d="M678.778 119.534l3.418-1.416m-25.866 10.714l-3.66 1.517m19.534-17.482l1.343-3.243m5.14 19.208l3.458 1.432m-20.698-20.699l1.367 3.302m-6.484 6.704l-3.457-1.432" stroke="#F8CC51" stroke-linecap="round" stroke-linejoin="round"/><path d="M667.692 127.396h-.588v-6.13h1.063c.515 0 .963.427.963.937 0 .182-.037.346-.215.607l-.692 1.037c.724.174 1.207.726 1.207 1.76 0 1.255-.748 1.79-1.738 1.79m2.083-3.877l.402-.608c.858-1.287.267-2.684-1.423-2.684h-3.607v8.394h3.482c3.06 0 3.98-3.61 1.146-5.102" fill="#2A86CA"/><path d="M688.763 143.687h17.824m-17.824-3.412h28.74m-28.74-3.412h28.74m-28.74-3.413h28.74m-28.74-3.412h28.74m-28.74-3.412h28.74m-28.74-3.412h28.74m-28.74-3.412h28.74" stroke="#F8CC51"/><g transform="translate(656 101.623)"><mask id="r" fill="#fff"><use xlink:href="#q"/></mask><path fill="#000" mask="url(#r)" d="M51.335-.606h19.7l.124 50.997L.21 50.326z"/></g><g transform="translate(0 -.377)"><path d="M687.81 155.19c0 1.526-1.219 2.762-2.725 2.762-1.505 0-2.724-1.236-2.724-2.762s1.22-2.763 2.724-2.763c1.506 0 2.725 1.237 2.725 2.763z" fill="#004282"/><path fill="#062146" d="M678.519 162.782h13.134v-2.585h-13.134z"/><g transform="translate(0 216)"><mask id="t" fill="#fff"><use xlink:href="#s"/></mask><path d="M86.236 44.033c0 23.814-19.305 43.118-43.118 43.118C19.305 87.15 0 67.847 0 44.033 0 20.22 19.305.915 43.118.915c23.813 0 43.118 19.305 43.118 43.118" fill="#40BEF9" mask="url(#t)"/></g><path d="M17.557 238.058s1.113-11.289 13.256-9.093c2.527-3.888 6.905-6.46 11.887-6.46 6.368 0 11.756 4.201 13.542 9.984a9.787 9.787 0 0 1 4.949-1.343c4.417 0 7.95 4.066 7.95 6.912H17.558z" fill="#FFF"/><path d="M48.877 270.165l.002.331" stroke="#FFF" stroke-width=".648" stroke-linecap="round" stroke-linejoin="round"/><mask id="v" fill="#fff"><use xlink:href="#u"/></mask><path fill="#0085CC" mask="url(#v)" d="M38.97 302.485h8.759v-6.66H38.97z"/><path fill="#0085CC" mask="url(#v)" d="M31.169 303.596h24.36v-1.665h-24.36z"/><path d="M14.2 296.386a1.95 1.95 0 0 0 1.95 1.95h54.399a1.952 1.952 0 0 0 1.95-1.95v-35.35c0-1.075-.873-1.95-1.95-1.95h-54.4a1.95 1.95 0 0 0-1.95 1.95v35.35z" fill="#0074B1" mask="url(#v)"/><path d="M14.2 295.206a1.95 1.95 0 0 0 1.95 1.951h54.399a1.951 1.951 0 0 0 1.95-1.95v-35.349a1.95 1.95 0 0 0-1.95-1.95h-54.4a1.95 1.95 0 0 0-1.95 1.95v35.348z" fill="#0085CC" mask="url(#v)"/><path d="M70.583 290.614c0 .92-.735 1.665-1.642 1.665H17.758a1.654 1.654 0 0 1-1.643-1.665v-28.826c0-.92.735-1.666 1.643-1.666h51.183c.907 0 1.642.745 1.642 1.666v28.826z" fill="#B3EEEC" mask="url(#v)"/></g><text font-family="MyriadPro-Regular, Myriad Pro" font-size="3.067" letter-spacing=".01" fill="#004282" transform="translate(0 -1)"><tspan x="19.311" y="265.747">100101100101010010101001010101</tspan></text><text font-family="MyriadPro-Regular, Myriad Pro" font-size="3.067" letter-spacing=".01" fill="#004282" transform="translate(0 -1)"><tspan x="19.311" y="269.428">011001010100101010010101001011</tspan></text><text font-family="MyriadPro-Regular, Myriad Pro" font-size="3.067" letter-spacing=".01" fill="#004282" transform="translate(0 -1)"><tspan x="19.311" y="273.109">001010100101010010101001011001</tspan></text><text font-family="MyriadPro-Regular, Myriad Pro" font-size="3.067" letter-spacing=".01" fill="#004282" transform="translate(0 -1)"><tspan x="19.311" y="276.789">010100101010010101001011001010</tspan></text><text font-family="MyriadPro-Regular, Myriad Pro" font-size="3.067" letter-spacing=".01" fill="#004282" transform="translate(0 -1)"><tspan x="19.311" y="280.47">100101010010101001011001010100</tspan></text><text font-family="MyriadPro-Regular, Myriad Pro" font-size="3.067" letter-spacing=".01" fill="#004282" transform="translate(0 -1)"><tspan x="19.311" y="284.151">101010010101001011001010100101</tspan></text><text font-family="MyriadPro-Regular, Myriad Pro" font-size="3.067" letter-spacing=".01" fill="#004282" transform="translate(0 -1)"><tspan x="19.311" y="287.832">010010101010110010101001010100</tspan></text><path fill="#A7E1DA" d="M14.995 293.883l.292-7.83 27.477-27.308h28.56l.082 34.01z"/><path d="M45.166 294.62a1.828 1.828 0 0 1-1.817 1.842 1.828 1.828 0 0 1-1.817-1.842c0-1.018.813-1.842 1.817-1.842s1.817.824 1.817 1.842" fill="#004282"/><path fill="#062146" d="M38.97 299.684h8.759v-1.724H38.97z"/><path d="M21.601 254.239v-5.155c0-.932 1.292-2.407 2.223-2.407h10.663c.931 0 2.407-1.292 2.407-2.224v-11.186" stroke="#F25E61" stroke-width="2" stroke-linecap="round" stroke-linejoin="round"/><path stroke="#F25E61" stroke-width="2" stroke-linecap="round" stroke-linejoin="round" d="M25.091 250.749l-3.49 3.49-3.49-3.49m46.987 3.49v-5.155c0-.932-1.292-2.407-2.223-2.407H52.212c-.931 0-2.407-1.292-2.407-2.224v-11.186"/><path stroke="#F25E61" stroke-width="2" stroke-linecap="round" stroke-linejoin="round" d="M61.608 250.749l3.49 3.49 3.49-3.49M43.35 233.267v20.972m-3.49-3.49l3.49 3.49 3.49-3.49"/><text font-family="BentonSansBBVA-BookItalic, Benton Sans BBVA" font-size="13" font-style="italic" font-weight="300" letter-spacing=".141" fill="#121212" transform="translate(0 -1)"><tspan x="19.459" y="328.547">B</tspan> <tspan x="28.374" y="328.547" letter-spacing=".159">i</tspan> <tspan x="31.653" y="328.547" letter-spacing=".216">g</tspan> <tspan x="39.097" y="328.547" letter-spacing="-.018"> </tspan> <tspan x="42.017" y="328.547" letter-spacing=".064">d</tspan> <tspan x="49.66" y="328.547" letter-spacing="-.018">a</tspan> <tspan x="56.74" y="328.547" letter-spacing=".074">t</tspan> <tspan x="61.39" y="328.547" letter-spacing="-.018">a</tspan></text><g transform="translate(0 -.377)"><path d="M204.178 422.303c-16.597-16.597-16.597-43.507 0-60.104s43.507-16.597 60.104 0 16.597 43.507 0 60.104-43.507 16.597-60.104 0z" fill="#2DCCCD"/><mask id="x" fill="#fff"><use xlink:href="#w"/></mask><path fill="#008246" mask="url(#x)" d="M222.763 401.129h38.931v-20.64h-38.931z"/><path fill="#00AE5F" mask="url(#x)" d="M224.608 398.859h35.038v-16.306h-35.038z"/><path d="M249.882 392.403h7.463v-3.539h-7.463v3.539zm-22.651 0h7.463v-3.539h-7.463v3.539zm14.948.505c1.146 0 2.074-.979 2.074-2.187 0-1.207-.928-2.186-2.074-2.186-1.145 0-2.073.979-2.073 2.186 0 1.208.928 2.187 2.073 2.187z" fill="#FFF" mask="url(#x)"/><path d="M222.763 401.136v-3.716l5.978-1.728c.462-.134.836-.63.836-1.11v-1.321a.871.871 0 0 0-.87-.87l-11.136-.02a7.353 7.353 0 0 0-1.703.238l-7.243 2.064v12.47l17.352 3.36c.471.092 1.2-.012 1.627-.232l17.777-9.135h-22.618z" fill="#FFF" mask="url(#x)"/><path fill="#BDBDBD" mask="url(#x)" d="M222.763 397.471l-2.3 1.95v3.598l20.894.184 4.024-2.067h-22.618z"/></g><text font-family="BentonSansBBVA-Book, Benton Sans BBVA" font-size="13" font-weight="300" letter-spacing=".124" fill="#121212" transform="translate(0 -1)"><tspan x="203.535" y="455.067">P</tspan> <tspan x="211.758" y="455.067" letter-spacing="-.018">r</tspan> <tspan x="216.485" y="455.067" letter-spacing=".245">é</tspan> <tspan x="223.697" y="455.067" letter-spacing=".232">s</tspan> <tspan x="230.377" y="455.067" letter-spacing=".186">t</tspan> <tspan x="235.243" y="455.067" letter-spacing=".198">a</tspan> <tspan x="242.552" y="455.067" letter-spacing=".216">m</tspan> <tspan x="254.637" y="455.067" letter-spacing=".085">o</tspan> <tspan x="262.093" y="455.067" letter-spacing="-.018">s</tspan></text><g transform="translate(0 -.377)"><path d="M369.75 444.18c-16.596-16.598-16.596-43.508 0-60.105 16.598-16.597 43.508-16.597 60.105 0 16.597 16.597 16.597 43.507 0 60.104s-43.507 16.597-60.104 0z" fill="#2DCCCD"/><mask id="z" fill="#fff"><use xlink:href="#y"/></mask><text mask="url(#z)" font-family="BentonSansBBVA-Book, Benton Sans BBVA" font-size="13" font-weight="300" letter-spacing=".119" fill="#121212"><tspan x="383.054" y="473.332">P</tspan> <tspan x="391.051" y="473.332" letter-spacing=".183">a</tspan> <tspan x="398.345" y="473.332" letter-spacing="-.016">g</tspan> <tspan x="405.427" y="473.332" letter-spacing=".061">o</tspan> <tspan x="412.858" y="473.332" letter-spacing="-.016">s</tspan></text><path d="M420.228 398.028a2.062 2.062 0 0 1 2.06 2.06l-.004 23.887a2.037 2.037 0 0 1-.603 1.456 2.025 2.025 0 0 1-1.454.601h-37.892a2.046 2.046 0 0 1-1.456-.599 2.073 2.073 0 0 1-.602-1.458l.002-23.887c0-.529.2-1.054.6-1.457.403-.399.931-.6 1.456-.603h37.893z" fill="#DA3851" mask="url(#z)"/><path d="M416.121 402.128a2.058 2.058 0 0 1 2.058 2.06l-.002 23.887a2.043 2.043 0 0 1-.603 1.456c-.4.407-.928.6-1.455.6h-37.89a2.045 2.045 0 0 1-2.059-2.056l.002-23.887c0-.529.2-1.055.6-1.457.403-.4.931-.6 1.456-.603h37.893z" fill="#FFF" mask="url(#z)"/><path fill="#CCCBCA" mask="url(#z)" d="M381.402 426.026h6.567v-1.236h-6.567zm8.324-.005h6.568v-1.231h-6.568zm14.897.005l-6.57-.004v-1.232h6.57zm8.324 0h-6.566l-.002-1.236h6.568z"/><path fill="#D9D8D7" mask="url(#z)" d="M381.402 420.701h14.892v-4.448h-14.892z"/><path fill="#1A2542" mask="url(#z)" d="M418.18 412.163l-42.008.001v-5.93h42.008z"/><path d="M408.583 418.477a3.273 3.273 0 1 1-6.546 0 3.273 3.273 0 0 1 6.546 0" fill="#DA3851" mask="url(#z)"/><path d="M412.947 418.477a3.273 3.273 0 1 1-6.545 0 3.273 3.273 0 0 1 6.545 0" fill="#1A2542" mask="url(#z)"/><path d="M537.389 415.74c-16.597-16.597-16.597-43.506 0-60.103 16.597-16.598 43.507-16.598 60.104 0 16.597 16.597 16.597 43.506 0 60.104-16.597 16.597-43.507 16.597-60.104 0" fill="#2DCCCD" mask="url(#z)"/></g><text font-family="BentonSansBBVA-Book, Benton Sans BBVA" font-size="13" font-weight="300" letter-spacing="-.002" fill="#121212" transform="translate(0 -1)"><tspan x="535.58" y="443.361">G</tspan> <tspan x="544.977" y="443.361" letter-spacing=".053">e</tspan> <tspan x="551.997" y="443.361" letter-spacing=".04">s</tspan> <tspan x="558.485" y="443.361" letter-spacing="-.142">t</tspan> <tspan x="563.074" y="443.361" letter-spacing="-.068">i</tspan> <tspan x="566.126" y="443.361">ó</tspan> <tspan x="573.625" y="443.361" letter-spacing=".023">n</tspan> <tspan x="581.201" y="443.361"> de</tspan></text><text font-family="BentonSansBBVA-Book, Benton Sans BBVA" font-size="13" font-weight="300" letter-spacing=".045" fill="#121212" transform="translate(0 -1)"><tspan x="531.732" y="457.362">p</tspan> <tspan x="539.355" y="457.362" letter-spacing=".019">a</tspan> <tspan x="546.485" y="457.362" letter-spacing="-.01">t</tspan> <tspan x="551.207" y="457.362" letter-spacing=".051">r</tspan> <tspan x="556.38" y="457.362" letter-spacing=".026">i</tspan> <tspan x="559.526" y="457.362" letter-spacing=".121">m</tspan> <tspan x="571.517" y="457.362" letter-spacing=".097">o</tspan> <tspan x="579.114" y="457.362" letter-spacing=".056">n</tspan> <tspan x="586.723" y="457.362" letter-spacing=".029">i</tspan> <tspan x="589.872" y="457.362" letter-spacing="-.01">os</tspan></text><g transform="translate(0 -.377)"><path d="M549.713 406.661a1.47 1.47 0 0 1-1.466-1.466V369.03a1.47 1.47 0 0 1 1.466-1.467h29.65c.806 0 1.466.661 1.466 1.467v36.166a1.47 1.47 0 0 1-1.466 1.466h-29.65z" fill="#FFF"/><path d="M558.021 387.699a.588.588 0 0 0-.587-.586h-5.343a.588.588 0 0 0-.587.586v5.343a.59.59 0 0 0 .587.587h5.343a.589.589 0 0 0 .587-.587v-5.343zm9.775 0a.588.588 0 0 0-.587-.586h-5.344a.587.587 0 0 0-.586.586v5.343c0 .323.264.587.586.587h5.344a.589.589 0 0 0 .587-.587v-5.343zm9.774 0a.588.588 0 0 0-.586-.586h-5.344a.587.587 0 0 0-.586.586v5.343c0 .323.264.587.586.587h5.344a.589.589 0 0 0 .587-.587v-5.343zm-19.549 9.774a.589.589 0 0 0-.587-.587h-5.343a.59.59 0 0 0-.587.587v5.343a.59.59 0 0 0 .587.587h5.343a.589.589 0 0 0 .587-.587v-5.343zm9.775 0a.589.589 0 0 0-.587-.587h-5.344a.588.588 0 0 0-.586.587v5.343c0 .323.264.587.586.587h5.344a.589.589 0 0 0 .587-.587v-5.343z" fill="#343B43"/><path d="M577.57 397.473a.589.589 0 0 0-.586-.587h-5.344a.588.588 0 0 0-.586.587v5.343c0 .323.264.587.586.587h5.344a.589.589 0 0 0 .587-.587v-5.343z" fill="#C5596E"/><path d="M577.57 380.009a.589.589 0 0 1-.586.587h-24.892a.59.59 0 0 1-.588-.587v-8.602a.59.59 0 0 1 .588-.586h24.892c.323 0 .587.264.587.586v8.602z" fill="#2A85C9"/><mask id="B" fill="#fff"><use xlink:href="#A"/></mask><path fill="#2DCCCD" mask="url(#B)" d="M548.247 384.309h32.582v-.912h-32.582z"/><path fill="#FFF" mask="url(#B)" d="M554.237 392.203h1.049v-3.665h-1.049z"/><path fill="#FFF" mask="url(#B)" d="M552.93 390.894h3.666v-1.048h-3.666zm19.55 8.727h3.665v-1.047h-3.665zm0 2.095h3.665v-1.046h-3.665zm-18.644.094l-.74-.74 2.592-2.591.741.74z"/><path fill="#FFF" mask="url(#B)" d="M556.429 401.07l-.741.74-2.591-2.591.739-.74zm6.276-.4h3.665v-1.049h-3.665zm2.357-1.836a.523.523 0 0 0-.525-.52.523.523 0 1 0 0 1.046c.29 0 .525-.236.525-.526m0 2.621a.524.524 0 0 0-1.05 0c0 .288.235.521.525.521.29 0 .525-.233.525-.52m-2.358-10.561h3.666v-1.049h-3.666zm12.439.008a.78.78 0 0 1-1.354-.533.784.784 0 0 1 1.354-.533l.742-.742a1.832 1.832 0 1 0 0 2.55l-.742-.742z"/><path fill="#F4C3CA" mask="url(#B)" d="M584.181 402.644h1.62v-29.649h-1.62z"/><path fill="#E77D8E" mask="url(#B)" d="M585.8 402.644h1.623v-29.649H585.8z"/><path fill="#DA3851" mask="url(#B)" d="M587.423 402.644h1.621v-29.649h-1.621z"/><path fill="#FFF" mask="url(#B)" d="M589.046 372.995l-1.625-2.81h-1.617l-1.622 2.81z"/><path fill="#E6E5E5" mask="url(#B)" d="M589.046 372.995h-1.623l-.54-2.81h.538z"/><path fill="#3F4A5A" mask="url(#B)" d="M587.42 370.185l-.81-1.402-.806 1.401z"/><path fill="#E6E5E5" mask="url(#B)" d="M587.422 404.265h1.621v-1.621h-1.621z"/><path fill="#FFF" mask="url(#B)" d="M587.423 404.264l-3.242.001v-1.62h3.242z"/><path d="M589.043 404.643v-.377h-1.623v.377c0 .619-.235 1.243-.709 1.718a2.394 2.394 0 0 1-.91.57c.261.094.534.144.81.144a2.44 2.44 0 0 0 1.722-.714c.475-.474.71-1.1.71-1.718" fill="#121212" mask="url(#B)"/><path d="M587.42 404.643v-.377h-3.242v.377a2.428 2.428 0 0 0 1.622 2.289c.333-.113.645-.307.912-.571a2.427 2.427 0 0 0 .709-1.718" fill="#676767" mask="url(#B)"/><path stroke="#CCC" stroke-width="1.114" stroke-linecap="round" stroke-dasharray="0.857,3.429" mask="url(#B)" d="M117.124 336.353l283.55-109.645 283.55 109.645"/><path d="M459.668 225.64c0 11.589-26.413 20.983-58.994 20.983-32.582 0-58.994-9.394-58.994-20.983 0-11.59 26.412-20.983 58.994-20.983 32.581 0 58.994 9.394 58.994 20.983" fill="#FFF" mask="url(#B)"/><path d="M459.668 225.64c0 11.589-26.413 20.983-58.994 20.983-32.582 0-58.994-9.394-58.994-20.983 0-11.59 26.412-20.983 58.994-20.983 32.581 0 58.994 9.394 58.994 20.983z" stroke="#CCC" stroke-width="1.114" stroke-linecap="round" stroke-dasharray="0.857,3.428" mask="url(#B)"/></g></g></svg>