<?xml version="1.0" encoding="UTF-8" standalone="no"?>
<svg width="803px" height="476px" viewBox="0 0 803 476" version="1.1" xmlns="http://www.w3.org/2000/svg" xmlns:xlink="http://www.w3.org/1999/xlink">
    <!-- Generator: Sketch 41.2 (35397) - http://www.bohemiancoding.com/sketch -->
    <title>Page 1</title>
    <desc>Created with Sketch.</desc>
    <defs>
        <polygon id="path-1" points="0 480 802.543 480 802.543 0.377 0 0.377"></polygon>
        <path d="M5.104,7.33 C5.104,10.817 7.997,13.692 11.567,13.692 C15.136,13.692 18.029,10.817 18.029,7.33 C18.029,3.725 15.136,0.851 11.567,0.851 C7.997,0.851 5.104,3.725 5.104,7.33 Z M11.567,15.695 C9.098,15.706 8.325,15.142 7.218,14.635 C-0.773,16.874 0.185,26.769 0.167,26.769 L23.083,26.769 C23.042,26.769 24.141,16.755 16.032,14.516 C16.032,14.516 14.034,15.684 11.567,15.695 Z M11.686,19.7 L17.552,19.7 L17.552,19.818 L15.398,22.002 L11.686,22.002 L11.686,19.7 Z" id="path-3"></path>
        <path d="M0.685,63.1536425 C8.2373841,75.6427725 21.9474925,83.991 37.608,83.991 C61.421,83.991 80.725,64.687 80.725,40.873 C80.725,22.7103366 69.4959845,7.17111183 53.6017716,0.8187 L21.6136721,0.8187 C12.8543656,4.31941873 5.51198938,10.6101234 0.685,18.5923575 L0.685,63.1536425 L0.685,63.1536425 Z" id="path-5"></path>
        <polygon id="path-7" points="0 480 802.543 480 802.543 0.377 0 0.377"></polygon>
        <polygon id="path-9" points="86.395 0.377 0.159 0.377 0.159 86.6126 86.395 86.6126 86.395 0.377"></polygon>
        <polygon id="path-11" points="0 480 802.543 480 802.543 0.377 0 0.377"></polygon>
        <polygon id="path-13" points="0 480 802.543 480 802.543 0.377 0 0.377"></polygon>
        <polygon id="path-15" points="0 480 802.543 480 802.543 0.377 0 0.377"></polygon>
        <path d="M0.2103,49.113 L67.461,49.113 C68.822,49.113 69.924,47.995 69.924,46.616 L69.924,3.39 C69.924,2.01 68.822,0.893 67.461,0.893 L0.2103,0.893 L0.2103,49.113 L0.2103,49.113 Z" id="path-17"></path>
        <polygon id="path-19" points="5.42101086e-20 0.9147 5.42101086e-20 87.1507 86.2356 87.1507 86.2356 0.9147 0 0.9147"></polygon>
        <polygon id="path-21" points="0 480 802.543 480 802.543 0.377 0 0.377"></polygon>
        <polygon id="path-23" points="0 480 802.543 480 802.543 0.377 0 0.377"></polygon>
        <polygon id="path-25" points="0 480 802.543 480 802.543 0.377 0 0.377"></polygon>
        <polygon id="path-27" points="0 480 802.543 480 802.543 0.377 0 0.377"></polygon>
    </defs>
    <g id="Page-1" stroke="none" stroke-width="1" fill="none" fill-rule="evenodd">
        <g transform="translate(0.000000, -1.000000)">
            <g id="Group-5" transform="translate(40.000000, 44.623000)">
                <path d="M77.1241,292.353 L78.5641,294.178 C144.4461,336.124 246.3271,363.036 360.6741,363.036 C475.0211,363.036 576.9011,336.124 642.7841,294.178 L644.2241,292.353 L360.6741,182.708 L77.1241,292.353 Z" id="Fill-1" fill="#F2F2F2"></path>
                <path d="M720.3634,181.6396 C720.3634,281.8216 559.3244,363.0356 360.6744,363.0356 C162.0234,363.0356 0.9844,281.8216 0.9844,181.6396 C0.9844,81.4576 162.0234,0.2436 360.6744,0.2436 C559.3244,0.2436 720.3634,81.4576 720.3634,181.6396 Z" id="Stroke-3" stroke="#CCCCCC" stroke-width="1.114" stroke-linecap="round" stroke-dasharray="0.856,3.424"></path>
            </g>
            <text id="TECNOLOGÍAS" font-family="BentonSansBBVA-Bold, Benton Sans BBVA" font-size="15" font-weight="bold" letter-spacing="0.1165" fill="#2A86CA">
                <tspan x="345.8506" y="162.441364">T</tspan>
                <tspan x="355.6871" y="162.441364" letter-spacing="-0.071">E</tspan>
                <tspan x="364.7361" y="162.441364" letter-spacing="-0.02">C</tspan>
                <tspan x="375.5011" y="162.441364" letter-spacing="0.148">NO</tspan>
                <tspan x="399.1521" y="162.441364" letter-spacing="-0.2015">L</tspan>
                <tspan x="407.3656" y="162.441364" letter-spacing="0.1855">O</tspan>
                <tspan x="419.2511" y="162.441364" letter-spacing="0.037">G</tspan>
                <tspan x="430.7031" y="162.441364" letter-spacing="-0.02">Í</tspan>
                <tspan x="435.6331" y="162.441364" letter-spacing="0.1">A</tspan>
                <tspan x="446.0081" y="162.441364" letter-spacing="-0.02">S</tspan>
            </text>
            <text id="EXPONENCIALES" font-family="BentonSansBBVA-Bold, Benton Sans BBVA" font-size="15" font-weight="bold" letter-spacing="0.119" fill="#2A86CA">
                <tspan x="336.3406" y="180.441364">E</tspan>
                <tspan x="345.9546" y="180.441364" letter-spacing="-0.2425">X</tspan>
                <tspan x="356.5871" y="180.441364" letter-spacing="0.044">P</tspan>
                <tspan x="366.7711" y="180.441364" letter-spacing="0.008">O</tspan>
                <tspan x="378.4791" y="180.441364" letter-spacing="-0.01">N</tspan>
                <tspan x="390.1241" y="180.441364" letter-spacing="-0.0355">E</tspan>
                <tspan x="399.5836" y="180.441364" letter-spacing="0.0335">N</tspan>
                <tspan x="411.2721" y="180.441364" letter-spacing="-0.226">C</tspan>
                <tspan x="421.8311" y="180.441364" letter-spacing="-0.1615">I</tspan>
                <tspan x="426.6196" y="180.441364" letter-spacing="-0.1075">A</tspan>
                <tspan x="437.2071" y="180.441364" letter-spacing="-0.01">L</tspan>
                <tspan x="445.9871" y="180.441364" letter-spacing="0.089">E</tspan>
                <tspan x="455.3761" y="180.441364" letter-spacing="-0.01">S</tspan>
            </text>
            <g id="Group-10" transform="translate(354.000000, 216.623000)">
                <g id="Group-7" transform="translate(0.000000, 81.000000)" font-size="15" font-family="BentonSansBBVA-Bold, Benton Sans BBVA" fill="#2DCCCD" font-weight="bold">
                    <text id="NUEVOS" letter-spacing="-0.006">
                        <tspan x="14.666" y="18.8183635">NU</tspan>
                        <tspan x="37.184" y="18.8183635" letter-spacing="0.0105">E</tspan>
                        <tspan x="46.5395" y="18.8183635" letter-spacing="-0.555">V</tspan>
                        <tspan x="55.8545" y="18.8183635" letter-spacing="-0.324">O</tspan>
                        <tspan x="67.0805" y="18.8183635">S</tspan>
                    </text>
                    <text id="ENTRANTES" letter-spacing="0.0625">
                        <tspan x="0.266" y="36.8183635">E</tspan>
                        <tspan x="9.8235" y="36.8183635" letter-spacing="-0.017">N</tspan>
                        <tspan x="21.4615" y="36.8183635" letter-spacing="0.0745">T</tspan>
                        <tspan x="31.256" y="36.8183635" letter-spacing="0.2455">R</tspan>
                        <tspan x="41.9265" y="36.8183635" letter-spacing="-0.017">AN</tspan>
                        <tspan x="64.2425" y="36.8183635" letter-spacing="0.0745">T</tspan>
                        <tspan x="74.037" y="36.8183635" letter-spacing="0.187">E</tspan>
                        <tspan x="83.524" y="36.8183635" letter-spacing="-0.017">S</tspan>
                    </text>
                </g>
                <path d="M448.5428,43.3828 C448.5428,67.3258 429.1338,86.7348 405.1898,86.7348 C381.2478,86.7348 361.8368,67.3258 361.8368,43.3828 C361.8368,19.4398 381.2478,0.0298 405.1898,0.0298 C429.1338,0.0298 448.5428,19.4398 448.5428,43.3828" id="Fill-8" fill="#2A86CA"></path>
            </g>
            <text id="Móvil" font-family="BentonSansBBVA-Book, Benton Sans BBVA" font-size="13" font-weight="300" letter-spacing="0.2377" fill="#121212">
                <tspan x="742.6567" y="325.546868">M</tspan>
                <tspan x="754.2174" y="325.546868" letter-spacing="-0.021">ó</tspan>
                <tspan x="761.3724" y="325.546868" letter-spacing="0.1701">v</tspan>
                <tspan x="768.1595" y="325.546868" letter-spacing="0.1233">i</tspan>
                <tspan x="771.4028" y="325.546868" letter-spacing="-0.021">l</tspan>
            </text>
            <g id="Group-18" transform="translate(0.000000, 0.623000)">
                <path d="M777.6344,299.3604 C777.6344,301.1364 776.0804,302.5784 774.1604,302.5784 L741.1564,302.5784 C739.2384,302.5784 737.6824,301.1364 737.6824,299.3604 L737.6824,234.3704 C737.6824,232.5924 739.2384,231.1524 741.1564,231.1524 L774.1604,231.1524 C776.0804,231.1524 777.6344,232.5924 777.6344,234.3704 L777.6344,299.3604 Z" id="Fill-11" fill="#F9CD51"></path>
                <mask id="mask-2" fill="white">
                    <use xlink:href="#path-1"></use>
                </mask>
                <g id="Clip-14"></g>
                <polygon id="Fill-13" fill="#004480" mask="url(#mask-2)" points="737.682 291.951 777.634 291.951 777.634 239.794 737.682 239.794"></polygon>
                <path d="M760.6075,297.2139 C760.6075,298.8429 759.2875,300.1619 757.6595,300.1619 C756.0315,300.1619 754.7115,298.8429 754.7115,297.2139 C754.7115,295.5869 756.0315,294.2669 757.6595,294.2669 C759.2875,294.2669 760.6075,295.5869 760.6075,297.2139" id="Fill-15" fill="#004480" mask="url(#mask-2)"></path>
                <path d="M762.8273,231.1523 L740.4343,231.1523 C738.8793,231.1523 737.6173,232.4673 737.6173,234.0903 L737.6173,256.4053 L762.8273,231.1523 Z" id="Fill-16" fill="#FFFFFF" mask="url(#mask-2)"></path>
                <path d="M751.1036,259.3301 C751.1036,262.8171 753.9976,265.6921 757.5666,265.6921 C761.1366,265.6921 764.0286,262.8171 764.0286,259.3301 C764.0286,255.7251 761.1366,252.8511 757.5666,252.8511 C753.9976,252.8511 751.1036,255.7251 751.1036,259.3301 L751.1036,259.3301 Z M757.5666,267.6941 C755.0986,267.7061 754.3256,267.1421 753.2176,266.6351 C745.2266,268.8731 746.1846,278.7691 746.1676,278.7691 L769.0826,278.7691 C769.0416,278.7691 770.1406,268.7551 762.0316,266.5161 C762.0316,266.5161 760.0336,267.6841 757.5666,267.6941 L757.5666,267.6941 Z M757.6856,271.7011 L763.5526,271.7011 L763.5526,271.8181 L761.3986,274.0011 L757.6856,274.0011 L757.6856,271.7011 Z" id="Fill-17" fill="#2DCBCC" mask="url(#mask-2)"></path>
            </g>
            <g id="Group-21" transform="translate(746.000000, 252.623000)">
                <mask id="mask-4" fill="white">
                    <use xlink:href="#path-3"></use>
                </mask>
                <g id="Clip-20"></g>
                <polygon id="Fill-19" fill="#2DCBCC" mask="url(#mask-4)" points="-0.449 27.358 23.701 27.358 23.701 0.262 -0.449 0.262"></polygon>
            </g>
            <text id="Cloud" font-family="BentonSansBBVA-BookItalic, Benton Sans BBVA" font-size="13" font-style="italic" font-weight="300" letter-spacing="-0.024" fill="#121212">
                <tspan x="222.7036" y="129.271468">C</tspan>
                <tspan x="231.6366" y="129.271468" letter-spacing="0.1333">l</tspan>
                <tspan x="234.8899" y="129.271468" letter-spacing="0.21">o</tspan>
                <tspan x="242.4709" y="129.271468" letter-spacing="0.2178">u</tspan>
                <tspan x="250.0857" y="129.271468">d</tspan>
            </text>
            <text id="computing" font-family="BentonSansBBVA-BookItalic, Benton Sans BBVA" font-size="13" font-style="italic" font-weight="300" letter-spacing="-0.1074" fill="#121212">
                <tspan x="208.4166" y="143.272468">c</tspan>
                <tspan x="214.9652" y="143.272468" letter-spacing="-0.006">o</tspan>
                <tspan x="222.3302" y="143.272468" letter-spacing="0.0018">m</tspan>
                <tspan x="234.071" y="143.272468" letter-spacing="-0.006">pu</tspan>
                <tspan x="249.035" y="143.272468" letter-spacing="-0.1542">t</tspan>
                <tspan x="253.5088" y="143.272468" letter-spacing="-0.0502">i</tspan>
                <tspan x="256.5786" y="143.272468" letter-spacing="0.0382">n</tspan>
                <tspan x="264.0398" y="143.272468" letter-spacing="-0.006">g</tspan>
            </text>
            <path d="M282.7253,60.4956 C282.7253,84.3096 263.4203,103.6136 239.6073,103.6136 C215.7943,103.6136 196.4893,84.3096 196.4893,60.4956 C196.4893,36.6826 215.7943,17.3776 239.6073,17.3776 C263.4203,17.3776 282.7253,36.6826 282.7253,60.4956" id="Fill-22" fill="#2A86CA"></path>
            <g id="Group-26" transform="translate(202.000000, 19.623000)">
                <mask id="mask-6" fill="white">
                    <use xlink:href="#path-5"></use>
                </mask>
                <g id="Clip-25"></g>
                <path d="M0.685,76.2397 L76.107,0.8187 C76.107,0.8187 106.746,60.6977 102.78,64.1657 C98.815,67.6357 83.451,91.4237 79.982,93.9027 C76.513,96.3817 54.211,103.3207 49.75,105.3017 C45.29,107.2837 21.005,91.4257 18.527,91.9207 C16.049,92.4157 0.685,76.2397 0.685,76.2397" id="Fill-24" fill="#004480" mask="url(#mask-6)"></path>
            </g>
            <g id="Group-46" transform="translate(0.000000, 0.623000)">
                <path d="M274.6826,64.646 L274.6826,79.03 C274.6826,79.961 273.2066,81.252 272.2756,81.252 L261.6126,81.252 L274.6826,64.646 Z" id="Stroke-27" stroke="#FCDBF8" stroke-width="2" stroke-linecap="round" stroke-linejoin="round"></path>
                <path d="M217.5005,79.3418 L202.5635,79.3418 C201.6325,79.3418 201.5715,78.1178 201.5715,77.1858 L201.5715,49.6428 C201.5715,48.7118 201.6325,48.3078 202.5635,48.3078 L208.5145,48.3078" id="Stroke-29" stroke="#FCDAC3" stroke-width="2" stroke-linecap="round" stroke-linejoin="round"></path>
                <path d="M214.0466,47.1147 C214.0466,47.1147 215.1596,35.8257 227.3026,38.0217 C229.8296,34.1337 234.2076,31.5617 239.1896,31.5617 C245.5576,31.5617 250.9456,35.7627 252.7316,41.5457 C254.1876,40.6967 255.8736,40.2027 257.6806,40.2027 C262.0976,40.2027 265.6316,44.2687 265.6316,47.1147 L214.0466,47.1147 Z" id="Fill-31" fill="#FFFFFF"></path>
                <polyline id="Stroke-33" stroke="#FCDBF8" stroke-width="2" stroke-linecap="round" stroke-linejoin="round" points="264.3781 84.6426 260.8881 81.1526 264.3781 77.6626"></polyline>
                <polyline id="Stroke-35" stroke="#FCDAC3" stroke-width="2" stroke-linecap="round" stroke-linejoin="round" points="205.5388 45.0083 209.0288 48.4993 205.5388 51.9893"></polyline>
                <path d="M271.0432,99.1411 L210.8372,99.1411 C209.6962,99.1411 208.7642,98.1941 208.7642,97.0391 L208.7642,62.2071 C208.7642,61.0521 209.6962,60.1061 210.8372,60.1061 L271.0432,60.1061 C272.1822,60.1061 273.1172,61.0521 273.1172,62.2071 L273.1172,97.0391 C273.1172,98.1941 272.1822,99.1411 271.0432,99.1411" id="Fill-37" fill="#00CBCB"></path>
                <path d="M271.1664,103.0972 L193.6804,103.0972 C192.6084,103.0972 191.7294,102.2052 191.7294,101.1202 C191.7294,100.0322 192.6084,99.1412 193.6804,99.1412 L271.1664,99.1412 C272.2384,99.1412 273.1154,100.0322 273.1154,101.1202 C273.1154,102.2052 272.2384,103.0972 271.1664,103.0972" id="Fill-39" fill="#00A5A5"></path>
                <mask id="mask-8" fill="white">
                    <use xlink:href="#path-7"></use>
                </mask>
                <g id="Clip-42"></g>
                <polygon id="Fill-41" fill="#C1EDEF" mask="url(#mask-8)" points="213.392 95.411 268.068 95.411 268.068 63.772 213.392 63.772"></polygon>
                <path d="M261.8109,103.0972 L193.6809,103.0972 C192.6079,103.0972 191.7309,102.2052 191.7309,101.1202 C191.7309,100.0322 192.6079,99.1412 193.6809,99.1412 L261.8109,99.1412 C262.8849,99.1412 263.7619,100.0322 263.7619,101.1202 C263.7619,102.2052 262.8849,103.0972 261.8109,103.0972" id="Fill-43" fill="#00CBCC" mask="url(#mask-8)"></path>
                <path d="M215.0348,76.4023 L215.0348,66.8643 C215.0348,66.1203 215.6328,65.5133 216.3678,65.5133 L226.4408,65.5133" id="Fill-44" fill="#DEFFFF" mask="url(#mask-8)"></path>
                <path d="M148.5114,124.7598 C148.5114,148.9678 128.8874,168.5918 104.6794,168.5918 C80.4724,168.5918 60.8464,148.9678 60.8464,124.7598 C60.8464,100.5518 80.4724,80.9278 104.6794,80.9278 C128.8874,80.9278 148.5114,100.5518 148.5114,124.7598" id="Fill-45" fill="#2A86CA" mask="url(#mask-8)"></path>
            </g>
            <text id="Biometría" font-family="BentonSansBBVA-Book, Benton Sans BBVA" font-size="13" font-weight="300" letter-spacing="-0.005" fill="#121212">
                <tspan x="75.7476" y="190.444368">B</tspan>
                <tspan x="84.6476" y="190.444368" letter-spacing="-0.031">i</tspan>
                <tspan x="87.7366" y="190.444368" letter-spacing="0.0379">o</tspan>
                <tspan x="95.2755" y="190.444368" letter-spacing="0.06">m</tspan>
                <tspan x="107.2045" y="190.444368" letter-spacing="-0.1259">e</tspan>
                <tspan x="114.1766" y="190.444368" letter-spacing="-0.0674">t</tspan>
                <tspan x="118.8412" y="190.444368">r</tspan>
                <tspan x="123.9582" y="190.444368" letter-spacing="-0.0973">í</tspan>
                <tspan x="126.9809" y="190.444368">a</tspan>
            </text>
            <g id="Group-57" transform="translate(84.000000, 95.623000)" fill="#FFFFFF">
                <path d="M20.8646,35.8813 C21.6226,35.8813 22.2386,35.2313 22.2386,34.4283 L22.2386,21.6453 C22.2386,20.8423 21.6226,20.1923 20.8646,20.1923 C20.1046,20.1923 19.4896,20.8423 19.4896,21.6453 L19.4896,34.4283 C19.4896,35.2313 20.1046,35.8813 20.8646,35.8813" id="Fill-47"></path>
                <path d="M20.8646,6.4824 C13.2006,6.4824 6.9656,12.7174 6.9656,20.3824 L6.9656,41.0174 L6.9656,51.6324 C6.9656,52.6014 6.1786,53.3884 5.2096,53.3884 C4.2406,53.3884 3.4526,52.6014 3.4526,51.6324 L3.4526,33.6624 C3.4526,32.9044 2.8376,32.2884 2.0786,32.2884 C1.3196,32.2884 0.7036,32.9044 0.7036,33.6624 L0.7036,51.6324 C0.7036,54.1164 2.7256,56.1364 5.2096,56.1364 C7.4486,56.1364 9.3056,54.4954 9.6516,52.3524 C9.6886,52.2274 9.7146,52.0984 9.7146,51.9614 L9.7146,51.6324 L9.7146,41.0174 L9.7146,20.3824 C9.7146,14.2344 14.7166,9.2324 20.8646,9.2324 C27.0116,9.2324 32.0136,14.2344 32.0136,20.3824 L32.0136,37.7574 L32.0136,41.7274 L32.0136,45.3104 C32.0136,49.7304 28.4166,53.3274 23.9956,53.3274 C19.5746,53.3274 15.9766,49.7304 15.9766,45.3104 L15.9766,41.2694 L15.9766,38.0624 L15.9766,31.4184 L15.9766,20.8084 C15.9766,18.1124 18.1686,15.9204 20.8646,15.9204 C23.5586,15.9204 25.7516,18.1124 25.7516,20.8084 L25.7516,25.0264 C25.7516,25.7854 26.3666,26.4014 27.1266,26.4014 C27.8846,26.4014 28.4996,25.7854 28.4996,25.0264 L28.4996,20.8084 C28.4996,16.5974 25.0746,13.1704 20.8646,13.1704 C16.6536,13.1704 13.2276,16.5974 13.2276,20.8084 L13.2276,31.4184 L13.2276,38.0624 L13.2276,41.2694 L13.2276,45.3104 L13.2276,45.9104 C13.2276,46.0284 13.2476,46.1414 13.2746,46.2514 C13.7536,51.7474 18.3746,56.0764 23.9956,56.0764 C29.9316,56.0764 34.7626,51.2474 34.7626,45.3104 L34.7626,41.7274 L34.7626,37.7574 L34.7626,20.3824 C34.7626,12.7174 28.5276,6.4824 20.8646,6.4824" id="Fill-49"></path>
                <path d="M39.2792,39.231 C38.5202,39.231 37.9052,39.846 37.9052,40.605 L37.9052,54.099 C37.9052,54.858 38.5202,55.473 39.2792,55.473 C40.0392,55.473 40.6542,54.858 40.6542,54.099 L40.6542,40.605 C40.6542,39.846 40.0392,39.231 39.2792,39.231" id="Fill-51"></path>
                <path d="M20.6791,0.3379 C9.6641,0.3379 0.7041,9.2979 0.7041,20.3119 L0.7041,27.3749 C0.7041,28.1329 1.3191,28.7489 2.0781,28.7489 C2.8371,28.7489 3.4531,28.1329 3.4531,27.3749 L3.4531,20.3119 C3.4531,10.8149 11.1811,3.0879 20.6791,3.0879 C30.1781,3.0879 37.9051,10.8149 37.9051,20.3119 L37.9051,34.5019 C37.9051,35.2609 38.5201,35.8769 39.2791,35.8769 C40.0391,35.8769 40.6541,35.2609 40.6541,34.5019 L40.6541,20.3119 C40.6541,9.2979 31.6931,0.3379 20.6791,0.3379" id="Fill-53"></path>
                <path d="M19.4896,45.2266 C19.4896,47.7626 21.5526,49.8246 24.0886,49.8246 C26.6236,49.8246 28.6866,47.7626 28.6866,45.2266 L28.6866,31.4186 C28.6866,30.6596 28.0716,30.0436 27.3116,30.0436 C26.5516,30.0436 25.9366,30.6596 25.9366,31.4186 L25.9366,45.2266 C25.9366,46.2466 25.1066,47.0756 24.0886,47.0756 C23.0676,47.0756 22.2386,46.2466 22.2386,45.2266 L22.2386,40.6046 C22.2386,39.8466 21.6226,39.2306 20.8646,39.2306 C20.1046,39.2306 19.4896,39.8466 19.4896,40.6046 L19.4896,45.2266 Z" id="Fill-55"></path>
            </g>
            <text id="Distributed" font-family="BentonSansBBVA-BookItalic, Benton Sans BBVA" font-size="13" font-style="italic" font-weight="300" letter-spacing="0.0642" fill="#121212">
                <tspan x="363.9365" y="107.601568">D</tspan>
                <tspan x="373.0877" y="107.601568" letter-spacing="-0.1386">i</tspan>
                <tspan x="376.0691" y="107.601568" letter-spacing="0.0083">s</tspan>
                <tspan x="382.3954" y="107.601568" letter-spacing="-0.1139">t</tspan>
                <tspan x="386.9095" y="107.601568" letter-spacing="-0.0775">r</tspan>
                <tspan x="391.85" y="107.601568" letter-spacing="-0.0502">i</tspan>
                <tspan x="394.9198" y="107.601568" letter-spacing="-0.006">bu</tspan>
                <tspan x="409.8838" y="107.601568" letter-spacing="-0.2647">t</tspan>
                <tspan x="414.1301" y="107.601568" letter-spacing="0.0421">e</tspan>
                <tspan x="421.1402" y="107.601568" letter-spacing="-0.006">d</tspan>
            </text>
            <text id="ledgers" font-family="BentonSansBBVA-BookItalic, Benton Sans BBVA" font-size="13" font-style="italic" font-weight="300" letter-spacing="-0.0852" fill="#121212">
                <tspan x="374.6095" y="121.602568">l</tspan>
                <tspan x="377.6443" y="121.602568" letter-spacing="-0.002">e</tspan>
                <tspan x="384.6103" y="121.602568" letter-spacing="0.0058">d</tspan>
                <tspan x="392.1951" y="121.602568" letter-spacing="-0.1177">g</tspan>
                <tspan x="399.0454" y="121.602568" letter-spacing="-0.0228">e</tspan>
                <tspan x="405.9906" y="121.602568" letter-spacing="-0.002">rs</tspan>
            </text>
            <g id="Group-145" transform="translate(0.000000, 0.623000)">
                <g id="Group-60" transform="translate(355.000000, 0.000000)">
                    <mask id="mask-10" fill="white">
                        <use xlink:href="#path-9"></use>
                    </mask>
                    <g id="Clip-59"></g>
                    <path d="M86.395,43.4946 C86.395,67.3086 67.09,86.6126 43.277,86.6126 C19.464,86.6126 0.159,67.3086 0.159,43.4946 C0.159,19.6816 19.464,0.3766 43.277,0.3766 C67.09,0.3766 86.395,19.6816 86.395,43.4946" id="Fill-58" fill="#2A86CA" mask="url(#mask-10)"></path>
                </g>
                <polyline id="Stroke-61" stroke="#F25E61" stroke-width="2.195" stroke-linecap="round" stroke-linejoin="round" points="398.2778 31.1675 398.2778 43.3235 374.2878 43.3235 374.2878 50.2685"></polyline>
                <polyline id="Stroke-63" stroke="#F25E61" stroke-width="2.195" stroke-linecap="round" stroke-linejoin="round" points="398.2778 43.3232 422.2678 43.3232 422.2678 50.2682"></polyline>
                <path d="M378.2779,58.5054 C378.2789,58.5854 378.2789,58.6654 378.2789,58.7444" id="Stroke-65" stroke="#FFFFFF" stroke-width="0.468" stroke-linecap="round" stroke-linejoin="round"></path>
                <mask id="mask-12" fill="white">
                    <use xlink:href="#path-11"></use>
                </mask>
                <g id="Clip-68"></g>
                <polygon id="Fill-67" fill="#004480" mask="url(#mask-12)" points="371.126 81.839 377.449 81.839 377.449 77.031 371.126 77.031"></polygon>
                <polygon id="Fill-69" fill="#004480" mask="url(#mask-12)" points="365.494 82.641 383.081 82.641 383.081 81.439 365.494 81.439"></polygon>
                <path d="M353.2425,77.436 C353.2425,78.214 353.8725,78.844 354.6505,78.844 L393.9245,78.844 C394.7015,78.844 395.3325,78.214 395.3325,77.436 L395.3325,51.916 C395.3325,51.138 394.7015,50.508 393.9245,50.508 L354.6505,50.508 C353.8725,50.508 353.2425,51.138 353.2425,51.916 L353.2425,77.436 Z" id="Fill-70" fill="#0074B1" mask="url(#mask-12)"></path>
                <path d="M353.2425,76.5845 C353.2425,77.3625 353.8725,77.9925 354.6505,77.9925 L393.9245,77.9925 C394.7015,77.9925 395.3325,77.3625 395.3325,76.5845 L395.3325,51.0645 C395.3325,50.2875 394.7015,49.6565 393.9245,49.6565 L354.6505,49.6565 C353.8725,49.6565 353.2425,50.2875 353.2425,51.0645 L353.2425,76.5845 Z" id="Fill-71" fill="#004480" mask="url(#mask-12)"></path>
                <path d="M393.9493,73.2695 C393.9493,73.9335 393.4183,74.4715 392.7633,74.4715 L355.8113,74.4715 C355.1563,74.4715 354.6253,73.9335 354.6253,73.2695 L354.6253,52.4575 C354.6253,51.7935 355.1563,51.2555 355.8113,51.2555 L392.7633,51.2555 C393.4183,51.2555 393.9493,51.7935 393.9493,52.4575 L393.9493,73.2695 Z" id="Fill-72" fill="#B3EEEC" mask="url(#mask-12)"></path>
                <path d="M375.5991,76.4336 C375.5991,77.1686 375.0121,77.7636 374.2871,77.7636 C373.5631,77.7636 372.9761,77.1686 372.9761,76.4336 C372.9761,75.6986 373.5631,75.1036 374.2871,75.1036 C375.0121,75.1036 375.5991,75.6986 375.5991,76.4336" id="Fill-73" fill="#004282" mask="url(#mask-12)"></path>
                <polygon id="Fill-74" fill="#062146" mask="url(#mask-12)" points="371.126 80.089 377.449 80.089 377.449 78.844 371.126 78.844"></polygon>
                <path d="M392.7635,51.2554 L386.3885,51.2554 L363.1725,74.4714 L392.7635,74.4714 C393.4185,74.4714 393.9495,73.9334 393.9495,73.2694 L393.9495,52.4574 C393.9495,51.7934 393.4185,51.2554 392.7635,51.2554" id="Fill-75" fill="#A7E1DA" mask="url(#mask-12)"></path>
                <path d="M363.873,64.1128 C363.873,64.2768 364.006,64.4098 364.171,64.4098 L389.165,64.4098 C389.329,64.4098 389.463,64.2768 389.463,64.1128 L389.463,64.1118 C389.463,63.9468 389.329,63.8148 389.165,63.8148 L364.171,63.8148 C364.006,63.8148 363.873,63.9468 363.873,64.1118 L363.873,64.1128 Z" id="Fill-76" fill="#68CCCC" mask="url(#mask-12)"></path>
                <path d="M359.1122,61.2861 C359.1122,61.4501 359.2452,61.5831 359.4102,61.5831 L384.4042,61.5831 C384.5682,61.5831 384.7022,61.4501 384.7022,61.2861 L384.7022,61.2851 C384.7022,61.1201 384.5682,60.9881 384.4042,60.9881 L359.4102,60.9881 C359.2452,60.9881 359.1122,61.1201 359.1122,61.2851 L359.1122,61.2861 Z" id="Fill-77" fill="#68CCCC" mask="url(#mask-12)"></path>
                <path d="M360.6743,62.6997 C360.6743,62.8637 360.8073,62.9967 360.9723,62.9967 L385.9663,62.9967 C386.1303,62.9967 386.2643,62.8637 386.2643,62.6997 L386.2643,62.6977 C386.2643,62.5337 386.1303,62.4007 385.9663,62.4007 L360.9723,62.4007 C360.8073,62.4007 360.6743,62.5337 360.6743,62.6977 L360.6743,62.6997 Z" id="Fill-78" fill="#68CCCC" mask="url(#mask-12)"></path>
                <path d="M359.2608,62.7041 C359.2608,62.8651 359.3918,62.9961 359.5538,62.9961 L359.7858,62.9961 C359.9478,62.9961 360.0788,62.8651 360.0788,62.7041 L360.0788,62.6931 C360.0788,62.5321 359.9478,62.4011 359.7858,62.4011 L359.5538,62.4011 C359.3918,62.4011 359.2608,62.5321 359.2608,62.6931 L359.2608,62.7041 Z" id="Fill-79" fill="#68CCCC" mask="url(#mask-12)"></path>
                <path d="M386.8591,62.7041 C386.8591,62.8651 386.9901,62.9961 387.1521,62.9961 L387.3841,62.9961 C387.5461,62.9961 387.6771,62.8651 387.6771,62.7041 L387.6771,62.6931 C387.6771,62.5321 387.5461,62.4011 387.3841,62.4011 L387.1521,62.4011 C386.9901,62.4011 386.8591,62.5321 386.8591,62.6931 L386.8591,62.7041 Z" id="Fill-80" fill="#68CCCC" mask="url(#mask-12)"></path>
                <path d="M382.9911,71.0303 C382.9911,71.2773 382.7911,71.4763 382.5451,71.4763 L366.9231,71.4763 C366.6771,71.4763 366.4771,71.2773 366.4771,71.0303 L366.4771,53.3253 C366.4771,53.0793 366.6771,52.8793 366.9231,52.8793 L382.5451,52.8793 C382.7911,52.8793 382.9911,53.0793 382.9911,53.3253 L382.9911,71.0303 Z" id="Fill-81" fill="#D3D3D3" mask="url(#mask-12)"></path>
                <path d="M366.0305,53.772 C365.7835,53.772 365.5845,53.972 365.5845,54.218 L365.5845,71.923 C365.5845,72.169 365.7835,72.369 366.0305,72.369 L381.6525,72.369 C381.8985,72.369 382.0985,72.169 382.0985,71.923 L382.0985,54.218 C382.0985,53.972 381.8985,53.772 381.6525,53.772 L366.0305,53.772 Z" id="Fill-82" fill="#FFFFFF" mask="url(#mask-12)"></path>
                <path d="M380.5891,59.9419 C380.5891,60.0869 380.4721,60.2029 380.3281,60.2029 L367.9531,60.2029 C367.8091,60.2029 367.6921,60.0869 367.6921,59.9419 C367.6921,59.7969 367.8091,59.6809 367.9531,59.6809 L380.3281,59.6809 C380.4721,59.6809 380.5891,59.7969 380.5891,59.9419" id="Fill-83" fill="#2A86CA" mask="url(#mask-12)"></path>
                <path d="M380.5891,61.3364 C380.5891,61.4804 380.4721,61.5974 380.3281,61.5974 L367.9531,61.5974 C367.8091,61.5974 367.6921,61.4804 367.6921,61.3364 C367.6921,61.1914 367.8091,61.0744 367.9531,61.0744 L380.3281,61.0744 C380.4721,61.0744 380.5891,61.1914 380.5891,61.3364" id="Fill-84" fill="#2A86CA" mask="url(#mask-12)"></path>
                <path d="M380.5891,62.8179 C380.5891,62.9619 380.4721,63.0789 380.3281,63.0789 L367.9531,63.0789 C367.8091,63.0789 367.6921,62.9619 367.6921,62.8179 C367.6921,62.6729 367.8091,62.5559 367.9531,62.5559 L380.3281,62.5559 C380.4721,62.5559 380.5891,62.6729 380.5891,62.8179" id="Fill-85" fill="#2A86CA" mask="url(#mask-12)"></path>
                <path d="M380.5891,64.2119 C380.5891,64.3569 380.4721,64.4739 380.3281,64.4739 L367.9531,64.4739 C367.8091,64.4739 367.6921,64.3569 367.6921,64.2119 C367.6921,64.0679 367.8091,63.9509 367.9531,63.9509 L380.3281,63.9509 C380.4721,63.9509 380.5891,64.0679 380.5891,64.2119" id="Fill-86" fill="#2A86CA" mask="url(#mask-12)"></path>
                <path d="M380.5891,65.6064 C380.5891,65.7504 380.4721,65.8674 380.3281,65.8674 L367.9531,65.8674 C367.8091,65.8674 367.6921,65.7504 367.6921,65.6064 C367.6921,65.4614 367.8091,65.3444 367.9531,65.3444 L380.3281,65.3444 C380.4721,65.3444 380.5891,65.4614 380.5891,65.6064" id="Fill-87" fill="#2A86CA" mask="url(#mask-12)"></path>
                <path d="M380.5891,67.0879 C380.5891,67.2319 380.4721,67.3489 380.3281,67.3489 L367.9531,67.3489 C367.8091,67.3489 367.6921,67.2319 367.6921,67.0879 C367.6921,66.9429 367.8091,66.8259 367.9531,66.8259 L380.3281,66.8259 C380.4721,66.8259 380.5891,66.9429 380.5891,67.0879" id="Fill-88" fill="#2A86CA" mask="url(#mask-12)"></path>
                <path d="M380.5891,68.4819 C380.5891,68.6269 380.4721,68.7439 380.3281,68.7439 L367.9531,68.7439 C367.8091,68.7439 367.6921,68.6269 367.6921,68.4819 C367.6921,68.3369 367.8091,68.2209 367.9531,68.2209 L380.3281,68.2209 C380.4721,68.2209 380.5891,68.3369 380.5891,68.4819" id="Fill-89" fill="#2A86CA" mask="url(#mask-12)"></path>
                <path d="M373.2691,70.4429 C373.2691,70.5629 373.1711,70.6609 373.0511,70.6609 L367.9101,70.6609 C367.7891,70.6609 367.6921,70.5629 367.6921,70.4429 C367.6921,70.3219 367.7891,70.2249 367.9101,70.2249 L373.0511,70.2249 C373.1711,70.2249 373.2691,70.3219 373.2691,70.4429" id="Fill-90" fill="#2A86CA" mask="url(#mask-12)"></path>
                <path d="M368.7734,58.0396 L368.5634,58.0396 L368.5634,55.8516 L368.9434,55.8516 C369.1274,55.8516 369.2864,56.0036 369.2864,56.1856 C369.2864,56.2506 369.2734,56.3096 369.2104,56.4026 L368.9634,56.7726 C369.2214,56.8346 369.3934,57.0316 369.3934,57.4006 C369.3934,57.8496 369.1274,58.0396 368.7734,58.0396 M369.5174,56.6566 L369.6604,56.4386 C369.9674,55.9796 369.7564,55.4806 369.1524,55.4806 L367.8644,55.4806 L367.8644,58.4776 L369.1074,58.4776 C370.2004,58.4776 370.5294,57.1886 369.5174,56.6566" id="Fill-91" fill="#2A86CA" mask="url(#mask-12)"></path>
                <polygon id="Fill-92" fill="#F4F4F4" mask="url(#mask-12)" points="364.4543 72.9409 384.8103 52.5709 383.5193 74.6009 371.8333 74.6009"></polygon>
                <path d="M426.2572,58.5054 C426.2582,58.5854 426.2582,58.6654 426.2582,58.7444" id="Stroke-93" stroke="#FFFFFF" stroke-width="0.468" stroke-linecap="round" stroke-linejoin="round" mask="url(#mask-12)"></path>
                <polygon id="Fill-94" fill="#004480" mask="url(#mask-12)" points="419.106 81.839 425.429 81.839 425.429 77.031 419.106 77.031"></polygon>
                <polygon id="Fill-95" fill="#004480" mask="url(#mask-12)" points="413.473 82.641 431.06 82.641 431.06 81.439 413.473 81.439"></polygon>
                <path d="M401.2219,77.436 C401.2219,78.214 401.8519,78.844 402.6299,78.844 L441.9039,78.844 C442.6809,78.844 443.3119,78.214 443.3119,77.436 L443.3119,51.916 C443.3119,51.138 442.6809,50.508 441.9039,50.508 L402.6299,50.508 C401.8519,50.508 401.2219,51.138 401.2219,51.916 L401.2219,77.436 Z" id="Fill-96" fill="#0074B1" mask="url(#mask-12)"></path>
                <path d="M401.2219,76.5845 C401.2219,77.3625 401.8519,77.9925 402.6299,77.9925 L441.9039,77.9925 C442.6809,77.9925 443.3119,77.3625 443.3119,76.5845 L443.3119,51.0645 C443.3119,50.2875 442.6809,49.6565 441.9039,49.6565 L402.6299,49.6565 C401.8519,49.6565 401.2219,50.2875 401.2219,51.0645 L401.2219,76.5845 Z" id="Fill-97" fill="#004480" mask="url(#mask-12)"></path>
                <path d="M441.9286,73.2695 C441.9286,73.9335 441.3976,74.4715 440.7426,74.4715 L403.7906,74.4715 C403.1356,74.4715 402.6046,73.9335 402.6046,73.2695 L402.6046,52.4575 C402.6046,51.7935 403.1356,51.2555 403.7906,51.2555 L440.7426,51.2555 C441.3976,51.2555 441.9286,51.7935 441.9286,52.4575 L441.9286,73.2695 Z" id="Fill-98" fill="#B3EEEC" mask="url(#mask-12)"></path>
                <path d="M423.5785,76.4336 C423.5785,77.1686 422.9915,77.7636 422.2665,77.7636 C421.5425,77.7636 420.9555,77.1686 420.9555,76.4336 C420.9555,75.6986 421.5425,75.1036 422.2665,75.1036 C422.9915,75.1036 423.5785,75.6986 423.5785,76.4336" id="Fill-99" fill="#004282" mask="url(#mask-12)"></path>
                <polygon id="Fill-100" fill="#062146" mask="url(#mask-12)" points="419.106 80.089 425.429 80.089 425.429 78.844 419.106 78.844"></polygon>
                <path d="M440.7428,51.2554 L434.3678,51.2554 L411.1518,74.4714 L440.7428,74.4714 C441.3978,74.4714 441.9288,73.9334 441.9288,73.2694 L441.9288,52.4574 C441.9288,51.7934 441.3978,51.2554 440.7428,51.2554" id="Fill-101" fill="#A7E1DA" mask="url(#mask-12)"></path>
                <path d="M411.8523,64.3521 C411.8523,64.5161 411.9853,64.6491 412.1503,64.6491 L437.1443,64.6491 C437.3083,64.6491 437.4423,64.5161 437.4423,64.3521 L437.4423,64.3501 C437.4423,64.1861 437.3083,64.0541 437.1443,64.0541 L412.1503,64.0541 C411.9853,64.0541 411.8523,64.1861 411.8523,64.3501 L411.8523,64.3521 Z" id="Fill-102" fill="#68CCCC" mask="url(#mask-12)"></path>
                <path d="M407.0914,61.5254 C407.0914,61.6894 407.2244,61.8214 407.3894,61.8214 L432.3834,61.8214 C432.5484,61.8214 432.6814,61.6894 432.6814,61.5254 L432.6814,61.5234 C432.6814,61.3594 432.5484,61.2264 432.3834,61.2264 L407.3894,61.2264 C407.2244,61.2264 407.0914,61.3594 407.0914,61.5234 L407.0914,61.5254 Z" id="Fill-103" fill="#68CCCC" mask="url(#mask-12)"></path>
                <path d="M408.6535,62.9385 C408.6535,63.1025 408.7865,63.2355 408.9515,63.2355 L433.9455,63.2355 C434.1105,63.2355 434.2435,63.1025 434.2435,62.9385 L434.2435,62.9375 C434.2435,62.7725 434.1105,62.6405 433.9455,62.6405 L408.9515,62.6405 C408.7865,62.6405 408.6535,62.7725 408.6535,62.9375 L408.6535,62.9385 Z" id="Fill-104" fill="#68CCCC" mask="url(#mask-12)"></path>
                <path d="M407.2402,62.9429 C407.2402,63.1049 407.3712,63.2349 407.5332,63.2349 L407.7652,63.2349 C407.9272,63.2349 408.0582,63.1049 408.0582,62.9429 L408.0582,62.9329 C408.0582,62.7709 407.9272,62.6399 407.7652,62.6399 L407.5332,62.6399 C407.3712,62.6399 407.2402,62.7709 407.2402,62.9329 L407.2402,62.9429 Z" id="Fill-105" fill="#68CCCC" mask="url(#mask-12)"></path>
                <path d="M434.8383,62.9429 C434.8383,63.1049 434.9693,63.2349 435.1313,63.2349 L435.3633,63.2349 C435.5253,63.2349 435.6563,63.1049 435.6563,62.9429 L435.6563,62.9329 C435.6563,62.7709 435.5253,62.6399 435.3633,62.6399 L435.1313,62.6399 C434.9693,62.6399 434.8383,62.7709 434.8383,62.9329 L434.8383,62.9429 Z" id="Fill-106" fill="#68CCCC" mask="url(#mask-12)"></path>
                <path d="M430.9704,71.2695 C430.9704,71.5165 430.7704,71.7155 430.5244,71.7155 L414.9024,71.7155 C414.6554,71.7155 414.4564,71.5165 414.4564,71.2695 L414.4564,53.5645 C414.4564,53.3185 414.6554,53.1185 414.9024,53.1185 L430.5244,53.1185 C430.7704,53.1185 430.9704,53.3185 430.9704,53.5645 L430.9704,71.2695 Z" id="Fill-107" fill="#D3D3D3" mask="url(#mask-12)"></path>
                <path d="M414.0097,54.0112 C413.7627,54.0112 413.5637,54.2112 413.5637,54.4572 L413.5637,72.1622 C413.5637,72.4082 413.7627,72.6082 414.0097,72.6082 L429.6317,72.6082 C429.8777,72.6082 430.0777,72.4082 430.0777,72.1622 L430.0777,54.4572 C430.0777,54.2112 429.8777,54.0112 429.6317,54.0112 L414.0097,54.0112 Z" id="Fill-108" fill="#FFFFFF" mask="url(#mask-12)"></path>
                <path d="M428.5685,60.1812 C428.5685,60.3252 428.4515,60.4422 428.3065,60.4422 L415.9325,60.4422 C415.7885,60.4422 415.6715,60.3252 415.6715,60.1812 C415.6715,60.0362 415.7885,59.9192 415.9325,59.9192 L428.3065,59.9192 C428.4515,59.9192 428.5685,60.0362 428.5685,60.1812" id="Fill-109" fill="#2A86CA" mask="url(#mask-12)"></path>
                <path d="M428.5685,61.5752 C428.5685,61.7202 428.4515,61.8372 428.3065,61.8372 L415.9325,61.8372 C415.7885,61.8372 415.6715,61.7202 415.6715,61.5752 C415.6715,61.4312 415.7885,61.3142 415.9325,61.3142 L428.3065,61.3142 C428.4515,61.3142 428.5685,61.4312 428.5685,61.5752" id="Fill-110" fill="#2A86CA" mask="url(#mask-12)"></path>
                <path d="M428.5685,63.0566 C428.5685,63.2016 428.4515,63.3186 428.3065,63.3186 L415.9325,63.3186 C415.7885,63.3186 415.6715,63.2016 415.6715,63.0566 C415.6715,62.9126 415.7885,62.7956 415.9325,62.7956 L428.3065,62.7956 C428.4515,62.7956 428.5685,62.9126 428.5685,63.0566" id="Fill-111" fill="#2A86CA" mask="url(#mask-12)"></path>
                <path d="M428.5685,64.4512 C428.5685,64.5952 428.4515,64.7122 428.3065,64.7122 L415.9325,64.7122 C415.7885,64.7122 415.6715,64.5952 415.6715,64.4512 C415.6715,64.3062 415.7885,64.1892 415.9325,64.1892 L428.3065,64.1892 C428.4515,64.1892 428.5685,64.3062 428.5685,64.4512" id="Fill-112" fill="#2A86CA" mask="url(#mask-12)"></path>
                <path d="M428.5685,65.8452 C428.5685,65.9902 428.4515,66.1072 428.3065,66.1072 L415.9325,66.1072 C415.7885,66.1072 415.6715,65.9902 415.6715,65.8452 C415.6715,65.7012 415.7885,65.5842 415.9325,65.5842 L428.3065,65.5842 C428.4515,65.5842 428.5685,65.7012 428.5685,65.8452" id="Fill-113" fill="#2A86CA" mask="url(#mask-12)"></path>
                <path d="M428.5685,67.3267 C428.5685,67.4717 428.4515,67.5887 428.3065,67.5887 L415.9325,67.5887 C415.7885,67.5887 415.6715,67.4717 415.6715,67.3267 C415.6715,67.1827 415.7885,67.0657 415.9325,67.0657 L428.3065,67.0657 C428.4515,67.0657 428.5685,67.1827 428.5685,67.3267" id="Fill-114" fill="#2A86CA" mask="url(#mask-12)"></path>
                <path d="M428.5685,68.7212 C428.5685,68.8652 428.4515,68.9822 428.3065,68.9822 L415.9325,68.9822 C415.7885,68.9822 415.6715,68.8652 415.6715,68.7212 C415.6715,68.5762 415.7885,68.4592 415.9325,68.4592 L428.3065,68.4592 C428.4515,68.4592 428.5685,68.5762 428.5685,68.7212" id="Fill-115" fill="#2A86CA" mask="url(#mask-12)"></path>
                <path d="M421.2484,70.6816 C421.2484,70.8026 421.1504,70.8996 421.0304,70.8996 L415.8894,70.8996 C415.7684,70.8996 415.6714,70.8026 415.6714,70.6816 C415.6714,70.5616 415.7684,70.4636 415.8894,70.4636 L421.0304,70.4636 C421.1504,70.4636 421.2484,70.5616 421.2484,70.6816" id="Fill-116" fill="#2A86CA" mask="url(#mask-12)"></path>
                <path d="M416.7528,58.2788 L416.5428,58.2788 L416.5428,56.0908 L416.9228,56.0908 C417.1058,56.0908 417.2658,56.2428 417.2658,56.4248 C417.2658,56.4898 417.2528,56.5488 417.1898,56.6418 L416.9428,57.0118 C417.2008,57.0738 417.3728,57.2708 417.3728,57.6398 C417.3728,58.0888 417.1058,58.2788 416.7528,58.2788 M417.4968,56.8948 L417.6398,56.6778 C417.9468,56.2178 417.7358,55.7198 417.1318,55.7198 L415.8438,55.7198 L415.8438,58.7158 L417.0868,58.7158 C418.1798,58.7158 418.5078,57.4278 417.4968,56.8948" id="Fill-117" fill="#2A86CA" mask="url(#mask-12)"></path>
                <polygon id="Fill-118" fill="#F4F4F4" mask="url(#mask-12)" points="412.4337 73.1802 432.7897 52.8102 431.4987 74.8402 419.8117 74.8402"></polygon>
                <path d="M402.2682,13.1978 C402.2692,13.2778 402.2692,13.3568 402.2692,13.4368" id="Stroke-119" stroke="#FFFFFF" stroke-width="0.468" stroke-linecap="round" stroke-linejoin="round" mask="url(#mask-12)"></path>
                <polygon id="Fill-120" fill="#004480" mask="url(#mask-12)" points="395.117 36.532 401.44 36.532 401.44 31.724 395.117 31.724"></polygon>
                <polygon id="Fill-121" fill="#004480" mask="url(#mask-12)" points="389.484 37.333 407.071 37.333 407.071 36.131 389.484 36.131"></polygon>
                <path d="M377.2329,32.1284 C377.2329,32.9064 377.8629,33.5364 378.6409,33.5364 L417.9149,33.5364 C418.6919,33.5364 419.3229,32.9064 419.3229,32.1284 L419.3229,6.6074 C419.3229,5.8304 418.6919,5.2004 417.9149,5.2004 L378.6409,5.2004 C377.8629,5.2004 377.2329,5.8304 377.2329,6.6074 L377.2329,32.1284 Z" id="Fill-122" fill="#0074B1" mask="url(#mask-12)"></path>
                <path d="M377.2329,31.2769 C377.2329,32.0549 377.8629,32.6849 378.6409,32.6849 L417.9149,32.6849 C418.6919,32.6849 419.3229,32.0549 419.3229,31.2769 L419.3229,5.7569 C419.3229,4.9789 418.6919,4.3489 417.9149,4.3489 L378.6409,4.3489 C377.8629,4.3489 377.2329,4.9789 377.2329,5.7569 L377.2329,31.2769 Z" id="Fill-123" fill="#004480" mask="url(#mask-12)"></path>
                <path d="M417.9395,27.9614 C417.9395,28.6254 417.4085,29.1634 416.7535,29.1634 L379.8015,29.1634 C379.1465,29.1634 378.6155,28.6254 378.6155,27.9614 L378.6155,7.1494 C378.6155,6.4854 379.1465,5.9474 379.8015,5.9474 L416.7535,5.9474 C417.4085,5.9474 417.9395,6.4854 417.9395,7.1494 L417.9395,27.9614 Z" id="Fill-124" fill="#B3EEEC" mask="url(#mask-12)"></path>
                <path d="M399.5893,31.126 C399.5893,31.861 399.0023,32.456 398.2773,32.456 C397.5533,32.456 396.9663,31.861 396.9663,31.126 C396.9663,30.391 397.5533,29.796 398.2773,29.796 C399.0023,29.796 399.5893,30.391 399.5893,31.126" id="Fill-125" fill="#004282" mask="url(#mask-12)"></path>
                <polygon id="Fill-126" fill="#062146" mask="url(#mask-12)" points="395.117 34.781 401.44 34.781 401.44 33.536 395.117 33.536"></polygon>
                <path d="M416.7538,5.9478 L410.3788,5.9478 L387.1628,29.1638 L416.7538,29.1638 C417.4088,29.1638 417.9398,28.6258 417.9398,27.9618 L417.9398,7.1498 C417.9398,6.4858 417.4088,5.9478 416.7538,5.9478" id="Fill-127" fill="#A7E1DA" mask="url(#mask-12)"></path>
                <path d="M387.8633,19.0444 C387.8633,19.2084 387.9963,19.3404 388.1613,19.3404 L413.1553,19.3404 C413.3193,19.3404 413.4533,19.2084 413.4533,19.0444 L413.4533,19.0424 C413.4533,18.8784 413.3193,18.7464 413.1553,18.7464 L388.1613,18.7464 C387.9963,18.7464 387.8633,18.8784 387.8633,19.0424 L387.8633,19.0444 Z" id="Fill-128" fill="#68CCCC" mask="url(#mask-12)"></path>
                <path d="M383.1024,16.2173 C383.1024,16.3813 383.2354,16.5143 383.4004,16.5143 L408.3944,16.5143 C408.5594,16.5143 408.6924,16.3813 408.6924,16.2173 L408.6924,16.2163 C408.6924,16.0523 408.5594,15.9193 408.3944,15.9193 L383.4004,15.9193 C383.2354,15.9193 383.1024,16.0523 383.1024,16.2163 L383.1024,16.2173 Z" id="Fill-129" fill="#68CCCC" mask="url(#mask-12)"></path>
                <path d="M384.6645,17.6309 C384.6645,17.7949 384.7975,17.9279 384.9625,17.9279 L409.9565,17.9279 C410.1215,17.9279 410.2545,17.7949 410.2545,17.6309 L410.2545,17.6299 C410.2545,17.4649 410.1215,17.3329 409.9565,17.3329 L384.9625,17.3329 C384.7975,17.3329 384.6645,17.4649 384.6645,17.6299 L384.6645,17.6309 Z" id="Fill-130" fill="#68CCCC" mask="url(#mask-12)"></path>
                <path d="M383.2512,17.6353 C383.2512,17.7973 383.3822,17.9273 383.5442,17.9273 L383.7762,17.9273 C383.9382,17.9273 384.0692,17.7973 384.0692,17.6353 L384.0692,17.6253 C384.0692,17.4633 383.9382,17.3323 383.7762,17.3323 L383.5442,17.3323 C383.3822,17.3323 383.2512,17.4633 383.2512,17.6253 L383.2512,17.6353 Z" id="Fill-131" fill="#68CCCC" mask="url(#mask-12)"></path>
                <path d="M410.8493,17.6353 C410.8493,17.7973 410.9803,17.9273 411.1423,17.9273 L411.3743,17.9273 C411.5363,17.9273 411.6673,17.7973 411.6673,17.6353 L411.6673,17.6253 C411.6673,17.4633 411.5363,17.3323 411.3743,17.3323 L411.1423,17.3323 C410.9803,17.3323 410.8493,17.4633 410.8493,17.6253 L410.8493,17.6353 Z" id="Fill-132" fill="#68CCCC" mask="url(#mask-12)"></path>
                <path d="M406.9814,25.9614 C406.9814,26.2084 406.7814,26.4084 406.5354,26.4084 L390.9134,26.4084 C390.6664,26.4084 390.4674,26.2084 390.4674,25.9614 L390.4674,8.2564 C390.4674,8.0104 390.6664,7.8104 390.9134,7.8104 L406.5354,7.8104 C406.7814,7.8104 406.9814,8.0104 406.9814,8.2564 L406.9814,25.9614 Z" id="Fill-133" fill="#D3D3D3" mask="url(#mask-12)"></path>
                <path d="M390.0207,8.7036 C389.7737,8.7036 389.5747,8.9036 389.5747,9.1496 L389.5747,26.8536 C389.5747,27.1006 389.7737,27.3006 390.0207,27.3006 L405.6427,27.3006 C405.8887,27.3006 406.0887,27.1006 406.0887,26.8536 L406.0887,9.1496 C406.0887,8.9036 405.8887,8.7036 405.6427,8.7036 L390.0207,8.7036 Z" id="Fill-134" fill="#FFFFFF" mask="url(#mask-12)"></path>
                <path d="M404.5794,14.8735 C404.5794,15.0175 404.4624,15.1345 404.3174,15.1345 L391.9434,15.1345 C391.7994,15.1345 391.6824,15.0175 391.6824,14.8735 C391.6824,14.7285 391.7994,14.6115 391.9434,14.6115 L404.3174,14.6115 C404.4624,14.6115 404.5794,14.7285 404.5794,14.8735" id="Fill-135" fill="#2A86CA" mask="url(#mask-12)"></path>
                <path d="M404.5794,16.2676 C404.5794,16.4126 404.4624,16.5296 404.3174,16.5296 L391.9434,16.5296 C391.7994,16.5296 391.6824,16.4126 391.6824,16.2676 C391.6824,16.1236 391.7994,16.0066 391.9434,16.0066 L404.3174,16.0066 C404.4624,16.0066 404.5794,16.1236 404.5794,16.2676" id="Fill-136" fill="#2A86CA" mask="url(#mask-12)"></path>
                <path d="M404.5794,17.749 C404.5794,17.894 404.4624,18.011 404.3174,18.011 L391.9434,18.011 C391.7994,18.011 391.6824,17.894 391.6824,17.749 C391.6824,17.604 391.7994,17.488 391.9434,17.488 L404.3174,17.488 C404.4624,17.488 404.5794,17.604 404.5794,17.749" id="Fill-137" fill="#2A86CA" mask="url(#mask-12)"></path>
                <path d="M404.5794,19.1436 C404.5794,19.2876 404.4624,19.4046 404.3174,19.4046 L391.9434,19.4046 C391.7994,19.4046 391.6824,19.2876 391.6824,19.1436 C391.6824,18.9986 391.7994,18.8816 391.9434,18.8816 L404.3174,18.8816 C404.4624,18.8816 404.5794,18.9986 404.5794,19.1436" id="Fill-138" fill="#2A86CA" mask="url(#mask-12)"></path>
                <path d="M404.5794,20.5376 C404.5794,20.6826 404.4624,20.7996 404.3174,20.7996 L391.9434,20.7996 C391.7994,20.7996 391.6824,20.6826 391.6824,20.5376 C391.6824,20.3926 391.7994,20.2766 391.9434,20.2766 L404.3174,20.2766 C404.4624,20.2766 404.5794,20.3926 404.5794,20.5376" id="Fill-139" fill="#2A86CA" mask="url(#mask-12)"></path>
                <path d="M404.5794,22.019 C404.5794,22.164 404.4624,22.28 404.3174,22.28 L391.9434,22.28 C391.7994,22.28 391.6824,22.164 391.6824,22.019 C391.6824,21.875 391.7994,21.758 391.9434,21.758 L404.3174,21.758 C404.4624,21.758 404.5794,21.875 404.5794,22.019" id="Fill-140" fill="#2A86CA" mask="url(#mask-12)"></path>
                <path d="M404.5794,23.4136 C404.5794,23.5576 404.4624,23.6746 404.3174,23.6746 L391.9434,23.6746 C391.7994,23.6746 391.6824,23.5576 391.6824,23.4136 C391.6824,23.2686 391.7994,23.1516 391.9434,23.1516 L404.3174,23.1516 C404.4624,23.1516 404.5794,23.2686 404.5794,23.4136" id="Fill-141" fill="#2A86CA" mask="url(#mask-12)"></path>
                <path d="M397.2594,25.374 C397.2594,25.494 397.1614,25.592 397.0414,25.592 L391.9004,25.592 C391.7794,25.592 391.6824,25.494 391.6824,25.374 C391.6824,25.254 391.7794,25.156 391.9004,25.156 L397.0414,25.156 C397.1614,25.156 397.2594,25.254 397.2594,25.374" id="Fill-142" fill="#2A86CA" mask="url(#mask-12)"></path>
                <path d="M392.7638,12.9712 L392.5538,12.9712 L392.5538,10.7832 L392.9338,10.7832 C393.1168,10.7832 393.2768,10.9352 393.2768,11.1172 C393.2768,11.1822 393.2638,11.2412 393.2008,11.3332 L392.9538,11.7042 C393.2118,11.7662 393.3838,11.9632 393.3838,12.3322 C393.3838,12.7812 393.1168,12.9712 392.7638,12.9712 M393.5078,11.5872 L393.6508,11.3702 C393.9578,10.9102 393.7468,10.4122 393.1428,10.4122 L391.8548,10.4122 L391.8548,13.4082 L393.0978,13.4082 C394.1908,13.4082 394.5188,12.1202 393.5078,11.5872" id="Fill-143" fill="#2A86CA" mask="url(#mask-12)"></path>
                <polygon id="Fill-144" fill="#F4F4F4" mask="url(#mask-12)" points="388.4447 27.8721 408.8007 7.5021 407.5097 29.5321 395.8227 29.5321"></polygon>
            </g>
            <text id="Inteligencial" font-family="BentonSansBBVA-Book, Benton Sans BBVA" font-size="13" font-weight="300" letter-spacing="0.0357" fill="#121212">
                <tspan x="530.6245" y="125.271468">I</tspan>
                <tspan x="534.3132" y="125.271468" letter-spacing="0.1046">n</tspan>
                <tspan x="541.9708" y="125.271468" letter-spacing="-0.1892">t</tspan>
                <tspan x="546.3966" y="125.271468" letter-spacing="0.1319">e</tspan>
                <tspan x="553.6265" y="125.271468" letter-spacing="0.0487">l</tspan>
                <tspan x="556.7952" y="125.271468" letter-spacing="0.0981">i</tspan>
                <tspan x="560.0133" y="125.271468" letter-spacing="-0.015">g</tspan>
                <tspan x="567.0963" y="125.271468" letter-spacing="0.1579">e</tspan>
                <tspan x="574.3522" y="125.271468" letter-spacing="0.18">n</tspan>
                <tspan x="582.0852" y="125.271468" letter-spacing="-0.015">c</tspan>
                <tspan x="588.9732" y="125.271468" letter-spacing="0.05">i</tspan>
                <tspan x="592.1432" y="125.271468" letter-spacing="0.1215">a</tspan>
                <tspan x="599.3757" y="125.271468" letter-spacing="-0.015">l</tspan>
            </text>
            <text id="arti˜cial" font-family="BentonSansBBVA-Book, Benton Sans BBVA" font-size="13" font-weight="300" letter-spacing="0.1618" fill="#121212">
                <tspan x="541.9475" y="139.272468">a</tspan>
                <tspan x="549.2203" y="139.272468" letter-spacing="0.5141">r</tspan>
                <tspan x="554.8564" y="139.272468" letter-spacing="0.0136">t</tspan>
                <tspan x="559.602" y="139.272468" letter-spacing="0.1397">i</tspan>
                <tspan x="562.8617" y="139.272468" letter-spacing="0.1046">˜</tspan>
                <tspan x="569.5183" y="139.272468" letter-spacing="-0.015">c</tspan>
                <tspan x="576.4063" y="139.272468" letter-spacing="0.0487">i</tspan>
                <tspan x="579.575" y="139.272468" letter-spacing="0.1228">a</tspan>
                <tspan x="586.8088" y="139.272468" letter-spacing="-0.015">l</tspan>
            </text>
            <g id="Group-209" transform="translate(0.000000, 0.623000)">
                <path d="M608.1183,58.939 C608.1183,82.753 588.8133,102.058 565.0003,102.058 C541.1873,102.058 521.8823,82.753 521.8823,58.939 C521.8823,35.126 541.1873,15.821 565.0003,15.821 C588.8133,15.821 608.1183,35.126 608.1183,58.939 Z" id="Fill-146" fill="#2A86CA"></path>
                <path d="M565.0004,102.0576 C588.8134,102.0576 608.1184,82.7526 608.1184,58.9386 C608.1184,46.6366 602.9574,35.5466 594.6934,27.6916 L533.7524,88.6326 C541.6084,96.8966 552.6984,102.0576 565.0004,102.0576" id="Fill-148" fill="#1D1D1B"></path>
                <path d="M552.3676,50.8281 L546.4506,50.8281" id="Stroke-150" stroke="#FFFFFF" stroke-width="2" stroke-linecap="round" stroke-linejoin="round"></path>
                <path d="M552.3676,58.5674 L546.4506,58.5674" id="Stroke-152" stroke="#FFFFFF" stroke-width="2" stroke-linecap="round" stroke-linejoin="round"></path>
                <path d="M552.3676,66.3066 L546.4506,66.3066" id="Stroke-154" stroke="#FFFFFF" stroke-width="2" stroke-linecap="round" stroke-linejoin="round"></path>
                <path d="M584.5502,50.8281 L578.6332,50.8281" id="Stroke-156" stroke="#FFFFFF" stroke-width="2" stroke-linecap="round" stroke-linejoin="round"></path>
                <path d="M584.5502,58.5674 L578.6332,58.5674" id="Stroke-158" stroke="#FFFFFF" stroke-width="2" stroke-linecap="round" stroke-linejoin="round"></path>
                <path d="M584.5502,66.3066 L578.6332,66.3066" id="Stroke-160" stroke="#FFFFFF" stroke-width="2" stroke-linecap="round" stroke-linejoin="round"></path>
                <path d="M573.2457,48.8281 L557.7667,48.8281 C556.6627,48.8281 555.7667,49.7241 555.7667,50.8281 L555.7667,66.3071 C555.7667,67.4111 556.6627,68.3071 557.7667,68.3071 L573.2457,68.3071 C574.3497,68.3071 575.2457,67.4111 575.2457,66.3071 L575.2457,50.8281 C575.2457,49.7241 574.3497,48.8281 573.2457,48.8281 L573.2457,48.8281 Z M557.7667,66.3071 L573.2457,66.3071 L573.2457,50.8281 L557.7667,50.8281 L557.7667,66.3071 Z" id="Fill-162" fill="#FFFFFF"></path>
                <path d="M557.7675,70.7358 L557.7675,76.6528" id="Stroke-164" stroke="#FFFFFF" stroke-width="2" stroke-linecap="round" stroke-linejoin="round"></path>
                <path d="M565.5065,70.7358 L565.5065,76.6528" id="Stroke-166" stroke="#FFFFFF" stroke-width="2" stroke-linecap="round" stroke-linejoin="round"></path>
                <path d="M573.2457,70.7358 L573.2457,76.6528" id="Stroke-168" stroke="#FFFFFF" stroke-width="2" stroke-linecap="round" stroke-linejoin="round"></path>
                <path d="M557.7675,40.4824 L557.7675,46.3994" id="Stroke-170" stroke="#FFFFFF" stroke-width="2" stroke-linecap="round" stroke-linejoin="round"></path>
                <path d="M565.5065,40.4824 L565.5065,46.3994" id="Stroke-172" stroke="#FFFFFF" stroke-width="2" stroke-linecap="round" stroke-linejoin="round"></path>
                <path d="M573.2457,40.4824 L573.2457,46.3994" id="Stroke-174" stroke="#FFFFFF" stroke-width="2" stroke-linecap="round" stroke-linejoin="round"></path>
                <polyline id="Stroke-176" stroke="#FFFFFF" stroke-width="2" stroke-linecap="round" stroke-linejoin="round" points="549.4091 61.6943 527.9091 61.6943 527.9091 67.6943"></polyline>
                <path d="M529.8258,69.6943 C529.8258,70.7523 528.9678,71.6113 527.9088,71.6113 C526.8508,71.6113 525.9928,70.7523 525.9928,69.6943 C525.9928,68.6353 526.8508,67.7773 527.9088,67.7773 C528.9678,67.7773 529.8258,68.6353 529.8258,69.6943 Z" id="Stroke-178" stroke="#FFFFFF" stroke-width="2" stroke-linejoin="round"></path>
                <path d="M549.4091,77.6523 C549.4091,78.7113 548.5511,79.5693 547.4921,79.5693 C546.4341,79.5693 545.5761,78.7113 545.5761,77.6523 C545.5761,76.5933 546.4341,75.7353 547.4921,75.7353 C548.5511,75.7353 549.4091,76.5933 549.4091,77.6523 Z" id="Stroke-180" stroke="#FFFFFF" stroke-width="2" stroke-linecap="round" stroke-linejoin="round"></path>
                <path d="M551.2841,36.3193 C551.2841,37.3773 550.4261,38.2363 549.3671,38.2363 C548.3091,38.2363 547.4511,37.3773 547.4511,36.3193 C547.4511,35.2603 548.3091,34.4023 549.3671,34.4023 C550.4261,34.4023 551.2841,35.2603 551.2841,36.3193 Z" id="Stroke-182" stroke="#FFFFFF" stroke-width="2" stroke-linecap="round" stroke-linejoin="round"></path>
                <path d="M581.7633,32.4443 C581.7633,33.5023 580.9053,34.3613 579.8463,34.3613 C578.7883,34.3613 577.9303,33.5023 577.9303,32.4443 C577.9303,31.3853 578.7883,30.5273 579.8463,30.5273 C580.9053,30.5273 581.7633,31.3853 581.7633,32.4443 Z" id="Stroke-184" stroke="#FFFFFF" stroke-width="2" stroke-linecap="round" stroke-linejoin="round"></path>
                <path d="M591.3258,49.668 C591.3258,50.727 590.4678,51.585 589.4088,51.585 C588.3508,51.585 587.4928,50.727 587.4928,49.668 C587.4928,48.609 588.3508,47.751 589.4088,47.751 C590.4678,47.751 591.3258,48.609 591.3258,49.668 Z" id="Stroke-186" stroke="#FFFFFF" stroke-width="2" stroke-linecap="round" stroke-linejoin="round"></path>
                <path d="M604.0758,52.3193 C604.0758,53.3773 603.2178,54.2363 602.1588,54.2363 C601.1008,54.2363 600.2428,53.3773 600.2428,52.3193 C600.2428,51.2603 601.1008,50.4023 602.1588,50.4023 C603.2178,50.4023 604.0758,51.2603 604.0758,52.3193 Z" id="Stroke-188" stroke="#FFFFFF" stroke-width="2" stroke-linecap="round" stroke-linejoin="round"></path>
                <path d="M583.6801,83.0693 C583.6801,84.1273 582.8221,84.9863 581.7631,84.9863 C580.7051,84.9863 579.8471,84.1273 579.8471,83.0693 C579.8471,82.0103 580.7051,81.1523 581.7631,81.1523 C582.8221,81.1523 583.6801,82.0103 583.6801,83.0693 Z" id="Stroke-190" stroke="#FFFFFF" stroke-width="2" stroke-linecap="round" stroke-linejoin="round"></path>
                <polyline id="Stroke-192" stroke="#FFFFFF" stroke-width="2" stroke-linecap="round" stroke-linejoin="round" points="580.5917 54.5693 589.4087 54.5693 589.4087 52.3193"></polyline>
                <polyline id="Stroke-194" stroke="#FFFFFF" stroke-width="2" stroke-linecap="round" stroke-linejoin="round" points="580.5917 61.9395 602.1587 61.9395 602.1587 54.2355"></polyline>
                <polyline id="Stroke-196" stroke="#FFFFFF" stroke-width="2" stroke-linecap="round" stroke-linejoin="round" points="560.9508 73.6943 560.9508 83.0693 579.8468 83.0693"></polyline>
                <polyline id="Stroke-198" stroke="#FFFFFF" stroke-width="2" stroke-linecap="round" stroke-linejoin="round" points="561.5341 43.4409 561.5341 36.3189 551.8671 36.3189"></polyline>
                <polyline id="Stroke-200" stroke="#FFFFFF" stroke-width="2" stroke-linecap="round" stroke-linejoin="round" points="569.2841 43.4409 569.2841 32.4439 577.1591 32.4439"></polyline>
                <polyline id="Stroke-202" stroke="#FFFFFF" stroke-width="2" stroke-linecap="round" stroke-linejoin="round" points="549.4091 54.5693 543.0341 54.5693 543.0341 77.6523 545.3671 77.6523"></polyline>
                <path d="M533.6227,59.4741 L536.0537,59.4741 C536.5257,58.8921 537.0707,58.3651 537.7007,57.9271 C538.1537,57.6121 538.2657,56.9911 537.9527,56.5371 C537.0237,55.1941 536.5327,53.6161 536.5327,51.9741 C536.5327,49.1371 537.9837,46.5641 540.4127,45.0921 C540.7727,44.8731 540.9577,44.4521 540.8737,44.0381 C540.7687,43.5161 540.7147,42.9771 540.7147,42.4371 C540.7147,39.7771 542.0287,37.2921 544.2287,35.7901 C544.5407,35.5771 544.7067,35.2051 544.6547,34.8291 C544.6187,34.5571 544.5977,34.2791 544.5977,33.9961 C544.5977,30.6191 547.3447,27.8711 550.7227,27.8711 C550.9907,27.8711 551.2547,27.8891 551.5137,27.9221 C551.9357,27.9791 552.3417,27.7611 552.5327,27.3831 C553.6607,25.1601 555.7357,23.8321 558.0817,23.8321 C561.5887,23.8321 564.4417,26.6851 564.4417,30.1921 L564.4417,38.8241 L566.4417,38.8241 L566.4417,30.1921 C566.4417,26.6851 569.2937,23.8321 572.7997,23.8321 C575.1467,23.8321 577.2217,25.1601 578.3497,27.3831 C578.5407,27.7601 578.9477,27.9751 579.3687,27.9221 C579.6277,27.8891 579.8917,27.8711 580.1597,27.8711 C583.5367,27.8711 586.2847,30.6191 586.2847,33.9961 C586.2847,34.2791 586.2637,34.5571 586.2277,34.8291 C586.1757,35.2051 586.3417,35.5771 586.6537,35.7901 C588.8537,37.2921 590.1677,39.7771 590.1677,42.4371 C590.1677,42.9761 590.1137,43.5161 590.0077,44.0391 C589.9247,44.4531 590.1097,44.8731 590.4697,45.0921 C592.8997,46.5651 594.3497,49.1381 594.3497,51.9741 C594.3497,53.6151 593.8587,55.1931 592.9297,56.5371 C592.6167,56.9911 592.7297,57.6121 593.1817,57.9271 C593.8987,58.4251 594.5087,59.0381 595.0187,59.7201 L597.3907,59.7201 C596.8027,58.6451 596.0307,57.6711 595.0797,56.8661 C595.9127,55.3761 596.3497,53.7031 596.3497,51.9741 C596.3497,48.6621 594.7667,45.6381 592.0817,43.7561 C592.1387,43.3201 592.1677,42.8781 592.1677,42.4371 C592.1677,39.3171 590.7207,36.3911 588.2687,34.4931 C588.2787,34.3261 588.2847,34.1611 588.2847,33.9961 C588.2847,29.3971 584.4017,25.6711 579.8007,25.8791 C578.2757,23.3671 575.6497,21.8321 572.7997,21.8321 C569.6227,21.8321 566.8547,23.6151 565.4417,26.2321 C564.0277,23.6151 561.2597,21.8321 558.0817,21.8321 C555.2327,21.8321 552.6067,23.3671 551.0817,25.8791 C550.9627,25.8741 550.8427,25.8711 550.7227,25.8711 C546.2427,25.8711 542.5977,29.5161 542.5977,33.9961 C542.5977,34.1601 542.6027,34.3261 542.6127,34.4931 C540.1617,36.3911 538.7147,39.3171 538.7147,42.4371 C538.7147,42.8791 538.7437,43.3211 538.8007,43.7571 C536.1157,45.6381 534.5327,48.6621 534.5327,51.9741 C534.5327,53.7031 534.9697,55.3761 535.8027,56.8661 C534.9237,57.6101 534.1937,58.4961 533.6227,59.4741" id="Fill-204" fill="#F8CC51"></path>
                <mask id="mask-14" fill="white">
                    <use xlink:href="#path-13"></use>
                </mask>
                <g id="Clip-207"></g>
                <polygon id="Fill-206" fill="#F8CC51" mask="url(#mask-14)" points="564.507 80.849 566.507 80.849 566.507 78.311 564.507 78.311"></polygon>
                <path d="M598.7015,64.5332 C598.7015,64.4072 598.6855,64.2842 598.6805,64.1592 L596.6785,64.1592 C596.6845,64.2842 596.7015,64.4072 596.7015,64.5332 C596.7015,66.8382 595.7075,69.0362 593.9745,70.5652 C593.6705,70.8342 593.5585,71.2602 593.6925,71.6442 C593.9885,72.4932 594.1385,73.3852 594.1385,74.2932 C594.1385,77.8372 591.7685,81.0092 588.3745,82.0072 C587.9565,82.1302 587.6665,82.5102 587.6575,82.9462 C587.5405,88.6572 582.7965,93.3032 577.0825,93.3032 C572.1365,93.3032 567.9845,89.8842 566.8335,85.2892 L564.1795,85.2892 C563.0295,89.8842 558.8775,93.3032 553.9305,93.3032 C548.2155,93.3032 543.4725,88.6572 543.3565,82.9462 C543.3475,82.5102 543.0565,82.1302 542.6385,82.0072 C539.2445,81.0092 536.8745,77.8372 536.8745,74.2932 C536.8745,73.3852 537.0245,72.4932 537.3205,71.6442 C537.4545,71.2602 537.3425,70.8342 537.0375,70.5652 C535.3055,69.0362 534.3115,66.8382 534.3115,64.5332 C534.3115,64.3252 534.3335,64.1192 534.3495,63.9142 L532.3455,63.9142 C532.3325,64.1202 532.3115,64.3252 532.3115,64.5332 C532.3115,67.1922 533.3695,69.7372 535.2365,71.6142 C534.9955,72.4832 534.8745,73.3812 534.8745,74.2932 C534.8745,78.4772 537.5205,82.2452 541.3915,83.6982 C541.8925,90.1592 547.3745,95.3032 553.9305,95.3032 C559.1225,95.3032 563.5895,92.1382 565.5065,87.6372 C567.4235,92.1382 571.8905,95.3032 577.0825,95.3032 C583.6385,95.3032 589.1195,90.1592 589.6215,83.6982 C593.4925,82.2452 596.1385,78.4762 596.1385,74.2932 C596.1385,73.3812 596.0165,72.4832 595.7765,71.6142 C597.6425,69.7372 598.7015,67.1922 598.7015,64.5332" id="Fill-208" fill="#F8CC51" mask="url(#mask-14)"></path>
            </g>
            <text id="Open" font-family="BentonSansBBVA-BookItalic, Benton Sans BBVA" font-size="13" font-style="italic" font-weight="300" letter-spacing="0.0558" fill="#121212">
                <tspan x="669.4292" y="193.444368">O</tspan>
                <tspan x="678.871" y="193.444368" letter-spacing="0.048">p</tspan>
                <tspan x="686.498" y="193.444368" letter-spacing="-0.004">en</tspan>
            </text>
            <text id="innovation" font-family="BentonSansBBVA-BookItalic, Benton Sans BBVA" font-size="13" font-style="italic" font-weight="300" letter-spacing="0.0098" fill="#121212">
                <tspan x="655.1162" y="207.445368">i</tspan>
                <tspan x="658.246" y="207.445368" letter-spacing="0.0592">n</tspan>
                <tspan x="665.7282" y="207.445368" letter-spacing="0.067">n</tspan>
                <tspan x="673.2182" y="207.445368" letter-spacing="-0.167">o</tspan>
                <tspan x="680.0452" y="207.445368" letter-spacing="-0.011">v</tspan>
                <tspan x="686.2742" y="207.445368" letter-spacing="-0.0994">a</tspan>
                <tspan x="693.2728" y="207.445368" letter-spacing="-0.0955">t</tspan>
                <tspan x="697.8053" y="207.445368" letter-spacing="-0.011">i</tspan>
                <tspan x="700.9143" y="207.445368" letter-spacing="0.0566">o</tspan>
                <tspan x="708.3419" y="207.445368" letter-spacing="-0.011">n</tspan>
            </text>
            <g id="Group-220" transform="translate(0.000000, 0.623000)">
                <path d="M728.4059,124.8022 C728.4059,148.6152 709.1009,167.9202 685.2879,167.9202 C661.4749,167.9202 642.1699,148.6152 642.1699,124.8022 C642.1699,100.9882 661.4749,81.6842 685.2879,81.6842 C709.1009,81.6842 728.4059,100.9882 728.4059,124.8022 Z" id="Fill-210" fill="#2A86CA"></path>
                <path d="M693.3744,117.9517 C693.3754,118.1167 693.3764,118.2827 693.3764,118.4487" id="Stroke-212" stroke="#FFFFFF" stroke-width="0.972" stroke-linecap="round" stroke-linejoin="round"></path>
                <mask id="mask-16" fill="white">
                    <use xlink:href="#path-15"></use>
                </mask>
                <g id="Clip-215"></g>
                <polygon id="Fill-214" fill="#004480" mask="url(#mask-16)" points="678.519 166.417 691.653 166.417 691.653 156.431 678.519 156.431"></polygon>
                <polygon id="Fill-216" fill="#004480" mask="url(#mask-16)" points="666.821 168.083 703.35 168.083 703.35 165.587 666.821 165.587"></polygon>
                <path d="M641.3746,157.2715 C641.3746,158.8865 642.6836,160.1965 644.2996,160.1965 L725.8726,160.1965 C727.4886,160.1965 728.7976,158.8865 728.7976,157.2715 L728.7976,104.2645 C728.7976,102.6495 727.4886,101.3395 725.8726,101.3395 L644.2996,101.3395 C642.6836,101.3395 641.3746,102.6495 641.3746,104.2645 L641.3746,157.2715 Z" id="Fill-217" fill="#0074B1" mask="url(#mask-16)"></path>
                <path d="M641.3746,155.5024 C641.3746,157.1184 642.6836,158.4274 644.2996,158.4274 L725.8726,158.4274 C727.4886,158.4274 728.7976,157.1184 728.7976,155.5024 L728.7976,102.4964 C728.7976,100.8804 727.4886,99.5714 725.8726,99.5714 L644.2996,99.5714 C642.6836,99.5714 641.3746,100.8804 641.3746,102.4964 L641.3746,155.5024 Z" id="Fill-218" fill="#004480" mask="url(#mask-16)"></path>
                <path d="M725.9247,148.6167 C725.9247,149.9957 724.8227,151.1137 723.4617,151.1137 L646.7097,151.1137 C645.3497,151.1137 644.2477,149.9957 644.2477,148.6167 L644.2477,105.3897 C644.2477,104.0107 645.3497,102.8927 646.7097,102.8927 L723.4617,102.8927 C724.8227,102.8927 725.9247,104.0107 725.9247,105.3897 L725.9247,148.6167 Z" id="Fill-219" fill="#FFFFFF" mask="url(#mask-16)"></path>
            </g>
            <g id="Group-262" transform="translate(652.000000, 102.623000)">
                <path d="M12.0231,39.7915 L18.9951,39.7915" id="Stroke-221" stroke="#F8CC51" stroke-width="2" stroke-linecap="round" stroke-linejoin="round"></path>
                <path d="M13.2648,42.064 L17.7538,42.064" id="Stroke-223" stroke="#F8CC51" stroke-linecap="round" stroke-linejoin="round"></path>
                <path d="M12.0231,36.7646 L18.9951,36.7646" id="Stroke-225" stroke="#F8CC51" stroke-width="2" stroke-linecap="round" stroke-linejoin="round"></path>
                <path d="M23.8849,22.4502 C23.8849,17.8242 20.1349,14.0742 15.5089,14.0742 C10.8829,14.0742 7.1329,17.8242 7.1329,22.4502 C7.1329,25.3882 8.6479,27.9722 10.9379,29.4672 L10.9379,33.7382 L20.0809,33.7382 L20.0809,29.4672 C22.3699,27.9722 23.8849,25.3882 23.8849,22.4502 Z" id="Stroke-227" stroke="#F8CC51" stroke-width="2" stroke-linecap="round" stroke-linejoin="round"></path>
                <path d="M26.7782,17.9106 L30.1962,16.4946" id="Stroke-229" stroke="#F8CC51" stroke-linecap="round" stroke-linejoin="round"></path>
                <path d="M4.3304,27.2085 L0.6694,28.7255" id="Stroke-231" stroke="#F8CC51" stroke-linecap="round" stroke-linejoin="round"></path>
                <path d="M20.2037,11.2441 L21.5467,8.0011" id="Stroke-233" stroke="#F8CC51" stroke-linecap="round" stroke-linejoin="round"></path>
                <path d="M26.6874,27.2085 L30.1454,28.6405" id="Stroke-235" stroke="#F8CC51" stroke-linecap="round" stroke-linejoin="round"></path>
                <path d="M9.4467,7.9424 L10.8137,11.2444" id="Stroke-237" stroke="#F8CC51" stroke-linecap="round" stroke-linejoin="round"></path>
                <path d="M4.3304,17.9482 L0.8734,16.5162" id="Stroke-239" stroke="#F8CC51" stroke-linecap="round" stroke-linejoin="round"></path>
                <path d="M15.6923,25.7734 L15.1043,25.7734 L15.1043,19.6434 L16.1673,19.6434 C16.6823,19.6434 17.1303,20.0704 17.1303,20.5804 C17.1303,20.7624 17.0933,20.9264 16.9153,21.1874 L16.2233,22.2244 C16.9473,22.3984 17.4303,22.9504 17.4303,23.9844 C17.4303,25.2394 16.6823,25.7734 15.6923,25.7734 M17.7753,21.8974 L18.1773,21.2894 C19.0353,20.0024 18.4443,18.6054 16.7543,18.6054 L13.1473,18.6054 L13.1473,26.9994 L16.6293,26.9994 C19.6893,26.9994 20.6093,23.3894 17.7753,21.8974" id="Fill-241" fill="#2A86CA"></path>
                <path d="M36.7631,42.064 L54.5871,42.064" id="Stroke-243" stroke="#F8CC51"></path>
                <path d="M36.7631,38.6519 L65.5031,38.6519" id="Stroke-245" stroke="#F8CC51"></path>
                <path d="M36.7631,35.2397 L65.5031,35.2397" id="Stroke-247" stroke="#F8CC51"></path>
                <path d="M36.7631,31.8271 L65.5031,31.8271" id="Stroke-249" stroke="#F8CC51"></path>
                <path d="M36.7631,28.415 L65.5031,28.415" id="Stroke-251" stroke="#F8CC51"></path>
                <path d="M36.7631,25.0029 L65.5031,25.0029" id="Stroke-253" stroke="#F8CC51"></path>
                <path d="M36.7631,21.5908 L65.5031,21.5908" id="Stroke-255" stroke="#F8CC51"></path>
                <path d="M36.7631,18.1787 L65.5031,18.1787" id="Stroke-257" stroke="#F8CC51"></path>
                <g id="Group-261" transform="translate(4.000000, 0.000000)">
                    <mask id="mask-18" fill="white">
                        <use xlink:href="#path-17"></use>
                    </mask>
                    <g id="Clip-260"></g>
                    <polygon id="Fill-259" fill="#000000" mask="url(#mask-18)" points="51.3353 -0.6064 71.0343 -0.6064 71.1593 50.3906 0.2103 50.3256"></polygon>
                </g>
            </g>
            <g id="Group-280" transform="translate(0.000000, 0.623000)">
                <path d="M687.8104,155.1895 C687.8104,156.7165 686.5914,157.9515 685.0854,157.9515 C683.5804,157.9515 682.3614,156.7165 682.3614,155.1895 C682.3614,153.6635 683.5804,152.4265 685.0854,152.4265 C686.5914,152.4265 687.8104,153.6635 687.8104,155.1895 Z" id="Fill-263" fill="#004282"></path>
                <polygon id="Fill-265" fill="#062146" points="678.519 162.782 691.653 162.782 691.653 160.197 678.519 160.197"></polygon>
                <g id="Group-269" transform="translate(0.000000, 216.000000)">
                    <mask id="mask-20" fill="white">
                        <use xlink:href="#path-19"></use>
                    </mask>
                    <g id="Clip-268"></g>
                    <path d="M86.2356,44.0327 C86.2356,67.8467 66.9306,87.1507 43.1176,87.1507 C19.3046,87.1507 -0.0004,67.8467 -0.0004,44.0327 C-0.0004,20.2197 19.3046,0.9147 43.1176,0.9147 C66.9306,0.9147 86.2356,20.2197 86.2356,44.0327" id="Fill-267" fill="#40BEF9" mask="url(#mask-20)"></path>
                </g>
                <path d="M17.5569,238.0581 C17.5569,238.0581 18.6699,226.7691 30.8129,228.9651 C33.3399,225.0771 37.7179,222.5051 42.6999,222.5051 C49.0679,222.5051 54.4559,226.7061 56.2419,232.4891 C57.6979,231.6401 59.3839,231.1461 61.1909,231.1461 C65.6079,231.1461 69.1419,235.2121 69.1419,238.0581 L17.5569,238.0581 Z" id="Fill-270" fill="#FFFFFF"></path>
                <path d="M48.8766,270.165 C48.8776,270.275 48.8786,270.386 48.8786,270.496" id="Stroke-272" stroke="#FFFFFF" stroke-width="0.648" stroke-linecap="round" stroke-linejoin="round"></path>
                <mask id="mask-22" fill="white">
                    <use xlink:href="#path-21"></use>
                </mask>
                <g id="Clip-275"></g>
                <polygon id="Fill-274" fill="#0085CC" mask="url(#mask-22)" points="38.97 302.485 47.729 302.485 47.729 295.825 38.97 295.825"></polygon>
                <polygon id="Fill-276" fill="#0085CC" mask="url(#mask-22)" points="31.169 303.596 55.529 303.596 55.529 301.931 31.169 301.931"></polygon>
                <path d="M14.1997,296.3857 C14.1997,297.4627 15.0727,298.3367 16.1497,298.3367 L70.5487,298.3367 C71.6257,298.3367 72.4997,297.4627 72.4997,296.3857 L72.4997,261.0367 C72.4997,259.9607 71.6257,259.0867 70.5487,259.0867 L16.1497,259.0867 C15.0727,259.0867 14.1997,259.9607 14.1997,261.0367 L14.1997,296.3857 Z" id="Fill-277" fill="#0074B1" mask="url(#mask-22)"></path>
                <path d="M14.1997,295.2061 C14.1997,296.2841 15.0727,297.1571 16.1497,297.1571 L70.5487,297.1571 C71.6257,297.1571 72.4997,296.2841 72.4997,295.2061 L72.4997,259.8581 C72.4997,258.7811 71.6257,257.9081 70.5487,257.9081 L16.1497,257.9081 C15.0727,257.9081 14.1997,258.7811 14.1997,259.8581 L14.1997,295.2061 Z" id="Fill-278" fill="#0085CC" mask="url(#mask-22)"></path>
                <path d="M70.5832,290.6143 C70.5832,291.5333 69.8482,292.2793 68.9412,292.2793 L17.7582,292.2793 C16.8502,292.2793 16.1152,291.5333 16.1152,290.6143 L16.1152,261.7883 C16.1152,260.8673 16.8502,260.1223 17.7582,260.1223 L68.9412,260.1223 C69.8482,260.1223 70.5832,260.8673 70.5832,261.7883 L70.5832,290.6143 Z" id="Fill-279" fill="#B3EEEC" mask="url(#mask-22)"></path>
            </g>
            <text id="100101100101010010101001010101" font-family="MyriadPro-Regular, Myriad Pro" font-size="3.0673" font-weight="normal" letter-spacing="0.01" fill="#004282">
                <tspan x="19.3115" y="265.747094">100101100101010010101001010101</tspan>
            </text>
            <text id="011001010100101010010101001011" font-family="MyriadPro-Regular, Myriad Pro" font-size="3.0673" font-weight="normal" letter-spacing="0.01" fill="#004282">
                <tspan x="19.3115" y="269.427854">011001010100101010010101001011</tspan>
            </text>
            <text id="001010100101010010101001011001" font-family="MyriadPro-Regular, Myriad Pro" font-size="3.0673" font-weight="normal" letter-spacing="0.01" fill="#004282">
                <tspan x="19.3115" y="273.108614">001010100101010010101001011001</tspan>
            </text>
            <text id="010100101010010101001011001010" font-family="MyriadPro-Regular, Myriad Pro" font-size="3.0673" font-weight="normal" letter-spacing="0.01" fill="#004282">
                <tspan x="19.3115" y="276.789374">010100101010010101001011001010</tspan>
            </text>
            <text id="100101010010101001011001010100" font-family="MyriadPro-Regular, Myriad Pro" font-size="3.0673" font-weight="normal" letter-spacing="0.01" fill="#004282">
                <tspan x="19.3115" y="280.470134">100101010010101001011001010100</tspan>
            </text>
            <text id="101010010101001011001010100101" font-family="MyriadPro-Regular, Myriad Pro" font-size="3.0673" font-weight="normal" letter-spacing="0.01" fill="#004282">
                <tspan x="19.3115" y="284.150894">101010010101001011001010100101</tspan>
            </text>
            <text id="010010101010110010101001010100" font-family="MyriadPro-Regular, Myriad Pro" font-size="3.0673" font-weight="normal" letter-spacing="0.01" fill="#004282">
                <tspan x="19.3115" y="287.831654">010010101010110010101001010100</tspan>
            </text>
            <g id="Group-299" transform="translate(14.000000, 233.623000)">
                <polygon id="Fill-281" fill="#A7E1DA" points="0.9953 61.2603 1.2873 53.4293 28.7643 26.1223 57.3233 26.1223 57.4063 60.1313"></polygon>
                <path d="M31.1661,61.9971 C31.1661,63.0161 30.3531,63.8391 29.3491,63.8391 C28.3451,63.8391 27.5321,63.0161 27.5321,61.9971 C27.5321,60.9791 28.3451,60.1551 29.3491,60.1551 C30.3531,60.1551 31.1661,60.9791 31.1661,61.9971" id="Fill-283" fill="#004282"></path>
                <polygon id="Fill-285" fill="#062146" points="24.97 67.061 33.729 67.061 33.729 65.337 24.97 65.337"></polygon>
                <path d="M7.6012,21.6157 L7.6012,16.4607 C7.6012,15.5287 8.8932,14.0537 9.8242,14.0537 L20.4872,14.0537 C21.4182,14.0537 22.8942,12.7617 22.8942,11.8297 L22.8942,0.6437" id="Stroke-287" stroke="#F25E61" stroke-width="2" stroke-linecap="round" stroke-linejoin="round"></path>
                <polyline id="Stroke-289" stroke="#F25E61" stroke-width="2" stroke-linecap="round" stroke-linejoin="round" points="11.0913 18.126 7.6013 21.616 4.1103 18.126"></polyline>
                <path d="M51.0978,21.6157 L51.0978,16.4607 C51.0978,15.5287 49.8058,14.0537 48.8748,14.0537 L38.2118,14.0537 C37.2808,14.0537 35.8048,12.7617 35.8048,11.8297 L35.8048,0.6437" id="Stroke-291" stroke="#F25E61" stroke-width="2" stroke-linecap="round" stroke-linejoin="round"></path>
                <polyline id="Stroke-293" stroke="#F25E61" stroke-width="2" stroke-linecap="round" stroke-linejoin="round" points="47.6077 18.126 51.0977 21.616 54.5887 18.126"></polyline>
                <path d="M29.3495,0.6436 L29.3495,21.6156" id="Stroke-295" stroke="#F25E61" stroke-width="2" stroke-linecap="round" stroke-linejoin="round"></path>
                <polyline id="Stroke-297" stroke="#F25E61" stroke-width="2" stroke-linecap="round" stroke-linejoin="round" points="25.8591 18.126 29.3491 21.616 32.8401 18.126"></polyline>
            </g>
            <text id="Big-data" font-family="BentonSansBBVA-BookItalic, Benton Sans BBVA" font-size="13" font-style="italic" font-weight="300" letter-spacing="0.1406" fill="#121212">
                <tspan x="19.4585" y="328.546868">B</tspan>
                <tspan x="28.3741" y="328.546868" letter-spacing="0.1588">i</tspan>
                <tspan x="31.6529" y="328.546868" letter-spacing="0.216">g</tspan>
                <tspan x="39.0969" y="328.546868" letter-spacing="-0.018"> </tspan>
                <tspan x="42.0169" y="328.546868" letter-spacing="0.0639">d</tspan>
                <tspan x="49.6598" y="328.546868" letter-spacing="-0.018">a</tspan>
                <tspan x="56.7398" y="328.546868" letter-spacing="0.0743">t</tspan>
                <tspan x="61.3901" y="328.546868" letter-spacing="-0.018">a</tspan>
            </text>
            <g id="Group-308" transform="translate(0.000000, 0.623000)">
                <path d="M204.1778,422.3032 C187.5808,405.7062 187.5808,378.7962 204.1778,362.1992 C220.7748,345.6022 247.6848,345.6022 264.2818,362.1992 C280.8788,378.7962 280.8788,405.7062 264.2818,422.3032 C247.6848,438.9002 220.7748,438.9002 204.1778,422.3032 Z" id="Fill-300" fill="#2DCCCD"></path>
                <mask id="mask-24" fill="white">
                    <use xlink:href="#path-23"></use>
                </mask>
                <g id="Clip-303"></g>
                <polygon id="Fill-302" fill="#008246" mask="url(#mask-24)" points="222.763 401.129 261.694 401.129 261.694 380.489 222.763 380.489"></polygon>
                <polygon id="Fill-304" fill="#00AE5F" mask="url(#mask-24)" points="224.608 398.859 259.646 398.859 259.646 382.553 224.608 382.553"></polygon>
                <path d="M249.882,392.403 L257.345,392.403 L257.345,388.864 L249.882,388.864 L249.882,392.403 Z M227.231,392.403 L234.694,392.403 L234.694,388.864 L227.231,388.864 L227.231,392.403 Z M242.179,392.908 C243.325,392.908 244.253,391.929 244.253,390.721 C244.253,389.514 243.325,388.535 242.179,388.535 C241.034,388.535 240.106,389.514 240.106,390.721 C240.106,391.929 241.034,392.908 242.179,392.908 L242.179,392.908 Z" id="Fill-305" fill="#FFFFFF" mask="url(#mask-24)"></path>
                <path d="M222.7634,401.1357 L222.7634,397.4197 L228.7414,395.6917 C229.2034,395.5577 229.5774,395.0627 229.5774,394.5817 L229.5774,393.2607 C229.5774,392.7817 229.1884,392.3917 228.7074,392.3907 L217.5714,392.3717 C217.0914,392.3707 216.3284,392.4767 215.8684,392.6087 L208.6254,394.6727 L208.6254,407.1427 L225.9774,410.5027 C226.4484,410.5947 227.1764,410.4907 227.6044,410.2707 L245.3814,401.1357 L222.7634,401.1357 Z" id="Fill-306" fill="#FFFFFF" mask="url(#mask-24)"></path>
                <polygon id="Fill-307" fill="#BDBDBD" mask="url(#mask-24)" points="222.7634 397.4712 220.4634 399.4212 220.4634 403.0192 241.3574 403.2032 245.3814 401.1362 222.7634 401.1362"></polygon>
            </g>
            <text id="Préstamos" font-family="BentonSansBBVA-Book, Benton Sans BBVA" font-size="13" font-weight="300" letter-spacing="0.1237" fill="#121212">
                <tspan x="203.5352" y="455.066868">P</tspan>
                <tspan x="211.7579" y="455.066868" letter-spacing="-0.018">r</tspan>
                <tspan x="216.4849" y="455.066868" letter-spacing="0.2446">é</tspan>
                <tspan x="223.6975" y="455.066868" letter-spacing="0.2316">s</tspan>
                <tspan x="230.3771" y="455.066868" letter-spacing="0.1861">t</tspan>
                <tspan x="235.2432" y="455.066868" letter-spacing="0.1978">a</tspan>
                <tspan x="242.552" y="455.066868" letter-spacing="0.216">m</tspan>
                <tspan x="254.637" y="455.066868" letter-spacing="0.0847">o</tspan>
                <tspan x="262.0927" y="455.066868" letter-spacing="-0.018">s</tspan>
            </text>
            <g id="Group-323" transform="translate(0.000000, 0.623000)">
                <path d="M369.7506,444.1792 C353.1536,427.5822 353.1536,400.6722 369.7506,384.0752 C386.3476,367.4782 413.2576,367.4782 429.8546,384.0752 C446.4516,400.6722 446.4516,427.5822 429.8546,444.1792 C413.2576,460.7762 386.3476,460.7762 369.7506,444.1792 Z" id="Fill-309" fill="#2DCCCD"></path>
                <mask id="mask-26" fill="white">
                    <use xlink:href="#path-25"></use>
                </mask>
                <g id="Clip-311"></g>
                <text id="Pagos" mask="url(#mask-26)" font-family="BentonSansBBVA-Book, Benton Sans BBVA" font-size="13" font-weight="300" letter-spacing="0.1192" fill="#121212">
                    <tspan x="383.0537" y="473.332068">P</tspan>
                    <tspan x="391.0509" y="473.332068" letter-spacing="0.1829">a</tspan>
                    <tspan x="398.3448" y="473.332068" letter-spacing="-0.016">g</tspan>
                    <tspan x="405.4268" y="473.332068" letter-spacing="0.0607">o</tspan>
                    <tspan x="412.8585" y="473.332068" letter-spacing="-0.016">s</tspan>
                </text>
                <path d="M420.2284,398.0283 C420.7534,398.0273 421.2814,398.2323 421.6834,398.6313 C422.0834,399.0323 422.2874,399.5573 422.2874,400.0883 L422.2844,423.9753 C422.2874,424.5013 422.0834,425.0323 421.6814,425.4313 C421.2804,425.8383 420.7534,426.0323 420.2274,426.0323 L382.3354,426.0323 C381.8084,426.0323 381.2824,425.8363 380.8794,425.4333 C380.4814,425.0323 380.2774,424.5013 380.2774,423.9753 L380.2794,400.0883 C380.2794,399.5593 380.4784,399.0343 380.8794,398.6313 C381.2824,398.2323 381.8104,398.0313 382.3354,398.0283 L420.2284,398.0283 Z" id="Fill-312" fill="#DA3851" mask="url(#mask-26)"></path>
                <path d="M416.1213,402.1284 C416.6463,402.1274 417.1743,402.3314 417.5763,402.7314 C417.9763,403.1324 418.1793,403.6574 418.1793,404.1884 L418.1773,428.0754 C418.1793,428.6004 417.9763,429.1324 417.5743,429.5314 C417.1733,429.9384 416.6463,430.1314 416.1193,430.1314 L378.2283,430.1314 C377.7013,430.1314 377.1753,429.9364 376.7723,429.5334 C376.3743,429.1324 376.1703,428.6004 376.1703,428.0754 L376.1723,404.1884 C376.1723,403.6594 376.3723,403.1334 376.7723,402.7314 C377.1753,402.3314 377.7033,402.1314 378.2283,402.1284 L416.1213,402.1284 Z" id="Fill-313" fill="#FFFFFF" mask="url(#mask-26)"></path>
                <polygon id="Fill-314" fill="#CCCBCA" mask="url(#mask-26)" points="381.402 426.026 387.969 426.026 387.969 424.79 381.402 424.79"></polygon>
                <polygon id="Fill-315" fill="#CCCBCA" mask="url(#mask-26)" points="389.726 426.021 396.294 426.021 396.294 424.79 389.726 424.79"></polygon>
                <polygon id="Fill-316" fill="#CCCBCA" mask="url(#mask-26)" points="404.6228 426.0259 398.0538 426.0219 398.0538 424.7899 404.6228 424.7899"></polygon>
                <polygon id="Fill-317" fill="#CCCBCA" mask="url(#mask-26)" points="412.9469 426.0259 406.3809 426.0259 406.3789 424.7899 412.9469 424.7899"></polygon>
                <polygon id="Fill-318" fill="#D9D8D7" mask="url(#mask-26)" points="381.402 420.701 396.294 420.701 396.294 416.253 381.402 416.253"></polygon>
                <polygon id="Fill-319" fill="#1A2542" mask="url(#mask-26)" points="418.1798 412.1631 376.1718 412.1641 376.1718 406.2341 418.1798 406.2341"></polygon>
                <path d="M408.583,418.4766 C408.583,420.2846 407.117,421.7496 405.31,421.7496 C403.502,421.7496 402.037,420.2846 402.037,418.4766 C402.037,416.6686 403.502,415.2036 405.31,415.2036 C407.117,415.2036 408.583,416.6686 408.583,418.4766" id="Fill-320" fill="#DA3851" mask="url(#mask-26)"></path>
                <path d="M412.9469,418.4766 C412.9469,420.2846 411.4819,421.7496 409.6739,421.7496 C407.8659,421.7496 406.4009,420.2846 406.4009,418.4766 C406.4009,416.6686 407.8659,415.2036 409.6739,415.2036 C411.4819,415.2036 412.9469,416.6686 412.9469,418.4766" id="Fill-321" fill="#1A2542" mask="url(#mask-26)"></path>
                <path d="M537.3888,415.7407 L537.3888,415.7407 C520.7918,399.1427 520.7918,372.2337 537.3888,355.6367 C553.9858,339.0387 580.8958,339.0387 597.4928,355.6367 C614.0898,372.2337 614.0898,399.1427 597.4928,415.7407 L597.4928,415.7407 C580.8958,432.3377 553.9858,432.3377 537.3888,415.7407" id="Fill-322" fill="#2DCCCD" mask="url(#mask-26)"></path>
            </g>
            <text id="Gestión-de" font-family="BentonSansBBVA-Book, Benton Sans BBVA" font-size="13" font-weight="300" letter-spacing="-0.002" fill="#121212">
                <tspan x="535.5796" y="443.361368">G</tspan>
                <tspan x="544.9766" y="443.361368" letter-spacing="0.0526">e</tspan>
                <tspan x="551.9972" y="443.361368" letter-spacing="0.0396">s</tspan>
                <tspan x="558.4848" y="443.361368" letter-spacing="-0.1424">t</tspan>
                <tspan x="563.0744" y="443.361368" letter-spacing="-0.0683">i</tspan>
                <tspan x="566.1261" y="443.361368">ó</tspan>
                <tspan x="573.6251" y="443.361368" letter-spacing="0.0227">n</tspan>
                <tspan x="581.2008" y="443.361368"> de</tspan>
            </text>
            <text id="patrimonios" font-family="BentonSansBBVA-Book, Benton Sans BBVA" font-size="13" font-weight="300" letter-spacing="0.0446" fill="#121212">
                <tspan x="531.7316" y="457.362368">p</tspan>
                <tspan x="539.3552" y="457.362368" letter-spacing="0.0186">a</tspan>
                <tspan x="546.4848" y="457.362368" letter-spacing="-0.01">t</tspan>
                <tspan x="551.2068" y="457.362368" letter-spacing="0.0511">r</tspan>
                <tspan x="556.3799" y="457.362368" letter-spacing="0.0264">i</tspan>
                <tspan x="559.5263" y="457.362368" letter-spacing="0.1213">m</tspan>
                <tspan x="571.5166" y="457.362368" letter-spacing="0.0966">o</tspan>
                <tspan x="579.1142" y="457.362368" letter-spacing="0.0563">n</tspan>
                <tspan x="586.7235" y="457.362368" letter-spacing="0.029">i</tspan>
                <tspan x="589.8725" y="457.362368" letter-spacing="-0.01">os</tspan>
            </text>
            <g id="Group-366" transform="translate(0.000000, 0.623000)">
                <path d="M549.7128,406.6611 C548.9058,406.6611 548.2468,406.0011 548.2468,405.1951 L548.2468,369.0291 C548.2468,368.2231 548.9058,367.5621 549.7128,367.5621 L579.3628,367.5621 C580.1688,367.5621 580.8288,368.2231 580.8288,369.0291 L580.8288,405.1951 C580.8288,406.0011 580.1688,406.6611 579.3628,406.6611 L549.7128,406.6611 Z" id="Fill-324" fill="#FFFFFF"></path>
                <path d="M558.0211,387.6987 C558.0211,387.3757 557.7571,387.1127 557.4341,387.1127 L552.0911,387.1127 C551.7691,387.1127 551.5041,387.3757 551.5041,387.6987 L551.5041,393.0417 C551.5041,393.3647 551.7691,393.6287 552.0911,393.6287 L557.4341,393.6287 C557.7571,393.6287 558.0211,393.3647 558.0211,393.0417 L558.0211,387.6987 Z" id="Fill-326" fill="#343B43"></path>
                <path d="M567.7963,387.6987 C567.7963,387.3757 567.5323,387.1127 567.2093,387.1127 L561.8653,387.1127 C561.5433,387.1127 561.2793,387.3757 561.2793,387.6987 L561.2793,393.0417 C561.2793,393.3647 561.5433,393.6287 561.8653,393.6287 L567.2093,393.6287 C567.5323,393.6287 567.7963,393.3647 567.7963,393.0417 L567.7963,387.6987 Z" id="Fill-328" fill="#343B43"></path>
                <path d="M577.5709,387.6987 C577.5709,387.3757 577.3069,387.1127 576.9839,387.1127 L571.6399,387.1127 C571.3179,387.1127 571.0539,387.3757 571.0539,387.6987 L571.0539,393.0417 C571.0539,393.3647 571.3179,393.6287 571.6399,393.6287 L576.9839,393.6287 C577.3069,393.6287 577.5709,393.3647 577.5709,393.0417 L577.5709,387.6987 Z" id="Fill-330" fill="#343B43"></path>
                <path d="M558.0211,397.4731 C558.0211,397.1501 557.7571,396.8861 557.4341,396.8861 L552.0911,396.8861 C551.7691,396.8861 551.5041,397.1501 551.5041,397.4731 L551.5041,402.8161 C551.5041,403.1391 551.7691,403.4031 552.0911,403.4031 L557.4341,403.4031 C557.7571,403.4031 558.0211,403.1391 558.0211,402.8161 L558.0211,397.4731 Z" id="Fill-332" fill="#343B43"></path>
                <path d="M567.7963,397.4731 C567.7963,397.1501 567.5323,396.8861 567.2093,396.8861 L561.8653,396.8861 C561.5433,396.8861 561.2793,397.1501 561.2793,397.4731 L561.2793,402.8161 C561.2793,403.1391 561.5433,403.4031 561.8653,403.4031 L567.2093,403.4031 C567.5323,403.4031 567.7963,403.1391 567.7963,402.8161 L567.7963,397.4731 Z" id="Fill-334" fill="#343B43"></path>
                <path d="M577.5709,397.4731 C577.5709,397.1501 577.3069,396.8861 576.9839,396.8861 L571.6399,396.8861 C571.3179,396.8861 571.0539,397.1501 571.0539,397.4731 L571.0539,402.8161 C571.0539,403.1391 571.3179,403.4031 571.6399,403.4031 L576.9839,403.4031 C577.3069,403.4031 577.5709,403.1391 577.5709,402.8161 L577.5709,397.4731 Z" id="Fill-336" fill="#C5596E"></path>
                <path d="M577.5709,380.0088 C577.5709,380.3318 577.3069,380.5958 576.9839,380.5958 L552.0919,380.5958 C551.7689,380.5958 551.5039,380.3318 551.5039,380.0088 L551.5039,371.4068 C551.5039,371.0848 551.7689,370.8208 552.0919,370.8208 L576.9839,370.8208 C577.3069,370.8208 577.5709,371.0848 577.5709,371.4068 L577.5709,380.0088 Z" id="Fill-338" fill="#2A85C9"></path>
                <mask id="mask-28" fill="white">
                    <use xlink:href="#path-27"></use>
                </mask>
                <g id="Clip-341"></g>
                <polygon id="Fill-340" fill="#2DCCCD" mask="url(#mask-28)" points="548.247 384.309 580.829 384.309 580.829 383.397 548.247 383.397"></polygon>
                <polygon id="Fill-342" fill="#FFFFFF" mask="url(#mask-28)" points="554.237 392.203 555.286 392.203 555.286 388.538 554.237 388.538"></polygon>
                <polygon id="Fill-343" fill="#FFFFFF" mask="url(#mask-28)" points="552.93 390.894 556.596 390.894 556.596 389.846 552.93 389.846"></polygon>
                <polygon id="Fill-344" fill="#FFFFFF" mask="url(#mask-28)" points="572.48 399.621 576.145 399.621 576.145 398.574 572.48 398.574"></polygon>
                <polygon id="Fill-345" fill="#FFFFFF" mask="url(#mask-28)" points="572.48 401.716 576.145 401.716 576.145 400.67 572.48 400.67"></polygon>
                <polygon id="Fill-346" fill="#FFFFFF" mask="url(#mask-28)" points="553.8363 401.8105 553.0963 401.0705 555.6883 398.4785 556.4293 399.2195"></polygon>
                <polygon id="Fill-347" fill="#FFFFFF" mask="url(#mask-28)" points="556.4288 401.0708 555.6878 401.8108 553.0968 399.2188 553.8358 398.4788"></polygon>
                <polygon id="Fill-348" fill="#FFFFFF" mask="url(#mask-28)" points="562.705 400.67 566.37 400.67 566.37 399.621 562.705 399.621"></polygon>
                <path d="M565.0624,398.8345 C565.0624,398.5475 564.8274,398.3135 564.5374,398.3135 C564.2474,398.3135 564.0124,398.5475 564.0124,398.8345 C564.0124,399.1245 564.2474,399.3595 564.5374,399.3595 C564.8274,399.3595 565.0624,399.1245 565.0624,398.8345" id="Fill-349" fill="#FFFFFF" mask="url(#mask-28)"></path>
                <path d="M565.0624,401.4551 C565.0624,401.1651 564.8274,400.9311 564.5374,400.9311 C564.2474,400.9311 564.0124,401.1651 564.0124,401.4551 C564.0124,401.7431 564.2474,401.9761 564.5374,401.9761 C564.8274,401.9761 565.0624,401.7431 565.0624,401.4551" id="Fill-350" fill="#FFFFFF" mask="url(#mask-28)"></path>
                <polygon id="Fill-351" fill="#FFFFFF" mask="url(#mask-28)" points="562.704 390.895 566.37 390.895 566.37 389.846 562.704 389.846"></polygon>
                <path d="M575.1434,390.9033 C575.0004,391.0563 574.7974,391.1533 574.5724,391.1533 C574.1404,391.1533 573.7894,390.8023 573.7894,390.3703 C573.7894,389.9383 574.1404,389.5873 574.5724,389.5873 C574.7974,389.5873 575.0004,389.6843 575.1434,389.8373 L575.8854,389.0953 C575.5514,388.7523 575.0884,388.5383 574.5724,388.5383 C573.5594,388.5383 572.7394,389.3583 572.7394,390.3703 C572.7394,391.3823 573.5594,392.2033 574.5724,392.2033 C575.0884,392.2033 575.5514,391.9883 575.8854,391.6453 L575.1434,390.9033 Z" id="Fill-352" fill="#FFFFFF" mask="url(#mask-28)"></path>
                <polygon id="Fill-353" fill="#F4C3CA" mask="url(#mask-28)" points="584.181 402.644 585.801 402.644 585.801 372.995 584.181 372.995"></polygon>
                <polygon id="Fill-354" fill="#E77D8E" mask="url(#mask-28)" points="585.8 402.644 587.423 402.644 587.423 372.995 585.8 372.995"></polygon>
                <polygon id="Fill-355" fill="#DA3851" mask="url(#mask-28)" points="587.423 402.644 589.044 402.644 589.044 372.995 587.423 372.995"></polygon>
                <polygon id="Fill-356" fill="#FFFFFF" mask="url(#mask-28)" points="589.0463 372.9946 587.4213 370.1856 585.8043 370.1846 584.1823 372.9946"></polygon>
                <polygon id="Fill-357" fill="#E6E5E5" mask="url(#mask-28)" points="589.0463 372.9946 587.4233 372.9946 586.8823 370.1846 587.4213 370.1856"></polygon>
                <polygon id="Fill-358" fill="#3F4A5A" mask="url(#mask-28)" points="587.4208 370.1855 586.6108 368.7825 585.8038 370.1845"></polygon>
                <polygon id="Fill-359" fill="#E6E5E5" mask="url(#mask-28)" points="587.422 404.265 589.043 404.265 589.043 402.644 587.422 402.644"></polygon>
                <polygon id="Fill-360" fill="#FFFFFF" mask="url(#mask-28)" points="587.4232 404.2642 584.1812 404.2652 584.1812 402.6442 587.4232 402.6442"></polygon>
                <path d="M589.0433,404.6426 L589.0433,404.2656 L587.4203,404.2656 L587.4203,404.6426 C587.4203,405.2616 587.1853,405.8856 586.7113,406.3606 C586.4443,406.6246 586.1333,406.8186 585.8003,406.9316 C586.0623,407.0246 586.3353,407.0746 586.6103,407.0746 C587.2343,407.0746 587.8533,406.8356 588.3333,406.3606 C588.8083,405.8866 589.0433,405.2616 589.0433,404.6426" id="Fill-361" fill="#121212" mask="url(#mask-28)"></path>
                <path d="M587.4208,404.6426 L587.4208,404.2656 L584.1778,404.2656 L584.1778,404.6426 C584.1778,405.2616 584.4168,405.8856 584.8918,406.3606 C585.1558,406.6236 585.4678,406.8136 585.7998,406.9316 C586.1328,406.8186 586.4448,406.6246 586.7118,406.3606 C587.1858,405.8856 587.4208,405.2616 587.4208,404.6426" id="Fill-362" fill="#676767" mask="url(#mask-28)"></path>
                <polyline id="Stroke-363" stroke="#CCCCCC" stroke-width="1.114" stroke-linecap="round" stroke-dasharray="0.857,3.429" mask="url(#mask-28)" points="117.1241 336.353 400.6741 226.708 684.2241 336.353"></polyline>
                <path d="M459.6681,225.6396 C459.6681,237.2286 433.2551,246.6226 400.6741,246.6226 C368.0921,246.6226 341.6801,237.2286 341.6801,225.6396 C341.6801,214.0506 368.0921,204.6566 400.6741,204.6566 C433.2551,204.6566 459.6681,214.0506 459.6681,225.6396" id="Fill-364" fill="#FFFFFF" mask="url(#mask-28)"></path>
                <path d="M459.6681,225.6396 C459.6681,237.2286 433.2551,246.6226 400.6741,246.6226 C368.0921,246.6226 341.6801,237.2286 341.6801,225.6396 C341.6801,214.0506 368.0921,204.6566 400.6741,204.6566 C433.2551,204.6566 459.6681,214.0506 459.6681,225.6396 Z" id="Stroke-365" stroke="#CCCCCC" stroke-width="1.114" stroke-linecap="round" stroke-dasharray="0.857,3.428" mask="url(#mask-28)"></path>
            </g>
        </g>
    </g>
</svg>