<svg xmlns="http://www.w3.org/2000/svg" xmlns:xlink="http://www.w3.org/1999/xlink" viewBox="0 0 803 476"><defs><style>.cls-1,.cls-17,.cls-18,.cls-24,.cls-25,.cls-38,.cls-39,.cls-41,.cls-43,.cls-44,.cls-45,.cls-48,.cls-51,.cls-6,.cls-69,.cls-70{fill:none;}.cls-2{fill:#2dcbcc;}.cls-3{fill:#2a86ca;}.cls-4{isolation:isolate;}.cls-5{fill:#f2f2f2;opacity:0.7;}.cls-6,.cls-69,.cls-70{stroke:#ccc;stroke-width:1.1px;}.cls-17,.cls-18,.cls-24,.cls-25,.cls-38,.cls-41,.cls-43,.cls-44,.cls-48,.cls-51,.cls-6,.cls-69,.cls-70{stroke-linecap:round;}.cls-45,.cls-6,.cls-69,.cls-70{stroke-miterlimit:10;}.cls-6{stroke-dasharray:0.84 3.37;}.cls-7{mix-blend-mode:multiply;}.cls-8{fill:#2dcccd;}.cls-9{fill:#121212;}.cls-10{fill:#f8cd51;}.cls-11,.cls-16{fill:#004480;}.cls-12{opacity:0.3;}.cls-13,.cls-54{fill:#fff;}.cls-14{clip-path:url(#clip-path);}.cls-15{clip-path:url(#clip-path-2);}.cls-16,.cls-37{opacity:0.25;}.cls-17{stroke:#fcdbf7;}.cls-17,.cls-18,.cls-24,.cls-25,.cls-38,.cls-39,.cls-41,.cls-43,.cls-44,.cls-48,.cls-51{stroke-linejoin:round;}.cls-17,.cls-18,.cls-38,.cls-39,.cls-43,.cls-51{stroke-width:1.97px;}.cls-18{stroke:#fcdac3;}.cls-19{fill:#00cbcb;}.cls-19,.cls-20,.cls-22,.cls-23,.cls-54,.cls-55,.cls-56{fill-rule:evenodd;}.cls-20{fill:#00a5a5;}.cls-21{fill:#c1edef;}.cls-22{fill:#00cbcc;}.cls-23{fill:#deffff;}.cls-24,.cls-51{stroke:#f25e61;}.cls-24{stroke-width:2.16px;}.cls-25,.cls-38,.cls-39,.cls-41,.cls-48{stroke:#fff;}.cls-25{stroke-width:0.46px;}.cls-26{fill:#0074b1;}.cls-27{fill:#b3eeec;}.cls-28{fill:#004282;}.cls-29{opacity:0.46;}.cls-30{fill:#072146;}.cls-31,.cls-50{fill:#a7e1da;}.cls-32{opacity:0.45;}.cls-33{fill:#68cccc;}.cls-34{fill:#d3d3d3;}.cls-35{opacity:0.72;}.cls-36{fill:#f4f4f4;}.cls-37{fill:#1d1d1b;}.cls-40{fill:#f7cc51;}.cls-41{stroke-width:0.96px;}.cls-42{clip-path:url(#clip-path-3);}.cls-43,.cls-44,.cls-45{stroke:#f7cc51;}.cls-44,.cls-45{stroke-width:0.99px;}.cls-46{opacity:0.15;}.cls-47{fill:#40bef9;}.cls-48{stroke-width:0.64px;}.cls-49{fill:#0085cc;}.cls-50{opacity:0.5;}.cls-52{fill:#008246;}.cls-53{fill:#00ae5f;}.cls-55{fill:#bdbdbd;}.cls-56,.cls-60{fill:#da3851;}.cls-57{fill:#cccbca;}.cls-58{fill:#d9d8d7;}.cls-59{fill:#1a2542;}.cls-61{fill:#343b43;}.cls-62{fill:#c5596e;}.cls-63{fill:#2a85c9;}.cls-64{fill:#f4c3ca;}.cls-65{fill:#e77d8e;}.cls-66{fill:#e6e5e5;}.cls-67{fill:#3f4a5a;}.cls-68{fill:#676767;}.cls-69{stroke-dasharray:0.84 3.38;}.cls-70{stroke-dasharray:0.84 3.38;}</style><clipPath id="clip-path"><path class="cls-2" d="M753.81,269.27h5.78v.12l-2.12,2.15h-3.66Zm-.12-3.95a7.81,7.81,0,0,1-4.28-1c-7.87,2.2-6.93,12-6.94,12H765s1-9.86-6.95-12.07a9.76,9.76,0,0,1-4.4,1.16m-6.37-8.24a6.37,6.37,0,1,0,6.37-6.38,6.33,6.33,0,0,0-6.37,6.38"/></clipPath><clipPath id="clip-path-2"><circle class="cls-3" cx="243.48" cy="60.61" r="42.47"/></clipPath><clipPath id="clip-path-3"><path class="cls-1" d="M644.5,103a2.44,2.44,0,0,0-2.43,2.46V148a2.44,2.44,0,0,0,2.43,2.46h75.6a2.44,2.44,0,0,0,2.43-2.46V105.44A2.44,2.44,0,0,0,720.1,103Z"/></clipPath></defs><title>grafico-entorno-eng</title><g class="cls-4"><g id="cab"><path class="cls-5" d="M122.83,333l1.42,1.8c64.9,41.32,165.25,67.83,277.89,67.83s213-26.51,277.89-67.83l1.42-1.8-279.31-108Z"/><ellipse class="cls-6" cx="402.14" cy="223.89" rx="354.31" ry="178.68"/><path class="cls-3" d="M350.11,161V150.1h7.44v2h-5v2.35h3.91l.35,1.91h-4.27v2.72h5.3V161Z"/><path class="cls-3" d="M358.79,161l3.5-5.78-3.09-5,2.53-.35,2,3.47,1.86-3.29h2.5L365,155.27l3.44,5.58-2.45.35-2.41-4L361.33,161Z"/><path class="cls-3" d="M369.78,161V150.1h4c2.33,0,4.46.62,4.46,3.5s-2.3,3.54-4.49,3.54h-1.55V161Zm2.39-5.75h1.64c1.49,0,2.05-.58,2.05-1.62s-.55-1.6-2.05-1.6h-1.64Z"/><path class="cls-3" d="M379.15,155.56c0-3.84,2.51-5.67,5.15-5.67s5.14,1.83,5.14,5.67-2.51,5.67-5.14,5.67S379.15,159.4,379.15,155.56Zm7.9,0c0-2.29-1.06-3.68-2.75-3.68s-2.75,1.39-2.75,3.68,1,3.74,2.75,3.74S387.06,157.85,387.06,155.56Z"/><path class="cls-3" d="M391.07,161V150.1h2.41l4.58,7h0v-7h2.22V161h-2.22l-4.77-7h0v7Z"/><path class="cls-3" d="M402.4,161V150.1h7.44v2h-5v2.35h3.91l.35,1.91H404.8v2.72h5.3V161Z"/><path class="cls-3" d="M411.58,161V150.1H414l4.58,7h0v-7h2.22V161h-2.22l-4.77-7h0v7Z"/><path class="cls-3" d="M425.26,161v-8.92H422v-2h8.74l.35,2h-3.44V161Z"/><path class="cls-3" d="M432.28,161V150.1h2.39V161Z"/><path class="cls-3" d="M435.87,161l3.87-11H442l3.81,10.8-2.32.35-.87-2.61h-3.72l-.84,2.44Zm3.65-4.18h2.57l-1.26-3.72h0Z"/><path class="cls-3" d="M447,161V150.1h2.41v9h4.64l.35,1.95Z"/><path class="cls-3" d="M346.59,178.76v-8.92h-3.25v-2h8.74l.35,2H349v8.92Z"/><path class="cls-3" d="M353.55,178.76V167.83H361v2h-5v2.35h3.91l.35,1.91H356v2.72h5.3v1.95Z"/><path class="cls-3" d="M362,173.28c0-3.8,2.2-5.66,4.89-5.66a4.33,4.33,0,0,1,4.36,2.61l-2,1a2.51,2.51,0,0,0-2.33-1.64c-1.68,0-2.48,1.4-2.48,3.66s.89,3.75,2.63,3.75a2.5,2.5,0,0,0,2.42-1.94l2.07.72a4.31,4.31,0,0,1-4.49,3.15C364.22,179,362,177.13,362,173.28Z"/><path class="cls-3" d="M372.89,178.76V167.83h2.41v4.24h4.3v-4.24H382v10.93H379.6v-4.67h-4.3v4.67Z"/><path class="cls-3" d="M384.1,178.76V167.83h2.41l4.58,7h0v-7h2.22v10.93h-2.22l-4.77-7h0v7Z"/><path class="cls-3" d="M394.94,173.29c0-3.84,2.51-5.67,5.16-5.67s5.14,1.83,5.14,5.67-2.51,5.67-5.14,5.67S394.94,177.13,394.94,173.29Zm7.9,0c0-2.29-1.06-3.68-2.75-3.68s-2.75,1.39-2.75,3.68,1,3.74,2.75,3.74S402.84,175.58,402.84,173.29Z"/><path class="cls-3" d="M406.85,178.76V167.83h2.41v9h4.64l.35,1.95Z"/><path class="cls-3" d="M414.52,173.29c0-3.84,2.51-5.67,5.16-5.67s5.14,1.83,5.14,5.67S422.3,179,419.67,179,414.52,177.13,414.52,173.29Zm7.9,0c0-2.29-1.06-3.68-2.75-3.68s-2.75,1.39-2.75,3.68,1,3.74,2.75,3.74S422.42,175.58,422.42,173.29Z"/><path class="cls-3" d="M425.95,173.25c0-3.43,1.91-5.63,4.93-5.63a4.66,4.66,0,0,1,4.39,2.61l-2,.92a2.39,2.39,0,0,0-2.23-1.54c-1,0-2.63.52-2.63,3.59S429.85,177,431,177a2.2,2.2,0,0,0,2.25-2h-1.73l-.35-1.79h4.37v5.48h-1.94v-1.21h0a3.22,3.22,0,0,1-2.89,1.42C427.43,179,425.95,176.54,425.95,173.25Z"/><path class="cls-3" d="M437.61,178.76V167.83H440v10.93Z"/><path class="cls-3" d="M442.13,178.76V167.83h7.44v2h-5v2.35h3.91l.35,1.91h-4.27v2.72h5.3v1.95Z"/><path class="cls-3" d="M450.84,177l1.26-1.61a5.4,5.4,0,0,0,3.44,1.65c1.15,0,2-.41,2-1.26s-.78-1.18-2.22-1.58c-2-.55-4-1-4-3.34,0-2,1.63-3.26,3.94-3.26a6.88,6.88,0,0,1,4.22,1.58l-1.11,1.71a5.26,5.26,0,0,0-3.06-1.33c-1.06,0-1.65.44-1.65,1.09,0,.87.81,1.18,2.25,1.58,1.92.52,4,1.12,4,3.38,0,1.76-1.36,3.32-4.25,3.32A6.92,6.92,0,0,1,450.84,177Z"/><g class="cls-7"><path class="cls-8" d="M385.54,312.73V301.8h2.41l4.58,7h0v-7h2.22v10.93h-2.22l-4.77-7h0v7Z"/><path class="cls-8" d="M396.87,312.73V301.8h7.44v2h-5v2.35h3.91l.35,1.91h-4.27v2.72h5.3v1.95Z"/><path class="cls-8" d="M408.23,312.73,405.36,302l2.33-.35,1.2,5.15a23.28,23.28,0,0,1,.53,2.39h0a23.91,23.91,0,0,1,.5-2.38l1.11-5h2.22l1.18,5c.21.87.37,1.37.52,2.35h0c.15-1,.28-1.43.49-2.32l1.11-5.05h2.22L416,312.73h-2.05l-1.73-7.61h0l-1.85,7.61Z"/><path class="cls-8" d="M362.19,330.46V319.53h7.44v2h-5v2.35h3.91l.35,1.91H364.6v2.72h5.3v1.95Z"/><path class="cls-8" d="M371.37,330.46V319.53h2.41l4.58,7h0v-7h2.22v10.93h-2.22l-4.77-7h0v7Z"/><path class="cls-8" d="M385,330.46v-8.92H381.8v-2h8.74l.35,2h-3.44v8.92Z"/><path class="cls-8" d="M392,330.46V319.53h4.11c2.69,0,4.3,1,4.3,3.38a2.92,2.92,0,0,1-2.27,3.12l2.48,4.25-2.33.35-2.53-4.3h-1.39v4.12Zm2.36-6H396c1.39,0,2.05-.4,2.05-1.51s-.66-1.48-2.05-1.48h-1.64Z"/><path class="cls-8" d="M401.57,330.46l3.87-11h2.29l3.81,10.8-2.32.35-.87-2.61h-3.72l-.84,2.44Zm3.65-4.18h2.57l-1.26-3.72h0Z"/><path class="cls-8" d="M412.73,330.46V319.53h2.41l4.58,7h0v-7H422v10.93h-2.22l-4.77-7h0v7Z"/><path class="cls-8" d="M426.41,330.46v-8.92h-3.25v-2h8.74l.35,2h-3.44v8.92Z"/><path class="cls-8" d="M432.79,328.71l1.26-1.61a5.4,5.4,0,0,0,3.44,1.65c1.15,0,2-.41,2-1.26s-.78-1.18-2.22-1.58c-2-.55-4-1-4-3.34,0-2,1.63-3.26,3.94-3.26a6.88,6.88,0,0,1,4.22,1.58l-1.11,1.71a5.26,5.26,0,0,0-3.06-1.33c-1.06,0-1.65.44-1.65,1.09,0,.87.81,1.18,2.25,1.58,1.92.52,4,1.12,4,3.38,0,1.76-1.36,3.32-4.25,3.32A6.92,6.92,0,0,1,432.79,328.71Z"/></g><circle id="_Trazado_" data-name="&lt;Trazado&gt;" class="cls-3" cx="755.3" cy="257.13" r="42.7"/><path class="cls-9" d="M736.08,325.24v-9.47h1.18l3.17,8.3h0l3.16-8.3h1.19v9.47h-.91v-8h0c-.13.44-.36,1.06-.59,1.66l-2.46,6.29H740L737.54,319c-.23-.6-.38-1-.59-1.68h0v8Z"/><path class="cls-9" d="M746.65,321.87c0-2.25,1.4-3.51,3.06-3.51s3,1.25,3,3.51-1.4,3.51-3,3.51S746.65,324.11,746.65,321.87Zm5.22,0c0-1.48-.74-2.75-2.16-2.75s-2.18,1.17-2.18,2.75.73,2.75,2.18,2.75S751.87,323.46,751.87,321.87Z"/><path class="cls-9" d="M755.28,324.32l0,.92h-.86v-9.41l.88-.13v3.78a2.9,2.9,0,0,1,2.25-1.11c1.55,0,2.78,1.14,2.78,3.49s-1.24,3.5-2.8,3.5A3,3,0,0,1,755.28,324.32Zm4.15-2.45c0-1.86-.92-2.75-2-2.75a2.9,2.9,0,0,0-2.1,1.1v3.3a2.91,2.91,0,0,0,2.13,1.09C758.53,324.61,759.43,323.78,759.43,321.87Z"/><path class="cls-9" d="M761.91,316.46a.54.54,0,0,1,1.08,0,.54.54,0,1,1-1.08,0Zm.1,8.78v-6.73h.88v6.73Z"/><path class="cls-9" d="M765,325.24v-9.41l.88-.13v9.54Z"/><path class="cls-9" d="M767.52,321.86c0-2.38,1.54-3.49,3-3.49s2.75,1.2,2.75,3.51V322H768.4c0,1.65,1,2.6,2.21,2.6a2.82,2.82,0,0,0,2.16-1l.44.58a3.3,3.3,0,0,1-2.61,1.17C768.9,325.38,767.52,324.17,767.52,321.86Zm4.85-.51c-.09-1.28-.7-2.24-1.91-2.24-1,0-1.89.73-2,2.24Z"/><path class="cls-10" d="M773.46,296.51a3.3,3.3,0,0,1-3.42,3.17H737.53a3.3,3.3,0,0,1-3.42-3.17v-64a3.3,3.3,0,0,1,3.42-3.17H770a3.3,3.3,0,0,1,3.42,3.17Z"/><rect class="cls-11" x="734.11" y="237.84" width="39.35" height="51.38"/><circle class="cls-11" cx="753.79" cy="294.4" r="2.9"/><g class="cls-12"><path class="cls-13" d="M758.88,229.33H736.82a2.84,2.84,0,0,0-2.78,2.89v22Z"/></g><path class="cls-2" d="M753.81,269.27h5.78v.12l-2.12,2.15h-3.66Zm-.12-3.95a7.81,7.81,0,0,1-4.28-1c-7.87,2.2-6.93,12-6.94,12H765s1-9.86-6.95-12.07a9.76,9.76,0,0,1-4.4,1.16m-6.37-8.24a6.37,6.37,0,1,0,6.37-6.38,6.33,6.33,0,0,0-6.37,6.38"/><g class="cls-14"><rect class="cls-2" x="741.86" y="250.12" width="23.79" height="26.69"/></g><path class="cls-9" d="M227.18,124.17c0-2.85,1.57-4.88,3.92-4.88a3.29,3.29,0,0,1,3.25,2.09l-.78.41a2.46,2.46,0,0,0-2.47-1.66c-1.84,0-3,1.61-3,4,0,2.61,1.19,4.16,3,4.16a2.68,2.68,0,0,0,2.64-1.89l.78.36a3.45,3.45,0,0,1-3.43,2.36C228.75,129.12,227.18,127.17,227.18,124.17Z"/><path class="cls-9" d="M236.2,128.95v-9.41l.88-.13v9.54Z"/><path class="cls-9" d="M238.76,125.58c0-2.25,1.4-3.51,3.06-3.51s3,1.25,3,3.51-1.4,3.51-3,3.51S238.76,127.82,238.76,125.58Zm5.22,0c0-1.48-.74-2.75-2.16-2.75s-2.18,1.17-2.18,2.75.73,2.75,2.18,2.75S244,127.17,244,125.58Z"/><path class="cls-9" d="M246.46,127.1v-4.89h.88v4.71c0,.95.4,1.41,1.34,1.41a3.51,3.51,0,0,0,2.36-1.18v-4.94h.88v6.73h-.79l-.09-1.06a3.75,3.75,0,0,1-2.56,1.2A1.8,1.8,0,0,1,246.46,127.1Z"/><path class="cls-9" d="M253.59,125.59c0-2.36,1.24-3.52,2.8-3.52a3,3,0,0,1,2.23,1.06v-3.6l.88-.13v9.54h-.79l-.09-1a3,3,0,0,1-2.25,1.09C254.82,129.06,253.59,127.95,253.59,125.59Zm5,1.61v-3.29a2.93,2.93,0,0,0-2.12-1.1c-1.11,0-2,.86-2,2.77s.92,2.73,2,2.73A2.86,2.86,0,0,0,258.63,127.2Z"/><path class="cls-9" d="M212.69,139.37c0-2.42,1.5-3.51,3-3.51a2.64,2.64,0,0,1,2.48,1.6l-.69.42a1.87,1.87,0,0,0-1.82-1.28c-1,0-2.1.76-2.1,2.77,0,1.73.9,2.77,2.09,2.77a2,2,0,0,0,1.88-1.32l.65.42a2.73,2.73,0,0,1-2.59,1.64C214.06,142.88,212.69,141.61,212.69,139.37Z"/><path class="cls-9" d="M219.32,139.37c0-2.25,1.4-3.51,3.06-3.51s3,1.25,3,3.51-1.4,3.51-3,3.51S219.32,141.61,219.32,139.37Zm5.22,0c0-1.48-.74-2.75-2.16-2.75s-2.18,1.17-2.18,2.75.73,2.75,2.18,2.75S224.54,141,224.54,139.37Z"/><path class="cls-9" d="M227.07,142.74V136h.79l.09,1.06a3.5,3.5,0,0,1,2.47-1.2,1.67,1.67,0,0,1,1.87,1.22,3.73,3.73,0,0,1,2.53-1.22,1.75,1.75,0,0,1,1.95,2v4.88h-.88V138c0-.95-.32-1.41-1.27-1.41a3.29,3.29,0,0,0-2.25,1.18v4.94h-.88V138c0-.95-.32-1.41-1.28-1.41a3.32,3.32,0,0,0-2.25,1.18v4.94Z"/><path class="cls-9" d="M238.75,145.36V136h.79l.09.95a3,3,0,0,1,2.25-1.09c1.55,0,2.78,1.14,2.78,3.49s-1.24,3.5-2.8,3.5a3,3,0,0,1-2.23-1v3.42Zm5-6c0-1.86-.92-2.75-2-2.75a2.9,2.9,0,0,0-2.1,1.1V141a2.91,2.91,0,0,0,2.13,1.09C242.88,142.11,243.78,141.3,243.78,139.37Z"/><path class="cls-9" d="M246.3,140.89V136h.88v4.71c0,.95.4,1.41,1.34,1.41a3.51,3.51,0,0,0,2.36-1.18V136h.88v6.73H251l-.09-1.06a3.75,3.75,0,0,1-2.56,1.2A1.8,1.8,0,0,1,246.3,140.89Z"/><path class="cls-9" d="M254.23,141.14v-4.39h-1.17V136h1.17v-2.37l.88-.13V136h1.75v.74h-1.75V141c0,.72.27,1.08,1,1.08a2.54,2.54,0,0,0,.67-.09l.1.76a5.89,5.89,0,0,1-.92.08C254.81,142.83,254.23,142.36,254.23,141.14Z"/><path class="cls-9" d="M258.26,134a.54.54,0,0,1,1.08,0,.54.54,0,1,1-1.08,0Zm.1,8.78V136h.88v6.73Z"/><path class="cls-9" d="M261.26,142.74V136h.79l.09,1.06a3.65,3.65,0,0,1,2.55-1.2,1.8,1.8,0,0,1,2,2v4.89h-.88V138c0-.95-.41-1.42-1.36-1.42a3.4,3.4,0,0,0-2.34,1.18v5Z"/><path class="cls-9" d="M268,143.63a1.68,1.68,0,0,1,1.24-1.54.86.86,0,0,1-.6-.86c0-.41.33-.76.82-1a2.23,2.23,0,0,1-1-1.93,2.47,2.47,0,0,1,2.66-2.43,2.8,2.8,0,0,1,1.92.69,3.49,3.49,0,0,1,1.48-.61l.13.83a3.43,3.43,0,0,0-1.28.23,2.1,2.1,0,0,1,.4,1.29,2.42,2.42,0,0,1-2.65,2.39,3,3,0,0,1-1.09-.19c-.32.13-.54.32-.54.58s.24.44,1,.51l1.47.12c1.56.13,2.38.67,2.38,1.72,0,1.23-1.28,1.91-3.12,1.91C269,145.32,268,144.67,268,143.63Zm5.5-.14c0-.64-.51-1-1.84-1.06l-1.34-.1-.35,0c-.75.24-1.13.72-1.13,1.23,0,.7.74,1.11,2.45,1.11C272.63,144.63,273.46,144.17,273.46,143.49Zm-.59-5.19a1.64,1.64,0,0,0-1.82-1.74,1.72,1.72,0,1,0,1.82,1.74Z"/><circle class="cls-3" cx="243.48" cy="60.61" r="42.47"/><g class="cls-15"><path class="cls-16" d="M207.11,95.44l74.29-74.29s30.18,59,26.27,62.4-19,26.85-22.46,29.29-25.39,9.28-29.78,11.23-28.32-13.67-30.76-13.18S207.11,95.44,207.11,95.44Z"/></g><path class="cls-17" d="M278,65.31V79.48a2.92,2.92,0,0,1-2.37,2.19h-10.5"/><path class="cls-18" d="M221.71,79.78H207c-.92,0-1-1.21-1-2.12V50.53c0-.92.06-1.31,1-1.31h5.86"/><path class="cls-13" d="M218.3,48s1.1-11.12,13.06-9a14,14,0,0,1,25,3.47,9.64,9.64,0,0,1,4.87-1.32c4.35,0,7.83,4,7.83,6.81Z"/><polyline class="cls-17" points="267.88 85.01 264.44 81.57 267.88 78.13"/><polyline class="cls-18" points="209.92 45.96 213.36 49.4 209.92 52.84"/><path class="cls-19" d="M274.45,99.29H215.14a2.06,2.06,0,0,1-2-2.07V62.91a2.06,2.06,0,0,1,2-2.07h59.31a2.06,2.06,0,0,1,2,2.07V97.22a2.07,2.07,0,0,1-2,2.07"/><path class="cls-20" d="M274.57,103.18H198.24a1.95,1.95,0,0,1,0-3.9h76.33a1.95,1.95,0,0,1,0,3.9"/><rect class="cls-21" x="217.66" y="64.45" width="53.86" height="31.17"/><path class="cls-22" d="M265.35,103.18H198.24a1.95,1.95,0,0,1,0-3.9h67.11a1.95,1.95,0,0,1,0,3.9"/><path class="cls-23" d="M219.28,76.89v-9.4a1.32,1.32,0,0,1,1.31-1.33h9.92"/><circle id="_Trazado_2" data-name="&lt;Trazado&gt;" class="cls-3" cx="110.57" cy="124.52" r="43.18"/><path class="cls-9" d="M80.13,192.16v-9.47h3.29c2.14,0,3.21.88,3.21,2.38a2.15,2.15,0,0,1-1.79,2.19v0a2.29,2.29,0,0,1,2.1,2.3c0,1.5-1,2.57-3.24,2.57Zm.9-5.26h2.32c1.51,0,2.39-.55,2.39-1.72s-.73-1.68-2.37-1.68H81Zm0,4.46h2.66c1.63,0,2.36-.67,2.36-1.81s-1-1.86-2.64-1.86H81Z"/><path class="cls-9" d="M88.63,183.38a.54.54,0,1,1,1.08,0,.54.54,0,1,1-1.08,0Zm.1,8.78v-6.73h.88v6.73Z"/><path class="cls-9" d="M91.25,188.79c0-2.25,1.4-3.51,3.06-3.51s3,1.25,3,3.51-1.4,3.51-3,3.51S91.25,191,91.25,188.79Zm5.22,0c0-1.48-.74-2.75-2.16-2.75s-2.18,1.17-2.18,2.75.73,2.75,2.18,2.75S96.47,190.38,96.47,188.79Z"/><path class="cls-9" d="M99,192.16v-6.73h.79l.09,1.06a3.5,3.5,0,0,1,2.47-1.2,1.67,1.67,0,0,1,1.87,1.22,3.73,3.73,0,0,1,2.53-1.22,1.75,1.75,0,0,1,1.95,2v4.88h-.88v-4.71c0-.95-.32-1.41-1.27-1.41a3.29,3.29,0,0,0-2.25,1.18v4.94h-.88v-4.71c0-.95-.32-1.41-1.28-1.41a3.32,3.32,0,0,0-2.25,1.18v4.94Z"/><path class="cls-9" d="M110.31,188.78c0-2.38,1.54-3.49,3-3.49s2.75,1.2,2.75,3.51V189h-4.83c0,1.65,1,2.6,2.21,2.6a2.82,2.82,0,0,0,2.16-1l.44.58a3.3,3.3,0,0,1-2.61,1.16C111.69,192.3,110.31,191.08,110.31,188.78Zm4.85-.51c-.09-1.28-.7-2.24-1.91-2.24-1,0-1.89.73-2,2.24Z"/><path class="cls-9" d="M118,190.56v-4.39h-1.17v-.74H118v-2.37l.88-.13v2.5h1.75v.74h-1.75v4.26c0,.72.27,1.08,1,1.08a2.54,2.54,0,0,0,.67-.09l.1.76a5.89,5.89,0,0,1-.92.08C118.53,192.25,118,191.79,118,190.56Z"/><path class="cls-9" d="M122,192.16v-6.73h.79l.09,1.32h0a3,3,0,0,1,2.65-1.46h.09l.08.82a2.6,2.6,0,0,0-.32,0,2.74,2.74,0,0,0-2.52,1.68v4.39Z"/><path class="cls-9" d="M127,183.38a.54.54,0,0,1,1.08,0,.54.54,0,1,1-1.08,0Zm.1,8.78v-6.73H128v6.73Z"/><path class="cls-9" d="M129.62,188.79c0-2.42,1.5-3.51,3-3.51a2.64,2.64,0,0,1,2.48,1.6l-.69.42A1.87,1.87,0,0,0,132.6,186c-1,0-2.1.76-2.1,2.77,0,1.73.9,2.77,2.09,2.77a2,2,0,0,0,1.88-1.32l.65.42a2.73,2.73,0,0,1-2.59,1.64C131,192.3,129.62,191,129.62,188.79Z"/><path class="cls-9" d="M136.31,191.08l.49-.54a2.74,2.74,0,0,0,2.16,1c1.15,0,1.75-.45,1.75-1.17s-.46-1-1.86-1.37c-1.63-.4-2.34-.82-2.34-2,0-1,.83-1.77,2.29-1.77a3.36,3.36,0,0,1,2.48.95l-.45.61a2.75,2.75,0,0,0-2-.83c-1,0-1.46.47-1.46,1s.37.91,1.61,1.2c1.79.42,2.59.84,2.59,2.11s-1.1,1.95-2.62,1.95A3.26,3.26,0,0,1,136.31,191.08Z"/><path class="cls-13" d="M110.75,130.55a1.39,1.39,0,0,0,1.35-1.43V116.53a1.36,1.36,0,1,0-2.71,0v12.59A1.39,1.39,0,0,0,110.75,130.55Z"/><path class="cls-13" d="M110.75,101.59a13.71,13.71,0,0,0-13.69,13.69v30.78a1.73,1.73,0,0,1-3.46,0v-17.7a1.35,1.35,0,0,0-2.71,0v17.7a4.44,4.44,0,0,0,8.81.71,1.36,1.36,0,0,0,.06-.38V115.29a11,11,0,1,1,22,0v24.56a7.9,7.9,0,0,1-15.8,0V115.71a4.81,4.81,0,1,1,9.63,0v4.15a1.35,1.35,0,1,0,2.71,0v-4.15a7.52,7.52,0,1,0-15,0v24.73a1.37,1.37,0,0,0,0,.34,10.6,10.6,0,0,0,21.17-.93V115.29A13.71,13.71,0,0,0,110.75,101.59Z"/><path class="cls-13" d="M128.89,133.85a1.35,1.35,0,0,0-1.35,1.35V148.5a1.35,1.35,0,0,0,2.71,0V135.21A1.35,1.35,0,0,0,128.89,133.85Z"/><path class="cls-13" d="M110.57,95.54a19.7,19.7,0,0,0-19.68,19.68v7a1.35,1.35,0,1,0,2.71,0v-7a17,17,0,0,1,33.94,0v14a1.35,1.35,0,1,0,2.71,0v-14A19.7,19.7,0,0,0,110.57,95.54Z"/><path class="cls-13" d="M109.4,139.76a4.53,4.53,0,0,0,9.06,0v-13.6a1.35,1.35,0,1,0-2.71,0v13.6a1.82,1.82,0,0,1-3.64,0v-4.55a1.35,1.35,0,0,0-2.71,0Z"/><path class="cls-9" d="M366.4,107.6V98.13h2.39c3.07,0,4.71,1.6,4.71,4.72s-1.68,4.75-4.71,4.75Zm.91-.83h1.63c2.36,0,3.66-1.2,3.66-3.9S371.28,99,368.91,99h-1.6Z"/><path class="cls-9" d="M375.22,98.82a.54.54,0,1,1,1.08,0,.54.54,0,1,1-1.08,0Zm.1,8.78v-6.73h.88v6.73Z"/><path class="cls-9" d="M377.73,106.52l.49-.54a2.74,2.74,0,0,0,2.16,1c1.15,0,1.75-.45,1.75-1.17s-.46-1-1.86-1.37c-1.63-.4-2.34-.82-2.34-2,0-1,.83-1.77,2.29-1.77a3.36,3.36,0,0,1,2.48.95l-.45.61a2.75,2.75,0,0,0-2-.83c-1,0-1.46.47-1.46,1s.37.91,1.61,1.2c1.79.42,2.59.84,2.59,2.11s-1.1,1.95-2.62,1.95A3.26,3.26,0,0,1,377.73,106.52Z"/><path class="cls-9" d="M385.14,106v-4.39H384v-.74h1.17V98.5l.88-.13v2.5h1.75v.74H386v4.26c0,.72.27,1.08,1,1.08a2.54,2.54,0,0,0,.67-.09l.1.76a5.89,5.89,0,0,1-.92.08C385.71,107.69,385.14,107.23,385.14,106Z"/><path class="cls-9" d="M389.22,107.6v-6.73H390l.09,1.32h0a3,3,0,0,1,2.65-1.46h.09l.08.82a2.6,2.6,0,0,0-.32,0,2.74,2.74,0,0,0-2.52,1.68v4.39Z"/><path class="cls-9" d="M394.17,98.82a.54.54,0,1,1,1.08,0,.54.54,0,1,1-1.08,0Zm.1,8.78v-6.73h.88v6.73Z"/><path class="cls-9" d="M398.07,106.68l0,.92h-.86V98.19l.88-.13v3.78a2.9,2.9,0,0,1,2.25-1.11c1.55,0,2.78,1.14,2.78,3.49s-1.24,3.5-2.8,3.5A3,3,0,0,1,398.07,106.68Zm4.15-2.45c0-1.86-.92-2.75-2-2.75a2.9,2.9,0,0,0-2.1,1.1v3.3a2.91,2.91,0,0,0,2.13,1.09C401.32,107,402.21,106.14,402.21,104.23Z"/><path class="cls-9" d="M404.74,105.76v-4.89h.88v4.71c0,.95.4,1.41,1.34,1.41a3.51,3.51,0,0,0,2.36-1.18v-4.94h.88v6.73h-.79l-.09-1.06a3.75,3.75,0,0,1-2.56,1.2A1.8,1.8,0,0,1,404.74,105.76Z"/><path class="cls-9" d="M412.67,106v-4.39H411.5v-.74h1.17V98.5l.88-.13v2.5h1.75v.74h-1.75v4.26c0,.72.27,1.08,1,1.08a2.54,2.54,0,0,0,.67-.09l.1.76a5.89,5.89,0,0,1-.92.08C413.24,107.69,412.67,107.23,412.67,106Z"/><path class="cls-9" d="M416.13,104.22c0-2.38,1.54-3.49,3-3.49s2.75,1.2,2.75,3.51v.17H417c0,1.65,1,2.6,2.21,2.6a2.82,2.82,0,0,0,2.16-1l.44.58a3.3,3.3,0,0,1-2.61,1.16C417.51,107.74,416.13,106.52,416.13,104.22Zm4.85-.51c-.09-1.28-.7-2.24-1.91-2.24-1,0-1.89.73-2,2.24Z"/><path class="cls-9" d="M423.13,104.24c0-2.36,1.24-3.52,2.8-3.52a3,3,0,0,1,2.23,1.06v-3.6l.88-.13v9.54h-.79l-.09-1a3,3,0,0,1-2.25,1.09C424.36,107.71,423.13,106.6,423.13,104.24Zm5,1.61v-3.29a2.93,2.93,0,0,0-2.12-1.1c-1.11,0-2,.86-2,2.77s.92,2.73,2,2.73A2.86,2.86,0,0,0,428.16,105.86Z"/><path class="cls-9" d="M377.16,121.39V112l.88-.13v9.54Z"/><path class="cls-9" d="M379.72,118c0-2.38,1.54-3.49,3-3.49s2.75,1.2,2.75,3.51v.17H380.6c0,1.65,1,2.6,2.21,2.6a2.82,2.82,0,0,0,2.16-1l.44.58a3.3,3.3,0,0,1-2.61,1.17C381.1,121.53,379.72,120.31,379.72,118Zm4.85-.51c-.09-1.28-.7-2.24-1.91-2.24-1,0-1.89.73-2,2.24Z"/><path class="cls-9" d="M386.71,118c0-2.36,1.24-3.52,2.8-3.52a3,3,0,0,1,2.23,1.06V112l.88-.13v9.54h-.79l-.09-1a3,3,0,0,1-2.25,1.09C387.94,121.5,386.71,120.39,386.71,118Zm5,1.61v-3.29a2.93,2.93,0,0,0-2.12-1.1c-1.11,0-2,.86-2,2.77s.92,2.73,2,2.73A2.86,2.86,0,0,0,391.74,119.65Z"/><path class="cls-9" d="M393.92,122.29a1.69,1.69,0,0,1,1.24-1.54.86.86,0,0,1-.6-.86c0-.41.33-.75.82-1a2.23,2.23,0,0,1-1-1.93,2.47,2.47,0,0,1,2.66-2.43,2.8,2.8,0,0,1,1.92.69,3.49,3.49,0,0,1,1.48-.61l.13.83a3.43,3.43,0,0,0-1.28.23,2.1,2.1,0,0,1,.4,1.29,2.42,2.42,0,0,1-2.65,2.39,3,3,0,0,1-1.09-.19c-.32.13-.54.32-.54.58s.24.44,1,.51l1.47.12c1.56.13,2.38.67,2.38,1.72,0,1.23-1.28,1.91-3.12,1.91C394.93,124,393.92,123.32,393.92,122.29Zm5.5-.14c0-.64-.51-1-1.84-1.06l-1.34-.1-.35,0c-.76.24-1.13.72-1.13,1.23,0,.7.74,1.11,2.45,1.11C398.59,123.28,399.42,122.82,399.42,122.14Zm-.59-5.19a1.64,1.64,0,0,0-1.82-1.74,1.72,1.72,0,1,0,1.82,1.74Z"/><path class="cls-9" d="M401.33,118c0-2.38,1.54-3.49,3-3.49S407,115.72,407,118v.17h-4.83c0,1.65,1,2.6,2.21,2.6a2.82,2.82,0,0,0,2.16-1l.44.58a3.3,3.3,0,0,1-2.61,1.17C402.71,121.53,401.33,120.31,401.33,118Zm4.85-.51c-.09-1.28-.7-2.24-1.91-2.24-1,0-1.89.73-2,2.24Z"/><path class="cls-9" d="M408.68,121.39v-6.73h.79l.09,1.32h0a3,3,0,0,1,2.65-1.46h.09l.08.82a2.6,2.6,0,0,0-.32,0,2.74,2.74,0,0,0-2.52,1.68v4.39Z"/><path class="cls-9" d="M413.28,120.31l.49-.54a2.74,2.74,0,0,0,2.16,1c1.15,0,1.75-.45,1.75-1.17s-.46-1-1.86-1.37c-1.63-.4-2.34-.82-2.34-2,0-1,.83-1.77,2.29-1.77a3.36,3.36,0,0,1,2.48.95l-.45.61a2.75,2.75,0,0,0-2-.83c-1,0-1.46.47-1.46,1s.37.91,1.61,1.2c1.79.42,2.59.84,2.59,2.11s-1.1,1.95-2.62,1.95A3.26,3.26,0,0,1,413.28,120.31Z"/><circle id="_Trazado_3" data-name="&lt;Trazado&gt;" class="cls-3" cx="399.78" cy="44.47" r="42.47"/><polyline class="cls-24" points="399.78 32.33 399.78 44.3 376.15 44.3 376.15 51.15"/><polyline class="cls-24" points="399.78 44.3 423.41 44.3 423.41 51.15"/><path class="cls-25" d="M380.08,59.26q0,.12,0,.24"/><rect class="cls-11" x="373.03" y="77.51" width="6.23" height="4.74"/><rect class="cls-11" x="367.49" y="81.85" width="17.32" height="1.18"/><rect class="cls-26" x="355.42" y="51.38" width="41.46" height="27.91" rx="1.39" ry="1.39"/><rect class="cls-11" x="355.42" y="50.54" width="41.46" height="27.91" rx="1.39" ry="1.39"/><path class="cls-27" d="M395.52,73.8A1.18,1.18,0,0,1,394.35,75h-36.4a1.18,1.18,0,0,1-1.17-1.18V53.3a1.18,1.18,0,0,1,1.17-1.18h36.4a1.18,1.18,0,0,1,1.17,1.18Z"/><path class="cls-28" d="M377.44,76.92a1.29,1.29,0,1,1-1.29-1.31,1.3,1.3,0,0,1,1.29,1.31"/><g class="cls-29"><rect class="cls-30" x="373.03" y="79.29" width="6.23" height="1.23"/><rect class="cls-1" x="373.03" y="79.29" width="6.23" height="1.23"/></g><path class="cls-31" d="M394.35,52.12h-6.28L365.2,75h29.15a1.18,1.18,0,0,0,1.17-1.18V53.3A1.18,1.18,0,0,0,394.35,52.12Z"/><g class="cls-32"><rect class="cls-33" x="365.89" y="64.49" width="25.21" height="0.59" rx="0.29" ry="0.29"/><rect class="cls-1" x="365.89" y="64.49" width="25.21" height="0.59"/></g><g class="cls-32"><rect class="cls-33" x="361.2" y="61.7" width="25.21" height="0.59" rx="0.29" ry="0.29"/><rect class="cls-1" x="361.2" y="61.7" width="25.21" height="0.59"/></g><g class="cls-32"><rect class="cls-33" x="362.74" y="63.1" width="25.21" height="0.59" rx="0.29" ry="0.29"/><rect class="cls-1" x="362.74" y="63.1" width="25.21" height="0.59"/></g><g class="cls-32"><rect class="cls-33" x="361.35" y="63.1" width="0.81" height="0.59" rx="0.29" ry="0.29"/><rect class="cls-1" x="361.35" y="63.1" width="0.81" height="0.59"/></g><g class="cls-32"><rect class="cls-33" x="388.53" y="63.1" width="0.81" height="0.59" rx="0.29" ry="0.29"/><rect class="cls-1" x="388.53" y="63.1" width="0.81" height="0.59"/></g><rect class="cls-34" x="368.45" y="53.72" width="16.27" height="18.32" rx="0.44" ry="0.44"/><rect class="cls-13" x="367.58" y="54.6" width="16.27" height="18.32" rx="0.44" ry="0.44"/><path class="cls-3" d="M382.36,60.67a.26.26,0,0,1-.26.26H369.91a.26.26,0,1,1,0-.52H382.1a.26.26,0,0,1,.26.26"/><path class="cls-3" d="M382.36,62a.26.26,0,0,1-.26.26H369.91a.26.26,0,1,1,0-.52H382.1a.26.26,0,0,1,.26.26"/><path class="cls-3" d="M382.36,63.51a.26.26,0,0,1-.26.26H369.91a.26.26,0,1,1,0-.52H382.1a.26.26,0,0,1,.26.26"/><path class="cls-3" d="M382.36,64.88a.26.26,0,0,1-.26.26H369.91a.26.26,0,1,1,0-.52H382.1a.26.26,0,0,1,.26.26"/><path class="cls-3" d="M382.36,66.25a.26.26,0,0,1-.26.26H369.91a.26.26,0,1,1,0-.52H382.1a.26.26,0,0,1,.26.26"/><path class="cls-3" d="M382.36,67.71a.26.26,0,0,1-.26.26H369.91a.26.26,0,1,1,0-.52H382.1a.26.26,0,0,1,.26.26"/><path class="cls-3" d="M382.36,69.09a.26.26,0,0,1-.26.26H369.91a.26.26,0,1,1,0-.52H382.1a.26.26,0,0,1,.26.26"/><path class="cls-3" d="M375.15,71a.21.21,0,0,1-.21.21h-5.06a.21.21,0,0,1,0-.43h5.06a.21.21,0,0,1,.21.21"/><path class="cls-3" d="M371.45,57.44l.14-.21a.57.57,0,0,0-.5-.94h-1.27v3H371a.93.93,0,0,0,.4-1.79m-.73,1.36h-.21V56.65h.37a.34.34,0,0,1,.34.33.34.34,0,0,1-.08.21l-.24.36a.64.64,0,0,1-.19,1.25"/><g class="cls-35"><polygon class="cls-36" points="366.46 73.48 386.51 53.41 385.24 75.11 373.73 75.11 366.46 73.48"/><rect class="cls-1" x="366.46" y="53.41" width="20.05" height="21.7"/></g><rect class="cls-1" x="367.58" y="54.6" width="16.27" height="18.32" rx="0.44" ry="0.44"/><path class="cls-25" d="M427.34,59.26q0,.12,0,.24"/><rect class="cls-11" x="420.3" y="77.51" width="6.23" height="4.74"/><rect class="cls-11" x="414.75" y="81.85" width="17.32" height="1.18"/><rect class="cls-26" x="402.68" y="51.38" width="41.46" height="27.91" rx="1.39" ry="1.39"/><rect class="cls-11" x="402.68" y="50.54" width="41.46" height="27.91" rx="1.39" ry="1.39"/><path class="cls-27" d="M442.78,73.8A1.18,1.18,0,0,1,441.61,75h-36.4A1.18,1.18,0,0,1,404,73.8V53.3a1.18,1.18,0,0,1,1.17-1.18h36.4a1.18,1.18,0,0,1,1.17,1.18Z"/><path class="cls-28" d="M424.7,76.92a1.29,1.29,0,1,1-1.29-1.31,1.3,1.3,0,0,1,1.29,1.31"/><g class="cls-29"><rect class="cls-30" x="420.3" y="79.29" width="6.23" height="1.23"/><rect class="cls-1" x="420.3" y="79.29" width="6.23" height="1.23"/></g><path class="cls-31" d="M441.61,52.12h-6.28L412.46,75h29.15a1.18,1.18,0,0,0,1.17-1.18V53.3A1.18,1.18,0,0,0,441.61,52.12Z"/><g class="cls-32"><rect class="cls-33" x="413.15" y="64.72" width="25.21" height="0.59" rx="0.29" ry="0.29"/><rect class="cls-1" x="413.15" y="64.73" width="25.21" height="0.59"/></g><g class="cls-32"><rect class="cls-33" x="408.46" y="61.94" width="25.21" height="0.59" rx="0.29" ry="0.29"/><rect class="cls-1" x="408.46" y="61.94" width="25.21" height="0.59"/></g><g class="cls-32"><rect class="cls-33" x="410" y="63.33" width="25.21" height="0.59" rx="0.29" ry="0.29"/><rect class="cls-1" x="410" y="63.33" width="25.21" height="0.59"/></g><g class="cls-32"><rect class="cls-33" x="408.61" y="63.33" width="0.81" height="0.59" rx="0.29" ry="0.29"/><rect class="cls-1" x="408.61" y="63.33" width="0.81" height="0.59"/></g><g class="cls-32"><rect class="cls-33" x="435.79" y="63.33" width="0.81" height="0.59" rx="0.29" ry="0.29"/><rect class="cls-1" x="435.79" y="63.33" width="0.81" height="0.59"/></g><rect class="cls-34" x="415.72" y="53.95" width="16.27" height="18.32" rx="0.44" ry="0.44"/><rect class="cls-13" x="414.84" y="54.83" width="16.27" height="18.32" rx="0.44" ry="0.44"/><path class="cls-3" d="M429.62,60.91a.26.26,0,0,1-.26.26H417.17a.26.26,0,1,1,0-.52h12.19a.26.26,0,0,1,.26.26"/><path class="cls-3" d="M429.62,62.28a.26.26,0,0,1-.26.26H417.17a.26.26,0,1,1,0-.52h12.19a.26.26,0,0,1,.26.26"/><path class="cls-3" d="M429.62,63.74a.26.26,0,0,1-.26.26H417.17a.26.26,0,1,1,0-.52h12.19a.26.26,0,0,1,.26.26"/><path class="cls-3" d="M429.62,65.12a.26.26,0,0,1-.26.26H417.17a.26.26,0,1,1,0-.52h12.19a.26.26,0,0,1,.26.26"/><path class="cls-3" d="M429.62,66.49a.26.26,0,0,1-.26.26H417.17a.26.26,0,1,1,0-.52h12.19a.26.26,0,0,1,.26.26"/><path class="cls-3" d="M429.62,67.95a.26.26,0,0,1-.26.26H417.17a.26.26,0,1,1,0-.52h12.19a.26.26,0,0,1,.26.26"/><path class="cls-3" d="M429.62,69.32a.26.26,0,0,1-.26.26H417.17a.26.26,0,1,1,0-.52h12.19a.26.26,0,0,1,.26.26"/><path class="cls-3" d="M422.41,71.25a.21.21,0,0,1-.21.21h-5.06a.21.21,0,0,1,0-.43h5.06a.21.21,0,0,1,.21.21"/><path class="cls-3" d="M418.71,57.67l.14-.21a.57.57,0,0,0-.5-.94h-1.27v3h1.22a.93.93,0,0,0,.4-1.79M418,59h-.21V56.88h.37a.34.34,0,0,1,.34.33.34.34,0,0,1-.08.21l-.24.36A.64.64,0,0,1,418,59"/><g class="cls-35"><polygon class="cls-36" points="413.72 73.72 433.78 53.65 432.5 75.35 420.99 75.35 413.72 73.72"/><rect class="cls-1" x="413.72" y="53.65" width="20.05" height="21.7"/></g><rect class="cls-1" x="414.84" y="54.83" width="16.27" height="18.32" rx="0.44" ry="0.44"/><path class="cls-25" d="M403.71,14.63q0,.12,0,.24"/><rect class="cls-11" x="396.67" y="32.88" width="6.23" height="4.74"/><rect class="cls-11" x="391.12" y="37.22" width="17.32" height="1.18"/><rect class="cls-26" x="379.05" y="6.75" width="41.46" height="27.91" rx="1.39" ry="1.39"/><rect class="cls-11" x="379.05" y="5.91" width="41.46" height="27.91" rx="1.39" ry="1.39"/><path class="cls-27" d="M419.15,29.17A1.18,1.18,0,0,1,418,30.36h-36.4a1.18,1.18,0,0,1-1.17-1.18V8.67a1.18,1.18,0,0,1,1.17-1.18H418a1.18,1.18,0,0,1,1.17,1.18Z"/><path class="cls-28" d="M401.07,32.29A1.29,1.29,0,1,1,399.78,31a1.3,1.3,0,0,1,1.29,1.31"/><g class="cls-29"><rect class="cls-30" x="396.67" y="34.66" width="6.23" height="1.23"/><rect class="cls-1" x="396.67" y="34.66" width="6.23" height="1.23"/></g><path class="cls-31" d="M418,7.49H411.7L388.83,30.36H418a1.18,1.18,0,0,0,1.17-1.18V8.67A1.18,1.18,0,0,0,418,7.49Z"/><g class="cls-32"><rect class="cls-33" x="389.52" y="20.09" width="25.21" height="0.59" rx="0.29" ry="0.29"/><rect class="cls-1" x="389.52" y="20.09" width="25.21" height="0.59"/></g><g class="cls-32"><rect class="cls-33" x="384.83" y="17.31" width="25.21" height="0.59" rx="0.29" ry="0.29"/><rect class="cls-1" x="384.83" y="17.31" width="25.21" height="0.59"/></g><g class="cls-32"><rect class="cls-33" x="386.37" y="18.7" width="25.21" height="0.59" rx="0.29" ry="0.29"/><rect class="cls-1" x="386.37" y="18.7" width="25.21" height="0.59"/></g><g class="cls-32"><rect class="cls-33" x="384.98" y="18.7" width="0.81" height="0.59" rx="0.29" ry="0.29"/><rect class="cls-1" x="384.98" y="18.7" width="0.81" height="0.59"/></g><g class="cls-32"><rect class="cls-33" x="412.16" y="18.7" width="0.81" height="0.59" rx="0.29" ry="0.29"/><rect class="cls-1" x="412.16" y="18.7" width="0.81" height="0.59"/></g><rect class="cls-34" x="392.09" y="9.32" width="16.27" height="18.32" rx="0.44" ry="0.44"/><rect class="cls-13" x="391.21" y="10.2" width="16.27" height="18.32" rx="0.44" ry="0.44"/><path class="cls-3" d="M406,16.28a.26.26,0,0,1-.26.26H393.54a.26.26,0,1,1,0-.52h12.19a.26.26,0,0,1,.26.26"/><path class="cls-3" d="M406,17.65a.26.26,0,0,1-.26.26H393.54a.26.26,0,1,1,0-.52h12.19a.26.26,0,0,1,.26.26"/><path class="cls-3" d="M406,19.11a.26.26,0,0,1-.26.26H393.54a.26.26,0,1,1,0-.52h12.19a.26.26,0,0,1,.26.26"/><path class="cls-3" d="M406,20.49a.26.26,0,0,1-.26.26H393.54a.26.26,0,1,1,0-.52h12.19a.26.26,0,0,1,.26.26"/><path class="cls-3" d="M406,21.86a.26.26,0,0,1-.26.26H393.54a.26.26,0,1,1,0-.52h12.19a.26.26,0,0,1,.26.26"/><path class="cls-3" d="M406,23.32a.26.26,0,0,1-.26.26H393.54a.26.26,0,1,1,0-.52h12.19a.26.26,0,0,1,.26.26"/><path class="cls-3" d="M406,24.69a.26.26,0,0,1-.26.26H393.54a.26.26,0,1,1,0-.52h12.19a.26.26,0,0,1,.26.26"/><path class="cls-3" d="M398.78,26.62a.21.21,0,0,1-.21.21H393.5a.21.21,0,0,1,0-.43h5.06a.21.21,0,0,1,.21.21"/><path class="cls-3" d="M395.08,13l.14-.21a.57.57,0,0,0-.5-.94h-1.27v3h1.22a.93.93,0,0,0,.4-1.79m-.73,1.36h-.21V12.25h.37a.34.34,0,0,1,.34.33.34.34,0,0,1-.08.21l-.24.36a.56.56,0,0,1,.42.62.56.56,0,0,1-.61.63"/><g class="cls-35"><polygon class="cls-36" points="390.09 29.08 410.14 9.02 408.87 30.72 397.36 30.72 390.09 29.08"/><rect class="cls-1" x="390.09" y="9.02" width="20.05" height="21.7"/></g><rect class="cls-1" x="391.21" y="10.2" width="16.27" height="18.32" rx="0.44" ry="0.44"/><path class="cls-9" d="M541,128l3.35-9.51h1l3.34,9.44-.9.15-1-3h-3.84l-1,2.92Zm2.18-3.73h3.28l-1.63-4.71h0Z"/><path class="cls-9" d="M550.09,128v-6.73h.79l.09,1.32h0a3,3,0,0,1,2.65-1.46h.09l.08.82a2.6,2.6,0,0,0-.32,0,2.74,2.74,0,0,0-2.52,1.68V128Z"/><path class="cls-9" d="M555.91,126.36V122h-1.17v-.74h1.17v-2.37l.88-.13v2.5h1.75V122h-1.75v4.26c0,.72.27,1.08,1,1.08a2.54,2.54,0,0,0,.67-.09l.1.76a5.89,5.89,0,0,1-.92.08C556.49,128.05,555.91,127.59,555.91,126.36Z"/><path class="cls-9" d="M559.93,119.18a.54.54,0,0,1,1.08,0,.54.54,0,1,1-1.08,0ZM560,128v-6.73h.88V128Z"/><path class="cls-9" d="M563.48,120.2c0-1.14.65-1.73,1.89-1.73l.46,0,.09.73a2.91,2.91,0,0,0-.49,0c-.63,0-1.08.24-1.08,1v1h1.43V122h-1.43v6h-.88v-6h-1.17v-.74h1.17Zm3.66-1a.54.54,0,0,1,1.08,0,.54.54,0,1,1-1.08,0Zm.1,8.78v-6.73h.88V128Z"/><path class="cls-9" d="M569.89,124.59c0-2.42,1.5-3.51,3-3.51a2.64,2.64,0,0,1,2.48,1.6l-.69.42a1.87,1.87,0,0,0-1.82-1.28c-1,0-2.1.76-2.1,2.77,0,1.73.9,2.77,2.09,2.77a2,2,0,0,0,1.88-1.32l.65.42a2.73,2.73,0,0,1-2.59,1.64C571.26,128.1,569.89,126.83,569.89,124.59Z"/><path class="cls-9" d="M576.86,119.18a.54.54,0,0,1,1.08,0,.54.54,0,1,1-1.08,0ZM577,128v-6.73h.88V128Z"/><path class="cls-9" d="M579.42,126.37c0-1.33,1.14-2.29,4.57-2.82v-.35a1.24,1.24,0,0,0-1.38-1.38,3.55,3.55,0,0,0-2.5,1.06l-.5-.55a4.2,4.2,0,0,1,3.06-1.25,1.94,1.94,0,0,1,2.19,2.15V128h-.78l-.09-1a3.92,3.92,0,0,1-2.66,1.08A1.67,1.67,0,0,1,579.42,126.37Zm4.57-.09v-2.1c-3,.51-3.7,1.22-3.7,2.09,0,.7.46,1.08,1.23,1.08A3.52,3.52,0,0,0,584,126.28Z"/><path class="cls-9" d="M586.85,128v-9.41l.88-.13V128Z"/><path class="cls-9" d="M533,141.75v-9.47h.91v9.47Z"/><path class="cls-9" d="M536.13,141.75V135h.79l.09,1.06a3.65,3.65,0,0,1,2.55-1.2,1.8,1.8,0,0,1,2,2v4.89h-.88V137c0-.95-.41-1.42-1.36-1.42A3.4,3.4,0,0,0,537,136.8v5Z"/><path class="cls-9" d="M543.95,140.15v-4.39h-1.17V135h1.17v-2.37l.88-.13V135h1.75v.74h-1.75V140c0,.72.27,1.08,1,1.08a2.54,2.54,0,0,0,.67-.09l.1.76a5.89,5.89,0,0,1-.92.08C544.52,141.84,543.95,141.38,543.95,140.15Z"/><path class="cls-9" d="M547.41,138.37c0-2.38,1.54-3.49,3-3.49s2.75,1.2,2.75,3.51v.17H548.3c0,1.65,1,2.6,2.21,2.6a2.82,2.82,0,0,0,2.16-1l.44.58a3.3,3.3,0,0,1-2.61,1.17C548.79,141.89,547.41,140.68,547.41,138.37Zm4.85-.51c-.09-1.28-.7-2.24-1.91-2.24-1,0-1.89.73-2,2.24Z"/><path class="cls-9" d="M554.82,141.75v-9.41l.88-.13v9.54Z"/><path class="cls-9" d="M557.76,141.75v-9.41l.88-.13v9.54Z"/><path class="cls-9" d="M560.6,133a.54.54,0,1,1,1.08,0,.54.54,0,1,1-1.08,0Zm.1,8.78V135h.88v6.73Z"/><path class="cls-9" d="M562.87,142.65a1.69,1.69,0,0,1,1.24-1.54.86.86,0,0,1-.6-.86c0-.41.33-.75.82-1a2.23,2.23,0,0,1-1-1.93,2.47,2.47,0,0,1,2.66-2.43,2.8,2.8,0,0,1,1.92.69,3.49,3.49,0,0,1,1.48-.61l.13.83a3.43,3.43,0,0,0-1.28.23,2.1,2.1,0,0,1,.4,1.29A2.42,2.42,0,0,1,566,139.7a3,3,0,0,1-1.09-.19c-.32.13-.54.32-.54.58s.24.44,1,.51l1.47.12c1.56.13,2.38.67,2.38,1.72,0,1.23-1.28,1.91-3.12,1.91C563.89,144.34,562.87,143.68,562.87,142.65Zm5.5-.14c0-.64-.51-1-1.84-1.06l-1.34-.1-.35,0c-.75.24-1.13.72-1.13,1.23,0,.7.74,1.11,2.45,1.11C567.55,143.65,568.38,143.18,568.38,142.51Zm-.59-5.19a1.64,1.64,0,0,0-1.82-1.74,1.72,1.72,0,1,0,1.82,1.74Z"/><path class="cls-9" d="M570.28,138.37c0-2.38,1.54-3.49,3-3.49s2.75,1.2,2.75,3.51v.17h-4.83c0,1.65,1,2.6,2.21,2.6a2.82,2.82,0,0,0,2.16-1l.44.58a3.3,3.3,0,0,1-2.61,1.17C571.67,141.89,570.28,140.68,570.28,138.37Zm4.85-.51c-.09-1.28-.7-2.24-1.91-2.24-1,0-1.89.73-2,2.24Z"/><path class="cls-9" d="M577.64,141.75V135h.79l.09,1.06a3.65,3.65,0,0,1,2.55-1.2,1.8,1.8,0,0,1,2,2v4.89h-.88V137c0-.95-.41-1.42-1.36-1.42a3.4,3.4,0,0,0-2.34,1.18v5Z"/><path class="cls-9" d="M584.7,138.38c0-2.42,1.5-3.51,3-3.51a2.64,2.64,0,0,1,2.48,1.6l-.69.42a1.87,1.87,0,0,0-1.82-1.28c-1,0-2.1.76-2.1,2.77,0,1.73.9,2.77,2.09,2.77a2,2,0,0,0,1.88-1.32l.65.42a2.73,2.73,0,0,1-2.59,1.64C586.07,141.89,584.7,140.62,584.7,138.38Z"/><path class="cls-9" d="M591.33,138.37c0-2.38,1.54-3.49,3-3.49s2.75,1.2,2.75,3.51v.17h-4.83c0,1.65,1,2.6,2.21,2.6a2.82,2.82,0,0,0,2.16-1l.44.58a3.3,3.3,0,0,1-2.61,1.17C592.71,141.89,591.33,140.68,591.33,138.37Zm4.85-.51c-.09-1.28-.7-2.24-1.91-2.24-1,0-1.89.73-2,2.24Z"/><circle id="_Trazado_4" data-name="&lt;Trazado&gt;" class="cls-3" cx="564.01" cy="59.69" r="42.47"/><path class="cls-37" d="M564,102.16a42.46,42.46,0,0,0,29.25-73.25l-60,60A42.34,42.34,0,0,0,564,102.16Z"/><line class="cls-38" x1="551.57" y1="51.7" x2="545.74" y2="51.7"/><line class="cls-38" x1="551.57" y1="59.32" x2="545.74" y2="59.32"/><line class="cls-38" x1="551.57" y1="66.94" x2="545.74" y2="66.94"/><line class="cls-38" x1="583.27" y1="51.7" x2="577.44" y2="51.7"/><line class="cls-38" x1="583.27" y1="59.32" x2="577.44" y2="59.32"/><line class="cls-38" x1="583.27" y1="66.94" x2="577.44" y2="66.94"/><path class="cls-13" d="M572.13,51.7V66.94H556.88V51.7h15.25m0-2H556.88a2,2,0,0,0-2,2V66.94a2,2,0,0,0,2,2h15.25a2,2,0,0,0,2-2V51.7a2,2,0,0,0-2-2Z"/><line class="cls-38" x1="556.88" y1="71.31" x2="556.88" y2="77.14"/><line class="cls-38" x1="564.51" y1="71.31" x2="564.51" y2="77.14"/><line class="cls-38" x1="572.13" y1="71.31" x2="572.13" y2="77.14"/><line class="cls-38" x1="556.88" y1="41.51" x2="556.88" y2="47.33"/><line class="cls-38" x1="564.51" y1="41.51" x2="564.51" y2="47.33"/><line class="cls-38" x1="572.13" y1="41.51" x2="572.13" y2="47.33"/><polyline class="cls-38" points="548.65 62.4 527.47 62.4 527.47 68.31"/><circle class="cls-39" cx="527.47" cy="70.28" r="1.89"/><circle class="cls-38" cx="546.76" cy="78.12" r="1.89"/><circle class="cls-38" cx="548.61" cy="37.4" r="1.89"/><circle class="cls-38" cx="578.63" cy="33.59" r="1.89"/><circle class="cls-38" cx="588.05" cy="50.55" r="1.89"/><circle class="cls-38" cx="600.61" cy="53.17" r="1.89"/><circle class="cls-38" cx="580.52" cy="83.46" r="1.89"/><polyline class="cls-38" points="579.37 55.38 588.05 55.38 588.05 53.17"/><polyline class="cls-38" points="579.37 62.64 600.61 62.64 600.61 55.05"/><polyline class="cls-38" points="560.02 74.22 560.02 83.46 578.63 83.46"/><polyline class="cls-38" points="560.6 44.42 560.6 37.41 551.07 37.41"/><polyline class="cls-38" points="568.23 44.42 568.23 33.59 575.99 33.59"/><polyline class="cls-38" points="548.65 55.38 542.37 55.38 542.37 78.12 544.67 78.12"/><path class="cls-40" d="M533.1,60.21h2.39a7.91,7.91,0,0,1,1.62-1.52,1,1,0,0,0,.25-1.37A7.92,7.92,0,0,1,539.79,46a1,1,0,0,0,.45-1,7.94,7.94,0,0,1,3.3-8.13,1,1,0,0,0,.42-.95,6.15,6.15,0,0,1-.06-.82,6,6,0,0,1,6-6,6.12,6.12,0,0,1,.78,0,1,1,0,0,0,1-.53,6.1,6.1,0,0,1,5.47-3.5,6.27,6.27,0,0,1,6.26,6.26v8.5h2v-8.5a6.27,6.27,0,0,1,6.26-6.26,6.1,6.1,0,0,1,5.47,3.5,1,1,0,0,0,1,.53,6.11,6.11,0,0,1,.78,0,6,6,0,0,1,6,6,6.15,6.15,0,0,1-.06.82,1,1,0,0,0,.42.95,7.93,7.93,0,0,1,3.46,6.55,8,8,0,0,1-.16,1.58,1,1,0,0,0,.46,1,7.92,7.92,0,0,1,2.42,11.27,1,1,0,0,0,.25,1.37,7.92,7.92,0,0,1,1.81,1.77h2.34a9.89,9.89,0,0,0-2.28-2.81,9.9,9.9,0,0,0-3-12.91,10,10,0,0,0,.08-1.3,9.89,9.89,0,0,0-3.84-7.83q0-.25,0-.49a8,8,0,0,0-8.36-8,8.09,8.09,0,0,0-6.9-4,8.24,8.24,0,0,0-7.25,4.33,8.24,8.24,0,0,0-7.25-4.33,8.09,8.09,0,0,0-6.9,4h-.35a8,8,0,0,0-8,8q0,.24,0,.49a9.89,9.89,0,0,0-3.84,7.83,10,10,0,0,0,.08,1.3,9.9,9.9,0,0,0-3,12.91A9.9,9.9,0,0,0,533.1,60.21Z"/><rect class="cls-40" x="563.52" y="78.77" width="1.97" height="2.5"/><path class="cls-40" d="M597.21,65.2c0-.12,0-.25,0-.37h-2c0,.12,0,.24,0,.37a7.93,7.93,0,0,1-2.69,5.94,1,1,0,0,0-.28,1.06A7.93,7.93,0,0,1,587,82.41a1,1,0,0,0-.71.92,10.41,10.41,0,0,1-20.51,2.31H563.2a10.41,10.41,0,0,1-20.51-2.31,1,1,0,0,0-.71-.92,7.93,7.93,0,0,1-5.24-10.21,1,1,0,0,0-.28-1.06,7.93,7.93,0,0,1-2.69-5.94c0-.21,0-.41,0-.61h-2c0,.2,0,.4,0,.61a9.9,9.9,0,0,0,2.88,7,9.9,9.9,0,0,0,6.06,11.9A12.39,12.39,0,0,0,564.51,88a12.39,12.39,0,0,0,23.75-3.88,9.9,9.9,0,0,0,6.06-11.9A9.9,9.9,0,0,0,597.21,65.2Z"/><path class="cls-9" d="M667.34,187.42c0-3,1.7-4.92,4-4.92s4,1.95,4,4.92-1.72,4.92-4,4.92S667.34,190.39,667.34,187.42Zm7.08,0c0-2.56-1.29-4.08-3.09-4.08s-3.09,1.52-3.09,4.08,1.29,4.1,3.09,4.1S674.42,190,674.42,187.42Z"/><path class="cls-9" d="M677.14,194.78v-9.36h.79l.09.95a3,3,0,0,1,2.25-1.09c1.55,0,2.78,1.14,2.78,3.49s-1.24,3.5-2.8,3.5a3,3,0,0,1-2.23-1v3.42Zm5-6c0-1.86-.92-2.75-2-2.75a2.9,2.9,0,0,0-2.1,1.1v3.3a2.91,2.91,0,0,0,2.13,1.09C681.28,191.53,682.18,190.72,682.18,188.79Z"/><path class="cls-9" d="M684.37,188.78c0-2.38,1.54-3.49,3-3.49s2.75,1.2,2.75,3.51V189h-4.83c0,1.65,1,2.6,2.21,2.6a2.82,2.82,0,0,0,2.16-1l.44.58a3.3,3.3,0,0,1-2.61,1.16C685.76,192.3,684.37,191.08,684.37,188.78Zm4.85-.51c-.09-1.28-.7-2.24-1.91-2.24-1,0-1.89.73-2,2.24Z"/><path class="cls-9" d="M691.73,192.16v-6.73h.79l.09,1.06a3.65,3.65,0,0,1,2.55-1.2,1.8,1.8,0,0,1,2,2v4.89h-.88v-4.71c0-.95-.41-1.42-1.36-1.42a3.4,3.4,0,0,0-2.34,1.18v5Z"/><path class="cls-9" d="M653.07,197.17a.54.54,0,0,1,1.08,0,.54.54,0,1,1-1.08,0Zm.1,8.78v-6.73h.88v6.73Z"/><path class="cls-9" d="M656.08,205.95v-6.73h.79l.09,1.06a3.65,3.65,0,0,1,2.55-1.2,1.8,1.8,0,0,1,2,2v4.89h-.88v-4.71c0-.95-.41-1.42-1.36-1.42A3.4,3.4,0,0,0,657,201v5Z"/><path class="cls-9" d="M663.5,205.95v-6.73h.79l.09,1.06a3.65,3.65,0,0,1,2.55-1.2,1.8,1.8,0,0,1,2,2v4.89h-.88v-4.71c0-.95-.41-1.42-1.36-1.42a3.4,3.4,0,0,0-2.34,1.18v5Z"/><path class="cls-9" d="M670.56,202.58c0-2.25,1.4-3.51,3.06-3.51s3,1.25,3,3.51-1.4,3.51-3,3.51S670.56,204.82,670.56,202.58Zm5.22,0c0-1.48-.74-2.75-2.16-2.75s-2.18,1.17-2.18,2.75.73,2.75,2.18,2.75S675.78,204.17,675.78,202.58Z"/><path class="cls-9" d="M679.86,206l-2.46-6.7.88-.17,2,5.77h0l2-5.68h.9L680.74,206Z"/><path class="cls-9" d="M684.08,204.36c0-1.33,1.14-2.29,4.57-2.82v-.35a1.24,1.24,0,0,0-1.38-1.38,3.55,3.55,0,0,0-2.5,1.06l-.5-.55a4.2,4.2,0,0,1,3.06-1.25,1.94,1.94,0,0,1,2.19,2.15v4.72h-.78l-.09-1a3.92,3.92,0,0,1-2.66,1.08A1.67,1.67,0,0,1,684.08,204.36Zm4.57-.09v-2.1c-3,.51-3.7,1.22-3.7,2.09,0,.7.46,1.08,1.23,1.08A3.52,3.52,0,0,0,688.65,204.27Z"/><path class="cls-9" d="M691.84,204.35V200h-1.17v-.74h1.17v-2.37l.88-.13v2.5h1.75V200h-1.75v4.26c0,.72.27,1.08,1,1.08a2.54,2.54,0,0,0,.67-.09l.1.76a5.89,5.89,0,0,1-.92.08C692.41,206,691.84,205.58,691.84,204.35Z"/><path class="cls-9" d="M695.86,197.17a.54.54,0,0,1,1.08,0,.54.54,0,1,1-1.08,0Zm.1,8.78v-6.73h.88v6.73Z"/><path class="cls-9" d="M698.49,202.58c0-2.25,1.4-3.51,3.06-3.51s3,1.25,3,3.51-1.4,3.51-3,3.51S698.49,204.82,698.49,202.58Zm5.22,0c0-1.48-.74-2.75-2.16-2.75s-2.18,1.17-2.18,2.75.73,2.75,2.18,2.75S703.71,204.17,703.71,202.58Z"/><path class="cls-9" d="M706.24,205.95v-6.73H707l.09,1.06a3.65,3.65,0,0,1,2.55-1.2,1.8,1.8,0,0,1,2,2v4.89h-.88v-4.71c0-.95-.41-1.42-1.36-1.42a3.4,3.4,0,0,0-2.34,1.18v5Z"/><circle id="_Trazado_5" data-name="&lt;Trazado&gt;" class="cls-3" cx="682.5" cy="124.56" r="42.47"/><path class="cls-41" d="M690.46,117.82q0,.24,0,.49"/><rect class="cls-11" x="675.83" y="155.72" width="12.94" height="9.84"/><rect class="cls-11" x="664.31" y="164.74" width="35.98" height="2.46"/><rect class="cls-26" x="639.24" y="101.45" width="86.12" height="57.98" rx="2.88" ry="2.88"/><rect class="cls-11" x="639.24" y="99.71" width="86.12" height="57.98" rx="2.88" ry="2.88"/><path class="cls-13" d="M722.53,148a2.44,2.44,0,0,1-2.43,2.46H644.5a2.44,2.44,0,0,1-2.43-2.46V105.44A2.44,2.44,0,0,1,644.5,103h75.6a2.44,2.44,0,0,1,2.43,2.46Z"/><g class="cls-42"><line class="cls-43" x1="661.55" y1="141.3" x2="668.42" y2="141.3"/><line class="cls-44" x1="662.78" y1="143.54" x2="667.2" y2="143.54"/><line class="cls-43" x1="661.55" y1="138.32" x2="668.42" y2="138.32"/><path class="cls-43" d="M673.24,124.22a8.25,8.25,0,1,0-12.75,6.91v4.21h9v-4.21A8.24,8.24,0,0,0,673.24,124.22Z"/><line class="cls-44" x1="676.09" y1="119.75" x2="679.45" y2="118.35"/><line class="cls-44" x1="653.97" y1="128.91" x2="650.37" y2="130.4"/><line class="cls-44" x1="669.61" y1="113.18" x2="670.93" y2="109.99"/><line class="cls-44" x1="676" y1="128.91" x2="679.4" y2="130.32"/><line class="cls-44" x1="659.01" y1="109.93" x2="660.36" y2="113.18"/><line class="cls-44" x1="653.97" y1="119.78" x2="650.57" y2="118.37"/><path class="cls-3" d="M667.22,123.67l.4-.6a1.59,1.59,0,0,0-1.4-2.64h-3.55v8.27h3.43c3,0,3.92-3.56,1.13-5m-2.05,3.82h-.58v-6h1a1,1,0,0,1,.95.92,1,1,0,0,1-.21.6l-.68,1a1.8,1.8,0,0,1-.52,3.5"/><line class="cls-45" x1="685.92" y1="143.54" x2="703.48" y2="143.54"/><line class="cls-45" x1="685.92" y1="140.18" x2="714.23" y2="140.18"/><line class="cls-45" x1="685.92" y1="136.82" x2="714.23" y2="136.82"/><line class="cls-45" x1="685.92" y1="133.46" x2="714.23" y2="133.46"/><line class="cls-45" x1="685.92" y1="130.09" x2="714.23" y2="130.09"/><line class="cls-45" x1="685.92" y1="126.73" x2="714.23" y2="126.73"/><line class="cls-45" x1="685.92" y1="123.37" x2="714.23" y2="123.37"/><line class="cls-45" x1="685.92" y1="120.01" x2="714.23" y2="120.01"/><polygon class="cls-46" points="704.22 101.51 723.62 101.51 723.74 151.74 653.86 151.68 704.22 101.51"/></g><path class="cls-28" d="M685,154.5a2.68,2.68,0,1,1-2.68-2.72A2.7,2.7,0,0,1,685,154.5"/><g class="cls-29"><rect class="cls-30" x="675.83" y="159.43" width="12.94" height="2.55"/><rect class="cls-1" x="675.83" y="159.43" width="12.94" height="2.55"/></g><circle id="_Trazado_6" data-name="&lt;Trazado&gt;" class="cls-47" cx="49.93" cy="257.77" r="42.47"/><path class="cls-13" d="M24.75,236.13s1.1-11.12,13.06-9a14,14,0,0,1,25,3.47,9.64,9.64,0,0,1,4.87-1.32c4.35,0,7.83,4,7.83,6.81Z"/><path class="cls-48" d="M55.6,267.75q0,.16,0,.33"/><rect class="cls-49" x="45.84" y="293.03" width="8.63" height="6.56"/><rect class="cls-49" x="38.16" y="299.05" width="24" height="1.64"/><rect class="cls-26" x="21.44" y="256.84" width="57.43" height="38.66" rx="1.92" ry="1.92"/><rect class="cls-49" x="21.44" y="255.68" width="57.43" height="38.66" rx="1.92" ry="1.92"/><path class="cls-27" d="M77,287.9a1.63,1.63,0,0,1-1.62,1.64H24.95a1.63,1.63,0,0,1-1.62-1.64V259.5a1.63,1.63,0,0,1,1.62-1.64H75.37A1.63,1.63,0,0,1,77,259.5Z"/><path class="cls-28" d="M27.19,262.12h0l-.34.18-.05-.2.43-.23h.23v2h-.26Z"/><path class="cls-28" d="M29.5,262.84c0,.67-.25,1-.68,1s-.64-.36-.65-1,.28-1,.68-1S29.5,262.21,29.5,262.84Zm-1.07,0c0,.51.16.8.4.8s.4-.32.4-.82-.12-.8-.4-.8S28.44,262.33,28.44,262.87Z"/><path class="cls-28" d="M31.08,262.84c0,.67-.25,1-.68,1s-.64-.36-.65-1,.28-1,.68-1S31.08,262.21,31.08,262.84Zm-1.07,0c0,.51.16.8.4.8s.4-.32.4-.82-.12-.8-.4-.8S30,262.33,30,262.87Z"/><path class="cls-28" d="M31.94,262.12h0l-.34.18-.05-.2.43-.23h.23v2h-.26Z"/><path class="cls-28" d="M34.24,262.84c0,.67-.25,1-.68,1s-.64-.36-.65-1,.28-1,.68-1S34.24,262.21,34.24,262.84Zm-1.07,0c0,.51.16.8.4.8s.4-.32.4-.82-.12-.8-.4-.8S33.18,262.33,33.18,262.87Z"/><path class="cls-28" d="M35.1,262.12h0l-.34.18-.05-.2.43-.23h.23v2H35.1Z"/><path class="cls-28" d="M36.68,262.12h0l-.34.18-.05-.2.43-.23h.23v2h-.26Z"/><path class="cls-28" d="M39,262.84c0,.67-.25,1-.68,1s-.64-.36-.65-1,.28-1,.68-1S39,262.21,39,262.84Zm-1.07,0c0,.51.16.8.4.8s.4-.32.4-.82-.12-.8-.4-.8S37.92,262.33,37.92,262.87Z"/><path class="cls-28" d="M40.57,262.84c0,.67-.25,1-.68,1s-.64-.36-.65-1,.28-1,.68-1S40.57,262.21,40.57,262.84Zm-1.07,0c0,.51.16.8.4.8s.4-.32.4-.82-.12-.8-.4-.8S39.5,262.33,39.5,262.87Z"/><path class="cls-28" d="M41.42,262.12h0l-.34.18-.05-.2.43-.23h.23v2h-.26Z"/><path class="cls-28" d="M43.73,262.84c0,.67-.25,1-.68,1s-.64-.36-.65-1,.28-1,.68-1S43.73,262.21,43.73,262.84Zm-1.07,0c0,.51.16.8.4.8s.4-.32.4-.82-.12-.8-.4-.8S42.66,262.33,42.66,262.87Z"/><path class="cls-28" d="M44.58,262.12h0l-.34.18-.05-.2.43-.23h.23v2h-.26Z"/><path class="cls-28" d="M46.89,262.84c0,.67-.25,1-.68,1s-.64-.36-.65-1,.28-1,.68-1S46.89,262.21,46.89,262.84Zm-1.07,0c0,.51.16.8.4.8s.4-.32.4-.82-.12-.8-.4-.8S45.83,262.33,45.83,262.87Z"/><path class="cls-28" d="M47.75,262.12h0l-.34.18-.05-.2.43-.23H48v2h-.26Z"/><path class="cls-28" d="M50.06,262.84c0,.67-.25,1-.68,1s-.64-.36-.65-1,.28-1,.68-1S50.06,262.21,50.06,262.84Zm-1.07,0c0,.51.16.8.4.8s.4-.32.4-.82-.12-.8-.4-.8S49,262.33,49,262.87Z"/><path class="cls-28" d="M51.64,262.84c0,.67-.25,1-.68,1s-.64-.36-.65-1,.28-1,.68-1S51.64,262.21,51.64,262.84Zm-1.07,0c0,.51.16.8.4.8s.4-.32.4-.82-.12-.8-.4-.8S50.57,262.33,50.57,262.87Z"/><path class="cls-28" d="M52.49,262.12h0l-.34.18-.05-.2.43-.23h.23v2h-.26Z"/><path class="cls-28" d="M54.8,262.84c0,.67-.25,1-.68,1s-.64-.36-.65-1,.28-1,.68-1S54.8,262.21,54.8,262.84Zm-1.07,0c0,.51.16.8.4.8s.4-.32.4-.82-.12-.8-.4-.8S53.73,262.33,53.73,262.87Z"/><path class="cls-28" d="M55.65,262.12h0l-.34.18-.05-.2.43-.23h.23v2h-.26Z"/><path class="cls-28" d="M58,262.84c0,.67-.25,1-.68,1s-.64-.36-.65-1,.28-1,.68-1S58,262.21,58,262.84Zm-1.07,0c0,.51.16.8.4.8s.4-.32.4-.82-.12-.8-.4-.8S56.89,262.33,56.89,262.87Z"/><path class="cls-28" d="M58.81,262.12h0l-.34.18-.05-.2.43-.23h.23v2h-.26Z"/><path class="cls-28" d="M61.12,262.84c0,.67-.25,1-.68,1s-.64-.36-.65-1,.28-1,.68-1S61.12,262.21,61.12,262.84Zm-1.07,0c0,.51.16.8.4.8s.4-.32.4-.82-.12-.8-.4-.8S60.06,262.33,60.06,262.87Z"/><path class="cls-28" d="M62.7,262.84c0,.67-.25,1-.68,1s-.64-.36-.65-1,.28-1,.68-1S62.7,262.21,62.7,262.84Zm-1.07,0c0,.51.16.8.4.8s.4-.32.4-.82-.12-.8-.4-.8S61.64,262.33,61.64,262.87Z"/><path class="cls-28" d="M63.56,262.12h0l-.34.18-.05-.2.43-.23h.23v2h-.26Z"/><path class="cls-28" d="M65.87,262.84c0,.67-.25,1-.68,1s-.64-.36-.65-1,.28-1,.68-1S65.87,262.21,65.87,262.84Zm-1.07,0c0,.51.16.8.4.8s.4-.32.4-.82-.12-.8-.4-.8S64.8,262.33,64.8,262.87Z"/><path class="cls-28" d="M66.72,262.12h0l-.34.18-.05-.2.43-.23H67v2h-.26Z"/><path class="cls-28" d="M69,262.84c0,.67-.25,1-.68,1s-.64-.36-.65-1,.28-1,.68-1S69,262.21,69,262.84Zm-1.07,0c0,.51.16.8.4.8s.4-.32.4-.82-.12-.8-.4-.8S68,262.33,68,262.87Z"/><path class="cls-28" d="M69.88,262.12h0l-.34.18-.05-.2.43-.23h.23v2h-.26Z"/><path class="cls-28" d="M72.19,262.84c0,.67-.25,1-.68,1s-.64-.36-.65-1,.28-1,.68-1S72.19,262.21,72.19,262.84Zm-1.07,0c0,.51.16.8.4.8s.4-.32.4-.82-.12-.8-.4-.8S71.12,262.33,71.12,262.87Z"/><path class="cls-28" d="M73,262.12h0l-.34.18-.05-.2.43-.23h.23v2H73Z"/><path class="cls-28" d="M27.92,266.46c0,.67-.25,1-.68,1s-.64-.36-.65-1,.28-1,.68-1S27.92,265.84,27.92,266.46Zm-1.07,0c0,.51.16.8.4.8s.4-.32.4-.82-.12-.8-.4-.8S26.85,266,26.85,266.49Z"/><path class="cls-28" d="M28.77,265.75h0l-.34.18-.05-.2.43-.23H29v2h-.26Z"/><path class="cls-28" d="M30.35,265.75h0l-.34.18-.05-.2.43-.23h.23v2h-.26Z"/><path class="cls-28" d="M32.66,266.46c0,.67-.25,1-.68,1s-.64-.36-.65-1,.28-1,.68-1S32.66,265.84,32.66,266.46Zm-1.07,0c0,.51.16.8.4.8s.4-.32.4-.82-.12-.8-.4-.8S31.6,266,31.6,266.49Z"/><path class="cls-28" d="M34.24,266.46c0,.67-.25,1-.68,1s-.64-.36-.65-1,.28-1,.68-1S34.24,265.84,34.24,266.46Zm-1.07,0c0,.51.16.8.4.8s.4-.32.4-.82-.12-.8-.4-.8S33.18,266,33.18,266.49Z"/><path class="cls-28" d="M35.1,265.75h0l-.34.18-.05-.2.43-.23h.23v2H35.1Z"/><path class="cls-28" d="M37.41,266.46c0,.67-.25,1-.68,1s-.64-.36-.65-1,.28-1,.68-1S37.41,265.84,37.41,266.46Zm-1.07,0c0,.51.16.8.4.8s.4-.32.4-.82-.12-.8-.4-.8S36.34,266,36.34,266.49Z"/><path class="cls-28" d="M38.26,265.75h0l-.34.18-.05-.2.43-.23h.23v2h-.26Z"/><path class="cls-28" d="M40.57,266.46c0,.67-.25,1-.68,1s-.64-.36-.65-1,.28-1,.68-1S40.57,265.84,40.57,266.46Zm-1.07,0c0,.51.16.8.4.8s.4-.32.4-.82-.12-.8-.4-.8S39.5,266,39.5,266.49Z"/><path class="cls-28" d="M41.42,265.75h0l-.34.18-.05-.2.43-.23h.23v2h-.26Z"/><path class="cls-28" d="M43.73,266.46c0,.67-.25,1-.68,1s-.64-.36-.65-1,.28-1,.68-1S43.73,265.84,43.73,266.46Zm-1.07,0c0,.51.16.8.4.8s.4-.32.4-.82-.12-.8-.4-.8S42.66,266,42.66,266.49Z"/><path class="cls-28" d="M45.31,266.46c0,.67-.25,1-.68,1s-.64-.36-.65-1,.28-1,.68-1S45.31,265.84,45.31,266.46Zm-1.07,0c0,.51.16.8.4.8s.4-.32.4-.82-.12-.8-.4-.8S44.25,266,44.25,266.49Z"/><path class="cls-28" d="M46.17,265.75h0l-.34.18-.05-.2.43-.23h.23v2h-.26Z"/><path class="cls-28" d="M48.47,266.46c0,.67-.25,1-.68,1s-.64-.36-.65-1,.28-1,.68-1S48.47,265.84,48.47,266.46Zm-1.07,0c0,.51.16.8.4.8s.4-.32.4-.82-.12-.8-.4-.8S47.41,266,47.41,266.49Z"/><path class="cls-28" d="M49.33,265.75h0l-.34.18-.05-.2.43-.23h.23v2h-.26Z"/><path class="cls-28" d="M51.64,266.46c0,.67-.25,1-.68,1s-.64-.36-.65-1,.28-1,.68-1S51.64,265.84,51.64,266.46Zm-1.07,0c0,.51.16.8.4.8s.4-.32.4-.82-.12-.8-.4-.8S50.57,266,50.57,266.49Z"/><path class="cls-28" d="M52.49,265.75h0l-.34.18-.05-.2.43-.23h.23v2h-.26Z"/><path class="cls-28" d="M54.8,266.46c0,.67-.25,1-.68,1s-.64-.36-.65-1,.28-1,.68-1S54.8,265.84,54.8,266.46Zm-1.07,0c0,.51.16.8.4.8s.4-.32.4-.82-.12-.8-.4-.8S53.73,266,53.73,266.49Z"/><path class="cls-28" d="M56.38,266.46c0,.67-.25,1-.68,1s-.64-.36-.65-1,.28-1,.68-1S56.38,265.84,56.38,266.46Zm-1.07,0c0,.51.16.8.4.8s.4-.32.4-.82-.12-.8-.4-.8S55.31,266,55.31,266.49Z"/><path class="cls-28" d="M57.23,265.75h0l-.34.18-.05-.2.43-.23h.23v2h-.26Z"/><path class="cls-28" d="M59.54,266.46c0,.67-.25,1-.68,1s-.64-.36-.65-1,.28-1,.68-1S59.54,265.84,59.54,266.46Zm-1.07,0c0,.51.16.8.4.8s.4-.32.4-.82-.12-.8-.4-.8S58.48,266,58.48,266.49Z"/><path class="cls-28" d="M60.39,265.75h0l-.34.18-.05-.2.43-.23h.23v2h-.26Z"/><path class="cls-28" d="M62.7,266.46c0,.67-.25,1-.68,1s-.64-.36-.65-1,.28-1,.68-1S62.7,265.84,62.7,266.46Zm-1.07,0c0,.51.16.8.4.8s.4-.32.4-.82-.12-.8-.4-.8S61.64,266,61.64,266.49Z"/><path class="cls-28" d="M63.56,265.75h0l-.34.18-.05-.2.43-.23h.23v2h-.26Z"/><path class="cls-28" d="M65.87,266.46c0,.67-.25,1-.68,1s-.64-.36-.65-1,.28-1,.68-1S65.87,265.84,65.87,266.46Zm-1.07,0c0,.51.16.8.4.8s.4-.32.4-.82-.12-.8-.4-.8S64.8,266,64.8,266.49Z"/><path class="cls-28" d="M67.45,266.46c0,.67-.25,1-.68,1s-.64-.36-.65-1,.28-1,.68-1S67.45,265.84,67.45,266.46Zm-1.07,0c0,.51.16.8.4.8s.4-.32.4-.82-.12-.8-.4-.8S66.38,266,66.38,266.49Z"/><path class="cls-28" d="M68.3,265.75h0l-.34.18-.05-.2.43-.23h.23v2H68.3Z"/><path class="cls-28" d="M70.61,266.46c0,.67-.25,1-.68,1s-.64-.36-.65-1,.28-1,.68-1S70.61,265.84,70.61,266.46Zm-1.07,0c0,.51.16.8.4.8s.4-.32.4-.82-.12-.8-.4-.8S69.54,266,69.54,266.49Z"/><path class="cls-28" d="M71.46,265.75h0l-.34.18-.05-.2.43-.23h.23v2h-.26Z"/><path class="cls-28" d="M73,265.75h0l-.34.18-.05-.2.43-.23h.23v2H73Z"/><path class="cls-28" d="M27.92,270.09c0,.67-.25,1-.68,1s-.64-.36-.65-1,.28-1,.68-1S27.92,269.46,27.92,270.09Zm-1.07,0c0,.51.16.8.4.8s.4-.32.4-.82-.12-.8-.4-.8S26.85,269.58,26.85,270.12Z"/><path class="cls-28" d="M29.5,270.09c0,.67-.25,1-.68,1s-.64-.36-.65-1,.28-1,.68-1S29.5,269.46,29.5,270.09Zm-1.07,0c0,.51.16.8.4.8s.4-.32.4-.82-.12-.8-.4-.8S28.44,269.58,28.44,270.12Z"/><path class="cls-28" d="M30.35,269.37h0l-.34.18-.05-.2.43-.23h.23v2h-.26Z"/><path class="cls-28" d="M32.66,270.09c0,.67-.25,1-.68,1s-.64-.36-.65-1,.28-1,.68-1S32.66,269.46,32.66,270.09Zm-1.07,0c0,.51.16.8.4.8s.4-.32.4-.82-.12-.8-.4-.8S31.6,269.58,31.6,270.12Z"/><path class="cls-28" d="M33.52,269.37h0l-.34.18-.05-.2.43-.23h.23v2h-.26Z"/><path class="cls-28" d="M35.83,270.09c0,.67-.25,1-.68,1s-.64-.36-.65-1,.28-1,.68-1S35.83,269.46,35.83,270.09Zm-1.07,0c0,.51.16.8.4.8s.4-.32.4-.82-.12-.8-.4-.8S34.76,269.58,34.76,270.12Z"/><path class="cls-28" d="M36.68,269.37h0l-.34.18-.05-.2.43-.23h.23v2h-.26Z"/><path class="cls-28" d="M39,270.09c0,.67-.25,1-.68,1s-.64-.36-.65-1,.28-1,.68-1S39,269.46,39,270.09Zm-1.07,0c0,.51.16.8.4.8s.4-.32.4-.82-.12-.8-.4-.8S37.92,269.58,37.92,270.12Z"/><path class="cls-28" d="M40.57,270.09c0,.67-.25,1-.68,1s-.64-.36-.65-1,.28-1,.68-1S40.57,269.46,40.57,270.09Zm-1.07,0c0,.51.16.8.4.8s.4-.32.4-.82-.12-.8-.4-.8S39.5,269.58,39.5,270.12Z"/><path class="cls-28" d="M41.42,269.37h0l-.34.18-.05-.2.43-.23h.23v2h-.26Z"/><path class="cls-28" d="M43.73,270.09c0,.67-.25,1-.68,1s-.64-.36-.65-1,.28-1,.68-1S43.73,269.46,43.73,270.09Zm-1.07,0c0,.51.16.8.4.8s.4-.32.4-.82-.12-.8-.4-.8S42.66,269.58,42.66,270.12Z"/><path class="cls-28" d="M44.58,269.37h0l-.34.18-.05-.2.43-.23h.23v2h-.26Z"/><path class="cls-28" d="M46.89,270.09c0,.67-.25,1-.68,1s-.64-.36-.65-1,.28-1,.68-1S46.89,269.46,46.89,270.09Zm-1.07,0c0,.51.16.8.4.8s.4-.32.4-.82-.12-.8-.4-.8S45.83,269.58,45.83,270.12Z"/><path class="cls-28" d="M47.75,269.37h0l-.34.18-.05-.2.43-.23H48v2h-.26Z"/><path class="cls-28" d="M50.06,270.09c0,.67-.25,1-.68,1s-.64-.36-.65-1,.28-1,.68-1S50.06,269.46,50.06,270.09Zm-1.07,0c0,.51.16.8.4.8s.4-.32.4-.82-.12-.8-.4-.8S49,269.58,49,270.12Z"/><path class="cls-28" d="M51.64,270.09c0,.67-.25,1-.68,1s-.64-.36-.65-1,.28-1,.68-1S51.64,269.46,51.64,270.09Zm-1.07,0c0,.51.16.8.4.8s.4-.32.4-.82-.12-.8-.4-.8S50.57,269.58,50.57,270.12Z"/><path class="cls-28" d="M52.49,269.37h0l-.34.18-.05-.2.43-.23h.23v2h-.26Z"/><path class="cls-28" d="M54.8,270.09c0,.67-.25,1-.68,1s-.64-.36-.65-1,.28-1,.68-1S54.8,269.46,54.8,270.09Zm-1.07,0c0,.51.16.8.4.8s.4-.32.4-.82-.12-.8-.4-.8S53.73,269.58,53.73,270.12Z"/><path class="cls-28" d="M55.65,269.37h0l-.34.18-.05-.2.43-.23h.23v2h-.26Z"/><path class="cls-28" d="M58,270.09c0,.67-.25,1-.68,1s-.64-.36-.65-1,.28-1,.68-1S58,269.46,58,270.09Zm-1.07,0c0,.51.16.8.4.8s.4-.32.4-.82-.12-.8-.4-.8S56.89,269.58,56.89,270.12Z"/><path class="cls-28" d="M58.81,269.37h0l-.34.18-.05-.2.43-.23h.23v2h-.26Z"/><path class="cls-28" d="M61.12,270.09c0,.67-.25,1-.68,1s-.64-.36-.65-1,.28-1,.68-1S61.12,269.46,61.12,270.09Zm-1.07,0c0,.51.16.8.4.8s.4-.32.4-.82-.12-.8-.4-.8S60.06,269.58,60.06,270.12Z"/><path class="cls-28" d="M62.7,270.09c0,.67-.25,1-.68,1s-.64-.36-.65-1,.28-1,.68-1S62.7,269.46,62.7,270.09Zm-1.07,0c0,.51.16.8.4.8s.4-.32.4-.82-.12-.8-.4-.8S61.64,269.58,61.64,270.12Z"/><path class="cls-28" d="M63.56,269.37h0l-.34.18-.05-.2.43-.23h.23v2h-.26Z"/><path class="cls-28" d="M65.87,270.09c0,.67-.25,1-.68,1s-.64-.36-.65-1,.28-1,.68-1S65.87,269.46,65.87,270.09Zm-1.07,0c0,.51.16.8.4.8s.4-.32.4-.82-.12-.8-.4-.8S64.8,269.58,64.8,270.12Z"/><path class="cls-28" d="M66.72,269.37h0l-.34.18-.05-.2.43-.23H67v2h-.26Z"/><path class="cls-28" d="M68.3,269.37h0l-.34.18-.05-.2.43-.23h.23v2H68.3Z"/><path class="cls-28" d="M70.61,270.09c0,.67-.25,1-.68,1s-.64-.36-.65-1,.28-1,.68-1S70.61,269.46,70.61,270.09Zm-1.07,0c0,.51.16.8.4.8s.4-.32.4-.82-.12-.8-.4-.8S69.54,269.58,69.54,270.12Z"/><path class="cls-28" d="M72.19,270.09c0,.67-.25,1-.68,1s-.64-.36-.65-1,.28-1,.68-1S72.19,269.46,72.19,270.09Zm-1.07,0c0,.51.16.8.4.8s.4-.32.4-.82-.12-.8-.4-.8S71.12,269.58,71.12,270.12Z"/><path class="cls-28" d="M73,269.37h0l-.34.18-.05-.2.43-.23h.23v2H73Z"/><path class="cls-28" d="M27.92,273.71c0,.67-.25,1-.68,1s-.64-.36-.65-1,.28-1,.68-1S27.92,273.09,27.92,273.71Zm-1.07,0c0,.51.16.8.4.8s.4-.32.4-.82-.12-.8-.4-.8S26.85,273.21,26.85,273.74Z"/><path class="cls-28" d="M28.77,273h0l-.34.18-.05-.2.43-.23H29v2h-.26Z"/><path class="cls-28" d="M31.08,273.71c0,.67-.25,1-.68,1s-.64-.36-.65-1,.28-1,.68-1S31.08,273.09,31.08,273.71Zm-1.07,0c0,.51.16.8.4.8s.4-.32.4-.82-.12-.8-.4-.8S30,273.21,30,273.74Z"/><path class="cls-28" d="M31.94,273h0l-.34.18-.05-.2.43-.23h.23v2h-.26Z"/><path class="cls-28" d="M34.24,273.71c0,.67-.25,1-.68,1s-.64-.36-.65-1,.28-1,.68-1S34.24,273.09,34.24,273.71Zm-1.07,0c0,.51.16.8.4.8s.4-.32.4-.82-.12-.8-.4-.8S33.18,273.21,33.18,273.74Z"/><path class="cls-28" d="M35.83,273.71c0,.67-.25,1-.68,1s-.64-.36-.65-1,.28-1,.68-1S35.83,273.09,35.83,273.71Zm-1.07,0c0,.51.16.8.4.8s.4-.32.4-.82-.12-.8-.4-.8S34.76,273.21,34.76,273.74Z"/><path class="cls-28" d="M36.68,273h0l-.34.18-.05-.2.43-.23h.23v2h-.26Z"/><path class="cls-28" d="M39,273.71c0,.67-.25,1-.68,1s-.64-.36-.65-1,.28-1,.68-1S39,273.09,39,273.71Zm-1.07,0c0,.51.16.8.4.8s.4-.32.4-.82-.12-.8-.4-.8S37.92,273.21,37.92,273.74Z"/><path class="cls-28" d="M39.84,273h0l-.34.18-.05-.2.43-.23h.23v2h-.26Z"/><path class="cls-28" d="M42.15,273.71c0,.67-.25,1-.68,1s-.64-.36-.65-1,.28-1,.68-1S42.15,273.09,42.15,273.71Zm-1.07,0c0,.51.16.8.4.8s.4-.32.4-.82-.12-.8-.4-.8S41.08,273.21,41.08,273.74Z"/><path class="cls-28" d="M43,273h0l-.34.18-.05-.2.43-.23h.23v2H43Z"/><path class="cls-28" d="M45.31,273.71c0,.67-.25,1-.68,1s-.64-.36-.65-1,.28-1,.68-1S45.31,273.09,45.31,273.71Zm-1.07,0c0,.51.16.8.4.8s.4-.32.4-.82-.12-.8-.4-.8S44.25,273.21,44.25,273.74Z"/><path class="cls-28" d="M46.89,273.71c0,.67-.25,1-.68,1s-.64-.36-.65-1,.28-1,.68-1S46.89,273.09,46.89,273.71Zm-1.07,0c0,.51.16.8.4.8s.4-.32.4-.82-.12-.8-.4-.8S45.83,273.21,45.83,273.74Z"/><path class="cls-28" d="M47.75,273h0l-.34.18-.05-.2.43-.23H48v2h-.26Z"/><path class="cls-28" d="M50.06,273.71c0,.67-.25,1-.68,1s-.64-.36-.65-1,.28-1,.68-1S50.06,273.09,50.06,273.71Zm-1.07,0c0,.51.16.8.4.8s.4-.32.4-.82-.12-.8-.4-.8S49,273.21,49,273.74Z"/><path class="cls-28" d="M50.91,273h0l-.34.18-.05-.2.43-.23h.23v2h-.26Z"/><path class="cls-28" d="M53.22,273.71c0,.67-.25,1-.68,1s-.64-.36-.65-1,.28-1,.68-1S53.22,273.09,53.22,273.71Zm-1.07,0c0,.51.16.8.4.8s.4-.32.4-.82-.12-.8-.4-.8S52.15,273.21,52.15,273.74Z"/><path class="cls-28" d="M54.07,273h0l-.34.18-.05-.2.43-.23h.23v2h-.26Z"/><path class="cls-28" d="M56.38,273.71c0,.67-.25,1-.68,1s-.64-.36-.65-1,.28-1,.68-1S56.38,273.09,56.38,273.71Zm-1.07,0c0,.51.16.8.4.8s.4-.32.4-.82-.12-.8-.4-.8S55.31,273.21,55.31,273.74Z"/><path class="cls-28" d="M58,273.71c0,.67-.25,1-.68,1s-.64-.36-.65-1,.28-1,.68-1S58,273.09,58,273.71Zm-1.07,0c0,.51.16.8.4.8s.4-.32.4-.82-.12-.8-.4-.8S56.89,273.21,56.89,273.74Z"/><path class="cls-28" d="M58.81,273h0l-.34.18-.05-.2.43-.23h.23v2h-.26Z"/><path class="cls-28" d="M61.12,273.71c0,.67-.25,1-.68,1s-.64-.36-.65-1,.28-1,.68-1S61.12,273.09,61.12,273.71Zm-1.07,0c0,.51.16.8.4.8s.4-.32.4-.82-.12-.8-.4-.8S60.06,273.21,60.06,273.74Z"/><path class="cls-28" d="M62,273h0l-.34.18-.05-.2.43-.23h.23v2H62Z"/><path class="cls-28" d="M63.56,273h0l-.34.18-.05-.2.43-.23h.23v2h-.26Z"/><path class="cls-28" d="M65.87,273.71c0,.67-.25,1-.68,1s-.64-.36-.65-1,.28-1,.68-1S65.87,273.09,65.87,273.71Zm-1.07,0c0,.51.16.8.4.8s.4-.32.4-.82-.12-.8-.4-.8S64.8,273.21,64.8,273.74Z"/><path class="cls-28" d="M67.45,273.71c0,.67-.25,1-.68,1s-.64-.36-.65-1,.28-1,.68-1S67.45,273.09,67.45,273.71Zm-1.07,0c0,.51.16.8.4.8s.4-.32.4-.82-.12-.8-.4-.8S66.38,273.21,66.38,273.74Z"/><path class="cls-28" d="M68.3,273h0l-.34.18-.05-.2.43-.23h.23v2H68.3Z"/><path class="cls-28" d="M70.61,273.71c0,.67-.25,1-.68,1s-.64-.36-.65-1,.28-1,.68-1S70.61,273.09,70.61,273.71Zm-1.07,0c0,.51.16.8.4.8s.4-.32.4-.82-.12-.8-.4-.8S69.54,273.21,69.54,273.74Z"/><path class="cls-28" d="M71.46,273h0l-.34.18-.05-.2.43-.23h.23v2h-.26Z"/><path class="cls-28" d="M73.77,273.71c0,.67-.25,1-.68,1s-.64-.36-.65-1,.28-1,.68-1S73.77,273.09,73.77,273.71Zm-1.07,0c0,.51.16.8.4.8s.4-.32.4-.82-.12-.8-.4-.8S72.71,273.21,72.71,273.74Z"/><path class="cls-28" d="M27.19,276.63h0l-.34.18-.05-.2.43-.23h.23v2h-.26Z"/><path class="cls-28" d="M29.5,277.34c0,.67-.25,1-.68,1s-.64-.36-.65-1,.28-1,.68-1S29.5,276.71,29.5,277.34Zm-1.07,0c0,.51.16.8.4.8s.4-.32.4-.82-.12-.8-.4-.8S28.44,276.83,28.44,277.37Z"/><path class="cls-28" d="M31.08,277.34c0,.67-.25,1-.68,1s-.64-.36-.65-1,.28-1,.68-1S31.08,276.71,31.08,277.34Zm-1.07,0c0,.51.16.8.4.8s.4-.32.4-.82-.12-.8-.4-.8S30,276.83,30,277.37Z"/><path class="cls-28" d="M31.94,276.63h0l-.34.18-.05-.2.43-.23h.23v2h-.26Z"/><path class="cls-28" d="M34.24,277.34c0,.67-.25,1-.68,1s-.64-.36-.65-1,.28-1,.68-1S34.24,276.71,34.24,277.34Zm-1.07,0c0,.51.16.8.4.8s.4-.32.4-.82-.12-.8-.4-.8S33.18,276.83,33.18,277.37Z"/><path class="cls-28" d="M35.1,276.63h0l-.34.18-.05-.2.43-.23h.23v2H35.1Z"/><path class="cls-28" d="M37.41,277.34c0,.67-.25,1-.68,1s-.64-.36-.65-1,.28-1,.68-1S37.41,276.71,37.41,277.34Zm-1.07,0c0,.51.16.8.4.8s.4-.32.4-.82-.12-.8-.4-.8S36.34,276.83,36.34,277.37Z"/><path class="cls-28" d="M38.26,276.63h0l-.34.18-.05-.2.43-.23h.23v2h-.26Z"/><path class="cls-28" d="M40.57,277.34c0,.67-.25,1-.68,1s-.64-.36-.65-1,.28-1,.68-1S40.57,276.71,40.57,277.34Zm-1.07,0c0,.51.16.8.4.8s.4-.32.4-.82-.12-.8-.4-.8S39.5,276.83,39.5,277.37Z"/><path class="cls-28" d="M42.15,277.34c0,.67-.25,1-.68,1s-.64-.36-.65-1,.28-1,.68-1S42.15,276.71,42.15,277.34Zm-1.07,0c0,.51.16.8.4.8s.4-.32.4-.82-.12-.8-.4-.8S41.08,276.83,41.08,277.37Z"/><path class="cls-28" d="M43,276.63h0l-.34.18-.05-.2.43-.23h.23v2H43Z"/><path class="cls-28" d="M45.31,277.34c0,.67-.25,1-.68,1s-.64-.36-.65-1,.28-1,.68-1S45.31,276.71,45.31,277.34Zm-1.07,0c0,.51.16.8.4.8s.4-.32.4-.82-.12-.8-.4-.8S44.25,276.83,44.25,277.37Z"/><path class="cls-28" d="M46.17,276.63h0l-.34.18-.05-.2.43-.23h.23v2h-.26Z"/><path class="cls-28" d="M48.47,277.34c0,.67-.25,1-.68,1s-.64-.36-.65-1,.28-1,.68-1S48.47,276.71,48.47,277.34Zm-1.07,0c0,.51.16.8.4.8s.4-.32.4-.82-.12-.8-.4-.8S47.41,276.83,47.41,277.37Z"/><path class="cls-28" d="M49.33,276.63h0l-.34.18-.05-.2.43-.23h.23v2h-.26Z"/><path class="cls-28" d="M51.64,277.34c0,.67-.25,1-.68,1s-.64-.36-.65-1,.28-1,.68-1S51.64,276.71,51.64,277.34Zm-1.07,0c0,.51.16.8.4.8s.4-.32.4-.82-.12-.8-.4-.8S50.57,276.83,50.57,277.37Z"/><path class="cls-28" d="M53.22,277.34c0,.67-.25,1-.68,1s-.64-.36-.65-1,.28-1,.68-1S53.22,276.71,53.22,277.34Zm-1.07,0c0,.51.16.8.4.8s.4-.32.4-.82-.12-.8-.4-.8S52.15,276.83,52.15,277.37Z"/><path class="cls-28" d="M54.07,276.63h0l-.34.18-.05-.2.43-.23h.23v2h-.26Z"/><path class="cls-28" d="M56.38,277.34c0,.67-.25,1-.68,1s-.64-.36-.65-1,.28-1,.68-1S56.38,276.71,56.38,277.34Zm-1.07,0c0,.51.16.8.4.8s.4-.32.4-.82-.12-.8-.4-.8S55.31,276.83,55.31,277.37Z"/><path class="cls-28" d="M57.23,276.63h0l-.34.18-.05-.2.43-.23h.23v2h-.26Z"/><path class="cls-28" d="M58.81,276.63h0l-.34.18-.05-.2.43-.23h.23v2h-.26Z"/><path class="cls-28" d="M61.12,277.34c0,.67-.25,1-.68,1s-.64-.36-.65-1,.28-1,.68-1S61.12,276.71,61.12,277.34Zm-1.07,0c0,.51.16.8.4.8s.4-.32.4-.82-.12-.8-.4-.8S60.06,276.83,60.06,277.37Z"/><path class="cls-28" d="M62.7,277.34c0,.67-.25,1-.68,1s-.64-.36-.65-1,.28-1,.68-1S62.7,276.71,62.7,277.34Zm-1.07,0c0,.51.16.8.4.8s.4-.32.4-.82-.12-.8-.4-.8S61.64,276.83,61.64,277.37Z"/><path class="cls-28" d="M63.56,276.63h0l-.34.18-.05-.2.43-.23h.23v2h-.26Z"/><path class="cls-28" d="M65.87,277.34c0,.67-.25,1-.68,1s-.64-.36-.65-1,.28-1,.68-1S65.87,276.71,65.87,277.34Zm-1.07,0c0,.51.16.8.4.8s.4-.32.4-.82-.12-.8-.4-.8S64.8,276.83,64.8,277.37Z"/><path class="cls-28" d="M66.72,276.63h0l-.34.18-.05-.2.43-.23H67v2h-.26Z"/><path class="cls-28" d="M69,277.34c0,.67-.25,1-.68,1s-.64-.36-.65-1,.28-1,.68-1S69,276.71,69,277.34Zm-1.07,0c0,.51.16.8.4.8s.4-.32.4-.82-.12-.8-.4-.8S68,276.83,68,277.37Z"/><path class="cls-28" d="M69.88,276.63h0l-.34.18-.05-.2.43-.23h.23v2h-.26Z"/><path class="cls-28" d="M72.19,277.34c0,.67-.25,1-.68,1s-.64-.36-.65-1,.28-1,.68-1S72.19,276.71,72.19,277.34Zm-1.07,0c0,.51.16.8.4.8s.4-.32.4-.82-.12-.8-.4-.8S71.12,276.83,71.12,277.37Z"/><path class="cls-28" d="M73.77,277.34c0,.67-.25,1-.68,1s-.64-.36-.65-1,.28-1,.68-1S73.77,276.71,73.77,277.34Zm-1.07,0c0,.51.16.8.4.8s.4-.32.4-.82-.12-.8-.4-.8S72.71,276.83,72.71,277.37Z"/><path class="cls-28" d="M27.19,280.25h0l-.34.18-.05-.2.43-.23h.23v2h-.26Z"/><path class="cls-28" d="M29.5,281c0,.67-.25,1-.68,1s-.64-.36-.65-1,.28-1,.68-1S29.5,280.34,29.5,281Zm-1.07,0c0,.51.16.8.4.8s.4-.32.4-.82-.12-.8-.4-.8S28.44,280.46,28.44,281Z"/><path class="cls-28" d="M30.35,280.25h0l-.34.18-.05-.2.43-.23h.23v2h-.26Z"/><path class="cls-28" d="M32.66,281c0,.67-.25,1-.68,1s-.64-.36-.65-1,.28-1,.68-1S32.66,280.34,32.66,281Zm-1.07,0c0,.51.16.8.4.8s.4-.32.4-.82-.12-.8-.4-.8S31.6,280.46,31.6,281Z"/><path class="cls-28" d="M33.52,280.25h0l-.34.18-.05-.2.43-.23h.23v2h-.26Z"/><path class="cls-28" d="M35.83,281c0,.67-.25,1-.68,1s-.64-.36-.65-1,.28-1,.68-1S35.83,280.34,35.83,281Zm-1.07,0c0,.51.16.8.4.8s.4-.32.4-.82-.12-.8-.4-.8S34.76,280.46,34.76,281Z"/><path class="cls-28" d="M37.41,281c0,.67-.25,1-.68,1s-.64-.36-.65-1,.28-1,.68-1S37.41,280.34,37.41,281Zm-1.07,0c0,.51.16.8.4.8s.4-.32.4-.82-.12-.8-.4-.8S36.34,280.46,36.34,281Z"/><path class="cls-28" d="M38.26,280.25h0l-.34.18-.05-.2.43-.23h.23v2h-.26Z"/><path class="cls-28" d="M40.57,281c0,.67-.25,1-.68,1s-.64-.36-.65-1,.28-1,.68-1S40.57,280.34,40.57,281Zm-1.07,0c0,.51.16.8.4.8s.4-.32.4-.82-.12-.8-.4-.8S39.5,280.46,39.5,281Z"/><path class="cls-28" d="M41.42,280.25h0l-.34.18-.05-.2.43-.23h.23v2h-.26Z"/><path class="cls-28" d="M43.73,281c0,.67-.25,1-.68,1s-.64-.36-.65-1,.28-1,.68-1S43.73,280.34,43.73,281Zm-1.07,0c0,.51.16.8.4.8s.4-.32.4-.82-.12-.8-.4-.8S42.66,280.46,42.66,281Z"/><path class="cls-28" d="M44.58,280.25h0l-.34.18-.05-.2.43-.23h.23v2h-.26Z"/><path class="cls-28" d="M46.89,281c0,.67-.25,1-.68,1s-.64-.36-.65-1,.28-1,.68-1S46.89,280.34,46.89,281Zm-1.07,0c0,.51.16.8.4.8s.4-.32.4-.82-.12-.8-.4-.8S45.83,280.46,45.83,281Z"/><path class="cls-28" d="M48.47,281c0,.67-.25,1-.68,1s-.64-.36-.65-1,.28-1,.68-1S48.47,280.34,48.47,281Zm-1.07,0c0,.51.16.8.4.8s.4-.32.4-.82-.12-.8-.4-.8S47.41,280.46,47.41,281Z"/><path class="cls-28" d="M49.33,280.25h0l-.34.18-.05-.2.43-.23h.23v2h-.26Z"/><path class="cls-28" d="M51.64,281c0,.67-.25,1-.68,1s-.64-.36-.65-1,.28-1,.68-1S51.64,280.34,51.64,281Zm-1.07,0c0,.51.16.8.4.8s.4-.32.4-.82-.12-.8-.4-.8S50.57,280.46,50.57,281Z"/><path class="cls-28" d="M52.49,280.25h0l-.34.18-.05-.2.43-.23h.23v2h-.26Z"/><path class="cls-28" d="M54.07,280.25h0l-.34.18-.05-.2.43-.23h.23v2h-.26Z"/><path class="cls-28" d="M56.38,281c0,.67-.25,1-.68,1s-.64-.36-.65-1,.28-1,.68-1S56.38,280.34,56.38,281Zm-1.07,0c0,.51.16.8.4.8s.4-.32.4-.82-.12-.8-.4-.8S55.31,280.46,55.31,281Z"/><path class="cls-28" d="M58,281c0,.67-.25,1-.68,1s-.64-.36-.65-1,.28-1,.68-1S58,280.34,58,281Zm-1.07,0c0,.51.16.8.4.8s.4-.32.4-.82-.12-.8-.4-.8S56.89,280.46,56.89,281Z"/><path class="cls-28" d="M58.81,280.25h0l-.34.18-.05-.2.43-.23h.23v2h-.26Z"/><path class="cls-28" d="M61.12,281c0,.67-.25,1-.68,1s-.64-.36-.65-1,.28-1,.68-1S61.12,280.34,61.12,281Zm-1.07,0c0,.51.16.8.4.8s.4-.32.4-.82-.12-.8-.4-.8S60.06,280.46,60.06,281Z"/><path class="cls-28" d="M62,280.25h0l-.34.18-.05-.2L62,280h.23v2H62Z"/><path class="cls-28" d="M64.28,281c0,.67-.25,1-.68,1s-.64-.36-.65-1,.28-1,.68-1S64.28,280.34,64.28,281Zm-1.07,0c0,.51.16.8.4.8s.4-.32.4-.82-.12-.8-.4-.8S63.22,280.46,63.22,281Z"/><path class="cls-28" d="M65.14,280.25h0l-.34.18-.05-.2.43-.23h.23v2h-.26Z"/><path class="cls-28" d="M67.45,281c0,.67-.25,1-.68,1s-.64-.36-.65-1,.28-1,.68-1S67.45,280.34,67.45,281Zm-1.07,0c0,.51.16.8.4.8s.4-.32.4-.82-.12-.8-.4-.8S66.38,280.46,66.38,281Z"/><path class="cls-28" d="M69,281c0,.67-.25,1-.68,1s-.64-.36-.65-1,.28-1,.68-1S69,280.34,69,281ZM68,281c0,.51.16.8.4.8s.4-.32.4-.82-.12-.8-.4-.8S68,280.46,68,281Z"/><path class="cls-28" d="M69.88,280.25h0l-.34.18-.05-.2.43-.23h.23v2h-.26Z"/><path class="cls-28" d="M72.19,281c0,.67-.25,1-.68,1s-.64-.36-.65-1,.28-1,.68-1S72.19,280.34,72.19,281Zm-1.07,0c0,.51.16.8.4.8s.4-.32.4-.82-.12-.8-.4-.8S71.12,280.46,71.12,281Z"/><path class="cls-28" d="M73,280.25h0l-.34.18-.05-.2.43-.23h.23v2H73Z"/><path class="cls-28" d="M27.92,284.59c0,.67-.25,1-.68,1s-.64-.36-.65-1,.28-1,.68-1S27.92,284,27.92,284.59Zm-1.07,0c0,.51.16.8.4.8s.4-.32.4-.82-.12-.8-.4-.8S26.85,284.09,26.85,284.62Z"/><path class="cls-28" d="M28.77,283.88h0l-.34.18-.05-.2.43-.23H29v2h-.26Z"/><path class="cls-28" d="M31.08,284.59c0,.67-.25,1-.68,1s-.64-.36-.65-1,.28-1,.68-1S31.08,284,31.08,284.59Zm-1.07,0c0,.51.16.8.4.8s.4-.32.4-.82-.12-.8-.4-.8S30,284.09,30,284.62Z"/><path class="cls-28" d="M32.66,284.59c0,.67-.25,1-.68,1s-.64-.36-.65-1,.28-1,.68-1S32.66,284,32.66,284.59Zm-1.07,0c0,.51.16.8.4.8s.4-.32.4-.82-.12-.8-.4-.8S31.6,284.09,31.6,284.62Z"/><path class="cls-28" d="M33.52,283.88h0l-.34.18-.05-.2.43-.23h.23v2h-.26Z"/><path class="cls-28" d="M35.83,284.59c0,.67-.25,1-.68,1s-.64-.36-.65-1,.28-1,.68-1S35.83,284,35.83,284.59Zm-1.07,0c0,.51.16.8.4.8s.4-.32.4-.82-.12-.8-.4-.8S34.76,284.09,34.76,284.62Z"/><path class="cls-28" d="M36.68,283.88h0l-.34.18-.05-.2.43-.23h.23v2h-.26Z"/><path class="cls-28" d="M39,284.59c0,.67-.25,1-.68,1s-.64-.36-.65-1,.28-1,.68-1S39,284,39,284.59Zm-1.07,0c0,.51.16.8.4.8s.4-.32.4-.82-.12-.8-.4-.8S37.92,284.09,37.92,284.62Z"/><path class="cls-28" d="M39.84,283.88h0l-.34.18-.05-.2.43-.23h.23v2h-.26Z"/><path class="cls-28" d="M42.15,284.59c0,.67-.25,1-.68,1s-.64-.36-.65-1,.28-1,.68-1S42.15,284,42.15,284.59Zm-1.07,0c0,.51.16.8.4.8s.4-.32.4-.82-.12-.8-.4-.8S41.08,284.09,41.08,284.62Z"/><path class="cls-28" d="M43,283.88h0l-.34.18-.05-.2.43-.23h.23v2H43Z"/><path class="cls-28" d="M45.31,284.59c0,.67-.25,1-.68,1s-.64-.36-.65-1,.28-1,.68-1S45.31,284,45.31,284.59Zm-1.07,0c0,.51.16.8.4.8s.4-.32.4-.82-.12-.8-.4-.8S44.25,284.09,44.25,284.62Z"/><path class="cls-28" d="M46.17,283.88h0l-.34.18-.05-.2.43-.23h.23v2h-.26Z"/><path class="cls-28" d="M47.75,283.88h0l-.34.18-.05-.2.43-.23H48v2h-.26Z"/><path class="cls-28" d="M50.06,284.59c0,.67-.25,1-.68,1s-.64-.36-.65-1,.28-1,.68-1S50.06,284,50.06,284.59Zm-1.07,0c0,.51.16.8.4.8s.4-.32.4-.82-.12-.8-.4-.8S49,284.09,49,284.62Z"/><path class="cls-28" d="M51.64,284.59c0,.67-.25,1-.68,1s-.64-.36-.65-1,.28-1,.68-1S51.64,284,51.64,284.59Zm-1.07,0c0,.51.16.8.4.8s.4-.32.4-.82-.12-.8-.4-.8S50.57,284.09,50.57,284.62Z"/><path class="cls-28" d="M52.49,283.88h0l-.34.18-.05-.2.43-.23h.23v2h-.26Z"/><path class="cls-28" d="M54.8,284.59c0,.67-.25,1-.68,1s-.64-.36-.65-1,.28-1,.68-1S54.8,284,54.8,284.59Zm-1.07,0c0,.51.16.8.4.8s.4-.32.4-.82-.12-.8-.4-.8S53.73,284.09,53.73,284.62Z"/><path class="cls-28" d="M55.65,283.88h0l-.34.18-.05-.2.43-.23h.23v2h-.26Z"/><path class="cls-28" d="M58,284.59c0,.67-.25,1-.68,1s-.64-.36-.65-1,.28-1,.68-1S58,284,58,284.59Zm-1.07,0c0,.51.16.8.4.8s.4-.32.4-.82-.12-.8-.4-.8S56.89,284.09,56.89,284.62Z"/><path class="cls-28" d="M58.81,283.88h0l-.34.18-.05-.2.43-.23h.23v2h-.26Z"/><path class="cls-28" d="M61.12,284.59c0,.67-.25,1-.68,1s-.64-.36-.65-1,.28-1,.68-1S61.12,284,61.12,284.59Zm-1.07,0c0,.51.16.8.4.8s.4-.32.4-.82-.12-.8-.4-.8S60.06,284.09,60.06,284.62Z"/><path class="cls-28" d="M62.7,284.59c0,.67-.25,1-.68,1s-.64-.36-.65-1,.28-1,.68-1S62.7,284,62.7,284.59Zm-1.07,0c0,.51.16.8.4.8s.4-.32.4-.82-.12-.8-.4-.8S61.64,284.09,61.64,284.62Z"/><path class="cls-28" d="M63.56,283.88h0l-.34.18-.05-.2.43-.23h.23v2h-.26Z"/><path class="cls-28" d="M65.87,284.59c0,.67-.25,1-.68,1s-.64-.36-.65-1,.28-1,.68-1S65.87,284,65.87,284.59Zm-1.07,0c0,.51.16.8.4.8s.4-.32.4-.82-.12-.8-.4-.8S64.8,284.09,64.8,284.62Z"/><path class="cls-28" d="M66.72,283.88h0l-.34.18-.05-.2.43-.23H67v2h-.26Z"/><path class="cls-28" d="M69,284.59c0,.67-.25,1-.68,1s-.64-.36-.65-1,.28-1,.68-1S69,284,69,284.59Zm-1.07,0c0,.51.16.8.4.8s.4-.32.4-.82-.12-.8-.4-.8S68,284.09,68,284.62Z"/><path class="cls-28" d="M69.88,283.88h0l-.34.18-.05-.2.43-.23h.23v2h-.26Z"/><path class="cls-28" d="M72.19,284.59c0,.67-.25,1-.68,1s-.64-.36-.65-1,.28-1,.68-1S72.19,284,72.19,284.59Zm-1.07,0c0,.51.16.8.4.8s.4-.32.4-.82-.12-.8-.4-.8S71.12,284.09,71.12,284.62Z"/><path class="cls-28" d="M73.77,284.59c0,.67-.25,1-.68,1s-.64-.36-.65-1,.28-1,.68-1S73.77,284,73.77,284.59Zm-1.07,0c0,.51.16.8.4.8s.4-.32.4-.82-.12-.8-.4-.8S72.71,284.09,72.71,284.62Z"/><polygon class="cls-50" points="22.23 291.49 22.52 283.78 49.58 256.88 77.71 256.88 77.8 290.38 22.23 291.49"/><path class="cls-1" d="M24.95,257.86a1.63,1.63,0,0,0-1.62,1.64v28.4a1.63,1.63,0,0,0,1.62,1.64H75.37A1.63,1.63,0,0,0,77,287.9V259.5a1.63,1.63,0,0,0-1.62-1.64Z"/><path class="cls-28" d="M51.95,292.22a1.79,1.79,0,1,1-1.79-1.81,1.8,1.8,0,0,1,1.79,1.81"/><g class="cls-29"><rect class="cls-30" x="45.84" y="295.5" width="8.63" height="1.7"/><rect class="cls-1" x="45.85" y="295.5" width="8.63" height="1.7"/></g><path class="cls-51" d="M28.74,252.44v-5.08A2.92,2.92,0,0,1,30.93,245h10.5a2.92,2.92,0,0,0,2.37-2.19v-11"/><polyline class="cls-51" points="32.17 249 28.73 252.44 25.3 249"/><path class="cls-51" d="M71.58,252.44v-5.08A2.92,2.92,0,0,0,69.39,245H58.89a2.92,2.92,0,0,1-2.37-2.19v-11"/><polyline class="cls-51" points="68.14 249 71.58 252.44 75.02 249"/><line class="cls-51" x1="50.16" y1="231.78" x2="50.16" y2="252.44"/><polyline class="cls-51" points="46.72 249 50.16 252.44 53.6 249"/><path class="cls-9" d="M27.42,325.24v-9.47h3.29c2.14,0,3.21.88,3.21,2.38a2.15,2.15,0,0,1-1.79,2.19v0a2.29,2.29,0,0,1,2.1,2.3c0,1.5-1,2.57-3.24,2.57Zm.9-5.26h2.32c1.51,0,2.39-.55,2.39-1.72s-.73-1.68-2.37-1.68H28.32Zm0,4.46H31c1.63,0,2.36-.67,2.36-1.81s-1-1.86-2.64-1.86H28.32Z"/><path class="cls-9" d="M35.92,316.46a.54.54,0,0,1,1.08,0,.54.54,0,1,1-1.08,0Zm.1,8.78v-6.73h.88v6.73Z"/><path class="cls-9" d="M38.19,326.14a1.69,1.69,0,0,1,1.24-1.54.86.86,0,0,1-.6-.86c0-.41.33-.75.82-1a2.23,2.23,0,0,1-1-1.93,2.47,2.47,0,0,1,2.66-2.43,2.8,2.8,0,0,1,1.92.69,3.49,3.49,0,0,1,1.48-.61l.13.83a3.43,3.43,0,0,0-1.28.23,2.1,2.1,0,0,1,.4,1.29,2.42,2.42,0,0,1-2.65,2.39A3,3,0,0,1,40.2,323c-.32.13-.54.32-.54.58s.24.44,1,.51l1.47.12c1.56.13,2.38.67,2.38,1.72,0,1.23-1.28,1.91-3.12,1.91C39.2,327.83,38.19,327.17,38.19,326.14Zm5.5-.14c0-.64-.51-1-1.84-1.06l-1.34-.1-.35,0c-.76.24-1.13.72-1.13,1.23,0,.7.74,1.11,2.45,1.11C42.87,327.14,43.7,326.67,43.7,326Zm-.59-5.19a1.64,1.64,0,0,0-1.82-1.74,1.72,1.72,0,1,0,1.82,1.74Z"/><path class="cls-9" d="M48.71,321.89c0-2.36,1.24-3.52,2.8-3.52a3,3,0,0,1,2.23,1.06v-3.6l.88-.13v9.54h-.79l-.09-1a3,3,0,0,1-2.25,1.09C49.93,325.36,48.71,324.24,48.71,321.89Zm5,1.61v-3.29a2.93,2.93,0,0,0-2.12-1.1c-1.11,0-2,.86-2,2.77s.92,2.73,2,2.73A2.86,2.86,0,0,0,53.74,323.5Z"/><path class="cls-9" d="M56.21,323.65c0-1.33,1.14-2.29,4.57-2.82v-.35a1.24,1.24,0,0,0-1.38-1.38,3.55,3.55,0,0,0-2.5,1.06l-.5-.55a4.2,4.2,0,0,1,3.06-1.25,1.94,1.94,0,0,1,2.19,2.15v4.72h-.78l-.09-1a3.92,3.92,0,0,1-2.66,1.08A1.67,1.67,0,0,1,56.21,323.65Zm4.57-.09v-2.1c-3,.51-3.7,1.22-3.7,2.09,0,.7.46,1.08,1.23,1.08A3.52,3.52,0,0,0,60.78,323.56Z"/><path class="cls-9" d="M64,323.64v-4.39H62.81v-.74H64v-2.37l.88-.13v2.5h1.75v.74H64.86v4.26c0,.72.27,1.08,1,1.08a2.54,2.54,0,0,0,.67-.09l.1.76a5.89,5.89,0,0,1-.92.08C64.55,325.33,64,324.87,64,323.64Z"/><path class="cls-9" d="M67.75,323.65c0-1.33,1.14-2.29,4.57-2.82v-.35a1.24,1.24,0,0,0-1.38-1.38,3.55,3.55,0,0,0-2.5,1.06l-.5-.55A4.2,4.2,0,0,1,71,318.37a1.94,1.94,0,0,1,2.19,2.15v4.72h-.78l-.09-1a3.92,3.92,0,0,1-2.66,1.08A1.67,1.67,0,0,1,67.75,323.65Zm4.57-.09v-2.1c-3,.51-3.7,1.22-3.7,2.09,0,.7.46,1.08,1.23,1.08A3.52,3.52,0,0,0,72.32,323.56Z"/><rect class="cls-8" x="196.32" y="346.15" width="83.73" height="83.73" rx="41.86" ry="41.86" transform="translate(-204.61 282.07) rotate(-45)"/><rect class="cls-52" x="226.89" y="376.43" width="38.35" height="20.33"/><rect class="cls-53" x="228.71" y="378.46" width="34.51" height="16.06"/><path class="cls-54" d="M246,388.66a2.16,2.16,0,1,0-2-2.15A2.1,2.1,0,0,0,246,388.66Zm-7.37-.5h-7.35v-3.49h7.35Zm22.31,0H253.6v-3.49H261Z"/><path class="cls-54" d="M226.89,396.77v-3.66l5.89-1.7a1.2,1.2,0,0,0,.82-1.09V389a.86.86,0,0,0-.86-.86l-11,0a7.29,7.29,0,0,0-1.68.23l-7.13,2v12.28L230.06,406a2.88,2.88,0,0,0,1.6-.23l17.51-9Z"/><polygon class="cls-55" points="226.89 393.16 224.62 395.08 224.62 398.62 245.21 398.8 249.17 396.77 226.89 396.77 226.89 393.16"/><path class="cls-9" d="M221.38,452.82v-9.47h.91V452h4.56l.14.83Z"/><path class="cls-9" d="M227.79,449.46c0-2.25,1.4-3.51,3.06-3.51s3,1.25,3,3.51-1.4,3.51-3,3.51S227.79,451.7,227.79,449.46Zm5.22,0c0-1.48-.74-2.75-2.16-2.75s-2.18,1.17-2.18,2.75.73,2.75,2.18,2.75S233,451,233,449.46Z"/><path class="cls-9" d="M235.08,451.24c0-1.33,1.14-2.29,4.57-2.82v-.35a1.24,1.24,0,0,0-1.38-1.38,3.54,3.54,0,0,0-2.5,1.06l-.5-.55a4.21,4.21,0,0,1,3.06-1.25,1.94,1.94,0,0,1,2.19,2.15v4.72h-.78l-.09-1a3.92,3.92,0,0,1-2.66,1.08A1.67,1.67,0,0,1,235.08,451.24Zm4.57-.09V449c-3,.51-3.7,1.22-3.7,2.09,0,.7.46,1.08,1.23,1.08A3.52,3.52,0,0,0,239.65,451.15Z"/><path class="cls-9" d="M242.48,452.82v-6.73h.79l.09,1.06a3.64,3.64,0,0,1,2.55-1.2,1.81,1.81,0,0,1,2,2v4.89h-.88v-4.71c0-.95-.41-1.42-1.36-1.42a3.4,3.4,0,0,0-2.34,1.18v5Z"/><path class="cls-9" d="M249.39,451.75l.49-.54a2.74,2.74,0,0,0,2.16,1c1.15,0,1.75-.45,1.75-1.17s-.46-1-1.86-1.37c-1.63-.4-2.34-.82-2.34-2,0-1,.83-1.77,2.29-1.77a3.36,3.36,0,0,1,2.48.95l-.45.62a2.75,2.75,0,0,0-2-.83c-1,0-1.46.47-1.46,1s.37.91,1.61,1.2c1.79.42,2.59.85,2.59,2.11s-1.1,1.95-2.62,1.95A3.26,3.26,0,0,1,249.39,451.75Z"/><rect class="cls-8" x="359.42" y="367.7" width="83.73" height="83.73" rx="41.86" ry="41.86" transform="translate(-172.07 403.71) rotate(-45)"/><path class="cls-9" d="M374.58,471.43V462h3.15c2,0,3.32.83,3.32,2.59,0,1.92-1.41,2.69-3.41,2.69h-2.15v4.2Zm.91-5h2.21c1.56,0,2.43-.5,2.43-1.86s-.86-1.78-2.45-1.78h-2.2Z"/><path class="cls-9" d="M382.14,469.84c0-1.33,1.14-2.29,4.57-2.82v-.35a1.24,1.24,0,0,0-1.38-1.38,3.54,3.54,0,0,0-2.5,1.06l-.5-.55a4.21,4.21,0,0,1,3.06-1.25,1.94,1.94,0,0,1,2.19,2.15v4.72h-.78l-.09-1a3.92,3.92,0,0,1-2.66,1.08A1.67,1.67,0,0,1,382.14,469.84Zm4.57-.09v-2.1c-3,.51-3.7,1.22-3.7,2.09,0,.7.46,1.08,1.23,1.08A3.52,3.52,0,0,0,386.71,469.75Z"/><path class="cls-9" d="M388.65,473.91l-.06-.77a4.21,4.21,0,0,0,1,.12,1.35,1.35,0,0,0,1.4-1l.28-.74-2.57-6.7.88-.17,2.13,5.77h0l2.09-5.68h.92l-2.91,7.52c-.46,1.2-1,1.79-2.25,1.79A3.49,3.49,0,0,1,388.65,473.91Z"/><path class="cls-9" d="M396,471.43V464.7h.79l.09,1.06a3.5,3.5,0,0,1,2.47-1.2,1.67,1.67,0,0,1,1.87,1.22,3.73,3.73,0,0,1,2.53-1.22,1.75,1.75,0,0,1,1.95,2v4.88h-.88v-4.71c0-.95-.32-1.41-1.27-1.41a3.29,3.29,0,0,0-2.25,1.18v4.94h-.88v-4.71c0-.95-.32-1.41-1.28-1.41a3.32,3.32,0,0,0-2.25,1.18v4.94Z"/><path class="cls-9" d="M407.33,468.05c0-2.38,1.54-3.5,3-3.5s2.75,1.2,2.75,3.51v.17h-4.83c0,1.65,1,2.6,2.21,2.6a2.81,2.81,0,0,0,2.16-1l.44.58a3.3,3.3,0,0,1-2.61,1.17C408.71,471.57,407.33,470.36,407.33,468.05Zm4.85-.51c-.09-1.28-.7-2.24-1.91-2.24-1,0-1.89.73-2,2.24Z"/><path class="cls-9" d="M414.69,471.43V464.7h.79l.09,1.06a3.64,3.64,0,0,1,2.55-1.2,1.8,1.8,0,0,1,2,2v4.89h-.88v-4.71c0-.95-.41-1.42-1.36-1.42a3.4,3.4,0,0,0-2.34,1.18v5Z"/><path class="cls-9" d="M422.5,469.83v-4.39h-1.17v-.74h1.17v-2.37l.88-.13v2.5h1.75v.74h-1.75v4.26c0,.72.27,1.08,1,1.08a2.56,2.56,0,0,0,.67-.09l.1.75a6,6,0,0,1-.92.08C423.08,471.52,422.5,471.06,422.5,469.83Z"/><path class="cls-9" d="M426.23,470.36l.49-.54a2.74,2.74,0,0,0,2.16,1c1.15,0,1.75-.45,1.75-1.17s-.46-1-1.86-1.37c-1.63-.4-2.34-.82-2.34-2,0-1,.83-1.77,2.29-1.77a3.36,3.36,0,0,1,2.48.95l-.45.62a2.75,2.75,0,0,0-2-.83c-1,0-1.46.47-1.46,1s.37.91,1.61,1.2c1.79.42,2.59.85,2.59,2.11s-1.1,1.95-2.62,1.95A3.25,3.25,0,0,1,426.23,470.36Z"/><path class="cls-56" d="M421.4,393.71a2,2,0,0,1,2,2v23.53a2,2,0,0,1-2,2H384.08a2,2,0,0,1-1.43-.59,2,2,0,0,1-.59-1.44V395.74a2,2,0,0,1,.59-1.44,2,2,0,0,1,1.43-.59Z"/><path class="cls-54" d="M417.36,397.74a2,2,0,0,1,2,2V423.3a2,2,0,0,1-2,2H380a2,2,0,0,1-1.43-.59,2,2,0,0,1-.59-1.44V399.77a2,2,0,0,1,.59-1.44,2,2,0,0,1,1.43-.59Z"/><rect class="cls-57" x="383.16" y="420.07" width="6.47" height="1.22"/><rect class="cls-57" x="391.36" y="420.07" width="6.47" height="1.21"/><rect class="cls-57" x="399.56" y="420.07" width="6.47" height="1.22"/><rect class="cls-57" x="407.76" y="420.07" width="6.47" height="1.22"/><rect class="cls-58" x="383.16" y="411.66" width="14.67" height="4.38"/><rect class="cls-59" x="378" y="401.79" width="41.38" height="5.84"/><circle class="cls-60" cx="406.71" cy="413.85" r="3.22"/><circle class="cls-59" cx="411.01" cy="413.85" r="3.22"/><rect class="cls-8" x="524.55" y="339.69" width="83.73" height="83.73" rx="41.86" ry="41.86" transform="translate(-103.9 512.27) rotate(-45)"/><path class="cls-9" d="M549.2,441.29l-2.51-9.4.88-.15,1.5,5.83c.23.87.44,1.73.58,2.38h0c.13-.64.33-1.51.55-2.37l1.41-5.76h1l1.43,5.81c.21.86.41,1.61.54,2.32h0c.17-.76.35-1.43.55-2.27l1.49-5.86h.87L555,441.29h-.86l-2-8.22h0l-2,8.22Z"/><path class="cls-9" d="M558.13,437.91c0-2.38,1.54-3.5,3-3.5s2.75,1.2,2.75,3.51v.17H559c0,1.65,1,2.6,2.21,2.6a2.81,2.81,0,0,0,2.16-1l.44.58a3.3,3.3,0,0,1-2.61,1.17C559.51,441.43,558.13,440.22,558.13,437.91Zm4.85-.51c-.09-1.28-.7-2.24-1.91-2.24-1,0-1.89.73-2,2.24Z"/><path class="cls-9" d="M565.08,439.71c0-1.33,1.14-2.29,4.57-2.82v-.35a1.24,1.24,0,0,0-1.38-1.38,3.54,3.54,0,0,0-2.5,1.06l-.5-.55a4.21,4.21,0,0,1,3.06-1.25,1.94,1.94,0,0,1,2.19,2.15v4.72h-.78l-.09-1a3.92,3.92,0,0,1-2.66,1.08A1.67,1.67,0,0,1,565.08,439.71Zm4.57-.09v-2.1c-3,.51-3.7,1.22-3.7,2.09,0,.7.46,1.08,1.23,1.08A3.52,3.52,0,0,0,569.65,439.62Z"/><path class="cls-9" d="M572.52,441.29v-9.41l.88-.13v9.54Z"/><path class="cls-9" d="M575.89,439.69V435.3h-1.17v-.74h1.17v-2.37l.88-.13v2.5h1.75v.74h-1.75v4.26c0,.72.27,1.08,1,1.08a2.56,2.56,0,0,0,.67-.09l.1.75a6,6,0,0,1-.92.08C576.46,441.38,575.89,440.92,575.89,439.69Z"/><path class="cls-9" d="M580,441.29v-9.41l.88-.13v3.87a3.64,3.64,0,0,1,2.55-1.2,1.8,1.8,0,0,1,2,2v4.89h-.88v-4.71c0-.95-.41-1.41-1.36-1.41a3.4,3.4,0,0,0-2.34,1.18v4.94Z"/><path class="cls-9" d="M528.42,455.09v-6.73h.79l.09,1.06a3.5,3.5,0,0,1,2.47-1.2,1.67,1.67,0,0,1,1.87,1.22,3.73,3.73,0,0,1,2.53-1.22,1.75,1.75,0,0,1,1.95,2v4.88h-.88v-4.71c0-.95-.32-1.41-1.27-1.41a3.29,3.29,0,0,0-2.25,1.18v4.94h-.88v-4.71c0-.95-.32-1.41-1.28-1.41a3.32,3.32,0,0,0-2.25,1.18v4.94Z"/><path class="cls-9" d="M539.67,453.5c0-1.33,1.14-2.29,4.57-2.82v-.35a1.24,1.24,0,0,0-1.38-1.38,3.54,3.54,0,0,0-2.5,1.06l-.5-.55a4.21,4.21,0,0,1,3.06-1.25,1.94,1.94,0,0,1,2.19,2.15v4.72h-.78l-.09-1a3.92,3.92,0,0,1-2.66,1.08A1.67,1.67,0,0,1,539.67,453.5Zm4.57-.09v-2.1c-3,.51-3.7,1.22-3.7,2.09,0,.7.46,1.08,1.23,1.08A3.52,3.52,0,0,0,544.24,453.41Z"/><path class="cls-9" d="M547.07,455.09v-6.73h.79l.09,1.06a3.64,3.64,0,0,1,2.55-1.2,1.8,1.8,0,0,1,2,2v4.89h-.88v-4.71c0-.95-.41-1.42-1.36-1.42a3.4,3.4,0,0,0-2.34,1.18v5Z"/><path class="cls-9" d="M554.06,453.5c0-1.33,1.14-2.29,4.57-2.82v-.35a1.24,1.24,0,0,0-1.38-1.38,3.54,3.54,0,0,0-2.5,1.06l-.5-.55a4.21,4.21,0,0,1,3.06-1.25,1.94,1.94,0,0,1,2.19,2.15v4.72h-.78l-.09-1A3.92,3.92,0,0,1,556,455.2,1.67,1.67,0,0,1,554.06,453.5Zm4.57-.09v-2.1c-3,.51-3.7,1.22-3.7,2.09,0,.7.46,1.08,1.23,1.08A3.52,3.52,0,0,0,558.63,453.41Z"/><path class="cls-9" d="M560.73,456a1.68,1.68,0,0,1,1.24-1.54.86.86,0,0,1-.6-.86c0-.41.33-.75.82-1a2.23,2.23,0,0,1-1-1.93,2.47,2.47,0,0,1,2.66-2.43,2.79,2.79,0,0,1,1.92.69,3.48,3.48,0,0,1,1.48-.61l.13.83a3.44,3.44,0,0,0-1.28.23,2.1,2.1,0,0,1,.4,1.29,2.42,2.42,0,0,1-2.65,2.39,3,3,0,0,1-1.09-.19c-.32.13-.54.32-.54.58s.24.43,1,.51l1.47.12c1.56.13,2.38.67,2.38,1.72,0,1.23-1.28,1.91-3.12,1.91C561.74,457.67,560.73,457,560.73,456Zm5.5-.14c0-.64-.51-1-1.84-1.06l-1.34-.1-.35,0c-.76.24-1.13.72-1.13,1.23,0,.7.74,1.11,2.45,1.11C565.4,457,566.23,456.52,566.23,455.84Zm-.59-5.18a1.64,1.64,0,0,0-1.82-1.74,1.72,1.72,0,1,0,1.82,1.74Z"/><path class="cls-9" d="M568.14,451.71c0-2.38,1.54-3.5,3-3.5s2.75,1.2,2.75,3.51v.17H569c0,1.65,1,2.6,2.21,2.6a2.81,2.81,0,0,0,2.16-1l.44.58a3.3,3.3,0,0,1-2.61,1.17C569.52,455.23,568.14,454,568.14,451.71Zm4.85-.51c-.09-1.28-.7-2.24-1.91-2.24-1,0-1.89.73-2,2.24Z"/><path class="cls-9" d="M575.49,455.09v-6.73h.79l.09,1.06a3.5,3.5,0,0,1,2.47-1.2,1.67,1.67,0,0,1,1.87,1.22,3.73,3.73,0,0,1,2.53-1.22,1.75,1.75,0,0,1,1.95,2v4.88h-.88v-4.71c0-.95-.32-1.41-1.27-1.41a3.29,3.29,0,0,0-2.25,1.18v4.94h-.88v-4.71c0-.95-.32-1.41-1.28-1.41a3.32,3.32,0,0,0-2.25,1.18v4.94Z"/><path class="cls-9" d="M586.8,451.71c0-2.38,1.54-3.5,3-3.5s2.75,1.2,2.75,3.51v.17h-4.83c0,1.65,1,2.6,2.21,2.6a2.81,2.81,0,0,0,2.16-1l.44.58a3.3,3.3,0,0,1-2.61,1.17C588.18,455.23,586.8,454,586.8,451.71Zm4.85-.51c-.09-1.28-.7-2.24-1.91-2.24-1,0-1.89.73-2,2.24Z"/><path class="cls-9" d="M594.15,455.09v-6.73h.79l.09,1.06a3.64,3.64,0,0,1,2.55-1.2,1.8,1.8,0,0,1,2,2v4.89h-.88v-4.71c0-.95-.41-1.42-1.36-1.42a3.4,3.4,0,0,0-2.34,1.18v5Z"/><path class="cls-9" d="M602,453.48v-4.39H600.8v-.74H602V446l.88-.13v2.5h1.75v.74h-1.75v4.26c0,.72.27,1.08,1,1.08a2.56,2.56,0,0,0,.67-.09l.1.75a6,6,0,0,1-.92.08C602.54,455.18,602,454.71,602,453.48Z"/><rect class="cls-13" x="547.51" y="363.7" width="32.1" height="38.51" rx="1.44" ry="1.44"/><rect class="cls-61" x="550.72" y="382.95" width="6.42" height="6.42" rx="0.58" ry="0.58"/><rect class="cls-61" x="560.34" y="382.95" width="6.42" height="6.42" rx="0.58" ry="0.58"/><rect class="cls-61" x="569.97" y="382.95" width="6.42" height="6.42" rx="0.58" ry="0.58"/><rect class="cls-61" x="550.72" y="392.58" width="6.42" height="6.42" rx="0.58" ry="0.58"/><rect class="cls-61" x="560.34" y="392.58" width="6.42" height="6.42" rx="0.58" ry="0.58"/><rect class="cls-62" x="569.97" y="392.58" width="6.42" height="6.42" rx="0.58" ry="0.58"/><rect class="cls-63" x="550.72" y="366.91" width="25.68" height="9.63" rx="0.58" ry="0.58"/><rect class="cls-8" x="547.51" y="379.29" width="32.1" height="0.9"/><rect class="cls-13" x="553.41" y="384.36" width="1.03" height="3.61"/><rect class="cls-13" x="552.12" y="385.65" width="3.61" height="1.03"/><rect class="cls-13" x="571.38" y="394.24" width="3.61" height="1.03"/><rect class="cls-13" x="571.38" y="396.31" width="3.61" height="1.03"/><rect class="cls-13" x="552.12" y="395.28" width="3.61" height="1.03" transform="translate(-117.63 507.61) rotate(-45)"/><rect class="cls-13" x="553.41" y="393.99" width="1.03" height="3.61" transform="translate(-117.7 507.19) rotate(-44.96)"/><rect class="cls-13" x="561.75" y="395.27" width="3.61" height="1.03"/><circle class="cls-13" cx="563.55" cy="394.5" r="0.52"/><circle class="cls-13" cx="563.55" cy="397.08" r="0.52"/><rect class="cls-13" x="561.75" y="385.65" width="3.61" height="1.03"/><path class="cls-13" d="M574,386.69a.77.77,0,1,1,0-1l.73-.73a1.81,1.81,0,1,0,0,2.51Z"/><rect class="cls-64" x="582.9" y="369.05" width="1.6" height="29.21"/><rect class="cls-65" x="584.5" y="369.05" width="1.6" height="29.21"/><rect class="cls-60" x="586.1" y="369.05" width="1.6" height="29.21"/><polygon class="cls-13" points="587.7 369.05 586.1 366.28 584.5 366.28 582.9 369.05 587.7 369.05"/><polygon class="cls-66" points="587.7 369.05 586.1 369.05 585.56 366.28 586.1 366.28 587.7 369.05"/><polygon class="cls-67" points="586.1 366.28 585.3 364.9 584.5 366.28 586.1 366.28"/><rect class="cls-66" x="586.1" y="398.25" width="1.6" height="1.6"/><rect class="cls-13" x="582.9" y="398.25" width="3.19" height="1.6"/><path class="cls-9" d="M587.69,400.22v-.37h-1.6v.37a2.39,2.39,0,0,1-.7,1.69,2.36,2.36,0,0,1-.9.56,2.38,2.38,0,0,0,.8.14,2.39,2.39,0,0,0,2.4-2.4Z"/><path class="cls-68" d="M586.09,400.22v-.37H582.9v.37a2.39,2.39,0,0,0,1.6,2.26,2.36,2.36,0,0,0,.9-.56A2.39,2.39,0,0,0,586.09,400.22Z"/><polyline class="cls-69" points="122.83 332.95 402.14 224.95 681.45 332.95"/><ellipse class="cls-13" cx="402.14" cy="223.89" rx="58.11" ry="20.67"/><ellipse class="cls-70" cx="402.14" cy="223.89" rx="58.11" ry="20.67"/></g></g></svg>