<svg width="787" height="392" viewBox="0 0 787 392" xmlns="http://www.w3.org/2000/svg" xmlns:xlink="http://www.w3.org/1999/xlink"><title>Page 1</title><defs><path id="a" d="M0 392h787.865V.359H0z"/></defs><g fill="none" fill-rule="evenodd"><path fill="#DDD" d="M697.452 354.031l1.994 3.453 7.173-4.14v-2.766h-7.173z"/><path stroke="#FFF" d="M697.452 354.031l1.994 3.453 7.173-4.14v-2.766h-7.173z"/><path d="M778.348 341.378l-2.411 4.177-3.46-.003v6.08h3.769l3.509-6.075h3.835l2.41-4.18h-4.822v-7.163l-2.85-1.645.02 8.809zm-37.708 23.664l4.176 2.41 21.234-12.26v-4.822l-25.41 14.672z" fill="#DDD"/><path d="M781.177 341.377v-7.163l-2.85-1.646.02 8.81-2.41 4.177-3.46-.004v6.082h3.77l3.507-6.076h3.836l2.41-4.18h-4.823zm-40.538 23.664l25.411-14.671v4.822l-21.234 12.26-4.177-2.41z" stroke="#FFF"/><path fill="#DDD" d="M330.692 71.163v2.652l-3.045 1.76v2.206l4.114.01 4.177-2.412.007-2.367-4.26-2.423z"/><path stroke="#FFF" d="M330.692 71.163v2.652l-3.045 1.76v2.206l4.114.01 4.177-2.412.007-2.367-4.26-2.423z"/><path fill="#DDD" d="M172.501 176.691h4.092v-1.269h-4.092z"/><path stroke="#FFF" d="M172.501 176.691h4.092v-1.269h-4.092z"/><path fill="#DDD" d="M428.875 127.315h3.979v-1.447h-3.979z"/><path stroke="#FFF" d="M428.875 127.315h3.979v-1.447h-3.979z"/><path fill="#DDD" d="M629.261 175.093h3.617v-3.617h-3.617z"/><path stroke="#FFF" d="M629.261 175.093h3.617v-3.617h-3.617z"/><path fill="#DDD" d="M657.112 164.209h2.976v-8.874h-2.976z"/><path stroke="#FFF" d="M657.112 164.209h2.976v-8.874h-2.976z"/><path d="M680.081 131.712h3.771v-2.088h-3.771v2.088zm16.545-26.729l-2.671-4.627h-4.823l-2.175-3.767-3.105-.003 4.848 8.397h7.926zm-4.745 22.582h-12.423l-4.176 2.411 3.07 1.773v5.546h-2.347v-4.145l-2.428-1.401V128.4l6.941-4.008 5.395.004v-2.411l5.296-3.058v-4.823l-3.375-5.846 4.648 2.684 3.594 6.226v8.001l-4.177 2.412-.018-.016z" fill="#DDD"/><path d="M680.081 131.712h3.771v-2.088h-3.771v2.088zm16.545-26.729l-2.671-4.627h-4.823l-2.175-3.767-3.105-.003 4.848 8.397h7.926zm-4.745 22.582h-12.423l-4.176 2.411 3.07 1.773v5.546h-2.347v-4.145l-2.428-1.401V128.4l6.941-4.008 5.395.004v-2.411l5.296-3.058v-4.823l-3.375-5.846 4.648 2.684 3.594 6.226v8.001l-4.177 2.412-.018-.016z" stroke="#FFF"/><path d="M739.943 248.487h7.415v-1.915h-7.415v1.915zm-6.713 1.336l5.864 10.157h-4.37l-3.982-6.897-.014-.013h-7.257v3.462h-4.346v-16.88h4.823l6.803 3.928-.009 2.988.003.002h3.594l1.877 3.251-2.986.002z" fill="#DDD"/><path d="M739.943 248.487h7.415v-1.915h-7.415v1.915zm-6.713 1.336l5.864 10.157h-4.37l-3.982-6.897-.014-.013h-7.257v3.462h-4.346v-16.88h4.823l6.803 3.928-.009 2.988.003.002h3.594l1.877 3.251-2.986.002z" stroke="#FFF"/><path fill="#DDD" d="M324.28 40.686l-4.176-2.412-2.088 1.206h-4.822l-2.601 1.501v-2.58h-3.845v3.491h2.269v3.157h7.707z"/><path stroke="#FFF" d="M324.28 40.686l-4.176-2.412-2.088 1.206h-4.822l-2.601 1.501v-2.58h-3.845v3.491h2.269v3.157h7.707z"/><path fill="#DDD" d="M658.87 113.584l3.298-5.71v-4.823l-6.28 3.194h-2.37l-3.28 5.68h4.796v6.084h4.099l3.872-2.038z"/><path stroke="#FFF" d="M658.87 113.584l3.298-5.71v-4.823l-6.28 3.194h-2.37l-3.28 5.68h4.796v6.084h4.099l3.872-2.038z"/><path fill="#DDD" d="M663.005 115.97l-3.872 2.039 3.595 6.227-.01 3.305 5.169-2.975z"/><path stroke="#FFF" d="M663.005 115.97l-3.872 2.039 3.595 6.227-.01 3.305 5.169-2.975z"/><path d="M372.737 62.017l-4.176 2.41v3.116h4.176v-5.526zm4.328 4.508l-1.185 1.949h-1.405v-2.982h2.59v1.033z" fill="#DDD"/><path d="M372.737 62.017l-4.176 2.41v3.116h4.176v-5.526zm4.328 4.508l-1.185 1.949h-1.405v-2.982h2.59v1.033z" stroke="#FFF"/><path fill="#DDD" d="M565.157 97.177h4.353l11.584 6.688h11.936l5.193 2.998h5.056l3.516-2.03h6.129l1.976-3.422-.021-4.082h4.676l3.389-1.956-.02-2.387h6.86v-2.37l-3.467-2.001h-8.742V82.98h-8.422l-3.704 2.139h-5.157l-5.333-3.08h-9.707l-8.016-4.627h-5.148l2.002 3.467v2.369h-4.952l-5.303-3.058h-6.276l-8.067 4.683 12.858 7.424z"/><path stroke="#FFF" d="M565.157 97.177h4.353l11.584 6.688h11.936l5.193 2.998h5.056l3.516-2.03h6.129l1.976-3.422-.021-4.082h4.676l3.389-1.956-.02-2.387h6.86v-2.37l-3.467-2.001h-8.742V82.98h-8.422l-3.704 2.139h-5.157l-5.333-3.08h-9.707l-8.016-4.627h-5.148l2.002 3.467v2.369h-4.952l-5.303-3.058h-6.276l-8.067 4.683 12.858 7.424z"/><path fill="#DDD" d="M451.09 127.218l-5.703 3.292v4.581l17.126 9.887h3.218v-2.92h2.456v-8.052l-5.36-3.135v-7.013l-5.812-3.355h-5.926z"/><path stroke="#FFF" d="M451.09 127.218l-5.703 3.292v4.581l17.126 9.887h3.218v-2.92h2.456v-8.052l-5.36-3.135v-7.013l-5.812-3.355h-5.926z"/><path fill="#DDD" d="M384.633 216.15v-3.48l3.083-5.338-4.224-2.44v-1.962h3.742l-2.366-4.097v-4.768l-3.584 2.07v5.118l-5.084 8.807-.071-.042-2.695-1.556-3.432 5.944v2.661l2.928-.002v4.822l-.036.065 2.629 1.517h13.383z"/><path stroke="#FFF" d="M384.633 216.15v-3.48l3.083-5.338-4.224-2.44v-1.962h3.742l-2.366-4.097v-4.768l-3.584 2.07v5.118l-5.084 8.807-.071-.042-2.695-1.556-3.432 5.944v2.661l2.928-.002v4.822l-.036.065 2.629 1.517h13.383z"/><path fill="#DDD" d="M555.195 140.71h-3.579v4.992l7 4.041h5.636l2.985 1.723h5.187v-4.318h-5.92z"/><path stroke="#FFF" d="M555.195 140.71h-3.579v4.992l7 4.041h5.636l2.985 1.723h5.187v-4.318h-5.92z"/><path fill="#DDD" d="M620.817 199.462l7.494-4.326v-8.757l-3.834-6.64-7.714-4.453 1.694-2.935v-2.369l-8.013-4.625-3.564 2.055-1.483.895 2.87 5.143.002.002h1.824v4.683h6.78l5.933 3.425v5.98h-6.476v5.233l1.566.903v4.1z"/><path stroke="#FFF" d="M620.817 199.462l7.494-4.326v-8.757l-3.834-6.64-7.714-4.453 1.694-2.935v-2.369l-8.013-4.625-3.564 2.055-1.483.895 2.87 5.143.002.002h1.824v4.683h6.78l5.933 3.425v5.98h-6.476v5.233l1.566.903v4.1z"/><path d="M619.892 233.892v-3.924l-9.868-5.698-5.44-9.422h-6.08v1.022l4.176 2.412 6.602 11.433 2.101 1.214 9.2 15.933h4.568v-9.934l-5.259-3.036zm22.152 21.35h11.257l-3.385-1.933h-3.695l-4.177-2.41h-7.522l-4.176-2.412-4.177 2.411 1.505 2.606h11.353l3.017 1.738zm41.808-25.745h2.016v-6.33h-2.016v6.33zm-16.974-1.627h9.766v-1.805h-9.766v1.805zm16.974 12.298h7.533v-1.809h-7.533v1.81zm-15.414 16.94v-1.866H658.6l3.232 1.866h6.606zm42.752-22.037l-7.478 4.318-3.51-2.027-3.227 1.863 9.051 5.226.002.002h3.716l3.098 5.368-2.41 4.176h5.94v2.535h2.753v-16.88l-7.935-4.58zm-35.073 22.645l-.635-1.1-4.446 2.568.635 1.1 4.446-2.568zm23.601-8.302h1.27v-2.645h-1.27v2.645zm-28.16-17.209h-2.929l-2.864 1.654-2.865-1.654-2.412 4.182v4.823l3.096 5.362v-6.947l1.925-1.11 2.411 4.176h2.937l-3.464-6 4.165-2.422v-2.064zm27.332 3.803v-3.559l-3.328-1.922-4.177 2.411 2.483 1.434v1.636h5.022zm-44.493-18.806h2.655l.046 14.707-4.176 2.411.001 7.236h-4.189l-2.205-3.797h-9.118v-4.823l-3.649-6.32 2.456-1.417 3.795 2.191h2.368l2.987-1.725 4.051-.006 4.978-8.457z" fill="#DDD"/><path d="M619.892 233.892v-3.924l-9.868-5.698-5.44-9.422h-6.08v1.022l4.176 2.412 6.602 11.433 2.101 1.214 9.2 15.933h4.568v-9.934l-5.259-3.036zm22.152 21.35h11.257l-3.385-1.933h-3.695l-4.177-2.41h-7.522l-4.176-2.412-4.177 2.411 1.505 2.606h11.353l3.017 1.738zm41.808-25.745h2.016v-6.33h-2.016v6.33zm-16.974-1.627h9.766v-1.805h-9.766v1.805zm16.974 12.298h7.533v-1.809h-7.533v1.81zm-15.414 16.94v-1.866H658.6l3.232 1.866h6.606zm42.752-22.037l-7.478 4.318-3.51-2.027-3.227 1.863 9.051 5.226.002.002h3.716l3.098 5.368-2.41 4.176h5.94v2.535h2.753v-16.88l-7.935-4.58zm-35.073 22.645l-.635-1.1-4.446 2.568.635 1.1 4.446-2.568zm23.601-8.302h1.27v-2.645h-1.27v2.645zm-28.16-17.209h-2.929l-2.864 1.654-2.865-1.654-2.412 4.182v4.823l3.096 5.362v-6.947l1.925-1.11 2.411 4.176h2.937l-3.464-6 4.165-2.422v-2.064zm27.332 3.803v-3.559l-3.328-1.922-4.177 2.411 2.483 1.434v1.636h5.022zm-44.493-18.806h2.655l.046 14.707-4.176 2.411.001 7.236h-4.189l-2.205-3.797h-9.118v-4.823l-3.649-6.32 2.456-1.417 3.795 2.191h2.368l2.987-1.725 4.051-.006 4.978-8.457z" stroke="#FFF"/><path d="M611.34 213.486l1.034 1.791v2.826l2.41 4.177 6.64 3.831v-3.835l-2.088-1.206v-4.823l-2.412-4.176-2.45 1.415h-3.134zm46.728 3.716h-3.67l-4.98 8.456-4.05.007-2.986 1.724h-2.37l-3.794-2.19 5.186-2.99h3.474l1.847-3.202h2.7v-2.52l1.844.003 3.415-5.916 5.404 3.12-2.02 3.508z" fill="#DDD"/><path d="M611.34 213.486l1.034 1.791v2.826l2.41 4.177 6.64 3.831v-3.835l-2.088-1.206v-4.823l-2.412-4.176-2.45 1.415h-3.134zm46.728 3.716h-3.67l-4.98 8.456-4.05.007-2.986 1.724h-2.37l-3.794-2.19 5.186-2.99h3.474l1.847-3.202h2.7v-2.52l1.844.003 3.415-5.916 5.404 3.12-2.02 3.508z" stroke="#FFF"/><path fill="#DDD" d="M376.85 223.469h-1.327l-2.63-1.518-2.374 4.113h6.33z"/><path stroke="#FFF" d="M376.85 223.469h-1.327l-2.63-1.518-2.374 4.113h6.33z"/><path fill="#DDD" d="M438.219 133.384h-2.012l-2.492 4.3 2.759 4.81 1.745-3.062z"/><path stroke="#FFF" d="M438.219 133.384h-2.012l-2.492 4.3 2.759 4.81 1.745-3.062z"/><path fill="#DDD" d="M591.945 143.482h-5.672l-4.215 7.3h-7.264v-3.633h-2.37v4.316h-5.187l-2.985-1.722h-5.636l-7-4.041v-4.992l-5.136-2.966v-4.556l-1.973-3.416-.757-1.313-1.754-3.038h-3.78v2.37h-5.712v2.369l3.504 6.069-6.752 11.694-3.51-.004-1.183 2.051 5.024 2.901v5.49l-4.204 2.51 3.818 6.612 5.376-3.103 2.412 4.177v12.472l11.393 19.733v4.823l.005.005h2.418l5.148-8.917V183.38l7.743-4.47 8.379-14.513h4.678l-2.156-3.736v-6.399l2.052-1.185 1.184 2.053h6.757v2.369l-1.184 2.05 2.937 5.088 3.635-6.395v-6.401l1.185-2.052h2.369l2.334-4.043z"/><path stroke="#FFF" d="M591.945 143.482h-5.672l-4.215 7.3h-7.264v-3.633h-2.37v4.316h-5.187l-2.985-1.722h-5.636l-7-4.041v-4.992l-5.136-2.966v-4.556l-1.973-3.416-.757-1.313-1.754-3.038h-3.78v2.37h-5.712v2.369l3.504 6.069-6.752 11.694-3.51-.004-1.183 2.051 5.024 2.901v5.49l-4.204 2.51 3.818 6.612 5.376-3.103 2.412 4.177v12.472l11.393 19.733v4.823l.005.005h2.418l5.148-8.917V183.38l7.743-4.47 8.379-14.513h4.678l-2.156-3.736v-6.399l2.052-1.185 1.184 2.053h6.757v2.369l-1.184 2.05 2.937 5.088 3.635-6.395v-6.401l1.185-2.052h2.369l2.334-4.043z"/><path fill="#DDD" d="M468.187 142.057h-2.456v2.921h4.143z"/><path stroke="#FFF" d="M468.187 142.057h-2.456v2.921h4.143z"/><path fill="#DDD" d="M411.688 165.294v3.617h-2.638v14.649h-2.34l-3.094 5.36 3.247 5.623v2.92l3.32 5.75 5.112-2.951h2.91l1.184 2.052 4.952-2.86v-2.369l4.44-2.564v5.227h2.37l2.05-1.185h3.27l5.193-8.898v-7.047l1.733-3 3.077-1.778-3.483-6.031v-4.1l-2.924-5.066-4.59 2.651z"/><path stroke="#FFF" d="M411.688 165.294v3.617h-2.638v14.649h-2.34l-3.094 5.36 3.247 5.623v2.92l3.32 5.75 5.112-2.951h2.91l1.184 2.052 4.952-2.86v-2.369l4.44-2.564v5.227h2.37l2.05-1.185h3.27l5.193-8.898v-7.047l1.733-3 3.077-1.778-3.483-6.031v-4.1l-2.924-5.066-4.59 2.651z"/><path fill="#DDD" d="M454.409 190.173l2.607 4.514 2.216-1.279-3.217-5.57-5.653-3.264-3.888-6.734-3.077 1.778-1.732 3v4.894h8.135z"/><path stroke="#FFF" d="M454.409 190.173l2.607 4.514 2.216-1.279-3.217-5.57-5.653-3.264-3.888-6.734-3.077 1.778-1.732 3v4.894h8.135z"/><path fill="#DDD" d="M457.016 197.613l2.182 1.26 2.374-1.41-2.34-4.055-2.216 1.28z"/><path stroke="#FFF" d="M457.016 197.613l2.182 1.26 2.374-1.41-2.34-4.055-2.216 1.28z"/><path fill="#DDD" d="M602.278 181.029v4.822l3.27 5.663v-8.435l-1.879-3.254-2.924-1.69v-7.023l6.135-3.7-4.808-8.327h-4.402v-3.44l2.748-1.585.021-5.674-4.574-2.64-2.334 4.043h-2.369l-1.184 2.052v6.4l-3.636 6.396-1.104 1.913 3.442 5.962.005.005h2.411l2.412 4.177v6.686l.003.003h3.2l2.411-4.177z"/><path stroke="#FFF" d="M602.278 181.029v4.822l3.27 5.663v-8.435l-1.879-3.254-2.924-1.69v-7.023l6.135-3.7-4.808-8.327h-4.402v-3.44l2.748-1.585.021-5.674-4.574-2.64-2.334 4.043h-2.369l-1.184 2.052v6.4l-3.636 6.396-1.104 1.913 3.442 5.962.005.005h2.411l2.412 4.177v6.686l.003.003h3.2l2.411-4.177z"/><path fill="#DDD" d="M453.765 221.653l1.334-2.31h-8.986l-4.863-2.807h-4.69v2.368l2.637 4.564-2.584 4.475v1.502h.068v4.381l9.883 5.706v2.171l3.282 1.894 5.253-9.098-1.334-2.289z"/><path stroke="#FFF" d="M453.765 221.653l1.334-2.31h-8.986l-4.863-2.807h-4.69v2.368l2.637 4.564-2.584 4.475v1.502h.068v4.381l9.883 5.706v2.171l3.282 1.894 5.253-9.098-1.334-2.289z"/><path fill="#DDD" d="M403.838 309.545l2.188-3.791h6.61l4.71-8.158 3.531-2.039-7.285-12.617h-3.41l-1.394 2.39h-7.675v9.727h-3.002v8.604l3.358 5.884z"/><path stroke="#FFF" d="M403.838 309.545l2.188-3.791h6.61l4.71-8.158 3.531-2.039-7.285-12.617h-3.41l-1.394 2.39h-7.675v9.727h-3.002v8.604l3.358 5.884z"/><path d="M419.728 320.866l-4.27-2.464 2.526-4.373h2.369l1.667 2.886-2.292 3.95zm7.88-12.245v1.99h-2.621v-3.98h2.622v-11.074h-6.731l-3.531 2.039-4.71 8.159h-6.61l-2.188 3.79h-2.37l-3.357-5.884v10.278h-6.556l-2.234 1.29 4.807 8.325v4.823l2.412 4.177 4.176-2.411h12.48l9.203-5.314 7.719-13.37v-2.838h-2.51z" fill="#DDD"/><path d="M419.728 320.866l-4.27-2.464 2.526-4.373h2.369l1.667 2.886-2.292 3.95zm7.88-12.245v1.99h-2.621v-3.98h2.622v-11.074h-6.731l-3.531 2.039-4.71 8.159h-6.61l-2.188 3.79h-2.37l-3.357-5.884v10.278h-6.556l-2.234 1.29 4.807 8.325v4.823l2.412 4.177 4.176-2.411h12.48l9.203-5.314 7.719-13.37v-2.838h-2.51z" stroke="#FFF"/><path fill="#DDD" d="M377.528 245.18l1.11 1.92h1.492v-1.894l1.961-1.132-1.319-.763z"/><path stroke="#FFF" d="M377.528 245.18l1.11 1.92h1.492v-1.894l1.961-1.132-1.319-.763z"/><path fill="#DDD" d="M346.948 204.432v-7.488h-7.778v10.631l-1.185 2.051v4.092h7.35l2.75-1.588v-5.728z"/><path stroke="#FFF" d="M346.948 204.432v-7.488h-7.778v10.631l-1.185 2.051v4.092h7.35l2.75-1.588v-5.728z"/><path fill="#DDD" d="M350.63 202.098l-1.184-2.052v-3.102h-2.499v7.488l1.138 1.97v5.728l2.545-1.469z"/><path stroke="#FFF" d="M350.63 202.098l-1.184-2.052v-3.102h-2.499v7.488l1.138 1.97v5.728l2.545-1.469z"/><path fill="#DDD" d="M304.36 190.245h6.178v-1.483h-7.01z"/><path stroke="#FFF" d="M304.36 190.245h6.178v-1.483h-7.01z"/><path fill="#DDD" d="M323.443 210.607V208.4l-5.122-2.958-2.462 4.266 11.158 6.441v-3.479z"/><path stroke="#FFF" d="M323.443 210.607V208.4l-5.122-2.958-2.462 4.266 11.158 6.441v-3.479z"/><path fill="#DDD" d="M311.32 192.718h-5.527l2.109 3.653 3.418-2.007z"/><path stroke="#FFF" d="M311.32 192.718h-5.527l2.109 3.653 3.418-2.007z"/><path fill="#DDD" d="M316.772 200.578h-3.553l-2.173 1.24 1.188 2.056v3.74l3.626 2.094 2.462-4.265v-2.17z"/><path stroke="#FFF" d="M316.772 200.578h-3.553l-2.173 1.24 1.188 2.056v3.74l3.626 2.094 2.462-4.265v-2.17z"/><path fill="#DDD" d="M372.268 93.796v-3.333h-7.31l-1.95 3.379 2.068 1.183.452.78 3.489-2.01z"/><path stroke="#FFF" d="M372.268 93.796v-3.333h-7.31l-1.95 3.379 2.068 1.183.452.78 3.489-2.01z"/><path d="M391.994 110.83l-10.36-5.981-4.452-7.873 2.952-1.704V92.23h-7.866v1.566h-3.252l-3.488 2.01 2.41 4.16h5.654l3.665 6.497 9.125 5.269v5.817l1.873-1.081-.003-5.636 3.742-.001zm-14.073 7.136l6.065 3.502v-3.502h-6.065zm-8.726-8.03l2.265-1.306v5.002l-2.265 1.307v-5.002z" fill="#DDD"/><path d="M391.994 110.83l-10.36-5.981-4.452-7.873 2.952-1.704V92.23h-7.866v1.566h-3.252l-3.488 2.01 2.41 4.16h5.654l3.665 6.497 9.125 5.269v5.817l1.873-1.081-.003-5.636 3.742-.001zm-14.073 7.136l6.065 3.502v-3.502h-6.065zm-8.726-8.03l2.265-1.306v5.002l-2.265 1.307v-5.002z" stroke="#FFF"/><path fill="#DDD" d="M403.616 101.07v6.024h9.58v-1.79h3.24v-2.65l.02-.035-2.68-1.548z"/><path stroke="#FFF" d="M403.616 101.07v6.024h9.58v-1.79h3.24v-2.65l.02-.035-2.68-1.548z"/><path fill="#DDD" d="M377.92 45.385l2.878-1.662 3.29-5.698 1.876.002 2.678-4.638 3.054-.003 3.184-1.87h3.458l-.041-.07.041.07h10.27l4.467-2.578h-21.304l-9.952 5.748-3.797 6.578-14.96 8.637v4.823l2.411 4.177h2.654l7.981-4.608 1.812-3.184z"/><path stroke="#FFF" d="M377.92 45.385l2.878-1.662 3.29-5.698 1.876.002 2.678-4.638 3.054-.003 3.184-1.87h3.458l-.041-.07.041.07h10.27l4.467-2.578h-21.304l-9.952 5.748-3.797 6.578-14.96 8.637v4.823l2.411 4.177h2.654l7.981-4.608 1.812-3.184z"/><path d="M413.197 105.304v3.971h.125l3.114-1.798v-2.173h-3.24zm26.903 15.2l-2.92 1.684-1.054-1.826-4.177 2.411h-14.95l-3.802-6.587v-5.546h4.009v-2.104h7.49l3.68-2.123h4.822l4.177 2.411h16.848v2.366l1.223 2.141 1.57 2.742v4.43H440.1z" fill="#DDD"/><path d="M413.197 105.304v3.971h.125l3.114-1.798v-2.173h-3.24zm26.903 15.2l-2.92 1.684-1.054-1.826-4.177 2.411h-14.95l-3.802-6.587v-5.546h4.009v-2.104h7.49l3.68-2.123h4.822l4.177 2.411h16.848v2.366l1.223 2.141 1.57 2.742v4.43H440.1z" stroke="#FFF"/><g transform="translate(-1 -.359)"><path d="M314.795 188.126L316.6 185h17.083v-2.37l-1.901-3.293v-22.362h3.926l-9.925-5.73v2.357h-8.821v7.409l-3.263 1.884v4.265h-8.624v14.453h5.96l3.76 6.512z" fill="#DDD"/><path d="M314.795 188.126L316.6 185h17.083v-2.37l-1.901-3.293v-22.362h3.926l-9.925-5.73v2.357h-8.821v7.409l-3.263 1.884v4.265h-8.624v14.453h5.96l3.76 6.512z" stroke="#FFF"/><path fill="#DDD" d="M378.71 161.94v.047l-19.866 11.47v12.766h-11.265v2.62l6.024 3.479v3.159l3.257 1.879 2.048-3.573v-4.351h3.614l4.028 2.325 6.459-.017 2.051-1.185h8.38v-3.27l5.276-9.14v-9.103l-1.755-3.037v-2.37h-5.387z"/><path stroke="#FFF" d="M378.71 161.94v.047l-19.866 11.47v12.766h-11.265v2.62l6.024 3.479v3.159l3.257 1.879 2.048-3.573v-4.351h3.614l4.028 2.325 6.459-.017 2.051-1.185h8.38v-3.27l5.276-9.14v-9.103l-1.755-3.037v-2.37h-5.387z"/><path fill="#DDD" d="M411.066 137.404l-6.403-3.697h-5.172v6.108l-2.38 1.374-4.176-2.411h-4.823l-2.798-4.848h-9.58v2.394l-2.42 4.191v10.764l-2.32 4.037 7.717 4.454v2.17l2.864 1.7h5.387l3.255-1.879 19.833 11.45v-3.94h2.639v-28.76l1.793-3.107z"/><path stroke="#FFF" d="M411.066 137.404l-6.403-3.697h-5.172v6.108l-2.38 1.374-4.176-2.411h-4.823l-2.798-4.848h-9.58v2.394l-2.42 4.191v10.764l-2.32 4.037 7.717 4.454v2.17l2.864 1.7h5.387l3.255-1.879 19.833 11.45v-3.94h2.639v-28.76l1.793-3.107z"/><path fill="#DDD" d="M367.92 131.172l5.395 9.343 2.419-4.19v-2.394h-.115l-2.412-4.176 2.412-4.177-2.412-4.177h-3.662v6.958z"/><path stroke="#FFF" d="M367.92 131.172l5.395 9.343 2.419-4.19v-2.394h-.115l-2.412-4.176 2.412-4.177-2.412-4.177h-3.662v6.958z"/><path d="M345.466 186.223h13.378v-12.766l-6.52-3.764v-3.124l-16.616-9.593h-3.926v22.362l1.9 3.293V185H316.6l-1.805 3.126 1.49 2.583v2.368l2.053 1.185h5.376l2.846 4.929h6.468v-5.787l12.438-7.181z" fill="#DDD"/><path d="M345.466 186.223h13.378v-12.766l-6.52-3.764v-3.124l-16.616-9.593h-3.926v22.362l1.9 3.293V185H316.6l-1.805 3.126 1.49 2.583v2.368l2.053 1.185h5.376l2.846 4.929h6.468v-5.787l12.438-7.181z" stroke="#FFF"/><path fill="#DDD" d="M428.346 219.644v5.963l-3.406 5.9v2.369h6.65v-4.071h6.023v-1.503l2.583-4.474-2.635-4.564v-2.37l-4.837 2.75z"/><path stroke="#FFF" d="M428.346 219.644v5.963l-3.406 5.9v2.369h6.65v-4.071h6.023v-1.503l2.583-4.474-2.635-4.564v-2.37l-4.837 2.75z"/><path fill="#DDD" d="M312.66 149.178l-7.584 13.138v4.845h8.623v-4.266l3.263-1.884v-7.408h8.82v-5.309h-11.59z"/><path stroke="#FFF" d="M312.66 149.178l-7.584 13.138v4.845h8.623v-4.266l3.263-1.884v-7.408h8.82v-5.309h-11.59z"/><path fill="#DDD" d="M332.42 116.042v-9.208h-4.487v14.148h3.134v-4.22z"/><path stroke="#FFF" d="M332.42 116.042v-9.208h-4.487v14.148h3.134v-4.22z"/><path d="M346.848 103.824l-2.044-1.168h-16.87v4.179h4.487v9.207l-1.353.72v4.22l3.083 1.78 4.176-2.412h6.486l6.804-11.783 4.176-2.411-4.01-2.332h-4.935zm7.062 10.928h2.644v-1.27h-2.644v1.27zm-47.485 31.855h2.645v-1.27h-2.645v1.27zm3.793-2.283h2.645v-1.27h-2.645v1.27z" fill="#DDD"/><path d="M346.848 103.824l-2.044-1.168h-16.87v4.179h4.487v9.207l-1.353.72v4.22l3.083 1.78 4.176-2.412h6.486l6.804-11.783 4.176-2.411-4.01-2.332h-4.935zm7.062 10.928h2.644v-1.27h-2.644v1.27zm-47.485 31.855h2.645v-1.27h-2.645v1.27zm3.793-2.283h2.645v-1.27h-2.645v1.27z" stroke="#FFF"/><path fill="#DDD" d="M386.962 92.589l3.768 2.185h7.232l3.458-5.983h-12.147z"/><path stroke="#FFF" d="M386.962 92.589l3.768 2.185h7.232l3.458-5.983h-12.147z"/><path fill="#DDD" d="M409.608 34.625v-2.75h-10.27l1.144 1.98-.035 5.228.079-.045 5.992 3.46-9.94 5.738 2.963 5.132h13.386l3.733-6.466z"/><path stroke="#FFF" d="M409.608 34.625v-2.75h-10.27l1.144 1.98-.035 5.228.079-.045 5.992 3.46-9.94 5.738 2.963 5.132h13.386l3.733-6.466z"/><path fill="#DDD" d="M400.436 109.866l4.18-2.413v-1.79h-4.18z"/><path stroke="#FFF" d="M400.436 109.866l4.18-2.413v-1.79h-4.18z"/><path fill="#DDD" d="M358.999 81.315l5.017 2.897.935-1.62v-3.12l-3.671-2.118z"/><path stroke="#FFF" d="M358.999 81.315l5.017 2.897.935-1.62v-3.12l-3.671-2.118z"/><path fill="#DDD" d="M405.103 79.75l1.185-2.052v-4.826l-3.762-2.172H390.21l-2.828 1.633h-3.561v7.407l8.879 5.393h8.72l5.094-2.94z"/><path stroke="#FFF" d="M405.103 79.75l1.185-2.052v-4.826l-3.762-2.172H390.21l-2.828 1.633h-3.561v7.407l8.879 5.393h8.72l5.094-2.94z"/><path fill="#DDD" d="M364.95 82.593l-.935 1.62 1.352.78.935-1.62z"/><path stroke="#FFF" d="M364.95 82.593l-.935 1.62 1.352.78.935-1.62z"/><path fill="#DDD" d="M392.7 85.132l-8.88-5.392-5.851 3.379 2.305 3.993h8.999z"/><path stroke="#FFF" d="M392.7 85.132l-8.88-5.392-5.851 3.379 2.305 3.993h8.999z"/><path fill="#DDD" d="M381.133 95.63h4.101l1.728-3.041h-5.829z"/><path stroke="#FFF" d="M381.133 95.63h4.101l1.728-3.041h-5.829z"/><path fill="#DDD" d="M389.906 97.833l4.285 7.436.294.17 1.373-2.46v-5.146z"/><path stroke="#FFF" d="M389.906 97.833l4.285 7.436.294.17 1.373-2.46v-5.146z"/><path fill="#DDD" d="M456.446 113.69l1.57 2.742h2.018v-2.742z"/><path stroke="#FFF" d="M456.446 113.69l1.57 2.742h2.018v-2.742z"/><path fill="#DDD" d="M425.986 310.97h2.623v-3.98h-2.623z"/><path stroke="#FFF" d="M425.986 310.97h2.623v-3.98h-2.623z"/><path fill="#DDD" d="M169.53 177.047l-2.798-4.846h-4.422v4.846z"/><path stroke="#FFF" d="M169.53 177.047l-2.798-4.846h-4.422v4.846z"/><path fill="#DDD" d="M162.31 172.201h-2.33v3.098h-4.891v1.748h7.22z"/><path stroke="#FFF" d="M162.31 172.201h-2.33v3.098h-4.891v1.748h7.22z"/><path fill="#DDD" d="M115.433 190.842l3.893 2.248 1.472-2.549-3.924-2.266z"/><path stroke="#FFF" d="M115.433 190.842l3.893 2.248 1.472-2.549-3.924-2.266z"/><path fill="#DDD" d="M116.874 186.35l1.375-2.325h-3.354v-5.501h-4.951v2.449l2.052 1.184v1.16h-5.561l-.012 4.96.012.02h4.589l4.409 2.545 1.44-2.567z"/><path stroke="#FFF" d="M116.874 186.35l1.375-2.325h-3.354v-5.501h-4.951v2.449l2.052 1.184v1.16h-5.561l-.012 4.96.012.02h4.589l4.409 2.545 1.44-2.567z"/><path d="M202.138 321.744l1.866-3.232 6.495-11.25v-3.858h-2.557v3.497l-2.575 4.459h-6.88v-8.52l-12.464-7.342h-10.67v4.77l-3.322 1.919v21.473l2.724 4.717v20.32l3.63 6.288v11.718l7.638 13.388h5.392l5.733-9.93-6.9-3.982 2.989-1.726v-13.05h4.61v-4.822l10.493-6.058v-3.894l-2.411-4.177-3.791-2.131v-8.577z" fill="#DDD"/><path d="M202.138 321.744l1.866-3.232 6.495-11.25v-3.858h-2.557v3.497l-2.575 4.459h-6.88v-8.52l-12.464-7.342h-10.67v4.77l-3.322 1.919v21.473l2.724 4.717v20.32l3.63 6.288v11.718l7.638 13.388h5.392l5.733-9.93-6.9-3.982 2.989-1.726v-13.05h4.61v-4.822l10.493-6.058v-3.894l-2.411-4.177-3.791-2.131v-8.577z" stroke="#FFF"/><path fill="#DDD" d="M175.353 295.498h10.67v-7.854h11.027l1.436-2.488-2.576-4.462v-2.369h-6.27v-8.076h-4.409l-9.609-5.548v-5.232h-2.369l-5.5 3.175v19.744z"/><path stroke="#FFF" d="M175.353 295.498h10.67v-7.854h11.027l1.436-2.488-2.576-4.462v-2.369h-6.27v-8.076h-4.409l-9.609-5.548v-5.232h-2.369l-5.5 3.175v19.744z"/><path fill="#DDD" d="M127.454 196.702h-5.234v2.88l7.91 4.568v-3.038l-2.676-1.54z"/><path stroke="#FFF" d="M127.454 196.702h-5.234v2.88l7.91 4.568v-3.038l-2.676-1.54z"/><path fill="#DDD" d="M197.671 389.261l.006.006 3.847 2.222 4.797-.008-12.467-7.198v4.978z"/><path stroke="#FFF" d="M197.671 389.261l.006.006 3.847 2.222 4.797-.008-12.467-7.198v4.978z"/><path fill="#DDD" d="M154.621 202.753l2.002 3.469v3.469h3.78l3.99 2.305h4.69v12.616l2.172 3.763h2.17l5.908-3.413-2.404-4.165v-3.238h2.368l2.94 1.697 3.133-1.907v-10.844l1.883-1.184-3.32-5.75h-4.822l-4.177 2.412-8.93-5.155-.01-.013h-5.5v6.74h-1.9v-4.712h-1.716z"/><path stroke="#FFF" d="M154.621 202.753l2.002 3.469v3.469h3.78l3.99 2.305h4.69v12.616l2.172 3.763h2.17l5.908-3.413-2.404-4.165v-3.238h2.368l2.94 1.697 3.133-1.907v-10.844l1.883-1.184-3.32-5.75h-4.822l-4.177 2.412-8.93-5.155-.01-.013h-5.5v6.74h-1.9v-4.712h-1.716z"/><path d="M204.004 318.511l-1.866 3.232v8.578l3.79 2.13-.006-.006h7.826l2.188-3.79V325.4l-11.932-6.889z" fill="#DDD"/><path d="M204.004 318.511l-1.866 3.232v8.578l3.79 2.13-.006-.006h7.826l2.188-3.79V325.4l-11.932-6.889z" stroke="#FFF"/><path fill="#DDD" d="M189.522 224.584l1.185 2.05 3.796-2.191h3.336l-3.258-5.644 3.342-5.71h-2.809l-4.484-7.768h-3.377l-1.882 1.184v8.704h4.15z"/><path stroke="#FFF" d="M189.522 224.584l1.185 2.05 3.796-2.191h3.336l-3.258-5.644 3.342-5.71h-2.809l-4.484-7.768h-3.377l-1.882 1.184v8.704h4.15z"/><path fill="#DDD" d="M197.839 224.443h5.516V213.09h-5.433l-3.341 5.71z"/><path stroke="#FFF" d="M197.839 224.443h5.516V213.09h-5.433l-3.341 5.71z"/><path fill="#DDD" d="M153.973 237.464h6.881v5.053h2.261v-17.905h5.968v-12.616h-4.69l-3.99-2.304h-3.78v-3.47l-2.002-3.47 2.257-3.91h1.716v-2.027h-5.257l-4.177 2.412v3.219l-4.176 2.412-2.258-1.304v20.696l-2.357 1.36 10.141 5.856z"/><path stroke="#FFF" d="M153.973 237.464h6.881v5.053h2.261v-17.905h5.968v-12.616h-4.69l-3.99-2.304h-3.78v-3.47l-2.002-3.47 2.257-3.91h1.716v-2.027h-5.257l-4.177 2.412v3.219l-4.176 2.412-2.258-1.304v20.696l-2.357 1.36 10.141 5.856z"/><path fill="#DDD" d="M114.894 178.524v5.501h.943l2.411-4.177v-3.376h-2.169z"/><path stroke="#FFF" d="M114.894 178.524v5.501h.943l2.411-4.177v-3.376h-2.169z"/><mask id="b" fill="#fff"><use xlink:href="#a"/></mask><path fill="#DDD" mask="url(#b)" d="M214.478 383.341h4.099v-1.929h-4.099z"/><path stroke="#FFF" mask="url(#b)" d="M214.478 383.341h4.099v-1.929h-4.099z"/><path fill="#DDD" mask="url(#b)" d="M437.474 142.853l1.745-3.062v-6.048h2.19l4.979-2.874v4.58l-3.332-.003 2.2 3.812-2.102 3.595z"/><path stroke="#FFF" mask="url(#b)" d="M437.474 142.853l1.745-3.062v-6.048h2.19l4.979-2.874v4.58l-3.332-.003 2.2 3.812-2.102 3.595z"/><path d="M493.434 158.387l-2.732 4.616v6.374l-7.81 4.509 4.077 7.06 10.238-5.912v-4.823l4.177-2.411v-4.823l-7.95-4.59z" fill="#DDD" mask="url(#b)"/><path d="M493.434 158.387l-2.732 4.616v6.374l-7.81 4.509 4.077 7.06 10.238-5.912v-4.823l4.177-2.411v-4.823l-7.95-4.59z" stroke="#FFF" mask="url(#b)"/><path fill="#DDD" mask="url(#b)" d="M480.351 154.756l-2.016 1.184v2.322h2.016z"/><path stroke="#FFF" mask="url(#b)" d="M480.351 154.756l-2.016 1.184v2.322h2.016z"/><path d="M479.385 175.91h-5.081l-2.884 4.998h-11.671l.17.299.002 7.002 2.41 4.176 4.178-2.411h4.822l15.638-9.028-4.076-7.06-3.508 2.025" fill="#DDD" mask="url(#b)"/><path d="M479.385 175.91h-5.081l-2.884 4.998h-11.671l.17.299.002 7.002 2.41 4.176 4.178-2.411h4.822l15.638-9.028-4.076-7.06-3.508 2.025z" stroke="#FFF" mask="url(#b)"/><path fill="#DDD" mask="url(#b)" d="M549.298 125.573l-2.971-1.714-3.331 1.922 1.754 3.037.757 1.313 3.79-2.189z"/><path stroke="#FFF" mask="url(#b)" d="M549.298 125.573l-2.971-1.714-3.331 1.922 1.754 3.037.757 1.313 3.79-2.189z"/><path fill="#DDD" mask="url(#b)" d="M395.858 102.978l-1.374 2.46 3.49 2.016v-3.218z"/><path stroke="#FFF" mask="url(#b)" d="M395.858 102.978l-1.374 2.46 3.49 2.016v-3.218z"/><path fill="#DDD" mask="url(#b)" d="M528.309 102.322l-3.847 2.221h-5.01v1.645l2.05 1.184-3.275 1.892h7.682l-1.94 3.36H521.6l-3.012 1.739v.918h10.816v-3.229l5.302-3.06h3.816l4.474-2.584v-2.901H530.36z"/><path stroke="#FFF" mask="url(#b)" d="M528.309 102.322l-3.847 2.221h-5.01v1.645l2.05 1.184-3.275 1.892h7.682l-1.94 3.36H521.6l-3.012 1.739v.918h10.816v-3.229l5.302-3.06h3.816l4.474-2.584v-2.901H530.36z"/><path fill="#DDD" mask="url(#b)" d="M480.574 103.547h-3.528v5.45l5.457 9.454 1.572-.908h7.978l8.67 5.005v4.218l11.795-6.811v-2.37l-13.815-7.975H495.7l.012-2.357-5.005-2.89-2.56 4.436h-4.539z"/><path stroke="#FFF" mask="url(#b)" d="M480.574 103.547h-3.528v5.45l5.457 9.454 1.572-.908h7.978l8.67 5.005v4.218l11.795-6.811v-2.37l-13.815-7.975H495.7l.012-2.357-5.005-2.89-2.56 4.436h-4.539z"/><path d="M536.006 93.863h-8.488l-1.955 1.129v2.74h-2.503l-.01-3.349 3.268-1.886h9.688v1.366zm14.486-8.63l-8.22-4.8h-10.79l-2.42-4.192-8.813-5.089-2.721 1.571-4.176.017-7.27-4.136h-8.462l-5.15 3.019-5.447.023.01 2.369 2.815 4.828.01 2.369-14.87.063-4.087-2.338-5.04.021-7.102 4.168.02 5.088 6.014 3.438.009 2.24 3.68-2.125h6.649l.019.018v4.309l-4.584 2.647 2.774 4.806h7.234l3.033 5.252h2.272v-9.64l5.58-3.221 5.982 3.454 1.742 3.017h7.314l3.737 6.487h4.529l4.689-2.707v-1.646h5.01l3.847-2.222 2.05 1.185h12.637v-2.369l-.084-.145-1.943-3.367h2.369l7.154-12.392z" fill="#DDD" mask="url(#b)"/><path d="M536.006 93.863h-8.488l-1.955 1.129v2.74h-2.503l-.01-3.349 3.268-1.886h9.688v1.366zm14.486-8.63l-8.22-4.8h-10.79l-2.42-4.192-8.813-5.089-2.721 1.571-4.176.017-7.27-4.136h-8.462l-5.15 3.019-5.447.023.01 2.369 2.815 4.828.01 2.369-14.87.063-4.087-2.338-5.04.021-7.102 4.168.02 5.088 6.014 3.438.009 2.24 3.68-2.125h6.649l.019.018v4.309l-4.584 2.647 2.774 4.806h7.234l3.033 5.252h2.272v-9.64l5.58-3.221 5.982 3.454 1.742 3.017h7.314l3.737 6.487h4.529l4.689-2.707v-1.646h5.01l3.847-2.222 2.05 1.185h12.637v-2.369l-.084-.145-1.943-3.367h2.369l7.154-12.392z" stroke="#FFF" mask="url(#b)"/><path fill="#DDD" mask="url(#b)" d="M468.512 115.268v-3.922l-2.57-4.456-2.189 1.264-3.284-1.897v2.926l2.813 4.876 3.4-1.96z"/><path stroke="#FFF" mask="url(#b)" d="M468.512 115.268v-3.922l-2.57-4.456-2.189 1.264-3.284-1.897v2.926l2.813 4.876 3.4-1.96z"/><path fill="#DDD" mask="url(#b)" d="M531.835 119.49v2.029h-4.788l-2.053 1.184v6.38l-2.259 1.304.001 6.603-6.51 3.771v3.12H501.86l2.975-5.151-4.113-2.375v-9.59l11.796-6.81 7.423.001 1.505-2.607h3.548v3.368l2.052-1.227z"/><path stroke="#FFF" mask="url(#b)" d="M531.835 119.49v2.029h-4.788l-2.053 1.184v6.38l-2.259 1.304.001 6.603-6.51 3.771v3.12H501.86l2.975-5.151-4.113-2.375v-9.59l11.796-6.81 7.423.001 1.505-2.607h3.548v3.368l2.052-1.227z"/><path fill="#DDD" mask="url(#b)" d="M431.59 233.876v4.443h3.705l2.386-4.133v-4.381h-6.091z"/><path stroke="#FFF" mask="url(#b)" d="M431.59 233.876v4.443h3.705l2.386-4.133v-4.381h-6.091z"/><path fill="#DDD" mask="url(#b)" d="M170.787 13.194h-15.55l-4.176 2.412h15.549z"/><path stroke="#FFF" mask="url(#b)" d="M170.787 13.194h-15.55l-4.176 2.412h15.549z"/><path fill="#DDD" mask="url(#b)" d="M388.973 9.883l.003.002h3.465l4.177-2.412V5.915h-9.242l-2.896 1.673h-9.947l9.208 5.315z"/><path stroke="#FFF" mask="url(#b)" d="M388.973 9.883l.003.002h3.465l4.177-2.412V5.915h-9.242l-2.896 1.673h-9.947l9.208 5.315z"/><path fill="#DDD" mask="url(#b)" d="M155.089 171.197l-15.836-9.143h-4.1l-5.946 3.434h10.25l9.878 5.702z"/><path stroke="#FFF" mask="url(#b)" d="M155.089 171.197l-15.836-9.143h-4.1l-5.946 3.434h10.25l9.878 5.702z"/><path fill="#DDD" mask="url(#b)" d="M734.24 289.947l-5.905-3.426v-6.833l-4.954-8.584v-7.732h-2.01l-2.412 4.176v7.716l-4.464 7.731-14.112-8.147 4.751-8.23h-14.009l-5.079 8.798-5.47-3.156-14.409 8.319v4.822l-10.778 6.222h-9.588l-5.757 10.033v25.536l-4.177 2.411v3.582h7.392l5.991-3.46h8.932l12.205-7.047h13.331l4.677 8.103 6.592-3.805v16.642H714.5l4.722-8.18 10.106-5.834 10.75-18.618v-4.823l-5.837-10.11z"/><path stroke="#FFF" mask="url(#b)" d="M734.24 289.947l-5.905-3.426v-6.833l-4.954-8.584v-7.732h-2.01l-2.412 4.176v7.716l-4.464 7.731-14.112-8.147 4.751-8.23h-14.009l-5.079 8.798-5.47-3.156-14.409 8.319v4.822l-10.778 6.222h-9.588l-5.757 10.033v25.536l-4.177 2.411v3.582h7.392l5.991-3.46h8.932l12.205-7.047h13.331l4.677 8.103 6.592-3.805v16.642H714.5l4.722-8.18 10.106-5.834 10.75-18.618v-4.823l-5.837-10.11z"/><path fill="#DDD" mask="url(#b)" d="M650.426 216.847l-1.246-.001-1.455 2.52h2.701z"/><path stroke="#FFF" mask="url(#b)" d="M650.426 216.847l-1.246-.001-1.455 2.52h2.701z"/><path fill="#DDD" mask="url(#b)" d="M472.04 274.466l-8.444 4.875v10.454l-3.338 5.661v5.531l2.411 4.176h4.823l5.254-9.098v-4.824l2.972-5.147v-4.823l3.378-5.85v-4.823l-2.41-4.177z"/><path stroke="#FFF" mask="url(#b)" d="M472.04 274.466l-8.444 4.875v10.454l-3.338 5.661v5.531l2.411 4.176h4.823l5.254-9.098v-4.824l2.972-5.147v-4.823l3.378-5.85v-4.823l-2.41-4.177z"/><path d="M335.869 69.11l-3.183 1.839 4.26 2.422 1.576-2.728-2.653-1.532zm8.474 2.95l-5.176-8.964 2.41-4.176 6.26 3.613-2.116 3.664 3.775 6.539.005.005h2.615l2.266 3.927-2.582 3.395h-9.303l-4.17 2.418 6.016-10.42z" fill="#DDD" mask="url(#b)"/><path d="M335.869 69.11l-3.183 1.839 4.26 2.422 1.576-2.728-2.653-1.532zm8.474 2.95l-5.176-8.964 2.41-4.176 6.26 3.613-2.116 3.664 3.775 6.539.005.005h2.615l2.266 3.927-2.582 3.395h-9.303l-4.17 2.418 6.016-10.42z" stroke="#FFF" mask="url(#b)"/><path fill="#DDD" mask="url(#b)" d="M214.324 89.657h9.868l3.107-5.382h-9.868z"/><path stroke="#FFF" mask="url(#b)" d="M214.324 89.657h9.868l3.107-5.382h-9.868z"/><path fill="#DDD" mask="url(#b)" d="M179.902 45.766h5.535l1.742-3.018h-5.534z"/><path stroke="#FFF" mask="url(#b)" d="M179.902 45.766h5.535l1.742-3.018h-5.534z"/><path fill="#DDD" mask="url(#b)" d="M208.218 33.434h-3.801l-1.197 2.073h3.8z"/><path stroke="#FFF" mask="url(#b)" d="M208.218 33.434h-3.801l-1.197 2.073h3.8z"/><path fill="#DDD" mask="url(#b)" d="M188.972 7.987h-6.97l-1.197 2.073h6.97z"/><path stroke="#FFF" mask="url(#b)" d="M188.972 7.987h-6.97l-1.197 2.073h6.97z"/><path fill="#DDD" mask="url(#b)" d="M187.322 20.9l4.167-2.421h-8.024l-2.818 4.833 4.176-2.412z"/><path stroke="#FFF" mask="url(#b)" d="M187.322 20.9l4.167-2.421h-8.024l-2.818 4.833 4.176-2.412z"/><path fill="#DDD" mask="url(#b)" d="M209.446 9.86l-1.908 3.303h-22.304l4.176 2.342h24.891l18.624-10.75h15.355l6.745-3.896h-27.223l-4.177 2.412H212.67l-4.177 2.411h-10.417l2.412 4.177z"/><path stroke="#FFF" mask="url(#b)" d="M209.446 9.86l-1.908 3.303h-22.304l4.176 2.342h24.891l18.624-10.75h15.355l6.745-3.896h-27.223l-4.177 2.412H212.67l-4.177 2.411h-10.417l2.412 4.177z"/><path fill="#DDD" mask="url(#b)" d="M312.896 30.514l1.627-2.818-4.374-7.576h7.427l3.527-6.107-2.412-4.177 5.562-3.21h6.194l.003.002 5.561-3.21h-20.238l-4.177-2.413h-26.262l-1.976 3.423h-25.87l-11.289 6.561h-10.096l2.411 4.177h15.371l.017.016v7.11l4.408 7.635-8.538 4.93v15.57l11.541 6.551 10.105-17.503h15.387l.021.021 3.24-5.612h8.695l1.968-3.386h12.151z"/><path stroke="#FFF" mask="url(#b)" d="M312.896 30.514l1.627-2.818-4.374-7.576h7.427l3.527-6.107-2.412-4.177 5.562-3.21h6.194l.003.002 5.561-3.21h-20.238l-4.177-2.413h-26.262l-1.976 3.423h-25.87l-11.289 6.561h-10.096l2.411 4.177h15.371l.017.016v7.11l4.408 7.635-8.538 4.93v15.57l11.541 6.551 10.105-17.503h15.387l.021.021 3.24-5.612h8.695l1.968-3.386h12.151z"/><path fill="#DDD" mask="url(#b)" d="M140.16 27.365l-4.177 2.412v2.091h13.93l2.61-1.507 9.313-.014-2.412-4.176 2.777-4.809h-4.823l-2.41 4.176-11.094-6.403h-9.739l-10.114 5.819h11.962z"/><path stroke="#FFF" mask="url(#b)" d="M140.16 27.365l-4.177 2.412v2.091h13.93l2.61-1.507 9.313-.014-2.412-4.176 2.777-4.809h-4.823l-2.41 4.176-11.094-6.403h-9.739l-10.114 5.819h11.962z"/><path fill="#DDD" mask="url(#b)" d="M227.802 41.545l5.521-3.188-10.078-5.818v-4.823l-12.71-7.34v3.67l-6.606-3.813h-9.5l-5.845 3.375v4.823h21.017l4.318 7.479-8.19 4.73-.008-.007h-7.652l-1.297 2.247 8.947-.01 3.02 5.23h4.822l2.017 3.495.008.008 2.595-.008-2.92-5.06h4.821l2.375-1.371-3.395-5.88h4.823z"/><path stroke="#FFF" mask="url(#b)" d="M227.802 41.545l5.521-3.188-10.078-5.818v-4.823l-12.71-7.34v3.67l-6.606-3.813h-9.5l-5.845 3.375v4.823h21.017l4.318 7.479-8.19 4.73-.008-.007h-7.652l-1.297 2.247 8.947-.01 3.02 5.23h4.822l2.017 3.495.008.008 2.595-.008-2.92-5.06h4.821l2.375-1.371-3.395-5.88h4.823z"/><path fill="#DDD" mask="url(#b)" d="M166.009 21.958l2.412 4.177 10.308-5.952-6.46-.004-3.016 1.779z"/><path stroke="#FFF" mask="url(#b)" d="M166.009 21.958l2.412 4.177 10.308-5.952-6.46-.004-3.016 1.779z"/><path fill="#DDD" mask="url(#b)" d="M144.125 177.047h4.883v-1.748h-4.883z"/><path stroke="#FFF" mask="url(#b)" d="M144.125 177.047h4.883v-1.748h-4.883z"/><path fill="#DDD" mask="url(#b)" d="M165.715 32.529h3.368v-1.993h-3.368z"/><path stroke="#FFF" mask="url(#b)" d="M165.715 32.529h3.368v-1.993h-3.368z"/><path d="M557.738 203.271v8.44h4.522v-2.778l-3.269-5.662h-1.253z" fill="#DDD" mask="url(#b)"/><path d="M557.738 203.271v8.44h4.522v-2.778l-3.269-5.662h-1.253z" stroke="#FFF" mask="url(#b)"/><path d="M667.879 201.282h3.255v-3.979h-3.255v3.979zm3.255-6.692h1.628v-4.34h-1.628v4.34zm-15.128 10.461l4.848-2.799-.635-1.1-4.848 2.799.635 1.1zm7.879-10.674h1.269v-2.644h-1.269v2.644zm16.853 11.018l-1.827-3.165-5.482 3.165h-3.99v2.411h4.822v3.495l2.301 1.328 4.176-2.412v-4.822zm-13.711-24.685l-2.411 4.176 2.411 4.177h-3.124l-.003-.003-2.412-4.176v-8.816h2.859l2.68 4.642z" fill="#DDD" mask="url(#b)"/><path d="M667.879 201.282h3.255v-3.979h-3.255v3.979zm3.255-6.692h1.628v-4.34h-1.628v4.34zm-15.128 10.461l4.848-2.799-.635-1.1-4.848 2.799.635 1.1zm7.879-10.674h1.269v-2.644h-1.269v2.644zm16.853 11.018l-1.827-3.165-5.482 3.165h-3.99v2.411h4.822v3.495l2.301 1.328 4.176-2.412v-4.822zm-13.711-24.685l-2.411 4.176 2.411 4.177h-3.124l-.003-.003-2.412-4.176v-8.816h2.859l2.68 4.642z" stroke="#FFF" mask="url(#b)"/><path fill="#DDD" mask="url(#b)" d="M361.28 233.449h2.688v-2.688h-2.688z"/><path stroke="#FFF" mask="url(#b)" d="M361.28 233.449h2.688v-2.688h-2.688z"/><path fill="#DDD" mask="url(#b)" d="M356.86 199.73v-2.37l-3.257-1.88-3.157 1.823v3.102l1.184 2.052v8.563l2.63-.003v-6.786z"/><path stroke="#FFF" mask="url(#b)" d="M356.86 199.73v-2.37l-3.257-1.88-3.157 1.823v3.102l1.184 2.052v8.563l2.63-.003v-6.786z"/><path fill="#DDD" mask="url(#b)" d="M374.434 208.82l2.695 1.556.07.042 5.086-8.806v-5.118l3.584-2.07-2.232-3.865h-8.578l-2.05 1.185-6.46.017-4.027-2.326h-3.613v4.351l-2.05 3.575v2.369l-2.6 4.502v6.786l4.897-.005 3.706 6.42 8.14-.006v-2.662z"/><path stroke="#FFF" mask="url(#b)" d="M374.434 208.82l2.695 1.556.07.042 5.086-8.806v-5.118l3.584-2.07-2.232-3.865h-8.578l-2.05 1.185-6.46.017-4.027-2.326h-3.613v4.351l-2.05 3.575v2.369l-2.6 4.502v6.786l4.897-.005 3.706 6.42 8.14-.006v-2.662z"/><path fill="#DDD" mask="url(#b)" d="M612.136 190.132l5.194 2.999v-5.232h6.476v-5.979l-5.933-3.426h-6.78v-4.683h-1.824l-.002-.002-2.87-5.143-4.652 2.805v7.024l2.925 1.689 1.878 3.254v20.376l5.792 10.031h3.134l2.45-1.415-5.076-2.93-3.728-6.457v-11.17z"/><path stroke="#FFF" mask="url(#b)" d="M612.136 190.132l5.194 2.999v-5.232h6.476v-5.979l-5.933-3.426h-6.78v-4.683h-1.824l-.002-.002-2.87-5.143-4.652 2.805v7.024l2.925 1.689 1.878 3.254v20.376l5.792 10.031h3.134l2.45-1.415-5.076-2.93-3.728-6.457v-11.17z"/><path fill="#DDD" mask="url(#b)" d="M441.669 129.5v-1.103h-2.132v1.324l-2.33 4.022h2.012z"/><path stroke="#FFF" mask="url(#b)" d="M441.669 129.5v-1.103h-2.132v1.324l-2.33 4.022h2.012z"/><path fill="#DDD" mask="url(#b)" d="M434.709 138.054h-9.91l-3.048 1.761-4.177-2.41h-3.093l-1.793 3.106v25.142h23.788l4.59-2.65L430.79 145.2v-4.823l4.216 7.305 2.468-4.83-2.76-4.81z"/><path stroke="#FFF" mask="url(#b)" d="M434.709 138.054h-9.91l-3.048 1.761-4.177-2.41h-3.093l-1.793 3.106v25.142h23.788l4.59-2.65L430.79 145.2v-4.823l4.216 7.305 2.468-4.83-2.76-4.81z"/><path fill="#DDD" mask="url(#b)" d="M441.669 129.5l-2.45 4.243h2.191l4.978-2.874 5.701-3.292v-6.715H441.1l-2.92 1.685 1.357 2.35v3.5h2.132z"/><path stroke="#FFF" mask="url(#b)" d="M441.669 129.5l-2.45 4.243h2.191l4.978-2.874 5.701-3.292v-6.715H441.1l-2.92 1.685 1.357 2.35v3.5h2.132z"/><path fill="#DDD" mask="url(#b)" d="M468.954 206.464l-6.804-3.928-1.952-3.304-2.182-1.26v-2.925l-2.607-4.516-4.61-2.66h-8.134v2.152l-5.194 8.9v5.433l-4.07 2.35 4.449 2.57 4.4 7.62 4.863 2.807h8.986l3.879-2.24h6.75l6.35-10.999z"/><path stroke="#FFF" mask="url(#b)" d="M468.954 206.464l-6.804-3.928-1.952-3.304-2.182-1.26v-2.925l-2.607-4.516-4.61-2.66h-8.134v2.152l-5.194 8.9v5.433l-4.07 2.35 4.449 2.57 4.4 7.62 4.863 2.807h8.986l3.879-2.24h6.75l6.35-10.999z"/><path d="M338.429 136.978v1.645l-12.646 7.302v5.32l9.925 5.731h.008-.008l16.617 9.593v3.123l6.519 3.765 19.867-11.47v-2.217l-7.716-4.455 2.32-4.036v-10.764l-5.394-9.344 1.624-2.813V121.4h-14.363l-9.897 5.714v5.905l-6.856 3.96z" fill="#DDD" mask="url(#b)"/><path d="M338.429 136.978v1.645l-12.646 7.302v5.32l9.925 5.731h.008-.008l16.617 9.593v3.123l6.519 3.765 19.867-11.47v-2.217l-7.716-4.455 2.32-4.036v-10.764l-5.394-9.344 1.624-2.813V121.4h-14.363l-9.897 5.714v5.905l-6.856 3.96z" stroke="#FFF" mask="url(#b)"/><path fill="#DDD" mask="url(#b)" d="M475.966 195.675l-7.358 4.248h-4.823l-1.213-2.102-2.374 1.411 1.952 3.304 6.804 3.928h4.124l-6.35 10.999h-6.75l-3.88 2.24-1.333 2.309v10.558l1.334 2.288 4.709-8.156 10.683-6.168 9.298-16.105v-8.754z"/><path stroke="#FFF" mask="url(#b)" d="M475.966 195.675l-7.358 4.248h-4.823l-1.213-2.102-2.374 1.411 1.952 3.304 6.804 3.928h4.124l-6.35 10.999h-6.75l-3.88 2.24-1.333 2.309v10.558l1.334 2.288 4.709-8.156 10.683-6.168 9.298-16.105v-8.754z"/><path fill="#DDD" mask="url(#b)" d="M397.592 283.841h9.221l3.494-2.017-5.029-2.857v-9.956h5.245v-5.788h-5.245v-10.036l-1.184-2.052h-5.618v3.09l-5.377-.008-3.826-6.627h-5.169l-3.299 1.892 2.415 4.182v12.544l-4.768 8.258v6.913h14.874z"/><path stroke="#FFF" mask="url(#b)" d="M397.592 283.841h9.221l3.494-2.017-5.029-2.857v-9.956h5.245v-5.788h-5.245v-10.036l-1.184-2.052h-5.618v3.09l-5.377-.008-3.826-6.627h-5.169l-3.299 1.892 2.415 4.182v12.544l-4.768 8.258v6.913h14.874z"/><path fill="#DDD" mask="url(#b)" d="M413.741 281.824h-3.434l-3.494 2.017h-9.22l-4.267-2.463h-14.874v2.553l7.063 12.233v11.097l4.807 8.326 2.233-1.29h6.557v-18.88h3.002v-9.729h7.674l1.394-2.389h3.411z"/><path stroke="#FFF" mask="url(#b)" d="M413.741 281.824h-3.434l-3.494 2.017h-9.22l-4.267-2.463h-14.874v2.553l7.063 12.233v11.097l4.807 8.326 2.233-1.29h6.557v-18.88h3.002v-9.729h7.674l1.394-2.389h3.411z"/><path fill="#DDD" mask="url(#b)" d="M378.71 237.211h6.692v-4.316l-1.185-2.052 1.185-2.05v-2.37h-2.971v-2.595h-4.582v2.595h-6.33v6.975l5.034 8.72 2.158-1.288z"/><path stroke="#FFF" mask="url(#b)" d="M378.71 237.211h6.692v-4.316l-1.185-2.052 1.185-2.05v-2.37h-2.971v-2.595h-4.582v2.595h-6.33v6.975l5.034 8.72 2.158-1.288z"/><path fill="#DDD" mask="url(#b)" d="M392.32 219.645l-2.414 4.183h-7.475v2.595h2.972v2.368l-1.185 2.052 1.185 2.052v4.316h-6.692v3.62l-2.157 1.286 1.975 3.421 3.243-1.868 1.32.763h2.837l4.013-2.317-.018-6.12 4.23-2.444v-7.965l1.608-2.784v-3.158z"/><path stroke="#FFF" mask="url(#b)" d="M392.32 219.645l-2.414 4.183h-7.475v2.595h2.972v2.368l-1.185 2.052 1.185 2.052v4.316h-6.692v3.62l-2.157 1.286 1.975 3.421 3.243-1.868 1.32.763h2.837l4.013-2.317-.018-6.12 4.23-2.444v-7.965l1.608-2.784v-3.158z"/><path fill="#DDD" mask="url(#b)" d="M607.88 167.772l-4.808-8.328h-4.402v-3.44l2.748-1.585.021-5.674-4.574-2.64-3.92-2.264h-5.672l-4.215 7.3h-7.265v-3.633h-8.289l-11.309-6.44h-3.579l-5.137-2.964v-4.557l-1.972-3.416 3.79-2.188v-2.37l-2.97-1.715-3.33 1.923h-3.78l-7.383-4.262v-2.03l-2.43-4.207v-3.23l5.303-3.06h3.816l4.473-2.583v-5.271l-.084-.146-1.944-3.366h2.37l7.154-12.393 12.858 7.424 2.806 4.879h4.353l11.584 6.688h11.936l5.194 2.998h5.055l3.516-2.03h6.13l1.976-3.422-.02-4.082h4.675l3.388-1.956-.02-2.387h6.86v-2.37l-3.466-2h-8.742V83.34h4.021v-9.942h7.604l23.71 13.689v3.27h4.202l4.564-2.634 2.316 4.01v6.914h-4.598l2.774 4.763-6.28 3.194h-2.37l-3.28 5.68h-.028l-4.177 2.412-3.032-5.251h-2.652l-4.269 7.394 5.298 3.058h8.818v1.244l-6.617 3.82v3.53h4.823l6.107 10.577v9.908l-8.67 15.016h-6.2l-7.88 4.55-1.357-2.35h-6.693l-2.323-4.023h-4.802z"/><path stroke="#FFF" mask="url(#b)" d="M607.88 167.772l-4.808-8.328h-4.402v-3.44l2.748-1.585.021-5.674-4.574-2.64-3.92-2.264h-5.672l-4.215 7.3h-7.265v-3.633h-8.289l-11.309-6.44h-3.579l-5.137-2.964v-4.557l-1.972-3.416 3.79-2.188v-2.37l-2.97-1.715-3.33 1.923h-3.78l-7.383-4.262v-2.03l-2.43-4.207v-3.23l5.303-3.06h3.816l4.473-2.583v-5.271l-.084-.146-1.944-3.366h2.37l7.154-12.393 12.858 7.424 2.806 4.879h4.353l11.584 6.688h11.936l5.194 2.998h5.055l3.516-2.03h6.13l1.976-3.422-.02-4.082h4.675l3.388-1.956-.02-2.387h6.86v-2.37l-3.466-2h-8.742V83.34h4.021v-9.942h7.604l23.71 13.689v3.27h4.202l4.564-2.634 2.316 4.01v6.914h-4.598l2.774 4.763-6.28 3.194h-2.37l-3.28 5.68h-.028l-4.177 2.412-3.032-5.251h-2.652l-4.269 7.394 5.298 3.058h8.818v1.244l-6.617 3.82v3.53h4.823l6.107 10.577v9.908l-8.67 15.016h-6.2l-7.88 4.55-1.357-2.35h-6.693l-2.323-4.023h-4.802z"/><path fill="#DDD" mask="url(#b)" d="M584.406 159.909l1.184-2.052v-2.368h-6.757l-1.184-2.052-2.052 1.184v6.4l2.156 3.734h3.135l3.08-1.778 2.27 3.932 1.105-1.913z"/><path stroke="#FFF" mask="url(#b)" d="M584.406 159.909l1.184-2.052v-2.368h-6.757l-1.184-2.052-2.052 1.184v6.4l2.156 3.734h3.135l3.08-1.778 2.27 3.932 1.105-1.913z"/><path fill="#DDD" mask="url(#b)" d="M419.279 283.299h-4.686l7.285 12.617h6.73l4.522-7.734v-7.341l-6.382-3.685h-3.923z"/><path stroke="#FFF" mask="url(#b)" d="M419.279 283.299h-4.686l7.285 12.617h6.73l4.522-7.734v-7.341l-6.382-3.685h-3.923z"/><path fill="#DDD" mask="url(#b)" d="M314.793 188.123l-3.76-6.511h-5.954v.137l-2.416 4.175 1.844 3.197h7.031v1.483h-6.17l1.425 2.475h9.49v-2.373z"/><path stroke="#FFF" mask="url(#b)" d="M314.793 188.123l-3.76-6.511h-5.954v.137l-2.416 4.175 1.844 3.197h7.031v1.483h-6.17l1.425 2.475h9.49v-2.373z"/><path fill="#DDD" mask="url(#b)" d="M336.564 201.233l-3.537-2.042h-6.467v8.42l-2.052 1.185-.065-.037v2.207l3.575 2.063v3.48l4.156-2.432h6.811v-4.092l1.184-2.05v-6.707z"/><path stroke="#FFF" mask="url(#b)" d="M336.564 201.233l-3.537-2.042h-6.467v8.42l-2.052 1.185-.065-.037v2.207l3.575 2.063v3.48l4.156-2.432h6.811v-4.092l1.184-2.05v-6.707z"/><path fill="#DDD" mask="url(#b)" d="M323.713 194.262h-5.375l-2.052-1.185h-3.967v1.646l-3.418 2.007 3.145 5.447 2.172-1.24h3.553l1.55 2.695v2.17l5.186 2.994 2.052-1.184v-8.421z"/><path stroke="#FFF" mask="url(#b)" d="M323.713 194.262h-5.375l-2.052-1.185h-3.967v1.646l-3.418 2.007 3.145 5.447 2.172-1.24h3.553l1.55 2.695v2.17l5.186 2.994 2.052-1.184v-8.421z"/><path fill="#DDD" mask="url(#b)" d="M389.906 97.833h5.952v-3.06h-5.128l-3.768-2.185-1.728 3.042h-4.1l1.58 2.903h3.059l1.625 2.814 6.793 3.922z"/><path stroke="#FFF" mask="url(#b)" d="M389.906 97.833h5.952v-3.06h-5.128l-3.768-2.185-1.728 3.042h-4.1l1.58 2.903h3.059l1.625 2.814 6.793 3.922z"/><path fill="#DDD" mask="url(#b)" d="M404.61 101.43l-.002-.002-4.213-2.432-2.433-4.223h-2.104v8.205l2.116 1.258 2.462 1.427h4.18v-4.233z"/><path stroke="#FFF" mask="url(#b)" d="M404.61 101.43l-.002-.002-4.213-2.432-2.433-4.223h-2.104v8.205l2.116 1.258 2.462 1.427h4.18v-4.233z"/><path fill="#DDD" mask="url(#b)" d="M397.975 107.454v4.823l2.46-1.415v-.995l-.035.02.036-.02v-4.204l-2.461-1.427z"/><path stroke="#FFF" mask="url(#b)" d="M397.975 107.454v4.823l2.46-1.415v-.995l-.035.02.036-.02v-4.204l-2.461-1.427z"/><path fill="#DDD" mask="url(#b)" d="M397.962 94.773l2.434 4.223 4.212 2.432.002.002h10.165l2.68 1.548 2.392-4.142v-1.003h-2.411l-5.298-8.93h-10.782z"/><path stroke="#FFF" mask="url(#b)" d="M397.962 94.773l2.434 4.223 4.212 2.432.002.002h10.165l2.68 1.548 2.392-4.142v-1.003h-2.411l-5.298-8.93h-10.782z"/><path d="M404.616 107.454l-4.18 2.413v.995l-2.461 1.415 5.708 9.887 2.412-4.176-2.412-4.177 2.412-4.177h8.102v-2.18h-9.581zm2.144 18.773h6.295v-1.447h-6.295v1.447z" fill="#DDD" mask="url(#b)"/><path d="M404.616 107.454l-4.18 2.413v.995l-2.461 1.415 5.708 9.887 2.412-4.176-2.412-4.177 2.412-4.177h8.102v-2.18h-9.581zm2.144 18.773h6.295v-1.447h-6.295v1.447z" stroke="#FFF" mask="url(#b)"/><path fill="#DDD" mask="url(#b)" d="M403.316 202.246l-9.43 5.444h-5.171l-3.082 5.34v3.479l4.273 7.319 2.415-4.183h3.44v-2.57l3.452-1.993 4.166 2.406h3.153l3.449-1.992h10.03l-3.233-5.601-5.595-3.23v-3.092l-3.321-5.751h-1.992z"/><path stroke="#FFF" mask="url(#b)" d="M403.316 202.246l-9.43 5.444h-5.171l-3.082 5.34v3.479l4.273 7.319 2.415-4.183h3.44v-2.57l3.452-1.993 4.166 2.406h3.153l3.449-1.992h10.03l-3.233-5.601-5.595-3.23v-3.092l-3.321-5.751h-1.992z"/><path fill="#DDD" mask="url(#b)" d="M416.778 209.895l3.234 5.602 1.184 2.05h5.966l1.184 2.097h4.378l4.837-2.75h4.689l-4.4-7.62-4.45-2.568 4.07-2.35v-5.434h-3.268l-2.051 1.184h-2.37v-5.225l-4.44 2.564v2.368l-4.952 2.859-1.185-2.051h-2.91l-5.111 2.952v3.092z"/><path stroke="#FFF" mask="url(#b)" d="M416.778 209.895l3.234 5.602 1.184 2.05h5.966l1.184 2.097h4.378l4.837-2.75h4.689l-4.4-7.62-4.45-2.568 4.07-2.35v-5.434h-3.268l-2.051 1.184h-2.37v-5.225l-4.44 2.564v2.368l-4.952 2.859-1.185-2.051h-2.91l-5.111 2.952v3.092z"/><path fill="#DDD" mask="url(#b)" d="M386.962 163.64v2.369l1.753 3.037v9.104l-5.276 9.139v3.27h.197l2.232 3.866v4.766l2.366 4.098h-3.742v1.963l4.223 2.438h5.17l9.43-5.444 2.555-4.424h1.992v-2.92l-3.246-5.624 3.093-5.358h2.34v-10.71l-19.832-11.45z"/><path stroke="#FFF" mask="url(#b)" d="M386.962 163.64v2.369l1.753 3.037v9.104l-5.276 9.139v3.27h.197l2.232 3.866v4.766l2.366 4.098h-3.742v1.963l4.223 2.438h5.17l9.43-5.444 2.555-4.424h1.992v-2.92l-3.246-5.624 3.093-5.358h2.34v-10.71l-19.832-11.45z"/><path fill="#DDD" mask="url(#b)" d="M336.351 127.115l-1.557-2.697-3.08 5.337-8.423 4.86v8.425l-9.099 5.254h11.591v-2.369l12.646-7.302v-1.644l6.856-3.96v-5.904z"/><path stroke="#FFF" mask="url(#b)" d="M336.351 127.115l-1.557-2.697-3.08 5.337-8.423 4.86v8.425l-9.099 5.254h11.591v-2.369l12.646-7.302v-1.644l6.856-3.96v-5.904z"/><path fill="#DDD" mask="url(#b)" d="M347.578 188.844v-2.621h-2.112l-12.439 7.181v5.787l3.537 2.042 3.605-.005v-3.925h10.277l3.157-1.822v-3.159z"/><path stroke="#FFF" mask="url(#b)" d="M347.578 188.844v-2.621h-2.112l-12.439 7.181v5.787l3.537 2.042 3.605-.005v-3.925h10.277l3.157-1.822v-3.159z"/><path d="M366.076 95.385l-2.068-1.185 1.95-3.379 2.377-4.115-2.967-1.714-1.353-.78-5.016-2.897-11.072 6.392h-4.823l5.17 8.955-3.461 5.994h-.01l2.045 1.168h4.935l4.01 2.332 2.41-4.177h7.873l2.863-1.653-2.863-4.941zm4.209 12.093h1.269v-2.645h-1.27v2.645z" fill="#DDD" mask="url(#b)"/><path d="M366.076 95.385l-2.068-1.185 1.95-3.379 2.377-4.115-2.967-1.714-1.353-.78-5.016-2.897-11.072 6.392h-4.823l5.17 8.955-3.461 5.994h-.01l2.045 1.168h4.935l4.01 2.332 2.41-4.177h7.873l2.863-1.653-2.863-4.941zm4.209 12.093h1.269v-2.645h-1.27v2.645z" stroke="#FFF" mask="url(#b)"/><path fill="#DDD" mask="url(#b)" d="M389.273 87.111v1.68h12.147v-3.659h-8.72z"/><path stroke="#FFF" mask="url(#b)" d="M389.273 87.111v1.68h12.147v-3.659h-8.72z"/><path d="M399.338 31.876h-3.458l-3.184 1.87-3.054.003-2.678 4.638-1.876-.003-3.29 5.699-2.878 1.662v5.723l-1.812 3.184v6.27l3.208 5.556h3.589l4.175-2.414v-5.648l4.176-2.412-4.176-2.411V48.77l8.269-4.775v-2.547l4.098-2.366.035-5.227-1.144-1.98zm-8.256 30.872h1.618V60.66h-1.618v2.087z" fill="#DDD" mask="url(#b)"/><path d="M399.338 31.876h-3.458l-3.184 1.87-3.054.003-2.678 4.638-1.876-.003-3.29 5.699-2.878 1.662v5.723l-1.812 3.184v6.27l3.208 5.556h3.589l4.175-2.414v-5.648l4.176-2.412-4.176-2.411V48.77l8.269-4.775v-2.547l4.098-2.366.035-5.227-1.144-1.98zm-8.256 30.872h1.618V60.66h-1.618v2.087z" stroke="#FFF" mask="url(#b)"/><path fill="#DDD" mask="url(#b)" d="M389.273 87.111h-9l-2.142 3.71h-4.863v1.768h13.694l2.311-3.799z"/><path stroke="#FFF" mask="url(#b)" d="M389.273 87.111h-9l-2.142 3.71h-4.863v1.768h13.694l2.311-3.799z"/><path fill="#DDD" mask="url(#b)" d="M406.287 72.871v4.827h5.108l2.052 1.184h7.084l4.142-2.39v-4.16l-4.78-2.737v-2.86l-3.22-1.837h-3.626l-3.303 1.986z"/><path stroke="#FFF" mask="url(#b)" d="M406.287 72.871v4.827h5.108l2.052 1.184h7.084l4.142-2.39v-4.16l-4.78-2.737v-2.86l-3.22-1.837h-3.626l-3.303 1.986z"/><path fill="#DDD" mask="url(#b)" d="M363.751 73.063l-2.471 4.29 3.67 2.12 3.701-6.41z"/><path stroke="#FFF" mask="url(#b)" d="M363.751 73.063l-2.471 4.29 3.67 2.12 3.701-6.41z"/><path fill="#DDD" mask="url(#b)" d="M377.81 72.332l-4.073-2.35v-2.08h-4.176v.984l2.412 4.176h-3.322l-3.7 6.41v3.12l1.351.781-.935 1.62 2.968 1.713-2.376 4.115h12.172l2.142-3.71-2.304-3.992 5.852-3.379v-7.408z"/><path stroke="#FFF" mask="url(#b)" d="M377.81 72.332l-4.073-2.35v-2.08h-4.176v.984l2.412 4.176h-3.322l-3.7 6.41v3.12l1.351.781-.935 1.62 2.968 1.713-2.376 4.115h12.172l2.142-3.71-2.304-3.992 5.852-3.379v-7.408z"/><path fill="#DDD" mask="url(#b)" d="M418.984 314.387l-2.525 4.373 4.269 2.464 2.292-3.95-1.667-2.887z"/><path stroke="#FFF" mask="url(#b)" d="M418.984 314.387l-2.525 4.373 4.269 2.464 2.292-3.95-1.667-2.887z"/><path fill="#DDD" mask="url(#b)" d="M423.236 236.826v1.499h2.84v-1.5h2.27v-2.95h-3.406z"/><path stroke="#FFF" mask="url(#b)" d="M423.236 236.826v1.499h2.84v-1.5h2.27v-2.95h-3.406z"/><path fill="#DDD" mask="url(#b)" d="M111.996 183.317v-1.16l-2.052-1.184v-2.448h4.95l1.185-2.052h2.17l5.392-9.34h-7.338l-2.775 1.603-4.268 7.392-9.695-.011-4.192-7.26V156.8l1.697-2.938-6.58-11.394h-3.213l-2.711 1.566-4.345-7.526h-4.64l-2.05 1.185h-6.268l-7.235-4.178h-5.93v10.617l10.568 18.304v-5.547l-6.396-11.077v-9.276l4.178 2.412v4.823l12.458 21.578v7.177l16.12 9.308 11.673-.013 3.724 6.456.01-4.96z"/><path stroke="#FFF" mask="url(#b)" d="M111.996 183.317v-1.16l-2.052-1.184v-2.448h4.95l1.185-2.052h2.17l5.392-9.34h-7.338l-2.775 1.603-4.268 7.392-9.695-.011-4.192-7.26V156.8l1.697-2.938-6.58-11.394h-3.213l-2.711 1.566-4.345-7.526h-4.64l-2.05 1.185h-6.268l-7.235-4.178h-5.93v10.617l10.568 18.304v-5.547l-6.396-11.077v-9.276l4.178 2.412v4.823l12.458 21.578v7.177l16.12 9.308 11.673-.013 3.724 6.456.01-4.96z"/><path fill="#DDD" mask="url(#b)" d="M186.023 295.498l12.463 7.341v8.521h6.881l2.575-4.46v-6.933h-2.369l-2.55-4.417h-5.973v-7.906h-11.027z"/><path stroke="#FFF" mask="url(#b)" d="M186.023 295.498l12.463 7.341v8.521h6.881l2.575-4.46v-6.933h-2.369l-2.55-4.417h-5.973v-7.906h-11.027z"/><path fill="#DDD" mask="url(#b)" d="M127.454 186.697l-6.656 3.844-1.472 2.548 2.894 1.672v1.94h5.234z"/><path stroke="#FFF" mask="url(#b)" d="M127.454 186.697l-6.656 3.844-1.472 2.548 2.894 1.672v1.94h5.234z"/><path fill="#DDD" mask="url(#b)" d="M178.384 366.703v-11.718l-3.63-6.287v-20.321l-2.724-4.717v-21.473l3.323-1.918v-4.771l-7.6-13.11-1.692 2.93v35.2l3.26 5.344v19.74l6.064 10.507v11.92l10.77 18.65 8.347 4.82 7.022-.01-3.847-2.221-.006-.006h-3.817v-4.978l-.028-.017-2.41-4.176h-5.393z"/><path stroke="#FFF" mask="url(#b)" d="M178.384 366.703v-11.718l-3.63-6.287v-20.321l-2.724-4.717v-21.473l3.323-1.918v-4.771l-7.6-13.11-1.692 2.93v35.2l3.26 5.344v19.74l6.064 10.507v11.92l10.77 18.65 8.347 4.82 7.022-.01-3.847-2.221-.006-.006h-3.817v-4.978l-.028-.017-2.41-4.176h-5.393z"/><path fill="#DDD" mask="url(#b)" d="M206.735 224.443l3.33-5.663-3.277-5.678-.012-.012h-3.421v11.353z"/><path stroke="#FFF" mask="url(#b)" d="M206.735 224.443l3.33-5.663-3.277-5.678-.012-.012h-3.421v11.353z"/><path d="M248.107 245.611l-3.651-6.325-.017-.017h-9.722l-11.998-6.927h-4.823l-7.83-13.562-3.331 5.663h-12.232l-3.797 2.192-1.184-2.05v-9.376h-4.152v2.14l-3.134 1.907-2.939-1.698h-2.368v3.24l2.405 4.164-5.91 3.412h-2.169l-2.172-3.762h-5.968v17.904h-2.26l-6.591 3.805v9.82l4.803 2.773 3.239-.004v3.734h5.447l5.5-3.175h2.369v5.232l9.609 5.548h4.409v8.076h6.27v2.37l2.576 4.461-1.436 2.488v7.906h5.974l2.549 4.417h2.369v3.436h2.557v3.86l-6.495 11.248 11.932 6.89v3.254l7.862-13.616v-11.575l9.638-5.564h4.822l7.493-12.977v-13.65l9.349-16.21v-9.452h-6.993z" fill="#DDD" mask="url(#b)"/><path d="M248.107 245.611l-3.651-6.325-.017-.017h-9.722l-11.998-6.927h-4.823l-7.83-13.562-3.331 5.663h-12.232l-3.797 2.192-1.184-2.05v-9.376h-4.152v2.14l-3.134 1.907-2.939-1.698h-2.368v3.24l2.405 4.164-5.91 3.412h-2.169l-2.172-3.762h-5.968v17.904h-2.26l-6.591 3.805v9.82l4.803 2.773 3.239-.004v3.734h5.447l5.5-3.175h2.369v5.232l9.609 5.548h4.409v8.076h6.27v2.37l2.576 4.461-1.436 2.488v7.906h5.974l2.549 4.417h2.369v3.436h2.557v3.86l-6.495 11.248 11.932 6.89v3.254l7.862-13.616v-11.575l9.638-5.564h4.822l7.493-12.977v-13.65l9.349-16.21v-9.452h-6.993z" stroke="#FFF" mask="url(#b)"/><path fill="#DDD" mask="url(#b)" d="M116.874 188.275l3.924 2.266 6.657-3.844v-2.657l-.015-.015h-9.191l-1.375 2.326z"/><path stroke="#FFF" mask="url(#b)" d="M116.874 188.275l3.924 2.266 6.657-3.844v-2.657l-.015-.015h-9.191l-1.375 2.326z"/><path fill="#DDD" mask="url(#b)" d="M138.293 200.995l-4.176 2.412-3.988-2.295v3.038l4.244 2.45 4.176-2.412 4.177 2.412v-3.046z"/><path stroke="#FFF" mask="url(#b)" d="M138.293 200.995l-4.176 2.412-3.988-2.295v3.038l4.244 2.45 4.176-2.412 4.177 2.412v-3.046z"/><path fill="#DDD" mask="url(#b)" d="M162.306 262.644v.008l-.007-.008h.007v-3.734l-3.24.004-4.802-2.773v-9.82l6.59-3.804v-5.053h-6.881l-3.462-5.998-2.267-1.308v4.763l-7.422 4.285v5.601-.355h-4.412l-2.298-3.98v5.119l14.255 24.689v4.823l17.695 10.216 1.692-2.931v-19.744z"/><path stroke="#FFF" mask="url(#b)" d="M162.306 262.644v.008l-.007-.008h.007v-3.734l-3.24.004-4.802-2.773v-9.82l6.59-3.804v-5.053h-6.881l-3.462-5.998-2.267-1.308v4.763l-7.422 4.285v5.601-.355h-4.412l-2.298-3.98v5.119l14.255 24.689v4.823l17.695 10.216 1.692-2.931v-19.744z"/><path fill="#DDD" mask="url(#b)" d="M140.822 244.452v-5.246l7.422-4.285v-4.763l-7.875-4.547-6.257 3.612v11.25l2.297 3.979z"/><path stroke="#FFF" mask="url(#b)" d="M140.822 244.452v-5.246l7.422-4.285v-4.763l-7.875-4.547-6.257 3.612v11.25l2.297 3.979z"/><path d="M132.37 80.247l-3.164 1.913V72.15h3.164v8.097zm-11.422-28.645h-5.314l-2.193 2.645-1.326-.663h-5.502v-2.787h5.502l4.694-2.71 2.967 1.713 6.108-3.527 1.073 1.859-6.01 3.47zm-12.554-13.814h6.795l3.239-1.87 4.704 2.716-4.878 2.816H106.28l2.114-3.662zM218.203 68.7h-.02l-.001-12.101-2.267-1.31-8.483 4.898h-4.823l4.349-7.533-5.552-3.206-.01-.01h-8.75l-6.47 11.209v4.42l-10.093 5.827v6.993l-4.176 2.41h-4.823V74.03l2.896-5.016h-4.823l-8.898-5.138h-5.568v-8.712l17.307-10h6.872l4.177-2.411-4.177-2.412-.005-.005h10.075l9.489-5.478V31.64h-2.652l-9.331 5.387v-6.27l-3.365-5.828-6.084 3.512v4.823l-4.176 2.41h-35.737l-8.685-5.013H96.618L59.134 52.16l7.386 4.214v8.013h-2.823v14.636l3.847 6.665h67.187l5.01 2.86 3.659-2.112h6.23l3.846 6.676.935 1.62h2.556l5.597 3.325h-6.56l-1.593 2.859v3.065h2.194l6.539-3.775h6.844l4.739-2.736h5.175l4.167-7.216h4.515v5.7l2.052 1.184v2.42h8.195l10.446-6.03-.013-2.52-8.142 4.7-4.35-7.532h5.552l-1.461-2.53h-9.061l6.274-3.623h13.629l5.239-3.025h6.27l3.207-5.554-8.218-4.745z" fill="#DDD" mask="url(#b)"/><path d="M132.37 80.247l-3.164 1.913V72.15h3.164v8.097zm-11.422-28.645h-5.314l-2.193 2.645-1.326-.663h-5.502v-2.787h5.502l4.694-2.71 2.967 1.713 6.108-3.527 1.073 1.859-6.01 3.47zm-12.554-13.814h6.795l3.239-1.87 4.704 2.716-4.878 2.816H106.28l2.114-3.662zM218.203 68.7h-.02l-.001-12.101-2.267-1.31-8.483 4.898h-4.823l4.349-7.533-5.552-3.206-.01-.01h-8.75l-6.47 11.209v4.42l-10.093 5.827v6.993l-4.176 2.41h-4.823V74.03l2.896-5.016h-4.823l-8.898-5.138h-5.568v-8.712l17.307-10h6.872l4.177-2.411-4.177-2.412-.005-.005h10.075l9.489-5.478V31.64h-2.652l-9.331 5.387v-6.27l-3.365-5.828-6.084 3.512v4.823l-4.176 2.41h-35.737l-8.685-5.013H96.618L59.134 52.16l7.386 4.214v8.013h-2.823v14.636l3.847 6.665h67.187l5.01 2.86 3.659-2.112h6.23l3.846 6.676.935 1.62h2.556l5.597 3.325h-6.56l-1.593 2.859v3.065h2.194l6.539-3.775h6.844l4.739-2.736h5.175l4.167-7.216h4.515v5.7l2.052 1.184v2.42h8.195l10.446-6.03-.013-2.52-8.142 4.7-4.35-7.532h5.552l-1.461-2.53h-9.061l6.274-3.623h13.629l5.239-3.025h6.27l3.207-5.554-8.218-4.745z" stroke="#FFF" mask="url(#b)"/><path fill="#DDD" mask="url(#b)" d="M493.232 158.27l-2.412-4.177-2.411 4.177-8.058-.008 2.719 4.74h7.632l2.732-4.615z"/><path stroke="#FFF" mask="url(#b)" d="M493.232 158.27l-2.412-4.177-2.411 4.177-8.058-.008 2.719 4.74h7.632l2.732-4.615z"/><path fill="#DDD" mask="url(#b)" d="M474.304 175.91h5.081l11.317-6.533v-6.374h-7.632l-2.719-4.74h-2.016l-7.462-12.926h-7.36l-17.126-9.887-3.332-.004 2.201 3.812-2.103 3.595h-5.68v3.539l7.464 13.066 4.177 2.41v5.397l4.176 2.412 6.458 11.23h11.671z"/><path stroke="#FFF" mask="url(#b)" d="M474.304 175.91h5.081l11.317-6.533v-6.374h-7.632l-2.719-4.74h-2.016l-7.462-12.926h-7.36l-17.126-9.887-3.332-.004 2.201 3.812-2.103 3.595h-5.68v3.539l7.464 13.066 4.177 2.41v5.397l4.176 2.412 6.458 11.23h11.671z"/><path fill="#DDD" mask="url(#b)" d="M611.444 165.715l8.013 4.626v2.37l-1.694 2.934 7.714 4.453 3.834 6.64v8.756l-7.494 4.326 1.256.726v4.823l4.17-2.417v-3.617l6.588-3.805v-5.21l-6.61-11.448-5.72-3.303-.004-.003v-3.948l3.212-1.855v-3.57l-2.323-4.024h-4.801z"/><path stroke="#FFF" mask="url(#b)" d="M611.444 165.715l8.013 4.626v2.37l-1.694 2.934 7.714 4.453 3.834 6.64v8.756l-7.494 4.326 1.256.726v4.823l4.17-2.417v-3.617l6.588-3.805v-5.21l-6.61-11.448-5.72-3.303-.004-.003v-3.948l3.212-1.855v-3.57l-2.323-4.024h-4.801z"/><path fill="#DDD" mask="url(#b)" d="M414.19 87.718l-2.052 1.184 5.298 8.931v-3.82h2.411v-2.945z"/><path stroke="#FFF" mask="url(#b)" d="M414.19 87.718l-2.052 1.184 5.298 8.931v-3.82h2.411v-2.945z"/><path fill="#DDD" mask="url(#b)" d="M525.908 109.264h-7.682l3.277-1.892-2.052-1.184-4.689 2.707h-4.528l-3.738-6.486h-7.314l-1.742-3.018-5.982-3.453-5.579 3.221v9.64h2.266l2.561-4.436 5.005 2.89-.013 2.357h3.005l13.815 7.975v2.37h3.726v-3.959l-2.05-1.185 2.206-3.822h2.368l2.832 1.634h2.37z"/><path stroke="#FFF" mask="url(#b)" d="M525.908 109.264h-7.682l3.277-1.892-2.052-1.184-4.689 2.707h-4.528l-3.738-6.486h-7.314l-1.742-3.018-5.982-3.453-5.579 3.221v9.64h2.266l2.561-4.436 5.005 2.89-.013 2.357h3.005l13.815 7.975v2.37h3.726v-3.959l-2.05-1.185 2.206-3.822h2.368l2.832 1.634h2.37z"/><path fill="#DDD" mask="url(#b)" d="M530.587 153.23l-5.024-2.9 1.184-2.051 3.509.004 6.752-11.695-3.504-6.07v-2.368h5.713v-2.37l-7.382-4.261h-4.789l-2.051 1.184v6.38l-2.259 1.304v6.603l-6.51 3.77v3.12h-14.364l5.289 3.055v7.82h8.084l11.116 6.419.032.056 4.204-2.51z"/><path stroke="#FFF" mask="url(#b)" d="M530.587 153.23l-5.024-2.9 1.184-2.051 3.509.004 6.752-11.695-3.504-6.07v-2.368h5.713v-2.37l-7.382-4.261h-4.789l-2.051 1.184v6.38l-2.259 1.304v6.603l-6.51 3.77v3.12h-14.364l5.289 3.055v7.82h8.084l11.116 6.419.032.056 4.204-2.51z"/><path fill="#DDD" mask="url(#b)" d="M501.862 143.881l2.873-4.977.1-.174-4.112-2.375v-13.807l-8.67-5.006h-7.977l-1.572.908v3.681h-8.254l-5.738-3.319v-3.544l-1.83-3.169-3.4 1.96v2.373h-5.266v4.43l5.81 3.355v7.014l5.36 3.134v8.051l4.177-2.41 4.177 2.41v2.815l10.43 6.022 4.177-2.412 3.256 1.88v4.035h11.748v-7.82z"/><path stroke="#FFF" mask="url(#b)" d="M501.862 143.881l2.873-4.977.1-.174-4.112-2.375v-13.807l-8.67-5.006h-7.977l-1.572.908v3.681h-8.254l-5.738-3.319v-3.544l-1.83-3.169-3.4 1.96v2.373h-5.266v4.43l5.81 3.355v7.014l5.36 3.134v8.051l4.177-2.41 4.177 2.41v2.815l10.43 6.022 4.177-2.412 3.256 1.88v4.035h11.748v-7.82z"/><path fill="#DDD" mask="url(#b)" d="M449.973 104.361v4.822h10.495v-2.926l-3.284-1.896z"/><path stroke="#FFF" mask="url(#b)" d="M449.973 104.361v4.822h10.495v-2.926l-3.284-1.896z"/><path d="M594.453 73.124l-2.869 4.97-4.24-.011v-1.418h2.457l2.441-4.228V60.8l2.211 1.276v11.048zM420.626 59.69h-2.314l-.998-1.73v-2.244h1.79l1.522 2.638v1.336zM714.23 39.98h4.823l4.177 2.412-.004-.004h6.561l-2.907-5.035h-9.628l-4.664-2.693h-7.716l-8.436-4.87-.012-.011h-38.023l-4.177-2.411h-15.222l-5.275-3.046H612.96v2.412h-14.468l-9.784-5.65-.007-.005h-33.252l-4.177 2.41h-4.823l9.851-5.686-2.41-4.177h-13.874l-4.177-2.411-8.724 5.036-.004-.003h-13.745l-2.412 4.176-.008-.007h-8.556l2.411 3.903h-10.723l3.695 6.4h7.157l2.412 4.176h-5.667l-4.177 2.412-6.182-10.712h-2.424l-2.41-4.176h-4.824v5.546l6.24 3.6v3.324l-6.465-3.732-.014-.013h-11.227l-4.177 2.412h-8.589l-7.31 4.189h-6.712l-3.25-1.877v3.749l-9.9 5.705h-4.823l-3.63-6.288-5.392-3.113h4.823l5.392 3.113 6.326.003v-3.68l-6.323-3.65h-6.993l-4.177-2.411h-1.38l-4.468 2.579v2.749l7.052 12.277-3.733 6.466h2.531l-2.41 4.177v7.353h3.624l3.22 1.837v2.86l4.781 2.737v4.159h3.815l3.184 5.515h7.985l3.402 1.964v6.974l-3.566 2.014v3.857h-2.022v1.802h2.553l9.95 5.744h7.21l3.285 1.897 3.284 1.896 2.19-1.264-5.908-10.245 4.767-2.752c0-.23-.01-2.241-.01-2.241l-6.012-3.438-.02-5.088 7.101-4.168 5.04-.021 4.088 2.338 14.868-.063-.009-2.368-2.815-4.83-.01-2.368 5.447-.022 5.15-3.02h8.462l7.27 4.137 4.176-.018 2.72-1.571 8.814 5.089 2.421 4.192h10.79l8.22 4.8 8.065-4.683h6.276l5.304 3.058h4.951v-2.37l-2.002-3.466h5.148l8.016 4.628h9.708l5.332 3.079h5.158l3.704-2.14h12.442v-9.941h7.605l23.71 13.689v3.27h4.201l4.564-2.634 2.316 4.01v6.913h-4.598l2.774 4.764 8.14-.006 2.39-4.177V84.812l-5.93-10.246-6.202-3.58-4.176 2.41-6.955-4.014 4.134-7.16V56.68h20.363l3.881 2.24v-9.274h4.823l4.915 2.838 2.411-4.177 4.177 2.412v3.564l-3.41 5.907v4.823l2.411 4.176 8.253 4.765 3.143 5.444 3.152-.002-.02-9.516-4.172-7.223-5.706-3.295V54.54l-.02-.018h13.76l-.01-.01v-2.41l7.796-4.502-4.176-2.412h-4.823l-5.032-2.905-.007-.006h7.952V39.98zm-268.175-6.122h4.086v-2.075h-4.086v2.075zM617.24 18.26h2.645v-1.27h-2.645v1.27zm-6.223 3.369h2.645v-1.27h-2.645v1.27zm-150.18 6.762l-8.746-5.021 2.411-4.177 9.692-5.595h10.11l-4.176 2.41h-4.823l-8.713 5.032 4.244 7.35zm221.332 64.106l-10.21-17.84h2.321l10.21 17.84h-2.32zM507.806 4.855l-.003-.002h5.985l2.437 1.405h3.23l3.56 2.053h-9.224l-5.985-3.456zm103.178 12.137l-4.177-2.412h-9.298l4.177 2.412h9.298zM397.971 70.7h4.555v-2.798h-4.555V70.7z" fill="#DDD" mask="url(#b)"/><path d="M594.453 73.124l-2.869 4.97-4.24-.011v-1.418h2.457l2.441-4.228V60.8l2.211 1.276v11.048zM420.626 59.69h-2.314l-.998-1.73v-2.244h1.79l1.522 2.638v1.336zM714.23 39.98h4.823l4.177 2.412-.004-.004h6.561l-2.907-5.035h-9.628l-4.664-2.693h-7.716l-8.436-4.87-.012-.011h-38.023l-4.177-2.411h-15.222l-5.275-3.046H612.96v2.412h-14.468l-9.784-5.65-.007-.005h-33.252l-4.177 2.41h-4.823l9.851-5.686-2.41-4.177h-13.874l-4.177-2.411-8.724 5.036-.004-.003h-13.745l-2.412 4.176-.008-.007h-8.556l2.411 3.903h-10.723l3.695 6.4h7.157l2.412 4.176h-5.667l-4.177 2.412-6.182-10.712h-2.424l-2.41-4.176h-4.824v5.546l6.24 3.6v3.324l-6.465-3.732-.014-.013h-11.227l-4.177 2.412h-8.589l-7.31 4.189h-6.712l-3.25-1.877v3.749l-9.9 5.705h-4.823l-3.63-6.288-5.392-3.113h4.823l5.392 3.113 6.326.003v-3.68l-6.323-3.65h-6.993l-4.177-2.411h-1.38l-4.468 2.579v2.749l7.052 12.277-3.733 6.466h2.531l-2.41 4.177v7.353h3.624l3.22 1.837v2.86l4.781 2.737v4.159h3.815l3.184 5.515h7.985l3.402 1.964v6.974l-3.566 2.014v3.857h-2.022v1.802h2.553l9.95 5.744h7.21l3.285 1.897 3.284 1.896 2.19-1.264-5.908-10.245 4.767-2.752c0-.23-.01-2.241-.01-2.241l-6.012-3.438-.02-5.088 7.101-4.168 5.04-.021 4.088 2.338 14.868-.063-.009-2.368-2.815-4.83-.01-2.368 5.447-.022 5.15-3.02h8.462l7.27 4.137 4.176-.018 2.72-1.571 8.814 5.089 2.421 4.192h10.79l8.22 4.8 8.065-4.683h6.276l5.304 3.058h4.951v-2.37l-2.002-3.466h5.148l8.016 4.628h9.708l5.332 3.079h5.158l3.704-2.14h12.442v-9.941h7.605l23.71 13.689v3.27h4.201l4.564-2.634 2.316 4.01v6.913h-4.598l2.774 4.764 8.14-.006 2.39-4.177V84.812l-5.93-10.246-6.202-3.58-4.176 2.41-6.955-4.014 4.134-7.16V56.68h20.363l3.881 2.24v-9.274h4.823l4.915 2.838 2.411-4.177 4.177 2.412v3.564l-3.41 5.907v4.823l2.411 4.176 8.253 4.765 3.143 5.444 3.152-.002-.02-9.516-4.172-7.223-5.706-3.295V54.54l-.02-.018h13.76l-.01-.01v-2.41l7.796-4.502-4.176-2.412h-4.823l-5.032-2.905-.007-.006h7.952V39.98zm-268.175-6.122h4.086v-2.075h-4.086v2.075zM617.24 18.26h2.645v-1.27h-2.645v1.27zm-6.223 3.369h2.645v-1.27h-2.645v1.27zm-150.18 6.762l-8.746-5.021 2.411-4.177 9.692-5.595h10.11l-4.176 2.41h-4.823l-8.713 5.032 4.244 7.35zm221.332 64.106l-10.21-17.84h2.321l10.21 17.84h-2.32zM507.806 4.855l-.003-.002h5.985l2.437 1.405h3.23l3.56 2.053h-9.224l-5.985-3.456zm103.178 12.137l-4.177-2.412h-9.298l4.177 2.412h9.298zM397.971 70.7h4.555v-2.798h-4.555V70.7z" stroke="#FFF" mask="url(#b)"/><path fill="#DDD" mask="url(#b)" d="M455.223 111.549l1.223 2.141h3.588v2.742h3.248v-2.373l-2.814-4.876h-5.245z"/><path stroke="#FFF" mask="url(#b)" d="M455.223 111.549l1.223 2.141h3.588v2.742h3.248v-2.373l-2.814-4.876h-5.245z"/><path fill="#DDD" mask="url(#b)" d="M521.6 112.624l-2.832-1.635H516.4l-2.207 3.823 2.051 1.185v3.958h3.697l1.505-2.605h3.55v3.367l2.05-1.227h4.788l-2.429-4.208H518.59v-.92z"/><path stroke="#FFF" mask="url(#b)" d="M521.6 112.624l-2.832-1.635H516.4l-2.207 3.823 2.051 1.185v3.958h3.697l1.505-2.605h3.55v3.367l2.05-1.227h4.788l-2.429-4.208H518.59v-.92z"/><path fill="#DDD" mask="url(#b)" d="M389.273 247.59l3.826 6.627 5.377.008v-3.09h5.618l1.184 2.052v10.036h8.597l10.808 6.241h1.147v-2.385l-3.701-2.137v-8.512l2.554-1.474h3.073l-4.52-7.828v-10.302l1.704-2.95v-2.369l3.406-5.9v-5.963l-1.184-2.096h-5.966l-1.184-2.052h-10.031l-3.449 1.991h-3.153l-4.166-2.405-3.451 1.993v5.728l-1.607 2.785v7.964l-4.231 2.443.017 6.121-4.012 2.317h-2.838l-1.961 1.132v1.894h-1.492l1.167 2.023 3.299-1.892z"/><path stroke="#FFF" mask="url(#b)" d="M389.273 247.59l3.826 6.627 5.377.008v-3.09h5.618l1.184 2.052v10.036h8.597l10.808 6.241h1.147v-2.385l-3.701-2.137v-8.512l2.554-1.474h3.073l-4.52-7.828v-10.302l1.704-2.95v-2.369l3.406-5.9v-5.963l-1.184-2.096h-5.966l-1.184-2.052h-10.031l-3.449 1.991h-3.153l-4.166-2.405-3.451 1.993v5.728l-1.607 2.785v7.964l-4.231 2.443.017 6.121-4.012 2.317h-2.838l-1.961 1.132v1.894h-1.492l1.167 2.023 3.299-1.892z"/><path fill="#DDD" mask="url(#b)" d="M432.952 267.385v4.485l2.574 1.486v.002h2.067v5.027l1.596 2.766 2.599-4.502v-2.4l-3.242-5.268h-1.497v-10.346l-2.426-1.397-.001 9.183z"/><path stroke="#FFF" mask="url(#b)" d="M432.952 267.385v4.485l2.574 1.486v.002h2.067v5.027l1.596 2.766 2.599-4.502v-2.4l-3.242-5.268h-1.497v-10.346l-2.426-1.397-.001 9.183z"/><path fill="#DDD" mask="url(#b)" d="M427.756 254.956h-3.073l-2.553 1.474v8.512l3.7 2.137v2.385h-1.147l-10.808-6.24h-3.351v5.788h-5.246v9.956l5.03 2.857h3.433l.852 1.474h4.686l3.546-6.142h3.923v-1.645l6.204-3.642v-4.484l1.67-.965v-9.183l-3.398-1.958-.028 1.662z"/><path stroke="#FFF" mask="url(#b)" d="M427.756 254.956h-3.073l-2.553 1.474v8.512l3.7 2.137v2.385h-1.147l-10.808-6.24h-3.351v5.788h-5.246v9.956l5.03 2.857h3.433l.852 1.474h4.686l3.546-6.142h3.923v-1.645l6.204-3.642v-4.484l1.67-.965v-9.183l-3.398-1.958-.028 1.662z"/><path fill="#DDD" mask="url(#b)" d="M438.545 265.296v3.686l3.242 5.268v2.4l-2.599 4.5-1.596-2.764v-5.028h-2.066v-.002l-2.575-1.486-6.203 3.642v1.645l6.381 3.685v7.34l-4.52 7.735v13.064h2.51v-1.984l8.116-4.698v-17.2l14.43-8.342v-14.545l-5.344 3.084z"/><path stroke="#FFF" mask="url(#b)" d="M438.545 265.296v3.686l3.242 5.268v2.4l-2.599 4.5-1.596-2.764v-5.028h-2.066v-.002l-2.575-1.486-6.203 3.642v1.645l6.381 3.685v7.34l-4.52 7.735v13.064h2.51v-1.984l8.116-4.698v-17.2l14.43-8.342v-14.545l-5.344 3.084z"/><path fill="#DDD" mask="url(#b)" d="M447.564 239.892l-9.883-5.706-2.387 4.133h-3.704v-4.443h-3.244v5.895l-2.037 3.529-1.888-.03v2.864l4.519 7.827 2.284 1.319 3.399 1.958v-.013.013l2.425 1.397v-.022l1.497.884v5.799h9.777l5.343-3.085v-1.247l-4.181-7.24v-7.41l1.361-2.357-3.281-1.895z"/><path stroke="#FFF" mask="url(#b)" d="M447.564 239.892l-9.883-5.706-2.387 4.133h-3.704v-4.443h-3.244v5.895l-2.037 3.529-1.888-.03v2.864l4.519 7.827 2.284 1.319 3.399 1.958v-.013.013l2.425 1.397v-.022l1.497.884v5.799h9.777l5.343-3.085v-1.247l-4.181-7.24v-7.41l1.361-2.357-3.281-1.895z"/><path fill="#DDD" mask="url(#b)" d="M426.077 238.324h-2.84v2.894l.655 1.135.53.916 1.887.03 2.038-3.528v-2.946h-2.27z"/><path stroke="#FFF" mask="url(#b)" d="M426.077 238.324h-2.84v2.894l.655 1.135.53.916 1.887.03 2.038-3.528v-2.946h-2.27z"/><path d="M92.279 33.073l-7.325-4.206h-36.5L7.886 52.289l4.443 7.696-10.463 6.041h4.823l21.55-12.442h28.408l7.049 4.067v6.736h2.824v-8.012l-7.39-4.217 33.149-19.085zm98.357 64.065v2.421h-8.601l.016.016-3.146 5.449v2.411h-6.783l.004 3.139-11.554 6.671v8.6l-17.86 10.312v19.721h-1.998l-.006-.006-3.407-5.901v-6.993l-4.217-2.434-9.93.013-4.176 2.412h-11.665l-5.944 3.445-4.3 7.448-6.578-11.394h-3.214l-2.711 1.565-4.346-7.525h-4.638l-2.052 1.185h-6.268l-7.234-4.178h-5.93v-2.438l-6.206-3.584v-12.824l11.095-19.218v-4.822l8.557-4.941h67.187l5.01 2.861-5.01 2.893 1.184 2.051 3.553-2.051h3.932l2.895 1.672h7.18l.936 1.619h-9.565l-3.412 1.97-3.796 6.576v4.923l5.366-3.098v.004l.02-.016-.02.012v-5.567l3.923-2.265h5.457l-2.105 3.646h4.132v3.064h-4.076l-2.37 4.124h5.973l8.666-5.004h2.368l5.015-2.896 4.74-2.736h5.175l4.167-7.215h4.515v5.699l2.052 1.184z" fill="#DDD" mask="url(#b)"/><path d="M92.279 33.073l-7.325-4.206h-36.5L7.886 52.289l4.443 7.696-10.463 6.041h4.823l21.55-12.442h28.408l7.049 4.067v6.736h2.824v-8.012l-7.39-4.217 33.149-19.085zm98.357 64.065v2.421h-8.601l.016.016-3.146 5.449v2.411h-6.783l.004 3.139-11.554 6.671v8.6l-17.86 10.312v19.721h-1.998l-.006-.006-3.407-5.901v-6.993l-4.217-2.434-9.93.013-4.176 2.412h-11.665l-5.944 3.445-4.3 7.448-6.578-11.394h-3.214l-2.711 1.565-4.346-7.525h-4.638l-2.052 1.185h-6.268l-7.234-4.178h-5.93v-2.438l-6.206-3.584v-12.824l11.095-19.218v-4.822l8.557-4.941h67.187l5.01 2.861-5.01 2.893 1.184 2.051 3.553-2.051h3.932l2.895 1.672h7.18l.936 1.619h-9.565l-3.412 1.97-3.796 6.576v4.923l5.366-3.098v.004l.02-.016-.02.012v-5.567l3.923-2.265h5.457l-2.105 3.646h4.132v3.064h-4.076l-2.37 4.124h5.973l8.666-5.004h2.368l5.015-2.896 4.74-2.736h5.175l4.167-7.215h4.515v5.699l2.052 1.184z" stroke="#FFF" mask="url(#b)"/><path fill="#DDD" mask="url(#b)" d="M406.76 65.095h-8.79v2.807h4.556V70.7l3.761 2.17 3.457-5.986z"/><path stroke="#FFF" mask="url(#b)" d="M406.76 65.095h-8.79v2.807h4.556V70.7l3.761 2.17 3.457-5.986z"/><path fill="#DDD" mask="url(#b)" d="M413.043 57.547v3.598h-8.68v-2.227l2.373-1.371z"/><path stroke="#FFF" mask="url(#b)" d="M413.043 57.547v3.598h-8.68v-2.227l2.373-1.371z"/><path fill="#DDD" mask="url(#b)" d="M404.364 61.144v1.234h-4.823l-1.572 2.716h8.789l2.984 1.792 3.302-1.985v-3.757z"/><path stroke="#FFF" mask="url(#b)" d="M404.364 61.144v1.234h-4.823l-1.572 2.716h8.789l2.984 1.792 3.302-1.985v-3.757z"/><path d="M417.435 97.833h2.412v-3.819h-2.412v3.819zM443.06 83.97v6.974h-4.884l-3.403 1.964h-1.524v4.385l2.293 1.324h-5.004l-2.697-4.603h-7.994v-2.945l-5.657-3.352-2.052 1.185-10.783.001.065-.113v-3.657l5.093-2.94-1.41-2.443 1.184-2.052h5.109l2.051 1.185h7.084l4.142-2.392h3.815l3.184 5.515h7.985l3.403 1.964z" fill="#DDD" mask="url(#b)"/><path d="M417.435 97.833h2.412v-3.819h-2.412v3.819zM443.06 83.97v6.974h-4.884l-3.403 1.964h-1.524v4.385l2.293 1.324h-5.004l-2.697-4.603h-7.994v-2.945l-5.657-3.352-2.052 1.185-10.783.001.065-.113v-3.657l5.093-2.94-1.41-2.443 1.184-2.052h5.109l2.051 1.185h7.084l4.142-2.392h3.815l3.184 5.515h7.985l3.403 1.964z" stroke="#FFF" mask="url(#b)"/></g><path d="M362.893 110.18v-8.37h.03c.24 1.08.405 1.544.66 2.34l2.16 6.03h1.665l2.175-6.03c.24-.78.48-1.486.645-2.266h.03v8.295h1.815v-11.1h-2.505l-2.895 8.805h-.03l-2.985-8.805h-2.46v11.1h1.695zm12.706 0l.93-2.64h4.215l.945 2.79 1.815-.3-3.885-10.996h-1.83l-3.93 11.145h1.74zm3.045-8.79h.03l1.53 4.5h-3.12l1.56-4.5zm9.811 8.79c3.435 0 5.775-1.636 5.775-5.596 0-3.885-2.295-5.505-5.775-5.505h-3.15v11.1h3.15zm-1.29-9.36h1.425c2.58 0 3.765 1.2 3.765 3.794 0 2.7-1.17 3.87-3.735 3.87h-1.455v-7.665zm11.086 9.36v-4.38h1.965l2.685 4.53 1.83-.3-2.64-4.47c1.53-.39 2.445-1.306 2.445-3.076 0-2.355-1.53-3.405-4.155-3.405h-3.975v11.1h1.845zm0-9.39h2.04c1.59 0 2.415.434 2.415 1.664 0 1.26-.825 1.71-2.415 1.71h-2.04v-3.375zm10.519 9.39v-11.1h-1.86v11.1h1.86zm5.88 0c3.435 0 5.775-1.636 5.775-5.596 0-3.885-2.296-5.505-5.776-5.505h-3.15v11.1h3.15zm-1.29-9.36h1.424c2.58 0 3.766 1.2 3.766 3.794 0 2.7-1.17 3.87-3.736 3.87h-1.454v-7.665zm-241.972 24.824v-8.085h.03l5.46 8.085h1.71v-11.1h-1.74v7.935h-.03l-5.25-7.935h-1.905v11.1h1.725zm13.893.195c2.925 0 4.29-1.74 4.29-4.26v-7.035h-1.845v6.975c0 1.605-.735 2.61-2.43 2.61-1.71 0-2.445-1.035-2.445-2.625v-6.96h-1.875v7.065c0 2.49 1.365 4.23 4.305 4.23zm14.148-.195v-1.695h-5.595v-3.24h4.32l-.27-1.665h-4.05v-2.76h5.295v-1.74h-7.17v11.1h7.47zm6.538.045l3.855-11.145h-1.77l-2.924 8.655h-.03l-2.896-8.805-1.815.3 3.81 10.995h1.77zm4.422-.045l.93-2.64h4.216l.945 2.79 1.815-.3-3.885-10.995h-1.83l-3.93 11.145h1.74zm3.046-8.79h.03l1.53 4.5h-3.12l1.56-4.5zm13.956 8.79v-4.785l3.794-6.315h-1.92l-2.79 4.725-2.864-4.875-1.785.3 3.704 6.165v4.785h1.86zm9.064.21c2.67 0 4.995-2.025 4.995-5.76s-2.325-5.76-4.995-5.76c-2.685 0-5.01 2.025-5.01 5.76s2.325 5.76 5.01 5.76zm0-1.68c-1.875 0-3.135-1.56-3.135-4.08s1.26-4.035 3.135-4.035c1.875 0 3.135 1.515 3.135 4.035 0 2.52-1.26 4.08-3.135 4.08zm8.835 1.47v-4.38h1.965l2.685 4.53 1.83-.3-2.64-4.47c1.53-.39 2.445-1.305 2.445-3.075 0-2.355-1.53-3.405-4.155-3.405h-3.975v11.1h1.845zm0-9.39h2.04c1.59 0 2.415.435 2.415 1.665 0 1.26-.825 1.71-2.415 1.71h-2.04v-3.375zm10.277 9.39v-3.66l1.575-1.74 3.555 5.55 1.95-.3-4.275-6.675 3.78-4.275h-2.205l-4.38 5.16v-5.16h-1.876v11.1h1.876zM113.428 164.42c2.325 0 3.675-1.186 4.335-3.016l-1.62-.735c-.435 1.245-1.335 2.07-2.715 2.07-1.935 0-3.045-1.56-3.045-4.125 0-2.43 1.05-3.99 2.94-3.99 1.335 0 2.145.75 2.58 1.785l1.59-.945c-.765-1.65-2.07-2.565-4.17-2.565-2.73 0-4.815 2.085-4.815 5.73 0 3.75 2.055 5.79 4.92 5.79zm7.951-.21v-11.1h-1.86v11.1h1.86zm6.707.194c2.925 0 4.29-1.74 4.29-4.26v-7.035h-1.845v6.975c0 1.605-.735 2.61-2.43 2.61-1.71 0-2.445-1.035-2.445-2.625v-6.96h-1.875v7.065c0 2.49 1.365 4.23 4.305 4.23zm9.79-.195c3.435 0 5.775-1.635 5.775-5.595 0-3.885-2.294-5.505-5.775-5.505h-3.15v11.1h3.15zm-1.29-9.36h1.425c2.58 0 3.766 1.2 3.766 3.795 0 2.7-1.17 3.87-3.735 3.87h-1.456v-7.665zm8.784 9.36l.93-2.64h4.215l.946 2.79 1.814-.3-3.885-10.995h-1.83l-3.93 11.145h1.74zm3.046-8.79h.03l1.53 4.5h-3.12l1.56-4.5zm9.572 8.79c3.435 0 5.775-1.635 5.775-5.595 0-3.885-2.294-5.505-5.775-5.505h-3.15v11.1h3.15zm-1.29-9.36h1.425c2.58 0 3.766 1.2 3.766 3.795 0 2.7-1.17 3.87-3.736 3.87H156.7v-7.665zm16.002 9.36c3.436 0 5.776-1.635 5.776-5.595 0-3.885-2.296-5.505-5.775-5.505h-3.15v11.1h3.15zm-1.29-9.36h1.425c2.58 0 3.766 1.2 3.766 3.795 0 2.7-1.17 3.87-3.736 3.87h-1.454v-7.665zm16.474 9.36v-1.695h-5.595v-3.24h4.32l-.27-1.665h-4.05v-2.76h5.294v-1.74h-7.17v11.1h7.47zm7.347 0v-8.37h.03c.24 1.08.405 1.545.66 2.34l2.16 6.03h1.665l2.174-6.03c.24-.78.48-1.485.645-2.265h.03v8.295h1.816v-11.1h-2.506l-2.894 8.805h-.03l-2.986-8.805h-2.46v11.1h1.696zm14.143-11.76h1.215l2.175-2.49h-1.995l-1.395 2.49zm4.965 11.76v-1.695h-5.595v-3.24h4.32l-.27-1.665h-4.05v-2.76h5.295v-1.74h-7.17v11.1h7.47zm3.222 0l2.73-4.41 2.82 4.56 1.89-.3-3.615-5.745 3.24-5.205h-1.965l-2.25 3.75-2.385-3.9-1.95.3 3.21 5.055-3.69 5.895h1.965zm11.002 0v-11.1h-1.86v11.1h1.86zm6.947.21c2.325 0 3.675-1.185 4.335-3.015l-1.62-.735c-.435 1.245-1.335 2.07-2.715 2.07-1.935 0-3.045-1.56-3.045-4.125 0-2.43 1.05-3.99 2.94-3.99 1.335 0 2.145.75 2.58 1.785l1.59-.945c-.765-1.65-2.07-2.565-4.17-2.565-2.73 0-4.815 2.085-4.815 5.73 0 3.75 2.055 5.79 4.92 5.79zm10.398 0c2.67 0 4.995-2.025 4.995-5.76s-2.325-5.76-4.995-5.76c-2.685 0-5.01 2.025-5.01 5.76s2.325 5.76 5.01 5.76zm0-1.68c-1.875 0-3.135-1.56-3.135-4.08s1.26-4.035 3.135-4.035c1.875 0 3.135 1.515 3.135 4.035 0 2.52-1.26 4.08-3.135 4.08zM97.168 260.21l-.285-1.696h-4.965v-9.405h-1.875v11.1h7.125zm3.576 0v-11.1h-1.86v11.1h1.86zm4.359 0v-8.37h.03c.24 1.08.405 1.544.66 2.34l2.16 6.03h1.665l2.175-6.03c.24-.78.48-1.486.645-2.266h.03v8.295h1.815v-11.1h-2.505l-2.895 8.805h-.03l-2.985-8.805h-2.46v11.1h1.695zm12.636 0l.93-2.64h4.215l.945 2.79 1.815-.3-3.885-10.996h-1.83l-3.93 11.145h1.74zm3.045-8.79h.03l1.53 4.5h-3.12l1.56-4.5zM369.343 65.03l-.285-1.696h-4.965V53.93h-1.875v11.1h7.125zm5.202.21c2.67 0 4.995-2.026 4.995-5.76 0-3.736-2.325-5.76-4.995-5.76-2.685 0-5.01 2.024-5.01 5.76 0 3.734 2.325 5.76 5.01 5.76zm0-1.68c-1.875 0-3.135-1.56-3.135-4.08s1.26-4.036 3.135-4.036c1.875 0 3.135 1.515 3.135 4.035 0 2.52-1.26 4.08-3.135 4.08zm8.732 1.47v-8.086h.03l5.46 8.085h1.71v-11.1h-1.74v7.935h-.03l-5.25-7.935h-1.904v11.1h1.724zm12.858 0c3.435 0 5.774-1.636 5.774-5.596 0-3.885-2.294-5.505-5.774-5.505h-3.15v11.1h3.15zm-1.29-9.36h1.424c2.58 0 3.765 1.2 3.765 3.794 0 2.7-1.17 3.87-3.734 3.87h-1.456V55.67zm10.906 9.36v-4.38h1.966l2.685 4.53 1.83-.3-2.64-4.47c1.53-.39 2.445-1.306 2.445-3.076 0-2.355-1.53-3.405-4.155-3.405h-3.976v11.1h1.846zm0-9.39h2.04c1.59 0 2.416.434 2.416 1.664 0 1.26-.825 1.71-2.416 1.71h-2.04V55.64zm15.886 9.39v-1.696h-5.595v-3.24h4.32l-.27-1.665h-4.05v-2.76h5.295v-1.74h-7.17v11.1h7.47zm5.796.21c2.64 0 4.11-1.426 4.11-3.226 0-2.1-1.68-2.775-3.78-3.39-1.814-.54-2.61-.9-2.61-1.935 0-.72.72-1.275 1.98-1.275 1.17 0 2.34.615 3.226 1.395l.885-1.5c-1.05-.87-2.446-1.59-4.14-1.59-2.22 0-3.78 1.245-3.78 3.12 0 2.115 1.71 2.685 3.854 3.315 1.83.555 2.536 1.005 2.536 1.98 0 .96-.945 1.44-2.34 1.44-1.365 0-2.76-.765-3.615-1.65l-1.006 1.425c1.125 1.065 2.685 1.89 4.68 1.89z" fill="#666"/><path d="M157.72 120.294l-10.778 10.778-10.78-10.778 10.78-10.778zm-64 40l-10.778 10.778-10.78-10.778 10.78-10.778zm71 96l-10.778 10.778-10.78-10.778 10.78-10.778zm190-196l-10.778 10.778-10.78-10.778 10.78-10.778zm-7 44l-10.778 10.778-10.78-10.778 10.78-10.778z" fill="#00CCCD"/></g></svg>