<svg id="Capa_1" data-name="Capa 1" xmlns="http://www.w3.org/2000/svg" viewBox="0 0 750 374"><defs><style>.cls-1{fill:#d8d8d8;stroke-linejoin:bevel;}.cls-1,.cls-2{stroke:#fff;stroke-width:0.5px;}.cls-2{fill:#2ecdcd;stroke-miterlimit:10;}.cls-3{fill:#666;}</style></defs><title>map-cliente-eng</title><polygon class="cls-1" points="665.48 337.46 667.38 340.75 674.23 336.8 674.23 334.16 667.38 334.16 665.48 337.46"/><path class="cls-1" d="M706.7,348,731,334v4.6l-20.27,11.7Zm38.7-22.59v-6.84L742.68,317l0,8.41-2.3,4h-3.3v5.8h3.6l3.35-5.8h3.66l2.3-4Z"/><polygon class="cls-1" points="315.39 67.45 315.39 69.98 312.49 71.66 312.49 73.77 316.41 73.78 320.4 71.47 320.41 69.22 316.34 66.9 315.39 67.45"/><rect class="cls-1" x="164.39" y="166.97" width="3.91" height="1.21"/><rect class="cls-1" x="409.11" y="119.67" width="3.8" height="1.38"/><rect class="cls-1" x="600.39" y="163.2" width="3.45" height="3.45"/><rect class="cls-1" x="626.97" y="147.8" width="2.84" height="8.47"/><path class="cls-1" d="M660.16,121.29H648.3l-4,2.3,2.93,1.69v5.29H645v-4l-2.32-1.34v-3.2l6.63-3.83h5.15V116l5.06-2.92v-4.6l-3.22-5.58,4.44,2.56,3.43,5.94V119l-4,2.3Zm4.53-21.56-2.55-4.42h-4.6l-2.08-3.6h-3l4.63,8ZM648.9,125.25h3.6v-2h-3.6Z"/><path class="cls-1" d="M699.63,238l5.6,9.7h-4.17l-3.8-6.58h-6.94v3.3h-4.15V228.28h4.6l6.49,3.75v2.85h3.43l1.79,3.1Zm13.49-3.1H706v1.83h7.08Z"/><polygon class="cls-1" points="309.27 38.36 305.29 36.06 303.29 37.21 298.69 37.21 296.21 38.64 296.21 36.18 292.54 36.18 292.54 39.51 294.7 39.51 294.7 42.52 302.06 42.52 309.27 38.36"/><polygon class="cls-1" points="628.65 107.94 631.8 102.49 631.8 97.89 625.8 100.94 623.54 100.94 620.41 106.36 624.99 106.36 624.99 112.17 628.9 112.17 632.6 110.22 628.65 107.94"/><polygon class="cls-1" points="632.6 110.22 628.9 112.17 632.33 118.11 632.32 121.27 637.26 118.42 632.6 110.22"/><path class="cls-1" d="M359.66,63l-1.13,1.86h-1.34V62h2.47Zm-4.13-4.3-4,2.3v3h4Z"/><polygon class="cls-1" points="539.2 92.28 543.35 92.28 554.41 98.67 565.8 98.67 570.76 101.53 575.59 101.53 578.94 99.59 584.79 99.59 586.68 96.32 586.66 92.43 591.12 92.43 594.36 90.56 594.34 88.28 600.89 88.28 600.89 86.02 597.58 84.11 589.25 84.11 589.23 84.11 589.23 78.73 589.22 78.73 581.19 78.73 577.66 80.77 572.74 80.77 567.64 77.83 558.38 77.83 550.73 73.42 545.81 73.42 547.72 76.72 547.72 78.99 543 78.99 537.93 76.07 531.95 76.07 524.25 80.54 536.52 87.62 539.2 92.28"/><polygon class="cls-1" points="430.32 120.96 424.87 124.1 424.87 128.47 441.22 137.91 444.29 137.91 444.29 135.12 446.64 135.12 446.64 127.44 441.52 124.44 441.52 117.75 435.97 114.55 430.32 114.55 430.32 120.96"/><polygon class="cls-1" points="366.88 205.84 366.88 202.52 369.82 197.43 365.79 195.1 365.79 193.23 369.36 193.23 367.11 189.31 367.11 184.76 363.69 186.74 363.69 191.63 358.83 200.03 358.76 199.99 356.19 198.51 352.92 204.18 352.92 206.72 355.71 206.72 355.71 211.32 355.68 211.38 358.19 212.83 359.45 212.83 363.82 212.83 370.96 212.83 366.88 205.84"/><polygon class="cls-1" points="529.69 133.84 526.27 133.84 526.27 138.6 532.95 142.46 538.33 142.46 541.18 144.1 546.13 144.1 546.13 139.98 540.48 139.98 529.69 133.84"/><polygon class="cls-1" points="592.33 189.92 599.48 185.79 599.48 177.43 595.82 171.09 588.46 166.84 590.07 164.04 590.07 161.78 582.42 157.36 579.02 159.32 577.61 160.18 580.35 165.09 580.35 165.09 582.09 165.09 582.09 169.56 588.56 169.56 594.23 172.83 594.23 178.53 588.04 178.53 588.04 183.53 589.54 184.39 589.54 188.31 592.33 189.92"/><path class="cls-1" d="M624.38,206.85h2.53l0,14-4,2.3v6.91h-4l-2.1-3.62h-8.7v-4.6l-3.48-6,2.34-1.35,3.62,2.09h2.26l2.85-1.65h3.87Zm42.47,18v-3.4l-3.18-1.83-4,2.3,2.37,1.37v1.56Zm-26.09-3.63H638l-2.73,1.58-2.73-1.58-2.3,4v4.6l3,5.12v-6.63l1.84-1.06,2.3,4h2.8l-3.31-5.73,4-2.31Zm26.88,13.9v2.52h1.21v-2.52Zm-22.53,10.45-.61-1-4.24,2.45.61,1Zm33.48-21.61L671.45,228l-3.35-1.93L665,227.87l8.64,5h3.55l3,5.12-2.3,4h5.67v2.42h2.63V228.28Zm-40.81,21v-1.78h-9.39l3.09,1.78Zm21.9-17.9H652.5v1.73h7.19Zm-14.07-11.74h-9.32V217h9.32Zm6.88,3.28h1.92v-6H652.5Zm-39.91,24.57h10.74l-3.23-1.84h-3.53l-4-2.3h-7.18l-4-2.3-4,2.3,1.44,2.49h10.84Zm-21.15-20.38V219L582,213.6l-5.19-9H571v1l4,2.3,6.3,10.91,2,1.16,8.78,15.21h4.36v-9.48Z"/><path class="cls-1" d="M627.88,206.85h-3.5l-4.75,8.07h-3.87l-2.85,1.65h-2.26L607,214.48l5-2.86h3.32l1.76-3.05h2.58v-2.41h1.76l3.26-5.65,5.16,3Zm-44.6-3.55,1,1.71v2.7l2.3,4,6.34,3.66v-3.66l-2-1.15v-4.6l-2.3-4-2.34,1.35Z"/><polygon class="cls-1" points="359.45 212.83 358.19 212.83 355.68 211.38 353.41 215.31 359.45 215.31 359.45 212.83"/><polygon class="cls-1" points="418.03 126.84 416.11 126.84 413.73 130.95 416.37 135.54 418.03 132.62 418.03 126.84"/><polygon class="cls-1" points="564.77 136.48 559.35 136.48 555.33 143.45 548.4 143.45 548.4 139.98 546.13 139.98 546.13 144.1 541.18 144.1 538.33 142.46 532.95 142.46 526.27 138.6 526.27 133.84 521.37 131 521.37 126.66 519.49 123.39 518.76 122.14 517.09 119.24 513.48 119.24 513.48 121.5 508.03 121.5 508.03 123.76 511.37 129.56 504.93 140.72 501.58 140.72 500.45 142.68 505.25 145.44 505.25 150.68 501.23 153.08 504.88 159.39 510.01 156.43 512.31 160.42 512.31 172.32 523.19 191.16 523.19 195.76 523.19 195.77 525.5 195.77 530.41 187.25 530.41 174.56 537.8 170.3 545.8 156.44 550.27 156.44 548.21 152.88 548.21 146.77 550.17 145.64 551.3 147.6 557.75 147.6 557.75 149.86 556.62 151.82 559.42 156.67 562.89 150.57 562.89 144.46 564.02 142.5 566.28 142.5 568.51 138.64 564.77 136.48"/><polygon class="cls-1" points="446.64 135.12 444.29 135.12 444.29 137.91 448.25 137.91 446.64 135.12"/><polygon class="cls-1" points="392.71 157.3 392.71 160.75 390.19 160.75 390.19 164.52 390.19 174.74 387.95 174.74 385 179.85 388.1 185.22 388.1 188.01 391.27 193.5 396.15 190.68 398.93 190.68 400.06 192.64 404.78 189.91 404.78 187.65 409.02 185.2 409.02 190.19 411.28 190.19 413.24 189.06 416.36 189.06 421.32 180.56 421.32 173.84 422.97 170.97 425.91 169.28 422.59 163.52 422.59 159.61 419.8 154.77 415.41 157.3 392.71 157.3"/><polygon class="cls-1" points="433.48 181.05 435.97 185.36 438.09 184.14 435.02 178.82 429.62 175.7 425.91 169.28 422.97 170.97 421.32 173.84 421.32 178.51 429.08 178.51 433.48 181.05"/><polygon class="cls-1" points="435.97 188.15 438.06 189.35 440.32 188.01 438.09 184.14 435.97 185.36 435.97 188.15"/><polygon class="cls-1" points="574.63 172.32 574.63 176.92 577.75 182.33 577.75 174.28 575.96 171.17 573.17 169.56 573.17 162.85 579.02 159.32 574.43 151.38 570.23 151.38 570.23 148.09 572.86 146.58 572.88 141.16 568.51 138.64 566.28 142.5 564.02 142.5 562.89 144.46 562.89 150.57 559.42 156.67 558.37 158.5 561.65 164.19 561.66 164.2 563.96 164.2 566.26 168.18 566.26 174.56 566.26 174.57 569.32 174.57 571.62 170.58 574.63 172.32"/><polygon class="cls-1" points="432.87 211.1 434.14 208.89 425.56 208.89 420.92 206.21 416.45 206.21 416.45 208.47 418.96 212.83 416.5 217.1 416.5 218.54 416.56 218.54 416.56 222.72 426 228.16 426 230.24 429.13 232.04 434.14 223.36 432.87 221.18 432.87 211.1"/><polygon class="cls-1" points="385.21 294.99 387.3 291.38 393.61 291.38 398.11 283.59 401.48 281.64 394.52 269.6 391.27 269.6 389.94 271.88 382.61 271.88 382.61 281.17 379.75 281.17 379.75 289.38 382.95 294.99 385.21 294.99"/><path class="cls-1" d="M407.9,294.11V296h-2.5v-3.8h2.5V281.64h-6.43l-3.37,1.95-4.5,7.79H387.3L385.21,295H383l-3.2-5.62v9.81h-6.26l-2.13,1.23,4.59,7.95V313l2.3,4,4-2.3h11.91l8.78-5.07,7.37-12.76v-2.71Zm-7.52,11.69-4.07-2.35,2.41-4.17H401l1.59,2.76Z"/><polygon class="cls-1" points="360.1 233.56 361.16 235.39 362.58 235.39 362.58 233.58 364.45 232.5 363.19 231.77 360.1 233.56"/><path class="cls-1" d="M330.91,194.66v-7.15h-7.42v10.15l-1.13,2v3.91h7L332,202v-5.47Z"/><path class="cls-1" d="M334.42,192.43l-1.13-2v-3h-2.38v7.15l1.09,1.88V202l2.43-1.4Z"/><polygon class="cls-1" points="290.26 181.12 296.15 181.12 296.15 179.7 289.46 179.7 290.26 181.12"/><polygon class="cls-1" points="308.47 200.55 308.47 198.45 303.58 195.63 301.23 199.7 311.88 205.84 311.88 202.52 308.47 200.55"/><polygon class="cls-1" points="296.9 183.48 291.63 183.48 293.64 186.97 296.9 185.05 296.9 183.48"/><polygon class="cls-1" points="302.11 190.98 298.71 190.98 296.64 192.16 297.77 194.13 297.77 197.7 301.23 199.7 303.58 195.63 303.58 193.55 302.11 190.98"/><polygon class="cls-1" points="355.08 89.05 355.08 87.56 355.08 85.87 348.1 85.87 346.24 89.1 348.21 90.23 348.64 90.97 351.97 89.05 355.08 89.05"/><path class="cls-1" d="M352.15,104.46l2.16-1.25V108l-2.16,1.25Zm8.33,7.66,5.79,3.34v-3.34Zm13.43-6.81L364,99.6l-4.25-7.52,2.82-1.63v-2.9h-7.51v1.5H352L348.64,91l2.3,4h5.4l3.5,6.2,8.71,5v5.55l1.79-1v-5.38Z"/><polygon class="cls-1" points="385 96 385 100.04 385 101.75 394.15 101.75 394.15 100.04 397.24 100.04 397.24 97.51 397.26 97.47 394.7 96 385 96"/><path class="cls-1" d="M360.47,42.84l2.75-1.59,3.14-5.44h1.79l2.56-4.43h2.92l3-1.78H380l0-.07,0,.07h9.8L394,27.14H373.69l-9.5,5.49-3.62,6.28-14.28,8.24v4.6l2.3,4h2.53l7.62-4.4,1.73-3Z"/><path class="cls-2" d="M419.83,114.55,417,116.16l-1-1.74-4,2.3H397.78l-3.63-6.29v-5.29H398v-2h7.15l3.51-2h4.6l4,2.3h16.08v2.26l1.17,2,1.5,2.62v4.23H419.83ZM394.15,100v3.79h.12l3-1.72V100Z"/><path class="cls-1" d="M299.26,178.75l1.72-3h16.31v-2.26l-1.81-3.14V149h3.75l-9.47-5.47v2.25h-8.42v7.07l-3.11,1.8v4.07H290v13.8h5.69Z"/><path class="cls-1" d="M360.27,153.76v0l-19,10.95v12.19H330.56v2.5l5.75,3.32v3l3.11,1.79,2-3.41V180h3.45l3.84,2.22,6.17,0,2-1.13h8V178l5-8.72v-8.69l-1.67-2.9v-2.26H363Z"/><polygon class="cls-1" points="391.16 130.34 385.05 126.81 380.11 126.81 380.11 132.64 377.84 133.95 373.85 131.65 369.25 131.65 366.58 127.02 357.43 127.02 357.43 129.31 355.12 133.31 355.12 143.58 352.91 147.43 360.27 151.69 360.27 153.76 363.01 155.38 368.15 155.38 371.26 153.59 390.19 164.52 390.19 160.75 392.71 160.75 392.71 157.3 392.71 133.3 394.42 130.34 391.16 130.34"/><polygon class="cls-1" points="349.97 124.39 355.12 133.31 357.43 129.31 357.43 127.02 357.32 127.02 355.02 123.03 357.32 119.05 355.02 115.06 351.52 115.06 351.52 121.7 349.97 124.39"/><path class="cls-1" d="M328.54,176.94h12.77V164.75l-6.22-3.59v-3L319.23,149h-3.75v21.35l1.81,3.14v2.26H301l-1.72,3,1.42,2.47v2.26l2,1.13h5.13l2.72,4.71h6.17v-5.52Z"/><polygon class="cls-1" points="407.65 208.84 407.65 214.53 404.4 220.16 404.4 222.42 407.65 222.42 410.75 222.42 410.75 218.54 416.5 218.54 416.5 217.1 418.96 212.83 416.45 208.47 416.45 206.21 411.83 208.84 407.65 208.84"/><polygon class="cls-1" points="297.23 141.57 289.99 154.12 289.99 158.74 298.22 158.74 298.22 154.67 301.33 152.87 301.33 145.8 309.75 145.8 309.75 143.55 309.75 140.73 298.69 140.73 297.23 141.57"/><polygon class="cls-1" points="316.09 109.95 316.09 101.16 311.81 101.16 311.81 114.66 314.8 114.66 314.8 110.63 316.09 109.95"/><path class="cls-2" d="M294.89,136.94v-1.21h2.52v1.21Zm-3.62,2.18h2.52v-1.21h-2.52Zm47.85-31.62H336.6v1.21h2.52Zm-9.26-9.22-2-1.12H311.8v4h4.28v8.79l-1.29.69v4l2.94,1.7,4-2.3h6.19l6.49-11.25,4-2.3-3.83-2.23Z"/><polygon class="cls-1" points="368.15 87.56 371.75 89.64 378.65 89.64 381.95 83.93 370.36 83.93 368.15 87.56"/><path class="cls-1" d="M389.77,32.23V29.61H380l1.09,1.89,0,5,.07,0,5.72,3.3-9.49,5.48,2.83,4.9h12.78l3.56-6.17Z"/><polygon class="cls-1" points="381.01 104.05 385 101.75 385 100.04 381.01 100.04 381.01 104.05"/><polygon class="cls-1" points="341.46 76.8 346.25 79.56 347.14 78.02 347.14 75.04 343.63 73.02 341.46 76.8"/><polygon class="cls-1" points="385.47 75.3 386.6 73.34 386.6 68.74 383.01 66.67 378.66 66.67 371.25 66.67 368.55 68.22 365.15 68.22 365.15 75.29 373.63 80.44 381.95 80.44 386.81 77.64 385.47 75.3"/><rect class="cls-1" x="346.45" y="78.42" width="1.79" height="1.49" transform="translate(105.14 340.41) rotate(-60.01)"/><polygon class="cls-1" points="373.63 80.44 365.15 75.29 359.56 78.52 361.76 82.33 370.36 82.33 373.63 80.44"/><polygon class="cls-1" points="362.59 90.46 366.5 90.46 368.15 87.56 362.59 87.56 362.59 90.46"/><polygon class="cls-1" points="370.96 92.56 375.05 99.66 375.33 99.83 376.64 97.47 376.64 92.56 370.96 92.56"/><polygon class="cls-1" points="434.47 107.7 435.97 110.32 437.9 110.32 437.9 107.7 434.47 107.7"/><polygon class="cls-1" points="405.4 296.01 407.9 296.01 407.9 294.11 407.9 292.21 405.4 292.21 405.4 296.01"/><polygon class="cls-1" points="160.6 168.18 157.93 163.55 153.71 163.55 153.71 168.18 160.6 168.18"/><polygon class="cls-1" points="153.71 163.55 151.49 163.55 151.49 166.51 146.82 166.51 146.82 168.18 153.71 168.18 153.71 163.55"/><polygon class="cls-1" points="108.97 181.34 112.68 183.49 114.09 181.06 110.34 178.9 108.97 181.34"/><polygon class="cls-1" points="110.34 177.06 111.65 174.84 109.35 174.84 108.45 174.84 108.45 169.59 103.73 169.59 103.73 171.92 105.69 173.06 105.69 174.16 100.38 174.16 100.36 178.9 100.38 178.91 104.76 178.91 108.97 181.34 110.34 178.9 110.34 177.06"/><path class="cls-2" d="M191.73,306.3l1.78-3.09h0l6.2-10.74v-3.68h-2.44v3.34l-2.46,4.26h-6.57v-8.13l-11.9-7H166.16v4.55L163,287.63v20.5l2.6,4.5V332l3.46,6v11.18L176.35,362h5.15l5.47-9.48-6.59-3.8,2.85-1.65V334.61h4.4V330l10-5.78V320.5l-2.3-4-3.62-2Z"/><polygon class="cls-1" points="166.16 281.24 176.35 281.24 176.35 273.75 186.87 273.75 188.24 271.37 185.78 267.11 185.78 264.85 179.8 264.85 179.8 257.14 175.59 257.14 166.42 251.85 166.42 246.85 164.16 246.85 158.91 249.88 158.91 268.73 166.16 281.24"/><polygon class="cls-1" points="120.44 186.94 115.44 186.94 115.44 189.69 122.99 194.05 122.99 191.15 120.44 189.68 120.44 186.94"/><polygon class="cls-1" points="187.47 370.74 187.47 370.75 191.14 372.87 195.72 372.86 183.82 365.99 183.82 370.74 187.47 370.74"/><polygon class="cls-2" points="146.37 192.71 148.28 196.03 148.28 199.34 151.89 199.34 155.7 201.54 160.18 201.54 160.18 213.58 162.25 217.17 164.32 217.17 169.96 213.91 167.66 209.94 167.66 206.85 169.93 206.85 172.73 208.47 175.72 206.65 175.72 196.3 177.52 195.17 174.35 189.68 169.75 189.68 165.76 191.98 157.24 187.06 157.23 187.05 151.98 187.05 151.98 193.48 150.16 193.48 150.16 188.98 148.53 188.98 146.37 192.71"/><path class="cls-2" d="M193.51,303.21l-1.78,3.09v8.19l3.62,2h7.46l2.09-3.62v-3.11Z"/><polygon class="cls-1" points="179.69 213.55 180.82 215.51 184.44 213.42 187.63 213.42 184.51 208.03 187.71 202.58 185.03 202.58 180.74 195.17 177.52 195.17 175.72 196.3 175.72 204.6 179.69 204.6 179.69 213.55"/><polygon class="cls-1" points="187.63 213.42 192.89 213.42 192.89 202.58 187.71 202.58 184.51 208.03 187.63 213.42"/><polygon class="cls-1" points="145.75 225.85 152.32 225.85 152.32 230.67 154.48 230.67 154.48 213.58 160.18 213.58 160.18 201.54 155.7 201.54 151.89 199.34 148.28 199.34 148.28 196.03 146.37 192.71 148.53 188.98 150.16 188.98 150.16 187.05 145.15 187.05 141.16 189.35 141.16 192.42 137.17 194.72 135.02 193.48 135.02 196.39 135.02 213.23 132.77 214.53 142.45 220.12 145.75 225.85"/><polygon class="cls-1" points="108.45 169.59 108.45 174.84 109.35 174.84 111.65 170.85 111.65 167.63 109.58 167.63 108.45 169.59"/><rect class="cls-1" x="203.51" y="363.25" width="3.91" height="1.84"/><polygon class="cls-1" points="416.37 135.54 418.03 132.62 418.03 126.84 420.12 126.84 424.87 124.1 424.87 128.47 421.69 128.47 423.79 132.11 421.79 135.54 416.37 135.54"/><path class="cls-1" d="M469.78,150.37l-2.61,4.41v6.08l-7.45,4.3,3.89,6.74,9.77-5.64v-4.6l4-2.3v-4.6Z"/><polygon class="cls-1" points="457.29 146.9 455.37 148.03 455.37 150.25 457.29 150.25 457.29 146.9"/><path class="cls-1" d="M456.37,167.09h-4.85l-2.75,4.77H437.63l.16.29v6.68l2.3,4,4-2.3h4.6l14.93-8.62-3.89-6.74Z"/><polygon class="cls-1" points="523.11 119.04 520.27 117.41 517.09 119.24 518.76 122.14 519.49 123.39 523.11 121.31 523.11 119.04"/><polygon class="cls-1" points="376.64 97.47 375.33 99.83 375.33 99.83 378.66 101.75 378.66 98.68 376.64 97.47"/><polygon class="cls-1" points="503.07 96.85 499.4 98.97 494.62 98.97 494.62 100.54 496.57 101.67 493.45 103.48 500.78 103.48 498.93 106.68 496.67 106.68 493.79 108.34 493.79 109.22 504.12 109.22 504.12 106.14 509.18 103.22 512.82 103.22 517.09 100.75 517.09 97.98 505.03 97.98 503.07 96.85"/><polygon class="cls-1" points="457.51 98.02 454.14 98.02 454.14 103.22 459.35 112.25 460.85 111.38 468.46 111.38 476.74 116.16 476.74 120.18 488 113.68 488 111.42 474.81 103.81 471.94 103.81 471.95 101.56 467.18 98.8 464.73 103.03 462.57 103.03 460.4 103.03 457.51 98.02"/><path class="cls-1" d="M524.24,80.54,516.4,76H506.1l-2.31-4-8.41-4.86-2.6,1.5-4,0-6.94-3.95h-8.08l-4.92,2.88-5.2,0v2.26l2.69,4.61V76.7l-14.19.06-3.9-2.23-4.81,0-6.78,4,0,4.86,5.74,3.28s0,1.92,0,2.14l3.51-2h6.35l0,0V90.9L448,93.43,450.6,98h6.91l2.89,5h2.17v-9.2l5.33-3.07,5.71,3.3,1.66,2.88h7l3.57,6.19h4.32l4.48-2.58V99h4.78l3.67-2.12L505,98h12.06V95.72l-.08-.14-1.86-3.21h2.26Zm-13.83,8.24h-8.1l-1.87,1.08v2.61h-2.39v-3.2l3.12-1.8h9.25Z"/><polygon class="cls-1" points="445.99 109.21 445.99 105.46 443.54 101.21 441.45 102.42 438.31 100.61 438.31 103.4 438.31 103.4 441 108.05 441 108.05 444.25 106.18 445.99 109.21"/><polygon class="cls-1" points="506.44 113.24 506.44 115.17 501.87 115.17 499.91 116.3 499.91 122.39 497.75 123.64 497.75 129.94 491.54 133.54 491.54 136.52 477.82 136.52 480.66 131.6 476.74 129.34 476.74 120.18 488 113.68 495.08 113.68 496.52 111.19 499.91 111.19 499.91 114.41 501.87 113.24 506.44 113.24"/><polygon class="cls-1" points="410.75 222.42 410.75 226.66 414.29 226.66 416.56 222.72 416.56 218.54 416.5 218.54 410.75 218.54 410.75 222.42"/><polygon class="cls-1" points="161.8 11.77 146.96 11.77 142.97 14.07 157.82 14.07 161.8 11.77"/><polygon class="cls-1" points="370.07 8.61 370.07 8.62 373.38 8.62 377.37 6.31 377.37 4.83 368.55 4.83 365.78 6.42 356.29 6.42 365.07 11.5 370.07 8.61"/><polygon class="cls-1" points="146.82 162.59 131.7 153.87 127.79 153.87 122.11 157.14 131.9 157.14 141.33 162.59 146.82 162.59"/><polygon class="cls-1" points="699.64 275.94 694 272.67 694 266.15 689.27 257.96 689.27 250.58 687.35 250.58 685.05 254.56 685.05 261.93 680.79 269.31 667.32 261.53 671.86 253.68 658.49 253.68 653.64 262.07 648.41 259.06 634.66 267 634.66 271.61 624.37 277.55 615.22 277.55 609.73 287.12 609.73 311.5 605.74 313.8 605.74 317.22 612.79 317.22 618.51 313.91 627.04 313.91 638.69 307.19 651.41 307.19 655.88 314.92 662.17 311.29 662.17 327.18 662.19 327.18 680.79 327.18 685.3 319.37 694.95 313.8 705.21 296.03 705.21 291.42 699.64 281.77 699.64 275.94"/><polygon class="cls-1" points="619.64 206.17 618.45 206.17 617.06 208.57 619.64 208.57 619.64 206.17"/><polygon class="cls-1" points="449.36 261.17 441.3 265.82 441.3 275.8 438.11 281.2 438.11 286.48 440.42 290.47 445.02 290.47 450.03 281.78 450.03 277.18 452.87 272.27 452.87 267.66 456.1 262.08 456.1 257.48 453.79 253.49 449.36 261.17"/><path class="cls-1" d="M327.47,68l-4.94-8.56,2.3-4,6,3.45-2,3.5,3.6,6.24h2.5l2.16,3.75-2.47,3.24h-8.88l-4,2.31Zm-8.09-2.82-3,1.75,4.07,2.31,1.5-2.6Z"/><polygon class="cls-1" points="203.36 84.76 212.78 84.76 215.75 79.62 206.33 79.62 203.36 84.76"/><polygon class="cls-1" points="170.5 42.87 175.79 42.87 177.45 39.98 172.17 39.98 170.5 42.87"/><polygon class="cls-1" points="197.53 31.09 193.9 31.09 192.76 33.07 196.39 33.07 197.53 31.09"/><polygon class="cls-1" points="179.16 6.8 172.51 6.8 171.37 8.78 178.02 8.78 179.16 6.8"/><polygon class="cls-1" points="177.59 19.13 181.56 16.82 173.91 16.82 171.22 21.43 175.2 19.13 177.59 19.13"/><polygon class="cls-1" points="198.71 8.59 196.88 11.74 175.59 11.74 179.58 13.98 203.34 13.98 221.12 3.72 235.77 3.72 242.21 0 216.23 0 212.24 2.3 201.78 2.3 197.79 4.6 187.85 4.6 190.15 8.59 198.71 8.59"/><polygon class="cls-1" points="297.45 28.31 299 25.62 294.83 18.39 301.92 18.39 305.29 12.56 302.98 8.57 308.29 5.5 314.2 5.5 314.21 5.51 319.52 2.44 300.2 2.44 296.21 0.14 271.14 0.14 269.26 3.41 244.56 3.41 233.79 9.67 224.15 9.67 226.45 13.66 241.12 13.66 241.14 13.67 241.14 20.46 245.35 27.75 237.2 32.45 237.2 47.31 248.21 53.57 257.86 36.86 272.55 36.86 272.57 36.88 275.66 31.52 283.96 31.52 285.84 28.29 297.44 28.29 297.45 28.31"/><polygon class="cls-1" points="132.57 25.3 128.58 27.6 128.58 29.6 141.88 29.6 144.37 28.16 153.26 28.15 150.96 24.16 153.61 19.57 149 19.57 146.7 23.56 136.11 17.44 126.82 17.44 117.16 23 128.58 23 132.57 25.3"/><polygon class="cls-1" points="216.23 38.84 221.5 35.79 211.88 30.24 211.88 25.64 199.74 18.63 199.74 22.13 193.44 18.49 184.37 18.49 178.79 21.71 178.79 26.32 198.85 26.32 202.97 33.46 195.16 37.97 195.15 37.97 187.84 37.97 186.61 40.11 195.15 40.1 198.03 45.09 202.63 45.09 204.56 48.43 204.56 48.44 207.04 48.43 204.25 43.6 208.86 43.6 211.12 42.29 207.88 36.68 212.49 36.68 216.23 38.84"/><polygon class="cls-1" points="157.24 20.14 159.54 24.13 169.38 18.44 163.22 18.44 160.34 20.14 157.24 20.14"/><rect class="cls-1" x="136.35" y="166.51" width="4.66" height="1.67"/><rect class="cls-1" x="156.96" y="28.33" width="3.21" height="1.9"/><path class="cls-1" d="M531.16,193.21v8.06h4.32v-2.65l-3.12-5.4Z"/><path class="cls-1" d="M635.48,171.67l-2.3,4,2.3,4h-3l-2.3-4v-8.41h2.73Zm13.09,23.56-1.74-3-5.23,3h-3.81v2.3h4.6v3.34l2.2,1.27,4-2.3Zm-16.09-10.52h1.21V182.2h-1.21ZM625,194.91l4.63-2.67-.61-1-4.63,2.67Zm14.44-14.13v4.14H641v-4.14Zm0,6.73h-3.11v3.8h3.11Z"/><rect class="cls-1" x="343.64" y="219.45" width="2.57" height="2.57"/><polygon class="cls-1" points="339.42 189.83 339.42 187.57 336.31 185.77 333.29 187.51 333.29 190.47 334.43 192.43 334.43 200.6 336.93 200.6 336.93 194.13 339.42 189.83"/><path class="cls-1" d="M356.19,198.51l2.57,1.49.07,0,4.85-8.41v-4.88l3.42-2L365,181.07h-8.19l-2,1.13-6.17,0L344.82,180h-3.45v4.15l-2,3.41v2.26l-2.48,4.3v6.48h4.67l3.54,6.13h7.77v-2.54Z"/><polygon class="cls-1" points="583.09 180.67 588.04 183.53 588.04 178.53 594.23 178.53 594.23 172.83 588.56 169.56 582.09 169.56 582.09 165.09 580.35 165.09 580.35 165.09 577.61 160.18 573.17 162.85 573.17 169.56 575.96 171.17 577.75 174.28 577.75 182.33 577.75 193.73 583.28 203.3 586.27 203.3 588.61 201.95 583.77 199.15 580.21 192.99 580.21 182.33 583.09 180.67"/><polygon class="cls-1" points="420.37 122.79 420.37 121.74 418.33 121.74 418.33 123 416.11 126.84 418.03 126.84 420.37 122.79"/><polygon class="cls-1" points="413.73 130.96 404.27 130.96 401.36 132.64 397.37 130.34 394.42 130.34 392.71 133.3 392.71 157.3 415.41 157.3 419.8 154.77 409.98 137.78 409.98 133.18 414.01 140.15 416.37 135.54 413.73 130.95 413.73 130.96"/><polygon class="cls-1" points="420.37 122.79 418.03 126.84 420.12 126.84 424.87 124.1 430.32 120.96 430.32 114.55 419.83 114.55 417.04 116.16 418.33 118.4 418.33 121.74 420.37 121.74 420.37 122.79"/><polygon class="cls-1" points="446.41 196.26 439.92 192.51 438.06 189.35 435.97 188.15 435.97 185.36 433.48 181.05 429.08 178.51 421.32 178.51 421.32 180.56 416.36 189.06 416.36 194.25 412.48 196.49 416.72 198.94 420.92 206.21 425.56 208.89 434.14 208.89 437.85 206.76 444.29 206.76 450.35 196.26 446.41 196.26"/><path class="cls-1" d="M321.82,129.93v1.57l-12.07,7v5.08l9.47,5.47h0l15.86,9.16v3l6.22,3.59,19-10.95v-2.12l-7.36-4.25,2.21-3.85V133.31L350,124.39l1.55-2.69v-6.64H337.81l-9.45,5.45v5.64Z"/><polygon class="cls-1" points="453.11 185.96 446.08 190.01 441.48 190.01 440.32 188.01 438.06 189.35 439.92 192.51 446.41 196.26 450.35 196.26 444.29 206.76 437.85 206.76 434.14 208.89 432.87 211.1 432.87 221.18 434.14 223.36 438.64 215.57 448.83 209.69 457.71 194.31 457.71 185.96 453.11 185.96"/><polygon class="cls-1" points="378.3 270.12 387.1 270.12 390.43 268.19 385.63 265.46 385.63 255.96 390.64 255.96 390.64 250.44 385.63 250.44 385.63 240.85 384.5 238.9 379.14 238.9 379.14 241.85 374.01 241.84 370.36 235.51 365.42 235.51 362.27 237.32 364.58 241.31 364.58 253.28 360.03 261.17 360.03 267.76 374.23 267.76 378.3 270.12"/><polygon class="cls-1" points="393.71 268.19 390.43 268.19 387.1 270.12 378.3 270.12 374.23 267.76 360.03 267.76 360.03 270.2 366.77 281.88 366.77 292.47 371.36 300.42 373.49 299.19 379.75 299.19 379.75 281.17 382.61 281.17 382.61 271.88 389.94 271.88 391.27 269.6 394.52 269.6 393.71 268.19"/><polygon class="cls-1" points="360.27 225.61 366.66 225.61 366.66 221.49 365.53 219.53 366.66 217.57 366.66 215.31 363.82 215.31 363.82 212.83 359.45 212.83 359.45 215.31 353.41 215.31 353.41 221.97 358.21 230.29 360.27 229.06 360.27 225.61"/><path class="cls-1" d="M373.26,208.84l-2.3,4h-7.14v2.48h2.84v2.26l-1.13,2,1.13,2v4.12h-6.39v3.45l-2.06,1.23,1.89,3.27,3.1-1.78,1.26.73h2.71l3.83-2.21,0-5.84,4-2.33v-7.6l1.53-2.66v-3Z"/><polygon class="cls-1" points="579.02 159.32 574.43 151.38 570.23 151.38 570.23 148.09 572.86 146.58 572.88 141.16 568.51 138.64 564.77 136.48 559.35 136.48 555.33 143.45 548.4 143.45 548.4 139.98 546.13 139.98 540.48 139.98 529.69 133.84 526.27 133.84 521.37 131 521.37 126.66 519.49 123.39 523.11 121.31 523.11 119.04 520.27 117.41 517.09 119.24 513.48 119.24 506.44 115.17 506.44 113.24 504.12 109.22 504.12 106.14 509.18 103.22 512.82 103.22 517.09 100.75 517.09 97.98 517.09 95.72 517.01 95.58 515.15 92.37 517.41 92.37 524.25 80.54 536.52 87.62 539.2 92.28 543.35 92.28 554.41 98.67 565.8 98.67 570.76 101.53 575.59 101.53 578.94 99.59 584.79 99.59 586.68 96.32 586.66 92.43 591.12 92.43 594.36 90.56 594.34 88.28 600.89 88.28 600.89 86.02 597.58 84.11 589.25 84.11 589.23 84.11 589.23 78.73 593.07 78.73 593.07 69.24 600.33 69.24 622.96 82.31 622.96 85.43 626.97 85.43 631.33 82.91 633.54 86.74 633.54 93.34 629.15 93.34 631.8 97.89 631.8 97.89 631.8 97.89 625.8 100.94 623.54 100.94 620.41 106.36 620.38 106.36 616.4 108.66 613.5 103.65 610.97 103.65 606.9 110.71 611.95 113.63 620.35 113.63 620.37 113.63 620.37 114.81 614.05 118.46 614.05 121.83 618.66 121.83 624.49 131.93 624.49 141.38 616.21 155.72 610.29 155.72 602.77 160.06 601.48 157.82 595.09 157.82 592.87 153.98 588.29 153.98 579.02 159.32"/><polygon class="cls-1" points="556.62 151.82 557.75 149.86 557.75 147.6 551.3 147.6 550.17 145.64 548.21 146.77 548.21 152.88 550.27 156.44 553.26 156.44 556.2 154.75 558.37 158.5 559.42 156.67 556.62 151.82"/><polygon class="cls-1" points="399 269.6 394.52 269.6 401.48 281.64 407.9 281.64 412.22 274.26 412.22 267.25 406.13 263.74 402.38 263.74 399 269.6"/><path class="cls-1" d="M299.26,178.75l-3.59-6.21H290v.13l-2.31,4,1.76,3.05h6.71v1.42h-5.89l1.36,2.36h9.06v-2.27Z"/><polygon class="cls-1" points="320.04 191.26 316.67 189.31 310.49 189.31 310.49 197.35 308.54 198.48 308.47 198.45 308.47 200.55 311.88 202.52 311.88 205.84 315.85 203.52 322.35 203.52 322.35 199.62 323.48 197.66 323.48 191.26 320.04 191.26"/><polygon class="cls-1" points="307.78 184.61 302.65 184.61 300.69 183.48 296.9 183.48 296.9 185.05 293.64 186.97 296.64 192.16 298.71 190.98 302.11 190.98 303.58 193.55 303.58 195.63 308.54 198.48 310.49 197.35 310.49 189.31 307.78 184.61"/><polygon class="cls-1" points="370.96 92.56 376.64 92.56 376.64 89.64 371.75 89.64 368.15 87.56 366.5 90.46 362.59 90.46 364.1 93.23 367.01 93.23 368.56 95.92 375.05 99.66 370.96 92.56"/><polygon class="cls-1" points="385 96 384.99 96 380.97 93.67 378.65 89.64 376.64 89.64 376.64 92.56 376.64 97.47 378.66 98.68 381.01 100.04 385 100.04 385 96 385 96"/><polygon class="cls-1" points="378.66 101.75 378.66 106.35 381.01 105 381.01 104.05 380.98 104.07 381.01 104.05 381.01 100.04 378.66 98.68 378.66 101.75"/><polygon class="cls-1" points="378.65 89.64 380.97 93.67 384.99 96 385 96 385 96 394.7 96 397.26 97.47 399.54 93.52 399.54 92.56 397.24 92.56 392.18 84.04 381.89 84.04 378.65 89.64"/><path class="cls-1" d="M393.06,119.67h-6v-1.38h6ZM385,101.75l-4,2.3V105l-2.35,1.35,5.45,9.44,2.3-4-2.3-4,2.3-4h7.73v-2.08Z"/><path class="cls-1" d="M383.76,192.23l-9,5.2h-4.94l-2.94,5.1v3.32l4.08,7,2.3-4h3.28v-2.45l3.29-1.9,4,2.3h3l3.29-1.9h9.57l-3.09-5.35-5.34-3.08v-3L388.1,188h-1.9Z"/><polygon class="cls-1" points="396.61 199.53 399.7 204.88 400.83 206.84 406.52 206.84 407.65 208.84 411.83 208.84 416.45 206.21 420.92 206.21 416.72 198.94 412.48 196.49 416.36 194.25 416.36 189.06 413.24 189.06 411.28 190.19 409.02 190.19 409.02 185.2 404.78 187.65 404.78 189.91 400.06 192.64 398.93 190.68 396.15 190.68 391.27 193.5 391.27 196.45 396.61 199.53"/><path class="cls-1" d="M368.15,155.38v2.26l1.67,2.9v8.69l-5,8.72v3.12H365l2.13,3.69v4.55l2.26,3.91h-3.57v1.87l4,2.33h4.94l9-5.2L386.2,188h1.9v-2.79l-3.1-5.37,3-5.11h2.23V164.52l-18.93-10.93Z"/><polygon class="cls-1" points="319.84 120.52 318.35 117.94 315.41 123.03 307.37 127.68 307.37 135.72 298.69 140.73 309.75 140.73 309.75 138.47 321.82 131.5 321.82 129.93 328.37 126.15 328.37 120.52 319.84 120.52"/><path class="cls-1" d="M330.56,179.44v-2.5h-2l-11.87,6.85v5.52l3.38,1.95h3.44v-3.75h9.81l3-1.74v-3Z"/><path class="cls-1" d="M353.44,99.25v2.52h-1.21V99.25Zm-5.23-9-2-1.13,1.86-3.23,2.27-3.93-2.83-1.64-1.29-.74-4.79-2.77-10.57,6.1h-4.6l4.93,8.55-3.3,5.72h0l2,1.12h4.71l3.83,2.23,2.3-4h7.51l2.73-1.58Z"/><polygon class="cls-1" points="370.36 82.33 370.36 83.93 381.95 83.93 381.95 80.44 373.63 80.44 370.36 82.33"/><path class="cls-1" d="M373.63,57.08v2h-1.54v-2ZM380,29.61h-3.3l-3,1.78h-2.92l-2.56,4.43h-1.79l-3.14,5.44-2.75,1.59v5.46l-1.73,3v6l3.06,5.3h3.43l4-2.3V54.94l4-2.3-4-2.3v-4.6l7.89-4.56V38.74L381,36.49l0-5Z"/><polygon class="cls-1" points="370.36 82.33 361.76 82.33 359.72 85.87 355.08 85.87 355.08 87.56 362.59 87.56 368.15 87.56 370.36 83.93 370.36 82.33"/><polygon class="cls-1" points="386.6 68.74 386.6 73.34 391.47 73.34 393.43 74.48 400.19 74.48 404.15 72.19 404.15 68.22 399.58 65.61 399.58 62.88 396.51 61.13 393.05 61.13 389.9 63.02 386.6 68.74"/><polygon class="cls-1" points="345.99 68.92 343.63 73.02 347.14 75.04 350.67 68.92 345.99 68.92"/><polygon class="cls-1" points="359.41 68.22 355.53 65.98 355.53 63.99 351.54 63.99 351.54 64.93 353.84 68.92 350.67 68.92 347.14 75.04 347.14 78.02 348.43 78.76 347.54 80.31 350.37 81.94 348.1 85.87 355.08 85.87 359.72 85.87 361.76 82.33 359.56 78.52 365.15 75.29 365.15 68.22 359.41 68.22"/><polygon class="cls-1" points="398.72 299.27 396.31 303.45 400.38 305.8 402.57 302.03 400.98 299.27 398.72 299.27"/><polygon class="cls-1" points="402.77 225.24 402.77 226.67 405.49 226.67 405.49 225.24 407.65 225.24 407.65 222.42 404.4 222.42 402.77 225.24"/><polygon class="cls-2" points="105.69 174.16 105.69 173.06 103.73 171.92 103.73 169.59 108.45 169.59 109.58 167.63 111.65 167.63 116.8 158.71 109.8 158.71 107.15 160.24 103.07 167.3 93.82 167.29 89.82 160.36 89.82 148.85 91.44 146.05 85.16 135.17 82.09 135.17 79.5 136.66 75.35 129.48 70.93 129.48 68.97 130.61 62.98 130.61 56.08 126.63 50.42 126.63 50.42 136.76 60.51 154.23 60.51 148.94 54.4 138.36 54.4 129.51 58.39 131.81 58.39 136.41 70.28 157.01 70.28 163.86 85.67 172.75 96.81 172.73 100.36 178.9 100.38 174.16 105.69 174.16"/><path class="cls-2" d="M176.35,281.24l11.9,7v8.13h6.57l2.46-4.26v-6.62H195l-2.43-4.22h-5.7v-7.55H176.35Z"/><polygon class="cls-1" points="120.44 177.39 114.09 181.06 112.68 183.49 115.44 185.09 115.44 186.94 120.44 186.94 120.44 177.39"/><polygon class="cls-1" points="169.06 349.21 169.06 338.02 165.59 332.02 165.59 312.63 162.99 308.12 162.99 287.63 166.16 285.8 166.16 281.24 158.91 268.73 157.29 271.53 157.29 305.13 160.4 310.23 160.4 329.07 166.19 339.1 166.19 350.48 176.47 368.28 184.44 372.88 191.14 372.87 187.47 370.75 187.47 370.74 183.82 370.74 183.82 365.99 183.79 365.98 181.49 361.99 176.35 361.99 169.06 349.21"/><polygon class="cls-1" points="196.12 213.42 199.3 208.01 196.17 202.59 196.16 202.58 192.89 202.58 192.89 213.42 196.12 213.42"/><path class="cls-1" d="M235.61,233.62l-3.49-6,0,0h-9.28L211.37,221h-4.6L199.3,208l-3.18,5.4H184.44l-3.62,2.09-1.13-2V204.6h-4v2l-3,1.82-2.81-1.62h-2.26v3.09l2.3,4-5.64,3.26h-2.07l-2.07-3.59h-5.7v17.09h-2.16L146,234.3v9.37l4.58,2.65h3.09v3.56h5.2l5.25-3h2.26v5l9.17,5.3h4.21v7.71h6v2.26l2.46,4.26-1.37,2.37v7.55h5.7l2.43,4.22h2.26v3.28h2.44v3.68l-6.2,10.74,11.39,6.58v3.11l7.5-13v-11l9.2-5.31h4.6l7.15-12.39v-13l8.92-15.47v-9Z"/><polygon class="cls-1" points="110.34 178.9 114.09 181.06 120.44 177.39 120.44 174.85 120.43 174.84 111.65 174.84 110.34 177.06 110.34 178.9"/><polygon class="cls-1" points="130.79 191.04 126.8 193.34 122.99 191.15 122.99 194.05 127.04 196.39 131.03 194.09 135.02 196.39 135.02 193.48 130.79 191.04"/><polygon class="cls-1" points="153.71 249.88 153.71 249.89 153.7 249.88 153.71 249.88 153.71 246.32 150.62 246.32 146.03 243.68 146.03 234.3 152.32 230.67 152.32 225.85 145.75 225.85 142.45 220.12 140.28 218.87 140.28 223.42 133.2 227.51 133.2 232.52 133.2 232.86 133.2 232.52 128.99 232.52 126.8 228.72 126.8 233.6 140.4 257.17 140.4 261.77 157.29 271.53 158.91 268.73 158.91 249.88 153.71 249.88"/><polygon class="cls-1" points="133.2 232.52 133.2 227.51 140.28 223.42 140.28 218.87 132.77 214.53 126.8 217.98 126.8 228.72 128.99 232.52 133.2 232.52"/><path class="cls-1" d="M207.06,64.76h0V53.2L204.88,52l-8.1,4.68h-4.6l4.15-7.19L191,46.38h-8.36l-6.18,10.7v4.22l-9.63,5.56v6.68l-4,2.3h-4.6v-6L161,65.05h-4.6l-8.49-4.9h-5.31V51.83l16.52-9.54h6.56l4-2.3-4-2.3h9.61l9.06-5.23V29.38h-2.53l-8.91,5.14v-6L169.72,23l-5.81,3.35v4.6l-4,2.3H125.81l-8.29-4.79H91L55.23,49l7,4v7.65H59.58v14L63.25,81h64.13l4.78,2.73,3.49-2h5.95l3.67,6.37.89,1.55h2.44L154,92.78h-6.26l-1.52,2.73v2.93h2.09l6.24-3.6H161l4.52-2.61h4.94l4-6.89h4.31v5.44l2,1.13v2.31h7.82l10-5.76V86.05l-7.77,4.49-4.15-7.19h5.3l-1.39-2.42h-8.65l6-3.46h13l5-2.89h6l3.06-5.3ZM102.25,35.25h6.49l3.09-1.78,4.49,2.59-4.66,2.69H100.23Zm12,13.19h-5.07L107.06,51l-1.27-.63h-5.25V47.67h5.25l4.48-2.59,2.83,1.63,5.83-3.37,1,1.77Zm10.9,27.34-3,1.83V68h3Z"/><polygon class="cls-1" points="469.59 150.25 467.29 146.27 464.98 150.25 457.29 150.25 459.89 154.77 467.17 154.77 469.78 150.37 469.59 150.25"/><polygon class="cls-1" points="451.52 167.09 456.37 167.09 467.17 160.86 467.17 154.77 459.89 154.77 457.29 150.25 455.37 150.25 448.25 137.91 441.22 137.91 424.87 128.47 421.69 128.47 423.79 132.11 421.79 135.54 416.37 135.54 416.37 138.92 423.49 151.39 427.48 153.69 427.48 158.84 431.46 161.14 437.63 171.86 448.77 171.86 451.52 167.09"/><polygon class="cls-1" points="582.42 157.36 590.07 161.78 590.07 164.04 588.46 166.84 595.82 171.09 599.48 177.43 599.48 185.79 592.33 189.92 593.53 190.61 593.53 195.21 597.51 192.91 597.51 189.45 603.79 185.82 603.79 180.85 597.49 169.92 592.02 166.77 592.02 166.76 592.02 163 595.09 161.22 595.09 157.82 592.87 153.98 588.29 153.98 582.42 157.36"/><polygon class="cls-1" points="394.14 82.91 392.18 84.04 397.24 92.56 397.24 88.92 399.54 88.92 399.54 86.11 394.14 82.91"/><polygon class="cls-1" points="500.78 103.48 493.45 103.48 496.57 101.67 494.62 100.54 490.14 103.12 485.82 103.12 482.25 96.93 475.27 96.93 473.61 94.05 467.89 90.76 462.57 93.83 462.57 103.03 464.73 103.03 467.18 98.8 471.95 101.56 471.94 103.81 474.81 103.81 488 111.42 488 113.68 491.55 113.68 491.55 109.9 489.6 108.77 491.7 105.12 493.96 105.12 496.67 106.68 498.93 106.68 500.78 103.48"/><polygon class="cls-1" points="505.25 145.44 500.45 142.68 501.58 140.72 504.93 140.72 511.37 129.56 508.03 123.76 508.03 121.5 513.48 121.5 513.48 119.24 506.44 115.17 501.87 115.17 499.91 116.3 499.91 122.39 497.75 123.64 497.75 129.94 491.54 133.54 491.54 136.52 477.82 136.52 482.87 139.43 482.87 146.9 490.59 146.9 501.2 153.03 501.23 153.08 505.25 150.68 505.25 145.44"/><polygon class="cls-1" points="477.82 136.52 480.57 131.77 480.66 131.6 476.74 129.34 476.74 120.18 476.74 116.16 468.46 111.38 460.85 111.38 459.35 112.25 459.35 115.76 451.47 115.76 445.99 112.59 445.99 109.21 444.25 106.18 441 108.05 441 110.32 437.9 110.32 435.97 110.32 435.97 114.55 441.52 117.75 441.52 124.44 446.64 127.44 446.64 135.12 450.62 132.82 454.61 135.12 454.61 137.81 464.56 143.56 468.55 141.25 471.66 143.05 471.66 146.9 482.87 146.9 482.87 139.43 477.82 136.52"/><polygon class="cls-1" points="428.3 98.8 428.3 103.4 433.31 103.4 438.31 103.4 438.31 103.4 438.31 100.61 435.18 98.8 428.3 98.8"/><path class="cls-1" d="M383,64v2.67h-4.35V64ZM582,15.4l-4-2.3h-8.88l4,2.3ZM483.5,3.81h5.71l2.33,1.34h3.08l3.4,2h-8.8ZM649.94,87.47l-9.75-17h2.22l9.75,17ZM438.66,26.28l-8.35-4.79,2.3-4,9.25-5.34h9.65l-4,2.3h-4.6l-8.32,4.8Zm145.88-6.45H582V18.61h2.52Zm5.94-3.22H588V15.4h2.52Zm-162,14.89h-3.9v-2h3.9Zm252.08,5.84h4.6l4,2.3h6.26l-2.78-4.81h-9.19L679,32.26h-7.37l-8.05-4.65H627.25l-4-2.3H608.73l-5-2.91H583.87v2.3H570.06l-9.34-5.39H529l-4,2.3h-4.6l9.4-5.43-2.3-4H514.24l-4-2.3-8.33,4.81H488.81l-2.3,4h-8.18l2.3,3.73H470.4l3.53,6.11h6.83l2.3,4h-5.41l-4,2.3-5.9-10.22h-2.31l-2.3-4h-4.6v5.29l6,3.44v3.17l-6.17-3.56H447.59l-4,2.3h-8.2l-7,4H422l-3.1-1.79V37l-9.45,5.44h-4.6l-3.47-6-5.15-3h4.6l5.15,3h6V32.93l-6-3.48h-6.67l-4-2.3H394l-4.26,2.46v2.62l6.73,11.72-3.56,6.17h2.42l-2.3,4v7h3.46l3.07,1.75v2.73l4.56,2.61v4h3.64l3,5.26h7.62l3.25,1.88V86l-3.4,1.92v3.68h-1.93v1.72h2.44l9.5,5.48h6.88l3.14,1.81,3.14,1.81,2.09-1.21-5.64-9.78,4.55-2.63c0-.22,0-2.14,0-2.14l-5.74-3.28,0-4.86,6.78-4,4.81,0,3.9,2.23,14.19-.06V74.44l-2.69-4.61V67.57l5.2,0,4.92-2.88h8.08l6.94,3.95,4,0,2.6-1.5L503.79,72l2.31,4h10.3l7.85,4.58,7.7-4.47h6L543,79h4.73V76.73l-1.91-3.31h4.91l7.65,4.42h9.27l5.09,2.94h4.92l3.54-2h11.88V69.24h7.26L623,82.31v3.12h4l4.36-2.51,2.21,3.83v6.6h-4.39l2.65,4.55h7.77l2.28-4V80.14l-5.66-9.78-5.92-3.42-4,2.3-6.64-3.83,3.95-6.83V53.28H643l3.7,2.14V46.57h4.6L656,49.28l2.3-4,4,2.3V51l-3.26,5.64v4.6l2.3,4,7.88,4.55,3,5.2h3l0-9.08-4-6.9-5.45-3.14v-4.6l0,0h13.12v-2.3l7.44-4.3-4-2.3h-4.6L673,39.54h7.58ZM400.28,56.16h-2.21l-1-1.65V52.36h1.71l1.45,2.52ZM566.21,69l-2.74,4.74h-4V72.36h2.35l2.33-4V57.21l2.11,1.22Z"/><polygon class="cls-1" points="433.31 105.66 434.47 107.7 437.9 107.7 437.9 110.32 441 110.32 441 108.05 438.31 103.4 433.31 103.4 433.31 105.66"/><polygon class="cls-1" points="496.67 106.68 493.96 105.12 491.7 105.12 489.6 108.77 491.55 109.9 491.55 113.68 495.08 113.68 496.52 111.19 499.91 111.19 499.91 114.41 501.87 113.24 506.44 113.24 504.12 109.22 493.79 109.22 493.79 108.34 496.67 106.68"/><path class="cls-1" d="M370.36,235.51l3.65,6.33h5.13V238.9h5.36l1.13,2v9.58h8.21l10.32,6h1.09v-2.28l-3.53-2V244l2.44-1.41h2.93l-4.31-7.47v-9.83l1.63-2.82v-2.26l3.25-5.63v-5.69l-1.13-2h-5.69l-1.13-2h-9.57l-3.29,1.9h-3l-4-2.3-3.29,1.9v5.47L375,214.51v7.6l-4,2.33,0,5.84-3.83,2.21h-2.71l-1.87,1.08v1.81h-1.42l1.11,1.93,3.15-1.81Z"/><polygon class="cls-1" points="412.05 254.41 412.05 258.69 414.5 260.11 414.51 260.11 416.48 260.11 416.48 264.91 418 267.55 420.48 263.25 420.48 260.96 417.39 255.93 415.96 255.93 415.96 246.06 413.64 244.72 413.64 253.49 412.05 254.41"/><polygon class="cls-1" points="407.09 242.54 404.16 242.54 401.72 243.95 401.72 252.08 405.25 254.12 405.25 256.39 404.16 256.39 393.84 250.44 390.64 250.44 390.64 255.96 385.63 255.96 385.63 265.46 390.43 268.19 393.71 268.19 394.52 269.6 399 269.6 402.38 263.74 406.13 263.74 406.13 262.17 412.05 258.69 412.05 254.41 413.64 253.49 413.64 244.72 410.4 242.85 410.37 244.44 407.09 242.54"/><polygon class="cls-1" points="417.39 252.41 417.39 255.93 420.48 260.96 420.48 263.25 418 267.55 416.48 264.91 416.48 260.11 414.51 260.11 414.5 260.11 412.05 258.69 406.13 262.17 406.13 263.74 412.22 267.25 412.22 274.26 407.9 281.64 407.9 292.21 407.9 294.11 410.3 294.11 410.3 292.22 418.05 287.73 418.05 271.32 431.82 263.35 431.82 249.47 426.72 252.41 417.39 252.41"/><polygon class="cls-1" points="426 228.16 416.56 222.72 414.29 226.66 410.75 226.66 410.75 222.42 407.65 222.42 407.65 225.24 407.65 228.05 405.71 231.42 403.91 231.39 403.91 231.39 403.91 234.12 408.22 241.59 410.4 242.85 413.64 244.72 413.64 244.71 413.64 244.72 415.96 246.06 415.96 246.03 417.39 246.88 417.39 252.41 426.72 252.41 431.82 249.47 431.82 248.28 427.83 241.37 427.83 234.29 429.13 232.04 426 230.24 426 228.16"/><polygon class="cls-1" points="405.49 226.67 402.77 226.67 402.77 229.43 403.4 230.51 403.91 231.39 405.71 231.42 407.65 228.05 407.65 225.24 405.49 225.24 405.49 226.67"/><path class="cls-1" d="M180.75,91.9v2.31h-8.21l0,0-3,5.2v2.3h-6.48v3l-11,6.37v8.21l-17,9.84V148h-1.91l-3.25-5.63v-6.67l-4-2.32h-9.48l-4,2.3H101.21l-5.67,3.29L91.44,146l-6.28-10.88H82.09l-2.59,1.49-4.15-7.18H70.93l-2,1.13H63l-6.91-4H50.42V124.3l-5.92-3.42V108.64L55.09,90.29v-4.6L63.25,81h64.13l4.78,2.73-4.78,2.76,1.13,2,3.39-2h3.75l2.76,1.6h6.86l.89,1.55H137l-3.26,1.88-3.62,6.28v4.7l5.12-3h0l0,0h0V94.19L139,92h5.21l-2,3.48h3.94v2.93h-3.89L140,102.37h5.7L154,97.59h2.26L161,94.83l4.52-2.61h4.94l4-6.89h4.31v5.44ZM86.86,30.75l-7-4H45L6.31,49.09l4.24,7.35L.56,62.2h4.6L25.74,50.33H52.85l6.73,3.88v6.43h2.69V53l-7.05-4Z"/><polygon class="cls-1" points="387.05 61.31 378.66 61.31 378.66 63.99 383.01 63.99 383.01 66.67 386.6 68.74 389.9 63.02 387.05 61.31"/><polygon class="cls-1" points="393.05 54.11 393.05 57.54 384.76 57.54 384.76 55.42 387.02 54.11 393.05 54.11"/><polygon class="cls-1" points="384.76 57.54 384.76 58.72 380.16 58.72 378.66 61.31 387.05 61.31 389.89 63.02 393.05 61.13 393.05 57.54 384.76 57.54"/><path class="cls-1" d="M421.7,79.33V86H417l-3.25,1.88h-1.46V92l2.19,1.26h-4.78l-2.57-4.39h-7.63V86.11l-5.4-3.2-2,1.13H381.89l.06-.11V80.44l4.86-2.81-1.35-2.33,1.13-2h4.88l2,1.13h6.76l4-2.28h3.64l3,5.26h7.62Zm-22.16,9.59h-2.3v3.65h2.3Z"/><path class="cls-3" d="M306.33,87.54l.74-1a3.94,3.94,0,0,0,2.65,1.21c1,0,1.72-.35,1.72-1.06s-.52-1-1.86-1.45c-1.57-.46-2.83-.88-2.83-2.43,0-1.37,1.14-2.29,2.77-2.29a4.74,4.74,0,0,1,3,1.17l-.65,1.1a3.75,3.75,0,0,0-2.37-1c-.92,0-1.45.41-1.45.94,0,.76.58,1,1.91,1.42,1.54.45,2.77.95,2.77,2.49,0,1.32-1.08,2.37-3,2.37A4.9,4.9,0,0,1,306.33,87.54Z"/><path class="cls-3" d="M314.2,88.78V80.63h2.85c1.75,0,3.13.57,3.13,2.5s-1.5,2.55-3.17,2.55h-1.44v3.09Zm1.36-4.29h1.51c1.21,0,1.76-.41,1.76-1.32s-.54-1.28-1.77-1.28h-1.5Z"/><path class="cls-3" d="M320.23,88.78l2.88-8.17h1.34l2.85,8.06-1.33.22-.69-2h-3.09l-.68,1.94Zm2.37-3.15h2.29l-1.12-3.3h0Z"/><path class="cls-3" d="M328.54,88.78V80.63h1.36v8.14Z"/><path class="cls-3" d="M331.78,88.78V80.63h1.4L337,86.45h0V80.63h1.28v8.14h-1.25l-4-5.93h0v5.93Z"/><path class="cls-3" d="M109.75,151.34V143.2h1.8l2.19,6.46h0l2.12-6.46h1.84v8.14H116.4v-6.08h0c-.12.57-.3,1.09-.47,1.66l-1.6,4.42h-1.22l-1.58-4.42a15.47,15.47,0,0,1-.48-1.72h0v6.14Z"/><path class="cls-3" d="M119.58,151.34V143.2h5.26v1.28H121v2h3l.2,1.22H121v2.38h4.1v1.24Z"/><path class="cls-3" d="M126,151.34l2.71-4.32-2.35-3.71,1.43-.22,1.75,2.86,1.65-2.75h1.44L130.26,147l2.65,4.21-1.39.22-2.07-3.34-2,3.23Z"/><path class="cls-3" d="M134.21,151.34V143.2h1.36v8.14Z"/><path class="cls-3" d="M137.11,147.25c0-2.67,1.53-4.2,3.53-4.2a3.07,3.07,0,0,1,3.06,1.88l-1.17.69a2,2,0,0,0-1.89-1.31c-1.39,0-2.16,1.14-2.16,2.93s.81,3,2.23,3a2,2,0,0,0,2-1.52l1.19.54a3.11,3.11,0,0,1-3.18,2.21C138.61,151.49,137.11,150,137.11,147.25Z"/><path class="cls-3" d="M144.82,147.27c0-2.74,1.71-4.22,3.67-4.22s3.66,1.49,3.66,4.22-1.71,4.22-3.66,4.22S144.82,150,144.82,147.27Zm6,0c0-1.85-.92-3-2.3-3s-2.3,1.11-2.3,3,.92,3,2.3,3S150.8,149.12,150.8,147.27Z"/><path class="cls-3" d="M198.32,345.62l2.88-8.17h1.34l2.85,8.06-1.33.22-.69-2h-3.09l-.68,1.94Zm2.37-3.15H203l-1.12-3.3h0Z"/><path class="cls-3" d="M206.58,345.62v-8.14h2.92c1.92,0,3,.77,3,2.5a2.12,2.12,0,0,1-1.79,2.26l1.94,3.28-1.34.22-2-3.32h-1.44v3.21Zm1.35-4.41h1.5c1.17,0,1.77-.33,1.77-1.25s-.61-1.22-1.77-1.22h-1.5Z"/><path class="cls-3" d="M213.7,341.51c0-2.55,1.43-4.19,3.56-4.19a3.21,3.21,0,0,1,3.07,1.93l-1.18.64a1.88,1.88,0,0,0-1.84-1.3c-1,0-2.23.69-2.23,2.89s1.09,3.06,2.24,3.06a1.84,1.84,0,0,0,1.92-1.84h-1.55l-.2-1.11h3.06v4h-1.13v-.91h0a2.43,2.43,0,0,1-2.24,1.07C214.85,345.77,213.7,344,213.7,341.51Z"/><path class="cls-3" d="M222.28,345.62v-8.14h5.26v1.28h-3.88v2h3l.2,1.22h-3.17v2.38h4.1v1.24Z"/><path class="cls-3" d="M229,345.62v-8.14h1.4l3.85,5.82h0v-5.82h1.28v8.14h-1.25l-4-5.93h0v5.93Z"/><path class="cls-3" d="M239.28,345.62v-6.86h-2.51v-1.28h6.29l.2,1.28h-2.61v6.86Z"/><path class="cls-3" d="M244.45,345.62v-8.14h1.36v8.14Z"/><path class="cls-3" d="M247.68,345.62v-8.14h1.4l3.85,5.82h0v-5.82h1.28v8.14H253l-4-5.93h0v5.93Z"/><path class="cls-3" d="M255.4,345.62l2.88-8.17h1.34l2.85,8.06-1.33.22-.69-2h-3.09l-.68,1.94Zm2.37-3.15h2.29l-1.12-3.3h0Z"/><path class="cls-3" d="M187.14,193.65l-2.79-8.06,1.33-.22,2.12,6.46h0l2.15-6.35h1.3l-2.83,8.17Z"/><path class="cls-3" d="M192.44,193.62v-8.14h5.26v1.28h-3.88v2h3L197,190h-3.17v2.38h4.1v1.24Z"/><path class="cls-3" d="M199.2,193.62v-8.14h1.4l3.85,5.82h0v-5.82h1.28v8.14h-1.25l-4-5.93h0v5.93Z"/><path class="cls-3" d="M207.59,193.62v-8.14h5.26v1.28H209v2h3l.2,1.22H209v2.38h4.1v1.24Z"/><path class="cls-3" d="M214,193.62v-1l4.51-6h-4.11l-.21-1.14h6v1l-4.46,6h4.35l.21,1.12Z"/><path class="cls-3" d="M221.5,190.66v-5.18h1.38v5.1c0,1.17.54,1.93,1.79,1.93s1.78-.74,1.78-1.91v-5.12h1.35v5.16a3.15,3.15,0,0,1-6.3,0Z"/><path class="cls-3" d="M229.56,193.62v-8.14h5.26v1.28h-3.88v2h3l.2,1.22h-3.17v2.38H235v1.24Z"/><path class="cls-3" d="M236.32,193.62v-8.14h1.38v6.9h3.64l.21,1.24Z"/><path class="cls-3" d="M242.35,193.62l2.88-8.17h1.34l2.85,8.06-1.33.22-.69-2h-3.09l-.68,1.94Zm2.37-3.15H247l-1.12-3.3h0Z"/><path class="cls-3" d="M218.85,315.66v-5.18h1.38v5.1c0,1.17.54,1.93,1.79,1.93s1.78-.74,1.78-1.91v-5.12h1.35v5.16a3.15,3.15,0,0,1-6.3,0Z"/><path class="cls-3" d="M226.92,318.62v-8.14h2.92c1.92,0,3,.77,3,2.5a2.12,2.12,0,0,1-1.79,2.26l1.94,3.28-1.34.22-2-3.32h-1.44v3.21Zm1.35-4.41h1.5c1.17,0,1.77-.33,1.77-1.25s-.61-1.22-1.77-1.22h-1.5Z"/><path class="cls-3" d="M234.3,315.66v-5.18h1.38v5.1c0,1.17.54,1.93,1.79,1.93s1.78-.74,1.78-1.91v-5.12h1.35v5.16a3.15,3.15,0,0,1-6.3,0Z"/><path class="cls-3" d="M242,314.51c0-2.55,1.43-4.19,3.56-4.19a3.21,3.21,0,0,1,3.07,1.93l-1.18.64a1.88,1.88,0,0,0-1.84-1.3c-1,0-2.23.69-2.23,2.89s1.09,3.06,2.24,3.06a1.84,1.84,0,0,0,1.92-1.84H246l-.2-1.11h3.06v4h-1.13v-.91h0a2.43,2.43,0,0,1-2.24,1.07C243.15,318.77,242,317,242,314.51Z"/><path class="cls-3" d="M250.42,315.66v-5.18h1.38v5.1c0,1.17.54,1.93,1.79,1.93s1.78-.74,1.78-1.91v-5.12h1.35v5.16a3.15,3.15,0,0,1-6.3,0Z"/><path class="cls-3" d="M257.49,318.62l2.88-8.17h1.34l2.85,8.06-1.33.22-.69-2h-3.09l-.68,1.94Zm2.37-3.15h2.29l-1.12-3.3h0Z"/><path class="cls-3" d="M266.88,318.62v-3.51l-2.72-4.52,1.31-.22,2.1,3.58,2-3.47H271l-2.78,4.63v3.51Z"/><path class="cls-3" d="M201,279.62v-8.14h2.85c1.75,0,3.13.57,3.13,2.5s-1.5,2.55-3.17,2.55h-1.44v3.09Zm1.36-4.29h1.51c1.21,0,1.76-.41,1.76-1.32s-.54-1.28-1.77-1.28h-1.5Z"/><path class="cls-3" d="M207,279.62l2.88-8.17h1.34l2.85,8.06-1.33.22-.69-2h-3.09l-.68,1.94Zm2.37-3.15h2.29l-1.12-3.3h0Z"/><path class="cls-3" d="M215.25,279.62v-8.14h2.92c1.92,0,3,.77,3,2.5a2.12,2.12,0,0,1-1.79,2.26l1.94,3.28-1.34.22-2-3.32h-1.44v3.21Zm1.35-4.41h1.5c1.17,0,1.77-.33,1.77-1.25s-.61-1.22-1.77-1.22h-1.5Z"/><path class="cls-3" d="M222.35,279.62l2.88-8.17h1.34l2.85,8.06-1.33.22-.69-2h-3.09l-.68,1.94Zm2.37-3.15H227l-1.12-3.3h0Z"/><path class="cls-3" d="M230,275.51c0-2.55,1.43-4.19,3.56-4.19a3.21,3.21,0,0,1,3.07,1.93l-1.18.64a1.88,1.88,0,0,0-1.84-1.3c-1,0-2.23.69-2.23,2.89s1.09,3.06,2.24,3.06a1.84,1.84,0,0,0,1.92-1.84H234l-.2-1.11h3.06v4h-1.13v-.91h0a2.43,2.43,0,0,1-2.24,1.07C231.11,279.77,230,278,230,275.51Z"/><path class="cls-3" d="M238.39,276.66v-5.18h1.38v5.1c0,1.17.54,1.93,1.79,1.93s1.78-.74,1.78-1.91v-5.12h1.35v5.16a3.15,3.15,0,0,1-6.3,0Z"/><path class="cls-3" d="M245.45,279.62l2.88-8.17h1.34l2.85,8.06-1.33.22-.69-2h-3.09l-.68,1.94Zm2.37-3.15h2.29l-1.12-3.3h0Z"/><path class="cls-3" d="M254.84,279.62v-3.51l-2.72-4.52,1.31-.22,2.1,3.58,2-3.47H259l-2.78,4.63v3.51Z"/><path class="cls-3" d="M396.43,91.4V84.53h-2.51V83.25h6.29l.2,1.28h-2.61V91.4Z"/><path class="cls-3" d="M401.49,88.44V83.25h1.38v5.1c0,1.17.54,1.93,1.79,1.93s1.78-.74,1.78-1.91V83.25h1.35v5.16a3.15,3.15,0,0,1-6.3,0Z"/><path class="cls-3" d="M409.56,91.4V83.25h2.92c1.92,0,3,.77,3,2.5A2.12,2.12,0,0,1,413.73,88l1.94,3.28-1.34.22-2-3.32h-1.44V91.4ZM410.92,87h1.5c1.17,0,1.77-.33,1.77-1.25s-.61-1.22-1.77-1.22h-1.5Z"/><path class="cls-3" d="M417.09,91.4V83.25h1.38V87l3.21-3.78h1.62l-2.77,3.14,3.14,4.9-1.43.22-2.61-4.07-1.15,1.28V91.4Z"/><path class="cls-3" d="M424.78,91.4V83.25H430v1.28h-3.88v2h3l.2,1.22h-3.17v2.38h4.1V91.4Z"/><path class="cls-3" d="M433.77,91.4V87.89L431,83.36l1.31-.22,2.1,3.58,2-3.47h1.41l-2.78,4.63V91.4Z"/></svg>