<svg width="812" height="405" viewBox="0 0 812 405" xmlns="http://www.w3.org/2000/svg" xmlns:xlink="http://www.w3.org/1999/xlink"><title>Page 1</title><defs><path id="a" d="M0 427h812.009V.74H0z"/><path id="c" d="M179.81.74H.81v24.739h179V.74z"/></defs><g fill="none" fill-rule="evenodd"><path fill="#F3F3F3" d="M719.767 366.071l2.057 3.563 7.403-4.274v-2.852h-7.403z"/><path stroke="#FFF" d="M719.767 366.071l2.057 3.563 7.403-4.274v-2.852h-7.403z"/><path d="M806.167 353.013v-7.392l-2.941-1.698.02 9.09-2.487 4.31-3.57-.002v6.275h3.89l3.62-6.271h3.958l2.487-4.312h-4.977zm-41.833 24.419l26.223-15.14v4.977l-21.913 12.652-4.31-2.49z" fill="#F3F3F3"/><path d="M806.167 353.013v-7.392l-2.941-1.698.02 9.09-2.487 4.31-3.57-.002v6.275h3.89l3.62-6.271h3.958l2.487-4.312h-4.977zm-41.833 24.419l26.223-15.14v4.977l-21.913 12.652-4.31-2.49z" stroke="#FFF"/><path fill="#F3F3F3" d="M341.293 74.168v2.737l-3.142 1.815v2.278l4.246.01 4.31-2.489.007-2.443-4.396-2.5z"/><path stroke="#FFF" d="M341.293 74.168v2.737l-3.142 1.815v2.278l4.246.01 4.31-2.489.007-2.443-4.396-2.5z"/><path fill="#F3F3F3" d="M178.05 183.067h4.222v-1.31h-4.222z"/><path stroke="#FFF" d="M178.05 183.067h4.222v-1.31h-4.222z"/><path fill="#F3F3F3" d="M442.612 132.114h4.106v-1.493h-4.106z"/><path stroke="#FFF" d="M442.612 132.114h4.106v-1.493h-4.106z"/><path fill="#F3F3F3" d="M649.398 181.417h3.733v-3.732h-3.733z"/><path stroke="#FFF" d="M649.398 181.417h3.733v-3.732h-3.733z"/><path fill="#F3F3F3" d="M678.14 170.187h3.07v-9.158h-3.07z"/><path stroke="#FFF" d="M678.14 170.187h3.07v-9.158h-3.07z"/><path d="M701.841 136.651h3.892v-2.155h-3.892v2.155zm17.074-27.583l-2.757-4.775h-4.977l-2.244-3.887-3.204-.003 5.003 8.665h8.179zm-4.897 23.303h-12.819l-4.31 2.488 3.168 1.83v5.723h-2.422v-4.277l-2.505-1.446v-3.456l7.162-4.136 5.567.004v-2.488l5.466-3.156v-4.976l-3.483-6.033 4.796 2.77 3.709 6.424v8.257l-4.31 2.488-.019-.016z" fill="#F3F3F3"/><path d="M701.841 136.651h3.892v-2.155h-3.892v2.155zm17.074-27.583l-2.757-4.775h-4.977l-2.244-3.887-3.204-.003 5.003 8.665h8.179zm-4.897 23.303h-12.819l-4.31 2.488 3.168 1.83v5.723h-2.422v-4.277l-2.505-1.446v-3.456l7.162-4.136 5.567.004v-2.488l5.466-3.156v-4.976l-3.483-6.033 4.796 2.77 3.709 6.424v8.257l-4.31 2.488-.019-.016z" stroke="#FFF"/><path d="M763.616 257.156h7.652v-1.976h-7.652v1.976zm-6.929 1.378l6.052 10.482h-4.509l-4.109-7.117-.016-.014h-7.487v3.572h-4.486v-17.418h4.977l7.021 4.053-.009 3.084.002.002h3.71l1.937 3.354-3.083.002z" fill="#F3F3F3"/><path d="M763.616 257.156h7.652v-1.976h-7.652v1.976zm-6.929 1.378l6.052 10.482h-4.509l-4.109-7.117-.016-.014h-7.487v3.572h-4.486v-17.418h4.977l7.021 4.053-.009 3.084.002.002h3.71l1.937 3.354-3.083.002z" stroke="#FFF"/><path fill="#F3F3F3" d="M334.677 42.718l-4.31-2.489-2.155 1.245h-4.977l-2.684 1.549v-2.665h-3.967v3.604h2.341v3.257h7.954z"/><path stroke="#FFF" d="M334.677 42.718l-4.31-2.489-2.155 1.245h-4.977l-2.684 1.549v-2.665h-3.967v3.604h2.341v3.257h7.954z"/><path fill="#F3F3F3" d="M679.954 117.944l3.402-5.893v-4.977l-6.481 3.296h-2.444l-3.384 5.863h4.947v6.277h4.23l3.996-2.103z"/><path stroke="#FFF" d="M679.954 117.944l3.402-5.893v-4.977l-6.481 3.296h-2.444l-3.384 5.863h4.947v6.277h4.23l3.996-2.103z"/><path fill="#F3F3F3" d="M684.22 120.407l-3.996 2.103 3.71 6.425-.01 3.412 5.334-3.071z"/><path stroke="#FFF" d="M684.22 120.407l-3.996 2.103 3.71 6.425-.01 3.412 5.334-3.071z"/><path d="M384.682 64.73l-4.31 2.488v3.214h4.31V64.73zm4.466 4.652l-1.223 2.011h-1.45v-3.078h2.673v1.067z" fill="#F3F3F3"/><path d="M384.682 64.73l-4.31 2.488v3.214h4.31V64.73zm4.466 4.652l-1.223 2.011h-1.45v-3.078h2.673v1.067z" stroke="#FFF"/><path fill="#F3F3F3" d="M583.246 101.012h4.491l11.956 6.902h12.317l5.36 3.094h5.216l3.629-2.095h6.324l2.04-3.532-.022-4.212h4.826l3.496-2.019-.02-2.463h7.078v-2.445l-3.577-2.065h-9.022v-5.814h-8.69l-3.822 2.207h-5.322L614 85.393h-10.018l-8.27-4.776h-5.313l2.066 3.578v2.444h-5.11l-5.472-3.155h-6.478l-8.323 4.833 13.269 7.66z"/><path stroke="#FFF" d="M583.246 101.012h4.491l11.956 6.902h12.317l5.36 3.094h5.216l3.629-2.095h6.324l2.04-3.532-.022-4.212h4.826l3.496-2.019-.02-2.463h7.078v-2.445l-3.577-2.065h-9.022v-5.814h-8.69l-3.822 2.207h-5.322L614 85.393h-10.018l-8.27-4.776h-5.313l2.066 3.578v2.444h-5.11l-5.472-3.155h-6.478l-8.323 4.833 13.269 7.66z"/><path fill="#F3F3F3" d="M465.536 132.013l-5.884 3.397v4.728l17.673 10.203h3.32v-3.015h2.535v-8.308l-5.532-3.234v-7.238l-5.997-3.463h-6.115z"/><path stroke="#FFF" d="M465.536 132.013l-5.884 3.397v4.728l17.673 10.203h3.32v-3.015h2.535v-8.308l-5.532-3.234v-7.238l-5.997-3.463h-6.115z"/><path fill="#F3F3F3" d="M396.957 223.785v-3.59l3.18-5.51-4.357-2.517v-2.025h3.862l-2.442-4.229v-4.918l-3.698 2.135v5.281l-5.247 9.088-.074-.043-2.781-1.606-3.542 6.135v2.746l3.023-.003v4.977l-.038.066 2.713 1.566h13.811z"/><path stroke="#FFF" d="M396.957 223.785v-3.59l3.18-5.51-4.357-2.517v-2.025h3.862l-2.442-4.229v-4.918l-3.698 2.135v5.281l-5.247 9.088-.074-.043-2.781-1.606-3.542 6.135v2.746l3.023-.003v4.977l-.038.066 2.713 1.566h13.811z"/><path fill="#F3F3F3" d="M572.967 145.937h-3.693v5.15l7.223 4.17h5.816l3.08 1.779h5.354v-4.455h-6.109z"/><path stroke="#FFF" d="M572.967 145.937h-3.693v5.15l7.223 4.17h5.816l3.08 1.779h5.354v-4.455h-6.109z"/><path fill="#F3F3F3" d="M640.684 206.565l7.734-4.465v-9.035l-3.957-6.853-7.96-4.595 1.749-3.03v-2.443l-8.27-4.774-3.677 2.122-1.53.924 2.96 5.306.004.002h1.88v4.833h6.997l6.123 3.535v6.17h-6.683v5.399l1.616.933v4.23z"/><path stroke="#FFF" d="M640.684 206.565l7.734-4.465v-9.035l-3.957-6.853-7.96-4.595 1.749-3.03v-2.443l-8.27-4.774-3.677 2.122-1.53.924 2.96 5.306.004.002h1.88v4.833h6.997l6.123 3.535v6.17h-6.683v5.399l1.616.933v4.23z"/><path d="M639.73 242.095v-4.05l-10.183-5.88-5.614-9.722h-6.274v1.054l4.31 2.488 6.812 11.8 2.169 1.251 9.492 16.442h4.715l-.001-10.25-5.426-3.133zm22.86 22.032h11.616l-3.492-1.995H666.9l-4.31-2.488h-7.762l-4.31-2.488-4.31 2.488 1.553 2.69h11.715l3.114 1.793zm43.143-26.567h2.08v-6.532h-2.08v6.532zm-17.516-1.68h10.078v-1.862h-10.078v1.862zm17.516 12.691h7.774v-1.867h-7.774v1.867zm-15.906 17.482v-1.926h-10.152l3.335 1.925h6.817zm44.117-22.742l-7.716 4.456-3.623-2.091-3.33 1.922 9.34 5.392.003.002h3.833l3.198 5.54-2.488 4.31h6.13v2.615h2.84V248.04l-8.187-4.727zm-36.193 23.367l-.655-1.133-4.588 2.65.655 1.134 4.588-2.65zm24.354-8.565h1.31v-2.73h-1.31v2.73zm-29.06-17.76h-3.021l-2.956 1.707-2.956-1.707-2.49 4.316v4.977l3.196 5.534v-7.168l1.986-1.148 2.488 4.31h3.03l-3.573-6.19 4.297-2.5v-2.13zm28.206 3.925v-3.672l-3.434-1.983-4.31 2.488 2.562 1.48v1.688h5.182zm-45.913-19.406h2.739l.048 15.176-4.31 2.488v7.468h-4.322l-2.275-3.918h-9.41v-4.978l-3.765-6.522 2.534-1.463 3.916 2.262h2.445l3.08-1.78 4.182-.006 5.138-8.727z" fill="#F3F3F3"/><path d="M639.73 242.095v-4.05l-10.183-5.88-5.614-9.722h-6.274v1.054l4.31 2.488 6.812 11.8 2.169 1.251 9.492 16.442h4.715l-.001-10.25-5.426-3.133zm22.86 22.032h11.616l-3.492-1.995H666.9l-4.31-2.488h-7.762l-4.31-2.488-4.31 2.488 1.553 2.69h11.715l3.114 1.793zm43.143-26.567h2.08v-6.532h-2.08v6.532zm-17.516-1.68h10.078v-1.862h-10.078v1.862zm17.516 12.691h7.774v-1.867h-7.774v1.867zm-15.906 17.482v-1.926h-10.152l3.335 1.925h6.817zm44.117-22.742l-7.716 4.456-3.623-2.091-3.33 1.922 9.34 5.392.003.002h3.833l3.198 5.54-2.488 4.31h6.13v2.615h2.84V248.04l-8.187-4.727zm-36.193 23.367l-.655-1.133-4.588 2.65.655 1.134 4.588-2.65zm24.354-8.565h1.31v-2.73h-1.31v2.73zm-29.06-17.76h-3.021l-2.956 1.707-2.956-1.707-2.49 4.316v4.977l3.196 5.534v-7.168l1.986-1.148 2.488 4.31h3.03l-3.573-6.19 4.297-2.5v-2.13zm28.206 3.925v-3.672l-3.434-1.983-4.31 2.488 2.562 1.48v1.688h5.182zm-45.913-19.406h2.739l.048 15.176-4.31 2.488v7.468h-4.322l-2.275-3.918h-9.41v-4.978l-3.765-6.522 2.534-1.463 3.916 2.262h2.445l3.08-1.78 4.182-.006 5.138-8.727z" stroke="#FFF"/><path d="M630.905 221.037l1.067 1.848v2.917l2.488 4.31 6.85 3.954v-3.958l-2.154-1.244v-4.977l-2.488-4.31-2.53 1.46h-3.233zm48.22 3.835h-3.788l-5.137 8.727-4.18.006-3.082 1.78h-2.444l-3.916-2.261 5.35-3.087h3.586l1.906-3.302h2.788v-2.6l1.9.002 3.526-6.105 5.576 3.22-2.085 3.62z" fill="#F3F3F3"/><path d="M630.905 221.037l1.067 1.848v2.917l2.488 4.31 6.85 3.954v-3.958l-2.154-1.244v-4.977l-2.488-4.31-2.53 1.46h-3.233zm48.22 3.835h-3.788l-5.137 8.727-4.18.006-3.082 1.78h-2.444l-3.916-2.261 5.35-3.087h3.586l1.906-3.302h2.788v-2.6l1.9.002 3.526-6.105 5.576 3.22-2.085 3.62z" stroke="#FFF"/><path fill="#F3F3F3" d="M388.925 231.339h-1.37l-2.712-1.566-2.45 4.244h6.532z"/><path stroke="#FFF" d="M388.925 231.339h-1.37l-2.712-1.566-2.45 4.244h6.532z"/><path fill="#F3F3F3" d="M452.254 138.376h-2.077l-2.57 4.438 2.846 4.963 1.801-3.159z"/><path stroke="#FFF" d="M452.254 138.376h-2.077l-2.57 4.438 2.846 4.963 1.801-3.159z"/><path fill="#F3F3F3" d="M610.89 148.797h-5.853l-4.349 7.534h-7.497v-3.75h-2.444v4.455h-5.354l-3.08-1.778h-5.817l-7.222-4.17v-5.151l-5.3-3.061v-4.702l-2.036-3.525-.782-1.354-1.81-3.135h-3.899v2.445h-5.896v2.444l3.616 6.263-6.968 12.069-3.62-.005-1.223 2.117 5.185 2.994v5.665l-4.339 2.589 3.941 6.825 5.547-3.204 2.49 4.31v12.87l11.756 20.366v4.977l.006.004h2.494l5.313-9.202v-13.718l7.991-4.613 8.646-14.976h4.827l-2.225-3.854v-6.604l2.118-1.222 1.222 2.117h6.972v2.444l-1.222 2.117 3.031 5.25 3.752-6.601v-6.605l1.222-2.116h2.445l2.408-4.173z"/><path stroke="#FFF" d="M610.89 148.797h-5.853l-4.349 7.534h-7.497v-3.75h-2.444v4.455h-5.354l-3.08-1.778h-5.817l-7.222-4.17v-5.151l-5.3-3.061v-4.702l-2.036-3.525-.782-1.354-1.81-3.135h-3.899v2.445h-5.896v2.444l3.616 6.263-6.968 12.069-3.62-.005-1.223 2.117 5.185 2.994v5.665l-4.339 2.589 3.941 6.825 5.547-3.204 2.49 4.31v12.87l11.756 20.366v4.977l.006.004h2.494l5.313-9.202v-13.718l7.991-4.613 8.646-14.976h4.827l-2.225-3.854v-6.604l2.118-1.222 1.222 2.117h6.972v2.444l-1.222 2.117 3.031 5.25 3.752-6.601v-6.605l1.222-2.116h2.445l2.408-4.173z"/><path fill="#F3F3F3" d="M483.18 147.326h-2.535v3.015h4.275z"/><path stroke="#FFF" d="M483.18 147.326h-2.535v3.015h4.275z"/><path fill="#F3F3F3" d="M424.877 171.306v3.732h-2.724v15.117h-2.415l-3.192 5.53 3.35 5.803v3.013l3.426 5.935 5.276-3.046h3.002l1.222 2.117 5.111-2.95v-2.444l4.582-2.646v5.392h2.445l2.118-1.222h3.373l5.36-9.183v-7.271l1.788-3.097 3.175-1.833-3.594-6.225v-4.23l-3.019-5.227-4.738 2.735z"/><path stroke="#FFF" d="M424.877 171.306v3.732h-2.724v15.117h-2.415l-3.192 5.53 3.35 5.803v3.013l3.426 5.935 5.276-3.046h3.002l1.222 2.117 5.111-2.95v-2.444l4.582-2.646v5.392h2.445l2.118-1.222h3.373l5.36-9.183v-7.271l1.788-3.097 3.175-1.833-3.594-6.225v-4.23l-3.019-5.227-4.738 2.735z"/><path fill="#F3F3F3" d="M468.961 196.978l2.69 4.66 2.287-1.32-3.319-5.749-5.835-3.368-4.01-6.948-3.176 1.833-1.788 3.097v5.05h8.395z"/><path stroke="#FFF" d="M468.961 196.978l2.69 4.66 2.287-1.32-3.319-5.749-5.835-3.368-4.01-6.948-3.176 1.833-1.788 3.097v5.05h8.395z"/><path fill="#F3F3F3" d="M471.651 204.656l2.252 1.3 2.45-1.454-2.415-4.185-2.287 1.32z"/><path stroke="#FFF" d="M471.651 204.656l2.252 1.3 2.45-1.454-2.415-4.185-2.287 1.32z"/><path fill="#F3F3F3" d="M621.554 187.543v4.977l3.374 5.844v-8.706l-1.938-3.357-3.018-1.742v-7.25l6.33-3.817-4.961-8.594h-4.542v-3.548l2.836-1.638.02-5.854-4.718-2.725-2.41 4.173h-2.444l-1.222 2.116v6.605l-3.752 6.6-1.14 1.975 3.553 6.152.005.006h2.488l2.489 4.31v6.899l.004.004h3.3l2.489-4.31z"/><path stroke="#FFF" d="M621.554 187.543v4.977l3.374 5.844v-8.706l-1.938-3.357-3.018-1.742v-7.25l6.33-3.817-4.961-8.594h-4.542v-3.548l2.836-1.638.02-5.854-4.718-2.725-2.41 4.173h-2.444l-1.222 2.116v6.605l-3.752 6.6-1.14 1.975 3.553 6.152.005.006h2.488l2.489 4.31v6.899l.004.004h3.3l2.489-4.31z"/><path fill="#F3F3F3" d="M468.297 229.465l1.376-2.384H460.4l-5.018-2.897h-4.838v2.445l2.719 4.71-2.666 4.616v1.551h.07v4.521l10.199 5.888v2.24l3.386 1.955 5.42-9.389-1.375-2.362z"/><path stroke="#FFF" d="M468.297 229.465l1.376-2.384H460.4l-5.018-2.897h-4.838v2.445l2.719 4.71-2.666 4.616v1.551h.07v4.521l10.199 5.888v2.24l3.386 1.955 5.42-9.389-1.375-2.362z"/><path fill="#F3F3F3" d="M416.776 320.164l2.258-3.912h6.82l4.862-8.42 3.643-2.103-7.517-13.02h-3.52l-1.438 2.466h-7.92v10.038h-3.097v8.879l3.464 6.072z"/><path stroke="#FFF" d="M416.776 320.164l2.258-3.912h6.82l4.862-8.42 3.643-2.103-7.517-13.02h-3.52l-1.438 2.466h-7.92v10.038h-3.097v8.879l3.464 6.072z"/><path d="M433.172 331.846l-4.405-2.543 2.606-4.513h2.444l1.72 2.979-2.365 4.077zm8.133-12.636v2.053H438.6v-4.105h2.706v-11.43h-6.946l-3.644 2.105-4.86 8.419h-6.82l-2.259 3.912h-2.445l-3.465-6.072v10.606h-6.765l-2.306 1.33 4.961 8.592v4.977l2.488 4.31 4.31-2.488h12.878l9.498-5.483 7.965-13.796v-2.93h-2.59z" fill="#F3F3F3"/><path d="M433.172 331.846l-4.405-2.543 2.606-4.513h2.444l1.72 2.979-2.365 4.077zm8.133-12.636v2.053H438.6v-4.105h2.706v-11.43h-6.946l-3.644 2.105-4.86 8.419h-6.82l-2.259 3.912h-2.445l-3.465-6.072v10.606h-6.765l-2.306 1.33 4.961 8.592v4.977l2.488 4.31 4.31-2.488h12.878l9.498-5.483 7.965-13.796v-2.93h-2.59z" stroke="#FFF"/><path fill="#F3F3F3" d="M389.626 253.742l1.145 1.982h1.54v-1.955l2.023-1.168-1.361-.786z"/><path stroke="#FFF" d="M389.626 253.742l1.145 1.982h1.54v-1.955l2.023-1.168-1.361-.786z"/><path fill="#F3F3F3" d="M358.068 211.694v-7.728h-8.027v10.971l-1.222 2.117v4.223h7.584l2.84-1.64v-5.91z"/><path stroke="#FFF" d="M358.068 211.694v-7.728h-8.027v10.971l-1.222 2.117v4.223h7.584l2.84-1.64v-5.91z"/><path fill="#F3F3F3" d="M361.869 209.285l-1.222-2.117v-3.202h-2.578v7.728l1.173 2.032v5.911l2.627-1.517z"/><path stroke="#FFF" d="M361.869 209.285l-1.222-2.117v-3.202h-2.578v7.728l1.173 2.032v5.911l2.627-1.517z"/><path fill="#F3F3F3" d="M314.12 197.054h6.375v-1.53h-7.233z"/><path stroke="#FFF" d="M314.12 197.054h6.375v-1.53h-7.233z"/><path fill="#F3F3F3" d="M333.813 218.066v-2.278l-5.286-3.051-2.54 4.4 11.514 6.649v-3.59z"/><path stroke="#FFF" d="M333.813 218.066v-2.278l-5.286-3.051-2.54 4.4 11.514 6.649v-3.59z"/><path fill="#F3F3F3" d="M321.302 199.606H315.6l2.176 3.77 3.527-2.072z"/><path stroke="#FFF" d="M321.302 199.606H315.6l2.176 3.77 3.527-2.072z"/><path fill="#F3F3F3" d="M326.928 207.716h-3.666l-2.242 1.28 1.226 2.121v3.86l3.741 2.16 2.54-4.4v-2.24z"/><path stroke="#FFF" d="M326.928 207.716h-3.666l-2.242 1.28 1.226 2.121v3.86l3.741 2.16 2.54-4.4v-2.24z"/><path fill="#F3F3F3" d="M384.197 97.524v-3.44h-7.542l-2.013 3.487 2.133 1.223.467.804 3.6-2.074z"/><path stroke="#FFF" d="M384.197 97.524v-3.44h-7.542l-2.013 3.487 2.133 1.223.467.804 3.6-2.074z"/><path d="M404.553 115.102l-10.691-6.172-4.593-8.126 3.045-1.758v-3.139h-8.117v1.616h-3.355l-3.601 2.074 2.489 4.295h5.834l3.78 6.703 9.418 5.437v6.003l1.932-1.116-.002-5.816h3.86zm-14.522 7.364l6.258 3.613v-3.613h-6.258zm-9.005-8.286l2.338-1.349v5.162l-2.338 1.35v-5.163z" fill="#F3F3F3"/><path d="M404.553 115.102l-10.691-6.172-4.593-8.126 3.045-1.758v-3.139h-8.117v1.616h-3.355l-3.601 2.074 2.489 4.295h5.834l3.78 6.703 9.418 5.437v6.003l1.932-1.116-.002-5.816h3.86zm-14.522 7.364l6.258 3.613v-3.613h-6.258zm-9.005-8.286l2.338-1.349v5.162l-2.338 1.35v-5.163z" stroke="#FFF"/><path fill="#F3F3F3" d="M416.546 105.031v6.216h9.887V109.4h3.343v-2.735l.021-.037-2.767-1.597z"/><path stroke="#FFF" d="M416.546 105.031v6.216h9.887V109.4h3.343v-2.735l.021-.037-2.767-1.597z"/><path fill="#F3F3F3" d="M390.03 47.567l2.97-1.715 3.395-5.88 1.936.002 2.763-4.786 3.152-.003 3.285-1.93h3.569l-.042-.072.042.072h10.598l4.609-2.66h-21.984l-10.27 5.931-3.918 6.788-15.438 8.913v4.977l2.488 4.31h2.739l8.236-4.755 1.87-3.285z"/><path stroke="#FFF" d="M390.03 47.567l2.97-1.715 3.395-5.88 1.936.002 2.763-4.786 3.152-.003 3.285-1.93h3.569l-.042-.072.042.072h10.598l4.609-2.66h-21.984l-10.27 5.931-3.918 6.788-15.438 8.913v4.977l2.488 4.31h2.739l8.236-4.755 1.87-3.285z"/><path d="M426.433 109.4v4.098h.129l3.214-1.856V109.4h-3.343zm27.763 15.684l-3.013 1.74-1.088-1.885-4.31 2.488h-15.428l-3.924-6.798v-5.723h4.137v-2.171h7.73l3.797-2.191h4.977l4.31 2.489h17.386v2.44l1.262 2.21 1.62 2.83v4.57h-17.456z" fill="#00CCCD"/><path d="M426.433 109.4v4.098h.129l3.214-1.856V109.4h-3.343zm27.763 15.684l-3.013 1.74-1.088-1.885-4.31 2.488h-15.428l-3.924-6.798v-5.723h4.137v-2.171h7.73l3.797-2.191h4.977l4.31 2.489h17.386v2.44l1.262 2.21 1.62 2.83v4.57h-17.456z" stroke="#FFF" stroke-width=".5"/><g transform="translate(0 -2.74)"><path d="M323.857 197.236l1.862-3.226h17.629v-2.444l-1.962-3.399v-23.076h4.052l-10.242-5.914v2.433h-9.103v7.646l-3.367 1.943v4.402h-8.9v14.915h6.15l3.88 6.72z" fill="#F3F3F3"/><path d="M323.857 197.236l1.862-3.226h17.629v-2.444l-1.962-3.399v-23.076h4.052l-10.242-5.914v2.433h-9.103v7.646l-3.367 1.943v4.402h-8.9v14.915h6.15l3.88 6.72z" stroke="#FFF"/><path fill="#F3F3F3" d="M389.813 170.214v.048l-20.5 11.836v13.174h-11.626v2.705l6.217 3.59v3.258l3.36 1.94 2.115-3.687v-4.49h3.728l4.157 2.399 6.665-.018 2.117-1.222h8.647v-3.375l5.444-9.43v-9.395l-1.809-3.134v-2.445h-5.559z"/><path stroke="#FFF" d="M389.813 170.214v.048l-20.5 11.836v13.174h-11.626v2.705l6.217 3.59v3.258l3.36 1.94 2.115-3.687v-4.49h3.728l4.157 2.399 6.665-.018 2.117-1.222h8.647v-3.375l5.444-9.43v-9.395l-1.809-3.134v-2.445h-5.559z"/><path fill="#F3F3F3" d="M423.202 144.894l-6.608-3.815h-5.336v6.303l-2.456 1.418-4.31-2.489h-4.977l-2.887-5.001h-9.886v2.47l-2.497 4.324v11.108l-2.394 4.166 7.962 4.597v2.239l2.956 1.754h5.56l3.358-1.939 20.466 11.816v-4.067h2.723V148.1l1.851-3.206z"/><path stroke="#FFF" d="M423.202 144.894l-6.608-3.815h-5.336v6.303l-2.456 1.418-4.31-2.489h-4.977l-2.887-5.001h-9.886v2.47l-2.497 4.324v11.108l-2.394 4.166 7.962 4.597v2.239l2.956 1.754h5.56l3.358-1.939 20.466 11.816v-4.067h2.723V148.1l1.851-3.206z"/><path fill="#F3F3F3" d="M378.68 138.463l5.566 9.642 2.496-4.325v-2.47h-.12l-2.488-4.31 2.488-4.31-2.488-4.31h-3.779v7.18z"/><path stroke="#FFF" d="M378.68 138.463l5.566 9.642 2.496-4.325v-2.47h-.12l-2.488-4.31 2.488-4.31-2.488-4.31h-3.779v7.18z"/><path d="M355.507 195.272h13.805v-13.174l-6.728-3.884v-3.223l-17.146-9.9h-4.052v23.077l1.962 3.398v2.445h-17.63l-1.861 3.225 1.539 2.665v2.445l2.117 1.222h5.547l2.937 5.087h6.674v-5.972l12.836-7.411z" fill="#F3F3F3"/><path d="M355.507 195.272h13.805v-13.174l-6.728-3.884v-3.223l-17.146-9.9h-4.052v23.077l1.962 3.398v2.445h-17.63l-1.861 3.225 1.539 2.665v2.445l2.117 1.222h5.547l2.937 5.087h6.674v-5.972l12.836-7.411z" stroke="#FFF"/><path fill="#F3F3F3" d="M441.035 229.76v6.154l-3.515 6.089v2.445h6.862v-4.202h6.216v-1.55l2.665-4.617-2.72-4.71v-2.444l-4.99 2.836z"/><path stroke="#FFF" d="M441.035 229.76v6.154l-3.515 6.089v2.445h6.862v-4.202h6.216v-1.55l2.665-4.617-2.72-4.71v-2.444l-4.99 2.836z"/><path fill="#F3F3F3" d="M321.654 157.044l-7.828 13.557v5h8.899V171.2l3.367-1.944v-7.645h9.103v-5.48h-11.96z"/><path stroke="#FFF" d="M321.654 157.044l-7.828 13.557v5h8.899V171.2l3.367-1.944v-7.645h9.103v-5.48h-11.96z"/><path fill="#00CCCD" d="M342.045 122.85v-9.5h-4.63v14.598h3.235v-4.355z"/><path stroke="#FFF" stroke-width=".5" d="M342.045 122.85v-9.5h-4.63v14.598h3.235v-4.355z"/><path d="M356.933 110.242l-2.11-1.206h-17.409v4.313h4.63v9.5l-1.395.745v4.355l3.181 1.836 4.31-2.49h6.693l7.021-12.158 4.31-2.49-4.139-2.405h-5.092zm7.286 11.276h2.73v-1.31h-2.73v1.31zm-49 32.873h2.73v-1.31h-2.73v1.31zm3.914-2.356h2.73v-1.31h-2.73v1.31z" fill="#00CCCD"/><path d="M356.933 110.242l-2.11-1.206h-17.409v4.313h4.63v9.5l-1.395.745v4.355l3.181 1.836 4.31-2.49h6.693l7.021-12.158 4.31-2.49-4.139-2.405h-5.092zm7.286 11.276h2.73v-1.31h-2.73v1.31zm-49 32.873h2.73v-1.31h-2.73v1.31zm3.914-2.356h2.73v-1.31h-2.73v1.31z" stroke="#FFF" stroke-width=".5"/><path fill="#F3F3F3" d="M398.328 98.647l3.888 2.254h7.463l3.57-6.172h-12.536z"/><path stroke="#FFF" d="M398.328 98.647l3.888 2.254h7.463l3.57-6.172h-12.536z"/><path fill="#F3F3F3" d="M421.698 38.832v-2.836H411.1l1.18 2.044-.035 5.393.08-.047 6.184 3.57-10.257 5.922 3.057 5.296h13.814l3.852-6.673z"/><path stroke="#FFF" d="M421.698 38.832v-2.836H411.1l1.18 2.044-.035 5.393.08-.047 6.184 3.57-10.257 5.922 3.057 5.296h13.814l3.852-6.673z"/><path fill="#F3F3F3" d="M412.233 116.477l4.313-2.49v-1.847h-4.313z"/><path stroke="#FFF" d="M412.233 116.477l4.313-2.49v-1.847h-4.313z"/><path fill="#F3F3F3" d="M369.472 87.014l5.177 2.99.965-1.672v-3.22l-3.788-2.186z"/><path stroke="#FFF" d="M369.472 87.014l5.177 2.99.965-1.672v-3.22l-3.788-2.186z"/><path fill="#F3F3F3" d="M417.049 85.398l1.222-2.117v-4.98l-3.881-2.24h-12.71l-2.918 1.683h-3.675v7.644l9.163 5.565h8.999l5.255-3.034z"/><path stroke="#FFF" d="M417.049 85.398l1.222-2.117v-4.98l-3.881-2.24h-12.71l-2.918 1.683h-3.675v7.644l9.163 5.565h8.999l5.255-3.034z"/><path fill="#F3F3F3" d="M375.614 88.332l-.965 1.671 1.395.806.965-1.671z"/><path stroke="#FFF" d="M375.614 88.332l-.965 1.671 1.395.806.965-1.671z"/><path fill="#F3F3F3" d="M404.25 90.954l-9.163-5.565-6.04 3.487 2.38 4.12h9.286z"/><path stroke="#FFF" d="M404.25 90.954l-9.163-5.565-6.04 3.487 2.38 4.12h9.286z"/><path fill="#F3F3F3" d="M392.313 101.787h4.233l1.783-3.14h-6.016z"/><path stroke="#FFF" d="M392.313 101.787h4.233l1.783-3.14h-6.016z"/><path fill="#F3F3F3" d="M401.366 104.06l4.423 7.674.303.174 1.417-2.54v-5.308z"/><path stroke="#FFF" d="M401.366 104.06l4.423 7.674.303.174 1.417-2.54v-5.308z"/><path fill="#F3F3F3" d="M470.032 120.423l1.62 2.83h2.083v-2.83z"/><path stroke="#FFF" d="M470.032 120.423l1.62 2.83h2.083v-2.83z"/><path fill="#F3F3F3" d="M438.6 324.003h2.705v-4.106H438.6z"/><path stroke="#FFF" d="M438.6 324.003h2.705v-4.106H438.6z"/><path fill="#F3F3F3" d="M173.952 185.804l-2.887-5.001H166.5v5z"/><path stroke="#FFF" d="M173.952 185.804l-2.887-5.001H166.5v5z"/><path fill="#F3F3F3" d="M166.501 180.803h-2.404V184h-5.047v1.804h7.451z"/><path stroke="#FFF" d="M166.501 180.803h-2.404V184h-5.047v1.804h7.451z"/><path fill="#F3F3F3" d="M118.127 200.04l4.017 2.318 1.519-2.63-4.049-2.338z"/><path stroke="#FFF" d="M118.127 200.04l4.017 2.318 1.519-2.63-4.049-2.338z"/><path fill="#F3F3F3" d="M119.614 195.404l1.419-2.4h-3.463v-5.677h-5.108v2.527l2.117 1.222v1.197h-5.74l-.01 5.12.01.02h4.737l4.55 2.626 1.487-2.649z"/><path stroke="#FFF" d="M119.614 195.404l1.419-2.4h-3.463v-5.677h-5.108v2.527l2.117 1.222v1.197h-5.74l-.01 5.12.01.02h4.737l4.55 2.626 1.487-2.649z"/><path d="M207.601 335.122l1.926-3.335 6.702-11.61v-3.981h-2.638v3.609l-2.657 4.602h-7.1v-8.793l-12.862-7.575h-11.01v4.922l-3.429 1.98v22.158l2.81 4.868v20.969l3.746 6.489v12.092l7.883 13.815h5.564l5.916-10.246-7.12-4.11 3.084-1.781v-13.466h4.757v-4.976l10.828-6.252v-4.02l-2.488-4.31-3.912-2.198v-8.851z" fill="#00CCCD"/><path d="M207.601 335.122l1.926-3.335 6.702-11.61v-3.981h-2.638v3.609l-2.657 4.602h-7.1v-8.793l-12.862-7.575h-11.01v4.922l-3.429 1.98v22.158l2.81 4.868v20.969l3.746 6.489v12.092l7.883 13.815h5.564l5.916-10.246-7.12-4.11 3.084-1.781v-13.466h4.757v-4.976l10.828-6.252v-4.02l-2.488-4.31-3.912-2.198v-8.851z" stroke="#FFF" stroke-width=".5"/><path fill="#F3F3F3" d="M179.961 308.038h11.011v-8.105h11.379l1.482-2.567-2.658-4.605v-2.445h-6.47v-8.334h-4.55l-9.917-5.725v-5.399h-2.444l-5.675 3.276v20.375z"/><path stroke="#FFF" d="M179.961 308.038h11.011v-8.105h11.379l1.482-2.567-2.658-4.605v-2.445h-6.47v-8.334h-4.55l-9.917-5.725v-5.399h-2.444l-5.675 3.276v20.375z"/><path fill="#F3F3F3" d="M130.532 206.086h-5.4v2.974l8.16 4.712v-3.136l-2.76-1.59z"/><path stroke="#FFF" d="M130.532 206.086h-5.4v2.974l8.16 4.712v-3.136l-2.76-1.59z"/><path fill="#F3F3F3" d="M202.992 404.796l.006.006 3.97 2.292 4.951-.007-12.866-7.428v5.137z"/><path stroke="#FFF" d="M202.992 404.796l.006.006 3.97 2.292 4.951-.007-12.866-7.428v5.137z"/><path fill="#00CCCD" d="M158.567 212.33l2.066 3.58v3.58h3.9l4.12 2.38h4.838v13.017l2.242 3.883h2.237l6.098-3.52-2.48-4.299v-3.342h2.443l3.033 1.751 3.234-1.968v-11.189l1.943-1.223-3.425-5.933h-4.977l-4.31 2.49-9.215-5.322-.013-.012h-5.675v6.954h-1.96v-4.862h-1.77z"/><path stroke="#FFF" stroke-width=".5" d="M158.567 212.33l2.066 3.58v3.58h3.9l4.12 2.38h4.838v13.017l2.242 3.883h2.237l6.098-3.52-2.48-4.299v-3.342h2.443l3.033 1.751 3.234-1.968v-11.189l1.943-1.223-3.425-5.933h-4.977l-4.31 2.49-9.215-5.322-.013-.012h-5.675v6.954h-1.96v-4.862h-1.77z"/><path d="M209.527 331.786l-1.926 3.335v8.852l3.912 2.2-.006-.008h8.075l2.258-3.91v-3.36l-12.313-7.109z" fill="#00CCCD"/><path d="M209.527 331.786l-1.926 3.335v8.852l3.912 2.2-.006-.008h8.075l2.258-3.91v-3.36l-12.313-7.109z" stroke="#FFF" stroke-width=".5"/><path fill="#F3F3F3" d="M194.582 234.858l1.222 2.117 3.918-2.262h3.443l-3.362-5.824 3.448-5.892h-2.897l-4.629-8.017h-3.484l-1.943 1.222v8.982h4.284z"/><path stroke="#FFF" d="M194.582 234.858l1.222 2.117 3.918-2.262h3.443l-3.362-5.824 3.448-5.892h-2.897l-4.629-8.017h-3.484l-1.943 1.222v8.982h4.284z"/><path fill="#F3F3F3" d="M203.165 234.713h5.692v-11.716h-5.606l-3.449 5.892z"/><path stroke="#FFF" d="M203.165 234.713h5.692v-11.716h-5.606l-3.449 5.892z"/><path fill="#00CCCD" d="M157.898 248.15H165v5.214h2.333v-18.477h6.16v-13.018h-4.84l-4.12-2.38h-3.899v-3.58l-2.066-3.58 2.33-4.033h1.77v-2.093h-5.425l-4.31 2.488v3.323l-4.31 2.488-2.33-1.345v21.357l-2.433 1.405 10.466 6.042z"/><path stroke="#FFF" stroke-width=".5" d="M157.898 248.15H165v5.214h2.333v-18.477h6.16v-13.018h-4.84l-4.12-2.38h-3.899v-3.58l-2.066-3.58 2.33-4.033h1.77v-2.093h-5.425l-4.31 2.488v3.323l-4.31 2.488-2.33-1.345v21.357l-2.433 1.405 10.466 6.042z"/><path fill="#F3F3F3" d="M117.571 187.328v5.677h.973l2.49-4.31v-3.484h-2.24z"/><path stroke="#FFF" d="M117.571 187.328v5.677h.973l2.49-4.31v-3.484h-2.24z"/><mask id="b" fill="#fff"><use xlink:href="#a"/></mask><path fill="#F3F3F3" mask="url(#b)" d="M220.335 398.687h4.23v-1.991h-4.23z"/><path stroke="#FFF" mask="url(#b)" d="M220.335 398.687h4.23v-1.991h-4.23z"/><path fill="#F3F3F3" mask="url(#b)" d="M450.453 150.517l1.801-3.159v-6.242h2.261l5.137-2.966v4.728l-3.439-.005 2.271 3.934-2.17 3.71z"/><path stroke="#FFF" mask="url(#b)" d="M450.453 150.517l1.801-3.159v-6.242h2.261l5.137-2.966v4.728l-3.439-.005 2.271 3.934-2.17 3.71z"/><path d="M508.201 166.547l-2.819 4.763v6.578l-8.059 4.653 4.206 7.285 10.566-6.1v-4.977l4.31-2.489v-4.976l-8.204-4.737z" fill="#F3F3F3" mask="url(#b)"/><path d="M508.201 166.547l-2.819 4.763v6.578l-8.059 4.653 4.206 7.285 10.566-6.1v-4.977l4.31-2.489v-4.976l-8.204-4.737z" stroke="#FFF" mask="url(#b)"/><path fill="#F3F3F3" mask="url(#b)" d="M494.7 162.8l-2.08 1.222v2.397h2.08z"/><path stroke="#FFF" mask="url(#b)" d="M494.7 162.8l-2.08 1.222v2.397h2.08z"/><path d="M493.703 184.63h-5.242l-2.978 5.158H473.44l.177.308v7.225l2.488 4.31 4.31-2.488h4.977l16.137-9.317-4.206-7.285-3.62 2.09" fill="#F3F3F3" mask="url(#b)"/><path d="M493.703 184.63h-5.242l-2.978 5.158H473.44l.177.308v7.225l2.488 4.31 4.31-2.488h4.977l16.137-9.317-4.206-7.285-3.62 2.09z" stroke="#FFF" mask="url(#b)"/><path fill="#F3F3F3" mask="url(#b)" d="M565.85 132.685l-3.067-1.77-3.437 1.984 1.81 3.136.782 1.353 3.911-2.257z"/><path stroke="#FFF" mask="url(#b)" d="M565.85 132.685l-3.067-1.77-3.437 1.984 1.81 3.136.782 1.353 3.911-2.257z"/><path fill="#F3F3F3" mask="url(#b)" d="M407.509 109.368l-1.417 2.54 3.6 2.08v-3.322z"/><path stroke="#FFF" mask="url(#b)" d="M407.509 109.368l-1.417 2.54 3.6 2.08v-3.322z"/><path fill="#F3F3F3" mask="url(#b)" d="M544.19 108.691l-3.97 2.292h-5.17v1.698l2.117 1.222-3.381 1.953h7.927l-2.002 3.466h-2.444l-3.107 1.794v.95h11.16v-3.333l5.473-3.159h3.938l4.615-2.665v-2.996h-13.04z"/><path stroke="#FFF" mask="url(#b)" d="M544.19 108.691l-3.97 2.292h-5.17v1.698l2.117 1.222-3.381 1.953h7.927l-2.002 3.466h-2.444l-3.107 1.794v.95h11.16v-3.333l5.473-3.159h3.938l4.615-2.665v-2.996h-13.04z"/><path fill="#F3F3F3" mask="url(#b)" d="M494.93 109.956h-3.64v5.625l5.632 9.755 1.623-.937h8.232l8.946 5.165v4.352l12.172-7.028v-2.445l-14.256-8.23h-3.101l.014-2.433-5.165-2.981-2.643 4.577h-4.684z"/><path stroke="#FFF" mask="url(#b)" d="M494.93 109.956h-3.64v5.625l5.632 9.755 1.623-.937h8.232l8.946 5.165v4.352l12.172-7.028v-2.445l-14.256-8.23h-3.101l.014-2.433-5.165-2.981-2.643 4.577h-4.684z"/><path d="M552.133 99.963h-8.76l-2.017 1.165v2.827h-2.583l-.008-3.456 3.37-1.946h9.998v1.41zm14.949-8.906l-8.482-4.953h-11.134l-2.498-4.326-9.096-5.252-2.807 1.62-4.31.02-7.502-4.27h-8.732l-5.314 3.116-5.621.024.01 2.445 2.904 4.982.01 2.445-15.343.064-4.22-2.412-5.2.02-7.328 4.302.022 5.25 6.204 3.549.01 2.312 3.798-2.193h6.86l.02.019v4.446l-4.731 2.73 2.864 4.96h7.464l3.13 5.42h2.345v-9.947l5.758-3.324 6.173 3.564 1.798 3.114h7.547l3.857 6.693h4.673l4.839-2.793v-1.698h5.17l3.97-2.292 2.117 1.222h13.039v-2.445l-.086-.15-2.006-3.474h2.445l7.383-12.788z" fill="#F3F3F3" mask="url(#b)"/><path d="M552.133 99.963h-8.76l-2.017 1.165v2.827h-2.583l-.008-3.456 3.37-1.946h9.998v1.41zm14.949-8.906l-8.482-4.953h-11.134l-2.498-4.326-9.096-5.252-2.807 1.62-4.31.02-7.502-4.27h-8.732l-5.314 3.116-5.621.024.01 2.445 2.904 4.982.01 2.445-15.343.064-4.22-2.412-5.2.02-7.328 4.302.022 5.25 6.204 3.549.01 2.312 3.798-2.193h6.86l.02.019v4.446l-4.731 2.73 2.864 4.96h7.464l3.13 5.42h2.345v-9.947l5.758-3.324 6.173 3.564 1.798 3.114h7.547l3.857 6.693h4.673l4.839-2.793v-1.698h5.17l3.97-2.292 2.117 1.222h13.039v-2.445l-.086-.15-2.006-3.474h2.445l7.383-12.788z" stroke="#FFF" mask="url(#b)"/><path fill="#F3F3F3" mask="url(#b)" d="M482.483 122.051v-4.047l-2.652-4.599-2.259 1.305-3.389-1.957v3.02l2.903 5.031 3.51-2.023z"/><path stroke="#FFF" mask="url(#b)" d="M482.483 122.051v-4.047l-2.652-4.599-2.259 1.305-3.389-1.957v3.02l2.903 5.031 3.51-2.023z"/><path fill="#F3F3F3" mask="url(#b)" d="M547.828 126.408v2.093h-4.94l-2.118 1.222v6.584l-2.33 1.346v6.813l-6.72 3.892v3.22h-14.822l3.07-5.316-4.246-2.45v-9.897l12.173-7.028 7.66.002 1.553-2.69h3.662v3.475l2.117-1.266z"/><path stroke="#FFF" mask="url(#b)" d="M547.828 126.408v2.093h-4.94l-2.118 1.222v6.584l-2.33 1.346v6.813l-6.72 3.892v3.22h-14.822l3.07-5.316-4.246-2.45v-9.897l12.173-7.028 7.66.002 1.553-2.69h3.662v3.475l2.117-1.266z"/><path fill="#F3F3F3" mask="url(#b)" d="M444.382 244.447v4.585h3.823l2.462-4.265v-4.522h-6.285z"/><path stroke="#FFF" mask="url(#b)" d="M444.382 244.447v4.585h3.823l2.462-4.265v-4.522h-6.285z"/><path fill="#F3F3F3" mask="url(#b)" d="M175.249 16.716h-16.046l-4.31 2.49h16.046z"/><path stroke="#FFF" mask="url(#b)" d="M175.249 16.716h-16.046l-4.31 2.49h16.046z"/><path fill="#F3F3F3" mask="url(#b)" d="M400.404 13.3l.003.003h3.576l4.31-2.49V9.207h-9.537l-2.988 1.725h-10.265l9.502 5.486z"/><path stroke="#FFF" mask="url(#b)" d="M400.404 13.3l.003.003h3.576l4.31-2.49V9.207h-9.537l-2.988 1.725h-10.265l9.502 5.486z"/><path fill="#F3F3F3" mask="url(#b)" d="M159.05 179.767l-16.342-9.435h-4.23l-6.137 3.543h10.579l10.192 5.885z"/><path stroke="#FFF" mask="url(#b)" d="M159.05 179.767l-16.342-9.435h-4.23l-6.137 3.543h10.579l10.192 5.885z"/><path fill="#F3F3F3" mask="url(#b)" d="M756.699 302.31l-6.094-3.537v-7.049l-5.113-8.859v-7.98h-2.074l-2.49 4.311v7.962l-4.604 7.978-14.563-8.408 4.903-8.492h-14.457l-5.241 9.08-5.644-3.259-14.87 8.585v4.977l-11.122 6.42h-9.895l-5.941 10.353v26.352l-4.31 2.488v3.696h7.628l6.183-3.57h9.217l12.595-7.272h13.756l4.827 8.361 6.802-3.927v17.175h20.135l4.874-8.442 10.428-6.02 11.093-19.213v-4.977l-6.023-10.432z"/><path stroke="#FFF" mask="url(#b)" d="M756.699 302.31l-6.094-3.537v-7.049l-5.113-8.859v-7.98h-2.074l-2.49 4.311v7.962l-4.604 7.978-14.563-8.408 4.903-8.492h-14.457l-5.241 9.08-5.644-3.259-14.87 8.585v4.977l-11.122 6.42h-9.895l-5.941 10.353v26.352l-4.31 2.488v3.696h7.628l6.183-3.57h9.217l12.595-7.272h13.756l4.827 8.361 6.802-3.927v17.175h20.135l4.874-8.442 10.428-6.02 11.093-19.213v-4.977l-6.023-10.432z"/><path fill="#F3F3F3" mask="url(#b)" d="M670.207 226.875l-1.284-.001-1.503 2.602h2.788z"/><path stroke="#FFF" mask="url(#b)" d="M670.207 226.875l-1.284-.001-1.503 2.602h2.788z"/><path fill="#F3F3F3" mask="url(#b)" d="M486.124 286.333l-8.714 5.031v10.789l-3.444 5.841v5.708l2.488 4.31h4.977l5.421-9.389v-4.978l3.068-5.312v-4.978l3.485-6.036v-4.977l-2.488-4.31z"/><path stroke="#FFF" mask="url(#b)" d="M486.124 286.333l-8.714 5.031v10.789l-3.444 5.841v5.708l2.488 4.31h4.977l5.421-9.389v-4.978l3.068-5.312v-4.978l3.485-6.036v-4.977l-2.488-4.31z"/><path d="M345.603 74.42l-3.285 1.895 4.397 2.5L348.341 76l-2.738-1.58zm8.745 3.043l-5.341-9.25 2.488-4.31 6.459 3.728-2.183 3.781 3.894 6.748.005.005 2.7.002 2.337 4.05-2.663 3.504h-9.6l-4.304 2.495 6.208-10.753z" fill="#F3F3F3" mask="url(#b)"/><path d="M345.603 74.42l-3.285 1.895 4.397 2.5L348.341 76l-2.738-1.58zm8.745 3.043l-5.341-9.25 2.488-4.31 6.459 3.728-2.183 3.781 3.894 6.748.005.005 2.7.002 2.337 4.05-2.663 3.504h-9.6l-4.304 2.495 6.208-10.753z" stroke="#FFF" mask="url(#b)"/><path fill="#F3F3F3" mask="url(#b)" d="M220.177 95.623h10.183l3.206-5.553h-10.183z"/><path stroke="#FFF" mask="url(#b)" d="M220.177 95.623h10.183l3.206-5.553h-10.183z"/><path fill="#F3F3F3" mask="url(#b)" d="M184.655 50.33h5.711l1.8-3.114h-5.712z"/><path stroke="#FFF" mask="url(#b)" d="M184.655 50.33h5.711l1.8-3.114h-5.712z"/><path fill="#F3F3F3" mask="url(#b)" d="M213.875 37.603h-3.922l-1.235 2.139h3.922z"/><path stroke="#FFF" mask="url(#b)" d="M213.875 37.603h-3.922l-1.235 2.139h3.922z"/><path fill="#F3F3F3" mask="url(#b)" d="M194.015 11.344h-7.193l-1.234 2.14h7.192z"/><path stroke="#FFF" mask="url(#b)" d="M194.015 11.344h-7.193l-1.234 2.14h7.192z"/><path fill="#F3F3F3" mask="url(#b)" d="M192.313 24.669l4.3-2.498h-8.28l-2.91 4.986 4.31-2.488z"/><path stroke="#FFF" mask="url(#b)" d="M192.313 24.669l4.3-2.498h-8.28l-2.91 4.986 4.31-2.488z"/><path fill="#F3F3F3" mask="url(#b)" d="M215.143 13.275l-1.968 3.41h-23.017l4.31 2.417h25.686l19.217-11.095h15.847l6.96-4.019h-28.093l-4.31 2.49h-11.306l-4.31 2.487h-10.75l2.489 4.31z"/><path stroke="#FFF" mask="url(#b)" d="M215.143 13.275l-1.968 3.41h-23.017l4.31 2.417h25.686l19.217-11.095h15.847l6.96-4.019h-28.093l-4.31 2.49h-11.306l-4.31 2.487h-10.75l2.489 4.31z"/><path fill="#F3F3F3" mask="url(#b)" d="M321.897 34.59l1.679-2.908-4.513-7.817h7.664l3.639-6.303-2.489-4.31 5.739-3.313h6.392l.004.003 5.739-3.314h-20.885l-4.31-2.488h-27.101l-2.039 3.532h-26.697l-11.649 6.77h-10.419l2.488 4.31h15.862l.017.018v7.336l4.549 7.879-8.81 5.087v16.066l11.91 6.762 10.428-18.061h15.878l.021.02 3.344-5.79h8.972l2.031-3.495h12.539z"/><path stroke="#FFF" mask="url(#b)" d="M321.897 34.59l1.679-2.908-4.513-7.817h7.664l3.639-6.303-2.489-4.31 5.739-3.313h6.392l.004.003 5.739-3.314h-20.885l-4.31-2.488h-27.101l-2.039 3.532h-26.697l-11.649 6.77h-10.419l2.488 4.31h15.862l.017.018v7.336l4.549 7.879-8.81 5.087v16.066l11.91 6.762 10.428-18.061h15.878l.021.02 3.344-5.79h8.972l2.031-3.495h12.539z"/><path fill="#F3F3F3" mask="url(#b)" d="M143.643 31.34l-4.31 2.489v2.158h14.375l2.694-1.555 9.61-.013-2.489-4.31 2.866-4.963h-4.977l-2.489 4.31-11.446-6.61h-10.05l-10.438 6.007h12.344z"/><path stroke="#FFF" mask="url(#b)" d="M143.643 31.34l-4.31 2.489v2.158h14.375l2.694-1.555 9.61-.013-2.489-4.31 2.866-4.963h-4.977l-2.489 4.31-11.446-6.61h-10.05l-10.438 6.007h12.344z"/><path fill="#F3F3F3" mask="url(#b)" d="M234.085 45.974l5.698-3.29-10.4-6.004v-4.977l-13.117-7.574v3.787l-6.816-3.935h-9.804l-6.032 3.482v4.977h21.69l4.455 7.719-8.453 4.88-.007-.006h-7.896l-1.339 2.318 9.232-.01 3.116 5.397h4.977l2.082 3.607.008.007 2.678-.007-3.015-5.223h4.977l2.45-1.414-3.503-6.068h4.977z"/><path stroke="#FFF" mask="url(#b)" d="M234.085 45.974l5.698-3.29-10.4-6.004v-4.977l-13.117-7.574v3.787l-6.816-3.935h-9.804l-6.032 3.482v4.977h21.69l4.455 7.719-8.453 4.88-.007-.006h-7.896l-1.339 2.318 9.232-.01 3.116 5.397h4.977l2.082 3.607.008.007 2.678-.007-3.015-5.223h4.977l2.45-1.414-3.503-6.068h4.977z"/><path fill="#F3F3F3" mask="url(#b)" d="M170.318 25.76l2.49 4.31 10.637-6.142-6.666-.003-3.113 1.836z"/><path stroke="#FFF" mask="url(#b)" d="M170.318 25.76l2.49 4.31 10.637-6.142-6.666-.003-3.113 1.836z"/><path fill="#F3F3F3" mask="url(#b)" d="M147.736 185.804h5.039V184h-5.039z"/><path stroke="#FFF" mask="url(#b)" d="M147.736 185.804h5.039V184h-5.039z"/><path fill="#F3F3F3" mask="url(#b)" d="M170.015 36.669h3.476v-2.057h-3.476z"/><path stroke="#FFF" mask="url(#b)" d="M170.015 36.669h3.476v-2.057h-3.476z"/><path d="M574.56 212.865v8.71h4.667v-2.867l-3.375-5.843h-1.293z" fill="#F3F3F3" mask="url(#b)"/><path d="M574.56 212.865v8.71h4.667v-2.867l-3.375-5.843h-1.293z" stroke="#FFF" mask="url(#b)"/><path d="M688.218 210.812h3.359v-4.106h-3.359v4.106zm3.359-6.905h1.68v-4.479h-1.68v4.479zm-15.612 10.794l5.003-2.888-.654-1.135-5.004 2.889.655 1.134zm8.131-11.014h1.31v-2.729h-1.31v2.729zm17.391 11.37l-1.885-3.266-5.657 3.266h-4.118v2.487h4.977v3.607l2.373 1.37 4.31-2.488v-4.976zm-14.148-25.474l-2.489 4.31 2.489 4.31h-3.224l-.003-.003-2.489-4.31v-9.097h2.95l2.766 4.79z" fill="#F3F3F3" mask="url(#b)"/><path d="M688.218 210.812h3.359v-4.106h-3.359v4.106zm3.359-6.905h1.68v-4.479h-1.68v4.479zm-15.612 10.794l5.003-2.888-.654-1.135-5.004 2.889.655 1.134zm8.131-11.014h1.31v-2.729h-1.31v2.729zm17.391 11.37l-1.885-3.266-5.657 3.266h-4.118v2.487h4.977v3.607l2.373 1.37 4.31-2.488v-4.976zm-14.148-25.474l-2.489 4.31 2.489 4.31h-3.224l-.003-.003-2.489-4.31v-9.097h2.95l2.766 4.79z" stroke="#FFF" mask="url(#b)"/><path fill="#F3F3F3" mask="url(#b)" d="M371.826 244.007h2.774v-2.774h-2.774z"/><path stroke="#FFF" mask="url(#b)" d="M371.826 244.007h2.774v-2.774h-2.774z"/><path fill="#F3F3F3" mask="url(#b)" d="M367.264 209.21v-2.445l-3.36-1.94-3.258 1.881v3.202l1.222 2.117v8.836l2.713-.002v-7.003z"/><path stroke="#FFF" mask="url(#b)" d="M367.264 209.21v-2.445l-3.36-1.94-3.258 1.881v3.202l1.222 2.117v8.836l2.713-.002v-7.003z"/><path fill="#F3F3F3" mask="url(#b)" d="M385.4 218.592l2.78 1.606.074.042 5.248-9.087v-5.281l3.698-2.135-2.303-3.99h-8.85l-2.117 1.222-6.666.019-4.156-2.4h-3.73v4.49l-2.114 3.687v2.445l-2.682 4.647v7.002l5.052-.004 3.825 6.625 8.399-.007v-2.747z"/><path stroke="#FFF" mask="url(#b)" d="M385.4 218.592l2.78 1.606.074.042 5.248-9.087v-5.281l3.698-2.135-2.303-3.99h-8.85l-2.117 1.222-6.666.019-4.156-2.4h-3.73v4.49l-2.114 3.687v2.445l-2.682 4.647v7.002l5.052-.004 3.825 6.625 8.399-.007v-2.747z"/><path fill="#F3F3F3" mask="url(#b)" d="M630.694 199.307l5.36 3.094V197h6.683v-6.17l-6.123-3.534h-6.996v-4.833h-1.882l-.003-.002-2.96-5.306-4.8 2.894v7.249l3.016 1.742 1.94 3.357v21.026l5.975 10.353h3.234l2.53-1.46-5.239-3.024-3.847-6.663v-11.526z"/><path stroke="#FFF" mask="url(#b)" d="M630.694 199.307l5.36 3.094V197h6.683v-6.17l-6.123-3.534h-6.996v-4.833h-1.882l-.003-.002-2.96-5.306-4.8 2.894v7.249l3.016 1.742 1.94 3.357v21.026l5.975 10.353h3.234l2.53-1.46-5.239-3.024-3.847-6.663v-11.526z"/><path fill="#F3F3F3" mask="url(#b)" d="M454.783 136.737V135.6h-2.2v1.366l-2.405 4.15h2.076z"/><path stroke="#FFF" mask="url(#b)" d="M454.783 136.737V135.6h-2.2v1.366l-2.405 4.15h2.076z"/><path fill="#F3F3F3" mask="url(#b)" d="M447.6 145.565h-10.225l-3.147 1.817-4.31-2.488h-3.19l-1.851 3.206v25.945h24.547l4.738-2.735-10.607-18.37v-4.977l4.353 7.54 2.546-4.986-2.847-4.963z"/><path stroke="#FFF" mask="url(#b)" d="M447.6 145.565h-10.225l-3.147 1.817-4.31-2.488h-3.19l-1.851 3.206v25.945h24.547l4.738-2.735-10.607-18.37v-4.977l4.353 7.54 2.546-4.986-2.847-4.963z"/><path fill="#F3F3F3" mask="url(#b)" d="M454.783 136.737l-2.53 4.379h2.262l5.138-2.965 5.883-3.397v-6.93h-11.34l-3.013 1.74 1.4 2.424v3.612h2.2z"/><path stroke="#FFF" mask="url(#b)" d="M454.783 136.737l-2.53 4.379h2.262l5.138-2.965 5.883-3.397v-6.93h-11.34l-3.013 1.74 1.4 2.424v3.612h2.2z"/><path fill="#F3F3F3" mask="url(#b)" d="M482.939 216.16l-7.021-4.053-2.015-3.41-2.251-1.3v-3.019l-2.691-4.66-4.756-2.745h-8.395v2.221l-5.36 9.183v5.608l-4.2 2.425 4.592 2.65 4.54 7.864 5.018 2.897h9.273l4.004-2.31h6.965l6.553-11.35z"/><path stroke="#FFF" mask="url(#b)" d="M482.939 216.16l-7.021-4.053-2.015-3.41-2.251-1.3v-3.019l-2.691-4.66-4.756-2.745h-8.395v2.221l-5.36 9.183v5.608l-4.2 2.425 4.592 2.65 4.54 7.864 5.018 2.897h9.273l4.004-2.31h6.965l6.553-11.35z"/><path d="M348.245 144.455v1.698l-13.05 7.534v5.491l10.243 5.913h.007-.007l17.146 9.9v3.223l6.728 3.885 20.501-11.837v-2.287l-7.96-4.597 2.393-4.165v-11.108l-5.567-9.642 1.676-2.903v-7.18h-14.822l-10.213 5.897v6.093l-7.075 4.085z" fill="#F3F3F3" mask="url(#b)"/><path d="M348.245 144.455v1.698l-13.05 7.534v5.491l10.243 5.913h.007-.007l17.146 9.9v3.223l6.728 3.885 20.501-11.837v-2.287l-7.96-4.597 2.393-4.165v-11.108l-5.567-9.642 1.676-2.903v-7.18h-14.822l-10.213 5.897v6.093l-7.075 4.085z" stroke="#FFF" mask="url(#b)"/><path fill="#F3F3F3" mask="url(#b)" d="M490.175 205.026l-7.593 4.384h-4.977l-1.252-2.169-2.45 1.455 2.014 3.411 7.022 4.053h4.255l-6.552 11.35h-6.966l-4.003 2.311-1.376 2.384V243.1l1.376 2.362 4.86-8.417 11.024-6.365 9.595-16.619v-9.034z"/><path stroke="#FFF" mask="url(#b)" d="M490.175 205.026l-7.593 4.384h-4.977l-1.252-2.169-2.45 1.455 2.014 3.411 7.022 4.053h4.255l-6.552 11.35h-6.966l-4.003 2.311-1.376 2.384V243.1l1.376 2.362 4.86-8.417 11.024-6.365 9.595-16.619v-9.034z"/><path fill="#F3F3F3" mask="url(#b)" d="M409.298 296.008h9.516l3.605-2.08-5.189-2.949v-10.274h5.412v-5.973h-5.412v-10.357l-1.223-2.117h-5.797v3.188l-5.549-.008-3.948-6.839h-5.334l-3.404 1.952 2.492 4.316v12.945l-4.92 8.521v7.134h15.35z"/><path stroke="#FFF" mask="url(#b)" d="M409.298 296.008h9.516l3.605-2.08-5.189-2.949v-10.274h5.412v-5.973h-5.412v-10.357l-1.223-2.117h-5.797v3.188l-5.549-.008-3.948-6.839h-5.334l-3.404 1.952 2.492 4.316v12.945l-4.92 8.521v7.134h15.35z"/><path fill="#F3F3F3" mask="url(#b)" d="M425.963 293.927h-3.543l-3.606 2.081h-9.516l-4.402-2.54h-15.348v2.634l7.288 12.623v11.452l4.96 8.591 2.305-1.33h6.765v-19.485h3.098v-10.038h7.92l1.438-2.467h3.52z"/><path stroke="#FFF" mask="url(#b)" d="M425.963 293.927h-3.543l-3.606 2.081h-9.516l-4.402-2.54h-15.348v2.634l7.288 12.623v11.452l4.96 8.591 2.305-1.33h6.765v-19.485h3.098v-10.038h7.92l1.438-2.467h3.52z"/><path fill="#F3F3F3" mask="url(#b)" d="M389.813 247.89h6.906v-4.455l-1.223-2.117 1.223-2.117v-2.444h-3.067v-2.679h-4.728v2.68h-6.532v7.196l5.195 8.997 2.226-1.327z"/><path stroke="#FFF" mask="url(#b)" d="M389.813 247.89h6.906v-4.455l-1.223-2.117 1.223-2.117v-2.444h-3.067v-2.679h-4.728v2.68h-6.532v7.196l5.195 8.997 2.226-1.327z"/><path fill="#F3F3F3" mask="url(#b)" d="M403.858 229.762l-2.492 4.316h-7.714v2.68h3.067v2.443l-1.223 2.117 1.223 2.117v4.454h-6.906v3.735l-2.226 1.327 2.038 3.531 3.347-1.927 1.362.786h2.93l4.14-2.39-.019-6.317 4.366-2.52v-8.22l1.658-2.873v-3.259z"/><path stroke="#FFF" mask="url(#b)" d="M403.858 229.762l-2.492 4.316h-7.714v2.68h3.067v2.443l-1.223 2.117 1.223 2.117v4.454h-6.906v3.735l-2.226 1.327 2.038 3.531 3.347-1.927 1.362.786h2.93l4.14-2.39-.019-6.317 4.366-2.52v-8.22l1.658-2.873v-3.259z"/><path fill="#F3F3F3" mask="url(#b)" d="M626.303 176.232l-4.962-8.594H616.8v-3.55l2.835-1.636.022-5.854-4.72-2.725-4.046-2.336h-5.853l-4.349 7.533h-7.497v-3.75h-8.554l-11.67-6.643h-3.693l-5.302-3.061v-4.702l-2.034-3.525 3.911-2.26v-2.443l-3.066-1.77-3.437 1.984h-3.899l-7.619-4.398v-2.094l-2.507-4.343v-3.332l5.472-3.16h3.937l4.616-2.664v-5.44l-.087-.15-2.005-3.474h2.444l7.383-12.788 13.27 7.66 2.895 5.036h4.492l11.954 6.9h12.318l5.36 3.095h5.216l3.628-2.095h6.325l2.04-3.531-.022-4.213h4.825l3.497-2.018-.02-2.464h7.08v-2.444l-3.579-2.065h-9.02v-5.814h4.15v-10.26h7.846l24.467 14.126v3.375h4.336l4.71-2.718 2.39 4.138v7.134h-4.745l2.862 4.916-6.48 3.295h-2.445l-3.385 5.863h-.029l-4.31 2.488-3.129-5.42h-2.737l-4.406 7.63 5.467 3.158h9.1v1.283l-6.828 3.942v3.642h4.977l6.302 10.915v10.224l-8.947 15.496h-6.399l-8.13 4.695-1.4-2.424h-6.908l-2.397-4.152h-4.955z"/><path stroke="#FFF" mask="url(#b)" d="M626.303 176.232l-4.962-8.594H616.8v-3.55l2.835-1.636.022-5.854-4.72-2.725-4.046-2.336h-5.853l-4.349 7.533h-7.497v-3.75h-8.554l-11.67-6.643h-3.693l-5.302-3.061v-4.702l-2.034-3.525 3.911-2.26v-2.443l-3.066-1.77-3.437 1.984h-3.899l-7.619-4.398v-2.094l-2.507-4.343v-3.332l5.472-3.16h3.937l4.616-2.664v-5.44l-.087-.15-2.005-3.474h2.444l7.383-12.788 13.27 7.66 2.895 5.036h4.492l11.954 6.9h12.318l5.36 3.095h5.216l3.628-2.095h6.325l2.04-3.531-.022-4.213h4.825l3.497-2.018-.02-2.464h7.08v-2.444l-3.579-2.065h-9.02v-5.814h4.15v-10.26h7.846l24.467 14.126v3.375h4.336l4.71-2.718 2.39 4.138v7.134h-4.745l2.862 4.916-6.48 3.295h-2.445l-3.385 5.863h-.029l-4.31 2.488-3.129-5.42h-2.737l-4.406 7.63 5.467 3.158h9.1v1.283l-6.828 3.942v3.642h4.977l6.302 10.915v10.224l-8.947 15.496h-6.399l-8.13 4.695-1.4-2.424h-6.908l-2.397-4.152h-4.955z"/><path fill="#F3F3F3" mask="url(#b)" d="M602.078 168.118L603.3 166v-2.445h-6.972l-1.223-2.116-2.117 1.222v6.603l2.225 3.854h3.235l3.178-1.834 2.343 4.057 1.14-1.974z"/><path stroke="#FFF" mask="url(#b)" d="M602.078 168.118L603.3 166v-2.445h-6.972l-1.223-2.116-2.117 1.222v6.603l2.225 3.854h3.235l3.178-1.834 2.343 4.057 1.14-1.974z"/><path fill="#F3F3F3" mask="url(#b)" d="M431.678 295.449h-4.836l7.517 13.02h6.947l4.666-7.981v-7.575l-6.586-3.802h-4.05z"/><path stroke="#FFF" mask="url(#b)" d="M431.678 295.449h-4.836l7.517 13.02h6.947l4.666-7.981v-7.575l-6.586-3.802h-4.05z"/><path fill="#F3F3F3" mask="url(#b)" d="M323.855 197.233l-3.882-6.72h-6.144v.143l-2.493 4.307 1.904 3.3h7.256v1.53h-6.368l1.471 2.554h9.794v-2.45z"/><path stroke="#FFF" mask="url(#b)" d="M323.855 197.233l-3.882-6.72h-6.144v.143l-2.493 4.307 1.904 3.3h7.256v1.53h-6.368l1.471 2.554h9.794v-2.45z"/><path fill="#F3F3F3" mask="url(#b)" d="M346.32 210.762l-3.65-2.107h-6.673v8.69l-2.117 1.222-.067-.04v2.279l3.689 2.13v3.59l4.289-2.51h7.028v-4.222l1.223-2.117v-6.92z"/><path stroke="#FFF" mask="url(#b)" d="M346.32 210.762l-3.65-2.107h-6.673v8.69l-2.117 1.222-.067-.04v2.279l3.689 2.13v3.59l4.289-2.51h7.028v-4.222l1.223-2.117v-6.92z"/><path fill="#F3F3F3" mask="url(#b)" d="M333.06 203.568h-5.547l-2.117-1.223h-4.094v1.7l-3.526 2.07 3.245 5.621 2.24-1.28h3.667l1.6 2.78v2.24l5.352 3.09 2.117-1.222v-8.69z"/><path stroke="#FFF" mask="url(#b)" d="M333.06 203.568h-5.547l-2.117-1.223h-4.094v1.7l-3.526 2.07 3.245 5.621 2.24-1.28h3.667l1.6 2.78v2.24l5.352 3.09 2.117-1.222v-8.69z"/><path fill="#F3F3F3" mask="url(#b)" d="M401.366 104.06h6.143v-3.158h-5.293l-3.887-2.254-1.784 3.139h-4.232l1.632 2.996h3.156l1.676 2.903 7.012 4.048z"/><path stroke="#FFF" mask="url(#b)" d="M401.366 104.06h6.143v-3.158h-5.293l-3.887-2.254-1.784 3.139h-4.232l1.632 2.996h3.156l1.676 2.903 7.012 4.048z"/><path fill="#F3F3F3" mask="url(#b)" d="M416.54 107.771l-.002-.002-4.346-2.51-2.512-4.357h-2.171v8.466l2.183 1.299 2.541 1.473h4.313v-4.369z"/><path stroke="#FFF" mask="url(#b)" d="M416.54 107.771l-.002-.002-4.346-2.51-2.512-4.357h-2.171v8.466l2.183 1.299 2.541 1.473h4.313v-4.369z"/><path fill="#F3F3F3" mask="url(#b)" d="M409.693 113.987v4.977l2.54-1.46v-1.027l-.037.022.037-.022v-4.338l-2.54-1.473z"/><path stroke="#FFF" mask="url(#b)" d="M409.693 113.987v4.977l2.54-1.46v-1.027l-.037.022.037-.022v-4.338l-2.54-1.473z"/><path fill="#F3F3F3" mask="url(#b)" d="M409.68 100.902l2.51 4.357 4.349 2.51.002.002h10.489l2.767 1.597 2.467-4.273v-1.035h-2.488l-5.467-9.217h-11.127z"/><path stroke="#FFF" mask="url(#b)" d="M409.68 100.902l2.51 4.357 4.349 2.51.002.002h10.489l2.767 1.597 2.467-4.273v-1.035h-2.488l-5.467-9.217h-11.127z"/><path d="M416.546 113.987l-4.313 2.49v1.027l-2.54 1.46 5.891 10.203 2.488-4.31-2.488-4.31 2.488-4.31h8.361v-2.25h-9.887zm2.213 19.373h6.496v-1.493h-6.496v1.493z" fill="#F3F3F3" mask="url(#b)"/><path d="M416.546 113.987l-4.313 2.49v1.027l-2.54 1.46 5.891 10.203 2.488-4.31-2.488-4.31 2.488-4.31h8.361v-2.25h-9.887zm2.213 19.373h6.496v-1.493h-6.496v1.493z" stroke="#FFF" mask="url(#b)"/><path fill="#F3F3F3" mask="url(#b)" d="M415.205 211.807l-9.731 5.619h-5.336l-3.181 5.51v3.59l4.41 7.553 2.49-4.316h3.553v-2.653l3.562-2.056 4.299 2.482h3.252l3.56-2.055h10.35l-3.336-5.78-5.774-3.334v-3.191l-3.427-5.934h-2.055z"/><path stroke="#FFF" mask="url(#b)" d="M415.205 211.807l-9.731 5.619h-5.336l-3.181 5.51v3.59l4.41 7.553 2.49-4.316h3.553v-2.653l3.562-2.056 4.299 2.482h3.252l3.56-2.055h10.35l-3.336-5.78-5.774-3.334v-3.191l-3.427-5.934h-2.055z"/><path fill="#F3F3F3" mask="url(#b)" d="M429.096 219.7l3.337 5.781 1.224 2.116h6.156l1.221 2.164h4.519l4.99-2.837h4.84l-4.541-7.864-4.591-2.65 4.2-2.425v-5.608h-3.374l-2.116 1.222h-2.446v-5.393l-4.582 2.646v2.445l-5.11 2.95-1.222-2.117h-3.002l-5.276 3.046v3.191z"/><path stroke="#FFF" mask="url(#b)" d="M429.096 219.7l3.337 5.781 1.224 2.116h6.156l1.221 2.164h4.519l4.99-2.837h4.84l-4.541-7.864-4.591-2.65 4.2-2.425v-5.608h-3.374l-2.116 1.222h-2.446v-5.393l-4.582 2.646v2.445l-5.11 2.95-1.222-2.117h-3.002l-5.276 3.046v3.191z"/><path fill="#F3F3F3" mask="url(#b)" d="M398.328 171.968v2.444l1.81 3.135v9.395l-5.445 9.43v3.375h.203l2.303 3.99v4.918l2.442 4.23h-3.862v2.023l4.358 2.517h5.336l9.732-5.619 2.635-4.565h2.056v-3.013l-3.35-5.803 3.192-5.53h2.415v-11.05l-20.466-11.816z"/><path stroke="#FFF" mask="url(#b)" d="M398.328 171.968v2.444l1.81 3.135v9.395l-5.445 9.43v3.375h.203l2.303 3.99v4.918l2.442 4.23h-3.862v2.023l4.358 2.517h5.336l9.732-5.619 2.635-4.565h2.056v-3.013l-3.35-5.803 3.192-5.53h2.415v-11.05l-20.466-11.816z"/><path fill="#F3F3F3" mask="url(#b)" d="M346.101 134.276l-1.607-2.783-3.179 5.507-8.69 5.017v8.693l-9.39 5.421h11.96v-2.444l13.05-7.535v-1.698l7.075-4.085v-6.093z"/><path stroke="#FFF" mask="url(#b)" d="M346.101 134.276l-1.607-2.783-3.179 5.507-8.69 5.017v8.693l-9.39 5.421h11.96v-2.444l13.05-7.535v-1.698l7.075-4.085v-6.093z"/><path fill="#F3F3F3" mask="url(#b)" d="M357.687 197.977v-2.705h-2.18l-12.836 7.41v5.973l3.65 2.107 3.72-.005v-4.051h10.605l3.258-1.88v-3.26z"/><path stroke="#FFF" mask="url(#b)" d="M357.687 197.977v-2.705h-2.18l-12.836 7.41v5.973l3.65 2.107 3.72-.005v-4.051h10.605l3.258-1.88v-3.26z"/><path d="M376.775 101.533l-2.134-1.222 2.014-3.488 2.451-4.246-3.062-1.769-1.395-.805-5.177-2.989-11.425 6.596h-4.977l5.335 9.24-3.572 6.186h-.01l2.11 1.205h5.092l4.14 2.407 2.487-4.31h8.123l2.955-1.706-2.955-5.099zm4.342 12.48h1.31v-2.73h-1.31v2.73z" fill="#F3F3F3" mask="url(#b)"/><path d="M376.775 101.533l-2.134-1.222 2.014-3.488 2.451-4.246-3.062-1.769-1.395-.805-5.177-2.989-11.425 6.596h-4.977l5.335 9.24-3.572 6.186h-.01l2.11 1.205h5.092l4.14 2.407 2.487-4.31h8.123l2.955-1.706-2.955-5.099zm4.342 12.48h1.31v-2.73h-1.31v2.73z" stroke="#FFF" mask="url(#b)"/><path fill="#F3F3F3" mask="url(#b)" d="M400.713 92.995v1.733h12.535v-3.775h-8.999z"/><path stroke="#FFF" mask="url(#b)" d="M400.713 92.995v1.733h12.535v-3.775h-8.999z"/><path d="M411.1 35.996h-3.57l-3.284 1.929-3.152.004-2.763 4.785-1.935-.002-3.396 5.88-2.97 1.716v5.906l-1.87 3.286v6.47l3.31 5.733h3.704l4.308-2.491v-5.83l4.31-2.487-4.31-2.488V53.43l8.534-4.928v-2.627l4.229-2.442.035-5.393-1.18-2.044zm-8.52 31.857h1.67v-2.154h-1.67v2.154z" fill="#F3F3F3" mask="url(#b)"/><path d="M411.1 35.996h-3.57l-3.284 1.929-3.152.004-2.763 4.785-1.935-.002-3.396 5.88-2.97 1.716v5.906l-1.87 3.286v6.47l3.31 5.733h3.704l4.308-2.491v-5.83l4.31-2.487-4.31-2.488V53.43l8.534-4.928v-2.627l4.229-2.442.035-5.393-1.18-2.044zm-8.52 31.857h1.67v-2.154h-1.67v2.154z" stroke="#FFF" mask="url(#b)"/><path fill="#F3F3F3" mask="url(#b)" d="M400.713 92.995h-9.287l-2.21 3.828h-5.02v1.824h14.132l2.385-3.919z"/><path stroke="#FFF" mask="url(#b)" d="M400.713 92.995h-9.287l-2.21 3.828h-5.02v1.824h14.132l2.385-3.919z"/><path fill="#F3F3F3" mask="url(#b)" d="M418.27 78.3v4.98h5.273l2.117 1.224h7.31l4.274-2.468v-4.292l-4.933-2.824v-2.952l-3.323-1.895h-3.741l-3.408 2.049z"/><path stroke="#FFF" mask="url(#b)" d="M418.27 78.3v4.98h5.273l2.117 1.224h7.31l4.274-2.468v-4.292l-4.933-2.824v-2.952l-3.323-1.895h-3.741l-3.408 2.049z"/><path fill="#F3F3F3" mask="url(#b)" d="M374.376 78.498l-2.55 4.428 3.787 2.186 3.82-6.614z"/><path stroke="#FFF" mask="url(#b)" d="M374.376 78.498l-2.55 4.428 3.787 2.186 3.82-6.614z"/><path fill="#F3F3F3" mask="url(#b)" d="M388.884 77.744l-4.202-2.426v-2.146h-4.31v1.016l2.488 4.31h-3.428l-3.819 6.614v3.22l1.397.806-.966 1.67 3.063 1.77-2.453 4.245h12.562l2.21-3.828-2.378-4.12 6.04-3.486v-7.645z"/><path stroke="#FFF" mask="url(#b)" d="M388.884 77.744l-4.202-2.426v-2.146h-4.31v1.016l2.488 4.31h-3.428l-3.819 6.614v3.22l1.397.806-.966 1.67 3.063 1.77-2.453 4.245h12.562l2.21-3.828-2.378-4.12 6.04-3.486v-7.645z"/><path fill="#F3F3F3" mask="url(#b)" d="M431.373 327.53l-2.606 4.513 4.405 2.543 2.366-4.077-1.72-2.979z"/><path stroke="#FFF" mask="url(#b)" d="M431.373 327.53l-2.606 4.513 4.405 2.543 2.366-4.077-1.72-2.979z"/><path fill="#F3F3F3" mask="url(#b)" d="M435.762 247.492v1.546h2.93v-1.546h2.342v-3.044h-3.514z"/><path stroke="#FFF" mask="url(#b)" d="M435.762 247.492v1.546h2.93v-1.546h2.342v-3.044h-3.514z"/><path fill="#00CCCD" mask="url(#b)" d="M114.58 192.273v-1.197l-2.117-1.222v-2.527h5.108l1.222-2.117h2.24l5.564-9.638h-7.572l-2.864 1.654-4.404 7.628-10.005-.01-4.325-7.492V164.91l1.75-3.032-6.79-11.758h-3.315l-2.798 1.616-4.484-7.766h-4.787l-2.117 1.222h-6.468l-7.466-4.31h-6.118v10.955l10.905 18.888v-5.723l-6.6-11.43v-9.573l4.31 2.488v4.977l12.856 22.268v7.406l16.636 9.605 12.045-.012 3.844 6.662.01-5.119z"/><path stroke="#FFF" stroke-width=".5" mask="url(#b)" d="M114.58 192.273v-1.197l-2.117-1.222v-2.527h5.108l1.222-2.117h2.24l5.564-9.638h-7.572l-2.864 1.654-4.404 7.628-10.005-.01-4.325-7.492V164.91l1.75-3.032-6.79-11.758h-3.315l-2.798 1.616-4.484-7.766h-4.787l-2.117 1.222h-6.468l-7.466-4.31h-6.118v10.955l10.905 18.888v-5.723l-6.6-11.43v-9.573l4.31 2.488v4.977l12.856 22.268v7.406l16.636 9.605 12.045-.012 3.844 6.662.01-5.119z"/><path fill="#00CCCD" mask="url(#b)" d="M190.972 308.038l12.86 7.576v8.792h7.102l2.657-4.602v-7.155h-2.444l-2.632-4.557h-6.164v-8.159h-11.38z"/><path stroke="#FFF" stroke-width=".5" mask="url(#b)" d="M190.972 308.038l12.86 7.576v8.792h7.102l2.657-4.602v-7.155h-2.444l-2.632-4.557h-6.164v-8.159h-11.38z"/><path fill="#F3F3F3" mask="url(#b)" d="M130.532 195.762l-6.869 3.966-1.519 2.63 2.987 1.725v2.003h5.401z"/><path stroke="#FFF" mask="url(#b)" d="M130.532 195.762l-6.869 3.966-1.519 2.63 2.987 1.725v2.003h5.401z"/><path fill="#00CCCD" mask="url(#b)" d="M183.089 381.517v-12.092l-3.746-6.49v-20.968l-2.81-4.868V314.94l3.428-1.98v-4.923l-7.842-13.53-1.746 3.026v36.323l3.363 5.514v20.373l6.259 10.84v12.302l11.112 19.246 8.615 4.974 7.247-.011-3.97-2.292-.007-.007h-3.94v-5.137l-.027-.017-2.49-4.31h-5.563z"/><path stroke="#FFF" stroke-width=".5" mask="url(#b)" d="M183.089 381.517v-12.092l-3.746-6.49v-20.968l-2.81-4.868V314.94l3.428-1.98v-4.923l-7.842-13.53-1.746 3.026v36.323l3.363 5.514v20.373l6.259 10.84v12.302l11.112 19.246 8.615 4.974 7.247-.011-3.97-2.292-.007-.007h-3.94v-5.137l-.027-.017-2.49-4.31h-5.563z"/><path fill="#F3F3F3" mask="url(#b)" d="M212.345 234.713l3.438-5.843-3.384-5.86-.011-.013h-3.531v11.716z"/><path stroke="#FFF" mask="url(#b)" d="M212.345 234.713l3.438-5.843-3.384-5.86-.011-.013h-3.531v11.716z"/><path d="M255.038 256.557l-3.768-6.526-.017-.018h-10.032l-12.382-7.148h-4.976l-8.08-13.995-3.438 5.843h-12.624l-3.917 2.262-1.222-2.117v-9.674h-4.284v2.208l-3.234 1.968-3.032-1.75h-2.446v3.341l2.482 4.298-6.098 3.521h-2.238l-2.242-3.883h-6.157v18.477H165l-6.802 3.926v10.133l4.957 2.862 3.341-.004v3.853h5.623l5.674-3.276h2.445v5.4l9.917 5.724h4.55v8.334h6.47v2.445l2.657 4.605-1.481 2.567v8.16h6.165l2.63 4.556h2.445v3.547h2.638v3.981l-6.702 11.61 12.314 7.108v3.36l8.112-14.052v-11.945l9.946-5.742h4.976l7.732-13.392v-14.086l9.648-16.727v-9.754h-7.216z" fill="#F3F3F3" mask="url(#b)"/><path d="M255.038 256.557l-3.768-6.526-.017-.018h-10.032l-12.382-7.148h-4.976l-8.08-13.995-3.438 5.843h-12.624l-3.917 2.262-1.222-2.117v-9.674h-4.284v2.208l-3.234 1.968-3.032-1.75h-2.446v3.341l2.482 4.298-6.098 3.521h-2.238l-2.242-3.883h-6.157v18.477H165l-6.802 3.926v10.133l4.957 2.862 3.341-.004v3.853h5.623l5.674-3.276h2.445v5.4l9.917 5.724h4.55v8.334h6.47v2.445l2.657 4.605-1.481 2.567v8.16h6.165l2.63 4.556h2.445v3.547h2.638v3.981l-6.702 11.61 12.314 7.108v3.36l8.112-14.052v-11.945l9.946-5.742h4.976l7.732-13.392v-14.086l9.648-16.727v-9.754h-7.216z" stroke="#FFF" mask="url(#b)"/><path fill="#F3F3F3" mask="url(#b)" d="M119.614 197.39l4.049 2.338 6.869-3.966v-2.742l-.015-.016h-9.484l-1.42 2.4z"/><path stroke="#FFF" mask="url(#b)" d="M119.614 197.39l4.049 2.338 6.869-3.966v-2.742l-.015-.016h-9.484l-1.42 2.4z"/><path fill="#F3F3F3" mask="url(#b)" d="M141.718 210.516l-4.31 2.488-4.115-2.368v3.136l4.379 2.528 4.31-2.489 4.31 2.49v-3.144z"/><path stroke="#FFF" mask="url(#b)" d="M141.718 210.516l-4.31 2.488-4.115-2.368v3.136l4.379 2.528 4.31-2.489 4.31 2.49v-3.144z"/><path fill="#00CCCD" mask="url(#b)" d="M166.497 274.134v.008l-.008-.008h.008v-3.854l-3.343.004-4.956-2.86V257.29l6.801-3.927v-5.213h-7.101l-3.573-6.189-2.339-1.35v4.914l-7.659 4.422v5.78-.366h-4.554l-2.371-4.106v5.281l14.71 25.478v4.977l18.26 10.542 1.747-3.024v-20.375z"/><path stroke="#FFF" stroke-width=".5" mask="url(#b)" d="M166.497 274.134v.008l-.008-.008h.008v-3.854l-3.343.004-4.956-2.86V257.29l6.801-3.927v-5.213h-7.101l-3.573-6.189-2.339-1.35v4.914l-7.659 4.422v5.78-.366h-4.554l-2.371-4.106v5.281l14.71 25.478v4.977l18.26 10.542 1.747-3.024v-20.375z"/><path fill="#F3F3F3" mask="url(#b)" d="M144.327 255.361v-5.414l7.66-4.422v-4.915l-8.128-4.692-6.457 3.728v11.61l2.371 4.105z"/><path stroke="#FFF" mask="url(#b)" d="M144.327 255.361v-5.414l7.66-4.422v-4.915l-8.128-4.692-6.457 3.728v11.61l2.371 4.105z"/><path d="M135.605 85.912l-3.265 1.974v-10.33h3.265v8.356zm-11.787-29.56h-5.484l-2.263 2.73-1.368-.685h-5.678V55.52h5.678l4.844-2.796 3.062 1.768 6.303-3.64 1.107 1.918-6.201 3.58zm-12.954-14.256h7.01l3.343-1.93 4.854 2.804-5.033 2.906h-12.356l2.182-3.78zm113.316 31.9h-.022V61.508l-2.34-1.35-8.755 5.053h-4.976l4.489-7.774-5.73-3.308-.01-.01h-9.03l-6.677 11.566v4.562l-10.414 6.013v7.216l-4.31 2.489h-4.977v-6.47l2.988-5.176h-4.977l-9.182-5.302h-5.746v-8.991l17.86-10.318h7.092l4.31-2.49-4.31-2.487-.006-.006h10.397l9.792-5.653v-3.32h-2.737l-9.628 5.56v-6.47l-3.473-6.014-6.278 3.624v4.977l-4.31 2.488h-36.878l-8.962-5.173H98.71L60.03 56.929l7.622 4.349v8.268h-2.914V84.65l3.97 6.877h69.333l5.17 2.952 3.776-2.18h6.43l3.968 6.89.965 1.67h2.637l5.776 3.433h-6.77l-1.643 2.95v3.163h2.264l6.748-3.896h7.062l4.89-2.824h5.34l4.3-7.445h4.66v5.88l2.118 1.223v2.498h8.457l10.779-6.223-.014-2.6-8.401 4.85-4.49-7.773h5.73l-1.508-2.611h-9.35l6.474-3.738 14.065-.001 5.406-3.121h6.47l3.309-5.732-8.48-4.896z" fill="#F3F3F3" mask="url(#b)"/><path d="M135.605 85.912l-3.265 1.974v-10.33h3.265v8.356zm-11.787-29.56h-5.484l-2.263 2.73-1.368-.685h-5.678V55.52h5.678l4.844-2.796 3.062 1.768 6.303-3.64 1.107 1.918-6.201 3.58zm-12.954-14.256h7.01l3.343-1.93 4.854 2.804-5.033 2.906h-12.356l2.182-3.78zm113.316 31.9h-.022V61.508l-2.34-1.35-8.755 5.053h-4.976l4.489-7.774-5.73-3.308-.01-.01h-9.03l-6.677 11.566v4.562l-10.414 6.013v7.216l-4.31 2.489h-4.977v-6.47l2.988-5.176h-4.977l-9.182-5.302h-5.746v-8.991l17.86-10.318h7.092l4.31-2.49-4.31-2.487-.006-.006h10.397l9.792-5.653v-3.32h-2.737l-9.628 5.56v-6.47l-3.473-6.014-6.278 3.624v4.977l-4.31 2.488h-36.878l-8.962-5.173H98.71L60.03 56.929l7.622 4.349v8.268h-2.914V84.65l3.97 6.877h69.333l5.17 2.952 3.776-2.18h6.43l3.968 6.89.965 1.67h2.637l5.776 3.433h-6.77l-1.643 2.95v3.163h2.264l6.748-3.896h7.062l4.89-2.824h5.34l4.3-7.445h4.66v5.88l2.118 1.223v2.498h8.457l10.779-6.223-.014-2.6-8.401 4.85-4.49-7.773h5.73l-1.508-2.611h-9.35l6.474-3.738 14.065-.001 5.406-3.121h6.47l3.309-5.732-8.48-4.896z" stroke="#FFF" mask="url(#b)"/><path fill="#F3F3F3" mask="url(#b)" d="M507.993 166.427l-2.49-4.31-2.487 4.31-8.315-.008 2.805 4.892h7.876l2.819-4.763z"/><path stroke="#FFF" mask="url(#b)" d="M507.993 166.427l-2.49-4.31-2.487 4.31-8.315-.008 2.805 4.892h7.876l2.819-4.763z"/><path fill="#F3F3F3" mask="url(#b)" d="M488.46 184.63h5.243l11.679-6.742v-6.577h-7.876l-2.805-4.892h-2.08l-7.701-13.338h-7.594l-17.673-10.203-3.44-.004 2.272 3.933-2.17 3.71h-5.861v3.653l7.702 13.483 4.31 2.488v5.569l4.31 2.488 6.664 11.59h12.044z"/><path stroke="#FFF" mask="url(#b)" d="M488.46 184.63h5.243l11.679-6.742v-6.577h-7.876l-2.805-4.892h-2.08l-7.701-13.338h-7.594l-17.673-10.203-3.44-.004 2.272 3.933-2.17 3.71h-5.861v3.653l7.702 13.483 4.31 2.488v5.569l4.31 2.488 6.664 11.59h12.044z"/><path fill="#F3F3F3" mask="url(#b)" d="M629.98 174.11l8.269 4.773v2.445l-1.748 3.028 7.96 4.596 3.956 6.852v9.035l-7.732 4.465 1.295.748v4.977l4.305-2.493v-3.733l6.798-3.926V199.5l-6.821-11.814-5.904-3.408-.004-.004v-4.073l3.315-1.914v-3.685l-2.397-4.152h-4.955z"/><path stroke="#FFF" mask="url(#b)" d="M629.98 174.11l8.269 4.773v2.445l-1.748 3.028 7.96 4.596 3.956 6.852v9.035l-7.732 4.465 1.295.748v4.977l4.305-2.493v-3.733l6.798-3.926V199.5l-6.821-11.814-5.904-3.408-.004-.004v-4.073l3.315-1.914v-3.685l-2.397-4.152h-4.955z"/><path fill="#F3F3F3" mask="url(#b)" d="M426.426 93.621l-2.117 1.222 5.466 9.216v-3.94h2.49v-3.04z"/><path stroke="#FFF" mask="url(#b)" d="M426.426 93.621l-2.117 1.222 5.466 9.216v-3.94h2.49v-3.04z"/><path fill="#F3F3F3" mask="url(#b)" d="M541.713 115.856h-7.927l3.38-1.952-2.116-1.222-4.838 2.793h-4.674l-3.857-6.693h-7.547l-1.798-3.114-6.173-3.564-5.758 3.324v9.948h2.339l2.643-4.577 5.165 2.981-.014 2.432h3.1l14.257 8.231v2.445h3.845v-4.085l-2.116-1.223 2.277-3.945h2.444l2.922 1.687h2.445z"/><path stroke="#FFF" mask="url(#b)" d="M541.713 115.856h-7.927l3.38-1.952-2.116-1.222-4.838 2.793h-4.674l-3.857-6.693h-7.547l-1.798-3.114-6.173-3.564-5.758 3.324v9.948h2.339l2.643-4.577 5.165 2.981-.014 2.432h3.1l14.257 8.231v2.445h3.845v-4.085l-2.116-1.223 2.277-3.945h2.444l2.922 1.687h2.445z"/><path fill="#F3F3F3" mask="url(#b)" d="M546.541 161.227l-5.185-2.994 1.222-2.117 3.621.005 6.968-12.07-3.616-6.261v-2.445h5.896V132.9l-7.619-4.398h-4.941l-2.117 1.222v6.584l-2.331 1.345v6.814l-6.718 3.89v3.222h-14.823l5.458 3.15v8.072h8.342l11.471 6.622.034.058 4.338-2.59z"/><path stroke="#FFF" mask="url(#b)" d="M546.541 161.227l-5.185-2.994 1.222-2.117 3.621.005 6.968-12.07-3.616-6.261v-2.445h5.896V132.9l-7.619-4.398h-4.941l-2.117 1.222v6.584l-2.331 1.345v6.814l-6.718 3.89v3.222h-14.823l5.458 3.15v8.072h8.342l11.471 6.622.034.058 4.338-2.59z"/><path fill="#F3F3F3" mask="url(#b)" d="M516.898 151.578l2.965-5.136.104-.18-4.245-2.45v-14.249l-8.946-5.165h-8.232l-1.623.937v3.798h-8.517l-5.92-3.425v-3.657l-1.889-3.27-3.509 2.023v2.448h-5.435v4.572l5.997 3.462v7.238l5.531 3.235v8.307l4.31-2.488 4.31 2.488v2.905l10.763 6.214 4.31-2.488 3.361 1.94v4.163h12.123v-8.07z"/><path stroke="#FFF" mask="url(#b)" d="M516.898 151.578l2.965-5.136.104-.18-4.245-2.45v-14.249l-8.946-5.165h-8.232l-1.623.937v3.798h-8.517l-5.92-3.425v-3.657l-1.889-3.27-3.509 2.023v2.448h-5.435v4.572l5.997 3.462v7.238l5.531 3.235v8.307l4.31-2.488 4.31 2.488v2.905l10.763 6.214 4.31-2.488 3.361 1.94v4.163h12.123v-8.07z"/><path fill="#F3F3F3" mask="url(#b)" d="M463.351 110.796v4.977h10.832v-3.02l-3.39-1.957z"/><path stroke="#FFF" mask="url(#b)" d="M463.351 110.796v4.977h10.832v-3.02l-3.39-1.957z"/><path d="M612.447 78.561l-2.961 5.128-4.377-.01v-1.465h2.537l2.519-4.362V65.843l2.282 1.317v11.401zM433.068 64.698h-2.388l-1.03-1.785v-2.316h1.847l1.571 2.722v1.379zm302.982-20.34h4.977l4.31 2.489-.004-.004h6.77l-3-5.196h-9.936l-4.812-2.778h-7.963l-8.705-5.026-.013-.011h-39.237l-4.31-2.489h-15.708l-5.444-3.142h-21.431v2.488h-14.93l-10.097-5.829-.007-.007h-34.314l-4.31 2.489h-4.977l10.165-5.869-2.488-4.31H556.27l-4.31-2.489-9.003 5.198-.004-.004h-14.184l-2.489 4.31-.008-.008h-8.83l2.488 4.029h-11.064l3.812 6.603h7.385l2.489 4.311h-5.848l-4.31 2.488-6.379-11.054h-2.502l-2.488-4.31h-4.977v5.723l6.44 3.716v3.43l-6.672-3.852-.014-.013h-11.586l-4.31 2.488h-8.864l-7.545 4.324h-6.924l-3.354-1.937v3.869l-10.217 5.887h-4.977l-3.746-6.489-5.564-3.213h4.977l5.564 3.213 6.529.003V39.59l-6.525-3.767h-7.217l-4.31-2.489h-1.426l-4.609 2.662v2.836l7.277 12.669-3.852 6.673h2.612l-2.488 4.31v7.589h3.741l3.323 1.895v2.951l4.933 2.825v4.292h3.937l3.286 5.691h8.24l3.511 2.026v7.197l-3.68 2.079v3.979h-2.088v1.86h2.635l10.267 5.928h7.441l3.39 1.957 3.39 1.957 2.259-1.304-6.097-10.573 4.92-2.84-.01-2.312-6.204-3.548-.022-5.251 7.329-4.301 5.2-.021 4.219 2.412 15.343-.064-.01-2.445-2.904-4.983-.01-2.444 5.621-.024 5.314-3.116h8.732l7.503 4.269 4.309-.018 2.807-1.621 9.096 5.252 2.497 4.325H558.6l8.482 4.954 8.324-4.833h6.476l5.473 3.156h5.109v-2.444l-2.065-3.578h5.312l8.272 4.776h10.018l5.503 3.177h5.321l3.823-2.208h12.841V78.844h7.847l24.467 14.126v3.375h4.336l4.71-2.719 2.39 4.139v7.133h-4.745l2.862 4.916 8.4-.006 2.467-4.31-.001-14.876-6.119-10.573-6.399-3.695-4.31 2.489-7.176-4.143 4.265-7.389V61.59h21.013l4.005 2.312v-9.57h4.977l5.072 2.929 2.489-4.31 4.31 2.488v3.678l-3.519 6.096v4.976l2.488 4.31 8.517 4.917 3.243 5.619 3.252-.003-.022-9.819-4.304-7.455-5.887-3.399v-4.977l-.021-.018h14.199l-.011-.01v-2.488l8.046-4.646-4.31-2.488h-4.977l-5.192-2.998-.008-.006h8.207v-2.37zm-276.742-6.317h4.217V35.9h-4.217v2.141zm176.654-16.095h2.729v-1.31h-2.729v1.31zm-6.422 3.476h2.729v-1.31h-2.729v1.31zM474.562 32.4l-9.024-5.181 2.488-4.31 10.002-5.774h10.433l-4.31 2.488h-4.977l-8.992 5.191 4.38 7.586zm228.403 66.153l-10.536-18.409h2.394l10.537 18.409h-2.395zM523.032 8.112l-.002-.003h6.176l2.515 1.45h3.332l3.674 2.119h-9.519l-6.176-3.566zm106.474 12.524l-4.31-2.489h-9.595l4.31 2.489h9.595zM409.69 76.06h4.7v-2.888h-4.7v2.888z" fill="#F3F3F3" mask="url(#b)"/><path d="M612.447 78.561l-2.961 5.128-4.377-.01v-1.465h2.537l2.519-4.362V65.843l2.282 1.317v11.401zM433.068 64.698h-2.388l-1.03-1.785v-2.316h1.847l1.571 2.722v1.379zm302.982-20.34h4.977l4.31 2.489-.004-.004h6.77l-3-5.196h-9.936l-4.812-2.778h-7.963l-8.705-5.026-.013-.011h-39.237l-4.31-2.489h-15.708l-5.444-3.142h-21.431v2.488h-14.93l-10.097-5.829-.007-.007h-34.314l-4.31 2.489h-4.977l10.165-5.869-2.488-4.31H556.27l-4.31-2.489-9.003 5.198-.004-.004h-14.184l-2.489 4.31-.008-.008h-8.83l2.488 4.029h-11.064l3.812 6.603h7.385l2.489 4.311h-5.848l-4.31 2.488-6.379-11.054h-2.502l-2.488-4.31h-4.977v5.723l6.44 3.716v3.43l-6.672-3.852-.014-.013h-11.586l-4.31 2.488h-8.864l-7.545 4.324h-6.924l-3.354-1.937v3.869l-10.217 5.887h-4.977l-3.746-6.489-5.564-3.213h4.977l5.564 3.213 6.529.003V39.59l-6.525-3.767h-7.217l-4.31-2.489h-1.426l-4.609 2.662v2.836l7.277 12.669-3.852 6.673h2.612l-2.488 4.31v7.589h3.741l3.323 1.895v2.951l4.933 2.825v4.292h3.937l3.286 5.691h8.24l3.511 2.026v7.197l-3.68 2.079v3.979h-2.088v1.86h2.635l10.267 5.928h7.441l3.39 1.957 3.39 1.957 2.259-1.304-6.097-10.573 4.92-2.84-.01-2.312-6.204-3.548-.022-5.251 7.329-4.301 5.2-.021 4.219 2.412 15.343-.064-.01-2.445-2.904-4.983-.01-2.444 5.621-.024 5.314-3.116h8.732l7.503 4.269 4.309-.018 2.807-1.621 9.096 5.252 2.497 4.325H558.6l8.482 4.954 8.324-4.833h6.476l5.473 3.156h5.109v-2.444l-2.065-3.578h5.312l8.272 4.776h10.018l5.503 3.177h5.321l3.823-2.208h12.841V78.844h7.847l24.467 14.126v3.375h4.336l4.71-2.719 2.39 4.139v7.133h-4.745l2.862 4.916 8.4-.006 2.467-4.31-.001-14.876-6.119-10.573-6.399-3.695-4.31 2.489-7.176-4.143 4.265-7.389V61.59h21.013l4.005 2.312v-9.57h4.977l5.072 2.929 2.489-4.31 4.31 2.488v3.678l-3.519 6.096v4.976l2.488 4.31 8.517 4.917 3.243 5.619 3.252-.003-.022-9.819-4.304-7.455-5.887-3.399v-4.977l-.021-.018h14.199l-.011-.01v-2.488l8.046-4.646-4.31-2.488h-4.977l-5.192-2.998-.008-.006h8.207v-2.37zm-276.742-6.317h4.217V35.9h-4.217v2.141zm176.654-16.095h2.729v-1.31h-2.729v1.31zm-6.422 3.476h2.729v-1.31h-2.729v1.31zM474.562 32.4l-9.024-5.181 2.488-4.31 10.002-5.774h10.433l-4.31 2.488h-4.977l-8.992 5.191 4.38 7.586zm228.403 66.153l-10.536-18.409h2.394l10.537 18.409h-2.395zM523.032 8.112l-.002-.003h6.176l2.515 1.45h3.332l3.674 2.119h-9.519l-6.176-3.566zm106.474 12.524l-4.31-2.489h-9.595l4.31 2.489h9.595zM409.69 76.06h4.7v-2.888h-4.7v2.888z" stroke="#FFF" mask="url(#b)"/><path fill="#F3F3F3" mask="url(#b)" d="M468.77 118.213l1.262 2.21h3.702v2.83h3.352v-2.449l-2.904-5.032h-5.412z"/><path stroke="#FFF" mask="url(#b)" d="M468.77 118.213l1.262 2.21h3.702v2.83h3.352v-2.449l-2.904-5.032h-5.412z"/><path fill="#F3F3F3" mask="url(#b)" d="M537.267 119.322l-2.922-1.687h-2.444l-2.278 3.945 2.117 1.222v4.085l3.815.002 1.553-2.69h3.662v3.475l2.117-1.266h4.941l-2.507-4.343H534.16v-.949z"/><path stroke="#FFF" mask="url(#b)" d="M537.267 119.322l-2.922-1.687h-2.444l-2.278 3.945 2.117 1.222v4.085l3.815.002 1.553-2.69h3.662v3.475l2.117-1.266h4.941l-2.507-4.343H534.16v-.949z"/><path fill="#F3F3F3" mask="url(#b)" d="M400.713 258.6l3.948 6.839 5.55.008v-3.19h5.797l1.222 2.118v10.358h8.872l11.152 6.439h1.183v-2.461l-3.818-2.205v-8.784l2.635-1.521h3.171l-4.664-8.078v-10.631l1.758-3.044v-2.445l3.515-6.09v-6.152l-1.222-2.163h-6.156l-1.222-2.117h-10.352l-3.559 2.055h-3.253l-4.299-2.482-3.562 2.056v5.911l-1.658 2.873v8.22l-4.366 2.52.018 6.317-4.14 2.39h-2.929l-2.024 1.169v1.955h-1.54l1.205 2.087 3.404-1.952z"/><path stroke="#FFF" mask="url(#b)" d="M400.713 258.6l3.948 6.839 5.55.008v-3.19h5.797l1.222 2.118v10.358h8.872l11.152 6.439h1.183v-2.461l-3.818-2.205v-8.784l2.635-1.521h3.171l-4.664-8.078v-10.631l1.758-3.044v-2.445l3.515-6.09v-6.152l-1.222-2.163h-6.156l-1.222-2.117h-10.352l-3.559 2.055h-3.253l-4.299-2.482-3.562 2.056v5.911l-1.658 2.873v8.22l-4.366 2.52.018 6.317-4.14 2.39h-2.929l-2.024 1.169v1.955h-1.54l1.205 2.087 3.404-1.952z"/><path fill="#F3F3F3" mask="url(#b)" d="M445.787 279.027v4.627l2.656 1.534.001.002h2.132v5.19l1.647 2.852 2.682-4.645v-2.477l-3.346-5.436h-1.544v-10.677l-2.503-1.442v9.476z"/><path stroke="#FFF" mask="url(#b)" d="M445.787 279.027v4.627l2.656 1.534.001.002h2.132v5.19l1.647 2.852 2.682-4.645v-2.477l-3.346-5.436h-1.544v-10.677l-2.503-1.442v9.476z"/><path fill="#F3F3F3" mask="url(#b)" d="M440.425 266.2h-3.17l-2.635 1.522v8.784l3.817 2.205v2.46h-1.183l-11.153-6.438h-3.459v5.972h-5.411v10.275l5.189 2.948h3.543l.878 1.52h4.837l3.659-6.337h4.048v-1.698l6.403-3.758v-4.627l1.722-.996.002-9.477-3.509-2.021-.027 1.716z"/><path stroke="#FFF" mask="url(#b)" d="M440.425 266.2h-3.17l-2.635 1.522v8.784l3.817 2.205v2.46h-1.183l-11.153-6.438h-3.459v5.972h-5.411v10.275l5.189 2.948h3.543l.878 1.52h4.837l3.659-6.337h4.048v-1.698l6.403-3.758v-4.627l1.722-.996.002-9.477-3.509-2.021-.027 1.716z"/><path fill="#F3F3F3" mask="url(#b)" d="M451.56 276.87v3.805l3.346 5.436v2.476l-2.683 4.645-1.647-2.853v-5.19h-2.132l-2.656-1.534-6.403 3.758v1.698l6.587 3.802v7.575l-4.666 7.982v13.48h2.59v-2.048l8.375-4.847v-17.75l14.89-8.608v-15.01l-5.512 3.183z"/><path stroke="#FFF" mask="url(#b)" d="M451.56 276.87v3.805l3.346 5.436v2.476l-2.683 4.645-1.647-2.853v-5.19h-2.132l-2.656-1.534-6.403 3.758v1.698l6.587 3.802v7.575l-4.666 7.982v13.48h2.59v-2.048l8.375-4.847v-17.75l14.89-8.608v-15.01l-5.512 3.183z"/><path fill="#F3F3F3" mask="url(#b)" d="M460.866 250.655l-10.199-5.888-2.462 4.265h-3.823v-4.585h-3.348v6.084l-2.102 3.641-1.948-.03v2.954l4.663 8.078 2.357 1.36 3.508 2.021v-.013.013l2.502 1.442v-.024l1.545.914v5.983h10.09l5.512-3.183V272.4l-4.314-7.47v-7.647l1.405-2.433-3.386-1.955z"/><path stroke="#FFF" mask="url(#b)" d="M460.866 250.655l-10.199-5.888-2.462 4.265h-3.823v-4.585h-3.348v6.084l-2.102 3.641-1.948-.03v2.954l4.663 8.078 2.357 1.36 3.508 2.021v-.013.013l2.502 1.442v-.024l1.545.914v5.983h10.09l5.512-3.183V272.4l-4.314-7.47v-7.647l1.405-2.433-3.386-1.955z"/><path fill="#F3F3F3" mask="url(#b)" d="M438.693 249.038h-2.931v2.986l.676 1.171.547.946 1.948.031 2.102-3.64v-3.04h-2.342z"/><path stroke="#FFF" mask="url(#b)" d="M438.693 249.038h-2.931v2.986l.676 1.171.547.946 1.948.031 2.102-3.64v-3.04h-2.342z"/><path d="M94.234 37.231l-7.56-4.34H49.01L7.145 57.061l4.586 7.941L.933 71.236H5.91l22.239-12.839h29.314l7.276 4.196v6.952h2.913v-8.268l-7.626-4.352 34.208-19.694zm101.498 66.111v2.498h-8.875l.016.017-3.246 5.623v2.488h-7l.004 3.24-11.922 6.883v8.875l-18.432 10.641v20.351h-2.061l-.007-.007-3.515-6.089v-7.216l-4.351-2.512-10.248.014-4.31 2.488h-12.037l-6.133 3.556-4.438 7.685-6.788-11.758h-3.317l-2.798 1.616-4.484-7.766h-4.786l-2.118 1.222h-6.467l-7.467-4.31h-6.118v-2.517l-6.405-3.697v-13.234l11.45-19.832v-4.976l8.83-5.099h69.332l5.172 2.952-5.172 2.985 1.223 2.118 3.667-2.118h4.056l2.987 1.726h7.41l.966 1.671h-9.87l-3.521 2.033-3.918 6.785v5.081l5.538-3.197v.004l.022-.017-.022.013v-5.745l4.049-2.337h5.63l-2.171 3.762h4.263v3.162h-4.206l-2.445 4.256h6.163l8.943-5.164h2.444l5.176-2.988 4.89-2.823h5.34l4.3-7.447h4.66v5.882l2.117 1.222z" fill="#00CCCD" mask="url(#b)"/><path d="M94.234 37.231l-7.56-4.34H49.01L7.145 57.061l4.586 7.941L.933 71.236H5.91l22.239-12.839h29.314l7.276 4.196v6.952h2.913v-8.268l-7.626-4.352 34.208-19.694zm101.498 66.111v2.498h-8.875l.016.017-3.246 5.623v2.488h-7l.004 3.24-11.922 6.883v8.875l-18.432 10.641v20.351h-2.061l-.007-.007-3.515-6.089v-7.216l-4.351-2.512-10.248.014-4.31 2.488h-12.037l-6.133 3.556-4.438 7.685-6.788-11.758h-3.317l-2.798 1.616-4.484-7.766h-4.786l-2.118 1.222h-6.467l-7.467-4.31h-6.118v-2.517l-6.405-3.697v-13.234l11.45-19.832v-4.976l8.83-5.099h69.332l5.172 2.952-5.172 2.985 1.223 2.118 3.667-2.118h4.056l2.987 1.726h7.41l.966 1.671h-9.87l-3.521 2.033-3.918 6.785v5.081l5.538-3.197v.004l.022-.017-.022.013v-5.745l4.049-2.337h5.63l-2.171 3.762h4.263v3.162h-4.206l-2.445 4.256h6.163l8.943-5.164h2.444l5.176-2.988 4.89-2.823h5.34l4.3-7.447h4.66v5.882l2.117 1.222z" stroke="#FFF" stroke-width=".5" mask="url(#b)"/><path fill="#F3F3F3" mask="url(#b)" d="M418.76 70.276h-9.07v2.896h4.7v2.888l3.88 2.24 3.568-6.178z"/><path stroke="#FFF" mask="url(#b)" d="M418.76 70.276h-9.07v2.896h4.7v2.888l3.88 2.24 3.568-6.178z"/><path fill="#F3F3F3" mask="url(#b)" d="M425.243 62.486v3.712h-8.957v-2.297l2.45-1.415z"/><path stroke="#FFF" mask="url(#b)" d="M425.243 62.486v3.712h-8.957v-2.297l2.45-1.415z"/><path fill="#F3F3F3" mask="url(#b)" d="M416.286 66.199v1.273h-4.977l-1.622 2.803h9.069l3.08 1.849 3.407-2.048v-3.877z"/><path stroke="#FFF" mask="url(#b)" d="M416.286 66.199v1.273h-4.977l-1.622 2.803h9.069l3.08 1.849 3.407-2.048v-3.877z"/><path d="M429.775 104.06h2.489v-3.941h-2.489v3.941zm26.443-14.307v7.197h-5.04l-3.511 2.027h-1.573v4.525l2.366 1.366h-5.164l-2.782-4.749h-8.25v-3.04l-5.838-3.458-2.117 1.222-11.127.001.067-.116v-3.774l5.255-3.035-1.455-2.521 1.222-2.117h5.271l2.117 1.222h7.31l4.275-2.467h3.937l3.286 5.691h8.24l3.511 2.026z" fill="#F3F3F3" mask="url(#b)"/><path d="M429.775 104.06h2.489v-3.941h-2.489v3.941zm26.443-14.307v7.197h-5.04l-3.511 2.027h-1.573v4.525l2.366 1.366h-5.164l-2.782-4.749h-8.25v-3.04l-5.838-3.458-2.117 1.222-11.127.001.067-.116v-3.774l5.255-3.035-1.455-2.521 1.222-2.117h5.271l2.117 1.222h7.31l4.275-2.467h3.937l3.286 5.691h8.24l3.511 2.026z" stroke="#FFF" mask="url(#b)"/></g><text font-family="BentonSansBBVA-Bold, Benton Sans BBVA" font-size="22" font-weight="bold" letter-spacing=".134" fill="#090909" transform="translate(0 -3)"><tspan x="329.836" y="32.883">E</tspan> <tspan x="343.61" y="32.883" letter-spacing="-.011">spa</tspan> <tspan x="381.527" y="32.883" letter-spacing=".031"></tspan> <tspan x="395.154" y="32.883" letter-spacing="-.011">a</tspan></text><text font-family="BentonSansBBVA-Light, Benton Sans BBVA" font-size="36" font-weight="300" letter-spacing=".35" fill="#090909" transform="translate(0 -3)"><tspan x="329.386" y="70.366">3</tspan> <tspan x="350.724" y="70.366" letter-spacing="-.053">1</tspan> <tspan x="366.007" y="70.366" letter-spacing=".102">.</tspan> <tspan x="373.489" y="70.366" letter-spacing="1.455">4</tspan> <tspan x="396.184" y="70.366" letter-spacing=".426">5</tspan> <tspan x="417.346" y="70.366" letter-spacing="-.053">1</tspan></text><text font-family="BentonSansBBVA-Bold, Benton Sans BBVA" font-size="22" font-weight="bold" letter-spacing=".113" fill="#090909" transform="translate(0 -3)"><tspan x="114.861" y="29.325">E</tspan> <tspan x="128.614" y="29.325" letter-spacing="-.063">s</tspan> <tspan x="140.079" y="29.325" letter-spacing="-.05">t</tspan> <tspan x="149.402" y="29.325" letter-spacing=".049">a</tspan> <tspan x="162.145" y="29.325" letter-spacing="-.01">d</tspan> <tspan x="175.863" y="29.325" letter-spacing="-.184">o</tspan> <tspan x="188.857" y="29.325" letter-spacing=".034">s</tspan> <tspan x="200.639" y="29.325" letter-spacing="-.01"> U</tspan> <tspan x="222.487" y="29.325" letter-spacing="-.091">ni</tspan> <tspan x="242.368" y="29.325" letter-spacing="-.01">d</tspan> <tspan x="256.086" y="29.325" letter-spacing="-.184">o</tspan> <tspan x="269.081" y="29.325" letter-spacing="-.01">s</tspan></text><text font-family="BentonSansBBVA-Light, Benton Sans BBVA" font-size="36" font-weight="300" letter-spacing=".123" fill="#090909" transform="translate(0 -3)"><tspan x="111.448" y="66.806">1</tspan> <tspan x="126.547" y="66.806" letter-spacing="-.046">0</tspan> <tspan x="148.209" y="66.806" letter-spacing=".865">.</tspan> <tspan x="158.614" y="66.806" letter-spacing="1.714">5</tspan> <tspan x="181.065" y="66.806" letter-spacing="2.276">4</tspan> <tspan x="204.581" y="66.806" letter-spacing="-.046">4</tspan></text><text font-family="BentonSansBBVA-Bold, Benton Sans BBVA" font-size="22" font-weight="bold" letter-spacing=".216" fill="#090909" transform="translate(0 -3)"><tspan x="176.112" y="156.713">M</tspan> <tspan x="196.303" y="156.713" letter-spacing="-.022"></tspan> <tspan x="208.359" y="156.713" letter-spacing=".022">x</tspan> <tspan x="220.437" y="156.713" letter-spacing=".073">i</tspan> <tspan x="226.978" y="156.713" letter-spacing=".268">c</tspan> <tspan x="239.324" y="156.713" letter-spacing="-.022">o</tspan></text><text font-family="BentonSansBBVA-Light, Benton Sans BBVA" font-size="36" font-weight="300" letter-spacing="-.043" fill="#090909" transform="translate(0 -3)"><tspan x="172.699" y="194.195">3</tspan> <tspan x="192.564" y="194.195" letter-spacing="-3.805">7</tspan> <tspan x="203.555" y="194.195" letter-spacing=".969">.</tspan> <tspan x="214.064" y="194.195">3</tspan> <tspan x="233.929" y="194.195" letter-spacing=".223">7</tspan> <tspan x="253.268" y="194.195">8</tspan></text><text font-family="BentonSansBBVA-Bold, Benton Sans BBVA" font-size="22" font-weight="bold" letter-spacing=".035" fill="#090909" transform="translate(0 -3)"><tspan x="249.82" y="329.35">A</tspan> <tspan x="265.541" y="329.35" letter-spacing=".165">m</tspan> <tspan x="299.068" y="329.35" letter-spacing="-.018">ri</tspan> <tspan x="314.806" y="329.35" letter-spacing=".42">c</tspan> <tspan x="327.216" y="329.35" letter-spacing=".202">a</tspan> <tspan x="340.112" y="329.35" letter-spacing="-.018"> </tspan> <tspan x="346.012" y="329.35" letter-spacing=".114">d</tspan> <tspan x="359.854" y="329.35" letter-spacing=".129">e</tspan> <tspan x="372.677" y="329.35" letter-spacing=".202">l</tspan> <tspan x="379.347" y="329.35" letter-spacing="-.018"> </tspan> <tspan x="385.247" y="329.35" letter-spacing=".03">S</tspan> <tspan x="400.501" y="329.35" letter-spacing=".125">u</tspan> <tspan x="414.222" y="329.35" letter-spacing="-.018">r</tspan></text><text font-family="BentonSansBBVA-Light, Benton Sans BBVA" font-size="36" font-weight="300" letter-spacing="1.095" fill="#090909" transform="translate(0 -3)"><tspan x="249.819" y="366.831">3</tspan> <tspan x="271.902" y="366.831" letter-spacing="-.046">0</tspan> <tspan x="293.564" y="366.831" letter-spacing=".865">.</tspan> <tspan x="303.969" y="366.831" letter-spacing="1.714">5</tspan> <tspan x="326.419" y="366.831" letter-spacing="1.416">4</tspan> <tspan x="349.075" y="366.831" letter-spacing="1.322">3</tspan></text><text font-family="BentonSansBBVA-Bold, Benton Sans BBVA" font-size="22" font-weight="bold" letter-spacing="-1.834" fill="#090909" transform="translate(0 -3)"><tspan x="397.748" y="168.742">T</tspan> <tspan x="407.574" y="168.742" letter-spacing=".062">u</tspan> <tspan x="421.232" y="168.742" letter-spacing=".132">r</tspan> <tspan x="430.164" y="168.742" letter-spacing=".095">q</tspan> <tspan x="443.988" y="168.742" letter-spacing="-.015">ua</tspan></text><text font-family="BentonSansBBVA-Light, Benton Sans BBVA" font-size="36" font-weight="300" letter-spacing="-.03" fill="#090909" transform="translate(0 -3)"><tspan x="394.336" y="206.223">23</tspan> <tspan x="435.1" y="206.223" letter-spacing="-.541">.</tspan> <tspan x="442.659" y="206.223" letter-spacing="-.08">6</tspan> <tspan x="463.134" y="206.223" letter-spacing="-.235">7</tspan> <tspan x="482.015" y="206.223">8</tspan></text><g transform="translate(578 -2.74)"><mask id="d" fill="#fff"><use xlink:href="#c"/></mask><text mask="url(#d)" font-family="BentonSansBBVA-Bold, Benton Sans BBVA" font-size="22" font-weight="bold" letter-spacing="-.421" fill="#090909"><tspan x=".81" y="19.479">R</tspan> <tspan x="15.238" y="19.479" letter-spacing="-.012">es</tspan> <tspan x="39.216" y="19.479" letter-spacing="-.177">t</tspan> <tspan x="48.367" y="19.479" letter-spacing=".076">o</tspan> <tspan x="61.841" y="19.479" letter-spacing="-.012"> d</tspan> <tspan x="81.463" y="19.479" letter-spacing=".076">e</tspan> <tspan x="94.233" y="19.479" letter-spacing="-.012"> </tspan> <tspan x="100.139" y="19.479" letter-spacing="-.137">E</tspan> <tspan x="113.708" y="19.479" letter-spacing="-.012">u</tspan> <tspan x="127.292" y="19.479" letter-spacing=".116">r</tspan> <tspan x="136.362" y="19.479" letter-spacing="-.085">a</tspan> <tspan x="148.971" y="19.479" letter-spacing="-.071">s</tspan> <tspan x="160.648" y="19.479" letter-spacing="-.118">i</tspan> <tspan x="166.998" y="19.479" letter-spacing="-.012">a</tspan></text></g><text font-family="BentonSansBBVA-Light, Benton Sans BBVA" font-size="36" font-weight="300" letter-spacing="1.382" fill="#090909" transform="translate(0 -3)"><tspan x="575.396" y="57.221">1</tspan> <tspan x="592.115" y="57.221" letter-spacing="-.094">.</tspan> <tspan x="601.561" y="57.221" letter-spacing="1.609">1</tspan> <tspan x="618.505" y="57.221" letter-spacing="2.779">9</tspan> <tspan x="642.92" y="57.221" letter-spacing="-.094">8</tspan></text><text font-family="BentonSansBBVA-Bold, Benton Sans BBVA" font-size="22" font-weight="bold" letter-spacing="1.4" fill="#00CCCD" transform="translate(0 -3)"><tspan x="627.701" y="310.008">T</tspan> <tspan x="642.741" y="310.008" letter-spacing="1.255">O</tspan> <tspan x="660.54" y="310.008" letter-spacing="-.089">T</tspan> <tspan x="672.727" y="310.008" letter-spacing="1.455">A</tspan> <tspan x="689.869" y="310.008" letter-spacing="-.089">L</tspan></text><text font-family="BentonSansBBVA-Light, Benton Sans BBVA" font-size="36" font-weight="300" letter-spacing=".297" fill="#121212" transform="translate(0 -3)"><tspan x="624.288" y="346.491">1</tspan> <tspan x="639.561" y="346.491" letter-spacing="1.889">3</tspan> <tspan x="662.438" y="346.491" letter-spacing=".899">4</tspan> <tspan x="683.856" y="346.491" letter-spacing="-.059">.</tspan> <tspan x="691.537" y="346.491" letter-spacing="1.032">7</tspan> <tspan x="712.045" y="346.491" letter-spacing=".841">9</tspan> <tspan x="734.162" y="346.491" letter-spacing="-.059">2</tspan></text><path d="M372.648 87.839a2.658 2.658 0 1 1-5.316 0 2.658 2.658 0 0 1 5.316 0m-8.178 1.635a2.658 2.658 0 1 1-5.316 0 2.658 2.658 0 0 1 5.316 0m5.724-7.361a2.658 2.658 0 1 1-5.316 0 2.658 2.658 0 0 1 5.316 0m15.539 19.629a2.658 2.658 0 1 1-5.316 0 2.658 2.658 0 0 1 5.316 0m36.49-4.065a2.658 2.658 0 1 1-5.316 0 2.658 2.658 0 0 1 5.316 0m-42.214-4.932a2.658 2.658 0 1 1-5.316 0 2.658 2.658 0 0 1 5.316 0m8.178-15.538a2.658 2.658 0 1 1-5.316 0 2.658 2.658 0 0 1 5.316 0m-32.714 0a2.658 2.658 0 1 1-5.316 0 2.658 2.658 0 0 1 5.316 0m38.439 50.705a2.658 2.658 0 1 1-5.316 0 2.658 2.658 0 0 1 5.316 0m62.973-76.876a2.658 2.658 0 1 1-5.316 0 2.658 2.658 0 0 1 5.316 0m37.621 112.044a2.658 2.658 0 1 1-5.316 0 2.658 2.658 0 0 1 5.316 0m58.884-8.997a2.658 2.658 0 1 1-5.316 0 2.658 2.658 0 0 1 5.316 0m89.145-42.527a2.658 2.658 0 1 1-5.316 0 2.658 2.658 0 0 1 5.316 0M640.9 163.08a2.658 2.658 0 1 1-5.317 0 2.658 2.658 0 0 1 5.316 0m42.528-35.168a2.658 2.658 0 1 1-5.316 0 2.658 2.658 0 0 1 5.316 0m-8.179 40.075a2.658 2.658 0 1 1-5.315 0 2.658 2.658 0 0 1 5.315 0m31.896-36.803a2.658 2.658 0 1 1-5.316 0 2.658 2.658 0 0 1 5.316 0m-69.516 99.776a2.658 2.658 0 1 1-5.316 0 2.658 2.658 0 0 1 5.316 0m13.085 27.807a2.658 2.658 0 1 1-5.316 0 2.658 2.658 0 0 1 5.316 0m99.958 76.143a2.658 2.658 0 1 1-5.316 0 2.658 2.658 0 0 1 5.316 0m-506.424-47.519a2.658 2.658 0 1 1-5.316 0 2.658 2.658 0 0 1 5.316 0m-57.635 0a2.658 2.658 0 1 1-5.316 0 2.658 2.658 0 0 1 5.316 0" fill="#00CCCD"/></g></svg>