<?xml version="1.0" encoding="utf-8"?>
<!-- Generator: Adobe Illustrator 21.0.0, SVG Export Plug-In . SVG Version: 6.00 Build 0)  -->
<!DOCTYPE svg PUBLIC "-//W3C//DTD SVG 1.1//EN" "http://www.w3.org/Graphics/SVG/1.1/DTD/svg11.dtd">
<svg version="1.1" id="Capa_1" xmlns="http://www.w3.org/2000/svg" xmlns:xlink="http://www.w3.org/1999/xlink" x="0px" y="0px"
	 viewBox="0 0 812 406" style="enable-background:new 0 0 812 406;" xml:space="preserve">
<style type="text/css">
	.st0{fill:#F3F3F3;stroke:#FFFFFF;stroke-miterlimit:10;}
	.st1{fill:#00CCCD;stroke:#FFFFFF;stroke-width:0.5;stroke-miterlimit:10;}
	.st2{fill:#0A0A0A;}
	.st3{fill:#00CCCD;}
	.st4{fill:#121212;}
</style>
<title>map-empleados-eng</title>
<g id="cab">
	<polygon class="st0" points="721.7,366.2 723.7,369.8 731.1,365.5 731.1,362.7 723.7,362.7 	"/>
	<path class="st0" d="M766.2,377.6l26.2-15.1v5l-21.9,12.6L766.2,377.6z M808.1,353.2v-7.4l-2.9-1.7v9.1l-2.5,4.3h-3.6v6.3h3.9
		l3.6-6.3h4l2.5-4.3L808.1,353.2z"/>
	<polygon class="st0" points="343.2,74.3 343.2,77.1 340,78.9 340,81.2 344.3,81.2 348.6,78.7 348.6,76.2 344.2,73.7 	"/>
	<rect x="179.9" y="181.9" class="st0" width="4.2" height="1.3"/>
	<rect x="444.5" y="130.8" class="st0" width="4.1" height="1.5"/>
	<rect x="651.3" y="177.9" class="st0" width="3.7" height="3.7"/>
	<rect x="680" y="161.2" class="st0" width="3.1" height="9.2"/>
	<path class="st0" d="M715.9,132.5h-12.8l-4.3,2.5l3.2,1.8v5.7h-2.4v-4.2l-2.5-1.4v-3.5l7.2-4.1h5.6v-2.5l5.5-3.2v-5l-3.5-6l4.8,2.8
		l3.7,6.4v8.3L715.9,132.5L715.9,132.5z M720.8,109.2l-2.8-4.8h-5l-2.2-3.9h-3.2l5,8.7L720.8,109.2z M703.8,136.8h3.9v-2.2h-3.9
		V136.8z"/>
	<path class="st0" d="M758.6,258.7l6,10.5h-4.5l-4.1-7.1h-7.5v3.6H744v-17.4h5l7,4.1v3.1h3.7l1.9,3.3L758.6,258.7z M773.2,255.4
		h-7.7v2h7.7V255.4z"/>
	<polygon class="st0" points="336.6,42.9 332.3,40.4 330.1,41.6 325.1,41.6 322.5,43.2 322.5,40.5 318.5,40.5 318.5,44.1 
		320.8,44.1 320.8,47.4 328.8,47.4 	"/>
	<polygon class="st0" points="681.9,118.1 685.3,112.2 685.3,107.2 678.8,110.5 676.3,110.5 673,116.4 677.9,116.4 677.9,122.7 
		682.1,122.7 686.1,120.6 	"/>
	<polygon class="st0" points="686.1,120.6 682.1,122.7 685.8,129.1 685.8,132.5 691.2,129.4 	"/>
	<path class="st0" d="M391,69.6l-1.2,2h-1.5v-3.1h2.7V69.6z M386.5,64.9l-4.3,2.5v3.2h4.3V64.9z"/>
	<polygon class="st0" points="585.2,101.2 589.6,101.2 601.6,108.1 613.9,108.1 619.3,111.2 624.5,111.2 628.1,109.1 634.4,109.1 
		636.5,105.6 636.5,101.3 641.3,101.3 644.8,99.3 644.8,96.8 651.8,96.8 651.8,94.4 648.3,92.3 639.3,92.3 639.2,92.3 639.2,86.5 
		639.2,86.5 630.5,86.5 626.7,88.7 621.4,88.7 615.9,85.6 605.9,85.6 597.6,80.8 592.3,80.8 594.4,84.4 594.4,86.8 589.3,86.8 
		583.8,83.7 577.3,83.7 569,88.5 582.2,96.1 	"/>
	<polygon class="st0" points="467.4,132.2 461.5,135.6 461.5,140.3 479.2,150.5 482.5,150.5 482.5,147.5 485.1,147.5 485.1,139.2 
		479.5,135.9 479.5,128.7 473.5,125.2 467.4,125.2 	"/>
	<polygon class="st0" points="398.9,223.9 398.9,220.4 402,214.9 397.7,212.3 397.7,210.3 401.5,210.3 399.1,206.1 399.1,201.2 
		395.4,203.3 395.4,208.6 390.2,217.7 390.1,217.6 387.3,216 383.8,222.1 383.8,224.9 386.8,224.9 386.8,229.9 386.8,229.9 
		389.5,231.5 390.8,231.5 395.5,231.5 403.3,231.5 	"/>
	<polygon class="st0" points="574.9,146.1 571.2,146.1 571.2,151.2 578.4,155.4 584.2,155.4 587.3,157.2 592.7,157.2 592.7,152.8 
		586.5,152.8 	"/>
	<polygon class="st0" points="642.6,206.7 650.3,202.3 650.3,193.2 646.4,186.4 638.4,181.8 640.2,178.8 640.2,176.3 631.9,171.5 
		628.2,173.7 626.7,174.6 629.6,179.9 629.6,179.9 631.5,179.9 631.5,184.7 638.5,184.7 644.6,188.3 644.6,194.4 638,194.4 
		638,199.8 639.6,200.8 639.6,205 	"/>
	<path class="st0" d="M677.2,225h2.8v15.2l-4.3,2.5v7.5h-4.3l-2.3-3.9h-9.4v-5l-3.8-6.5l2.5-1.5l3.9,2.3h2.4l3.1-1.8h4.2L677.2,225z
		 M723.1,244.4v-3.7l-3.4-2l-4.3,2.5l2.6,1.5v1.7L723.1,244.4z M694.9,240.5h-3l-3,1.7l-3-1.7l-2.5,4.3v5l3.2,5.5v-7.2l2-1.1
		l2.5,4.3h3l-3.6-6.2l4.3-2.5L694.9,240.5z M724,255.5v2.7h1.3v-2.7H724z M699.7,266.8l-0.7-1.1l-4.6,2.6l0.7,1.1L699.7,266.8z
		 M735.8,243.4l-7.7,4.5l-3.6-2.1l-3.3,1.9l9.3,5.4h3.8l3.2,5.5l-2.5,4.4h6.1v2.6h2.8v-17.4L735.8,243.4z M691.7,266.2v-1.9h-10.1
		l3.3,1.9H691.7z M715.4,246.8h-7.8v1.9h7.8V246.8z M700.2,234.2h-10.1v1.8h10.1V234.2z M707.6,237.7h2.1v-6.5h-2.1V237.7z
		 M664.5,264.3h11.6l-3.5-2h-3.8l-4.3-2.5h-7.8l-4.3-2.5l-4.3,2.5l1.5,2.7h11.7L664.5,264.3z M641.6,242.3v-4l-10.2-5.9l-5.6-9.7
		h-6.3v1.1l4.3,2.5l6.8,11.8l2.2,1.2l9.5,16.4h4.7v-10.3L641.6,242.3z"/>
	<path class="st0" d="M681,225h-3.8l-5.1,8.7h-4.2l-3.1,1.8h-2.4l-3.9-2.3l5.3-3.1h3.6l1.9-3.3h2.8v-2.6h1.9l3.5-6.1l5.6,3.2
		L681,225z M632.8,221.2l1.1,1.9v3l2.5,4.3l6.8,4v-4l-2.1-1.3v-5l-2.5-4.3l-2.6,1.5L632.8,221.2z"/>
	<polygon class="st0" points="390.8,231.5 389.5,231.5 386.8,229.9 384.3,234.2 390.8,234.2 	"/>
	<polygon class="st0" points="454.2,138.5 452.1,138.5 449.5,143 452.4,147.9 454.2,144.8 	"/>
	<polygon class="st0" points="612.8,149 606.9,149 602.6,156.5 595.1,156.5 595.1,152.8 592.7,152.8 592.7,157.2 587.3,157.2 
		584.2,155.4 578.4,155.4 571.2,151.2 571.2,146.1 565.9,143 565.9,138.3 563.8,134.8 563.1,133.5 561.2,130.3 557.3,130.3 
		557.3,132.8 551.5,132.8 551.5,135.2 555.1,141.5 548.1,153.5 544.5,153.5 543.3,155.7 548.4,158.6 548.4,164.3 544.1,166.9 
		548,173.7 553.6,170.5 556.1,174.8 556.1,187.7 567.8,208.1 567.8,213.1 567.8,213.1 570.3,213.1 575.7,203.9 575.7,190.1 
		583.6,185.5 592.3,170.5 597.1,170.5 594.9,166.7 594.9,160.1 597,158.9 598.2,161 605.2,161 605.2,163.4 604,165.5 607,170.8 
		610.8,164.2 610.8,157.6 612,155.5 614.4,155.5 616.8,151.3 	"/>
	<polygon class="st0" points="485.1,147.5 482.5,147.5 482.5,150.5 486.8,150.5 	"/>
	<polygon class="st0" points="426.8,171.5 426.8,175.2 424.1,175.2 424.1,179.3 424.1,190.3 421.6,190.3 418.5,195.9 421.8,201.6 
		421.8,204.7 425.2,210.6 430.5,207.6 433.5,207.6 434.7,209.7 439.8,206.7 439.8,204.3 444.4,201.6 444.4,207 446.9,207 449,205.8 
		452.4,205.8 457.7,196.6 457.7,189.4 459.5,186.2 462.7,184.4 459.1,178.2 459.1,174 456.1,168.7 451.3,171.5 	"/>
	<polygon class="st0" points="470.9,197.1 473.5,201.8 475.8,200.5 472.5,194.7 466.7,191.4 462.7,184.4 459.5,186.2 457.7,189.4 
		457.7,194.4 466.1,194.4 	"/>
	<polygon class="st0" points="473.5,204.8 475.8,206.1 478.2,204.7 475.8,200.5 473.5,201.8 	"/>
	<polygon class="st0" points="623.5,187.7 623.5,192.7 626.8,198.5 626.8,189.8 624.9,186.5 621.9,184.7 621.9,177.5 628.2,173.7 
		623.2,165.1 618.7,165.1 618.7,161.5 621.5,159.9 621.6,154 616.8,151.3 614.4,155.5 612,155.5 610.8,157.6 610.8,164.2 607,170.8 
		605.9,172.8 609.4,178.9 609.4,178.9 611.9,178.9 614.4,183.2 614.4,190.1 614.4,190.1 617.7,190.1 620.2,185.8 	"/>
	<polygon class="st0" points="470.2,229.6 471.6,227.2 462.3,227.2 457.3,224.4 452.5,224.4 452.5,226.8 455.2,231.5 452.5,236.1 
		452.5,237.7 452.6,237.7 452.6,242.2 462.8,248.1 462.8,250.3 466.1,252.3 471.6,242.9 470.2,240.5 	"/>
	<polygon class="st0" points="418.7,320.3 420.9,316.4 427.8,316.4 432.6,308 436.3,305.9 428.7,292.9 425.2,292.9 423.8,295.3 
		415.9,295.3 415.9,305.4 412.8,305.4 412.8,314.3 416.2,320.3 	"/>
	<path class="st0" d="M443.2,319.4v2h-2.7v-4.1h2.7v-11.4h-7l-3.6,2.1l-4.9,8.4h-6.8l-2.3,3.9h-2.4l-3.5-6.1v10.6H406l-2.3,1.3
		l5,8.6v5l2.5,4.3l4.3-2.5h12.9l9.5-5.5l8-13.8v-2.9L443.2,319.4z M435.1,332l-4.4-2.5l2.6-4.5h2.4l1.7,3L435.1,332z"/>
	<polygon class="st0" points="391.5,253.9 392.7,255.9 394.2,255.9 394.2,253.9 396.2,252.8 394.9,252 	"/>
	<path class="st0" d="M360,211.9v-7.7h-8v11l-1.2,2.1v4.2h7.6l2.8-1.6v-5.9L360,211.9z"/>
	<path class="st0" d="M363.8,209.4l-1.2-2.1v-3.2H360v7.7l1.2,2v5.9l2.6-1.5L363.8,209.4z"/>
	<polygon class="st0" points="316,197.2 322.4,197.2 322.4,195.7 315.2,195.7 	"/>
	<polygon class="st0" points="335.7,218.2 335.7,215.9 330.4,212.9 327.9,217.3 339.4,223.9 339.4,220.4 	"/>
	<polygon class="st0" points="323.2,199.8 317.5,199.8 319.7,203.5 323.2,201.5 	"/>
	<polygon class="st0" points="328.8,207.9 325.2,207.9 322.9,209.2 324.1,211.3 324.1,215.1 327.9,217.3 330.4,212.9 330.4,210.7 	
		"/>
	<polygon class="st0" points="386.1,97.7 386.1,96.1 386.1,94.2 378.6,94.2 376.5,97.7 378.7,99 379.1,99.8 382.7,97.7 	"/>
	<path class="st0" d="M382.9,114.3l2.3-1.3v5.2l-2.3,1.3V114.3z M391.9,122.6l6.3,3.6v-3.6H391.9z M406.4,115.3l-10.7-6.2l-4.6-8.1
		l3-1.8v-3.2h-8.1v1.6h-3.4l-3.6,2.1l2.5,4.3h5.8l3.8,6.7l9.4,5.4v6l1.9-1.1v-5.8L406.4,115.3z"/>
	<polygon class="st0" points="418.5,105.2 418.5,109.6 418.5,111.4 428.3,111.4 428.3,109.6 431.7,109.6 431.7,106.8 431.7,106.8 
		428.9,105.2 	"/>
	<path class="st0" d="M391.9,47.7l3-1.7l3.4-5.9h1.9l2.7-4.8h3.1l3.3-1.9h3.6v-0.1v0.1h10.6l4.6-2.7h-22L396,36.7l-4,6.8l-15.4,8.9
		v5l2.5,4.3h2.7l8.2-4.8l1.9-3.3L391.9,47.7z"/>
	<path class="st1" d="M456.1,125.2l-3,1.7l-1.1-1.9l-4.3,2.5h-15.4l-3.9-6.8v-5.7h4.1v-2.2h7.7l3.8-2.2h5l4.3,2.5h17.4v2.4l1.3,2.2
		l1.6,2.8v4.6H456.1z M428.3,109.6v4.1h0.1l3.2-1.9v-2.2H428.3z"/>
	<path class="st0" d="M325.8,194.7l1.9-3.2h17.6V189l-2-3.4v-23.1h4l-10.2-5.9v2.4H328v7.6l-3.4,1.9v4.4h-8.9v14.9h6.1L325.8,194.7z
		"/>
	<path class="st0" d="M391.7,167.6L391.7,167.6l-20.5,11.8v13.2h-11.6v2.7l6.2,3.6v3.3l3.4,1.9l2.1-3.7V196h3.7l4.2,2.4h6.7l2.1-1.2
		h8.6v-3.4l5.4-9.4V175l-1.8-3.1v-2.4h-5.6L391.7,167.6z"/>
	<polygon class="st0" points="425.1,142.3 418.5,138.5 413.2,138.5 413.2,144.8 410.7,146.2 406.4,143.7 401.4,143.7 398.5,138.7 
		388.6,138.7 388.6,141.2 386.1,145.5 386.1,156.6 383.8,160.8 391.7,165.4 391.7,167.6 394.7,169.4 400.2,169.4 403.6,167.4 
		424.1,179.3 424.1,175.2 426.8,175.2 426.8,171.5 426.8,145.5 428.6,142.3 	"/>
	<polygon class="st0" points="380.6,135.9 386.1,145.5 388.6,141.2 388.6,138.7 388.5,138.7 386,134.4 388.5,130.1 386,125.8 
		382.3,125.8 382.3,133 	"/>
	<path class="st0" d="M357.4,192.7h13.8v-13.2l-6.7-3.9v-3.2l-17.1-9.9h-4v23.1l2,3.4v2.4h-17.7l-1.9,3.2l1.5,2.7v2.4l2.1,1.2h5.6
		l2.9,5.1h6.7v-6L357.4,192.7z"/>
	<polygon class="st0" points="442.9,227.2 442.9,233.3 439.4,239.4 439.4,241.9 442.9,241.9 446.3,241.9 446.3,237.7 452.5,237.7 
		452.5,236.1 455.2,231.5 452.5,226.8 452.5,224.4 447.5,227.2 	"/>
	<polygon class="st0" points="323.6,154.5 315.7,168 315.7,173 324.6,173 324.6,168.6 328,166.7 328,159 337.1,159 337.1,156.6 
		337.1,153.6 325.1,153.6 	"/>
	<polygon class="st1" points="344,120.3 344,110.8 339.3,110.8 339.3,125.4 342.5,125.4 342.5,121 	"/>
	<path class="st1" d="M321,149.5v-1.3h2.7v1.3H321z M317.1,151.8h2.7v-1.3h-2.7V151.8z M368.8,117.6h-2.7v1.3h2.7V117.6z
		 M358.8,107.6l-2.1-1.2h-17.4v4.3h4.6v9.5l-1.4,0.7v4.3l3.2,1.8l4.3-2.5h6.7l7-12.2l4.3-2.5l-4.1-2.4L358.8,107.6z"/>
	<polygon class="st0" points="400.2,96.1 404.1,98.3 411.6,98.3 415.1,92.2 402.6,92.2 	"/>
	<path class="st0" d="M423.6,36.3v-2.8H413l1.2,2v5.4h0.1l6.2,3.6l-10.3,5.9l3.1,5.3H427l3.9-6.7L423.6,36.3z"/>
	<polygon class="st0" points="414.1,113.9 418.5,111.4 418.5,109.6 414.1,109.6 	"/>
	<polygon class="st0" points="371.4,84.4 376.5,87.4 377.5,85.8 377.5,82.5 373.7,80.3 	"/>
	<polygon class="st0" points="419,82.8 420.2,80.7 420.2,75.7 416.3,73.5 411.6,73.5 403.6,73.5 400.7,75.2 397,75.2 397,82.8 
		406.1,88.4 415.1,88.4 420.4,85.3 	"/>
	
		<rect x="376.8" y="86.2" transform="matrix(0.4998 -0.8661 0.8661 0.4998 113.5873 370.646)" class="st0" width="1.9" height="1.6"/>
	<polygon class="st0" points="406.1,88.4 397,82.8 391,86.3 393.3,90.4 402.6,90.4 	"/>
	<polygon class="st0" points="394.2,99.2 398.5,99.2 400.2,96.1 394.2,96.1 	"/>
	<polygon class="st0" points="403.3,101.5 407.7,109.2 408,109.3 409.4,106.8 409.4,101.5 	"/>
	<polygon class="st0" points="471.9,117.8 473.5,120.7 475.6,120.7 475.6,117.8 	"/>
	<polygon class="st0" points="440.5,321.4 443.2,321.4 443.2,319.4 443.2,317.3 440.5,317.3 	"/>
	<polygon class="st0" points="175.9,183.2 173,178.2 168.4,178.2 168.4,183.2 	"/>
	<polygon class="st0" points="168.4,178.2 166,178.2 166,181.4 160.9,181.4 160.9,183.2 168.4,183.2 	"/>
	<polygon class="st0" points="120,197.5 124.1,199.8 125.6,197.1 121.5,194.8 	"/>
	<polygon class="st0" points="121.5,192.8 122.9,190.4 120.4,190.4 119.5,190.4 119.5,184.8 114.4,184.8 114.4,187.3 116.5,188.5 
		116.5,189.7 110.7,189.7 110.7,194.8 110.7,194.8 115.5,194.8 120,197.5 121.5,194.8 	"/>
	<path class="st1" d="M209.5,332.5l1.9-3.3l0,0l6.7-11.6v-4h-2.6v3.6l-2.7,4.6h-7.1V313l-12.9-7.6h-11v4.9l-3.4,2v22.2l2.8,4.9v21
		l3.8,6.5V379l7.9,13.8h5.6l5.9-10.2l-7.1-4.1l3.1-1.8v-13.5h4.8v-5l10.8-6.2v-4l-2.5-4.3l-3.9-2.2L209.5,332.5z"/>
	<polygon class="st0" points="181.9,305.5 192.9,305.5 192.9,297.4 204.2,297.4 205.7,294.8 203.1,290.2 203.1,287.7 196.6,287.7 
		196.6,279.4 192.1,279.4 182.1,273.7 182.1,268.3 179.7,268.3 174,271.6 174,291.9 	"/>
	<polygon class="st0" points="132.4,203.5 127,203.5 127,206.5 135.2,211.2 135.2,208.1 132.4,206.5 	"/>
	<polygon class="st0" points="204.9,402.2 204.9,402.2 208.9,404.5 213.8,404.5 201,397.1 201,402.2 	"/>
	<polygon class="st1" points="160.5,209.8 162.5,213.3 162.5,216.9 166.4,216.9 170.6,219.3 175.4,219.3 175.4,232.3 177.6,236.2 
		179.9,236.2 186,232.7 183.5,228.4 183.5,225 185.9,225 189,226.8 192.2,224.8 192.2,213.6 194.1,212.4 190.7,206.5 185.7,206.5 
		181.4,209 172.2,203.6 172.2,203.6 166.5,203.6 166.5,210.6 164.6,210.6 164.6,205.7 162.8,205.7 	"/>
	<path class="st1" d="M211.4,329.2l-1.9,3.3v8.9l3.9,2.2h8.1l2.3-3.9v-3.4L211.4,329.2z"/>
	<polygon class="st0" points="196.5,232.3 197.7,234.4 201.6,232.1 205.1,232.1 201.7,226.3 205.1,220.4 202.3,220.4 197.6,212.4 
		194.1,212.4 192.2,213.6 192.2,222.6 196.5,222.6 	"/>
	<polygon class="st0" points="205.1,232.1 210.8,232.1 210.8,220.4 205.1,220.4 201.7,226.3 	"/>
	<polygon class="st1" points="159.8,245.6 166.9,245.6 166.9,250.8 169.2,250.8 169.2,232.3 175.4,232.3 175.4,219.3 170.6,219.3 
		166.4,216.9 162.5,216.9 162.5,213.3 160.5,209.8 162.8,205.7 164.6,205.7 164.6,203.6 159.1,203.6 154.8,206.1 154.8,209.4 
		150.5,211.9 148.2,210.6 148.2,213.7 148.2,231.9 145.8,233.3 156.2,239.4 	"/>
	<polygon class="st0" points="119.5,184.8 119.5,190.4 120.4,190.4 122.9,186.1 122.9,182.6 120.7,182.6 	"/>
	<rect x="222.2" y="394.1" class="st0" width="4.2" height="2"/>
	<polygon class="st0" points="452.4,147.9 454.2,144.8 454.2,138.5 456.4,138.5 461.5,135.6 461.5,140.3 458.1,140.3 460.4,144.2 
		458.2,147.9 	"/>
	<path class="st0" d="M510.1,164l-2.8,4.8v6.6l-8.1,4.7l4.2,7.3l10.6-6.1v-5l4.3-2.5v-5L510.1,164z"/>
	<polygon class="st0" points="496.6,160.2 494.5,161.4 494.5,163.8 496.6,163.8 	"/>
	<path class="st0" d="M495.6,182.1h-5.2l-3,5.2h-12l0.2,0.3v7.2l2.5,4.3l4.3-2.5h5l16.1-9.3l-4.3-7.3L495.6,182.1z"/>
	<polygon class="st0" points="567.8,130.1 564.7,128.3 561.2,130.3 563.1,133.5 563.8,134.8 567.8,132.6 	"/>
	<polygon class="st0" points="409.4,106.8 408,109.3 408,109.3 411.6,111.4 411.6,108.1 	"/>
	<polygon class="st0" points="546.1,106.1 542.1,108.4 537,108.4 537,110.1 539.1,111.3 535.7,113.3 543.6,113.3 541.6,116.8 
		539.2,116.8 536.1,118.5 536.1,119.5 547.2,119.5 547.2,116.2 552.7,113 556.6,113 561.2,110.3 561.2,107.3 548.2,107.3 	"/>
	<polygon class="st0" points="496.8,107.4 493.2,107.4 493.2,113 498.8,122.8 500.5,121.8 508.7,121.8 517.6,127 517.6,131.3 
		529.8,124.3 529.8,121.9 515.5,113.6 512.4,113.6 512.5,111.2 507.3,108.2 504.6,112.8 502.3,112.8 500,112.8 	"/>
	<path class="st0" d="M569,88.5l-8.5-5h-11.2l-2.5-4.3l-9.1-5.2l-2.8,1.6h-4.3l-7.5-4.3h-8.7l-5.3,3.1h-5.6v2.4l2.9,5v2.4l-15.3,0.1
		l-4.2-2.4h-5.2l-7.3,4.3v5.2l6.2,3.6c0,0,0,2.1,0,2.3l3.8-2.2h6.9l0,0v4.4l-4.7,2.7l2.9,5h7.5l3.2,5.4h2.3v-9.9l5.8-3.3l6.2,3.6
		l1.8,3.1h7.5l3.9,6.7h4.7l4.8-2.8v-1.7h5.2l4-2.3l2.1,1.2h13v-2.4l-0.1-0.2l-2-3.5h2.4L569,88.5z M554,97.4h-8.8l-2,1.2v2.8h-2.6
		v-3.5L544,96h10V97.4z"/>
	<polygon class="st0" points="484.4,119.5 484.4,115.4 481.7,110.8 479.5,112.1 476.1,110.2 476.1,113.2 476.1,113.2 479,118.2 
		479,118.2 482.5,116.2 	"/>
	<polygon class="st0" points="549.7,123.8 549.7,125.9 544.8,125.9 542.7,127.2 542.7,133.7 540.3,135.1 540.3,141.9 533.6,145.8 
		533.6,149 518.8,149 521.9,143.7 517.6,141.2 517.6,131.3 529.8,124.3 537.5,124.3 539,121.6 542.7,121.6 542.7,125.1 544.8,123.8 
			"/>
	<polygon class="st0" points="446.3,241.9 446.3,246.5 450.1,246.5 452.6,242.2 452.6,237.7 452.5,237.7 446.3,237.7 	"/>
	<polygon class="st0" points="177.1,14.1 161.1,14.1 156.8,16.6 172.8,16.6 	"/>
	<polygon class="st0" points="402.3,10.7 402.3,10.7 405.9,10.7 410.2,8.2 410.2,6.6 400.7,6.6 397.7,8.4 387.4,8.4 396.9,13.8 	"/>
	<polygon class="st0" points="160.9,177.2 144.6,167.8 140.4,167.8 134.2,171.3 144.8,171.3 155,177.2 	"/>
	<polygon class="st0" points="758.6,299.7 752.5,296.2 752.5,289.1 747.4,280.3 747.4,272.3 745.3,272.3 742.8,276.6 742.8,284.6 
		738.2,292.6 723.7,284.1 728.6,275.7 714.1,275.7 708.9,284.7 703.2,281.5 688.3,290.1 688.3,295 677.2,301.5 667.3,301.5 
		661.4,311.8 661.4,338.2 657.1,340.7 657.1,344.4 664.7,344.4 670.9,340.8 680.1,340.8 692.7,333.5 706.5,333.5 711.3,341.9 
		718.1,337.9 718.1,355.1 718.1,355.1 738.2,355.1 743.1,346.7 753.5,340.7 764.6,321.4 764.6,316.5 758.6,306 	"/>
	<polygon class="st0" points="672.1,224.3 670.8,224.3 669.3,226.9 672.1,226.9 	"/>
	<polygon class="st0" points="488,283.8 479.3,288.8 479.3,299.6 475.9,305.4 475.9,311.1 478.4,315.4 483.3,315.4 488.8,306 
		488.8,301.1 491.8,295.8 491.8,290.8 495.3,284.7 495.3,279.8 492.8,275.5 	"/>
	<path class="st0" d="M356.2,74.9l-5.3-9.2l2.5-4.3l6.5,3.7l-2.2,3.8l3.9,6.8h2.7l2.3,4.1l-2.7,3.5h-9.6l-4.3,2.5L356.2,74.9z
		 M347.5,71.9l-3.3,1.9l4.4,2.5l1.6-2.8L347.5,71.9z"/>
	<polygon class="st0" points="222.1,93.1 232.3,93.1 235.5,87.5 225.3,87.5 	"/>
	<polygon class="st0" points="186.6,47.8 192.3,47.8 194.1,44.6 188.4,44.6 	"/>
	<polygon class="st0" points="215.8,35 211.9,35 210.6,37.2 214.5,37.2 	"/>
	<polygon class="st0" points="195.9,8.8 188.7,8.8 187.5,10.9 194.7,10.9 	"/>
	<polygon class="st0" points="194.2,22.1 198.5,19.6 190.2,19.6 187.3,24.6 191.6,22.1 	"/>
	<polygon class="st0" points="217,10.7 215.1,14.1 192.1,14.1 196.4,16.5 222.1,16.5 241.3,5.4 257.1,5.4 264.1,1.4 236,1.4 
		231.7,3.9 220.4,3.9 216.1,6.4 205.3,6.4 207.8,10.7 	"/>
	<polygon class="st0" points="323.8,32 325.5,29.1 321,21.3 328.6,21.3 332.3,15 329.8,10.7 335.5,7.4 341.9,7.4 341.9,7.4 
		347.6,4.1 326.8,4.1 322.5,1.6 295.4,1.6 293.3,5.1 266.6,5.1 255,11.9 244.6,11.9 247,16.2 262.9,16.2 262.9,16.2 262.9,23.5 
		267.5,31.4 258.7,36.5 258.7,52.6 270.6,59.3 281,41.3 296.9,41.3 296.9,41.3 300.2,35.5 309.2,35.5 311.2,32 323.8,32 	"/>
	<polygon class="st0" points="236,43.4 241.7,40.1 231.3,34.1 231.3,29.1 218.2,21.5 218.2,25.3 211.4,21.4 201.6,21.4 195.5,24.9 
		195.5,29.9 217.2,29.9 221.7,37.6 213.2,42.5 213.2,42.5 205.3,42.5 204,44.8 213.2,44.8 216.3,50.2 221.3,50.2 223.4,53.8 
		223.4,53.8 226.1,53.8 223,48.5 228,48.5 230.5,47.1 227,41.1 231.9,41.1 	"/>
	<polygon class="st0" points="172.2,23.2 174.7,27.5 185.4,21.4 178.7,21.4 175.6,23.2 	"/>
	<rect x="149.6" y="181.4" class="st0" width="5" height="1.8"/>
	<rect x="171.9" y="32" class="st0" width="3.5" height="2.1"/>
	<path class="st0" d="M576.5,210.3v8.7h4.7v-2.9l-3.4-5.8L576.5,210.3z"/>
	<path class="st0" d="M689.2,187l-2.5,4.3l2.5,4.3H686l-2.5-4.3v-9.1h3L689.2,187z M703.4,212.5l-1.9-3.3l-5.7,3.3h-4.1v2.5h5v3.6
		l2.4,1.4l4.3-2.5L703.4,212.5z M686,201.1h1.3v-2.7H686V201.1z M677.9,212.1l5-2.9l-0.7-1.1l-5,2.9L677.9,212.1z M693.5,196.8v4.5
		h1.7v-4.5H693.5z M693.5,204.1h-3.4v4.1h3.4V204.1z"/>
	<rect x="373.7" y="238.7" class="st0" width="2.8" height="2.8"/>
	<polygon class="st0" points="369.2,206.6 369.2,204.2 365.8,202.2 362.5,204.1 362.5,207.3 363.8,209.4 363.8,218.3 366.5,218.3 
		366.5,211.3 	"/>
	<path class="st0" d="M387.3,216l2.8,1.6h0.1l5.2-9.1v-5.2l3.7-2.1l-2.3-4H388l-2.1,1.2h-6.7L375,196h-3.7v4.5l-2.1,3.7v2.4
		l-2.7,4.6v7h5l3.8,6.6h8.4v-2.8L387.3,216z"/>
	<polygon class="st0" points="632.6,196.7 638,199.8 638,194.4 644.6,194.4 644.6,188.3 638.5,184.7 631.5,184.7 631.5,179.9 
		629.6,179.9 629.6,179.9 626.7,174.6 621.9,177.5 621.9,184.7 624.9,186.5 626.8,189.8 626.8,198.5 626.8,210.9 632.8,221.2 
		636,221.2 638.6,219.7 633.3,216.7 629.5,210.1 629.5,198.5 	"/>
	<polygon class="st0" points="456.7,134.2 456.7,133 454.5,133 454.5,134.4 452.1,138.5 454.2,138.5 	"/>
	<polygon class="st0" points="449.5,143 439.3,143 436.1,144.8 431.8,142.3 428.6,142.3 426.8,145.5 426.8,171.5 451.3,171.5 
		456.1,168.7 445.5,150.4 445.5,145.4 449.8,152.9 452.4,147.9 449.5,143 	"/>
	<polygon class="st0" points="456.7,134.2 454.2,138.5 456.4,138.5 461.5,135.6 467.4,132.2 467.4,125.2 456.1,125.2 453.1,127 
		454.5,129.4 454.5,133 456.7,133 	"/>
	<polygon class="st0" points="484.8,213.6 477.8,209.5 475.8,206.1 473.5,204.8 473.5,201.8 470.9,197.1 466.1,194.4 457.7,194.4 
		457.7,196.6 452.4,205.8 452.4,211.4 448.1,213.8 452.7,216.5 457.3,224.4 462.3,227.2 471.6,227.2 475.6,224.9 482.5,224.9 
		489.1,213.6 	"/>
	<path class="st0" d="M350.1,141.9v1.7l-13,7.5v5.5l10.2,5.9l0,0l17.1,9.9v3.2l6.7,3.9l20.5-11.8v-2.3l-8-4.6l2.4-4.2v-11.1
		l-5.6-9.6l1.7-2.9v-7.2h-14.8l-10.2,5.9v6.1L350.1,141.9z"/>
	<polygon class="st0" points="492.1,202.4 484.5,206.8 479.5,206.8 478.2,204.7 475.8,206.1 477.8,209.5 484.8,213.6 489.1,213.6 
		482.5,224.9 475.6,224.9 471.6,227.2 470.2,229.6 470.2,240.5 471.6,242.9 476.4,234.5 487.5,228.1 497,211.5 497,202.4 	"/>
	<polygon class="st0" points="411.2,293.4 420.7,293.4 424.3,291.4 419.1,288.4 419.1,278.1 424.5,278.1 424.5,272.2 419.1,272.2 
		419.1,261.8 417.9,259.7 412.1,259.7 412.1,262.9 406.6,262.9 402.6,256 397.3,256 393.9,258 396.4,262.3 396.4,275.2 391.5,283.8 
		391.5,290.9 406.8,290.9 	"/>
	<polygon class="st0" points="427.9,291.4 424.3,291.4 420.7,293.4 411.2,293.4 406.8,290.9 391.5,290.9 391.5,293.5 398.7,306.1 
		398.7,317.6 403.7,326.2 406,324.9 412.8,324.9 412.8,305.4 415.9,305.4 415.9,295.3 423.8,295.3 425.2,292.9 428.7,292.9 	"/>
	<polygon class="st0" points="391.7,245.3 398.6,245.3 398.6,240.9 397.4,238.7 398.6,236.6 398.6,234.2 395.5,234.2 395.5,231.5 
		390.8,231.5 390.8,234.2 384.3,234.2 384.3,241.4 389.5,250.4 391.7,249.1 	"/>
	<path class="st0" d="M405.8,227.2l-2.5,4.3h-7.7v2.7h3.1v2.4l-1.2,2.1l1.2,2.1v4.4h-6.9v3.7l-2.2,1.3l2,3.5l3.4-1.9l1.4,0.8h2.9
		l4.1-2.4V244l4.4-2.5v-8.2l1.7-2.9v-3.3L405.8,227.2z"/>
	<polygon class="st0" points="628.2,173.7 623.2,165.1 618.7,165.1 618.7,161.5 621.5,159.9 621.6,154 616.8,151.3 612.8,149 
		606.9,149 602.6,156.5 595.1,156.5 595.1,152.8 592.7,152.8 586.5,152.8 574.9,146.1 571.2,146.1 565.9,143 565.9,138.3 
		563.8,134.8 567.8,132.6 567.8,130.1 564.7,128.3 561.2,130.3 557.3,130.3 549.7,125.9 549.7,123.8 547.2,119.5 547.2,116.2 
		552.7,113 556.6,113 561.2,110.3 561.2,107.3 561.2,104.9 561.2,104.7 559.2,101.3 561.6,101.3 569,88.5 582.2,96.1 585.2,101.2 
		589.6,101.2 601.6,108.1 613.9,108.1 619.3,111.2 624.5,111.2 628.1,109.1 634.4,109.1 636.5,105.6 636.5,101.3 641.3,101.3 
		644.8,99.3 644.8,96.8 651.8,96.8 651.8,94.4 648.3,92.3 639.3,92.3 639.2,92.3 639.2,86.5 643.4,86.5 643.4,76.3 651.2,76.3 
		675.7,90.4 675.7,93.8 680,93.8 684.8,91.1 687.1,95.2 687.1,102.3 682.4,102.3 685.3,107.2 685.3,107.2 685.3,107.2 678.8,110.5 
		676.3,110.5 673,116.4 672.9,116.4 668.6,118.9 665.5,113.5 662.7,113.5 658.3,121.1 663.8,124.2 672.9,124.2 672.9,124.2 
		672.9,125.5 666.1,129.5 666.1,133.1 671,133.1 677.4,144 677.4,154.3 668.4,169.8 662,169.8 653.9,174.4 652.5,172 645.6,172 
		643.2,167.9 638.2,167.9 	"/>
	<polygon class="st0" points="604,165.5 605.2,163.4 605.2,161 598.2,161 597,158.9 594.9,160.1 594.9,166.7 597.1,170.5 
		600.3,170.5 603.5,168.7 605.9,172.8 607,170.8 	"/>
	<polygon class="st0" points="433.6,292.9 428.7,292.9 436.3,305.9 443.2,305.9 447.9,297.9 447.9,290.3 441.3,286.5 437.2,286.5 	
		"/>
	<path class="st0" d="M325.8,194.7l-3.9-6.7h-6.1v0.1l-2.5,4.3l1.9,3.3h7.3v1.5H316l1.5,2.6h9.8v-2.4L325.8,194.7z"/>
	<polygon class="st0" points="348.2,208.2 344.6,206.1 337.9,206.1 337.9,214.8 335.8,216 335.7,215.9 335.7,218.2 339.4,220.4 
		339.4,223.9 343.7,221.4 350.7,221.4 350.7,217.2 351.9,215.1 351.9,208.2 	"/>
	<polygon class="st0" points="335,201 329.4,201 327.3,199.8 323.2,199.8 323.2,201.5 319.7,203.5 322.9,209.2 325.2,207.9 
		328.8,207.9 330.4,210.7 330.4,212.9 335.8,216 337.9,214.8 337.9,206.1 	"/>
	<polygon class="st0" points="403.3,101.5 409.4,101.5 409.4,98.3 404.1,98.3 400.2,96.1 398.5,99.2 394.2,99.2 395.9,102.2 
		399,102.2 400.7,105.1 407.7,109.2 	"/>
	<polygon class="st0" points="418.4,105.2 418.4,105.2 414.1,102.7 411.6,98.3 409.4,98.3 409.4,101.5 409.4,106.8 411.6,108.1 
		414.1,109.6 418.5,109.6 418.5,105.2 	"/>
	<polygon class="st0" points="411.6,111.4 411.6,116.4 414.1,114.9 414.1,113.9 414.1,113.9 414.1,113.9 414.1,109.6 411.6,108.1 	
		"/>
	<polygon class="st0" points="411.6,98.3 414.1,102.7 418.4,105.2 418.4,105.2 418.5,105.2 428.9,105.2 431.7,106.8 434.2,102.5 
		434.2,101.5 431.7,101.5 426.2,92.3 415.1,92.3 	"/>
	<path class="st0" d="M427.2,130.8h-6.5v-1.5h6.5V130.8z M418.5,111.4l-4.3,2.5v1l-2.5,1.5l5.9,10.2l2.5-4.3l-2.5-4.3l2.5-4.3h8.4
		v-2.2L418.5,111.4z"/>
	<path class="st0" d="M417.1,209.2l-9.7,5.6H402l-3.2,5.5v3.6l4.4,7.6l2.5-4.3h3.5v-2.6l3.6-2.1l4.3,2.5h3.2l3.6-2.1h10.4l-3.3-5.8
		l-5.8-3.3v-3.2l-3.4-5.9h-2.1L417.1,209.2z"/>
	<polygon class="st0" points="431,217.1 434.3,222.9 435.6,225 441.7,225 442.9,227.2 447.5,227.2 452.5,224.4 457.3,224.4 
		452.7,216.5 448.1,213.8 452.4,211.4 452.4,205.8 449,205.8 446.9,207 444.4,207 444.4,201.6 439.8,204.3 439.8,206.7 434.7,209.7 
		433.5,207.6 430.5,207.6 425.2,210.6 425.2,213.8 	"/>
	<path class="st0" d="M400.2,169.4v2.4l1.8,3.2v9.4l-5.4,9.4v3.4h0.2l2.3,4v4.9l2.4,4.2h-3.9v2l4.4,2.5h5.3l9.7-5.6l2.6-4.6h2.1v-3
		l-3.4-5.8l3.2-5.5h2.4v-11.1l-20.5-11.8L400.2,169.4z"/>
	<polygon class="st0" points="348,131.7 346.4,128.9 343.2,134.4 334.5,139.4 334.5,148.1 325.1,153.6 337.1,153.6 337.1,151.1 
		350.1,143.6 350.1,141.9 357.2,137.8 357.2,131.7 	"/>
	<path class="st0" d="M359.6,195.4v-2.7h-2.2l-12.8,7.4v6l3.6,2.1h3.7v-4.1h10.6l3.3-1.9V199L359.6,195.4z"/>
	<path class="st0" d="M384.3,108.7v2.7H383v-2.7H384.3z M378.7,99l-2.1-1.2l2-3.5L381,90l-3.1-1.8l-1.4-0.8l-5.2-3L360,91h-5
		l5.3,9.2l-3.6,6.2l0,0l2.1,1.2h5.1l4.1,2.4l2.5-4.3h8.1l3-1.7L378.7,99z"/>
	<polygon class="st0" points="402.6,90.4 402.6,92.2 415.1,92.2 415.1,88.4 406.1,88.4 	"/>
	<path class="st0" d="M406.1,63.1v2.1h-1.7v-2.1H406.1z M413,33.4h-3.6l-3.3,1.9H403l-2.8,4.8h-1.9l-3.4,5.9l-3,1.7v5.9l-1.9,3.3
		v6.5l3.3,5.7h3.7l4.3-2.5v-5.8l4.3-2.5l-4.3-2.5v-5l8.5-4.9v-2.6l4.2-2.4v-5.4L413,33.4z"/>
	<polygon class="st0" points="402.6,90.4 393.3,90.4 391.1,94.2 386.1,94.2 386.1,96.1 394.2,96.1 400.2,96.1 402.6,92.2 	"/>
	<polygon class="st0" points="420.2,75.7 420.2,80.7 425.4,80.7 427.6,81.9 434.9,81.9 439.1,79.5 439.1,75.2 434.2,72.3 
		434.2,69.4 430.9,67.5 427.1,67.5 423.7,69.6 	"/>
	<polygon class="st0" points="376.3,75.9 373.7,80.3 377.5,82.5 381.3,75.9 	"/>
	<polygon class="st0" points="390.8,75.2 386.6,72.7 386.6,70.6 382.3,70.6 382.3,71.6 384.8,75.9 381.3,75.9 377.5,82.5 
		377.5,85.8 378.9,86.6 378,88.2 381,90 378.6,94.2 386.1,94.2 391.1,94.2 393.3,90.4 391,86.3 397,82.8 397,75.2 	"/>
	<polygon class="st0" points="433.3,325 430.7,329.5 435.1,332 437.4,327.9 435.7,325 	"/>
	<polygon class="st0" points="437.7,244.9 437.7,246.5 440.6,246.5 440.6,244.9 442.9,244.9 442.9,241.9 439.4,241.9 	"/>
	<polygon class="st1" points="116.5,189.7 116.5,188.5 114.4,187.3 114.4,184.8 119.5,184.8 120.7,182.6 122.9,182.6 128.5,173 
		120.9,173 118.1,174.6 113.7,182.3 103.7,182.3 99.3,174.8 99.3,162.3 101.1,159.3 94.3,147.5 91,147.5 88.2,149.2 83.7,141.4 
		78.9,141.4 76.8,142.6 70.3,142.6 62.8,138.3 56.7,138.3 56.7,149.3 67.6,168.1 67.6,162.4 61,151 61,141.4 65.3,143.9 65.3,148.9 
		78.2,171.2 78.2,178.6 94.8,188.2 106.9,188.2 110.7,194.8 110.7,189.7 	"/>
	<path class="st1" d="M192.9,305.5l12.9,7.5v8.8h7.1l2.7-4.6V310H213l-2.6-4.6h-6.2v-8.2h-11.3V305.5z"/>
	<polygon class="st0" points="132.4,193.2 125.6,197.1 124.1,199.8 127,201.5 127,203.5 132.4,203.5 	"/>
	<polygon class="st1" points="185,378.9 185,366.9 181.2,360.4 181.2,339.4 178.4,334.5 178.4,312.4 181.9,310.4 181.9,305.5 
		174,291.9 172.3,295 172.3,331.3 175.6,336.8 175.6,357.2 181.9,368 181.9,380.3 193,399.6 201.6,404.5 208.9,404.5 204.9,402.2 
		204.9,402.2 201,402.2 201,397.1 200.9,397.1 198.4,392.8 192.9,392.8 	"/>
	<polygon class="st0" points="214.2,232.1 217.7,226.3 214.3,220.4 214.3,220.4 210.8,220.4 210.8,232.1 	"/>
	<path class="st0" d="M256.9,254l-3.8-6.5l0,0h-10l-12.4-7.1h-5l-8.1-14l-3.4,5.8h-12.6l-3.9,2.3l-1.2-2.1v-9.7h-4.3v2.2l-3.2,2
		l-3-1.8h-2.4v3.3l2.5,4.3l-6.1,3.5h-2.2l-2.2-3.9h-6.2v18.5h-2.4l-6.8,3.9v10.1l5,2.9h3.3v3.9h5.6l5.7-3.3h2.4v5.4l9.9,5.7h4.6v8.3
		h6.5v2.4l2.7,4.6l-1.5,2.6v8.2h6.2l2.6,4.6h2.4v3.5h2.6v4l-6.7,11.6l12.3,7.1v3.4l8.1-14v-12l9.9-5.7h5l7.7-13.4v-14.1l9.7-16.7
		V254H256.9z"/>
	<polygon class="st0" points="121.5,194.8 125.6,197.1 132.4,193.2 132.4,190.4 132.4,190.4 122.9,190.4 121.5,192.8 	"/>
	<polygon class="st0" points="143.6,207.9 139.3,210.4 135.2,208.1 135.2,211.2 139.6,213.7 143.9,211.2 148.2,213.7 148.2,210.6 	
		"/>
	<polygon class="st1" points="168.4,271.6 168.4,271.6 168.4,271.6 168.4,271.6 168.4,267.7 165.1,267.7 160.1,264.9 160.1,254.7 
		166.9,250.8 166.9,245.6 159.8,245.6 156.2,239.4 153.9,238 153.9,242.9 146.2,247.4 146.2,252.8 146.2,253.1 146.2,252.8 
		141.7,252.8 139.3,248.7 139.3,254 154,279.4 154,284.4 172.3,295 174,291.9 174,271.6 	"/>
	<polygon class="st0" points="146.2,252.8 146.2,247.4 153.9,242.9 153.9,238 145.8,233.3 139.3,237.1 139.3,248.7 141.7,252.8 	"/>
	<path class="st0" d="M226.1,71.4L226.1,71.4V58.9l-2.3-1.3l-8.7,5.1h-5l4.5-7.8l-5.7-3.3h-9L193,63.1v4.6l-10.4,6v7.2l-4.3,2.5h-5
		v-6.5l3-5.2h-5l-9.2-5.3h-5.8v-9l17.9-10.3h7.1l4.3-2.5l-4.3-2.5h10.4l9.8-5.7v-3.3h-2.7l-9.6,5.6v-6.5l-3.5-6l-6.3,3.6v5l-4.3,2.5
		h-36.8l-9-5.2h-28.6L61.9,54.3l7.6,4.3V67h-2.9v15.1l4,6.9H140l5.2,3l3.8-2.2h6.4l4,6.9l1,1.7h2.6l5.8,3.4h-6.9l-1.6,3v3.2h2.3
		l6.8-3.9h7.1l4.9-2.8h5.3l4.3-7.4h4.7v5.9l2.1,1.2v2.5h8.5l10.8-6.4v-2.6l-8.4,4.8l-4.5-7.7h5.7l-1.5-2.6h-9.4l6.5-3.7h14.1
		l5.4-3.2h6.5l3.3-5.7L226.1,71.4z M112.8,39.5h7l3.3-1.9l4.8,2.8l-5,2.9h-12.4L112.8,39.5z M125.8,53.8h-5.5l-2.3,2.7l-1.4-0.7
		h-5.7V53h5.7l4.8-2.8l3.1,1.8l6.3-3.6l1.1,1.9L125.8,53.8z M137.6,83.3l-3.3,2V75h3.3V83.3z"/>
	<polygon class="st0" points="509.9,163.9 507.4,159.5 504.9,163.9 496.6,163.8 499.4,168.7 507.3,168.7 510.1,164 	"/>
	<polygon class="st0" points="490.4,182.1 495.6,182.1 507.3,175.3 507.3,168.7 499.4,168.7 496.6,163.8 494.5,163.8 486.8,150.5 
		479.2,150.5 461.5,140.3 458.1,140.3 460.4,144.2 458.2,147.9 452.4,147.9 452.4,151.6 460.1,165.1 464.4,167.6 464.4,173.1 
		468.7,175.6 475.3,187.2 487.4,187.2 	"/>
	<polygon class="st0" points="631.9,171.5 640.2,176.3 640.2,178.8 638.4,181.8 646.4,186.4 650.3,193.2 650.3,202.3 642.6,206.7 
		643.9,207.5 643.9,212.5 648.2,210 648.2,206.2 655,202.3 655,196.9 648.2,185.1 642.3,181.7 642.3,181.7 642.3,177.6 645.6,175.7 
		645.6,172 643.2,167.9 638.2,167.9 	"/>
	<polygon class="st0" points="428.3,91.1 426.2,92.3 431.7,101.5 431.7,97.5 434.2,97.5 434.2,94.5 	"/>
	<polygon class="st0" points="543.6,113.3 535.7,113.3 539.1,111.3 537,110.1 532.1,112.9 527.4,112.9 523.6,106.2 516,106.2 
		514.2,103.1 508.1,99.5 502.3,102.8 502.3,112.8 504.6,112.8 507.3,108.2 512.5,111.2 512.4,113.6 515.5,113.6 529.8,121.9 
		529.8,124.3 533.6,124.3 533.6,120.2 531.5,119 533.8,115.1 536.2,115.1 539.2,116.8 541.6,116.8 	"/>
	<polygon class="st0" points="548.4,158.6 543.3,155.7 544.5,153.5 548.1,153.5 555.1,141.5 551.5,135.2 551.5,132.8 557.3,132.8 
		557.3,130.3 549.7,125.9 544.8,125.9 542.7,127.2 542.7,133.7 540.3,135.1 540.3,141.9 533.6,145.8 533.6,149 518.8,149 
		524.3,152.1 524.3,160.2 532.6,160.2 544.1,166.9 544.1,166.9 548.4,164.3 	"/>
	<polygon class="st0" points="518.8,149 521.8,143.9 521.9,143.7 517.6,141.2 517.6,131.3 517.6,127 508.7,121.8 500.5,121.8 
		498.8,122.8 498.8,126.6 490.3,126.6 484.4,123.1 484.4,119.5 482.5,116.2 479,118.2 479,120.7 475.6,120.7 473.5,120.7 
		473.5,125.2 479.5,128.7 479.5,135.9 485.1,139.2 485.1,147.5 489.4,145 493.7,147.5 493.7,150.4 504.5,156.6 508.8,154.1 
		512.1,156.1 512.1,160.2 524.3,160.2 524.3,152.1 	"/>
	<polygon class="st0" points="465.2,108.2 465.2,113.2 470.7,113.2 476.1,113.2 476.1,113.2 476.1,110.2 472.7,108.2 	"/>
	<path class="st0" d="M416.3,70.6v2.9h-4.7v-2.9H416.3z M631.4,18.1l-4.3-2.5h-9.6l4.3,2.5H631.4z M524.9,5.5h6.2l2.5,1.5h3.4
		l3.7,2.1h-9.5L524.9,5.5z M704.9,96l-10.5-18.4h2.4L707.3,96H704.9z M476.5,29.8l-9-5.2l2.5-4.3l10-5.8h10.4L486,17h-5l-9,5.2
		L476.5,29.8z M634.2,22.8h-2.7v-1.3h2.7V22.8z M640.6,19.3h-2.7v-1.3h2.7V19.3z M465.4,35.5h-4.2v-2.2h4.2V35.5z M738,41.8h5
		l4.3,2.5h6.7l-3-5.2h-9.9l-4.8-2.8h-8l-8.7-5h-39.2l-4.3-2.5h-15.7l-5.4-3.1h-21.4v2.5h-14.9l-10.1-5.8h-34.3l-4.3,2.5h-5l10.2-5.9
		l-2.5-4.3h-14.3l-4.3-2.5l-9,5.2h-14.2l-2.5,4.3h-8.8l2.5,4h-11.1l3.8,6.6h7.4l2.5,4.3h-5.8l-4.3,2.5l-6.4-11h-2.5l-2.5-4.3h-5v5.7
		l6.4,3.7v3.4l-6.7-3.8h-11.6l-4.3,2.5h-8.9l-7.5,4.3h-6.9l-3.4-1.9v3.9l-10.2,5.8h-5l-3.8-6.5l-5.6-3.2h5l5.6,3.2h6.5V37l-6.5-3.8
		h-7.2l-4.3-2.5h-1.4l-4.6,2.7v2.8l7.3,12.7l-3.9,6.7h2.6l-2.5,4.3v7.6h3.7l3.3,1.9v3l4.9,2.8v4.3h3.9l3.3,5.7h8.2l3.5,2v7.2
		l-3.7,2.1v4h-2.1v1.9h2.7l10.3,5.9h7.4l3.4,2l3.4,2l2.3-1.3l-6.1-10.6l4.9-2.8c0-0.2,0-2.3,0-2.3l-6.2-3.6v-5.2l7.3-4.3h5.2
		l4.2,2.4l15.3-0.1v-2.6l-2.9-5v-2.4h5.6l5.3-3.1h8.7l7.5,4.3h4.3l2.7-1.6l9.1,5.2l2.5,4.3h11.1l8.5,5l8.3-4.8h6.5l5.5,3.2h5.1v-2.6
		l-2.1-3.6h5.3l8.3,4.8h10l5.5,3.2h5.3l3.8-2.2h12.8V76.3h7.8l24.5,14.1v3.4h4.3l4.7-2.7l2.4,4.1v7.1h-4.7l2.9,4.9h8.4l2.5-4.3V88
		L690,77.5l-6.4-3.7l-4.3,2.5l-7.2-4.1l4.3-7.4V59h21l4,2.3v-9.6h5l5.1,2.9l2.5-4.3l4.3,2.5v3.7l-3.5,6.1v5l2.5,4.3l8.5,4.9l3.3,5.6
		h3.2v-9.8l-4.3-7.4l-6-3.4v-5l0,0h14.2v-2.5l8-4.7l-4.3-2.5h-5l-5.2-3h8.3V41.8z M435,62.1h-2.4l-1-1.8V58h1.9l1.5,2.7V62.1z
		 M614.3,76l-3,5.1H607v-1.5h2.5l2.5-4.4v-12l2.3,1.3L614.3,76z"/>
	<polygon class="st0" points="470.7,115.6 471.9,117.8 475.6,117.8 475.6,120.7 479,120.7 479,118.2 476.1,113.2 470.7,113.2 	"/>
	<polygon class="st0" points="539.2,116.8 536.2,115.1 533.8,115.1 531.5,119 533.6,120.2 533.6,124.3 537.5,124.3 539,121.6 
		542.7,121.6 542.7,125.1 544.8,123.8 549.7,123.8 547.2,119.5 536.1,119.5 536.1,118.5 	"/>
	<path class="st0" d="M402.6,256l4,6.8h5.5v-3.2h5.8l1.2,2.1v10.4h8.9l11.1,6.4h1.2v-2.5l-3.8-2.2v-8.8l2.6-1.5h3.2l-4.7-8.1v-10.6
		l1.8-3v-2.4l3.5-6.1v-6.1l-1.2-2.2h-6.2l-1.2-2.1H424l-3.6,2.1h-3.2l-4.3-2.5l-3.6,2.1v5.9l-1.7,2.9v8.2l-4.4,2.5v6.3l-4.1,2.4
		h-2.9l-2,1.2v2h-1.5l1.2,2.1l3.4-2L402.6,256z"/>
	<polygon class="st0" points="447.7,276.5 447.7,281.1 450.4,282.6 450.4,282.6 452.5,282.6 452.5,287.8 454.1,290.7 456.8,286 
		456.8,283.5 453.5,278.1 451.9,278.1 451.9,267.4 449.4,266 449.4,275.5 	"/>
	<polygon class="st0" points="442.3,263.6 439.2,263.6 436.5,265.1 436.5,273.9 440.3,276.1 440.3,278.6 439.2,278.6 428,272.2 
		424.5,272.2 424.5,278.1 419.1,278.1 419.1,288.4 424.3,291.4 427.9,291.4 428.7,292.9 433.6,292.9 437.2,286.5 441.3,286.5 
		441.3,284.8 447.7,281.1 447.7,276.5 449.4,275.5 449.4,266 445.9,264 445.9,265.7 	"/>
	<polygon class="st0" points="453.5,274.3 453.5,278.1 456.8,283.5 456.8,286 454.1,290.7 452.5,287.8 452.5,282.6 450.4,282.6 
		450.4,282.6 447.7,281.1 441.3,284.8 441.3,286.5 447.9,290.3 447.9,297.9 443.2,305.9 443.2,317.3 443.2,319.4 445.8,319.4 
		445.8,317.3 454.2,312.5 454.2,294.7 469.1,286.1 469.1,271.1 463.5,274.3 	"/>
	<polygon class="st0" points="462.8,248.1 452.6,242.2 450.1,246.5 446.3,246.5 446.3,241.9 442.9,241.9 442.9,244.9 442.9,248 
		440.8,251.6 438.9,251.6 438.9,251.6 438.9,254.5 443.5,262.6 445.9,264 449.4,266 449.4,266 449.4,266 451.9,267.4 451.9,267.4 
		453.5,268.3 453.5,274.3 463.5,274.3 469.1,271.1 469.1,269.8 464.8,262.4 464.8,254.7 466.1,252.3 462.8,250.3 	"/>
	<polygon class="st0" points="440.6,246.5 437.7,246.5 437.7,249.4 438.3,250.6 438.9,251.6 440.8,251.6 442.9,248 442.9,244.9 
		440.6,244.9 	"/>
	<path class="st1" d="M197.6,100.8v2.5h-8.9l0,0l-3.2,5.6v2.5h-7v3.2l-11.9,6.9v8.9L148.2,141v20.4h-2.1l-3.5-6.1V148l-4.4-2.5H128
		l-4.3,2.5h-12l-6.1,3.6l-4.4,7.7l-6.8-11.8H91l-2.8,1.6l-4.5-7.8h-4.8l-2.1,1.2h-6.5l-7.5-4.3h-6.1v-2.5l-6.4-3.7v-13.2L61.8,99v-5
		l8.8-5h69.3l5.2,3l-5.2,3l1.2,2l3.7-2.1h4.1l3,1.7h7.4l1,1.7h-9.9l-3.5,2l-3.9,6.8v5.1l5.5-3.2l0,0l0,0l0,0v-5.7l4-2.3h5.6
		l-2.2,3.8h4.3v3.2H156l-2.4,4.2h6.2l8.9-5.2h2.4l5.2-3l4.9-2.8h5.3l4.3-7.4h4.7v5.9L197.6,100.8z M96.1,34.7l-7.6-4.3H50.9L9,54.5
		l4.6,7.9L2.8,68.7h5L30,55.8h29.3l7.3,4.2v7h2.9v-8.3l-7.6-4.3L96.1,34.7z"/>
	<polygon class="st0" points="420.7,67.7 411.6,67.7 411.6,70.6 416.3,70.6 416.3,73.5 420.2,75.7 423.7,69.6 	"/>
	<polygon class="st0" points="427.1,59.9 427.1,63.6 418.2,63.6 418.2,61.3 420.6,59.9 	"/>
	<polygon class="st0" points="418.2,63.6 418.2,64.9 413.2,64.9 411.6,67.7 420.7,67.7 423.7,69.6 427.1,67.5 427.1,63.6 	"/>
	<path class="st0" d="M458.1,87.2v7.2h-5l-3.5,2H448v4.5l2.4,1.4h-5.2l-2.8-4.8h-8.2v-3l-5.8-3.5l-2.1,1.2h-11.1l0.1-0.1v-3.7l5.3-3
		l-1.4-2.6l1.2-2.1h5.3l2.1,1.2h7.3l4.3-2.5h3.9l3.3,5.7h8.2L458.1,87.2z M434.1,97.5h-2.5v3.9h2.5V97.5z"/>
	<path class="st2" d="M341,27.9l1.9-2.4c1.3,1.4,3.2,2.3,5.1,2.5c1.7,0,3-0.6,3-1.9s-1.2-1.8-3.3-2.4c-2.9-0.8-5.9-1.6-5.9-5
		c0-3,2.4-4.9,5.9-4.9c2.3,0.1,4.5,0.9,6.3,2.4l-1.6,2.5c-1.3-1.1-2.9-1.8-4.5-2c-1.6,0-2.5,0.7-2.5,1.6c0,1.3,1.2,1.8,3.4,2.4
		c2.9,0.8,5.9,1.7,5.9,5c0,2.6-2,5-6.3,5C345.5,30.7,342.9,29.7,341,27.9z"/>
	<path class="st2" d="M356.4,35.1V18.7h3.3l0.3,1.8c0.8-1.2,2.1-2,3.6-2c2.7,0,4.5,2,4.5,6.1s-1.9,6-4.5,6c-1.4,0.1-2.7-0.5-3.6-1.6
		v5.5L356.4,35.1z M364.5,24.6c0-2-0.7-3.2-2.3-3.2c-0.9,0.1-1.7,0.5-2.3,1.1v4.3c0.6,0.7,1.4,1.1,2.4,1.1
		C363.8,28,364.5,26.7,364.5,24.6z"/>
	<path class="st2" d="M369.1,27.5c0-2.7,2.3-4.2,7.4-4.6v-0.3c0-0.9-0.5-1.4-1.8-1.4c-1.3,0.1-2.5,0.5-3.4,1.4l-1.9-1.9
		c1.6-1.5,3.7-2.2,5.8-2.1c3.3,0,4.7,1.6,4.7,4.6v7.4h-3.2l-0.3-1.7c-1,1.2-2.5,1.9-4.1,1.9c-1.7,0.1-3.2-1.2-3.3-2.9
		C369.1,27.6,369.1,27.5,369.1,27.5z M376.5,26.9v-2.2c-2.8,0.3-4,1-4,2.1c0,0.8,0.5,1.1,1.3,1.1C374.8,28,375.8,27.6,376.5,26.9z"
		/>
	<path class="st2" d="M382.1,15.8c0-1,0.8-1.8,1.7-1.8c0.1,0,0.2,0,0.3,0c1,0.1,1.7,1,1.6,2c-0.1,1-1,1.7-2,1.6
		C382.8,17.5,382.1,16.7,382.1,15.8z M382.4,30.4V18.7h3.5v11.7L382.4,30.4z"/>
	<path class="st2" d="M388.4,30.5V18.7h3.3l0.3,1.9c0.9-1.3,2.4-2.1,4-2.1c1.7-0.2,3.2,1,3.4,2.7c0,0.2,0,0.5,0,0.7v8.6h-3.5V23
		c0-1.1-0.4-1.6-1.4-1.6c-1,0.1-1.9,0.5-2.5,1.2v7.9L388.4,30.5z"/>
	<path class="st2" d="M332.5,72.2l1.5-0.9c1.9,3.1,4.4,4.4,7.5,4.4c4.2,0,6.7-2.5,6.7-5.9c0-4.1-2.3-6.4-9-6.4h-0.9v-1.6h1.1
		c5.8,0,8.2-1.8,8.2-5.4c0-2.9-1.8-5.2-6-5.2c-2.6,0-5,1.3-6.4,3.5l-1.4-0.9c1.8-2.6,4.7-4.1,7.9-4.1c5.6,0,7.8,3.3,7.8,6.6
		c0.2,3.2-2.2,6-5.4,6.3c4,0.8,6,3.1,6,7.1c0,4.2-3.2,7.6-8.5,7.6C337.8,77.3,334.3,75.4,332.5,72.2z"/>
	<path class="st2" d="M358.9,76.7v-25l-5.1,1.9l-0.2-1.5l5.5-2h1.6v26.6H358.9z"/>
	<path class="st2" d="M367.3,80.2l0.9-6.4h2.4l-2.2,6.4H367.3z"/>
	<path class="st2" d="M386.3,76.7v-6.8h-12.8v-1.3l12.1-18.5h2.4v18.2h4.4l0.3,1.6h-4.7v6.8L386.3,76.7z M375.7,68.3h10.7V52.2h-0.1
		L375.7,68.3z"/>
	<path class="st2" d="M394.7,72.2l1.5-0.9c1.5,2.6,3.7,4.4,7.1,4.4c4.8,0,7-3.8,7-7.6c0-4.6-2.8-7.2-6.4-7.2c-2.6,0-5.1,1.4-6.4,3.6
		l-1.5-0.6l1-13.8h13.2l0.3,1.7h-11.9L397.9,62c1.5-1.8,3.7-2.8,6-2.7c4.6,0,8.1,3.3,8.1,8.6s-3.4,9.3-8.8,9.3
		C399.6,77.3,396.4,75.3,394.7,72.2z"/>
	<path class="st2" d="M420.6,76.7v-25l-5.1,1.9l-0.2-1.5l5.5-2h1.6v26.6H420.6z"/>
	<path class="st2" d="M118.2,20.7V10.6h3.6v10c0,2.4,0.9,3.7,3,3.7s3-1.3,3-3.7v-10h3.5v10c0,4-2,6.5-6.6,6.5S118.2,24.6,118.2,20.7
		z"/>
	<path class="st2" d="M133.9,26.9V15.2h3.3l0.3,1.9c0.9-1.3,2.4-2.1,4-2.1c1.7-0.2,3.2,1,3.4,2.7c0,0.2,0,0.5,0,0.7v8.6h-3.5v-7.4
		c0-1.1-0.4-1.6-1.4-1.6c-0.9,0.1-1.8,0.5-2.5,1.2v7.9L133.9,26.9z"/>
	<path class="st2" d="M147,12.2c0-1,0.8-1.8,1.7-1.8c0.1,0,0.2,0,0.3,0c1,0.1,1.7,1,1.6,2s-1,1.7-2,1.6
		C147.7,13.9,147,13.1,147,12.2z M147.2,26.9V15.2h3.5v11.7H147.2z"/>
	<path class="st2" d="M154.1,23.4v-5.6h-2v-2.6h2v-3.8l3.5-0.5v4.3h3v2.6h-3V23c0,1.2,0.6,1.5,1.5,1.5c0.4,0,0.8-0.1,1.2-0.2
		l0.2,2.6c-0.8,0.1-1.7,0.2-2.5,0.2C155.3,27,154.1,26.2,154.1,23.4z"/>
	<path class="st2" d="M161.5,21c-0.2-3.2,2.2-5.9,5.4-6.1c0.2,0,0.3,0,0.5,0c2.4,0,5.4,1.2,5.4,6.5V22H165c0.2,1.9,1.2,2.7,2.7,2.7
		c1.3,0,2.5-0.5,3.5-1.3l1.3,2c-1.4,1.2-3.2,1.8-5.1,1.8C164.4,27.1,161.5,25.6,161.5,21z M169.6,19.9c-0.2-1.6-0.9-2.4-2.2-2.4
		c-1.1,0-2,0.7-2.3,2.4H169.6z"/>
	<path class="st2" d="M174,21.1c0-4,1.9-6.2,4.6-6.2c1.4-0.1,2.7,0.6,3.6,1.7v-5.8l3.5-0.5v16.5h-3.3l-0.3-1.8
		c-0.8,1.2-2.2,2-3.6,1.9C175.9,27.1,174,25.2,174,21.1z M182.1,23.3v-4.3c-0.6-0.7-1.4-1.1-2.3-1.1c-1.5,0-2.2,1.1-2.2,3.3
		c0,2,0.7,3.3,2.3,3.3C180.7,24.3,181.5,23.9,182.1,23.3L182.1,23.3z"/>
	<path class="st2" d="M193.4,24.3l1.9-2.4c1.4,1.4,3.2,2.3,5.1,2.5c1.7,0,2.9-0.6,2.9-1.9s-1.2-1.8-3.3-2.4c-2.9-0.8-5.9-1.6-5.9-5
		c0-3,2.4-4.9,5.9-4.9c2.3,0.1,4.5,0.9,6.3,2.4l-1.6,2.6c-1.3-1.1-2.9-1.8-4.6-2c-1.6,0-2.5,0.7-2.5,1.6c0,1.3,1.2,1.8,3.4,2.4
		c2.9,0.8,5.9,1.7,5.9,5c0,2.6-2,5-6.3,5C197.9,27.2,195.3,26.1,193.4,24.3z"/>
	<path class="st2" d="M209.3,23.4v-5.6h-2v-2.6h2v-3.8l3.5-0.5v4.3h3v2.6h-3V23c0,1.2,0.6,1.5,1.5,1.5c0.4,0,0.8-0.1,1.2-0.2
		l0.2,2.6c-0.8,0.1-1.7,0.2-2.5,0.2C210.6,27,209.3,26.2,209.3,23.4z"/>
	<path class="st2" d="M216.8,23.9c0-2.7,2.3-4.2,7.4-4.6V19c0-0.9-0.5-1.4-1.8-1.4c-1.3,0.1-2.5,0.6-3.4,1.4l-1.9-1.9
		c1.6-1.5,3.7-2.2,5.8-2.1c3.3,0,4.7,1.6,4.7,4.6v7.4h-3.2l-0.3-1.7c-1,1.2-2.5,1.9-4.1,1.9c-1.7,0.1-3.2-1.2-3.3-2.9
		C216.8,24.1,216.8,24,216.8,23.9z M224.2,23.4v-2.2c-2.8,0.3-4,1-4,2.1c0,0.8,0.5,1.1,1.3,1.1C222.5,24.5,223.5,24.1,224.2,23.4z"
		/>
	<path class="st2" d="M230.8,23.4v-5.6h-2v-2.6h2v-3.8l3.5-0.5v4.3h3v2.6h-3V23c0,1.2,0.6,1.5,1.5,1.5c0.4,0,0.8-0.1,1.2-0.2
		l0.2,2.6c-0.8,0.1-1.7,0.2-2.5,0.2C232,27,230.8,26.2,230.8,23.4z"/>
	<path class="st2" d="M238.2,21c-0.2-3.2,2.2-5.9,5.4-6.1c0.2,0,0.3,0,0.5,0c2.4,0,5.4,1.2,5.4,6.5V22h-7.8c0.2,1.9,1.2,2.7,2.7,2.7
		c1.3,0,2.5-0.5,3.5-1.3l1.3,2c-1.4,1.2-3.2,1.8-5.1,1.8C241.1,27.1,238.2,25.6,238.2,21z M246.3,19.9c-0.2-1.6-0.9-2.4-2.2-2.4
		c-1.1,0-2,0.7-2.3,2.4H246.3z"/>
	<path class="st2" d="M250.4,25.5l1.2-2.1c1.2,0.9,2.7,1.4,4.2,1.5c1.1,0,1.9-0.4,1.9-1.1s-0.6-1.1-2.2-1.4
		c-2.2-0.4-4.6-0.9-4.6-3.7c0-2.4,1.9-3.7,4.6-3.7c1.8,0,3.5,0.4,5.1,1.4l-1.1,2.1c-1.1-0.7-2.4-1.1-3.7-1.1c-1,0-1.6,0.4-1.6,1
		s0.6,1,2.1,1.2c2.3,0.4,4.8,0.9,4.8,3.6c0,2.8-2.5,4-5.2,4C253.9,27.2,252,26.6,250.4,25.5z"/>
	<path class="st2" d="M121.5,73.2V48.2l-5.1,1.9l-0.2-1.5l5.5-2h1.6v26.6H121.5z"/>
	<path class="st2" d="M129.3,59.8c0-8.3,3.4-13.8,9.5-13.8s9.4,5.5,9.4,13.8s-3.4,13.8-9.4,13.8S129.3,68.2,129.3,59.8z M146.5,59.8
		c0-7.8-3.1-12.2-7.7-12.2c-4.8,0-7.7,4.4-7.7,12.2s3.1,12.2,7.7,12.2S146.5,67.7,146.5,59.8L146.5,59.8z"/>
	<path class="st2" d="M151.8,76.7l0.9-6.4h2.3l-2.2,6.4H151.8z"/>
	<path class="st2" d="M159.3,68.6l1.5-0.9c1.6,2.6,3.7,4.4,7.1,4.4c4.8,0,7-3.8,7-7.6c0-4.6-2.8-7.2-6.4-7.2c-2.6,0-5.1,1.4-6.4,3.7
		l-1.5-0.6l1-13.8h13.2l0.3,1.7h-12l-0.8,10.1c1.5-1.8,3.7-2.8,6-2.7c4.6,0,8.1,3.3,8.1,8.6s-3.4,9.3-8.8,9.3
		C164.2,73.7,161,71.7,159.3,68.6z"/>
	<path class="st2" d="M192.6,73.2v-6.8h-12.8v-1.3L192,46.5h2.4v18.2h4.4l0.3,1.6h-4.7v6.8H192.6z M181.9,64.7h10.7V48.6h-0.1
		L181.9,64.7z"/>
	<path class="st2" d="M214.5,73.2v-6.8h-12.8v-1.3l12.1-18.5h2.4v18.2h4.4l0.3,1.6h-4.7v6.8H214.5z M203.9,64.7h10.6V48.6h-0.1
		L203.9,64.7z"/>
	<path class="st2" d="M179.7,154.3V138h4.7l3.6,12l0,0l3.4-12h4.8v16.3h-3.5v-11.1l0,0c-0.2,1.2-0.5,2.4-0.9,3.6l-2.4,7.5h-3.2
		l-2.4-7.5c-0.4-1.2-0.7-2.5-0.9-3.8l0,0v11.3H179.7z"/>
	<path class="st2" d="M198.4,148.4c-0.2-3.2,2.2-5.9,5.4-6.1c0.2,0,0.3,0,0.5,0c2.4,0,5.4,1.2,5.4,6.5v0.5H202
		c0.2,1.9,1.2,2.7,2.7,2.7c1.3,0,2.5-0.5,3.5-1.3l1.3,2c-1.4,1.2-3.2,1.8-5.1,1.8C201.4,154.5,198.4,153,198.4,148.4z M206.6,147.3
		c-0.2-1.6-0.9-2.4-2.2-2.4c-1.1,0-2,0.7-2.3,2.4H206.6z"/>
	<path class="st2" d="M210.2,154.3l4-6.1l-3.6-5.4l3.4-0.5l2.2,3.5l1.9-3.2h3.6l-3.8,5.7l3.8,5.8l-3.3,0.5l-2.4-3.8l-2.2,3.5
		L210.2,154.3z"/>
	<path class="st2" d="M222.8,139.6c0-1,0.8-1.8,1.7-1.8c0.1,0,0.2,0,0.3,0c1,0.1,1.7,1,1.6,2s-1,1.7-2,1.6
		C223.5,141.3,222.8,140.5,222.8,139.6z M223,154.3v-11.7h3.5v11.7L223,154.3z"/>
	<path class="st2" d="M228.4,148.4c0-4.7,3.3-6.1,5.9-6.1c2.1-0.1,4.1,1.1,5,3.1l-2.6,1.3c-0.3-1.1-1.3-1.9-2.5-1.8
		c-1.5,0-2.4,1.2-2.4,3.5c0,2.1,0.7,3.6,2.4,3.6c1.3-0.1,2.3-0.9,2.7-2.1l2.6,1.3c-1,2.1-3.2,3.4-5.5,3.3
		C231.4,154.5,228.4,153,228.4,148.4z"/>
	<path class="st2" d="M240.4,148.4c0-4.6,3.1-6.1,6-6.1s6,1.5,6,6.1s-3.1,6.1-6,6.1S240.4,153,240.4,148.4z M248.8,148.4
		c0-2-0.7-3.5-2.4-3.5s-2.5,1.4-2.5,3.5c0,2,0.7,3.6,2.5,3.6S248.8,150.6,248.8,148.4L248.8,148.4z"/>
	<path class="st2" d="M175.8,196l1.5-0.9c1.9,3.1,4.4,4.4,7.4,4.4c4.2,0,6.7-2.5,6.7-5.9c0-4.1-2.3-6.4-9-6.4h-0.9v-1.6h1.1
		c5.8,0,8.2-1.8,8.2-5.4c0-2.9-1.8-5.1-6-5.1c-2.6,0-5,1.3-6.4,3.5l-1.4-0.9c1.8-2.6,4.7-4.1,7.9-4.1c5.6,0,7.8,3.4,7.8,6.6
		c0.2,3.2-2.2,6-5.4,6.3c4,0.8,6,3.1,6,7.1c0,4.2-3.2,7.6-8.5,7.6C181.1,201.1,177.7,199.2,175.8,196z"/>
	<path class="st2" d="M198.7,200.6l11.4-24.9h-13.8l-0.3-1.7h16v1.6l-11.5,25L198.7,200.6z"/>
	<path class="st2" d="M211.7,204.1l0.9-6.4h2.4l-2.2,6.4H211.7z"/>
	<path class="st2" d="M219,196l1.5-0.9c1.9,3.1,4.4,4.4,7.4,4.4c4.2,0,6.7-2.5,6.7-5.9c0-4.1-2.3-6.4-9-6.4h-0.9v-1.6h1.1
		c5.8,0,8.2-1.8,8.2-5.4c0-2.9-1.8-5.1-6-5.1c-2.6,0-5,1.3-6.4,3.5l-1.4-0.9c1.8-2.6,4.7-4.1,7.9-4.1c5.6,0,7.8,3.4,7.8,6.6
		c0.2,3.2-2.2,6-5.4,6.3c4,0.8,6,3.1,6,7.1c0,4.2-3.2,7.6-8.5,7.6C224.3,201.1,220.8,199.2,219,196z"/>
	<path class="st2" d="M241.9,200.6l11.4-24.9h-13.8l-0.3-1.7h16v1.6l-11.5,25L241.9,200.6z"/>
	<path class="st2" d="M257.4,194.2c0-3.8,2.7-5.8,7.3-7.9c-3.8-1.7-6.1-3.4-6.1-6.6s3.1-6.3,8-6.3s8,3.1,8,6.3s-2.2,4.8-6.2,6.6
		c4.8,2.1,7.4,4,7.4,7.9c0,3.6-3.4,6.8-9.2,6.8S257.4,197.9,257.4,194.2z M274.1,194.1c0-3.2-2.7-5-7.5-7c-5.1,2.3-7.4,3.9-7.4,7
		s3.2,5.4,7.5,5.4S274,197.4,274.1,194.1L274.1,194.1z M272.8,179.8c0-2.3-1.9-4.8-6.2-4.8c-4.1,0-6.2,2.4-6.2,4.6
		c0,2.7,1.9,4,6.3,5.9C271,183.7,272.8,182.4,272.8,179.8L272.8,179.8z"/>
	<path class="st2" d="M252.5,324.3l1.9-2.4c1.4,1.4,3.2,2.3,5.1,2.5c1.7,0,3-0.6,3-1.9s-1.2-1.8-3.3-2.4c-2.9-0.8-5.9-1.6-5.9-5
		c0-3,2.4-4.9,5.9-4.9c2.3,0.1,4.5,0.9,6.3,2.4l-1.6,2.5c-1.3-1.1-2.9-1.8-4.5-2c-1.6,0-2.5,0.7-2.5,1.6c0,1.3,1.2,1.8,3.3,2.4
		c2.9,0.8,5.9,1.7,5.9,5c0,2.6-2,5-6.3,5C257,327.2,254.4,326.2,252.5,324.3z"/>
	<path class="st2" d="M267.4,321.1c0-4.6,3.1-6.1,6-6.1s6,1.5,6,6.1s-3.1,6.1-6,6.1S267.4,325.6,267.4,321.1z M275.8,321.1
		c0-2-0.7-3.5-2.4-3.5s-2.5,1.4-2.5,3.5c0,2,0.7,3.6,2.5,3.6S275.8,323.2,275.8,321.1L275.8,321.1z"/>
	<path class="st2" d="M281.1,323.8v-8.6h3.5v7.5c0,1.1,0.4,1.6,1.4,1.6c1-0.1,1.9-0.5,2.5-1.2v-8h3.5v11.7h-3.3l-0.3-1.8
		c-0.9,1.3-2.4,2-4,2.1C282.5,327.2,281.1,326.2,281.1,323.8z"/>
	<path class="st2" d="M295.5,323.4v-5.6h-2v-2.6h2v-3.8l3.5-0.5v4.3h3v2.6h-3v5.2c0,1.2,0.6,1.5,1.5,1.5c0.4,0,0.8-0.1,1.2-0.2
		l0.2,2.6c-0.8,0.1-1.7,0.2-2.5,0.2C296.7,327.1,295.5,326.2,295.5,323.4z"/>
	<path class="st2" d="M303.8,326.9v-16l3.5-0.5v6.6c0.9-1.3,2.4-2.1,4-2.1c2,0,3.4,1,3.4,3.4v8.6h-3.5v-7.4c0-1.1-0.4-1.6-1.4-1.6
		c-1,0.1-1.9,0.5-2.6,1.2v7.9L303.8,326.9z"/>
	<path class="st2" d="M322,326.9l5.8-16.4h3.4l5.7,16.1l-3.5,0.5l-1.3-3.9h-5.5l-1.2,3.6L322,326.9z M327.4,320.7h3.8l-1.9-5.5l0,0
		L327.4,320.7z"/>
	<path class="st2" d="M338.3,326.9v-11.7h3.3l0.3,1.9c0.9-1.3,2.3-2,3.9-2.1c2,0,2.9,0.8,3.2,2.1c0.9-1.3,2.3-2,3.9-2.1
		c2.4,0,3.4,1.5,3.4,3.6v8.4h-3.5v-7.4c0-1.1-0.2-1.6-1.3-1.6c-0.9,0.1-1.8,0.5-2.4,1.1v7.9h-3.5v-7.4c0-1.1-0.2-1.6-1.3-1.6
		c-0.9,0.1-1.8,0.5-2.4,1.2v7.9L338.3,326.9z"/>
	<path class="st2" d="M358,321.1c-0.2-3.2,2.2-5.9,5.4-6.1c0.2,0,0.3,0,0.5,0c2.4,0,5.4,1.2,5.4,6.5v0.5h-7.8
		c0.2,1.9,1.2,2.7,2.7,2.7c1.3,0,2.5-0.5,3.5-1.3l1.3,2c-1.4,1.2-3.2,1.8-5.1,1.8C360.9,327.2,358,325.6,358,321.1z M366.1,319.9
		c-0.2-1.6-0.9-2.4-2.2-2.4c-1.1,0-2,0.7-2.3,2.4H366.1z"/>
	<path class="st2" d="M371.1,326.9v-11.7h3.3l0.3,2l0,0c0.8-1.4,2.2-2.2,3.8-2.2h0.1l0.3,3.1c-0.3,0-0.5,0-0.8,0
		c-1.3-0.1-2.6,0.5-3.4,1.6v7.3L371.1,326.9z"/>
	<path class="st2" d="M379.9,312.3c0-1,0.8-1.8,1.7-1.8c0.1,0,0.2,0,0.3,0c1,0.1,1.7,1,1.6,2c-0.1,1-1,1.7-2,1.6
		C380.5,313.9,379.9,313.2,379.9,312.3z M380.1,326.9v-11.7h3.5v11.7L380.1,326.9z"/>
	<path class="st2" d="M385.4,321.1c0-4.7,3.3-6.1,5.9-6.1c2.1-0.1,4.1,1.1,5,3.1l-2.6,1.3c-0.3-1.1-1.3-1.9-2.5-1.8
		c-1.5,0-2.4,1.2-2.4,3.5c0,2.1,0.7,3.6,2.4,3.6c1.3-0.1,2.3-0.9,2.7-2.1l2.6,1.3c-1,2.1-3.2,3.4-5.5,3.3
		C388.4,327.2,385.4,325.6,385.4,321.1z"/>
	<path class="st2" d="M397.5,323.9c0-2.7,2.3-4.2,7.4-4.6V319c0-0.9-0.5-1.4-1.8-1.4c-1.3,0.1-2.5,0.6-3.4,1.4l-1.9-1.9
		c1.6-1.5,3.7-2.2,5.8-2.1c3.3,0,4.7,1.6,4.7,4.6v7.4h-3.2l-0.2-1.7c-1,1.2-2.5,1.9-4.1,1.9c-1.7,0.1-3.2-1.1-3.4-2.9
		C397.5,324.1,397.5,324,397.5,323.9z M405,323.4v-2.2c-2.8,0.3-4,1-4,2.1c0,0.8,0.5,1.1,1.3,1.1C403.3,324.5,404.3,324.1,405,323.4
		L405,323.4z"/>
	<path class="st2" d="M252.9,368.6l1.5-0.9c1.9,3.1,4.4,4.4,7.4,4.4c4.2,0,6.7-2.5,6.7-5.9c0-4.1-2.3-6.4-9-6.4h-0.9v-1.6h1.1
		c5.8,0,8.2-1.8,8.2-5.4c0-2.9-1.8-5.1-6-5.1c-2.6,0-5,1.3-6.4,3.5l-1.4-0.9c1.8-2.6,4.7-4.1,7.9-4.1c5.6,0,7.8,3.4,7.8,6.6
		c0.2,3.2-2.2,6-5.4,6.3c4,0.8,6,3.1,6,7.1c0,4.2-3.2,7.6-8.5,7.6C258.2,373.8,254.8,371.8,252.9,368.6z"/>
	<path class="st2" d="M274.3,359.9c0-8.3,3.4-13.8,9.5-13.8s9.4,5.5,9.4,13.8s-3.4,13.8-9.4,13.8S274.3,368.2,274.3,359.9z
		 M291.5,359.9c0-7.9-3.1-12.2-7.7-12.2c-4.8,0-7.7,4.4-7.7,12.2s3.1,12.2,7.7,12.2S291.5,367.7,291.5,359.9z"/>
	<path class="st2" d="M296.8,376.7l0.9-6.4h2.3l-2.2,6.4H296.8z"/>
	<path class="st2" d="M304.3,368.6l1.5-0.9c1.5,2.6,3.7,4.4,7,4.4c4.8,0,7-3.8,7-7.6c0-4.6-2.8-7.2-6.4-7.2c-2.6,0-5.1,1.4-6.4,3.6
		l-1.5-0.6l1-13.8h13.2l0.3,1.7h-12l-0.8,10.1c1.5-1.8,3.7-2.8,6-2.7c4.6,0,8.1,3.3,8.1,8.6s-3.4,9.3-8.8,9.3
		C309.2,373.7,305.9,371.7,304.3,368.6z"/>
	<path class="st2" d="M337.6,373.2v-6.8h-12.8v-1.3l12.2-18.5h2.4v18.2h4.4l0.3,1.6h-4.7v6.8L337.6,373.2z M326.9,364.7h10.7v-16.1
		h-0.1L326.9,364.7z"/>
	<path class="st2" d="M345.8,368.6l1.5-0.9c2,3.1,4.4,4.4,7.5,4.4c4.2,0,6.7-2.5,6.7-5.9c0-4.1-2.3-6.4-9-6.4h-0.9v-1.6h1.1
		c5.8,0,8.2-1.8,8.2-5.4c0-2.9-1.8-5.1-6-5.1c-2.6,0-5,1.3-6.4,3.5l-1.5-0.9c1.8-2.6,4.7-4.1,7.9-4.1c5.6,0,7.8,3.4,7.8,6.6
		c0.2,3.2-2.2,6-5.4,6.3c4,0.8,6,3.1,6,7.1c0,4.2-3.2,7.6-8.5,7.6C351,373.7,347.6,371.8,345.8,368.6z"/>
	<path class="st2" d="M405,166.3V153h-4.8v-3h13l0.5,3h-5.1v13.3L405,166.3z"/>
	<path class="st2" d="M413,163.1v-8.6h3.5v7.5c0,1.1,0.4,1.6,1.4,1.6c1-0.1,1.9-0.5,2.5-1.2v-8h3.5v11.7h-3.3l-0.3-1.8
		c-0.9,1.3-2.4,2-4,2.1C414.4,166.6,413,165.6,413,163.1z"/>
	<path class="st2" d="M426.4,166.3v-11.7h3.3l0.3,2l0,0c0.8-1.4,2.2-2.2,3.8-2.2h0.1l0.3,3.1c-0.3,0-0.5,0-0.8,0
		c-1.3-0.1-2.6,0.5-3.4,1.5v7.3L426.4,166.3z"/>
	<path class="st2" d="M435.4,166.3v-16l3.5-0.5v9.2l3.6-4.4h3.8l-3.8,4.4l4.1,7.1l-3.4,0.5l-3-5l-1.4,1.5v3.2H435.4z"/>
	<path class="st2" d="M446.9,160.4c-0.2-3.2,2.2-5.9,5.4-6.1c0.2,0,0.3,0,0.5,0c2.4,0,5.4,1.2,5.4,6.5v0.5h-7.8
		c0.2,1.9,1.2,2.7,2.7,2.7c1.3,0,2.5-0.5,3.5-1.3l1.3,2c-1.4,1.2-3.2,1.8-5.1,1.8C449.9,166.6,446.9,165,446.9,160.4z M455,159.3
		c-0.2-1.6-0.9-2.4-2.2-2.4c-1.1,0-2,0.7-2.3,2.4H455z"/>
	<path class="st2" d="M459.2,170.6l-0.3-2.9c0.7,0.2,1.4,0.3,2.1,0.3c0.7,0.1,1.3-0.3,1.5-1l0.2-0.6l-4.4-11.5l3.5-0.5l2.6,7.9l0,0
		l2.6-7.6h3.4l-4.9,13c-0.8,2-1.9,3.3-4.2,3.3C460.7,170.9,460,170.8,459.2,170.6z"/>
	<path class="st2" d="M398.1,212.6V212c0-3.9,2.1-7.3,9.1-11.8c4-2.5,5.6-4.5,5.6-7.4c0-3.4-2-5.7-5.9-5.7c-3.1,0-5.2,1.6-6.8,4.9
		l-1.5-0.7c1.7-3.7,4.6-5.7,8.3-5.7c4.7,0,7.6,3,7.6,7.2c0,3.8-2,6-7.1,9.3s-7.5,6.4-7.5,9h14.6l0.3,1.7H398.1z"/>
	<path class="st2" d="M417.3,208l1.5-0.9c1.9,3.1,4.4,4.4,7.5,4.4c4.2,0,6.7-2.5,6.7-5.9c0-4.1-2.3-6.4-9-6.4h-1v-1.6h1.1
		c5.8,0,8.2-1.8,8.2-5.4c0-2.9-1.8-5.1-6-5.1c-2.6,0-5,1.3-6.4,3.5l-1.4-0.9c1.8-2.6,4.7-4.1,7.9-4.1c5.6,0,7.8,3.4,7.8,6.6
		c0.2,3.2-2.2,6-5.4,6.3c4,0.8,6,3.1,6,7.1c0,4.2-3.2,7.6-8.5,7.6C422.6,213.1,419.1,211.2,417.3,208z"/>
	<path class="st2" d="M439.1,216.1l0.9-6.4h2.4l-2.2,6.4H439.1z"/>
	<path class="st2" d="M446.1,199.7c0-7.7,3.9-14.3,10-14.3c2.2-0.1,4.4,0.6,6.2,2l-1,1.4c-1.4-1.3-3.3-1.9-5.2-1.8
		c-5.2,0-8.3,5.8-8.2,12.9c1.9-2.4,4.8-3.8,7.8-3.9c5.8,0,8.2,3.7,8.2,8.3c0,4.9-3.3,8.8-8.7,8.8C450.4,213.1,446.1,209,446.1,199.7
		z M462.1,204.3c0-3.9-2-6.7-6.5-6.7c-3.1,0.1-6,1.8-7.6,4.5c0.6,6.6,3.8,9.4,7.4,9.4C459.4,211.5,462.1,209,462.1,204.3
		L462.1,204.3z"/>
	<path class="st2" d="M469.1,212.6l11.5-24.9h-13.8l-0.3-1.7h16v1.6l-11.5,25L469.1,212.6z"/>
	<path class="st2" d="M484.7,206.2c0-3.8,2.7-5.8,7.3-7.9c-3.8-1.7-6.1-3.4-6.1-6.6s3.1-6.3,8-6.3s8,3.1,8,6.3s-2.2,4.8-6.2,6.6
		c4.8,2.1,7.4,4,7.4,7.9c0,3.6-3.4,6.8-9.2,6.8S484.7,209.9,484.7,206.2z M501.3,206.1c0-3.2-2.7-5-7.5-7c-5.1,2.3-7.4,3.9-7.4,7
		s3.2,5.4,7.5,5.4S501.3,209.4,501.3,206.1L501.3,206.1z M500.1,191.8c0-2.3-1.9-4.8-6.2-4.8c-4.1,0-6.2,2.4-6.2,4.6
		c0,2.7,1.9,4,6.3,5.9C498.3,195.7,500.1,194.5,500.1,191.8L500.1,191.8z"/>
	<path class="st2" d="M582.4,17.3V1h6.1c4,0,6.4,1.4,6.4,5c0.2,2.2-1.3,4.2-3.4,4.6l3.7,6.3l-3.5,0.5l-3.7-6.3h-2.1v6.1H582.4z
		 M585.9,8.4h2.4c2.1,0,3.1-0.6,3.1-2.2s-1-2.2-3.1-2.2h-2.4V8.4z"/>
	<path class="st2" d="M596.2,11.4c-0.2-3.2,2.2-5.9,5.4-6.1c0.2,0,0.3,0,0.5,0c2.4,0,5.4,1.2,5.4,6.5v0.5h-7.8
		c0.2,1.9,1.2,2.7,2.7,2.7c1.3,0,2.5-0.5,3.5-1.3l1.3,2c-1.4,1.2-3.2,1.8-5.1,1.8C599.2,17.5,596.2,16,596.2,11.4z M604.4,10.3
		c-0.2-1.6-0.9-2.4-2.2-2.4c-1.1,0-2,0.7-2.3,2.4H604.4z"/>
	<path class="st2" d="M608.5,15.9l1.2-2.1c1.2,0.9,2.7,1.4,4.2,1.5c1.1,0,1.9-0.4,1.9-1.1s-0.6-1.1-2.2-1.4
		c-2.2-0.4-4.6-0.9-4.6-3.7c0-2.3,1.9-3.7,4.5-3.7c1.8,0,3.5,0.4,5.1,1.4l-1.1,2.1c-1.1-0.7-2.4-1.1-3.7-1.1c-1,0-1.6,0.4-1.6,1
		s0.6,1,2.1,1.2c2.3,0.4,4.8,0.9,4.8,3.6c0,2.8-2.5,4-5.2,4C612,17.6,610.1,17,608.5,15.9z"/>
	<path class="st2" d="M621.7,13.8V8.1h-2V5.6h2V1.8l3.5-0.5v4.3h3v2.6h-3v5.2c0,1.2,0.6,1.5,1.5,1.5c0.4,0,0.8-0.1,1.2-0.2l0.2,2.6
		c-0.8,0.1-1.7,0.2-2.5,0.2C623,17.5,621.7,16.6,621.7,13.8z"/>
	<path class="st2" d="M635.1,11.4c0-4.6,3.2-6.1,6-6.1s6,1.5,6,6.1s-3.2,6.1-6,6.1S635.1,16,635.1,11.4z M643.6,11.4
		c0-2-0.7-3.5-2.4-3.5s-2.5,1.4-2.5,3.5c0,2,0.7,3.6,2.5,3.6S643.6,13.6,643.6,11.4L643.6,11.4z"/>
	<path class="st2" d="M649.8,17.3V8.1h-2V5.6h2V4.8c0-2,0.6-3.8,4.1-3.8c0.7,0,1.3,0.1,2,0.1l0.2,2.5c-0.4-0.1-0.7-0.2-1.1-0.2
		c-0.9,0-1.7,0.2-1.7,1.4v0.7h2.5v2.6h-2.5v9.1H649.8z"/>
	<path class="st2" d="M663.6,17.3V1h11.1v3h-7.5v3.5h5.8l0.5,2.8h-6.4v4h7.9v2.9L663.6,17.3z"/>
	<path class="st2" d="M676.7,14.1V5.6h3.5v7.5c0,1.1,0.4,1.6,1.4,1.6c1-0.1,1.9-0.5,2.5-1.2v-8h3.5v11.8h-3.3l-0.3-1.8
		c-0.9,1.3-2.4,2-4,2.1C678.1,17.5,676.7,16.6,676.7,14.1z"/>
	<path class="st2" d="M690.1,17.3V5.6h3.3l0.3,2l0,0c0.8-1.4,2.2-2.2,3.8-2.2h0.1l0.3,3.2c-0.3,0-0.5,0-0.8,0
		c-1.3-0.1-2.6,0.5-3.4,1.5v7.3H690.1z"/>
	<path class="st2" d="M698.5,14.3c0-2.7,2.3-4.2,7.4-4.6V9.4c0-0.9-0.5-1.4-1.8-1.4c-1.3,0.1-2.5,0.5-3.4,1.4l-1.9-1.9
		c1.6-1.5,3.7-2.2,5.8-2.1c3.3,0,4.7,1.6,4.7,4.6v7.4h-3.2l-0.2-1.7c-1,1.2-2.5,1.9-4.1,1.9c-1.7,0.1-3.2-1.1-3.4-2.9
		C698.5,14.5,698.5,14.4,698.5,14.3z M706,13.8v-2.2c-2.8,0.3-4,1-4,2.1c0,0.8,0.5,1.1,1.3,1.1C704.3,14.9,705.3,14.5,706,13.8
		L706,13.8z"/>
	<path class="st2" d="M710.8,15.9l1.2-2.1c1.2,0.9,2.7,1.4,4.2,1.5c1.1,0,1.9-0.4,1.9-1.1s-0.6-1.1-2.2-1.4
		c-2.2-0.4-4.6-0.9-4.6-3.7c0-2.3,1.9-3.7,4.5-3.7c1.8,0,3.5,0.4,5.1,1.4l-1.1,2.1c-1.1-0.7-2.4-1.1-3.7-1.1c-1,0-1.6,0.4-1.6,1
		s0.6,1,2.1,1.2c2.3,0.4,4.8,0.9,4.8,3.6c0,2.8-2.5,4-5.2,4C714.3,17.6,712.4,17,710.8,15.9z"/>
	<path class="st2" d="M723,2.7c0-1,0.8-1.8,1.7-1.8c0.1,0,0.2,0,0.3,0c1,0.1,1.7,1,1.6,2s-1,1.7-2,1.6C723.7,4.3,723,3.6,723,2.7z
		 M723.2,17.3V5.6h3.5v11.7H723.2z"/>
	<path class="st2" d="M728.4,14.3c0-2.7,2.3-4.2,7.4-4.6V9.4c0-0.9-0.5-1.4-1.8-1.4c-1.3,0.1-2.5,0.5-3.4,1.4l-1.9-1.9
		c1.6-1.5,3.7-2.2,5.8-2.1c3.3,0,4.7,1.6,4.7,4.6v7.4h-3.2l-0.3-1.7c-1,1.2-2.5,1.9-4.1,1.9c-1.7,0.1-3.2-1.2-3.3-2.9
		C728.4,14.5,728.4,14.4,728.4,14.3z M735.8,13.8v-2.2c-2.8,0.3-4,1-4,2.1c0,0.8,0.5,1.1,1.3,1.1C734.1,14.9,735.1,14.5,735.8,13.8
		L735.8,13.8z"/>
	<path class="st2" d="M585.5,63.6v-25l-5.1,1.9l-0.2-1.5l5.5-2h1.6v26.6H585.5z"/>
	<path class="st2" d="M593.8,67.1l0.9-6.4h2.4l-2.2,6.4H593.8z"/>
	<path class="st2" d="M605.1,63.6v-25l-5.1,1.9l-0.3-1.5l5.5-2h1.6v26.6H605.1z"/>
	<path class="st2" d="M613.3,61.6l1-1.4c1.5,1.5,3.7,2.3,5.8,2.2c5.2,0,8.3-5.8,8.2-12.8c-1.9,2.4-4.8,3.8-7.8,3.8
		c-5.8,0-8.2-3.7-8.2-8.3c0-4.9,3.3-8.8,8.7-8.8c4.9,0,9.1,4.1,9.1,13.3c0,7.7-3.9,14.3-10,14.3C617.6,64.2,615.2,63.3,613.3,61.6z
		 M628.3,47.5c-0.6-6.5-3.8-9.4-7.4-9.4c-4,0-6.8,2.6-6.8,7.2c0,3.9,2,6.7,6.5,6.7C623.8,51.8,626.6,50.1,628.3,47.5L628.3,47.5z"/>
	<path class="st2" d="M633.3,57.2c0-3.8,2.7-5.8,7.3-7.8c-3.8-1.7-6.1-3.4-6.1-6.6s3.1-6.3,8-6.3s8,3.1,8,6.3s-2.2,4.8-6.2,6.5
		c4.8,2.1,7.4,4,7.4,7.9c0,3.6-3.4,6.8-9.2,6.8S633.3,60.9,633.3,57.2z M650,57.1c0-3.2-2.7-5-7.5-7c-5.2,2.3-7.4,3.9-7.4,7
		s3.2,5.4,7.5,5.4S650,60.4,650,57.1z M648.8,42.8c0-2.3-1.9-4.8-6.2-4.8c-4.1,0-6.2,2.4-6.2,4.6c0,2.7,1.9,4,6.3,5.9
		C646.9,46.7,648.7,45.5,648.8,42.8L648.8,42.8z"/>
	<path class="st3" d="M634.9,307.6v-13.3h-4.8v-3h13l0.5,3h-5.1v13.3H634.9z"/>
	<path class="st3" d="M644.3,299.4c0-5.7,3.7-8.5,7.7-8.5s7.7,2.7,7.7,8.5s-3.7,8.5-7.7,8.5S644.3,305.1,644.3,299.4z M656.1,299.4
		c0-3.4-1.6-5.5-4.1-5.5s-4.1,2.1-4.1,5.5s1.6,5.6,4.1,5.6S656.1,302.8,656.1,299.4z"/>
	<path class="st3" d="M665.3,307.6v-13.3h-4.8v-3h13l0.5,3h-5.1v13.3H665.3z"/>
	<path class="st3" d="M672.6,307.6l5.8-16.4h3.4l5.7,16.1l-3.5,0.5l-1.3-3.9h-5.5l-1.2,3.6L672.6,307.6z M678,301.3h3.8l-1.9-5.5
		l0,0L678,301.3z"/>
	<path class="st3" d="M689.2,307.6v-16.3h3.6v13.4h6.9l0.5,2.9H689.2z"/>
	<path class="st4" d="M634.4,352.9v-24.9l-5.1,1.9l-0.2-1.5l5.5-2h1.6v26.6L634.4,352.9z"/>
	<path class="st4" d="M641,348.3l1.5-0.9c1.9,3.1,4.4,4.4,7.5,4.4c4.2,0,6.7-2.5,6.7-5.9c0-4.1-2.3-6.4-9-6.4h-0.9v-1.6h1.2
		c5.8,0,8.2-1.8,8.2-5.4c0-2.9-1.8-5.1-6-5.1c-2.6,0-5,1.3-6.4,3.5l-1.4-0.9c1.8-2.6,4.7-4.1,7.9-4.1c5.6,0,7.8,3.4,7.8,6.6
		c0.2,3.2-2.2,6-5.4,6.3c4,0.8,6,3.1,6,7.1c0,4.2-3.2,7.6-8.5,7.6C646.3,353.4,642.8,351.5,641,348.3z"/>
	<path class="st4" d="M674.6,352.9V346h-12.8v-1.3l12.1-18.5h2.4v18.2h4.4l0.3,1.6h-4.7v6.8H674.6z M664,344.4h10.7v-16.1h-0.1
		L664,344.4z"/>
	<path class="st4" d="M683.7,356.4l0.9-6.4h2.4l-2.2,6.4H683.7z"/>
	<path class="st4" d="M692.7,352.9l11.5-24.9h-13.8l-0.3-1.7h16v1.6l-11.5,25L692.7,352.9z"/>
	<path class="st4" d="M709.6,350.9l1-1.4c1.5,1.5,3.7,2.3,5.8,2.2c5.2,0,8.3-5.8,8.2-12.9c-1.9,2.4-4.8,3.8-7.8,3.9
		c-5.8,0-8.2-3.7-8.2-8.3c0-4.9,3.3-8.8,8.7-8.8c4.9,0,9.1,4.1,9.1,13.4c0,7.7-3.9,14.3-10,14.3
		C713.9,353.5,711.5,352.6,709.6,350.9z M724.6,336.7c-0.6-6.5-3.8-9.4-7.4-9.4c-4,0-6.8,2.6-6.8,7.2c0,3.9,2,6.7,6.5,6.7
		C720.1,341.1,722.9,339.4,724.6,336.7L724.6,336.7z"/>
	<path class="st4" d="M729.2,352.9v-0.6c0-3.9,2.1-7.3,9.1-11.8c4-2.5,5.6-4.5,5.6-7.5c0-3.4-2-5.7-5.9-5.7c-3.1,0-5.2,1.5-6.8,4.9
		l-1.5-0.7c1.7-3.7,4.6-5.7,8.3-5.7c4.7,0,7.6,3,7.6,7.2c0,3.8-2,6-7.1,9.3s-7.5,6.4-7.5,9h14.6l0.3,1.7L729.2,352.9z"/>
</g>
<g>
	<path d="M76.8,26.8V13.5H72v-3h13l0.5,3h-5.1v13.3H76.8z"/>
	<path d="M87.1,26.8v-16l3.5-0.5v6.7c0.7-0.9,2-2.1,4-2.1c2,0,3.4,1,3.4,3.4v8.6h-3.5v-7.4c0-1.1-0.4-1.6-1.4-1.6s-1.8,0.5-2.6,1.2
		v7.9H87.1z"/>
	<path d="M100.1,21c0-4.6,3.5-6.1,5.9-6.1s5.4,1.2,5.4,6.5v0.5h-7.8c0.2,1.9,1.3,2.7,2.7,2.7c1.4,0,2.7-0.6,3.5-1.3l1.3,2
		c-1.4,1.2-3.1,1.8-5.1,1.8C103,27,100.1,25.5,100.1,21z M108.2,19.8c-0.2-1.7-0.9-2.4-2.2-2.4c-1.1,0-2,0.7-2.3,2.4H108.2z"/>
</g>
</svg>
