<svg width="750" height="374" viewBox="0 0 750 374" xmlns="http://www.w3.org/2000/svg" xmlns:xlink="http://www.w3.org/1999/xlink"><title>Page 1</title><defs><path id="a" d="M43.438 34.138V.841H.139v33.297z"/><path id="c" d="M0 374h749.438V.62H0z"/></defs><g fill="none" fill-rule="evenodd"><path fill="#D8D8D8" d="M664.915 337.708l1.904 3.296 6.848-3.954v-2.638h-6.849z"/><path stroke="#FFF" stroke-width=".5" stroke-linejoin="bevel" d="M664.915 337.708l1.904 3.296 6.848-3.954v-2.638h-6.849z"/><path d="M742.135 325.63l-2.303 3.987-3.301-.003v5.804h3.598l3.347-5.8h3.662l2.3-3.988h-4.603v-6.838l-2.72-1.571.02 8.409zm-35.995 22.587l3.987 2.302 20.268-11.703v-4.603l-24.255 14.004z" fill="#D8D8D8"/><g transform="translate(706 316.38)"><mask id="b" fill="#fff"><use xlink:href="#a"/></mask><path d="M38.834 9.25V2.41L36.114.84l.02 8.408-2.303 3.987-3.3-.003v5.805h3.597l3.348-5.8h3.662l2.3-3.989h-4.604zM.14 31.836l24.256-14.005v4.604L4.126 34.138l-3.987-2.3z" stroke="#FFF" stroke-width=".5" stroke-linejoin="bevel" mask="url(#b)"/></g><path fill="#D8D8D8" d="M314.83 67.7v2.532l-2.905 1.678v2.107l3.926.01 3.988-2.303.007-2.259-4.067-2.313z"/><path stroke="#FFF" stroke-width=".5" stroke-linejoin="bevel" d="M314.83 67.7v2.532l-2.905 1.678v2.107l3.926.01 3.988-2.303.007-2.259-4.067-2.313z"/><path fill="#D8D8D8" d="M163.832 168.43h3.905v-1.211h-3.905z"/><path stroke="#FFF" stroke-width=".5" stroke-linejoin="bevel" d="M163.832 168.43h3.905v-1.211h-3.905z"/><path fill="#D8D8D8" d="M408.549 121.299h3.798v-1.381h-3.798z"/><path stroke="#FFF" stroke-width=".5" stroke-linejoin="bevel" d="M408.549 121.299h3.798v-1.381h-3.798z"/><path fill="#D8D8D8" d="M599.825 166.905h3.453v-3.453h-3.453z"/><path stroke="#FFF" stroke-width=".5" stroke-linejoin="bevel" d="M599.825 166.905h3.453v-3.453h-3.453z"/><path fill="#D8D8D8" d="M626.41 156.516h2.84v-8.471h-2.84z"/><path stroke="#FFF" stroke-width=".5" stroke-linejoin="bevel" d="M626.41 156.516h2.84v-8.471h-2.84z"/><path d="M648.334 125.496h3.6v-1.994h-3.6v1.994zm15.793-25.514l-2.549-4.417h-4.604l-2.076-3.595-2.964-.004 4.628 8.016h7.565zm-4.529 21.555H647.74l-3.987 2.301 2.931 1.693v5.294h-2.24v-3.956l-2.318-1.338v-3.197l6.625-3.825 5.15.004v-2.302l5.055-2.919v-4.603l-3.221-5.58 4.436 2.561 3.431 5.943v7.637l-3.986 2.303-.018-.016z" fill="#D8D8D8"/><path d="M648.334 125.496h3.6v-1.994h-3.6v1.994zm15.793-25.514l-2.549-4.417h-4.604l-2.076-3.595-2.964-.004 4.628 8.016h7.565zm-4.529 21.555H647.74l-3.987 2.301 2.931 1.693v5.294h-2.24v-3.956l-2.318-1.338v-3.197l6.625-3.825 5.15.004v-2.302l5.055-2.919v-4.603l-3.221-5.58 4.436 2.561 3.431 5.943v7.637l-3.986 2.303-.018-.016z" stroke="#FFF" stroke-width=".5" stroke-linejoin="bevel"/><path d="M705.476 236.962h7.077v-1.828h-7.077v1.828zm-6.409 1.275l5.597 9.696h-4.17l-3.802-6.584-.014-.013h-6.926v3.305h-4.149v-16.112h4.603l6.495 3.749-.009 2.852.003.003h3.431l1.791 3.102-2.85.002z" fill="#D8D8D8"/><path d="M705.476 236.962h7.077v-1.828h-7.077v1.828zm-6.409 1.275l5.597 9.696h-4.17l-3.802-6.584-.014-.013h-6.926v3.305h-4.149v-16.112h4.603l6.495 3.749-.009 2.852.003.003h3.431l1.791 3.102-2.85.002z" stroke="#FFF" stroke-width=".5" stroke-linejoin="bevel"/><path fill="#D8D8D8" d="M308.71 38.608l-3.986-2.302-1.993 1.151h-4.604l-2.482 1.433v-2.464h-3.67v3.333h2.165v3.014h7.357z"/><path stroke="#FFF" stroke-width=".5" stroke-linejoin="bevel" d="M308.71 38.608l-3.986-2.302-1.993 1.151h-4.604l-2.482 1.433v-2.464h-3.67v3.333h2.165v3.014h7.357z"/><path fill="#D8D8D8" d="M628.088 108.192l3.147-5.45v-4.604l-5.995 3.05h-2.26l-3.13 5.421h4.576v5.807h3.912l3.696-1.946z"/><path stroke="#FFF" stroke-width=".5" stroke-linejoin="bevel" d="M628.088 108.192l3.147-5.45v-4.604l-5.995 3.05h-2.26l-3.13 5.421h4.576v5.807h3.912l3.696-1.946z"/><path fill="#D8D8D8" d="M632.035 110.47l-3.696 1.946 3.43 5.944-.006 3.155 4.932-2.84z"/><path stroke="#FFF" stroke-width=".5" stroke-linejoin="bevel" d="M632.035 110.47l-3.696 1.946 3.43 5.944-.006 3.155 4.932-2.84z"/><path d="M354.964 58.97l-3.986 2.301v2.973h3.986V58.97zm4.131 4.303l-1.13 1.86h-1.342v-2.847h2.472v.987z" fill="#D8D8D8"/><path d="M354.964 58.97l-3.986 2.301v2.973h3.986V58.97zm4.131 4.303l-1.13 1.86h-1.342v-2.847h2.472v.987z" stroke="#FFF" stroke-width=".5" stroke-linejoin="bevel"/><path fill="#D8D8D8" d="M538.635 92.53h4.154l11.058 6.385h11.393l4.958 2.862h4.826l3.356-1.937h5.851l1.885-3.267-.019-3.897h4.464l3.234-1.867-.019-2.278h6.547v-2.262l-3.308-1.91h-8.345V78.98h-8.039l-3.536 2.042h-4.923l-5.09-2.94h-9.266l-7.652-4.417h-4.914l1.911 3.309v2.262h-4.725l-5.063-2.92h-5.99l-7.7 4.47 12.273 7.087z"/><path stroke="#FFF" stroke-width=".5" stroke-linejoin="bevel" d="M538.635 92.53h4.154l11.058 6.385h11.393l4.958 2.862h4.826l3.356-1.937h5.851l1.885-3.267-.019-3.897h4.464l3.234-1.867-.019-2.278h6.547v-2.262l-3.308-1.91h-8.345V78.98h-8.039l-3.536 2.042h-4.923l-5.09-2.94h-9.266l-7.652-4.417h-4.914l1.911 3.309v2.262h-4.725l-5.063-2.92h-5.99l-7.7 4.47 12.273 7.087z"/><path fill="#D8D8D8" d="M429.754 121.207l-5.442 3.142v4.372l16.346 9.439h3.072v-2.788h2.343v-7.686l-5.116-2.993V118l-5.547-3.203h-5.656z"/><path stroke="#FFF" stroke-width=".5" stroke-linejoin="bevel" d="M429.754 121.207l-5.442 3.142v4.372l16.346 9.439h3.072v-2.788h2.343v-7.686l-5.116-2.993V118l-5.547-3.203h-5.656z"/><path fill="#D8D8D8" d="M366.319 206.095v-3.321l2.942-5.096-4.031-2.328v-1.873h3.572l-2.258-3.912v-4.55l-3.421 1.976v4.884l-4.854 8.406-.067-.04-2.573-1.484-3.276 5.673v2.54l2.796-.001v4.603l-.035.06 2.51 1.45h12.774z"/><path stroke="#FFF" stroke-width=".5" stroke-linejoin="bevel" d="M366.319 206.095v-3.321l2.942-5.096-4.031-2.328v-1.873h3.572l-2.258-3.912v-4.55l-3.421 1.976v4.884l-4.854 8.406-.067-.04-2.573-1.484-3.276 5.673v2.54l2.796-.001v4.603l-.035.06 2.51 1.45h12.774z"/><path fill="#D8D8D8" d="M529.126 134.085h-3.416v4.764l6.682 3.858h5.38l2.848 1.645h4.952v-4.12h-5.65z"/><path stroke="#FFF" stroke-width=".5" stroke-linejoin="bevel" d="M529.126 134.085h-3.416v4.764l6.682 3.858h5.38l2.848 1.645h4.952v-4.12h-5.65z"/><path fill="#D8D8D8" d="M591.765 190.166l7.152-4.13v-8.358l-3.658-6.339-7.364-4.25 1.617-2.802v-2.26l-7.648-4.416-3.402 1.963-1.416.853 2.74 4.91.001.002h1.742v4.47H588l5.664 3.27v5.707h-6.18v4.994l1.494.863v3.913z"/><path stroke="#FFF" stroke-width=".5" stroke-linejoin="bevel" d="M591.765 190.166l7.152-4.13v-8.358l-3.658-6.339-7.364-4.25 1.617-2.802v-2.26l-7.648-4.416-3.402 1.963-1.416.853 2.74 4.91.001.002h1.742v4.47H588l5.664 3.27v5.707h-6.18v4.994l1.494.863v3.913z"/><path d="M590.882 223.03v-3.745l-9.42-5.44-5.192-8.992h-5.804v.975l3.986 2.302 6.302 10.914 2.006 1.158 8.78 15.209h4.363l-.002-9.483-5.019-2.897zm21.145 20.38h10.745l-3.23-1.844h-3.528l-3.987-2.302h-7.18l-3.986-2.301-3.987 2.3 1.436 2.489h10.837l2.88 1.658zm39.907-24.574h1.925v-6.042h-1.925v6.042zm-16.2-1.553h9.32v-1.723h-9.32v1.723zm16.2 11.738h7.19v-1.726h-7.19v1.726zm-14.713 16.17v-1.781h-9.39l3.084 1.78h6.306zm40.808-21.035l-7.137 4.122-3.35-1.935-3.082 1.778 8.64 4.989.002.002h3.547l2.958 5.124-2.302 3.986h5.671v2.419h2.627V228.53l-7.574-4.374zm-33.478 21.615l-.606-1.05-4.245 2.452.607 1.049 4.244-2.451zm22.527-7.924h1.212v-2.524h-1.212v2.524zM640.2 221.42h-2.796l-2.734 1.578-2.734-1.578-2.303 3.99v4.605l2.956 5.119v-6.631l1.837-1.061 2.302 3.987h2.803l-3.306-5.728 3.975-2.312v-1.97zm26.09 3.63v-3.398l-3.178-1.834-3.987 2.302 2.37 1.368v1.562h4.794zm-42.47-17.951h2.534l.044 14.038-3.987 2.302.001 6.906h-3.999l-2.104-3.624h-8.703v-4.604l-3.484-6.032 2.344-1.353 3.623 2.09h2.261l2.85-1.645 3.868-.006 4.752-8.072z" fill="#D8D8D8"/><path d="M590.882 223.03v-3.745l-9.42-5.44-5.192-8.992h-5.804v.975l3.986 2.302 6.302 10.914 2.006 1.158 8.78 15.209h4.363l-.002-9.483-5.019-2.897zm21.145 20.38h10.745l-3.23-1.844h-3.528l-3.987-2.302h-7.18l-3.986-2.301-3.987 2.3 1.436 2.489h10.837l2.88 1.658zm39.907-24.574h1.925v-6.042h-1.925v6.042zm-16.2-1.553h9.32v-1.723h-9.32v1.723zm16.2 11.738h7.19v-1.726h-7.19v1.726zm-14.713 16.17v-1.781h-9.39l3.084 1.78h6.306zm40.808-21.035l-7.137 4.122-3.35-1.935-3.082 1.778 8.64 4.989.002.002h3.547l2.958 5.124-2.302 3.986h5.671v2.419h2.627V228.53l-7.574-4.374zm-33.478 21.615l-.606-1.05-4.245 2.452.607 1.049 4.244-2.451zm22.527-7.924h1.212v-2.524h-1.212v2.524zM640.2 221.42h-2.796l-2.734 1.578-2.734-1.578-2.303 3.99v4.605l2.956 5.119v-6.631l1.837-1.061 2.302 3.987h2.803l-3.306-5.728 3.975-2.312v-1.97zm26.09 3.63v-3.398l-3.178-1.834-3.987 2.302 2.37 1.368v1.562h4.794zm-42.47-17.951h2.534l.044 14.038-3.987 2.302.001 6.906h-3.999l-2.104-3.624h-8.703v-4.604l-3.484-6.032 2.344-1.353 3.623 2.09h2.261l2.85-1.645 3.868-.006 4.752-8.072z" stroke="#FFF" stroke-width=".5" stroke-linejoin="bevel"/><path d="M582.72 203.553l.985 1.709v2.698l2.302 3.987 6.337 3.657v-3.661l-1.993-1.15v-4.604l-2.302-3.987-2.339 1.35h-2.99zm44.602 3.547h-3.502l-4.752 8.072-3.868.006-2.85 1.646h-2.26l-3.624-2.091 4.95-2.855h3.317l1.763-3.054h2.578v-2.406l1.76.002 3.26-5.647 5.157 2.978-1.928 3.349z" fill="#D8D8D8"/><path d="M582.72 203.553l.985 1.709v2.698l2.302 3.987 6.337 3.657v-3.661l-1.993-1.15v-4.604l-2.302-3.987-2.339 1.35h-2.99zm44.602 3.547h-3.502l-4.752 8.072-3.868.006-2.85 1.646h-2.26l-3.624-2.091 4.95-2.855h3.317l1.763-3.054h2.578v-2.406l1.76.002 3.26-5.647 5.157 2.978-1.928 3.349z" stroke="#FFF" stroke-width=".5" stroke-linejoin="bevel"/><path fill="#D8D8D8" d="M358.89 213.082h-1.267l-2.509-1.45-2.267 3.927h6.042z"/><path stroke="#FFF" stroke-width=".5" stroke-linejoin="bevel" d="M358.89 213.082h-1.267l-2.509-1.45-2.267 3.927h6.042z"/><path fill="#D8D8D8" d="M417.468 127.092h-1.92l-2.379 4.105 2.633 4.59 1.666-2.922z"/><path stroke="#FFF" stroke-width=".5" stroke-linejoin="bevel" d="M417.468 127.092h-1.92l-2.379 4.105 2.633 4.59 1.666-2.922z"/><path fill="#D8D8D8" d="M564.206 136.73h-5.414l-4.024 6.97h-6.933v-3.47h-2.263v4.123h-4.952l-2.849-1.645h-5.378l-6.683-3.858v-4.764l-4.903-2.833v-4.348l-1.881-3.26-.725-1.254-1.673-2.898h-3.608v2.26h-5.452v2.261l3.344 5.794-6.446 11.162-3.349-.004-1.13 1.958 4.796 2.77v5.24l-4.013 2.395 3.644 6.313 5.131-2.963 2.303 3.988v11.904l10.876 18.837v4.604l.005.004h2.307l4.914-8.512v-12.69l7.391-4.266 7.999-13.853h4.465l-2.059-3.565v-6.108l1.959-1.131 1.13 1.959h6.45v2.26l-1.13 1.958 2.803 4.856 3.47-6.106v-6.109l1.13-1.958h2.263l2.227-3.86z"/><path stroke="#FFF" stroke-width=".5" stroke-linejoin="bevel" d="M564.206 136.73h-5.414l-4.024 6.97h-6.933v-3.47h-2.263v4.123h-4.952l-2.849-1.645h-5.378l-6.683-3.858v-4.764l-4.903-2.833v-4.348l-1.881-3.26-.725-1.254-1.673-2.898h-3.608v2.26h-5.452v2.261l3.344 5.794-6.446 11.162-3.349-.004-1.13 1.958 4.796 2.77v5.24l-4.013 2.395 3.644 6.313 5.131-2.963 2.303 3.988v11.904l10.876 18.837v4.604l.005.004h2.307l4.914-8.512v-12.69l7.391-4.266 7.999-13.853h4.465l-2.059-3.565v-6.108l1.959-1.131 1.13 1.959h6.45v2.26l-1.13 1.958 2.803 4.856 3.47-6.106v-6.109l1.13-1.958h2.263l2.227-3.86z"/><path fill="#D8D8D8" d="M446.074 135.371h-2.344v2.788h3.954z"/><path stroke="#FFF" stroke-width=".5" stroke-linejoin="bevel" d="M446.074 135.371h-2.344v2.788h3.954z"/><path fill="#D8D8D8" d="M392.144 157.552v3.453h-2.519v13.983h-2.234l-2.952 5.115 3.099 5.367v2.788l3.169 5.489 4.879-2.818h2.778l1.131 1.959 4.727-2.73v-2.26l4.238-2.448v4.988h2.261l1.959-1.13h3.12l4.957-8.494v-6.726l1.655-2.865 2.936-1.695-3.324-5.758v-3.913l-2.791-4.835-4.383 2.53z"/><path stroke="#FFF" stroke-width=".5" stroke-linejoin="bevel" d="M392.144 157.552v3.453h-2.519v13.983h-2.234l-2.952 5.115 3.099 5.367v2.788l3.169 5.489 4.879-2.818h2.778l1.131 1.959 4.727-2.73v-2.26l4.238-2.448v4.988h2.261l1.959-1.13h3.12l4.957-8.494v-6.726l1.655-2.865 2.936-1.695-3.324-5.758v-3.913l-2.791-4.835-4.383 2.53z"/><path fill="#D8D8D8" d="M432.922 181.299l2.488 4.31 2.116-1.222-3.07-5.316-5.397-3.116-3.71-6.427-2.938 1.695-1.654 2.865v4.67h7.766z"/><path stroke="#FFF" stroke-width=".5" stroke-linejoin="bevel" d="M432.922 181.299l2.488 4.31 2.116-1.222-3.07-5.316-5.397-3.116-3.71-6.427-2.938 1.695-1.654 2.865v4.67h7.766z"/><path fill="#D8D8D8" d="M435.41 188.4l2.084 1.204 2.267-1.347-2.235-3.87-2.115 1.222z"/><path stroke="#FFF" stroke-width=".5" stroke-linejoin="bevel" d="M435.41 188.4l2.084 1.204 2.267-1.347-2.235-3.87-2.115 1.222z"/><path fill="#D8D8D8" d="M574.069 172.57v4.604l3.12 5.406v-8.052l-1.792-3.106-2.791-1.612v-6.705l5.857-3.531-4.59-7.95h-4.201v-3.282l2.622-1.514.02-5.416-4.365-2.52-2.23 3.859h-2.26l-1.13 1.959v6.109l-3.471 6.106-1.054 1.826 3.286 5.69.004.005h2.302l2.302 3.987v6.382l.004.003h3.053l2.3-3.987z"/><path stroke="#FFF" stroke-width=".5" stroke-linejoin="bevel" d="M574.069 172.57v4.604l3.12 5.406v-8.052l-1.792-3.106-2.791-1.612v-6.705l5.857-3.531-4.59-7.95h-4.201v-3.282l2.622-1.514.02-5.416-4.365-2.52-2.23 3.859h-2.26l-1.13 1.959v6.109l-3.471 6.106-1.054 1.826 3.286 5.69.004.005h2.302l2.302 3.987v6.382l.004.003h3.053l2.3-3.987z"/><path fill="#D8D8D8" d="M432.308 211.348l1.272-2.205h-8.577l-4.641-2.679h-4.476v2.26l2.516 4.357-2.466 4.271v1.434H416v4.182l9.435 5.447v2.071l3.132 1.81 5.013-8.686-1.272-2.185z"/><path stroke="#FFF" stroke-width=".5" stroke-linejoin="bevel" d="M432.308 211.348l1.272-2.205h-8.577l-4.641-2.679h-4.476v2.26l2.516 4.357-2.466 4.271v1.434H416v4.182l9.435 5.447v2.071l3.132 1.81 5.013-8.686-1.272-2.185z"/><path fill="#D8D8D8" d="M384.652 295.244l2.088-3.619h6.309l4.497-7.787 3.37-1.946-6.953-12.044h-3.256l-1.331 2.281h-7.326v9.285h-2.865v8.213l3.205 5.617z"/><path stroke="#FFF" stroke-width=".5" stroke-linejoin="bevel" d="M384.652 295.244l2.088-3.619h6.309l4.497-7.787 3.37-1.946-6.953-12.044h-3.256l-1.331 2.281h-7.326v9.285h-2.865v8.213l3.205 5.617z"/><path d="M399.818 306.05l-4.074-2.352 2.41-4.174h2.26l1.592 2.755-2.188 3.77zm7.523-11.688v1.899h-2.503v-3.797h2.503v-10.572h-6.425l-3.37 1.946-4.497 7.788h-6.31l-2.087 3.618h-2.262l-3.205-5.616v9.81h-6.258l-2.132 1.23 4.588 7.948v4.604l2.302 3.987 3.987-2.302h11.913l8.784-5.072 7.368-12.761v-2.71h-2.396z" fill="#D8D8D8"/><path d="M399.818 306.05l-4.074-2.352 2.41-4.174h2.26l1.592 2.755-2.188 3.77zm7.523-11.688v1.899h-2.503v-3.797h2.503v-10.572h-6.425l-3.37 1.946-4.497 7.788h-6.31l-2.087 3.618h-2.262l-3.205-5.616v9.81h-6.258l-2.132 1.23 4.588 7.948v4.604l2.302 3.987 3.987-2.302h11.913l8.784-5.072 7.368-12.761v-2.71h-2.396z" stroke="#FFF" stroke-width=".5" stroke-linejoin="bevel"/><path fill="#D8D8D8" d="M359.538 233.805l1.058 1.833h1.425v-1.808l1.871-1.081-1.258-.727z"/><path stroke="#FFF" stroke-width=".5" stroke-linejoin="bevel" d="M359.538 233.805l1.058 1.833h1.425v-1.808l1.871-1.081-1.258-.727z"/><path fill="#D8D8D8" d="M330.347 194.91v-7.148h-7.425v10.148l-1.13 1.958v3.906h7.015l2.626-1.516v-5.468z"/><path stroke="#FFF" stroke-width=".5" stroke-linejoin="bevel" d="M330.347 194.91v-7.148h-7.425v10.148l-1.13 1.958v3.906h7.015l2.626-1.516v-5.468z"/><path fill="#D8D8D8" d="M333.863 192.682l-1.131-1.958v-2.962h-2.385v7.148l1.086 1.88v5.468l2.43-1.403z"/><path stroke="#FFF" stroke-width=".5" stroke-linejoin="bevel" d="M333.863 192.682l-1.131-1.958v-2.962h-2.385v7.148l1.086 1.88v5.468l2.43-1.403z"/><path fill="#D8D8D8" d="M289.696 181.368h5.897v-1.416h-6.691z"/><path stroke="#FFF" stroke-width=".5" stroke-linejoin="bevel" d="M289.696 181.368h5.897v-1.416h-6.691z"/><path fill="#D8D8D8" d="M307.912 200.804v-2.107l-4.89-2.823-2.35 4.071 10.65 6.15v-3.32z"/><path stroke="#FFF" stroke-width=".5" stroke-linejoin="bevel" d="M307.912 200.804v-2.107l-4.89-2.823-2.35 4.071 10.65 6.15v-3.32z"/><path fill="#D8D8D8" d="M296.34 183.729h-5.276l2.012 3.487 3.263-1.916z"/><path stroke="#FFF" stroke-width=".5" stroke-linejoin="bevel" d="M296.34 183.729h-5.276l2.012 3.487 3.263-1.916z"/><path fill="#D8D8D8" d="M301.542 191.231h-3.39l-2.074 1.184 1.133 1.962v3.57l3.461 1.998 2.35-4.07v-2.072z"/><path stroke="#FFF" stroke-width=".5" stroke-linejoin="bevel" d="M301.542 191.231h-3.39l-2.074 1.184 1.133 1.962v3.57l3.461 1.998 2.35-4.07v-2.072z"/><path fill="#D8D8D8" d="M354.516 89.304V86.12h-6.977l-1.862 3.226 1.974 1.13.431.745 3.33-1.918z"/><path stroke="#FFF" stroke-width=".5" stroke-linejoin="bevel" d="M354.516 89.304V86.12h-6.977l-1.862 3.226 1.974 1.13.431.745 3.33-1.918z"/><path d="M373.345 105.564l-9.89-5.709-4.248-7.517 2.817-1.626v-2.903h-7.508v1.495h-3.104l-3.33 1.918 2.302 3.972h5.396l3.498 6.201 8.71 5.029v5.553l1.788-1.032-.003-5.38 3.572-.001zm-13.433 6.811l5.79 3.342v-3.342h-5.79zm-8.329-7.664l2.161-1.248v4.775l-2.16 1.248v-4.775z" fill="#D8D8D8"/><path d="M373.345 105.564l-9.89-5.709-4.248-7.517 2.817-1.626v-2.903h-7.508v1.495h-3.104l-3.33 1.918 2.302 3.972h5.396l3.498 6.201 8.71 5.029v5.553l1.788-1.032-.003-5.38 3.572-.001zm-13.433 6.811l5.79 3.342v-3.342h-5.79zm-8.329-7.664l2.161-1.248v4.775l-2.16 1.248v-4.775z" stroke="#FFF" stroke-width=".5" stroke-linejoin="bevel"/><path fill="#D8D8D8" d="M384.439 96.248v5.75h9.146v-1.709h3.09v-2.53l.02-.033-2.56-1.478z"/><path stroke="#FFF" stroke-width=".5" stroke-linejoin="bevel" d="M384.439 96.248v5.75h9.146v-1.709h3.09v-2.53l.02-.033-2.56-1.478z"/><path fill="#D8D8D8" d="M359.912 43.094l2.747-1.586 3.14-5.439 1.79.002 2.556-4.427 2.916-.003 3.039-1.785h3.3l-.038-.067.039.067h9.804l4.263-2.462h-20.335l-9.5 5.488-3.624 6.278-14.281 8.245v4.603l2.302 3.987h2.534l7.619-4.398 1.729-3.04z"/><path stroke="#FFF" stroke-width=".5" stroke-linejoin="bevel" d="M359.912 43.094l2.747-1.586 3.14-5.439 1.79.002 2.556-4.427 2.916-.003 3.039-1.785h3.3l-.038-.067.039.067h9.804l4.263-2.462h-20.335l-9.5 5.488-3.624 6.278-14.281 8.245v4.603l2.302 3.987h2.534l7.619-4.398 1.729-3.04z"/><path d="M393.584 100.29v3.79h.118l2.974-1.717v-2.074h-3.092zm25.68 14.507l-2.787 1.61-1.006-1.745-3.988 2.302h-14.269l-3.63-6.288v-5.294h3.826v-2.008h7.152l3.51-2.027h4.604l3.986 2.302h16.083v2.258l1.167 2.044 1.498 2.617v4.23h-16.146z" fill="#2ECDCD"/><path d="M393.584 100.29v3.79h.118l2.974-1.717v-2.074h-3.092zm25.68 14.507l-2.787 1.61-1.006-1.745-3.988 2.302h-14.269l-3.63-6.288v-5.294h3.826v-2.008h7.152l3.51-2.027h4.604l3.986 2.302h16.083v2.258l1.167 2.044 1.498 2.617v4.23h-16.146z" stroke="#FFF" stroke-width=".5"/><g transform="translate(0 -.62)"><path d="M298.702 179.622l1.723-2.983h16.306v-2.262l-1.815-3.144v-21.345h3.748c-4.436-2.56-9.474-5.47-9.474-5.47v2.25h-8.42v7.073l-3.115 1.798v4.071h-8.23v13.796h5.688l3.589 6.216z" fill="#D8D8D8"/><path d="M298.702 179.622l1.723-2.983h16.306v-2.262l-1.815-3.144v-21.345h3.748c-4.436-2.56-9.474-5.47-9.474-5.47v2.25h-8.42v7.073l-3.115 1.798v4.071h-8.23v13.796h5.688l3.589 6.216z" stroke="#FFF" stroke-width=".5" stroke-linejoin="bevel"/><path fill="#D8D8D8" d="M359.711 154.627v.044l-18.964 10.949v12.186h-10.753v2.502l5.751 3.32v3.015l3.108 1.794 1.957-3.411v-4.153h3.448l3.845 2.219 6.166-.016 1.958-1.131h7.998v-3.121l5.036-8.723v-8.691l-1.674-2.9v-2.26h-5.142z"/><path stroke="#FFF" stroke-width=".5" stroke-linejoin="bevel" d="M359.711 154.627v.044l-18.964 10.949v12.186h-10.753v2.502l5.751 3.32v3.015l3.108 1.794 1.957-3.411v-4.153h3.448l3.845 2.219 6.166-.016 1.958-1.131h7.998v-3.121l5.036-8.723v-8.691l-1.674-2.9v-2.26h-5.142z"/><path fill="#D8D8D8" d="M390.596 131.206l-6.112-3.529h-4.937v5.831l-2.27 1.311-3.988-2.302h-4.603l-2.672-4.626h-9.144v2.285l-2.309 4v10.275l-2.214 3.852 7.364 4.252v2.071l2.735 1.623h5.141l3.108-1.793 18.93 10.93v-3.762h2.52v-27.452l1.712-2.966z"/><path stroke="#FFF" stroke-width=".5" stroke-linejoin="bevel" d="M390.596 131.206l-6.112-3.529h-4.937v5.831l-2.27 1.311-3.988-2.302h-4.603l-2.672-4.626h-9.144v2.285l-2.309 4v10.275l-2.214 3.852 7.364 4.252v2.071l2.735 1.623h5.141l3.108-1.793 18.93 10.93v-3.762h2.52v-27.452l1.712-2.966z"/><path fill="#D8D8D8" d="M349.413 125.258l5.147 8.918 2.31-4v-2.285h-.11l-2.301-3.987 2.301-3.986-2.301-3.987h-3.497v6.64z"/><path stroke="#FFF" stroke-width=".5" stroke-linejoin="bevel" d="M349.413 125.258l5.147 8.918 2.31-4v-2.285h-.11l-2.301-3.987 2.301-3.986-2.301-3.987h-3.497v6.64z"/><path d="M327.978 177.806h12.77V165.62l-6.223-3.593v-2.981l-15.861-9.157h-3.749v21.345l1.816 3.143v2.262h-16.307l-1.722 2.983 1.423 2.466v2.261l1.958 1.13h5.131l2.717 4.705h6.174v-5.524l11.873-6.854z" fill="#D8D8D8"/><path d="M327.978 177.806h12.77V165.62l-6.223-3.593v-2.981l-15.861-9.157h-3.749v21.345l1.816 3.143v2.262h-16.307l-1.722 2.983 1.423 2.466v2.261l1.958 1.13h5.131l2.717 4.705h6.174v-5.524l11.873-6.854z" stroke="#FFF" stroke-width=".5" stroke-linejoin="bevel"/><path fill="#D8D8D8" d="M407.09 209.707v5.691l-3.25 5.632v2.262h6.346v-3.886h5.75v-1.434l2.465-4.27-2.516-4.358v-2.26l-4.617 2.623z"/><path stroke="#FFF" stroke-width=".5" stroke-linejoin="bevel" d="M407.09 209.707v5.691l-3.25 5.632v2.262h6.346v-3.886h5.75v-1.434l2.465-4.27-2.516-4.358v-2.26l-4.617 2.623z"/><path fill="#D8D8D8" d="M296.664 142.445l-7.24 12.541v4.624h8.23v-4.07l3.115-1.799v-7.072h8.42v-5.068h-11.063z"/><path stroke="#FFF" stroke-width=".5" stroke-linejoin="bevel" d="M296.664 142.445l-7.24 12.541v4.624h8.23v-4.07l3.115-1.799v-7.072h8.42v-5.068h-11.063z"/><path fill="#D8D8D8" d="M315.526 110.816v-8.79h-4.283v13.506h2.992v-4.03z"/><path stroke="#FFF" stroke-width=".5" stroke-linejoin="bevel" d="M315.526 110.816v-8.79h-4.283v13.506h2.992v-4.03z"/><path d="M329.297 99.153l-1.952-1.115h-16.103v3.99h4.284v8.788l-1.292.687v4.028l2.943 1.7 3.986-2.303h6.192l6.494-11.247 3.986-2.302-3.828-2.226h-4.71zm6.741 10.431h2.523v-1.212h-2.523v1.212zm-45.326 30.407h2.524v-1.212h-2.524v1.212zm3.62-2.18h2.524v-1.21h-2.524v1.21z" fill="#2ECDCD"/><path d="M329.297 99.153l-1.952-1.115h-16.103v3.99h4.284v8.788l-1.292.687v4.028l2.943 1.7 3.986-2.303h6.192l6.494-11.247 3.986-2.302-3.828-2.226h-4.71zm6.741 10.431h2.523v-1.212h-2.523v1.212zm-45.326 30.407h2.524v-1.212h-2.524v1.212zm3.62-2.18h2.524v-1.21h-2.524v1.21z" stroke="#FFF" stroke-width=".5"/><path fill="#D8D8D8" d="M367.587 88.429l3.597 2.085h6.903l3.301-5.71h-11.595z"/><path stroke="#FFF" stroke-width=".5" stroke-linejoin="bevel" d="M367.587 88.429l3.597 2.085h6.903l3.301-5.71h-11.595z"/><path fill="#D8D8D8" d="M389.204 33.1v-2.624h-9.803l1.091 1.891-.031 4.988.073-.043 5.72 3.303-9.488 5.478 2.83 4.898h12.776l3.563-6.172z"/><path stroke="#FFF" stroke-width=".5" stroke-linejoin="bevel" d="M389.204 33.1v-2.624h-9.803l1.091 1.891-.031 4.988.073-.043 5.72 3.303-9.488 5.478 2.83 4.898h12.776l3.563-6.172z"/><path fill="#D8D8D8" d="M380.45 104.92l3.989-2.302v-1.71h-3.99z"/><path stroke="#FFF" stroke-width=".5" stroke-linejoin="bevel" d="M380.45 104.92l3.989-2.302v-1.71h-3.99z"/><path fill="#D8D8D8" d="M340.895 77.668l4.789 2.765.893-1.546v-2.978l-3.504-2.022z"/><path stroke="#FFF" stroke-width=".5" stroke-linejoin="bevel" d="M340.895 77.668l4.789 2.765.893-1.546v-2.978l-3.504-2.022z"/><path fill="#D8D8D8" d="M384.904 76.173l1.13-1.958v-4.607l-3.59-2.073h-11.758l-2.698 1.558h-3.398v7.071l8.475 5.148h8.323l4.862-2.807z"/><path stroke="#FFF" stroke-width=".5" stroke-linejoin="bevel" d="M384.904 76.173l1.13-1.958v-4.607l-3.59-2.073h-11.758l-2.698 1.558h-3.398v7.071l8.475 5.148h8.323l4.862-2.807z"/><path fill="#D8D8D8" d="M346.577 78.887l-.893 1.546 1.29.745.894-1.546z"/><path stroke="#FFF" stroke-width=".5" stroke-linejoin="bevel" d="M346.577 78.887l-.893 1.546 1.29.745.894-1.546z"/><path fill="#D8D8D8" d="M373.065 81.312l-8.476-5.147-5.586 3.225 2.2 3.81h8.59z"/><path stroke="#FFF" stroke-width=".5" stroke-linejoin="bevel" d="M373.065 81.312l-8.476-5.147-5.586 3.225 2.2 3.81h8.59z"/><path fill="#D8D8D8" d="M362.024 91.332h3.914l1.649-2.904h-5.563z"/><path stroke="#FFF" stroke-width=".5" stroke-linejoin="bevel" d="M362.024 91.332h3.914l1.649-2.904h-5.563z"/><path fill="#D8D8D8" d="M370.398 93.435l4.09 7.098.28.162 1.312-2.35v-4.91z"/><path stroke="#FFF" stroke-width=".5" stroke-linejoin="bevel" d="M370.398 93.435l4.09 7.098.28.162 1.312-2.35v-4.91z"/><path fill="#D8D8D8" d="M433.913 108.571l1.498 2.617h1.926v-2.617z"/><path stroke="#FFF" stroke-width=".5" stroke-linejoin="bevel" d="M433.913 108.571l1.498 2.617h1.926v-2.617z"/><path fill="#D8D8D8" d="M404.837 296.881h2.504v-3.798h-2.504z"/><path stroke="#FFF" stroke-width=".5" stroke-linejoin="bevel" d="M404.837 296.881h2.504v-3.798h-2.504z"/><path fill="#D8D8D8" d="M160.04 169.047l-2.67-4.625h-4.221v4.625z"/><path stroke="#FFF" stroke-width=".5" stroke-linejoin="bevel" d="M160.04 169.047l-2.67-4.625h-4.221v4.625z"/><path fill="#D8D8D8" d="M153.149 164.422h-2.224v2.957h-4.67v1.668h6.894z"/><path stroke="#FFF" stroke-width=".5" stroke-linejoin="bevel" d="M153.149 164.422h-2.224v2.957h-4.67v1.668h6.894z"/><path fill="#D8D8D8" d="M108.404 182.215l3.716 2.145 1.405-2.433-3.746-2.163z"/><path stroke="#FFF" stroke-width=".5" stroke-linejoin="bevel" d="M108.404 182.215l3.716 2.145 1.405-2.433-3.746-2.163z"/><path fill="#D8D8D8" d="M109.779 177.928l1.312-2.22h-3.202v-5.25h-4.724v2.337l1.958 1.13v1.107h-5.31l-.01 4.735.01.019h4.382l4.209 2.43 1.375-2.451z"/><path stroke="#FFF" stroke-width=".5" stroke-linejoin="bevel" d="M109.779 177.928l1.312-2.22h-3.202v-5.25h-4.724v2.337l1.958 1.13v1.107h-5.31l-.01 4.735.01.019h4.382l4.209 2.43 1.375-2.451z"/><path d="M191.166 307.165l1.781-3.085 6.2-10.738v-3.683h-2.44v3.338l-2.458 4.256h-6.568v-8.132l-11.897-7.008H165.6v4.554l-3.17 1.831v20.496l2.598 4.503v19.396l3.465 6.002v11.185l7.292 12.78h5.147l5.471-9.478-6.586-3.802 2.854-1.647v-12.456h4.4v-4.604l10.016-5.782v-3.718l-2.302-3.987-3.618-2.034v-8.187z" fill="#2ECDCD"/><path d="M191.166 307.165l1.781-3.085 6.2-10.738v-3.683h-2.44v3.338l-2.458 4.256h-6.568v-8.132l-11.897-7.008H165.6v4.554l-3.17 1.831v20.496l2.598 4.503v19.396l3.465 6.002v11.185l7.292 12.78h5.147l5.471-9.478-6.586-3.802 2.854-1.647v-12.456h4.4v-4.604l10.016-5.782v-3.718l-2.302-3.987-3.618-2.034v-8.187z" stroke="#FFF" stroke-width=".5"/><path fill="#D8D8D8" d="M165.6 282.113h10.185v-7.497h10.525l1.371-2.375-2.459-4.259v-2.26h-5.985v-7.71h-4.208l-9.173-5.296v-4.994h-2.262l-5.249 3.03V269.6z"/><path stroke="#FFF" stroke-width=".5" stroke-linejoin="bevel" d="M165.6 282.113h10.185v-7.497h10.525l1.371-2.375-2.459-4.259v-2.26h-5.985v-7.71h-4.208l-9.173-5.296v-4.994h-2.262l-5.249 3.03V269.6z"/><path fill="#D8D8D8" d="M119.878 187.809h-4.996v2.75l7.55 4.358v-2.9l-2.554-1.47z"/><path stroke="#FFF" stroke-width=".5" stroke-linejoin="bevel" d="M119.878 187.809h-4.996v2.75l7.55 4.358v-2.9l-2.554-1.47z"/><path fill="#D8D8D8" d="M186.904 371.613l.005.006 3.673 2.12 4.579-.007-11.902-6.87v4.751z"/><path stroke="#FFF" stroke-width=".5" stroke-linejoin="bevel" d="M186.904 371.613l.005.006 3.673 2.12 4.579-.007-11.902-6.87v4.751z"/><path fill="#2ECDCD" d="M145.81 193.584l1.912 3.31v3.314h3.607l3.809 2.199h4.477v12.043l2.073 3.59h2.07l5.641-3.256-2.296-3.976v-3.091h2.262l2.804 1.62 2.992-1.82v-10.35l1.797-1.131-3.168-5.488h-4.603l-3.987 2.302-8.524-4.922-.012-.011h-5.25v6.433h-1.812v-4.497h-1.638z"/><path stroke="#FFF" stroke-width=".5" d="M145.81 193.584l1.912 3.31v3.314h3.607l3.809 2.199h4.477v12.043l2.073 3.59h2.07l5.641-3.256-2.296-3.976v-3.091h2.262l2.804 1.62 2.992-1.82v-10.35l1.797-1.131-3.168-5.488h-4.603l-3.987 2.302-8.524-4.922-.012-.011h-5.25v6.433h-1.812v-4.497h-1.638z"/><path d="M192.948 304.08l-1.781 3.085v8.187l3.618 2.035-.006-.007h7.47l2.089-3.617v-3.107l-11.39-6.576z" fill="#2ECDCD"/><path d="M192.948 304.08l-1.781 3.085v8.187l3.618 2.035-.006-.007h7.47l2.089-3.617v-3.107l-11.39-6.576z" stroke="#FFF" stroke-width=".5"/><path fill="#D8D8D8" d="M179.124 214.423l1.13 1.958 3.625-2.092h3.184l-3.11-5.387 3.19-5.45h-2.68l-4.281-7.416h-3.224l-1.797 1.13v8.309h3.963z"/><path stroke="#FFF" stroke-width=".5" stroke-linejoin="bevel" d="M179.124 214.423l1.13 1.958 3.625-2.092h3.184l-3.11-5.387 3.19-5.45h-2.68l-4.281-7.416h-3.224l-1.797 1.13v8.309h3.963z"/><path fill="#D8D8D8" d="M187.063 214.288h5.266v-10.837h-5.186l-3.19 5.45z"/><path stroke="#FFF" stroke-width=".5" stroke-linejoin="bevel" d="M187.063 214.288h5.266v-10.837h-5.186l-3.19 5.45z"/><path fill="#D8D8D8" d="M145.192 226.717h6.568v4.823h2.158v-17.09h5.697v-12.043h-4.477l-3.81-2.2h-3.606v-3.312l-1.912-3.31 2.154-3.733h1.638v-1.936h-5.017l-3.988 2.302v3.074l-3.986 2.301-2.154-1.244v19.755l-2.251 1.3 9.68 5.588z"/><path stroke="#FFF" stroke-width=".5" stroke-linejoin="bevel" d="M145.192 226.717h6.568v4.823h2.158v-17.09h5.697v-12.043h-4.477l-3.81-2.2h-3.606v-3.312l-1.912-3.31 2.154-3.733h1.638v-1.936h-5.017l-3.988 2.302v3.074l-3.986 2.301-2.154-1.244v19.755l-2.251 1.3 9.68 5.588z"/><path fill="#D8D8D8" d="M107.89 170.457v5.251h.9l2.301-3.987V168.5h-2.07z"/><path stroke="#FFF" stroke-width=".5" stroke-linejoin="bevel" d="M107.89 170.457v5.251h.9l2.301-3.987V168.5h-2.07z"/><mask id="d" fill="#fff"><use xlink:href="#c"/></mask><path fill="#D8D8D8" mask="url(#d)" d="M202.945 365.962h3.913v-1.841h-3.913z"/><path stroke="#FFF" stroke-width=".5" stroke-linejoin="bevel" mask="url(#d)" d="M202.945 365.962h3.913v-1.841h-3.913z"/><path fill="#D8D8D8" mask="url(#d)" d="M415.802 136.408l1.666-2.922v-5.774h2.092l4.752-2.743v4.373l-3.182-.004 2.102 3.638-2.008 3.432z"/><path stroke="#FFF" stroke-width=".5" stroke-linejoin="bevel" mask="url(#d)" d="M415.802 136.408l1.666-2.922v-5.774h2.092l4.752-2.743v4.373l-3.182-.004 2.102 3.638-2.008 3.432z"/><path d="M469.22 151.235l-2.609 4.406v6.085l-7.455 4.303 3.891 6.74 9.774-5.644v-4.603l3.987-2.302v-4.603l-7.589-4.382z" fill="#D8D8D8" mask="url(#d)"/><path d="M469.22 151.235l-2.609 4.406v6.085l-7.455 4.303 3.891 6.74 9.774-5.644v-4.603l3.987-2.302v-4.603l-7.589-4.382z" stroke="#FFF" stroke-width=".5" stroke-linejoin="bevel" mask="url(#d)"/><path fill="#D8D8D8" mask="url(#d)" d="M456.73 147.77l-1.923 1.13v2.216h1.924z"/><path stroke="#FFF" stroke-width=".5" stroke-linejoin="bevel" mask="url(#d)" d="M456.73 147.77l-1.923 1.13v2.216h1.924z"/><path d="M455.808 167.963h-4.849l-2.754 4.77h-11.14l.164.285v6.684l2.302 3.986 3.986-2.302h4.604l14.926-8.617-3.89-6.74-3.349 1.934" fill="#D8D8D8" mask="url(#d)"/><path d="M455.808 167.963h-4.849l-2.754 4.77h-11.14l.164.285v6.684l2.302 3.986 3.986-2.302h4.604l14.926-8.617-3.89-6.74-3.349 1.934z" stroke="#FFF" stroke-width=".5" stroke-linejoin="bevel" mask="url(#d)"/><path fill="#D8D8D8" mask="url(#d)" d="M522.542 119.914l-2.836-1.637-3.179 1.835 1.674 2.9.724 1.252 3.617-2.09z"/><path stroke="#FFF" stroke-width=".5" stroke-linejoin="bevel" mask="url(#d)" d="M522.542 119.914l-2.836-1.637-3.179 1.835 1.674 2.9.724 1.252 3.617-2.09z"/><path fill="#D8D8D8" mask="url(#d)" d="M376.08 98.346l-1.313 2.349 3.332 1.923v-3.071z"/><path stroke="#FFF" stroke-width=".5" stroke-linejoin="bevel" mask="url(#d)" d="M376.08 98.346l-1.313 2.349 3.332 1.923v-3.071z"/><path fill="#D8D8D8" mask="url(#d)" d="M502.508 97.72l-3.673 2.12h-4.782v1.57l1.96 1.131-3.129 1.805h7.332l-1.85 3.207h-2.26l-2.876 1.66v.877h10.324v-3.082l5.061-2.922h3.643l4.27-2.466v-2.77h-12.062z"/><path stroke="#FFF" stroke-width=".5" stroke-linejoin="bevel" mask="url(#d)" d="M502.508 97.72l-3.673 2.12h-4.782v1.57l1.96 1.131-3.129 1.805h7.332l-1.85 3.207h-2.26l-2.876 1.66v.877h10.324v-3.082l5.061-2.922h3.643l4.27-2.466v-2.77h-12.062z"/><path fill="#D8D8D8" mask="url(#d)" d="M456.944 98.888h-3.368v5.203l5.21 9.024 1.5-.867h7.615l8.275 4.777v4.026l11.26-6.5v-2.261l-13.187-7.614h-2.868l.012-2.25-4.777-2.758-2.444 4.234h-4.333z"/><path stroke="#FFF" stroke-width=".5" stroke-linejoin="bevel" mask="url(#d)" d="M456.944 98.888h-3.368v5.203l5.21 9.024 1.5-.867h7.615l8.275 4.777v4.026l11.26-6.5v-2.261l-13.187-7.614h-2.868l.012-2.25-4.777-2.758-2.444 4.234h-4.333z"/><path d="M509.855 89.645h-8.102l-1.866 1.078v2.614h-2.39l-.007-3.196 3.117-1.8h9.248v1.304zm13.828-8.238l-7.846-4.582h-10.3l-2.31-4-8.413-4.858-2.597 1.5-3.985.015-6.94-3.948h-8.078l-4.915 2.882-5.2.022.01 2.261 2.686 4.61.01 2.26-14.193.06-3.903-2.232-4.81.02-6.778 3.978.02 4.857 5.738 3.282.009 2.14 3.514-2.029h6.347l.017.017v4.112l-4.376 2.527 2.649 4.587h6.905l2.894 5.014h2.169v-9.2l5.327-3.077 5.709 3.297 1.664 2.881h6.98l3.568 6.191h4.323l4.475-2.584v-1.57h4.782l3.673-2.12 1.958 1.13h12.062v-2.262l-.08-.139-1.856-3.213h2.26l6.83-11.829z" fill="#D8D8D8" mask="url(#d)"/><path d="M509.855 89.645h-8.102l-1.866 1.078v2.614h-2.39l-.007-3.196 3.117-1.8h9.248v1.304zm13.828-8.238l-7.846-4.582h-10.3l-2.31-4-8.413-4.858-2.597 1.5-3.985.015-6.94-3.948h-8.078l-4.915 2.882-5.2.022.01 2.261 2.686 4.61.01 2.26-14.193.06-3.903-2.232-4.81.02-6.778 3.978.02 4.857 5.738 3.282.009 2.14 3.514-2.029h6.347l.017.017v4.112l-4.376 2.527 2.649 4.587h6.905l2.894 5.014h2.169v-9.2l5.327-3.077 5.709 3.297 1.664 2.881h6.98l3.568 6.191h4.323l4.475-2.584v-1.57h4.782l3.673-2.12 1.958 1.13h12.062v-2.262l-.08-.139-1.856-3.213h2.26l6.83-11.829z" stroke="#FFF" stroke-width=".5" stroke-linejoin="bevel" mask="url(#d)"/><path fill="#D8D8D8" mask="url(#d)" d="M445.43 110.077v-3.744l-2.453-4.253-2.089 1.206-3.136-1.81v2.793l2.686 4.654 3.246-1.87z"/><path stroke="#FFF" stroke-width=".5" stroke-linejoin="bevel" mask="url(#d)" d="M445.43 110.077v-3.744l-2.453-4.253-2.089 1.206-3.136-1.81v2.793l2.686 4.654 3.246-1.87z"/><path fill="#D8D8D8" mask="url(#d)" d="M505.873 114.107v1.936h-4.57l-1.957 1.131v6.09l-2.158 1.244v6.303l-6.214 3.6v2.978h-13.71l2.839-4.917-3.927-2.267v-9.154l11.26-6.5h7.085l1.436-2.488h3.389v3.214l1.957-1.17z"/><path stroke="#FFF" stroke-width=".5" stroke-linejoin="bevel" mask="url(#d)" d="M505.873 114.107v1.936h-4.57l-1.957 1.131v6.09l-2.158 1.244v6.303l-6.214 3.6v2.978h-13.71l2.839-4.917-3.927-2.267v-9.154l11.26-6.5h7.085l1.436-2.488h3.389v3.214l1.957-1.17z"/><path fill="#D8D8D8" mask="url(#d)" d="M410.187 223.292v4.241h3.536l2.277-3.945v-4.182h-5.813z"/><path stroke="#FFF" stroke-width=".5" stroke-linejoin="bevel" mask="url(#d)" d="M410.187 223.292v4.241h3.536l2.277-3.945v-4.182h-5.813z"/><path fill="#D8D8D8" mask="url(#d)" d="M161.24 12.643h-14.842l-3.986 2.302h14.842z"/><path stroke="#FFF" stroke-width=".5" stroke-linejoin="bevel" mask="url(#d)" d="M161.24 12.643h-14.842l-3.986 2.302h14.842z"/><path fill="#D8D8D8" mask="url(#d)" d="M369.507 9.483l.003.002h3.308l3.986-2.301V5.696h-8.82l-2.765 1.596h-9.495l8.79 5.074z"/><path stroke="#FFF" stroke-width=".5" stroke-linejoin="bevel" mask="url(#d)" d="M369.507 9.483l.003.002h3.308l3.986-2.301V5.696h-8.82l-2.765 1.596h-9.495l8.79 5.074z"/><path fill="#D8D8D8" mask="url(#d)" d="M146.256 163.464l-15.115-8.727h-3.913l-5.677 3.277h9.785l9.428 5.443z"/><path stroke="#FFF" stroke-width=".5" stroke-linejoin="bevel" mask="url(#d)" d="M146.256 163.464l-15.115-8.727h-3.913l-5.677 3.277h9.785l9.428 5.443z"/><path fill="#D8D8D8" mask="url(#d)" d="M699.077 276.814l-5.637-3.27v-6.522l-4.728-8.193v-7.382h-1.92l-2.301 3.988v7.365l-4.261 7.379-13.47-7.777 4.535-7.855h-13.372l-4.85 8.398-5.22-3.014-13.754 7.94v4.605l-10.288 5.939h-9.152l-5.495 9.576v24.375l-3.987 2.302v3.418h7.055l5.72-3.302h8.525l11.65-6.726h12.725l4.465 7.734 6.29-3.633v15.887h18.626l4.509-7.81 9.647-5.568 10.259-17.771v-4.604l-5.571-9.65z"/><path stroke="#FFF" stroke-width=".5" stroke-linejoin="bevel" mask="url(#d)" d="M699.077 276.814l-5.637-3.27v-6.522l-4.728-8.193v-7.382h-1.92l-2.301 3.988v7.365l-4.261 7.379-13.47-7.777 4.535-7.855h-13.372l-4.85 8.398-5.22-3.014-13.754 7.94v4.605l-10.288 5.939h-9.152l-5.495 9.576v24.375l-3.987 2.302v3.418h7.055l5.72-3.302h8.525l11.65-6.726h12.725l4.465 7.734 6.29-3.633v15.887h18.626l4.509-7.81 9.647-5.568 10.259-17.771v-4.604l-5.571-9.65z"/><path fill="#D8D8D8" mask="url(#d)" d="M619.074 207.038l-1.19-.001-1.388 2.406h2.578z"/><path stroke="#FFF" stroke-width=".5" stroke-linejoin="bevel" mask="url(#d)" d="M619.074 207.038l-1.19-.001-1.388 2.406h2.578z"/><path fill="#D8D8D8" mask="url(#d)" d="M448.797 262.036l-8.06 4.654v9.98l-3.186 5.404v5.279l2.302 3.986h4.603l5.015-8.685v-4.603l2.838-4.916v-4.602l3.223-5.584v-4.605l-2.3-3.987z"/><path stroke="#FFF" stroke-width=".5" stroke-linejoin="bevel" mask="url(#d)" d="M448.797 262.036l-8.06 4.654v9.98l-3.186 5.404v5.279l2.302 3.986h4.603l5.015-8.685v-4.603l2.838-4.916v-4.602l3.223-5.584v-4.605l-2.3-3.987z"/><path d="M318.818 66.018l-3.04 1.754 4.067 2.313 1.504-2.605-2.531-1.462zm8.088 2.816l-4.941-8.557 2.302-3.987 5.974 3.449-2.02 3.498 3.604 6.24.005.006h2.496l2.163 3.748-2.465 3.24h-8.88l-3.98 2.309 5.742-9.946z" fill="#D8D8D8" mask="url(#d)"/><path d="M318.818 66.018l-3.04 1.754 4.067 2.313 1.504-2.605-2.531-1.462zm8.088 2.816l-4.941-8.557 2.302-3.987 5.974 3.449-2.02 3.498 3.604 6.24.005.006h2.496l2.163 3.748-2.465 3.24h-8.88l-3.98 2.309 5.742-9.946z" stroke="#FFF" stroke-width=".5" stroke-linejoin="bevel" mask="url(#d)"/><path fill="#D8D8D8" mask="url(#d)" d="M202.8 85.63h9.418l2.966-5.136h-9.419z"/><path stroke="#FFF" stroke-width=".5" stroke-linejoin="bevel" mask="url(#d)" d="M202.8 85.63h9.418l2.966-5.136h-9.419z"/><path fill="#D8D8D8" mask="url(#d)" d="M169.942 43.735h5.282l1.664-2.88h-5.283z"/><path stroke="#FFF" stroke-width=".5" stroke-linejoin="bevel" mask="url(#d)" d="M169.942 43.735h5.282l1.664-2.88h-5.283z"/><path fill="#D8D8D8" mask="url(#d)" d="M196.97 31.963h-3.629l-1.142 1.98h3.628z"/><path stroke="#FFF" stroke-width=".5" stroke-linejoin="bevel" mask="url(#d)" d="M196.97 31.963h-3.629l-1.142 1.98h3.628z"/><path fill="#D8D8D8" mask="url(#d)" d="M178.6 7.674h-6.653l-1.143 1.979h6.653z"/><path stroke="#FFF" stroke-width=".5" stroke-linejoin="bevel" mask="url(#d)" d="M178.6 7.674h-6.653l-1.143 1.979h6.653z"/><path fill="#D8D8D8" mask="url(#d)" d="M177.025 19.999l3.978-2.311h-7.66l-2.69 4.613 3.986-2.302z"/><path stroke="#FFF" stroke-width=".5" stroke-linejoin="bevel" mask="url(#d)" d="M177.025 19.999l3.978-2.311h-7.66l-2.69 4.613 3.986-2.302z"/><path fill="#D8D8D8" mask="url(#d)" d="M198.143 9.46l-1.821 3.154h-21.291l3.987 2.236h23.759l17.776-10.263h14.658L241.649.87h-25.985l-3.987 2.301h-10.458l-3.987 2.302h-9.943l2.302 3.987z"/><path stroke="#FFF" stroke-width=".5" stroke-linejoin="bevel" mask="url(#d)" d="M198.143 9.46l-1.821 3.154h-21.291l3.987 2.236h23.759l17.776-10.263h14.658L241.649.87h-25.985l-3.987 2.301h-10.458l-3.987 2.302h-9.943l2.302 3.987z"/><path fill="#D8D8D8" mask="url(#d)" d="M296.89 29.177l1.552-2.69-4.175-7.231h7.09l3.366-5.83-2.303-3.987 5.31-3.065h5.912l.003.003 5.308-3.065h-19.318l-3.987-2.302H270.58l-1.886 3.267H244l-10.774 6.263h-9.638l2.302 3.987h14.672l.015.016v6.785l4.21 7.289-8.15 4.705v14.86l11.016 6.256 9.645-16.707h14.688l.02.019 3.092-5.356h8.3l1.878-3.232h11.598z"/><path stroke="#FFF" stroke-width=".5" stroke-linejoin="bevel" mask="url(#d)" d="M296.89 29.177l1.552-2.69-4.175-7.231h7.09l3.366-5.83-2.303-3.987 5.31-3.065h5.912l.003.003 5.308-3.065h-19.318l-3.987-2.302H270.58l-1.886 3.267H244l-10.774 6.263h-9.638l2.302 3.987h14.672l.015.016v6.785l4.21 7.289-8.15 4.705v14.86l11.016 6.256 9.645-16.707h14.688l.02.019 3.092-5.356h8.3l1.878-3.232h11.598z"/><path fill="#D8D8D8" mask="url(#d)" d="M132.005 26.17l-3.986 2.303v1.996h13.297l2.491-1.44 8.89-.011-2.302-3.987 2.65-4.59h-4.603l-2.302 3.986-10.588-6.112h-9.297l-9.654 5.554h11.418z"/><path stroke="#FFF" stroke-width=".5" stroke-linejoin="bevel" mask="url(#d)" d="M132.005 26.17l-3.986 2.303v1.996h13.297l2.491-1.44 8.89-.011-2.302-3.987 2.65-4.59h-4.603l-2.302 3.986-10.588-6.112h-9.297l-9.654 5.554h11.418z"/><path fill="#D8D8D8" mask="url(#d)" d="M215.663 39.705l5.272-3.043-9.62-5.554v-4.603L199.181 19.5v3.503l-6.304-3.64-9.07.001-5.58 3.22v4.604h20.063l4.121 7.14-7.819 4.514-.005-.006h-7.305l-1.238 2.144 8.54-.008 2.881 4.991h4.603l1.928 3.336.006.008 2.478-.008-2.79-4.83h4.605l2.266-1.309-3.24-5.612h4.603z"/><path stroke="#FFF" stroke-width=".5" stroke-linejoin="bevel" mask="url(#d)" d="M215.663 39.705l5.272-3.043-9.62-5.554v-4.603L199.181 19.5v3.503l-6.304-3.64-9.07.001-5.58 3.22v4.604h20.063l4.121 7.14-7.819 4.514-.005-.006h-7.305l-1.238 2.144 8.54-.008 2.881 4.991h4.603l1.928 3.336.006.008 2.478-.008-2.79-4.83h4.605l2.266-1.309-3.24-5.612h4.603z"/><path fill="#D8D8D8" mask="url(#d)" d="M156.68 21.01l2.302 3.986 9.84-5.682-6.165-.003-2.88 1.698z"/><path stroke="#FFF" stroke-width=".5" stroke-linejoin="bevel" mask="url(#d)" d="M156.68 21.01l2.302 3.986 9.84-5.682-6.165-.003-2.88 1.698z"/><path fill="#D8D8D8" mask="url(#d)" d="M135.792 169.047h4.661v-1.668h-4.661z"/><path stroke="#FFF" stroke-width=".5" stroke-linejoin="bevel" mask="url(#d)" d="M135.792 169.047h4.661v-1.668h-4.661z"/><path fill="#D8D8D8" mask="url(#d)" d="M156.4 31.099h3.215v-1.902H156.4z"/><path stroke="#FFF" stroke-width=".5" stroke-linejoin="bevel" mask="url(#d)" d="M156.4 31.099h3.215v-1.902H156.4z"/><path d="M530.6 194.079v8.056h4.316v-2.651l-3.121-5.405H530.6z" fill="#D8D8D8" mask="url(#d)"/><path d="M530.6 194.079v8.056h4.316v-2.651l-3.121-5.405H530.6z" stroke="#FFF" stroke-width=".5" stroke-linejoin="bevel" mask="url(#d)"/><path d="M635.733 192.18h3.107v-3.798h-3.107v3.798zm3.107-6.387h1.553v-4.143h-1.553v4.143zm-14.44 9.985l4.627-2.672-.606-1.049-4.628 2.671.607 1.05zm7.52-10.189h1.211v-2.524h-1.211v2.524zm16.087 10.517l-1.744-3.021-5.232 3.021h-3.81v2.302h4.604v3.336l2.195 1.267 3.987-2.302v-4.603zm-13.088-23.563l-2.301 3.987 2.301 3.987h-2.981l-.003-.003-2.303-3.987v-8.414h2.73l2.557 4.43z" fill="#D8D8D8" mask="url(#d)"/><path d="M635.733 192.18h3.107v-3.798h-3.107v3.798zm3.107-6.387h1.553v-4.143h-1.553v4.143zm-14.44 9.985l4.627-2.672-.606-1.049-4.628 2.671.607 1.05zm7.52-10.189h1.211v-2.524h-1.211v2.524zm16.087 10.517l-1.744-3.021-5.232 3.021h-3.81v2.302h4.604v3.336l2.195 1.267 3.987-2.302v-4.603zm-13.088-23.563l-2.301 3.987 2.301 3.987h-2.981l-.003-.003-2.303-3.987v-8.414h2.73l2.557 4.43z" stroke="#FFF" stroke-width=".5" stroke-linejoin="bevel" mask="url(#d)"/><path fill="#D8D8D8" mask="url(#d)" d="M343.074 222.886h2.566v-2.566h-2.566z"/><path stroke="#FFF" stroke-width=".5" stroke-linejoin="bevel" mask="url(#d)" d="M343.074 222.886h2.566v-2.566h-2.566z"/><path fill="#D8D8D8" mask="url(#d)" d="M338.853 190.698v-2.26l-3.107-1.796-3.014 1.74v2.962l1.131 1.958v8.173l2.509-.002v-6.477z"/><path stroke="#FFF" stroke-width=".5" stroke-linejoin="bevel" mask="url(#d)" d="M338.853 190.698v-2.26l-3.107-1.796-3.014 1.74v2.962l1.131 1.958v8.173l2.509-.002v-6.477z"/><path fill="#D8D8D8" mask="url(#d)" d="M355.628 199.376l2.573 1.485.068.04 4.853-8.407v-4.884l3.421-1.975-2.13-3.69h-8.186l-1.958 1.13-6.166.017-3.845-2.219h-3.448v4.152l-1.957 3.412v2.261l-2.482 4.298v6.477l4.674-.004 3.538 6.13 7.77-.009v-2.54z"/><path stroke="#FFF" stroke-width=".5" stroke-linejoin="bevel" mask="url(#d)" d="M355.628 199.376l2.573 1.485.068.04 4.853-8.407v-4.884l3.421-1.975-2.13-3.69h-8.186l-1.958 1.13-6.166.017-3.845-2.219h-3.448v4.152l-1.957 3.412v2.261l-2.482 4.298v6.477l4.674-.004 3.538 6.13 7.77-.009v-2.54z"/><path fill="#D8D8D8" mask="url(#d)" d="M582.524 181.537l4.958 2.862v-4.994h6.182v-5.707l-5.664-3.27h-6.471v-4.47h-1.741l-.002-.001-2.74-4.91-4.44 2.679v6.704l2.79 1.612 1.794 3.106v19.45l5.529 9.575h2.992l2.338-1.352-4.845-2.797-3.56-6.163V183.2z"/><path stroke="#FFF" stroke-width=".5" stroke-linejoin="bevel" mask="url(#d)" d="M582.524 181.537l4.958 2.862v-4.994h6.182v-5.707l-5.664-3.27h-6.471v-4.47h-1.741l-.002-.001-2.74-4.91-4.44 2.679v6.704l2.79 1.612 1.794 3.106v19.45l5.529 9.575h2.992l2.338-1.352-4.845-2.797-3.56-6.163V183.2z"/><path fill="#D8D8D8" mask="url(#d)" d="M419.807 123.661v-1.051h-2.035v1.262l-2.225 3.84h1.921z"/><path stroke="#FFF" stroke-width=".5" stroke-linejoin="bevel" mask="url(#d)" d="M419.807 123.661v-1.051h-2.035v1.262l-2.225 3.84h1.921z"/><path fill="#D8D8D8" mask="url(#d)" d="M413.163 131.827h-9.458l-2.91 1.681-3.988-2.302h-2.95l-1.714 2.967v23.999h22.708l4.382-2.53-9.81-16.993v-4.603l4.024 6.972 2.356-4.61-2.633-4.59z"/><path stroke="#FFF" stroke-width=".5" stroke-linejoin="bevel" mask="url(#d)" d="M413.163 131.827h-9.458l-2.91 1.681-3.988-2.302h-2.95l-1.714 2.967v23.999h22.708l4.382-2.53-9.81-16.993v-4.603l4.024 6.972 2.356-4.61-2.633-4.59z"/><path fill="#D8D8D8" mask="url(#d)" d="M419.807 123.661l-2.339 4.051h2.092l4.752-2.743 5.442-3.142v-6.41h-10.49l-2.787 1.609 1.295 2.243v3.341h2.035z"/><path stroke="#FFF" stroke-width=".5" stroke-linejoin="bevel" mask="url(#d)" d="M419.807 123.661l-2.339 4.051h2.092l4.752-2.743 5.442-3.142v-6.41h-10.49l-2.787 1.609 1.295 2.243v3.341h2.035z"/><path fill="#D8D8D8" mask="url(#d)" d="M445.852 197.127l-6.495-3.75-1.863-3.153-2.083-1.203v-2.792l-2.489-4.31-4.399-2.54h-7.766v2.055l-4.957 8.494v5.187l-3.886 2.243 4.248 2.452 4.2 7.274 4.641 2.68h8.578l3.703-2.138h6.443l6.062-10.5z"/><path stroke="#FFF" stroke-width=".5" stroke-linejoin="bevel" mask="url(#d)" d="M445.852 197.127l-6.495-3.75-1.863-3.153-2.083-1.203v-2.792l-2.489-4.31-4.399-2.54h-7.766v2.055l-4.957 8.494v5.187l-3.886 2.243 4.248 2.452 4.2 7.274 4.641 2.68h8.578l3.703-2.138h6.443l6.062-10.5z"/><path d="M321.261 130.8v1.57l-12.07 6.97v5.08l9.472 5.47h.007-.007l15.862 9.157v2.981l6.222 3.593 18.964-10.949v-2.116l-7.364-4.252 2.214-3.852v-10.276l-5.149-8.917 1.55-2.686v-6.642h-13.71l-9.447 5.455v5.636l-6.544 3.78z" fill="#D8D8D8" mask="url(#d)"/><path d="M321.261 130.8v1.57l-12.07 6.97v5.08l9.472 5.47h.007-.007l15.862 9.157v2.981l6.222 3.593 18.964-10.949v-2.116l-7.364-4.252 2.214-3.852v-10.276l-5.149-8.917 1.55-2.686v-6.642h-13.71l-9.447 5.455v5.636l-6.544 3.78z" stroke="#FFF" stroke-width=".5" stroke-linejoin="bevel" mask="url(#d)"/><path fill="#D8D8D8" mask="url(#d)" d="M452.545 186.828l-7.023 4.055h-4.604l-1.158-2.006-2.267 1.346 1.864 3.154 6.495 3.75h3.936l-6.06 10.498h-6.445l-3.703 2.138-1.272 2.206v10.077l1.272 2.185 4.495-7.786 10.198-5.887 8.876-15.373v-8.357z"/><path stroke="#FFF" stroke-width=".5" stroke-linejoin="bevel" mask="url(#d)" d="M452.545 186.828l-7.023 4.055h-4.604l-1.158-2.006-2.267 1.346 1.864 3.154 6.495 3.75h3.936l-6.06 10.498h-6.445l-3.703 2.138-1.272 2.206v10.077l1.272 2.185 4.495-7.786 10.198-5.887 8.876-15.373v-8.357z"/><path fill="#D8D8D8" mask="url(#d)" d="M377.735 270.986h8.802l3.335-1.925-4.8-2.727v-9.504h5.006v-5.525h-5.006v-9.58l-1.131-1.958h-5.362v2.95l-5.133-.008-3.652-6.326h-4.934l-3.148 1.806 2.304 3.992v11.973l-4.551 7.882v6.6h14.198z"/><path stroke="#FFF" stroke-width=".5" stroke-linejoin="bevel" mask="url(#d)" d="M377.735 270.986h8.802l3.335-1.925-4.8-2.727v-9.504h5.006v-5.525h-5.006v-9.58l-1.131-1.958h-5.362v2.95l-5.133-.008-3.652-6.326h-4.934l-3.148 1.806 2.304 3.992v11.973l-4.551 7.882v6.6h14.198z"/><path fill="#D8D8D8" mask="url(#d)" d="M393.15 269.06h-3.278l-3.335 1.926h-8.802l-4.072-2.351h-14.198v2.438l6.742 11.676v10.593l4.588 7.947 2.132-1.231h6.258v-18.023h2.865v-9.286h7.326l1.33-2.28h3.256z"/><path stroke="#FFF" stroke-width=".5" stroke-linejoin="bevel" mask="url(#d)" d="M393.15 269.06h-3.278l-3.335 1.926h-8.802l-4.072-2.351h-14.198v2.438l6.742 11.676v10.593l4.588 7.947 2.132-1.231h6.258v-18.023h2.865v-9.286h7.326l1.33-2.28h3.256z"/><path fill="#D8D8D8" mask="url(#d)" d="M359.711 226.476h6.388v-4.12l-1.13-1.958 1.13-1.958v-2.261h-2.837v-2.477h-4.373v2.477h-6.042v6.657l4.805 8.323 2.06-1.228z"/><path stroke="#FFF" stroke-width=".5" stroke-linejoin="bevel" mask="url(#d)" d="M359.711 226.476h6.388v-4.12l-1.13-1.958 1.13-1.958v-2.261h-2.837v-2.477h-4.373v2.477h-6.042v6.657l4.805 8.323 2.06-1.228z"/><path fill="#D8D8D8" mask="url(#d)" d="M372.703 209.709l-2.305 3.993h-7.135v2.477h2.836v2.26l-1.13 1.959 1.13 1.958v4.12h-6.387v3.455l-2.06 1.228 1.886 3.266 3.096-1.783 1.259.727h2.709l3.83-2.211-.017-5.843 4.039-2.332v-7.602l1.534-2.658v-3.014z"/><path stroke="#FFF" stroke-width=".5" stroke-linejoin="bevel" mask="url(#d)" d="M372.703 209.709l-2.305 3.993h-7.135v2.477h2.836v2.26l-1.13 1.959 1.13 1.958v4.12h-6.387v3.455l-2.06 1.228 1.886 3.266 3.096-1.783 1.259.727h2.709l3.83-2.211-.017-5.843 4.039-2.332v-7.602l1.534-2.658v-3.014z"/><path fill="#D8D8D8" mask="url(#d)" d="M578.462 160.194l-4.59-7.95h-4.2v-3.282l2.621-1.514.021-5.416-4.366-2.52-3.743-2.161h-5.414l-4.023 6.968h-6.934v-3.468h-7.912l-10.796-6.145h-3.416l-4.903-2.832v-4.35l-1.882-3.26 3.617-2.09v-2.26l-2.836-1.637-3.179 1.835h-3.607l-7.047-4.068v-1.936l-2.319-4.018v-3.082l5.061-2.922h3.643l4.27-2.465v-5.032l-.08-.14-1.856-3.212h2.261l6.83-11.83 12.273 7.087 2.68 4.657h4.153l11.058 6.384h11.393l4.958 2.862h4.826l3.356-1.937h5.851l1.885-3.267-.019-3.897h4.464l3.234-1.867-.02-2.278h6.548v-2.262l-3.308-1.91h-8.345V79.6h3.84v-9.49h7.257L622.4 83.178v3.12h4.01l4.357-2.513 2.21 3.828v6.598h-4.389l2.647 4.547-5.995 3.049h-2.26l-3.13 5.423h-.029l-3.986 2.3-2.894-5.011h-2.532l-4.075 7.057 5.057 2.92h8.417v1.187l-6.316 3.647v3.369h4.604l5.83 10.096v9.457l-8.276 14.334h-5.919l-7.522 4.343-1.295-2.242h-6.389l-2.217-3.841h-4.583z"/><path stroke="#FFF" stroke-width=".5" stroke-linejoin="bevel" mask="url(#d)" d="M578.462 160.194l-4.59-7.95h-4.2v-3.282l2.621-1.514.021-5.416-4.366-2.52-3.743-2.161h-5.414l-4.023 6.968h-6.934v-3.468h-7.912l-10.796-6.145h-3.416l-4.903-2.832v-4.35l-1.882-3.26 3.617-2.09v-2.26l-2.836-1.637-3.179 1.835h-3.607l-7.047-4.068v-1.936l-2.319-4.018v-3.082l5.061-2.922h3.643l4.27-2.465v-5.032l-.08-.14-1.856-3.212h2.261l6.83-11.83 12.273 7.087 2.68 4.657h4.153l11.058 6.384h11.393l4.958 2.862h4.826l3.356-1.937h5.851l1.885-3.267-.019-3.897h4.464l3.234-1.867-.02-2.278h6.548v-2.262l-3.308-1.91h-8.345V79.6h3.84v-9.49h7.257L622.4 83.178v3.12h4.01l4.357-2.513 2.21 3.828v6.598h-4.389l2.647 4.547-5.995 3.049h-2.26l-3.13 5.423h-.029l-3.986 2.3-2.894-5.011h-2.532l-4.075 7.057 5.057 2.92h8.417v1.187l-6.316 3.647v3.369h4.604l5.83 10.096v9.457l-8.276 14.334h-5.919l-7.522 4.343-1.295-2.242h-6.389l-2.217-3.841h-4.583z"/><path fill="#D8D8D8" mask="url(#d)" d="M556.054 152.688l1.131-1.958v-2.26h-6.449l-1.13-1.96-1.959 1.131v6.11l2.057 3.563h2.993l2.94-1.697 2.167 3.753 1.054-1.826z"/><path stroke="#FFF" stroke-width=".5" stroke-linejoin="bevel" mask="url(#d)" d="M556.054 152.688l1.131-1.958v-2.26h-6.449l-1.13-1.96-1.959 1.131v6.11l2.057 3.563h2.993l2.94-1.697 2.167 3.753 1.054-1.826z"/><path fill="#D8D8D8" mask="url(#d)" d="M398.435 270.469h-4.473l6.953 12.043h6.426l4.316-7.382v-7.007l-6.092-3.517h-3.745z"/><path stroke="#FFF" stroke-width=".5" stroke-linejoin="bevel" mask="url(#d)" d="M398.435 270.469h-4.473l6.953 12.043h6.426l4.316-7.382v-7.007l-6.092-3.517h-3.745z"/><path fill="#D8D8D8" mask="url(#d)" d="M298.7 179.62l-3.59-6.215h-5.682v.131l-2.307 3.984 1.76 3.052h6.713v1.416h-5.891l1.36 2.362h9.06v-2.266z"/><path stroke="#FFF" stroke-width=".5" stroke-linejoin="bevel" mask="url(#d)" d="M298.7 179.62l-3.59-6.215h-5.682v.131l-2.307 3.984 1.76 3.052h6.713v1.416h-5.891l1.36 2.362h9.06v-2.266z"/><path fill="#D8D8D8" mask="url(#d)" d="M319.48 192.134l-3.375-1.95h-6.174v8.038l-1.958 1.13-.061-.034v2.107l3.41 1.969v3.32l3.969-2.32h6.5v-3.906l1.13-1.958v-6.4z"/><path stroke="#FFF" stroke-width=".5" stroke-linejoin="bevel" mask="url(#d)" d="M319.48 192.134l-3.375-1.95h-6.174v8.038l-1.958 1.13-.061-.034v2.107l3.41 1.969v3.32l3.969-2.32h6.5v-3.906l1.13-1.958v-6.4z"/><path fill="#D8D8D8" mask="url(#d)" d="M307.214 185.48h-5.13l-1.959-1.13h-3.786v1.57l-3.263 1.915 3.002 5.2 2.073-1.184h3.391l1.48 2.571v2.072l4.951 2.86 1.958-1.132v-8.038z"/><path stroke="#FFF" stroke-width=".5" stroke-linejoin="bevel" mask="url(#d)" d="M307.214 185.48h-5.13l-1.959-1.13h-3.786v1.57l-3.263 1.915 3.002 5.2 2.073-1.184h3.391l1.48 2.571v2.072l4.951 2.86 1.958-1.132v-8.038z"/><path fill="#D8D8D8" mask="url(#d)" d="M370.398 93.435h5.682v-2.921h-4.896l-3.597-2.085-1.65 2.903h-3.913l1.509 2.77h2.92l1.55 2.687 6.485 3.744z"/><path stroke="#FFF" stroke-width=".5" stroke-linejoin="bevel" mask="url(#d)" d="M370.398 93.435h5.682v-2.921h-4.896l-3.597-2.085-1.65 2.903h-3.913l1.509 2.77h2.92l1.55 2.687 6.485 3.744z"/><path fill="#D8D8D8" mask="url(#d)" d="M384.433 96.868l-.001-.002-4.021-2.322-2.324-4.03h-2.008v7.832l2.02 1.2 2.351 1.363h3.989v-4.041z"/><path stroke="#FFF" stroke-width=".5" stroke-linejoin="bevel" mask="url(#d)" d="M384.433 96.868l-.001-.002-4.021-2.322-2.324-4.03h-2.008v7.832l2.02 1.2 2.351 1.363h3.989v-4.041z"/><path fill="#D8D8D8" mask="url(#d)" d="M378.1 102.618v4.604l2.35-1.352v-.949l-.036.02.036-.02v-4.012l-2.35-1.363z"/><path stroke="#FFF" stroke-width=".5" stroke-linejoin="bevel" mask="url(#d)" d="M378.1 102.618v4.604l2.35-1.352v-.949l-.036.02.036-.02v-4.012l-2.35-1.363z"/><path fill="#D8D8D8" mask="url(#d)" d="M378.087 90.514l2.323 4.03 4.022 2.322.001.002h9.703l2.56 1.478 2.282-3.953v-.958h-2.302l-5.057-8.525h-10.293z"/><path stroke="#FFF" stroke-width=".5" stroke-linejoin="bevel" mask="url(#d)" d="M378.087 90.514l2.323 4.03 4.022 2.322.001.002h9.703l2.56 1.478 2.282-3.953v-.958h-2.302l-5.057-8.525h-10.293z"/><path d="M384.439 102.618l-3.99 2.303v.949l-2.35 1.352 5.449 9.438 2.302-3.987-2.302-3.987 2.302-3.986h7.735v-2.082h-9.146zm2.047 17.92h6.009v-1.381h-6.01v1.381z" fill="#D8D8D8" mask="url(#d)"/><path d="M384.439 102.618l-3.99 2.303v.949l-2.35 1.352 5.449 9.438 2.302-3.987-2.302-3.987 2.302-3.986h7.735v-2.082h-9.146zm2.047 17.92h6.009v-1.381h-6.01v1.381z" stroke="#FFF" stroke-width=".5" stroke-linejoin="bevel" mask="url(#d)"/><path fill="#D8D8D8" mask="url(#d)" d="M383.198 193.1l-9.001 5.197h-4.936l-2.942 5.097v3.321l4.079 6.987 2.305-3.993h3.285v-2.454l3.295-1.902 3.977 2.296h3.008l3.292-1.901h9.576l-3.088-5.346-5.341-3.084v-2.951l-3.17-5.49h-1.901z"/><path stroke="#FFF" stroke-width=".5" stroke-linejoin="bevel" mask="url(#d)" d="M383.198 193.1l-9.001 5.197h-4.936l-2.942 5.097v3.321l4.079 6.987 2.305-3.993h3.285v-2.454l3.295-1.902 3.977 2.296h3.008l3.292-1.901h9.576l-3.088-5.346-5.341-3.084v-2.951l-3.17-5.49h-1.901z"/><path fill="#D8D8D8" mask="url(#d)" d="M396.047 200.402l3.088 5.347 1.13 1.958h5.694l1.131 2h4.18l4.616-2.623h4.475l-4.2-7.274-4.247-2.452 3.886-2.243v-5.187h-3.12l-1.959 1.13h-2.26v-4.988l-4.239 2.448v2.26l-4.728 2.73-1.13-1.96h-2.778l-4.88 2.819v2.952z"/><path stroke="#FFF" stroke-width=".5" stroke-linejoin="bevel" mask="url(#d)" d="M396.047 200.402l3.088 5.347 1.13 1.958h5.694l1.131 2h4.18l4.616-2.623h4.475l-4.2-7.274-4.247-2.452 3.886-2.243v-5.187h-3.12l-1.959 1.13h-2.26v-4.988l-4.239 2.448v2.26l-4.728 2.73-1.13-1.96h-2.778l-4.88 2.819v2.952z"/><path fill="#D8D8D8" mask="url(#d)" d="M367.587 156.25v2.26l1.674 2.9v8.69l-5.036 8.724v3.12h.188l2.13 3.69v4.55l2.26 3.913h-3.573v1.873l4.031 2.327h4.935l9.001-5.197 2.44-4.223h1.9v-2.787l-3.098-5.367 2.952-5.116h2.234v-10.221l-18.93-10.93z"/><path stroke="#FFF" stroke-width=".5" stroke-linejoin="bevel" mask="url(#d)" d="M367.587 156.25v2.26l1.674 2.9v8.69l-5.036 8.724v3.12h.188l2.13 3.69v4.55l2.26 3.913h-3.573v1.873l4.031 2.327h4.935l9.001-5.197 2.44-4.223h1.9v-2.787l-3.098-5.367 2.952-5.116h2.234v-10.221l-18.93-10.93z"/><path fill="#D8D8D8" mask="url(#d)" d="M319.278 121.385l-1.486-2.575-2.941 5.094-8.04 4.641v8.042l-8.684 5.014h11.063v-2.26l12.07-6.97v-1.57l6.545-3.78v-5.636z"/><path stroke="#FFF" stroke-width=".5" stroke-linejoin="bevel" mask="url(#d)" d="M319.278 121.385l-1.486-2.575-2.941 5.094-8.04 4.641v8.042l-8.684 5.014h11.063v-2.26l12.07-6.97v-1.57l6.545-3.78v-5.636z"/><path fill="#D8D8D8" mask="url(#d)" d="M329.995 180.308v-2.501h-2.017l-11.873 6.854v5.524l3.376 1.948 3.442-.004v-3.746h9.809l3.014-1.74v-3.016z"/><path stroke="#FFF" stroke-width=".5" stroke-linejoin="bevel" mask="url(#d)" d="M329.995 180.308v-2.501h-2.017l-11.873 6.854v5.524l3.376 1.948 3.442-.004v-3.746h9.809l3.014-1.74v-3.016z"/><path d="M347.65 91.098l-1.973-1.131 1.863-3.226 2.267-3.927-2.833-1.636-1.29-.745-4.79-2.765-10.566 6.101h-4.604l4.935 8.548-3.304 5.721h-.01l1.952 1.115h4.71l3.829 2.226 2.3-3.987h7.515l2.733-1.578-2.733-4.716zm4.019 11.543h1.21v-2.524h-1.21v2.524z" fill="#D8D8D8" mask="url(#d)"/><path d="M347.65 91.098l-1.973-1.131 1.863-3.226 2.267-3.927-2.833-1.636-1.29-.745-4.79-2.765-10.566 6.101h-4.604l4.935 8.548-3.304 5.721h-.01l1.952 1.115h4.71l3.829 2.226 2.3-3.987h7.515l2.733-1.578-2.733-4.716zm4.019 11.543h1.21v-2.524h-1.21v2.524z" stroke="#FFF" stroke-width=".5" stroke-linejoin="bevel" mask="url(#d)"/><path fill="#D8D8D8" mask="url(#d)" d="M369.793 83.2v1.604h11.595v-3.492h-8.324z"/><path stroke="#FFF" stroke-width=".5" stroke-linejoin="bevel" mask="url(#d)" d="M369.793 83.2v1.604h11.595v-3.492h-8.324z"/><path d="M379.4 30.476h-3.3l-3.04 1.785-2.915.003-2.556 4.426-1.79-.002-3.14 5.44-2.747 1.586v5.463l-1.73 3.04v5.984l3.062 5.303h3.427l3.984-2.304v-5.39l3.986-2.303-3.986-2.302v-4.603l7.893-4.558v-2.43l3.913-2.259.032-4.989-1.092-1.89zm-7.88 29.468h1.545v-1.992h-1.545v1.992z" fill="#D8D8D8" mask="url(#d)"/><path d="M379.4 30.476h-3.3l-3.04 1.785-2.915.003-2.556 4.426-1.79-.002-3.14 5.44-2.747 1.586v5.463l-1.73 3.04v5.984l3.062 5.303h3.427l3.984-2.304v-5.39l3.986-2.303-3.986-2.302v-4.603l7.893-4.558v-2.43l3.913-2.259.032-4.989-1.092-1.89zm-7.88 29.468h1.545v-1.992h-1.545v1.992z" stroke="#FFF" stroke-width=".5" stroke-linejoin="bevel" mask="url(#d)"/><path fill="#D8D8D8" mask="url(#d)" d="M369.793 83.2h-8.59l-2.045 3.542h-4.642v1.687h13.071l2.206-3.625z"/><path stroke="#FFF" stroke-width=".5" stroke-linejoin="bevel" mask="url(#d)" d="M369.793 83.2h-8.59l-2.045 3.542h-4.642v1.687h13.071l2.206-3.625z"/><path fill="#D8D8D8" mask="url(#d)" d="M386.034 69.608v4.607h4.877l1.958 1.13h6.762l3.954-2.282v-3.97l-4.564-2.612v-2.73l-3.073-1.753h-3.461l-3.152 1.895z"/><path stroke="#FFF" stroke-width=".5" stroke-linejoin="bevel" mask="url(#d)" d="M386.034 69.608v4.607h4.877l1.958 1.13h6.762l3.954-2.282v-3.97l-4.564-2.612v-2.73l-3.073-1.753h-3.461l-3.152 1.895z"/><path fill="#D8D8D8" mask="url(#d)" d="M345.432 69.79l-2.359 4.097 3.504 2.022 3.532-6.118z"/><path stroke="#FFF" stroke-width=".5" stroke-linejoin="bevel" mask="url(#d)" d="M345.432 69.79l-2.359 4.097 3.504 2.022 3.532-6.118z"/><path fill="#D8D8D8" mask="url(#d)" d="M358.851 69.094l-3.887-2.244v-1.985h-3.986v.939l2.302 3.987h-3.171l-3.532 6.118v2.978l1.291.746-.894 1.545 2.833 1.636-2.268 3.927h11.62l2.045-3.54-2.201-3.811 5.586-3.225v-7.071z"/><path stroke="#FFF" stroke-width=".5" stroke-linejoin="bevel" mask="url(#d)" d="M358.851 69.094l-3.887-2.244v-1.985h-3.986v.939l2.302 3.987h-3.171l-3.532 6.118v2.978l1.291.746-.894 1.545 2.833 1.636-2.268 3.927h11.62l2.045-3.54-2.201-3.811 5.586-3.225v-7.071z"/><path fill="#D8D8D8" mask="url(#d)" d="M398.154 300.143l-2.41 4.174 4.074 2.352 2.189-3.77-1.592-2.756z"/><path stroke="#FFF" stroke-width=".5" stroke-linejoin="bevel" mask="url(#d)" d="M398.154 300.143l-2.41 4.174 4.074 2.352 2.189-3.77-1.592-2.756z"/><path fill="#D8D8D8" mask="url(#d)" d="M402.213 226.108v1.431h2.711v-1.43h2.166v-2.817h-3.25z"/><path stroke="#FFF" stroke-width=".5" stroke-linejoin="bevel" mask="url(#d)" d="M402.213 226.108v1.431h2.711v-1.43h2.166v-2.817h-3.25z"/><path fill="#2ECDCD" mask="url(#d)" d="M105.123 175.032v-1.107l-1.959-1.13v-2.338h4.725l1.13-1.958h2.072l5.148-8.915h-7.005l-2.65 1.53-4.073 7.055-9.254-.01-4-6.929v-11.51l1.618-2.804-6.28-10.876h-3.067l-2.589 1.494-4.147-7.183h-4.428l-1.959 1.131h-5.982l-6.906-3.988h-5.66v10.134L59.945 155.1v-5.294l-6.105-10.573v-8.854l3.988 2.302v4.603l11.892 20.598v6.851l15.388 8.884 11.14-.012 3.556 6.163.01-4.735z"/><path stroke="#FFF" stroke-width=".5" mask="url(#d)" d="M105.123 175.032v-1.107l-1.959-1.13v-2.338h4.725l1.13-1.958h2.072l5.148-8.915h-7.005l-2.65 1.53-4.073 7.055-9.254-.01-4-6.929v-11.51l1.618-2.804-6.28-10.876h-3.067l-2.589 1.494-4.147-7.183h-4.428l-1.959 1.131h-5.982l-6.906-3.988h-5.66v10.134L59.945 155.1v-5.294l-6.105-10.573v-8.854l3.988 2.302v4.603l11.892 20.598v6.851l15.388 8.884 11.14-.012 3.556 6.163.01-4.735z"/><path fill="#2ECDCD" mask="url(#d)" d="M175.785 282.113l11.896 7.008v8.133h6.569l2.457-4.257v-6.618h-2.261l-2.433-4.216h-5.703v-7.547h-10.525z"/><path stroke="#FFF" stroke-width=".5" mask="url(#d)" d="M175.785 282.113l11.896 7.008v8.133h6.569l2.457-4.257v-6.618h-2.261l-2.433-4.216h-5.703v-7.547h-10.525z"/><path fill="#D8D8D8" mask="url(#d)" d="M119.878 178.26l-6.354 3.667-1.405 2.433 2.763 1.595v1.853h4.996z"/><path stroke="#FFF" stroke-width=".5" stroke-linejoin="bevel" mask="url(#d)" d="M119.878 178.26l-6.354 3.667-1.405 2.433 2.763 1.595v1.853h4.996z"/><path fill="#D8D8D8" mask="url(#d)" d="M168.493 350.08v-11.185l-3.465-6.002v-19.396l-2.6-4.503v-20.497l3.17-1.83v-4.554l-7.252-12.514-1.616 2.797v33.6l3.112 5.1v18.843l5.789 10.028v11.38l10.279 17.802 7.969 4.6 6.703-.01-3.673-2.12-.005-.006h-3.644v-4.752l-.027-.015-2.302-3.987h-5.146z"/><path stroke="#FFF" stroke-width=".5" stroke-linejoin="bevel" mask="url(#d)" d="M168.493 350.08v-11.185l-3.465-6.002v-19.396l-2.6-4.503v-20.497l3.17-1.83v-4.554l-7.252-12.514-1.616 2.797v33.6l3.112 5.1v18.843l5.789 10.028v11.38l10.279 17.802 7.969 4.6 6.703-.01-3.673-2.12-.005-.006h-3.644v-4.752l-.027-.015-2.302-3.987h-5.146z"/><path fill="#D8D8D8" mask="url(#d)" d="M195.554 214.288l3.18-5.405-3.129-5.42-.01-.011h-3.267v10.837z"/><path stroke="#FFF" stroke-width=".5" stroke-linejoin="bevel" mask="url(#d)" d="M195.554 214.288l3.18-5.405-3.129-5.42-.01-.011h-3.267v10.837z"/><path d="M235.045 234.494l-3.485-6.037-.016-.016h-9.28l-11.452-6.612h-4.604l-7.475-12.945-3.179 5.404h-11.676l-3.624 2.093-1.13-1.958v-8.949h-3.964v2.042l-2.99 1.821-2.806-1.62h-2.26v3.091l2.295 3.976-5.64 3.257h-2.07l-2.075-3.591h-5.697v17.09h-2.157l-6.29 3.632v9.373l4.583 2.647 3.092-.004v3.564h5.2l5.25-3.03h2.261v4.994l9.172 5.296h4.208v7.709h5.986v2.261l2.46 4.26-1.372 2.375v7.546h5.702l2.433 4.216h2.261v3.28h2.441v3.683l-6.2 10.738 11.39 6.576v3.107l7.505-12.998v-11.048l9.2-5.311h4.603l7.151-12.388v-13.029l8.925-15.473v-9.022h-6.676z" fill="#D8D8D8" mask="url(#d)"/><path d="M235.045 234.494l-3.485-6.037-.016-.016h-9.28l-11.452-6.612h-4.604l-7.475-12.945-3.179 5.404h-11.676l-3.624 2.093-1.13-1.958v-8.949h-3.964v2.042l-2.99 1.821-2.806-1.62h-2.26v3.091l2.295 3.976-5.64 3.257h-2.07l-2.075-3.591h-5.697v17.09h-2.157l-6.29 3.632v9.373l4.583 2.647 3.092-.004v3.564h5.2l5.25-3.03h2.261v4.994l9.172 5.296h4.208v7.709h5.986v2.261l2.46 4.26-1.372 2.375v7.546h5.702l2.433 4.216h2.261v3.28h2.441v3.683l-6.2 10.738 11.39 6.576v3.107l7.505-12.998v-11.048l9.2-5.311h4.603l7.151-12.388v-13.029l8.925-15.473v-9.022h-6.676z" stroke="#FFF" stroke-width=".5" stroke-linejoin="bevel" mask="url(#d)"/><path fill="#D8D8D8" mask="url(#d)" d="M109.779 179.764l3.746 2.163 6.354-3.667v-2.537l-.014-.015h-8.774l-1.312 2.22z"/><path stroke="#FFF" stroke-width=".5" stroke-linejoin="bevel" mask="url(#d)" d="M109.779 179.764l3.746 2.163 6.354-3.667v-2.537l-.014-.015h-8.774l-1.312 2.22z"/><path fill="#D8D8D8" mask="url(#d)" d="M130.224 191.906l-3.986 2.302-3.806-2.19v2.9l4.05 2.34 3.987-2.304 3.987 2.303v-2.908z"/><path stroke="#FFF" stroke-width=".5" stroke-linejoin="bevel" mask="url(#d)" d="M130.224 191.906l-3.986 2.302-3.806-2.19v2.9l4.05 2.34 3.987-2.304 3.987 2.303v-2.908z"/><path fill="#D8D8D8" mask="url(#d)" d="M153.145 250.752v.007l-.007-.007h.007v-3.564l-3.092.003-4.584-2.646v-9.373l6.291-3.632v-4.823h-6.568l-3.306-5.725-2.163-1.249v4.546l-7.085 4.091v5.347-.34h-4.212l-2.193-3.798v4.886l13.606 23.566v4.604l16.891 9.752 1.615-2.798v-18.847z"/><path stroke="#FFF" stroke-width=".5" stroke-linejoin="bevel" mask="url(#d)" d="M153.145 250.752v.007l-.007-.007h.007v-3.564l-3.092.003-4.584-2.646v-9.373l6.291-3.632v-4.823h-6.568l-3.306-5.725-2.163-1.249v4.546l-7.085 4.091v5.347-.34h-4.212l-2.193-3.798v4.886l13.606 23.566v4.604l16.891 9.752 1.615-2.798v-18.847z"/><path fill="#D8D8D8" mask="url(#d)" d="M132.638 233.388v-5.007l7.085-4.091v-4.546l-7.518-4.34-5.972 3.448v10.738l2.193 3.798z"/><path stroke="#FFF" stroke-width=".5" stroke-linejoin="bevel" mask="url(#d)" d="M132.638 233.388v-5.007l7.085-4.091v-4.546l-7.518-4.34-5.972 3.448v10.738l2.193 3.798z"/><path d="M124.57 76.648l-3.02 1.825V68.92h3.02v7.73zm-10.902-27.342h-5.073l-2.093 2.525-1.265-.634h-5.253v-2.66h5.253l4.48-2.587 2.833 1.635 5.83-3.366 1.024 1.773-5.736 3.314zM101.685 36.12h6.486l3.09-1.785 4.49 2.592-4.655 2.69h-11.43l2.019-3.497zm104.817 29.507h-.021V54.074l-2.164-1.249-8.098 4.675h-4.603l4.152-7.19-5.301-3.06-.007-.009h-8.354L175.93 57.94v4.22l-9.633 5.561v6.675l-3.987 2.302h-4.604v-5.985l2.764-4.788h-4.603l-8.494-4.904h-5.315v-8.316l16.52-9.545h6.56l3.988-2.302-3.988-2.3-.005-.006h9.618l9.057-5.23v-3.07h-2.532l-8.906 5.143V29.41l-3.212-5.564-5.808 3.353v4.604l-3.986 2.301h-34.111l-8.29-4.786h-26.52l-35.778 20.52 7.05 4.023v7.648h-2.696v13.972l3.673 6.361h64.132l4.783 2.73 3.492-2.016h5.948l3.67 6.373.892 1.546h2.44l5.342 3.174h-6.26l-1.522 2.73v2.925h2.095l6.242-3.604h6.532l4.524-2.612h4.94l3.977-6.887h4.31v5.44l1.958 1.131v2.31h7.823l9.97-5.756-.012-2.406-7.771 4.488-4.151-7.19h5.298l-1.395-2.416h-8.65l5.99-3.458h13.01l5-2.887h5.985l3.06-5.303-7.842-4.528z" fill="#D8D8D8" mask="url(#d)"/><path d="M124.57 76.648l-3.02 1.825V68.92h3.02v7.73zm-10.902-27.342h-5.073l-2.093 2.525-1.265-.634h-5.253v-2.66h5.253l4.48-2.587 2.833 1.635 5.83-3.366 1.024 1.773-5.736 3.314zM101.685 36.12h6.486l3.09-1.785 4.49 2.592-4.655 2.69h-11.43l2.019-3.497zm104.817 29.507h-.021V54.074l-2.164-1.249-8.098 4.675h-4.603l4.152-7.19-5.301-3.06-.007-.009h-8.354L175.93 57.94v4.22l-9.633 5.561v6.675l-3.987 2.302h-4.604v-5.985l2.764-4.788h-4.603l-8.494-4.904h-5.315v-8.316l16.52-9.545h6.56l3.988-2.302-3.988-2.3-.005-.006h9.618l9.057-5.23v-3.07h-2.532l-8.906 5.143V29.41l-3.212-5.564-5.808 3.353v4.604l-3.986 2.301h-34.111l-8.29-4.786h-26.52l-35.778 20.52 7.05 4.023v7.648h-2.696v13.972l3.673 6.361h64.132l4.783 2.73 3.492-2.016h5.948l3.67 6.373.892 1.546h2.44l5.342 3.174h-6.26l-1.522 2.73v2.925h2.095l6.242-3.604h6.532l4.524-2.612h4.94l3.977-6.887h4.31v5.44l1.958 1.131v2.31h7.823l9.97-5.756-.012-2.406-7.771 4.488-4.151-7.19h5.298l-1.395-2.416h-8.65l5.99-3.458h13.01l5-2.887h5.985l3.06-5.303-7.842-4.528z" stroke="#FFF" stroke-width=".5" stroke-linejoin="bevel" mask="url(#d)"/><path fill="#D8D8D8" mask="url(#d)" d="M469.026 151.124l-2.302-3.986-2.302 3.986-7.691-.007 2.595 4.525h7.285l2.608-4.407z"/><path stroke="#FFF" stroke-width=".5" stroke-linejoin="bevel" mask="url(#d)" d="M469.026 151.124l-2.302-3.986-2.302 3.986-7.691-.007 2.595 4.525h7.285l2.608-4.407z"/><path fill="#D8D8D8" mask="url(#d)" d="M450.96 167.963h4.848l10.802-6.237v-6.084h-7.285l-2.595-4.525h-1.923l-7.123-12.338h-7.026l-16.346-9.437-3.182-.004 2.101 3.638-2.007 3.432h-5.422v3.379l7.125 12.47 3.987 2.303v5.15l3.986 2.302 6.164 10.72h11.141z"/><path stroke="#FFF" stroke-width=".5" stroke-linejoin="bevel" mask="url(#d)" d="M450.96 167.963h4.848l10.802-6.237v-6.084h-7.285l-2.595-4.525h-1.923l-7.123-12.338h-7.026l-16.346-9.437-3.182-.004 2.101 3.638-2.007 3.432h-5.422v3.379l7.125 12.47 3.987 2.303v5.15l3.986 2.302 6.164 10.72h11.141z"/><path fill="#D8D8D8" mask="url(#d)" d="M581.864 158.23l7.648 4.416v2.261l-1.617 2.802 7.365 4.25 3.658 6.338v8.358l-7.153 4.13 1.199.693v4.603l3.982-2.307v-3.452l6.287-3.632v-4.974l-6.31-10.927-5.46-3.153-.003-.003v-3.768l3.066-1.77v-3.409l-2.218-3.84h-4.583z"/><path stroke="#FFF" stroke-width=".5" stroke-linejoin="bevel" mask="url(#d)" d="M581.864 158.23l7.648 4.416v2.261l-1.617 2.802 7.365 4.25 3.658 6.338v8.358l-7.153 4.13 1.199.693v4.603l3.982-2.307v-3.452l6.287-3.632v-4.974l-6.31-10.927-5.46-3.153-.003-.003v-3.768l3.066-1.77v-3.409l-2.218-3.84h-4.583z"/><path fill="#D8D8D8" mask="url(#d)" d="M393.578 83.78l-1.958 1.13 5.057 8.525V89.79h2.3v-2.81z"/><path stroke="#FFF" stroke-width=".5" stroke-linejoin="bevel" mask="url(#d)" d="M393.578 83.78l-1.958 1.13 5.057 8.525V89.79h2.3v-2.81z"/><path fill="#D8D8D8" mask="url(#d)" d="M500.216 104.347h-7.332l3.128-1.806-1.959-1.131-4.476 2.585h-4.322l-3.567-6.191h-6.982l-1.663-2.881-5.71-3.297-5.326 3.075v9.202h2.164l2.444-4.234 4.778 2.758-.013 2.25h2.868l13.188 7.613v2.26h3.555v-3.777l-1.958-1.131 2.108-3.65h2.261l2.703 1.562h2.26z"/><path stroke="#FFF" stroke-width=".5" stroke-linejoin="bevel" mask="url(#d)" d="M500.216 104.347h-7.332l3.128-1.806-1.959-1.131-4.476 2.585h-4.322l-3.567-6.191h-6.982l-1.663-2.881-5.71-3.297-5.326 3.075v9.202h2.164l2.444-4.234 4.778 2.758-.013 2.25h2.868l13.188 7.613v2.26h3.555v-3.777l-1.958-1.131 2.108-3.65h2.261l2.703 1.562h2.26z"/><path fill="#D8D8D8" mask="url(#d)" d="M504.683 146.314l-4.796-2.77 1.13-1.957 3.35.004 6.445-11.164-3.345-5.793v-2.26h5.453v-2.262l-7.047-4.07h-4.57l-1.958 1.132v6.09l-2.156 1.245v6.302l-6.215 3.6v2.978h-13.711l5.049 2.915v7.466h7.717l10.61 6.126.03.053 4.014-2.395z"/><path stroke="#FFF" stroke-width=".5" stroke-linejoin="bevel" mask="url(#d)" d="M504.683 146.314l-4.796-2.77 1.13-1.957 3.35.004 6.445-11.164-3.345-5.793v-2.26h5.453v-2.262l-7.047-4.07h-4.57l-1.958 1.132v6.09l-2.156 1.245v6.302l-6.215 3.6v2.978h-13.711l5.049 2.915v7.466h7.717l10.61 6.126.03.053 4.014-2.395z"/><path fill="#D8D8D8" mask="url(#d)" d="M477.263 137.389l2.743-4.75.096-.167-3.926-2.267v-13.179l-8.275-4.778h-7.615l-1.5.867v3.512l-7.879.001-5.477-3.168v-3.383l-1.746-3.024-3.246 1.87v2.265h-5.028v4.229l5.547 3.202v6.695l5.117 2.992v7.685l3.987-2.302 3.986 2.302v2.687l9.956 5.748 3.987-2.302 3.108 1.794v3.851h11.214v-7.465z"/><path stroke="#FFF" stroke-width=".5" stroke-linejoin="bevel" mask="url(#d)" d="M477.263 137.389l2.743-4.75.096-.167-3.926-2.267v-13.179l-8.275-4.778h-7.615l-1.5.867v3.512l-7.879.001-5.477-3.168v-3.383l-1.746-3.024-3.246 1.87v2.265h-5.028v4.229l5.547 3.202v6.695l5.117 2.992v7.685l3.987-2.302 3.986 2.302v2.687l9.956 5.748 3.987-2.302 3.108 1.794v3.851h11.214v-7.465z"/><path fill="#D8D8D8" mask="url(#d)" d="M427.734 99.666v4.603h10.018v-2.793l-3.135-1.81z"/><path stroke="#FFF" stroke-width=".5" stroke-linejoin="bevel" mask="url(#d)" d="M427.734 99.666v4.603h10.018v-2.793l-3.135-1.81z"/><path d="M565.645 69.849l-2.738 4.744-4.049-.01v-1.355h2.347l2.33-4.035V58.085l2.11 1.219v10.545zM399.721 57.026h-2.208l-.953-1.651v-2.142h1.708l1.453 2.517v1.276zm280.256-18.814h4.604l3.987 2.302-.004-.003h6.263l-2.776-4.807h-9.19l-4.451-2.57h-7.366l-8.052-4.649-.012-.01h-36.294l-3.986-2.302h-14.531l-5.036-2.907H583.31v2.302h-13.811l-9.338-5.392-.007-.006h-31.74l-3.988 2.302h-4.603l9.403-5.429-2.302-3.986h-13.242l-3.987-2.303-8.326 4.808-.004-.004h-13.121l-2.302 3.987-.008-.007h-8.167l2.302 3.726h-10.236l3.528 6.108h6.831l2.302 3.987h-5.41l-3.987 2.302-5.9-10.225h-2.314l-2.302-3.986h-4.603v5.294l5.956 3.436v3.173l-6.171-3.562-.014-.013h-10.716l-3.987 2.302h-8.199l-6.978 3.999h-6.406l-3.102-1.791v3.579l-9.45 5.444h-4.604l-3.466-6.002-5.146-2.971h4.603l5.148 2.971 6.038.003v-3.511l-6.035-3.485h-6.675l-3.987-2.301h-1.32l-4.262 2.461V33.1l6.73 11.719-3.563 6.172h2.417l-2.302 3.987v7.019h3.461l3.073 1.754v2.729l4.563 2.614v3.969h3.642l3.039 5.264h7.622l3.247 1.875v6.656l-3.403 1.924v3.68H415.8v1.721h2.437l9.497 5.483h6.883l3.135 1.81 3.136 1.811 2.089-1.207-5.639-9.779 4.55-2.628-.009-2.138-5.738-3.282-.02-4.857 6.779-3.979 4.809-.02 3.903 2.232 14.193-.059-.01-2.262-2.686-4.608-.009-2.262 5.199-.022 4.915-2.882h8.078l6.94 3.949 3.985-.017 2.597-1.499 8.414 4.857 2.31 4.002h10.299l7.846 4.582 7.699-4.471h5.992l5.062 2.919h4.726v-2.261l-1.912-3.309h4.915l7.651 4.417h9.266l5.09 2.939h4.923l3.536-2.041h11.878v-9.49h7.258L622.4 83.178v3.121h4.011l4.356-2.514 2.21 3.828v6.598h-4.389l2.648 4.547 7.769-.006 2.283-3.987-.001-13.76-5.661-9.779-5.918-3.418-3.988 2.302-6.637-3.833 3.946-6.834v-5.292h19.436l3.705 2.139v-8.853h4.603l4.692 2.709 2.302-3.986 3.986 2.301v3.403l-3.254 5.638v4.603l2.301 3.987 7.878 4.549 3 5.196 3.008-.003-.02-9.082-3.981-6.896-5.446-3.144v-4.604l-.019-.016h13.134l-.011-.009v-2.302l7.444-4.297-3.988-2.302h-4.603l-4.803-2.772-.007-.006h7.591v-2.192zm-255.983-5.843h3.9v-1.981h-3.9v1.981zM587.396 17.48h2.524v-1.212h-2.524v1.212zm-5.939 3.216h2.524v-1.212h-2.524v1.212zM438.103 27.15l-8.348-4.792 2.303-3.987 9.25-5.341h9.651l-3.987 2.302h-4.603l-8.317 4.802 4.051 7.016zm211.271 61.192l-9.747-17.028h2.216l9.746 17.028h-2.215zM482.937 4.684l-.002-.002h5.713l2.326 1.341h3.082l3.399 1.959h-8.804l-5.714-3.298zm98.488 11.584l-3.987-2.301h-8.875l3.986 2.301h8.876zM378.096 67.536h4.348v-2.671h-4.348v2.671z" fill="#D8D8D8" mask="url(#d)"/><path d="M565.645 69.849l-2.738 4.744-4.049-.01v-1.355h2.347l2.33-4.035V58.085l2.11 1.219v10.545zM399.721 57.026h-2.208l-.953-1.651v-2.142h1.708l1.453 2.517v1.276zm280.256-18.814h4.604l3.987 2.302-.004-.003h6.263l-2.776-4.807h-9.19l-4.451-2.57h-7.366l-8.052-4.649-.012-.01h-36.294l-3.986-2.302h-14.531l-5.036-2.907H583.31v2.302h-13.811l-9.338-5.392-.007-.006h-31.74l-3.988 2.302h-4.603l9.403-5.429-2.302-3.986h-13.242l-3.987-2.303-8.326 4.808-.004-.004h-13.121l-2.302 3.987-.008-.007h-8.167l2.302 3.726h-10.236l3.528 6.108h6.831l2.302 3.987h-5.41l-3.987 2.302-5.9-10.225h-2.314l-2.302-3.986h-4.603v5.294l5.956 3.436v3.173l-6.171-3.562-.014-.013h-10.716l-3.987 2.302h-8.199l-6.978 3.999h-6.406l-3.102-1.791v3.579l-9.45 5.444h-4.604l-3.466-6.002-5.146-2.971h4.603l5.148 2.971 6.038.003v-3.511l-6.035-3.485h-6.675l-3.987-2.301h-1.32l-4.262 2.461V33.1l6.73 11.719-3.563 6.172h2.417l-2.302 3.987v7.019h3.461l3.073 1.754v2.729l4.563 2.614v3.969h3.642l3.039 5.264h7.622l3.247 1.875v6.656l-3.403 1.924v3.68H415.8v1.721h2.437l9.497 5.483h6.883l3.135 1.81 3.136 1.811 2.089-1.207-5.639-9.779 4.55-2.628-.009-2.138-5.738-3.282-.02-4.857 6.779-3.979 4.809-.02 3.903 2.232 14.193-.059-.01-2.262-2.686-4.608-.009-2.262 5.199-.022 4.915-2.882h8.078l6.94 3.949 3.985-.017 2.597-1.499 8.414 4.857 2.31 4.002h10.299l7.846 4.582 7.699-4.471h5.992l5.062 2.919h4.726v-2.261l-1.912-3.309h4.915l7.651 4.417h9.266l5.09 2.939h4.923l3.536-2.041h11.878v-9.49h7.258L622.4 83.178v3.121h4.011l4.356-2.514 2.21 3.828v6.598h-4.389l2.648 4.547 7.769-.006 2.283-3.987-.001-13.76-5.661-9.779-5.918-3.418-3.988 2.302-6.637-3.833 3.946-6.834v-5.292h19.436l3.705 2.139v-8.853h4.603l4.692 2.709 2.302-3.986 3.986 2.301v3.403l-3.254 5.638v4.603l2.301 3.987 7.878 4.549 3 5.196 3.008-.003-.02-9.082-3.981-6.896-5.446-3.144v-4.604l-.019-.016h13.134l-.011-.009v-2.302l7.444-4.297-3.988-2.302h-4.603l-4.803-2.772-.007-.006h7.591v-2.192zm-255.983-5.843h3.9v-1.981h-3.9v1.981zM587.396 17.48h2.524v-1.212h-2.524v1.212zm-5.939 3.216h2.524v-1.212h-2.524v1.212zM438.103 27.15l-8.348-4.792 2.303-3.987 9.25-5.341h9.651l-3.987 2.302h-4.603l-8.317 4.802 4.051 7.016zm211.271 61.192l-9.747-17.028h2.216l9.746 17.028h-2.215zM482.937 4.684l-.002-.002h5.713l2.326 1.341h3.082l3.399 1.959h-8.804l-5.714-3.298zm98.488 11.584l-3.987-2.301h-8.875l3.986 2.301h8.876zM378.096 67.536h4.348v-2.671h-4.348v2.671z" stroke="#FFF" stroke-width=".5" stroke-linejoin="bevel" mask="url(#d)"/><path fill="#D8D8D8" mask="url(#d)" d="M432.745 106.527l1.168 2.044h3.424v2.617h3.1v-2.265l-2.685-4.654h-5.007z"/><path stroke="#FFF" stroke-width=".5" stroke-linejoin="bevel" mask="url(#d)" d="M432.745 106.527l1.168 2.044h3.424v2.617h3.1v-2.265l-2.685-4.654h-5.007z"/><path fill="#D8D8D8" mask="url(#d)" d="M496.105 107.553l-2.703-1.56h-2.261l-2.107 3.648 1.958 1.131v3.78h3.529l1.437-2.489h3.387v3.215l1.958-1.17h4.57l-2.32-4.018H493.23v-.878z"/><path stroke="#FFF" stroke-width=".5" stroke-linejoin="bevel" mask="url(#d)" d="M496.105 107.553l-2.703-1.56h-2.261l-2.107 3.648 1.958 1.131v3.78h3.529l1.437-2.489h3.387v3.215l1.958-1.17h4.57l-2.32-4.018H493.23v-.878z"/><path fill="#D8D8D8" mask="url(#d)" d="M369.793 236.383l3.652 6.326 5.133.007v-2.949h5.362l1.131 1.958v9.58h8.206l10.317 5.957h1.094v-2.276l-3.533-2.04v-8.125l2.44-1.407h2.931l-4.313-7.472v-9.832l1.626-2.817v-2.262l3.251-5.63v-5.693l-1.13-2h-5.695l-1.13-1.959h-9.575l-3.292 1.901h-3.009l-3.977-2.296-3.295 1.902v5.468l-1.534 2.658v7.602l-4.039 2.332.017 5.843-3.829 2.211h-2.709l-1.872 1.081v1.808h-1.425l1.115 1.931 3.148-1.806z"/><path stroke="#FFF" stroke-width=".5" stroke-linejoin="bevel" mask="url(#d)" d="M369.793 236.383l3.652 6.326 5.133.007v-2.949h5.362l1.131 1.958v9.58h8.206l10.317 5.957h1.094v-2.276l-3.533-2.04v-8.125l2.44-1.407h2.931l-4.313-7.472v-9.832l1.626-2.817v-2.262l3.251-5.63v-5.693l-1.13-2h-5.695l-1.13-1.959h-9.575l-3.292 1.901h-3.009l-3.977-2.296-3.295 1.902v5.468l-1.534 2.658v7.602l-4.039 2.332.017 5.843-3.829 2.211h-2.709l-1.872 1.081v1.808h-1.425l1.115 1.931 3.148-1.806z"/><path fill="#D8D8D8" mask="url(#d)" d="M411.487 255.279v4.28l2.457 1.419h1.973v4.8l1.523 2.64 2.48-4.296v-2.291l-3.094-5.03h-1.43v-9.875l-2.314-1.334-.001 8.766z"/><path stroke="#FFF" stroke-width=".5" stroke-linejoin="bevel" mask="url(#d)" d="M411.487 255.279v4.28l2.457 1.419h1.973v4.8l1.523 2.64 2.48-4.296v-2.291l-3.094-5.03h-1.43v-9.875l-2.314-1.334-.001 8.766z"/><path fill="#D8D8D8" mask="url(#d)" d="M406.527 243.414h-2.933l-2.438 1.407v8.125l3.532 2.04v2.276h-1.094l-10.317-5.956h-3.2v5.525h-5.005v9.503l4.8 2.727h3.278l.813 1.408h4.472l3.385-5.864h3.745v-1.57l5.922-3.476v-4.28l1.594-.921v-8.766l-3.243-1.87-.027 1.588z"/><path stroke="#FFF" stroke-width=".5" stroke-linejoin="bevel" mask="url(#d)" d="M406.527 243.414h-2.933l-2.438 1.407v8.125l3.532 2.04v2.276h-1.094l-10.317-5.956h-3.2v5.525h-5.005v9.503l4.8 2.727h3.278l.813 1.408h4.472l3.385-5.864h3.745v-1.57l5.922-3.476v-4.28l1.594-.921v-8.766l-3.243-1.87-.027 1.588z"/><path fill="#D8D8D8" mask="url(#d)" d="M416.826 253.284v3.518l3.095 5.028v2.291l-2.481 4.297-1.523-2.639v-4.8h-1.972l-.001-.002-2.457-1.418-5.922 3.476v1.57l6.092 3.518v7.006l-4.315 7.383v12.471h2.395v-1.895l7.748-4.484-.001-16.417 13.774-7.964V250.34l-5.1 2.945z"/><path stroke="#FFF" stroke-width=".5" stroke-linejoin="bevel" mask="url(#d)" d="M416.826 253.284v3.518l3.095 5.028v2.291l-2.481 4.297-1.523-2.639v-4.8h-1.972l-.001-.002-2.457-1.418-5.922 3.476v1.57l6.092 3.518v7.006l-4.315 7.383v12.471h2.395v-1.895l7.748-4.484-.001-16.417 13.774-7.964V250.34l-5.1 2.945z"/><path fill="#D8D8D8" mask="url(#d)" d="M425.435 229.035L416 223.588l-2.277 3.946h-3.536v-4.242h-3.097v5.628l-1.944 3.367-1.802-.028v2.734l4.314 7.471 2.179 1.259 3.244 1.869v-.012.012l2.316 1.334v-.022l1.429.845v5.535h9.332l5.099-2.945v-1.191l-3.99-6.91v-7.073l1.3-2.25-3.132-1.809z"/><path stroke="#FFF" stroke-width=".5" stroke-linejoin="bevel" mask="url(#d)" d="M425.435 229.035L416 223.588l-2.277 3.946h-3.536v-4.242h-3.097v5.628l-1.944 3.367-1.802-.028v2.734l4.314 7.471 2.179 1.259 3.244 1.869v-.012.012l2.316 1.334v-.022l1.429.845v5.535h9.332l5.099-2.945v-1.191l-3.99-6.91v-7.073l1.3-2.25-3.132-1.809z"/><path fill="#D8D8D8" mask="url(#d)" d="M404.924 227.539h-2.71v2.762l.624 1.083.506.875 1.802.029 1.944-3.368v-2.812h-2.166z"/><path stroke="#FFF" stroke-width=".5" stroke-linejoin="bevel" mask="url(#d)" d="M404.924 227.539h-2.71v2.762l.624 1.083.506.875 1.802.029 1.944-3.368v-2.812h-2.166z"/><path d="M86.302 31.619l-6.992-4.014H44.47L5.745 49.962l4.242 7.345L0 63.074h4.603l20.57-11.877H52.29l6.73 3.882v6.431h2.695v-7.648l-7.055-4.026 31.643-18.217zm93.885 61.153v2.31h-8.21l.015.016-3.002 5.201v2.301h-6.475l.004 2.997-11.029 6.367v8.209l-17.048 9.843v18.825h-1.908l-.005-.006-3.252-5.633v-6.675l-4.025-2.324-9.478.014-3.988 2.301h-11.134l-5.673 3.289-4.104 7.109-6.28-10.876h-3.067l-2.588 1.495-4.149-7.184h-4.427l-1.958 1.131h-5.983l-6.906-3.988h-5.659v-2.327l-5.925-3.421v-12.241l10.591-18.344v-4.603l8.168-4.716h64.131l4.784 2.731-4.784 2.761 1.131 1.958 3.392-1.958h3.753l2.763 1.596h6.855l.892 1.545h-9.129l-3.258 1.881-3.623 6.277v4.699l5.122-2.957v.003l.02-.015-.02.012v-5.314l3.745-2.162h5.21l-2.01 3.48h3.943v2.925h-3.89l-2.263 3.936h5.701l8.272-4.776h2.262l4.787-2.764 4.523-2.611h4.941l3.976-6.888h4.311v5.44l1.958 1.131z" fill="#D8D8D8" mask="url(#d)"/><path d="M86.302 31.619l-6.992-4.014H44.47L5.745 49.962l4.242 7.345L0 63.074h4.603l20.57-11.877H52.29l6.73 3.882v6.431h2.695v-7.648l-7.055-4.026 31.643-18.217zm93.885 61.153v2.31h-8.21l.015.016-3.002 5.201v2.301h-6.475l.004 2.997-11.029 6.367v8.209l-17.048 9.843v18.825h-1.908l-.005-.006-3.252-5.633v-6.675l-4.025-2.324-9.478.014-3.988 2.301h-11.134l-5.673 3.289-4.104 7.109-6.28-10.876h-3.067l-2.588 1.495-4.149-7.184h-4.427l-1.958 1.131h-5.983l-6.906-3.988h-5.659v-2.327l-5.925-3.421v-12.241l10.591-18.344v-4.603l8.168-4.716h64.131l4.784 2.731-4.784 2.761 1.131 1.958 3.392-1.958h3.753l2.763 1.596h6.855l.892 1.545h-9.129l-3.258 1.881-3.623 6.277v4.699l5.122-2.957v.003l.02-.015-.02.012v-5.314l3.745-2.162h5.21l-2.01 3.48h3.943v2.925h-3.89l-2.263 3.936h5.701l8.272-4.776h2.262l4.787-2.764 4.523-2.611h4.941l3.976-6.888h4.311v5.44l1.958 1.131z" stroke="#FFF" stroke-width=".5" stroke-linejoin="bevel" mask="url(#d)"/><path fill="#D8D8D8" mask="url(#d)" d="M386.486 62.185h-8.39v2.679h4.348v2.672l3.59 2.072 3.3-5.715z"/><path stroke="#FFF" stroke-width=".5" stroke-linejoin="bevel" mask="url(#d)" d="M386.486 62.185h-8.39v2.679h4.348v2.672l3.59 2.072 3.3-5.715z"/><path fill="#D8D8D8" mask="url(#d)" d="M392.484 54.98v3.434h-8.286v-2.125l2.265-1.31z"/><path stroke="#FFF" stroke-width=".5" stroke-linejoin="bevel" mask="url(#d)" d="M392.484 54.98v3.434h-8.286v-2.125l2.265-1.31z"/><path fill="#D8D8D8" mask="url(#d)" d="M384.198 58.414v1.178h-4.604l-1.5 2.592h8.389l2.849 1.71L392.484 62v-3.586z"/><path stroke="#FFF" stroke-width=".5" stroke-linejoin="bevel" mask="url(#d)" d="M384.198 58.414v1.178h-4.604l-1.5 2.592h8.389l2.849 1.71L392.484 62v-3.586z"/><path d="M396.676 93.435h2.302v-3.646h-2.302v3.646zm24.458-13.233v6.656h-4.661l-3.247 1.875h-1.456v4.187l2.188 1.263h-4.776l-2.573-4.394h-7.631v-2.811l-5.4-3.199-1.958 1.131h-10.293l.061-.107v-3.491l4.861-2.807-1.345-2.332 1.13-1.958h4.877l1.958 1.131h6.761l3.954-2.283h3.642l3.039 5.264h7.622l3.247 1.875z" fill="#D8D8D8" mask="url(#d)"/><path d="M396.676 93.435h2.302v-3.646h-2.302v3.646zm24.458-13.233v6.656h-4.661l-3.247 1.875h-1.456v4.187l2.188 1.263h-4.776l-2.573-4.394h-7.631v-2.811l-5.4-3.199-1.958 1.131h-10.293l.061-.107v-3.491l4.861-2.807-1.345-2.332 1.13-1.958h4.877l1.958 1.131h6.761l3.954-2.283h3.642l3.039 5.264h7.622l3.247 1.875z" stroke="#FFF" stroke-width=".5" stroke-linejoin="bevel" mask="url(#d)"/></g><text font-family="BentonSansBBVA-Medium, Benton Sans BBVA" font-size="11" font-weight="400" letter-spacing=".71" fill="#666" transform="translate(0 -1)"><tspan x="305.374" y="89.825">E</tspan> <tspan x="312.75" y="89.825" letter-spacing=".478">S</tspan> <tspan x="320.642" y="89.825" letter-spacing="-.055">P</tspan> <tspan x="326.989" y="89.825" letter-spacing=".509">A</tspan> <tspan x="335.154" y="89.825" letter-spacing=".525"></tspan> <tspan x="344.072" y="89.825" letter-spacing="-.055">A</tspan></text><text font-family="BentonSansBBVA-Medium, Benton Sans BBVA" font-size="11" font-weight="400" letter-spacing=".13" fill="#666" transform="translate(0 -1)"><tspan x="108.265" y="152.393">M</tspan> <tspan x="118.218" y="152.393" letter-spacing=".311"></tspan> <tspan x="125.361" y="152.393" letter-spacing="-.013">X</tspan> <tspan x="133.014" y="152.393" letter-spacing=".109">I</tspan> <tspan x="136.534" y="152.393" letter-spacing=".036">C</tspan> <tspan x="144.27" y="152.393" letter-spacing="-.013">O</tspan></text><text font-family="BentonSansBBVA-Medium, Benton Sans BBVA" font-size="11" font-weight="400" letter-spacing=".046" fill="#666" transform="translate(0 -1)"><tspan x="183.472" y="194.666">V</tspan> <tspan x="191.02" y="194.666" letter-spacing="-.007">E</tspan> <tspan x="197.844" y="194.666" letter-spacing=".065">N</tspan> <tspan x="206.301" y="194.666" letter-spacing=".235">E</tspan> <tspan x="213.367" y="194.666" letter-spacing="-.007">Z</tspan> <tspan x="220.29" y="194.666" letter-spacing=".099">U</tspan> <tspan x="228.32" y="194.666" letter-spacing="-.007">E</tspan> <tspan x="235.144" y="194.666" letter-spacing=".398">L</tspan> <tspan x="241.889" y="194.666" letter-spacing="-.007">A</tspan></text><text font-family="BentonSansBBVA-Medium, Benton Sans BBVA" font-size="11" font-weight="400" letter-spacing=".88" fill="#666" transform="translate(0 -1)"><tspan x="217.473" y="319.67">U</tspan> <tspan x="226.284" y="319.67" letter-spacing=".733">R</tspan> <tspan x="234.398" y="319.67" letter-spacing=".898">U</tspan> <tspan x="243.173" y="319.67" letter-spacing=".796">G</tspan> <tspan x="252.054" y="319.67" letter-spacing=".528">U</tspan> <tspan x="260.237" y="319.67" letter-spacing="-.085">AY</tspan></text><text font-family="BentonSansBBVA-Medium, Benton Sans BBVA" font-size="11" font-weight="400" letter-spacing=".242" fill="#666" transform="translate(0 -1)"><tspan x="199.477" y="280.675">P</tspan> <tspan x="206.121" y="280.675" letter-spacing=".809">A</tspan> <tspan x="214.586" y="280.675" letter-spacing=".999">R</tspan> <tspan x="223.076" y="280.675" letter-spacing=".544">A</tspan> <tspan x="230.836" y="280.675" letter-spacing=".796">G</tspan> <tspan x="239.717" y="280.675" letter-spacing=".528">U</tspan> <tspan x="247.9" y="280.675" letter-spacing="-.085">AY</tspan></text><text font-family="BentonSansBBVA-Medium, Benton Sans BBVA" font-size="11" font-weight="400" letter-spacing=".148" fill="#666" transform="translate(0 -1)"><tspan x="393.066" y="92.454">T</tspan> <tspan x="400.199" y="92.454" letter-spacing=".11">U</tspan> <tspan x="408.24" y="92.454" letter-spacing="-.015">R</tspan> <tspan x="415.716" y="92.454" letter-spacing=".102">Q</tspan> <tspan x="424.167" y="92.454" letter-spacing=".061">U</tspan> <tspan x="432.16" y="92.454" letter-spacing="-.008">A</tspan></text></g></svg>