<svg xmlns="http://www.w3.org/2000/svg" viewBox="0 0 812 406"><defs><style>.cls-1{fill:#f3f3f3;}.cls-1,.cls-2{stroke:#fff;stroke-miterlimit:10;}.cls-2,.cls-4{fill:#00cccd;}.cls-2{stroke-width:0.5px;}.cls-3{fill:#0a0a0a;}.cls-5{fill:#121212;}</style></defs><title>map-empleados-eng</title><g id="cab"><polygon class="cls-1" points="721.67 366.24 723.73 369.8 731.13 365.52 731.13 362.67 723.73 362.67 721.67 366.24"/><path class="cls-1" d="M766.24,377.6l26.22-15.14v5l-21.91,12.65Zm41.83-24.42v-7.39l-2.94-1.7,0,9.09-2.49,4.31h-3.57v6.27H803l3.62-6.27h4l2.49-4.31Z"/><polygon class="cls-1" points="343.19 74.33 343.19 77.07 340.05 78.89 340.05 81.16 344.3 81.17 348.61 78.68 348.62 76.24 344.22 73.74 343.19 74.33"/><rect class="cls-1" x="179.95" y="181.92" width="4.22" height="1.31"/><rect class="cls-1" x="444.51" y="130.79" width="4.11" height="1.49"/><rect class="cls-1" x="651.3" y="177.85" width="3.73" height="3.73"/><rect class="cls-1" x="680.04" y="161.19" width="3.07" height="9.16"/><path class="cls-1" d="M715.92,132.54H703.1L698.79,135l3.17,1.83v5.72h-2.42V138.3L697,136.85V133.4l7.16-4.14h5.57v-2.49l5.47-3.16v-5l-3.48-6,4.8,2.77,3.71,6.42v8.26l-4.31,2.49Zm4.9-23.3-2.76-4.77h-5l-2.24-3.89h-3.2l5,8.67Zm-17.07,27.58h3.89v-2.16h-3.89Z"/><path class="cls-1" d="M758.59,258.7l6.05,10.48h-4.51L756,262.06h-7.5v3.57H744V248.2h5l7,4.05v3.08h3.71l1.94,3.35Zm14.58-3.35h-7.65v2h7.65Z"/><polygon class="cls-1" points="336.58 42.88 332.27 40.39 330.11 41.64 325.14 41.64 322.45 43.19 322.45 40.52 318.49 40.52 318.49 44.13 320.83 44.13 320.83 47.38 328.78 47.38 336.58 42.88"/><polygon class="cls-1" points="681.86 118.11 685.26 112.22 685.26 107.24 678.78 110.53 676.33 110.53 672.95 116.4 677.9 116.4 677.9 122.67 682.13 122.67 686.12 120.57 681.86 118.11"/><polygon class="cls-1" points="686.12 120.57 682.13 122.67 685.84 129.1 685.83 132.51 691.16 129.44 686.12 120.57"/><path class="cls-1" d="M391,69.55l-1.22,2h-1.45V68.48H391Zm-4.47-4.65-4.31,2.49V70.6h4.31Z"/><polygon class="cls-1" points="585.15 101.18 589.64 101.18 601.59 108.08 613.91 108.08 619.27 111.17 624.49 111.17 628.12 109.08 634.44 109.08 636.48 105.55 636.46 101.33 641.28 101.33 644.78 99.31 644.76 96.85 651.84 96.85 651.84 94.41 648.26 92.34 639.26 92.34 639.24 92.34 639.24 86.53 639.23 86.53 630.55 86.53 626.73 88.74 621.4 88.74 615.9 85.56 605.88 85.56 597.61 80.78 592.3 80.78 594.37 84.36 594.37 86.81 589.26 86.81 583.78 83.65 577.31 83.65 568.98 88.48 582.25 96.14 585.15 101.18"/><polygon class="cls-1" points="467.44 132.18 461.55 135.57 461.55 140.3 479.23 150.51 482.55 150.51 482.55 147.49 485.08 147.49 485.08 139.18 479.55 135.95 479.55 128.71 473.55 125.25 467.44 125.25 467.44 132.18"/><polygon class="cls-1" points="398.86 223.95 398.86 220.36 402.04 214.85 397.68 212.33 397.68 210.31 401.54 210.31 399.1 206.08 399.1 201.16 395.4 203.3 395.4 208.58 390.16 217.66 390.08 217.62 387.3 216.02 383.76 222.15 383.76 224.9 386.78 224.89 386.78 229.87 386.75 229.94 389.46 231.5 390.83 231.5 395.55 231.5 403.27 231.5 398.86 223.95"/><polygon class="cls-1" points="574.87 146.1 571.18 146.1 571.18 151.25 578.4 155.42 584.22 155.42 587.29 157.2 592.65 157.2 592.65 152.75 586.54 152.75 574.87 146.1"/><polygon class="cls-1" points="642.59 206.73 650.32 202.26 650.32 193.23 646.36 186.38 638.4 181.78 640.15 178.75 640.15 176.31 631.88 171.53 628.21 173.66 626.67 174.58 629.63 179.89 629.64 179.89 631.52 179.89 631.52 184.72 638.52 184.72 644.64 188.26 644.64 194.43 637.96 194.43 637.96 199.83 639.57 200.76 639.57 204.99 642.59 206.73"/><path class="cls-1" d="M677.24,225H680l0,15.18-4.31,2.49v7.47H671.4l-2.28-3.92h-9.41v-5l-3.77-6.52,2.53-1.46,3.92,2.26h2.44l3.08-1.78h4.18Zm45.91,19.41v-3.67l-3.43-2-4.31,2.49,2.56,1.48v1.69Zm-28.2-3.92h-3l-3,1.71-3-1.71-2.49,4.32v5l3.19,5.53v-7.17l2-1.15,2.49,4.31h3l-3.57-6.19,4.3-2.5Zm29.06,15v2.73h1.31v-2.73Zm-24.35,11.3-.66-1.13-4.59,2.65.66,1.13Zm36.19-23.37-7.72,4.46-3.62-2.09-3.33,1.92,9.34,5.39h3.84l3.2,5.54L735.06,263h6.13v2.62H744V248.2Zm-44.12,22.74v-1.93H681.58l3.34,1.93Zm23.68-19.35h-7.77v1.87h7.77ZM700.2,234.18H690.12V236H700.2Zm7.44,3.54h2.08v-6.53h-2.08Zm-43.14,26.57h11.62l-3.49-2H668.8l-4.31-2.49h-7.76l-4.31-2.49-4.31,2.49,1.55,2.69h11.72Zm-22.86-22v-4l-10.18-5.88-5.61-9.72h-6.27v1.05l4.31,2.49,6.81,11.8,2.17,1.25,9.49,16.44h4.72V245.39Z"/><path class="cls-1" d="M681,225h-3.79l-5.14,8.73h-4.18l-3.08,1.78H662.4l-3.92-2.26,5.35-3.09h3.58l1.91-3.3h2.79v-2.6H674l3.52-6.1,5.58,3.22Zm-48.22-3.83,1.07,1.85V226l2.49,4.31,6.85,4v-4L641.06,229v-5l-2.49-4.31L636,221.2Z"/><polygon class="cls-1" points="390.83 231.5 389.46 231.5 386.75 229.94 384.29 234.18 390.83 234.18 390.83 231.5"/><polygon class="cls-1" points="454.16 138.54 452.08 138.54 449.51 142.98 452.36 147.94 454.16 144.78 454.16 138.54"/><polygon class="cls-1" points="612.79 148.96 606.94 148.96 602.59 156.5 595.09 156.5 595.09 152.75 592.65 152.75 592.65 157.2 587.29 157.2 584.22 155.42 578.4 155.42 571.18 151.25 571.18 146.1 565.87 143.04 565.87 138.34 563.84 134.81 563.06 133.46 561.25 130.32 557.35 130.32 557.35 132.77 551.45 132.77 551.45 135.21 555.07 141.48 548.1 153.54 544.48 153.54 543.26 155.66 548.44 158.65 548.44 164.32 544.1 166.91 548.04 173.73 553.59 170.53 556.08 174.84 556.08 187.71 567.84 208.07 567.84 213.05 567.84 213.05 570.34 213.05 575.65 203.85 575.65 190.13 583.64 185.52 592.29 170.54 597.12 170.54 594.89 166.69 594.89 160.09 597.01 158.86 598.23 160.98 605.2 160.98 605.2 163.43 603.98 165.54 607.01 170.79 610.76 164.19 610.76 157.59 611.99 155.47 614.43 155.47 616.84 151.3 612.79 148.96"/><polygon class="cls-1" points="485.08 147.49 482.55 147.49 482.55 150.51 486.82 150.51 485.08 147.49"/><polygon class="cls-1" points="426.78 171.47 426.78 175.2 424.06 175.2 424.06 179.27 424.06 190.32 421.64 190.32 418.45 195.85 421.8 201.65 421.8 204.67 425.22 210.6 430.5 207.56 433.5 207.56 434.73 209.67 439.83 206.72 439.83 204.28 444.42 201.63 444.42 207.02 446.86 207.02 448.98 205.8 452.35 205.8 457.71 196.62 457.71 189.35 459.5 186.25 462.68 184.42 459.08 178.19 459.08 173.96 456.06 168.74 451.33 171.47 426.78 171.47"/><polygon class="cls-1" points="470.86 197.14 473.55 201.8 475.84 200.48 472.52 194.74 466.69 191.37 462.68 184.42 459.5 186.25 457.71 189.35 457.71 194.4 466.11 194.4 470.86 197.14"/><polygon class="cls-1" points="473.55 204.82 475.81 206.12 478.25 204.67 475.84 200.48 473.55 201.8 473.55 204.82"/><polygon class="cls-1" points="623.46 187.71 623.46 192.68 626.83 198.53 626.83 189.82 624.89 186.47 621.87 184.72 621.87 177.47 628.21 173.66 623.24 165.06 618.7 165.06 618.7 161.51 621.54 159.88 621.56 154.02 616.84 151.3 614.43 155.47 611.99 155.47 610.76 157.59 610.76 164.19 607.01 170.79 605.87 172.77 609.42 178.92 609.43 178.92 611.92 178.92 614.41 183.23 614.41 190.13 614.41 190.14 617.71 190.14 620.2 185.83 623.46 187.71"/><polygon class="cls-1" points="470.2 229.63 471.57 227.25 462.3 227.25 457.28 224.35 452.45 224.35 452.45 226.79 455.17 231.5 452.5 236.12 452.5 237.67 452.57 237.67 452.57 242.19 462.77 248.08 462.77 250.32 466.15 252.28 471.57 242.89 470.2 240.52 470.2 229.63"/><polygon class="cls-1" points="418.68 320.33 420.94 316.42 427.76 316.42 432.62 308 436.26 305.89 428.74 292.87 425.22 292.87 423.79 295.34 415.87 295.34 415.87 305.38 412.77 305.38 412.77 314.26 416.23 320.33 418.68 320.33"/><path class="cls-1" d="M443.21,319.38v2.05H440.5v-4.11h2.71V305.89h-6.95l-3.64,2.1-4.86,8.42h-6.82l-2.26,3.91h-2.44l-3.46-6.07v10.61H406l-2.31,1.33,5,8.59v5l2.49,4.31,4.31-2.49h12.88l9.5-5.48,8-13.8v-2.93ZM435.07,332l-4.4-2.54,2.61-4.51h2.44l1.72,3Z"/><polygon class="cls-1" points="391.53 253.91 392.67 255.89 394.21 255.89 394.21 253.94 396.24 252.77 394.87 251.98 391.53 253.91"/><path class="cls-1" d="M360,211.86v-7.73h-8v11l-1.22,2.12v4.22h7.58l2.84-1.64v-5.91Z"/><path class="cls-1" d="M363.77,209.45l-1.22-2.12v-3.2H360v7.73l1.17,2v5.91l2.63-1.52Z"/><polygon class="cls-1" points="316.02 197.22 322.4 197.22 322.4 195.69 315.16 195.69 316.02 197.22"/><polygon class="cls-1" points="335.71 218.23 335.71 215.95 330.43 212.9 327.89 217.3 339.4 223.95 339.4 220.36 335.71 218.23"/><polygon class="cls-1" points="323.2 199.77 317.5 199.77 319.68 203.54 323.2 201.47 323.2 199.77"/><polygon class="cls-1" points="328.83 207.88 325.16 207.88 322.92 209.16 324.15 211.28 324.15 215.14 327.89 217.3 330.43 212.9 330.43 210.66 328.83 207.88"/><polygon class="cls-1" points="386.1 97.69 386.1 96.07 386.1 94.25 378.56 94.25 376.54 97.74 378.68 98.96 379.14 99.76 382.74 97.69 386.1 97.69"/><path class="cls-1" d="M382.93,114.35l2.34-1.35v5.16l-2.34,1.35Zm9,8.29,6.26,3.61v-3.61Zm14.52-7.36-10.69-6.17L391.17,101l3-1.76V96.07H386.1v1.62h-3.35l-3.6,2.07,2.49,4.29h5.83l3.78,6.7,9.42,5.44v6l1.93-1.12v-5.82Z"/><polygon class="cls-1" points="418.45 105.2 418.45 109.56 418.45 111.41 428.33 111.41 428.33 109.56 431.68 109.56 431.68 106.83 431.7 106.79 428.93 105.2 418.45 105.2"/><path class="cls-1" d="M391.93,47.73l3-1.72,3.4-5.88h1.94L403,35.35h3.15l3.28-1.93H413l0-.07,0,.07h10.6l4.61-2.66h-22L396,36.69,392,43.48,376.6,52.39v5l2.49,4.31h2.74l8.24-4.76,1.87-3.29Z"/><path class="cls-2" d="M456.1,125.25l-3,1.74L452,125.1l-4.31,2.49H432.26l-3.92-6.8v-5.72h4.14V112.9h7.73l3.8-2.19h5l4.31,2.49h17.39v2.44l1.26,2.21,1.62,2.83v4.57H456.1Zm-27.76-15.68v4.1h.13l3.21-1.86v-2.24Z"/><path class="cls-1" d="M325.76,194.66l1.86-3.23h17.63V189l-2-3.4V162.52h4.05L337.1,156.6V159H328v7.65l-3.37,1.94V173h-8.9v14.91h6.15Z"/><path class="cls-1" d="M391.72,167.64v0l-20.5,11.84V192.7H359.59v2.7l6.22,3.59v3.26l3.36,1.94,2.11-3.69V196H375l4.16,2.4,6.67,0,2.12-1.22h8.65V193.8l5.44-9.43V175l-1.81-3.13v-2.44h-5.56Z"/><polygon class="cls-1" points="425.1 142.32 418.5 138.5 413.16 138.5 413.16 144.81 410.7 146.22 406.39 143.74 401.42 143.74 398.53 138.74 388.64 138.74 388.64 141.21 386.15 145.53 386.15 156.64 383.75 160.8 391.71 165.4 391.71 167.64 394.67 169.39 400.23 169.39 403.59 167.45 424.06 179.27 424.06 175.2 426.78 175.2 426.78 171.47 426.78 145.53 428.63 142.32 425.1 142.32"/><polygon class="cls-1" points="380.58 135.89 386.15 145.53 388.64 141.21 388.64 138.74 388.52 138.74 386.04 134.43 388.52 130.12 386.04 125.8 382.26 125.8 382.26 132.98 380.58 135.89"/><path class="cls-1" d="M357.41,192.7h13.81V179.52l-6.73-3.88v-3.22l-17.15-9.9h-4.05v23.08l2,3.4v2.44H327.62l-1.86,3.23,1.54,2.67v2.44l2.12,1.22H335l2.94,5.09h6.67v-6Z"/><polygon class="cls-1" points="442.94 227.19 442.94 233.34 439.42 239.43 439.42 241.87 442.94 241.87 446.28 241.87 446.28 237.67 452.5 237.67 452.5 236.12 455.17 231.5 452.45 226.79 452.45 224.35 447.45 227.19 442.94 227.19"/><polygon class="cls-1" points="323.56 154.47 315.73 168.03 315.73 173.03 324.63 173.03 324.63 168.63 327.99 166.68 327.99 159.03 337.1 159.03 337.1 156.6 337.1 153.56 325.14 153.56 323.56 154.47"/><polygon class="cls-2" points="343.95 120.28 343.95 110.77 339.32 110.77 339.32 125.37 342.55 125.37 342.55 121.02 343.95 120.28"/><path class="cls-2" d="M321,149.46v-1.31h2.73v1.31Zm-3.91,2.36h2.73v-1.31h-2.73Zm51.73-34.18h-2.73v1.31h2.73Zm-10-10-2.11-1.21H339.32v4.31h4.63v9.5l-1.4.74v4.35l3.18,1.84,4.31-2.49h6.69l7-12.16,4.31-2.49-4.14-2.41Z"/><polygon class="cls-1" points="400.23 96.07 404.12 98.33 411.58 98.33 415.15 92.15 402.62 92.15 400.23 96.07"/><path class="cls-1" d="M423.6,36.26V33.42H413l1.18,2,0,5.39.08,0,6.18,3.57L410.15,50.3l3.06,5.3H427l3.85-6.67Z"/><polygon class="cls-1" points="414.13 113.9 418.45 111.41 418.45 109.56 414.13 109.56 414.13 113.9"/><polygon class="cls-1" points="371.37 84.44 376.55 87.43 377.52 85.76 377.52 82.54 373.73 80.35 371.37 84.44"/><polygon class="cls-1" points="418.95 82.82 420.17 80.71 420.17 75.72 416.29 73.48 411.59 73.48 403.58 73.48 400.66 75.17 396.99 75.17 396.99 82.81 406.15 88.38 415.15 88.38 420.41 85.34 418.95 82.82"/><rect class="cls-1" x="376.77" y="86.19" width="1.93" height="1.61" transform="translate(113.56 370.65) rotate(-60.01)"/><polygon class="cls-1" points="406.15 88.38 396.99 82.81 390.95 86.3 393.33 90.42 402.62 90.42 406.15 88.38"/><polygon class="cls-1" points="394.21 99.21 398.45 99.21 400.23 96.07 394.21 96.07 394.21 99.21"/><polygon class="cls-1" points="403.27 101.48 407.69 109.16 407.99 109.33 409.41 106.79 409.41 101.48 403.27 101.48"/><polygon class="cls-1" points="471.93 117.85 473.55 120.68 475.64 120.68 475.64 117.85 471.93 117.85"/><polygon class="cls-1" points="440.5 321.43 443.21 321.43 443.21 319.38 443.21 317.32 440.5 317.32 440.5 321.43"/><polygon class="cls-1" points="175.85 183.23 172.97 178.23 168.4 178.23 168.4 183.23 175.85 183.23"/><polygon class="cls-1" points="168.4 178.23 166 178.23 166 181.42 160.95 181.42 160.95 183.23 168.4 183.23 168.4 178.23"/><polygon class="cls-1" points="120.03 197.46 124.05 199.78 125.56 197.15 121.52 194.81 120.03 197.46"/><polygon class="cls-1" points="121.52 192.83 122.94 190.43 120.45 190.43 119.47 190.43 119.47 184.75 114.36 184.75 114.36 187.28 116.48 188.5 116.48 189.7 110.74 189.7 110.73 194.82 110.74 194.84 115.48 194.84 120.03 197.46 121.52 194.81 121.52 192.83"/><path class="cls-2" d="M209.5,332.55l1.93-3.34h0l6.7-11.61v-4h-2.64v3.61l-2.66,4.6h-7.1V313l-12.86-7.58h-11v4.92l-3.43,2v22.16l2.81,4.87v21l3.75,6.49v12.09l7.88,13.82h5.56l5.92-10.25-7.12-4.11,3.08-1.78V363.15h4.76v-5l10.83-6.25v-4l-2.49-4.31-3.91-2.2Z"/><polygon class="cls-1" points="181.86 305.46 192.87 305.46 192.87 297.36 204.25 297.36 205.74 294.79 203.08 290.19 203.08 287.74 196.61 287.74 196.61 279.41 192.06 279.41 182.14 273.68 182.14 268.28 179.7 268.28 174.02 271.56 174.02 291.93 181.86 305.46"/><polygon class="cls-1" points="132.43 203.51 127.03 203.51 127.03 206.48 135.19 211.2 135.19 208.06 132.43 206.47 132.43 203.51"/><polygon class="cls-1" points="204.89 402.22 204.9 402.23 208.87 404.52 213.82 404.51 200.96 397.08 200.96 402.22 204.89 402.22"/><polygon class="cls-2" points="160.47 209.75 162.53 213.33 162.53 216.91 166.44 216.91 170.55 219.29 175.39 219.29 175.39 232.31 177.63 236.19 179.87 236.19 185.97 232.67 183.49 228.38 183.49 225.03 185.93 225.03 188.97 226.78 192.2 224.82 192.2 213.63 194.14 212.41 190.72 206.47 185.74 206.47 181.43 208.96 172.22 203.64 172.2 203.63 166.53 203.63 166.53 210.58 164.57 210.58 164.57 205.72 162.8 205.72 160.47 209.75"/><path class="cls-2" d="M211.43,329.21l-1.93,3.34v8.85l3.91,2.2h8.07l2.26-3.91v-3.36Z"/><polygon class="cls-1" points="196.48 232.28 197.71 234.4 201.62 232.14 205.07 232.14 201.7 226.31 205.15 220.42 202.26 220.42 197.63 212.41 194.14 212.41 192.2 213.63 192.2 222.61 196.48 222.61 196.48 232.28"/><polygon class="cls-1" points="205.07 232.14 210.76 232.14 210.76 220.42 205.15 220.42 201.7 226.31 205.07 232.14"/><polygon class="cls-2" points="159.8 245.57 166.9 245.57 166.9 250.79 169.23 250.79 169.23 232.31 175.39 232.31 175.39 219.29 170.55 219.29 166.44 216.91 162.53 216.91 162.53 213.33 160.47 209.75 162.8 205.72 164.57 205.72 164.57 203.63 159.14 203.63 154.83 206.12 154.83 209.44 150.52 211.93 148.19 210.58 148.19 213.72 148.19 231.94 145.76 233.34 156.23 239.39 159.8 245.57"/><polygon class="cls-1" points="119.47 184.75 119.47 190.43 120.45 190.43 122.94 186.12 122.94 182.63 120.69 182.63 119.47 184.75"/><rect class="cls-1" x="222.24" y="394.12" width="4.23" height="1.99"/><polygon class="cls-1" points="452.36 147.94 454.16 144.78 454.16 138.54 456.42 138.54 461.55 135.57 461.55 140.3 458.12 140.3 460.39 144.23 458.22 147.94 452.36 147.94"/><path class="cls-1" d="M510.1,164l-2.82,4.76v6.58L499.22,180l4.21,7.29,10.57-6.1v-5l4.31-2.49v-5Z"/><polygon class="cls-1" points="496.6 160.22 494.52 161.45 494.52 163.84 496.6 163.84 496.6 160.22"/><path class="cls-1" d="M495.6,182.06h-5.24l-3,5.16h-12l.18.31v7.23l2.49,4.31,4.31-2.49h5l16.14-9.32L499.22,180Z"/><polygon class="cls-1" points="567.75 130.11 564.68 128.34 561.25 130.32 563.06 133.46 563.84 134.81 567.75 132.56 567.75 130.11"/><polygon class="cls-1" points="409.41 106.79 407.99 109.33 407.99 109.33 411.6 111.41 411.6 108.09 409.41 106.79"/><polygon class="cls-1" points="546.09 106.12 542.12 108.41 536.95 108.41 536.95 110.11 539.07 111.33 535.69 113.28 543.61 113.28 541.61 116.75 539.17 116.75 536.06 118.54 536.06 119.49 547.22 119.49 547.22 116.16 552.69 113 556.63 113 561.25 110.33 561.25 107.34 548.21 107.34 546.09 106.12"/><polygon class="cls-1" points="496.83 107.38 493.19 107.38 493.19 113 498.82 122.76 500.45 121.82 508.68 121.82 517.62 126.99 517.62 131.34 529.8 124.31 529.8 121.87 515.54 113.64 512.44 113.64 512.45 111.2 507.29 108.22 504.65 112.8 502.31 112.8 499.96 112.8 496.83 107.38"/><path class="cls-1" d="M569,88.48l-8.48-5H549.37l-2.5-4.33L537.77,74,535,75.57l-4.31,0-7.5-4.27h-8.73l-5.31,3.12-5.62,0v2.44l2.9,5v2.44l-15.34.06L486.85,82l-5.2,0-7.33,4.3,0,5.25,6.2,3.55s0,2.08,0,2.31l3.8-2.19h6.86l0,0v4.45l-4.73,2.73,2.86,5h7.47L500,112.8h2.34v-9.95l5.76-3.32,6.17,3.56,1.8,3.11h7.55l3.86,6.69h4.67l4.84-2.79v-1.7h5.17l4-2.29,2.12,1.22h13v-2.44l-.09-.15-2-3.47h2.44ZM554,97.39h-8.76l-2,1.16v2.83h-2.58V97.92L544,96h10Z"/><polygon class="cls-1" points="484.38 119.48 484.38 115.43 481.73 110.83 479.47 112.14 476.08 110.18 476.08 113.2 476.08 113.2 478.99 118.23 478.99 118.23 482.5 116.21 484.38 119.48"/><polygon class="cls-1" points="549.73 123.83 549.73 125.93 544.79 125.93 542.67 127.15 542.67 133.73 540.34 135.08 540.34 141.89 533.62 145.78 533.62 149 518.8 149 521.87 143.69 517.62 141.24 517.62 131.34 529.8 124.31 537.46 124.31 539.01 121.62 542.67 121.62 542.67 125.1 544.79 123.83 549.73 123.83"/><polygon class="cls-1" points="446.28 241.87 446.28 246.46 450.11 246.46 452.57 242.19 452.57 237.67 452.5 237.67 446.28 237.67 446.28 241.87"/><polygon class="cls-1" points="177.15 14.14 161.1 14.14 156.79 16.63 172.84 16.63 177.15 14.14"/><polygon class="cls-1" points="402.31 10.72 402.31 10.73 405.88 10.73 410.19 8.24 410.19 6.63 400.66 6.63 397.67 8.36 387.4 8.36 396.91 13.84 402.31 10.72"/><polygon class="cls-1" points="160.95 177.19 144.61 167.76 140.38 167.76 134.24 171.3 144.82 171.3 155.01 177.19 160.95 177.19"/><polygon class="cls-1" points="758.6 299.73 752.51 296.2 752.51 289.15 747.39 280.29 747.39 272.31 745.32 272.31 742.83 276.62 742.83 284.58 738.23 292.56 723.66 284.15 728.57 275.66 714.11 275.66 708.87 284.74 703.22 281.48 688.35 290.07 688.35 295.04 677.23 301.46 667.34 301.46 661.4 311.82 661.4 338.17 657.09 340.66 657.09 344.35 664.71 344.35 670.9 340.78 680.11 340.78 692.71 333.51 706.47 333.51 711.29 341.87 718.09 337.94 718.09 355.12 718.11 355.12 738.23 355.12 743.1 346.68 753.53 340.66 764.62 321.44 764.62 316.47 758.6 306.04 758.6 299.73"/><polygon class="cls-1" points="672.11 224.3 670.82 224.3 669.32 226.9 672.11 226.9 672.11 224.3"/><polygon class="cls-1" points="488.03 283.76 479.31 288.79 479.31 299.58 475.87 305.42 475.87 311.13 478.36 315.44 483.33 315.44 488.75 306.05 488.75 301.07 491.82 295.76 491.82 290.78 495.31 284.74 495.31 279.77 492.82 275.46 488.03 283.76"/><path class="cls-1" d="M356.25,74.89l-5.34-9.25,2.49-4.31,6.46,3.73-2.18,3.78,3.9,6.75h2.7l2.34,4.05-2.66,3.5h-9.6l-4.3,2.5Zm-8.74-3-3.28,1.9,4.4,2.5,1.63-2.82Z"/><polygon class="cls-1" points="222.08 93.05 232.26 93.05 235.47 87.49 225.28 87.49 222.08 93.05"/><polygon class="cls-1" points="186.56 47.75 192.27 47.75 194.07 44.64 188.36 44.64 186.56 47.75"/><polygon class="cls-1" points="215.78 35.03 211.85 35.03 210.62 37.17 214.54 37.17 215.78 35.03"/><polygon class="cls-1" points="195.92 8.77 188.72 8.77 187.49 10.91 194.68 10.91 195.92 8.77"/><polygon class="cls-1" points="194.21 22.09 198.51 19.6 190.23 19.6 187.33 24.58 191.64 22.09 194.21 22.09"/><polygon class="cls-1" points="217.04 10.7 215.08 14.11 192.06 14.11 196.37 16.53 222.06 16.53 241.27 5.43 257.12 5.43 264.08 1.41 235.99 1.41 231.68 3.9 220.37 3.9 216.06 6.39 205.31 6.39 207.8 10.7 217.04 10.7"/><polygon class="cls-1" points="323.8 32.02 325.48 29.11 320.96 21.29 328.63 21.29 332.27 14.99 329.78 10.68 335.52 7.36 341.91 7.36 341.91 7.37 347.65 4.05 326.77 4.05 322.46 1.56 295.36 1.56 293.32 5.1 266.62 5.1 254.97 11.87 244.55 11.87 247.04 16.18 262.9 16.18 262.92 16.19 262.92 23.53 267.47 31.41 258.66 36.5 258.66 52.56 270.57 59.32 281 41.26 296.88 41.26 296.9 41.28 300.24 35.49 309.21 35.49 311.24 32 323.78 32 323.8 32.02"/><polygon class="cls-1" points="235.99 43.4 241.69 40.11 231.28 34.1 231.28 29.13 218.17 21.55 218.17 25.34 211.35 21.41 201.55 21.41 195.52 24.89 195.52 29.86 217.21 29.86 221.66 37.58 213.21 42.46 213.2 42.46 205.31 42.46 203.97 44.78 213.2 44.77 216.31 50.16 221.29 50.16 223.37 53.77 223.38 53.78 226.06 53.77 223.04 48.55 228.02 48.55 230.47 47.13 226.97 41.06 231.94 41.06 235.99 43.4"/><polygon class="cls-1" points="172.22 23.19 174.71 27.5 185.35 21.35 178.68 21.35 175.57 23.19 172.22 23.19"/><rect class="cls-1" x="149.64" y="181.42" width="5.04" height="1.8"/><rect class="cls-1" x="171.92" y="32.04" width="3.48" height="2.06"/><path class="cls-1" d="M576.46,210.29V219h4.67v-2.87l-3.37-5.84Z"/><path class="cls-1" d="M689.24,187l-2.49,4.31,2.49,4.31H686l-2.49-4.31v-9.1h2.95Zm14.15,25.47-1.89-3.27-5.66,3.27h-4.12V215h5v3.61l2.37,1.37,4.31-2.49ZM686,201.11h1.31v-2.73H686Zm-8.13,11,5-2.89-.65-1.13-5,2.89Zm15.61-15.27v4.48h1.68v-4.48Zm0,7.28h-3.36v4.11h3.36Z"/><rect class="cls-1" x="373.73" y="238.66" width="2.77" height="2.77"/><polygon class="cls-1" points="369.17 206.63 369.17 204.19 365.81 202.25 362.55 204.13 362.55 207.33 363.77 209.45 363.77 218.29 366.48 218.28 366.48 211.28 369.17 206.63"/><path class="cls-1" d="M387.3,216l2.78,1.61.07,0,5.25-9.09V203.3l3.7-2.14-2.3-4h-8.85l-2.12,1.22-6.67,0L375,196h-3.73v4.49l-2.11,3.69v2.44l-2.68,4.65v7h5.05l3.82,6.63h8.4v-2.75Z"/><polygon class="cls-1" points="632.6 196.73 637.96 199.83 637.96 194.43 644.64 194.43 644.64 188.26 638.52 184.72 631.52 184.72 631.52 179.89 629.64 179.89 629.63 179.89 626.67 174.58 621.87 177.47 621.87 184.72 624.89 186.47 626.83 189.82 626.83 198.53 626.83 210.85 632.81 221.2 636.04 221.2 638.57 219.74 633.33 216.72 629.48 210.05 629.48 198.53 632.6 196.73"/><polygon class="cls-1" points="456.69 134.16 456.69 133.03 454.49 133.03 454.49 134.39 452.08 138.54 454.16 138.54 456.69 134.16"/><polygon class="cls-1" points="449.5 142.99 439.28 142.99 436.13 144.81 431.82 142.32 428.63 142.32 426.78 145.53 426.78 171.47 451.33 171.47 456.06 168.74 445.46 150.37 445.46 145.39 449.81 152.93 452.36 147.94 449.51 142.98 449.5 142.99"/><polygon class="cls-1" points="456.69 134.16 454.16 138.54 456.42 138.54 461.55 135.57 467.44 132.18 467.44 125.25 456.1 125.25 453.08 126.99 454.49 129.41 454.49 133.03 456.69 133.03 456.69 134.16"/><polygon class="cls-1" points="484.84 213.59 477.82 209.53 475.81 206.12 473.55 204.82 473.55 201.8 470.86 197.14 466.11 194.4 457.71 194.4 457.71 196.62 452.35 205.8 452.35 211.41 448.15 213.83 452.74 216.49 457.28 224.35 462.3 227.25 471.57 227.25 475.58 224.94 482.54 224.94 489.1 213.59 484.84 213.59"/><path class="cls-1" d="M350.15,141.88v1.7l-13,7.53v5.49l10.24,5.91h0l17.15,9.9v3.22l6.73,3.88,20.5-11.84V165.4l-8-4.6,2.39-4.17V145.53l-5.57-9.64,1.68-2.9V125.8H367.44l-10.21,5.9v6.09Z"/><polygon class="cls-1" points="492.08 202.45 484.48 206.84 479.51 206.84 478.25 204.67 475.81 206.12 477.82 209.53 484.84 213.59 489.1 213.59 482.54 224.94 475.58 224.94 471.57 227.25 470.2 229.63 470.2 240.52 471.57 242.89 476.43 234.47 487.46 228.1 497.05 211.49 497.05 202.45 492.08 202.45"/><polygon class="cls-1" points="411.2 293.43 420.72 293.43 424.32 291.35 419.13 288.4 419.13 278.13 424.54 278.13 424.54 272.16 419.13 272.16 419.13 261.8 417.91 259.68 412.11 259.68 412.11 262.87 406.56 262.86 402.62 256.02 397.28 256.02 393.88 257.98 396.37 262.29 396.37 275.24 391.45 283.76 391.45 290.89 406.8 290.89 411.2 293.43"/><polygon class="cls-1" points="427.87 291.35 424.32 291.35 420.72 293.43 411.2 293.43 406.8 290.89 391.45 290.89 391.45 293.53 398.74 306.15 398.74 317.6 403.7 326.19 406 324.86 412.77 324.86 412.77 305.38 415.87 305.38 415.87 295.34 423.79 295.34 425.22 292.87 428.74 292.87 427.87 291.35"/><polygon class="cls-1" points="391.71 245.31 398.62 245.31 398.62 240.86 397.4 238.74 398.62 236.63 398.62 234.18 395.55 234.18 395.55 231.5 390.83 231.5 390.83 234.18 384.29 234.18 384.29 241.38 389.49 250.38 391.71 249.05 391.71 245.31"/><path class="cls-1" d="M405.76,227.19l-2.49,4.32h-7.71v2.68h3.07v2.44l-1.22,2.12,1.22,2.12v4.45h-6.91V249l-2.23,1.33,2,3.53,3.35-1.93,1.36.79h2.93l4.14-2.39,0-6.32,4.37-2.52v-8.22l1.66-2.87v-3.26Z"/><polygon class="cls-1" points="628.21 173.66 623.24 165.06 618.7 165.06 618.7 161.51 621.54 159.88 621.56 154.02 616.84 151.3 612.79 148.96 606.94 148.96 602.59 156.5 595.09 156.5 595.09 152.75 592.65 152.75 586.54 152.75 574.87 146.1 571.18 146.1 565.87 143.04 565.87 138.34 563.84 134.81 567.75 132.56 567.75 130.11 564.68 128.34 561.25 130.32 557.35 130.32 549.73 125.93 549.73 123.83 547.22 119.49 547.22 116.16 552.69 113 556.63 113 561.25 110.33 561.25 107.34 561.25 104.89 561.16 104.74 559.16 101.27 561.6 101.27 568.98 88.48 582.25 96.14 585.15 101.18 589.64 101.18 601.59 108.08 613.91 108.08 619.27 111.17 624.49 111.17 628.12 109.08 634.44 109.08 636.48 105.55 636.46 101.33 641.28 101.33 644.78 99.31 644.76 96.85 651.84 96.85 651.84 94.41 648.26 92.34 639.26 92.34 639.24 92.34 639.24 86.53 643.39 86.53 643.39 76.27 651.24 76.27 675.71 90.39 675.71 93.77 680.04 93.77 684.75 91.05 687.14 95.19 687.14 102.32 682.4 102.32 685.26 107.24 685.26 107.24 685.26 107.24 678.78 110.53 676.33 110.53 672.95 116.4 672.92 116.4 668.61 118.89 665.48 113.47 662.74 113.47 658.34 121.1 663.8 124.25 672.88 124.25 672.9 124.25 672.9 125.54 666.08 129.48 666.08 133.12 671.05 133.12 677.36 144.04 677.36 154.26 668.41 169.76 662.01 169.76 653.88 174.45 652.48 172.03 645.57 172.03 643.17 167.88 638.22 167.88 628.21 173.66"/><polygon class="cls-1" points="603.98 165.54 605.2 163.43 605.2 160.98 598.23 160.98 597.01 158.86 594.89 160.09 594.89 166.69 597.12 170.54 600.35 170.54 603.53 168.71 605.87 172.77 607.01 170.79 603.98 165.54"/><polygon class="cls-1" points="433.58 292.87 428.74 292.87 436.26 305.89 443.21 305.89 447.87 297.91 447.87 290.34 441.29 286.54 437.24 286.54 433.58 292.87"/><path class="cls-1" d="M325.76,194.66l-3.88-6.72h-6.14v.14l-2.49,4.31,1.9,3.3h7.26v1.53H316l1.47,2.55h9.79v-2.45Z"/><polygon class="cls-1" points="348.22 208.19 344.57 206.08 337.9 206.08 337.9 214.77 335.78 215.99 335.71 215.95 335.71 218.23 339.4 220.36 339.4 223.95 343.69 221.44 350.72 221.44 350.72 217.22 351.94 215.1 351.94 208.18 348.22 208.19"/><polygon class="cls-1" points="334.96 200.99 329.42 200.99 327.3 199.77 323.2 199.77 323.2 201.47 319.68 203.54 322.92 209.16 325.16 207.88 328.83 207.88 330.43 210.66 330.43 212.9 335.78 215.99 337.9 214.77 337.9 206.08 334.96 200.99"/><polygon class="cls-1" points="403.27 101.48 409.41 101.48 409.41 98.33 404.12 98.33 400.23 96.07 398.45 99.21 394.21 99.21 395.85 102.21 399 102.21 400.68 105.11 407.69 109.16 403.27 101.48"/><polygon class="cls-1" points="418.44 105.2 418.44 105.19 414.09 102.68 411.58 98.33 409.41 98.33 409.41 101.48 409.41 106.79 411.6 108.09 414.13 109.56 418.45 109.56 418.45 105.2 418.44 105.2"/><polygon class="cls-1" points="411.6 111.41 411.6 116.39 414.13 114.93 414.13 113.9 414.1 113.92 414.13 113.9 414.13 109.56 411.6 108.09 411.6 111.41"/><polygon class="cls-1" points="411.58 98.33 414.09 102.68 418.44 105.19 418.44 105.2 418.45 105.2 428.93 105.2 431.7 106.79 434.17 102.52 434.17 101.48 431.68 101.48 426.21 92.27 415.08 92.27 411.58 98.33"/><path class="cls-1" d="M427.16,130.79h-6.5v-1.49h6.5Zm-8.71-19.37-4.31,2.49v1l-2.54,1.46,5.89,10.2,2.49-4.31L417.49,118l2.49-4.31h8.36v-2.25Z"/><path class="cls-1" d="M417.11,209.23l-9.73,5.62H402l-3.18,5.51V224l4.41,7.55,2.49-4.32h3.55v-2.65l3.56-2.06,4.3,2.48h3.25l3.56-2.05h10.35L431,217.13l-5.77-3.33V210.6l-3.43-5.93h-2.06Z"/><polygon class="cls-1" points="431 217.13 434.34 222.91 435.56 225.02 441.71 225.02 442.94 227.19 447.45 227.19 452.45 224.35 457.28 224.35 452.74 216.49 448.15 213.83 452.35 211.41 452.35 205.8 448.98 205.8 446.86 207.02 444.42 207.02 444.42 201.63 439.83 204.28 439.83 206.72 434.73 209.67 433.5 207.56 430.5 207.56 425.22 210.6 425.22 213.79 431 217.13"/><path class="cls-1" d="M400.23,169.39v2.44L402,175v9.39l-5.44,9.43v3.37h.2l2.3,4v4.92l2.44,4.23h-3.86v2l4.36,2.52h5.34l9.73-5.62,2.64-4.57h2.06v-3l-3.35-5.8,3.19-5.53h2.42V179.27l-20.47-11.82Z"/><polygon class="cls-1" points="348 131.7 346.4 128.92 343.22 134.43 334.53 139.44 334.53 148.13 325.14 153.56 337.1 153.56 337.1 151.11 350.15 143.58 350.15 141.88 357.22 137.79 357.22 131.7 348 131.7"/><path class="cls-1" d="M359.59,195.4v-2.7h-2.18l-12.84,7.41v6l3.65,2.11h3.72v-4.05h10.61l3.26-1.88V199Z"/><path class="cls-1" d="M384.33,108.71v2.73H383v-2.73ZM378.68,99l-2.13-1.22,2-3.49L381,90l-3.06-1.77-1.39-.81-5.18-3L359.95,91h-5l5.34,9.24-3.57,6.19h0l2.11,1.21h5.09l4.14,2.41,2.49-4.31h8.12l3-1.71Z"/><polygon class="cls-1" points="402.62 90.42 402.62 92.15 415.15 92.15 415.15 88.38 406.15 88.38 402.62 90.42"/><path class="cls-1" d="M406.15,63.12v2.15h-1.67V63.12ZM413,33.42h-3.57l-3.28,1.93H403l-2.76,4.79H398.3L394.9,46l-3,1.72v5.91l-1.87,3.29v6.47l3.31,5.73h3.7l4.31-2.49V60.81l4.31-2.49-4.31-2.49v-5l8.53-4.93V43.3l4.23-2.44,0-5.39Z"/><polygon class="cls-1" points="402.62 90.42 393.33 90.42 391.12 94.25 386.1 94.25 386.1 96.07 394.21 96.07 400.23 96.07 402.62 92.15 402.62 90.42"/><polygon class="cls-1" points="420.17 75.72 420.17 80.71 425.44 80.71 427.56 81.93 434.87 81.93 439.15 79.46 439.15 75.17 434.21 72.34 434.21 69.39 430.89 67.5 427.15 67.5 423.74 69.55 420.17 75.72"/><polygon class="cls-1" points="376.28 75.92 373.73 80.35 377.52 82.54 381.33 75.92 376.28 75.92"/><polygon class="cls-1" points="390.79 75.17 386.58 72.74 386.58 70.6 382.27 70.6 382.27 71.61 384.76 75.92 381.33 75.92 377.52 82.54 377.52 85.76 378.91 86.56 377.95 88.23 381.01 90 378.56 94.25 386.1 94.25 391.12 94.25 393.33 90.42 390.95 86.3 396.99 82.81 396.99 75.17 390.79 75.17"/><polygon class="cls-1" points="433.27 324.95 430.67 329.47 435.07 332.01 437.44 327.93 435.72 324.95 433.27 324.95"/><polygon class="cls-1" points="437.66 244.92 437.66 246.46 440.59 246.46 440.59 244.92 442.94 244.92 442.94 241.87 439.42 241.87 437.66 244.92"/><polygon class="cls-2" points="116.48 189.7 116.48 188.5 114.36 187.28 114.36 184.75 119.47 184.75 120.69 182.63 122.94 182.63 128.5 173 120.93 173 118.06 174.65 113.66 182.28 103.65 182.27 99.33 174.78 99.33 162.34 101.08 159.3 94.29 147.54 90.97 147.54 88.18 149.16 83.69 141.39 78.91 141.39 76.79 142.62 70.32 142.62 62.85 138.31 56.74 138.31 56.74 149.26 67.64 168.15 67.64 162.43 61.04 151 61.04 141.42 65.35 143.91 65.35 148.89 78.21 171.16 78.21 178.56 94.84 188.17 106.89 188.16 110.73 194.82 110.74 189.7 116.48 189.7"/><path class="cls-2" d="M192.87,305.46,205.73,313v8.79h7.1l2.66-4.6v-7.16H213l-2.63-4.56h-6.16v-8.16H192.87Z"/><polygon class="cls-1" points="132.43 193.19 125.56 197.15 124.05 199.78 127.03 201.51 127.03 203.51 132.43 203.51 132.43 193.19"/><polygon class="cls-2" points="184.99 378.94 184.99 366.85 181.25 360.36 181.25 339.39 178.44 334.52 178.44 312.37 181.86 310.39 181.86 305.46 174.02 291.93 172.27 294.96 172.27 331.28 175.64 336.8 175.64 357.17 181.9 368.01 181.9 380.31 193.01 399.56 201.62 404.53 208.87 404.52 204.9 402.23 204.89 402.22 200.96 402.22 200.96 397.08 200.93 397.07 198.44 392.76 192.87 392.76 184.99 378.94"/><polygon class="cls-1" points="214.25 232.14 217.69 226.29 214.3 220.44 214.29 220.42 210.76 220.42 210.76 232.14 214.25 232.14"/><path class="cls-1" d="M256.94,254l-3.77-6.53,0,0h-10l-12.38-7.15h-5l-8.08-14-3.44,5.84H201.62l-3.92,2.26-1.22-2.12v-9.67H192.2v2.21l-3.23,2-3-1.75h-2.44v3.34l2.48,4.3-6.1,3.52h-2.24l-2.24-3.88h-6.16v18.48H166.9l-6.8,3.93v10.13l5,2.86h3.34v3.85H174l5.67-3.28h2.44v5.4l9.92,5.73h4.55v8.33h6.47v2.44l2.66,4.6-1.48,2.57v8.16h6.16l2.63,4.56h2.44v3.55h2.64v4l-6.7,11.61,12.31,7.11v3.36l8.11-14.05V313.68l9.95-5.74h5l7.73-13.39V280.46l9.65-16.73V254Z"/><polygon class="cls-1" points="121.52 194.81 125.56 197.15 132.43 193.19 132.43 190.44 132.42 190.43 122.94 190.43 121.52 192.83 121.52 194.81"/><polygon class="cls-1" points="143.62 207.94 139.31 210.43 135.19 208.06 135.19 211.2 139.57 213.72 143.88 211.24 148.19 213.72 148.19 210.58 143.62 207.94"/><polygon class="cls-2" points="168.4 271.56 168.4 271.57 168.39 271.56 168.4 271.56 168.4 267.71 165.06 267.71 160.1 264.85 160.1 254.72 166.9 250.79 166.9 245.57 159.8 245.57 156.23 239.39 153.89 238.03 153.89 242.95 146.23 247.37 146.23 252.79 146.23 253.15 146.23 252.79 141.68 252.79 139.3 248.68 139.3 253.96 154.01 279.44 154.01 284.42 172.27 294.96 174.02 291.93 174.02 271.56 168.4 271.56"/><polygon class="cls-1" points="146.23 252.79 146.23 247.37 153.89 242.95 153.89 238.03 145.76 233.34 139.3 237.07 139.3 248.68 141.68 252.79 146.23 252.79"/><path class="cls-1" d="M226.08,71.42h0V58.93l-2.34-1.35L215,62.64h-5l4.49-7.77-5.73-3.31h-9L193,63.11v4.56l-10.41,6V80.9l-4.31,2.49h-5V76.92l3-5.18h-5l-9.18-5.3h-5.75v-9l17.86-10.32h7.09l4.31-2.49-4.31-2.49h10.39l9.79-5.65V33.18h-2.74l-9.63,5.56V32.27l-3.47-6-6.28,3.62v5l-4.31,2.49H138.24l-9-5.17H100.61L61.93,54.35l7.62,4.35V67H66.64v15.1l4,6.88h69.33l5.17,3,3.77-2.18h6.43l4,6.89,1,1.67h2.64l5.78,3.43H161.9l-1.64,3v3.16h2.26l6.75-3.9h7.06l4.89-2.82h5.34l4.3-7.45h4.66v5.88l2.12,1.22v2.5h8.46L216.87,97v-2.6l-8.4,4.85L204,91.52h5.73l-1.51-2.61h-9.35l6.47-3.74h14.06L224.78,82h6.47l3.31-5.73ZM112.77,39.52h7l3.34-1.93,4.85,2.8-5,2.91H110.58Zm13,14.26h-5.48L118,56.51l-1.37-.68h-5.68V52.95h5.68l4.84-2.8,3.06,1.77,6.3-3.64,1.11,1.92Zm11.79,29.56-3.26,2V75h3.26Z"/><polygon class="cls-1" points="509.89 163.85 507.41 159.54 504.92 163.85 496.6 163.84 499.41 168.74 507.28 168.74 510.1 163.97 509.89 163.85"/><polygon class="cls-1" points="490.36 182.06 495.61 182.06 507.28 175.31 507.28 168.74 499.41 168.74 496.6 163.84 494.52 163.84 486.82 150.51 479.23 150.51 461.55 140.3 458.12 140.3 460.39 144.23 458.22 147.94 452.36 147.94 452.36 151.59 460.06 165.08 464.37 167.57 464.37 173.13 468.68 175.62 475.34 187.21 487.38 187.21 490.36 182.06"/><polygon class="cls-1" points="631.88 171.53 640.15 176.31 640.15 178.75 638.4 181.78 646.36 186.38 650.32 193.23 650.32 202.26 642.59 206.73 643.88 207.48 643.88 212.46 648.19 209.96 648.19 206.23 654.98 202.3 654.98 196.93 648.16 185.11 642.26 181.7 642.26 181.7 642.26 177.63 645.57 175.71 645.57 172.03 643.17 167.88 638.22 167.88 631.88 171.53"/><polygon class="cls-1" points="428.33 91.05 426.21 92.27 431.68 101.48 431.68 97.54 434.17 97.54 434.17 94.5 428.33 91.05"/><polygon class="cls-1" points="543.61 113.28 535.69 113.28 539.07 111.33 536.95 110.11 532.11 112.9 527.44 112.9 523.58 106.21 516.03 106.21 514.24 103.09 508.06 99.53 502.31 102.85 502.31 112.8 504.65 112.8 507.29 108.22 512.45 111.2 512.44 113.64 515.54 113.64 529.8 121.87 529.8 124.31 533.64 124.31 533.64 120.23 531.52 119 533.8 115.06 536.25 115.06 539.17 116.75 541.61 116.75 543.61 113.28"/><polygon class="cls-1" points="548.44 158.65 543.26 155.66 544.48 153.54 548.1 153.54 555.07 141.48 551.45 135.21 551.45 132.77 557.35 132.77 557.35 130.32 549.73 125.93 544.79 125.93 542.67 127.15 542.67 133.73 540.34 135.08 540.34 141.89 533.62 145.78 533.62 149 518.8 149 524.26 152.15 524.26 160.22 532.6 160.22 544.07 166.85 544.1 166.91 548.44 164.32 548.44 158.65"/><polygon class="cls-1" points="518.8 149 521.76 143.87 521.87 143.69 517.62 141.24 517.62 131.34 517.62 126.99 508.68 121.82 500.45 121.82 498.82 122.76 498.82 126.56 490.31 126.56 484.38 123.13 484.38 119.48 482.5 116.21 478.99 118.23 478.99 120.68 475.64 120.68 473.55 120.68 473.55 125.25 479.55 128.71 479.55 135.95 485.08 139.18 485.08 147.49 489.39 145 493.7 147.49 493.7 150.4 504.46 156.61 508.77 154.12 512.13 156.06 512.13 160.22 524.26 160.22 524.26 152.15 518.8 149"/><polygon class="cls-1" points="465.25 108.22 465.25 113.2 470.67 113.2 476.08 113.2 476.08 113.2 476.08 110.18 472.69 108.22 465.25 108.22"/><path class="cls-1" d="M416.29,70.6v2.89h-4.7V70.6ZM631.41,18.06l-4.31-2.49h-9.6l4.31,2.49ZM524.93,5.54h6.17L533.62,7H537l3.67,2.12h-9.52ZM704.87,96,694.33,77.57h2.39L707.26,96ZM476.46,29.82l-9-5.18,2.49-4.31,10-5.77h10.43L486.05,17h-5l-9,5.19Zm157.71-7h-2.73V21.54h2.73Zm6.42-3.48h-2.73V18.06h2.73ZM465.43,35.47h-4.22V33.32h4.22ZM738,41.78h5l4.31,2.49H754l-3-5.2h-9.94l-4.81-2.78h-8l-8.71-5H680.34L676,28.77H660.32l-5.44-3.14H633.45v2.49H618.52l-10.1-5.83H574.1l-4.31,2.49h-5L575,18.9l-2.49-4.31H558.17l-4.31-2.49-9,5.2H530.67l-2.49,4.31h-8.84l2.49,4H510.77l3.81,6.6H522l2.49,4.31h-5.85L514.3,39,507.92,28h-2.5l-2.49-4.31h-5v5.72l6.44,3.72v3.43l-6.67-3.85h-11.6l-4.31,2.49h-8.86l-7.54,4.32h-6.92l-3.35-1.94v3.87L444.9,47.3h-5l-3.75-6.49-5.56-3.21h5l5.56,3.21h6.53V37l-6.53-3.77h-7.22l-4.31-2.49h-1.43l-4.61,2.66v2.84l7.28,12.67L427,55.6h2.61l-2.49,4.31V67.5h3.74l3.32,1.9v3l4.93,2.82v4.29h3.94l3.29,5.69h8.24l3.51,2v7.2l-3.68,2.08v4h-2.09v1.86H455l10.27,5.93h7.44l3.39,2,3.39,2,2.26-1.3-6.1-10.57,4.92-2.84c0-.24,0-2.31,0-2.31l-6.2-3.55,0-5.25,7.33-4.3,5.2,0,4.22,2.41,15.34-.06V81.89l-2.9-5V74.46l5.62,0,5.31-3.12h8.73l7.5,4.27,4.31,0L537.77,74l9.1,5.25,2.5,4.33H560.5l8.48,5,8.32-4.83h6.48l5.47,3.16h5.11V84.36l-2.07-3.58h5.31l8.27,4.78h10l5.5,3.18h5.32l3.82-2.21h12.84V76.27h7.85L675.71,90.4v3.38H680l4.71-2.72,2.39,4.14v7.13H682.4l2.86,4.92h8.4l2.47-4.31V88L690,77.47l-6.4-3.7-4.31,2.49-7.18-4.14,4.27-7.39V59h21l4,2.31V51.76h5l5.07,2.93,2.49-4.31,4.31,2.49v3.68l-3.52,6.1v5l2.49,4.31,8.52,4.92L729,82.46h3.25l0-9.82-4.3-7.45L722,61.78v-5l0,0h14.19V54.29l8-4.65-4.31-2.49h-5l-5.19-3H738ZM435,62.12h-2.39l-1-1.79V58h1.85L435,60.74ZM614.35,76l-3,5.13H607V79.64h2.54l2.52-4.36v-12l2.28,1.32Z"/><polygon class="cls-1" points="470.67 115.64 471.93 117.85 475.64 117.85 475.64 120.68 478.99 120.68 478.99 118.23 476.08 113.2 470.67 113.2 470.67 115.64"/><polygon class="cls-1" points="539.17 116.75 536.25 115.06 533.8 115.06 531.52 119 533.64 120.23 533.64 124.31 537.46 124.31 539.01 121.62 542.67 121.62 542.67 125.1 544.79 123.83 549.73 123.83 547.22 119.49 536.06 119.49 536.06 118.54 539.17 116.75"/><path class="cls-1" d="M402.62,256l3.95,6.84h5.55v-3.19h5.8l1.22,2.12v10.36H428l11.15,6.44h1.18v-2.46l-3.82-2.2v-8.78l2.64-1.52h3.17l-4.66-8.08V244.92l1.76-3v-2.44l3.51-6.09v-6.15L441.71,225h-6.16l-1.22-2.12H424L420.43,225h-3.25l-4.3-2.48-3.56,2.06v5.91l-1.66,2.87v8.22l-4.37,2.52,0,6.32-4.14,2.39h-2.93l-2,1.17v2h-1.54l1.21,2.09,3.4-2Z"/><polygon class="cls-1" points="447.69 276.45 447.69 281.08 450.35 282.61 450.35 282.62 452.48 282.62 452.48 287.8 454.13 290.66 456.81 286.01 456.81 283.54 453.46 278.1 451.92 278.1 451.92 267.42 449.41 265.98 449.41 275.46 447.69 276.45"/><polygon class="cls-1" points="442.33 263.63 439.16 263.63 436.52 265.15 436.52 273.93 440.34 276.13 440.34 278.6 439.16 278.6 428 272.16 424.54 272.16 424.54 278.13 419.13 278.13 419.13 288.4 424.32 291.35 427.87 291.35 428.74 292.87 433.58 292.87 437.24 286.54 441.29 286.54 441.29 284.84 447.69 281.08 447.69 276.45 449.41 275.46 449.41 265.98 445.91 263.96 445.88 265.68 442.33 263.63"/><polygon class="cls-1" points="453.46 274.3 453.46 278.1 456.81 283.54 456.81 286.01 454.13 290.66 452.48 287.8 452.48 282.62 450.35 282.62 450.35 282.61 447.69 281.08 441.29 284.84 441.29 286.54 447.87 290.34 447.87 297.91 443.21 305.89 443.21 317.32 443.21 319.38 445.8 319.38 445.8 317.33 454.17 312.48 454.17 294.73 469.06 286.12 469.06 271.11 463.55 274.3 453.46 274.3"/><polygon class="cls-1" points="462.77 248.08 452.57 242.19 450.11 246.46 446.28 246.46 446.28 241.87 442.94 241.87 442.94 244.92 442.94 247.96 440.83 251.6 438.89 251.57 438.89 251.57 438.89 254.52 443.55 262.6 445.91 263.96 449.41 265.98 449.41 265.97 449.41 265.98 451.92 267.42 451.92 267.4 453.46 268.31 453.46 274.3 463.55 274.3 469.06 271.11 469.06 269.82 464.75 262.35 464.75 254.71 466.15 252.28 462.77 250.32 462.77 248.08"/><polygon class="cls-1" points="440.59 246.46 437.66 246.46 437.66 249.45 438.34 250.62 438.89 251.57 440.83 251.6 442.94 247.96 442.94 244.92 440.59 244.92 440.59 246.46"/><path class="cls-2" d="M197.63,100.77v2.5h-8.88l0,0-3.25,5.62v2.49h-7v3.24l-11.92,6.88v8.87L148.18,141v20.35h-2.07l-3.52-6.09v-7.22l-4.35-2.51H128l-4.31,2.49h-12l-6.13,3.56-4.44,7.69-6.79-11.76H91l-2.8,1.62-4.48-7.77H78.9l-2.12,1.22H70.32l-7.47-4.31H56.74v-2.52l-6.41-3.7V118.86L61.78,99V94L70.61,89h69.33l5.17,3-5.17,3L141.17,97l3.67-2.12h4.06l3,1.72h7.41l1,1.67h-9.87l-3.52,2-3.92,6.79v5.08l5.54-3.2h0l0,0h0v-5.74l4-2.34h5.63L156,104.67h4.26v3.16H156l-2.45,4.25h6.16l8.94-5.16h2.44l5.18-3,4.89-2.82h5.34l4.3-7.45h4.66v5.88ZM96.14,34.66l-7.56-4.34H50.91L9,54.49l4.59,7.94L2.83,68.66h5L30.05,55.82H59.37L66.64,60v7h2.91V58.7l-7.63-4.35Z"/><polygon class="cls-1" points="420.66 67.7 411.59 67.7 411.59 70.6 416.29 70.6 416.29 73.48 420.17 75.72 423.74 69.55 420.66 67.7"/><polygon class="cls-1" points="427.14 59.91 427.14 63.62 418.19 63.62 418.19 61.33 420.64 59.91 427.14 59.91"/><polygon class="cls-1" points="418.19 63.62 418.19 64.9 413.21 64.9 411.59 67.7 420.66 67.7 423.74 69.55 427.14 67.5 427.14 63.62 418.19 63.62"/><path class="cls-1" d="M458.12,87.18v7.2h-5l-3.51,2H448v4.53l2.37,1.37H445.2l-2.78-4.75h-8.25v-3L428.33,91l-2.12,1.22H415.08l.07-.12V88.38l5.26-3L419,82.82l1.22-2.12h5.27l2.12,1.22h7.31l4.27-2.47h3.94l3.29,5.69h8.24Zm-24,10.36h-2.49v3.94h2.49Z"/><path class="cls-3" d="M341,27.85l1.87-2.4A8,8,0,0,0,348,27.92c1.72,0,2.95-.62,2.95-1.87s-1.17-1.76-3.3-2.35c-2.9-.81-5.94-1.56-5.94-5,0-3,2.42-4.86,5.88-4.86a10.25,10.25,0,0,1,6.29,2.35l-1.65,2.55a7.83,7.83,0,0,0-4.55-2c-1.58,0-2.46.66-2.46,1.63,0,1.3,1.21,1.76,3.35,2.35,2.86.77,5.9,1.67,5.9,5,0,2.62-2,5-6.34,5A10.31,10.31,0,0,1,341,27.85Z"/><path class="cls-3" d="M356.38,35.11V18.72h3.28l.26,1.78a4.34,4.34,0,0,1,3.61-2c2.66,0,4.51,2,4.51,6.09s-1.87,6.05-4.55,6.05a4.46,4.46,0,0,1-3.56-1.56v5.52ZM364.5,24.6c0-2-.68-3.19-2.27-3.19a3.44,3.44,0,0,0-2.31,1.14v4.33A3.18,3.18,0,0,0,362.28,28C363.75,28,364.5,26.73,364.5,24.6Z"/><path class="cls-3" d="M369.1,27.46c0-2.71,2.29-4.2,7.44-4.62v-.29c0-.86-.48-1.41-1.76-1.41a5.5,5.5,0,0,0-3.41,1.39l-1.91-1.91a8.11,8.11,0,0,1,5.83-2.13c3.34,0,4.71,1.58,4.71,4.6v7.37H376.8l-.26-1.72a5.18,5.18,0,0,1-4.09,1.89A3.13,3.13,0,0,1,369.1,27.46Zm7.44-.51V24.77c-2.79.29-4,1-4,2.07,0,.75.53,1.12,1.3,1.12A3.63,3.63,0,0,0,376.54,26.95Z"/><path class="cls-3" d="M382.12,15.79a1.77,1.77,0,0,1,2-1.78,1.79,1.79,0,1,1-2,1.78Zm.24,14.65V18.72h3.52V30.45Z"/><path class="cls-3" d="M388.38,30.45V18.72h3.28l.26,1.85a5,5,0,0,1,4-2.09,3.07,3.07,0,0,1,3.41,3.41v8.56h-3.52V23c0-1.06-.4-1.61-1.39-1.61a4,4,0,0,0-2.55,1.17v7.88Z"/><path class="cls-3" d="M332.51,72.16l1.48-.9c1.94,3.1,4.39,4.39,7.45,4.39,4.17,0,6.73-2.48,6.73-5.94,0-4.14-2.27-6.37-9-6.37h-.94V61.76h1.15c5.83,0,8.24-1.8,8.24-5.44,0-2.88-1.76-5.15-6-5.15a7.77,7.77,0,0,0-6.41,3.49l-1.44-.94a9.76,9.76,0,0,1,7.88-4.14c5.58,0,7.78,3.35,7.78,6.62A6.07,6.07,0,0,1,344,62.55c4,.83,6,3.06,6,7.09,0,4.21-3.24,7.59-8.53,7.59A10.07,10.07,0,0,1,332.51,72.16Z"/><path class="cls-3" d="M358.94,76.73V51.78l-5.11,1.87-.25-1.55,5.51-2h1.62V76.73Z"/><path class="cls-3" d="M367.26,80.22l.9-6.37h2.38l-2.23,6.37Z"/><path class="cls-3" d="M386.34,76.73V69.89H373.56V68.63l12.13-18.54h2.38V68.27h4.36l.32,1.62h-4.68v6.84Zm-10.66-8.46h10.66V52.15h-.07Z"/><path class="cls-3" d="M394.72,72.16l1.48-.9c1.55,2.59,3.71,4.39,7.06,4.39,4.82,0,7-3.82,7-7.59,0-4.61-2.77-7.16-6.41-7.16a7.25,7.25,0,0,0-6.37,3.64L396,63.92l1-13.82h13.25l.32,1.73H398.65L397.85,62a7.26,7.26,0,0,1,6-2.66c4.61,0,8.13,3.31,8.13,8.64s-3.38,9.29-8.82,9.29A9.61,9.61,0,0,1,394.72,72.16Z"/><path class="cls-3" d="M420.58,76.73V51.78l-5.11,1.87-.25-1.55,5.51-2h1.62V76.73Z"/><path class="cls-3" d="M118.17,20.66V10.61h3.59v10c0,2.35.9,3.67,3,3.67s3-1.3,3-3.67v-10h3.52v10c0,4-2,6.51-6.56,6.51S118.17,24.65,118.17,20.66Z"/><path class="cls-3" d="M133.85,26.89V15.16h3.28l.26,1.85a5,5,0,0,1,4-2.09,3.07,3.07,0,0,1,3.41,3.41v8.56h-3.52V19.45c0-1.06-.4-1.61-1.39-1.61A4,4,0,0,0,137.39,19v7.88Z"/><path class="cls-3" d="M147,12.24a1.77,1.77,0,0,1,2-1.78,1.79,1.79,0,1,1-2,1.78Zm.24,14.65V15.16h3.52V26.89Z"/><path class="cls-3" d="M154.08,23.37V17.74h-2V15.16h2V11.4l3.52-.53v4.29h3v2.57h-3V23c0,1.25.59,1.5,1.52,1.5a4.12,4.12,0,0,0,1.21-.2l.24,2.57a18.79,18.79,0,0,1-2.51.2C155.31,27,154.08,26.19,154.08,23.37Z"/><path class="cls-3" d="M161.46,21a5.76,5.76,0,0,1,5.9-6.12c2.42,0,5.39,1.21,5.39,6.54V22H165c.18,1.94,1.25,2.68,2.73,2.68a5.58,5.58,0,0,0,3.52-1.32l1.32,2a7.57,7.57,0,0,1-5.11,1.76C164.38,27.13,161.46,25.57,161.46,21Zm8.12-1.14c-.18-1.65-.92-2.44-2.24-2.44-1.1,0-2,.73-2.31,2.44Z"/><path class="cls-3" d="M174,21.13c0-4,1.87-6.21,4.55-6.21a4.1,4.1,0,0,1,3.56,1.72V10.87l3.54-.53V26.89h-3.28l-.26-1.76a4.27,4.27,0,0,1-3.61,1.94C175.86,27.07,174,25.17,174,21.13Zm8.12,2.13V18.92a3.17,3.17,0,0,0-2.33-1.08c-1.47,0-2.24,1.12-2.24,3.26,0,2,.7,3.3,2.29,3.3A3.34,3.34,0,0,0,182.13,23.26Z"/><path class="cls-3" d="M193.39,24.29l1.87-2.4a8,8,0,0,0,5.13,2.46c1.72,0,2.95-.62,2.95-1.87s-1.17-1.76-3.3-2.35c-2.9-.81-5.94-1.56-5.94-5,0-3,2.42-4.86,5.88-4.86a10.25,10.25,0,0,1,6.29,2.35l-1.65,2.55a7.83,7.83,0,0,0-4.55-2c-1.58,0-2.46.66-2.46,1.63,0,1.3,1.21,1.76,3.35,2.35,2.86.77,5.9,1.67,5.9,5,0,2.62-2,5-6.34,5A10.31,10.31,0,0,1,193.39,24.29Z"/><path class="cls-3" d="M209.34,23.37V17.74h-2V15.16h2V11.4l3.52-.53v4.29h3v2.57h-3V23c0,1.25.59,1.5,1.52,1.5a4.11,4.11,0,0,0,1.21-.2l.24,2.57a18.76,18.76,0,0,1-2.51.2C210.57,27,209.34,26.19,209.34,23.37Z"/><path class="cls-3" d="M216.76,23.9c0-2.71,2.29-4.2,7.44-4.62V19c0-.86-.48-1.41-1.76-1.41A5.5,5.5,0,0,0,219,19l-1.91-1.91a8.11,8.11,0,0,1,5.83-2.13c3.34,0,4.71,1.58,4.71,4.6v7.37h-3.19l-.26-1.72a5.19,5.19,0,0,1-4.09,1.89A3.13,3.13,0,0,1,216.76,23.9Zm7.44-.51V21.21c-2.79.29-4,1-4,2.07,0,.75.53,1.12,1.3,1.12A3.63,3.63,0,0,0,224.2,23.39Z"/><path class="cls-3" d="M230.79,23.37V17.74h-2V15.16h2V11.4l3.52-.53v4.29h3v2.57h-3V23c0,1.25.59,1.5,1.52,1.5a4.11,4.11,0,0,0,1.21-.2l.24,2.57a18.76,18.76,0,0,1-2.51.2C232,27,230.79,26.19,230.79,23.37Z"/><path class="cls-3" d="M238.17,21a5.76,5.76,0,0,1,5.9-6.12c2.42,0,5.39,1.21,5.39,6.54V22h-7.77c.18,1.94,1.25,2.68,2.73,2.68a5.57,5.57,0,0,0,3.52-1.32l1.32,2a7.57,7.57,0,0,1-5.1,1.76C241.1,27.13,238.17,25.57,238.17,21Zm8.12-1.14c-.18-1.65-.92-2.44-2.24-2.44-1.1,0-2,.73-2.31,2.44Z"/><path class="cls-3" d="M250.44,25.46l1.19-2.07a8.08,8.08,0,0,0,4.22,1.47c1.1,0,1.87-.37,1.87-1.14s-.62-1.12-2.22-1.41c-2.22-.4-4.6-.92-4.6-3.67,0-2.35,1.94-3.72,4.55-3.72a9.18,9.18,0,0,1,5.06,1.39l-1.08,2.11a7.53,7.53,0,0,0-3.67-1.12c-1,0-1.58.4-1.58,1s.64,1,2.09,1.25c2.31.4,4.75.92,4.75,3.59,0,2.84-2.46,4-5.17,4A9.35,9.35,0,0,1,250.44,25.46Z"/><path class="cls-3" d="M121.52,73.17V48.23l-5.11,1.87-.25-1.55,5.51-2h1.62V73.17Z"/><path class="cls-3" d="M129.32,59.85c0-8.31,3.38-13.82,9.47-13.82s9.43,5.51,9.43,13.82-3.35,13.82-9.43,13.82S129.32,68.17,129.32,59.85Zm17.13,0c0-7.85-3.06-12.24-7.67-12.24-4.79,0-7.7,4.39-7.7,12.24s3.06,12.24,7.7,12.24S146.46,67.7,146.46,59.85Z"/><path class="cls-3" d="M151.76,76.66l.9-6.37H155l-2.23,6.37Z"/><path class="cls-3" d="M159.31,68.6l1.48-.9c1.55,2.59,3.71,4.39,7.06,4.39,4.82,0,7-3.82,7-7.59,0-4.61-2.77-7.16-6.41-7.16A7.25,7.25,0,0,0,162.08,61l-1.48-.61,1-13.82h13.25l.32,1.73h-12l-.79,10.15a7.25,7.25,0,0,1,6-2.66c4.61,0,8.13,3.31,8.13,8.64s-3.38,9.29-8.82,9.29A9.61,9.61,0,0,1,159.31,68.6Z"/><path class="cls-3" d="M192.6,73.17V66.33H179.83V65.07L192,46.53h2.38V64.71h4.36l.32,1.62h-4.68v6.84Zm-10.66-8.46H192.6V48.59h-.07Z"/><path class="cls-3" d="M214.51,73.17V66.33H201.73V65.07l12.13-18.54h2.38V64.71h4.36l.32,1.62h-4.68v6.84Zm-10.65-8.46h10.65V48.59h-.07Z"/><path class="cls-3" d="M179.69,154.28V138h4.73L188,150h0l3.39-12h4.84v16.28h-3.46V143.17h0a29.25,29.25,0,0,1-.9,3.63l-2.44,7.48h-3.17l-2.42-7.48a28.91,28.91,0,0,1-.95-3.81h0v11.29Z"/><path class="cls-3" d="M198.45,148.43a5.76,5.76,0,0,1,5.9-6.12c2.42,0,5.39,1.21,5.39,6.54v.53H202c.18,1.94,1.25,2.68,2.73,2.68a5.58,5.58,0,0,0,3.52-1.32l1.32,2a7.57,7.57,0,0,1-5.11,1.76C201.37,154.52,198.45,153,198.45,148.43Zm8.12-1.14c-.18-1.65-.92-2.44-2.24-2.44-1.1,0-2,.73-2.31,2.44Z"/><path class="cls-3" d="M210.2,154.28l4-6.05-3.56-5.41,3.39-.53,2.18,3.5,1.91-3.23h3.56l-3.78,5.68L221.7,154l-3.34.53-2.42-3.81-2.18,3.54Z"/><path class="cls-3" d="M222.8,139.62a1.77,1.77,0,0,1,2-1.78,1.79,1.79,0,1,1-2,1.78Zm.24,14.65V142.55h3.52v11.73Z"/><path class="cls-3" d="M228.35,148.43c0-4.69,3.32-6.12,5.92-6.12a5.27,5.27,0,0,1,5,3.1l-2.57,1.32a2.46,2.46,0,0,0-2.46-1.83c-1.47,0-2.38,1.21-2.38,3.54,0,2.09.66,3.59,2.4,3.59a2.94,2.94,0,0,0,2.68-2.11l2.62,1.3a5.7,5.7,0,0,1-5.48,3.3C231.37,154.52,228.35,153,228.35,148.43Z"/><path class="cls-3" d="M240.37,148.43c0-4.6,3.15-6.12,6-6.12s6,1.52,6,6.12-3.15,6.09-6,6.09S240.37,153,240.37,148.43Zm8.45,0c0-2-.68-3.54-2.44-3.54s-2.46,1.43-2.46,3.54c0,2,.66,3.59,2.46,3.59S248.82,150.58,248.82,148.45Z"/><path class="cls-3" d="M175.82,196l1.48-.9c1.94,3.1,4.39,4.39,7.45,4.39,4.17,0,6.73-2.48,6.73-5.94,0-4.14-2.27-6.37-9-6.37h-.94v-1.58h1.15c5.83,0,8.24-1.8,8.24-5.43,0-2.88-1.76-5.15-6-5.15a7.77,7.77,0,0,0-6.41,3.49l-1.44-.94a9.76,9.76,0,0,1,7.88-4.14c5.58,0,7.78,3.35,7.78,6.62a6.07,6.07,0,0,1-5.44,6.33c4,.83,6,3.06,6,7.09,0,4.21-3.24,7.59-8.53,7.59A10.07,10.07,0,0,1,175.82,196Z"/><path class="cls-3" d="M198.66,200.56l11.45-24.91H196.32l-.29-1.73h16v1.62l-11.48,25Z"/><path class="cls-3" d="M211.67,204.05l.9-6.37h2.38l-2.23,6.37Z"/><path class="cls-3" d="M219,196l1.48-.9c1.94,3.1,4.39,4.39,7.45,4.39,4.18,0,6.73-2.48,6.73-5.94,0-4.14-2.27-6.37-9-6.37h-.94v-1.58h1.15c5.83,0,8.24-1.8,8.24-5.43,0-2.88-1.76-5.15-6-5.15a7.77,7.77,0,0,0-6.41,3.49l-1.44-.94a9.76,9.76,0,0,1,7.88-4.14c5.58,0,7.78,3.35,7.78,6.62a6.07,6.07,0,0,1-5.44,6.33c4,.83,6,3.06,6,7.09,0,4.21-3.24,7.59-8.53,7.59A10.07,10.07,0,0,1,219,196Z"/><path class="cls-3" d="M241.86,200.56l11.45-24.91H239.52l-.29-1.73h16v1.62l-11.48,25Z"/><path class="cls-3" d="M257.39,194.22c0-3.82,2.66-5.83,7.31-7.85-3.78-1.66-6.08-3.42-6.08-6.62s3.06-6.33,8-6.33,8,3.1,8,6.33-2.23,4.79-6.19,6.55c4.79,2.09,7.42,4,7.42,7.92,0,3.56-3.38,6.84-9.21,6.84S257.39,197.9,257.39,194.22Zm16.67-.11c0-3.2-2.74-5-7.52-7-5.15,2.27-7.38,3.92-7.38,7s3.17,5.36,7.45,5.36S274.05,197.36,274.05,194.12Zm-1.22-14.36c0-2.3-1.94-4.75-6.23-4.75-4.07,0-6.23,2.38-6.23,4.64,0,2.66,1.87,4,6.26,5.9C271,183.68,272.83,182.45,272.83,179.75Z"/><path class="cls-3" d="M252.51,324.32l1.87-2.4a8,8,0,0,0,5.13,2.46c1.72,0,2.95-.62,2.95-1.87s-1.17-1.76-3.3-2.35c-2.9-.81-5.94-1.56-5.94-5,0-3,2.42-4.86,5.88-4.86a10.25,10.25,0,0,1,6.29,2.35l-1.65,2.55a7.83,7.83,0,0,0-4.55-2c-1.58,0-2.46.66-2.46,1.63,0,1.3,1.21,1.76,3.34,2.35,2.86.77,5.9,1.67,5.9,5,0,2.62-2,5-6.34,5A10.31,10.31,0,0,1,252.51,324.32Z"/><path class="cls-3" d="M267.35,321.06c0-4.6,3.15-6.12,6-6.12s6,1.52,6,6.12-3.15,6.09-6,6.09S267.35,325.62,267.35,321.06Zm8.45,0c0-2-.68-3.54-2.44-3.54s-2.46,1.43-2.46,3.54c0,2,.66,3.59,2.46,3.59S275.8,323.22,275.8,321.08Z"/><path class="cls-3" d="M281.09,323.75v-8.56h3.54v7.53c0,1.06.4,1.63,1.38,1.63a4,4,0,0,0,2.55-1.19v-8h3.54v11.73h-3.28l-.26-1.83a5.06,5.06,0,0,1-4,2.07C282.52,327.16,281.09,326.17,281.09,323.75Z"/><path class="cls-3" d="M295.47,323.4v-5.63h-2v-2.57h2v-3.76l3.52-.53v4.29h3v2.57h-3V323c0,1.25.59,1.5,1.52,1.5a4.11,4.11,0,0,0,1.21-.2l.24,2.57a18.78,18.78,0,0,1-2.51.2C296.7,327.07,295.47,326.21,295.47,323.4Z"/><path class="cls-3" d="M303.79,326.92v-16l3.54-.53V317a5,5,0,0,1,4-2.09c2,0,3.43,1,3.43,3.41v8.56h-3.54v-7.44c0-1.06-.4-1.61-1.37-1.61a4,4,0,0,0-2.57,1.17v7.88Z"/><path class="cls-3" d="M322,326.92l5.76-16.35h3.41l5.68,16.08-3.46.53-1.3-3.89h-5.54l-1.25,3.63Zm5.43-6.23h3.83l-1.87-5.54h0Z"/><path class="cls-3" d="M338.29,326.92V315.19h3.28l.26,1.85a4.93,4.93,0,0,1,3.85-2.09c2,0,2.88.81,3.21,2.09a5,5,0,0,1,3.87-2.09c2.38,0,3.43,1.5,3.43,3.59v8.38h-3.54v-7.44c0-1.06-.24-1.61-1.28-1.61A3.6,3.6,0,0,0,349,319v7.88h-3.54v-7.44c0-1.06-.24-1.61-1.28-1.61a3.69,3.69,0,0,0-2.38,1.17v7.88Z"/><path class="cls-3" d="M357.95,321.06a5.76,5.76,0,0,1,5.9-6.12c2.42,0,5.39,1.21,5.39,6.54V322h-7.77c.18,1.94,1.25,2.68,2.73,2.68a5.58,5.58,0,0,0,3.52-1.32l1.32,2a7.57,7.57,0,0,1-5.11,1.76C360.87,327.16,357.95,325.6,357.95,321.06Zm8.12-1.14c-.18-1.65-.92-2.44-2.24-2.44-1.1,0-2,.73-2.31,2.44Z"/><path class="cls-3" d="M371.06,326.92V315.19h3.28l.26,2h0a4.31,4.31,0,0,1,3.78-2.2h.09l.33,3.15a5.18,5.18,0,0,0-.81,0,4,4,0,0,0-3.41,1.58v7.28Z"/><path class="cls-3" d="M379.86,312.26a1.77,1.77,0,0,1,2-1.78,1.79,1.79,0,1,1-2,1.78Zm.24,14.65V315.19h3.52v11.73Z"/><path class="cls-3" d="M385.41,321.06c0-4.69,3.32-6.12,5.92-6.12a5.27,5.27,0,0,1,5,3.1l-2.57,1.32a2.46,2.46,0,0,0-2.46-1.83c-1.47,0-2.38,1.21-2.38,3.54,0,2.09.66,3.59,2.4,3.59a2.94,2.94,0,0,0,2.68-2.11l2.62,1.3a5.7,5.7,0,0,1-5.48,3.3C388.43,327.16,385.41,325.62,385.41,321.06Z"/><path class="cls-3" d="M397.53,323.92c0-2.71,2.29-4.2,7.44-4.62V319c0-.86-.48-1.41-1.76-1.41A5.5,5.5,0,0,0,399.8,319l-1.91-1.91a8.11,8.11,0,0,1,5.83-2.13c3.34,0,4.71,1.58,4.71,4.6v7.37h-3.19L405,325.2a5.19,5.19,0,0,1-4.09,1.89A3.13,3.13,0,0,1,397.53,323.92Zm7.44-.51v-2.18c-2.79.29-4,1-4,2.07,0,.75.53,1.12,1.3,1.12A3.63,3.63,0,0,0,405,323.42Z"/><path class="cls-3" d="M252.94,368.63l1.48-.9c1.94,3.1,4.39,4.39,7.45,4.39,4.18,0,6.73-2.48,6.73-5.94,0-4.14-2.27-6.37-9-6.37h-.94v-1.58h1.15c5.83,0,8.24-1.8,8.24-5.43,0-2.88-1.76-5.15-6-5.15a7.77,7.77,0,0,0-6.41,3.49l-1.44-.94a9.77,9.77,0,0,1,7.88-4.14c5.58,0,7.78,3.35,7.78,6.62a6.07,6.07,0,0,1-5.44,6.33c4,.83,6,3.06,6,7.09,0,4.21-3.24,7.59-8.53,7.59A10.07,10.07,0,0,1,252.94,368.63Z"/><path class="cls-3" d="M274.32,359.88c0-8.31,3.38-13.82,9.47-13.82s9.43,5.51,9.43,13.82-3.35,13.82-9.43,13.82S274.32,368.19,274.32,359.88Zm17.13,0c0-7.85-3.06-12.24-7.67-12.24-4.79,0-7.7,4.39-7.7,12.24s3.06,12.24,7.7,12.24S291.45,367.72,291.45,359.88Z"/><path class="cls-3" d="M296.76,376.69l.9-6.37H300l-2.23,6.37Z"/><path class="cls-3" d="M304.3,368.63l1.48-.9c1.55,2.59,3.71,4.39,7.05,4.39,4.82,0,7-3.82,7-7.59,0-4.61-2.77-7.16-6.41-7.16a7.25,7.25,0,0,0-6.37,3.64l-1.48-.61,1-13.82h13.25l.32,1.73h-12l-.79,10.15a7.25,7.25,0,0,1,6-2.66c4.61,0,8.13,3.31,8.13,8.64s-3.38,9.29-8.82,9.29A9.61,9.61,0,0,1,304.3,368.63Z"/><path class="cls-3" d="M337.6,373.2v-6.84H324.82V365.1L337,346.56h2.38v18.18h4.36l.32,1.62h-4.68v6.84Zm-10.66-8.46H337.6V348.61h-.07Z"/><path class="cls-3" d="M345.79,368.63l1.47-.9c1.95,3.1,4.39,4.39,7.45,4.39,4.18,0,6.73-2.48,6.73-5.94,0-4.14-2.27-6.37-9-6.37h-.94v-1.58h1.15c5.83,0,8.24-1.8,8.24-5.43,0-2.88-1.76-5.15-6-5.15a7.77,7.77,0,0,0-6.41,3.49L347,350.2a9.77,9.77,0,0,1,7.88-4.14c5.58,0,7.77,3.35,7.77,6.62a6.07,6.07,0,0,1-5.43,6.33c4,.83,6,3.06,6,7.09,0,4.21-3.24,7.59-8.53,7.59A10.07,10.07,0,0,1,345.79,368.63Z"/><path class="cls-3" d="M405,166.31V153h-4.84v-3h13l.53,3h-5.13v13.29Z"/><path class="cls-3" d="M413,163.14v-8.56h3.54v7.53c0,1.06.4,1.63,1.39,1.63a4,4,0,0,0,2.55-1.19v-8H424v11.73h-3.28l-.26-1.83a5.07,5.07,0,0,1-4,2.07C414.42,166.55,413,165.56,413,163.14Z"/><path class="cls-3" d="M426.44,166.31V154.58h3.28l.26,2h0a4.31,4.31,0,0,1,3.79-2.2h.09l.33,3.15a5.2,5.2,0,0,0-.81,0A4,4,0,0,0,430,159v7.28Z"/><path class="cls-3" d="M435.42,166.31v-16l3.54-.53V159l3.65-4.38h3.81L442.59,159l4.11,7.08-3.37.53-2.95-5L439,163.14v3.17Z"/><path class="cls-3" d="M446.92,160.45a5.76,5.76,0,0,1,5.9-6.12c2.42,0,5.39,1.21,5.39,6.54v.53h-7.77c.18,1.94,1.25,2.68,2.73,2.68a5.57,5.57,0,0,0,3.52-1.32l1.32,2a7.57,7.57,0,0,1-5.1,1.76C449.85,166.55,446.92,165,446.92,160.45Zm8.12-1.14c-.18-1.65-.92-2.44-2.24-2.44-1.1,0-2,.73-2.31,2.44Z"/><path class="cls-3" d="M459.24,170.62l-.26-2.95a7.85,7.85,0,0,0,2.09.29,1.41,1.41,0,0,0,1.5-1l.22-.57-4.38-11.53,3.48-.53,2.64,7.88h0l2.6-7.61h3.43l-4.93,13c-.79,2-1.87,3.26-4.22,3.26A10.89,10.89,0,0,1,459.24,170.62Z"/><path class="cls-3" d="M398.15,212.59V212c0-3.85,2.12-7.31,9.14-11.81,4-2.52,5.58-4.54,5.58-7.45,0-3.38-2-5.72-5.9-5.72-3.13,0-5.22,1.55-6.77,4.86l-1.48-.72c1.73-3.74,4.64-5.72,8.32-5.72,4.68,0,7.59,3,7.59,7.2,0,3.78-2,6-7.09,9.29s-7.45,6.41-7.52,9H414.6l.29,1.66Z"/><path class="cls-3" d="M417.3,208l1.48-.9c1.94,3.1,4.39,4.39,7.45,4.39,4.17,0,6.73-2.48,6.73-5.94,0-4.14-2.27-6.37-9-6.37H423v-1.58h1.15c5.83,0,8.24-1.8,8.24-5.44,0-2.88-1.76-5.15-6-5.15a7.77,7.77,0,0,0-6.41,3.49l-1.44-.94a9.76,9.76,0,0,1,7.88-4.14c5.58,0,7.78,3.35,7.78,6.62a6.07,6.07,0,0,1-5.44,6.33c4,.83,6,3.06,6,7.09,0,4.21-3.24,7.59-8.53,7.59A10.07,10.07,0,0,1,417.3,208Z"/><path class="cls-3" d="M439.11,216.08l.9-6.37h2.38l-2.23,6.37Z"/><path class="cls-3" d="M446.14,199.74c0-7.74,3.92-14.29,10-14.29a9,9,0,0,1,6.16,2l-1,1.4a7.12,7.12,0,0,0-5.18-1.8c-5.18,0-8.32,5.79-8.24,12.85a10.21,10.21,0,0,1,7.81-3.85c5.8,0,8.24,3.74,8.24,8.28,0,4.93-3.28,8.78-8.68,8.78C450.35,213.09,446.14,209,446.14,199.74Zm16,4.57c0-3.89-2-6.69-6.55-6.69a9.4,9.4,0,0,0-7.59,4.46c.61,6.55,3.78,9.43,7.38,9.43C459.35,211.51,462.12,209,462.12,204.31Z"/><path class="cls-3" d="M469.13,212.59l11.45-24.91H466.79L466.5,186h16v1.62l-11.48,25Z"/><path class="cls-3" d="M484.66,206.25c0-3.82,2.66-5.83,7.31-7.85-3.78-1.66-6.08-3.42-6.08-6.62s3.06-6.33,8-6.33,8,3.1,8,6.33-2.23,4.79-6.19,6.55c4.79,2.09,7.42,4,7.42,7.92,0,3.56-3.38,6.84-9.21,6.84S484.66,209.92,484.66,206.25Zm16.67-.11c0-3.2-2.74-5-7.52-7-5.15,2.27-7.38,3.92-7.38,7s3.17,5.36,7.45,5.36S501.33,209.39,501.33,206.15Zm-1.22-14.36c0-2.3-1.94-4.75-6.23-4.75-4.07,0-6.23,2.38-6.23,4.64,0,2.66,1.87,4,6.26,5.9C498.3,195.71,500.1,194.48,500.1,191.78Z"/><path class="cls-3" d="M582.38,17.3V1h6.12c4,0,6.4,1.43,6.4,5a4.35,4.35,0,0,1-3.39,4.64l3.7,6.34-3.48.53L588,11.17H585.9V17.3Zm3.52-8.91h2.44c2.07,0,3.06-.59,3.06-2.24s-1-2.2-3.06-2.2H585.9Z"/><path class="cls-3" d="M596.25,11.45a5.76,5.76,0,0,1,5.9-6.12c2.42,0,5.39,1.21,5.39,6.54v.53h-7.77c.18,1.94,1.25,2.68,2.73,2.68A5.57,5.57,0,0,0,606,13.76l1.32,2a7.57,7.57,0,0,1-5.11,1.76C599.18,17.55,596.25,16,596.25,11.45Zm8.12-1.14c-.18-1.65-.92-2.44-2.24-2.44-1.1,0-2,.73-2.31,2.44Z"/><path class="cls-3" d="M608.52,15.87l1.19-2.07a8.09,8.09,0,0,0,4.22,1.47c1.1,0,1.87-.37,1.87-1.14s-.62-1.12-2.22-1.41c-2.22-.4-4.6-.92-4.6-3.67,0-2.35,1.94-3.72,4.55-3.72a9.17,9.17,0,0,1,5.06,1.39l-1.08,2.11a7.53,7.53,0,0,0-3.67-1.12c-1,0-1.58.4-1.58,1s.64,1,2.09,1.25c2.31.4,4.75.92,4.75,3.59,0,2.84-2.46,4-5.17,4A9.35,9.35,0,0,1,608.52,15.87Z"/><path class="cls-3" d="M621.73,13.78V8.15h-2V5.58h2V1.81l3.52-.53V5.58h3V8.15h-3v5.24c0,1.25.59,1.5,1.52,1.5a4.12,4.12,0,0,0,1.21-.2l.24,2.57a18.79,18.79,0,0,1-2.51.2C623,17.46,621.73,16.6,621.73,13.78Z"/><path class="cls-3" d="M635.11,11.45c0-4.6,3.15-6.12,6-6.12s6,1.52,6,6.12-3.15,6.09-6,6.09S635.11,16,635.11,11.45Zm8.45,0c0-2-.68-3.54-2.44-3.54s-2.46,1.43-2.46,3.54c0,2,.66,3.59,2.46,3.59S643.56,13.61,643.56,11.47Z"/><path class="cls-3" d="M649.82,17.3V8.15h-2V5.58h2V4.76c0-2,.59-3.83,4.07-3.83a15.81,15.81,0,0,1,2,.15l.2,2.53A4,4,0,0,0,655,3.46c-.86,0-1.65.15-1.65,1.41v.7h2.55V8.15h-2.55V17.3Z"/><path class="cls-3" d="M663.57,17.3V1h11.09V4h-7.5v3.5H673l.53,2.84h-6.36v4h7.9v2.9Z"/><path class="cls-3" d="M676.66,14.14V5.58h3.54V13.1c0,1.06.4,1.63,1.39,1.63a4,4,0,0,0,2.55-1.19v-8h3.54V17.3h-3.28l-.26-1.83a5.06,5.06,0,0,1-4,2.07C678.09,17.55,676.66,16.56,676.66,14.14Z"/><path class="cls-3" d="M690.12,17.3V5.58h3.28l.26,2h0a4.31,4.31,0,0,1,3.78-2.2h.09l.33,3.15a5.18,5.18,0,0,0-.81,0A4,4,0,0,0,693.66,10V17.3Z"/><path class="cls-3" d="M698.52,14.31c0-2.71,2.29-4.2,7.44-4.62V9.4c0-.86-.48-1.41-1.76-1.41a5.5,5.5,0,0,0-3.41,1.39l-1.91-1.91a8.11,8.11,0,0,1,5.83-2.13c3.34,0,4.71,1.58,4.71,4.6V17.3h-3.19L706,15.59a5.19,5.19,0,0,1-4.09,1.89A3.13,3.13,0,0,1,698.52,14.31Zm7.44-.51V11.63c-2.79.29-4,1-4,2.07,0,.75.53,1.12,1.3,1.12A3.63,3.63,0,0,0,706,13.81Z"/><path class="cls-3" d="M710.85,15.87,712,13.81a8.09,8.09,0,0,0,4.22,1.47c1.1,0,1.87-.37,1.87-1.14s-.62-1.12-2.22-1.41c-2.22-.4-4.6-.92-4.6-3.67,0-2.35,1.94-3.72,4.55-3.72a9.17,9.17,0,0,1,5.06,1.39l-1.08,2.11a7.53,7.53,0,0,0-3.67-1.12c-1,0-1.58.4-1.58,1s.64,1,2.09,1.25c2.31.4,4.75.92,4.75,3.59,0,2.84-2.46,4-5.17,4A9.35,9.35,0,0,1,710.85,15.87Z"/><path class="cls-3" d="M723,2.65a1.77,1.77,0,0,1,2-1.78,1.79,1.79,0,1,1-2,1.78Zm.24,14.65V5.58h3.52V17.3Z"/><path class="cls-3" d="M728.4,14.31c0-2.71,2.29-4.2,7.44-4.62V9.4c0-.86-.48-1.41-1.76-1.41a5.5,5.5,0,0,0-3.41,1.39l-1.91-1.91a8.11,8.11,0,0,1,5.83-2.13c3.35,0,4.71,1.58,4.71,4.6V17.3H736.1l-.26-1.72a5.18,5.18,0,0,1-4.09,1.89A3.13,3.13,0,0,1,728.4,14.31Zm7.44-.51V11.63c-2.79.29-4,1-4,2.07,0,.75.53,1.12,1.3,1.12A3.63,3.63,0,0,0,735.83,13.81Z"/><path class="cls-3" d="M585.47,63.59V38.64l-5.11,1.87L580.11,39l5.51-2h1.62V63.59Z"/><path class="cls-3" d="M593.79,67.08l.9-6.37h2.38l-2.23,6.37Z"/><path class="cls-3" d="M605.1,63.59V38.64L600,40.51,599.73,39l5.51-2h1.62V63.59Z"/><path class="cls-3" d="M613.32,61.64l1-1.37a7.78,7.78,0,0,0,5.83,2.23c5.18,0,8.31-5.76,8.24-12.85a10.21,10.21,0,0,1-7.81,3.85c-5.79,0-8.24-3.74-8.24-8.28,0-4.93,3.28-8.78,8.67-8.78,4.9,0,9.11,4.1,9.11,13.35,0,7.74-3.92,14.29-10,14.29A9.54,9.54,0,0,1,613.32,61.64Zm14.94-14.18c-.61-6.55-3.78-9.43-7.38-9.43-4,0-6.77,2.56-6.77,7.2,0,3.89,2,6.7,6.55,6.7A9.4,9.4,0,0,0,628.25,47.46Z"/><path class="cls-3" d="M633.29,57.25c0-3.82,2.66-5.83,7.31-7.85-3.78-1.66-6.08-3.42-6.08-6.62s3.06-6.33,8-6.33,8,3.1,8,6.33-2.23,4.79-6.19,6.55c4.79,2.09,7.42,4,7.42,7.92,0,3.56-3.38,6.84-9.21,6.84S633.29,60.92,633.29,57.25ZM650,57.14c0-3.2-2.74-5-7.52-7-5.15,2.27-7.38,3.92-7.38,7s3.17,5.36,7.45,5.36S650,60.38,650,57.14Zm-1.22-14.36c0-2.3-1.94-4.75-6.23-4.75-4.07,0-6.23,2.38-6.23,4.64,0,2.66,1.87,4,6.26,5.9C646.93,46.7,648.73,45.48,648.73,42.78Z"/><path class="cls-4" d="M634.93,307.57V294.28h-4.84v-3h13l.53,3h-5.13v13.29Z"/><path class="cls-4" d="M644.29,299.43c0-5.72,3.74-8.45,7.68-8.45s7.66,2.73,7.66,8.45-3.74,8.45-7.66,8.45S644.29,305.15,644.29,299.43Zm11.77,0c0-3.41-1.58-5.48-4.09-5.48s-4.09,2.07-4.09,5.48S649.44,305,652,305,656.06,302.84,656.06,299.43Z"/><path class="cls-4" d="M665.26,307.57V294.28h-4.84v-3h13l.53,3h-5.13v13.29Z"/><path class="cls-4" d="M672.61,307.57l5.76-16.35h3.41l5.68,16.08-3.46.53-1.3-3.89h-5.54l-1.25,3.63Zm5.43-6.23h3.83L680,295.8h0Z"/><path class="cls-4" d="M689.18,307.57V291.29h3.59v13.38h6.91l.53,2.9Z"/><path class="cls-5" d="M634.36,352.86V327.91l-5.11,1.87-.25-1.55,5.51-2h1.62v26.64Z"/><path class="cls-5" d="M641,348.28l1.48-.9c1.94,3.1,4.39,4.39,7.45,4.39,4.18,0,6.73-2.48,6.73-5.94,0-4.14-2.27-6.37-9-6.37h-.94v-1.58h1.15c5.83,0,8.24-1.8,8.24-5.44,0-2.88-1.76-5.15-6-5.15a7.77,7.77,0,0,0-6.41,3.49l-1.44-.94a9.77,9.77,0,0,1,7.88-4.14c5.58,0,7.78,3.35,7.78,6.62a6.07,6.07,0,0,1-5.44,6.33c4,.83,6,3.06,6,7.09,0,4.21-3.24,7.59-8.53,7.59A10.07,10.07,0,0,1,641,348.28Z"/><path class="cls-5" d="M674.64,352.86V346H661.87v-1.26L674,326.22h2.38V344.4h4.36l.32,1.62h-4.68v6.84ZM664,344.4h10.66V328.27h-.07Z"/><path class="cls-5" d="M683.69,356.35l.9-6.37H687l-2.23,6.37Z"/><path class="cls-5" d="M692.7,352.86l11.45-24.91H690.36l-.29-1.73h16v1.62l-11.48,25Z"/><path class="cls-5" d="M709.63,350.91l1-1.37a7.78,7.78,0,0,0,5.83,2.23c5.18,0,8.32-5.76,8.24-12.85a10.21,10.21,0,0,1-7.81,3.85c-5.8,0-8.24-3.74-8.24-8.28,0-4.93,3.28-8.78,8.68-8.78,4.89,0,9.11,4.1,9.11,13.35,0,7.74-3.92,14.29-10,14.29A9.55,9.55,0,0,1,709.63,350.91Zm14.94-14.18c-.61-6.55-3.78-9.43-7.38-9.43-4,0-6.77,2.56-6.77,7.2,0,3.89,2,6.7,6.55,6.7A9.39,9.39,0,0,0,724.56,336.73Z"/><path class="cls-5" d="M729.21,352.86v-.58c0-3.85,2.12-7.31,9.14-11.81,4-2.52,5.58-4.54,5.58-7.45,0-3.38-2-5.72-5.9-5.72-3.13,0-5.22,1.55-6.77,4.86l-1.48-.72c1.73-3.74,4.64-5.72,8.31-5.72,4.68,0,7.6,3,7.6,7.2,0,3.78-2,6-7.09,9.29s-7.45,6.41-7.52,9h14.58l.29,1.66Z"/></g></svg>