<svg width="786" height="183" viewBox="0 0 786 183" xmlns="http://www.w3.org/2000/svg" xmlns:xlink="http://www.w3.org/1999/xlink"><title>Group 2</title><defs><linearGradient x1="4.385%" y1="45.673%" y2="45.673%" id="a"><stop stop-opacity="0" offset="0%"/><stop stop-opacity=".5" offset="100%"/></linearGradient><path id="b" d="M182.73.579H.35v182.38h182.38V.579z"/></defs><g fill="none" fill-rule="evenodd"><path d="M703.932 183H567.977V.579h135.955c50.375 0 91.211 40.836 91.211 91.21v.001c0 50.374-40.836 91.21-91.211 91.21m-567.977 0H0V.579h135.955c50.374 0 91.211 40.836 91.211 91.21v.001c0 50.374-40.837 91.21-91.211 91.21" fill-opacity=".1" fill="url(#a)" transform="translate(-10 -.579)"/><path d="M693.958 172.547c44.953 0 81.395-36.442 81.395-81.395 0-44.953-36.442-81.394-81.395-81.394h-.01V.943c7.97 0 15.645 1.011 23.344 3.073 48.118 12.893 76.673 62.352 63.78 110.47s-62.352 76.673-110.47 63.78l2.275-8.49a81.513 81.513 0 0 0 21.081 2.771" fill="#00CCCD"/><path d="M693.947.943v8.815c-44.948.006-81.383 36.445-81.383 81.394 0 37.661 25.583 69.333 60.314 78.623l-2.276 8.491c-40.419-10.83-66.853-45.28-66.853-87.125 0-49.815 40.383-90.198 90.198-90.198" fill="#FFF"/><path d="M126.72 1.178v8.815c44.947.006 81.382 36.445 81.382 81.394 0 37.661-25.583 69.333-60.314 78.623l2.276 8.491c40.42-10.83 66.853-45.28 66.853-87.125 0-49.815-40.383-90.198-90.198-90.198" fill="#00CCCD"/><path d="M126.708 172.782c-44.953 0-81.395-36.442-81.395-81.395 0-44.953 36.442-81.395 81.395-81.395l.011.001V1.178a89.21 89.21 0 0 0-23.345 3.073c-48.118 12.893-76.673 62.352-63.78 110.47s62.352 76.673 110.47 63.78l-2.275-8.49a81.513 81.513 0 0 1-21.08 2.771" fill="#FFF"/><path d="M107.653 85.233V78.79h4.536l-.108-2.268h-4.428V58.593h-3.168L92.353 76.881v1.908h12.816v6.444h2.484zm-2.556-23.652h.072v14.94h-9.936l9.864-14.94zm20.883 24.156c5.508 0 8.928-3.816 8.928-8.856 0-4.824-2.7-8.316-8.316-8.316-3.384 0-5.904 1.728-7.596 3.564 0-6.66 3.024-11.808 7.956-11.808 2.376 0 3.672.648 5.112 1.8l1.188-2.016c-1.404-1.152-3.276-2.016-6.264-2.016-6.12 0-10.476 6.084-10.476 14.292 0 9.144 4.284 13.356 9.468 13.356zm.108-2.196c-3.528 0-6.444-2.736-6.984-8.856 1.692-2.34 4.248-3.924 7.2-3.924 4.32 0 6.12 2.628 6.12 6.156 0 4.176-2.556 6.624-6.336 6.624zm18.61-9.324c3.78 0 5.977-3.384 5.977-8.064 0-4.824-2.268-7.92-5.94-7.92-3.672 0-6.012 3.096-6.012 8.064 0 4.68 2.124 7.92 5.976 7.92zm2.449 11.016l15.912-26.64h-2.304l-15.912 26.64h2.304zm-2.412-12.96c-2.412 0-3.744-2.484-3.744-6.12 0-3.348 1.296-5.976 3.708-5.976 2.376 0 3.708 2.448 3.708 6.048 0 3.384-1.296 6.048-3.672 6.048zm18.432 13.32c3.816 0 6.012-3.384 6.012-8.028 0-4.86-2.268-7.956-5.94-7.956-3.672 0-6.048 3.132-6.048 8.064 0 4.68 2.16 7.92 5.976 7.92zm.036-1.944c-2.412 0-3.708-2.484-3.708-6.084 0-3.384 1.26-6.012 3.672-6.012s3.708 2.448 3.708 6.048c0 3.384-1.26 6.048-3.672 6.048zm505.258 2.088c5.652 0 9.144-3.996 9.144-9.324 0-5.328-3.42-8.712-8.244-8.712-2.844 0-4.608.972-5.904 2.484l.72-9.252h11.916l-.072-2.34h-13.968l-1.044 13.932 1.908.72c1.44-2.088 3.348-3.348 6.084-3.348 3.528 0 6.084 2.376 6.084 6.624 0 3.528-2.052 6.948-6.66 6.948-3.204 0-5.436-1.692-7.02-4.104l-1.656 1.62c1.764 2.808 4.86 4.752 8.712 4.752zm29.444-.504V78.79h4.536l-.108-2.268h-4.428V58.593h-3.168l-12.132 18.288v1.908h12.816v6.444h2.484zm-2.556-23.652h.072v14.94h-9.936l9.864-14.94zm15.681 12.636c3.78 0 5.976-3.384 5.976-8.064 0-4.824-2.268-7.92-5.94-7.92-3.672 0-6.012 3.096-6.012 8.064 0 4.68 2.124 7.92 5.976 7.92zm2.448 11.016l15.912-26.64h-2.304l-15.912 26.64h2.304zm-2.412-12.96c-2.412 0-3.744-2.484-3.744-6.12 0-3.348 1.296-5.976 3.708-5.976 2.376 0 3.708 2.448 3.708 6.048 0 3.384-1.296 6.048-3.672 6.048zm18.432 13.32c3.816 0 6.012-3.384 6.012-8.028 0-4.86-2.268-7.956-5.94-7.956-3.672 0-6.048 3.132-6.048 8.064 0 4.68 2.16 7.92 5.976 7.92zm.036-1.944c-2.412 0-3.708-2.484-3.708-6.084 0-3.384 1.26-6.012 3.672-6.012s3.708 2.448 3.708 6.048c0 3.384-1.26 6.048-3.672 6.048z" fill="#000"/><g transform="translate(319 -.579)"><mask id="c" fill="#fff"><use xlink:href="#b"/></mask><path d="M182.73 91.769c0 50.363-40.827 91.19-91.19 91.19S.35 142.132.35 91.769 41.177.579 91.54.579s91.19 40.827 91.19 91.19" fill="#00A6E8" mask="url(#c)"/></g><path d="M371.647 137.428c4.56 0 7.41-2.76 7.41-6.39 0-3.27-1.62-5.19-4.95-5.85 2.73-.45 4.44-2.4 4.44-5.25 0-2.88-1.98-5.55-6.66-5.55-2.97 0-5.25 1.44-6.84 3.33l1.41 1.35c1.35-1.68 3.03-2.79 5.31-2.79 3.36 0 4.71 1.71 4.71 3.87 0 2.73-1.77 4.17-6.48 4.17h-1.08l.12 1.83h.78c5.25 0 7.14 1.65 7.14 4.89 0 2.67-1.98 4.5-5.31 4.5-2.43 0-4.5-1.02-6.12-3.48l-1.47 1.26c1.65 2.61 4.35 4.11 7.59 4.11zm14.136-.36l9.42-20.43v-1.83h-13.71l.15 1.95h11.34l-9.33 20.19 2.13.12zm24.552-1.5c-1.8 0-2.88-.87-2.88-2.52 0-2.04 1.71-3.69 8.67-4.89v4.92c-1.62 1.56-3.57 2.49-5.79 2.49zm-.45 1.71c2.37 0 4.41-.9 6.24-2.52l.21 2.25h1.83v-11.07c0-3.15-1.62-5.04-5.13-5.04-3.21 0-5.28 1.2-7.17 2.94l1.17 1.29c1.68-1.5 3.39-2.49 5.85-2.49 2.07 0 3.24 1.08 3.24 3.24v.81c-8.04 1.23-10.71 3.48-10.71 6.6 0 2.46 1.65 3.99 4.47 3.99zm22.137-17.67c1.65 0 2.52-1.05 2.52-3.18l-1.29-.24c0 1.26-.36 1.74-1.23 1.74-1.23 0-2.76-1.68-4.44-1.68-1.65 0-2.52 1.05-2.52 3.18l1.32.24c-.03-1.26.33-1.74 1.2-1.74 1.23 0 2.76 1.68 4.44 1.68zm-6.69 17.4v-11.61c1.77-1.71 3.48-2.76 5.49-2.76 2.22 0 3.18 1.11 3.18 3.33v11.04h2.07v-11.46c0-2.94-1.59-4.65-4.77-4.65-2.4 0-4.41 1.26-5.97 2.82l-.21-2.49h-1.86v15.78h2.07zm22.14.33c3.87 0 7.14-2.97 7.14-8.22 0-5.28-3.27-8.22-7.14-8.22-3.9 0-7.17 2.94-7.17 8.22 0 5.25 3.3 8.22 7.17 8.22zm0-1.77c-3.39 0-5.1-2.94-5.1-6.45 0-3.72 1.89-6.45 5.1-6.45 3.33 0 5.07 2.97 5.07 6.45 0 3.72-1.89 6.45-5.07 6.45zm16.044 1.71c3.57 0 6.15-1.65 6.15-4.56 0-2.97-1.86-3.96-6.06-4.95-2.91-.69-3.78-1.35-3.78-2.82 0-1.23 1.02-2.34 3.42-2.34 1.98 0 3.42.72 4.71 1.95l1.05-1.44c-1.41-1.35-3.18-2.22-5.82-2.22-3.42 0-5.37 1.89-5.37 4.14 0 2.7 1.68 3.69 5.49 4.62 3.27.75 4.35 1.47 4.35 3.21 0 1.68-1.41 2.73-4.11 2.73-2.22 0-3.81-.93-5.07-2.37l-1.14 1.26c1.23 1.56 3.3 2.79 6.18 2.79zm-110.078-26.885v-8.37h.03c.24 1.08.405 1.545.66 2.34l2.16 6.03h1.665l2.175-6.03c.24-.78.48-1.485.645-2.265h.03v8.295h1.815v-11.1h-2.505l-2.895 8.805h-.03l-2.985-8.805h-2.46v11.1h1.695zm19.28 0v-1.695h-5.594v-3.24h4.32l-.27-1.665h-4.05v-2.76h5.295v-1.74h-7.17v11.1h7.47zm5.009 0c3.435 0 5.775-1.635 5.775-5.595 0-3.885-2.295-5.505-5.775-5.505h-3.15v11.1h3.15zm-1.29-9.36h1.425c2.58 0 3.765 1.2 3.765 3.795 0 2.7-1.17 3.87-3.735 3.87h-1.455v-7.665zm11.122 9.36v-11.1h-1.86v11.1h1.86zm3.497 0l.93-2.64h4.215l.945 2.79 1.815-.3-3.885-10.995h-1.83l-3.93 11.145h1.74zm3.045-8.79h.03l1.53 4.5h-3.12l1.56-4.5zm13.211 8.79c3.435 0 5.775-1.635 5.775-5.595 0-3.885-2.295-5.505-5.775-5.505h-3.15v11.1h3.15zm-1.29-9.36h1.425c2.58 0 3.765 1.2 3.765 3.795 0 2.7-1.17 3.87-3.735 3.87h-1.455v-7.665zm16.644 9.36v-1.695h-5.595v-3.24h4.32l-.27-1.665h-4.05v-2.76h5.295v-1.74h-7.17v11.1h7.47zm13.286 0v-1.695h-5.595v-3.24h4.32l-.27-1.665h-4.05v-2.76h5.295v-1.74h-7.17v11.1h7.47zm5.008 0c3.435 0 5.775-1.635 5.775-5.595 0-3.885-2.295-5.505-5.775-5.505h-3.15v11.1h3.15zm-1.29-9.36h1.425c2.58 0 3.765 1.2 3.765 3.795 0 2.7-1.17 3.87-3.735 3.87h-1.455v-7.665zm8.956 9.36l.93-2.64h4.215l.945 2.79 1.815-.3-3.885-10.995h-1.83l-3.93 11.145h1.74zm3.045-8.79h.03l1.53 4.5h-3.12l1.56-4.5zm9.745 8.79c3.435 0 5.775-1.635 5.775-5.595 0-3.885-2.295-5.505-5.775-5.505h-3.15v11.1h3.15zm-1.29-9.36h1.425c2.58 0 3.765 1.2 3.765 3.795 0 2.7-1.17 3.87-3.735 3.87h-1.455v-7.665zm-50.454-51.267c6.515 0 11.796-5.282 11.796-11.797 0-6.515-5.28-11.796-11.796-11.796-6.515 0-11.797 5.281-11.797 11.796s5.282 11.797 11.797 11.797zm7.078 21.233h-7.078v-4.718h11.796l-4.718 4.718zm.325-18.268a16.446 16.446 0 0 1-7.403 1.753c-2.663 0-5.177-.634-7.405-1.754-9.303 2.266-16.188 10.641-16.188 20.629v4.719h47.186v-4.719c0-9.988-6.898-18.361-16.19-20.628z" fill="#FFF"/><path d="M93.751 115.435V110.5h5.04v4.935h1.875v-11.1h-1.875v4.425h-5.04v-4.425h-1.875v11.1h1.875zm13.926.21c2.67 0 4.995-2.025 4.995-5.76s-2.325-5.76-4.995-5.76c-2.685 0-5.01 2.025-5.01 5.76s2.325 5.76 5.01 5.76zm0-1.68c-1.875 0-3.135-1.56-3.135-4.08s1.26-4.035 3.135-4.035c1.875 0 3.135 1.515 3.135 4.035 0 2.52-1.26 4.08-3.135 4.08zm8.706 1.47v-8.37h.03c.24 1.08.405 1.545.66 2.34l2.16 6.03h1.665l2.175-6.03c.24-.78.48-1.485.645-2.265h.03v8.295h1.815v-11.1h-2.505l-2.895 8.805h-.03l-2.985-8.805h-2.46v11.1h1.695zm16.169 0c2.264 0 3.93-1.005 3.93-3.045 0-1.71-1.036-2.49-2.296-2.715v-.03c1.035-.225 1.965-1.02 1.965-2.55 0-2.04-1.635-2.76-3.87-2.76h-4.2v11.1h4.47zm-2.625-9.465h2.204c1.56 0 2.22.495 2.22 1.47 0 1.005-.78 1.53-2.25 1.53h-2.174v-3zm0 4.59h2.234c1.576 0 2.49.525 2.49 1.65 0 1.02-.705 1.605-2.294 1.605h-2.43v-3.255zm10.5 4.875v-4.38h1.965l2.685 4.53 1.83-.3-2.64-4.47c1.53-.39 2.445-1.305 2.445-3.075 0-2.355-1.53-3.405-4.155-3.405h-3.975v11.1h1.845zm0-9.39h2.04c1.59 0 2.414.435 2.414 1.665 0 1.26-.825 1.71-2.415 1.71h-2.04v-3.375zm15.889 9.39v-1.695h-5.595v-3.24h4.32l-.27-1.665h-4.05v-2.76h5.295v-1.74h-7.17v11.1h7.47zm5.802.21c2.64 0 4.11-1.425 4.11-3.225 0-2.1-1.68-2.775-3.78-3.39-1.815-.54-2.61-.9-2.61-1.935 0-.72.72-1.275 1.98-1.275 1.17 0 2.34.615 3.225 1.395l.885-1.5c-1.05-.87-2.445-1.59-4.14-1.59-2.22 0-3.78 1.245-3.78 3.12 0 2.115 1.71 2.685 3.855 3.315 1.83.555 2.535 1.005 2.535 1.98 0 .96-.945 1.44-2.34 1.44-1.365 0-2.76-.765-3.615-1.65l-1.005 1.425c1.125 1.065 2.685 1.89 4.68 1.89zm500.823 1.785v-8.37h.03c.24 1.08.405 1.545.66 2.34l2.16 6.03h1.665l2.175-6.03c.24-.78.48-1.485.645-2.265h.03v8.295h1.815v-11.1h-2.505l-2.895 8.805h-.03l-2.985-8.805h-2.46v11.1h1.695zm16.015.195c2.925 0 4.29-1.74 4.29-4.26v-7.035h-1.845v6.975c0 1.605-.735 2.61-2.43 2.61-1.71 0-2.445-1.035-2.445-2.625v-6.96h-1.875v7.065c0 2.49 1.365 4.23 4.305 4.23zm7.853.015c2.31 0 3.36-1.29 3.36-3.36v-7.95h-1.875v7.725c0 1.395-.615 1.95-1.574 1.95-.796 0-1.456-.42-1.95-.96l-.856 1.47c.615.63 1.515 1.125 2.895 1.125zm13.353-.21v-1.695h-5.595v-3.24h4.32l-.27-1.665h-4.05v-2.76h5.295v-1.74h-7.17v11.1h7.47zm3.703 0v-4.38h1.965l2.685 4.53 1.83-.3-2.64-4.47c1.53-.39 2.445-1.305 2.445-3.075 0-2.355-1.53-3.405-4.155-3.405h-3.975v11.1h1.845zm0-9.39h2.04c1.59 0 2.415.435 2.415 1.665 0 1.26-.825 1.71-2.415 1.71h-2.04v-3.375zm16.003 9.39v-1.695h-5.595v-3.24h4.32l-.27-1.665h-4.05v-2.76h5.295v-1.74h-7.17v11.1h7.47zm5.914.21c2.64 0 4.11-1.425 4.11-3.225 0-2.1-1.68-2.775-3.78-3.39-1.815-.54-2.61-.9-2.61-1.935 0-.72.72-1.275 1.98-1.275 1.17 0 2.34.615 3.225 1.395l.885-1.5c-1.05-.87-2.445-1.59-4.14-1.59-2.22 0-3.78 1.245-3.78 3.12 0 2.115 1.71 2.685 3.855 3.315 1.83.555 2.535 1.005 2.535 1.98 0 .96-.945 1.44-2.34 1.44-1.365 0-2.76-.765-3.615-1.65l-1.005 1.425c1.125 1.065 2.685 1.89 4.68 1.89z" fill="#676767"/></g></svg>