<svg xmlns="http://www.w3.org/2000/svg" xmlns:xlink="http://www.w3.org/1999/xlink" viewBox="0 0 1088.75 397.87"><defs><style>.cls-1,.cls-157,.cls-2{fill:none;}.cls-2{clip-rule:evenodd;}.cls-3{clip-path:url(#clip-path);}.cls-4{clip-path:url(#clip-path-2);}.cls-5{isolation:isolate;}.cls-6{clip-path:url(#clip-path-3);}.cls-7{fill:#2a86ca;}.cls-8{clip-path:url(#clip-path-5);}.cls-9{fill:#5bbeff;opacity:0.1;}.cls-10{clip-path:url(#clip-path-7);}.cls-11{clip-path:url(#clip-path-9);}.cls-12{clip-path:url(#clip-path-11);}.cls-13{clip-path:url(#clip-path-12);}.cls-14{clip-path:url(#clip-path-13);}.cls-15{clip-path:url(#clip-path-15);}.cls-16{clip-path:url(#clip-path-17);}.cls-17{clip-path:url(#clip-path-19);}.cls-18{fill:#004481;}.cls-19,.cls-90{font-size:15px;}.cls-156,.cls-19,.cls-61,.cls-90{fill:#fff;}.cls-111,.cls-19{font-family:BentonSansBBVA-Book, Benton Sans BBVA;}.cls-20{letter-spacing:-0.01em;}.cls-21{letter-spacing:-0.01em;}.cls-22{letter-spacing:-0.03em;}.cls-23{letter-spacing:0em;}.cls-24{letter-spacing:0em;}.cls-25{letter-spacing:0em;}.cls-26{letter-spacing:-0.01em;}.cls-27{letter-spacing:0em;}.cls-28{letter-spacing:-0.01em;}.cls-100,.cls-29{letter-spacing:0em;}.cls-30{letter-spacing:0em;}.cls-31{letter-spacing:0em;}.cls-32{letter-spacing:-0.01em;}.cls-33{letter-spacing:-0.01em;}.cls-34{letter-spacing:-0.02em;}.cls-35{letter-spacing:0em;}.cls-36{letter-spacing:0em;}.cls-37{letter-spacing:0em;}.cls-38{letter-spacing:-0.01em;}.cls-39{letter-spacing:-0.03em;}.cls-40{letter-spacing:-0.01em;}.cls-41{letter-spacing:-0.01em;}.cls-42{letter-spacing:0em;}.cls-43{letter-spacing:-0.01em;}.cls-44{letter-spacing:-0.02em;}.cls-45{letter-spacing:-0.01em;}.cls-46,.cls-47,.cls-48,.cls-49,.cls-50,.cls-51{font-family:BentonSansBBVA-BookItalic, Benton Sans BBVA;font-style:italic;}.cls-46{letter-spacing:-0.01em;}.cls-47{letter-spacing:-0.01em;}.cls-48{letter-spacing:-0.01em;}.cls-142,.cls-49{letter-spacing:-0.01em;}.cls-50{letter-spacing:-0.01em;}.cls-52,.cls-93{letter-spacing:0em;}.cls-53{letter-spacing:-0.01em;}.cls-54{letter-spacing:0em;}.cls-55{letter-spacing:-0.02em;}.cls-56{letter-spacing:-0.02em;}.cls-57{letter-spacing:0em;}.cls-58,.cls-91{letter-spacing:0em;}.cls-59{letter-spacing:-0.02em;}.cls-60{letter-spacing:0em;}.cls-61{font-size:18px;font-family:BentonSansBBVA-Medium, Benton Sans BBVA;}.cls-62{letter-spacing:-0.02em;}.cls-63{letter-spacing:0em;}.cls-64{letter-spacing:0em;}.cls-65{letter-spacing:-0.01em;}.cls-66{letter-spacing:-0.01em;}.cls-67{letter-spacing:0em;}.cls-68{letter-spacing:-0.01em;}.cls-69{letter-spacing:-0.01em;}.cls-70{letter-spacing:0em;}.cls-71{letter-spacing:0em;}.cls-72{letter-spacing:-0.01em;}.cls-73{letter-spacing:-0.01em;}.cls-74{letter-spacing:-0.01em;}.cls-75{letter-spacing:0em;}.cls-76{letter-spacing:-0.01em;}.cls-77{letter-spacing:0em;}.cls-78{letter-spacing:0em;}.cls-79{letter-spacing:0em;}.cls-80{letter-spacing:0em;}.cls-81{letter-spacing:0em;}.cls-82{letter-spacing:-0.04em;}.cls-83{letter-spacing:-0.01em;}.cls-84{letter-spacing:0em;}.cls-85{letter-spacing:-0.02em;}.cls-86{letter-spacing:-0.05em;}.cls-87{letter-spacing:-0.01em;}.cls-88{letter-spacing:-0.01em;}.cls-89{letter-spacing:-0.03em;}.cls-90{font-family:BentonSansBBVA-Bold, Benton Sans BBVA;}.cls-100,.cls-101,.cls-102,.cls-103,.cls-104,.cls-105,.cls-106,.cls-107,.cls-108,.cls-109,.cls-110,.cls-91,.cls-92,.cls-93,.cls-94,.cls-95,.cls-96,.cls-97,.cls-98,.cls-99{font-weight:700;}.cls-94{letter-spacing:0em;}.cls-95{letter-spacing:0em;}.cls-151,.cls-96{letter-spacing:-0.01em;}.cls-97{letter-spacing:0em;}.cls-118,.cls-98{letter-spacing:0em;}.cls-99{letter-spacing:0em;}.cls-101{letter-spacing:-0.01em;}.cls-102{letter-spacing:0em;}.cls-103{letter-spacing:-0.02em;}.cls-104{letter-spacing:0em;}.cls-105{letter-spacing:-0.01em;}.cls-106,.cls-126{letter-spacing:0em;}.cls-107{letter-spacing:0em;}.cls-108{letter-spacing:-0.01em;}.cls-109{letter-spacing:0em;}.cls-110{letter-spacing:-0.01em;}.cls-112{letter-spacing:0em;}.cls-113{letter-spacing:-0.01em;}.cls-114{letter-spacing:-0.01em;}.cls-115{letter-spacing:-0.01em;}.cls-116{letter-spacing:-0.02em;}.cls-117{letter-spacing:0em;}.cls-119{letter-spacing:-0.01em;}.cls-120{letter-spacing:-0.02em;}.cls-121{letter-spacing:-0.03em;}.cls-122{letter-spacing:-0.01em;}.cls-123{letter-spacing:-0.01em;}.cls-124{letter-spacing:0em;}.cls-125{letter-spacing:-0.08em;}.cls-127{letter-spacing:-0.03em;}.cls-128{letter-spacing:-0.03em;}.cls-129{letter-spacing:-0.04em;}.cls-130{letter-spacing:0em;}.cls-131{letter-spacing:-0.01em;}.cls-132{letter-spacing:-0.02em;}.cls-133{letter-spacing:0em;}.cls-134{letter-spacing:-0.01em;}.cls-135{letter-spacing:-0.01em;}.cls-136{letter-spacing:-0.02em;}.cls-137{letter-spacing:0em;}.cls-138{letter-spacing:0em;}.cls-139{letter-spacing:0em;}.cls-140{letter-spacing:-0.01em;}.cls-141{letter-spacing:-0.01em;}.cls-143{letter-spacing:-0.02em;}.cls-144{letter-spacing:-0.01em;}.cls-145{letter-spacing:0em;}.cls-146{letter-spacing:0em;}.cls-147{letter-spacing:0em;}.cls-148{letter-spacing:0.03em;}.cls-149{letter-spacing:-0.01em;}.cls-150{letter-spacing:0em;}.cls-152{letter-spacing:0em;}.cls-153{letter-spacing:-0.01em;}.cls-154{letter-spacing:0em;}.cls-155{letter-spacing:-0.02em;}.cls-157{stroke:#2a86ca;stroke-miterlimit:10;}</style><clipPath id="clip-path"><rect class="cls-1" x="156.97" y="2.12" width="343.16" height="258.48"/></clipPath><clipPath id="clip-path-2"><rect class="cls-1" x="2.12" y="2.54" width="499.48" height="258.48"/></clipPath><clipPath id="clip-path-3"><rect class="cls-1" x="2.12" y="2.54" width="677.97" height="258.48"/></clipPath><clipPath id="clip-path-5"><polygon class="cls-2" points="680.1 66.8 680.1 260.53 2.12 260.68 680.1 66.8"/></clipPath><clipPath id="clip-path-7"><polygon class="cls-2" points="680.15 195.94 680.15 260.65 2.28 260.65 680.15 195.94"/></clipPath><clipPath id="clip-path-9"><polygon class="cls-2" points="171.61 2.12 680.13 195.98 680.13 260.75 2.15 260.75 171.61 2.12"/></clipPath><clipPath id="clip-path-11"><rect class="cls-1" x="563.45" y="2.12" width="343.16" height="258.48"/></clipPath><clipPath id="clip-path-12"><rect class="cls-1" x="408.6" y="2.54" width="499.48" height="258.48"/></clipPath><clipPath id="clip-path-13"><rect class="cls-1" x="408.6" y="2.54" width="677.97" height="258.48"/></clipPath><clipPath id="clip-path-15"><polygon class="cls-2" points="1086.58 66.8 1086.58 260.53 408.6 260.68 1086.58 66.8"/></clipPath><clipPath id="clip-path-17"><polygon class="cls-2" points="1086.63 195.94 1086.63 260.65 408.76 260.65 1086.63 195.94"/></clipPath><clipPath id="clip-path-19"><polygon class="cls-2" points="578.09 2.12 1086.61 195.98 1086.61 260.75 408.63 260.75 578.09 2.12"/></clipPath></defs><title>Recurso 3</title><g id="Capa_2" data-name="Capa 2"><g id="Capa_1-2" data-name="Capa 1"><g class="cls-3"><g class="cls-4"><g class="cls-5"><g class="cls-6"><g class="cls-6"><rect class="cls-7" x="0.04" y="0.01" width="682.21" height="262.71"/></g><g class="cls-8"><g class="cls-6"><rect class="cls-9" y="64.68" width="682.22" height="198.12"/></g></g><g class="cls-10"><g class="cls-6"><rect class="cls-9" x="0.17" y="193.82" width="682.11" height="68.94"/></g></g><g class="cls-11"><g class="cls-6"><rect class="cls-9" x="0.04" width="682.21" height="262.87"/></g></g></g></g></g></g><g class="cls-12"><g class="cls-13"><g class="cls-5"><g class="cls-14"><g class="cls-14"><rect class="cls-7" x="406.52" y="0.01" width="682.21" height="262.71"/></g><g class="cls-15"><g class="cls-14"><rect class="cls-9" x="406.48" y="64.68" width="682.22" height="198.12"/></g></g><g class="cls-16"><g class="cls-14"><rect class="cls-9" x="406.65" y="193.82" width="682.11" height="68.94"/></g></g><g class="cls-17"><g class="cls-14"><rect class="cls-9" x="406.52" width="682.21" height="262.87"/></g></g></g></g></g></g><rect class="cls-18" x="214.76" y="185.49" width="306.64" height="186.07" transform="translate(1.07 -1.4) rotate(0.22)"/><text class="cls-19" transform="translate(585.29 81.67)"><tspan class="cls-20">E</tspan><tspan class="cls-21" x="8.91" y="0">n</tspan><tspan class="cls-22" x="17.53" y="0">t</tspan><tspan class="cls-23" x="22.54" y="0">o</tspan><tspan class="cls-24" x="31.16" y="0">r</tspan><tspan class="cls-25" x="37.02" y="0">n</tspan><tspan x="45.72" y="0">o </tspan><tspan class="cls-26" x="57.76" y="0">c</tspan><tspan class="cls-27" x="65.52" y="0">o</tspan><tspan class="cls-28" x="74.1" y="0">l</tspan><tspan class="cls-29" x="77.57" y="0">a</tspan><tspan class="cls-30" x="85.75" y="0">b</tspan><tspan class="cls-23" x="94.65" y="0">o</tspan><tspan class="cls-31" x="103.27" y="0">r</tspan><tspan class="cls-32" x="109.12" y="0">a</tspan><tspan class="cls-33" x="117.2" y="0">t</tspan><tspan class="cls-32" x="122.46" y="0">i</tspan><tspan class="cls-34" x="125.93" y="0">v</tspan><tspan x="133.23" y="0">o </tspan><tspan class="cls-35" x="145.27" y="0">q</tspan><tspan class="cls-36" x="154.13" y="0">u</tspan><tspan x="162.81" y="0">e </tspan><tspan class="cls-37" x="174.39" y="0">p</tspan><tspan class="cls-23" x="183.3" y="0">e</tspan><tspan class="cls-24" x="191.45" y="0">r</tspan><tspan class="cls-38" x="197.32" y="0">m</tspan><tspan class="cls-21" x="210.93" y="0">i</tspan><tspan class="cls-39" x="214.44" y="0">t</tspan><tspan x="219.46" y="0">e </tspan><tspan class="cls-40" x="0" y="22">i</tspan><tspan class="cls-41" x="3.48" y="22">n</tspan><tspan class="cls-39" x="12.1" y="22">t</tspan><tspan class="cls-23" x="17.12" y="22">e</tspan><tspan class="cls-42" x="25.27" y="22">r</tspan><tspan class="cls-25" x="31.13" y="22">a</tspan><tspan class="cls-43" x="39.32" y="22">c</tspan><tspan class="cls-44" x="47.08" y="22">c</tspan><tspan class="cls-45" x="54.81" y="22">i</tspan><tspan class="cls-23" x="58.29" y="22">รณ</tspan><tspan x="66.91" y="22">n </tspan><tspan class="cls-46" x="79.01" y="22">o</tspan><tspan class="cls-47" x="87.42" y="22">n</tspan><tspan class="cls-48" x="95.84" y="22">l</tspan><tspan class="cls-49" x="99.23" y="22">i</tspan><tspan class="cls-50" x="102.68" y="22">n</tspan><tspan class="cls-51" x="111.16" y="22">e</tspan><tspan x="119.2" y="22"> </tspan><tspan class="cls-26" x="122.59" y="22">c</tspan><tspan class="cls-23" x="130.34" y="22">o</tspan><tspan x="138.96" y="22">n </tspan><tspan class="cls-52" x="151.06" y="22">l</tspan><tspan class="cls-53" x="154.59" y="22">o</tspan><tspan x="163.08" y="22">s </tspan><tspan class="cls-54" x="174.06" y="22">p</tspan><tspan class="cls-55" x="182.93" y="22">r</tspan><tspan class="cls-56" x="188.55" y="22">ov</tspan><tspan class="cls-57" x="204.19" y="22">e</tspan><tspan class="cls-58" x="212.36" y="22">e</tspan><tspan class="cls-23" x="220.53" y="22">do</tspan><tspan class="cls-59" x="238" y="22">r</tspan><tspan class="cls-60" x="243.62" y="22">e</tspan><tspan class="cls-21" x="251.83" y="22">s</tspan><tspan x="259.33" y="22">.</tspan></text><text class="cls-61" transform="translate(585.29 47.58)"><tspan class="cls-62">A</tspan><tspan class="cls-63" x="12.21" y="0">d</tspan><tspan class="cls-64" x="23.2" y="0">q</tspan><tspan class="cls-65" x="34.15" y="0">u</tspan><tspan class="cls-66" x="44.86" y="0">i</tspan><tspan class="cls-67" x="49.59" y="0">r</tspan><tspan x="57.06" y="0">a </tspan></text><text class="cls-61" transform="translate(181.04 46.66)"><tspan class="cls-68">G</tspan><tspan class="cls-69" x="13.3" y="0">l</tspan><tspan class="cls-70" x="18.07" y="0">o</tspan><tspan class="cls-71" x="28.74" y="0">b</tspan><tspan class="cls-72" x="39.66" y="0">a</tspan><tspan x="49.72" y="0">l </tspan><tspan class="cls-73" x="59.13" y="0">P</tspan><tspan class="cls-74" x="70.87" y="0">r</tspan><tspan class="cls-75" x="78.13" y="0">o</tspan><tspan class="cls-76" x="88.82" y="0">c</tspan><tspan class="cls-77" x="98.52" y="0">u</tspan><tspan class="cls-65" x="109.29" y="0">r</tspan><tspan class="cls-78" x="116.54" y="0">e</tspan><tspan class="cls-79" x="126.67" y="0">m</tspan><tspan class="cls-80" x="143.29" y="0">e</tspan><tspan class="cls-81" x="153.42" y="0">n</tspan><tspan x="164.19" y="0">t </tspan><tspan class="cls-82" x="0" y="22">S</tspan><tspan class="cls-83" x="11.43" y="22">y</tspan><tspan class="cls-84" x="21.04" y="22">s</tspan><tspan class="cls-85" x="30.41" y="22">t</tspan><tspan class="cls-80" x="37.32" y="22">e</tspan><tspan x="47.45" y="22">m </tspan><tspan class="cls-86" x="68.6" y="22">(</tspan><tspan class="cls-87" x="74.84" y="22">G</tspan><tspan class="cls-88" x="88.13" y="22">P</tspan><tspan class="cls-89" x="99.89" y="22">S</tspan><tspan x="111.52" y="22">)</tspan></text><text class="cls-90" transform="translate(238.27 229.31) rotate(0.22)"><tspan class="cls-91">H</tspan><tspan class="cls-92" x="11.51" y="0">e</tspan><tspan class="cls-93" x="20.17" y="0">r</tspan><tspan class="cls-94" x="26.44" y="0">r</tspan><tspan class="cls-92" x="32.84" y="0">a</tspan><tspan class="cls-95" x="41.49" y="0">m</tspan><tspan class="cls-96" x="55.43" y="0">i</tspan><tspan class="cls-97" x="59.72" y="0">e</tspan><tspan class="cls-98" x="68.37" y="0">n</tspan><tspan class="cls-99" x="77.57" y="0">t</tspan><tspan class="cls-92" x="83.95" y="0">a </tspan><tspan class="cls-100" x="96.64" y="0">d</tspan><tspan class="cls-92" x="105.96" y="0">e </tspan><tspan class="cls-101" x="118.65" y="0">A</tspan><tspan class="cls-102" x="129.27" y="0">p</tspan><tspan class="cls-97" x="138.65" y="0">r</tspan><tspan class="cls-103" x="144.99" y="0">o</tspan><tspan class="cls-104" x="153.88" y="0">v</tspan><tspan class="cls-105" x="161.94" y="0">i</tspan><tspan class="cls-106" x="166.22" y="0">s</tspan><tspan class="cls-96" x="174.17" y="0">i</tspan><tspan class="cls-91" x="178.46" y="0">o</tspan><tspan class="cls-107" x="187.57" y="0">n</tspan><tspan class="cls-92" x="196.85" y="0">a</tspan><tspan class="cls-95" x="205.5" y="0">m</tspan><tspan class="cls-108" x="219.44" y="0">i</tspan><tspan class="cls-109" x="223.73" y="0">e</tspan><tspan class="cls-98" x="232.38" y="0">n</tspan><tspan class="cls-110" x="241.58" y="0">t</tspan><tspan class="cls-92" x="247.84" y="0">o</tspan><tspan class="cls-111" x="256.98" y="0"> </tspan><tspan class="cls-111"><tspan class="cls-37" x="0" y="22">p</tspan><tspan class="cls-23" x="8.91" y="22">o</tspan><tspan x="17.52" y="22">r </tspan><tspan class="cls-112" x="26.82" y="22">c</tspan><tspan class="cls-113" x="34.78" y="22">a</tspan><tspan class="cls-24" x="42.85" y="22">t</tspan><tspan class="cls-114" x="48.27" y="22">รกl</tspan><tspan class="cls-115" x="59.92" y="22">o</tspan><tspan class="cls-116" x="68.49" y="22">g</tspan><tspan x="76.73" y="22">o </tspan><tspan class="cls-117" x="88.77" y="22">e</tspan><tspan class="cls-118" x="96.9" y="22">l</tspan><tspan class="cls-57" x="100.42" y="22">e</tspan><tspan class="cls-24" x="108.6" y="22">c</tspan><tspan class="cls-119" x="116.52" y="22">t</tspan><tspan class="cls-120" x="121.82" y="22">r</tspan><tspan class="cls-23" x="127.43" y="22">รณ</tspan><tspan class="cls-115" x="136.05" y="22">n</tspan><tspan class="cls-40" x="144.68" y="22">i</tspan><tspan class="cls-26" x="148.16" y="22">c</tspan><tspan x="155.91" y="22">o </tspan><tspan class="cls-121" x="167.96" y="22">-</tspan><tspan class="cls-122" x="172.83" y="22">S</tspan><tspan class="cls-123" x="182.36" y="22">R</tspan><tspan class="cls-124" x="192.24" y="22">M</tspan><tspan x="205.37" y="22">- </tspan><tspan class="cls-125" x="0" y="44">(</tspan><tspan class="cls-23" x="4.77" y="44">de</tspan><tspan class="cls-41" x="21.78" y="44">n</tspan><tspan class="cls-119" x="30.39" y="44">t</tspan><tspan class="cls-120" x="35.69" y="44">r</tspan><tspan x="41.31" y="44">o </tspan><tspan class="cls-23" x="53.35" y="44">d</tspan><tspan x="62.21" y="44">e </tspan><tspan class="cls-126" x="73.79" y="44">GP</tspan><tspan class="cls-127" x="94.14" y="44">S</tspan><tspan class="cls-128" x="103.45" y="44">)</tspan><tspan x="108.88" y="44">.</tspan><tspan class="cls-129" x="0" y="88">A</tspan><tspan class="cls-58" x="9.41" y="88">y</tspan><tspan class="cls-130" x="17.29" y="88">u</tspan><tspan class="cls-118" x="25.99" y="88">d</tspan><tspan x="34.81" y="88">a a </tspan><tspan class="cls-59" x="58.01" y="88">r</tspan><tspan class="cls-58" x="63.63" y="88">e</tspan><tspan class="cls-114" x="71.79" y="88">a</tspan><tspan class="cls-131" x="79.92" y="88">l</tspan><tspan class="cls-132" x="83.36" y="88">i</tspan><tspan class="cls-31" x="86.73" y="88">z</tspan><tspan class="cls-133" x="94.27" y="88">a</tspan><tspan x="102.44" y="88">r </tspan><tspan class="cls-134" x="111.74" y="88">s</tspan><tspan class="cls-27" x="119.24" y="88">o</tspan><tspan class="cls-135" x="127.83" y="88">l</tspan><tspan class="cls-40" x="131.26" y="88">i</tspan><tspan class="cls-136" x="134.75" y="88">c</tspan><tspan class="cls-21" x="142.48" y="88">i</tspan><tspan class="cls-119" x="145.98" y="88">t</tspan><tspan class="cls-137" x="151.28" y="88">u</tspan><tspan class="cls-23" x="159.98" y="88">d</tspan><tspan class="cls-60" x="168.84" y="88">e</tspan><tspan x="177.05" y="88">s </tspan><tspan class="cls-23" x="188.03" y="88">d</tspan><tspan x="196.88" y="88">e </tspan><tspan class="cls-138" x="208.46" y="88">m</tspan><tspan class="cls-133" x="222.11" y="88">a</tspan><tspan class="cls-139" x="230.28" y="88">n</tspan><tspan class="cls-23" x="238.98" y="88">e</tspan><tspan class="cls-42" x="247.14" y="88">r</tspan><tspan x="252.99" y="88">a </tspan><tspan class="cls-23" x="0" y="110">d</tspan><tspan class="cls-60" x="8.86" y="110">e</tspan><tspan class="cls-134" x="17.07" y="110">s</tspan><tspan class="cls-122" x="24.57" y="110">c</tspan><tspan class="cls-23" x="32.33" y="110">e</tspan><tspan class="cls-21" x="40.48" y="110">n</tspan><tspan class="cls-140" x="49.09" y="110">t</tspan><tspan class="cls-42" x="54.4" y="110">r</tspan><tspan class="cls-114" x="60.25" y="110">a</tspan><tspan class="cls-135" x="68.38" y="110">l</tspan><tspan class="cls-132" x="71.82" y="110">i</tspan><tspan class="cls-42" x="75.19" y="110">z</tspan><tspan x="82.72" y="110">a</tspan><tspan class="cls-118" x="90.93" y="110">da</tspan><tspan x="107.88" y="110">.</tspan></tspan></text><text class="cls-19" transform="translate(182.58 107.06)"><tspan class="cls-141">P</tspan><tspan class="cls-28" x="9.48" y="0">la</tspan><tspan class="cls-24" x="21.02" y="0">t</tspan><tspan class="cls-142" x="26.43" y="0">a</tspan><tspan class="cls-143" x="34.48" y="0">f</tspan><tspan class="cls-23" x="39.11" y="0">o</tspan><tspan class="cls-24" x="47.73" y="0">rm</tspan><tspan x="67.24" y="0">a </tspan><tspan class="cls-144" x="78.83" y="0">g</tspan><tspan class="cls-52" x="87.22" y="0">l</tspan><tspan class="cls-23" x="90.74" y="0">o</tspan><tspan class="cls-41" x="99.36" y="0">b</tspan><tspan class="cls-114" x="108.16" y="0">a</tspan><tspan x="116.28" y="0">l </tspan><tspan class="cls-145" x="123.27" y="0">q</tspan><tspan class="cls-146" x="132.13" y="0">u</tspan><tspan x="140.81" y="0">e </tspan><tspan class="cls-52" x="152.39" y="0">d</tspan><tspan x="161.22" y="0">a </tspan><tspan class="cls-134" x="172.81" y="0">s</tspan><tspan class="cls-23" x="180.31" y="0">o</tspan><tspan class="cls-30" x="188.93" y="0">p</tspan><tspan class="cls-147" x="197.83" y="0">o</tspan><tspan class="cls-148" x="206.45" y="0">r</tspan><tspan class="cls-39" x="212.73" y="0">t</tspan><tspan x="217.76" y="0">e a </tspan><tspan class="cls-22" x="0" y="22">t</tspan><tspan class="cls-30" x="5.01" y="22">o</tspan><tspan class="cls-118" x="13.68" y="22">d</tspan><tspan class="cls-40" x="22.5" y="22">a</tspan><tspan x="30.59" y="22">s </tspan><tspan class="cls-149" x="41.57" y="22">l</tspan><tspan class="cls-45" x="45.03" y="22">a</tspan><tspan x="53.12" y="22">s </tspan><tspan class="cls-115" x="64.1" y="22">f</tspan><tspan class="cls-40" x="68.97" y="22">a</tspan><tspan class="cls-134" x="77.06" y="22">s</tspan><tspan class="cls-60" x="84.55" y="22">e</tspan><tspan x="92.77" y="22">s </tspan><tspan class="cls-23" x="103.75" y="22">d</tspan><tspan x="112.6" y="22">e </tspan><tspan class="cls-28" x="124.18" y="22">l</tspan><tspan x="127.65" y="22">a </tspan><tspan class="cls-112" x="139.24" y="22">c</tspan><tspan x="147.2" y="22">a</tspan><tspan class="cls-23" x="155.41" y="22">de</tspan><tspan class="cls-150" x="172.42" y="22">n</tspan><tspan x="181.07" y="22">a </tspan><tspan class="cls-23" x="192.67" y="22">d</tspan><tspan x="201.53" y="22">e </tspan><tspan class="cls-151" x="0" y="44">s</tspan><tspan class="cls-152" x="7.47" y="44">u</tspan><tspan class="cls-38" x="16.13" y="44">m</tspan><tspan class="cls-40" x="29.75" y="44">i</tspan><tspan class="cls-115" x="33.23" y="44">n</tspan><tspan class="cls-153" x="41.86" y="44">i</tspan><tspan class="cls-154" x="45.3" y="44">s</tspan><tspan class="cls-119" x="52.89" y="44">t</tspan><tspan class="cls-120" x="58.19" y="44">r</tspan><tspan class="cls-155" x="63.81" y="44">o</tspan><tspan x="72.13" y="44">.</tspan></text><g id="Pantallas"><g id="_01A-Home" data-name="01A-Home"><g id="Imported-Layers-Copy"><path id="Fill-1" class="cls-156" d="M878.64,184.34c-5.54-5.4-11.81-8.49-18.87-11l-.6-.16a53.48,53.48,0,0,1,7.08-.85c.95,0,1.08-.32,1.06-.51s-.4-.44-1.27-.58a29,29,0,0,0-11.84.77l-.1,0a14.82,14.82,0,0,1,1.47,2q-1.37.36-2.73.78l.13.17a26.31,26.31,0,0,1,3.5,5.92c.25.59.47.56.67.44s.41-.52.39-1.17a12.09,12.09,0,0,0-1.05-4.44c.87.2,1.78.43,2.72.69a74.15,74.15,0,0,1,19.19,8.46c.61.37.79.31.85.23s-.13-.29-.59-.74"/><path id="Fill-2" class="cls-156" d="M854.09,172,854,172a16.61,16.61,0,0,0-6.57-4.47,5.73,5.73,0,0,0-1.08-.18.9.9,0,0,0-.9.24c-.22.25-.21.39.09.66a31.73,31.73,0,0,1,3.83,2.94l-.57-.06c-12.21-1.08-21.18.15-28.8,2.91l-.91.36c-.36.15-.46.24-.39.39s.22.17.68.13c14-2.32,22.27-1.69,28.69-.71h0a31.93,31.93,0,0,0-6.06,3.61,13.39,13.39,0,0,0-1,.94c-.39.39-.49.59-.34.86s.37.26.94.05a58.3,58.3,0,0,1,10.9-4.78l.28-.09q-.76-1-1.6-1.86c.94-.33,1.9-.63,2.86-.89"/><path id="Fill-3" class="cls-156" d="M805,196.07v-7.33c0-2.8-1.86-3.71-4-3.71a7.52,7.52,0,0,0-3.49.85L798,187a6.36,6.36,0,0,1,2.75-.72c1.46,0,2.52.51,2.52,2.27v.7c-3.54.36-6.37,1.25-6.37,4.28,0,2.08,1.38,3.37,4.34,3.37a8,8,0,0,0,3.79-.8m-1.76-.66a4.16,4.16,0,0,1-1.89.38c-1.69,0-2.71-.68-2.71-2.33,0-2.31,1.72-2.92,4.6-3.28v5.23"/><path id="Fill-4" class="cls-156" d="M816.17,196.07V180h-1.84v5.36a6.46,6.46,0,0,0-1.8-.25c-2.94,0-5,2.2-5,6,0,3.45,1.76,5.74,5,5.74a7,7,0,0,0,3.58-.8m-1.84-.74a3.08,3.08,0,0,1-1.65.32c-2.33,0-3.26-2-3.26-4.66,0-2.48.85-4.77,3.49-4.77a5.36,5.36,0,0,1,1.42.21v8.89"/><path id="Fill-5" class="cls-156" d="M827.33,201.21V185.84a6.39,6.39,0,0,0-3.41-.81c-3.54,0-5.19,2.6-5.19,6.14s1.74,5.65,4.47,5.65a4.65,4.65,0,0,0,2.31-.53v4.91h1.82m-1.82-6a3.71,3.71,0,0,1-1.82.47c-2.16,0-3.11-1.69-3.11-4.59s1-4.93,3.3-4.93a3.4,3.4,0,0,1,1.63.32v8.75"/><path id="Fill-6" class="cls-156" d="M834.39,196.89c-2.86,0-4-1.44-4-3.73v-7.92h1.86v8a2.13,2.13,0,0,0,2.29,2.35,3.85,3.85,0,0,0,2.05-.47v-9.87h1.86V196a8.09,8.09,0,0,1-4,.91"/><path id="Fill-7" class="cls-156" d="M841.54,185.25h1.86v11.41h-1.86Z"/><path id="Fill-8" class="cls-156" d="M851,186.48a3.36,3.36,0,0,0-2.6.21v10h-1.86v-10.8c1.12-.57,2.2-.87,4.91-.8l-.44,1.42"/><path id="Fill-9" class="cls-156" d="M860.53,196.07v-7.33c0-2.8-1.86-3.71-4-3.71a7.54,7.54,0,0,0-3.49.85l.44,1.1a6.37,6.37,0,0,1,2.75-.72c1.46,0,2.52.51,2.52,2.27v.7c-3.54.36-6.37,1.25-6.37,4.28,0,2.08,1.38,3.37,4.34,3.37a8,8,0,0,0,3.79-.8m-1.76-.66a4.16,4.16,0,0,1-1.88.38c-1.69,0-2.71-.68-2.71-2.33,0-2.31,1.72-2.92,4.6-3.28v5.23"/></g></g></g><line class="cls-157" x1="533.67" y1="53" x2="533.67" y2="397.87"/><line class="cls-157" x1="506.47" y1="48.16" x2="527.31" y2="48.16"/><line class="cls-157" x1="538.98" y1="48.16" x2="559.81" y2="48.16"/></g></g></svg>