<?xml version="1.0" encoding="UTF-8" standalone="no"?>
<svg width="437px" height="326px" viewBox="0 0 437 326" version="1.1" xmlns="http://www.w3.org/2000/svg" xmlns:xlink="http://www.w3.org/1999/xlink">
    <!-- Generator: Sketch 41.2 (35397) - http://www.bohemiancoding.com/sketch -->
    <title>Group</title>
    <desc>Created with Sketch.</desc>
    <defs></defs>
    <g id="Page-1" stroke="none" stroke-width="1" fill="none" fill-rule="evenodd">
        <g id="Group">
            <g id="Page-1">
                <g id="Group-7" transform="translate(0.000000, 0.639000)" fill="#FFFFFF">
                    <path d="M429.9091,161.0238 C429.9091,249.8548 357.8981,321.8658 269.0671,321.8658 C180.2371,321.8658 108.2261,249.8548 108.2261,161.0238 C108.2261,72.1928 180.2371,0.1818 269.0671,0.1818 C357.8981,0.1818 429.9091,72.1928 429.9091,161.0238 Z" id="Fill-2"></path>
                    <polygon id="Fill-4" points="0.477 219.966 151.329 219.966 151.329 191.994 0.477 191.994"></polygon>
                    <polygon id="Fill-6" points="0.477 269.917 151.329 269.917 151.329 237.948 0.477 237.948"></polygon>
                </g>
                <path d="M9.9784868,209.981131 C12.028469,209.981131 13.0115014,208.974122 13.0115014,207.571503 C13.0115014,206.288765 12.1243746,205.605438 11.0454366,205.413627 L11.0454366,205.38965 C11.9445516,205.185851 12.7237846,204.5265 12.7237846,203.339668 C12.7237846,201.937049 11.7167758,201.109863 9.7147464,201.109863 L6.633779,201.109863 L6.633779,209.981131 L9.9784868,209.981131 Z M7.472953,201.877108 L9.6667936,201.877108 C11.2012832,201.877108 11.8846106,202.368624 11.8846106,203.447562 C11.8846106,204.538488 11.0574248,205.053981 9.6428172,205.053981 L7.472953,205.053981 L7.472953,201.877108 Z M7.472953,205.797249 L9.7027582,205.797249 C11.2252596,205.797249 12.1723274,206.348706 12.1723274,207.535538 C12.1723274,208.602488 11.489,209.225874 9.9664986,209.225874 L7.472953,209.225874 L7.472953,205.797249 Z M18.2001755,210.148966 C19.7946061,210.148966 20.8855323,209.32178 21.4130131,207.943137 L20.6817329,207.607467 C20.2381695,208.746346 19.4109837,209.381721 18.2121637,209.381721 C16.4738747,209.381721 15.3589721,207.931149 15.3589721,205.485556 C15.3589721,203.231774 16.4498983,201.721261 18.1761991,201.721261 C19.3630309,201.721261 20.0703347,202.284706 20.4899217,203.279727 L21.2212019,202.896105 C20.6817329,201.66132 19.6867123,200.942028 18.1761991,200.942028 C15.9823585,200.942028 14.5078099,202.836164 14.5078099,205.509532 C14.5078099,208.314771 15.9703703,210.148966 18.2001755,210.148966 Z M28.8266971,209.981131 L28.8266971,209.201898 L24.1273227,209.201898 L24.1273227,205.677367 L27.5799243,205.677367 L27.4480541,204.910122 L24.1273227,204.910122 L24.1273227,201.901084 L28.5749449,201.901084 L28.5749449,201.109863 L23.2761605,201.109863 L23.2761605,209.981131 L28.8266971,209.981131 Z" id="BCE" fill="#084FA4"></path>
                <path d="M9.9784868,258.771075 C12.028469,258.771075 13.0115014,257.764067 13.0115014,256.361447 C13.0115014,255.07871 12.1243746,254.395382 11.0454366,254.203571 L11.0454366,254.179595 C11.9445516,253.975795 12.7237846,253.316444 12.7237846,252.129613 C12.7237846,250.726993 11.7167758,249.899807 9.7147464,249.899807 L6.633779,249.899807 L6.633779,258.771075 L9.9784868,258.771075 Z M7.472953,250.667052 L9.6667936,250.667052 C11.2012832,250.667052 11.8846106,251.158568 11.8846106,252.237506 C11.8846106,253.328433 11.0574248,253.843925 9.6428172,253.843925 L7.472953,253.843925 L7.472953,250.667052 Z M7.472953,254.587194 L9.7027582,254.587194 C11.2252596,254.587194 12.1723274,255.138651 12.1723274,256.325483 C12.1723274,257.392432 11.489,258.015819 9.9664986,258.015819 L7.472953,258.015819 L7.472953,254.587194 Z M17.9913997,258.93891 C19.5858303,258.93891 20.6767565,258.111724 21.2042373,256.733081 L20.4729571,256.397412 C20.0293937,257.536291 19.2022079,258.171665 18.0033879,258.171665 C16.2650989,258.171665 15.1501963,256.721093 15.1501963,254.2755 C15.1501963,252.021719 16.2411225,250.511206 17.9674233,250.511206 C19.1542551,250.511206 19.8615589,251.074651 20.2811459,252.069672 L21.0124261,251.686049 C20.4729571,250.451265 19.4779365,249.731973 17.9674233,249.731973 C15.7735827,249.731973 14.2990341,251.626108 14.2990341,254.299477 C14.2990341,257.104716 15.7615945,258.93891 17.9913997,258.93891 Z M28.4043502,258.771075 L28.4043502,257.991842 L23.7049758,257.991842 L23.7049758,254.467312 L27.1575774,254.467312 L27.0257072,253.700067 L23.7049758,253.700067 L23.7049758,250.691029 L28.152598,250.691029 L28.152598,249.899807 L22.8538136,249.899807 L22.8538136,258.771075 L28.4043502,258.771075 Z M32.5534662,257.87196 L32.5534662,255.186604 L35.2148466,255.186604 L35.2148466,254.467312 L32.5534662,254.467312 L32.5534662,251.781955 L31.822186,251.781955 L31.822186,254.467312 L29.1488174,254.467312 L29.1488174,255.186604 L31.822186,255.186604 L31.822186,257.87196 L32.5534662,257.87196 Z M43.1869996,258.771075 C45.2369818,258.771075 46.2200142,257.764067 46.2200142,256.361447 C46.2200142,255.07871 45.3328874,254.395382 44.2539494,254.203571 L44.2539494,254.179595 C45.1530644,253.975795 45.9322974,253.316444 45.9322974,252.129613 C45.9322974,250.726993 44.9252886,249.899807 42.9232592,249.899807 L39.8422918,249.899807 L39.8422918,258.771075 L43.1869996,258.771075 Z M40.6814658,250.667052 L42.8753064,250.667052 C44.409796,250.667052 45.0931234,251.158568 45.0931234,252.237506 C45.0931234,253.328433 44.2659376,253.843925 42.85133,253.843925 L40.6814658,253.843925 L40.6814658,250.667052 Z M40.6814658,254.587194 L42.911271,254.587194 C44.4337724,254.587194 45.3808402,255.138651 45.3808402,256.325483 C45.3808402,257.392432 44.6975128,258.015819 43.1750114,258.015819 L40.6814658,258.015819 L40.6814658,254.587194 Z M50.2480494,258.171665 C49.1930878,258.171665 48.3299374,257.356468 48.3299374,255.618179 C48.3299374,253.831937 49.1810996,253.028728 50.224073,253.028728 C50.9793296,253.028728 51.5667514,253.400362 52.2141142,254.059713 L52.2141142,257.14068 C51.5787396,257.788043 51.0272824,258.171665 50.2480494,258.171665 Z M50.104191,258.878969 C51.0512588,258.878969 51.7106098,258.411429 52.2141142,257.859972 L52.2980316,258.771075 L53.0413,258.771075 L53.0413,249.839866 L52.2141142,249.959748 L52.2141142,253.328433 C51.7345862,252.764987 50.9913178,252.333412 50.1281674,252.333412 C48.665607,252.333412 47.5027516,253.424338 47.5027516,255.630167 C47.5027516,257.835996 48.6536188,258.878969 50.104191,258.878969 Z M60.6358247,258.771075 L60.6358247,257.991842 L55.9364503,257.991842 L55.9364503,254.467312 L59.3890519,254.467312 L59.2571817,253.700067 L55.9364503,253.700067 L55.9364503,250.691029 L60.3840725,250.691029 L60.3840725,249.899807 L55.0852881,249.899807 L55.0852881,258.771075 L60.6358247,258.771075 Z" id="BCE+-BdE" fill="#084FA4"></path>
                <path d="M9.4749824,161.481853 L9.4749824,160.127186 L5.0033838,160.127186 L5.0033838,157.537735 L8.4559854,157.537735 L8.2401978,156.207045 L5.0033838,156.207045 L5.0033838,154.001216 L9.2352184,154.001216 L9.2352184,152.610585 L3.5048588,152.610585 L3.5048588,161.481853 L9.4749824,161.481853 Z M14.0726559,161.649688 C16.1825791,161.649688 17.3574227,160.510809 17.3574227,159.072225 C17.3574227,157.393877 16.0147443,156.854408 14.3363963,156.362892 C12.8858241,155.931316 12.2504495,155.6436 12.2504495,154.816414 C12.2504495,154.24098 12.8258831,153.797417 13.8328919,153.797417 C14.7679715,153.797417 15.7030511,154.288933 16.4103549,154.912319 L17.1176587,153.713499 C16.2784847,153.018184 15.1635821,152.44275 13.8089155,152.44275 C12.0346619,152.44275 10.7878891,153.437771 10.7878891,154.936296 C10.7878891,156.626632 12.1545439,157.082184 13.8688565,157.585688 C15.3314169,158.029251 15.8948623,158.388897 15.8948623,159.16813 C15.8948623,159.935375 15.1396057,160.318998 14.0247031,160.318998 C12.9337769,160.318998 11.8188743,159.707599 11.1355469,159.000296 L10.3323375,160.139175 C11.2314525,160.990337 12.4782253,161.649688 14.0726559,161.649688 Z M22.1157381,161.481853 L22.1157381,154.001216 L24.9569415,154.001216 L24.7411539,152.610585 L17.8839035,152.610585 L17.8839035,154.001216 L20.6172131,154.001216 L20.6172131,161.481853 L22.1157381,161.481853 Z M27.6305089,161.481853 L27.6305089,157.981299 L29.2009631,157.981299 L31.3468509,161.601735 L32.8094113,161.361971 L30.6994881,157.789487 C31.9222845,157.477794 32.6535647,156.746514 32.6535647,155.331906 C32.6535647,153.449759 31.4307683,152.610585 29.3328333,152.610585 L26.1559603,152.610585 L26.1559603,161.481853 L27.6305089,161.481853 Z M27.6305089,153.97724 L29.2609041,153.97724 C30.5316533,153.97724 31.1910043,154.324898 31.1910043,155.30793 C31.1910043,156.314939 30.5316533,156.674585 29.2609041,156.674585 L27.6305089,156.674585 L27.6305089,153.97724 Z M37.353138,161.6377 C39.690837,161.6377 40.7817632,160.247068 40.7817632,158.233051 L40.7817632,152.610585 L39.3072146,152.610585 L39.3072146,158.185098 C39.3072146,159.467835 38.7197928,160.271045 37.3651262,160.271045 C35.9984714,160.271045 35.4110496,159.443859 35.4110496,158.17311 L35.4110496,152.610585 L33.9125246,152.610585 L33.9125246,158.257027 C33.9125246,160.247068 35.0034508,161.6377 37.353138,161.6377 Z M46.1275004,161.649688 C47.9856714,161.649688 49.0646094,160.70262 49.5920902,159.24006 L48.2973646,158.652638 C47.9497068,159.647658 47.2304148,160.307009 46.1275004,160.307009 C44.5810226,160.307009 43.6938958,159.060237 43.6938958,157.010254 C43.6938958,155.068166 44.5330698,153.821393 46.043583,153.821393 C47.1105328,153.821393 47.7578956,154.420803 48.1055534,155.247989 L49.3763026,154.492732 C48.7649044,153.17403 47.721931,152.44275 46.043583,152.44275 C43.8617306,152.44275 42.1953708,154.10911 42.1953708,157.022243 C42.1953708,160.019293 43.8377542,161.649688 46.1275004,161.649688 Z M54.3096457,161.481853 L54.3096457,154.001216 L57.1508491,154.001216 L56.9350615,152.610585 L50.0778111,152.610585 L50.0778111,154.001216 L52.8111207,154.001216 L52.8111207,161.481853 L54.3096457,161.481853 Z M61.7305403,161.6377 C64.0682393,161.6377 65.1591655,160.247068 65.1591655,158.233051 L65.1591655,152.610585 L63.6846169,152.610585 L63.6846169,158.185098 C63.6846169,159.467835 63.0971951,160.271045 61.7425285,160.271045 C60.3758737,160.271045 59.7884519,159.443859 59.7884519,158.17311 L59.7884519,152.610585 L58.2899269,152.610585 L58.2899269,158.257027 C58.2899269,160.247068 59.3808531,161.6377 61.7305403,161.6377 Z M68.5208556,161.481853 L68.5208556,157.981299 L70.0913098,157.981299 L72.2371976,161.601735 L73.699758,161.361971 L71.5898348,157.789487 C72.8126312,157.477794 73.5439114,156.746514 73.5439114,155.331906 C73.5439114,153.449759 72.321115,152.610585 70.22318,152.610585 L67.046307,152.610585 L67.046307,161.481853 L68.5208556,161.481853 Z M68.5208556,153.97724 L70.1512508,153.97724 C71.422,153.97724 72.081351,154.324898 72.081351,155.30793 C72.081351,156.314939 71.422,156.674585 70.1512508,156.674585 L68.5208556,156.674585 L68.5208556,153.97724 Z M76.0196735,161.481853 L76.7629419,159.37193 L80.1316261,159.37193 L80.8868827,161.601735 L82.3374549,161.361971 L79.2325111,152.57462 L77.7699507,152.57462 L74.6290423,161.481853 L76.0196735,161.481853 Z M78.4532781,154.456768 L78.4772545,154.456768 L79.7000509,158.053228 L77.2065053,158.053228 L78.4532781,154.456768 Z M86.5634942,161.649688 C88.6734174,161.649688 89.848261,160.510809 89.848261,159.072225 C89.848261,157.393877 88.5055826,156.854408 86.8272346,156.362892 C85.3766624,155.931316 84.7412878,155.6436 84.7412878,154.816414 C84.7412878,154.24098 85.3167214,153.797417 86.3237302,153.797417 C87.2588098,153.797417 88.1938894,154.288933 88.9011932,154.912319 L89.608497,153.713499 C88.769323,153.018184 87.6544204,152.44275 86.2997538,152.44275 C84.5255002,152.44275 83.2787274,153.437771 83.2787274,154.936296 C83.2787274,156.626632 84.6453822,157.082184 86.3596948,157.585688 C87.8222552,158.029251 88.3857006,158.388897 88.3857006,159.16813 C88.3857006,159.935375 87.630444,160.318998 86.5155414,160.318998 C85.4246152,160.318998 84.3097126,159.707599 83.6263852,159.000296 L82.8231758,160.139175 C83.7222908,160.990337 84.9690636,161.649688 86.5634942,161.649688 Z" id="ESTRUCTURAS-" fill="#084FA4"></path>
                <path d="M5.0992894,177.462124 L5.0992894,168.590856 L3.6127526,168.590856 L3.6127526,177.462124 L5.0992894,177.462124 Z M8.5888438,177.462124 L8.5888438,171.000484 L8.6128202,171.000484 L12.976525,177.462124 L14.3431798,177.462124 L14.3431798,168.590856 L12.9525486,168.590856 L12.9525486,174.932613 L12.9285722,174.932613 L8.7327022,168.590856 L7.2102008,168.590856 L7.2102008,177.462124 L8.5888438,177.462124 Z M19.9378621,177.462124 L19.9378621,169.981487 L22.7790655,169.981487 L22.5632779,168.590856 L15.7060275,168.590856 L15.7060275,169.981487 L18.4393371,169.981487 L18.4393371,177.462124 L19.9378621,177.462124 Z M30.0580899,177.462124 L30.0580899,176.107457 L25.5864913,176.107457 L25.5864913,173.518006 L29.0390929,173.518006 L28.8233053,172.187316 L25.5864913,172.187316 L25.5864913,169.981487 L29.8183259,169.981487 L29.8183259,168.590856 L24.0879663,168.590856 L24.0879663,177.462124 L30.0580899,177.462124 Z M32.9961871,177.462124 L32.9961871,173.961569 L34.5666413,173.961569 L36.7125291,177.582006 L38.1750895,177.342242 L36.0651663,173.769758 C37.2879627,173.458065 38.0192429,172.726785 38.0192429,171.312177 C38.0192429,169.43003 36.7964465,168.590856 34.6985115,168.590856 L31.5216385,168.590856 L31.5216385,177.462124 L32.9961871,177.462124 Z M32.9961871,169.95751 L34.6265823,169.95751 C35.8973315,169.95751 36.5566825,170.305168 36.5566825,171.288201 C36.5566825,172.295209 35.8973315,172.654855 34.6265823,172.654855 L32.9961871,172.654855 L32.9961871,169.95751 Z M41.1491513,177.462124 L41.1491513,170.772708 L41.1731277,170.772708 C41.3649389,171.635858 41.4968091,172.007493 41.7006085,172.642867 L43.4269093,177.462124 L44.7575995,177.462124 L46.4958885,172.642867 C46.6876997,172.019481 46.8795109,171.456035 47.0113811,170.832649 L47.0353575,170.832649 L47.0353575,177.462124 L48.4859297,177.462124 L48.4859297,168.590856 L46.4839003,168.590856 L44.1701777,175.627929 L44.1462013,175.627929 L41.7605495,168.590856 L39.7944847,168.590856 L39.7944847,177.462124 L41.1491513,177.462124 Z M56.5405907,177.462124 L56.5405907,176.107457 L52.0689921,176.107457 L52.0689921,173.518006 L55.5215937,173.518006 L55.3058061,172.187316 L52.0689921,172.187316 L52.0689921,169.981487 L56.3008267,169.981487 L56.3008267,168.590856 L50.5704671,168.590856 L50.5704671,177.462124 L56.5405907,177.462124 Z M60.5216613,177.462124 C63.2669591,177.462124 65.1371183,176.15541 65.1371183,172.990525 C65.1371183,169.885581 63.3029237,168.590856 60.5216613,168.590856 L58.0041393,168.590856 L58.0041393,177.462124 L60.5216613,177.462124 Z M59.4906761,169.981487 L60.6295551,169.981487 C62.6915255,169.981487 63.6385933,170.940543 63.6385933,173.014501 C63.6385933,175.172377 62.7035137,176.107457 60.6535315,176.107457 L59.4906761,176.107457 L59.4906761,169.981487 Z M68.3617335,177.462124 L68.3617335,168.590856 L66.8751967,168.590856 L66.8751967,177.462124 L68.3617335,177.462124 Z M71.1391888,177.462124 L71.8824572,175.3522 L75.2511414,175.3522 L76.006398,177.582006 L77.4569702,177.342242 L74.3520264,168.554891 L72.889466,168.554891 L69.7485576,177.462124 L71.1391888,177.462124 Z M73.5727934,170.437038 L73.5967698,170.437038 L74.8195662,174.033498 L72.3260206,174.033498 L73.5727934,170.437038 Z M81.7928915,177.629958 C83.9028147,177.629958 85.0776583,176.491079 85.0776583,175.052495 C85.0776583,173.374147 83.7349799,172.834678 82.0566319,172.343162 C80.6060597,171.911587 79.9706851,171.62387 79.9706851,170.796684 C79.9706851,170.221251 80.5461187,169.777687 81.5531275,169.777687 C82.4882071,169.777687 83.4232867,170.269204 84.1305905,170.89259 L84.8378943,169.69377 C83.9987203,168.998454 82.8838177,168.423021 81.5291511,168.423021 C79.7548975,168.423021 78.5081247,169.418041 78.5081247,170.916566 C78.5081247,172.606903 79.8747795,173.062454 81.5890921,173.565959 C83.0516525,174.009522 83.6150979,174.369168 83.6150979,175.148401 C83.6150979,175.915646 82.8598413,176.299268 81.7449387,176.299268 C80.6540125,176.299268 79.5391099,175.68787 78.8557825,174.980566 L78.0525731,176.119445 C78.9516881,176.970607 80.1984609,177.629958 81.7928915,177.629958 Z" id="INTERMEDIAS" fill="#084FA4"></path>
                <g id="Group-14" transform="translate(101.000000, 71.639000)">
                    <polygon id="Fill-8" fill="#002E65" points="0.232 253.863 335.902 253.863 335.902 210.905 0.232 210.905"></polygon>
                    <polygon id="Fill-10" fill="#004283" points="29.204 204.911 306.931 204.911 306.931 161.953 29.204 161.953"></polygon>
                    <polygon id="Fill-11" fill="#0064A8" points="51.182 155.959 284.952 155.959 284.952 113.001 51.182 113.001"></polygon>
                    <polygon id="Fill-12" fill="#00A6A6" points="72.162 107.007 263.973 107.007 263.973 64.049 72.162 64.049"></polygon>
                    <polygon id="Fill-13" fill="#00CCCD" points="88.146 58.056 247.989 58.056 247.989 0.113 88.146 0.113"></polygon>
                </g>
                <path d="M195.860645,309.200104 L195.860645,307.506765 L190.271128,307.506765 L190.271128,304.26994 L194.586894,304.26994 L194.317159,302.606572 L190.271128,302.606572 L190.271128,299.849276 L195.560939,299.849276 L195.560939,298.110982 L188.397965,298.110982 L188.397965,309.200104 L195.860645,309.200104 Z M205.305867,312.092266 L205.590588,310.503825 L204.69147,310.503825 C203.477661,310.503825 202.533587,310.338986 202.323793,309.319986 C204.646514,308.975324 206.459736,306.967294 206.459736,303.655543 C206.459736,299.924203 204.151999,297.901187 201.484616,297.901187 C198.802247,297.901187 196.479526,299.924203 196.479526,303.655543 C196.479526,306.862397 198.172865,308.885412 200.42066,309.290015 C200.465616,310.908428 201.69441,312.092266 203.92722,312.092266 L205.305867,312.092266 Z M201.484616,307.731544 C199.596468,307.731544 198.337703,306.173073 198.337703,303.655543 C198.337703,301.138012 199.596468,299.624497 201.484616,299.624497 C203.342793,299.624497 204.586573,301.138012 204.586573,303.655543 C204.586573,306.173073 203.342793,307.731544 201.484616,307.731544 Z M212.660641,309.394912 C215.582774,309.394912 216.946437,307.656618 216.946437,305.139087 L216.946437,298.110982 L215.103245,298.110982 L215.103245,305.079146 C215.103245,306.682573 214.368965,307.686588 212.675626,307.686588 C210.967302,307.686588 210.233022,306.652603 210.233022,305.064161 L210.233022,298.110982 L208.35986,298.110982 L208.35986,305.169058 C208.35986,307.656618 209.723522,309.394912 212.660641,309.394912 Z M221.373083,309.200104 L221.373083,298.110982 L219.514905,298.110982 L219.514905,309.200104 L221.373083,309.200104 Z M225.871658,309.200104 L225.871658,304.989234 L227.834732,304.989234 C230.112498,304.989234 232.150499,304.239969 232.150499,301.512645 C232.150499,298.890217 230.277336,298.110982 227.894673,298.110982 L224.013481,298.110982 L224.013481,309.200104 L225.871658,309.200104 Z M225.871658,299.819306 L227.909659,299.819306 C229.588012,299.819306 230.322292,300.388747 230.322292,301.557601 C230.322292,302.80138 229.573027,303.355837 227.924644,303.355837 L225.871658,303.355837 L225.871658,299.819306 Z M238.588172,309.409898 C241.255555,309.409898 243.578277,307.386882 243.578277,303.655543 C243.578277,299.924203 241.255555,297.901187 238.588172,297.901187 C235.905803,297.901187 233.583081,299.924203 233.583081,303.655543 C233.583081,307.386882 235.905803,309.409898 238.588172,309.409898 Z M238.588172,307.731544 C236.715009,307.731544 235.456244,306.173073 235.456244,303.655543 C235.456244,301.138012 236.715009,299.624497 238.588172,299.624497 C240.461334,299.624497 241.720099,301.138012 241.720099,303.655543 C241.720099,306.173073 240.461334,307.731544 238.588172,307.731544 Z M252.635368,309.200104 C256.067002,309.200104 258.404709,307.566706 258.404709,303.610587 C258.404709,299.729394 256.111958,298.110982 252.635368,298.110982 L249.488455,298.110982 L249.488455,309.200104 L252.635368,309.200104 Z M251.346633,299.849276 L252.770236,299.849276 C255.347708,299.849276 256.531546,301.0481 256.531546,303.640557 C256.531546,306.337911 255.362693,307.506765 252.800207,307.506765 L251.346633,307.506765 L251.346633,299.849276 Z M267.950333,309.200104 L267.950333,307.506765 L262.360816,307.506765 L262.360816,304.26994 L266.676583,304.26994 L266.406847,302.606572 L262.360816,302.606572 L262.360816,299.849276 L267.650627,299.849276 L267.650627,298.110982 L260.487654,298.110982 L260.487654,309.200104 L267.950333,309.200104 Z M281.173338,309.200104 L281.173338,307.506765 L275.583822,307.506765 L275.583822,304.26994 L279.899588,304.26994 L279.629853,302.606572 L275.583822,302.606572 L275.583822,299.849276 L280.873632,299.849276 L280.873632,298.110982 L273.710659,298.110982 L273.710659,309.200104 L281.173338,309.200104 Z M284.537527,309.200104 L287.264851,304.794425 L290.082088,309.349957 L291.970235,309.050251 L288.358778,303.310881 L291.595603,298.110982 L289.632529,298.110982 L287.384734,301.857307 L285.002071,297.961129 L283.053982,298.260835 L286.260836,303.310881 L282.574452,309.200104 L284.537527,309.200104 Z M295.611651,309.200104 L295.611651,304.989234 L297.574726,304.989234 C299.852491,304.989234 301.890492,304.239969 301.890492,301.512645 C301.890492,298.890217 300.01733,298.110982 297.634667,298.110982 L293.753474,298.110982 L293.753474,309.200104 L295.611651,309.200104 Z M295.611651,299.819306 L297.649652,299.819306 C299.328006,299.819306 300.062286,300.388747 300.062286,301.557601 C300.062286,302.80138 299.313021,303.355837 297.664638,303.355837 L295.611651,303.355837 L295.611651,299.819306 Z M311.113933,309.200104 L311.113933,307.506765 L305.524416,307.506765 L305.524416,304.26994 L309.840182,304.26994 L309.570447,302.606572 L305.524416,302.606572 L305.524416,299.849276 L310.814227,299.849276 L310.814227,298.110982 L303.651253,298.110982 L303.651253,309.200104 L311.113933,309.200104 Z M314.788316,309.200104 L314.788316,304.824396 L316.751391,304.824396 L319.433759,309.349957 L321.261966,309.050251 L318.624553,304.584631 C320.153054,304.195013 321.067157,303.28091 321.067157,301.512645 C321.067157,299.159953 319.538656,298.110982 316.916229,298.110982 L312.945124,298.110982 L312.945124,309.200104 L314.788316,309.200104 Z M314.788316,299.819306 L316.826317,299.819306 C318.414759,299.819306 319.23895,300.253879 319.23895,301.482674 C319.23895,302.741439 318.414759,303.190998 316.826317,303.190998 L314.788316,303.190998 L314.788316,299.819306 Z M327.503332,309.200104 L327.503332,299.849276 L331.054848,299.849276 L330.785112,298.110982 L322.213521,298.110982 L322.213521,299.849276 L325.630169,299.849276 L325.630169,309.200104 L327.503332,309.200104 Z M336.43306,309.409898 C339.100444,309.409898 341.423165,307.386882 341.423165,303.655543 C341.423165,299.924203 339.100444,297.901187 336.43306,297.901187 C333.750691,297.901187 331.42797,299.924203 331.42797,303.655543 C331.42797,307.386882 333.750691,309.409898 336.43306,309.409898 Z M336.43306,307.731544 C334.559898,307.731544 333.301132,306.173073 333.301132,303.655543 C333.301132,301.138012 334.559898,299.624497 336.43306,299.624497 C338.306223,299.624497 339.564988,301.138012 339.564988,303.655543 C339.564988,306.173073 338.306223,307.731544 336.43306,307.731544 Z M347.111573,309.409898 C349.748986,309.409898 351.217545,307.986294 351.217545,306.188058 C351.217545,304.090116 349.539192,303.415778 347.44125,302.80138 C345.628028,302.26191 344.833808,301.902262 344.833808,300.868277 C344.833808,300.148982 345.553102,299.594526 346.811867,299.594526 C347.980721,299.594526 349.149574,300.208924 350.033707,300.988159 L350.917839,299.489629 C349.868868,298.620482 348.475235,297.901187 346.781897,297.901187 C344.564072,297.901187 343.005601,299.144967 343.005601,301.01813 C343.005601,303.131057 344.713925,303.700498 346.856823,304.329881 C348.68503,304.884337 349.389339,305.333896 349.389339,306.307941 C349.389339,307.267 348.445265,307.746529 347.051632,307.746529 C345.68797,307.746529 344.294337,306.982279 343.440175,306.098146 L342.43616,307.52175 C343.560057,308.585706 345.118528,309.409898 347.111573,309.409898 Z" id="EQUIPO-DE-EXPERTOS" fill="#FFFFFF"></path>
                <path d="M238.583735,260.018349 C240.906456,260.018349 242.255133,258.83451 242.914487,257.006304 L241.296074,256.272024 C240.8615,257.515804 239.962382,258.339995 238.583735,258.339995 C236.650631,258.339995 235.541719,256.781524 235.541719,254.219038 C235.541719,251.791419 236.59069,250.232948 238.478838,250.232948 C239.812529,250.232948 240.621736,250.982213 241.056309,252.016199 L242.644751,251.072125 C241.880501,249.423742 240.57678,248.509639 238.478838,248.509639 C235.751513,248.509639 233.668557,250.592595 233.668557,254.234023 C233.668557,257.980348 235.721543,260.018349 238.583735,260.018349 Z M249.149357,260.018349 C251.81674,260.018349 254.139462,257.995333 254.139462,254.263994 C254.139462,250.532654 251.81674,248.509639 249.149357,248.509639 C246.466988,248.509639 244.144267,250.532654 244.144267,254.263994 C244.144267,257.995333 246.466988,260.018349 249.149357,260.018349 Z M249.149357,258.339995 C247.276194,258.339995 246.017429,256.781524 246.017429,254.263994 C246.017429,251.746463 247.276194,250.232948 249.149357,250.232948 C251.022519,250.232948 252.281284,251.746463 252.281284,254.263994 C252.281284,256.781524 251.022519,258.339995 249.149357,258.339995 Z M258.108554,259.808555 L258.108554,255.432847 L260.071629,255.432847 L262.753997,259.958408 L264.582204,259.658702 L261.944791,255.193082 C263.473292,254.803465 264.387395,253.889361 264.387395,252.121096 C264.387395,249.768404 262.858894,248.719433 260.236467,248.719433 L256.265362,248.719433 L256.265362,259.808555 L258.108554,259.808555 Z M258.108554,250.427757 L260.146555,250.427757 C261.734997,250.427757 262.559188,250.862331 262.559188,252.091125 C262.559188,253.34989 261.734997,253.799449 260.146555,253.799449 L258.108554,253.799449 L258.108554,250.427757 Z M274.097356,259.808555 L274.097356,258.115216 L268.507839,258.115216 L268.507839,254.878391 L272.823606,254.878391 L272.55387,253.215023 L268.507839,253.215023 L268.507839,250.457728 L273.79765,250.457728 L273.79765,248.719433 L266.634677,248.719433 L266.634677,259.808555 L274.097356,259.808555 Z M281.51705,260.018349 C283.824787,260.018349 284.873758,258.729613 284.873758,256.661642 L284.873758,248.719433 L283.000595,248.719433 L283.000595,256.436862 C283.000595,257.830495 282.386198,258.384951 281.427139,258.384951 C280.632918,258.384951 279.973564,257.965363 279.47905,257.425892 L278.624887,258.894451 C279.239285,259.523834 280.138403,260.018349 281.51705,260.018349 Z M291.180557,260.018349 C293.81797,260.018349 295.286529,258.594745 295.286529,256.796509 C295.286529,254.698567 293.608176,254.024229 291.510234,253.409832 C289.697012,252.870361 288.902791,252.510714 288.902791,251.476728 C288.902791,250.757434 289.622086,250.202977 290.880851,250.202977 C292.049704,250.202977 293.218558,250.817375 294.102691,251.59661 L294.986823,250.09808 C293.937852,249.228933 292.544219,248.509639 290.85088,248.509639 C288.633056,248.509639 287.074585,249.753418 287.074585,251.626581 C287.074585,253.739508 288.782909,254.30895 290.925807,254.938332 C292.754014,255.492788 293.458323,255.942347 293.458323,256.916392 C293.458323,257.875451 292.514249,258.354981 291.120616,258.354981 C289.756954,258.354981 288.363321,257.59073 287.509159,256.706598 L286.505143,258.130201 C287.629041,259.194157 289.187512,260.018349 291.180557,260.018349 Z M301.392526,259.808555 L301.392526,250.457728 L304.944042,250.457728 L304.674306,248.719433 L296.102715,248.719433 L296.102715,250.457728 L299.519363,250.457728 L299.519363,259.808555 L301.392526,259.808555 Z" id="CORE-JST" fill="#FFFFFF"></path>
                <path d="M202.34928,212.814654 C204.672001,212.814654 206.020678,211.630815 206.680031,209.802609 L205.061619,209.068329 C204.627045,210.312109 203.727927,211.1363 202.34928,211.1363 C200.416176,211.1363 199.307264,209.577829 199.307264,207.015343 C199.307264,204.587724 200.356235,203.029253 202.244382,203.029253 C203.578074,203.029253 204.38728,203.778518 204.821854,204.812504 L206.410296,203.86843 C205.646046,202.220047 204.342324,201.305944 202.244382,201.305944 C199.517058,201.305944 197.434101,203.3889 197.434101,207.030328 C197.434101,210.776653 199.487087,212.814654 202.34928,212.814654 Z M212.882435,212.814654 C215.549819,212.814654 217.87254,210.791638 217.87254,207.060299 C217.87254,203.328959 215.549819,201.305944 212.882435,201.305944 C210.200066,201.305944 207.877345,203.328959 207.877345,207.060299 C207.877345,210.791638 210.200066,212.814654 212.882435,212.814654 Z M212.882435,211.1363 C211.009273,211.1363 209.750507,209.577829 209.750507,207.060299 C209.750507,204.542768 211.009273,203.029253 212.882435,203.029253 C214.755598,203.029253 216.014363,204.542768 216.014363,207.060299 C216.014363,209.577829 214.755598,211.1363 212.882435,211.1363 Z M224.481046,212.814654 C227.148429,212.814654 229.47115,210.791638 229.47115,207.060299 C229.47115,203.328959 227.148429,201.305944 224.481046,201.305944 C221.798677,201.305944 219.475955,203.328959 219.475955,207.060299 C219.475955,210.791638 221.798677,212.814654 224.481046,212.814654 Z M224.481046,211.1363 C222.607883,211.1363 221.349118,209.577829 221.349118,207.060299 C221.349118,204.542768 222.607883,203.029253 224.481046,203.029253 C226.354208,203.029253 227.612973,204.542768 227.612973,207.060299 C227.612973,209.577829 226.354208,211.1363 224.481046,211.1363 Z M233.412273,212.60486 L233.412273,208.229152 L235.375347,208.229152 L238.057716,212.754713 L239.885922,212.455007 L237.248509,207.989387 C238.77701,207.59977 239.691113,206.685666 239.691113,204.917401 C239.691113,202.564709 238.162613,201.515738 235.540185,201.515738 L231.569081,201.515738 L231.569081,212.60486 L233.412273,212.60486 Z M233.412273,203.224062 L235.450273,203.224062 C237.038715,203.224062 237.862907,203.658636 237.862907,204.88743 C237.862907,206.146195 237.038715,206.595754 235.450273,206.595754 L233.412273,206.595754 L233.412273,203.224062 Z M245.058836,212.60486 C248.49047,212.60486 250.828176,210.971462 250.828176,207.015343 C250.828176,203.13415 248.535426,201.515738 245.058836,201.515738 L241.911923,201.515738 L241.911923,212.60486 L245.058836,212.60486 Z M243.7701,203.254033 L245.193704,203.254033 C247.771175,203.254033 248.955014,204.452857 248.955014,207.045313 C248.955014,209.742667 247.786161,210.911521 245.223674,210.911521 L243.7701,210.911521 L243.7701,203.254033 Z M254.856213,212.60486 L254.856213,201.515738 L252.998036,201.515738 L252.998036,212.60486 L254.856213,212.60486 Z M259.219921,212.60486 L259.219921,204.527783 L259.249892,204.527783 L264.704541,212.60486 L266.412865,212.60486 L266.412865,201.515738 L264.67457,201.515738 L264.67457,209.442961 L264.6446,209.442961 L259.399745,201.515738 L257.496611,201.515738 L257.496611,212.60486 L259.219921,212.60486 Z M269.836994,212.60486 L270.766083,209.967447 L274.976952,209.967447 L275.921026,212.754713 L277.734247,212.455007 L273.853055,201.470782 L272.024848,201.470782 L268.098699,212.60486 L269.836994,212.60486 Z M272.87901,203.823474 L272.908981,203.823474 L274.437481,208.319064 L271.320539,208.319064 L272.87901,203.823474 Z M282.589473,212.60486 C286.021107,212.60486 288.358813,210.971462 288.358813,207.015343 C288.358813,203.13415 286.066062,201.515738 282.589473,201.515738 L279.44256,201.515738 L279.44256,212.60486 L282.589473,212.60486 Z M281.300737,203.254033 L282.724341,203.254033 C285.301812,203.254033 286.485651,204.452857 286.485651,207.045313 C286.485651,209.742667 285.316797,210.911521 282.754311,210.911521 L281.300737,210.911521 L281.300737,203.254033 Z M294.952334,212.814654 C297.619717,212.814654 299.942438,210.791638 299.942438,207.060299 C299.942438,203.328959 297.619717,201.305944 294.952334,201.305944 C292.269965,201.305944 289.947243,203.328959 289.947243,207.060299 C289.947243,210.791638 292.269965,212.814654 294.952334,212.814654 Z M294.952334,211.1363 C293.079171,211.1363 291.820406,209.577829 291.820406,207.060299 C291.820406,204.542768 293.079171,203.029253 294.952334,203.029253 C296.825496,203.029253 298.084261,204.542768 298.084261,207.060299 C298.084261,209.577829 296.825496,211.1363 294.952334,211.1363 Z M303.883561,212.60486 L303.883561,208.229152 L305.846635,208.229152 L308.529004,212.754713 L310.35721,212.455007 L307.719797,207.989387 C309.248298,207.59977 310.162401,206.685666 310.162401,204.917401 C310.162401,202.564709 308.633901,201.515738 306.011473,201.515738 L302.040369,201.515738 L302.040369,212.60486 L303.883561,212.60486 Z M303.883561,203.224062 L305.921561,203.224062 C307.510003,203.224062 308.334195,203.658636 308.334195,204.88743 C308.334195,206.146195 307.510003,206.595754 305.921561,206.595754 L303.883561,206.595754 L303.883561,203.224062 Z M317.945743,212.814654 C320.253479,212.814654 321.30245,211.525918 321.30245,209.457947 L321.30245,201.515738 L319.429287,201.515738 L319.429287,209.233167 C319.429287,210.6268 318.81489,211.181256 317.855831,211.181256 C317.06161,211.181256 316.402257,210.761668 315.907742,210.222197 L315.05358,211.690756 C315.667977,212.320139 316.567095,212.814654 317.945743,212.814654 Z M327.581279,212.814654 C330.218692,212.814654 331.687251,211.39105 331.687251,209.592814 C331.687251,207.494872 330.008897,206.820534 327.910955,206.206137 C326.097734,205.666666 325.303513,205.307019 325.303513,204.273033 C325.303513,203.553739 326.022808,202.999282 327.281573,202.999282 C328.450426,202.999282 329.61928,203.61368 330.503412,204.392915 L331.387545,202.894385 C330.338574,202.025238 328.944941,201.305944 327.251602,201.305944 C325.033778,201.305944 323.475307,202.549723 323.475307,204.422886 C323.475307,206.535813 325.183631,207.105255 327.326529,207.734637 C329.154735,208.289093 329.859044,208.738652 329.859044,209.712697 C329.859044,210.671756 328.91497,211.151286 327.521338,211.151286 C326.157675,211.151286 324.764042,210.387035 323.90988,209.502903 L322.905865,210.926506 C324.029763,211.990462 325.588234,212.814654 327.581279,212.814654 Z M338.178871,212.60486 C340.441651,212.60486 342.10502,211.600845 342.10502,209.562844 C342.10502,207.85452 341.071034,207.075284 339.812269,206.850505 L339.812269,206.820534 C340.846255,206.595754 341.775343,205.801534 341.775343,204.273033 C341.775343,202.235032 340.141945,201.515738 337.909136,201.515738 L333.713252,201.515738 L333.713252,212.60486 L338.178871,212.60486 Z M335.556444,203.149135 L337.759283,203.149135 C339.317754,203.149135 339.977107,203.64365 339.977107,204.617695 C339.977107,205.62171 339.197872,206.146195 337.729312,206.146195 L335.556444,206.146195 L335.556444,203.149135 Z M335.556444,207.734637 L337.789253,207.734637 C339.36271,207.734637 340.276813,208.259123 340.276813,209.38302 C340.276813,210.402021 339.572504,210.986447 337.984062,210.986447 L335.556444,210.986447 L335.556444,207.734637 Z" id="COORDINADOR-JSB" fill="#FFFFFF"></path>
                <path d="M191.979452,163.857679 C194.616865,163.857679 196.085424,162.434075 196.085424,160.635839 C196.085424,158.537897 194.40707,157.863559 192.309128,157.249162 C190.495907,156.709691 189.701686,156.350044 189.701686,155.316058 C189.701686,154.596763 190.420981,154.042307 191.679746,154.042307 C192.848599,154.042307 194.017453,154.656705 194.901585,155.43594 L195.785718,153.93741 C194.736747,153.068263 193.343114,152.348968 191.649775,152.348968 C189.431951,152.348968 187.87348,153.592748 187.87348,155.465911 C187.87348,157.578838 189.581804,158.14828 191.724702,158.777662 C193.552908,159.332118 194.257218,159.781677 194.257218,160.755722 C194.257218,161.714781 193.313144,162.194311 191.919511,162.194311 C190.555848,162.194311 189.162216,161.43006 188.308053,160.545928 L187.304038,161.969531 C188.427936,163.033487 189.986407,163.857679 191.979452,163.857679 Z M202.012098,163.842694 C204.934232,163.842694 206.297894,162.104399 206.297894,159.586868 L206.297894,152.558763 L204.454702,152.558763 L204.454702,159.526927 C204.454702,161.130354 203.720423,162.134369 202.027084,162.134369 C200.31876,162.134369 199.58448,161.100384 199.58448,159.511942 L199.58448,152.558763 L197.711317,152.558763 L197.711317,159.616839 C197.711317,162.104399 199.07498,163.842694 202.012098,163.842694 Z M210.651112,163.647885 L210.651112,159.437015 L212.614186,159.437015 C214.891952,159.437015 216.929953,158.68775 216.929953,155.960426 C216.929953,153.337998 215.05679,152.558763 212.674128,152.558763 L208.792935,152.558763 L208.792935,163.647885 L210.651112,163.647885 Z M210.651112,154.267087 L212.689113,154.267087 C214.367467,154.267087 215.101746,154.836528 215.101746,156.005382 C215.101746,157.249162 214.352481,157.803618 212.704098,157.803618 L210.651112,157.803618 L210.651112,154.267087 Z M226.151895,163.647885 L226.151895,161.954546 L220.562378,161.954546 L220.562378,158.717721 L224.878144,158.717721 L224.608409,157.054353 L220.562378,157.054353 L220.562378,154.297057 L225.852189,154.297057 L225.852189,152.558763 L218.689215,152.558763 L218.689215,163.647885 L226.151895,163.647885 Z M229.826279,163.647885 L229.826279,159.272177 L231.789353,159.272177 L234.471722,163.797738 L236.299928,163.498032 L233.662515,159.032412 C235.191016,158.642794 236.105119,157.728691 236.105119,155.960426 C236.105119,153.607734 234.576619,152.558763 231.954191,152.558763 L227.983087,152.558763 L227.983087,163.647885 L229.826279,163.647885 Z M229.826279,154.267087 L231.864279,154.267087 C233.452721,154.267087 234.276913,154.701661 234.276913,155.930455 C234.276913,157.18922 233.452721,157.638779 231.864279,157.638779 L229.826279,157.638779 L229.826279,154.267087 Z M242.487347,163.692841 L246.338569,152.558763 L244.570303,152.558763 L241.64817,161.205281 L241.618199,161.205281 L238.726036,152.40891 L236.912815,152.708616 L240.719081,163.692841 L242.487347,163.692841 Z M249.953011,163.647885 L249.953011,152.558763 L248.094834,152.558763 L248.094834,163.647885 L249.953011,163.647885 Z M256.470107,163.857679 C259.107519,163.857679 260.576079,162.434075 260.576079,160.635839 C260.576079,158.537897 258.897725,157.863559 256.799783,157.249162 C254.986562,156.709691 254.192341,156.350044 254.192341,155.316058 C254.192341,154.596763 254.911635,154.042307 256.170401,154.042307 C257.339254,154.042307 258.508107,154.656705 259.39224,155.43594 L260.276373,153.93741 C259.227402,153.068263 257.833769,152.348968 256.14043,152.348968 C253.922606,152.348968 252.364134,153.592748 252.364134,155.465911 C252.364134,157.578838 254.072459,158.14828 256.215357,158.777662 C258.043563,159.332118 258.747872,159.781677 258.747872,160.755722 C258.747872,161.714781 257.803798,162.194311 256.410165,162.194311 C255.046503,162.194311 253.65287,161.43006 252.798708,160.545928 L251.794693,161.969531 C252.918591,163.033487 254.477062,163.857679 256.470107,163.857679 Z M266.94482,163.857679 C269.612203,163.857679 271.934924,161.834663 271.934924,158.103324 C271.934924,154.371984 269.612203,152.348968 266.94482,152.348968 C264.262451,152.348968 261.939729,154.371984 261.939729,158.103324 C261.939729,161.834663 264.262451,163.857679 266.94482,163.857679 Z M266.94482,162.179325 C265.071657,162.179325 263.812892,160.620854 263.812892,158.103324 C263.812892,155.585793 265.071657,154.072278 266.94482,154.072278 C268.817982,154.072278 270.076747,155.585793 270.076747,158.103324 C270.076747,160.620854 268.817982,162.179325 266.94482,162.179325 Z M275.876047,163.647885 L275.876047,159.272177 L277.839121,159.272177 L280.52149,163.797738 L282.349696,163.498032 L279.712283,159.032412 C281.240784,158.642794 282.154887,157.728691 282.154887,155.960426 C282.154887,153.607734 280.626387,152.558763 278.003959,152.558763 L274.032855,152.558763 L274.032855,163.647885 L275.876047,163.647885 Z M275.876047,154.267087 L277.914047,154.267087 C279.502489,154.267087 280.326681,154.701661 280.326681,155.930455 C280.326681,157.18922 279.502489,157.638779 277.914047,157.638779 L275.876047,157.638779 L275.876047,154.267087 Z M288.222424,163.647885 L288.222424,158.867574 L292.013704,152.558763 L290.095586,152.558763 L287.30832,157.279132 L284.446128,152.40891 L282.662877,152.708616 L286.364246,158.867574 L286.364246,163.647885 L288.222424,163.647885 Z M301.294077,163.647885 C303.556858,163.647885 305.220226,162.64387 305.220226,160.605869 C305.220226,158.897545 304.18624,158.118309 302.927475,157.893529 L302.927475,157.863559 C303.961461,157.638779 304.890549,156.844558 304.890549,155.316058 C304.890549,153.278057 303.257152,152.558763 301.024342,152.558763 L296.828458,152.558763 L296.828458,163.647885 L301.294077,163.647885 Z M298.67165,154.19216 L300.874489,154.19216 C302.43296,154.19216 303.092313,154.686675 303.092313,155.66072 C303.092313,156.664735 302.313078,157.18922 300.844518,157.18922 L298.67165,157.18922 L298.67165,154.19216 Z M298.67165,158.777662 L300.904459,158.777662 C302.477916,158.777662 303.392019,159.302148 303.392019,160.426045 C303.392019,161.445046 302.68771,162.029472 301.099268,162.029472 L298.67165,162.029472 L298.67165,158.777662 Z M311.726831,163.857679 C314.394215,163.857679 316.716936,161.834663 316.716936,158.103324 C316.716936,154.371984 314.394215,152.348968 311.726831,152.348968 C309.044463,152.348968 306.721741,154.371984 306.721741,158.103324 C306.721741,161.834663 309.044463,163.857679 311.726831,163.857679 Z M311.726831,162.179325 C309.853669,162.179325 308.594904,160.620854 308.594904,158.103324 C308.594904,155.585793 309.853669,154.072278 311.726831,154.072278 C313.599994,154.072278 314.858759,155.585793 314.858759,158.103324 C314.858759,160.620854 313.599994,162.179325 311.726831,162.179325 Z M318.588588,163.647885 L319.517677,161.010472 L323.728546,161.010472 L324.67262,163.797738 L326.485842,163.498032 L322.604649,152.513807 L320.776442,152.513807 L316.850294,163.647885 L318.588588,163.647885 Z M321.630604,154.866499 L321.660575,154.866499 L323.189076,159.362089 L320.072133,159.362089 L321.630604,154.866499 Z M330.037346,163.647885 L330.037346,159.272177 L332.00042,159.272177 L334.682789,163.797738 L336.510995,163.498032 L333.873583,159.032412 C335.402083,158.642794 336.316187,157.728691 336.316187,155.960426 C336.316187,153.607734 334.787686,152.558763 332.165258,152.558763 L328.194154,152.558763 L328.194154,163.647885 L330.037346,163.647885 Z M330.037346,154.267087 L332.075347,154.267087 C333.663788,154.267087 334.48798,154.701661 334.48798,155.930455 C334.48798,157.18922 333.663788,157.638779 332.075347,157.638779 L330.037346,157.638779 L330.037346,154.267087 Z M341.683909,163.647885 C345.115543,163.647885 347.45325,162.014487 347.45325,158.058368 C347.45325,154.177175 345.160499,152.558763 341.683909,152.558763 L338.536996,152.558763 L338.536996,163.647885 L341.683909,163.647885 Z M340.395173,154.297057 L341.818777,154.297057 C344.396249,154.297057 345.580087,155.495881 345.580087,158.088338 C345.580087,160.785692 344.411234,161.954546 341.848748,161.954546 L340.395173,161.954546 L340.395173,154.297057 Z" id="SUPERVISORY-BOARD" fill="#FFFFFF"></path>
                <path d="M227.794319,95.1051225 C229.322819,95.1051225 230.401761,94.4907252 230.85132,93.6515484 L230.881291,93.6515484 L230.881291,94.8953283 L232.424777,94.8953283 L232.424777,89.4107085 L228.258863,89.4107085 L228.528599,90.9242238 L230.641526,90.9242238 C230.521643,92.482695 229.502643,93.4267689 228.034084,93.4267689 C226.460627,93.4267689 224.977082,92.2579155 224.977082,89.2608555 C224.977082,86.2637955 226.640451,85.3197216 228.019098,85.3197216 C229.262878,85.3197216 230.057099,85.9790748 230.521643,87.087987 L232.125071,86.2188396 C231.285894,84.3756477 229.667481,83.5964121 227.944172,83.5964121 C225.037024,83.5964121 223.088935,85.8292218 223.088935,89.3058114 C223.088935,92.632548 224.662391,95.1051225 227.794319,95.1051225 Z M239.246073,95.1051225 C241.913457,95.1051225 244.236178,93.082107 244.236178,89.3507673 C244.236178,85.6194276 241.913457,83.5964121 239.246073,83.5964121 C236.563705,83.5964121 234.240983,85.6194276 234.240983,89.3507673 C234.240983,93.082107 236.563705,95.1051225 239.246073,95.1051225 Z M239.246073,93.4267689 C237.372911,93.4267689 236.114146,91.8682977 236.114146,89.3507673 C236.114146,86.8332369 237.372911,85.3197216 239.246073,85.3197216 C241.119236,85.3197216 242.378001,86.8332369 242.378001,89.3507673 C242.378001,91.8682977 241.119236,93.4267689 239.246073,93.4267689 Z M250.004009,94.9402842 L253.855231,83.8062063 L252.086965,83.8062063 L249.164832,92.4527244 L249.134861,92.4527244 L246.242698,83.6563533 L244.429477,83.9560593 L248.235743,94.9402842 L250.004009,94.9402842 Z M263.003744,94.8953283 L263.003744,93.2019894 L257.414228,93.2019894 L257.414228,89.9651646 L261.729994,89.9651646 L261.460259,88.3017963 L257.414228,88.3017963 L257.414228,85.5445011 L262.704038,85.5445011 L262.704038,83.8062063 L255.541065,83.8062063 L255.541065,94.8953283 L263.003744,94.8953283 Z M266.678128,94.8953283 L266.678128,90.5196207 L268.641203,90.5196207 L271.323571,95.0451813 L273.151778,94.7454753 L270.514365,90.2798559 C272.042866,89.8902381 272.956969,88.9761348 272.956969,87.2078694 C272.956969,84.8551773 271.428468,83.8062063 268.806041,83.8062063 L264.834936,83.8062063 L264.834936,94.8953283 L266.678128,94.8953283 Z M266.678128,85.5145305 L268.716129,85.5145305 C270.304571,85.5145305 271.128762,85.9491042 271.128762,87.1778988 C271.128762,88.436664 270.304571,88.886223 268.716129,88.886223 L266.678128,88.886223 L266.678128,85.5145305 Z M276.901088,94.8953283 L276.901088,86.8182516 L276.931059,86.8182516 L282.385708,94.8953283 L284.094032,94.8953283 L284.094032,83.8062063 L282.355737,83.8062063 L282.355737,91.73343 L282.325767,91.73343 L277.080912,83.8062063 L275.177779,83.8062063 L275.177779,94.8953283 L276.901088,94.8953283 Z M288.61059,94.8953283 L288.61059,83.8062063 L286.752413,83.8062063 L286.752413,94.8953283 L288.61059,94.8953283 Z M292.974297,94.8953283 L292.974297,86.8182516 L293.004268,86.8182516 L298.458917,94.8953283 L300.167241,94.8953283 L300.167241,83.8062063 L298.428947,83.8062063 L298.428947,91.73343 L298.398976,91.73343 L293.154121,83.8062063 L291.250988,83.8062063 L291.250988,94.8953283 L292.974297,94.8953283 Z M306.982544,95.1051225 C308.511045,95.1051225 309.589986,94.4907252 310.039545,93.6515484 L310.069516,93.6515484 L310.069516,94.8953283 L311.613002,94.8953283 L311.613002,89.4107085 L307.447088,89.4107085 L307.716824,90.9242238 L309.829751,90.9242238 C309.709869,92.482695 308.690868,93.4267689 307.222309,93.4267689 C305.648852,93.4267689 304.165308,92.2579155 304.165308,89.2608555 C304.165308,86.2637955 305.828676,85.3197216 307.207324,85.3197216 C308.451104,85.3197216 309.245324,85.9790748 309.709869,87.087987 L311.313296,86.2188396 C310.474119,84.3756477 308.855707,83.5964121 307.132397,83.5964121 C304.225249,83.5964121 302.27716,85.8292218 302.27716,89.3058114 C302.27716,92.632548 303.850616,95.1051225 306.982544,95.1051225 Z" id="GOVERNING-" fill="#FFFFFF"></path>
                <path d="M240.981383,117.088558 C243.304104,117.088558 244.652781,115.904719 245.312135,114.076512 L243.693722,113.342233 C243.259149,114.586012 242.360031,115.410204 240.981383,115.410204 C239.048279,115.410204 237.939367,113.851733 237.939367,111.289246 C237.939367,108.861628 238.988338,107.303157 240.876486,107.303157 C242.210178,107.303157 243.019384,108.052422 243.453957,109.086407 L245.042399,108.142333 C244.278149,106.49395 242.974428,105.579847 240.876486,105.579847 C238.149161,105.579847 236.066205,107.662804 236.066205,111.304232 C236.066205,115.050557 238.119191,117.088558 240.981383,117.088558 Z M251.388671,117.088558 C254.056054,117.088558 256.378776,115.065542 256.378776,111.334202 C256.378776,107.602863 254.056054,105.579847 251.388671,105.579847 C248.706302,105.579847 246.383581,107.602863 246.383581,111.334202 C246.383581,115.065542 248.706302,117.088558 251.388671,117.088558 Z M251.388671,115.410204 C249.515508,115.410204 248.256743,113.851733 248.256743,111.334202 C248.256743,108.816672 249.515508,107.303157 251.388671,107.303157 C253.261833,107.303157 254.520599,108.816672 254.520599,111.334202 C254.520599,113.851733 253.261833,115.410204 251.388671,115.410204 Z M262.444822,117.073572 C265.366956,117.073572 266.730618,115.335277 266.730618,112.817747 L266.730618,105.789641 L264.887426,105.789641 L264.887426,112.757806 C264.887426,114.361233 264.153146,115.365248 262.459808,115.365248 C260.751483,115.365248 260.017204,114.331262 260.017204,112.742821 L260.017204,105.789641 L258.144041,105.789641 L258.144041,112.847718 C258.144041,115.335277 259.507703,117.073572 262.444822,117.073572 Z M270.818605,116.878763 L270.818605,108.801687 L270.848576,108.801687 L276.303225,116.878763 L278.011549,116.878763 L278.011549,105.789641 L276.273254,105.789641 L276.273254,113.716865 L276.243284,113.716865 L270.998429,105.789641 L269.095295,105.789641 L269.095295,116.878763 L270.818605,116.878763 Z M284.910778,117.088558 C287.2335,117.088558 288.582177,115.904719 289.24153,114.076512 L287.623117,113.342233 C287.188544,114.586012 286.289426,115.410204 284.910778,115.410204 C282.977674,115.410204 281.868762,113.851733 281.868762,111.289246 C281.868762,108.861628 282.917733,107.303157 284.805881,107.303157 C286.139573,107.303157 286.948779,108.052422 287.383353,109.086407 L288.971794,108.142333 C288.207544,106.49395 286.903823,105.579847 284.805881,105.579847 C282.078556,105.579847 279.9956,107.662804 279.9956,111.304232 C279.9956,115.050557 282.048586,117.088558 284.910778,117.088558 Z M292.875462,116.878763 L292.875462,105.789641 L291.017285,105.789641 L291.017285,116.878763 L292.875462,116.878763 Z M302.503514,116.878763 L302.218794,115.185424 L297.258659,115.185424 L297.258659,105.789641 L295.385497,105.789641 L295.385497,116.878763 L302.503514,116.878763 Z" id="COUNCIL" fill="#FFFFFF"></path>
                <path d="M143.3365,186.6384 L1.9755,186.6384" id="Stroke-15" stroke="#0064A8"></path>
                <path d="M265.703,33.8498 C273.168,33.8498 279.22,27.7978 279.22,20.3328 C279.22,12.8678 273.168,6.8148 265.703,6.8148 C258.237,6.8148 252.186,12.8678 252.186,20.3328 C252.186,27.7978 258.237,33.8498 265.703,33.8498 L265.703,33.8498 Z M273.813,58.1808 L265.703,58.1808 L265.703,52.7738 L279.22,52.7738 L273.813,58.1808 Z M274.185,37.2478 C271.633,38.5308 268.754,39.2568 265.703,39.2568 C262.651,39.2568 259.771,38.5298 257.218,37.2468 C246.558,39.8438 238.668,49.4398 238.668,60.8848 L238.668,66.2908 L292.737,66.2908 L292.737,60.8848 C292.737,49.4398 284.834,39.8458 274.185,37.2478 L274.185,37.2478 Z" id="Fill-17" fill="#00CCCD"></path>
            </g>
        </g>
    </g>
</svg>