<svg xmlns="http://www.w3.org/2000/svg" viewBox="0 0 437 326"><defs><style>.cls-1{fill:#fff;}.cls-2{fill:#094fa4;}.cls-3{fill:#002e65;}.cls-4{fill:#004283;}.cls-5{fill:#0064a8;}.cls-6{fill:#00a6a6;}.cls-7,.cls-9{fill:#00cccd;}.cls-8{fill:none;stroke:#0064a8;stroke-miterlimit:10;}.cls-9{fill-rule:evenodd;}</style></defs><title>reguladores-sede-eng</title><g id="cab"><circle class="cls-1" cx="269.53" cy="162.38" r="160.84"/><rect class="cls-1" x="0.94" y="193.35" width="150.85" height="27.97"/><rect class="cls-1" x="0.94" y="239.3" width="150.85" height="31.97"/><path class="cls-2" d="M7.1,212.08v-8.87h5.3V204H8v3h3.32l.13.77H8v3.53h4.7v.78Z"/><path class="cls-2" d="M13.41,207.61c0-2.67,1.47-4.57,3.67-4.57a3.08,3.08,0,0,1,3,2l-.73.38a2.3,2.3,0,0,0-2.31-1.56c-1.73,0-2.82,1.51-2.82,3.77,0,2.45,1.12,3.9,2.85,3.9a2.51,2.51,0,0,0,2.47-1.77l.73.34a3.24,3.24,0,0,1-3.21,2.21C14.88,212.25,13.41,210.41,13.41,207.61Z"/><path class="cls-2" d="M22,212.08v-8.87h3.08c2,0,3,.83,3,2.23a2,2,0,0,1-1.68,2.05v0a2.14,2.14,0,0,1,2,2.16c0,1.4-1,2.41-3,2.41Zm.84-4.93H25c1.42,0,2.24-.52,2.24-1.61S26.54,204,25,204h-2.2Zm0,4.17H25.3c1.52,0,2.21-.62,2.21-1.69s-.95-1.74-2.47-1.74H22.81Z"/><path class="cls-2" d="M7.1,258.87V250h5.3v.79H8v3h3.32l.13.77H8v3.53h4.7v.78Z"/><path class="cls-2" d="M13.41,254.4c0-2.67,1.47-4.57,3.67-4.57a3.08,3.08,0,0,1,3,2l-.73.38a2.3,2.3,0,0,0-2.31-1.56c-1.73,0-2.82,1.51-2.82,3.77,0,2.45,1.12,3.9,2.85,3.9a2.51,2.51,0,0,0,2.47-1.77l.73.34A3.24,3.24,0,0,1,17.11,259C14.88,259,13.41,257.21,13.41,254.4Z"/><path class="cls-2" d="M22,258.87V250h3.08c2,0,3,.83,3,2.23a2,2,0,0,1-1.68,2.05v0a2.14,2.14,0,0,1,2,2.16c0,1.4-1,2.41-3,2.41Zm.84-4.93H25c1.42,0,2.24-.52,2.24-1.61s-.68-1.57-2.22-1.57h-2.2Zm0,4.17H25.3c1.52,0,2.21-.62,2.21-1.69s-.95-1.74-2.47-1.74H22.81Z"/><path class="cls-2" d="M32.34,258v-2.69H29.67v-.72h2.67v-2.69h.73v2.69h2.66v.72H33.07V258Z"/><path class="cls-2" d="M37.4,258.87V250h3.08c2,0,3,.83,3,2.23a2,2,0,0,1-1.68,2.05v0a2.14,2.14,0,0,1,2,2.16c0,1.4-1,2.41-3,2.41Zm.84-4.93h2.17c1.42,0,2.24-.52,2.24-1.61s-.68-1.57-2.22-1.57H38.24Zm0,4.17h2.5c1.52,0,2.21-.62,2.21-1.69s-.95-1.74-2.47-1.74H38.24Z"/><path class="cls-2" d="M45.08,255.73c0-2.21,1.16-3.3,2.63-3.3a2.76,2.76,0,0,1,2.09,1v-3.37l.83-.12v8.94h-.74L49.8,258a2.78,2.78,0,0,1-2.11,1C46.24,259,45.08,257.94,45.08,255.73Zm4.71,1.51v-3.08a2.74,2.74,0,0,0-2-1c-1,0-1.89.8-1.89,2.59s.86,2.55,1.92,2.55A2.68,2.68,0,0,0,49.8,257.24Z"/><path class="cls-2" d="M52.67,258.87V250H58v.79H53.52v3h3.32l.13.77H53.52v3.53h4.7v.78Z"/><path class="cls-2" d="M4.08,162.58v-8.87H5.57v8.88Z"/><path class="cls-2" d="M7.56,162.58v-8.87H9.08l4.2,6.34h0v-6.34h1.39v8.88H13.32L9,156.12h0v6.46Z"/><path class="cls-2" d="M18.67,162.58V155.1H15.93v-1.39h6.86L23,155.1H20.16v7.48Z"/><path class="cls-2" d="M24.19,162.58v-8.87h5.73v1.39H25.69v2.21h3.24l.22,1.33H25.69v2.59h4.47v1.36Z"/><path class="cls-2" d="M31.5,162.58v-8.87h3.18c2.1,0,3.32.84,3.32,2.72a2.31,2.31,0,0,1-2,2.46l2.11,3.57-1.46.24-2.15-3.62H33v3.5ZM33,157.77h1.63c1.27,0,1.93-.36,1.93-1.37s-.66-1.33-1.93-1.33H33Z"/><path class="cls-2" d="M39.66,162.58v-8.87h2l2.39,7h0l2.32-7h2v8.88H46.9V156h0c-.13.62-.32,1.19-.52,1.81l-1.74,4.82H43.29l-1.73-4.82a17.12,17.12,0,0,1-.53-1.87h0v6.69Z"/><path class="cls-2" d="M50.31,162.58v-8.87H56v1.39H51.81v2.21H55l.22,1.33H51.81v2.59h4.47v1.36Z"/><path class="cls-2" d="M57.62,162.58v-8.87h2.52c2.78,0,4.62,1.29,4.62,4.4s-1.87,4.47-4.62,4.47Zm1.49-1.36h1.16c2.05,0,3-.94,3-3.09s-.95-3-3-3H59.11Z"/><path class="cls-2" d="M66.37,162.58v-8.87h1.49v8.88Z"/><path class="cls-2" d="M69.13,162.58l3.14-8.91h1.46l3.11,8.79-1.45.24-.75-2.23H71.26l-.74,2.11Zm2.58-3.43h2.5L73,155.56h0Z"/><path class="cls-2" d="M79.2,162.58V155.1H76.47v-1.39h6.86l.22,1.39H80.7v7.48Z"/><path class="cls-2" d="M84.73,162.58v-8.87h5.73v1.39H86.23v2.21h3.24l.22,1.33H86.23v2.59H90.7v1.36Z"/><path class="cls-2" d="M3.4,177.23l.8-1.14a4.29,4.29,0,0,0,2.89,1.32C8.21,177.4,9,177,9,176.25s-.56-1.14-2-1.58c-1.72-.5-3.08-1-3.08-2.65,0-1.5,1.25-2.49,3-2.49a5.17,5.17,0,0,1,3.31,1.27L9.48,172a4.09,4.09,0,0,0-2.58-1.12c-1,0-1.58.44-1.58,1,0,.83.64,1.12,2.09,1.55,1.68.49,3,1,3,2.71,0,1.44-1.18,2.58-3.29,2.58A5.35,5.35,0,0,1,3.4,177.23Z"/><path class="cls-2" d="M14.09,178.57v-7.48H11.35v-1.39h6.86l.22,1.39H15.59v7.48Z"/><path class="cls-2" d="M19.61,178.57v-8.87h3.18c2.1,0,3.32.84,3.32,2.72a2.31,2.31,0,0,1-2,2.46l2.11,3.57-1.46.24-2.15-3.62H21.09v3.5Zm1.47-4.81h1.63c1.27,0,1.93-.36,1.93-1.37s-.66-1.33-1.93-1.33H21.09Z"/><path class="cls-2" d="M27.6,175.34v-5.65h1.5v5.56c0,1.27.59,2.1,2,2.1s1.94-.8,1.94-2.09v-5.58h1.48v5.63A3.11,3.11,0,0,1,31,178.72,3.1,3.1,0,0,1,27.6,175.34Z"/><path class="cls-2" d="M35.93,174.11c0-2.91,1.67-4.58,3.85-4.58a3.34,3.34,0,0,1,3.33,2.05l-1.27.76a2.13,2.13,0,0,0-2.06-1.43c-1.51,0-2.35,1.25-2.35,3.19s.89,3.3,2.43,3.3A2.22,2.22,0,0,0,42,175.74l1.3.59a3.39,3.39,0,0,1-3.47,2.41C37.57,178.74,35.93,177.1,35.93,174.11Z"/><path class="cls-2" d="M46.89,178.57v-7.48H44.16v-1.39H51l.22,1.39H48.39v7.48Z"/><path class="cls-2" d="M52.36,175.34v-5.65h1.5v5.56c0,1.27.59,2.1,2,2.1s1.94-.8,1.94-2.09v-5.58h1.47v5.63a3.11,3.11,0,0,1-3.43,3.41A3.1,3.1,0,0,1,52.36,175.34Z"/><path class="cls-2" d="M61.11,178.57v-8.87h3.18c2.1,0,3.32.84,3.32,2.72a2.31,2.31,0,0,1-2,2.46l2.11,3.57-1.46.24-2.15-3.62H62.58v3.5Zm1.47-4.81h1.63c1.27,0,1.93-.36,1.93-1.37s-.66-1.33-1.93-1.33H62.58Z"/><path class="cls-2" d="M69.26,178.57v-8.87H75v1.39H70.76v2.21H74l.22,1.33H70.76v2.59h4.47v1.36Z"/><rect class="cls-3" x="101.7" y="283.26" width="335.67" height="42.96"/><rect class="cls-4" x="130.67" y="234.31" width="277.73" height="42.96"/><rect class="cls-5" x="152.65" y="185.36" width="233.77" height="42.96"/><rect class="cls-6" x="173.63" y="136.4" width="191.81" height="42.96"/><rect class="cls-7" x="189.61" y="72.47" width="159.84" height="57.94"/><path class="cls-1" d="M213.46,309.9V298.81h7.16v1.74h-5.29v2.76h4l.27,1.66h-4.32v3.24h5.59v1.69Z"/><path class="cls-1" d="M222.16,309.9l3.69-5.89-3.21-5,1.95-.3,2.38,3.9,2.25-3.75h2l-3.24,5.2,3.61,5.74-1.89.3-2.82-4.56-2.73,4.41Z"/><path class="cls-1" d="M233.17,309.9V298.81h3.88c2.38,0,4.25.78,4.25,3.4s-2,3.48-4.32,3.48h-2v4.21Zm1.86-5.84h2.05c1.65,0,2.4-.55,2.4-1.8s-.73-1.74-2.41-1.74h-2Z"/><path class="cls-1" d="M242.9,309.9V298.81h7.16v1.74h-5.29v2.76h4l.27,1.66h-4.32v3.24h5.59v1.69Z"/><path class="cls-1" d="M252,309.9V298.81h4c2.62,0,4.15,1,4.15,3.4a2.88,2.88,0,0,1-2.44,3.07l2.64,4.47-1.83.3-2.68-4.53h-2v4.38Zm1.84-6h2c1.59,0,2.41-.45,2.41-1.71s-.82-1.66-2.41-1.66h-2Z"/><path class="cls-1" d="M264.84,309.9v-9.35h-3.42v-1.74H270l.27,1.74h-3.55v9.35Z"/><path class="cls-1" d="M278.12,309.9v-9.35H274.7v-1.74h8.57l.27,1.74H280v9.35Z"/><path class="cls-1" d="M285,309.9V298.81h7.16v1.74h-5.29v2.76h4l.27,1.66h-4.32v3.24h5.59v1.69Z"/><path class="cls-1" d="M293.65,309.9l3.93-11.13h1.83l3.88,11-1.81.3-.94-2.79h-4.21l-.93,2.64Zm3.22-4.29H300l-1.53-4.5h0Z"/><path class="cls-1" d="M304.83,309.9V298.81h2.46l3,8.8h0l2.89-8.8h2.5V309.9h-1.81v-8.29h0c-.17.78-.41,1.48-.64,2.26l-2.17,6h-1.66l-2.16-6a21.38,21.38,0,0,1-.66-2.34h0v8.36Z"/><path class="cls-1" d="M317.3,308.22l1-1.42a5.36,5.36,0,0,0,3.61,1.65c1.39,0,2.34-.48,2.34-1.44s-.7-1.42-2.53-2c-2.14-.63-3.85-1.2-3.85-3.31,0-1.87,1.56-3.12,3.78-3.12a6.46,6.46,0,0,1,4.14,1.59l-.88,1.5a5.11,5.11,0,0,0-3.22-1.39c-1.26,0-2,.55-2,1.27,0,1,.79,1.39,2.61,1.93,2.1.61,3.78,1.29,3.78,3.39,0,1.8-1.47,3.22-4.11,3.22A6.68,6.68,0,0,1,317.3,308.22Z"/><path class="cls-1" d="M234.14,254.94c0-3.64,2.08-5.72,4.81-5.72a4.18,4.18,0,0,1,4.17,2.56l-1.59.94a2.66,2.66,0,0,0-2.58-1.78c-1.89,0-2.94,1.56-2.94,4s1.11,4.12,3,4.12a2.78,2.78,0,0,0,2.71-2.07l1.62.73a4.24,4.24,0,0,1-4.33,3C236.2,260.72,234.14,258.68,234.14,254.94Z"/><path class="cls-1" d="M244.57,255c0-3.73,2.32-5.75,5-5.75s5,2,5,5.75-2.32,5.75-5,5.75S244.57,258.7,244.57,255Zm8.14,0c0-2.52-1.26-4-3.13-4s-3.13,1.51-3.13,4,1.26,4.08,3.13,4.08S252.7,257.48,252.7,255Z"/><path class="cls-1" d="M256.49,260.51V249.42h4c2.62,0,4.15,1,4.15,3.4a2.88,2.88,0,0,1-2.44,3.07l2.64,4.47-1.83.3-2.68-4.53h-2v4.38Zm1.84-6h2c1.59,0,2.41-.45,2.41-1.71s-.82-1.66-2.41-1.66h-2Z"/><path class="cls-1" d="M266.67,260.51V249.42h7.16v1.74h-5.29v2.76h4l.27,1.66h-4.32v3.24h5.59v1.69Z"/><path class="cls-1" d="M278.92,259.6l.85-1.47a2.67,2.67,0,0,0,1.95,1c1,0,1.57-.55,1.57-1.95v-7.72h1.87v7.94a3,3,0,0,1-3.36,3.36A3.83,3.83,0,0,1,278.92,259.6Z"/><path class="cls-1" d="M286.61,258.83l1-1.42a5.36,5.36,0,0,0,3.61,1.65c1.39,0,2.34-.48,2.34-1.44s-.7-1.42-2.53-2c-2.14-.63-3.85-1.2-3.85-3.31,0-1.87,1.56-3.12,3.78-3.12a6.46,6.46,0,0,1,4.14,1.59l-.88,1.5a5.12,5.12,0,0,0-3.22-1.39c-1.26,0-2,.55-2,1.27,0,1,.79,1.39,2.61,1.93,2.1.61,3.78,1.29,3.78,3.39,0,1.8-1.47,3.22-4.11,3.22A6.69,6.69,0,0,1,286.61,258.83Z"/><path class="cls-1" d="M300,260.51v-9.35h-3.42v-1.74h8.57l.27,1.74h-3.55v9.35Z"/><path class="cls-1" d="M197.16,212.39l.85-1.47a2.67,2.67,0,0,0,1.95,1c1,0,1.57-.55,1.57-1.95v-7.72h1.87v7.94a3,3,0,0,1-3.36,3.36A3.83,3.83,0,0,1,197.16,212.39Z"/><path class="cls-1" d="M204.84,211.63l1-1.42a5.36,5.36,0,0,0,3.61,1.65c1.39,0,2.34-.48,2.34-1.44s-.7-1.42-2.53-2c-2.14-.63-3.85-1.2-3.85-3.31,0-1.87,1.56-3.12,3.78-3.12a6.46,6.46,0,0,1,4.14,1.59l-.88,1.5a5.12,5.12,0,0,0-3.22-1.39c-1.26,0-2,.55-2,1.27,0,1,.79,1.39,2.61,1.93,2.1.61,3.78,1.29,3.78,3.39,0,1.8-1.47,3.22-4.11,3.22A6.68,6.68,0,0,1,204.84,211.63Z"/><path class="cls-1" d="M215.48,213.31V202.22h4.2c2.23,0,3.87.72,3.87,2.76a2.42,2.42,0,0,1-2,2.55v0a2.54,2.54,0,0,1,2.29,2.71c0,2-1.66,3-3.93,3Zm1.84-6.46h2.17c1.47,0,2.25-.52,2.25-1.53s-.66-1.47-2.22-1.47h-2.2Zm0,4.84h2.43c1.59,0,2.29-.58,2.29-1.6s-.91-1.65-2.49-1.65h-2.23Z"/><path class="cls-1" d="M229.22,207.73c0-3.64,2.08-5.72,4.81-5.72a4.18,4.18,0,0,1,4.17,2.56l-1.59.94a2.66,2.66,0,0,0-2.58-1.78c-1.89,0-2.94,1.56-2.94,4s1.11,4.12,3,4.12a2.78,2.78,0,0,0,2.71-2.07l1.62.73a4.24,4.24,0,0,1-4.33,3C231.27,213.52,229.22,211.48,229.22,207.73Z"/><path class="cls-1" d="M239.65,207.76c0-3.73,2.32-5.75,5-5.75s5,2,5,5.75-2.32,5.75-5,5.75S239.65,211.49,239.65,207.76Zm8.14,0c0-2.52-1.26-4-3.13-4s-3.13,1.51-3.13,4,1.26,4.08,3.13,4.08S247.78,210.28,247.78,207.76Z"/><path class="cls-1" d="M251.08,207.76c0-3.73,2.32-5.75,5-5.75s5,2,5,5.75-2.32,5.75-5,5.75S251.08,211.49,251.08,207.76Zm8.14,0c0-2.52-1.26-4-3.13-4s-3.13,1.51-3.13,4,1.26,4.08,3.13,4.08S259.21,210.28,259.21,207.76Z"/><path class="cls-1" d="M263,213.31V202.22h4c2.62,0,4.15,1,4.15,3.4a2.88,2.88,0,0,1-2.44,3.07l2.64,4.47-1.83.3-2.68-4.53h-2v4.38Zm1.84-6h2c1.59,0,2.41-.45,2.41-1.71s-.82-1.66-2.41-1.66h-2Z"/><path class="cls-1" d="M273.17,213.31V202.22h3.15c3.48,0,5.77,1.62,5.77,5.5s-2.34,5.59-5.77,5.59Zm1.86-1.69h1.45c2.56,0,3.73-1.17,3.73-3.87S279,204,276.46,204H275Z"/><path class="cls-1" d="M284.09,213.31V202.22H286v11.09Z"/><path class="cls-1" d="M288.42,213.31V202.22h1.9l5.24,7.93h0v-7.93h1.74v11.09h-1.71l-5.46-8.08h0v8.08Z"/><path class="cls-1" d="M298.85,213.31l3.93-11.13h1.83l3.88,11-1.81.3-.94-2.79h-4.21l-.93,2.64Zm3.22-4.29h3.12l-1.53-4.5h0Z"/><path class="cls-1" d="M311.42,213.31V204H308v-1.74h8.57l.27,1.74H313.3v9.35Z"/><path class="cls-1" d="M317.58,207.76c0-3.73,2.32-5.75,5-5.75s5,2,5,5.75-2.32,5.75-5,5.75S317.58,211.49,317.58,207.76Zm8.14,0c0-2.52-1.26-4-3.13-4s-3.13,1.51-3.13,4,1.26,4.08,3.13,4.08S325.71,210.28,325.71,207.76Z"/><path class="cls-1" d="M329.5,213.31V202.22h4c2.62,0,4.15,1,4.15,3.4a2.88,2.88,0,0,1-2.44,3.07l2.64,4.47-1.83.3-2.68-4.53h-2v4.38Zm1.84-6h2c1.59,0,2.41-.45,2.41-1.71s-.82-1.66-2.41-1.66h-2Z"/><path class="cls-1" d="M187.79,162.67l1-1.42a5.36,5.36,0,0,0,3.61,1.65c1.39,0,2.34-.48,2.34-1.44s-.7-1.42-2.53-2c-2.14-.63-3.85-1.2-3.85-3.31,0-1.87,1.56-3.12,3.78-3.12a6.46,6.46,0,0,1,4.14,1.59l-.88,1.5a5.11,5.11,0,0,0-3.22-1.39c-1.26,0-2,.55-2,1.27,0,1,.79,1.39,2.61,1.93,2.1.61,3.78,1.29,3.78,3.39,0,1.8-1.47,3.22-4.11,3.22A6.68,6.68,0,0,1,187.79,162.67Z"/><path class="cls-1" d="M198.25,160.32v-7.06h1.87v7c0,1.59.73,2.62,2.44,2.62s2.43-1,2.43-2.61v-7h1.84v7c0,2.52-1.36,4.26-4.29,4.26S198.25,162.81,198.25,160.32Z"/><path class="cls-1" d="M209.17,164.35V153.26H213c2.38,0,4.25.78,4.25,3.4s-2,3.48-4.32,3.48h-2v4.21Zm1.86-5.84h2.05c1.65,0,2.4-.55,2.4-1.8s-.73-1.74-2.41-1.74h-2Z"/><path class="cls-1" d="M218.9,164.35V153.26h7.16V155h-5.29v2.76h4l.27,1.66h-4.32v3.24h5.59v1.69Z"/><path class="cls-1" d="M228,164.35V153.26h4c2.62,0,4.15,1,4.15,3.4a2.88,2.88,0,0,1-2.44,3.07l2.64,4.47-1.83.3L231.83,160h-2v4.38Zm1.84-6h2c1.59,0,2.41-.45,2.41-1.71s-.82-1.66-2.41-1.66h-2Z"/><path class="cls-1" d="M241,164.4l-3.81-11,1.81-.3,2.89,8.8h0l2.92-8.65h1.77l-3.85,11.13Z"/><path class="cls-1" d="M248.17,164.35V153.26H250v11.09Z"/><path class="cls-1" d="M251.7,162.67l1-1.42a5.36,5.36,0,0,0,3.61,1.65c1.39,0,2.34-.48,2.34-1.44s-.71-1.42-2.53-2c-2.14-.63-3.85-1.2-3.85-3.31,0-1.87,1.56-3.12,3.78-3.12a6.46,6.46,0,0,1,4.14,1.59l-.88,1.5a5.12,5.12,0,0,0-3.22-1.39c-1.26,0-2,.55-2,1.27,0,1,.79,1.39,2.61,1.93,2.1.61,3.78,1.29,3.78,3.39,0,1.8-1.47,3.22-4.11,3.22A6.68,6.68,0,0,1,251.7,162.67Z"/><path class="cls-1" d="M261.83,158.81c0-3.73,2.32-5.75,5-5.75s5,2,5,5.75-2.32,5.75-5,5.75S261.83,162.54,261.83,158.81Zm8.14,0c0-2.52-1.26-4-3.13-4s-3.13,1.51-3.13,4,1.26,4.08,3.13,4.08S270,161.32,270,158.81Z"/><path class="cls-1" d="M273.75,164.35V153.26h4c2.62,0,4.15,1,4.15,3.4a2.88,2.88,0,0,1-2.44,3.07l2.64,4.47-1.83.3L277.56,160h-2v4.38Zm1.84-6h2c1.59,0,2.41-.45,2.41-1.71s-.82-1.66-2.41-1.66h-2Z"/><path class="cls-1" d="M286.37,164.35v-4.78l-3.7-6.16,1.78-.3,2.86,4.87,2.79-4.72H292l-3.79,6.31v4.78Z"/><path class="cls-1" d="M297.27,164.35V153.26h4.2c2.23,0,3.87.72,3.87,2.76a2.42,2.42,0,0,1-2,2.55v0a2.54,2.54,0,0,1,2.29,2.71c0,2-1.66,3-3.93,3Zm1.84-6.46h2.17c1.47,0,2.25-.52,2.25-1.53s-.66-1.47-2.22-1.47h-2.2Zm0,4.84h2.43c1.59,0,2.29-.58,2.29-1.6s-.91-1.65-2.49-1.65h-2.23Z"/><path class="cls-1" d="M307.08,158.81c0-3.73,2.32-5.75,5-5.75s5,2,5,5.75-2.32,5.75-5,5.75S307.08,162.54,307.08,158.81Zm8.14,0c0-2.52-1.26-4-3.13-4s-3.13,1.51-3.13,4,1.26,4.08,3.13,4.08S315.22,161.32,315.22,158.81Z"/><path class="cls-1" d="M317.64,164.35l3.93-11.13h1.83l3.88,11-1.81.3-.94-2.79h-4.21l-.93,2.64Zm3.22-4.29H324l-1.53-4.5h0Z"/><path class="cls-1" d="M328.82,164.35V153.26h4c2.62,0,4.15,1,4.15,3.4a2.88,2.88,0,0,1-2.44,3.07l2.64,4.47-1.83.3L332.62,160h-2v4.38Zm1.84-6h2c1.59,0,2.41-.45,2.41-1.71s-.82-1.66-2.41-1.66h-2Z"/><path class="cls-1" d="M339,164.35V153.26h3.15c3.48,0,5.77,1.62,5.77,5.5s-2.34,5.59-5.77,5.59Zm1.86-1.69h1.45c2.56,0,3.73-1.17,3.73-3.87s-1.18-3.79-3.76-3.79h-1.42Z"/><path class="cls-1" d="M223.57,90c0-3.48,1.95-5.71,4.85-5.71a4.37,4.37,0,0,1,4.18,2.62l-1.6.87A2.56,2.56,0,0,0,228.5,86c-1.38,0-3,.94-3,3.94s1.48,4.17,3.06,4.17a2.5,2.5,0,0,0,2.61-2.5H229l-.27-1.51h4.17v5.48h-1.54V94.36h0a3.31,3.31,0,0,1-3.06,1.45C225.14,95.82,223.57,93.34,223.57,90Z"/><path class="cls-1" d="M234.56,90.06c0-3.73,2.32-5.75,5-5.75s5,2,5,5.75-2.32,5.75-5,5.75S234.56,93.79,234.56,90.06Zm8.14,0c0-2.52-1.26-4-3.13-4s-3.13,1.51-3.13,4,1.26,4.08,3.13,4.08S242.7,92.58,242.7,90.06Z"/><path class="cls-1" d="M249,95.65l-3.81-11,1.81-.3,2.89,8.8h0l2.92-8.65h1.77l-3.85,11.13Z"/><path class="cls-1" d="M256.12,95.61V84.52h7.16v1.74H258V89h4l.27,1.66H258v3.24h5.59v1.69Z"/><path class="cls-1" d="M265.25,95.61V84.52h4c2.62,0,4.15,1,4.15,3.4A2.88,2.88,0,0,1,270.93,91l2.64,4.47-1.83.3-2.68-4.53h-2v4.38Zm1.84-6h2c1.59,0,2.41-.45,2.41-1.71s-.82-1.66-2.41-1.66h-2Z"/><path class="cls-1" d="M275.42,95.61V84.52h1.9l5.24,7.93h0V84.52h1.74V95.61h-1.71l-5.45-8.08h0v8.08Z"/><path class="cls-1" d="M286.82,95.61V84.52h1.86V95.61Z"/><path class="cls-1" d="M291.15,95.61V84.52h1.9l5.25,7.93h0V84.52h1.74V95.61h-1.71l-5.45-8.08h0v8.08Z"/><path class="cls-1" d="M302,90c0-3.48,1.95-5.71,4.85-5.71A4.37,4.37,0,0,1,311,86.93l-1.6.87a2.56,2.56,0,0,0-2.5-1.77c-1.38,0-3,.94-3,3.94s1.48,4.17,3.06,4.17a2.5,2.5,0,0,0,2.61-2.5h-2.11l-.27-1.51h4.17v5.48H309.8V94.36h0a3.31,3.31,0,0,1-3.06,1.45C303.58,95.82,302,93.34,302,90Z"/><path class="cls-1" d="M236.55,112c0-3.64,2.08-5.72,4.81-5.72a4.18,4.18,0,0,1,4.17,2.56l-1.59.94a2.66,2.66,0,0,0-2.58-1.78c-1.89,0-2.94,1.56-2.94,4s1.11,4.12,3,4.12a2.78,2.78,0,0,0,2.71-2.07l1.62.73a4.24,4.24,0,0,1-4.33,3C238.61,117.79,236.55,115.76,236.55,112Z"/><path class="cls-1" d="M247,112c0-3.73,2.32-5.75,5-5.75s5,2,5,5.75-2.32,5.75-5,5.75S247,115.77,247,112Zm8.14,0c0-2.52-1.26-4-3.13-4s-3.13,1.51-3.13,4,1.26,4.08,3.13,4.08S255.11,114.56,255.11,112Z"/><path class="cls-1" d="M258.77,113.55V106.5h1.87v7c0,1.59.73,2.62,2.44,2.62s2.43-1,2.43-2.61v-7h1.84v7c0,2.52-1.36,4.26-4.29,4.26S258.77,116,258.77,113.55Z"/><path class="cls-1" d="M269.68,117.58V106.5h1.9l5.24,7.93h0V106.5h1.74v11.09h-1.71l-5.46-8.08h0v8.08Z"/><path class="cls-1" d="M280.54,112c0-3.64,2.08-5.72,4.81-5.72a4.18,4.18,0,0,1,4.17,2.56l-1.59.94a2.66,2.66,0,0,0-2.58-1.78c-1.89,0-2.94,1.56-2.94,4s1.11,4.12,3,4.12a2.78,2.78,0,0,0,2.71-2.07l1.62.73a4.24,4.24,0,0,1-4.33,3C282.59,117.79,280.54,115.76,280.54,112Z"/><path class="cls-1" d="M291.52,117.58V106.5h1.86v11.09Z"/><path class="cls-1" d="M295.85,117.58V106.5h1.87v9.4h5l.29,1.69Z"/><line class="cls-8" x1="143.8" y1="187.35" x2="2.44" y2="187.35"/><path class="cls-9" d="M274.65,38a18.92,18.92,0,0,1-17,0A24.33,24.33,0,0,0,239.13,61.6V67H293.2V61.6A24.34,24.34,0,0,0,274.65,38Zm-.37,20.93h-8.11V53.49h13.52Zm-8.11-24.33A13.52,13.52,0,1,0,252.65,21,13.52,13.52,0,0,0,266.17,34.57Z"/></g></svg>