<svg width="437" height="326" viewBox="0 0 437 326" xmlns="http://www.w3.org/2000/svg"><title>Group</title><g fill="none" fill-rule="evenodd"><g fill="#FFF"><path d="M429.91 161.663c0 88.83-72.012 160.842-160.843 160.842-88.83 0-160.84-72.011-160.84-160.842C108.226 72.832 180.236.82 269.066.82c88.831 0 160.842 72.01 160.842 160.842z"/><path d="M.477 220.605h150.852v-27.972H.477zm0 49.951h150.852v-31.969H.477z"/></g><path d="M9.978 209.981c2.05 0 3.034-1.007 3.034-2.41 0-1.282-.888-1.966-1.967-2.157v-.024c.9-.204 1.679-.863 1.679-2.05 0-1.403-1.007-2.23-3.01-2.23h-3.08v8.871h3.344zm-2.505-8.104h2.194c1.534 0 2.218.492 2.218 1.57 0 1.091-.828 1.607-2.242 1.607h-2.17v-3.177zm0 3.92h2.23c1.522 0 2.47.552 2.47 1.739 0 1.066-.684 1.69-2.207 1.69H7.473v-3.429zM18.2 210.15c1.595 0 2.686-.827 3.213-2.206l-.731-.336c-.444 1.14-1.271 1.775-2.47 1.775-1.738 0-2.853-1.45-2.853-3.896 0-2.254 1.09-3.765 2.817-3.765 1.187 0 1.894.564 2.314 1.559l.731-.384c-.54-1.235-1.534-1.954-3.045-1.954-2.194 0-3.668 1.894-3.668 4.568 0 2.805 1.462 4.639 3.692 4.639zm10.627-.168v-.78h-4.7v-3.524h3.453l-.132-.767h-3.32v-3.009h4.447v-.791h-5.299v8.871h5.55zM9.978 258.771c2.05 0 3.034-1.007 3.034-2.41 0-1.282-.888-1.966-1.967-2.157v-.024c.9-.204 1.679-.864 1.679-2.05 0-1.403-1.007-2.23-3.01-2.23h-3.08v8.871h3.344zm-2.505-8.104h2.194c1.534 0 2.218.492 2.218 1.57 0 1.091-.828 1.607-2.242 1.607h-2.17v-3.177zm0 3.92h2.23c1.522 0 2.47.552 2.47 1.738 0 1.067-.684 1.69-2.207 1.69H7.473v-3.428zm10.518 4.352c1.595 0 2.686-.827 3.213-2.206l-.731-.336c-.444 1.14-1.27 1.775-2.47 1.775-1.738 0-2.853-1.45-2.853-3.897 0-2.253 1.091-3.764 2.817-3.764 1.187 0 1.895.564 2.314 1.559l.731-.384c-.539-1.235-1.534-1.954-3.045-1.954-2.193 0-3.668 1.894-3.668 4.567 0 2.806 1.463 4.64 3.692 4.64zm10.413-.168v-.78h-4.699v-3.524h3.453l-.132-.767h-3.321v-3.009h4.448v-.791h-5.3v8.871h5.551zm4.15-.899v-2.685h2.66v-.72h-2.66v-2.685h-.732v2.685H29.15v.72h2.673v2.685h.731zm10.633.9c2.05 0 3.033-1.008 3.033-2.41 0-1.283-.887-1.967-1.966-2.158v-.024c.9-.204 1.678-.864 1.678-2.05 0-1.403-1.007-2.23-3.009-2.23h-3.08v8.871h3.344zm-2.506-8.105h2.194c1.535 0 2.218.492 2.218 1.57 0 1.091-.827 1.607-2.242 1.607h-2.17v-3.177zm0 3.92h2.23c1.523 0 2.47.552 2.47 1.738 0 1.067-.683 1.69-2.206 1.69h-2.494v-3.428zm9.567 3.585c-1.055 0-1.918-.816-1.918-2.554 0-1.786.851-2.59 1.894-2.59.755 0 1.343.372 1.99 1.032v3.08c-.635.648-1.187 1.032-1.966 1.032zm-.144.707c.947 0 1.607-.468 2.11-1.019l.084.911h.743v-8.931l-.827.12v3.368c-.48-.563-1.223-.995-2.086-.995-1.462 0-2.625 1.091-2.625 3.297 0 2.206 1.15 3.249 2.601 3.249zm10.532-.108v-.78h-4.7v-3.524h3.453l-.132-.767h-3.32v-3.009h4.447v-.791h-5.299v8.871h5.55zM9.475 161.482v-1.355H5.003v-2.59h3.453l-.216-1.33H5.003v-2.206h4.232v-1.39h-5.73v8.87h5.97zm4.598.168c2.11 0 3.284-1.14 3.284-2.578 0-1.678-1.342-2.218-3.02-2.71-1.451-.43-2.087-.718-2.087-1.546 0-.575.576-1.019 1.583-1.019.935 0 1.87.492 2.577 1.115l.708-1.199c-.84-.695-1.954-1.27-3.31-1.27-1.773 0-3.02.995-3.02 2.493 0 1.69 1.367 2.146 3.08 2.65 1.463.443 2.027.803 2.027 1.582 0 .767-.755 1.151-1.87 1.151-1.091 0-2.206-.611-2.89-1.319l-.803 1.14c.9.85 2.146 1.51 3.74 1.51zm8.043-.168v-7.48h2.84l-.215-1.391h-6.857V154h2.733v7.48h1.499zm5.515 0v-3.5h1.57l2.146 3.62 1.462-.24-2.11-3.573c1.223-.311 1.955-1.042 1.955-2.457 0-1.882-1.223-2.721-3.321-2.721h-3.177v8.87h1.475zm0-7.505h1.63c1.27 0 1.93.348 1.93 1.33 0 1.008-.66 1.368-1.93 1.368h-1.63v-2.698zm9.722 7.66c2.338 0 3.429-1.39 3.429-3.404v-5.622h-1.475v5.574c0 1.283-.587 2.086-1.942 2.086-1.367 0-1.954-.827-1.954-2.098v-5.562h-1.498v5.646c0 1.99 1.09 3.38 3.44 3.38zm8.775.013c1.858 0 2.937-.947 3.464-2.41l-1.295-.587c-.347.995-1.067 1.654-2.17 1.654-1.546 0-2.433-1.247-2.433-3.297 0-1.942.84-3.189 2.35-3.189 1.067 0 1.714.6 2.062 1.427l1.27-.755c-.611-1.319-1.654-2.05-3.332-2.05-2.182 0-3.849 1.666-3.849 4.58 0 2.996 1.643 4.627 3.933 4.627zm8.182-.168v-7.48h2.84l-.215-1.391h-6.857V154h2.733v7.48h1.499zm7.42.156c2.338 0 3.43-1.39 3.43-3.405v-5.622h-1.475v5.574c0 1.283-.588 2.086-1.942 2.086-1.367 0-1.955-.827-1.955-2.098v-5.562H58.29v5.646c0 1.99 1.09 3.38 3.44 3.38zm6.79-.156v-3.5h1.571l2.146 3.62 1.463-.24-2.11-3.573c1.223-.311 1.954-1.042 1.954-2.457 0-1.882-1.223-2.721-3.32-2.721h-3.178v8.87h1.475zm0-7.505h1.631c1.271 0 1.93.348 1.93 1.33 0 1.008-.659 1.368-1.93 1.368h-1.63v-2.698zm7.5 7.505l.743-2.11h3.369l.755 2.23 1.45-.24-3.104-8.787H77.77l-3.141 8.907h1.39zm2.433-7.025h.024l1.223 3.596h-2.493l1.246-3.596zm8.11 7.193c2.11 0 3.285-1.14 3.285-2.578 0-1.678-1.342-2.218-3.02-2.71-1.451-.43-2.087-.718-2.087-1.546 0-.575.576-1.019 1.583-1.019.935 0 1.87.492 2.577 1.115l.707-1.199c-.839-.695-1.954-1.27-3.308-1.27-1.774 0-3.021.995-3.021 2.493 0 1.69 1.366 2.146 3.08 2.65 1.463.443 2.027.803 2.027 1.582 0 .767-.756 1.151-1.87 1.151-1.091 0-2.206-.611-2.89-1.319l-.803 1.14c.9.85 2.146 1.51 3.74 1.51zM5.1 177.462v-8.871H3.612v8.871h1.486zm3.489 0V171h.024l4.364 6.462h1.366v-8.871h-1.39v6.342h-.024l-4.196-6.342H7.21v8.871h1.38zm11.349 0v-7.48h2.841l-.216-1.391h-6.857v1.39h2.733v7.481h1.499zm10.12 0v-1.355h-4.472v-2.589h3.453l-.216-1.33h-3.237v-2.207h4.232v-1.39h-5.73v8.871h5.97zm2.938 0v-3.5h1.57l2.147 3.62 1.462-.24-2.11-3.572c1.223-.312 1.954-1.043 1.954-2.458 0-1.882-1.223-2.721-3.32-2.721h-3.177v8.871h1.474zm0-7.504h1.63c1.271 0 1.93.347 1.93 1.33 0 1.007-.659 1.367-1.93 1.367h-1.63v-2.697zm8.153 7.504v-6.69h.024c.192.864.324 1.235.528 1.87l1.726 4.82h1.33l1.739-4.82c.192-.623.384-1.186.515-1.81h.024v6.63h1.45v-8.871h-2.001l-2.314 7.037h-.024l-2.385-7.037h-1.967v8.871h1.355zm15.392 0v-1.355h-4.472v-2.589h3.453l-.216-1.33h-3.237v-2.207h4.232v-1.39h-5.73v8.871h5.97zm3.98 0c2.746 0 4.616-1.307 4.616-4.471 0-3.105-1.834-4.4-4.615-4.4h-2.518v8.871h2.518zm-1.03-7.48h1.139c2.062 0 3.009.959 3.009 3.033 0 2.157-.935 3.092-2.985 3.092H59.49v-6.126zm8.87 7.48v-8.871h-1.486v8.871h1.487zm2.778 0l.743-2.11h3.37l.754 2.23 1.451-.24-3.105-8.787h-1.463l-3.14 8.907h1.39zm2.434-7.025h.024l1.223 3.596h-2.494l1.247-3.596zm8.22 7.193c2.11 0 3.285-1.139 3.285-2.578 0-1.678-1.343-2.217-3.021-2.709-1.45-.431-2.086-.72-2.086-1.546 0-.576.575-1.02 1.582-1.02.935 0 1.87.492 2.578 1.116l.707-1.2c-.84-.695-1.954-1.27-3.309-1.27-1.774 0-3.02.995-3.02 2.494 0 1.69 1.366 2.145 3.08 2.649 1.463.444 2.026.803 2.026 1.582 0 .768-.755 1.151-1.87 1.151-1.091 0-2.206-.611-2.89-1.318l-.802 1.138c.899.852 2.145 1.511 3.74 1.511z" fill="#084FA4"/><path fill="#002E65" d="M101.232 325.502h335.67v-42.958h-335.67z"/><path fill="#004283" d="M130.204 276.55h277.727v-42.958H130.204z"/><path fill="#0064A8" d="M152.182 227.598h233.77V184.64h-233.77z"/><path fill="#00A6A6" d="M173.162 178.646h191.811v-42.958H173.162z"/><path fill="#00CCCD" d="M189.146 129.695h159.843V71.752H189.146z"/><path d="M195.86 309.2v-1.693h-5.589v-3.237h4.316l-.27-1.663h-4.046v-2.758h5.29v-1.738h-7.163v11.09h7.463zm9.446 2.892l.285-1.588h-.9c-1.213 0-2.157-.165-2.367-1.184 2.323-.345 4.136-2.353 4.136-5.664 0-3.732-2.308-5.755-4.975-5.755-2.683 0-5.005 2.023-5.005 5.755 0 3.206 1.693 5.23 3.94 5.634.046 1.618 1.274 2.802 3.507 2.802h1.379zm-3.821-4.36c-1.889 0-3.147-1.559-3.147-4.076 0-2.518 1.258-4.032 3.147-4.032 1.858 0 3.102 1.514 3.102 4.032 0 2.517-1.244 4.076-3.102 4.076zm11.176 1.663c2.922 0 4.285-1.738 4.285-4.256v-7.028h-1.843v6.968c0 1.604-.734 2.608-2.427 2.608-1.709 0-2.443-1.034-2.443-2.623v-6.953h-1.873v7.058c0 2.488 1.364 4.226 4.3 4.226zm8.712-.195v-11.089h-1.858v11.09h1.858zm4.499 0v-4.21h1.963c2.277 0 4.315-.75 4.315-3.477 0-2.623-1.873-3.402-4.255-3.402h-3.882v11.09h1.859zm0-9.38h2.038c1.678 0 2.412.569 2.412 1.738 0 1.243-.749 1.798-2.397 1.798h-2.053v-3.537zm12.716 9.59c2.668 0 4.99-2.023 4.99-5.754 0-3.732-2.322-5.755-4.99-5.755-2.682 0-5.005 2.023-5.005 5.755 0 3.73 2.323 5.754 5.005 5.754zm0-1.678c-1.873 0-3.132-1.559-3.132-4.076 0-2.518 1.259-4.032 3.132-4.032 1.873 0 3.132 1.514 3.132 4.032 0 2.517-1.259 4.076-3.132 4.076zm14.047 1.468c3.432 0 5.77-1.633 5.77-5.59 0-3.88-2.293-5.499-5.77-5.499h-3.147v11.09h3.147zm-1.288-9.35h1.423c2.578 0 3.762 1.198 3.762 3.79 0 2.698-1.17 3.867-3.732 3.867h-1.453v-7.658zm16.603 9.35v-1.693h-5.59v-3.237h4.317l-.27-1.663h-4.046v-2.758h5.29v-1.738h-7.163v11.09h7.462zm13.223 0v-1.693h-5.59v-3.237h4.317l-.27-1.663h-4.046v-2.758h5.29v-1.738h-7.163v11.09h7.462zm3.365 0l2.727-4.406 2.817 4.556 1.888-.3-3.611-5.74 3.237-5.199h-1.963l-2.248 3.746-2.383-3.896-1.948.3 3.207 5.05-3.687 5.89h1.964zm11.074 0v-4.21h1.963c2.277 0 4.315-.75 4.315-3.477 0-2.623-1.873-3.402-4.255-3.402h-3.882v11.09h1.859zm0-9.38h2.038c1.678 0 2.412.569 2.412 1.738 0 1.243-.749 1.798-2.397 1.798h-2.053v-3.537zm15.502 9.38v-1.693h-5.59v-3.237h4.316l-.27-1.663h-4.046v-2.758h5.29v-1.738h-7.163v11.09h7.463zm3.674 0v-4.376h1.963l2.683 4.526 1.828-.3-2.637-4.465c1.528-.39 2.442-1.304 2.442-3.072 0-2.353-1.528-3.402-4.15-3.402h-3.972v11.09h1.843zm0-9.38h2.038c1.589 0 2.413.434 2.413 1.663 0 1.258-.824 1.708-2.413 1.708h-2.038v-3.372zm12.715 9.38v-9.35h3.552l-.27-1.739h-8.571v1.738h3.416v9.351h1.873zm8.93.21c2.667 0 4.99-2.023 4.99-5.754 0-3.732-2.323-5.755-4.99-5.755-2.682 0-5.005 2.023-5.005 5.755 0 3.73 2.323 5.754 5.005 5.754zm0-1.678c-1.873 0-3.132-1.559-3.132-4.076 0-2.518 1.259-4.032 3.132-4.032 1.873 0 3.132 1.514 3.132 4.032 0 2.517-1.259 4.076-3.132 4.076zm10.679 1.678c2.637 0 4.106-1.424 4.106-3.222 0-2.098-1.679-2.772-3.777-3.387-1.813-.54-2.607-.899-2.607-1.933 0-.719.72-1.273 1.978-1.273 1.169 0 2.338.614 3.222 1.393l.884-1.498c-1.05-.87-2.443-1.589-4.136-1.589-2.218 0-3.776 1.244-3.776 3.117 0 2.113 1.708 2.682 3.85 3.312 1.829.554 2.533 1.004 2.533 1.978 0 .959-.944 1.439-2.337 1.439-1.364 0-2.758-.765-3.612-1.649l-1.004 1.424c1.124 1.064 2.683 1.888 4.676 1.888zm-108.528-49.392c2.322 0 3.671-1.183 4.33-3.012l-1.618-.734c-.434 1.244-1.334 2.068-2.712 2.068-1.933 0-3.042-1.558-3.042-4.121 0-2.428 1.049-3.986 2.937-3.986 1.334 0 2.143.75 2.577 1.783l1.589-.944c-.764-1.648-2.068-2.562-4.166-2.562-2.727 0-4.81 2.083-4.81 5.724 0 3.746 2.053 5.784 4.915 5.784zm10.565 0c2.668 0 4.99-2.023 4.99-5.754 0-3.731-2.322-5.754-4.99-5.754-2.682 0-5.005 2.023-5.005 5.754 0 3.731 2.323 5.754 5.005 5.754zm0-1.678c-1.873 0-3.132-1.558-3.132-4.076s1.26-4.031 3.132-4.031c1.874 0 3.132 1.513 3.132 4.031s-1.258 4.076-3.132 4.076zm8.96 1.469v-4.376h1.963l2.682 4.525 1.828-.3-2.637-4.465c1.528-.39 2.442-1.304 2.442-3.072 0-2.353-1.528-3.402-4.15-3.402h-3.972v11.09h1.844zm0-9.381h2.038c1.588 0 2.412.434 2.412 1.663 0 1.259-.824 1.708-2.412 1.708h-2.038v-3.371zm15.988 9.38v-1.693h-5.59v-3.237h4.317l-.27-1.663h-4.046v-2.757h5.29v-1.739h-7.163v11.09h7.462zm7.42.21c2.308 0 3.357-1.288 3.357-3.356v-7.943H283v7.718c0 1.393-.615 1.948-1.574 1.948-.794 0-1.453-.42-1.948-.96l-.854 1.47c.614.629 1.513 1.123 2.892 1.123zm9.664 0c2.637 0 4.106-1.423 4.106-3.221 0-2.098-1.679-2.773-3.777-3.387-1.813-.54-2.607-.9-2.607-1.933 0-.72.72-1.274 1.978-1.274 1.169 0 2.338.614 3.222 1.394l.884-1.499c-1.05-.87-2.443-1.588-4.136-1.588-2.218 0-3.776 1.243-3.776 3.117 0 2.113 1.708 2.682 3.85 3.311 1.829.555 2.533 1.004 2.533 1.978 0 .96-.944 1.439-2.337 1.439-1.364 0-2.758-.764-3.612-1.648l-1.004 1.423c1.124 1.064 2.683 1.888 4.676 1.888zm10.212-.21v-9.35h3.551l-.27-1.739h-8.571v1.739h3.416v9.35h1.874zm-99.043-46.993c2.322 0 3.67-1.184 4.33-3.012l-1.618-.735c-.435 1.244-1.334 2.068-2.713 2.068-1.933 0-3.042-1.558-3.042-4.12 0-2.428 1.05-3.987 2.937-3.987 1.334 0 2.143.75 2.578 1.784l1.588-.945c-.764-1.648-2.068-2.562-4.166-2.562-2.727 0-4.81 2.083-4.81 5.724 0 3.747 2.053 5.785 4.915 5.785zm10.532 0c2.668 0 4.99-2.023 4.99-5.755 0-3.731-2.322-5.754-4.99-5.754-2.682 0-5.005 2.023-5.005 5.754 0 3.732 2.323 5.755 5.005 5.755zm0-1.679c-1.873 0-3.131-1.558-3.131-4.076 0-2.517 1.258-4.03 3.131-4.03 1.874 0 3.132 1.513 3.132 4.03 0 2.518-1.258 4.076-3.132 4.076zm11.599 1.679c2.667 0 4.99-2.023 4.99-5.755 0-3.731-2.323-5.754-4.99-5.754-2.682 0-5.005 2.023-5.005 5.754 0 3.732 2.323 5.755 5.005 5.755zm0-1.679c-1.873 0-3.132-1.558-3.132-4.076 0-2.517 1.259-4.03 3.132-4.03 1.873 0 3.132 1.513 3.132 4.03 0 2.518-1.259 4.076-3.132 4.076zm8.931 1.469v-4.376h1.963l2.683 4.526 1.828-.3-2.637-4.466c1.528-.39 2.442-1.303 2.442-3.072 0-2.352-1.528-3.401-4.15-3.401h-3.972v11.089h1.843zm0-9.38h2.038c1.589 0 2.413.434 2.413 1.662 0 1.26-.824 1.709-2.413 1.709h-2.038v-3.372zm11.647 9.38c3.431 0 5.77-1.634 5.77-5.59 0-3.88-2.294-5.5-5.77-5.5h-3.147v11.09h3.147zm-1.289-9.351h1.424c2.577 0 3.761 1.199 3.761 3.791 0 2.698-1.169 3.867-3.731 3.867h-1.454v-7.658zm11.086 9.35v-11.088h-1.858v11.089h1.858zm4.364 0v-8.076h.03l5.455 8.077h1.708v-11.09h-1.738v7.928h-.03l-5.245-7.927h-1.903v11.089h1.723zm10.617 0l.93-2.637h4.21l.944 2.788 1.813-.3-3.88-10.984h-1.83l-3.925 11.134h1.738zm3.042-8.78h.03l1.528 4.495h-3.116l1.558-4.496zm9.71 8.78c3.432 0 5.77-1.633 5.77-5.589 0-3.88-2.293-5.5-5.77-5.5h-3.146v11.09h3.146zm-1.288-9.35h1.423c2.578 0 3.762 1.199 3.762 3.791 0 2.698-1.17 3.867-3.732 3.867h-1.453v-7.658zm13.651 9.56c2.668 0 4.99-2.022 4.99-5.754 0-3.731-2.322-5.754-4.99-5.754-2.682 0-5.005 2.023-5.005 5.754 0 3.732 2.323 5.755 5.005 5.755zm0-1.678c-1.873 0-3.132-1.558-3.132-4.076 0-2.517 1.26-4.03 3.132-4.03 1.873 0 3.132 1.513 3.132 4.03 0 2.518-1.259 4.076-3.132 4.076zm8.932 1.469v-4.376h1.963l2.682 4.526 1.828-.3-2.637-4.466c1.528-.39 2.442-1.303 2.442-3.072 0-2.352-1.528-3.401-4.15-3.401h-3.972v11.089h1.844zm0-9.38h2.038c1.588 0 2.412.434 2.412 1.662 0 1.26-.824 1.709-2.412 1.709h-2.038v-3.372zm14.062 9.59c2.307 0 3.356-1.29 3.356-3.357v-7.942h-1.873v7.717c0 1.394-.614 1.948-1.573 1.948-.794 0-1.454-.42-1.948-.959l-.854 1.469c.614.63 1.513 1.124 2.892 1.124zm9.635 0c2.638 0 4.106-1.424 4.106-3.222 0-2.098-1.678-2.772-3.776-3.387-1.813-.54-2.607-.899-2.607-1.933 0-.72.719-1.274 1.978-1.274 1.168 0 2.337.615 3.221 1.394l.885-1.499c-1.05-.869-2.443-1.588-4.136-1.588-2.218 0-3.777 1.244-3.777 3.117 0 2.113 1.709 2.682 3.852 3.312 1.828.554 2.532 1.004 2.532 1.978 0 .959-.944 1.438-2.338 1.438-1.363 0-2.757-.764-3.611-1.648l-1.004 1.424c1.124 1.063 2.682 1.888 4.675 1.888zm10.598-.21c2.263 0 3.926-1.004 3.926-3.042 0-1.708-1.034-2.488-2.293-2.712v-.03c1.034-.225 1.963-1.02 1.963-2.548 0-2.038-1.633-2.757-3.866-2.757h-4.196v11.089h4.466zm-2.623-9.456h2.203c1.559 0 2.218.495 2.218 1.469 0 1.004-.78 1.528-2.248 1.528h-2.173v-2.997zm0 4.586h2.233c1.574 0 2.488.524 2.488 1.648 0 1.019-.704 1.603-2.293 1.603h-2.428v-3.251zM191.98 163.858c2.637 0 4.105-1.424 4.105-3.222 0-2.098-1.678-2.772-3.776-3.387-1.813-.54-2.607-.899-2.607-1.933 0-.72.719-1.274 1.978-1.274 1.169 0 2.337.615 3.222 1.394l.884-1.499c-1.05-.869-2.443-1.588-4.136-1.588-2.218 0-3.777 1.244-3.777 3.117 0 2.113 1.709 2.682 3.852 3.312 1.828.554 2.532 1.004 2.532 1.978 0 .959-.944 1.438-2.337 1.438-1.364 0-2.758-.764-3.612-1.648l-1.004 1.424c1.124 1.063 2.682 1.888 4.675 1.888zm10.032-.015c2.922 0 4.286-1.739 4.286-4.256v-7.028h-1.843v6.968c0 1.603-.735 2.607-2.428 2.607-1.708 0-2.443-1.034-2.443-2.622v-6.953h-1.873v7.058c0 2.487 1.364 4.226 4.301 4.226zm8.64-.195v-4.211h1.962c2.278 0 4.316-.75 4.316-3.477 0-2.622-1.873-3.401-4.256-3.401h-3.881v11.089h1.858zm0-9.38h2.037c1.678 0 2.413.569 2.413 1.737 0 1.244-.75 1.799-2.398 1.799h-2.053v-3.537zm15.5 9.38v-1.693h-5.59v-3.237h4.316l-.27-1.664h-4.046v-2.757h5.29v-1.738h-7.163v11.089h7.463zm3.674 0v-4.376h1.963l2.683 4.526 1.828-.3-2.637-4.466c1.528-.39 2.442-1.303 2.442-3.072 0-2.352-1.528-3.401-4.15-3.401h-3.972v11.089h1.843zm0-9.38h2.038c1.589 0 2.413.434 2.413 1.662 0 1.26-.824 1.709-2.413 1.709h-2.038v-3.372zm12.661 9.425l3.852-11.134h-1.769l-2.922 8.646h-.03l-2.892-8.796-1.813.3 3.806 10.984h1.768zm7.466-.045v-11.09h-1.858v11.09h1.858zm6.517.21c2.638 0 4.106-1.424 4.106-3.222 0-2.098-1.678-2.772-3.776-3.387-1.813-.54-2.608-.899-2.608-1.933 0-.72.72-1.274 1.978-1.274 1.17 0 2.338.615 3.222 1.394l.884-1.499c-1.049-.869-2.442-1.588-4.136-1.588-2.217 0-3.776 1.244-3.776 3.117 0 2.113 1.708 2.682 3.851 3.312 1.829.554 2.533 1.004 2.533 1.978 0 .959-.944 1.438-2.338 1.438-1.363 0-2.757-.764-3.611-1.648l-1.004 1.424c1.124 1.063 2.682 1.888 4.675 1.888zm10.475 0c2.667 0 4.99-2.023 4.99-5.755 0-3.731-2.323-5.754-4.99-5.754-2.683 0-5.005 2.023-5.005 5.754 0 3.732 2.322 5.755 5.005 5.755zm0-1.679c-1.873 0-3.132-1.558-3.132-4.076 0-2.517 1.259-4.03 3.132-4.03 1.873 0 3.132 1.513 3.132 4.03 0 2.518-1.259 4.076-3.132 4.076zm8.931 1.469v-4.376h1.963l2.682 4.526 1.829-.3-2.638-4.466c1.529-.39 2.443-1.303 2.443-3.072 0-2.352-1.529-3.401-4.151-3.401h-3.971v11.089h1.843zm0-9.38h2.038c1.588 0 2.413.434 2.413 1.662 0 1.26-.825 1.709-2.413 1.709h-2.038v-3.372zm12.346 9.38v-4.78l3.792-6.31h-1.918l-2.788 4.721-2.862-4.87-1.783.3 3.701 6.159v4.78h1.858zm13.072 0c2.263 0 3.926-1.004 3.926-3.042 0-1.708-1.034-2.488-2.293-2.712v-.03c1.034-.225 1.964-1.02 1.964-2.548 0-2.038-1.634-2.757-3.867-2.757h-4.196v11.089h4.466zm-2.622-9.456h2.202c1.559 0 2.218.495 2.218 1.469 0 1.004-.779 1.528-2.247 1.528h-2.173v-2.997zm0 4.586h2.232c1.574 0 2.488.524 2.488 1.648 0 1.019-.704 1.603-2.293 1.603h-2.427v-3.251zm13.055 5.08c2.667 0 4.99-2.023 4.99-5.755 0-3.731-2.323-5.754-4.99-5.754-2.683 0-5.005 2.023-5.005 5.754 0 3.732 2.322 5.755 5.005 5.755zm0-1.679c-1.873 0-3.132-1.558-3.132-4.076 0-2.517 1.259-4.03 3.132-4.03 1.873 0 3.132 1.513 3.132 4.03 0 2.518-1.259 4.076-3.132 4.076zm6.862 1.469l.929-2.638h4.21l.945 2.788 1.813-.3-3.881-10.984h-1.829l-3.926 11.134h1.739zm3.042-8.782h.03l1.528 4.496h-3.117l1.559-4.496zm8.406 8.782v-4.376H332l2.683 4.526 1.828-.3-2.637-4.466c1.528-.39 2.442-1.303 2.442-3.072 0-2.352-1.528-3.401-4.15-3.401h-3.972v11.089h1.843zm0-9.38h2.038c1.589 0 2.413.434 2.413 1.662 0 1.26-.824 1.709-2.413 1.709h-2.038v-3.372zm11.647 9.38c3.432 0 5.77-1.634 5.77-5.59 0-3.88-2.294-5.5-5.77-5.5h-3.147v11.09h3.147zm-1.289-9.35h1.424c2.577 0 3.761 1.198 3.761 3.79 0 2.698-1.169 3.867-3.731 3.867h-1.454v-7.658zM227.794 95.105c1.529 0 2.608-.614 3.057-1.453h.03v1.243h1.544v-5.484h-4.166l.27 1.513h2.113c-.12 1.559-1.14 2.503-2.608 2.503-1.573 0-3.057-1.17-3.057-4.166 0-2.997 1.663-3.941 3.042-3.941 1.244 0 2.038.66 2.503 1.768l1.603-.87c-.84-1.842-2.458-2.622-4.18-2.622-2.908 0-4.856 2.233-4.856 5.71 0 3.327 1.573 5.8 4.705 5.8zm11.452 0c2.667 0 4.99-2.023 4.99-5.754 0-3.732-2.323-5.755-4.99-5.755-2.682 0-5.005 2.023-5.005 5.755 0 3.731 2.323 5.754 5.005 5.754zm0-1.678c-1.873 0-3.132-1.559-3.132-4.076 0-2.518 1.259-4.031 3.132-4.031 1.873 0 3.132 1.513 3.132 4.03 0 2.518-1.259 4.077-3.132 4.077zm10.758 1.513l3.851-11.134h-1.768l-2.922 8.647h-.03l-2.892-8.797-1.814.3 3.807 10.984h1.768zm13-.045v-1.693h-5.59v-3.237h4.316l-.27-1.663h-4.046v-2.757h5.29v-1.739h-7.163v11.09h7.463zm3.674 0V90.52h1.963l2.683 4.525 1.828-.3-2.638-4.465c1.529-.39 2.443-1.304 2.443-3.072 0-2.353-1.529-3.402-4.151-3.402h-3.971v11.09h1.843zm0-9.38h2.038c1.589 0 2.413.434 2.413 1.663 0 1.259-.824 1.708-2.413 1.708h-2.038v-3.371zm10.223 9.38v-8.077h.03l5.455 8.077h1.708V83.806h-1.738v7.927h-.03l-5.245-7.927h-1.903v11.09h1.723zm11.71 0V83.806h-1.859v11.09h1.859zm4.363 0v-8.077h.03l5.455 8.077h1.708V83.806h-1.738v7.927h-.03l-5.245-7.927h-1.903v11.09h1.723zm14.009.21c1.528 0 2.607-.614 3.057-1.453h.03v1.243h1.543v-5.484h-4.166l.27 1.513h2.113c-.12 1.559-1.14 2.503-2.608 2.503-1.573 0-3.057-1.17-3.057-4.166 0-2.997 1.664-3.941 3.042-3.941 1.244 0 2.038.66 2.503 1.768l1.603-.87c-.839-1.842-2.457-2.622-4.18-2.622-2.908 0-4.856 2.233-4.856 5.71 0 3.327 1.574 5.8 4.706 5.8zm-66.002 21.984c2.323 0 3.672-1.184 4.331-3.012l-1.618-.735c-.435 1.244-1.334 2.068-2.713 2.068-1.933 0-3.042-1.558-3.042-4.12 0-2.428 1.05-3.987 2.937-3.987 1.334 0 2.143.75 2.578 1.783l1.588-.944c-.764-1.648-2.068-2.562-4.166-2.562-2.727 0-4.81 2.083-4.81 5.724 0 3.747 2.053 5.785 4.915 5.785zm10.408 0c2.667 0 4.99-2.023 4.99-5.755 0-3.731-2.323-5.754-4.99-5.754-2.683 0-5.005 2.023-5.005 5.754 0 3.732 2.322 5.755 5.005 5.755zm0-1.679c-1.873 0-3.132-1.558-3.132-4.076 0-2.517 1.259-4.03 3.132-4.03 1.873 0 3.132 1.513 3.132 4.03 0 2.518-1.26 4.076-3.132 4.076zm11.056 1.664c2.922 0 4.286-1.739 4.286-4.256v-7.028h-1.844v6.968c0 1.603-.734 2.607-2.427 2.607-1.709 0-2.443-1.034-2.443-2.622v-6.953h-1.873v7.058c0 2.487 1.364 4.226 4.3 4.226zm8.374-.195v-8.077h.03l5.454 8.077h1.709v-11.09h-1.739v7.928h-.03l-5.245-7.927h-1.903v11.089h1.724zm14.092.21c2.322 0 3.671-1.184 4.33-3.012l-1.618-.735c-.434 1.244-1.334 2.068-2.712 2.068-1.933 0-3.042-1.558-3.042-4.12 0-2.428 1.049-3.987 2.937-3.987 1.334 0 2.143.75 2.577 1.783l1.589-.944c-.764-1.648-2.068-2.562-4.166-2.562-2.727 0-4.81 2.083-4.81 5.724 0 3.747 2.053 5.785 4.915 5.785zm7.964-.21v-11.09h-1.858v11.09h1.858zm9.629 0l-.285-1.694h-4.96v-9.395h-1.874v11.089h7.119z" fill="#FFF"/><path d="M143.337 186.638H1.976" stroke="#0064A8"/><path d="M265.703 33.85c7.465 0 13.517-6.052 13.517-13.517s-6.052-13.518-13.517-13.518c-7.466 0-13.517 6.053-13.517 13.518 0 7.465 6.051 13.517 13.517 13.517zm8.11 24.33h-8.11v-5.406h13.517l-5.407 5.407zm.372-20.932a18.826 18.826 0 0 1-8.482 2.009 18.84 18.84 0 0 1-8.485-2.01c-10.66 2.597-18.55 12.193-18.55 23.638v5.406h54.069v-5.406c0-11.445-7.903-21.04-18.552-23.637z" fill="#00CCCD"/></g></svg>