<?xml version="1.0" encoding="utf-8"?>
<!-- Generator: Adobe Illustrator 21.0.0, SVG Export Plug-In . SVG Version: 6.00 Build 0)  -->
<!DOCTYPE svg PUBLIC "-//W3C//DTD SVG 1.1//EN" "http://www.w3.org/Graphics/SVG/1.1/DTD/svg11.dtd">
<svg version="1.1" id="Capa_1" xmlns="http://www.w3.org/2000/svg" xmlns:xlink="http://www.w3.org/1999/xlink" x="0px" y="0px"
	 viewBox="0 0 292 168.7" style="enable-background:new 0 0 292 168.7;" xml:space="preserve">
<style type="text/css">
	.st0{fill:#666666;}
	.st1{fill:#2ECDCD;}
	.st2{fill:#121212;}
	.st3{fill-rule:evenodd;clip-rule:evenodd;fill:#2ECDCD;}
	.st4{fill-rule:evenodd;clip-rule:evenodd;fill:#D3D3D3;}
</style>
<g>
	<title>sociedad-medioambiente-eng</title>
	<g>
		<path class="st0" d="M29,146.6v-8.1h0.8v8.1H29z"/>
		<path class="st0" d="M31.9,146.6v-8.1h0.8l4.5,6.7h0v-6.7H38v8.1h-0.7l-4.6-6.9h0v6.9H31.9z"/>
		<path class="st0" d="M42.6,146.6v-8.1h4.9v0.7h-4.1v2.8h3l0.1,0.7h-3.2v3.2h4.3v0.7H42.6z"/>
		<path class="st0" d="M49.1,146.6v-8.1H50l4.5,6.7h0v-6.7h0.7v8.1h-0.7l-4.6-6.9h0v6.9H49.1z"/>
		<path class="st0" d="M59.5,146.7l-2.8-8.1l0.8-0.1l2.5,7.2h0l2.4-7.1h0.8l-2.9,8.2H59.5z"/>
		<path class="st0" d="M64.6,146.6v-8.1h0.8v8.1H64.6z"/>
		<path class="st0" d="M67.5,146.6v-8.1h2.7c1.8,0,2.8,0.8,2.8,2.2c0,1.3-0.8,1.9-1.9,2.2l2.1,3.7l-0.8,0.1l-2.1-3.7h-2v3.7H67.5z
			 M68.2,142.3h1.9c1.3,0,2.1-0.4,2.1-1.6c0-1.1-0.7-1.5-2.1-1.5h-1.9V142.3z"/>
		<path class="st0" d="M74.4,142.6c0-2.6,1.5-4.2,3.4-4.2c2,0,3.4,1.7,3.4,4.2c0,2.6-1.5,4.2-3.4,4.2
			C75.8,146.8,74.4,145.1,74.4,142.6z M80.4,142.6c0-2.2-1.1-3.5-2.7-3.5c-1.5,0-2.7,1.3-2.7,3.5s1.1,3.5,2.7,3.5
			C79.3,146.1,80.4,144.8,80.4,142.6z"/>
		<path class="st0" d="M83,146.6v-8.1h0.8l4.5,6.7h0v-6.7H89v8.1h-0.7l-4.6-6.9h0v6.9H83z"/>
		<path class="st0" d="M91.1,146.6v-8.1h1l2.7,7.1h0l2.7-7.1h1v8.1h-0.8v-6.8h0c-0.1,0.4-0.3,0.9-0.5,1.4l-2.1,5.4h-0.7l-2.1-5.4
			c-0.2-0.5-0.3-0.9-0.5-1.4h0v6.8H91.1z"/>
		<path class="st0" d="M100.7,146.6v-8.1h4.9v0.7h-4.1v2.8h3l0.1,0.7h-3.2v3.2h4.3v0.7H100.7z"/>
		<path class="st0" d="M107.3,146.6v-8.1h0.8l4.5,6.7h0v-6.7h0.7v8.1h-0.7l-4.6-6.9h0v6.9H107.3z"/>
		<path class="st0" d="M117.4,146.6v-7.4h-2.6v-0.7h6l0.1,0.7h-2.7v7.4H117.4z"/>
		<path class="st0" d="M120.7,146.6l2.9-8.2h0.8l2.9,8.1l-0.8,0.1l-0.9-2.6h-3.3l-0.9,2.5H120.7z M122.5,143.4h2.8l-1.4-4h0
			L122.5,143.4z"/>
		<path class="st0" d="M128.7,146.6v-8.1h0.8v7.4h3.9l0.1,0.7H128.7z"/>
		<path class="st0" d="M134.9,146.6v-8.1h0.8v7.4h3.9l0.1,0.7H134.9z"/>
		<path class="st0" d="M142.1,146.6V143l-2.7-4.5l0.8-0.1l2.3,3.9l2.3-3.9h0.8l-2.7,4.6v3.6H142.1z"/>
		<path class="st0" d="M149,142.5c0-2.5,1.4-4.2,3.4-4.2c1.4,0,2.3,0.7,2.8,1.8l-0.7,0.4c-0.4-0.9-1-1.4-2.1-1.4
			c-1.6,0-2.6,1.4-2.6,3.5c0,2.2,1,3.6,2.6,3.6c1.1,0,1.9-0.6,2.3-1.6l0.7,0.3c-0.5,1.3-1.5,2-2.9,2
			C150.4,146.8,149,145.1,149,142.5z"/>
		<path class="st0" d="M156.9,146.6v-8.1h4.9v0.7h-4.1v2.8h3l0.1,0.7h-3.2v3.2h4.3v0.7H156.9z"/>
		<path class="st0" d="M163.5,146.6v-8.1h2.7c1.8,0,2.8,0.8,2.8,2.2c0,1.3-0.8,1.9-1.9,2.2l2.1,3.7l-0.8,0.1l-2.1-3.7h-2v3.7H163.5z
			 M164.3,142.3h1.9c1.3,0,2.1-0.4,2.1-1.6c0-1.1-0.7-1.5-2.1-1.5h-1.9V142.3z"/>
		<path class="st0" d="M172.8,146.6v-7.4h-2.6v-0.7h6l0.1,0.7h-2.7v7.4H172.8z"/>
		<path class="st0" d="M177.7,146.6v-8.1h0.8v8.1H177.7z"/>
		<path class="st0" d="M180.6,146.6v-8.1h4.8v0.7h-4v2.8h2.9l0.1,0.7h-3v3.9H180.6z"/>
		<path class="st0" d="M186.8,146.6v-8.1h0.8v8.1H186.8z"/>
		<path class="st0" d="M189.7,146.6v-8.1h4.9v0.7h-4.1v2.8h3l0.1,0.7h-3.2v3.2h4.3v0.7H189.7z"/>
		<path class="st0" d="M196.3,146.6v-8.1h2.1c2.6,0,4,1.4,4,4.1s-1.4,4.1-4,4.1H196.3z M197.1,145.9h1.4c2,0,3.1-1,3.1-3.4
			c0-2.3-1.1-3.3-3.2-3.3h-1.4V145.9z"/>
		<path class="st0" d="M206.6,146.6v-8.1h2.8c1.8,0,2.8,0.8,2.8,2c0,1.1-0.7,1.7-1.5,1.9v0c1,0.2,1.8,0.8,1.8,2
			c0,1.3-0.9,2.2-2.8,2.2H206.6z M207.4,142.1h2c1.3,0,2.1-0.5,2.1-1.5c0-1-0.6-1.4-2-1.4h-2V142.1z M207.4,145.9h2.3
			c1.4,0,2-0.6,2-1.6c0-1.1-0.9-1.6-2.3-1.6h-2V145.9z"/>
		<path class="st0" d="M214,143.9v-5.4h0.8v5.3c0,1.3,0.7,2.3,2.2,2.3c1.5,0,2.2-1,2.2-2.3v-5.3h0.8v5.4c0,1.6-1,2.9-3,2.9
			C215,146.8,214,145.5,214,143.9z"/>
		<path class="st0" d="M222.1,146.6v-8.1h0.8v8.1H222.1z"/>
		<path class="st0" d="M225,146.6v-8.1h0.8v7.4h3.9l0.1,0.7H225z"/>
		<path class="st0" d="M231.2,146.6v-8.1h2.1c2.6,0,4,1.4,4,4.1s-1.4,4.1-4,4.1H231.2z M232,145.9h1.4c2,0,3.1-1,3.1-3.4
			c0-2.3-1.1-3.3-3.2-3.3H232V145.9z"/>
		<path class="st0" d="M239.1,146.6v-8.1h0.8v8.1H239.1z"/>
		<path class="st0" d="M242,146.6v-8.1h0.8l4.5,6.7h0v-6.7h0.7v8.1h-0.7l-4.6-6.9h0v6.9H242z"/>
		<path class="st0" d="M249.8,142.5c0-2.6,1.4-4.2,3.4-4.2c1.3,0,2.3,0.7,2.8,1.9l-0.7,0.3c-0.4-1-1-1.5-2.1-1.5
			c-1.4,0-2.6,1.2-2.6,3.4c0,2.3,1.1,3.6,2.6,3.6c1.4,0,2.3-1,2.3-2.6h-1.9l-0.1-0.7h2.8v3.8h-0.7v-1.2h0c-0.4,0.7-1.1,1.3-2.4,1.3
			C251,146.8,249.8,145,249.8,142.5z"/>
		<path class="st0" d="M257.6,145.5l0.5-0.6c0.7,0.7,1.7,1.2,2.8,1.2c1.3,0,2.1-0.6,2.1-1.5c0-0.8-0.4-1.3-2.1-1.8
			c-1.7-0.6-2.6-1-2.6-2.4c0-1.2,1-2.1,2.5-2.1c1.2,0,2.1,0.5,2.9,1.2l-0.4,0.6c-0.7-0.7-1.5-1.1-2.5-1.1c-1.1,0-1.8,0.6-1.8,1.3
			c0,0.9,0.5,1.2,2.3,1.8c1.7,0.5,2.5,1.1,2.5,2.4c0,1.3-1.2,2.2-2.8,2.2C259.5,146.8,258.4,146.3,257.6,145.5z"/>
	</g>
	<g>
		<path class="st1" d="M108.3,76.8v-9.6h6.2v1.5h-4.6v2.4h3.5l0.2,1.4h-3.7v2.8h4.8v1.5H108.3z"/>
		<path class="st1" d="M116.2,76.8v-9.6h2.1l2.6,7.6h0l2.5-7.6h2.2v9.6H124v-7.2h0c-0.1,0.7-0.4,1.3-0.6,2l-1.9,5.2h-1.4l-1.9-5.2
			c-0.2-0.7-0.4-1.1-0.6-2h0v7.3H116.2z"/>
		<path class="st1" d="M127.7,76.8v-9.6h3.4c2.1,0,3.7,0.7,3.7,3c0,2.4-1.8,3-3.7,3h-1.7v3.7H127.7z M129.3,71.7h1.8
			c1.4,0,2.1-0.5,2.1-1.6c0-1-0.6-1.5-2.1-1.5h-1.8V71.7z"/>
		<path class="st1" d="M136.2,76.8v-9.6h1.6v8.2h4.3l0.2,1.5H136.2z"/>
		<path class="st1" d="M142.9,72c0-3.2,2-5,4.3-5c2.3,0,4.3,1.8,4.3,5c0,3.2-2,5-4.3,5C144.9,77,142.9,75.2,142.9,72z M149.9,72
			c0-2.2-1.1-3.5-2.7-3.5s-2.7,1.3-2.7,3.5s1.1,3.5,2.7,3.5S149.9,74.2,149.9,72z"/>
		<path class="st1" d="M155,76.8v-4.1l-3.2-5.3l1.5-0.3l2.5,4.2l2.4-4.1h1.7l-3.3,5.5v4.1H155z"/>
		<path class="st1" d="M161.2,76.8v-9.6h6.2v1.5h-4.6v2.4h3.5l0.2,1.4h-3.7v2.8h4.8v1.5H161.2z"/>
		<path class="st1" d="M169.1,76.8v-9.6h6.2v1.5h-4.6v2.4h3.5l0.2,1.4h-3.7v2.8h4.8v1.5H169.1z"/>
		<path class="st1" d="M176.7,75.3l0.9-1.2c0.7,0.8,2,1.4,3.1,1.4c1.2,0,2-0.4,2-1.2c0-0.8-0.6-1.2-2.2-1.7c-1.9-0.5-3.3-1-3.3-2.9
			c0-1.6,1.4-2.7,3.3-2.7c1.5,0,2.7,0.6,3.6,1.4l-0.8,1.3c-0.8-0.7-1.8-1.2-2.8-1.2c-1.1,0-1.7,0.5-1.7,1.1c0,0.9,0.7,1.2,2.3,1.7
			c1.8,0.5,3.3,1.1,3.3,2.9c0,1.6-1.3,2.8-3.6,2.8C179,77,177.7,76.3,176.7,75.3z"/>
	</g>
	<g>
		<path class="st2" d="M122.5,52.2v-6.8h-12.8v-1.3l12.1-18.5h2.4v18.2h4.4l0.3,1.6h-4.7v6.8H122.5z M111.8,43.7h10.7V27.6h-0.1
			L111.8,43.7z"/>
		<path class="st2" d="M131.1,38.9c0-8.3,3.4-13.8,9.5-13.8s9.4,5.5,9.4,13.8s-3.3,13.8-9.4,13.8S131.1,47.2,131.1,38.9z
			 M148.2,38.9c0-7.8-3.1-12.2-7.7-12.2c-4.8,0-7.7,4.4-7.7,12.2s3.1,12.2,7.7,12.2C145.3,51.1,148.2,46.7,148.2,38.9z"/>
		<path class="st2" d="M153.2,33.1c0-4.9,2.3-7.9,5.8-7.9c3.5,0,5.7,3,5.7,7.8c0,4.5-2.1,7.9-5.7,7.9
			C155.2,40.8,153.2,37.6,153.2,33.1z M162.9,33c0-3.7-1.4-6.3-4-6.3c-2.6,0-4,2.8-4,6.2c0,3.7,1.4,6.3,4,6.3S162.9,36.4,162.9,33z
			 M158.9,52.2l15.9-26.6h1.7l-15.9,26.6H158.9z M170.8,44.8c0-4.9,2.3-7.9,5.8-7.9c3.5,0,5.7,3,5.7,7.8c0,4.5-2.1,7.9-5.7,7.9
			C172.8,52.5,170.8,49.3,170.8,44.8z M180.5,44.7c0-3.7-1.4-6.3-4-6.3s-4,2.8-4,6.2c0,3.7,1.4,6.3,4,6.3S180.5,48.1,180.5,44.7z"/>
	</g>
	<g>
		<g>
			<g>
				<path class="st3" d="M29.5,106.5c-1.1,0.6-2.3,0.9-3.6,0.9c-1.3,0-2.6-0.3-3.6-0.9c-4.6,1.1-8,5.2-8,10.2v2.3h23.3v-2.3
					C37.5,111.7,34.1,107.6,29.5,106.5z M29.3,115.5h-3.5v-2.3h5.8L29.3,115.5z M25.9,105c3.2,0,5.8-2.6,5.8-5.8
					c0-3.2-2.6-5.8-5.8-5.8S20,96,20,99.2C20,102.4,22.6,105,25.9,105z"/>
			</g>
		</g>
		<g>
			<g>
				<path class="st3" d="M56.2,106.5c-1.1,0.6-2.3,0.9-3.6,0.9c-1.3,0-2.6-0.3-3.6-0.9c-4.6,1.1-8,5.2-8,10.2v2.3h23.3v-2.3
					C64.2,111.7,60.8,107.6,56.2,106.5z M56.1,115.5h-3.5v-2.3h5.8L56.1,115.5z M52.6,105c3.2,0,5.8-2.6,5.8-5.8
					c0-3.2-2.6-5.8-5.8-5.8c-3.2,0-5.8,2.6-5.8,5.8C46.7,102.4,49.4,105,52.6,105z"/>
			</g>
		</g>
		<g>
			<g>
				<path class="st3" d="M82.9,106.5c-1.1,0.6-2.3,0.9-3.6,0.9c-1.3,0-2.6-0.3-3.6-0.9c-4.6,1.1-8,5.2-8,10.2v2.3h23.3v-2.3
					C90.9,111.7,87.5,107.6,82.9,106.5z M82.8,115.5h-3.5v-2.3h5.8L82.8,115.5z M79.3,105c3.2,0,5.8-2.6,5.8-5.8
					c0-3.2-2.6-5.8-5.8-5.8c-3.2,0-5.8,2.6-5.8,5.8C73.5,102.4,76.1,105,79.3,105z"/>
			</g>
		</g>
		<g>
			<g>
				<path class="st3" d="M109.6,106.5c-1.1,0.6-2.3,0.9-3.6,0.9c-1.3,0-2.6-0.3-3.6-0.9c-4.6,1.1-8,5.2-8,10.2v2.3h23.3v-2.3
					C117.6,111.7,114.2,107.6,109.6,106.5z M109.5,115.5H106v-2.3h5.8L109.5,115.5z M106,105c3.2,0,5.8-2.6,5.8-5.8
					c0-3.2-2.6-5.8-5.8-5.8s-5.8,2.6-5.8,5.8C100.2,102.4,102.8,105,106,105z"/>
			</g>
		</g>
		<g>
			<g>
				<path class="st4" d="M136.2,106.5c-1.1,0.6-2.3,0.9-3.6,0.9c-1.3,0-2.6-0.3-3.6-0.9c-4.6,1.1-8,5.2-8,10.2v2.3h23.3v-2.3
					C144.1,111.7,140.7,107.6,136.2,106.5z M136,115.5h-3.5v-2.3h5.8L136,115.5z M132.5,105c3.2,0,5.8-2.6,5.8-5.8
					c0-3.2-2.6-5.8-5.8-5.8c-3.2,0-5.8,2.6-5.8,5.8C126.7,102.4,129.3,105,132.5,105z"/>
			</g>
		</g>
		<g>
			<g>
				<path class="st4" d="M162.9,106.5c-1.1,0.6-2.3,0.9-3.6,0.9c-1.3,0-2.6-0.3-3.6-0.9c-4.6,1.1-8,5.2-8,10.2v2.3h23.3v-2.3
					C170.8,111.7,167.4,107.6,162.9,106.5z M162.7,115.5h-3.5v-2.3h5.8L162.7,115.5z M159.2,105c3.2,0,5.8-2.6,5.8-5.8
					c0-3.2-2.6-5.8-5.8-5.8c-3.2,0-5.8,2.6-5.8,5.8C153.4,102.4,156,105,159.2,105z"/>
			</g>
		</g>
		<g>
			<g>
				<path class="st4" d="M189.6,106.5c-1.1,0.6-2.3,0.9-3.6,0.9c-1.3,0-2.6-0.3-3.6-0.9c-4.6,1.1-8,5.2-8,10.2v2.3h23.3v-2.3
					C197.6,111.7,194.2,107.6,189.6,106.5z M189.4,115.5h-3.5v-2.3h5.8L189.4,115.5z M185.9,105c3.2,0,5.8-2.6,5.8-5.8
					c0-3.2-2.6-5.8-5.8-5.8s-5.8,2.6-5.8,5.8C180.1,102.4,182.7,105,185.9,105z"/>
			</g>
		</g>
		<g>
			<g>
				<path class="st4" d="M216.3,106.5c-1.1,0.6-2.3,0.9-3.6,0.9c-1.3,0-2.6-0.3-3.6-0.9c-4.6,1.1-8,5.2-8,10.2v2.3h23.3v-2.3
					C224.3,111.7,220.9,107.6,216.3,106.5z M216.1,115.5h-3.5v-2.3h5.8L216.1,115.5z M212.6,105c3.2,0,5.8-2.6,5.8-5.8
					c0-3.2-2.6-5.8-5.8-5.8s-5.8,2.6-5.8,5.8C206.8,102.4,209.4,105,212.6,105z"/>
			</g>
		</g>
		<g>
			<g>
				<path class="st4" d="M243.2,106.5c-1.1,0.6-2.3,0.9-3.6,0.9c-1.3,0-2.6-0.3-3.6-0.9c-4.6,1.1-8,5.2-8,10.2v2.3h23.3v-2.3
					C251.2,111.7,247.8,107.6,243.2,106.5z M243.1,115.5h-3.5v-2.3h5.8L243.1,115.5z M239.6,105c3.2,0,5.8-2.6,5.8-5.8
					c0-3.2-2.6-5.8-5.8-5.8c-3.2,0-5.8,2.6-5.8,5.8C233.8,102.4,236.4,105,239.6,105z"/>
			</g>
		</g>
		<g>
			<g>
				<path class="st4" d="M269.9,106.5c-1.1,0.6-2.3,0.9-3.6,0.9c-1.3,0-2.6-0.3-3.6-0.9c-4.6,1.1-8,5.2-8,10.2v2.3h23.3v-2.3
					C277.9,111.7,274.5,107.6,269.9,106.5z M269.8,115.5h-3.5v-2.3h5.8L269.8,115.5z M266.3,105c3.2,0,5.8-2.6,5.8-5.8
					c0-3.2-2.6-5.8-5.8-5.8s-5.8,2.6-5.8,5.8C260.5,102.4,263.1,105,266.3,105z"/>
			</g>
		</g>
	</g>
</g>
</svg>
