<?xml version="1.0" encoding="UTF-8" standalone="no"?>
<svg width="571px" height="298px" viewBox="0 0 571 298" version="1.1" xmlns="http://www.w3.org/2000/svg" xmlns:xlink="http://www.w3.org/1999/xlink">
    <!-- Generator: Sketch 41.2 (35397) - http://www.bohemiancoding.com/sketch -->
    <title>Group 3</title>
    <desc>Created with Sketch.</desc>
    <defs></defs>
    <g id="Page-1" stroke="none" stroke-width="1" fill="none" fill-rule="evenodd">
        <g id="Group-3" transform="translate(0.000000, -4.000000)">
            <g id="Page-1">
                <path d="M446.5619,175.662966 C448.7319,175.662966 449.9919,174.556966 450.6079,172.848966 L449.0959,172.162966 C448.6899,173.324966 447.8499,174.094966 446.5619,174.094966 C444.7559,174.094966 443.7199,172.638966 443.7199,170.244966 C443.7199,167.976966 444.6999,166.520966 446.4639,166.520966 C447.7099,166.520966 448.4659,167.220966 448.8719,168.186966 L450.3559,167.304966 C449.6419,165.764966 448.4239,164.910966 446.4639,164.910966 C443.9159,164.910966 441.9699,166.856966 441.9699,170.258966 C441.9699,173.758966 443.8879,175.662966 446.5619,175.662966 Z M455.2689,175.620966 C457.0749,175.620966 458.8809,174.472966 458.8809,171.756966 C458.8809,169.026966 457.0749,167.892966 455.2689,167.892966 C453.4489,167.892966 451.6429,169.026966 451.6429,171.756966 C451.6429,174.472966 453.4629,175.620966 455.2689,175.620966 Z M455.2689,174.178966 C453.9389,174.178966 453.3649,173.184966 453.3649,171.770966 C453.3649,170.300966 454.0229,169.362966 455.2689,169.362966 C456.5709,169.362966 457.1729,170.398966 457.1729,171.770966 C457.1729,173.184966 456.5149,174.178966 455.2689,174.178966 Z M462.1139,175.466966 L462.1139,170.286966 C462.7579,169.698966 463.3879,169.320966 464.1299,169.320966 C464.9279,169.320966 465.2639,169.740966 465.2639,170.566966 L465.2639,175.466966 L466.9719,175.466966 L466.9719,170.062966 C466.9719,168.592966 466.1319,167.892966 464.7879,167.892966 C463.5559,167.892966 462.6599,168.480966 462.1139,169.096966 L461.9739,168.046966 L460.3919,168.046966 L460.3919,175.466966 L462.1139,175.466966 Z M472.0389,175.620966 C473.8449,175.620966 475.6509,174.472966 475.6509,171.756966 C475.6509,169.026966 473.8449,167.892966 472.0389,167.892966 C470.2189,167.892966 468.4129,169.026966 468.4129,171.756966 C468.4129,174.472966 470.2329,175.620966 472.0389,175.620966 Z M472.0389,174.178966 C470.7089,174.178966 470.1349,173.184966 470.1349,171.770966 C470.1349,170.300966 470.7929,169.362966 472.0389,169.362966 C473.3409,169.362966 473.9429,170.398966 473.9429,171.770966 C473.9429,173.184966 473.2849,174.178966 472.0389,174.178966 Z M480.2279,175.620966 C481.6139,175.620966 482.7759,175.018966 483.4479,173.646966 L482.1739,172.848966 C481.7539,173.744966 481.1939,174.234966 480.3259,174.234966 C479.1359,174.234966 478.4779,173.254966 478.4779,171.770966 C478.4779,170.076966 479.3179,169.320966 480.3259,169.320966 C481.1799,169.320966 481.6839,169.726966 482.0619,170.580966 L483.3359,169.768966 C482.7619,168.550966 481.6699,167.892966 480.3259,167.892966 C478.6739,167.892966 476.7559,168.914966 476.7559,171.756966 C476.7559,174.472966 478.5059,175.620966 480.2279,175.620966 Z M485.6015,166.940966 C486.2455,166.940966 486.6095,166.548966 486.6095,166.030966 C486.6095,165.512966 486.2455,165.120966 485.6015,165.120966 C484.9715,165.120966 484.6215,165.512966 484.6215,166.030966 C484.6215,166.548966 484.9715,166.940966 485.6015,166.940966 Z M486.4695,175.466966 L486.4695,168.046966 L484.7615,168.046966 L484.7615,175.466966 L486.4695,175.466966 Z M490.1113,175.466966 L490.1113,170.328966 C490.7413,169.740966 491.3293,169.362966 492.0153,169.362966 C492.8273,169.362966 493.0653,169.768966 493.0653,170.566966 L493.0653,175.466966 L494.7873,175.466966 L494.7873,170.328966 C495.4173,169.740966 495.9913,169.362966 496.6913,169.362966 C497.5033,169.362966 497.7413,169.768966 497.7413,170.566966 L497.7413,175.466966 L499.4633,175.466966 L499.4633,170.132966 C499.4633,168.802966 498.8053,167.892966 497.2933,167.892966 C496.1593,167.892966 495.2633,168.494966 494.7033,169.096966 C494.5073,168.368966 493.9053,167.892966 492.6593,167.892966 C491.5113,167.892966 490.6433,168.480966 490.1113,169.096966 L489.9713,168.046966 L488.3893,168.046966 L488.3893,175.466966 L490.1113,175.466966 Z M502.2091,166.940966 C502.8531,166.940966 503.2171,166.548966 503.2171,166.030966 C503.2171,165.512966 502.8531,165.120966 502.2091,165.120966 C501.5791,165.120966 501.2291,165.512966 501.2291,166.030966 C501.2291,166.548966 501.5791,166.940966 502.2091,166.940966 Z M503.0771,175.466966 L503.0771,168.046966 L501.3691,168.046966 L501.3691,175.466966 L503.0771,175.466966 Z M508.2169,175.620966 C509.4909,175.620966 510.4569,175.228966 511.2969,174.430966 L510.6109,173.296966 C510.0369,173.856966 509.2389,174.248966 508.3149,174.248966 C507.1949,174.248966 506.3549,173.618966 506.2989,172.316966 L511.3809,172.316966 L511.3809,171.910966 C511.3809,168.886966 509.7289,167.892966 508.1189,167.892966 C506.5789,167.892966 504.5769,168.970966 504.5769,171.756966 C504.5769,174.486966 506.2989,175.620966 508.2169,175.620966 Z M506.3129,171.042966 C506.4809,169.852966 507.2509,169.292966 508.1049,169.292966 C509.1409,169.292966 509.7149,169.950966 509.7989,171.042966 L506.3129,171.042966 Z M514.6279,175.466966 L514.6279,170.286966 C515.2719,169.698966 515.9019,169.320966 516.6439,169.320966 C517.4419,169.320966 517.7779,169.740966 517.7779,170.566966 L517.7779,175.466966 L519.4859,175.466966 L519.4859,170.062966 C519.4859,168.592966 518.6459,167.892966 517.3019,167.892966 C516.0699,167.892966 515.1739,168.480966 514.6279,169.096966 L514.4879,168.046966 L512.9059,168.046966 L512.9059,175.466966 L514.6279,175.466966 Z M524.1511,175.564966 C524.6131,175.564966 525.2991,175.494966 525.5091,175.452966 L525.3691,174.094966 C525.1591,174.150966 524.8931,174.206966 524.6131,174.206966 C523.9131,174.206966 523.5771,173.954966 523.5771,173.156966 L523.5771,169.404966 L525.4951,169.404966 L525.4951,168.046966 L523.5771,168.046966 L523.5771,165.316966 L521.8691,165.568966 L521.8691,168.046966 L520.6091,168.046966 L520.6091,169.404966 L521.8691,169.404966 L521.8691,173.422966 C521.8691,175.032966 522.5831,175.564966 524.1511,175.564966 Z M529.8579,175.620966 C531.6639,175.620966 533.4699,174.472966 533.4699,171.756966 C533.4699,169.026966 531.6639,167.892966 529.8579,167.892966 C528.0379,167.892966 526.2319,169.026966 526.2319,171.756966 C526.2319,174.472966 528.0519,175.620966 529.8579,175.620966 Z M529.8579,174.178966 C528.5279,174.178966 527.9539,173.184966 527.9539,171.770966 C527.9539,170.300966 528.6119,169.362966 529.8579,169.362966 C531.1599,169.362966 531.7619,170.398966 531.7619,171.770966 C531.7619,173.184966 531.1039,174.178966 529.8579,174.178966 Z M535.1699,177.034966 L536.4299,173.646966 L534.5119,173.646966 L534.1479,177.034966 L535.1699,177.034966 Z" id="Conocimiento,-" fill="#00CCCD"></path>
                <path d="M445.4839,197.614966 C446.7579,197.614966 447.7239,197.222966 448.5639,196.424966 L447.8779,195.290966 C447.3039,195.850966 446.5059,196.242966 445.5819,196.242966 C444.4619,196.242966 443.6219,195.612966 443.5659,194.310966 L448.6479,194.310966 L448.6479,193.904966 C448.6479,190.880966 446.9959,189.886966 445.3859,189.886966 C443.8459,189.886966 441.8439,190.964966 441.8439,193.750966 C441.8439,196.480966 443.5659,197.614966 445.4839,197.614966 Z M443.5799,193.036966 C443.7479,191.846966 444.5179,191.286966 445.3719,191.286966 C446.4079,191.286966 446.9819,191.944966 447.0659,193.036966 L443.5799,193.036966 Z M453.3317,196.158966 C452.2257,196.158966 451.5537,195.304966 451.5537,193.778966 C451.5537,192.112966 452.2537,191.314966 453.3037,191.314966 C454.0177,191.314966 454.5357,191.622966 455.1377,192.210966 L455.1377,195.234966 C454.6197,195.766966 454.0457,196.158966 453.3317,196.158966 Z M452.7717,197.572966 C453.8777,197.572966 454.6337,197.110966 455.1377,196.480966 L455.2777,197.460966 L456.8597,197.460966 L456.8597,186.974966 L455.1377,187.226966 L455.1377,190.880966 C454.6197,190.236966 453.8077,189.886966 452.7997,189.886966 C451.0917,189.886966 449.8317,191.216966 449.8317,193.792966 C449.8317,196.368966 451.0777,197.572966 452.7717,197.572966 Z M460.9177,197.614966 C462.1357,197.614966 463.0317,197.012966 463.5777,196.424966 L463.7177,197.460966 L465.2997,197.460966 L465.2997,190.040966 L463.5777,190.040966 L463.5777,195.178966 C462.9337,195.766966 462.3037,196.158966 461.5617,196.158966 C460.7637,196.158966 460.4417,195.766966 460.4417,194.982966 L460.4417,190.040966 L458.7197,190.040966 L458.7197,195.444966 C458.7197,196.914966 459.5597,197.614966 460.9177,197.614966 Z M470.2817,197.614966 C471.6677,197.614966 472.8297,197.012966 473.5017,195.640966 L472.2277,194.842966 C471.8077,195.738966 471.2477,196.228966 470.3797,196.228966 C469.1897,196.228966 468.5317,195.248966 468.5317,193.764966 C468.5317,192.070966 469.3717,191.314966 470.3797,191.314966 C471.2337,191.314966 471.7377,191.720966 472.1157,192.574966 L473.3897,191.762966 C472.8157,190.544966 471.7237,189.886966 470.3797,189.886966 C468.7277,189.886966 466.8097,190.908966 466.8097,193.750966 C466.8097,196.466966 468.5597,197.614966 470.2817,197.614966 Z M477.1033,196.242966 C476.4593,196.242966 476.0533,195.934966 476.0533,195.346966 C476.0533,194.604966 476.8233,194.086966 479.2173,193.750966 L479.2173,195.388966 C478.6853,195.920966 477.9853,196.242966 477.1033,196.242966 Z M476.4873,197.572966 C477.5933,197.572966 478.5033,197.236966 479.2173,196.508966 L479.3573,197.460966 L480.8973,197.460966 L480.8973,192.574966 C480.8973,190.838966 480.0713,189.886966 478.1533,189.886966 C476.4453,189.886966 475.3813,190.516966 474.5973,191.244966 L475.5353,192.294966 C476.2213,191.720966 476.9633,191.300966 477.9293,191.300966 C478.8113,191.300966 479.2173,191.678966 479.2173,192.364966 L479.2173,192.588966 C475.7453,192.980966 474.3733,193.988966 474.3733,195.626966 C474.3733,196.844966 475.2693,197.572966 476.4873,197.572966 Z M485.8261,197.614966 C487.2121,197.614966 488.3741,197.012966 489.0461,195.640966 L487.7721,194.842966 C487.3521,195.738966 486.7921,196.228966 485.9241,196.228966 C484.7341,196.228966 484.0761,195.248966 484.0761,193.764966 C484.0761,192.070966 484.9161,191.314966 485.9241,191.314966 C486.7781,191.314966 487.2821,191.720966 487.6601,192.574966 L488.9341,191.762966 C488.3601,190.544966 487.2681,189.886966 485.9241,189.886966 C484.2721,189.886966 482.3541,190.908966 482.3541,193.750966 C482.3541,196.466966 484.1041,197.614966 485.8261,197.614966 Z M491.2127,188.934966 C491.8567,188.934966 492.2207,188.542966 492.2207,188.024966 C492.2207,187.506966 491.8567,187.114966 491.2127,187.114966 C490.5827,187.114966 490.2327,187.506966 490.2327,188.024966 C490.2327,188.542966 490.5827,188.934966 491.2127,188.934966 Z M492.0807,197.460966 L492.0807,190.040966 L490.3727,190.040966 L490.3727,197.460966 L492.0807,197.460966 Z M496.3529,189.242966 L497.4869,189.242966 L499.5169,186.918966 L497.6549,186.918966 L496.3529,189.242966 Z M497.2209,197.614966 C499.0269,197.614966 500.8329,196.466966 500.8329,193.750966 C500.8329,191.020966 499.0269,189.886966 497.2209,189.886966 C495.4009,189.886966 493.5949,191.020966 493.5949,193.750966 C493.5949,196.466966 495.4149,197.614966 497.2209,197.614966 Z M497.2209,196.172966 C495.8909,196.172966 495.3169,195.178966 495.3169,193.764966 C495.3169,192.294966 495.9749,191.356966 497.2209,191.356966 C498.5229,191.356966 499.1249,192.392966 499.1249,193.764966 C499.1249,195.178966 498.4669,196.172966 497.2209,196.172966 Z M504.0789,197.460966 L504.0789,192.280966 C504.7229,191.692966 505.3529,191.314966 506.0949,191.314966 C506.8929,191.314966 507.2289,191.734966 507.2289,192.560966 L507.2289,197.460966 L508.9369,197.460966 L508.9369,192.056966 C508.9369,190.586966 508.0969,189.886966 506.7529,189.886966 C505.5209,189.886966 504.6249,190.474966 504.0789,191.090966 L503.9389,190.040966 L502.3569,190.040966 L502.3569,197.460966 L504.0789,197.460966 Z M515.1209,200.302966 C516.5909,200.302966 517.2209,199.574966 517.7249,198.272966 L520.8749,190.040966 L519.1809,190.040966 L517.2629,195.444966 L517.2349,195.444966 L515.2889,189.900966 L513.5949,190.166966 L516.3949,197.502966 L516.1849,198.048966 C515.9469,198.650966 515.6249,198.902966 514.9949,198.902966 C514.4909,198.902966 514.0849,198.832966 513.7769,198.748966 L513.9029,200.190966 C514.2389,200.274966 514.6449,200.302966 515.1209,200.302966 Z M528.5723,197.614966 C529.9583,197.614966 531.1203,197.012966 531.7923,195.640966 L530.5183,194.842966 C530.0983,195.738966 529.5383,196.228966 528.6703,196.228966 C527.4803,196.228966 526.8223,195.248966 526.8223,193.764966 C526.8223,192.070966 527.6623,191.314966 528.6703,191.314966 C529.5243,191.314966 530.0283,191.720966 530.4063,192.574966 L531.6803,191.762966 C531.1063,190.544966 530.0143,189.886966 528.6703,189.886966 C527.0183,189.886966 525.1003,190.908966 525.1003,193.750966 C525.1003,196.466966 526.8503,197.614966 528.5723,197.614966 Z M535.2357,197.614966 C536.4537,197.614966 537.3497,197.012966 537.8957,196.424966 L538.0357,197.460966 L539.6177,197.460966 L539.6177,190.040966 L537.8957,190.040966 L537.8957,195.178966 C537.2517,195.766966 536.6217,196.158966 535.8797,196.158966 C535.0817,196.158966 534.7597,195.766966 534.7597,194.982966 L534.7597,190.040966 L533.0377,190.040966 L533.0377,195.444966 C533.0377,196.914966 533.8777,197.614966 535.2357,197.614966 Z M543.2725,197.460966 L543.2725,186.974966 L541.5645,187.226966 L541.5645,197.460966 L543.2725,197.460966 Z M548.0277,197.558966 C548.4897,197.558966 549.1757,197.488966 549.3857,197.446966 L549.2457,196.088966 C549.0357,196.144966 548.7697,196.200966 548.4897,196.200966 C547.7897,196.200966 547.4537,195.948966 547.4537,195.150966 L547.4537,191.398966 L549.3717,191.398966 L549.3717,190.040966 L547.4537,190.040966 L547.4537,187.310966 L545.7457,187.562966 L545.7457,190.040966 L544.4857,190.040966 L544.4857,191.398966 L545.7457,191.398966 L545.7457,195.416966 C545.7457,197.026966 546.4597,197.558966 548.0277,197.558966 Z M552.8095,197.614966 C554.0275,197.614966 554.9235,197.012966 555.4695,196.424966 L555.6095,197.460966 L557.1915,197.460966 L557.1915,190.040966 L555.4695,190.040966 L555.4695,195.178966 C554.8255,195.766966 554.1955,196.158966 553.4535,196.158966 C552.6555,196.158966 552.3335,195.766966 552.3335,194.982966 L552.3335,190.040966 L550.6115,190.040966 L550.6115,195.444966 C550.6115,196.914966 551.4515,197.614966 552.8095,197.614966 Z M560.8183,197.460966 L560.8183,192.756966 C561.2943,191.958966 562.0923,191.440966 563.2263,191.440966 C563.3383,191.440966 563.5623,191.440966 563.6743,191.468966 L563.5203,189.886966 L563.4503,189.886966 C562.0643,189.886966 561.2803,190.544966 560.8323,191.244966 L560.8183,191.244966 L560.6783,190.040966 L559.0963,190.040966 L559.0963,197.460966 L560.8183,197.460966 Z M566.9679,196.242966 C566.3239,196.242966 565.9179,195.934966 565.9179,195.346966 C565.9179,194.604966 566.6879,194.086966 569.0819,193.750966 L569.0819,195.388966 C568.5499,195.920966 567.8499,196.242966 566.9679,196.242966 Z M566.3519,197.572966 C567.4579,197.572966 568.3679,197.236966 569.0819,196.508966 L569.2219,197.460966 L570.7619,197.460966 L570.7619,192.574966 C570.7619,190.838966 569.9359,189.886966 568.0179,189.886966 C566.3099,189.886966 565.2459,190.516966 564.4619,191.244966 L565.3999,192.294966 C566.0859,191.720966 566.8279,191.300966 567.7939,191.300966 C568.6759,191.300966 569.0819,191.678966 569.0819,192.364966 L569.0819,192.588966 C565.6099,192.980966 564.2379,193.988966 564.2379,195.626966 C564.2379,196.844966 565.1339,197.572966 566.3519,197.572966 Z" id="educación-y-cultura" fill="#00CCCD"></path>
                <path d="M86.5659,197.110966 C89.0579,197.110966 91.2279,195.220966 91.2279,191.734966 C91.2279,188.248966 89.0579,186.358966 86.5659,186.358966 C84.0599,186.358966 81.8899,188.248966 81.8899,191.734966 C81.8899,195.220966 84.0599,197.110966 86.5659,197.110966 Z M86.5659,195.542966 C84.8159,195.542966 83.6399,194.086966 83.6399,191.734966 C83.6399,189.382966 84.8159,187.968966 86.5659,187.968966 C88.3159,187.968966 89.4919,189.382966 89.4919,191.734966 C89.4919,194.086966 88.3159,195.542966 86.5659,195.542966 Z M96.0011,197.012966 C96.4631,197.012966 97.1491,196.942966 97.3591,196.900966 L97.2191,195.542966 C97.0091,195.598966 96.7431,195.654966 96.4631,195.654966 C95.7631,195.654966 95.4271,195.402966 95.4271,194.604966 L95.4271,190.852966 L97.3451,190.852966 L97.3451,189.494966 L95.4271,189.494966 L95.4271,186.764966 L93.7191,187.016966 L93.7191,189.494966 L92.4591,189.494966 L92.4591,190.852966 L93.7191,190.852966 L93.7191,194.870966 C93.7191,196.480966 94.4331,197.012966 96.0011,197.012966 Z M100.4831,196.914966 L100.4831,192.210966 C100.9591,191.412966 101.7571,190.894966 102.8911,190.894966 C103.0031,190.894966 103.2271,190.894966 103.3391,190.922966 L103.1851,189.340966 L103.1151,189.340966 C101.7291,189.340966 100.9451,189.998966 100.4971,190.698966 L100.4831,190.698966 L100.3431,189.494966 L98.7611,189.494966 L98.7611,196.914966 L100.4831,196.914966 Z M107.5103,197.068966 C109.3163,197.068966 111.1223,195.920966 111.1223,193.204966 C111.1223,190.474966 109.3163,189.340966 107.5103,189.340966 C105.6903,189.340966 103.8843,190.474966 103.8843,193.204966 C103.8843,195.920966 105.7043,197.068966 107.5103,197.068966 Z M107.5103,195.626966 C106.1803,195.626966 105.6063,194.632966 105.6063,193.218966 C105.6063,191.748966 106.2643,190.810966 107.5103,190.810966 C108.8123,190.810966 109.4143,191.846966 109.4143,193.218966 C109.4143,194.632966 108.7563,195.626966 107.5103,195.626966 Z M115.2557,197.054966 C116.9637,197.054966 118.3777,196.326966 118.3777,194.702966 C118.3777,193.134966 117.1037,192.742966 115.4377,192.406966 C114.3317,192.168966 113.9257,191.944966 113.9257,191.454966 C113.9257,191.006966 114.3317,190.698966 115.1717,190.698966 C115.9697,190.698966 116.7537,190.992966 117.4537,191.496966 L118.0557,190.278966 C117.2717,189.718966 116.3757,189.340966 115.0457,189.340966 C113.4077,189.340966 112.3157,190.208966 112.3157,191.524966 C112.3157,193.120966 113.5197,193.540966 115.0877,193.862966 C116.3197,194.114966 116.7537,194.324966 116.7537,194.926966 C116.7537,195.444966 116.1937,195.738966 115.2697,195.738966 C114.3037,195.738966 113.3797,195.304966 112.7077,194.730966 L112.0497,195.892966 C112.7637,196.522966 113.8277,197.054966 115.2557,197.054966 Z" id="Otros" fill="#00BEFF"></path>
                <path d="M7.3119,90.220966 L7.3119,88.638966 L2.0899,88.638966 L2.0899,85.614966 L6.1219,85.614966 L5.8699,84.060966 L2.0899,84.060966 L2.0899,81.484966 L7.0319,81.484966 L7.0319,79.860966 L0.3399,79.860966 L0.3399,90.220966 L7.3119,90.220966 Z M11.5771,88.918966 C10.4711,88.918966 9.7991,88.064966 9.7991,86.538966 C9.7991,84.872966 10.4991,84.074966 11.5491,84.074966 C12.2631,84.074966 12.7811,84.382966 13.3831,84.970966 L13.3831,87.994966 C12.8651,88.526966 12.2911,88.918966 11.5771,88.918966 Z M11.0171,90.332966 C12.1231,90.332966 12.8791,89.870966 13.3831,89.240966 L13.5231,90.220966 L15.1051,90.220966 L15.1051,79.734966 L13.3831,79.986966 L13.3831,83.640966 C12.8651,82.996966 12.0531,82.646966 11.0451,82.646966 C9.3371,82.646966 8.0771,83.976966 8.0771,86.552966 C8.0771,89.128966 9.3231,90.332966 11.0171,90.332966 Z M19.1631,90.374966 C20.3811,90.374966 21.2771,89.772966 21.8231,89.184966 L21.9631,90.220966 L23.5451,90.220966 L23.5451,82.800966 L21.8231,82.800966 L21.8231,87.938966 C21.1791,88.526966 20.5491,88.918966 19.8071,88.918966 C19.0091,88.918966 18.6871,88.526966 18.6871,87.742966 L18.6871,82.800966 L16.9651,82.800966 L16.9651,88.204966 C16.9651,89.674966 17.8051,90.374966 19.1631,90.374966 Z M28.5271,90.374966 C29.9131,90.374966 31.0751,89.772966 31.7471,88.400966 L30.4731,87.602966 C30.0531,88.498966 29.4931,88.988966 28.6251,88.988966 C27.4351,88.988966 26.7771,88.008966 26.7771,86.524966 C26.7771,84.830966 27.6171,84.074966 28.6251,84.074966 C29.4791,84.074966 29.9831,84.480966 30.3611,85.334966 L31.6351,84.522966 C31.0611,83.304966 29.9691,82.646966 28.6251,82.646966 C26.9731,82.646966 25.0551,83.668966 25.0551,86.510966 C25.0551,89.226966 26.8051,90.374966 28.5271,90.374966 Z M35.3487,89.002966 C34.7047,89.002966 34.2987,88.694966 34.2987,88.106966 C34.2987,87.364966 35.0687,86.846966 37.4627,86.510966 L37.4627,88.148966 C36.9307,88.680966 36.2307,89.002966 35.3487,89.002966 Z M34.7327,90.332966 C35.8387,90.332966 36.7487,89.996966 37.4627,89.268966 L37.6027,90.220966 L39.1427,90.220966 L39.1427,85.334966 C39.1427,83.598966 38.3167,82.646966 36.3987,82.646966 C34.6907,82.646966 33.6267,83.276966 32.8427,84.004966 L33.7807,85.054966 C34.4667,84.480966 35.2087,84.060966 36.1747,84.060966 C37.0567,84.060966 37.4627,84.438966 37.4627,85.124966 L37.4627,85.348966 C33.9907,85.740966 32.6187,86.748966 32.6187,88.386966 C32.6187,89.604966 33.5147,90.332966 34.7327,90.332966 Z M44.0715,90.374966 C45.4575,90.374966 46.6195,89.772966 47.2915,88.400966 L46.0175,87.602966 C45.5975,88.498966 45.0375,88.988966 44.1695,88.988966 C42.9795,88.988966 42.3215,88.008966 42.3215,86.524966 C42.3215,84.830966 43.1615,84.074966 44.1695,84.074966 C45.0235,84.074966 45.5275,84.480966 45.9055,85.334966 L47.1795,84.522966 C46.6055,83.304966 45.5135,82.646966 44.1695,82.646966 C42.5175,82.646966 40.5995,83.668966 40.5995,86.510966 C40.5995,89.226966 42.3495,90.374966 44.0715,90.374966 Z M49.4581,81.694966 C50.1021,81.694966 50.4661,81.302966 50.4661,80.784966 C50.4661,80.266966 50.1021,79.874966 49.4581,79.874966 C48.8281,79.874966 48.4781,80.266966 48.4781,80.784966 C48.4781,81.302966 48.8281,81.694966 49.4581,81.694966 Z M50.3261,90.220966 L50.3261,82.800966 L48.6181,82.800966 L48.6181,90.220966 L50.3261,90.220966 Z M54.5983,82.002966 L55.7323,82.002966 L57.7623,79.678966 L55.9003,79.678966 L54.5983,82.002966 Z M55.4663,90.374966 C57.2723,90.374966 59.0783,89.226966 59.0783,86.510966 C59.0783,83.780966 57.2723,82.646966 55.4663,82.646966 C53.6463,82.646966 51.8403,83.780966 51.8403,86.510966 C51.8403,89.226966 53.6603,90.374966 55.4663,90.374966 Z M55.4663,88.932966 C54.1363,88.932966 53.5623,87.938966 53.5623,86.524966 C53.5623,85.054966 54.2203,84.116966 55.4663,84.116966 C56.7683,84.116966 57.3703,85.152966 57.3703,86.524966 C57.3703,87.938966 56.7123,88.932966 55.4663,88.932966 Z M62.3243,90.220966 L62.3243,85.040966 C62.9683,84.452966 63.5983,84.074966 64.3403,84.074966 C65.1383,84.074966 65.4743,84.494966 65.4743,85.320966 L65.4743,90.220966 L67.1823,90.220966 L67.1823,84.816966 C67.1823,83.346966 66.3423,82.646966 64.9983,82.646966 C63.7663,82.646966 62.8703,83.234966 62.3243,83.850966 L62.1843,82.800966 L60.6023,82.800966 L60.6023,90.220966 L62.3243,90.220966 Z M74.5409,90.220966 L74.5409,85.810966 L78.3069,85.810966 L78.0549,84.256966 L74.5409,84.256966 L74.5409,81.484966 L79.3149,81.484966 L79.3149,79.860966 L72.7909,79.860966 L72.7909,90.220966 L74.5409,90.220966 Z M81.5991,81.694966 C82.2431,81.694966 82.6071,81.302966 82.6071,80.784966 C82.6071,80.266966 82.2431,79.874966 81.5991,79.874966 C80.9691,79.874966 80.6191,80.266966 80.6191,80.784966 C80.6191,81.302966 80.9691,81.694966 81.5991,81.694966 Z M82.4671,90.220966 L82.4671,82.800966 L80.7591,82.800966 L80.7591,90.220966 L82.4671,90.220966 Z M86.1219,90.220966 L86.1219,85.040966 C86.7659,84.452966 87.3959,84.074966 88.1379,84.074966 C88.9359,84.074966 89.2719,84.494966 89.2719,85.320966 L89.2719,90.220966 L90.9799,90.220966 L90.9799,84.816966 C90.9799,83.346966 90.1399,82.646966 88.7959,82.646966 C87.5639,82.646966 86.6679,83.234966 86.1219,83.850966 L85.9819,82.800966 L84.3999,82.800966 L84.3999,90.220966 L86.1219,90.220966 Z M95.0939,89.002966 C94.4499,89.002966 94.0439,88.694966 94.0439,88.106966 C94.0439,87.364966 94.8139,86.846966 97.2079,86.510966 L97.2079,88.148966 C96.6759,88.680966 95.9759,89.002966 95.0939,89.002966 Z M94.4779,90.332966 C95.5839,90.332966 96.4939,89.996966 97.2079,89.268966 L97.3479,90.220966 L98.8879,90.220966 L98.8879,85.334966 C98.8879,83.598966 98.0619,82.646966 96.1439,82.646966 C94.4359,82.646966 93.3719,83.276966 92.5879,84.004966 L93.5259,85.054966 C94.2119,84.480966 94.9539,84.060966 95.9199,84.060966 C96.8019,84.060966 97.2079,84.438966 97.2079,85.124966 L97.2079,85.348966 C93.7359,85.740966 92.3639,86.748966 92.3639,88.386966 C92.3639,89.604966 93.2599,90.332966 94.4779,90.332966 Z M102.4699,90.220966 L102.4699,85.040966 C103.1139,84.452966 103.7439,84.074966 104.4859,84.074966 C105.2839,84.074966 105.6199,84.494966 105.6199,85.320966 L105.6199,90.220966 L107.3279,90.220966 L107.3279,84.816966 C107.3279,83.346966 106.4879,82.646966 105.1439,82.646966 C103.9119,82.646966 103.0159,83.234966 102.4699,83.850966 L102.3299,82.800966 L100.7479,82.800966 L100.7479,90.220966 L102.4699,90.220966 Z M112.2581,90.374966 C113.6441,90.374966 114.8061,89.772966 115.4781,88.400966 L114.2041,87.602966 C113.7841,88.498966 113.2241,88.988966 112.3561,88.988966 C111.1661,88.988966 110.5081,88.008966 110.5081,86.524966 C110.5081,84.830966 111.3481,84.074966 112.3561,84.074966 C113.2101,84.074966 113.7141,84.480966 114.0921,85.334966 L115.3661,84.522966 C114.7921,83.304966 113.7001,82.646966 112.3561,82.646966 C110.7041,82.646966 108.7861,83.668966 108.7861,86.510966 C108.7861,89.226966 110.5361,90.374966 112.2581,90.374966 Z M117.6447,81.694966 C118.2887,81.694966 118.6527,81.302966 118.6527,80.784966 C118.6527,80.266966 118.2887,79.874966 117.6447,79.874966 C117.0147,79.874966 116.6647,80.266966 116.6647,80.784966 C116.6647,81.302966 117.0147,81.694966 117.6447,81.694966 Z M118.5127,90.220966 L118.5127,82.800966 L116.8047,82.800966 L116.8047,90.220966 L118.5127,90.220966 Z M123.6655,90.374966 C124.9395,90.374966 125.9055,89.982966 126.7455,89.184966 L126.0595,88.050966 C125.4855,88.610966 124.6875,89.002966 123.7635,89.002966 C122.6435,89.002966 121.8035,88.372966 121.7475,87.070966 L126.8295,87.070966 L126.8295,86.664966 C126.8295,83.640966 125.1775,82.646966 123.5675,82.646966 C122.0275,82.646966 120.0255,83.724966 120.0255,86.510966 C120.0255,89.240966 121.7475,90.374966 123.6655,90.374966 Z M121.7615,85.796966 C121.9295,84.606966 122.6995,84.046966 123.5535,84.046966 C124.5895,84.046966 125.1635,84.704966 125.2475,85.796966 L121.7615,85.796966 Z M130.0895,90.220966 L130.0895,85.516966 C130.5655,84.718966 131.3635,84.200966 132.4975,84.200966 C132.6095,84.200966 132.8335,84.200966 132.9455,84.228966 L132.7915,82.646966 L132.7215,82.646966 C131.3355,82.646966 130.5515,83.304966 130.1035,84.004966 L130.0895,84.004966 L129.9495,82.800966 L128.3675,82.800966 L128.3675,90.220966 L130.0895,90.220966 Z M136.2391,89.002966 C135.5951,89.002966 135.1891,88.694966 135.1891,88.106966 C135.1891,87.364966 135.9591,86.846966 138.3531,86.510966 L138.3531,88.148966 C137.8211,88.680966 137.1211,89.002966 136.2391,89.002966 Z M135.6231,90.332966 C136.7291,90.332966 137.6391,89.996966 138.3531,89.268966 L138.4931,90.220966 L140.0331,90.220966 L140.0331,85.334966 C140.0331,83.598966 139.2071,82.646966 137.2891,82.646966 C135.5811,82.646966 134.5171,83.276966 133.7331,84.004966 L134.6711,85.054966 C135.3571,84.480966 136.0991,84.060966 137.0651,84.060966 C137.9471,84.060966 138.3531,84.438966 138.3531,85.124966 L138.3531,85.348966 C134.8811,85.740966 133.5091,86.748966 133.5091,88.386966 C133.5091,89.604966 134.4051,90.332966 135.6231,90.332966 Z" id="Educación-Financiera" fill="#1364A5"></path>
                <path d="M93.3699,38.630966 L93.3699,37.048966 L88.1479,37.048966 L88.1479,34.024966 L92.1799,34.024966 L91.9279,32.470966 L88.1479,32.470966 L88.1479,29.894966 L93.0899,29.894966 L93.0899,28.270966 L86.3979,28.270966 L86.3979,38.630966 L93.3699,38.630966 Z M96.3477,38.630966 L96.3477,33.492966 C96.9777,32.904966 97.5657,32.526966 98.2517,32.526966 C99.0637,32.526966 99.3017,32.932966 99.3017,33.730966 L99.3017,38.630966 L101.0237,38.630966 L101.0237,33.492966 C101.6537,32.904966 102.2277,32.526966 102.9277,32.526966 C103.7397,32.526966 103.9777,32.932966 103.9777,33.730966 L103.9777,38.630966 L105.6997,38.630966 L105.6997,33.296966 C105.6997,31.966966 105.0417,31.056966 103.5297,31.056966 C102.3957,31.056966 101.4997,31.658966 100.9397,32.260966 C100.7437,31.532966 100.1417,31.056966 98.8957,31.056966 C97.7477,31.056966 96.8797,31.644966 96.3477,32.260966 L96.2077,31.210966 L94.6257,31.210966 L94.6257,38.630966 L96.3477,38.630966 Z M111.1177,37.384966 C110.4037,37.384966 109.8857,37.076966 109.2837,36.488966 L109.2837,33.450966 C109.8017,32.918966 110.3757,32.526966 111.0897,32.526966 C112.1957,32.526966 112.8677,33.380966 112.8677,34.920966 C112.8677,36.642966 112.1817,37.384966 111.1177,37.384966 Z M109.2837,41.304966 L109.2837,37.818966 C109.8437,38.434966 110.6137,38.742966 111.6217,38.742966 C113.3297,38.742966 114.5897,37.482966 114.5897,34.906966 C114.5897,32.330966 113.3437,31.056966 111.6497,31.056966 C110.5437,31.056966 109.7877,31.560966 109.2837,32.176966 L109.1437,31.210966 L107.5617,31.210966 L107.5617,41.556966 L109.2837,41.304966 Z M117.8377,38.630966 L117.8377,33.926966 C118.3137,33.128966 119.1117,32.610966 120.2457,32.610966 C120.3577,32.610966 120.5817,32.610966 120.6937,32.638966 L120.5397,31.056966 L120.4697,31.056966 C119.0837,31.056966 118.2997,31.714966 117.8517,32.414966 L117.8377,32.414966 L117.6977,31.210966 L116.1157,31.210966 L116.1157,38.630966 L117.8377,38.630966 Z M124.6459,38.784966 C125.9199,38.784966 126.8859,38.392966 127.7259,37.594966 L127.0399,36.460966 C126.4659,37.020966 125.6679,37.412966 124.7439,37.412966 C123.6239,37.412966 122.7839,36.782966 122.7279,35.480966 L127.8099,35.480966 L127.8099,35.074966 C127.8099,32.050966 126.1579,31.056966 124.5479,31.056966 C123.0079,31.056966 121.0059,32.134966 121.0059,34.920966 C121.0059,37.650966 122.7279,38.784966 124.6459,38.784966 Z M122.7419,34.206966 C122.9099,33.016966 123.6799,32.456966 124.5339,32.456966 C125.5699,32.456966 126.1439,33.114966 126.2279,34.206966 L122.7419,34.206966 Z M131.0439,38.630966 L131.0439,33.450966 C131.6879,32.862966 132.3179,32.484966 133.0599,32.484966 C133.8579,32.484966 134.1939,32.904966 134.1939,33.730966 L134.1939,38.630966 L135.9019,38.630966 L135.9019,33.226966 C135.9019,31.756966 135.0619,31.056966 133.7179,31.056966 C132.4859,31.056966 131.5899,31.644966 131.0439,32.260966 L130.9039,31.210966 L129.3219,31.210966 L129.3219,38.630966 L131.0439,38.630966 Z M140.8873,37.328966 C139.7813,37.328966 139.1093,36.474966 139.1093,34.948966 C139.1093,33.282966 139.8093,32.484966 140.8593,32.484966 C141.5733,32.484966 142.0913,32.792966 142.6933,33.380966 L142.6933,36.404966 C142.1753,36.936966 141.6013,37.328966 140.8873,37.328966 Z M140.3273,38.742966 C141.4333,38.742966 142.1893,38.280966 142.6933,37.650966 L142.8333,38.630966 L144.4153,38.630966 L144.4153,28.144966 L142.6933,28.396966 L142.6933,32.050966 C142.1753,31.406966 141.3633,31.056966 140.3553,31.056966 C138.6473,31.056966 137.3873,32.386966 137.3873,34.962966 C137.3873,37.538966 138.6333,38.742966 140.3273,38.742966 Z M147.1747,30.104966 C147.8187,30.104966 148.1827,29.712966 148.1827,29.194966 C148.1827,28.676966 147.8187,28.284966 147.1747,28.284966 C146.5447,28.284966 146.1947,28.676966 146.1947,29.194966 C146.1947,29.712966 146.5447,30.104966 147.1747,30.104966 Z M148.0427,38.630966 L148.0427,31.210966 L146.3347,31.210966 L146.3347,38.630966 L148.0427,38.630966 Z M151.6715,38.630966 L151.6715,33.492966 C152.3015,32.904966 152.8895,32.526966 153.5755,32.526966 C154.3875,32.526966 154.6255,32.932966 154.6255,33.730966 L154.6255,38.630966 L156.3475,38.630966 L156.3475,33.492966 C156.9775,32.904966 157.5515,32.526966 158.2515,32.526966 C159.0635,32.526966 159.3015,32.932966 159.3015,33.730966 L159.3015,38.630966 L161.0235,38.630966 L161.0235,33.296966 C161.0235,31.966966 160.3655,31.056966 158.8535,31.056966 C157.7195,31.056966 156.8235,31.658966 156.2635,32.260966 C156.0675,31.532966 155.4655,31.056966 154.2195,31.056966 C153.0715,31.056966 152.2035,31.644966 151.6715,32.260966 L151.5315,31.210966 L149.9495,31.210966 L149.9495,38.630966 L151.6715,38.630966 Z M163.7563,30.104966 C164.4003,30.104966 164.7643,29.712966 164.7643,29.194966 C164.7643,28.676966 164.4003,28.284966 163.7563,28.284966 C163.1263,28.284966 162.7763,28.676966 162.7763,29.194966 C162.7763,29.712966 163.1263,30.104966 163.7563,30.104966 Z M164.6243,38.630966 L164.6243,31.210966 L162.9163,31.210966 L162.9163,38.630966 L164.6243,38.630966 Z M169.7525,38.784966 C171.0265,38.784966 171.9925,38.392966 172.8325,37.594966 L172.1465,36.460966 C171.5725,37.020966 170.7745,37.412966 169.8505,37.412966 C168.7305,37.412966 167.8905,36.782966 167.8345,35.480966 L172.9165,35.480966 L172.9165,35.074966 C172.9165,32.050966 171.2645,31.056966 169.6545,31.056966 C168.1145,31.056966 166.1125,32.134966 166.1125,34.920966 C166.1125,37.650966 167.8345,38.784966 169.7525,38.784966 Z M167.8485,34.206966 C168.0165,33.016966 168.7865,32.456966 169.6405,32.456966 C170.6765,32.456966 171.2505,33.114966 171.3345,34.206966 L167.8485,34.206966 Z M176.1505,38.630966 L176.1505,33.450966 C176.7945,32.862966 177.4245,32.484966 178.1665,32.484966 C178.9645,32.484966 179.3005,32.904966 179.3005,33.730966 L179.3005,38.630966 L181.0085,38.630966 L181.0085,33.226966 C181.0085,31.756966 180.1685,31.056966 178.8245,31.056966 C177.5925,31.056966 176.6965,31.644966 176.1505,32.260966 L176.0105,31.210966 L174.4285,31.210966 L174.4285,38.630966 L176.1505,38.630966 Z M185.6607,38.728966 C186.1227,38.728966 186.8087,38.658966 187.0187,38.616966 L186.8787,37.258966 C186.6687,37.314966 186.4027,37.370966 186.1227,37.370966 C185.4227,37.370966 185.0867,37.118966 185.0867,36.320966 L185.0867,32.568966 L187.0047,32.568966 L187.0047,31.210966 L185.0867,31.210966 L185.0867,28.480966 L183.3787,28.732966 L183.3787,31.210966 L182.1187,31.210966 L182.1187,32.568966 L183.3787,32.568966 L183.3787,36.586966 C183.3787,38.196966 184.0927,38.728966 185.6607,38.728966 Z M191.3545,38.784966 C193.1605,38.784966 194.9665,37.636966 194.9665,34.920966 C194.9665,32.190966 193.1605,31.056966 191.3545,31.056966 C189.5345,31.056966 187.7285,32.190966 187.7285,34.920966 C187.7285,37.636966 189.5485,38.784966 191.3545,38.784966 Z M191.3545,37.342966 C190.0245,37.342966 189.4505,36.348966 189.4505,34.934966 C189.4505,33.464966 190.1085,32.526966 191.3545,32.526966 C192.6565,32.526966 193.2585,33.562966 193.2585,34.934966 C193.2585,36.348966 192.6005,37.342966 191.3545,37.342966 Z" id="Emprendimiento" fill="#004481"></path>
                <path d="M448.0639,146.576564 C450.3589,146.576564 451.7839,144.986564 451.7839,142.886564 C451.7839,140.876564 450.6589,139.421564 448.3189,139.421564 C446.9089,139.421564 445.8589,140.141564 445.1539,140.906564 C445.1539,138.131564 446.4139,135.986564 448.4689,135.986564 C449.4589,135.986564 449.9989,136.256564 450.5989,136.736564 L451.0939,135.896564 C450.5089,135.416564 449.7289,135.056564 448.4839,135.056564 C445.9339,135.056564 444.1189,137.591564 444.1189,141.011564 C444.1189,144.821564 445.9039,146.576564 448.0639,146.576564 Z M448.1089,145.661564 C446.6389,145.661564 445.4239,144.521564 445.1989,141.971564 C445.9039,140.996564 446.9689,140.336564 448.1989,140.336564 C449.9989,140.336564 450.7489,141.431564 450.7489,142.901564 C450.7489,144.641564 449.6839,145.661564 448.1089,145.661564 Z M454.8759,146.396564 L459.5859,136.181564 L459.5859,135.266564 L452.7309,135.266564 L452.8059,136.241564 L458.4759,136.241564 L453.8109,146.336564 L454.8759,146.396564 Z M463.6184,141.776564 C465.1934,141.776564 466.1084,140.366564 466.1084,138.416564 C466.1084,136.406564 465.1634,135.116564 463.6334,135.116564 C462.1034,135.116564 461.1284,136.406564 461.1284,138.476564 C461.1284,140.426564 462.0134,141.776564 463.6184,141.776564 Z M464.6384,146.366564 L471.2684,135.266564 L470.3084,135.266564 L463.6784,146.366564 L464.6384,146.366564 Z M463.6334,140.966564 C462.6284,140.966564 462.0734,139.931564 462.0734,138.416564 C462.0734,137.021564 462.6134,135.926564 463.6184,135.926564 C464.6084,135.926564 465.1634,136.946564 465.1634,138.446564 C465.1634,139.856564 464.6234,140.966564 463.6334,140.966564 Z M471.3134,146.516564 C472.9034,146.516564 473.8184,145.106564 473.8184,143.171564 C473.8184,141.146564 472.8734,139.856564 471.3434,139.856564 C469.8134,139.856564 468.8234,141.161564 468.8234,143.216564 C468.8234,145.166564 469.7234,146.516564 471.3134,146.516564 Z M471.3284,145.706564 C470.3234,145.706564 469.7834,144.671564 469.7834,143.171564 C469.7834,141.761564 470.3084,140.666564 471.3134,140.666564 C472.3184,140.666564 472.8584,141.686564 472.8584,143.186564 C472.8584,144.596564 472.3334,145.706564 471.3284,145.706564 Z" id="67%" fill="#121212"></path>
                <g id="Group-2" transform="translate(172.000000, 0.079000)" font-size="15" font-family="BentonSansBBVA-Book, Benton Sans BBVA" letter-spacing="-0.011" fill="#121212" font-weight="300">
                    <text id="8%">
                        <tspan x="0.5967" y="14.9711635">8%</tspan>
                    </text>
                </g>
                <path d="M242.5912,129.36803 C233.7012,129.36803 229.8512,123.90803 229.8512,116.34803 C229.8512,107.31803 235.2412,102.34803 243.0112,102.34803 C250.0112,102.34803 256.1712,107.94803 257.3612,120.68803 C253.8612,125.79803 248.6112,129.36803 242.5912,129.36803 Z M241.4712,153.02803 C253.3012,153.02803 260.9312,140.28803 260.9312,125.23803 C260.9312,107.24803 252.7412,99.2680298 243.2212,99.2680298 C232.7212,99.2680298 226.3512,106.75803 226.3512,116.34803 C226.3512,125.16803 231.1112,132.44803 242.3812,132.44803 C249.3112,132.44803 254.3512,128.73803 257.5712,124.95803 C257.7112,138.74803 251.6212,149.94803 241.5412,149.94803 C236.0112,149.94803 233.4212,148.33803 230.2012,145.60803 L228.3112,148.26803 C231.3212,150.99803 235.3812,153.02803 241.4712,153.02803 Z M302.0162,152.04803 L301.4562,148.82803 L273.1062,148.82803 C273.2462,143.78803 277.9362,137.55803 287.7362,131.32803 C297.6762,125.02803 301.5262,120.61803 301.5262,113.26803 C301.5262,105.14803 295.8562,99.2680298 286.7562,99.2680298 C279.6162,99.2680298 273.9462,103.11803 270.5862,110.39803 L273.4562,111.79803 C276.4662,105.35803 280.5262,102.34803 286.6162,102.34803 C294.1762,102.34803 298.0962,106.89803 298.0962,113.47803 C298.0962,119.14803 294.9462,123.06803 287.2462,127.96803 C273.5962,136.71803 269.4662,143.43803 269.4662,150.92803 L269.4662,152.04803 L302.0162,152.04803 Z M315.8572,158.83803 L320.1972,146.44803 L315.5772,146.44803 L313.8272,158.83803 L315.8572,158.83803 Z M335.1792,152.04803 L357.5092,103.39803 L357.5092,100.24803 L326.4292,100.24803 L326.9892,103.60803 L353.7992,103.60803 L331.5392,152.04803 L335.1792,152.04803 Z" id="92,7" fill="#121212"></path>
                <path d="M218.926,198.248166 L218.926,190.436166 L218.954,190.436166 C219.178,191.444166 219.332,191.878166 219.57,192.620166 L221.586,198.248166 L223.14,198.248166 L225.17,192.620166 C225.394,191.892166 225.618,191.234166 225.772,190.506166 L225.8,190.506166 L225.8,198.248166 L227.494,198.248166 L227.494,187.888166 L225.156,187.888166 L222.454,196.106166 L222.426,196.106166 L219.64,187.888166 L217.344,187.888166 L217.344,198.248166 L218.926,198.248166 Z M231.6162,198.248166 L231.6162,187.888166 L229.8802,187.888166 L229.8802,198.248166 L231.6162,198.248166 Z M240.6244,198.248166 L240.3584,196.666166 L235.7244,196.666166 L235.7244,187.888166 L233.9744,187.888166 L233.9744,198.248166 L240.6244,198.248166 Z M248.6904,198.248166 L248.4244,196.666166 L243.7904,196.666166 L243.7904,187.888166 L242.0404,187.888166 L242.0404,198.248166 L248.6904,198.248166 Z M253.5238,198.444166 C256.0158,198.444166 258.1858,196.554166 258.1858,193.068166 C258.1858,189.582166 256.0158,187.692166 253.5238,187.692166 C251.0178,187.692166 248.8478,189.582166 248.8478,193.068166 C248.8478,196.554166 251.0178,198.444166 253.5238,198.444166 Z M253.5238,196.876166 C251.7738,196.876166 250.5978,195.420166 250.5978,193.068166 C250.5978,190.716166 251.7738,189.302166 253.5238,189.302166 C255.2738,189.302166 256.4498,190.716166 256.4498,193.068166 C256.4498,195.420166 255.2738,196.876166 253.5238,196.876166 Z M261.6458,198.248166 L261.6458,190.702166 L261.6738,190.702166 L266.7698,198.248166 L268.3658,198.248166 L268.3658,187.888166 L266.7418,187.888166 L266.7418,195.294166 L266.7138,195.294166 L261.8138,187.888166 L260.0358,187.888166 L260.0358,198.248166 L261.6458,198.248166 Z M277.6582,198.248166 L277.6582,196.666166 L272.4362,196.666166 L272.4362,193.642166 L276.4682,193.642166 L276.2162,192.088166 L272.4362,192.088166 L272.4362,189.512166 L277.3782,189.512166 L277.3782,187.888166 L270.6862,187.888166 L270.6862,198.248166 L277.6582,198.248166 Z M283.0474,198.444166 C285.5114,198.444166 286.8834,197.114166 286.8834,195.434166 C286.8834,193.474166 285.3154,192.844166 283.3554,192.270166 C281.6614,191.766166 280.9194,191.430166 280.9194,190.464166 C280.9194,189.792166 281.5914,189.274166 282.7674,189.274166 C283.8594,189.274166 284.9514,189.848166 285.7774,190.576166 L286.6034,189.176166 C285.6234,188.364166 284.3214,187.692166 282.7394,187.692166 C280.6674,187.692166 279.2114,188.854166 279.2114,190.604166 C279.2114,192.578166 280.8074,193.110166 282.8094,193.698166 C284.5174,194.216166 285.1754,194.636166 285.1754,195.546166 C285.1754,196.442166 284.2934,196.890166 282.9914,196.890166 C281.7174,196.890166 280.4154,196.176166 279.6174,195.350166 L278.6794,196.680166 C279.7294,197.674166 281.1854,198.444166 283.0474,198.444166 Z M295.2734,198.248166 C298.4794,198.248166 300.6634,196.722166 300.6634,193.026166 C300.6634,189.400166 298.5214,187.888166 295.2734,187.888166 L292.3334,187.888166 L292.3334,198.248166 L295.2734,198.248166 Z M294.0694,189.512166 L295.3994,189.512166 C297.8074,189.512166 298.9134,190.632166 298.9134,193.054166 C298.9134,195.574166 297.8214,196.666166 295.4274,196.666166 L294.0694,196.666166 L294.0694,189.512166 Z M309.4714,198.248166 L309.4714,196.666166 L304.2494,196.666166 L304.2494,193.642166 L308.2814,193.642166 L308.0294,192.088166 L304.2494,192.088166 L304.2494,189.512166 L309.1914,189.512166 L309.1914,187.888166 L302.4994,187.888166 L302.4994,198.248166 L309.4714,198.248166 Z M321.7114,198.248166 L321.7114,196.666166 L316.4894,196.666166 L316.4894,193.642166 L320.5214,193.642166 L320.2694,192.088166 L316.4894,192.088166 L316.4894,189.512166 L321.4314,189.512166 L321.4314,187.888166 L314.7394,187.888166 L314.7394,198.248166 L321.7114,198.248166 Z M326.9382,198.430166 C329.6682,198.430166 330.9422,196.806166 330.9422,194.454166 L330.9422,187.888166 L329.2202,187.888166 L329.2202,194.398166 C329.2202,195.896166 328.5342,196.834166 326.9522,196.834166 C325.3562,196.834166 324.6702,195.868166 324.6702,194.384166 L324.6702,187.888166 L322.9202,187.888166 L322.9202,194.482166 C322.9202,196.806166 324.1942,198.430166 326.9382,198.430166 Z M334.888,198.248166 L334.888,194.160166 L336.722,194.160166 L339.228,198.388166 L340.936,198.108166 L338.472,193.936166 C339.9,193.572166 340.754,192.718166 340.754,191.066166 C340.754,188.868166 339.326,187.888166 336.876,187.888166 L333.166,187.888166 L333.166,198.248166 L334.888,198.248166 Z M334.888,189.484166 L336.792,189.484166 C338.276,189.484166 339.046,189.890166 339.046,191.038166 C339.046,192.214166 338.276,192.634166 336.792,192.634166 L334.888,192.634166 L334.888,189.484166 Z M346.7242,198.444166 C349.2162,198.444166 351.3862,196.554166 351.3862,193.068166 C351.3862,189.582166 349.2162,187.692166 346.7242,187.692166 C344.2182,187.692166 342.0482,189.582166 342.0482,193.068166 C342.0482,196.554166 344.2182,198.444166 346.7242,198.444166 Z M346.7242,196.876166 C344.9742,196.876166 343.7982,195.420166 343.7982,193.068166 C343.7982,190.716166 344.9742,189.302166 346.7242,189.302166 C348.4742,189.302166 349.6502,190.716166 349.6502,193.068166 C349.6502,195.420166 348.4742,196.876166 346.7242,196.876166 Z M356.5948,198.444166 C359.0588,198.444166 360.4308,197.114166 360.4308,195.434166 C360.4308,193.474166 358.8628,192.844166 356.9028,192.270166 C355.2088,191.766166 354.4668,191.430166 354.4668,190.464166 C354.4668,189.792166 355.1388,189.274166 356.3148,189.274166 C357.4068,189.274166 358.4988,189.848166 359.3248,190.576166 L360.1508,189.176166 C359.1708,188.364166 357.8688,187.692166 356.2868,187.692166 C354.2148,187.692166 352.7588,188.854166 352.7588,190.604166 C352.7588,192.578166 354.3548,193.110166 356.3568,193.698166 C358.0648,194.216166 358.7228,194.636166 358.7228,195.546166 C358.7228,196.442166 357.8408,196.890166 356.5388,196.890166 C355.2648,196.890166 353.9628,196.176166 353.1648,195.350166 L352.2268,196.680166 C353.2768,197.674166 354.7328,198.444166 356.5948,198.444166 Z" id="MILLONES-DE-EUROS" fill="#666666"></path>
                <path d="M119.3708,66.6390635 L119.3708,55.5390635 L118.3958,55.5390635 L116.0708,56.3640635 L116.2058,57.2490635 L118.3358,56.5290635 L118.3358,66.6390635 L119.3708,66.6390635 Z M125.7943,66.6390635 L125.7943,55.5390635 L124.8193,55.5390635 L122.4943,56.3640635 L122.6293,57.2490635 L124.7593,56.5290635 L124.7593,66.6390635 L125.7943,66.6390635 Z M131.0628,62.0490635 C132.6378,62.0490635 133.5528,60.6390635 133.5528,58.6890635 C133.5528,56.6790635 132.6078,55.3890635 131.0778,55.3890635 C129.5478,55.3890635 128.5728,56.6790635 128.5728,58.7490635 C128.5728,60.6990635 129.4578,62.0490635 131.0628,62.0490635 Z M132.0828,66.6390635 L138.7128,55.5390635 L137.7528,55.5390635 L131.1228,66.6390635 L132.0828,66.6390635 Z M131.0778,61.2390635 C130.0728,61.2390635 129.5178,60.2040635 129.5178,58.6890635 C129.5178,57.2940635 130.0578,56.1990635 131.0628,56.1990635 C132.0528,56.1990635 132.6078,57.2190635 132.6078,58.7190635 C132.6078,60.1290635 132.0678,61.2390635 131.0778,61.2390635 Z M138.7578,66.7890635 C140.3478,66.7890635 141.2628,65.3790635 141.2628,63.4440635 C141.2628,61.4190635 140.3178,60.1290635 138.7878,60.1290635 C137.2578,60.1290635 136.2678,61.4340635 136.2678,63.4890635 C136.2678,65.4390635 137.1678,66.7890635 138.7578,66.7890635 Z M138.7728,65.9790635 C137.7678,65.9790635 137.2278,64.9440635 137.2278,63.4440635 C137.2278,62.0340635 137.7528,60.9390635 138.7578,60.9390635 C139.7628,60.9390635 140.3028,61.9590635 140.3028,63.4590635 C140.3028,64.8690635 139.7778,65.9790635 138.7728,65.9790635 Z" id="11%" fill="#121212"></path>
                <path d="M94.0058,174.504064 L94.0058,163.404064 L93.0308,163.404064 L90.7058,164.229064 L90.8408,165.114064 L92.9708,164.394064 L92.9708,174.504064 L94.0058,174.504064 Z M102.4863,174.504064 L102.4863,171.819064 L104.3763,171.819064 L104.3313,170.874064 L102.4863,170.874064 L102.4863,163.404064 L101.1663,163.404064 L96.1113,171.024064 L96.1113,171.819064 L101.4513,171.819064 L101.4513,174.504064 L102.4863,174.504064 Z M101.4213,164.649064 L101.4513,164.649064 L101.4513,170.874064 L97.3113,170.874064 L101.4213,164.649064 Z M107.9353,169.914064 C109.5103,169.914064 110.4253,168.504064 110.4253,166.554064 C110.4253,164.544064 109.4803,163.254064 107.9503,163.254064 C106.4203,163.254064 105.4453,164.544064 105.4453,166.614064 C105.4453,168.564064 106.3303,169.914064 107.9353,169.914064 Z M108.9553,174.504064 L115.5853,163.404064 L114.6253,163.404064 L107.9953,174.504064 L108.9553,174.504064 Z M107.9503,169.104064 C106.9453,169.104064 106.3903,168.069064 106.3903,166.554064 C106.3903,165.159064 106.9303,164.064064 107.9353,164.064064 C108.9253,164.064064 109.4803,165.084064 109.4803,166.584064 C109.4803,167.994064 108.9403,169.104064 107.9503,169.104064 Z M115.6303,174.654064 C117.2203,174.654064 118.1353,173.244064 118.1353,171.309064 C118.1353,169.284064 117.1903,167.994064 115.6603,167.994064 C114.1303,167.994064 113.1403,169.299064 113.1403,171.354064 C113.1403,173.304064 114.0403,174.654064 115.6303,174.654064 Z M115.6453,173.844064 C114.6403,173.844064 114.1003,172.809064 114.1003,171.309064 C114.1003,169.899064 114.6253,168.804064 115.6303,168.804064 C116.6353,168.804064 117.1753,169.824064 117.1753,171.324064 C117.1753,172.734064 116.6503,173.844064 115.6453,173.844064 Z" id="14%" fill="#121212"></path>
                <g id="Group-11" transform="translate(147.000000, 27.079000)">
                    <path d="M137.8147,0.4458 L137.8147,14.4308 C205.5027,14.5838 260.3277,69.4998 260.3277,137.2228 C260.3277,205.0408 205.3497,260.0178 137.5327,260.0178 C91.3687,260.0178 51.1627,234.5388 30.1877,196.8818 L18.1857,203.5338 C43.0887,248.4608 86.4477,273.9998 137.8147,273.9998 C213.3547,273.9998 274.5917,212.7628 274.5917,137.2228 C274.5917,61.6828 213.3547,0.4458 137.8147,0.4458" id="Fill-3" fill="#00CCCD"></path>
                    <path d="M14.7375,137.2227 C14.7375,121.6747 17.6335,106.8047 22.9065,93.1137 L10.1215,88.2057 C-5.0375,127.6987 -2.3225,166.5347 18.1855,203.5337 L30.1875,196.8817 C20.3495,179.2167 14.7375,158.8767 14.7375,137.2227" id="Fill-5" fill="#00BEFF"></path>
                    <path d="M78.2082,29.6914 L71.5032,17.5944 C42.4332,33.7084 22.0332,57.1764 10.1212,88.2064 L22.9062,93.1134 C33.3332,66.0354 53.0742,43.5874 78.2082,29.6914" id="Fill-7" fill="#1364A5"></path>
                    <path d="M137.5324,14.4277 C137.6264,14.4277 137.7194,14.4307 137.8144,14.4307 L137.8144,0.4457 C113.6414,0.4457 92.6454,5.8757 71.5034,17.5947 L78.2084,29.6917 C95.7954,19.9687 116.0144,14.4277 137.5324,14.4277" id="Fill-9" fill="#004481"></path>
                </g>
            </g>
        </g>
    </g>
</svg>