<?xml version="1.0" encoding="utf-8"?>
<!-- Generator: Adobe Illustrator 21.0.0, SVG Export Plug-In . SVG Version: 6.00 Build 0)  -->
<!DOCTYPE svg PUBLIC "-//W3C//DTD SVG 1.1//EN" "http://www.w3.org/Graphics/SVG/1.1/DTD/svg11.dtd">
<svg version="1.1" id="Capa_1" xmlns="http://www.w3.org/2000/svg" xmlns:xlink="http://www.w3.org/1999/xlink" x="0px" y="0px"
	 viewBox="0 0 560 199" style="enable-background:new 0 0 560 199;" xml:space="preserve">
<style type="text/css">
	.st0{fill:#F3F3F3;}
	.st1{fill:#2ECDCD;}
	.st2{fill:#FFFFFF;}
	.st3{enable-background:new    ;}
	.st4{fill:#666666;}
	.st5{fill:#121212;}
</style>
<title>sociedad-medioambiente-eng</title>
<g>
	<g>
		<g>
			<g>
				<g>
					<path class="st0" d="M469.4,82.1l24.7-76c42,13.6,65,58.7,51.3,100.7s-58.7,65-100.7,51.3c-42-13.6-65-58.7-51.3-100.7
						c10.9-33.5,40.8-55.2,76-55.2V82.1z"/>
				</g>
			</g>
		</g>
		<g>
			<g>
				<g>
					<path class="st1" d="M469.4,82.1v-80c8.8,0,16.3,1.2,24.7,3.9L469.4,82.1z"/>
				</g>
			</g>
		</g>
	</g>
	<g>
		<g>
			<g>
				<g>
					<path class="st0" d="M91.2,82l27.3-75.1c41.5,15.1,62.9,61,47.8,102.5s-61,62.9-102.5,47.8C22.4,142,1,96.2,16.1,54.7
						C27.7,22.8,57.3,2.1,91.2,2.1V82z"/>
				</g>
			</g>
		</g>
		<g>
			<g>
				<g>
					<path class="st1" d="M91.2,82V2.1c10.2,0,17.8,1.3,27.3,4.8L91.2,82z"/>
				</g>
			</g>
		</g>
	</g>
	<g>
		<circle class="st2" cx="91.6" cy="81.7" r="74.1"/>
	</g>
	<g>
		<g>
			<g>
				<g>
					<path class="st0" d="M279.3,81.9L327.4,18c35.3,26.6,42.3,76.7,15.7,111.9s-76.7,42.3-111.9,15.7S188.9,69,215.4,33.7
						c15.4-20.4,38.3-31.8,63.8-31.8v80H279.3z"/>
				</g>
			</g>
		</g>
		<g>
			<g>
				<g>
					<path class="st1" d="M279.3,81.9v-80c18.5,0,33.3,4.9,48.1,16.1L279.3,81.9z"/>
				</g>
			</g>
		</g>
	</g>
	<g>
		<circle class="st2" cx="279.3" cy="81.9" r="74.1"/>
	</g>
	<g>
		<circle class="st2" cx="469.4" cy="82.1" r="74.1"/>
	</g>
	<g class="st3">
		<path class="st1" d="M79.3,103.3c0-3.2,1.8-5,4.2-5c1.8,0,3,0.8,3.6,2.2l-1.4,0.8c-0.4-0.9-1.1-1.5-2.2-1.5
			c-1.6,0-2.5,1.4-2.5,3.5c0,2.2,1,3.6,2.6,3.6c1.2,0,2-0.7,2.4-1.8l1.4,0.6c-0.6,1.6-1.7,2.6-3.8,2.6
			C81.1,108.3,79.3,106.5,79.3,103.3z"/>
		<path class="st1" d="M88.4,103.3c0-3.2,2-5,4.3-5c2.3,0,4.3,1.8,4.3,5c0,3.2-2,5-4.3,5C90.4,108.3,88.4,106.6,88.4,103.3z
			 M95.5,103.3c0-2.2-1.1-3.5-2.7-3.5s-2.7,1.3-2.7,3.5c0,2.2,1.1,3.5,2.7,3.5S95.5,105.5,95.5,103.3z"/>
	</g>
	<g class="st3">
		<path class="st1" d="M98.1,112.5v-0.1c0-0.8,0.3-1.6,1.8-2.5c0.9-0.5,1.2-0.8,1.2-1.4c0-0.5-0.3-0.8-0.9-0.8c-0.5,0-1,0.3-1.3,0.9
			l-0.7-0.6c0.4-0.7,1.1-1.2,2-1.2c1.1,0,1.8,0.6,1.8,1.6c0,0.7-0.3,1.2-1.3,1.9c-0.9,0.6-1.4,1-1.4,1.4h2.7l0.1,0.8H98.1z"/>
	</g>
	<g class="st3">
		<path class="st4" d="M41.1,185v-8.1h2.7c1.8,0,2.8,0.7,2.8,2.2c0,1.7-1.2,2.3-2.9,2.3h-1.8v3.6H41.1z M41.9,180.7h1.9
			c1.3,0,2.1-0.4,2.1-1.6c0-1.1-0.7-1.5-2.1-1.5h-1.9V180.7z"/>
		<path class="st4" d="M47.8,180.9c0-2.6,1.5-4.2,3.4-4.2c2,0,3.4,1.7,3.4,4.2c0,2.6-1.5,4.2-3.4,4.2
			C49.3,185.1,47.8,183.4,47.8,180.9z M53.9,180.9c0-2.2-1.1-3.5-2.7-3.5s-2.7,1.3-2.7,3.5s1.1,3.5,2.7,3.5S53.9,183.1,53.9,180.9z"
			/>
		<path class="st4" d="M56.4,185v-8.1h2.7c1.8,0,2.8,0.8,2.8,2.2c0,1.3-0.8,1.9-1.9,2.2l2.1,3.7l-0.8,0.1l-2.1-3.7h-2v3.7H56.4z
			 M57.1,180.6H59c1.3,0,2.1-0.4,2.1-1.6c0-1.1-0.7-1.5-2.1-1.5h-1.9V180.6z"/>
		<path class="st4" d="M66.2,185v-8.1h2.7c1.8,0,2.8,0.7,2.8,2.2c0,1.7-1.2,2.3-2.9,2.3H67v3.6H66.2z M67,180.7h1.9
			c1.3,0,2.1-0.4,2.1-1.6c0-1.1-0.7-1.5-2.1-1.5H67V180.7z"/>
		<path class="st4" d="M73.3,185v-8.1h4.9v0.7h-4.1v2.8h3l0.1,0.7h-3.2v3.2h4.3v0.7H73.3z"/>
		<path class="st4" d="M79.9,185v-8.1h2.7c1.8,0,2.8,0.8,2.8,2.2c0,1.3-0.8,1.9-1.9,2.2l2.1,3.7l-0.8,0.1l-2.1-3.7h-2v3.7H79.9z
			 M80.7,180.6h1.9c1.3,0,2.1-0.4,2.1-1.6c0-1.1-0.7-1.5-2.1-1.5h-1.9V180.6z"/>
		<path class="st4" d="M86.6,183.8l0.5-0.6c0.7,0.7,1.7,1.2,2.8,1.2c1.3,0,2.1-0.6,2.1-1.5c0-0.8-0.4-1.3-2.1-1.8
			c-1.7-0.5-2.6-1-2.6-2.4c0-1.2,1-2.1,2.5-2.1c1.2,0,2.1,0.5,2.9,1.2l-0.4,0.6c-0.7-0.7-1.5-1.1-2.5-1.1c-1.1,0-1.8,0.6-1.8,1.3
			c0,0.9,0.5,1.2,2.3,1.8c1.7,0.5,2.5,1.1,2.5,2.4c0,1.3-1.2,2.2-2.8,2.2C88.5,185.1,87.4,184.6,86.6,183.8z"/>
		<path class="st4" d="M93.8,180.9c0-2.6,1.5-4.2,3.4-4.2c2,0,3.4,1.7,3.4,4.2c0,2.6-1.5,4.2-3.4,4.2
			C95.3,185.1,93.8,183.4,93.8,180.9z M99.9,180.9c0-2.2-1.1-3.5-2.7-3.5s-2.7,1.3-2.7,3.5s1.1,3.5,2.7,3.5S99.9,183.1,99.9,180.9z"
			/>
		<path class="st4" d="M102.4,185v-8.1h0.8l4.5,6.7h0v-6.7h0.7v8.1h-0.7l-4.6-6.9h0v6.9H102.4z"/>
		<path class="st4" d="M109.9,185l2.9-8.2h0.8l2.9,8.1l-0.8,0.1l-0.9-2.6h-3.3l-0.9,2.5H109.9z M111.8,181.8h2.8l-1.4-4h0
			L111.8,181.8z"/>
		<path class="st4" d="M122.5,187.2c-1.8-1.5-2.7-3.2-2.7-5.3c0-2.1,0.9-3.8,2.7-5.3l0.3,0.4c-1.4,1.3-2.2,2.9-2.2,4.9
			c0,1.9,0.9,3.6,2.3,4.9L122.5,187.2z"/>
		<path class="st4" d="M124.1,179.2c0-1.5,0.7-2.5,1.8-2.5c1.1,0,1.8,0.9,1.8,2.4c0,1.4-0.7,2.5-1.8,2.5
			C124.8,181.6,124.1,180.6,124.1,179.2z M127.1,179.2c0-1.1-0.4-1.8-1.1-1.8c-0.7,0-1.1,0.8-1.1,1.8c0,1.1,0.4,1.9,1.1,1.9
			C126.7,181,127.1,180.2,127.1,179.2z M126,185l4.9-8.1h0.7l-4.9,8.1H126z M129.8,182.7c0-1.5,0.7-2.5,1.8-2.5s1.8,0.9,1.8,2.4
			c0,1.4-0.7,2.5-1.8,2.5C130.4,185.1,129.8,184.1,129.8,182.7z M132.7,182.6c0-1.1-0.4-1.8-1.1-1.8c-0.7,0-1.1,0.8-1.1,1.8
			c0,1.1,0.4,1.9,1.1,1.9C132.3,184.5,132.7,183.7,132.7,182.6z"/>
		<path class="st4" d="M134.7,186.8c1.4-1.3,2.3-2.9,2.3-4.9c0-1.9-0.9-3.6-2.3-4.9l0.3-0.4c1.8,1.5,2.8,3.2,2.8,5.3
			c0,2.1-1,3.8-2.8,5.3L134.7,186.8z"/>
	</g>
	<g class="st3">
		<path class="st4" d="M233,185v-8.1h2.7c1.8,0,2.8,0.7,2.8,2.2c0,1.7-1.2,2.3-2.9,2.3h-1.8v3.6H233z M233.8,180.7h1.9
			c1.3,0,2.1-0.4,2.1-1.6c0-1.1-0.7-1.5-2.1-1.5h-1.9V180.7z"/>
		<path class="st4" d="M239.7,180.9c0-2.6,1.5-4.2,3.4-4.2c2,0,3.4,1.7,3.4,4.2c0,2.6-1.5,4.2-3.4,4.2
			C241.2,185.1,239.7,183.4,239.7,180.9z M245.8,180.9c0-2.2-1.1-3.5-2.7-3.5s-2.7,1.3-2.7,3.5s1.1,3.5,2.7,3.5
			S245.8,183.1,245.8,180.9z"/>
		<path class="st4" d="M248.3,185v-8.1h2.7c1.8,0,2.8,0.8,2.8,2.2c0,1.3-0.8,1.9-1.9,2.2l2.1,3.7l-0.8,0.1l-2.1-3.7h-2v3.7H248.3z
			 M249,180.6h1.9c1.3,0,2.1-0.4,2.1-1.6c0-1.1-0.7-1.5-2.1-1.5H249V180.6z"/>
		<path class="st4" d="M258.1,185v-8.1h2.7c1.8,0,2.8,0.7,2.8,2.2c0,1.7-1.2,2.3-2.9,2.3h-1.8v3.6H258.1z M258.9,180.7h1.9
			c1.3,0,2.1-0.4,2.1-1.6c0-1.1-0.7-1.5-2.1-1.5h-1.9V180.7z"/>
		<path class="st4" d="M265.2,185v-8.1h4.9v0.7H266v2.8h3l0.1,0.7H266v3.2h4.3v0.7H265.2z"/>
		<path class="st4" d="M271.9,185v-8.1h2.7c1.8,0,2.8,0.8,2.8,2.2c0,1.3-0.8,1.9-1.9,2.2l2.1,3.7l-0.8,0.1l-2.1-3.7h-2v3.7H271.9z
			 M272.6,180.6h1.9c1.3,0,2.1-0.4,2.1-1.6c0-1.1-0.7-1.5-2.1-1.5h-1.9V180.6z"/>
		<path class="st4" d="M278.5,183.8l0.5-0.6c0.7,0.7,1.7,1.2,2.8,1.2c1.3,0,2.1-0.6,2.1-1.5c0-0.8-0.4-1.3-2.1-1.8
			c-1.7-0.5-2.6-1-2.6-2.4c0-1.2,1-2.1,2.5-2.1c1.2,0,2.1,0.5,2.9,1.2l-0.4,0.6c-0.7-0.7-1.5-1.1-2.5-1.1c-1.1,0-1.8,0.6-1.8,1.3
			c0,0.9,0.5,1.2,2.3,1.8c1.7,0.5,2.5,1.1,2.5,2.4c0,1.3-1.2,2.2-2.8,2.2C280.4,185.1,279.3,184.6,278.5,183.8z"/>
		<path class="st4" d="M285.8,180.9c0-2.6,1.5-4.2,3.4-4.2c2,0,3.4,1.7,3.4,4.2c0,2.6-1.5,4.2-3.4,4.2
			C287.2,185.1,285.8,183.4,285.8,180.9z M291.8,180.9c0-2.2-1.1-3.5-2.7-3.5c-1.5,0-2.7,1.3-2.7,3.5s1.1,3.5,2.7,3.5
			C290.7,184.4,291.8,183.1,291.8,180.9z"/>
		<path class="st4" d="M294.3,185v-8.1h0.8l4.5,6.7h0v-6.7h0.7v8.1h-0.7l-4.6-6.9h0v6.9H294.3z"/>
		<path class="st4" d="M301.8,185l2.9-8.2h0.8l2.9,8.1l-0.8,0.1l-0.9-2.6h-3.3l-0.9,2.5H301.8z M303.7,181.8h2.8l-1.4-4h0
			L303.7,181.8z"/>
		<path class="st4" d="M314.4,187.2c-1.8-1.5-2.7-3.2-2.7-5.3c0-2.1,0.9-3.8,2.7-5.3l0.3,0.4c-1.4,1.3-2.2,2.9-2.2,4.9
			c0,1.9,0.9,3.6,2.3,4.9L314.4,187.2z"/>
		<path class="st4" d="M316,179.2c0-1.5,0.7-2.5,1.8-2.5c1.1,0,1.8,0.9,1.8,2.4c0,1.4-0.7,2.5-1.8,2.5
			C316.7,181.6,316,180.6,316,179.2z M319,179.2c0-1.1-0.4-1.8-1.1-1.8c-0.7,0-1.1,0.8-1.1,1.8c0,1.1,0.4,1.9,1.1,1.9
			C318.6,181,319,180.2,319,179.2z M317.9,185l4.9-8.1h0.7l-4.9,8.1H317.9z M321.7,182.7c0-1.5,0.7-2.5,1.8-2.5
			c1.1,0,1.8,0.9,1.8,2.4c0,1.4-0.7,2.5-1.8,2.5S321.7,184.1,321.7,182.7z M324.7,182.6c0-1.1-0.4-1.8-1.1-1.8
			c-0.7,0-1.1,0.8-1.1,1.8c0,1.1,0.4,1.9,1.1,1.9S324.7,183.7,324.7,182.6z"/>
		<path class="st4" d="M326.6,186.8c1.4-1.3,2.3-2.9,2.3-4.9c0-1.9-0.9-3.6-2.3-4.9l0.3-0.4c1.8,1.5,2.8,3.2,2.8,5.3
			c0,2.1-1,3.8-2.8,5.3L326.6,186.8z"/>
	</g>
	<g class="st3">
		<path class="st4" d="M423.7,185v-8.1h2.7c1.8,0,2.8,0.7,2.8,2.2c0,1.7-1.2,2.3-2.9,2.3h-1.8v3.6H423.7z M424.4,180.7h1.9
			c1.3,0,2.1-0.4,2.1-1.6c0-1.1-0.7-1.5-2.1-1.5h-1.9V180.7z"/>
		<path class="st4" d="M430.3,180.9c0-2.6,1.5-4.2,3.4-4.2c2,0,3.4,1.7,3.4,4.2c0,2.6-1.5,4.2-3.4,4.2
			C431.8,185.1,430.3,183.4,430.3,180.9z M436.4,180.9c0-2.2-1.1-3.5-2.7-3.5s-2.7,1.3-2.7,3.5s1.1,3.5,2.7,3.5
			S436.4,183.1,436.4,180.9z"/>
		<path class="st4" d="M438.9,185v-8.1h2.7c1.8,0,2.8,0.8,2.8,2.2c0,1.3-0.8,1.9-1.9,2.2l2.1,3.7l-0.8,0.1l-2.1-3.7h-2v3.7H438.9z
			 M439.7,180.6h1.9c1.3,0,2.1-0.4,2.1-1.6c0-1.1-0.7-1.5-2.1-1.5h-1.9V180.6z"/>
		<path class="st4" d="M448.8,185v-8.1h2.7c1.8,0,2.8,0.7,2.8,2.2c0,1.7-1.2,2.3-2.9,2.3h-1.8v3.6H448.8z M449.5,180.7h1.9
			c1.3,0,2.1-0.4,2.1-1.6c0-1.1-0.7-1.5-2.1-1.5h-1.9V180.7z"/>
		<path class="st4" d="M455.8,185v-8.1h4.9v0.7h-4.1v2.8h3l0.1,0.7h-3.2v3.2h4.3v0.7H455.8z"/>
		<path class="st4" d="M462.5,185v-8.1h2.7c1.8,0,2.8,0.8,2.8,2.2c0,1.3-0.8,1.9-1.9,2.2l2.1,3.7l-0.8,0.1l-2.1-3.7h-2v3.7H462.5z
			 M463.2,180.6h1.9c1.3,0,2.1-0.4,2.1-1.6c0-1.1-0.7-1.5-2.1-1.5h-1.9V180.6z"/>
		<path class="st4" d="M469.1,183.8l0.5-0.6c0.7,0.7,1.7,1.2,2.8,1.2c1.3,0,2.1-0.6,2.1-1.5c0-0.8-0.4-1.3-2.1-1.8
			c-1.7-0.5-2.6-1-2.6-2.4c0-1.2,1-2.1,2.5-2.1c1.2,0,2.1,0.5,2.9,1.2l-0.4,0.6c-0.7-0.7-1.5-1.1-2.5-1.1c-1.1,0-1.8,0.6-1.8,1.3
			c0,0.9,0.5,1.2,2.3,1.8c1.7,0.5,2.5,1.1,2.5,2.4c0,1.3-1.2,2.2-2.8,2.2C471,185.1,469.9,184.6,469.1,183.8z"/>
		<path class="st4" d="M476.4,180.9c0-2.6,1.5-4.2,3.4-4.2c2,0,3.4,1.7,3.4,4.2c0,2.6-1.5,4.2-3.4,4.2
			C477.8,185.1,476.4,183.4,476.4,180.9z M482.5,180.9c0-2.2-1.1-3.5-2.7-3.5c-1.5,0-2.7,1.3-2.7,3.5s1.1,3.5,2.7,3.5
			C481.3,184.4,482.5,183.1,482.5,180.9z"/>
		<path class="st4" d="M484.9,185v-8.1h0.8l4.5,6.7h0v-6.7h0.7v8.1h-0.7l-4.6-6.9h0v6.9H484.9z"/>
		<path class="st4" d="M492.5,185l2.9-8.2h0.8l2.9,8.1l-0.8,0.1l-0.9-2.6h-3.3l-0.9,2.5H492.5z M494.3,181.8h2.8l-1.4-4h0
			L494.3,181.8z"/>
		<path class="st4" d="M505,187.2c-1.8-1.5-2.7-3.2-2.7-5.3c0-2.1,0.9-3.8,2.7-5.3l0.3,0.4c-1.4,1.3-2.2,2.9-2.2,4.9
			c0,1.9,0.9,3.6,2.3,4.9L505,187.2z"/>
		<path class="st4" d="M506.7,179.2c0-1.5,0.7-2.5,1.8-2.5c1.1,0,1.8,0.9,1.8,2.4c0,1.4-0.7,2.5-1.8,2.5
			C507.3,181.6,506.7,180.6,506.7,179.2z M509.6,179.2c0-1.1-0.4-1.8-1.1-1.8c-0.7,0-1.1,0.8-1.1,1.8c0,1.1,0.4,1.9,1.1,1.9
			C509.2,181,509.6,180.2,509.6,179.2z M508.5,185l4.9-8.1h0.7l-4.9,8.1H508.5z M512.3,182.7c0-1.5,0.7-2.5,1.8-2.5
			c1.1,0,1.8,0.9,1.8,2.4c0,1.4-0.7,2.5-1.8,2.5S512.3,184.1,512.3,182.7z M515.3,182.6c0-1.1-0.4-1.8-1.1-1.8
			c-0.7,0-1.1,0.8-1.1,1.8c0,1.1,0.4,1.9,1.1,1.9S515.3,183.7,515.3,182.6z"/>
		<path class="st4" d="M517.2,186.8c1.4-1.3,2.3-2.9,2.3-4.9c0-1.9-0.9-3.6-2.3-4.9l0.3-0.4c1.8,1.5,2.8,3.2,2.8,5.3
			c0,2.1-1,3.8-2.8,5.3L517.2,186.8z"/>
	</g>
	<g class="st3">
		<path class="st5" d="M61,78.9l1.5-0.9c1.5,2.6,3.7,4.4,7.1,4.4c4.8,0,7-3.8,7-7.6c0-4.6-2.8-7.2-6.4-7.2c-3,0-4.9,1.4-6.4,3.6
			l-1.5-0.6l1-13.8h13.2l0.3,1.7h-12l-0.8,10.2c1.4-1.7,3.2-2.7,6-2.7c4.6,0,8.1,3.3,8.1,8.6c0,5.3-3.4,9.3-8.8,9.3
			C65.7,84,62.6,81.9,61,78.9z"/>
		<path class="st5" d="M82.6,87l0.9-6.4h2.4L83.6,87H82.6z"/>
		<path class="st5" d="M91.7,83.5l11.4-24.9H89.4l-0.3-1.7h16v1.6l-11.5,25H91.7z"/>
		<path class="st5" d="M109.3,81.6l1-1.4c1.7,1.4,3,2.2,5.8,2.2c5.2,0,8.3-5.8,8.2-12.9c-1.7,1.9-4.2,3.9-7.8,3.9
			c-5.8,0-8.2-3.7-8.2-8.3c0-4.9,3.3-8.8,8.7-8.8c4.9,0,9.1,4.1,9.1,13.4c0,7.7-3.9,14.3-10,14.3C113,84,110.9,83,109.3,81.6z
			 M124.3,67.4c-0.6-6.6-3.8-9.4-7.4-9.4c-4,0-6.8,2.6-6.8,7.2c0,3.9,2,6.7,6.6,6.7C119.8,71.8,122.5,70,124.3,67.4z"/>
	</g>
	<g class="st3">
		<path class="st1" d="M232.6,108.1v-9.6h6.2v1.5h-4.6v2.4h3.5l0.2,1.4h-3.7v2.8h4.8v1.5H232.6z"/>
		<path class="st1" d="M240.6,108.1v-9.6h1.6v8.2h4.3l0.2,1.5H240.6z"/>
		<path class="st1" d="M248.2,108.1v-9.6h6.2v1.5h-4.6v2.4h3.5l0.2,1.4h-3.7v2.8h4.8v1.5H248.2z"/>
		<path class="st1" d="M255.4,103.3c0-3.2,1.8-5,4.2-5c1.8,0,3,0.8,3.6,2.2l-1.4,0.8c-0.4-0.9-1.1-1.5-2.2-1.5
			c-1.6,0-2.5,1.4-2.5,3.5c0,2.2,1,3.6,2.6,3.6c1.2,0,2-0.7,2.4-1.8l1.4,0.6c-0.6,1.6-1.7,2.6-3.8,2.6
			C257.1,108.3,255.4,106.5,255.4,103.3z"/>
		<path class="st1" d="M266.9,108.1V100h-3v-1.5h7.4l0.2,1.5h-3.1v8.1H266.9z"/>
		<path class="st1" d="M272.9,108.1v-9.6h3.4c2.3,0,3.6,0.9,3.6,3c0,1.5-0.8,2.3-2.1,2.7l2.3,3.9l-1.6,0.3l-2.3-3.9h-1.7v3.8H272.9z
			 M274.5,102.9h1.8c1.4,0,2.1-0.4,2.1-1.5c0-1.1-0.7-1.4-2.1-1.4h-1.8V102.9z"/>
		<path class="st1" d="M282,108.1v-9.6h1.6v9.6H282z"/>
		<path class="st1" d="M285.5,103.3c0-3.2,1.8-5,4.2-5c1.8,0,3,0.8,3.6,2.2l-1.4,0.8c-0.4-0.9-1.1-1.5-2.2-1.5
			c-1.6,0-2.5,1.4-2.5,3.5c0,2.2,1,3.6,2.6,3.6c1.2,0,2-0.7,2.4-1.8l1.4,0.6c-0.6,1.6-1.7,2.6-3.8,2.6
			C287.3,108.3,285.5,106.5,285.5,103.3z"/>
		<path class="st1" d="M295.3,108.1v-9.6h1.6v9.6H295.3z"/>
		<path class="st1" d="M299.2,108.1v-9.6h2.7c3,0,5,1.4,5,4.8c0,3.4-2,4.8-5,4.8H299.2z M300.8,106.7h1.3c2.2,0,3.2-1,3.2-3.4
			c0-2.2-1-3.3-3.3-3.3h-1.2V106.7z"/>
		<path class="st1" d="M307.4,108.1l3.4-9.7h1.6l3.4,9.5l-1.6,0.3l-0.8-2.4h-3.7l-0.8,2.3H307.4z M310.2,104.4h2.7l-1.3-3.9h0
			L310.2,104.4z"/>
		<path class="st1" d="M317.2,108.1v-9.6h2.7c3,0,5,1.4,5,4.8c0,3.4-2,4.8-5,4.8H317.2z M318.8,106.7h1.3c2.2,0,3.2-1,3.2-3.4
			c0-2.2-1-3.3-3.3-3.3h-1.2V106.7z"/>
	</g>
	<g>
		<g class="st3">
			<path class="st5" d="M246.3,83.5V58.6l-5.1,1.9l-0.3-1.5l5.5-2h1.6v26.6H246.3z"/>
			<path class="st5" d="M255.2,70.2c0-8.3,3.4-13.8,9.5-13.8c6.1,0,9.4,5.5,9.4,13.8c0,8.3-3.3,13.8-9.4,13.8
				C258.6,84,255.2,78.5,255.2,70.2z M272.4,70.2c0-7.8-3.1-12.2-7.7-12.2c-4.8,0-7.7,4.4-7.7,12.2s3.1,12.2,7.7,12.2
				C269.5,82.4,272.4,78,272.4,70.2z"/>
			<path class="st5" d="M278,87l0.9-6.4h2.4l-2.2,6.4H278z"/>
			<path class="st5" d="M286,78.9l1.5-0.9c1.5,2.6,3.7,4.4,7.1,4.4c4.8,0,7-3.8,7-7.6c0-4.6-2.8-7.2-6.4-7.2c-3,0-4.9,1.4-6.4,3.6
				l-1.5-0.6l1-13.8h13.2l0.3,1.7h-12l-0.8,10.2c1.4-1.7,3.2-2.7,6-2.7c4.6,0,8.1,3.3,8.1,8.6c0,5.3-3.4,9.3-8.8,9.3
				C290.7,84,287.6,81.9,286,78.9z"/>
			<path class="st5" d="M306.7,77.2c0-3.8,2.7-5.8,7.3-7.8c-3.8-1.7-6.1-3.4-6.1-6.6c0-3.3,3.1-6.3,8-6.3c5.1,0,8,3.1,8,6.3
				c0,3.3-2.2,4.8-6.2,6.6c4.8,2.1,7.4,4,7.4,7.9c0,3.6-3.4,6.8-9.2,6.8S306.7,80.8,306.7,77.2z M323.3,77.1c0-3.2-2.7-5-7.5-7
				c-5.1,2.3-7.4,3.9-7.4,7c0,3.1,3.2,5.4,7.5,5.4S323.3,80.3,323.3,77.1z M322.1,62.7c0-2.3-1.9-4.8-6.2-4.8
				c-4.1,0-6.2,2.4-6.2,4.6c0,2.7,1.9,4,6.3,5.9C320.3,66.6,322.1,65.4,322.1,62.7z"/>
		</g>
	</g>
	<g class="st3">
		<path class="st1" d="M451.4,108.1l3.4-9.7h1.6l3.4,9.5l-1.6,0.3l-0.8-2.4h-3.7l-0.8,2.3H451.4z M454.2,104.4h2.7l-1.3-3.9h0
			L454.2,104.4z"/>
		<path class="st1" d="M460.3,103.3c0-3,1.7-5,4.2-5c1.5,0,2.9,0.7,3.6,2.3l-1.4,0.8c-0.4-1-1.1-1.5-2.2-1.5c-1.2,0-2.6,0.8-2.6,3.4
			c0,2.6,1.3,3.6,2.7,3.6c1.3,0,2.2-0.8,2.3-2.2H465l-0.2-1.3h3.6v4.8H467v-1.1h0c-0.4,0.7-1.3,1.3-2.7,1.3
			C461.6,108.3,460.3,106.2,460.3,103.3z"/>
		<path class="st1" d="M470.2,104.6v-6.1h1.6v6c0,1.4,0.6,2.3,2.1,2.3c1.5,0,2.1-0.9,2.1-2.3v-6h1.6v6.1c0,2.2-1.2,3.7-3.7,3.7
			C471.3,108.3,470.2,106.8,470.2,104.6z"/>
		<path class="st1" d="M478.6,108.1l3.4-9.7h1.6l3.4,9.5l-1.6,0.3l-0.8-2.4h-3.7l-0.8,2.3H478.6z M481.4,104.4h2.7l-1.3-3.9h0
			L481.4,104.4z"/>
	</g>
	<g>
		<g class="st3">
			<path class="st5" d="M437.9,78.9l1.5-0.9c1.5,2.6,3.7,4.4,7.1,4.4c4.8,0,7-3.8,7-7.6c0-4.6-2.8-7.2-6.4-7.2c-3,0-4.9,1.4-6.4,3.6
				l-1.5-0.6l1-13.8h13.2l0.3,1.7h-12L441,68.7c1.4-1.7,3.2-2.7,6-2.7c4.6,0,8.1,3.3,8.1,8.6c0,5.3-3.4,9.3-8.8,9.3
				C442.6,84,439.5,81.9,437.9,78.9z"/>
			<path class="st5" d="M459.5,87l0.9-6.4h2.4l-2.2,6.4H459.5z"/>
			<path class="st5" d="M466.5,70.2c0-8.3,3.4-13.8,9.5-13.8c6.1,0,9.4,5.5,9.4,13.8c0,8.3-3.3,13.8-9.4,13.8
				C469.9,84,466.5,78.5,466.5,70.2z M483.6,70.2c0-7.8-3.1-12.2-7.7-12.2c-4.8,0-7.7,4.4-7.7,12.2s3.1,12.2,7.7,12.2
				C480.7,82.4,483.6,78,483.6,70.2z"/>
			<path class="st5" d="M489.1,83.5v-0.6c0-3.9,2.1-7.3,9.1-11.8c4-2.5,5.6-4.5,5.6-7.5c0-3.4-2-5.7-5.9-5.7c-3.1,0-5.2,1.5-6.8,4.9
				l-1.5-0.7c1.7-3.7,4.6-5.7,8.3-5.7c4.7,0,7.6,3,7.6,7.2c0,3.8-2,6-7.1,9.3c-5,3.2-7.5,6.4-7.5,9h14.6l0.3,1.7H489.1z"/>
		</g>
	</g>
</g>
</svg>
