<?xml version="1.0" encoding="utf-8"?>
<!-- Generator: Adobe Illustrator 21.0.0, SVG Export Plug-In . SVG Version: 6.00 Build 0)  -->
<!DOCTYPE svg PUBLIC "-//W3C//DTD SVG 1.1//EN" "http://www.w3.org/Graphics/SVG/1.1/DTD/svg11.dtd">
<svg version="1.1" id="Capa_1" xmlns="http://www.w3.org/2000/svg" xmlns:xlink="http://www.w3.org/1999/xlink" x="0px" y="0px"
	 viewBox="0 0 571 298" style="enable-background:new 0 0 571 298;" xml:space="preserve">
<style type="text/css">
	.st0{fill:none;}
	.st1{enable-background:new    ;}
	.st2{fill:#00CCCD;}
	.st3{fill:#00BEFF;}
	.st4{fill:#004481;}
	.st5{fill:#121212;}
	.st6{fill:#666666;}
	.st7{fill:#1464A5;}
</style>
<title>Group 3</title>
<desc>Created with Sketch.</desc>
<g>
	<g>
		<rect x="436.1" y="159.3" class="st0" width="147.7" height="34.2"/>
	</g>
	<g class="st1">
		<path class="st2" d="M436.8,164.6c0-3.4,1.9-5.4,4.5-5.4c2,0,3.2,0.9,3.9,2.4l-1.5,0.9c-0.4-1-1.2-1.7-2.4-1.7
			c-1.8,0-2.7,1.5-2.7,3.7c0,2.4,1,3.9,2.8,3.9c1.3,0,2.1-0.8,2.5-1.9l1.5,0.7c-0.6,1.7-1.9,2.8-4,2.8
			C438.7,170,436.8,168.1,436.8,164.6z"/>
		<path class="st2" d="M446.5,166.1c0-2.7,1.8-3.9,3.6-3.9c1.8,0,3.6,1.1,3.6,3.9c0,2.7-1.8,3.9-3.6,3.9S446.5,168.8,446.5,166.1z
			 M452,166.1c0-1.4-0.6-2.4-1.9-2.4c-1.2,0-1.9,0.9-1.9,2.4c0,1.4,0.6,2.4,1.9,2.4C451.3,168.5,452,167.5,452,166.1z"/>
		<path class="st2" d="M455.2,169.8v-7.4h1.6l0.1,1.1c0.5-0.6,1.4-1.2,2.7-1.2c1.3,0,2.2,0.7,2.2,2.2v5.4h-1.7V165
			c0-0.8-0.3-1.2-1.1-1.2c-0.7,0-1.4,0.4-2,1v5.2h-1.8V169.8z"/>
		<path class="st2" d="M463.2,166.1c0-2.7,1.8-3.9,3.6-3.9c1.8,0,3.6,1.1,3.6,3.9c0,2.7-1.8,3.9-3.6,3.9
			C465.1,170,463.2,168.8,463.2,166.1z M468.8,166.1c0-1.4-0.6-2.4-1.9-2.4c-1.2,0-1.9,0.9-1.9,2.4c0,1.4,0.6,2.4,1.9,2.4
			C468.1,168.5,468.8,167.5,468.8,166.1z"/>
		<path class="st2" d="M471.6,166.1c0-2.8,1.9-3.9,3.6-3.9c1.3,0,2.4,0.7,3,1.9l-1.3,0.8c-0.4-0.9-0.9-1.3-1.7-1.3
			c-1,0-1.8,0.8-1.8,2.5c0,1.5,0.7,2.5,1.8,2.5c0.9,0,1.4-0.5,1.8-1.4l1.3,0.8c-0.7,1.4-1.8,2-3.2,2
			C473.3,170,471.6,168.8,471.6,166.1z"/>
		<path class="st2" d="M479.6,160.4c0-0.5,0.3-0.9,1-0.9c0.6,0,1,0.4,1,0.9s-0.4,0.9-1,0.9C479.9,161.3,479.6,160.9,479.6,160.4z
			 M479.7,169.8v-7.4h1.7v7.4H479.7z"/>
		<path class="st2" d="M483.4,169.8v-7.4h1.6l0.1,1.1c0.5-0.6,1.4-1.2,2.5-1.2c1.2,0,1.8,0.5,2,1.2c0.6-0.6,1.5-1.2,2.6-1.2
			c1.5,0,2.2,0.9,2.2,2.2v5.3h-1.7v-4.9c0-0.8-0.2-1.2-1.1-1.2c-0.7,0-1.3,0.4-1.9,1v5.1H488v-4.9c0-0.8-0.2-1.2-1.1-1.2
			c-0.7,0-1.3,0.4-1.9,1v5.1L483.4,169.8L483.4,169.8z"/>
		<path class="st2" d="M496.3,160.4c0-0.5,0.3-0.9,1-0.9c0.6,0,1,0.4,1,0.9s-0.4,0.9-1,0.9C496.7,161.3,496.3,160.9,496.3,160.4z
			 M496.5,169.8v-7.4h1.7v7.4H496.5z"/>
		<path class="st2" d="M499.8,166.1c0-2.8,2-3.9,3.5-3.9c1.6,0,3.3,1,3.3,4v0.4h-5.1c0.1,1.3,0.9,1.9,2,1.9c0.9,0,1.7-0.4,2.3-1
			l0.7,1.1c-0.8,0.8-1.8,1.2-3.1,1.2C501.5,170,499.8,168.8,499.8,166.1z M505,165.4c-0.1-1.1-0.7-1.8-1.7-1.8
			c-0.9,0-1.6,0.6-1.8,1.8H505z"/>
		<path class="st2" d="M508.1,169.8v-7.4h1.6l0.1,1.1c0.5-0.6,1.4-1.2,2.7-1.2s2.2,0.7,2.2,2.2v5.4H513V165c0-0.8-0.3-1.2-1.1-1.2
			c-0.7,0-1.4,0.4-2,1v5.2h-1.8V169.8z"/>
		<path class="st2" d="M517.1,167.8v-4h-1.3v-1.4h1.3v-2.5l1.7-0.3v2.7h1.9v1.4h-1.9v3.8c0,0.8,0.3,1.1,1,1.1c0.3,0,0.5-0.1,0.8-0.1
			l0.1,1.4c-0.2,0-0.9,0.1-1.4,0.1C517.8,169.9,517.1,169.4,517.1,167.8z"/>
		<path class="st2" d="M521.6,166.1c0-2.7,1.8-3.9,3.6-3.9s3.6,1.1,3.6,3.9c0,2.7-1.8,3.9-3.6,3.9
			C523.5,170,521.6,168.8,521.6,166.1z M527.2,166.1c0-1.4-0.6-2.4-1.9-2.4c-1.2,0-1.9,0.9-1.9,2.4c0,1.4,0.6,2.4,1.9,2.4
			C526.5,168.5,527.2,167.5,527.2,166.1z"/>
		<path class="st2" d="M529.8,171.4l0.4-3.4h1.9l-1.3,3.4H529.8z"/>
	</g>
	<g class="st1">
		<path class="st2" d="M436.7,188.1c0-2.8,2-3.9,3.5-3.9c1.6,0,3.3,1,3.3,4v0.4h-5.1c0.1,1.3,0.9,1.9,2,1.9c0.9,0,1.7-0.4,2.3-1
			l0.7,1.1c-0.8,0.8-1.8,1.2-3.1,1.2C438.4,192,436.7,190.8,436.7,188.1z M441.9,187.4c-0.1-1.1-0.7-1.8-1.7-1.8
			c-0.9,0-1.6,0.6-1.8,1.8H441.9z"/>
		<path class="st2" d="M444.6,188.1c0-2.6,1.3-3.9,3-3.9c1,0,1.8,0.4,2.3,1v-3.7l1.7-0.3v10.5H450l-0.1-1c-0.5,0.6-1.3,1.1-2.4,1.1
			C445.8,191.9,444.6,190.7,444.6,188.1z M449.9,189.6v-3c-0.6-0.6-1.1-0.9-1.8-0.9c-1.1,0-1.8,0.8-1.8,2.5c0,1.5,0.7,2.4,1.8,2.4
			C448.8,190.5,449.4,190.1,449.9,189.6z"/>
		<path class="st2" d="M453.5,189.8v-5.4h1.7v4.9c0,0.8,0.3,1.2,1.1,1.2c0.7,0,1.4-0.4,2-1v-5.1h1.7v7.4h-1.6l-0.1-1
			c-0.5,0.6-1.4,1.2-2.7,1.2C454.3,192,453.5,191.3,453.5,189.8z"/>
		<path class="st2" d="M461.5,188.1c0-2.8,1.9-3.9,3.6-3.9c1.3,0,2.4,0.7,3,1.9l-1.3,0.8c-0.4-0.9-0.9-1.3-1.7-1.3
			c-1,0-1.8,0.8-1.8,2.5c0,1.5,0.7,2.5,1.8,2.5c0.9,0,1.4-0.5,1.8-1.4l1.3,0.8c-0.7,1.4-1.8,2-3.2,2
			C463.3,192,461.5,190.8,461.5,188.1z"/>
		<path class="st2" d="M469,190c0-1.6,1.4-2.6,4.8-3v-0.2c0-0.7-0.4-1.1-1.3-1.1c-1,0-1.7,0.4-2.4,1l-0.9-1.1
			c0.8-0.7,1.8-1.4,3.6-1.4c1.9,0,2.7,1,2.7,2.7v4.9H474l-0.1-1c-0.7,0.7-1.6,1.1-2.7,1.1C469.9,191.9,469,191.2,469,190z
			 M473.8,189.7v-1.6c-2.4,0.3-3.2,0.9-3.2,1.6c0,0.6,0.4,0.9,1,0.9C472.6,190.6,473.3,190.3,473.8,189.7z"/>
		<path class="st2" d="M476.9,188.1c0-2.8,1.9-3.9,3.6-3.9c1.3,0,2.4,0.7,3,1.9l-1.3,0.8c-0.4-0.9-0.9-1.3-1.7-1.3
			c-1,0-1.8,0.8-1.8,2.5c0,1.5,0.7,2.5,1.8,2.5c0.9,0,1.4-0.5,1.8-1.4l1.3,0.8c-0.7,1.4-1.8,2-3.2,2
			C478.7,192,476.9,190.8,476.9,188.1z"/>
		<path class="st2" d="M484.9,182.4c0-0.5,0.3-0.9,1-0.9c0.6,0,1,0.4,1,0.9s-0.4,0.9-1,0.9C485.3,183.3,484.9,182.9,484.9,182.4z
			 M485.1,191.8v-7.4h1.7v7.4H485.1z"/>
		<path class="st2" d="M488.4,188.1c0-2.7,1.8-3.9,3.6-3.9c1.8,0,3.6,1.1,3.6,3.9c0,2.7-1.8,3.9-3.6,3.9
			C490.2,192,488.4,190.8,488.4,188.1z M493.9,188.1c0-1.4-0.6-2.4-1.9-2.4c-1.2,0-1.9,0.9-1.9,2.4c0,1.4,0.6,2.4,1.9,2.4
			S493.9,189.5,493.9,188.1z M492.4,181.3h1.9l-2,2.3h-1.1L492.4,181.3z"/>
		<path class="st2" d="M497.1,191.8v-7.4h1.6l0.1,1.1c0.5-0.6,1.4-1.2,2.7-1.2c1.3,0,2.2,0.7,2.2,2.2v5.4H502V187
			c0-0.8-0.3-1.2-1.1-1.2c-0.7,0-1.4,0.4-2,1v5.2h-1.8V191.8z"/>
		<path class="st2" d="M508.7,194.5l-0.1-1.4c0.3,0.1,0.7,0.2,1.2,0.2c0.6,0,1-0.3,1.2-0.9l0.2-0.5l-2.8-7.3l1.7-0.3l1.9,5.5l0,0
			l1.9-5.4h1.7l-3.2,8.2c-0.5,1.3-1.1,2-2.6,2C509.4,194.7,509,194.6,508.7,194.5z"/>
		<path class="st2" d="M519.8,188.1c0-2.8,1.9-3.9,3.6-3.9c1.3,0,2.4,0.7,3,1.9l-1.3,0.8c-0.4-0.9-0.9-1.3-1.7-1.3
			c-1,0-1.8,0.8-1.8,2.5c0,1.5,0.7,2.5,1.8,2.5c0.9,0,1.4-0.5,1.8-1.4l1.3,0.8c-0.7,1.4-1.8,2-3.2,2
			C521.6,192,519.8,190.8,519.8,188.1z"/>
		<path class="st2" d="M527.8,189.8v-5.4h1.7v4.9c0,0.8,0.3,1.2,1.1,1.2c0.7,0,1.4-0.4,2-1v-5.1h1.7v7.4h-1.6l-0.1-1
			c-0.5,0.6-1.4,1.2-2.7,1.2C528.7,192,527.8,191.3,527.8,189.8z"/>
		<path class="st2" d="M536.4,191.8v-10.2l1.7-0.3v10.5H536.4z"/>
		<path class="st2" d="M540.7,189.8v-4h-1.3v-1.4h1.3v-2.5l1.7-0.3v2.7h1.9v1.4h-1.9v3.8c0,0.8,0.3,1.1,1,1.1c0.3,0,0.5-0.1,0.8-0.1
			l0.1,1.4c-0.2,0-0.9,0.1-1.4,0.1C541.4,191.9,540.7,191.4,540.7,189.8z"/>
		<path class="st2" d="M545.7,189.8v-5.4h1.7v4.9c0,0.8,0.3,1.2,1.1,1.2c0.7,0,1.4-0.4,2-1v-5.1h1.7v7.4h-1.6l-0.1-1
			c-0.5,0.6-1.4,1.2-2.7,1.2C546.5,192,545.7,191.3,545.7,189.8z"/>
		<path class="st2" d="M554.2,191.8v-7.4h1.6l0.1,1.2l0,0c0.4-0.7,1.2-1.4,2.6-1.4h0.1l0.2,1.6c-0.1,0-0.3,0-0.4,0
			c-1.1,0-1.9,0.5-2.4,1.3v4.7L554.2,191.8L554.2,191.8z"/>
		<path class="st2" d="M559.2,190c0-1.6,1.4-2.6,4.8-3v-0.2c0-0.7-0.4-1.1-1.3-1.1c-1,0-1.7,0.4-2.4,1l-0.9-1.1
			c0.8-0.7,1.8-1.4,3.6-1.4c1.9,0,2.7,1,2.7,2.7v4.9h-1.5l-0.1-1c-0.7,0.7-1.6,1.1-2.7,1.1C560.1,191.9,559.2,191.2,559.2,190z
			 M564.1,189.7v-1.6c-2.4,0.3-3.2,0.9-3.2,1.6c0,0.6,0.4,0.9,1,0.9C562.9,190.6,563.6,190.3,564.1,189.7z"/>
	</g>
	<g>
		<rect x="-27.9" y="178.8" class="st0" width="147.7" height="34.2"/>
	</g>
	<g class="st1">
		<path class="st3" d="M82.7,184.1c0-3.5,2.2-5.4,4.7-5.4s4.7,1.9,4.7,5.4s-2.2,5.4-4.7,5.4C84.9,189.5,82.7,187.6,82.7,184.1z
			 M90.4,184.1c0-2.4-1.2-3.8-2.9-3.8s-2.9,1.4-2.9,3.8s1.2,3.8,2.9,3.8S90.4,186.4,90.4,184.1z"/>
		<path class="st3" d="M94.3,187.2v-4H93v-1.4h1.3v-2.5L96,179v2.7h1.9v1.4H96v3.8c0,0.8,0.3,1.1,1,1.1c0.3,0,0.5-0.1,0.8-0.1
			l0.1,1.4c-0.2,0-0.9,0.1-1.4,0.1C95,189.4,94.3,188.8,94.3,187.2z"/>
		<path class="st3" d="M99.4,189.3v-7.4h1.6l0.1,1.2l0,0c0.4-0.7,1.2-1.4,2.6-1.4h0.1l0.2,1.6c-0.1,0-0.3,0-0.4,0
			c-1.1,0-1.9,0.5-2.4,1.3v4.7L99.4,189.3L99.4,189.3z"/>
		<path class="st3" d="M104.4,185.5c0-2.7,1.8-3.9,3.6-3.9c1.8,0,3.6,1.1,3.6,3.9c0,2.7-1.8,3.9-3.6,3.9S104.4,188.3,104.4,185.5z
			 M109.9,185.6c0-1.4-0.6-2.4-1.9-2.4c-1.2,0-1.9,0.9-1.9,2.4c0,1.4,0.6,2.4,1.9,2.4S109.9,187,109.9,185.6z"/>
		<path class="st3" d="M112.5,188.2l0.7-1.2c0.7,0.6,1.6,1,2.6,1c0.9,0,1.5-0.3,1.5-0.8c0-0.6-0.4-0.8-1.7-1.1
			c-1.6-0.3-2.8-0.7-2.8-2.3c0-1.3,1.1-2.2,2.7-2.2c1.3,0,2.2,0.4,3,0.9l-0.6,1.2c-0.7-0.5-1.5-0.8-2.3-0.8s-1.2,0.3-1.2,0.8
			s0.4,0.7,1.5,1c1.7,0.3,2.9,0.7,2.9,2.3s-1.4,2.4-3.1,2.4C114.3,189.4,113.2,188.9,112.5,188.2z"/>
	</g>
	<g>
		<rect x="-5.4" y="73.9" class="st0" width="147.7" height="34.2"/>
	</g>
	<g>
		<rect x="47.1" y="23.3" class="st0" width="147.7" height="34.2"/>
	</g>
	<g class="st1">
		<path class="st4" d="M84.3,33.8V23.4H91V25h-4.9v2.6h3.8l0.3,1.6h-4v3h5.2v1.6H84.3z"/>
		<path class="st4" d="M92.6,33.8v-7.4h1.6l0.1,1.1c0.5-0.6,1.4-1.2,2.5-1.2c1.2,0,1.8,0.5,2,1.2c0.6-0.6,1.5-1.2,2.6-1.2
			c1.5,0,2.2,0.9,2.2,2.2v5.3H102v-4.9c0-0.8-0.2-1.2-1.1-1.2c-0.7,0-1.3,0.4-1.9,1v5.1h-1.7v-4.9c0-0.8-0.2-1.2-1.1-1.2
			c-0.7,0-1.3,0.4-1.9,1v5.1H92.6z"/>
		<path class="st4" d="M105.6,36.7V26.4h1.6l0.1,1c0.5-0.6,1.3-1.1,2.4-1.1c1.7,0,2.9,1.3,2.9,3.9s-1.3,3.8-3,3.8
			c-1,0-1.8-0.3-2.3-0.9v3.5L105.6,36.7z M110.9,30.1c0-1.5-0.7-2.4-1.8-2.4c-0.7,0-1.3,0.4-1.8,0.9v3c0.6,0.6,1.1,0.9,1.8,0.9
			C110.2,32.5,110.9,31.8,110.9,30.1z"/>
		<path class="st4" d="M114.1,33.8v-7.4h1.6l0.1,1.2l0,0c0.4-0.7,1.2-1.4,2.6-1.4h0.1l0.2,1.6c-0.1,0-0.3,0-0.4,0
			c-1.1,0-1.9,0.5-2.4,1.3v4.7H114.1z"/>
		<path class="st4" d="M119.1,30.1c0-2.8,2-3.9,3.5-3.9c1.6,0,3.3,1,3.3,4v0.4h-5.1c0.1,1.3,0.9,1.9,2,1.9c0.9,0,1.7-0.4,2.3-1
			l0.7,1.1c-0.8,0.8-1.8,1.2-3.1,1.2C120.8,33.9,119.1,32.8,119.1,30.1z M124.3,29.4c-0.1-1.1-0.7-1.8-1.7-1.8
			c-0.9,0-1.6,0.6-1.8,1.8H124.3z"/>
		<path class="st4" d="M127.4,33.8v-7.4h1.6l0.1,1.1c0.5-0.6,1.4-1.2,2.7-1.2s2.2,0.7,2.2,2.2v5.4h-1.7V29c0-0.8-0.3-1.2-1.1-1.2
			c-0.7,0-1.4,0.4-2,1V34h-1.8V33.8z"/>
		<path class="st4" d="M135.5,30.1c0-2.6,1.3-3.9,3-3.9c1,0,1.8,0.4,2.3,1v-3.7l1.7-0.3v10.5h-1.6l-0.1-1c-0.5,0.6-1.3,1.1-2.4,1.1
			C136.7,33.9,135.5,32.7,135.5,30.1z M140.8,31.6v-3c-0.6-0.6-1.1-0.9-1.8-0.9c-1.1,0-1.8,0.8-1.8,2.5c0,1.5,0.7,2.4,1.8,2.4
			C139.7,32.5,140.3,32.1,140.8,31.6z"/>
		<path class="st4" d="M144.4,24.4c0-0.5,0.4-0.9,1-0.9s1,0.4,1,0.9s-0.4,0.9-1,0.9C144.7,25.3,144.4,24.9,144.4,24.4z M144.5,33.8
			v-7.4h1.7v7.4H144.5z"/>
		<path class="st4" d="M148.2,33.8v-7.4h1.6l0.1,1.1c0.5-0.6,1.4-1.2,2.5-1.2c1.2,0,1.8,0.5,2,1.2c0.6-0.6,1.5-1.2,2.6-1.2
			c1.5,0,2.2,0.9,2.2,2.2v5.3h-1.7v-4.9c0-0.8-0.2-1.2-1.1-1.2c-0.7,0-1.3,0.4-1.9,1v5.1h-1.7v-4.9c0-0.8-0.2-1.2-1.1-1.2
			c-0.7,0-1.3,0.4-1.9,1v5.1H148.2z"/>
		<path class="st4" d="M161.1,24.4c0-0.5,0.4-0.9,1-0.9s1,0.4,1,0.9s-0.4,0.9-1,0.9S161.1,24.9,161.1,24.4z M161.3,33.8v-7.4h1.7
			v7.4H161.3z"/>
		<path class="st4" d="M164.6,30.1c0-2.8,2-3.9,3.5-3.9c1.6,0,3.3,1,3.3,4v0.4h-5.1c0.1,1.3,0.9,1.9,2,1.9c0.9,0,1.7-0.4,2.3-1
			l0.7,1.1c-0.8,0.8-1.8,1.2-3.1,1.2C166.3,33.9,164.6,32.8,164.6,30.1z M169.8,29.4c-0.1-1.1-0.7-1.8-1.7-1.8
			c-0.9,0-1.6,0.6-1.8,1.8H169.8z"/>
		<path class="st4" d="M172.9,33.8v-7.4h1.6l0.1,1.1c0.5-0.6,1.4-1.2,2.7-1.2s2.2,0.7,2.2,2.2v5.4h-1.7V29c0-0.8-0.3-1.2-1.1-1.2
			c-0.7,0-1.4,0.4-2,1V34h-1.8V33.8z"/>
		<path class="st4" d="M181.9,31.7v-4h-1.3v-1.4h1.3v-2.5l1.7-0.3v2.7h1.9v1.4h-1.9v3.8c0,0.8,0.3,1.1,1,1.1c0.3,0,0.5-0.1,0.8-0.1
			l0.1,1.4c-0.2,0-0.9,0.1-1.4,0.1C182.6,33.9,181.9,33.4,181.9,31.7z"/>
		<path class="st4" d="M186.4,30.1c0-2.7,1.8-3.9,3.6-3.9s3.6,1.1,3.6,3.9c0,2.7-1.8,3.9-3.6,3.9S186.4,32.8,186.4,30.1z M192,30.1
			c0-1.4-0.6-2.4-1.9-2.4c-1.2,0-1.9,0.9-1.9,2.4c0,1.4,0.6,2.4,1.9,2.4C191.3,32.5,192,31.5,192,30.1z"/>
	</g>
	<g>
		<rect x="436.1" y="132.7" class="st0" width="33.6" height="21.7"/>
	</g>
	<g class="st1">
		<path class="st5" d="M436.9,138.6c0-3.4,1.8-6,4.4-6c1.2,0,2,0.4,2.6,0.8l-0.5,0.8c-0.6-0.5-1.1-0.8-2.1-0.8
			c-2.1,0-3.3,2.1-3.3,4.9c0.7-0.8,1.8-1.5,3.2-1.5c2.3,0,3.5,1.5,3.5,3.5c0,2.1-1.4,3.7-3.7,3.7
			C438.7,144.1,436.9,142.4,436.9,138.6z M443.6,140.4c0-1.5-0.8-2.6-2.5-2.6c-1.2,0-2.3,0.7-3,1.6c0.2,2.5,1.4,3.7,2.9,3.7
			C442.5,143.2,443.6,142.2,443.6,140.4z"/>
		<path class="st5" d="M446.6,143.9l4.7-10.1h-5.7l-0.1-1h6.9v0.9l-4.7,10.2L446.6,143.9z"/>
		<path class="st5" d="M453.9,136c0-2.1,1-3.4,2.5-3.4s2.5,1.3,2.5,3.3c0,1.9-0.9,3.4-2.5,3.4S453.9,138,453.9,136z M457.9,136
			c0-1.5-0.6-2.5-1.5-2.5c-1,0-1.5,1.1-1.5,2.5c0,1.5,0.6,2.5,1.6,2.5C457.4,138.5,457.9,137.4,457.9,136z M456.5,143.9l6.6-11.1h1
			l-6.6,11.1H456.5z M461.6,140.8c0-2.1,1-3.4,2.5-3.4s2.5,1.3,2.5,3.3c0,1.9-0.9,3.3-2.5,3.3C462.5,144.1,461.6,142.7,461.6,140.8z
			 M465.6,140.7c0-1.5-0.5-2.5-1.5-2.5s-1.5,1.1-1.5,2.5c0,1.5,0.5,2.5,1.5,2.5S465.6,142.1,465.6,140.7z"/>
	</g>
	<g>
		<rect x="161.2" y="2.2" class="st0" width="33.6" height="21.7"/>
	</g>
	<g class="st1">
		<path class="st5" d="M173.8,13.4l4.7-10.1h-5.7l-0.1-1h6.9v0.9l-4.7,10.2H173.8z"/>
		<path class="st5" d="M181.1,5.5c0-2.1,1-3.4,2.5-3.4s2.5,1.3,2.5,3.3c0,1.9-0.9,3.4-2.5,3.4C182,8.8,181.1,7.5,181.1,5.5z
			 M185.1,5.5c0-1.5-0.6-2.5-1.5-2.5c-1,0-1.5,1.1-1.5,2.5c0,1.5,0.6,2.5,1.6,2.5C184.6,8,185.1,6.9,185.1,5.5z M183.6,13.4
			l6.6-11.1h1l-6.6,11.1H183.6z M188.8,10.3c0-2.1,1-3.4,2.5-3.4s2.5,1.3,2.5,3.3c0,1.9-0.9,3.3-2.5,3.3
			C189.7,13.6,188.8,12.2,188.8,10.3z M192.8,10.2c0-1.5-0.5-2.5-1.5-2.5s-1.5,1.1-1.5,2.5c0,1.5,0.5,2.5,1.5,2.5
			S192.8,11.6,192.8,10.2z"/>
	</g>
	<g class="st1">
		<path class="st5" d="M224.3,160.8l1.9-2.7c3.2,2.7,5.8,4.3,11.3,4.3c10.1,0,16.2-11.2,16-25c-3.2,3.8-8.3,7.5-15.2,7.5
			c-11.3,0-16-7.3-16-16.1c0-9.6,6.4-17.1,16.9-17.1c9.5,0,17.7,8,17.7,26c0,15.1-7.6,27.8-19.5,27.8
			C231.3,165.6,227.3,163.5,224.3,160.8z M253.3,133.2c-1.2-12.7-7.4-18.3-14.4-18.3c-7.8,0-13.2,5-13.2,14c0,7.6,3.9,13,12.7,13
			C244.6,141.9,249.8,138.3,253.3,133.2z"/>
		<path class="st5" d="M262.7,155.7l2.9-1.8c3.8,6,8.5,8.5,14.5,8.5c8.1,0,13.1-4.8,13.1-11.6c0-8.1-4.4-12.4-17.5-12.4h-1.8v-3.1
			h2.2c11.3,0,16-3.5,16-10.6c0-5.6-3.4-10-11.8-10c-5.6,0-9.5,2.9-12.5,6.8l-2.8-1.8c3.5-4.5,8.4-8.1,15.3-8.1
			c10.9,0,15.1,6.5,15.1,12.9c0,6.8-4.1,11.3-10.6,12.3c7.8,1.6,11.6,6,11.6,13.8c0,8.2-6.3,14.8-16.6,14.8
			C272.6,165.6,266.3,161.9,262.7,155.7z"/>
		<path class="st5" d="M305.3,171.4L307,159h4.6l-4.3,12.4H305.3z"/>
		<path class="st5" d="M320,155.7l2.9-1.8c3.8,6,8.5,8.5,14.5,8.5c8.1,0,13.1-4.8,13.1-11.6c0-8.1-4.4-12.4-17.5-12.4h-1.8v-3.1h2.2
			c11.3,0,16-3.5,16-10.6c0-5.6-3.4-10-11.8-10c-5.6,0-9.5,2.9-12.5,6.8l-2.8-1.8c3.5-4.5,8.4-8.1,15.3-8.1
			c10.9,0,15.1,6.5,15.1,12.9c0,6.8-4.1,11.3-10.6,12.3c7.8,1.6,11.6,6,11.6,13.8c0,8.2-6.3,14.8-16.6,14.8
			C329.9,165.6,323.6,161.9,320,155.7z"/>
	</g>
	<g class="st1">
		<path class="st6" d="M217.7,193.6v-10.4h2.3l2.8,8.2l0,0l2.7-8.2h2.3v10.4h-1.7v-7.7l0,0c-0.2,0.7-0.4,1.4-0.6,2.1l-2,5.6h-1.6
			l-2-5.6c-0.2-0.7-0.4-1.2-0.6-2.2l0,0v7.8L217.7,193.6L217.7,193.6z"/>
		<path class="st6" d="M230.3,193.6v-10.4h1.7v10.4H230.3z"/>
		<path class="st6" d="M234.5,193.6v-10.4h1.8v8.8h4.6l0.3,1.6L234.5,193.6L234.5,193.6z"/>
		<path class="st6" d="M242.6,193.6v-10.4h1.8v8.8h4.6l0.3,1.6L242.6,193.6L242.6,193.6z"/>
		<path class="st6" d="M249.7,188.4c0-3.5,2.2-5.4,4.7-5.4s4.7,1.9,4.7,5.4s-2.2,5.4-4.7,5.4C251.9,193.8,249.7,191.9,249.7,188.4z
			 M257.4,188.4c0-2.4-1.2-3.8-2.9-3.8s-2.9,1.4-2.9,3.8s1.2,3.8,2.9,3.8C256.2,192.2,257.4,190.8,257.4,188.4z"/>
		<path class="st6" d="M260.9,193.6v-10.4h1.8l4.9,7.4l0,0v-7.4h1.6v10.4h-1.6l-5.1-7.5l0,0v7.5H260.9z"/>
		<path class="st6" d="M271.6,193.6v-10.4h6.7v1.6h-4.9v2.6h3.8l0.3,1.6h-4v3h5.2v1.6L271.6,193.6L271.6,193.6z"/>
		<path class="st6" d="M279.4,192l0.9-1.3c0.8,0.8,2.1,1.5,3.4,1.5s2.2-0.4,2.2-1.3c0-0.9-0.7-1.3-2.4-1.8c-2-0.6-3.6-1.1-3.6-3.1
			c0-1.8,1.5-2.9,3.5-2.9c1.6,0,2.9,0.7,3.9,1.5l-0.8,1.4c-0.8-0.7-1.9-1.3-3-1.3c-1.2,0-1.8,0.5-1.8,1.2c0,1,0.7,1.3,2.4,1.8
			c2,0.6,3.5,1.2,3.5,3.2c0,1.7-1.4,3-3.8,3C281.9,193.8,280.5,193,279.4,192z"/>
		<path class="st6" d="M293.1,193.6v-10.4h2.9c3.2,0,5.4,1.5,5.4,5.1c0,3.7-2.2,5.2-5.4,5.2L293.1,193.6L293.1,193.6z M294.8,192
			h1.4c2.4,0,3.5-1.1,3.5-3.6c0-2.4-1.1-3.5-3.5-3.5h-1.3v7.1H294.8z"/>
		<path class="st6" d="M303.2,193.6v-10.4h6.7v1.6H305v2.6h3.8l0.3,1.6h-4v3h5.2v1.6L303.2,193.6L303.2,193.6z"/>
		<path class="st6" d="M315.4,193.6v-10.4h6.7v1.6h-4.9v2.6h3.8l0.3,1.6h-4v3h5.2v1.6L315.4,193.6L315.4,193.6z"/>
		<path class="st6" d="M323.9,189.8v-6.6h1.8v6.5c0,1.5,0.7,2.5,2.3,2.5c1.6,0,2.3-0.9,2.3-2.4v-6.5h1.7v6.6c0,2.4-1.3,4-4,4
			C325.1,193.8,323.9,192.1,323.9,189.8z"/>
		<path class="st6" d="M334.1,193.6v-10.4h3.7c2.5,0,3.9,1,3.9,3.2c0,1.7-0.9,2.5-2.3,2.9l2.5,4.2l-1.7,0.3l-2.5-4.2h-1.8v4.1h-1.8
			V193.6z M335.8,188h1.9c1.5,0,2.3-0.4,2.3-1.6c0-1.1-0.8-1.6-2.3-1.6h-1.9V188z"/>
		<path class="st6" d="M343.1,188.4c0-3.5,2.2-5.4,4.7-5.4s4.7,1.9,4.7,5.4s-2.2,5.4-4.7,5.4C345.3,193.8,343.1,191.9,343.1,188.4z
			 M350.7,188.4c0-2.4-1.2-3.8-2.9-3.8s-2.9,1.4-2.9,3.8s1.2,3.8,2.9,3.8S350.7,190.8,350.7,188.4z"/>
		<path class="st6" d="M353.5,192l0.9-1.3c0.8,0.8,2.1,1.5,3.4,1.5s2.2-0.4,2.2-1.3c0-0.9-0.7-1.3-2.4-1.8c-2-0.6-3.6-1.1-3.6-3.1
			c0-1.8,1.5-2.9,3.5-2.9c1.6,0,2.9,0.7,3.9,1.5l-0.8,1.4c-0.8-0.7-1.9-1.3-3-1.3c-1.2,0-1.8,0.5-1.8,1.2c0,1,0.7,1.3,2.4,1.8
			c2,0.6,3.5,1.2,3.5,3.2c0,1.7-1.4,3-3.8,3C356,193.8,354.6,193,353.5,192z"/>
	</g>
	<g>
		<rect x="108.6" y="52.9" class="st0" width="33.6" height="21.7"/>
	</g>
	<g class="st1">
		<path class="st5" d="M118.1,64.1V53.9l-2.1,0.7l-0.1-0.9l2.3-0.8h1V64L118.1,64.1L118.1,64.1z"/>
		<path class="st5" d="M124.5,64.1V53.9l-2.1,0.7l-0.1-0.9l2.3-0.8h1V64L124.5,64.1L124.5,64.1z"/>
		<path class="st5" d="M128.4,56.2c0-2.1,1-3.4,2.5-3.4s2.5,1.3,2.5,3.3c0,1.9-0.9,3.4-2.5,3.4C129.2,59.5,128.4,58.1,128.4,56.2z
			 M132.4,56.1c0-1.5-0.6-2.5-1.5-2.5c-1,0-1.5,1.1-1.5,2.5c0,1.5,0.6,2.5,1.6,2.5C131.9,58.7,132.4,57.5,132.4,56.1z M130.9,64.1
			l6.6-11.1h1l-6.6,11.1H130.9z M136.1,60.9c0-2.1,1-3.4,2.5-3.4s2.5,1.3,2.5,3.3c0,1.9-0.9,3.3-2.5,3.3
			C137,64.2,136.1,62.9,136.1,60.9z M140.1,60.9c0-1.5-0.5-2.5-1.5-2.5s-1.5,1.1-1.5,2.5c0,1.5,0.5,2.5,1.5,2.5
			S140.1,62.3,140.1,60.9z"/>
	</g>
	<g>
		<rect x="86.2" y="158.9" class="st0" width="33.6" height="21.7"/>
	</g>
	<g class="st1">
		<path class="st5" d="M93.3,170v-10.1l-2.1,0.7l-0.1-0.9l2.3-0.8h1V170H93.3z"/>
		<path class="st5" d="M97.1,168.3l0.7-0.7c0.7,1,1.6,1.7,2.9,1.7c1.9,0,2.8-1.4,2.8-2.9c0-1.8-1.1-2.8-2.5-2.8
			c-1.1,0-1.9,0.5-2.5,1.4l-0.8-0.3l0.4-5.8h5.8v1h-5l-0.3,3.9c0.5-0.6,1.3-1,2.5-1c2,0,3.4,1.4,3.4,3.6s-1.5,3.9-3.8,3.9
			C99.2,170.3,97.9,169.4,97.1,168.3z"/>
		<path class="st5" d="M106.2,162.2c0-2.1,1-3.4,2.5-3.4s2.5,1.3,2.5,3.3c0,1.9-0.9,3.4-2.5,3.4S106.2,164.1,106.2,162.2z
			 M110.2,162.1c0-1.5-0.6-2.5-1.5-2.5c-1,0-1.5,1.1-1.5,2.5c0,1.5,0.6,2.5,1.6,2.5C109.7,164.6,110.2,163.5,110.2,162.1z
			 M108.7,170l6.6-11.1h1l-6.6,11.1H108.7z M113.9,166.9c0-2.1,1-3.4,2.5-3.4s2.5,1.3,2.5,3.3c0,1.9-0.9,3.3-2.5,3.3
			C114.8,170.2,113.9,168.8,113.9,166.9z M117.9,166.9c0-1.5-0.5-2.5-1.5-2.5s-1.5,1.1-1.5,2.5c0,1.5,0.5,2.5,1.5,2.5
			S117.9,168.3,117.9,166.9z"/>
	</g>
	<g>
		<path class="st2" d="M285.9,22.1v14c67.7,0.2,122.5,55.1,122.5,122.8c0,67.8-55,122.8-122.8,122.8c-46.2,0-86.4-25.5-107.3-63.1
			l-12,6.7c24.9,44.9,68.3,70.5,119.6,70.5c75.5,0,136.8-61.2,136.8-136.8S361.5,22.1,285.9,22.1z"/>
	</g>
	<g>
		<path class="st3" d="M162.8,158.8c0-15.5,2.9-30.4,8.2-44.1l-12.8-4.9c-15.2,39.5-12.4,78.3,8.1,115.3l12-6.7
			C168.4,200.8,162.8,180.5,162.8,158.8z"/>
	</g>
	<g>
		<path class="st7" d="M226.3,51.3l-6.7-12.1c-29.1,16.1-49.5,39.6-61.4,70.6l12.8,4.9C181.4,87.7,201.2,65.2,226.3,51.3z"/>
	</g>
	<g>
		<path class="st4" d="M285.6,36c0.1,0,0.2,0,0.3,0V22c-24.2,0-45.2,5.4-66.3,17.1l6.7,12.1C243.9,41.6,264.1,36,285.6,36z"/>
	</g>
</g>
<g>
	<path class="st7" d="M3.6,84.5V74.2h6.7v1.6H5.3v2.6h3.8l0.3,1.6h-4v3h5.2v1.6H3.6z"/>
	<path class="st7" d="M11.6,80.9c0-2.6,1.3-3.9,3-3.9c1,0,1.8,0.4,2.3,1v-3.7l1.7-0.3v10.5H17l-0.1-1c-0.5,0.6-1.3,1.1-2.4,1.1
		C12.8,84.7,11.6,83.5,11.6,80.9z M16.9,82.3v-3c-0.6-0.6-1.1-0.9-1.8-0.9c-1.1,0-1.8,0.8-1.8,2.5c0,1.5,0.7,2.4,1.8,2.4
		C15.8,83.2,16.4,82.8,16.9,82.3z"/>
	<path class="st7" d="M20.4,82.5v-5.4h1.7v4.9c0,0.8,0.3,1.2,1.1,1.2c0.7,0,1.4-0.4,2-1v-5.1H27v7.4h-1.6l-0.1-1
		c-0.5,0.6-1.4,1.2-2.7,1.2C21.3,84.7,20.4,84,20.4,82.5z"/>
	<path class="st7" d="M28.5,80.8c0-2.8,1.9-3.9,3.6-3.9c1.3,0,2.4,0.7,3,1.9l-1.3,0.8c-0.4-0.9-0.9-1.3-1.7-1.3
		c-1,0-1.8,0.8-1.8,2.5c0,1.5,0.7,2.5,1.8,2.5c0.9,0,1.4-0.5,1.8-1.4l1.3,0.8c-0.7,1.4-1.8,2-3.2,2C30.3,84.7,28.5,83.5,28.5,80.8z"
		/>
	<path class="st7" d="M36.2,82.7c0-1.6,1.4-2.6,4.8-3v-0.2c0-0.7-0.4-1.1-1.3-1.1c-1,0-1.7,0.4-2.4,1l-0.9-1
		c0.8-0.7,1.8-1.4,3.6-1.4c1.9,0,2.7,1,2.7,2.7v4.9h-1.5l-0.1-1c-0.7,0.7-1.6,1.1-2.7,1.1C37.1,84.7,36.2,83.9,36.2,82.7z M41,82.5
		v-1.6c-2.4,0.3-3.2,0.9-3.2,1.6c0,0.6,0.4,0.9,1.1,0.9C39.8,83.3,40.5,83,41,82.5z"/>
	<path class="st7" d="M44.1,80.8c0-2.8,1.9-3.9,3.6-3.9c1.3,0,2.4,0.7,3,1.9l-1.3,0.8c-0.4-0.9-0.9-1.3-1.7-1.3
		c-1,0-1.8,0.8-1.8,2.5c0,1.5,0.7,2.5,1.8,2.5c0.9,0,1.4-0.5,1.8-1.4l1.3,0.8c-0.7,1.4-1.8,2-3.2,2C45.9,84.7,44.1,83.5,44.1,80.8z"
		/>
	<path class="st7" d="M52,75.1c0-0.5,0.4-0.9,1-0.9c0.6,0,1,0.4,1,0.9c0,0.5-0.4,0.9-1,0.9C52.4,76,52,75.6,52,75.1z M52.1,84.5
		v-7.4h1.7v7.4H52.1z"/>
	<path class="st7" d="M55.3,80.8c0-2.7,1.8-3.9,3.6-3.9c1.8,0,3.6,1.1,3.6,3.9c0,2.7-1.8,3.9-3.6,3.9S55.3,83.5,55.3,80.8z
		 M60.9,80.8c0-1.4-0.6-2.4-1.9-2.4c-1.2,0-1.9,0.9-1.9,2.4c0,1.4,0.6,2.4,1.9,2.4C60.2,83.3,60.9,82.3,60.9,80.8z M59.4,74h1.9
		l-2,2.3h-1.1L59.4,74z"/>
	<path class="st7" d="M64.1,84.5v-7.4h1.6l0.1,1.1c0.5-0.6,1.4-1.2,2.7-1.2c1.3,0,2.2,0.7,2.2,2.2v5.4h-1.7v-4.9
		c0-0.8-0.3-1.2-1.1-1.2c-0.7,0-1.4,0.4-2,1v5.2H64.1z"/>
	<path class="st7" d="M76.6,76.3c0-1.2,0.5-2.2,2.2-2.2c0.3,0,0.8,0.1,1,0.1l0.1,1.3c-0.1,0-0.4-0.1-0.6-0.1c-0.5,0-1,0.2-1,1v0.7
		h1.5v1.4h-1.5v6.1h-1.7v-6.1h-1.3v-1.4h1.3V76.3z M80.8,75.1c0-0.5,0.4-0.9,1-0.9c0.6,0,1,0.4,1,0.9c0,0.5-0.4,0.9-1,0.9
		C81.2,76,80.8,75.6,80.8,75.1z M81,84.5v-7.4h1.7v7.4H81z"/>
	<path class="st7" d="M84.7,84.5v-7.4h1.6l0.1,1.1c0.5-0.6,1.4-1.2,2.7-1.2c1.3,0,2.2,0.7,2.2,2.2v5.4h-1.7v-4.9
		c0-0.8-0.3-1.2-1.1-1.2c-0.7,0-1.4,0.4-2,1v5.2H84.7z"/>
	<path class="st7" d="M92.6,82.7c0-1.6,1.4-2.6,4.8-3v-0.2c0-0.7-0.4-1.1-1.3-1.1c-1,0-1.7,0.4-2.4,1l-0.9-1
		c0.8-0.7,1.8-1.4,3.6-1.4c1.9,0,2.7,1,2.7,2.7v4.9h-1.5l-0.1-1c-0.7,0.7-1.6,1.1-2.7,1.1C93.5,84.7,92.6,83.9,92.6,82.7z
		 M97.5,82.5v-1.6c-2.4,0.3-3.2,0.9-3.2,1.6c0,0.6,0.4,0.9,1.1,0.9C96.3,83.3,97,83,97.5,82.5z"/>
	<path class="st7" d="M101,84.5v-7.4h1.6l0.1,1.1c0.5-0.6,1.4-1.2,2.7-1.2c1.3,0,2.2,0.7,2.2,2.2v5.4h-1.7v-4.9
		c0-0.8-0.3-1.2-1.1-1.2c-0.7,0-1.4,0.4-2,1v5.2H101z"/>
	<path class="st7" d="M109,80.8c0-2.8,1.9-3.9,3.6-3.9c1.3,0,2.4,0.7,3,1.9l-1.3,0.8c-0.4-0.9-0.9-1.3-1.7-1.3c-1,0-1.8,0.8-1.8,2.5
		c0,1.5,0.7,2.5,1.8,2.5c0.9,0,1.4-0.5,1.8-1.4l1.3,0.8c-0.7,1.4-1.8,2-3.2,2C110.8,84.7,109,83.5,109,80.8z"/>
	<path class="st7" d="M116.9,75.1c0-0.5,0.4-0.9,1-0.9c0.6,0,1,0.4,1,0.9c0,0.5-0.4,0.9-1,0.9C117.2,76,116.9,75.6,116.9,75.1z
		 M117,84.5v-7.4h1.7v7.4H117z"/>
	<path class="st7" d="M120.2,80.8c0-2.8,2-3.9,3.5-3.9c1.6,0,3.3,1,3.3,4v0.4h-5.1c0.1,1.3,0.9,1.9,2,1.9c0.9,0,1.7-0.4,2.3-1
		l0.7,1.1c-0.8,0.8-1.8,1.2-3.1,1.2C121.9,84.7,120.2,83.6,120.2,80.8z M125.4,80.1c-0.1-1.1-0.7-1.8-1.7-1.8
		c-0.9,0-1.6,0.6-1.8,1.8H125.4z"/>
	<path class="st7" d="M128.5,84.5v-7.4h1.6l0.1,1.2h0c0.4-0.7,1.2-1.4,2.6-1.4h0.1l0.2,1.6c-0.1,0-0.3,0-0.4,0
		c-1.1,0-1.9,0.5-2.4,1.3v4.7H128.5z"/>
	<path class="st7" d="M133.9,82.7c0-1.6,1.4-2.6,4.8-3v-0.2c0-0.7-0.4-1.1-1.3-1.1c-1,0-1.7,0.4-2.4,1l-0.9-1
		c0.8-0.7,1.8-1.4,3.6-1.4c1.9,0,2.7,1,2.7,2.7v4.9h-1.5l-0.1-1c-0.7,0.7-1.6,1.1-2.7,1.1C134.8,84.7,133.9,83.9,133.9,82.7z
		 M138.7,82.5v-1.6c-2.4,0.3-3.2,0.9-3.2,1.6c0,0.6,0.4,0.9,1.1,0.9C137.5,83.3,138.2,83,138.7,82.5z"/>
</g>
</svg>
