<?xml version="1.0" encoding="utf-8"?>
<!-- Generator: Adobe Illustrator 21.0.0, SVG Export Plug-In . SVG Version: 6.00 Build 0)  -->
<!DOCTYPE svg PUBLIC "-//W3C//DTD SVG 1.1//EN" "http://www.w3.org/Graphics/SVG/1.1/DTD/svg11.dtd">
<svg version="1.1" id="Capa_1" xmlns="http://www.w3.org/2000/svg" xmlns:xlink="http://www.w3.org/1999/xlink" x="0px" y="0px"
	 viewBox="0 0 560 199" style="enable-background:new 0 0 560 199;" xml:space="preserve">
<style type="text/css">
	.st0{fill:#F3F3F3;}
	.st1{fill:#2ECDCD;}
	.st2{fill:#FFFFFF;}
	.st3{fill:#666666;}
	.st4{fill:#121212;}
</style>
<title>sociedad-medioambiente-eng</title>
<g>
	<path class="st0" d="M467.9,79.4L491.8,6c40.5,13.2,62.7,56.7,49.6,97.3s-56.7,62.7-97.3,49.6s-62.7-56.7-49.6-97.3l0,0
		C405,23.1,433.9,2.2,467.9,2.2V79.4z"/>
	<path class="st1" d="M467.9,79.4V2.2c8.1-0.1,16.2,1.2,23.9,3.8L467.9,79.4z"/>
	<path class="st0" d="M93.1,79.4l26.4-72.5c40.1,14.6,60.7,58.9,46.1,99s-58.9,60.7-99,46.1S5.9,93.1,20.5,53
		C31.6,22.5,60.6,2.2,93.1,2.2V79.4z"/>
	<path class="st1" d="M93.1,79.4V2.2c9-0.1,18,1.4,26.4,4.7L93.1,79.4z"/>
	<circle class="st2" cx="93.4" cy="79" r="71.6"/>
	<path class="st0" d="M279.5,79.2L326,17.5c34.1,25.7,40.9,74.1,15.2,108.1c-25.7,34.1-74.1,40.9-108.1,15.2s-40.9-74.1-15.2-108.1
		l0,0C232.3,13.2,255.2,1.8,279.5,2V79.2z"/>
	<path class="st1" d="M279.5,79.2V2c17.9,0,32.2,4.8,46.5,15.5L279.5,79.2z"/>
	<circle class="st2" cx="279.5" cy="79.2" r="71.6"/>
	<circle class="st2" cx="467.9" cy="79.4" r="71.6"/>
	<path class="st1" d="M81.6,106.7c0-3.1,1.8-4.8,4-4.8c1.5-0.1,2.9,0.7,3.5,2.1l-1.3,0.8c-0.3-0.9-1.2-1.5-2.2-1.5
		c-1.6,0-2.5,1.3-2.5,3.3s0.9,3.4,2.6,3.4c1.1,0,2-0.7,2.3-1.7l1.4,0.6c-0.5,1.6-2,2.6-3.6,2.5C83.3,111.5,81.6,109.8,81.6,106.7z"
		/>
	<path class="st1" d="M90.3,106.7c0-3.1,1.9-4.8,4.2-4.8s4.2,1.7,4.2,4.8s-1.9,4.8-4.2,4.8C92.3,111.5,90.3,109.8,90.3,106.7z
		 M97.1,106.7c0-2.1-1.1-3.4-2.6-3.4c-1.6,0-2.6,1.3-2.6,3.4s1.1,3.4,2.6,3.4C96.1,110.1,97.1,108.8,97.1,106.7L97.1,106.7z"/>
	<path class="st1" d="M99.7,115.5L99.7,115.5c0-0.9,0.3-1.6,1.7-2.5c0.8-0.5,1.2-0.8,1.2-1.4s-0.3-0.8-0.9-0.8c-0.6,0-1,0.4-1.3,0.9
		l-0.6-0.5c0.4-0.7,1.1-1.2,1.9-1.1c0.8-0.1,1.6,0.5,1.7,1.3c0,0.1,0,0.2,0,0.2c0,0.7-0.2,1.2-1.3,1.8c-0.9,0.5-1.4,1-1.4,1.3h2.7
		l0.1,0.8L99.7,115.5z"/>
	<path class="st3" d="M60.6,183.6v-7.9h2.6c1.7,0,2.8,0.7,2.8,2.1s-1.2,2.2-2.8,2.2h-1.8v3.5L60.6,183.6z M61.4,179.5h1.8
		c1.3,0,2-0.4,2-1.5s-0.7-1.5-2-1.5h-1.9L61.4,179.5z"/>
	<path class="st3" d="M67.4,183.6v-7.9h4.7v0.7h-3.9v2.7h2.9l0.1,0.7h-3.1v3.1h4.2v0.7H67.4z"/>
	<path class="st3" d="M73.8,183.6v-7.9h2.6c1.7,0,2.7,0.7,2.7,2.1c0.1,1.1-0.8,2-1.9,2.1l2,3.6l-0.8,0.1l-2-3.6h-2v3.5L73.8,183.6z
		 M74.5,179.4h1.8c1.3,0,2-0.4,2-1.5s-0.7-1.5-2-1.5h-1.8V179.4z"/>
	<path class="st3" d="M83.3,183.6v-7.9h2.6c1.7,0,2.8,0.7,2.8,2.1s-1.2,2.2-2.8,2.2h-1.8v3.5L83.3,183.6z M84.1,179.5h1.8
		c1.3,0,2-0.4,2-1.5s-0.7-1.5-2-1.5H84L84.1,179.5z"/>
	<path class="st3" d="M90.1,183.6v-7.9h4.7v0.7h-3.9v2.7h2.9l0.1,0.7h-3.1v3.1H95v0.7H90.1z"/>
	<path class="st3" d="M96.5,183.6v-7.9h2.6c1.7,0,2.7,0.7,2.7,2.1c0.1,1.1-0.8,2-1.9,2.1l2,3.6l-0.8,0.1l-2-3.6h-2v3.5L96.5,183.6z
		 M97.2,179.4H99c1.3,0,2-0.4,2-1.5s-0.7-1.5-2-1.5h-1.8V179.4z"/>
	<path class="st3" d="M102.9,182.5l0.4-0.6c0.7,0.7,1.7,1.1,2.7,1.1c1.2,0,2-0.5,2-1.4s-0.4-1.2-2.1-1.8s-2.6-1-2.6-2.3
		c0.1-1.2,1.2-2.1,2.4-2c0,0,0,0,0.1,0c1,0,2,0.4,2.8,1.1l-0.4,0.6c-0.6-0.6-1.5-1-2.4-1c-1.1,0-1.7,0.6-1.7,1.3
		c0,0.9,0.5,1.2,2.2,1.7c1.6,0.5,2.4,1.1,2.4,2.4s-1.2,2.1-2.7,2.1C104.9,183.8,103.7,183.3,102.9,182.5z"/>
	<path class="st3" d="M110,179.7c0-2.5,1.4-4.1,3.3-4.1s3.3,1.6,3.3,4.1s-1.4,4.1-3.3,4.1S110,182.1,110,179.7z M115.9,179.7
		c0-2.1-1.1-3.4-2.6-3.4s-2.6,1.3-2.6,3.4s1.1,3.4,2.6,3.4C114.8,183.1,115.9,181.8,115.9,179.7z"/>
	<path class="st3" d="M118.3,183.6v-7.9h0.8l4.3,6.5l0,0v-6.5h0.7v7.9h-0.7l-4.5-6.7l0,0v6.7H118.3z"/>
	<path class="st3" d="M247.9,183.6v-7.9h2.6c1.7,0,2.8,0.7,2.8,2.1s-1.2,2.2-2.8,2.2h-1.8v3.5L247.9,183.6z M248.6,179.5h1.8
		c1.3,0,2-0.4,2-1.5s-0.7-1.5-2-1.5h-1.8V179.5z"/>
	<path class="st3" d="M254.7,183.6v-7.9h4.6v0.7h-3.9v2.7h2.9l0.1,0.7h-3v3.1h4.2v0.7H254.7z"/>
	<path class="st3" d="M261,183.6v-7.9h2.6c1.7,0,2.7,0.7,2.7,2.1c0.1,1.1-0.8,2-1.9,2.1l2,3.6l-0.8,0.1l-2-3.6h-2v3.5L261,183.6z
		 M261.8,179.4h1.8c1.3,0,2-0.4,2-1.5s-0.7-1.5-2-1.5h-1.8V179.4z"/>
	<path class="st3" d="M270.6,183.6v-7.9h2.6c1.7,0,2.8,0.7,2.8,2.1s-1.2,2.2-2.8,2.2h-1.8v3.5L270.6,183.6z M271.3,179.5h1.8
		c1.3,0,2-0.4,2-1.5s-0.7-1.5-2-1.5h-1.8V179.5z"/>
	<path class="st3" d="M277.3,183.6v-7.9h4.7v0.7h-3.9v2.7h2.9l0.1,0.7H278v3.1h4.2v0.7H277.3z"/>
	<path class="st3" d="M283.7,183.6v-7.9h2.6c1.7,0,2.7,0.7,2.7,2.1c0.1,1.1-0.8,2-1.9,2.1l2,3.6l-0.8,0.1l-2-3.6h-2v3.5L283.7,183.6
		z M284.5,179.4h1.9c1.3,0,2-0.4,2-1.5s-0.7-1.5-2-1.5h-1.8L284.5,179.4z"/>
	<path class="st3" d="M290.2,182.5l0.4-0.6c0.7,0.7,1.7,1.1,2.7,1.1c1.2,0,2-0.5,2-1.4s-0.4-1.2-2.1-1.8s-2.5-1-2.5-2.3
		c0.1-1.2,1.2-2.1,2.4-2c0,0,0,0,0.1,0c1,0,2,0.4,2.8,1.1l-0.4,0.6c-0.6-0.6-1.5-1-2.4-1c-1.1,0-1.7,0.6-1.7,1.3
		c0,0.9,0.5,1.2,2.2,1.7s2.4,1.1,2.4,2.4s-1.1,2.1-2.7,2.1C292.1,183.8,291,183.3,290.2,182.5z"/>
	<path class="st3" d="M297.3,179.7c0-2.5,1.4-4.1,3.3-4.1s3.3,1.6,3.3,4.1s-1.4,4.1-3.3,4.1S297.3,182.1,297.3,179.7z M303.1,179.7
		c0-2.1-1.1-3.4-2.6-3.4s-2.6,1.3-2.6,3.4s1.1,3.4,2.6,3.4S303.1,181.8,303.1,179.7z"/>
	<path class="st3" d="M305.6,183.6v-7.9h0.8l4.3,6.5l0,0v-6.5h0.7v7.9h-0.7l-4.4-6.7l0,0v6.7H305.6z"/>
	<path class="st3" d="M436.8,183.6v-7.9h2.6c1.7,0,2.8,0.7,2.8,2.1s-1.2,2.2-2.8,2.2h-1.8v3.5L436.8,183.6z M437.5,179.5h1.8
		c1.3,0,2-0.4,2-1.5s-0.7-1.5-2-1.5h-1.8V179.5z"/>
	<path class="st3" d="M443.6,183.6v-7.9h4.7v0.7h-3.9v2.7h2.9l0.1,0.7h-3.1v3.1h4.2v0.7H443.6z"/>
	<path class="st3" d="M449.9,183.6v-7.9h2.6c1.7,0,2.7,0.7,2.7,2.1c0.1,1.1-0.8,2-1.9,2.1l2,3.6l-0.8,0.1l-2-3.6h-2v3.5L449.9,183.6
		z M450.7,179.4h1.8c1.3,0,2-0.4,2-1.5s-0.7-1.5-2-1.5h-1.8V179.4z"/>
	<path class="st3" d="M459.5,183.6v-7.9h2.6c1.7,0,2.8,0.7,2.8,2.1s-1.2,2.2-2.8,2.2h-1.8v3.5L459.5,183.6z M460.2,179.5h1.8
		c1.3,0,2-0.4,2-1.5s-0.7-1.5-2-1.5h-1.8V179.5z"/>
	<path class="st3" d="M466.3,183.6v-7.9h4.7v0.7h-4v2.7h2.9l0.1,0.7h-3v3.1h4.2v0.7H466.3z"/>
	<path class="st3" d="M472.6,183.6v-7.9h2.6c1.7,0,2.7,0.7,2.7,2.1c0.1,1.1-0.8,2-1.9,2.1l2,3.6l-0.8,0.1l-2-3.6h-2v3.5L472.6,183.6
		z M473.4,179.4h1.8c1.3,0,2-0.4,2-1.5s-0.7-1.5-2-1.5h-1.9L473.4,179.4z"/>
	<path class="st3" d="M479.1,182.5l0.4-0.6c0.7,0.7,1.7,1.1,2.7,1.1c1.2,0,2-0.5,2-1.4s-0.4-1.2-2.1-1.8c-1.7-0.5-2.5-1-2.5-2.3
		c0.1-1.2,1.2-2.1,2.4-2c0,0,0,0,0.1,0c1,0,2,0.4,2.8,1.1l-0.4,0.6c-0.6-0.6-1.5-1-2.4-1c-1.1,0-1.7,0.6-1.7,1.3
		c0,0.9,0.5,1.2,2.2,1.7s2.4,1.1,2.4,2.4s-1.1,2.1-2.7,2.1C481,183.8,479.9,183.3,479.1,182.5z"/>
	<path class="st3" d="M486.2,179.7c0-2.5,1.4-4.1,3.3-4.1c1.9,0,3.3,1.6,3.3,4.1s-1.4,4.1-3.3,4.1
		C487.6,183.8,486.2,182.1,486.2,179.7z M492,179.7c0-2.1-1.1-3.4-2.6-3.4s-2.6,1.3-2.6,3.4s1.1,3.4,2.6,3.4S492,181.8,492,179.7z"
		/>
	<path class="st3" d="M494.5,183.6v-7.9h0.8l4.3,6.5l0,0v-6.5h0.7v7.9h-0.7l-4.5-6.7l0,0v6.7H494.5z"/>
	<path class="st4" d="M62.2,82.2l1.4-0.9c1.5,2.5,3.6,4.2,6.8,4.2c4.7,0,6.8-3.7,6.8-7.3c0-4.4-2.7-6.9-6.2-6.9
		c-2.5,0-4.9,1.3-6.2,3.5l-1.4-0.6l1-13.3h12.8l0.3,1.7H66l-0.8,9.8c1.4-1.7,3.6-2.7,5.8-2.6c4.4,0,7.9,3.2,7.9,8.3s-3.3,9-8.5,9
		C67,87.1,63.8,85.2,62.2,82.2z"/>
	<path class="st4" d="M64.5,85.2c0-1,0.5-1.5,1.3-1.5c0.7,0,1.4,0.6,1.4,1.3c0,0.1,0,0.1,0,0.2c0,1-0.6,1.6-1.4,1.6
		C65,86.7,64.5,86.2,64.5,85.2z"/>
	<path class="st4" d="M90.4,86.6l11.1-24.1H88.2l-0.3-1.7h15.4v1.6L92.2,86.6H90.4z"/>
	<path class="st4" d="M106.2,84.7l0.9-1.3c1.5,1.5,3.5,2.3,5.6,2.2c5,0,8-5.6,8-12.4c-1.8,2.3-4.6,3.7-7.5,3.7c-5.6,0-8-3.6-8-8
		c0-4.8,3.2-8.5,8.4-8.5c4.7,0,8.8,4,8.8,12.9c0,7.5-3.8,13.8-9.7,13.8C110.4,87.2,108,86.3,106.2,84.7z M120.6,71
		c-0.6-6.3-3.7-9.1-7.1-9.1c-3.9,0-6.5,2.5-6.5,7c0,3.8,1.9,6.5,6.3,6.5C116.3,75.2,119.1,73.6,120.6,71z"/>
	<path class="st1" d="M242,111.3V102h6v1.5h-4.4v2.3h3.4l0.2,1.4h-3.6v2.7h4.7v1.4H242z"/>
	<path class="st1" d="M249.7,111.3V102h1.6v7.9h4.2l0.2,1.4H249.7z"/>
	<path class="st1" d="M256.9,111.3V102h6v1.5h-4.4v2.3h3.4l0.2,1.4h-3.6v2.7h4.7v1.4H256.9z"/>
	<path class="st1" d="M263.9,106.7c0-3.1,1.8-4.8,4-4.8c1.5-0.1,2.9,0.8,3.5,2.2l-1.3,0.8c-0.3-0.9-1.2-1.5-2.2-1.5
		c-1.6,0-2.5,1.3-2.5,3.3s0.9,3.4,2.5,3.4c1.1,0,2-0.7,2.3-1.7l1.4,0.6c-0.5,1.6-2,2.6-3.6,2.5C265.6,111.5,263.9,109.8,263.9,106.7
		z"/>
	<path class="st1" d="M275.3,111.3v-7.8h-2.9V102h7.2l0.2,1.5h-3v7.8H275.3z"/>
	<path class="st1" d="M281.1,111.3V102h3.3c2.2,0,3.5,0.9,3.5,2.8c0.1,1.2-0.8,2.4-2,2.6l2.2,3.7l-1.5,0.2l-2.3-3.7h-1.6v3.7
		C282.7,111.3,281.1,111.3,281.1,111.3z M282.7,106.3h1.7c1.3,0,2-0.4,2-1.4s-0.7-1.4-2-1.4h-1.7V106.3z"/>
	<path class="st1" d="M289.7,111.3V102h1.6v9.3H289.7z"/>
	<path class="st1" d="M293,106.7c0-3.1,1.8-4.8,4-4.8c1.5-0.1,2.9,0.8,3.5,2.2l-1.3,0.8c-0.3-0.9-1.2-1.5-2.2-1.5
		c-1.6,0-2.5,1.3-2.5,3.3s0.9,3.4,2.5,3.4c1.1,0,2-0.7,2.3-1.7l1.4,0.6c-0.5,1.6-2,2.6-3.6,2.5C294.7,111.5,293,109.8,293,106.7z"/>
	<path class="st1" d="M304.5,111.3v-7.8h-2.9V102h7.2l0.2,1.5h-3v7.8H304.5z"/>
	<path class="st1" d="M312.9,111.3v-4l-3.1-5.2l1.5-0.2l2.4,4.1l2.3-4h1.6l-3.2,5.3v4L312.9,111.3z"/>
	<path class="st4" d="M245.4,86.6V62.5l-4.9,1.8l-0.2-1.5l5.3-2h1.6v25.7L245.4,86.6L245.4,86.6z"/>
	<path class="st4" d="M252.4,73.7c0-8,3.3-13.3,9.1-13.3s9.1,5.3,9.1,13.3S267.4,87,261.5,87S252.4,81.8,252.4,73.7z M269,73.7
		c0-7.6-3-11.8-7.4-11.8c-4.6,0-7.4,4.2-7.4,11.8s3,11.8,7.4,11.8S269,81.3,269,73.7L269,73.7z"/>
	<path class="st4" d="M273.9,85.2c0-1,0.5-1.5,1.3-1.5c0.7,0,1.4,0.6,1.4,1.3c0,0.1,0,0.1,0,0.2c0,1-0.6,1.6-1.4,1.6
		C274.4,86.7,273.9,86.2,273.9,85.2z"/>
	<path class="st4" d="M280.2,82.2l1.4-0.9c1.5,2.5,3.6,4.2,6.8,4.2c4.7,0,6.8-3.7,6.8-7.3c0-4.4-2.7-6.9-6.2-6.9
		c-2.5,0-4.9,1.3-6.1,3.5l-1.4-0.6l1-13.3h12.8l0.3,1.7H284l-0.8,9.8c1.4-1.7,3.6-2.7,5.8-2.6c4.5,0,7.9,3.2,7.9,8.3s-3.3,9-8.5,9
		C285,87.1,281.8,85.2,280.2,82.2z"/>
	<path class="st4" d="M299.6,80.5c0-3.7,2.6-5.6,7.1-7.6c-3.6-1.6-5.9-3.3-5.9-6.4s3-6.1,7.7-6.1s7.7,3,7.7,6.1s-2.2,4.6-6,6.3
		c4.6,2,7.2,3.9,7.2,7.7c0,3.4-3.3,6.6-8.9,6.6S299.6,84,299.6,80.5z M315.7,80.4c0-3.1-2.6-4.8-7.3-6.7c-5,2.2-7.1,3.8-7.1,6.7
		s3.1,5.2,7.2,5.2S315.7,83.5,315.7,80.4L315.7,80.4z M314.5,66.5c0-2.2-1.9-4.6-6-4.6c-3.9,0-6,2.3-6,4.5c0,2.6,1.8,3.8,6,5.7
		C312.8,70.3,314.5,69.1,314.5,66.5L314.5,66.5z"/>
	<path class="st1" d="M449.5,111.3l-2.5-9.2l1.5-0.2l1.2,4.9c0.2,0.8,0.4,1.4,0.5,2.2l0,0c0.1-0.7,0.3-1.4,0.5-2.2l1.1-4.8h1.5
		l1.2,4.9c0.2,0.8,0.4,1.3,0.5,2.1l0,0c0.1-0.8,0.3-1.3,0.5-2.1l1.2-4.9h1.5l-2.4,9.3h-1.3l-1.7-7.1l0,0l-1.8,7.1L449.5,111.3z"/>
	<path class="st1" d="M458.1,111.3l3.3-9.3h1.5l3.2,9.2l-1.5,0.2l-0.8-2.3h-3.5l-0.8,2.2L458.1,111.3L458.1,111.3z M460.8,107.7h2.6
		l-1.3-3.7l0,0L460.8,107.7z"/>
	<path class="st1" d="M468.6,111.3v-7.8h-2.9V102h7.2l0.2,1.5h-3v7.8H468.6z"/>
	<path class="st1" d="M474.4,111.3V102h6v1.5H476v2.3h3.4l0.2,1.4H476v2.7h4.7v1.4H474.4z"/>
	<path class="st1" d="M482.1,111.3V102h3.3c2.2,0,3.5,0.9,3.5,2.8c0.1,1.2-0.8,2.4-2,2.6l2.2,3.7l-1.5,0.2l-2.2-3.7h-1.6v3.7
		C483.8,111.3,482.1,111.3,482.1,111.3z M483.6,106.3h1.7c1.3,0,2-0.4,2-1.4s-0.7-1.4-2-1.4h-1.7V106.3z"/>
	<path class="st4" d="M455.6,85.2c0-1,0.5-1.5,1.3-1.5c0.7,0,1.4,0.6,1.4,1.3c0,0.1,0,0.1,0,0.2c0,1-0.6,1.6-1.4,1.6
		S455.6,86.2,455.6,85.2z"/>
	<g>
		<path class="st4" d="M435.3,82.2l1.4-0.9c1.5,2.5,3.6,4.2,6.8,4.2c4.7,0,6.8-3.7,6.8-7.3c0-4.4-2.7-6.9-6.2-6.9
			c-2.5,0-4.9,1.3-6.1,3.5l-1.4-0.6l1-13.3h12.8l0.3,1.7h-11.6l-0.8,9.8c1.4-1.7,3.6-2.7,5.8-2.6c4.5,0,7.9,3.2,7.9,8.3
			s-3.3,9-8.5,9C440.1,87.1,436.9,85.2,435.3,82.2z"/>
		<path class="st4" d="M461.4,73.7c0-8,3.3-13.3,9.1-13.3c5.9,0,9.1,5.3,9.1,13.3S476.4,87,470.5,87
			C464.7,87.1,461.4,81.8,461.4,73.7z M478,73.7c0-7.6-3-11.8-7.4-11.8c-4.6,0-7.4,4.2-7.4,11.8s3,11.8,7.4,11.8S478,81.3,478,73.7
			L478,73.7z"/>
		<path class="st4" d="M481.8,86.6V86c0-3.7,2-7.1,8.8-11.4c3.8-2.4,5.4-4.4,5.4-7.2c0-3.3-2-5.5-5.7-5.5c-3,0-5,1.5-6.5,4.7
			l-1.4-0.7c1.7-3.6,4.5-5.5,8-5.5c4.5,0,7.3,2.9,7.3,7c0,3.7-1.9,5.8-6.8,9s-7.2,6.2-7.3,8.7h14.1l0.3,1.6L481.8,86.6z"/>
	</g>
</g>
<g>
	<path class="st3" d="M131.6,186c-1.8-1.5-2.7-3.2-2.7-5.3s0.9-3.8,2.7-5.3l0.3,0.4c-1.4,1.3-2.2,2.9-2.2,4.9c0,1.9,0.9,3.6,2.3,4.9
		L131.6,186z"/>
	<path class="st3" d="M132.9,177.9c0-1.5,0.7-2.5,1.8-2.5s1.8,0.9,1.8,2.4c0,1.4-0.7,2.5-1.8,2.5
		C133.6,180.3,132.9,179.3,132.9,177.9z M135.9,177.9c0-1.1-0.4-1.8-1.1-1.8c-0.7,0-1.1,0.8-1.1,1.8c0,1.1,0.4,1.9,1.1,1.9
		C135.5,179.7,135.9,178.9,135.9,177.9z M134.8,183.7l4.9-8.1h0.7l-4.9,8.1H134.8z M138.6,181.4c0-1.5,0.7-2.5,1.8-2.5
		s1.8,0.9,1.8,2.4c0,1.4-0.7,2.5-1.8,2.5C139.2,183.8,138.6,182.8,138.6,181.4z M141.5,181.4c0-1.1-0.4-1.8-1.1-1.8
		c-0.7,0-1.1,0.8-1.1,1.8c0,1.1,0.4,1.9,1.1,1.9C141.2,183.2,141.5,182.4,141.5,181.4z"/>
	<path class="st3" d="M142.7,185.6c1.4-1.3,2.3-2.9,2.3-4.9c0-1.9-0.9-3.6-2.3-4.9l0.3-0.4c1.8,1.5,2.8,3.2,2.8,5.3s-1,3.8-2.8,5.3
		L142.7,185.6z"/>
</g>
<g>
	<path class="st3" d="M318.5,186c-1.8-1.5-2.7-3.2-2.7-5.3s0.9-3.8,2.7-5.3l0.3,0.4c-1.4,1.3-2.2,2.9-2.2,4.9c0,1.9,0.9,3.6,2.3,4.9
		L318.5,186z"/>
	<path class="st3" d="M319.8,177.9c0-1.5,0.7-2.5,1.8-2.5c1.1,0,1.8,0.9,1.8,2.4c0,1.4-0.7,2.5-1.8,2.5
		C320.5,180.3,319.8,179.3,319.8,177.9z M322.8,177.9c0-1.1-0.4-1.8-1.1-1.8s-1.1,0.8-1.1,1.8c0,1.1,0.4,1.9,1.1,1.9
		C322.4,179.7,322.8,178.9,322.8,177.9z M321.7,183.7l4.9-8.1h0.7l-4.9,8.1H321.7z M325.5,181.4c0-1.5,0.7-2.5,1.8-2.5
		s1.8,0.9,1.8,2.4c0,1.4-0.7,2.5-1.8,2.5C326.1,183.8,325.5,182.8,325.5,181.4z M328.4,181.4c0-1.1-0.4-1.8-1.1-1.8
		s-1.1,0.8-1.1,1.8c0,1.1,0.4,1.9,1.1,1.9C328.1,183.2,328.4,182.4,328.4,181.4z"/>
	<path class="st3" d="M329.6,185.6c1.4-1.3,2.3-2.9,2.3-4.9c0-1.9-0.9-3.6-2.3-4.9l0.3-0.4c1.8,1.5,2.8,3.2,2.8,5.3s-1,3.8-2.8,5.3
		L329.6,185.6z"/>
</g>
<g>
	<path class="st3" d="M506.7,186c-1.8-1.5-2.7-3.2-2.7-5.3s0.9-3.8,2.7-5.3l0.3,0.4c-1.4,1.3-2.2,2.9-2.2,4.9c0,1.9,0.9,3.6,2.3,4.9
		L506.7,186z"/>
	<path class="st3" d="M508.1,177.9c0-1.5,0.7-2.5,1.8-2.5s1.8,0.9,1.8,2.4c0,1.4-0.7,2.5-1.8,2.5
		C508.7,180.3,508.1,179.3,508.1,177.9z M511.1,177.9c0-1.1-0.4-1.8-1.1-1.8c-0.7,0-1.1,0.8-1.1,1.8c0,1.1,0.4,1.9,1.1,1.9
		C510.7,179.7,511.1,178.9,511.1,177.9z M510,183.7l4.9-8.1h0.7l-4.9,8.1H510z M513.7,181.4c0-1.5,0.7-2.5,1.8-2.5s1.8,0.9,1.8,2.4
		c0,1.4-0.7,2.5-1.8,2.5C514.4,183.8,513.7,182.8,513.7,181.4z M516.7,181.4c0-1.1-0.4-1.8-1.1-1.8c-0.7,0-1.1,0.8-1.1,1.8
		c0,1.1,0.4,1.9,1.1,1.9C516.3,183.2,516.7,182.4,516.7,181.4z"/>
	<path class="st3" d="M517.8,185.6c1.4-1.3,2.3-2.9,2.3-4.9c0-1.9-0.9-3.6-2.3-4.9l0.3-0.4c1.8,1.5,2.8,3.2,2.8,5.3s-1,3.8-2.8,5.3
		L517.8,185.6z"/>
</g>
</svg>
