<svg width="747" height="470" viewBox="0 0 747 470" xmlns="http://www.w3.org/2000/svg"><title>Page 1</title><g fill="none" fill-rule="evenodd"><g font-size="15" font-family="BentonSansBBVA-Book, Benton Sans BBVA" letter-spacing="-.008" fill="#FFF" font-weight="300"><text transform="translate(619 -3.073)"><tspan x=".397" y="14.123">2016</tspan></text><text transform="translate(619 -3.073)"><tspan x="94.806" y="14.123">2015</tspan></text></g><path fill="#2ECDCD" d="M610.953 6.768l-4.633 9.266h-17.609l4.633-9.266z"/><path fill="#0086CD" d="M702.461 6.768l-4.633 9.266H680.22l4.633-9.266z"/><text font-family="BentonSansBBVA-Medium, Benton Sans BBVA" font-size="15" font-weight="400" letter-spacing=".025" fill="#FFF" transform="translate(0 -4)"><tspan x="1.892" y="44.401">TOTAL ACTIVO </tspan> <tspan x="111.207" y="44.401" font-family="BentonSansBBVA-Book, Benton Sans BBVA" font-weight="300">(MM€)</tspan></text><text font-family="BentonSansBBVA-Medium, Benton Sans BBVA" font-size="15" font-weight="400" letter-spacing=".025" fill="#FFF" transform="translate(0 -4)"><tspan x="0" y="136.734">CRÉDITOS A LA CLIENTELA</tspan></text><text font-family="BentonSansBBVA-Book, Benton Sans BBVA" font-size="15" font-weight="300" letter-spacing=".025" fill="#FFF" transform="translate(0 -4)"><tspan x="213.223" y="132.734">(MM€)</tspan></text><text font-family="BentonSansBBVA-Medium, Benton Sans BBVA" font-size="15" font-weight="400" letter-spacing=".025" fill="#FFF" transform="translate(0 -4)"><tspan x=".559" y="231.243">DEPÓSITOS DE LA CLIENTELA</tspan></text><text font-family="BentonSansBBVA-Book, Benton Sans BBVA" font-size="15" font-weight="300" letter-spacing=".025" fill="#FFF" transform="translate(0 -4)"><tspan x="234.796" y="227.243">(MM€)</tspan></text><text font-family="BentonSansBBVA-Medium, Benton Sans BBVA" font-size="15" font-weight="400" letter-spacing=".025" fill="#FFF" transform="translate(0 -4)"><tspan x="1.006" y="420.078">PATRIMONIO NETO </tspan> <tspan x="144.926" y="420.078" font-family="BentonSansBBVA-Book, Benton Sans BBVA" font-weight="300">(MM€)</tspan></text><text font-family="BentonSansBBVA-Book, Benton Sans BBVA" font-size="15" font-weight="300" letter-spacing="-.008" fill="#FFF" transform="translate(0 -4)"><tspan x="649.201" y="90.248">750</tspan></text><text font-family="BentonSansBBVA-Book, Benton Sans BBVA" font-size="15" font-weight="300" letter-spacing="-.008" fill="#FFF" transform="translate(0 -4)"><tspan x="637.336" y="68.918">732</tspan></text><text font-family="BentonSansBBVA-Book, Benton Sans BBVA" font-size="15" font-weight="300" letter-spacing="-.008" fill="#FFF" transform="translate(0 -4)"><tspan x="380.146" y="162.428">430</tspan></text><text font-family="BentonSansBBVA-Book, Benton Sans BBVA" font-size="15" font-weight="300" letter-spacing="-.008" fill="#FFF" transform="translate(0 -4)"><tspan x="366.406" y="261.053">401</tspan></text><text font-family="BentonSansBBVA-Book, Benton Sans BBVA" font-size="15" font-weight="300" letter-spacing="-.008" fill="#FFF" transform="translate(0 -4)"><tspan x="367.081" y="281.768">403</tspan></text><text font-family="BentonSansBBVA-Book, Benton Sans BBVA" font-size="15" font-weight="300" letter-spacing="-.008" fill="#FFF" transform="translate(0 -4)"><tspan x="78.796" y="450.173">55</tspan></text><text font-family="BentonSansBBVA-Book, Benton Sans BBVA" font-size="15" font-weight="300" letter-spacing="-.008" fill="#FFF" transform="translate(0 -4)"><tspan x="78.852" y="470.387">55</tspan></text><text font-family="BentonSansBBVA-Book, Benton Sans BBVA" font-size="15" font-weight="300" letter-spacing="-.008" fill="#FFF" transform="translate(0 -4)"><tspan x="383.972" y="184.423">433</tspan></text><path d="M2.658 62.365h19.834l12.627 6.369H18.157zm0 19.861h19.834l12.627 6.37H18.157zm-1 74.598h19.834l12.627 6.37H17.157zm0 19.862h19.834l12.627 6.37H17.157zm0 76.843h19.834l12.627 6.37H17.157zm0 20.861h19.834l12.627 6.37H17.157zm-.333 168.565h19.834l12.627 6.369H16.824zm0 19.862h19.834l12.627 6.369H16.824zm0-113.171h19.834l12.627 6.37H16.824zm0 19.862h19.834l12.627 6.37H16.824z"/><path fill="#2ECDCD" d="M623.801 59.474l-4.633 9.266H18.143l4.633-9.266z"/><path fill="#2A86CA" d="M638.768 79.336l-4.633 9.266H18.159l4.633-9.266z"/><path fill="#2ECDCD" d="M373.398 153.893l-4.633 9.266H17.481l4.633-9.266z"/><path fill="#2A86CA" d="M376.276 173.74l-4.633 9.266H17.458l4.633-9.267z"/><path fill="#2ECDCD" d="M349.221 250.74l-4.633 9.267H17.425l4.634-9.267z"/><path fill="#2A86CA" d="M350.948 271.509l-4.633 9.266h-328.6l4.632-9.266z"/><path fill="#2ECDCD" d="M62.276 440.234l-4.633 9.266h-40.53l4.632-9.266z"/><path fill="#2A86CA" d="M62.028 460.072l-4.633 9.266H17.23l4.633-9.266z"/><text font-family="BentonSansBBVA-Medium, Benton Sans BBVA" font-size="15" font-weight="400" letter-spacing=".025" fill="#FFF" transform="translate(0 -4)"><tspan x="1" y="327.005">PATRIMONIO NETO </tspan> <tspan x="144.92" y="327.005" font-family="BentonSansBBVA-Book, Benton Sans BBVA" font-weight="300">(MM€)</tspan></text><text font-family="BentonSansBBVA-Book, Benton Sans BBVA" font-size="15" font-weight="300" letter-spacing="-.008" fill="#FFF" transform="translate(0 -4)"><tspan x="477.595" y="357.1">536</tspan></text><text font-family="BentonSansBBVA-Book, Benton Sans BBVA" font-size="15" font-weight="300" letter-spacing="-.008" fill="#FFF" transform="translate(0 -4)"><tspan x="477.655" y="377.32">535</tspan></text><path fill="#2ECDCD" d="M461.072 347.16l-4.633 9.267H17.113l4.633-9.266z"/><path fill="#2A86CA" d="M460.824 367l-4.633 9.265H17.231L21.862 367z"/></g></svg>