<svg width="734" height="352" viewBox="0 0 734 352" xmlns="http://www.w3.org/2000/svg"><title>Page 1</title><defs><linearGradient x1="28.399%" y1="26.965%" x2="86.241%" y2="86.073%" id="a"><stop stop-opacity="0" offset="0%"/><stop stop-opacity=".5" offset="100%"/></linearGradient></defs><g fill="none" fill-rule="evenodd"><text font-family="BentonSansBBVA-Medium, Benton Sans BBVA" font-size="15" font-weight="400" letter-spacing=".025" fill="#FFF" transform="translate(-1 -4)"><tspan x="1.265" y="316.79">CET1 (</tspan> <tspan x="47.39" y="316.79" font-family="BentonSansBBVA-MediumItalic, Benton Sans BBVA" font-style="italic" font-weight="500">Fully-loaded</tspan> <tspan x="133.07" y="316.79">)</tspan></text><text font-family="BentonSansBBVA-Bold, Benton Sans BBVA" font-size="18" font-weight="bold" letter-spacing="-.008" fill="#FFF" transform="translate(3 325.915)"><tspan x="24.417" y="21.107">+58pb</tspan></text><path d="M17.494 339.814l-1.098 1.098-2.872-2.879.03 9.33-1.512-1.536v-7.818l-2.95 2.934-1.105-1.099 4.769-4.768 4.738 4.738zM3.518 341.22a9.213 9.213 0 0 0 9.215 9.215 9.213 9.213 0 0 0 9.215-9.215 9.212 9.212 0 0 0-9.215-9.215 9.212 9.212 0 0 0-9.215 9.215z" fill="#2ECDCD"/><text font-family="BentonSansBBVA-Medium, Benton Sans BBVA" font-size="15" font-weight="400" letter-spacing=".025" fill="#FFF" transform="translate(-1 -4)"><tspan x="280.886" y="316.79">CET1 (</tspan> <tspan x="327.011" y="316.79" font-family="BentonSansBBVA-MediumItalic, Benton Sans BBVA" font-style="italic" font-weight="500">Phased-in</tspan> <tspan x="397.556" y="316.79">)</tspan></text><text font-family="BentonSansBBVA-Bold, Benton Sans BBVA" font-size="18" font-weight="bold" letter-spacing="-.008" fill="#FFF" transform="translate(283 325.915)"><tspan x="24.037" y="21.107">8pb</tspan></text><path d="M297.114 339.814l-1.098 1.098-2.872-2.879.031 9.33-1.513-1.536v-7.818l-2.949 2.934-1.106-1.099 4.77-4.768 4.737 4.738zm-13.976 1.405a9.213 9.213 0 0 0 9.215 9.215 9.213 9.213 0 0 0 9.215-9.215 9.212 9.212 0 0 0-9.215-9.215 9.212 9.212 0 0 0-9.215 9.215z" fill="#2ECDCD"/><text font-family="BentonSansBBVA-Medium, Benton Sans BBVA" font-size="15" font-weight="400" letter-spacing=".025" fill="#FFF" transform="translate(-1 -4)"><tspan x="535.56" y="316.79">RATIO CAPITAL (</tspan> <tspan x="656.31" y="316.79" font-family="BentonSansBBVA-MediumItalic, Benton Sans BBVA" font-style="italic" font-weight="500">Phased-in</tspan></text><text font-family="BentonSansBBVA-Medium, Benton Sans BBVA" font-size="15" font-weight="400" fill="#FFF" transform="translate(537 293.915)"><tspan x="191.273" y="18.875">)</tspan></text><text font-family="BentonSansBBVA-Bold, Benton Sans BBVA" font-size="18" font-weight="bold" letter-spacing="-.008" fill="#FFF" transform="translate(537 293.915)"><tspan x="24.711" y="53.107">14pb</tspan></text><path d="M551.788 339.814l-1.098 1.098-2.872-2.879.03 9.33-1.512-1.536v-7.818l-2.95 2.934-1.105-1.099 4.769-4.768 4.738 4.738zm-13.976 1.405a9.213 9.213 0 0 0 9.215 9.215 9.213 9.213 0 0 0 9.215-9.215 9.212 9.212 0 0 0-9.215-9.215 9.212 9.212 0 0 0-9.215 9.215z" fill="#2ECDCD"/><text font-family="BentonSansBBVA-Book, Benton Sans BBVA" font-size="18" font-weight="300" letter-spacing="-.008" fill="#FFF" transform="translate(-1 -4)"><tspan x="32.61" y="155.801">10,3</tspan></text><text font-family="BentonSansBBVA-Book, Benton Sans BBVA" font-size="18" font-weight="300" letter-spacing="-.008" fill="#FFF" transform="translate(-1 -4)"><tspan x="85.944" y="148.133">10,9</tspan></text><text font-family="BentonSansBBVA-Book, Benton Sans BBVA" font-size="18" font-weight="300" letter-spacing="-.008" fill="#FFF" transform="translate(-1 -4)"><tspan x="313.59" y="140.627">12,1</tspan></text><text font-family="BentonSansBBVA-Book, Benton Sans BBVA" font-size="18" font-weight="300" letter-spacing="-.008" fill="#FFF" transform="translate(-1 -4)"><tspan x="356.268" y="137.963">12,2</tspan></text><text font-family="BentonSansBBVA-Book, Benton Sans BBVA" font-size="18" font-weight="300" letter-spacing="-.008" fill="#FFF" transform="translate(-1 -4)"><tspan x="555.258" y="116.633">15,0</tspan></text><text font-family="BentonSansBBVA-Book, Benton Sans BBVA" font-size="18" font-weight="300" letter-spacing="-.008" fill="#FFF" transform="translate(-1 -4)"><tspan x="610.59" y="114.959">15,1</tspan></text><path fill-opacity=".2" fill="url(#a)" d="M0 260.695L47.534 281.2l15.271-7.579-43.806-18.175z" transform="translate(-1 -4)"/><path fill="#2A86CA" d="M45.862 277.593l15.943-7.972v-63.666l-15.943-12.028z"/><path fill="#0064A8" d="M45.862 184.717l15.944-7.972-15.909-6.375-15.944 7.972z"/><path fill="#2A86CA" d="M45.862 184.717v9.21l15.943 12.028v-29.21z"/><path fill-opacity=".2" fill="url(#a)" d="M59.003 260.695l47.535 20.505 15.271-7.579-43.807-18.175z" transform="translate(-1 -4)"/><path fill="#2ECDCD" d="M104.865 277.593l15.943-7.972v-83.666l-15.943 7.972z"/><path fill="#00A6A6" d="M104.865 180.717l15.944-7.972-15.909-6.375-15.944 7.972z"/><path fill="#2ECDCD" d="M104.865 180.717v13.21l15.943-7.972v-13.21z"/><path fill-opacity=".2" fill="url(#a)" d="M276.992 260.695l47.535 20.505 15.271-7.579-43.807-18.175z" transform="translate(-1 -4)"/><path fill="#2A86CA" d="M322.854 277.593l15.943-7.972v-63.666l-15.943-12.028z"/><path fill="#0064A8" d="M322.854 168.727l15.944-7.973-15.909-6.375-15.944 7.973z"/><path fill="#2A86CA" d="M322.854 168.727v25.2l15.943 12.028v-45.2z"/><path fill-opacity=".2" fill="url(#a)" d="M327.996 260.695L375.53 281.2l15.271-7.579-43.807-18.175z" transform="translate(-1 -4)"/><path fill="#2ECDCD" d="M373.858 277.593l15.943-7.972v-83.666l-15.943 7.972z"/><path fill="#00A6A6" d="M373.858 168.05l15.944-7.972-15.91-6.375-15.943 7.972z"/><path fill="#2ECDCD" d="M373.858 168.05v25.877l15.943-7.972v-25.877z"/><path fill-opacity=".2" fill="url(#a)" d="M527.477 260.695l47.535 20.505 15.27-7.579-43.807-18.175z" transform="translate(-1 -4)"/><path fill="#2A86CA" d="M573.339 277.593l15.943-7.972v-63.666l-15.943-12.028z"/><path fill="#0064A8" d="M573.339 144.05l15.944-7.972-15.91-6.375-15.943 7.972z"/><path fill="#2A86CA" d="M573.339 144.05v49.877l15.943 12.028v-69.877z"/><path fill-opacity=".2" fill="url(#a)" d="M578.48 260.695l47.535 20.505 15.27-7.579-43.807-18.175z" transform="translate(-1 -4)"/><path fill="#2ECDCD" d="M624.342 277.593l15.943-7.972v-83.666l-15.943 7.972z"/><path fill="#00A6A6" d="M624.342 143.06l15.944-7.972-15.909-6.375-15.944 7.972z"/><path fill="#2ECDCD" d="M624.342 143.06v50.867l15.943-7.971v-50.868z"/><text font-family="BentonSansBBVA-Book, Benton Sans BBVA" font-size="15" font-weight="300" letter-spacing="-.008" fill="#FFF" transform="translate(279 -3.085)"><tspan x="121.331" y="14.135">2016</tspan></text><text font-family="BentonSansBBVA-Book, Benton Sans BBVA" font-size="15" font-weight="300" letter-spacing="-.008" fill="#FFF" transform="translate(279 -3.085)"><tspan x="34.001" y="15.135">2015</tspan></text><path fill="#2ECDCD" d="M391.888 1.769l-4.633 9.266h-17.609l4.633-9.266z"/><path fill="#2A86CA" d="M301.656 1.769l-4.633 9.266h-17.61l4.634-9.266z"/></g></svg>