<?xml version="1.0" encoding="UTF-8" standalone="no"?>
<svg width="786px" height="183px" viewBox="0 0 786 183" version="1.1" xmlns="http://www.w3.org/2000/svg" xmlns:xlink="http://www.w3.org/1999/xlink">
    <!-- Generator: Sketch 41.2 (35397) - http://www.bohemiancoding.com/sketch -->
    <title>Group 2</title>
    <desc>Created with Sketch.</desc>
    <defs>
        <linearGradient x1="4.38467905%" y1="45.6725955%" x2="100%" y2="45.6725959%" id="linearGradient-1">
            <stop stop-color="#000000" stop-opacity="0" offset="0%"></stop>
            <stop stop-color="#000000" stop-opacity="0.5" offset="100%"></stop>
        </linearGradient>
        <polygon id="path-2" points="182.7303 0.579 0.3503 0.579 0.3503 182.9588 182.7303 182.9588 182.7303 0.579"></polygon>
    </defs>
    <g id="Page-1" stroke="none" stroke-width="1" fill="none" fill-rule="evenodd">
        <g id="Group-2" transform="translate(-10.000000, -1.000000)">
            <g id="Page-1">
                <g id="Group-12" transform="translate(0.000000, 0.421000)">
                    <path d="M703.932,183 L567.977,183 L567.977,0.579 L703.932,0.579 C754.307,0.579 795.143,41.415 795.143,91.789 L795.143,91.79 C795.143,142.164 754.307,183 703.932,183" id="Fill-1" fill-opacity="0.1" fill="url(#linearGradient-1)"></path>
                    <path d="M135.955,183 L0,183 L0,0.579 L135.955,0.579 C186.329,0.579 227.166,41.415 227.166,91.789 L227.166,91.79 C227.166,142.164 186.329,183 135.955,183" id="Fill-2" fill-opacity="0.1" fill="url(#linearGradient-1)"></path>
                    <path d="M703.9582,173.1262 C748.9112,173.1262 785.3532,136.6842 785.3532,91.7312 C785.3532,46.7782 748.9112,10.3372 703.9582,10.3372 L703.9472,10.3372 L703.9472,1.5222 C711.9172,1.5222 719.5932,2.5332 727.2922,4.5952 C775.4102,17.4882 803.9652,66.9472 791.0722,115.0652 C778.1792,163.1832 728.7202,191.7382 680.6022,178.8452 L682.8772,170.3542 C689.6032,172.1522 696.6662,173.1262 703.9582,173.1262" id="Fill-4" fill="#00CCCD"></path>
                    <path d="M703.947,1.5222 L703.947,10.3372 C658.999,10.3432 622.564,46.7822 622.564,91.7312 C622.564,129.3922 648.147,161.0642 682.878,170.3542 L680.602,178.8452 C640.183,168.0152 613.749,133.5652 613.749,91.7202 C613.749,41.9052 654.132,1.5222 703.947,1.5222" id="Fill-6" fill="#FFFFFF"></path>
                    <path d="M136.7194,1.7571 L136.7194,10.5721 C181.6674,10.5781 218.1024,47.0171 218.1024,91.9661 C218.1024,129.6271 192.5194,161.2991 157.7884,170.5891 L160.0644,179.0801 C200.4834,168.2501 226.9174,133.7991 226.9174,91.9551 C226.9174,42.1401 186.5344,1.7571 136.7194,1.7571" id="Fill-8" fill="#00CCCD"></path>
                    <path d="M136.7082,173.3611 C91.7552,173.3611 55.3132,136.9191 55.3132,91.9661 C55.3132,47.0131 91.7552,10.5711 136.7082,10.5711 C136.7112,10.5711 136.7152,10.5721 136.7192,10.5721 L136.7192,1.7571 C128.7492,1.7571 121.0732,2.7671 113.3742,4.8301 C65.2562,17.7231 36.7012,67.1821 49.5942,115.3001 C62.4872,163.4181 111.9462,191.9731 160.0642,179.0801 L157.7892,170.5891 C151.0632,172.3871 144.0002,173.3611 136.7082,173.3611" id="Fill-10" fill="#FFFFFF"></path>
                </g>
                <path d="M117.6533,86.2331125 L117.6533,79.7891125 L122.1893,79.7891125 L122.0813,77.5211125 L117.6533,77.5211125 L117.6533,59.5931125 L114.4853,59.5931125 L102.3533,77.8811125 L102.3533,79.7891125 L115.1693,79.7891125 L115.1693,86.2331125 L117.6533,86.2331125 Z M115.0973,62.5811125 L115.1693,62.5811125 L115.1693,77.5211125 L105.2333,77.5211125 L115.0973,62.5811125 Z M135.9799,86.7371125 C141.4879,86.7371125 144.9079,82.9211125 144.9079,77.8811125 C144.9079,73.0571125 142.2079,69.5651125 136.5919,69.5651125 C133.2079,69.5651125 130.6879,71.2931125 128.9959,73.1291125 C128.9959,66.4691125 132.0199,61.3211125 136.9519,61.3211125 C139.3279,61.3211125 140.6239,61.9691125 142.0639,63.1211125 L143.2519,61.1051125 C141.8479,59.9531125 139.9759,59.0891125 136.9879,59.0891125 C130.8679,59.0891125 126.5119,65.1731125 126.5119,73.3811125 C126.5119,82.5251125 130.7959,86.7371125 135.9799,86.7371125 Z M136.0879,84.5411125 C132.5599,84.5411125 129.6439,81.8051125 129.1039,75.6851125 C130.7959,73.3451125 133.3519,71.7611125 136.3039,71.7611125 C140.6239,71.7611125 142.4239,74.3891125 142.4239,77.9171125 C142.4239,82.0931125 139.8679,84.5411125 136.0879,84.5411125 Z M154.6989,75.2171125 C158.4789,75.2171125 160.6749,71.8331125 160.6749,67.1531125 C160.6749,62.3291125 158.4069,59.2331125 154.7349,59.2331125 C151.0629,59.2331125 148.7229,62.3291125 148.7229,67.2971125 C148.7229,71.9771125 150.8469,75.2171125 154.6989,75.2171125 Z M157.1469,86.2331125 L173.0589,59.5931125 L170.7549,59.5931125 L154.8429,86.2331125 L157.1469,86.2331125 Z M154.7349,73.2731125 C152.3229,73.2731125 150.9909,70.7891125 150.9909,67.1531125 C150.9909,63.8051125 152.2869,61.1771125 154.6989,61.1771125 C157.0749,61.1771125 158.4069,63.6251125 158.4069,67.2251125 C158.4069,70.6091125 157.1109,73.2731125 154.7349,73.2731125 Z M173.1669,86.5931125 C176.9829,86.5931125 179.1789,83.2091125 179.1789,78.5651125 C179.1789,73.7051125 176.9109,70.6091125 173.2389,70.6091125 C169.5669,70.6091125 167.1909,73.7411125 167.1909,78.6731125 C167.1909,83.3531125 169.3509,86.5931125 173.1669,86.5931125 Z M173.2029,84.6491125 C170.7909,84.6491125 169.4949,82.1651125 169.4949,78.5651125 C169.4949,75.1811125 170.7549,72.5531125 173.1669,72.5531125 C175.5789,72.5531125 176.8749,75.0011125 176.8749,78.6011125 C176.8749,81.9851125 175.6149,84.6491125 173.2029,84.6491125 Z" id="46%" fill="#000000"></path>
                <path d="M678.4613,86.7371125 C684.1133,86.7371125 687.6053,82.7411125 687.6053,77.4131125 C687.6053,72.0851125 684.1853,68.7011125 679.3613,68.7011125 C676.5173,68.7011125 674.7533,69.6731125 673.4573,71.1851125 L674.1773,61.9331125 L686.0933,61.9331125 L686.0213,59.5931125 L672.0533,59.5931125 L671.0093,73.5251125 L672.9173,74.2451125 C674.3573,72.1571125 676.2653,70.8971125 679.0013,70.8971125 C682.5293,70.8971125 685.0853,73.2731125 685.0853,77.5211125 C685.0853,81.0491125 683.0333,84.4691125 678.4253,84.4691125 C675.2213,84.4691125 672.9893,82.7771125 671.4053,80.3651125 L669.7493,81.9851125 C671.5133,84.7931125 674.6093,86.7371125 678.4613,86.7371125 Z M707.9051,86.2331125 L707.9051,79.7891125 L712.4411,79.7891125 L712.3331,77.5211125 L707.9051,77.5211125 L707.9051,59.5931125 L704.7371,59.5931125 L692.6051,77.8811125 L692.6051,79.7891125 L705.4211,79.7891125 L705.4211,86.2331125 L707.9051,86.2331125 Z M705.3491,62.5811125 L705.4211,62.5811125 L705.4211,77.5211125 L695.4851,77.5211125 L705.3491,62.5811125 Z M721.0301,75.2171125 C724.8101,75.2171125 727.0061,71.8331125 727.0061,67.1531125 C727.0061,62.3291125 724.7381,59.2331125 721.0661,59.2331125 C717.3941,59.2331125 715.0541,62.3291125 715.0541,67.2971125 C715.0541,71.9771125 717.1781,75.2171125 721.0301,75.2171125 Z M723.4781,86.2331125 L739.3901,59.5931125 L737.0861,59.5931125 L721.1741,86.2331125 L723.4781,86.2331125 Z M721.0661,73.2731125 C718.6541,73.2731125 717.3221,70.7891125 717.3221,67.1531125 C717.3221,63.8051125 718.6181,61.1771125 721.0301,61.1771125 C723.4061,61.1771125 724.7381,63.6251125 724.7381,67.2251125 C724.7381,70.6091125 723.4421,73.2731125 721.0661,73.2731125 Z M739.4981,86.5931125 C743.3141,86.5931125 745.5101,83.2091125 745.5101,78.5651125 C745.5101,73.7051125 743.2421,70.6091125 739.5701,70.6091125 C735.8981,70.6091125 733.5221,73.7411125 733.5221,78.6731125 C733.5221,83.3531125 735.6821,86.5931125 739.4981,86.5931125 Z M739.5341,84.6491125 C737.1221,84.6491125 735.8261,82.1651125 735.8261,78.5651125 C735.8261,75.1811125 737.0861,72.5531125 739.4981,72.5531125 C741.9101,72.5531125 743.2061,75.0011125 743.2061,78.6011125 C743.2061,81.9851125 741.9461,84.6491125 739.5341,84.6491125 Z" id="54%" fill="#000000"></path>
                <g id="Group-15" transform="translate(329.000000, 0.421000)">
                    <mask id="mask-3" fill="white">
                        <use xlink:href="#path-2"></use>
                    </mask>
                    <g id="Clip-14"></g>
                    <path d="M182.7303,91.7688 C182.7303,142.1318 141.9033,182.9588 91.5403,182.9588 C41.1773,182.9588 0.3503,142.1318 0.3503,91.7688 C0.3503,41.4058 41.1773,0.5788 91.5403,0.5788 C141.9033,0.5788 182.7303,41.4058 182.7303,91.7688" id="Fill-13" fill="#00A6E8" mask="url(#mask-3)"></path>
                </g>
                <path d="M381.6474,138.427827 C386.2074,138.427827 389.0574,135.667827 389.0574,132.037827 C389.0574,128.767827 387.4374,126.847827 384.1074,126.187827 C386.8374,125.737827 388.5474,123.787827 388.5474,120.937827 C388.5474,118.057827 386.5674,115.387827 381.8874,115.387827 C378.9174,115.387827 376.6374,116.827827 375.0474,118.717827 L376.4574,120.067827 C377.8074,118.387827 379.4874,117.277827 381.7674,117.277827 C385.1274,117.277827 386.4774,118.987827 386.4774,121.147827 C386.4774,123.877827 384.7074,125.317827 379.9974,125.317827 L378.9174,125.317827 L379.0374,127.147827 L379.8174,127.147827 C385.0674,127.147827 386.9574,128.797827 386.9574,132.037827 C386.9574,134.707827 384.9774,136.537827 381.6474,136.537827 C379.2174,136.537827 377.1474,135.517827 375.5274,133.057827 L374.0574,134.317827 C375.7074,136.927827 378.4074,138.427827 381.6474,138.427827 Z M395.7834,138.067827 L405.2034,117.637827 L405.2034,115.807827 L391.4934,115.807827 L391.6434,117.757827 L402.9834,117.757827 L393.6534,137.947827 L395.7834,138.067827 Z M420.3354,136.567827 C418.5354,136.567827 417.4554,135.697827 417.4554,134.047827 C417.4554,132.007827 419.1654,130.357827 426.1254,129.157827 L426.1254,134.077827 C424.5054,135.637827 422.5554,136.567827 420.3354,136.567827 Z M419.8854,138.277827 C422.2554,138.277827 424.2954,137.377827 426.1254,135.757827 L426.3354,138.007827 L428.1654,138.007827 L428.1654,126.937827 C428.1654,123.787827 426.5454,121.897827 423.0354,121.897827 C419.8254,121.897827 417.7554,123.097827 415.8654,124.837827 L417.0354,126.127827 C418.7154,124.627827 420.4254,123.637827 422.8854,123.637827 C424.9554,123.637827 426.1254,124.717827 426.1254,126.877827 L426.1254,127.687827 C418.0854,128.917827 415.4154,131.167827 415.4154,134.287827 C415.4154,136.747827 417.0654,138.277827 419.8854,138.277827 Z M442.0224,120.607827 C443.6724,120.607827 444.5424,119.557827 444.5424,117.427827 L443.2524,117.187827 C443.2524,118.447827 442.8924,118.927827 442.0224,118.927827 C440.7924,118.927827 439.2624,117.247827 437.5824,117.247827 C435.9324,117.247827 435.0624,118.297827 435.0624,120.427827 L436.3824,120.667827 C436.3524,119.407827 436.7124,118.927827 437.5824,118.927827 C438.8124,118.927827 440.3424,120.607827 442.0224,120.607827 Z M435.3324,138.007827 L435.3324,126.397827 C437.1024,124.687827 438.8124,123.637827 440.8224,123.637827 C443.0424,123.637827 444.0024,124.747827 444.0024,126.967827 L444.0024,138.007827 L446.0724,138.007827 L446.0724,126.547827 C446.0724,123.607827 444.4824,121.897827 441.3024,121.897827 C438.9024,121.897827 436.8924,123.157827 435.3324,124.717827 L435.1224,122.227827 L433.2624,122.227827 L433.2624,138.007827 L435.3324,138.007827 Z M457.4724,138.337827 C461.3424,138.337827 464.6124,135.367827 464.6124,130.117827 C464.6124,124.837827 461.3424,121.897827 457.4724,121.897827 C453.5724,121.897827 450.3024,124.837827 450.3024,130.117827 C450.3024,135.367827 453.6024,138.337827 457.4724,138.337827 Z M457.4724,136.567827 C454.0824,136.567827 452.3724,133.627827 452.3724,130.117827 C452.3724,126.397827 454.2624,123.667827 457.4724,123.667827 C460.8024,123.667827 462.5424,126.637827 462.5424,130.117827 C462.5424,133.837827 460.6524,136.567827 457.4724,136.567827 Z M473.5164,138.277827 C477.0864,138.277827 479.6664,136.627827 479.6664,133.717827 C479.6664,130.747827 477.8064,129.757827 473.6064,128.767827 C470.6964,128.077827 469.8264,127.417827 469.8264,125.947827 C469.8264,124.717827 470.8464,123.607827 473.2464,123.607827 C475.2264,123.607827 476.6664,124.327827 477.9564,125.557827 L479.0064,124.117827 C477.5964,122.767827 475.8264,121.897827 473.1864,121.897827 C469.7664,121.897827 467.8164,123.787827 467.8164,126.037827 C467.8164,128.737827 469.4964,129.727827 473.3064,130.657827 C476.5764,131.407827 477.6564,132.127827 477.6564,133.867827 C477.6564,135.547827 476.2464,136.597827 473.5464,136.597827 C471.3264,136.597827 469.7364,135.667827 468.4764,134.227827 L467.3364,135.487827 C468.5664,137.047827 470.6364,138.277827 473.5164,138.277827 Z" id="37-años" fill="#FFFFFF"></path>
                <path d="M363.4383,111.393164 L363.4383,103.023164 L363.4683,103.023164 C363.7083,104.103164 363.8733,104.568164 364.1283,105.363164 L366.2883,111.393164 L367.9533,111.393164 L370.1283,105.363164 C370.3683,104.583164 370.6083,103.878164 370.7733,103.098164 L370.8033,103.098164 L370.8033,111.393164 L372.6183,111.393164 L372.6183,100.293164 L370.1133,100.293164 L367.2183,109.098164 L367.1883,109.098164 L364.2033,100.293164 L361.7433,100.293164 L361.7433,111.393164 L363.4383,111.393164 Z M382.7188,111.393164 L382.7188,109.698164 L377.1238,109.698164 L377.1238,106.458164 L381.4438,106.458164 L381.1738,104.793164 L377.1238,104.793164 L377.1238,102.033164 L382.4188,102.033164 L382.4188,100.293164 L375.2488,100.293164 L375.2488,111.393164 L382.7188,111.393164 Z M387.7268,111.393164 C391.1618,111.393164 393.5018,109.758164 393.5018,105.798164 C393.5018,101.913164 391.2068,100.293164 387.7268,100.293164 L384.5768,100.293164 L384.5768,111.393164 L387.7268,111.393164 Z M386.4368,102.033164 L387.8618,102.033164 C390.4418,102.033164 391.6268,103.233164 391.6268,105.828164 C391.6268,108.528164 390.4568,109.698164 387.8918,109.698164 L386.4368,109.698164 L386.4368,102.033164 Z M397.5588,111.393164 L397.5588,100.293164 L395.6988,100.293164 L395.6988,111.393164 L397.5588,111.393164 Z M401.0563,111.393164 L401.9863,108.753164 L406.2013,108.753164 L407.1463,111.543164 L408.9613,111.243164 L405.0763,100.248164 L403.2463,100.248164 L399.3163,111.393164 L401.0563,111.393164 Z M404.1013,102.603164 L404.1313,102.603164 L405.6613,107.103164 L402.5413,107.103164 L404.1013,102.603164 Z M417.3123,111.393164 C420.7473,111.393164 423.0873,109.758164 423.0873,105.798164 C423.0873,101.913164 420.7923,100.293164 417.3123,100.293164 L414.1623,100.293164 L414.1623,111.393164 L417.3123,111.393164 Z M416.0223,102.033164 L417.4473,102.033164 C420.0273,102.033164 421.2123,103.233164 421.2123,105.828164 C421.2123,108.528164 420.0423,109.698164 417.4773,109.698164 L416.0223,109.698164 L416.0223,102.033164 Z M432.6658,111.393164 L432.6658,109.698164 L427.0708,109.698164 L427.0708,106.458164 L431.3908,106.458164 L431.1208,104.793164 L427.0708,104.793164 L427.0708,102.033164 L432.3658,102.033164 L432.3658,100.293164 L425.1958,100.293164 L425.1958,111.393164 L432.6658,111.393164 Z M445.9518,111.393164 L445.9518,109.698164 L440.3568,109.698164 L440.3568,106.458164 L444.6768,106.458164 L444.4068,104.793164 L440.3568,104.793164 L440.3568,102.033164 L445.6518,102.033164 L445.6518,100.293164 L438.4818,100.293164 L438.4818,111.393164 L445.9518,111.393164 Z M450.9598,111.393164 C454.3948,111.393164 456.7348,109.758164 456.7348,105.798164 C456.7348,101.913164 454.4398,100.293164 450.9598,100.293164 L447.8098,100.293164 L447.8098,111.393164 L450.9598,111.393164 Z M449.6698,102.033164 L451.0948,102.033164 C453.6748,102.033164 454.8598,103.233164 454.8598,105.828164 C454.8598,108.528164 453.6898,109.698164 451.1248,109.698164 L449.6698,109.698164 L449.6698,102.033164 Z M458.6258,111.393164 L459.5558,108.753164 L463.7708,108.753164 L464.7158,111.543164 L466.5308,111.243164 L462.6458,100.248164 L460.8158,100.248164 L456.8858,111.393164 L458.6258,111.393164 Z M461.6708,102.603164 L461.7008,102.603164 L463.2308,107.103164 L460.1108,107.103164 L461.6708,102.603164 Z M471.4158,111.393164 C474.8508,111.393164 477.1908,109.758164 477.1908,105.798164 C477.1908,101.913164 474.8958,100.293164 471.4158,100.293164 L468.2658,100.293164 L468.2658,111.393164 L471.4158,111.393164 Z M470.1258,102.033164 L471.5508,102.033164 C474.1308,102.033164 475.3158,103.233164 475.3158,105.828164 C475.3158,108.528164 474.1458,109.698164 471.5808,109.698164 L470.1258,109.698164 L470.1258,102.033164 Z" id="MEDIA-DE-EDAD" fill="#FFFFFF"></path>
                <path d="M419.6723,50.766 C426.1873,50.766 431.4683,45.484 431.4683,38.969 C431.4683,32.454 426.1873,27.173 419.6723,27.173 C413.1573,27.173 407.8753,32.454 407.8753,38.969 C407.8753,45.484 413.1573,50.766 419.6723,50.766 L419.6723,50.766 Z M426.7503,71.999 L419.6723,71.999 L419.6723,67.281 L431.4683,67.281 L426.7503,71.999 Z M427.0753,53.731 C424.8473,54.85 422.3343,55.484 419.6723,55.484 C417.0093,55.484 414.4953,54.85 412.2673,53.73 C402.9643,55.996 396.0793,64.371 396.0793,74.359 L396.0793,79.078 L443.2653,79.078 L443.2653,74.359 C443.2653,64.371 436.3673,55.998 427.0753,53.731 L427.0753,53.731 Z" id="Fill-16" fill="#FFFFFF"></path>
                <path d="M103.751,116.435164 L103.751,111.500164 L108.791,111.500164 L108.791,116.435164 L110.666,116.435164 L110.666,105.335164 L108.791,105.335164 L108.791,109.760164 L103.751,109.760164 L103.751,105.335164 L101.876,105.335164 L101.876,116.435164 L103.751,116.435164 Z M117.677,116.645164 C120.347,116.645164 122.672,114.620164 122.672,110.885164 C122.672,107.150164 120.347,105.125164 117.677,105.125164 C114.992,105.125164 112.667,107.150164 112.667,110.885164 C112.667,114.620164 114.992,116.645164 117.677,116.645164 Z M117.677,114.965164 C115.802,114.965164 114.542,113.405164 114.542,110.885164 C114.542,108.365164 115.802,106.850164 117.677,106.850164 C119.552,106.850164 120.812,108.365164 120.812,110.885164 C120.812,113.405164 119.552,114.965164 117.677,114.965164 Z M126.383,116.435164 L126.383,108.065164 L126.413,108.065164 C126.653,109.145164 126.818,109.610164 127.073,110.405164 L129.233,116.435164 L130.898,116.435164 L133.073,110.405164 C133.313,109.625164 133.553,108.920164 133.718,108.140164 L133.748,108.140164 L133.748,116.435164 L135.563,116.435164 L135.563,105.335164 L133.058,105.335164 L130.163,114.140164 L130.133,114.140164 L127.148,105.335164 L124.688,105.335164 L124.688,116.435164 L126.383,116.435164 Z M142.5515,116.435164 C144.8165,116.435164 146.4815,115.430164 146.4815,113.390164 C146.4815,111.680164 145.4465,110.900164 144.1865,110.675164 L144.1865,110.645164 C145.2215,110.420164 146.1515,109.625164 146.1515,108.095164 C146.1515,106.055164 144.5165,105.335164 142.2815,105.335164 L138.0815,105.335164 L138.0815,116.435164 L142.5515,116.435164 Z M139.9265,106.970164 L142.1315,106.970164 C143.6915,106.970164 144.3515,107.465164 144.3515,108.440164 C144.3515,109.445164 143.5715,109.970164 142.1015,109.970164 L139.9265,109.970164 L139.9265,106.970164 Z M139.9265,111.560164 L142.1615,111.560164 C143.7365,111.560164 144.6515,112.085164 144.6515,113.210164 C144.6515,114.230164 143.9465,114.815164 142.3565,114.815164 L139.9265,114.815164 L139.9265,111.560164 Z M150.4265,116.435164 L150.4265,112.055164 L152.3915,112.055164 L155.0765,116.585164 L156.9065,116.285164 L154.2665,111.815164 C155.7965,111.425164 156.7115,110.510164 156.7115,108.740164 C156.7115,106.385164 155.1815,105.335164 152.5565,105.335164 L148.5815,105.335164 L148.5815,116.435164 L150.4265,116.435164 Z M150.4265,107.045164 L152.4665,107.045164 C154.0565,107.045164 154.8815,107.480164 154.8815,108.710164 C154.8815,109.970164 154.0565,110.420164 152.4665,110.420164 L150.4265,110.420164 L150.4265,107.045164 Z M166.316,116.435164 L166.316,114.740164 L160.721,114.740164 L160.721,111.500164 L165.041,111.500164 L164.771,109.835164 L160.721,109.835164 L160.721,107.075164 L166.016,107.075164 L166.016,105.335164 L158.846,105.335164 L158.846,116.435164 L166.316,116.435164 Z M172.118,116.645164 C174.758,116.645164 176.228,115.220164 176.228,113.420164 C176.228,111.320164 174.548,110.645164 172.448,110.030164 C170.633,109.490164 169.838,109.130164 169.838,108.095164 C169.838,107.375164 170.558,106.820164 171.818,106.820164 C172.988,106.820164 174.158,107.435164 175.043,108.215164 L175.928,106.715164 C174.878,105.845164 173.483,105.125164 171.788,105.125164 C169.568,105.125164 168.008,106.370164 168.008,108.245164 C168.008,110.360164 169.718,110.930164 171.863,111.560164 C173.693,112.115164 174.398,112.565164 174.398,113.540164 C174.398,114.500164 173.453,114.980164 172.058,114.980164 C170.693,114.980164 169.298,114.215164 168.443,113.330164 L167.438,114.755164 C168.563,115.820164 170.123,116.645164 172.118,116.645164 Z" id="HOMBRES" fill="#676767"></path>
                <path d="M672.941,118.430164 L672.941,110.060164 L672.971,110.060164 C673.211,111.140164 673.376,111.605164 673.631,112.400164 L675.791,118.430164 L677.456,118.430164 L679.631,112.400164 C679.871,111.620164 680.111,110.915164 680.276,110.135164 L680.306,110.135164 L680.306,118.430164 L682.121,118.430164 L682.121,107.330164 L679.616,107.330164 L676.721,116.135164 L676.691,116.135164 L673.706,107.330164 L671.246,107.330164 L671.246,118.430164 L672.941,118.430164 Z M688.956,118.625164 C691.881,118.625164 693.246,116.885164 693.246,114.365164 L693.246,107.330164 L691.401,107.330164 L691.401,114.305164 C691.401,115.910164 690.666,116.915164 688.971,116.915164 C687.261,116.915164 686.526,115.880164 686.526,114.290164 L686.526,107.330164 L684.651,107.330164 L684.651,114.395164 C684.651,116.885164 686.016,118.625164 688.956,118.625164 Z M696.8095,118.640164 C699.1195,118.640164 700.1695,117.350164 700.1695,115.280164 L700.1695,107.330164 L698.2945,107.330164 L698.2945,115.055164 C698.2945,116.450164 697.6795,117.005164 696.7195,117.005164 C695.9245,117.005164 695.2645,116.585164 694.7695,116.045164 L693.9145,117.515164 C694.5295,118.145164 695.4295,118.640164 696.8095,118.640164 Z M710.162,118.430164 L710.162,116.735164 L704.567,116.735164 L704.567,113.495164 L708.887,113.495164 L708.617,111.830164 L704.567,111.830164 L704.567,109.070164 L709.862,109.070164 L709.862,107.330164 L702.692,107.330164 L702.692,118.430164 L710.162,118.430164 Z M713.865,118.430164 L713.865,114.050164 L715.83,114.050164 L718.515,118.580164 L720.345,118.280164 L717.705,113.810164 C719.235,113.420164 720.15,112.505164 720.15,110.735164 C720.15,108.380164 718.62,107.330164 715.995,107.330164 L712.02,107.330164 L712.02,118.430164 L713.865,118.430164 Z M713.865,109.040164 L715.905,109.040164 C717.495,109.040164 718.32,109.475164 718.32,110.705164 C718.32,111.965164 717.495,112.415164 715.905,112.415164 L713.865,112.415164 L713.865,109.040164 Z M729.868,118.430164 L729.868,116.735164 L724.273,116.735164 L724.273,113.495164 L728.593,113.495164 L728.323,111.830164 L724.273,111.830164 L724.273,109.070164 L729.568,109.070164 L729.568,107.330164 L722.398,107.330164 L722.398,118.430164 L729.868,118.430164 Z M735.782,118.640164 C738.422,118.640164 739.892,117.215164 739.892,115.415164 C739.892,113.315164 738.212,112.640164 736.112,112.025164 C734.297,111.485164 733.502,111.125164 733.502,110.090164 C733.502,109.370164 734.222,108.815164 735.482,108.815164 C736.652,108.815164 737.822,109.430164 738.707,110.210164 L739.592,108.710164 C738.542,107.840164 737.147,107.120164 735.452,107.120164 C733.232,107.120164 731.672,108.365164 731.672,110.240164 C731.672,112.355164 733.382,112.925164 735.527,113.555164 C737.357,114.110164 738.062,114.560164 738.062,115.535164 C738.062,116.495164 737.117,116.975164 735.722,116.975164 C734.357,116.975164 732.962,116.210164 732.107,115.325164 L731.102,116.750164 C732.227,117.815164 733.787,118.640164 735.782,118.640164 Z" id="MUJERES" fill="#676767"></path>
            </g>
        </g>
    </g>
</svg>